<svg xmlns="http://www.w3.org/2000/svg" xmlns:xlink="http://www.w3.org/1999/xlink" height="1080" width="1920" viewBox="-12781938.607172001 -4439542.950800689 642923.8618226927 764229.3688507006">
<path id="04001" d="M -12245217.971118012 -4439170.158392684 l 1974.3734381701797 1.547061235643923 17374.646154662594 17.01499659754336 17366.49282727018 13.612228318117559 17371.928312124684 13.612085482105613 17374.646054543555 17.01492557208985 17369.210669813678 13.612046144902706 17371.928312119097 13.612028661184013 -2.717742424458265 24656.674757950008 0 24599.678732874803 -5.435484854504466 24549.93868222367 -5.435584958642721 24483.78552906867 0 24428.28211671114 -1.718164134770632 15419.456230270676 -0.999578287824988 8960.518866625614 -2.717742424458265 24322.054854252376 0 24267.97392628994 -5.435484852641821 24211.029180406593 -5.435484848916531 24161.22726972215 0 24111.866189774126 -2.82294643111527 12500.028254870325 -2.612638533115387 11556.288311318494 0 24001.243290201295 0 15996.390722473152 0 7963.444996505044 -8.153327381238341 23902.35431529535 -5.435484854504466 23848.6425693864 0 23801.94595537288 -2.71774242259562 23749.12249094434 -0.518435852602124 4526.0335378227755 -8741.507852561772 -69.37218996882439 -24321.747375750914 374.89786050328985 -1448.1141671836376 2476.2521090894006 -2071.386335192248 1985.9020692417398 -2645.2873788755387 996.8010914493352 -4547.720082864165 751.6288524656557 -1866.19589057751 822.3781215264462 -3016.7147163208574 2788.0228389594704 -2065.4983643274754 3658.254091487732 -2464.1033118311316 3341.4950582026504 -2536.5769386496395 1382.028653705027 -3505.9116973448545 282.91454202961177 -1766.5446537025273 565.8082307209261 -987.4531654044986 973.7779157008044 -1974.9063308052719 2181.181395289954 -1730.3078402932733 924.5657471898012 -3329.2572319749743 750.4753005262464 -3048.4219280555844 2310.9395088064484 -2926.122682796791 3517.176707533654 -1743.8966453205794 3706.281102845911 -1245.6404609419405 2010.2413452570327 -1358.8805028498173 1216.8410011576489 -1531.005366543308 114.07227397337556 -1571.7717816252261 -880.0152798742056 -2577.343353735283 -2080.796573966276 -2699.642598990351 -2613.7509191134013 -2301.037651486695 -2299.0684876414016 -2015.672745892778 -1842.8466240805574 -2359.9224732797593 -1680.0194083703682 371.2315287422389 -25604.999017608818 3617.3265193682164 -65.08818576205522 -13.912153361365199 -46665.21807949012 1114.196783348918 6.185863966587931 110.5413675494492 -26767.639869119972 16.477288391441107 -20057.74894168228 -1891.6513278111815 -11791.018778328784 1644.745921747759 -11702.316173934378 -148.8324894029647 -23743.46180572547 798.9396514650434 -5.966377159114927 -22.931369822472334 -11799.048425221816 180.00417321175337 -5926.348180016503 -184.3438522424549 -8901.695610926952 130.57854194007814 -20641.07536524255 -7.565829193219542 -47420.75640763901 1873.729112436995 31.388975763693452 -1.557582315057516 -19827.82731257938 -19339.308155072853 -22.745104764588177 0.113768517971039 -33395.32795504667 -0.109315743669868 -27556.675093404017 0.002003749832511 -27610.990173320286 0.002894308418036 -38798.20476590935 -0.220078635960817 -30910.870805246755 z" vector-effect="non-scaling-stroke" fill="#000" fill-opacity="1" stroke="#FFF" stroke-width="0.3px" stroke-linejoin="round" stroke-linecap="round"><title>Apache County</title></path>
<path id="04003" d="M -12139104.431456052 -3675340.5195549116 l -2423.7579372115433 0 -4754.519126538187 0 -4751.642742197961 0 -4760.271672535688 0 -4754.519015211612 6.734341618604958 -4754.519015211612 0 -4757.39528821595 0 -4754.519015207887 0 -4751.642742205411 0 -4757.395399533212 0 -4757.3952882140875 0 -4751.6428535263985 0 -4757.39528821595 0 -4751.642742207274 0 -4751.642853524536 0 -4763.147834222764 0 -4751.642742196098 0 -4751.6428535263985 0 -4763.147834222764 0 -4751.642853524536 0 -4763.147834222764 6.734468231908977 -4751.6428535263985 6.734334228094667 -4751.642742205411 0 -4757.3952882140875 0 -4751.642742207274 0 -4751.6427422091365 0 -4757.395399533212 0 -4757.3953995313495 0 -4751.642630888149 0 -4763.147945530713 0 -4757.39528821595 0 -4757.3953995313495 0 -4751.642853528261 0 -2669.9072612971067 0 -83.04890422895551 -18578.6940529719 39.0736978687346 -18853.278079119045 925.8447615224868 13.203322110231966 56.88437111489475 -15346.971120976377 -62.11505134962499 -11370.983995880932 182.67528439313173 -7467.042863546871 -103.08028999716043 -24960.57936233096 433.9240430239588 -11146.924811988138 -10.240502597764134 -13640.529071812518 -361.00944259762764 0.78939215047285 -54.211033541709185 -22867.140919445083 11403.788715491071 111.96927472949028 22480.632977090776 -40.35496600717306 32459.309126172215 -60.53224412864074 25592.79120195657 65.81086309812963 21551.78314591013 -105.76919996924698 20193.796566404402 336.0372262718156 2604.986290860921 -191.22807938745245 12604.480854509398 39.30200049094856 7426.920069336891 -26.37659099837765 0 4107.81482433714 -8.153227277100086 23331.863990362268 -5.435685072094202 23276.82994471304 0 23235.049879303202 0 23193.645764899906 -5.435484852641821 23146.23961404385 0 23102.422058913857 0 19.09054270386696 0 19.090747399255633 0 19.090600488241762 0 22.27231013868004 0 19.090536103583872 0 22.27223503962159 0 19.09058893006295 0 19.090442013461143 0 22.27212527114898 0 19.09037763858214 0 22.27205015812069 0 19.090430474840105 0 19.090283553116024 0 19.09013664117083 0 22.27202293323353 0 19.090189477894455 0 22.27194783091545 0 19.090125099290162 0 19.089978196192533 0 19.090182880870998 0 22.271686210297048 0 19.09000130975619 0 22.271728320978582 0 19.08981974190101 0 19.090024434030056 0 22.27150136511773 0 22.271578120999038 0 15.908077905420214 0 22.27139161201194 0 22.271468370687217 0 15.908116711303592 0 12.726384758017957 z" vector-effect="non-scaling-stroke" fill="#000" fill-opacity="1" stroke="#FFF" stroke-width="0.3px" stroke-linejoin="round" stroke-linecap="round"><title>Cochise County</title></path>
<path id="04005" d="M -12528428.971790168 -4439403.712053189 l 7245.391685638577 7.095627419650555 17371.92831212096 13.612292312085629 17366.492827268317 13.612400191836059 17371.928312126547 17.015444309450686 17374.64615465887 13.612360851839185 17369.21056969464 13.612218011170626 17371.928412230685 13.61232588160783 12517.769655300304 9.80715066473931 4856.876399248838 3.805157734081149 17369.210569692776 17.01532956957817 17371.928312126547 13.612143696285784 17371.92841223441 13.61225157417357 17369.210569692776 17.015258541330695 1391.1708061080426 1.090087589807808 -0.289671406149864 30633.793508740142 -0.336296180263162 32204.79122017417 -0.114436440169811 41322.860974027775 0.220523914322257 27378.113001941703 0.220412589609623 29986.01480147615 0.118889218196273 46764.70292231813 0.097961153835058 33479.62145604193 -0.001447157934308 19954.5710117016 0.442717615514994 38558.99671640014 0.443051578477025 31502.546088604257 0.664911314845085 43236.586611988954 -1551.125116797164 -3923.118224206846 -2691.704396823421 -1024.2140465267003 -4647.365099763498 -241.2117814188823 1161.3965814039111 1780.2597673921846 -3165.8154439479113 2870.9743294753134 -3127.1860221717507 -1110.2586903399788 -2402.9417490232736 -3641.773930712603 -4832.155565800145 -1087.8138372851536 -3055.942215975374 -1839.765797440894 -754.5230633243918 -1690.5561235276982 -2392.589147699997 -1078.1467096349224 -709.2162532079965 -1541.2932161618955 -2922.9156471192837 -391.3230843343772 22.152801306918263 2414.0666075279005 -2575.7101553361863 -1555.1153481607325 1225.8505665771663 -2365.5785863231868 -1817.6247569974512 -1348.743432149291 -4423.389839002863 -1858.1594549524598 -1358.6546077765524 1203.2851682361215 -3298.951996460557 -86.46446347469464 -2787.7733400166035 -2456.5037115723826 -2208.577695466578 -802.5362554076128 -2775.306336283684 150.98514248384163 -2159.263161044568 -2994.9992867256515 -1210.4873636513948 -49.80138735240325 -742.3340243529528 -2604.649949962739 -2926.8121632561088 881.8273161342368 -4241.438799224794 2200.250759474002 -4618.867310114205 541.6446352610365 58.275976065546274 -2306.7791481474414 -2185.8691872563213 179.1844932232052 -3224.3127231691033 1887.2405632627197 -15.473631855100393 6329.5293223382905 -2960.763606071472 -997.7504692645743 580.5305878911167 -2715.158702785615 -419.89611739851534 -2610.142555458471 2238.7452774699777 -1874.821774886921 -2300.1938590276986 -1181.6581189446151 -5442.4095709268 4736.145956365857 -1847.9022113326937 -1291.675468260888 -1891.095620919019 139.53749178955331 251.35907625593245 -2219.8617440005764 -677.1555719412863 -4077.542910985183 620.1612171642482 -4004.45939874975 -1931.2817344479263 403.6569634000771 -273.5121001973748 3121.1846185163595 -3140.433598170057 -38.2143142609857 217.59286906570196 -7964.18201695988 -25.899481408298016 -13773.386672305409 154.0656186658889 -640.8967271721922 -9.79366616345942 -22314.18604072882 -11766.579603912309 -13.4218071969226 -7447.494680617005 -216.77818612009287 -5922.307339141145 122.0134212221019 10.799437759444118 -24010.070935509633 -3495.653314050287 545.6135630910285 -23688.004396872595 36.815289430785924 2.004418751224876 270.078315296676 -23801.216096371412 0.677361891139299 -10991.239239213988 125.93398355692625 -131.35544066689909 -23834.14757273253 -11864.985031891614 -153.70791718782857 -27.940746907144785 -10186.016956484411 200.48662555590272 -4944.586491744034 -3556.6571742482483 3020.2803871529177 -3120.7299369815737 -568.0890132412314 -4564.877357088029 836.5166045175865 -3969.5402750391513 -961.504756346345 -2960.6531771421432 -3520.986135563813 -1850.3519080448896 -768.609307221137 207.38776606693864 -2059.1616516327485 -1357.9853549916297 -1363.894856011495 -2727.7725797593594 1097.9489371851087 -2328.135496493429 -2020.1726534012705 -2056.4040628634393 -663.5151768783107 -4510.442237406969 895.6799464672804 -2167.835095791146 -174.73798086866736 -4685.65922723338 -2271.4364191927016 -9355.511086780578 -2608.977447473444 -7103.962732030079 -1437.794401419349 -3458.361729916185 -5501.5146030038595 -12266.95982446894 -8209.052675952204 -6746.404750242829 -3430.3474290417507 -1157.8331331890076 -2351.345939638093 -1937.1812221854925 -1524.7665493153036 -4935.682580912486 -331.8928898796439 -4560.759203843772 -2757.536790375598 -4397.230426587164 -266.1889906823635 -3884.3814211878926 402.5636878889054 354.7689392436296 -34873.561656164005 1635.186205090955 -4048.819349657744 856.0947167966515 -5380.275697341189 -371.4273374453187 -4359.804870593362 -797.2098950054497 -4076.3204709719867 -448.43056593835354 -4508.587069295347 221.9504821319133 -425.3012366471812 416.7233542073518 -285.3613794995472 181.18406704626977 -414.0670950692147 -439.37136258743703 -805.7974273040891 -1617.067798389122 -1443.869914243929 -208.36167710274458 -391.7807622309774 58.884821789339185 -2910.8140704110265 -394.07534582540393 -6339.319826436229 697.5586581286043 -1904.7599515048787 1843.5478821936995 -2504.708641849458 1843.5478821992874 -1647.7080281106755 1499.2981548085809 -162.54260712023824 1825.4294754918665 515.6440021889284 2817.412242570892 347.4853714592755 2831.001047598198 -1266.6939812870696 1626.127001741901 -3016.000682783313 1222.9924525618553 -3611.336890968494 1608.0085950382054 -3017.8489762637764 7224.714673470706 -3231.9397321436554 1200.3444441836327 -959.6682281056419 1263.7588676474988 -1279.6902754940093 7854.329306460917 -4800.189733487554 7655.026832707226 -685.1134262923151 1816.3702721390873 -814.330736618489 1331.7028927896172 -1656.9316190965474 1576.3013833034784 -1544.826560058631 1793.722263759002 -1213.5462599908933 1947.728720748797 -668.6324645318091 1843.5478821955621 33.71355413738638 6857.816937703639 -949.6387904593721 2382.5704816598445 -1152.0410389229655 2269.330439755693 -2405.6340427258983 1109.7524106577039 -607.1140499440953 2192.3272112607956 -556.5512804286554 1014.6307754572481 -404.7826355174184 901.3907335586846 -837.7235101442784 -810.7987000327557 -1017.7249806877226 -144.94725363701582 -894.1029995931312 412.19375253096223 -776.074139486067 856.0947167947888 -658.0197456516325 1019.1603771336377 -286.8417138038203 792.6802933290601 258.720315256156 779.0914882980287 433.0613886490464 951.2163519952446 208.08823402412236 1784.663060406223 -641.1496226731688 570.7298111952841 -1496.16438458208 231.00968548469245 -1952.0761738894507 788.1506916508079 -2008.7018706984818 1630.656603416428 -1102.976332752034 722.0015796218067 -1168.889564793557 -2347.563975904137 -6455.281001021154 2466.8842211347073 -2513.3782888948917 -2479.7967254668474 -4540.047632063739 -722.9606480933726 -171.06243008747697 -939.3727513235062 -4712.340641913004 1925.7307880409062 -3918.7452887790278 1181.618991425261 -0.193915266543627 897.1906793173403 -3243.5749236531556 132.60411138646305 -4457.4785094391555 -547.3129631541669 -3839.8138443902135 -1192.9289403669536 -2646.259912835434 1597.256581697613 -5094.786410599016 783.4223823696375 -5541.294819005765 269.6682381797582 -6576.002681554295 1695.6331779342145 -1670.6008996218443 555.5586204770952 -3565.3036684030667 2094.2237466741353 -4075.4787624469027 607.9011563695967 -4341.976239695214 2406.638112716377 -2347.1901344945654 456.7459857966751 -3720.5276544326916 1620.3569345083088 -1646.3216759422794 z" vector-effect="non-scaling-stroke" fill="#000" fill-opacity="1" stroke="#FFF" stroke-width="0.3px" stroke-linejoin="round" stroke-linecap="round"><title>Coconino County</title></path>
<path id="04007" d="M -12418258.382895043 -4092383.302479962 l 3140.433598170057 38.2143142609857 273.5121001973748 -3121.1846185163595 1931.2817344479263 -403.6569634000771 -620.1612171642482 4004.45939874975 677.1555719412863 4077.542910985183 -251.35907625593245 2219.8617440005764 1891.095620919019 -139.53749178955331 1847.9022113326937 1291.675468260888 5442.4095709268 -4736.145956365857 2300.1938590276986 1181.6581189446151 -2238.7452774699777 1874.821774886921 419.89611739851534 2610.142555458471 -580.5305878911167 2715.158702785615 2960.763606071472 997.7504692645743 15.473631855100393 -6329.5293223382905 3224.3127231691033 -1887.2405632627197 2185.8691872563213 -179.1844932232052 -58.275976065546274 2306.7791481474414 4618.867310114205 -541.6446352610365 4241.438799224794 -2200.250759474002 2926.8121632561088 -881.8273161342368 742.3340243529528 2604.649949962739 1210.4873636513948 49.80138735240325 2159.263161044568 2994.9992867256515 2775.306336283684 -150.98514248384163 2208.577695466578 802.5362554076128 2787.7733400166035 2456.5037115723826 3298.951996460557 86.46446347469464 1358.6546077765524 -1203.2851682361215 4423.389839002863 1858.1594549524598 1817.6247569974512 1348.743432149291 -1225.8505665771663 2365.5785863231868 2575.7101553361863 1555.1153481607325 -22.152801306918263 -2414.0666075279005 2922.9156471192837 391.3230843343772 709.2162532079965 1541.2932161618955 2392.589147699997 1078.1467096349224 754.5230633243918 1690.5561235276982 3055.942215975374 1839.765797440894 4832.155565800145 1087.8138372851536 2402.9417490232736 3641.773930712603 3127.1860221717507 1110.2586903399788 3165.8154439479113 -2870.9743294753134 -1161.3965814039111 -1780.2597673921846 4647.365099763498 241.2117814188823 2691.704396823421 1024.2140465267003 1551.125116797164 3923.118224206846 0.66658111102879 35405.222780342214 44212.530279863626 0.136961148586124 39278.40594918281 0.136692591477186 0.887884259223938 38959.284660088364 -8.840108146890998 14799.742297711316 9.50691189430654 17738.08817512542 -10134.079494068399 -35.09606046276167 -8691.045046230778 186.28432920807973 118.3322847597301 1647.606952116359 -2685.612103736028 487.92788251210004 -2474.8693908452988 1679.620565283578 -1634.3997769560665 -1043.7510409685783 -3853.93832344003 1181.630703387782 -1426.3367468547076 -645.5164350159466 -1705.3332244083285 1375.2417733687907 -2574.5664588864893 -422.52158518508077 -2871.0405417662114 782.7150936545804 -1130.9396800491959 3070.401655487716 -2012.9305734466761 598.3928159680218 -2794.296662179753 -647.5449353954755 -5194.003132842481 3059.1938500837423 -688.7192180044949 2804.219416007865 443.4149201735854 4255.461448925082 -1215.840495320037 5986.076354224235 2171.3615859355778 6335.02857490303 1554.591271782294 1004.4950230829418 1115.4846048764884 3767.539072413463 -4224.876330543309 271.9765724595636 -3848.222947642207 247.36507924832404 -5526.114044910297 1921.4545757076703 -5199.9827242307365 2943.811650391668 -7315.306706996635 6393.736718734726 -5136.568300765008 2568.4088958255015 -1281.8772743530571 1313.7255949964747 -2636.2281755227596 6793.335405645892 -1503.8277564849705 1820.6135676428676 -2602.310306698084 1016.8489150675014 -1876.9243135545403 -157.0594443581067 -12307.455524841323 -20030.03823056491 -6170.6596759445965 -11772.917077276856 -3116.7225466351956 -12247.488143403549 -7257.916474606842 -16536.27352969395 -14545.900874717161 -30478.622570272535 -3170.721173306927 4381.718379041646 -3206.957986721769 6251.265971120447 -1060.9228845499456 777.9149283077568 -1428.206039134413 -2089.891213487368 -1280.7307415753603 259.3505278574303 -5847.166571531445 -7801.928485137876 -1902.0781792346388 -997.0242378562689 -594.9280942324549 -4302.0919150821865 -2392.2551892362535 -2645.119425285142 -3187.6332849040627 -1307.6274397280067 -283.64172857813537 -3492.9987616427243 1063.6581798065454 -2626.007908080239 -906.085440594703 -1012.7390593839809 1739.6455650143325 -2763.785512325354 -2577.9360998757184 -2318.54180352157 604.9103356096894 -2252.2520015779883 -663.6866927854717 -2523.6709302691743 -1930.8920049164444 -1531.984602366574 926.5683382097632 -4081.641141479835 -2317.1705266460776 -991.9951157118194 -1346.4645669348538 1314.3467071680352 -1032.933109788224 -2523.787737157196 -613.1479779295623 -3667.1369830183685 1966.4585822224617 -2449.441304048989 -718.7897294107825 -2293.9405086990446 -2784.8788106236607 -1096.2498215269297 -3144.3298916649073 822.5990292234346 -330.2841499466449 -3947.3014589762315 2702.1684289630502 -1624.6024114219472 1183.1037707868963 -2460.5852443445474 -172.32234910689294 -1752.7206373494118 -2358.9703275281936 -3271.134589671623 1581.8492962568998 -1955.1723932358436 -1287.9657292384654 -2695.955650588032 566.5041094049811 -2625.3005092637613 -26087.493794528767 -21.926824871916324 -1668.6539622228593 -483.3874017302878 858.0538190957159 -4515.800985341892 507.315387731418 -1796.2251530643553 1866.1958905756474 -2853.735029767733 1104.7387247849256 -2870.8553304309025 245.0825747102499 -3112.817056219559 63.41442346572876 -5432.974525946658 2473.490798640996 -1943.7311276071705 -257.02846660092473 -4127.2585071087815 932.0785416923463 -2019.9199976148084 -256.9779275562614 -2460.964547365438 4622.0367986653 -2061.194381077774 2912.451058384031 -2795.1342615713365 4184.833506073803 -2334.599836018402 z" vector-effect="non-scaling-stroke" fill="#000" fill-opacity="1" stroke="#FFF" stroke-width="0.3px" stroke-linejoin="round" stroke-linecap="round"><title>Gila County</title></path>
<path id="04009" d="M -12233465.492716748 -3973396.085905665 l 2359.9224732797593 1680.0194083703682 2015.672745892778 1842.8466240805574 2301.037651486695 2299.0684876414016 2699.642598990351 2613.7509191134013 2577.343353735283 2080.796573966276 1571.7717816252261 880.0152798742056 1531.005366543308 -114.07227397337556 1358.8805028498173 -1216.8410011576489 1245.6404609419405 -2010.2413452570327 1743.8966453205794 -3706.281102845911 2926.122682796791 -3517.176707533654 3048.4219280555844 -2310.9395088064484 3329.2572319749743 -750.4753005262464 1730.3078402932733 -924.5657471898012 1974.9063308052719 -2181.181395289954 987.4531654044986 -973.7779157008044 1766.5446537025273 -565.8082307209261 3505.9116973448545 -282.91454202961177 2536.5769386496395 -1382.028653705027 2464.1033118311316 -3341.4950582026504 858.6888505090028 45889.127629329916 -76.47804865241051 33672.87577875564 18069.427724264562 31198.486399301328 6991.033561404794 1884.8186480407603 877.1974761318415 3950.3302977080457 -1523.9464631192386 742.7610479951836 -620.762787701562 3608.680152702611 2607.4428893830627 2017.3977500316687 1263.1665296815336 -572.299024106469 4061.175585558638 2784.4292399021797 -347.0853780563921 1108.831512067467 627.7089012879878 5548.368567877915 -779.0503093656152 1997.9000453869812 1299.0961198471487 6213.837402725592 -2006.4725958295166 2153.1721330364235 1231.7764370236546 2187.4941398859955 -61.152916982769966 1687.749613642227 -1704.4055990930647 4385.058927124366 83.72539277747273 1427.4614031938836 3195.5791588425636 2038.3063071877696 1548.9763166625053 1820.9211978749372 967.824677336961 4234.086888910271 2823.0706354808062 488.9505450767465 2109.334922267124 4792.620175677817 1782.8751534279436 632.7875166824088 -12604.480854509398 -39.30200049094856 -2604.986290860921 191.22807938745245 -20193.796566404402 -336.0372262718156 -21551.78314591013 105.76919996924698 -25592.79120195657 -65.81086309812963 -32459.309126172215 60.53224412864074 -22480.632977090776 40.35496600717306 -11403.788715491071 -111.96927472949028 31.39220771752298 -11407.226596198045 228.98452652059495 1.979630247689784 60.67023567855358 -30474.07366563985 19.704997027292848 -26372.40982540697 -143.71246074140072 -7521.44212464802 82.48728461749852 -26299.349542070646 4224.876330543309 -271.9765724595636 -1115.4846048764884 -3767.539072413463 -1554.591271782294 -1004.4950230829418 -2171.3615859355778 -6335.02857490303 1215.840495320037 -5986.076354224235 -443.4149201735854 -4255.461448925082 688.7192180044949 -2804.219416007865 5194.003132842481 -3059.1938500837423 2794.296662179753 647.5449353954755 2012.9305734466761 -598.3928159680218 1130.9396800491959 -3070.401655487716 2871.0405417662114 -782.7150936545804 2574.5664588864893 422.52158518508077 1705.3332244083285 -1375.2417733687907 1426.3367468547076 645.5164350159466 3853.93832344003 -1181.630703387782 1634.3997769560665 1043.7510409685783 2474.8693908452988 -1679.620565283578 2685.612103736028 -487.92788251210004 -118.3322847597301 -1647.606952116359 8691.045046230778 -186.28432920807973 10134.079494068399 35.09606046276167 -9.50691189430654 -17738.08817512542 4828.450308287516 510.4739021221176 3940.7534582577646 511.1503938715905 z" vector-effect="non-scaling-stroke" fill="#000" fill-opacity="1" stroke="#FFF" stroke-width="0.3px" stroke-linejoin="round" stroke-linecap="round"><title>Graham County</title></path>
<path id="04011" d="M -12139066.90119157 -3999062.152240312 l -2.199306571856141 19180.510401689913 0 23651.322978605516 -5.435584964230657 23606.31965434132 -2.195001345127821 9520.620337181725 -3.240483501926064 14041.097081842832 0 23511.03782728361 -2.285448731854558 19734.880740665365 -0.432293690741062 3729.1428463291377 -2.717742424458265 23417.42004622612 0 19260.19063560199 -7426.920069336891 26.37659099837765 -1782.8751534279436 -632.7875166824088 -2109.334922267124 -4792.620175677817 -2823.0706354808062 -488.9505450767465 -967.824677336961 -4234.086888910271 -1548.9763166625053 -1820.9211978749372 -3195.5791588425636 -2038.3063071877696 -83.72539277747273 -1427.4614031938836 1704.4055990930647 -4385.058927124366 61.152916982769966 -1687.749613642227 -1231.7764370236546 -2187.4941398859955 2006.4725958295166 -2153.1721330364235 -1299.0961198471487 -6213.837402725592 779.0503093656152 -1997.9000453869812 -627.7089012879878 -5548.368567877915 347.0853780563921 -1108.831512067467 -4061.175585558638 -2784.4292399021797 -1263.1665296815336 572.299024106469 -2607.4428893830627 -2017.3977500316687 620.762787701562 -3608.680152702611 1523.9464631192386 -742.7610479951836 -877.1974761318415 -3950.3302977080457 -6991.033561404794 -1884.8186480407603 -18069.427724264562 -31198.486399301328 76.47804865241051 -33672.87577875564 -858.6888505090028 -45889.127629329916 2065.4983643274754 -3658.254091487732 3016.7147163208574 -2788.0228389594704 1866.19589057751 -822.3781215264462 4547.720082864165 -751.6288524656557 2645.2873788755387 -996.8010914493352 2071.386335192248 -1985.9020692417398 1448.1141671836376 -2476.2521090894006 24321.747375750914 -374.89786050328985 z" vector-effect="non-scaling-stroke" fill="#000" fill-opacity="1" stroke="#FFF" stroke-width="0.3px" stroke-linejoin="round" stroke-linecap="round"><title>Greenlee County</title></path>
<path id="04012" d="M -12735911.159387523 -4041040.1527732294 l 1157.7660816945136 -2507.5222698384896 1791.0044716056436 -1877.7215068046935 4038.592874158174 -1277.1591004547663 11357.523180020973 -8139.1052768798545 2179.6444414872676 -588.1597290714271 3524.9360519461334 -4597.897033894435 3731.4857776928693 -3675.7147019198164 3527.653894484043 -2713.166034374386 926.7564739137888 -1825.5865907599218 -654.9804294146597 -2819.5472962684 6830.240139119327 842.5535099217668 2894.415471067652 2297.4127250099555 2156.0903978515416 1847.4614928504452 1150.5188257433474 356.3006311189383 3120.8955548740923 -520.7508571119979 3424.37886717543 -1452.7473963066004 1472.120544752106 -466.015066400636 1712.189433587715 372.8135877419263 969.334758695215 1277.3417033432052 543.552201140672 1452.5955048939213 1068.985995573923 1260.592282329686 2957.829894531518 1381.0096715223044 3084.6587414629757 706.8803057433106 1721.2486369404942 -60.27489582216367 7211.125868445262 1851.9367990796454 6812.520920941606 843.6815521460958 2205.9160162899643 21.912970174103975 2124.3831861186773 -361.5694228047505 2002.0839408580214 -942.3260080930777 1902.4327039904892 -1386.238170846831 1825.4294754900038 -1726.1857075155713 4706.488103885204 -5347.376647460274 3623.4493785724044 -3600.1244242107496 4946.325030365959 1239.4754629759118 6105.903059462085 350.9772296664305 4759.443104557693 -455.1736271404661 4127.63538406603 -1415.0024883407168 1245.6404609419405 -1299.9819832672365 1407.567510811612 -379.1404766328633 22.105819737538695 28770.314632122405 -58.55527666956186 16903.84015055187 -22.15513902157545 33496.89394140616 -53.88063728809357 33336.300625042524 57.395772852003574 16351.418202145956 -32487.095584265888 -12.37311384640634 -36990.23537440039 -7.133772601373494 0.445834556594491 -11609.829272102565 -34483.76571969129 144.37869546562433 -40.967687683179975 23214.413714629598 -114.43688181042671 14146.891424226109 51.539143120869994 20375.031776828226 -11358.482128018513 -26.024680414237082 -38.73929411917925 331.67467725323513 -16124.978479806334 207.45047101704404 -2289.7307648751885 -1252.5706777772866 -10107.35315508768 -739.1673050522804 -4394.619534496218 -1754.0880582174286 -3331.97503833659 -4676.692894679494 375.0510575324297 -4616.907943728846 1685.0117161441594 -4988.83216467686 581.600983498618 -5767.243835283909 -1130.5886574517936 -7690.853765329346 -769.126412153244 -1810.5428754771128 -3478.7340302783996 -3986.138924946077 -241.88067760132253 -1990.3300675605424 1059.9267537351698 -3695.3735946211964 1342.5739681515843 -1444.638421997428 421.25287897512317 -1145.4269278012216 -657.6981718353927 -1425.4332997947931 -894.1432644762099 -1061.0530152167194 -1149.6130546499044 -1692.6779289408587 -500.0679098609835 -1562.6914909929037 1059.9267537351698 -683.7438318124041 5459.9818731900305 -407.0095160091296 2739.503085134551 -817.3184108315036 1989.4010701850057 -1514.3079628632404 4125.561132313684 -7789.60505742114 1051.7736265715212 -3285.522515662946 1116.9996449891478 -1382.2847565598786 2206.8219658453017 -2207.4344490095973 1516.5106846820563 -1986.0736578046344 361.46214518137276 -893.6816259841435 402.22868200577796 -1758.2108103595674 -611.496250282973 -2913.544310620986 0 -1775.2413536491804 991.9827926699072 -789.8092621499673 353.3089179135859 -649.5117104728706 97.83942807465792 -1501.524406249635 -73.37954602576792 -2869.7618815819733 543.5521890968084 -3275.4720810302533 1222.9925005733967 -1923.9173501217738 1293.6542040538043 -1502.7739936402068 739.230945147574 -1976.7737593869679 -1214.8391731828451 -2421.6029609236866 -472.89038550294936 -1480.6648620003834 584.3186258133501 -666.8518126569688 383.204384919256 -715.928063719999 127.7346948646009 -1569.3138108248822 -127.7346948646009 -1569.5285061509348 -383.204384919256 -716.1687855026685 -1369.7515926249325 -1439.0131039517 -404.9463243149221 -3241.7116703265347 -16.306554660201073 -3442.2558770915493 -214.70315323770046 -2025.9175530509092 2027.449664350599 -1653.073912632186 891.4257222749293 -1224.4109345865436 -152.19467701762915 -1201.621373402886 -2179.6443413719535 -2570.6494844378904 -905.0144344009459 -1490.2589747337624 -372.3332149963826 -1559.2483427408151 695.7468661200255 -2978.23158731265 1736.6492226626724 -1864.6569015011191 4408.20834672451 -2946.7134914286435 1834.4886507354677 -1812.984177602455 1744.8026501629502 -2164.155738343019 1296.3719464801252 -2604.089766055811 z" vector-effect="non-scaling-stroke" fill="#000" fill-opacity="1" stroke="#FFF" stroke-width="0.3px" stroke-linejoin="round" stroke-linecap="round"><title>La Paz County</title></path>
<path id="04013" d="M -12411540.702580929 -4028776.749055337 l 3144.3298916649073 -822.5990292234346 2784.8788106236607 1096.2498215269297 718.7897294107825 2293.9405086990446 -1966.4585822224617 2449.441304048989 613.1479779295623 3667.1369830183685 1032.933109788224 2523.787737157196 1346.4645669348538 -1314.3467071680352 2317.1705266460776 991.9951157118194 -926.5683382097632 4081.641141479835 1930.8920049164444 1531.984602366574 663.6866927854717 2523.6709302691743 -604.9103356096894 2252.2520015779883 2577.9360998757184 2318.54180352157 -1739.6455650143325 2763.785512325354 906.085440594703 1012.7390593839809 -1063.6581798065454 2626.007908080239 283.64172857813537 3492.9987616427243 3187.6332849040627 1307.6274397280067 2392.2551892362535 2645.119425285142 594.9280942324549 4302.0919150821865 1902.0781792346388 997.0242378562689 5847.166571531445 7801.928485137876 1280.7307415753603 -259.3505278574303 1428.206039134413 2089.891213487368 1060.9228845499456 -777.9149283077568 3206.957986721769 -6251.265971120447 3170.721173306927 -4381.718379041646 14545.900874717161 30478.622570272535 -23463.47253865935 160.39508129050955 -9997.490478860214 -118.22941680066288 -26731.811118563637 -15.214684813749045 -6.903144262731075 11637.391160181258 -400.8615976665169 2.999969501048326 170.9855133406818 23058.276515882928 -21173.074015585706 86.67676936462522 -13365.015281653032 210.2717570597306 -1009.4444746002555 -204.88431526813656 -19430.03409666568 36.585285739041865 -2925.5428473614156 -701.3351621474139 -298.95371062494814 -763.3764375075698 -108.71044022962451 -958.3519145743921 -375.95693911984563 -817.6394242281094 -1078.0451989267021 -346.5664915102534 -964.8051570206881 -97.47368514211848 -747.384276567027 -216.61111208377406 -5775.24213710241 -3038.3957999935374 -1358.880502846092 -1197.16174269747 -339.4118148293346 31482.715358309448 -176.99843563698232 11563.12314609997 3.338471528142691 25447.299096198753 -1.4498250503093 32109.50796085922 -41648.28692263551 207.76427791453898 -31059.13335020654 -15.841739214025438 -28154.029378216714 18.213873335160315 -24949.365435730666 30.35788942500949 11.802649008110166 -40528.794894545805 6.568963157013059 -23258.73251651367 -53.987837962806225 -34976.645765293855 33.0189194381237 -16973.783424092922 -57.395772852003574 -16351.418202145956 53.88063728809357 -33336.300625042524 22.15513902157545 -33496.89394140616 43337.559750147164 -71.43256007647142 22200.16307475604 -18.99820803012699 27893.2631370686 8361.556296496186 24313.06300372258 7416.780864832457 -175.8849067762494 -1008.4013281930238 4621.694379905239 -3401.760037217289 480.2250475194305 -2619.2301287539303 -561.7545520160347 -1816.8659251383506 2471.4035698212683 -2573.9933254825883 2225.045633016154 -1284.5183950690553 146.2822711803019 -1907.642990902532 3539.7358324080706 -3478.9816876049154 -363.79153931327164 -2529.0641625509597 2138.0018062200397 -1371.0787408426404 46786.01371142827 6220.121858141385 z" vector-effect="non-scaling-stroke" fill="#000" fill-opacity="1" stroke="#FFF" stroke-width="0.3px" stroke-linejoin="round" stroke-linecap="round"><title>Maricopa County</title></path>
<path id="04015" d="M -12694897.428141342 -4439542.950800689 l 17371.928312117234 17.015722979791462 17369.21066980809 13.612583784386516 17374.646054549143 13.612566300667822 17371.928412236273 17.015651943162084 17366.492727160454 13.612526949495077 17371.928412230685 13.61250947136432 17371.928312124684 13.612366629764438 5400.841096332297 4.232048539444804 11971.087315896526 9.380425962619483 17369.2105696965 13.612457017414272 10129.254469022155 9.919887921772897 1671.6833070572466 7084.321112494916 -1620.3569345083088 1646.3216759422794 -456.7459857966751 3720.5276544326916 -2406.638112716377 2347.1901344945654 -607.9011563695967 4341.976239695214 -2094.2237466741353 4075.4787624469027 -555.5586204770952 3565.3036684030667 -1695.6331779342145 1670.6008996218443 -269.6682381797582 6576.002681554295 -783.4223823696375 5541.294819005765 -1597.256581697613 5094.786410599016 1192.9289403669536 2646.259912835434 547.3129631541669 3839.8138443902135 -132.60411138646305 4457.4785094391555 -897.1906793173403 3243.5749236531556 -1181.618991425261 0.193915266543627 -1925.7307880409062 3918.7452887790278 939.3727513235062 4712.340641913004 722.9606480933726 171.06243008747697 2479.7967254668474 4540.047632063739 -2466.8842211347073 2513.3782888948917 2347.563975904137 6455.281001021154 -722.0015796218067 1168.889564793557 -1630.656603416428 1102.976332752034 -788.1506916508079 2008.7018706984818 -231.00968548469245 1952.0761738894507 -570.7298111952841 1496.16438458208 -1784.663060406223 641.1496226731688 -951.2163519952446 -208.08823402412236 -779.0914882980287 -433.0613886490464 -792.6802933290601 -258.720315256156 -1019.1603771336377 286.8417138038203 -856.0947167947888 658.0197456516325 -412.19375253096223 776.074139486067 144.94725363701582 894.1029995931312 810.7987000327557 1017.7249806877226 -901.3907335586846 837.7235101442784 -1014.6307754572481 404.7826355174184 -2192.3272112607956 556.5512804286554 -1109.7524106577039 607.1140499440953 -2269.330439755693 2405.6340427258983 -2382.5704816598445 1152.0410389229655 -6857.816937703639 949.6387904593721 -1843.5478821955621 -33.71355413738638 -1947.728720748797 668.6324645318091 -1793.722263759002 1213.5462599908933 -1576.3013833034784 1544.826560058631 -1331.7028927896172 1656.9316190965474 -1816.3702721390873 814.330736618489 -7655.026832707226 685.1134262923151 -7854.329306460917 4800.189733487554 -1263.7588676474988 1279.6902754940093 -1200.3444441836327 959.6682281056419 -7224.714673470706 3231.9397321436554 -1608.0085950382054 3017.8489762637764 -1222.9924525618553 3611.336890968494 -1626.127001741901 3016.000682783313 -2831.001047598198 1266.6939812870696 -2817.412242570892 -347.4853714592755 -1825.4294754918665 -515.6440021889284 -1499.2981548085809 162.54260712023824 -1843.5478821992874 1647.7080281106755 -1843.5478821936995 2504.708641849458 -697.5586581286043 1904.7599515048787 394.07534582540393 6339.319826436229 -58.884821789339185 2910.8140704110265 208.36167710274458 391.7807622309774 1617.067798389122 1443.869914243929 439.37136258743703 805.7974273040891 -181.18406704626977 414.0670950692147 -416.7233542073518 285.3613794995472 -221.9504821319133 425.3012366471812 448.43056593835354 4508.587069295347 797.2098950054497 4076.3204709719867 371.4273374453187 4359.804870593362 -856.0947167966515 5380.275697341189 -1635.186205090955 4048.819349657744 -354.7689392436296 34873.561656164005 128.12673015333712 37969.87040918972 33.225639736279845 34013.50150793977 -89.89249256439507 34158.47913343087 50.64780795760453 33589.46939663496 -40.25345708243549 21769.073469415307 -1407.567510811612 379.1404766328633 -1245.6404609419405 1299.9819832672365 -4127.63538406603 1415.0024883407168 -4759.443104557693 455.1736271404661 -6105.903059462085 -350.9772296664305 -4946.325030365959 -1239.4754629759118 -3623.4493785724044 3600.1244242107496 -4706.488103885204 5347.376647460274 -1825.4294754900038 1726.1857075155713 -1902.4327039904892 1386.238170846831 -2002.0839408580214 942.3260080930777 -2124.3831861186773 361.5694228047505 -2205.9160162899643 -21.912970174103975 -6812.520920941606 -843.6815521460958 -7211.125868445262 -1851.9367990796454 -1721.2486369404942 60.27489582216367 -3084.6587414629757 -706.8803057433106 -2957.829894531518 -1381.0096715223044 -1068.985995573923 -1260.592282329686 -543.552201140672 -1452.5955048939213 -969.334758695215 -1277.3417033432052 -1712.189433587715 -372.8135877419263 -1472.120544752106 466.015066400636 -3424.37886717543 1452.7473963066004 -3120.8955548740923 520.7508571119979 -1150.5188257433474 -356.3006311189383 -2156.0903978515416 -1847.4614928504452 -2894.415471067652 -2297.4127250099555 -6830.240139119327 -842.5535099217668 -21.742139626294374 -1839.4999997187406 -3552.11357630603 -2330.243383599445 -1301.8075314462185 -1458.2922063921578 -1073.5155659709126 -918.5242427526973 -1902.4328120276332 -1040.4260302991606 -9283.871493997052 -6791.463172786869 -1663.269676629454 -1990.1260180147365 -554.4233590271324 -481.1096400390379 -2220.4106779694557 -1459.931041049771 -540.8345467932522 -471.30456371512264 -861.5302552673966 -972.3344430653378 -453.86598830111325 -372.47557404404506 -451.1483459882438 -164.81626884592697 -527.24563443847 -79.11268941964954 -1448.5666235014796 -62.63115659216419 -731.0777178704739 -194.48852465255186 -576.1652984283864 -606.5625032493845 -442.9950185995549 -890.1234881584533 -342.4379482138902 -1622.183762989007 -127.7347949706018 -1292.638701328542 10.871069807559252 -92.33699621632695 600.6251804754138 -2038.2026876322925 497.3503676559776 -1979.1908773835748 -1103.4111330918968 -1346.048527225852 -187.52542865276337 -82.48387109301984 -540.8343465682119 -2752.0030765924603 -1203.9682034775615 -1336.6473946622573 -1473.026505548507 -1161.857202491723 -1339.8561256192625 -2218.424767528195 -152.19457691162825 -898.0584407383576 152.19457691162825 -3216.4304709578864 -152.19457691162825 -1070.146394375246 -372.33331510797143 -601.1763470098376 -494.6325251199305 -564.8708678577095 -7275.446226835251 -14987.727620456368 -3011.279229748994 -459.7996787982993 -2342.709988091141 -1475.4560270234942 -1413.2356716487557 -2587.480102633126 -211.98531070165336 -3806.20640518656 -413.0997518170625 -1642.0336413714103 -885.9900371991098 -2155.5356446504593 -1269.1944221258163 -1877.7411311762407 -1576.3013183679432 -808.1552516706288 -1761.109204813838 -635.9665727023967 -774.5618970002979 -1596.7006795350462 -1184.9438062887639 -15926.52054269705 -67.94406118057668 -948.8841300709173 -122.29910990037024 -1605.9884550236166 -1062.6445962674916 -4407.705986501183 2611.768290163949 -3446.3981988951564 423.97072151862085 -1281.8815755140968 -434.84169121831656 -1889.8830511379056 -2089.958240678534 -2418.45685569942 -510.9390797857195 -1265.9137724395841 372.3333151098341 -1857.599719604943 1122.4352299515158 -515.1320046107285 1508.35735729523 -6.646975251380354 1554.5592788551003 -322.3852898972109 1315.3963436819613 -668.0653193513863 478.32587034627795 -415.48394505586475 1021.8782596774399 -5432.638941168785 76.09728845395148 -2903.598590267822 -540.8344466798007 -5463.359304166399 -1454.0021083503962 -6524.966274255887 -269.0584021881223 -3473.7869448261335 154.912419449538 -3674.811992625706 -1084.3866357840598 -3246.0477257221937 -3527.6537943724543 -7111.98765347898 -2035.602991739288 -6595.949985194951 -1894.279384534806 -5474.60766879376 2350.8632153719664 -6626.591514113359 -690.3112811632454 -5941.952357937582 850.6590853426605 -2978.8723237654194 -731.0776177551597 -2207.0950353108346 -3899.9870093706995 -9954.178340728395 -548.9877740684897 -2772.0537954289466 -328.8490358684212 -3767.505450360477 119.58136747777462 -7595.896653113887 595.189695622772 -2034.7360426485538 1954.0702184345573 -3507.208237249404 418.5352366697043 -1532.6625246563926 -236.4452928621322 -1573.1320223864168 -706.6178358197212 -1217.740173173137 -4383.748564796522 -5761.79325795453 -1619.7854974996299 -3175.828732893802 -1152.3306969609112 -3650.328373838216 -190.2432711906731 -3829.630678755231 1880.6905722916126 -1962.369595117867 494.63262523524463 -1512.3422315912321 59.790733793750405 -1556.2523022331297 -369.6154725756496 -3153.5245849750936 5.435484852641821 -1546.8402220085263 165.78338914178312 -1160.274993101135 345.1555905267596 -639.0452839285135 785.4329668115824 -1099.9187879804522 432.1239487938583 -481.0391617696732 478.3259704615921 -444.0554891359061 3728.76813538 -1756.2153056552634 3620.0576374884695 -2274.756422534585 6457.400150705129 -1696.2835252117366 1736.6493227723986 -710.2294899057597 940.3452861439437 -242.36395497061312 1038.1847142297775 114.45024678390473 5954.614298194647 1767.0933368504047 418.5352366641164 181.74178213067353 600.6252805870026 363.474400928244 940.3451860323548 750.4686383614317 1155.048539498821 747.0516102984548 1483.8974752500653 498.00582720153034 861.5302552692592 104.30902020260692 826.1993034090847 -3.364771411754191 758.2552422303706 -114.4035944500938 646.8272021431476 -245.63534912560135 2853.64906786941 -1736.4313810765743 606.0607654377818 -282.7013111077249 660.4158141519874 -208.66513198241591 741.9487876798958 -121.16232305206358 771.8441545795649 -40.38770140055567 736.5132027175277 63.94710355065763 1027.3136444110423 393.7717592874542 991.9827926680446 625.9661733852699 1209.4036883283406 1251.8241637386382 1068.079981006682 1372.8016640488058 828.9172460623085 1332.2587436614558 2494.9045650027692 5589.661904448643 1054.4911687690765 1707.9371128985658 1380.622662436217 1714.3907286496833 2089.958240682259 1818.3024902297184 2549.259813943878 1105.6207635020837 2883.544434774667 164.65726756863296 5462.699615612626 -897.2445149831474 3870.091642482206 -2218.2262557474896 1728.4959953837097 -6008.295873868279 1467.590920586139 -5103.112754159607 1225.7102429885417 -4280.800857184455 2084.522655725479 -2837.9745574966073 2247.5884025506675 -3081.2076634634286 269.0583020746708 -1353.9888096647337 92.4038431160152 -1306.996095337905 19.02439719438553 -5842.995186345652 5.435484847053886 -1159.5403412142769 2.717742430046201 -3243.3301894059405 8.153327383100986 -5048.996040163562 10.870969699695706 -6546.64602509141 16.30665477178991 -7749.764896181412 13.588812233880162 -8671.505938086659 16.306454554200172 -9274.03473753389 19.024397196248174 -9580.101299008355 16.306554658338428 -9588.695093992166 16.306554658338428 -9298.755384035408 13.588812237605453 -8709.254880923778 2.292477305978537 -1643.4292669333518 8.578592505306005 -6152.06884498056 13.588712124153972 -6600.921889205463 8.153427500277758 -5091.15519245062 5.435484848916531 -3283.1696643456817 z" vector-effect="non-scaling-stroke" fill="#000" fill-opacity="1" stroke="#FFF" stroke-width="0.3px" stroke-linejoin="round" stroke-linecap="round"><title>Mohave County</title></path>
<path id="04017" d="M -12328709.350792026 -4439235.582004841 l 15980.757506012917 12.522124647162855 17374.646154657006 13.61206939816475 17369.2104695905 13.612302623689175 17369.210669806227 13.612034430727363 15397.554873947054 12.065081058070064 -0.064197558909655 26596.62489861995 0.220078635960817 30910.870805246755 -0.002894308418036 38798.20476590935 -0.002003749832511 27610.990173320286 0.109315743669868 27556.675093404017 -0.113768517971039 33395.32795504667 19339.308155072853 22.745104764588177 1.557582315057516 19827.82731257938 -1873.729112436995 -31.388975763693452 7.565829193219542 47420.75640763901 -130.57854194007814 20641.07536524255 184.3438522424549 8901.695610926952 -180.00417321175337 5926.348180016503 22.931369822472334 11799.048425221816 -798.9396514650434 5.966377159114927 148.8324894029647 23743.46180572547 -1644.745921747759 11702.316173934378 1891.6513278111815 11791.018778328784 -16.477288391441107 20057.74894168228 -110.5413675494492 26767.639869119972 -1114.196783348918 -6.185863966587931 13.912153361365199 46665.21807949012 -3617.3265193682164 65.08818576205522 -371.2315287422389 25604.999017608818 -2989.53710626252 -630.7500978857279 -3940.7534582577646 -511.1503938715905 -4828.450308287516 -510.4739021221176 8.840108146890998 -14799.742297711316 -0.887884259223938 -38959.284660088364 -39278.40594918281 -0.136692591477186 -44212.530279863626 -0.136961148586124 -0.66658111102879 -35405.222780342214 -0.664911314845085 -43236.586611988954 -0.443051578477025 -31502.546088604257 -0.442717615514994 -38558.99671640014 0.001447157934308 -19954.5710117016 -0.097961153835058 -33479.62145604193 -0.118889218196273 -46764.70292231813 -0.220412589609623 -29986.01480147615 -0.220523914322257 -27378.113001941703 0.114436440169811 -41322.860974027775 0.336296180263162 -32204.79122017417 z" vector-effect="non-scaling-stroke" fill="#000" fill-opacity="1" stroke="#FFF" stroke-width="0.3px" stroke-linejoin="round" stroke-linecap="round"><title>Navajo County</title></path>
<path id="04019" d="M -12397144.91372628 -3688680.4618802206 l -4213.5709165893495 -1585.8396965814754 -5729.583800904453 -2151.0823575323448 -5729.583800908178 -2171.696229623165 -45554.79286997579 -16516.182097916026 -45557.66914298199 -16552.15047363378 -45557.669254301116 -16574.7709081918 -45557.669142978266 -16590.752332376316 -21164.747057881206 -7718.991433163639 -83.42141640745103 -19287.598895922303 23.15601255558431 -41945.443600055296 24949.365435730666 -30.35788942500949 28154.029378216714 -18.213873335160315 31059.13335020654 15.841739214025438 41648.28692263551 -207.76427791453898 22268.012527039275 19.40493993135169 34943.62720408104 1.454771913122386 13416.444441117346 -21.9114896110259 0.446057200431824 709.8753372402862 29510.011316327378 19.273504910059273 16377.98795154877 -54.776723922695965 -1.446819422766566 -1357.8864731513895 21364.431997630745 148.1122577516362 13378.707690332085 -51.08465473167598 2.226946420967579 -337.41365730110556 43826.69692477211 -5.278177193365991 -31.39220771752298 11407.226596198045 54.211033541709185 22867.140919445083 361.00944259762764 -0.78939215047285 10.240502597764134 13640.529071812518 -433.9240430239588 11146.924811988138 103.08028999716043 24960.57936233096 -182.67528439313173 7467.042863546871 62.11505134962499 11370.983995880932 -44961.48770260438 -56.151979085989296 4.341460142284632 660.0302380495705 -34352.074316808954 87.68508679186925 50.98254567012191 26689.900043528527 -22585.384283967316 69.86338478699327 z" vector-effect="non-scaling-stroke" fill="#000" fill-opacity="1" stroke="#FFF" stroke-width="0.3px" stroke-linejoin="round" stroke-linecap="round"><title>Pima County</title></path>
<path id="04021" d="M -12360904.485982899 -3957335.4661203967 l 7257.916474606842 16536.27352969395 3116.7225466351956 12247.488143403549 6170.6596759445965 11772.917077276856 12307.455524841323 20030.03823056491 1876.9243135545403 157.0594443581067 2602.310306698084 -1016.8489150675014 1503.8277564849705 -1820.6135676428676 2636.2281755227596 -6793.335405645892 1281.8772743530571 -1313.7255949964747 5136.568300765008 -2568.4088958255015 7315.306706996635 -6393.736718734726 5199.9827242307365 -2943.811650391668 5526.114044910297 -1921.4545757076703 3848.222947642207 -247.36507924832404 -82.48728461749852 26299.349542070646 143.71246074140072 7521.44212464802 -19.704997027292848 26372.40982540697 -60.67023567855358 30474.07366563985 -228.98452652059495 -1.979630247689784 -43826.69692477211 5.278177193365991 -2.226946420967579 337.41365730110556 -13378.707690332085 51.08465473167598 -21364.431997630745 -148.1122577516362 1.446819422766566 1357.8864731513895 -16377.98795154877 54.776723922695965 -29510.011316327378 -19.273504910059273 -0.446057200431824 -709.8753372402862 -13416.444441117346 21.9114896110259 -34943.62720408104 -1.454771913122386 -22268.012527039275 -19.40493993135169 1.4498250503093 -32109.50796085922 -3.338471528142691 -25447.299096198753 176.99843563698232 -11563.12314609997 339.4118148293346 -31482.715358309448 1358.880502846092 1197.16174269747 5775.24213710241 3038.3957999935374 747.384276567027 216.61111208377406 964.8051570206881 97.47368514211848 1078.0451989267021 346.5664915102534 375.95693911984563 817.6394242281094 108.71044022962451 958.3519145743921 298.95371062494814 763.3764375075698 2925.5428473614156 701.3351621474139 19430.03409666568 -36.585285739041865 1009.4444746002555 204.88431526813656 13365.015281653032 -210.2717570597306 21173.074015585706 -86.67676936462522 -170.9855133406818 -23058.276515882928 400.8615976665169 -2.999969501048326 6.903144262731075 -11637.391160181258 26731.811118563637 15.214684813749045 9997.490478860214 118.22941680066288 z" vector-effect="non-scaling-stroke" fill="#000" fill-opacity="1" stroke="#FFF" stroke-width="0.3px" stroke-linejoin="round" stroke-linecap="round"><title>Pinal County</title></path>
<path id="04023" d="M -12357161.304096261 -3675313.581949989 l -6773.679472643882 -841.8270075530745 -3043.1223294641823 -1158.448514607735 -5729.583800906315 -2155.5441335504875 -5735.336235595867 -2149.185377699323 -5723.831143580377 -2163.040841535665 -5729.583800906315 -2163.4227540986612 -5729.583800919354 -2163.8053743564524 -1518.8890460021794 -571.6059268303216 -128.54757915437222 -11954.267687498592 22585.384283967316 -69.86338478699327 -50.98254567012191 -26689.900043528527 34352.074316808954 -87.68508679186925 -4.341460142284632 -660.0302380495705 44961.48770260438 56.151979085989296 -56.88437111489475 15346.971120976377 -925.8447615224868 -13.203322110231966 -39.0736978687346 18853.278079119045 83.04890422895551 18578.6940529719 -2081.7353695891798 0 -4757.395399533212 0 -4751.642742207274 0 -4751.642742205411 0 -4760.271672539413 0 -4754.519015207887 0 -4760.271561218426 0 -4751.642853528261 0 -4754.519015209749 0 -4760.271672528237 0 -4754.519015209749 0 -4751.642742216587 6.734460844192654 z" vector-effect="non-scaling-stroke" fill="#000" fill-opacity="1" stroke="#FFF" stroke-width="0.3px" stroke-linejoin="round" stroke-linecap="round"><title>Santa Cruz County</title></path>
<path id="04025" d="M -12616299.827190822 -4235872.0879735425 l 3884.3814211878926 -402.5636878889054 4397.230426587164 266.1889906823635 4560.759203843772 2757.536790375598 4935.682580912486 331.8928898796439 1937.1812221854925 1524.7665493153036 1157.8331331890076 2351.345939638093 6746.404750242829 3430.3474290417507 12266.95982446894 8209.052675952204 3458.361729916185 5501.5146030038595 7103.962732030079 1437.794401419349 9355.511086780578 2608.977447473444 4685.65922723338 2271.4364191927016 2167.835095791146 174.73798086866736 4510.442237406969 -895.6799464672804 2056.4040628634393 663.5151768783107 2328.135496493429 2020.1726534012705 2727.7725797593594 -1097.9489371851087 1357.9853549916297 1363.894856011495 -207.38776606693864 2059.1616516327485 1850.3519080448896 768.609307221137 2960.6531771421432 3520.986135563813 3969.5402750391513 961.504756346345 4564.877357088029 -836.5166045175865 3120.7299369815737 568.0890132412314 3556.6571742482483 -3020.2803871529177 -200.48662555590272 4944.586491744034 27.940746907144785 10186.016956484411 11864.985031891614 153.70791718782857 131.35544066689909 23834.14757273253 10991.239239213988 -125.93398355692625 23801.216096371412 -0.677361891139299 -2.004418751224876 -270.078315296676 23688.004396872595 -36.815289430785924 3495.653314050287 -545.6135630910285 -10.799437759444118 24010.070935509633 5922.307339141145 -122.0134212221019 7447.494680617005 216.77818612009287 11766.579603912309 13.4218071969226 9.79366616345942 22314.18604072882 -154.0656186658889 640.8967271721922 25.899481408298016 13773.386672305409 -217.59286906570196 7964.18201695988 101.30073661729693 4443.255564036313 -4184.833506073803 2334.599836018402 -2912.451058384031 2795.1342615713365 -4622.0367986653 2061.194381077774 256.9779275562614 2460.964547365438 -932.0785416923463 2019.9199976148084 257.02846660092473 4127.2585071087815 -2473.490798640996 1943.7311276071705 -63.41442346572876 5432.974525946658 -245.0825747102499 3112.817056219559 -1104.7387247849256 2870.8553304309025 -1866.1958905756474 2853.735029767733 -507.315387731418 1796.2251530643553 -858.0538190957159 4515.800985341892 1668.6539622228593 483.3874017302878 26087.493794528767 21.926824871916324 -566.5041094049811 2625.3005092637613 1287.9657292384654 2695.955650588032 -1581.8492962568998 1955.1723932358436 2358.9703275281936 3271.134589671623 172.32234910689294 1752.7206373494118 -1183.1037707868963 2460.5852443445474 -2702.1684289630502 1624.6024114219472 330.2841499466449 3947.3014589762315 -25662.69961953722 -4.298689312301576 -46786.01371142827 -6220.121858141385 -2138.0018062200397 1371.0787408426404 363.79153931327164 2529.0641625509597 -3539.7358324080706 3478.9816876049154 -146.2822711803019 1907.642990902532 -2225.045633016154 1284.5183950690553 -2471.4035698212683 2573.9933254825883 561.7545520160347 1816.8659251383506 -480.2250475194305 2619.2301287539303 -4621.694379905239 3401.760037217289 175.8849067762494 1008.4013281930238 -24313.06300372258 -7416.780864832457 -27893.2631370686 -8361.556296496186 -22200.16307475604 18.99820803012699 -43337.559750147164 71.43256007647142 58.55527666956186 -16903.84015055187 -22.105819737538695 -28770.314632122405 40.25345708243549 -21769.073469415307 -50.64780795760453 -33589.46939663496 89.89249256439507 -34158.47913343087 -33.225639736279845 -34013.50150793977 z" vector-effect="non-scaling-stroke" fill="#000" fill-opacity="1" stroke="#FFF" stroke-width="0.3px" stroke-linejoin="round" stroke-linecap="round"><title>Yavapai County</title></path>
<path id="04027" d="M -12616210.1997128 -3768541.927409239 l -24390.04592341557 -8901.440771295689 -45557.669254301116 -16640.0835409523 -45554.79286997579 -16666.676550297532 -45554.79286997579 -16690.01996243 -4078.5892935097218 -1490.2243991200812 -288.0587746538222 -109.42673191661015 -304.4584733694792 -115.65769778192043 1409.3855713959783 -1463.153105797246 1547.4479000642896 -5400.562657048926 149.56753199361265 -2890.6358598736115 -943.4254487045109 -2693.328206816688 1766.0463180858642 -3506.6827998463996 586.7647020053118 -928.915635171812 2531.1412821356207 -2216.715109431185 851.384044688195 -976.9894147608429 1300.0861953943968 -2227.5644624987617 920.4150420464575 -2323.674069841858 816.8683233745396 -3291.515258791391 -46.02070200815797 -174.342457766179 388.494714692235 -1551.7974468641914 4215.247232995927 -3114.6233985051513 11659.194891743362 2384.5054038171656 4712.597500549629 -1079.1066805496812 1076.2334085069597 -1987.2361839548685 122.2991098985076 -2365.7325171781704 -95.12158553861082 -2463.19349027751 418.5352366697043 -2305.265564537607 1440.4132961146533 -1749.4580689296126 4136.432302230969 -2872.132649946958 1263.7588371615857 -1708.0871578906663 304.3892539292574 -2889.4320883145556 -1752.9558774325997 -8468.544014536776 141.32360721193254 -1661.4063030746765 250.03400498628616 -1292.3675887240097 48.91966398432851 -1295.7496147407219 -440.2772761825472 -1678.2086972342804 -3114.5541426688433 -4533.661475251894 -1585.796362452209 -867.4129478354007 16124.978479806334 -207.45047101704404 38.73929411917925 -331.67467725323513 11358.482128018513 26.024680414237082 -51.539143120869994 -20375.031776828226 114.43688181042671 -14146.891424226109 40.967687683179975 -23214.413714629598 34483.76571969129 -144.37869546562433 -0.445834556594491 11609.829272102565 36990.23537440039 7.133772601373494 32487.095584265888 12.37311384640634 -33.0189194381237 16973.783424092922 53.987837962806225 34976.645765293855 -6.568963157013059 23258.73251651367 -11.802649008110166 40528.794894545805 -23.15601255558431 41945.443600055296 z" vector-effect="non-scaling-stroke" fill="#000" fill-opacity="1" stroke="#FFF" stroke-width="0.3px" stroke-linejoin="round" stroke-linecap="round"><title>Yuma County</title></path>
</svg>
