<svg xmlns="http://www.w3.org/2000/svg" xmlns:xlink="http://www.w3.org/1999/xlink" height="1080" width="1920" viewBox="-8436753.226270573 -4842519.650255341 82896.09875283111 198861.82016063482">
<path id="10001" d="M -8405020.558923518 -4774907.713328935 l 1423.8753836378455 2478.674300645478 253.65771242417395 884.5015189964324 679.4402931686491 380.7217603120953 2587.733439574018 2357.400187591091 2755.673585612327 1930.9773036194965 659.0594755206257 3392.366644966416 2313.8821488898247 3026.280149598606 1078.045222112909 3006.9249097090214 430.3121708314866 3555.6718161301687 -1180.2874989882112 7521.915075948462 -151.31402348726988 2904.728039986454 171.8481280785054 3064.5804398488253 329.1085048019886 1934.401603284292 464.31971867382526 2084.5371070094407 -440.73167517222464 3492.2212911359966 847.636696672067 3259.9043320128694 2736.7647455837578 2192.1758610317484 2963.6580241518095 2872.6563425036147 3087.191044201143 5176.187593312003 414.21592906024307 2308.5705661699176 6.473784984089434 2646.4069694709033 -4579.469783851877 269.9638995146379 -1005.2146679069847 -1400.247198201716 -4390.216742068529 1385.2176797268912 508.17325283028185 2234.3873382536694 -1403.5158059597015 2226.598859615624 -2841.2064729593694 847.9565216638148 -3383.44360130094 -86.69536216557026 -2384.2399632502347 1152.5849221758544 -237.2219462003559 1599.9839213313535 -2349.5085047688335 2298.4092906285077 -1235.3122780099511 2875.13981447462 -3785.0841014441103 2823.307924534194 -18760.836080500856 908.2341532679275 -109.63491985946894 -1688.9673043433577 -654.3292003907263 -10366.33652703464 -545.2742168512195 -10797.841158493422 -719.9189259614795 -10349.598545383662 -670.3344177119434 -10581.098903163336 -712.2301185950637 -11024.759850600734 -325.33513178117573 -4863.182179417461 -342.049183383584 -5115.558637898415 -100.10448737442493 -2157.11223224923 5113.685845531523 -333.82410421036184 7060.992851987481 1007.4828392863274 3505.561305338517 -2579.3217507544905 2162.491648910567 291.33973554428667 3183.2912681717426 -1612.3290856452659 1923.9342027772218 -2232.594285039231 6.456641787663102 -2304.7803841289133 1797.1414140928537 -77.88107566628605 z" vector-effect="non-scaling-stroke" fill="#000" fill-opacity="1" stroke="#FFF" stroke-width="0.3px" stroke-linejoin="round" stroke-linecap="round"><title>Kent County</title></path>
<path id="10003" d="M -8405084.107739128 -4775018.352995185 l 63.54881560988724 110.63966624997556 -3842.189308371395 2820.282128904946 -1797.1414140928537 77.88107566628605 -6.456641787663102 2304.7803841289133 -1923.9342027772218 2232.594285039231 -3183.2912681717426 1612.3290856452659 -2162.491648910567 -291.33973554428667 -3505.561305338517 2579.3217507544905 -7060.992851987481 -1007.4828392863274 -5113.685845531523 333.82410421036184 -389.09255289658904 -8388.794697129168 -247.0019895080477 -3264.3480513822287 -505.9202826321125 -6689.49178890232 -720.9152413085103 -10971.831616622396 -480.6103277169168 -10672.08564282395 -780.9915948472917 -10605.451040378772 -12.390871176496148 -10689.760916214436 440.53496465086937 0.121176502667367 856.0947704166174 38.867253930307925 190.2432711943984 -222.60622887779027 1867.1017600558698 -4230.461266979575 3049.327823918313 -4416.15479312744 3217.829055596143 -2822.5548301264644 2701.4543908536434 -1938.7592248283327 2875.3912074938416 -1475.549389659427 2437.8315736353397 -792.7114754440263 3223.264540443197 -1019.2933731181547 3133.5785398706794 -113.26126074325293 4875.66324737668 113.26126074325293 3832.0429481975734 679.5405090581626 2785.7051068022847 1132.4643395040184 2611.7682901676744 1249.1004802659154 1663.269676629454 831.4671779200435 695.7468661218882 566.0656988006085 83.61679217591882 68.18269941583276 -353.98025639913976 463.9062577681616 -3931.6942085195333 2723.5959919253364 -1531.0054546725005 1809.4238375322893 -1218.4628485683352 5856.273846560158 -1454.0020893421024 2520.5566296409816 -5014.269020723179 6369.2248015915975 -597.9074490834028 576.6794706340879 -3972.4606305658817 1488.6203595772386 -593.3778590019792 970.7199270352721 -339.72014658153057 1552.9559496436268 -661.3218215312809 1623.2868033926934 -452.96012122929096 1528.9423206681386 280.8352528978139 1270.0206126729026 3188.839542908594 3221.366014128551 951.2163659073412 1263.5739040579647 1078.0452221203595 2538.420055457391 135.8880363702774 2614.1352210436016 -733.7954854536802 2619.3252960406244 -1544.594113593921 2571.6759274518117 -946.6867758277804 3152.045263598673 -486.6116693392396 2966.868360533379 2123.4250754956156 3231.59029677324 1792.5262193195522 2098.6311617074534 2768.44927829504 3228.0423966394737 z" vector-effect="non-scaling-stroke" fill="#000" fill-opacity="1" stroke="#FFF" stroke-width="0.3px" stroke-linejoin="round" stroke-linecap="round"><title>New Castle County</title></path>
<path id="10005" d="M -8355428.899283137 -4643721.207434109 l -516.3746049953625 -514.7991726361215 -652.2626413675025 -364.42387089971453 -801.7394479811192 -156.18568437732756 -1028.2196199148893 17.354035019874573 126.8288308614865 1035.4069859553128 -2770.894827174023 11.320499474182725 -6033.42942919489 34.70454686693847 -8675.093086243607 -13.881702386774123 -8669.657701515593 -17.352410078048706 -2498.965690208599 -4.998503798618913 -6176.127396041527 -12.353679961524904 -8675.093186361715 -13.88189597800374 -8989.831525756046 -272.41144975088537 -8335.584016820416 -239.74340787623078 -7058.962980845943 -431.5519514866173 -504.02423884160817 -5862.483530197293 -309.9924265034497 -7528.861708094366 -619.9846527744085 -9518.066165510565 -199.26336776651442 -3507.466159174219 -420.7211848963052 -7409.5623566918075 -654.1061506848782 -10423.557053068653 -544.6941804140806 -8387.065682072192 18760.836080500856 -908.2341532679275 3785.0841014441103 -2823.307924534194 1235.3122780099511 -2875.13981447462 2349.5085047688335 -2298.4092906285077 237.2219462003559 -1599.9839213313535 2384.2399632502347 -1152.5849221758544 3383.44360130094 86.69536216557026 2841.2064729593694 -847.9565216638148 1403.5158059597015 -2226.598859615624 -508.17325283028185 -2234.3873382536694 4390.216742068529 -1385.2176797268912 1005.2146679069847 1400.247198201716 4579.469783851877 -269.9638995146379 82.86834401730448 3098.483591981232 1525.7035299651325 2109.9044996956363 5818.387032256462 7618.738114739768 5440.189971596003 6332.206038680859 3245.639311212115 3015.3172290185466 3997.7521962355822 1658.1655888902023 3393.910305097699 -753.54540144559 452.54000147711486 -1357.7956465184689 -377.49162904918194 -1132.1194716729224 754.4440264813602 -301.51680412516 905.503684929572 1660.548824004829 2028.0110248681158 16831.735021754168 146.43121665902436 6474.028386679478 -783.797529050149 -815.6496690604836 -642.727904336527 -6863.41113525629 -978.3673010338098 -979.7348248586059 -3841.677928680554 1356.29742855113 -2033.5270169582218 -601.5038266004995 2160.429344027303 4159.446471108124 -1576.3013554727659 -214.62601199466735 -606.9666292415932 -237.83433285914361 -720.2067152140662 75.41154498793185 -149.4768066080287 208.8287019059062 -308.01290470641106 34.804439667612314 -371.427388462238 133.4156582923606 1195.8148981658742 1189.0631522303447 1349.8212948525324 1067.1386853745207 1594.4198271147907 661.1061085909605 1938.66945245862 0 -2527.5177213819697 2435.2849518787116 -7641.438057826832 2086.925159882754 -1988.4950546622276 2370.4621123513207 2282.9191891252995 0 -457.4897113163024 1043.0609049499035 -548.0818468770012 834.3722213841975 -616.0258094063029 625.7346094911918 -661.3218215256929 417.1350003350526 1798.2518260078505 364.9792979126796 4402.772801396437 -3059.2764618275687 2912.5338800884783 -226.00557224545628 715.6771251345053 817.0733892805874 883.2722920607775 1442.7576104588807 937.6275956695899 1176.0734891267493 856.0946402605623 -69.51779145281762 2269.3304188856855 -2862.2272667558864 625.3288905667141 -1002.9686727998778 40.522632357664406 -2103.5123856775463 430.31217083055526 -944.8820147635415 584.0497309509665 341.20739148091525 149.76801839936525 1053.19270742964 223.90713322907686 2632.390179146081 -110.68942247796804 4833.120705230162 543.5522567983717 3613.6138075599447 314.4375977963209 4032.5038118436933 299.7616814021021 3306.9263491341844 373.2538073575124 3117.8078393042088 -1531.0053612617776 52.057000728324056 z" vector-effect="non-scaling-stroke" fill="#000" fill-opacity="1" stroke="#FFF" stroke-width="0.3px" stroke-linejoin="round" stroke-linecap="round"><title>Sussex County</title></path>
</svg>
