<svg xmlns="http://www.w3.org/2000/svg" xmlns:xlink="http://www.w3.org/1999/xlink" height="1080" width="1920" viewBox="-19848751.247482546 -3299711.3077761987 2614928.523677949 1155825.46578835">
<path id="15001" d="M -17243347.00091671 -2221807.988401293 l 5899.749780159444 2608.2001546728425 2372.522139698267 2061.2000995157287 1252.0051922537386 2469.429822180886 -350.19698046147823 3171.4711034805514 -1413.2357786223292 1849.6893453383818 -4990.617859065533 6040.83380662417 -4919.874433986843 1837.9356583990157 -7054.126220520586 6851.831257148646 -4763.880650427192 1375.7747220196761 -174.53671641647816 1346.1024984163232 -4001.9245620705187 985.0435139168985 -3386.1664760410786 2548.866046458017 -6680.2391165830195 2005.4757609819062 -5556.683926280588 1606.6306598819792 -4686.750158242881 -1174.4208687478676 -2696.3814852312207 -75.76477080816403 -2431.8924976810813 785.1308171595447 -2595.657049614936 1634.7803456122056 -3477.8735876195133 2458.795385554433 -2053.751096766442 2502.7251461129636 -2284.5462348014116 358.8368167821318 -1724.4359829872847 806.7831741119735 -2498.8399281203747 1598.8540192842484 -1585.360535632819 1208.5078427800909 -5671.061363488436 3222.3202100079507 -1671.4229697994888 570.56362103438 -4824.025792066008 4650.188496507704 -846.6122233942151 1914.3514149668626 164.45183846727014 4280.308738404419 -2045.8297131173313 2219.5198171064258 -3497.9338051453233 3460.6129263704643 -1832.5599364750087 4924.808501871768 -1608.149305190891 1805.5382093437947 -2034.1147838644683 1659.3037197613157 -2617.572295129299 2351.918401192408 -978.3094148933887 -593.009689681232 68.07710063457489 -2557.1145882927813 -2363.7940237000585 -1906.4074151217937 -4480.357477102429 -2384.484459848143 -5316.209335878491 -3252.998804186471 -2792.170682542026 -1913.8267390802503 -4662.041795387864 -1245.9576313113794 -2114.7131008282304 -619.3518797140568 -658.719171833247 -2145.8889884059317 -779.3913922831416 -2162.30917270435 -1431.28189259395 -448.11271196464077 -915.8477146551013 -3148.5565907107666 -867.9799996577203 -4996.851411439944 1285.169272314757 -5937.900593630038 2544.222880769521 -17118.64820413431 -205.22093218564987 -2998.0637292382307 -1504.4913783483207 -2735.4162229946814 -1343.5727092027664 -3725.258547821548 -1840.3748986832798 -5607.441858622711 -788.8950711712241 -2301.7501319739968 -1098.741630524397 -1452.5166645231657 -1106.5406740531325 -2435.730039498303 269.30667247623205 -2579.8070397060364 -1298.75904443115 -2427.802729459014 -637.8017942346632 -2725.2452100296505 -1205.8009244054556 -3305.777002804447 -1928.8553035110235 -2895.9869756321423 -1698.7001412287354 -1320.94077620795 -2390.1480225920677 -2905.541126443539 -2661.5135490447283 -7482.807980246376 1113.60033351928 -3345.604937180411 1263.7589720077813 -2796.5551206995733 2378.040803451091 -2122.963447192684 2301.037660766393 -1579.1393573032692 1032.7492099925876 -1174.811551308725 606.9666292443871 -2243.901586691849 1567.2421753108501 -1290.6055194064975 4670.019284058362 -1724.1561669390649 2246.682468481362 -3935.3298697629943 1109.752352681011 -1353.713229720015 2500.4063046760857 -4481.02373074973 2504.8036472015083 -2838.432113434188 1719.1321658454835 -49.30463310936466 794.5502126216888 -3702.6506041437387 471.63541296869516 -1555.7661149697378 -777.6041578613222 -2284.353805701714 -1852.4956988021731 -1794.916042949073 -3879.051777921617 -5976.442238654941 -1605.7223176546395 -5205.141111033503 -265.19942854344845 -4176.958216929343 10.271004140377045 -3869.470066993963 2091.4641364887357 -4191.657904351596 1473.91336138919 -1318.4757627113722 4020.0716428160667 -35.25146754877642 7243.2549184300005 1691.6895311595872 3125.4251704625785 637.2835714090616 597.9073377661407 588.9849284878001 380.4865686260164 888.2694815131836 131.35844629257917 1153.720988029614 1819.7777872607112 3022.007588250097 4265.7487496212125 1717.329858653713 2807.363344013691 1620.4382164655253 1945.526510450989 2347.3237143764272 2686.6524956971407 1216.084974039346 2243.7179191187024 1780.7631558198482 2589.897490475327 -648.1545019359328 3996.800191950053 252.9937164960429 4020.3861203826964 1570.3446408738382 7832.844129886478 2707.1894956813194 9840.847702667117 5151.156720716506 13047.406636841595 8420.53242124524 5239.051125146449 3413.069640025031 5809.6950950957835 5931.488353527151 3196.223698694259 4303.139126075432 82.59093584492803 4656.929414582439 -185.03971037641168 6197.560424703173 299.51577664911747 4877.203077513725 3103.36543225497 -132.584553304594 4335.763365995139 -2046.648662449792 3186.0410822294652 2262.2351965727285 1475.166596211493 2477.400770628359 -375.373107817024 5078.005353442859 1455.351058933884 3138.8210485661402 1899.5742699317634 2931.71053036768 z" vector-effect="non-scaling-stroke" fill="#000" fill-opacity="1" stroke="#FFF" stroke-width="0.3px" stroke-linejoin="round" stroke-linecap="round"><title>Hawaii County</title></path>
<path id="15003" d="M -17555843.39340005 -2433900.0866284436 l 1188.7198390960693 1864.1927249552682 2411.477616265416 1607.7494420828298 2324.871720340103 1240.1241292785853 715.9248109981418 733.0198379093781 -1304.2973004169762 1505.2385695939884 -2763.2415298745036 2526.319149546325 -1058.0843015871942 1187.9567364188842 -1209.424596466124 383.62496594386175 -392.1537418179214 -726.9325354546309 93.12331814691424 -1121.6426326883957 -955.4831306710839 -816.3216609153897 -2978.403737861663 760.7699159742333 -2417.078322481364 282.6668644133024 -2011.4853125028312 1019.1194760827348 -1456.2544165998697 1183.698777061887 -1764.706588011235 56.54507309710607 -797.1983919925988 -411.4773496412672 -550.205043528229 -1050.0649103196338 -867.3862214908004 -1293.962871311698 -3669.1215860024095 -1569.283254608512 -1832.6001228131354 -904.3191161281429 -1182.5654297284782 -1777.848396952264 -468.37486508116126 -1128.206706799101 10.106251288205385 -1123.5738112209365 -802.5755686722696 393.7803176692687 -1457.6091748066247 1424.8260634373873 1106.6689141057432 1294.7106702509336 -4649.251185894012 345.11760332994163 86.22640777751803 -559.7994294995442 644.9719939529896 -393.006201190874 -872.6648804247379 -730.8419253900647 -1762.4661719426513 59.58633467881009 -67.05440847203135 -1202.6048666262068 -309.8509008139372 -965.0353197772056 248.7244778610766 -798.120260332711 -312.1055657789111 -804.980963930022 1208.174144629389 -546.471807342954 1126.833326663822 -547.5637668669224 1209.9873165003955 -706.9291314925067 486.6167900376022 -1040.9058495657519 -1347.63698380813 -1054.8719893475063 -1114.2911822758615 -491.8983906148933 -775.4091601446271 -504.4484796151519 -506.30920795723796 489.33937886124477 -415.75781532749534 1518.9323579934426 -955.3557811751962 -491.2521438105032 -872.0414912737906 -1054.6439356417395 -635.2210744768381 -731.5990608860739 67.10561543703079 1609.1751704323106 701.0721192583442 1850.8343291967176 -564.9349498674273 394.163187880069 -2460.8185334056616 -2112.611265371088 -953.0476828478277 -813.904609117657 781.9549688361585 1935.9872694509104 1820.407187666744 1941.9820284848101 1349.0623185671866 1136.8639530278742 1031.2905907072127 893.0638805683702 -580.4127005524933 1836.2365330858156 -2010.9546524845064 858.3667941163294 -2646.867577601224 451.18605967471376 -4092.6939182654023 917.0227462914772 -2083.6541836559772 218.1629561074078 -1820.857586324215 532.2644792855717 -507.31531351804733 -213.90677268104628 -502.7858347557485 -461.85295909876004 -1323.0373800955713 -700.1260653249919 -998.3406893461943 -4017.3169814478606 -1166.913909330964 -3217.0969295497052 -1504.3769419118762 -1853.940869702492 -1024.465258769691 -1612.6813077502884 -2072.3770739622414 -1061.297634223476 -528.7910696826875 -3209.3590085650794 -703.2656698226929 -1689.7111790846102 -1985.2664554715157 -1701.920727592893 -1193.7226483337581 -812.7056836616248 -1327.2585038654506 -2096.3683506823145 -57.96294566243887 -2482.8080129581504 -133.7145233117044 -3446.8637483720668 -737.9491496123374 -1073.0516202505678 -4784.702404584736 -4032.8516529360786 725.125032953918 -394.3575044213794 4016.5030739046633 -763.9632279230282 4733.518704589456 -274.89214713545516 3125.7260670512915 190.8669501785189 1844.8892379924655 -61.81617173179984 1400.2275395281613 -376.13909486029297 1726.9663863256574 407.7397025260143 383.8280457854271 -1459.9833507658914 520.7630419619381 -696.3582733948715 2017.849002506584 -1182.7378343073651 2341.696659501642 -1816.9645658275113 890.3780377991498 -792.3742495020851 -158.51027197018266 -700.6454743016511 797.2098579034209 -1325.5357391336001 1050.867570310831 -2251.694491988048 1698.6006216034293 -1452.5474295336753 2327.0201865136623 -2166.235390297137 3539.8955758810043 -1000.6760082296096 1446.083711322397 94.61943341931328 804.0357464365661 485.048647755757 634.5317841917276 729.7053986587562 728.8893015347421 994.7253101789393 1811.4411819167435 1524.0210805409588 65.19782200828195 1285.6600577365607 961.9176198765635 490.32213405286893 66.09728349372745 1045.8051897636615 952.6532778963447 1053.9667722643353 -517.3229357413948 2166.257097919937 1431.0672686174512 2018.85736378422 1509.7124851047993 1461.8460908620618 696.9511830322444 2095.005069618579 1199.4807603172958 655.3571857609786 312.0044876821339 726.0598198026419 305.45188849419355 1367.6798106837086 846.1971130184829 -224.86620797542855 1122.0183134116232 413.5414227154106 841.9717591032386 993.2472500531003 1056.1743930839002 1674.5106117045507 15.134664006531239 1843.3579892683774 -8.809824500232935 882.4536125408486 -888.5383718945086 -10.716927246190608 -573.4088121466339 714.9839113508351 218.68313216418028 2008.0074171433225 227.32864909619093 1286.219745147042 377.4851725138724 2009.6546113705263 1042.2061346955597 333.91454308107495 1363.2260539792478 579.0711567117833 1029.7855511903763 1376.7516878955066 863.3245072327554 1534.640177326277 1686.154100652784 584.2631153794937 227.35659028589725 884.618896712549 1123.8860318288207 416.5234360266477 735.6489549763501 -872.6831337390468 1065.2301223352551 -1510.4364316579886 -1677.3074294030666 -1145.4867026410066 177.3243791088462 -1361.8548220428638 1214.0809794515371 -546.0444372086786 2734.337535407394 356.80152163608 1374.5425707772374 -383.2184193963185 310.2102401293814 886.9748800778762 -1636.2555841878057 1660.0236501279287 -326.1313763409853 2165.3565927040763 205.38178884610534 1689.7295608189888 1839.7009704895318 1149.0534544405527 1433.1036360636353 1464.907909065485 390.09344067797065 1037.9963485226035 -501.5399470105767 1367.9676876780577 z" vector-effect="non-scaling-stroke" fill="#000" fill-opacity="1" stroke="#FFF" stroke-width="0.3px" stroke-linejoin="round" stroke-linecap="round"><title>Honolulu County</title></path>
<path id="15005" d="M -17476017.413515624 -2413694.5887808325 l 882.4575447104871 -1337.1030886205845 113.47330030053854 -1119.2088062637486 575.9974355883896 -922.7595199011266 1096.0071785524487 -259.82286219252273 1487.0846835374832 1984.188806295395 517.9453230090439 2251.3323268597014 2507.405740302056 788.4870942719281 1296.6893626265228 298.6494289683178 1928.2571023963392 2946.1720286714844 -266.1649024859071 1644.1556962803006 -1827.3085508160293 453.6197127257474 -2730.443913575262 -3641.4595912280492 -938.757933780551 779.079271721188 -2240.4154037870467 -1405.8774088141508 -1431.456886831671 -1665.4028254342265 z" vector-effect="non-scaling-stroke" fill="#000" fill-opacity="1" stroke="#FFF" stroke-width="0.3px" stroke-linejoin="round" stroke-linecap="round"><title>Kalawao County</title></path>
<path id="15007" d="M -17823782.111748718 -2511552.874326981 l 1992.2208067029715 -903.6838767034933 1889.1174735613167 69.61233612755314 2107.1267888508737 794.1196182314306 949.2512429356575 2102.4895471199416 -939.7762844748795 1089.788194171153 -1375.0016523562372 1742.8116726884618 -813.5434328243136 2587.5613724621944 815.3283295370638 3247.0173141937703 -1450.689889214933 2075.455362390261 -1924.501152947545 869.9970259768888 -1664.4529225230217 946.0270989625715 -2098.8678845092654 657.3854590724222 -2484.839943677187 1601.7971731279977 -1448.8129312843084 1309.160955232568 -866.4709526374936 1814.8461702242494 -1287.8011990338564 3458.4335797168314 -802.7114897705615 2492.4629761464894 -1452.1164484918118 440.4717210815288 -1455.4240845181048 -1082.9270532419905 -1236.4183484762907 -429.0189215121791 -1399.3015840016305 -4221.557408383116 286.4980753995478 -2735.458546136506 1228.864987064153 -2832.708985019941 4345.990176297724 -4509.662408065982 3490.663083922118 -2690.7004544101655 4497.975122354925 -2619.6865962706506 707.4629712216556 -1601.8853268683888 503.7707896120846 -1452.0201843152754 z M -17733335.02547918 -2529667.600983329 l 942.1570744253695 552.6239503207617 22.648061722517014 1305.686016795691 -235.15318478271365 3357.208843016997 -1050.4857444614172 1443.3534737918526 -1620.0607133470476 4571.343012940139 -1612.049606192857 959.7626378689893 -165.85891683399677 3364.6376160550863 335.19055650383234 2100.8828604533337 113.23997465148568 2315.556466805283 -122.29915481433272 2237.095386810135 -266.2520656436682 969.1763581000268 -1532.428117763251 -5.94179147016257 -1249.9840755797923 624.9196765413508 835.6794248856604 893.6820374573581 417.789507355541 1049.3472800357267 -643.4895522966981 800.0258885095827 -1309.8839803859591 -94.69485589629039 -1901.6374653726816 1609.6900402498432 -804.3998724855483 1440.8672488206066 -963.3259227611125 879.726599697955 -1846.7387000136077 1197.2790639316663 -161.336451202631 881.7621774980798 -1203.9927619174123 156.07388519402593 -722.4778554625809 639.3721091295592 -400.5801819935441 641.4770058169961 -4965.605260040611 -1772.6594028635882 -3043.8558135814965 -324.57871497422457 -2265.575946420431 72.12673609517515 -4223.127856183797 -885.2357972753234 -1602.3410994410515 -158.5916216620244 -960.2726517617702 -883.3594805626199 -480.6076526045799 159.20462176389992 -161.29682146385312 802.4859769209288 -961.517982903868 239.50929308123887 -560.0358903966844 -961.8092255950905 -1442.5164782479405 -640.4377657053992 -1281.783823955804 -1042.741462988779 -799.5248580276966 -1123.0531230042689 -479.499021794647 -1042.6866814494133 -480.82338977977633 -961.4618624448776 -1282.9598030596972 -320.3965493105352 -479.57716808095574 -962.4631444350816 -1122.5517564155161 -560.979988980107 -2216.0516860708594 -358.3646822050214 -1713.8119847401977 -683.3449116260745 -1363.2699138633907 -721.3904356667772 -2165.7403969317675 -400.4036623770371 -1845.78502593562 -640.7851077467203 -963.5398788191378 -2004.4183502295054 -320.9944271221757 -1202.8168647717685 -963.6765791550279 -480.9105952256359 -803.8750010877848 -1202.7493774062023 -0.963692829012871 -1684.643711954821 159.79946299269795 -1363.939647172112 79.95210731774569 -1524.5315893981606 -161.3079534098506 -1043.1536786360666 1108.1907628588378 -419.37622358556837 2984.6882797144353 -3433.5664472323842 1566.0011856295168 -2059.2985440269113 151.03706059604883 -1170.4232643544674 13.588770236819983 -1051.3081781389192 176.6544584147632 -845.9837889731862 747.3843670114875 -342.31756260432303 271.7760727405548 -352.1053853915073 770.9663992635906 -1317.562785769347 2488.6678870096803 -721.6570199988782 2893.10762707144 -716.4392640171573 3207.543555069715 -1933.156262570992 2006.6140829063952 -1771.1903481362388 2573.0990453585982 -1271.285666693002 963.1581642851233 -1213.1914506247267 1445.8837815187871 -566.1032683243975 1205.1360130868852 1.734306381549686 804.215638730675 -883.6804735204205 1124.5205529257655 242.39403566811234 802.5112260095775 724.6570361787453 400.61714006587863 804.8511444665492 883.5735226050019 81.24564652517438 1445.355013936758 483.35584754124284 962.8363396376371 644.6346040661447 963.5127168633044 -77.3421596181579 -319.34044213220477 -886.6673612589948 322.8497890755534 -884.2011741315946 2009.8444632068276 -801.0194320799783 2086.567860007286 328.91570162633434 2493.4865738116205 -2.186972210649401 1282.924737419933 807.795275604818 1045.7722545787692 -160.4696582481265 1288.6510120294988 -803.338664337527 886.4501295685768 -803.2067723115906 1284.1082862466574 806.4208790534176 1606.2511965557933 805.898177660536 1768.8070414587855 -77.16462621279061 2129.6922515034676 1165.1533982967958 835.9779837615788 1815.368567309808 1397.115603160113 1462.433367095422 763.9072963930666 153.15569626679644 471.56850995123386 1611.9950597505085 324.8286043442786 1200.8863064590842 369.30586161091924 1206.1248572422192 z" vector-effect="non-scaling-stroke" fill="#000" fill-opacity="1" stroke="#FFF" stroke-width="0.3px" stroke-linejoin="round" stroke-linecap="round"><title>Kauai County</title></path>
<path id="15009" d="M -17428376.966607336 -2344009.3240542267 l 2805.710806168616 3218.3947548805736 -1469.1474400237203 3503.5683811679482 1740.9367597810924 1151.3504225630313 -1160.6894799992442 2207.3830611794256 -3157.4191713519394 27.70245641004294 -2960.2176952920854 -525.2817720612511 -2154.8414395451546 427.23997026029974 -3075.8151941150427 680.397993771825 -3647.1366544887424 400.6357055166736 -2371.1631513535976 -2461.9690573699772 1347.4020996838808 -1744.7723212749697 2370.9759119674563 -2093.870759564452 3118.005837723613 -2071.6104960637167 3376.8775324486196 -1891.3030871241353 2915.8052259646356 -1059.6629992350936 z M -17460281.577278733 -2377196.392531405 l 1748.3643301688135 1914.94115099404 1818.2705213576555 2267.972036836203 1173.432556066662 1976.7322174883448 251.3827873058617 1493.868481272366 -689.316113114357 2034.524747417774 -2396.2408722750843 3771.0576300108805 -5066.996722050011 2326.348544300534 -4114.679183740169 1135.7148983622901 -5403.7348421141505 278.0926732700318 -2238.194357305765 -3217.150580043439 -522.3721652030945 -2793.0220660618506 -141.7456679791212 -2213.0722739389166 -27.177651800215244 -2796.038906988688 -394.07533886656165 -2549.28166942019 -1902.2237851284444 -1136.3922326024622 -4629.271897651255 -1849.5802169679664 -1372.1726901344955 -2261.476889198646 881.9237677529454 -2500.507396229077 2634.113146945834 -1352.2440765565261 4579.322730805725 -570.9749128818512 10875.310898859054 1593.0797998378985 z M -17366029.625545565 -2368099.2493320773 l 2465.2214419022202 5127.784307134803 -572.5115770548582 4735.445019145962 -2052.4720358103514 3771.6062594545074 -2739.234368491918 777.1690225619823 -2302.365257009864 3388.195936843753 -3003.499158591032 25.73780561797321 -6022.443451244384 3116.4008406871 -4000.0844508856535 -90.76712689409032 -2224.725812114775 -236.02591982344165 -2049.054527450353 140.04538659239188 -5550.822509814054 2571.4387828228064 -3473.0524517968297 1876.991476320196 -1970.4822252206504 887.0378773664124 -2685.141890205443 -712.5326496781781 -1021.3477564267814 -116.60720152361318 -1850.4957328289747 -508.5352287599817 -1442.127305302769 434.83236781926826 -4696.045224405825 186.1271603209898 -3098.5979524217546 -2945.6457937122323 -344.4025783240795 -1215.7643075711094 -1456.3111895434558 -1610.5292447074316 948.6211746223271 -816.4604500900023 43.73419966548681 -2137.5235406928696 -860.6781089752913 -7831.301493388601 -886.0225514024496 -2158.7849154714495 49.987238105386496 -2418.795567108784 -704.383317515254 -1970.1620503319427 -457.25527246668935 -381.5524003058672 -768.5709151402116 -744.3436195710674 -1157.2541605122387 -693.315350305289 -1770.4390965104103 55.96542829461396 -1586.2044486925006 726.8405099818483 -603.4629595950246 1648.613206525799 -1402.3260232433677 250.30638988362625 -1640.3410094939172 -949.1267585973255 -1568.7176038473845 -1158.1676234859042 -2421.91704678908 -430.4629234173335 -2392.623990703374 -1539.1186797004193 -1587.2516311444342 153.52118794387206 -1449.577584862709 -1982.861146833282 -2649.0384189896286 -2849.436256030109 -3100.683968361467 -4077.5162448994815 -136.5325762182474 -2613.5518823494203 -1099.3935174643993 -1427.6216236692853 417.34545390307903 -2419.450239904225 710.3130841478705 -3353.47348691104 1006.4198127128184 -2829.6885732640512 1154.3201126940548 -1844.2470642458647 1404.786740589887 -157.05799047322944 943.3734625019133 -1027.642633533571 58.88478236272931 -931.6650492628105 1008.0886031985283 -708.2359526241198 1025.1742526069283 114.76568362023681 1213.544419504702 120.68903619702905 937.7844448275864 -261.56514630140737 382.4243070036173 -554.487608842086 655.7431565709412 -78.8086297409609 927.2478323839605 586.1155004929751 914.355254240334 1143.5546395336278 1110.1397445090115 201.9837027154863 1753.0390808656812 968.5179664958268 1480.3057718239725 589.6315257623792 539.1089393272996 1518.8312629144639 1295.3410907797515 397.0506273913197 335.4804324619472 1582.8457327056676 -19.181461460888386 1412.3520257128403 1548.0361122488976 1418.7428496200591 996.5179440043867 1515.2670183512382 801.0806592293084 1881.3683737707324 1260.2834661900997 2073.7022203579545 1959.3032993152738 -146.14503267081454 1241.1803736500442 -1465.0772157371975 2139.105427648872 24.660757422447205 1657.8341995589435 -286.1045862501487 3247.724325273186 -169.72527768928558 1241.1109102889895 -290.961269043386 3569.326111536473 -2609.164872066118 1752.955813884735 -640.2251603188924 1698.6006216034293 -203.7127702063881 1902.4327318146825 29.101898648776114 1825.429477814585 291.0172093939036 1481.1797411441803 620.8206159705296 471.07859287783504 63.05084720719606 380.4865686222911 101.85094375815243 317.07208486273885 247.3500078949146 285.3649543002248 470.4403855651617 1408.706077221781 -465.5904337060638 1784.6630557700992 1144.554643697571 560.2333711758256 1384.2844225978479 730.6272214241326 668.515003846027 896.9369821958244 934.336870633997 1109.7524640001357 1415.8056666809134 2010.780660122633 1372.9091827664524 1458.6704948283732 1429.965290802531 147.8497609347105 1035.820199992042 1310.2987568043172 118.21816793410107 562.5911179892719 10.81479789270088 391.02607537806034 -645.0549926864915 1464.2720916047692 1151.3593244561926 616.7270108759403 1597.6234051701613 717.8093386590481 949.3674867716618 3817.350055847317 550.2613875321113 3782.6951851658523 1856.4940610015765 z M -17467540.352946997 -2412010.825401415 l 1841.1440348774195 424.0378471282311 5606.6984376609325 -183.58542265882716 2451.3893272541463 -336.4809396993369 1561.030659046024 -516.6398624386638 1149.1800465285778 -453.7416277346201 948.5078513771296 196.78126555960625 2034.0780484303832 -140.52557294256985 1561.0476909317076 500.7201155764051 1166.986823592335 244.10196825116873 1113.9517691507936 -214.29742691712454 645.3852119036019 478.7324843578972 -301.9183852188289 557.3688379037194 753.7399307005107 384.0327183227055 1778.147525973618 -60.12944417446852 829.4797084853053 575.9683045488782 -2128.2023514434695 3916.9191443277523 -3424.378783684224 3364.8167027696036 -4207.999982666224 2344.7973502930254 -4185.351920939982 1762.0350302830338 -4294.062416829169 922.2075554104522 -4339.3584289476275 -436.82924853730947 -4324.372933059931 -895.7060032011941 -8628.55629535392 -2294.873140747659 -5282.882952000946 -1861.5799228860997 -7563.738945689052 619.3850083593279 -5226.483043313026 287.40917119244114 -3929.7150592915714 589.6444815448485 -3160.848924867809 -191.74493983574212 -2459.5736475400627 131.07759022479877 -2174.2088045552373 -878.7237265231088 -1263.7588606923819 -1772.1444500074722 -36.236831963062286 -2228.784123750869 869.6835218258202 -1874.5324721573852 1232.051618810743 -1447.313869766891 2003.612575467676 -772.1225358052179 1806.459300749004 -2118.007824756205 504.2520237714052 -2324.9084432930686 -1380.6592428423464 -1799.7392785744742 -80.46428829059005 -841.9435332329012 1215.1499805226922 20.214782543014735 1771.8360447995365 309.72483196202666 2617.5023864880204 -144.02546389540657 1393.1826855503023 395.05175822461024 914.3278696462512 1417.7386257187463 1682.1461537070572 -0.444541799370199 10518.503321763128 1603.8088251808658 5677.801202058792 847.5886232075281 4268.435779489577 210.89741302793846 970.7700797468424 794.0502633396536 1431.456886831671 1665.4028254342265 2240.4154037870467 1405.8774088141508 938.757933780551 -779.079271721188 2730.443913575262 3641.4595912280492 1827.3085508160293 -453.6197127257474 266.1649024859071 -1644.1556962803006 z" vector-effect="non-scaling-stroke" fill="#000" fill-opacity="1" stroke="#FFF" stroke-width="0.3px" stroke-linejoin="round" stroke-linecap="round"><title>Maui County</title></path>
</svg>
