<svg xmlns="http://www.w3.org/2000/svg" xmlns:xlink="http://www.w3.org/1999/xlink" height="1080" width="1920" viewBox="-9808567.2960718 -5125030.358098047 370460.72049982846 576363.8027316695">
<path id="18001" d="M -9440598.76249466 -4971756.472495878 l -95.12158554047346 11938.038952478208 -82.65450677648187 10364.676514983177 -29002.69881955348 590.6494131255895 -105.86427914723754 -12799.441546608694 -493.92179766111076 -38564.56656352524 20354.317602336407 -388.62666150089353 9657.851662224159 -312.33986975997686 -41.66490457393229 5248.089368689805 -95.1216856520623 11967.29496625252 z" vector-effect="non-scaling-stroke" fill="#000" fill-opacity="1" stroke="#FFF" stroke-width="0.3px" stroke-linejoin="round" stroke-linecap="round"><title>Adams County</title></path>
<path id="18003" d="M -9440288.725797823 -5010776.730078392 l -24.671739991754293 3111.1268694428727 -53.456680964678526 6737.520952262916 -9657.851662224159 312.33986975997686 -20354.317602336407 388.62666150089353 -11578.893495278433 205.06130592152476 -17604.949375318363 -95.75518681388348 43.08142217062414 -12997.54684776254 -323.82661760784686 -25681.312415948138 3195.9814674872905 -20.706212293356657 229.43036108091474 -12564.793299611658 12878.214035211131 -9.477483162656426 19147.16937813908 -332.7737161628902 24432.914396276698 -706.7059533037245 -22.494155902415514 2770.489382047206 -48.35425631701946 5952.860292895697 -92.40404333919287 12026.53579350654 -95.12158553861082 12015.241432852112 z" vector-effect="non-scaling-stroke" fill="#000" fill-opacity="1" stroke="#FFF" stroke-width="0.3px" stroke-linejoin="round" stroke-linecap="round"><title>Allen County</title></path>
<path id="18005" d="M -9538360.16070718 -4771937.91879313 l -322.3820245768875 16857.554749951698 65.56606688909233 14680.781630034558 -12576.315687511116 248.83674186095595 89.1663555316627 8693.558167458512 -2058.850753955543 -313.4629788463935 -3160.8269949276 1461.8978533642367 -1686.8043178040534 2786.5768995722756 -24361.261560242623 707.5652677156031 -39.62962740473449 -2059.20353761781 -244.67834832891822 -28677.756734604947 -348.5404351186007 -13541.65092167072 14871.72303106822 -458.90364055894315 18206.408695390448 -414.0096927182749 z" vector-effect="non-scaling-stroke" fill="#000" fill-opacity="1" stroke="#FFF" stroke-width="0.3px" stroke-linejoin="round" stroke-linecap="round"><title>Bartholomew County</title></path>
<path id="18007" d="M -9743481.912874699 -4935525.190131932 l 7.914451263844967 -2058.6010543713346 37.84486002661288 -9849.66857323423 81.5328734125942 -21250.2007783344 17.64975455030799 -4934.468097155914 28781.94357280992 64.08530361298472 18785.4923525434 -3.81829594168812 371.4714709818363 25478.571436370723 174.99334896728396 12761.397488121875 z" vector-effect="non-scaling-stroke" fill="#000" fill-opacity="1" stroke="#FFF" stroke-width="0.3px" stroke-linejoin="round" stroke-linecap="round"><title>Benton County</title></path>
<path id="18009" d="M -9484551.218173843 -4948717.005391585 l 42.634474413469434 12856.768247100525 -634.2981245797127 11.707991312257946 -40.40986571460962 14650.98446209263 -1451.828353650868 2.04570101108402 -12449.856968602166 138.9696019841358 -12533.791530702263 -134.14871099311858 -298.779843499884 -27480.315184497274 z" vector-effect="non-scaling-stroke" fill="#000" fill-opacity="1" stroke="#FFF" stroke-width="0.3px" stroke-linejoin="round" stroke-linecap="round"><title>Blackford County</title></path>
<path id="18011" d="M -9600455.593998922 -4892246.21418809 l 162.85818863846362 34910.91734505538 129.46445647068322 2133.7932852525264 -9635.144423129037 292.2022786056623 -16346.371769009158 174.474715301767 -24730.396769074723 1.740388691425324 -56.993352895602584 -37204.09857436828 25376.828940788284 257.8854952622205 7674.697316052392 -56.09215149842203 z" vector-effect="non-scaling-stroke" fill="#000" fill-opacity="1" stroke="#FFF" stroke-width="0.3px" stroke-linejoin="round" stroke-linecap="round"><title>Boone County</title></path>
<path id="18013" d="M -9583004.718034629 -4771093.221655912 l 348.5404351186007 13541.65092167072 244.67834832891822 28677.756734604947 -10296.047906011343 246.97678208071738 -16182.509589880705 -37.69944263994694 -5781.153445573524 62.2092298027128 106.4217671547085 -5916.917625959963 -365.683080105111 -23179.38553897012 -839.6825850922614 -78.63342624437064 -162.19171884655952 -12677.299405035563 14439.358240144327 -276.3582960180938 z" vector-effect="non-scaling-stroke" fill="#000" fill-opacity="1" stroke="#FFF" stroke-width="0.3px" stroke-linejoin="round" stroke-linecap="round"><title>Brown County</title></path>
<path id="18015" d="M -9638234.51850344 -4973443.706241503 l 6300.23623114638 47.01228111796081 -0.668362222611904 6318.976886168122 16879.146740628406 -6.018166817724705 -101.30196113884449 19227.323504803702 -148.16757807694376 18959.956376632676 -10477.053286725655 127.23275764286518 -25024.502863748 -167.30667515750974 -75.1393204536289 -18993.73595487885 -8453.59968181327 -30.47873365599662 -329.2819405682385 -14949.2958130287 1343.8668176140636 40.03381563257426 -423.79464420489967 -4016.293180475943 -462.1186721883714 -3498.2641823822632 -452.69667543284595 -3475.2955762324855 z" vector-effect="non-scaling-stroke" fill="#000" fill-opacity="1" stroke="#FFF" stroke-width="0.3px" stroke-linejoin="round" stroke-linecap="round"><title>Carroll County</title></path>
<path id="18017" d="M -9615157.105855027 -4947856.411736231 l 101.30196113884449 -19227.323504803702 -16879.146740628406 6.018166817724705 0.668362222611904 -6318.976886168122 -6300.23623114638 -47.01228111796081 152.61991243995726 -12450.81808530353 -129.57499672658741 -13316.320759097114 12581.659134384245 152.60294194798917 25166.657742170617 121.5224658595398 8172.740495223552 -86.16866698209196 163.63931751064956 7347.840516326018 -146.0523964408785 17092.413740609773 358.0033710747957 244.6346629327163 -114.77084028348327 9694.790438057855 183.34197682142258 16596.748707639985 z" vector-effect="non-scaling-stroke" fill="#000" fill-opacity="1" stroke="#FFF" stroke-width="0.3px" stroke-linejoin="round" stroke-linecap="round"><title>Cass County</title></path>
<path id="18019" d="M -9532710.0929703 -4633143.2311903555 l -1064.3877285718918 5069.753282286227 -2421.52511908859 4829.3322793329135 -3943.471288613975 3102.8795796884224 -2223.1284203976393 1239.505036873743 -4207.094105834141 1298.2043246235698 -1288.2186190988868 -41.54010048229247 -568.0120711494237 -1242.8159428797662 -570.7298135757446 -536.6380942650139 -1331.7028983402997 -547.0534883299842 352.5896532032639 -3258.581674301997 -637.1701674479991 -3540.4956039926037 3718.6784629579633 -2216.1565337069333 -5250.480631222948 -7727.080155420117 -17644.24560084939 136.65356232225895 -14.248672181740403 -1050.0979556720704 -3077.87159906514 -1065.9764741249382 149.39120192080736 -9977.49580955226 4132.401135351509 -59.163287670351565 -100.96688946895301 -1848.028598336503 8051.291153404862 -216.21473629307002 7.569948015734553 -2088.847626581788 2052.9532699733973 -38.84169341251254 9.351171184331179 -4079.6390637578443 2070.764499818906 -6.689593582414091 -34.84266665764153 -2011.2463302388787 2974.90107008256 -21.923756876029074 -33.061777446419 -1997.2648487705737 3102.9187071379274 -4184.157854342833 4856.756727982312 -145.01389398798347 20035.05341405794 -48.14748879801482 8165.393631467596 -97.72204234730452 27.27327524498105 2073.3389705149457 1962.2278849799186 874.163439466618 6514.010242398828 -645.0560912825167 1115.1447040848434 2652.3344232328236 -508.22133735381067 2655.455283845775 -1568.148091090843 2105.80066628661 -1688.2967549730092 1255.7893306640908 -4239.140118982643 3152.4796614684165 -1527.381654376164 1774.5828860020265 -1706.7538557667285 2479.039493688382 -1714.9071831498295 1291.3629111349583 -4772.388334449381 479.0126754147932 -2285.636996725574 614.3530226098374 -3307.5151562877 4129.440676947124 z" vector-effect="non-scaling-stroke" fill="#000" fill-opacity="1" stroke="#FFF" stroke-width="0.3px" stroke-linejoin="round" stroke-linecap="round"><title>Clark County</title></path>
<path id="18021" d="M -9686254.292253897 -4808675.468069601 l -203.9384203273803 18914.353592468426 8344.395261341706 59.41586311068386 -270.3952657710761 6320.510311221704 -6.791268173605204 12578.148113106377 -12379.837120218202 -64.63001913297921 -99.85503039509058 25091.60475490056 -20723.1190753337 -529.4061393244192 39.40787897631526 -12532.902258635499 105.08760306239128 -32532.708953002468 150.05911886319518 -5137.670411017723 4228.6920496132225 115.1583596477285 121.56166318245232 -12620.985109774396 z" vector-effect="non-scaling-stroke" fill="#000" fill-opacity="1" stroke="#FFF" stroke-width="0.3px" stroke-linejoin="round" stroke-linecap="round"><title>Clay County</title></path>
<path id="18023" d="M -9600455.593998922 -4892246.21418809 l -17425.057412158698 510.8227823022753 -7674.697316052392 56.09215149842203 -25376.828940788284 -257.8854952622205 3.451238173991442 -5203.4119736254215 121.89684616960585 -31795.932553936727 25024.502863748 167.30667515750974 10477.053286725655 -127.23275764286518 7376.027344889939 26.03239825554192 19.703327232971787 6332.895592171699 3171.3798600118607 0.584753518924117 -0.668028263375163 2122.187792748213 4213.5528215020895 -5.406161696650088 27.6056752409786 23064.837356355973 z" vector-effect="non-scaling-stroke" fill="#000" fill-opacity="1" stroke="#FFF" stroke-width="0.3px" stroke-linejoin="round" stroke-linecap="round"><title>Clinton County</title></path>
<path id="18025" d="M -9609203.737502309 -4603737.404959151 l -2513.4111935514957 -1999.49415303953 -2022.0140793900937 -978.5690109515563 -2356.298800326884 -242.06305151525885 -1231.1458279564977 961.3030313104391 1358.880622928962 2634.4796835929155 2236.717232629657 1361.9212597077712 2301.9435513839126 736.1921979915351 907.7321768309921 1033.345719339326 -1956.7878607530147 2225.3163544330746 -4696.291045995429 2024.4831223292276 -2625.357202515006 262.5320197176188 -1353.4449378550053 -438.7084267940372 -581.6008833795786 -1361.1506811501458 -581.6007832754403 -535.5273039778695 -1282.7832343615592 -701.4100154563785 -1282.7831342443824 -86.3837515776977 152.0506107583642 -9842.42551348731 -12378.612383173779 -239.4204206559807 165.6439588982612 -8193.633351244032 -12175.565854616463 459.64899897761643 -212.95296137221158 -18686.232507598586 25572.639925098047 -240.60751314554363 15900.092041738331 339.7494534775615 21.596203852444887 -4092.2175401449203 5990.434199588373 27.281317670829594 320.2757484894246 4387.790379879065 -671.4123767782003 3532.380542070605 -1360.2125240396708 762.0619758609682 -762.4570260662585 4911.527717823163 -1359.8711071629077 1385.5164261460304 4064.599773094058 3216.053248493001 -2453.006020218134 2016.3215561201796 -237.5217295885086 7526.772493354045 -3395.0429809186608 3977.733591496013 z" vector-effect="non-scaling-stroke" fill="#000" fill-opacity="1" stroke="#FFF" stroke-width="0.3px" stroke-linejoin="round" stroke-linecap="round"><title>Crawford County</title></path>
<path id="18027" d="M -9676768.06342244 -4652134.7608254645 l -5788.830942129716 -712.0550230965018 -5852.245365597308 -63.68212912697345 -1857.1366872284561 -353.1535391397774 -2544.38526263088 -1534.1566157797351 -2460.824589520693 -1488.4095483012497 -1816.37027214095 -214.27706720586866 -3877.339034790173 943.9437069352716 -1875.2550939284265 156.35037098359317 -1748.4262469988316 -920.7643385203555 -1123.3412156868726 -1534.7913136268035 -634.1442346647382 -1888.3987092114985 -1508.3573581594974 -961.7111985748634 -1988.4951358344406 -11.587433133274317 -3696.1549677439034 1205.0227537509054 1105.222808983177 -9690.548656680621 -108.71044022962451 -3688.5316578876227 -584.3186162225902 -1670.716861128807 -2228.5640246700495 -3794.9354877648875 -430.31215923652053 -3192.5526325991377 1657.8342134747654 -4209.892730589025 942.1571486424655 -7460.13630625885 760.973081594333 -3168.1441898308694 1884.3142972812057 -1645.498942181468 2414.277693392709 -1116.5324932765216 3881.8686364665627 -2972.2021953267977 3062.010733084753 -2507.5625746631995 3101.5199902337044 -3621.6657986594364 9343.03827957064 544.8437782935798 14603.999767029658 -250.18685964960605 -19.815759919583797 12392.97545686178 -2063.305982619524 38.575663017109036 z" vector-effect="non-scaling-stroke" fill="#000" fill-opacity="1" stroke="#FFF" stroke-width="0.3px" stroke-linejoin="round" stroke-linecap="round"><title>Daviess County</title></path>
<path id="18029" d="M -9442266.371051544 -4765486.941237583 l -52.73411111347377 6487.8433767315 -95.12158553861082 11692.199028789066 -97.83952819183469 11671.6702692369 -2144.3133895136416 1344.6523010814562 -3372.7413749322295 3784.3768866434693 274.49388703517616 4608.657356171869 -2772.115604426712 2065.090365481563 -1743.9616443105042 -507.73634233977646 -4713.488320695236 3364.0959692066535 -4853.194615596905 -251.23175383266062 -1009.7153149228543 2670.1645204899833 -4048.89648912102 644.7666929131374 -1719.8528482317924 3175.5519390515983 -2864.13873334229 254.34333139006048 -1525.298994930461 2045.8542887521908 -2371.438444454223 -241.7175830360502 -1530.1971638463438 -1554.198473266326 4481.500728271902 -31305.148154629394 2969.559070358053 -20237.167512463406 z" vector-effect="non-scaling-stroke" fill="#000" fill-opacity="1" stroke="#FFF" stroke-width="0.3px" stroke-linejoin="round" stroke-linecap="round"><title>Dearborn County</title></path>
<path id="18031" d="M -9538616.976664867 -4740399.5824131435 l -65.56606688909233 -14680.781630034558 322.3820245768875 -16857.554749951698 6002.567801441997 -20.153615635819733 136.70111393369734 -14773.88587829005 6306.247261006385 58.676660573109984 30630.550972944126 -134.65153879113495 117.21775401756167 26633.86893673148 -15975.90139420703 10444.249439112842 -14359.097443882376 9060.86737583857 z" vector-effect="non-scaling-stroke" fill="#000" fill-opacity="1" stroke="#FFF" stroke-width="0.3px" stroke-linejoin="round" stroke-linecap="round"><title>Decatur County</title></path>
<path id="18033" d="M -9440358.577815676 -5075384.958594933 l 0 8513.708878768608 425.66682024113834 11114.743970168754 -26.990915743634105 3325.3802114333957 -24432.914396276698 706.7059533037245 -19147.16937813908 332.7737161628902 -223.30411553941667 -38911.036161765456 21870.488399019465 -143.19155203085393 21323.67878834717 -1426.6756488457322 210.54479809105396 13211.01695776172 z" vector-effect="non-scaling-stroke" fill="#000" fill-opacity="1" stroke="#FFF" stroke-width="0.3px" stroke-linejoin="round" stroke-linecap="round"><title>DeKalb County</title></path>
<path id="18035" d="M -9511618.768542679 -4921190.678099077 l 12533.791530702263 134.14871099311858 12449.856968602166 -138.9696019841358 126.90344026871026 10584.051827989519 486.68647604063153 33490.68350466713 -17931.449441812932 73.90286841522902 -22342.705790288746 -110.8576372154057 69.3532672803849 -19580.683006087318 -340.07937458343804 -24507.66181750968 z" vector-effect="non-scaling-stroke" fill="#000" fill-opacity="1" stroke="#FFF" stroke-width="0.3px" stroke-linejoin="round" stroke-linecap="round"><title>Delaware County</title></path>
<path id="18037" d="M -9649331.419531645 -4635343.200759199 l 212.95296137221158 18686.232507598586 57.77470440417528 2129.8303371500224 -12596.909904625267 -147.56050586048514 72.91370987333357 6231.255430238321 -16811.687240520492 310.94594334065914 -8349.51562396437 -95.05442061461508 -6191.365991786122 -30.457225067541003 8.34929576702416 -4077.102341728285 -17.698463201522827 -25005.147532753646 135.94440430030227 -17457.54956571106 2544.38526263088 1534.1566157797351 1857.1366872284561 353.1535391397774 5852.245365597308 63.68212912697345 5788.830942129716 712.0550230965018 1884.3142972812057 -150.51156998891383 1893.3735006358474 -463.12639602366835 3587.4445275161415 -1487.9352711411193 19967.42884335108 182.798142073676 z" vector-effect="non-scaling-stroke" fill="#000" fill-opacity="1" stroke="#FFF" stroke-width="0.3px" stroke-linejoin="round" stroke-linecap="round"><title>Dubois County</title></path>
<path id="18039" d="M -9580441.497586707 -5124982.776050794 l 2767.023264233023 1.167245532386005 8637.044492077082 3.643329534679651 8637.044391969219 7.2866549231112 8637.044592186809 7.286783575080335 2282.140293635428 0.962664311751723 6354.904198443517 2.680658293887973 8637.044391967356 3.643321228213608 -555.1271339394152 35116.291958102025 140.15034834854305 12848.043199957348 -18216.538769053295 289.100766364485 -26937.86138095334 -133.7864456223324 -35.28772198408842 -6430.393071420491 z" vector-effect="non-scaling-stroke" fill="#000" fill-opacity="1" stroke="#FFF" stroke-width="0.3px" stroke-linejoin="round" stroke-linecap="round"><title>Elkhart County</title></path>
<path id="18041" d="M -9465993.15911072 -4824550.996826351 l -180.2278140708804 27222.26158247702 -9900.529977861792 -93.80954612791538 -19254.147408783436 199.16145553346723 -329.5040229521692 -22720.112473599613 -64.2306782733649 -15170.132301666774 8956.652349384502 -135.59645214211196 4195.96434196271 12.74864868633449 -174.99468480795622 10552.484881270677 z" vector-effect="non-scaling-stroke" fill="#000" fill-opacity="1" stroke="#FFF" stroke-width="0.3px" stroke-linejoin="round" stroke-linecap="round"><title>Fayette County</title></path>
<path id="18043" d="M -9550328.363034971 -4619971.604313508 l -1521.9461695365608 -363.56437715608627 -1133.3063998725265 0 -1505.6396148707718 1675.751569263637 -2413.3716915883124 5845.683715249412 -1095.2577055897564 1276.6796998176724 -1883.408414831385 1020.5380427436903 -1497.4862874895334 2500.7558713406324 -1032.749229375273 3139.7863885778934 -6351.09906883724 -1248.2671207441017 290.3213433083147 -1885.5741737820208 -0.110874217003584 -8280.521227934398 -2044.7157389689237 -24.951957542449236 -3.562112390995026 -2068.8004442323 -2069.7627357169986 -15.881649809889495 -350.9900205153972 -3834.858653180301 -2104.6056250240654 108.37513699848205 -33.729583071544766 -4124.886437161826 -2020.336881807074 9.507884368300438 -28.71976070664823 -12387.287090255879 4247.728016495705 -64.22001145686954 3077.87159906514 1065.9764741249382 14.248672181740403 1050.0979556720704 17644.24560084939 -136.65356232225895 5250.480631222948 7727.080155420117 -3718.6784629579633 2216.1565337069333 637.1701674479991 3540.4956039926037 z" vector-effect="non-scaling-stroke" fill="#000" fill-opacity="1" stroke="#FFF" stroke-width="0.3px" stroke-linejoin="round" stroke-linecap="round"><title>Floyd County</title></path>
<path id="18045" d="M -9695054.842140425 -4923851.8210526 l -44.443113658577204 26646.350772511214 48.31076657027006 25319.323797874153 125.12232841923833 12771.21930528339 -11050.793942274526 -53.73129870276898 -26499.842040797696 185.80755987297744 -639.8201316855848 -1690.3424054067582 -552.6114044915885 -5225.671150886454 344.24972738698125 -5678.055914519355 1694.0710268840194 -9251.548702664673 27.177610056474805 -3056.1524419523776 -792.6802933253348 -2843.779985714704 -1807.3110687881708 -2951.285984514281 -543.5522011388093 -2744.6566028641537 1829.9590771663934 -2253.2034419616684 9190.561800928786 -4614.741038466804 2006.613542534411 -1774.105286737904 819.8579033873975 -2546.0123860975727 869.6835218202323 -1745.199022241868 5276.985952725634 -5807.680655024946 13856.05152737163 -6999.890788166784 3696.154967745766 -3073.679447753355 z" vector-effect="non-scaling-stroke" fill="#000" fill-opacity="1" stroke="#FFF" stroke-width="0.3px" stroke-linejoin="round" stroke-linecap="round"><title>Fountain County</title></path>
<path id="18047" d="M -9442012.29703209 -4796719.409637914 l -21.443273838609457 2572.5811106422916 -92.4038431160152 11729.57418258302 -97.83942807465792 11712.377637345344 -42.38747442513704 5217.9354697605595 -27189.494477503 -287.9334936281666 28.16360853239894 -409.0252523133531 -12796.282889993861 47.90907257515937 -4439.976554453373 331.33441563975066 -8502.91443887353 5630.592266767286 -117.21775401756167 -26633.86893673148 -43.97075358219445 -10415.45016919449 19254.147408783436 -199.16145553346723 9900.529977861792 93.80954612791538 1475.5392938666046 263.6706605665386 10376.977287147194 -3.029936253093183 z" vector-effect="non-scaling-stroke" fill="#000" fill-opacity="1" stroke="#FFF" stroke-width="0.3px" stroke-linejoin="round" stroke-linecap="round"><title>Franklin County</title></path>
<path id="18049" d="M -9592290.416215949 -4999022.888345079 l -8172.740495223552 86.16866698209196 -25166.657742170617 -121.5224658595398 162.8629753794521 -38603.35077095311 43358.706111934036 -210.29191793501377 179.11205881275237 13003.815363707952 6403.65170413442 -183.1370160812512 -27.830206658691168 6531.734708528966 8137.786397751421 -147.29905700404197 -102.63701579160988 6440.568384334445 -24710.247829923406 461.36108955647796 z" vector-effect="non-scaling-stroke" fill="#000" fill-opacity="1" stroke="#FFF" stroke-width="0.3px" stroke-linejoin="round" stroke-linecap="round"><title>Fulton County</title></path>
<path id="18051" d="M -9791105.681558874 -4619985.454180126 l 1046.3379414957017 -1741.765208484605 2149.748874368146 -547.1758918119594 127.73479496873915 890.0117619512603 1057.209111424163 1648.2234488185495 1209.4035882167518 747.8463674644008 872.4013250824064 -2648.8668425241485 712.0534207802266 -1167.1026544226333 880.5545523557812 -1042.5390137452632 807.1750063207 -457.2264427533373 437.559533752501 616.5581094166264 277.21152934618294 1368.0730908121914 483.7614553067833 1367.8913602186367 1049.055784035474 616.3574045225978 733.7954603005201 -685.6133893206716 301.6715114992112 -1596.478850451298 168.50113157182932 -1797.6335828593 347.87343305908144 -1295.5995150897652 731.0777178704739 -1552.1629769438878 981.1117228548974 -3222.8720359131694 915.8855042122304 -1570.2166892979294 896.8611070178449 -686.3952823244035 2179.644341373816 -786.9843015214428 790.8683515489101 -464.59174813423306 1704.03631355986 -2142.9413709044456 1698.6006284896284 -3014.051295238547 317.3595993593335 -1597.1650075372308 3984.4568262863904 -925.9607232948765 2726.820209050551 -1521.0311527149752 2681.5241922847927 -2250.151722994633 1843.5478821974248 -457.03201232105494 1589.890188332647 237.19637203402817 2024.731949241832 -728.9624302173033 2749.468217426911 -2684.880102355033 1956.7879241015762 -2361.424190561287 3786.7470012698323 -2674.6229929327965 2364.452074954286 -972.7633997816592 6504.508006963879 -1968.9706959398463 -316.7753048185259 11677.900889332406 2055.068562936038 -13.932714632712305 -1.558695510029793 4182.318633640185 4137.7441369481385 -29.13345407322049 -25.322289848700166 8668.775144666433 4255.783317491412 -293.8883282383904 1589.6196193490177 -874.2748424280435 4361.196641378105 468.71592094097286 -111.98840961232781 19024.218810941093 -15.251326838508248 6280.71810907498 -16407.041002811864 77.76842924859375 -318.93056375719607 5061.82466099225 -24613.73405404575 -427.45988286007196 20.37191209383309 -4605.610214482062 -12408.668979654089 -133.58278083708137 49.95662524551153 -3774.857358005829 -20700.05096352473 -1565.7772112460807 945.7806708887219 -823.566561116837 983.8295653928071 -1252.7777018882334 818.0460761319846 -2274.0770267881453 z" vector-effect="non-scaling-stroke" fill="#000" fill-opacity="1" stroke="#FFF" stroke-width="0.3px" stroke-linejoin="round" stroke-linecap="round"><title>Gibson County</title></path>
<path id="18053" d="M -9511917.548386179 -4948670.9932835745 l 298.779843499884 27480.315184497274 -14947.642923790962 -55.385150731541216 -31579.994353326038 167.3185906484723 7.570059334859252 -4163.8368347538635 -180.22469712607563 -23231.904928705655 -109.09221042133868 -12628.142020912841 25184.80270785466 -208.35312575940043 21124.20308934711 -70.13599077332765 z" vector-effect="non-scaling-stroke" fill="#000" fill-opacity="1" stroke="#FFF" stroke-width="0.3px" stroke-linejoin="round" stroke-linecap="round"><title>Grant County</title></path>
<path id="18055" d="M -9711593.833172774 -4746305.4715932505 l 20723.1190753337 529.4061393244192 18226.557634547353 24.840998177416623 23137.081342628226 311.14035855513066 80.70507235266268 24857.573382822797 -64.12080593407154 12554.150369945914 -24643.567566253245 71.66582670994103 -14603.999767029658 250.18685964960605 -9343.03827957064 -544.8437782935798 -1172.420454122126 -151.52060986310244 -12344.103563664481 -78.2518059341237 z" vector-effect="non-scaling-stroke" fill="#000" fill-opacity="1" stroke="#FFF" stroke-width="0.3px" stroke-linejoin="round" stroke-linecap="round"><title>Greene County</title></path>
<path id="18057" d="M -9600163.271353813 -4855201.503557782 l -129.46445647068322 -2133.7932852525264 -162.85818863846362 -34910.91734505538 -42.07843356765807 -5109.109440155327 42393.67800285481 -452.7977364193648 -185.12531506828964 12580.297293101437 121.11404751241207 27476.548184993677 10.463809495791793 2130.5433497717604 -8370.33281401731 262.1663085836917 z" vector-effect="non-scaling-stroke" fill="#000" fill-opacity="1" stroke="#FFF" stroke-width="0.3px" stroke-linejoin="round" stroke-linecap="round"><title>Hamilton County</title></path>
<path id="18059" d="M -9566527.874701712 -4855358.566228214 l 8370.33281401731 -262.1663085836917 -10.463809495791793 -2130.5433497717604 31866.976000588387 -310.14482408296317 -67.57182146422565 10594.528807022609 -2209.4683627076447 -25.38316676300019 -26.494929365813732 12520.179313899018 -4071.5091512519866 54.613826300017536 29.276246838271618 12698.710746407509 -15011.651519672945 -87.67754585202783 -20442.816708829254 279.5196785070002 -213.39779406413436 -24990.47414533142 1733.3552345465869 -23.206403338350356 z" vector-effect="non-scaling-stroke" fill="#000" fill-opacity="1" stroke="#FFF" stroke-width="0.3px" stroke-linejoin="round" stroke-linecap="round"><title>Hancock County</title></path>
<path id="18061" d="M -9574440.338612106 -4579560.897860982 l -2595.4618356134742 982.8993460834026 -1097.9754480216652 2379.264970548451 -1057.2091114204377 1061.8724022842944 -2402.5006217695773 -1920.4138282714412 -4212.529590688646 -4531.794133888558 -2505.7756348159164 -669.245689840056 -5617.612035060301 -407.08826207369566 -2204.1041233092546 -1293.8184429397807 -1799.1578991003335 -1428.5634900759906 -4419.079316429794 -2377.925743604079 -1763.826947240159 -1543.0104897543788 -1024.5958018749952 -2043.8939901925623 -184.80778634175658 -2189.3479875270277 380.48654237762094 -5955.715602968819 -1005.5716048963368 -1651.9029546771199 -3253.6776759978384 -2587.823201270774 1502.4320977516472 -3855.4321509478614 3395.0429809186608 -3977.733591496013 237.5217295885086 -7526.772493354045 2453.006020218134 -2016.3215561201796 -4064.599773094058 -3216.053248493001 1359.8711071629077 -1385.5164261460304 762.4570260662585 -4911.527717823163 1360.2125240396708 -762.0619758609682 671.4123767782003 -3532.380542070605 -320.2757484894246 -4387.790379879065 24717.817555295303 679.8759043943137 28.71976070664823 12387.287090255879 2020.336881807074 -9.507884368300438 33.729583071544766 4124.886437161826 2104.6056250240654 -108.37513699848205 350.9900205153972 3834.858653180301 2069.7627357169986 15.881649809889495 3.562112390995026 2068.8004442323 2044.7157389689237 24.951957542449236 0.110874217003584 8280.521227934398 -290.3213433083147 1885.5741737820208 6351.09906883724 1248.2671207441017 -524.5277919024229 2917.623063562438 -1030.0314869526774 13540.253870903514 -1127.8708149138838 3651.4502054918557 -695.7468661218882 1249.0663589257747 -875.1189673934132 1138.520366255194 -1062.644496159628 993.5153474966064 -1288.2188193202019 848.5521909175441 z" vector-effect="non-scaling-stroke" fill="#000" fill-opacity="1" stroke="#FFF" stroke-width="0.3px" stroke-linejoin="round" stroke-linecap="round"><title>Harrison County</title></path>
<path id="18063" d="M -9650875.184315026 -4854733.086175183 l 24730.396769074723 -1.740388691425324 16346.371769009158 -174.474715301767 -204.49434986896813 8402.280809779651 200.37285704165697 33871.032520671375 -15540.085142472759 312.49405772890896 34.620361633598804 4229.707191236317 -21291.293533697724 -58.369937593117356 1669.6807084474713 -4175.530132723972 -5072.0484005417675 -37.72457234747708 52.98997005447745 -33949.58947655372 -909.0344052221626 -5.221100078895688 z" vector-effect="non-scaling-stroke" fill="#000" fill-opacity="1" stroke="#FFF" stroke-width="0.3px" stroke-linejoin="round" stroke-linecap="round"><title>Hendricks County</title></path>
<path id="18065" d="M -9526295.685359167 -4877157.718426212 l 22342.705790288746 110.8576372154057 17931.449441812932 -73.90286841522902 98.18323427811265 10543.085678590462 1339.2843484599143 -20.491069064475596 58.77546662092209 18981.009606092237 -2194.440454086289 26.979170754551888 -45.419131483882666 12340.955709162168 -8956.652349384502 135.59645214211196 -32882.76579747908 141.5323532409966 26.494929365813732 -12520.179313899018 2209.4683627076447 25.38316676300019 67.57182146422565 -10594.528807022609 z" vector-effect="non-scaling-stroke" fill="#000" fill-opacity="1" stroke="#FFF" stroke-width="0.3px" stroke-linejoin="round" stroke-linecap="round"><title>Henry County</title></path>
<path id="18067" d="M -9615305.273433104 -4928896.455359599 l 148.16757807694376 -18959.956376632676 23310.85106776096 -190.04854328092188 33527.19432967901 -428.02614310756326 180.22469712607563 23231.904928705655 -12606.038102870807 89.90680687129498 -29755.023177854717 486.8010496981442 -25.381066543981433 4245.712652743794 -4213.5528215020895 5.406161696650088 0.668028263375163 -2122.187792748213 -3171.3798600118607 -0.584753518924117 -19.703327232971787 -6332.895592171699 z" vector-effect="non-scaling-stroke" fill="#000" fill-opacity="1" stroke="#FFF" stroke-width="0.3px" stroke-linejoin="round" stroke-linecap="round"><title>Howard County</title></path>
<path id="18069" d="M -9499519.784931766 -5013115.35645408 l -43.08142217062414 12997.54684776254 151.72590560093522 38618.42678254098 -12708.006422471255 118.2652637111023 -21124.20308934711 70.13599077332765 -367.0185800306499 -28621.082819167525 -217.85057368688285 -22748.4405120546 z" vector-effect="non-scaling-stroke" fill="#000" fill-opacity="1" stroke="#FFF" stroke-width="0.3px" stroke-linejoin="round" stroke-linecap="round"><title>Huntington County</title></path>
<path id="18071" d="M -9582411.499251181 -4728873.813999636 l 39.62962740473449 2059.20353761781 24361.261560242623 -707.5652677156031 1686.8043178040534 -2786.5768995722756 3160.8269949276 -1461.8978533642367 2058.850753955543 313.4629788463935 409.2082217633724 37322.11155346036 -4066.590610867366 6649.906147922389 -1105.082388723269 2976.455912448466 -4513.296135192737 2103.2873295443133 -679.9863152671605 -1290.1236810320988 -1511.0696923434734 -2573.30827253405 -7074.945303004235 -1334.9749159961939 -1231.824081769213 1340.9031847324222 -2354.1169090438634 -1215.4448827225715 -3448.0091285966337 578.5425923671573 -3524.596492981538 -2931.67393615935 -1565.7675260156393 414.63429405353963 -1892.6310506556183 -1259.80530794058 -850.6143817324191 2110.468154668808 -4008.9254448432475 836.5437261303887 -3150.9491712264717 -1744.407929402776 -2902.6548318807036 -219.74395995866507 -5554.722254214808 1451.6546069998294 -1432.387299735099 -270.7853762675077 -1943.1991190724075 354.37442089244723 -900.1477894634008 47.18489279597998 -193.81704058498144 -30033.13285998907 -140.93014138005674 -2239.7634397149086 -4075.5168755613267 21.48317511100322 -73.35898783430457 -8301.73458578065 16182.509589880705 37.69944263994694 z" vector-effect="non-scaling-stroke" fill="#000" fill-opacity="1" stroke="#FFF" stroke-width="0.3px" stroke-linejoin="round" stroke-linecap="round"><title>Jackson County</title></path>
<path id="18073" d="M -9695769.535010092 -4973557.861627356 l -18785.4923525434 3.81829594168812 -191.13356194086373 -25738.85413177777 -836.8998204674572 6.039531753398478 96.40199468284845 -44731.83248975221 6055.637641143054 -3693.765713256784 1019.1603771355003 -2578.4912660866976 2405.2184900399297 -2006.6381603972986 2803.8234375417233 -1344.0175509117544 2201.386414611712 -644.9536837898195 2636.228175526485 -217.00343701057136 2898.9450727403164 253.17020291555673 2699.6425989884883 873.9890328664333 2060.968762656674 1657.3484330149367 1725.778238615021 2169.19055658672 4257.825575588271 4300.789486497641 1965.8471274543554 1065.8665221771225 2378.0408799853176 -18.064556526951492 2803.823437537998 -873.1604276131839 562.5765420533717 -380.98971411958337 -12.802298039197922 7662.94519471284 -62.23026701807976 38360.08459751867 -6319.605599900708 31.670060193166137 103.637555366382 10937.34620670788 -12600.471794364974 43.25804190989584 z" vector-effect="non-scaling-stroke" fill="#000" fill-opacity="1" stroke="#FFF" stroke-width="0.3px" stroke-linejoin="round" stroke-linecap="round"><title>Jasper County</title></path>
<path id="18075" d="M -9441040.14134792 -4917346.484576885 l -42.38260204717517 5146.129281510599 -23019.98036501929 1253.161462427117 -22405.7122881189 335.74667086824775 -126.90344026871026 -10584.051827989519 1451.828353650868 -2.04570101108402 40.40986571460962 -14650.98446209263 634.2981245797127 -11.707991312257946 -42.634474413469434 -12856.768247100525 14771.980767311528 -146.1022237064317 29002.69881955348 -590.6494131255895 -12.467178873717785 1562.4035223135725 -95.12158553861082 11909.02152523771 -100.55717050284147 11898.17220275011 z" vector-effect="non-scaling-stroke" fill="#000" fill-opacity="1" stroke="#FFF" stroke-width="0.3px" stroke-linejoin="round" stroke-linecap="round"><title>Jay County</title></path>
<path id="18077" d="M -9485036.872622289 -4679257.030289458 l -3818.4542360734195 -4423.794081426226 -1943.1991486214101 -944.2234353413805 -7077.049628259614 -344.9594941427931 -1410.915339866653 135.3168349787593 -11414.198860857636 1094.6369549082592 -2068.216101055965 1181.0342745371163 -57.07309148646891 2696.0076957037672 905.0144344028085 2980.8017214247957 807.1751064360142 1994.8398933876306 953.9340983852744 8768.49519465305 1222.129799157381 2907.5852765217423 -6514.010242398828 645.0560912825167 -1962.2278849799186 -874.163439466618 -27.27327524498105 -2073.3389705149457 -8165.393631467596 97.72204234730452 -105.19613955914974 -10335.8364792848 -4147.763002444059 -4.848269395530224 -53.43313294276595 -4160.663581066765 -4128.838800329715 -15.121515597216785 -50.98399282619357 -3116.1939111296088 -4132.289704537019 -980.9545591492206 -55.65896616131067 -11233.7629411472 2.623132482171059 -1236.3112456304953 8150.859202152118 -26.875036573037505 -44.97262900136411 -4219.188477457501 4152.660837396979 -27.87416465394199 -4.6750846542418 -4104.2595824943855 4041.564208224416 3.575542484410107 -85.60435445979238 -4227.663294447586 10386.439221214503 -115.59569246135652 26909.364036588 -113.45014072116464 4.674194099381566 21470.158768317662 z" vector-effect="non-scaling-stroke" fill="#000" fill-opacity="1" stroke="#FFF" stroke-width="0.3px" stroke-linejoin="round" stroke-linecap="round"><title>Jefferson County</title></path>
<path id="18079" d="M -9551104.125996847 -4731457.187503824 l -89.1663555316627 -8693.558167458512 12576.315687511116 -248.83674186095595 13115.102022942156 -269.36500044725835 14359.097443882376 -9060.86737583857 -513.8521053344011 27974.22360636387 -25.270526288077235 12538.004244456068 -10386.439221214503 115.59569246135652 85.60435445979238 4227.663294447586 -4041.564208224416 -3.575542484410107 4.6750846542418 4104.2595824943855 -4152.660837396979 27.87416465394199 44.97262900136411 4219.188477457501 -8150.859202152118 26.875036573037505 -2.623132482171059 1236.3112456304953 -2744.103816974908 -651.1920300349593 -782.7388806957752 -1179.7687479378656 -7558.717657417059 3012.59177022893 -1328.563056975603 -53.3119552442804 z" vector-effect="non-scaling-stroke" fill="#000" fill-opacity="1" stroke="#FFF" stroke-width="0.3px" stroke-linejoin="round" stroke-linecap="round"><title>Jennings County</title></path>
<path id="18081" d="M -9568132.99500356 -4771552.125296471 l -14871.72303106822 458.90364055894315 -18488.26953476295 362.29993329104036 47.42343891039491 -21193.599441011436 152.84299669228494 -20920.90840937011 33151.49115957506 -679.3808347573504 144.93652985617518 20731.622335845605 -265.720515076071 16029.990978731774 z" vector-effect="non-scaling-stroke" fill="#000" fill-opacity="1" stroke="#FFF" stroke-width="0.3px" stroke-linejoin="round" stroke-linecap="round"><title>Johnson County</title></path>
<path id="18083" d="M -9747099.695380036 -4676057.071666433 l 1326.2673133797944 -275.03868036624044 565.2943287286907 -1034.0721980547532 3503.1939123235643 -10468.485316112638 -1448.5665233898908 -5599.217534542084 -2405.218564424664 -5515.066968313418 -379.71321959234774 -1619.0816936315969 -856.8679930958897 -3654.5979618132114 364.17988761514425 -1672.3732064468786 1562.7126062363386 -2252.377982793376 33268.12159130722 553.5924730803818 2.671556461602449 -887.3331167297438 12344.103563664481 78.2518059341237 1172.420454122126 151.52060986310244 -3101.5199902337044 3621.6657986594364 -3062.010733084753 2507.5625746631995 -3881.8686364665627 2972.2021953267977 -2414.277693392709 1116.5324932765216 -1884.3142972812057 1645.498942181468 -760.973081594333 3168.1441898308694 -942.1571486424655 7460.13630625885 -1657.8342134747654 4209.892730589025 430.31215923652053 3192.5526325991377 2228.5640246700495 3794.9354877648875 584.3186162225902 1670.716861128807 108.71044022962451 3688.5316578876227 -1105.222808983177 9690.548656680621 -3777.687797917053 3614.2170437108725 -1521.946163188666 949.6786329224706 -1558.18297659792 -46.32374322414398 -1639.7158067729324 -1181.3262782180682 -3157.1323682814837 -2959.7051499644294 -1227.522054238245 -104.27136792521924 -525.4337944351137 2218.4338096790016 -887.8019285257906 1702.5969150261953 -1694.0710268821567 -92.65104976668954 -3442.4972738809884 -1187.1657802704722 -3043.892326377332 -457.52990973740816 -6504.508006963879 1968.9706959398463 -2364.452074954286 972.7633997816592 -3786.7470012698323 2674.6229929327965 -1956.7879241015762 2361.424190561287 -2749.468217426911 2684.880102355033 -2024.731949241832 728.9624302173033 -1589.890188332647 -237.19637203402817 -1843.5478821974248 457.03201232105494 -2681.5241922847927 2250.151722994633 -2726.820209050551 1521.0311527149752 -3984.4568262863904 925.9607232948765 250.652371680364 -1261.6255170265213 -1690.4473011009395 -1683.0343883465976 0 -1058.5444583324715 3399.918999403715 -1082.9520854325965 3508.6294972896576 -1832.9487597625703 945.7808711081743 -815.9065213222057 1198.5325184054673 -1427.1244715396315 828.9170458316803 -666.7540688645095 1013.7248321808875 -65.98315886966884 671.287084184587 628.5597165664658 587.0362681243569 121.54032671824098 766.4086697269231 -1566.243552451022 -16.306554658338428 -1670.6921301996335 -1875.255087442696 -2991.254521572031 -385.92202723398805 -2227.506317831576 543.5520889945328 -2141.0870249848813 1136.0241422969848 -1616.5394973466173 1440.4132961127907 -1192.579126345925 1440.4133962336928 -886.7012825161219 -690.3112811632454 0 432.12404890730977 -309.494186591357 391.3575120791793 -399.92213574051857 350.5911754835397 -559.9173523979262 342.43794821575284 -761.6759713320062 -543.5522892177105 -2848.9625069238245 921.3209890648723 -2839.3170279329643 1698.6006284859031 -2401.509267331101 1793.7223141379654 -1552.5805931119248 1144.1773695759475 -205.403913827613 z" vector-effect="non-scaling-stroke" fill="#000" fill-opacity="1" stroke="#FFF" stroke-width="0.3px" stroke-linejoin="round" stroke-linecap="round"><title>Knox County</title></path>
<path id="18085" d="M -9580058.628897792 -5076836.455914593 l 26937.86138095334 133.7864456223324 18216.538769053295 -289.100766364485 175.77214013040066 21074.167992900126 -87.72109457477927 17214.10907916259 -3769.054094767198 16.860698434524238 266.3862056322396 19453.079257907346 -13964.469515059143 446.63967549428344 -15132.210305565968 120.14269774407148 -8137.786397751421 147.29905700404197 27.830206658691168 -6531.734708528966 -6403.65170413442 183.1370160812512 -179.11205881275237 -13003.815363707952 2616.118573900312 -41.408515811897814 -461.75157802179456 -24667.187684393488 z" vector-effect="non-scaling-stroke" fill="#000" fill-opacity="1" stroke="#FFF" stroke-width="0.3px" stroke-linejoin="round" stroke-linecap="round"><title>Kosciusko County</title></path>
<path id="18087" d="M -9534489.251962194 -5124956.105393395 l 8637.044492077082 10.929955341853201 8637.044592190534 0 8634.326649542898 7.286629974842072 8639.76223450154 3.643447110429406 5259.685198571533 0 3377.3591933939606 0 7243.0479489620775 3.057214570231736 281.2172351013869 23898.441308823414 16.474616719409823 10730.064810712822 -31763.56008232385 159.09879537671804 -19517.52921267599 303.7697961917147 z" vector-effect="non-scaling-stroke" fill="#000" fill-opacity="1" stroke="#FFF" stroke-width="0.3px" stroke-linejoin="round" stroke-linecap="round"><title>LaGrange County</title></path>
<path id="18089" d="M -9709572.863461168 -5106212.862220653 l -11.518428841605783 1424.082541730255 295.2180650662631 16270.2399656903 -141.85728427395225 40806.08357878495 -6055.637641143054 3693.765713256784 -8706.334221458063 5307.4934073528275 -1680.4822218548506 595.7747245337814 -9653.353989357129 323.4438482578844 -7572.912704208866 244.15997599810362 63.09916329756379 -16591.919169453904 8.369141593575478 -2279.155444175005 70.4459893964231 -19205.797686436214 22.29788859002292 -6304.557966531254 53.79939986951649 -15228.3891799571 84.25061583705246 -21574.01284252014 0 -1518.1227913117036 3043.5358200259507 4406.159062626772 3883.0630717035383 2896.0799228549004 3571.7626566719264 -1404.0507410708815 -376.8373445123434 3158.8252039728686 786.4431537631899 1929.8812866313383 1703.9601664859802 1140.201992901042 2441.2506231386214 920.8335046721622 10453.14025209099 1797.563257554546 z" vector-effect="non-scaling-stroke" fill="#000" fill-opacity="1" stroke="#FFF" stroke-width="0.3px" stroke-linejoin="round" stroke-linecap="round"><title>Lake County</title></path>
<path id="18091" d="M -9667328.351123711 -5125030.358098046 l 3283.4320806749165 1.38548004347831 8637.044492077082 3.643481764011085 8639.762134389952 7.286690950393677 8637.044592196122 7.286685415543616 6299.8595115840435 5.31490427441895 -274.38552763685584 16246.588577681221 4354.260435225442 166.11116796080023 130.13181682117283 11717.925659287721 -1309.116989089176 1418.8069167248905 -607.1367254275829 6179.693979407661 -2375.111653689295 55.158999669365585 26.381828766316175 12818.859039210714 -13141.48474226892 13.807660217396915 -3151.6767554208636 2787.733461206779 -3305.2976527195424 1742.0354555994272 -821.0922301318496 3225.2823647698388 -1726.6766216941178 2927.579819407314 -1923.155077662319 5896.965212690644 -2335.148513091728 1973.4008223349229 -2439.788834441453 3280.600356873125 -3369.8627347406 1857.7044301712885 -6276.427167389542 1285.4659459162503 -2713.2314040213823 1030.3934338651597 -1168.637232447043 1656.8352891206741 -978.3939620498568 2072.150928972289 -1774.6979228444397 1196.9206376653165 -105.30734773166478 -16030.477075737901 182.78771707229316 -15394.219759414904 -57.21710507199168 -14852.967873112299 -279.85630929656327 -12092.688323253766 -35.28705406934023 -13830.974969809875 -32.651564029976726 -1737.2942968085408 z" vector-effect="non-scaling-stroke" fill="#000" fill-opacity="1" stroke="#FFF" stroke-width="0.3px" stroke-linejoin="round" stroke-linecap="round"><title>LaPorte County</title></path>
<path id="18093" d="M -9649490.490853846 -4708028.360344425 l 64.12080593407154 -12554.150369945914 40609.672288673 219.70863995607942 4075.5168755613267 -21.48317511100322 140.93014138005674 2239.7634397149086 193.81704058498144 30033.13285998907 -1378.7676017265767 3982.309912514873 -2150.739093674347 964.0975974099711 95.84563629701734 6073.348417128436 -16848.867839125916 -79.01021490246058 -24829.24858822301 298.63214931078255 z" vector-effect="non-scaling-stroke" fill="#000" fill-opacity="1" stroke="#FFF" stroke-width="0.3px" stroke-linejoin="round" stroke-linecap="round"><title>Lawrence County</title></path>
<path id="18095" d="M -9526566.41146647 -4921246.063249809 l 340.07937458343804 24507.66181750968 -69.3532672803849 19580.683006087318 -5.344337435439229 19096.2977155596 -31866.976000588387 310.14482408296317 -121.11404751241207 -27476.548184993677 185.12531506828964 -12580.297293101437 170.31948882900178 -11655.157617229037 -212.73087899014354 -11615.46567726694 z" vector-effect="non-scaling-stroke" fill="#000" fill-opacity="1" stroke="#FFF" stroke-width="0.3px" stroke-linejoin="round" stroke-linecap="round"><title>Madison County</title></path>
<path id="18097" d="M -9609798.415776942 -4854909.301279176 l 9635.144423129037 -292.2022786056623 33635.39665210061 -157.06267043203115 -53.43380086123943 8317.95662841294 -1733.3552345465869 23.206403338350356 213.39779406413436 24990.47414533142 -39.96403115801513 8502.118643371388 -33151.49115957506 679.3808347573504 -8509.816135980189 209.44162427727133 -200.37285704165697 -33871.032520671375 z" vector-effect="non-scaling-stroke" fill="#000" fill-opacity="1" stroke="#FFF" stroke-width="0.3px" stroke-linejoin="round" stroke-linecap="round"><title>Marion County</title></path>
<path id="18099" d="M -9580093.916619776 -5083266.848986014 l 35.28772198408842 6430.393071420491 104.75052764080465 14255.974881543778 461.75157802179456 24667.187684393488 -2616.118573900312 41.408515811897814 -43358.706111934036 210.29191793501377 47.75862189382315 -38753.02693266515 -54.657313380390406 -6459.530449047685 20171.642206622288 -335.9411755995825 z" vector-effect="non-scaling-stroke" fill="#000" fill-opacity="1" stroke="#FFF" stroke-width="0.3px" stroke-linejoin="round" stroke-linecap="round"><title>Marshall County</title></path>
<path id="18101" d="M -9676768.06342244 -4652134.7608254645 l 550.8832598011941 -43390.38257237151 2063.305982619524 -38.575663017109036 19.815759919583797 -12392.97545686178 24643.567566253245 -71.66582670994103 -27.720334319397807 31156.349256064743 82.70893451012671 22818.475167815574 -19967.42884335108 -182.798142073676 -3587.4445275161415 1487.9352711411193 -1893.3735006358474 463.12639602366835 z" vector-effect="non-scaling-stroke" fill="#000" fill-opacity="1" stroke="#FFF" stroke-width="0.3px" stroke-linejoin="round" stroke-linecap="round"><title>Martin County</title></path>
<path id="18103" d="M -9591846.254787266 -4948046.460279512 l -183.34197682142258 -16596.748707639985 114.77084028348327 -9694.790438057855 -358.0033710747957 -244.6346629327163 146.0523964408785 -17092.413740609773 -163.63931751064956 -7347.840516326018 62.00595824420452 -12741.953014723025 24710.247829923406 -461.36108955647796 576.9666943959892 31889.14730331395 197.03416286595166 19339.4821761176 8316.008902510628 -105.05547360610217 109.09221042133868 12628.142020912841 z" vector-effect="non-scaling-stroke" fill="#000" fill-opacity="1" stroke="#FFF" stroke-width="0.3px" stroke-linejoin="round" stroke-linecap="round"><title>Miami County</title></path>
<path id="18105" d="M -9615932.345809536 -4770454.563426603 l 162.19171884655952 12677.299405035563 839.6825850922614 78.63342624437064 365.683080105111 23179.38553897012 -106.4217671547085 5916.917625959963 5781.153445573524 -62.2092298027128 73.35898783430457 8301.73458578065 -40609.672288673 -219.70863995607942 -80.70507235266268 -24857.573382822797 -290.3290243521333 -24476.7559610093 2173.702634833753 961.9942193888128 1557.181231053546 -3706.870580015704 2368.323947738856 1052.6123597184196 91.05400013178587 1012.7617031661794 18379.510392257944 352.0650282157585 z" vector-effect="non-scaling-stroke" fill="#000" fill-opacity="1" stroke="#FFF" stroke-width="0.3px" stroke-linejoin="round" stroke-linecap="round"><title>Monroe County</title></path>
<path id="18107" d="M -9650932.177667921 -4891937.184749551 l 56.993352895602584 37204.09857436828 17.476603457704186 8412.864256125875 -34992.381133548915 -269.7627405375242 -9135.431562921032 -81.22010217886418 59.66824894398451 -12443.722415157594 -125.12232841923833 -12771.21930528339 -48.31076657027006 -25319.323797874153 44170.558824336156 64.87355691194534 z" vector-effect="non-scaling-stroke" fill="#000" fill-opacity="1" stroke="#FFF" stroke-width="0.3px" stroke-linejoin="round" stroke-linecap="round"><title>Montgomery County</title></path>
<path id="18109" d="M -9601492.987569392 -4770730.921722621 l -14439.358240144327 276.3582960180938 -9295.286129064858 210.28609887324274 -18379.510392257944 -352.0650282157585 -91.05400013178587 -1012.7617031661794 -151.06466783210635 -17643.385069211945 -6088.061059053987 24.946792530827224 -77.25528133288026 -7479.056586224586 3742.449070425704 -4339.530156238005 -605.2436261661351 -3965.1600826578215 278.07631064392626 -3140.867476440035 21291.293533697724 58.369937593117356 -34.620361633598804 -4229.707191236317 15540.085142472759 -312.49405772890896 8509.816135980189 -209.44162427727133 -152.84299669228494 20920.90840937011 z" vector-effect="non-scaling-stroke" fill="#000" fill-opacity="1" stroke="#FFF" stroke-width="0.3px" stroke-linejoin="round" stroke-linecap="round"><title>Morgan County</title></path>
<path id="18111" d="M -9743336.970935445 -4973618.128635027 l 58.447533905506134 -16358.412207250483 78.81513099186122 -21343.076219993643 9.71732240356505 -2546.4309213617817 71.81535078585148 -18839.98891988769 18.433710118755698 -4841.781561527401 7572.912704208866 -244.15997599810362 9653.353989357129 -323.4438482578844 1680.4822218548506 -595.7747245337814 8706.334221458063 -5307.4934073528275 -96.40199468284845 44731.83248975221 836.8998204674572 -6.039531753398478 191.13356194086373 25738.85413177777 z" vector-effect="non-scaling-stroke" fill="#000" fill-opacity="1" stroke="#FFF" stroke-width="0.3px" stroke-linejoin="round" stroke-linecap="round"><title>Newton County</title></path>
<path id="18113" d="M -9483539.985685594 -5051391.645865096 l -12878.214035211131 9.477483162656426 -25536.572298765182 -296.04792935959995 99.29731974378228 -4308.281562207267 -12872.98190782778 68.89563106466085 -175.77214013040066 -21074.167992900126 -140.15034834854305 -12848.043199957348 19517.52921267599 -303.7697961917147 31763.56008232385 -159.09879537671804 z" vector-effect="non-scaling-stroke" fill="#000" fill-opacity="1" stroke="#FFF" stroke-width="0.3px" stroke-linejoin="round" stroke-linecap="round"><title>Noble County</title></path>
<path id="18115" d="M -9447754.627153799 -4725897.542018929 l 3109.118557708338 3288.1163346013054 1619.7855976112187 2168.1737916767597 592.4718530811369 2450.876751015894 -1125.1530724838376 2474.7494099447504 -3957.060000743717 3945.068214289844 -1000.1361200567335 1400.8466210197657 1361.5983653534204 1777.8535061283037 -30621.66077181883 578.5077425632626 498.7114300727844 -3774.823846795596 370.02598739787936 -2644.385569633916 1530.1971638463438 1554.198473266326 2371.438444454223 241.7175830360502 1525.298994930461 -2045.8542887521908 2864.13873334229 -254.34333139006048 1719.8528482317924 -3175.5519390515983 4048.89648912102 -644.7666929131374 1009.7153149228543 -2670.1645204899833 4853.194615596905 251.23175383266062 4713.488320695236 -3364.0959692066535 1743.9616443105042 507.73634233977646 z" vector-effect="non-scaling-stroke" fill="#000" fill-opacity="1" stroke="#FFF" stroke-width="0.3px" stroke-linejoin="round" stroke-linecap="round"><title>Ohio County</title></path>
<path id="18117" d="M -9607837.091360956 -4639336.276359012 l -21.596203852444887 4092.2175401449203 -15900.092041738331 -339.7494534775615 -25572.639925098047 240.60751314554363 -104.08272201009095 -18710.33516134508 -82.70893451012671 -22818.475167815574 24829.24858822301 -298.63214931078255 16848.867839125916 79.01021490246058 101.07798632234335 2352.730424305424 z" vector-effect="non-scaling-stroke" fill="#000" fill-opacity="1" stroke="#FFF" stroke-width="0.3px" stroke-linejoin="round" stroke-linecap="round"><title>Orange County</title></path>
<path id="18119" d="M -9690870.71409744 -4745776.065453926 l 99.85503039509058 -25091.60475490056 12379.837120218202 64.63001913297921 6.791268173605204 -12578.148113106377 270.3952657710761 -6320.510311221704 28176.513355005533 474.15627822931856 6088.061059053987 -24.946792530827224 151.06466783210635 17643.385069211945 -2368.323947738856 -1052.6123597184196 -1557.181231053546 3706.870580015704 -2173.702634833753 -961.9942193888128 290.3290243521333 24476.7559610093 -23137.081342628226 -311.14035855513066 z" vector-effect="non-scaling-stroke" fill="#000" fill-opacity="1" stroke="#FFF" stroke-width="0.3px" stroke-linejoin="round" stroke-linecap="round"><title>Owen County</title></path>
<path id="18121" d="M -9686254.292253897 -4808675.468069601 l -20694.73260517977 -339.11189643200487 -21917.72029455006 -106.04267162643373 307.2161659896374 -1498.2054082350805 131.3584486078471 -1517.2142449934036 -321.601719006896 -11280.47336514946 471.07857432216406 -6525.776400735602 1644.2454084474593 -5050.3939863732085 403.13454917632043 -1715.4766592336819 -670.3810480739921 -1544.7711973497644 -978.3939620498568 -1515.5235898736864 -548.0818028151989 -1610.1278788717464 244.59849051572382 -1793.269344962202 1440.413333017379 -2548.8859544154257 457.4897692911327 -1593.385295085609 -280.8353039212525 -3293.8052141815424 -1156.6766746733338 -1747.1374280676246 -1982.3372869025916 -1896.2080861376598 -1766.54465370439 -2073.2286234637722 -1004.4252767600119 -2658.345600971952 26499.842040797696 -185.80755987297744 11050.793942274526 53.73129870276898 -59.66824894398451 12443.722415157594 9135.431562921032 81.22010217886418 z" vector-effect="non-scaling-stroke" fill="#000" fill-opacity="1" stroke="#FFF" stroke-width="0.3px" stroke-linejoin="round" stroke-linecap="round"><title>Parke County</title></path>
<path id="18123" d="M -9627327.96790327 -4586612.917972409 l -2386.1941672284156 196.72144584357738 -1492.0508026331663 1269.9700637683272 -540.8343465700746 3008.6550052883103 353.3089179135859 9279.231672597118 -328.8491359744221 2147.0741829397157 -1405.0824443753809 1361.0769626973197 -5989.945250056684 1305.7767924033105 -663.1336566898972 2108.1900339294225 16.306554665789008 2779.2628387222067 -902.2965918667614 2854.255572091788 -2320.967948583886 1514.606133805588 -2674.276766380295 -48.188536398112774 -1614.350012652576 -1373.4695038609207 842.5058580748737 -2454.797158114612 1282.7831342443824 -2837.683422359638 -2128.006934966892 -588.985392943956 -4927.300653785467 978.1796099375933 -3891.833681985736 -740.5148050794378 -3410.790169322863 -2810.9928225707263 -2418.8071764353663 -3804.320280443877 -921.3210891745985 -3729.863964194432 -1777.4155592601746 -2551.6967970579863 2331.5169004369527 -2930.350302224979 1354.2766348328441 2220.101456956938 1426.3661352023482 306.30937412474304 -1115.0719771832228 -5828.011661378667 1575.682641742751 -2855.903213245794 -1151.28053400293 -2542.2911113966256 1353.4369519203901 -2258.518948099576 -4460.347909955308 -3479.246133875102 1329.6293863840401 -753.7122986549512 -1127.131662901491 -2608.971611746587 1105.4024322591722 -2170.309944088571 -831.2000399008393 -1906.5056872479618 1271.2686961796135 -1350.3710558377206 -20.715889321640134 -3535.2315119495615 -72.91370987333357 -6231.255430238321 12596.909904625267 147.56050586048514 -57.77470440417528 -2129.8303371500224 12175.565854616463 -459.64899897761643 -165.6439588982612 8193.633351244032 12378.612383173779 239.4204206559807 -152.0506107583642 9842.42551348731 -584.3187259212136 1323.3210710119456 423.97082162834704 1506.2374271610752 1986.6833277530968 2238.22266743239 627.8027048297226 1564.3957851156592 -445.7127610221505 3034.874129476957 -1902.4327119160444 1756.9887397633865 z" vector-effect="non-scaling-stroke" fill="#000" fill-opacity="1" stroke="#FFF" stroke-width="0.3px" stroke-linejoin="round" stroke-linecap="round"><title>Perry County</title></path>
<path id="18125" d="M -9713539.369829495 -4659512.430909512 l 3696.1549677439034 -1205.0227537509054 1988.4951358344406 11.587433133274317 1508.3573581594974 961.7111985748634 634.1442346647382 1888.3987092114985 1123.3412156868726 1534.7913136268035 1748.4262469988316 920.7643385203555 1875.2550939284265 -156.35037098359317 3877.339034790173 -943.9437069352716 1816.37027214095 214.27706720586866 2460.824589520693 1488.4095483012497 -135.94440430030227 17457.54956571106 17.698463201522827 25005.147532753646 -13973.041115848348 219.0914503969252 -11108.012271860614 -163.1150503521785 -15.3618670925498 -1968.6275004670024 -2046.1628923527896 1.984407434239984 111.98840961232781 -19024.218810941093 -4361.196641378105 -468.71592094097286 -1589.6196193490177 874.2748424280435 -4255.783317491412 293.8883282383904 25.322289848700166 -8668.775144666433 -4137.7441369481385 29.13345407322049 1.558695510029793 -4182.318633640185 -2055.068562936038 13.932714632712305 316.7753048185259 -11677.900889332406 3043.892326377332 457.52990973740816 3442.4972738809884 1187.1657802704722 1694.0710268821567 92.65104976668954 887.8019285257906 -1702.5969150261953 525.4337944351137 -2218.4338096790016 1227.522054238245 104.27136792521924 3157.1323682814837 2959.7051499644294 1639.7158067729324 1181.3262782180682 1558.18297659792 46.32374322414398 1521.946163188666 -949.6786329224706 z" vector-effect="non-scaling-stroke" fill="#000" fill-opacity="1" stroke="#FFF" stroke-width="0.3px" stroke-linejoin="round" stroke-linecap="round"><title>Pike County</title></path>
<path id="18127" d="M -9677339.28764187 -5119394.042994983 l 32.651564029976726 1737.2942968085408 35.28705406934023 13830.974969809875 279.85630929656327 12092.688323253766 57.21710507199168 14852.967873112299 -182.78771707229316 15394.219759414904 105.30734773166478 16030.477075737901 -562.5765420533717 380.98971411958337 -2803.823437537998 873.1604276131839 -2378.0408799853176 18.064556526951492 -1965.8471274543554 -1065.8665221771225 -4257.825575588271 -4300.789486497641 -1725.778238615021 -2169.19055658672 -2060.968762656674 -1657.3484330149367 -2699.6425989884883 -873.9890328664333 -2898.9450727403164 -253.17020291555673 -2636.228175526485 217.00343701057136 -2201.386414611712 644.9536837898195 -2803.8234375417233 1344.0175509117544 -2405.2184900399297 2006.6381603972986 -1019.1603771355003 2578.4912660866976 141.85728427395225 -40806.08357878495 -295.2180650662631 -16270.2399656903 11.518428841605783 -1424.082541730255 2325.2366147227585 -243.60913898516446 19153.16764059104 -6885.931696929969 z" vector-effect="non-scaling-stroke" fill="#000" fill-opacity="1" stroke="#FFF" stroke-width="0.3px" stroke-linejoin="round" stroke-linecap="round"><title>Porter County</title></path>
<path id="18129" d="M -9763107.307684496 -4566101.554586085 l -1723.0605105329305 916.1857496127486 -1038.1847142223269 1033.1954435836524 -1043.6201990749687 96.42642808426172 -4419.079416537657 1515.1531965667382 -2204.1041233092546 313.33368056919426 -2494.9045650027692 -495.82896643225104 -2051.909646516666 -1112.2582259448245 -1766.5445895586163 -1622.1133632101119 -1636.0922523792833 -2066.753430303186 -2125.289092430845 -1822.529051602818 -2386.1941672228277 -420.3640862526372 -1940.481306085363 1168.0185396810994 -799.0217790491879 2959.0813502445817 440.27737628668547 1894.1960931969807 3359.1525626964867 8344.125437050126 -5147.439391989261 5799.76527127903 -554.4231588039547 935.3651535846293 -2060.0628737863153 -543.3267480302602 -3978.802140360698 -2541.633628915064 -1940.4814061988145 -767.0830197772011 -2538.388744134456 357.7497753398493 -2603.6149627789855 -1080.166710224934 -2149.749074589461 -237.37653768714517 -769.1263120416552 -299.30839634872973 -396.79309704340994 -660.5735127534717 -5.435484848916531 -664.0563871888444 413.099651703611 -299.35525927785784 3225.9822828751057 230.53880700934678 1706.753855759278 -120.43010901845992 1182.2261639684439 -633.1407450735569 -701.18235097453 -1565.8129391288385 -5465.417358035222 -5249.774997701868 -1848.077563084662 -2372.735896907747 4965.349448183551 943.6493158619851 1116.9996449891478 17.218963311985135 1763.8269472457469 -933.3153209853917 356.02666033245623 -1016.0658722110093 -328.84913597255945 -1357.2060515601188 -271.77604449912906 -1950.0022973930463 -679.4402113500983 -2887.779400684871 32.613109320402145 -1709.6133172390983 1059.926853844896 -744.597001908347 543.5520889926702 -961.8506167754531 -89.68610069155693 -2158.4552621822804 -421.252979086712 -2310.665979573503 -445.7127610296011 -1407.3445908250287 1356.1626802757382 -1669.745190044865 -1559.9947637021542 -3474.899227635935 1375.1870774719864 -645.4176338706166 1875.255087442696 -334.8046649536118 1964.9411881361157 -887.1120792767033 1867.1018601730466 -1232.4182166336104 1551.8415364325047 -1408.658004800789 -1625.2210824638605 -1498.635845189914 -3508.6294972896576 369.49955585505813 -1780.1334017924964 -890.9652961576357 2571.001853460446 -1885.7845320785418 2405.2184643093497 -2369.8066551657394 1092.540063276887 -770.4771122829989 2437.8315736372024 -580.4870034651831 1032.7491292580962 -628.8977932753041 1146.89521211572 -2536.7127226460725 -1380.6226624380797 -1614.282124819234 -2122.571350004524 -1220.3850259501487 -1100.6931904423982 -1351.9265498341992 -364.1798876095563 -923.2842782204971 -788.1508093532175 -895.6994907995686 -771.8440544661134 -1089.4688924271613 -285.36495684087276 -1528.9092668294907 366.8978302553296 -1702.1296159764752 744.6665301062167 -972.2772045405582 20700.05096352473 1565.7772112460807 -49.95662524551153 3774.857358005829 12408.668979654089 133.58278083708137 -20.37191209383309 4605.610214482062 -60.00153949856758 6190.684101140127 -873.3010713085532 -13.726235882379115 z" vector-effect="non-scaling-stroke" fill="#000" fill-opacity="1" stroke="#FFF" stroke-width="0.3px" stroke-linejoin="round" stroke-linecap="round"><title>Posey County</title></path>
<path id="18131" d="M -9625629.814453343 -4999058.242143956 l -12581.659134384245 -152.60294194798917 -12824.224082190543 -192.23055633716285 -26051.090873882174 -29.315262372605503 62.23026701807976 -38360.08459751867 12890.904457168654 50.134331403300166 38666.70234164968 80.74825582001358 z" vector-effect="non-scaling-stroke" fill="#000" fill-opacity="1" stroke="#FFF" stroke-width="0.3px" stroke-linejoin="round" stroke-linecap="round"><title>Pulaski County</title></path>
<path id="18133" d="M -9678113.835412882 -4789701.698614022 l -8344.395261341706 -59.41586311068386 203.9384203273803 -18914.353592468426 404.2034087795764 -37914.51658999361 34992.381133548915 269.7627405375242 909.0344052221626 5.221100078895688 -52.98997005447745 33949.58947655372 5072.0484005417675 37.72457234747708 -1669.6807084474713 4175.530132723972 -278.07631064392626 3140.867476440035 605.2436261661351 3965.1600826578215 -3742.449070425704 4339.530156238005 77.25528133288026 7479.056586224586 z" vector-effect="non-scaling-stroke" fill="#000" fill-opacity="1" stroke="#FFF" stroke-width="0.3px" stroke-linejoin="round" stroke-linecap="round"><title>Putnam County</title></path>
<path id="18135" d="M -9441082.523949968 -4912200.355295374 l -95.12158553861082 11869.495318084955 -95.1216856520623 11858.800540863536 -95.1215855460614 11841.047330176458 -77.73743065819144 9947.691680066288 -43138.436306964606 85.15137829724699 -1339.2843484599143 20.491069064475596 -98.18323427811265 -10543.085678590462 -486.68647604063153 -33490.68350466713 22405.7122881189 -335.74667086824775 z" vector-effect="non-scaling-stroke" fill="#000" fill-opacity="1" stroke="#FFF" stroke-width="0.3px" stroke-linejoin="round" stroke-linecap="round"><title>Randolph County</title></path>
<path id="18137" d="M -9469455.865529047 -4765774.874731211 l -2969.559070358053 20237.167512463406 -4481.500728271902 31305.148154629394 -370.02598739787936 2644.385569633916 -7460.29619942233 150.96812674589455 -35.288278579711914 2106.1682884078473 -26909.364036588 113.45014072116464 25.270526288077235 -12538.004244456068 513.8521053344011 -27974.22360636387 15975.90139420703 -10444.249439112842 8502.91443887353 -5630.592266767286 4439.976554453373 -331.33441563975066 12796.282889993861 -47.90907257515937 z" vector-effect="non-scaling-stroke" fill="#000" fill-opacity="1" stroke="#FFF" stroke-width="0.3px" stroke-linejoin="round" stroke-linecap="round"><title>Ripley County</title></path>
<path id="18139" d="M -9495284.093557853 -4786807.933165274 l -30630.550972944126 134.65153879113495 -6306.247261006385 -58.676660573109984 -425.9059227500111 -35486.81289673038 -29.276246838271618 -12698.710746407509 4071.5091512519866 -54.613826300017536 32882.76579747908 -141.5323532409966 64.2306782733649 15170.132301666774 329.5040229521692 22720.112473599613 z" vector-effect="non-scaling-stroke" fill="#000" fill-opacity="1" stroke="#FFF" stroke-width="0.3px" stroke-linejoin="round" stroke-linecap="round"><title>Rush County</title></path>
<path id="18141" d="M -9631831.208312789 -5125005.440855598 l 2337.18488038145 1.971775588579476 8634.326749648899 0 8637.044492077082 3.643337852321565 8637.044391967356 7.286805762909353 4941.1968318056315 0 3695.8477603904903 0 8637.044492080808 7.286666002124548 5870.021127730608 2.476219598203898 347.58096693083644 41715.927064780146 -25208.29134305194 56.75751379225403 -20171.642206622288 335.9411755995825 54.657313380390406 6459.530449047685 -6466.992271749303 12.323331918567419 -26.381828766316175 -12818.859039210714 2375.111653689295 -55.158999669365585 607.1367254275829 -6179.693979407661 1309.116989089176 -1418.8069167248905 -130.13181682117283 -11717.925659287721 -4354.260435225442 -166.11116796080023 z" vector-effect="non-scaling-stroke" fill="#000" fill-opacity="1" stroke="#FFF" stroke-width="0.3px" stroke-linejoin="round" stroke-linecap="round"><title>St. Joseph County</title></path>
<path id="18143" d="M -9525606.63062422 -4665416.013730605 l -20035.05341405794 48.14748879801482 -4856.756727982312 145.01389398798347 -3102.9187071379274 4184.157854342833 33.061777446419 1997.2648487705737 -2974.90107008256 21.923756876029074 -75.91989272646606 -2135.237872429192 -4126.389660209417 121.60222678538412 -314.3649061638862 -22662.408708007075 679.9863152671605 1290.1236810320988 4513.296135192737 -2103.2873295443133 1105.082388723269 -2976.455912448466 4066.590610867366 -6649.906147922389 1328.563056975603 53.3119552442804 7558.717657417059 -3012.59177022893 782.7388806957752 1179.7687479378656 2744.103816974908 651.1920300349593 55.65896616131067 11233.7629411472 4132.289704537019 980.9545591492206 50.98399282619357 3116.1939111296088 4128.838800329715 15.121515597216785 53.43313294276595 4160.663581066765 4147.763002444059 4.848269395530224 z" vector-effect="non-scaling-stroke" fill="#000" fill-opacity="1" stroke="#FFF" stroke-width="0.3px" stroke-linejoin="round" stroke-linecap="round"><title>Scott County</title></path>
<path id="18145" d="M -9538360.16070718 -4771937.91879313 l -11566.425600990653 -28.21619605924934 -18206.408695390448 414.0096927182749 -129.01895587332547 -5211.071796711534 265.720515076071 -16029.990978731774 -144.93652985617518 -20731.622335845605 39.96403115801513 -8502.118643371388 20442.816708829254 -279.5196785070002 15011.651519672945 87.67754585202783 425.9059227500111 35486.81289673038 -136.70111393369734 14773.88587829005 z" vector-effect="non-scaling-stroke" fill="#000" fill-opacity="1" stroke="#FFF" stroke-width="0.3px" stroke-linejoin="round" stroke-linecap="round"><title>Shelby County</title></path>
<path id="18147" d="M -9683436.143792234 -4569932.501022391 l -1983.9655853379518 868.2880651410669 -1546.405951462686 1054.2521187076345 -1318.1141862180084 1553.6207022648305 -1301.8074313346297 2304.166743389331 -3054.7634088769555 8874.359836604446 -1807.311026263982 3299.2746665943414 -3497.758527589962 2352.5453993482515 -1222.992400450632 -791.0011551119387 -945.7808711174875 -856.4127001911402 -1701.318370912224 -2204.984890027903 -573.4475559964776 -1493.187999962829 -252.75174741260707 -1600.0822585802525 -508.22123724222183 -1276.8014432908967 -1326.2674134951085 -526.5972814634442 -2046.4740615505725 -151.44463725946844 -1570.8658335134387 -426.81045302562416 -1171.3549940437078 -581.729522950016 -3951.624515896663 -2692.214255463332 -1353.0565736014396 -540.3021089686081 -14.241026468575 -6205.0404765727 3152.149974577129 -3735.4988598646596 1651.2239368800074 -2810.9194181021303 4260.091938376427 -3402.091778148897 622.2833006232977 -1626.9774625077844 2507.1861069407314 -1262.8319427929819 -838.6037879064679 -1964.365553134121 2138.380181161687 -3984.3352896962315 2410.904877481982 2135.6387412343174 3918.7640043906868 -714.5349823646247 -911.5949761494994 -1501.9823275627568 787.7635085508227 -3654.6078897491097 1842.248183079064 -2227.055869304575 181.75233449041843 -2397.110288484022 6124.128685392439 -41.1745796976611 -7.902681974694133 -12067.101293962449 8349.51562396437 95.05442061461508 16811.687240520492 -310.94594334065914 20.715889321640134 3535.2315119495615 -1271.2686961796135 1350.3710558377206 831.2000399008393 1906.5056872479618 -1105.4024322591722 2170.309944088571 1127.131662901491 2608.971611746587 -1329.6293863840401 753.7122986549512 4460.347909955308 3479.246133875102 -1353.4369519203901 2258.518948099576 1151.28053400293 2542.2911113966256 -1575.682641742751 2855.903213245794 1115.0719771832228 5828.011661378667 -1426.3661352023482 -306.30937412474304 -1354.2766348328441 -2220.101456956938 -2331.5169004369527 2930.350302224979 -4011.415349798277 1586.263817179948 -4272.320324476808 3275.211320417933 -2546.542071523145 2509.1459472049028 -1502.9217723347247 751.2471608538181 z" vector-effect="non-scaling-stroke" fill="#000" fill-opacity="1" stroke="#FFF" stroke-width="0.3px" stroke-linejoin="round" stroke-linecap="round"><title>Spencer County</title></path>
<path id="18149" d="M -9677024.558276782 -5037792.475502132 l 12.802298039197922 -7662.94519471284 1774.6979228444397 -1196.9206376653165 978.3939620498568 -2072.150928972289 1168.637232447043 -1656.8352891206741 2713.2314040213823 -1030.3934338651597 6276.427167389542 -1285.4659459162503 3369.8627347406 -1857.7044301712885 2439.788834441453 -3280.600356873125 2335.148513091728 -1973.4008223349229 1923.155077662319 -5896.965212690644 1726.6766216941178 -2927.579819407314 821.0922301318496 -3225.2823647698388 3305.2976527195424 -1742.0354555994272 3151.6767554208636 -2787.733461206779 13141.48474226892 -13.807660217396915 6466.992271749303 -12.323331918567419 -47.75862189382315 38753.02693266515 -38666.70234164968 -80.74825582001358 z" vector-effect="non-scaling-stroke" fill="#000" fill-opacity="1" stroke="#FFF" stroke-width="0.3px" stroke-linejoin="round" stroke-linecap="round"><title>Starke County</title></path>
<path id="18151" d="M -9440569.122613767 -5115670.025696219 l 0 11835.702519404702 0 11961.773949076422 -21323.67878834717 1426.6756488457322 -21870.488399019465 143.19155203085393 -16.474616719409823 -10730.064810712822 -281.2172351013869 -23898.441308823414 1388.5610582698137 0.586096946150064 8639.76233461313 7.286753084510565 8637.044391967356 7.286613340489566 8637.044492077082 3.643304586410522 8639.76223450154 3.643437409773469 5429.284265611321 50.41262456960976 2120.400262147188 19.688516185618937 z" vector-effect="non-scaling-stroke" fill="#000" fill-opacity="1" stroke="#FFF" stroke-width="0.3px" stroke-linejoin="round" stroke-linecap="round"><title>Steuben County</title></path>
<path id="18153" d="M -9744868.413632255 -4708147.383208507 l 350.5911754909903 -1578.7084324937314 0 -5862.928872469813 -671.2868839688599 -1817.566929182969 -3307.5151562877 -2894.7981203263626 -1271.9121645502746 -1598.086939305067 -701.1824510786682 -2423.8381517082453 -929.4742163363844 -5332.386248442344 -1130.588557338342 -2562.2237694133073 -3389.0480297096074 -3473.338955176994 -1649.680864393711 -1026.1238983264193 -826.1994035188109 -714.4956203056499 -630.5204472560436 -1197.9444361114874 391.35761219263077 -5494.148264983669 1745.0219586603343 -1710.9346500840038 5440.738067379221 -5336.320501206443 92.4038431160152 -6174.775191235356 -775.6326939743012 -1485.2871599299833 40576.91655003093 -7.084502677433193 -39.40787897631526 12532.902258635499 -3.787311712279916 37824.34774109442 -2.671556461602449 887.3331167297438 z" vector-effect="non-scaling-stroke" fill="#000" fill-opacity="1" stroke="#FFF" stroke-width="0.3px" stroke-linejoin="round" stroke-linecap="round"><title>Sullivan County</title></path>
<path id="18155" d="M -9439737.232239392 -4701793.118659713 l -1559.994863813743 1919.4633234115317 -799.0216789375991 2787.811360833235 1513.7929422594607 4736.48077065777 -1470.308763127774 812.4443062664941 -9120.805947393179 -976.3356680059806 -3842.9140180014074 533.5092542357743 -7079.7674707993865 2959.9458077410236 -2608.3465301431715 1627.024383476004 -13635.710967062041 8501.405639119446 -4519.636486927047 995.9240830885246 -2176.9265989512205 -1361.584890568629 269.01102331094444 -8603.84802155476 -4.674194099381566 -21470.158768317662 35.288278579711914 -2106.1682884078473 7460.29619942233 -150.96812674589455 -498.7114300727844 3774.823846795596 30621.66077181883 -578.5077425632626 1782.8512443285435 862.6183766331524 4837.614553095773 289.85120918322355 2426.9606039337814 893.9470387334004 -152.19467702321708 2105.353364632465 z" vector-effect="non-scaling-stroke" fill="#000" fill-opacity="1" stroke="#FFF" stroke-width="0.3px" stroke-linejoin="round" stroke-linecap="round"><title>Switzerland County</title></path>
<path id="18157" d="M -9695223.070190143 -4935317.892702864 l -174.99334896728396 -12761.397488121875 20478.104876099154 204.41168950963765 15584.39007716626 -85.86546417232603 8453.59968181327 30.47873365599662 75.1393204536289 18993.73595487885 -121.89684616960585 31795.932553936727 -44170.558824336156 -64.87355691194534 44.443113658577204 -26646.350772511214 z" vector-effect="non-scaling-stroke" fill="#000" fill-opacity="1" stroke="#FFF" stroke-width="0.3px" stroke-linejoin="round" stroke-linecap="round"><title>Tippecanoe County</title></path>
<path id="18159" d="M -9600497.67243249 -4897355.323628245 l -27.6056752409786 -23064.837356355973 25.381066543981433 -4245.712652743794 29755.023177854717 -486.8010496981442 12606.038102870807 -89.90680687129498 -7.570059334859252 4163.8368347538635 212.73087899014354 11615.46567726694 -170.31948882900178 11655.157617229037 z" vector-effect="non-scaling-stroke" fill="#000" fill-opacity="1" stroke="#FFF" stroke-width="0.3px" stroke-linejoin="round" stroke-linecap="round"><title>Tipton County</title></path>
<path id="18161" d="M -9441957.449087221 -4803302.604991987 l -54.84794486872852 6583.195354073308 -12308.573311686516 -348.6848816461861 -10376.977287147194 3.029936253093183 -1475.5392938666046 -263.6706605665386 180.2278140708804 -27222.26158247702 20.482786305248737 -2105.8127657268196 7209.938775951043 337.82896679919213 16991.179941063747 21.665692849084735 -71.93932722136378 8653.598014731891 -92.40394322760403 11753.575810491107 z" vector-effect="non-scaling-stroke" fill="#000" fill-opacity="1" stroke="#FFF" stroke-width="0.3px" stroke-linejoin="round" stroke-linecap="round"><title>Union County</title></path>
<path id="18163" d="M -9735029.175449524 -4571148.6999808615 l -1941.424635792151 502.9079207042232 -4595.733875498176 2542.8131605302915 -4332.111058274284 906.0282589215785 -3870.091642482206 -3700.400102273561 -347.87343305908144 -1395.7449729600921 122.29921001009643 -2361.132095674053 -603.343023005873 -1061.8230896713212 -834.3525306824595 -382.69655820634216 -1000.1361200548708 182.7308070184663 -847.9413429200649 889.4736883984879 -358.74440275877714 1764.931099823676 451.1482458729297 3153.3771001892164 2038.320834275335 4096.235645910725 551.7053162679076 2910.1357354996726 -1144.1772694606334 3862.849562277086 -2861.8023952655494 3162.886908343993 -3334.692680642009 1314.431639291346 -2538.38884424977 -1686.0811752900481 -260.90507479570806 -2144.1267074095085 1157.7662819214165 -4589.160192348994 -206.5499259661883 -1931.9783242754638 -1456.7198507729918 -1164.1817991482094 -1864.3840176388621 175.66888512577862 747.5623579565436 -30974.41395933274 873.3010713085532 13.726235882379115 60.00153949856758 -6190.684101140127 24613.73405404575 427.45988286007196 -512.6264777425677 6159.297370628454 -117.10854959487915 12303.63645462785 2568.251081539318 -30.8105361526832 z" vector-effect="non-scaling-stroke" fill="#000" fill-opacity="1" stroke="#FFF" stroke-width="0.3px" stroke-linejoin="round" stroke-linecap="round"><title>Vanderburgh County</title></path>
<path id="18165" d="M -9743959.099918664 -4809040.085749767 l 44.620384791865945 -11855.859211657196 76.0973885692656 -20976.00975302793 27.47404709085822 -7078.231852289289 54.05872621200979 -13942.060636941344 81.53287341445684 -21068.451462751254 13.127197362482548 -3512.8640628466383 4274.234018556774 -44.24892371986061 63.681508438661695 3404.8788159498945 7720.852460211143 228.31130586005747 -27.177610056474805 3056.1524419523776 -1694.0710268840194 9251.548702664673 -344.24972738698125 5678.055914519355 552.6114044915885 5225.671150886454 639.8201316855848 1690.3424054067582 1004.4252767600119 2658.345600971952 1766.54465370439 2073.2286234637722 1982.3372869025916 1896.2080861376598 1156.6766746733338 1747.1374280676246 280.8353039212525 3293.8052141815424 -457.4897692911327 1593.385295085609 -1440.413333017379 2548.8859544154257 -244.59849051572382 1793.269344962202 548.0818028151989 1610.1278788717464 978.3939620498568 1515.5235898736864 670.3810480739921 1544.7711973497644 -403.13454917632043 1715.4766592336819 -1644.2454084474593 5050.3939863732085 -471.07857432216406 6525.776400735602 321.601719006896 11280.47336514946 -131.3584486078471 1517.2142449934036 -307.2161659896374 1498.2054082350805 z" vector-effect="non-scaling-stroke" fill="#000" fill-opacity="1" stroke="#FFF" stroke-width="0.3px" stroke-linejoin="round" stroke-linecap="round"><title>Vermillion County</title></path>
<path id="18167" d="M -9752131.341843829 -4758831.289349209 l -1757.3205653149635 -3365.966886769049 -521.8100494779646 -2496.743607260287 1152.330596851185 -2918.9197016609833 2005.707624843344 -2146.7012318111956 6734.611780162901 -3212.1236541494727 423.9707215093076 -632.7055043783039 16.306554665789008 -5471.047163276002 45.06982487998903 -11168.829871375114 39.18079095892608 -9719.571288989857 34.1946460865438 -9076.18749088794 15092.354765037075 -80.53688789252192 21917.72029455006 106.04267162643373 -121.56166318245232 12620.985109774396 -4228.6920496132225 -115.1583596477285 -150.05911886319518 5137.670411017723 -105.08760306239128 32532.708953002468 z" vector-effect="non-scaling-stroke" fill="#000" fill-opacity="1" stroke="#FFF" stroke-width="0.3px" stroke-linejoin="round" stroke-linecap="round"><title>Vigo County</title></path>
<path id="18169" d="M -9567518.162427781 -5012226.202449358 l 102.63701579160988 -6440.568384334445 15132.210305565968 -120.14269774407148 13964.469515059143 -446.63967549428344 110.98497572168708 6615.147528858855 4379.641501771286 -62.099222442135215 217.85057368688285 22748.4405120546 367.0185800306499 28621.082819167525 -25184.80270785466 208.35312575940043 -8316.008902510628 105.05547360610217 -197.03416286595166 -19339.4821761176 z" vector-effect="non-scaling-stroke" fill="#000" fill-opacity="1" stroke="#FFF" stroke-width="0.3px" stroke-linejoin="round" stroke-linecap="round"><title>Wabash County</title></path>
<path id="18171" d="M -9743662.189301223 -4887473.56272928 l 65.68783351778984 -17596.970711741596 78.81503088027239 -21155.092065352015 35.773562125861645 -9299.564625557512 48258.8426845558 207.29742906801403 168.22804971784353 11466.071650263853 -2146.254443163052 2612.9648818653077 -3696.154967745766 3073.679447753355 -13856.05152737163 6999.890788166784 -5276.985952725634 5807.680655024946 -869.6835218202323 1745.199022241868 -819.8579033873975 2546.0123860975727 -2006.613542534411 1774.105286737904 -9190.561800928786 4614.741038466804 -1829.9590771663934 2253.2034419616684 543.5522011388093 2744.6566028641537 1807.3110687881708 2951.285984514281 792.6802933253348 2843.779985714704 -7720.852460211143 -228.31130586005747 -63.681508438661695 -3404.8788159498945 z" vector-effect="non-scaling-stroke" fill="#000" fill-opacity="1" stroke="#FFF" stroke-width="0.3px" stroke-linejoin="round" stroke-linecap="round"><title>Warren County</title></path>
<path id="18173" d="M -9718625.393459747 -4564386.959034875 l -2128.3267528377473 -850.072170984 -1997.5542974546552 -1367.4267027275637 -2016.5787947680801 -1760.3535901056603 -2505.775534702465 -1633.1585641819984 -2628.0749449320138 -1247.4378124177456 -2386.194067116827 -613.435987021774 -2741.2775979656726 710.1438814522699 154.9828420393169 -13244.64325784985 -2568.251081539318 30.8105361526832 117.10854959487915 -12303.63645462785 512.6264777425677 -6159.297370628454 318.93056375719607 -5061.82466099225 16407.041002811864 -77.76842924859375 15.251326838508248 -6280.71810907498 2046.1628923527896 -1.984407434239984 15.3618670925498 1968.6275004670024 11108.012271860614 163.1150503521785 13973.041115848348 -219.0914503969252 -8.34929576702416 4077.102341728285 6191.365991786122 30.457225067541003 7.902681974694133 12067.101293962449 -6124.128685392439 41.1745796976611 -181.75233449041843 2397.110288484022 -1842.248183079064 2227.055869304575 -787.7635085508227 3654.6078897491097 911.5949761494994 1501.9823275627568 -3918.7640043906868 714.5349823646247 -2410.904877481982 -2135.6387412343174 -2138.380181161687 3984.3352896962315 838.6037879064679 1964.365553134121 -2507.1861069407314 1262.8319427929819 -622.2833006232977 1626.9774625077844 -4260.091938376427 3402.091778148897 -1651.2239368800074 2810.9194181021303 -3152.149974577129 3735.4988598646596 14.241026468575 6205.0404765727 z" vector-effect="non-scaling-stroke" fill="#000" fill-opacity="1" stroke="#FFF" stroke-width="0.3px" stroke-linejoin="round" stroke-linecap="round"><title>Warrick County</title></path>
<path id="18175" d="M -9556543.198766034 -4659019.50588783 l 34.84266665764153 2011.2463302388787 -2070.764499818906 6.689593582414091 -9.351171184331179 4079.6390637578443 -2052.9532699733973 38.84169341251254 -7.569948015734553 2088.847626581788 -8051.291153404862 216.21473629307002 100.96688946895301 1848.028598336503 -4132.401135351509 59.163287670351565 -149.39120192080736 9977.49580955226 -4247.728016495705 64.22001145686954 -24717.817555295303 -679.8759043943137 -5990.434199588373 -27.281317670829594 98.07458646222949 -35402.62623945065 -101.07798632234335 -2352.730424305424 -95.84563629701734 -6073.348417128436 2150.739093674347 -964.0975974099711 1378.7676017265767 -3982.309912514873 900.1477894634008 -47.18489279597998 1943.1991190724075 -354.37442089244723 1432.387299735099 270.7853762675077 5554.722254214808 -1451.6546069998294 2902.6548318807036 219.74395995866507 3150.9491712264717 1744.407929402776 4008.9254448432475 -836.5437261303887 850.6143817324191 -2110.468154668808 1892.6310506556183 1259.80530794058 1565.7675260156393 -414.63429405353963 3524.596492981538 2931.67393615935 3448.0091285966337 -578.5425923671573 2354.1169090438634 1215.4448827225715 1231.824081769213 -1340.9031847324222 7074.945303004235 1334.9749159961939 1511.0696923434734 2573.30827253405 314.3649061638862 22662.408708007075 4126.389660209417 -121.60222678538412 z" vector-effect="non-scaling-stroke" fill="#000" fill-opacity="1" stroke="#FFF" stroke-width="0.3px" stroke-linejoin="round" stroke-linecap="round"><title>Washington County</title></path>
<path id="18177" d="M -9441558.132178005 -4852994.808354699 l -92.4038431160152 11798.818608801812 -95.12158553861082 11781.320304756053 -25.900000739842653 3117.3545087119564 -16991.179941063747 -21.665692849084735 -7209.938775951043 -337.82896679919213 -20.482786305248737 2105.8127657268196 -16751.017895402387 -132.9942055689171 174.99468480795622 -10552.484881270677 -4195.96434196271 -12.74864868633449 45.419131483882666 -12340.955709162168 2194.440454086289 -26.979170754551888 -58.77546662092209 -18981.009606092237 43138.436306964606 -85.15137829724699 -14.666412448510528 1875.67320848722 z" vector-effect="non-scaling-stroke" fill="#000" fill-opacity="1" stroke="#FFF" stroke-width="0.3px" stroke-linejoin="round" stroke-linecap="round"><title>Wayne County</title></path>
<path id="18179" d="M -9470379.02348334 -5000227.115725425 l 493.92179766111076 38564.56656352524 105.86427914723754 12799.441546608694 -14771.980767311528 146.1022237064317 -27366.330212336034 46.0121080102399 -201.5984846279025 -12710.124276490882 12708.006422471255 -118.2652637111023 -151.72590560093522 -38618.42678254098 17604.949375318363 95.75518681388348 z" vector-effect="non-scaling-stroke" fill="#000" fill-opacity="1" stroke="#FFF" stroke-width="0.3px" stroke-linejoin="round" stroke-linecap="round"><title>Wells County</title></path>
<path id="18181" d="M -9695398.06353911 -4948079.290190985 l -371.4714709818363 -25478.571436370723 -133.69337260723114 -14862.25496844668 12600.471794364974 -43.25804190989584 -103.637555366382 -10937.34620670788 6319.605599900708 -31.670060193166137 26051.090873882174 29.315262372605503 12824.224082190543 192.23055633716285 129.57499672658741 13316.320759097114 -152.61991243995726 12450.81808530353 -21425.07519718446 -416.1526606315747 452.69667543284595 3475.2955762324855 462.1186721883714 3498.2641823822632 423.79464420489967 4016.293180475943 -1343.8668176140636 -40.03381563257426 329.2819405682385 14949.2958130287 -15584.39007716626 85.86546417232603 z" vector-effect="non-scaling-stroke" fill="#000" fill-opacity="1" stroke="#FFF" stroke-width="0.3px" stroke-linejoin="round" stroke-linecap="round"><title>White County</title></path>
<path id="18183" d="M -9496418.199720806 -5051382.168381933 l -229.43036108091474 12564.793299611658 -3195.9814674872905 20.706212293356657 323.82661760784686 25681.312415948138 -34308.434182105586 434.85155356582254 -4379.641501771286 62.099222442135215 -110.98497572168708 -6615.147528858855 -266.3862056322396 -19453.079257907346 3769.054094767198 -16.860698434524238 87.72109457477927 -17214.10907916259 12872.98190782778 -68.89563106466085 -99.29731974378228 4308.281562207267 z" vector-effect="non-scaling-stroke" fill="#000" fill-opacity="1" stroke="#FFF" stroke-width="0.3px" stroke-linejoin="round" stroke-linecap="round"><title>Whitley County</title></path>
</svg>
