<svg xmlns="http://www.w3.org/2000/svg" xmlns:xlink="http://www.w3.org/1999/xlink" height="1080" width="1920" viewBox="-10757688.254300026 -5388536.022630763 723318.5028795246 467288.5873370161">
<path id="19001" d="M -10490925.312527692 -5086919.382934026 l -4.902176415547728 51373.87764019985 -25488.371515844017 -63.87468801345676 -25601.917396452278 -76.73848029598594 57.44286099821329 -25197.969818881713 -61.89141049049795 -26105.01201747358 17021.969981271774 58.41778972093016 z" vector-effect="non-scaling-stroke" fill="#000" fill-opacity="1" stroke="#FFF" stroke-width="0.3px" stroke-linejoin="round" stroke-linecap="round"><title>Adair County</title></path>
<path id="19003" d="M -10542020.503616404 -5035686.118462136 l 25601.917396452278 76.73848029598594 -19.59523600898683 38080.94210671075 -25142.16812211089 -45.510274277068675 -25806.5225092154 -124.00933777820319 97.07371291704476 -38050.705886612646 z" vector-effect="non-scaling-stroke" fill="#000" fill-opacity="1" stroke="#FFF" stroke-width="0.3px" stroke-linejoin="round" stroke-linecap="round"><title>Adams County</title></path>
<path id="19005" d="M -10198073.739739198 -5388526.893454679 l 3951.2786248978227 -1.635709324851632 36203.29431756027 -7.493466759100556 -35.330851746723056 206.06950793601573 -160.34790429659188 1948.0674224980175 103.27491293102503 1913.9520083749667 337.00236324593425 1786.2481462499127 557.1410013381392 1669.8497279351577 1532.817239349708 3129.222564935684 554.423258908093 1526.7970454003662 358.74440276250243 1631.299729318358 494.632425006479 4207.878616154194 858.812512844801 1611.5798714552075 1301.8075314462185 1061.769637898542 9582.825263073668 3969.346246054396 2731.349857866764 3470.8538315184414 190.24337130226195 5698.505496729165 -2079.0872709825635 4710.021266866475 -5905.694634219632 8242.399616643786 -1255.6056098844856 5325.708640284836 600.6251804716885 10686.961025559343 271.4138202499598 1627.1842562733218 -30071.06940558739 -285.88787233643234 -19504.171096425503 -9.146292417310178 146.38846997730434 -39772.10897288378 -767.3250274006277 -13.7758609354496 z" vector-effect="non-scaling-stroke" fill="#000" fill-opacity="1" stroke="#FFF" stroke-width="0.3px" stroke-linejoin="round" stroke-linecap="round"><title>Allamakee County</title></path>
<path id="19007" d="M -10321658.831858175 -4952152.937926516 l -20815.331590764225 687.1313445204869 -20812.61364812404 687.0830554571003 -289.30290351063013 -46594.917030955665 10851.532165076584 25.62621928472072 40188.88539270684 -89.68624511640519 127.45535917207599 44979.376407964155 z" vector-effect="non-scaling-stroke" fill="#000" fill-opacity="1" stroke="#FFF" stroke-width="0.3px" stroke-linejoin="round" stroke-linecap="round"><title>Appanoose County</title></path>
<path id="19009" d="M -10546950.499886416 -5140387.855532229 l 80.14680510945618 38443.36845706031 4796.644202958792 370.09348060935736 48.75671245157719 14585.293296067975 -37864.31256520189 -80.56766345910728 2.450253311544657 -14498.029697448947 -5764.789591751993 -28.4342726720497 -89.05336624197662 -25764.07836570777 52.65512102097273 -13174.132532005198 z" vector-effect="non-scaling-stroke" fill="#000" fill-opacity="1" stroke="#FFF" stroke-width="0.3px" stroke-linejoin="round" stroke-linecap="round"><title>Audubon County</title></path>
<path id="19011" d="M -10222622.256061016 -5140304.722670441 l -7774.328371630982 41.25331822410226 -18208.523877035826 -214.04548704065382 -25978.73353882879 32.13470646645874 45.08550695888698 -15177.005718978122 -175.99355458840728 -29839.77190170437 61.561348197981715 -20189.405657033436 26051.091096527874 40.787750447168946 11097.77076738514 -3.460602357983589 14915.026424305514 -268.0433997120708 -388.9523045774549 26302.696350767277 -75.58693612739444 13064.147539828904 z" vector-effect="non-scaling-stroke" fill="#000" fill-opacity="1" stroke="#FFF" stroke-width="0.3px" stroke-linejoin="round" stroke-linecap="round"><title>Benton County</title></path>
<path id="19013" d="M -10248602.097451415 -5205610.775660059 l -26051.091096527874 -40.787750447168946 -26129.237490382046 79.61250993143767 -62.44811926782131 -25367.99998183828 -2255.5548545327038 -771.9036725498736 -3.783749492838979 -12897.478028762154 -9.68368250504136 -13075.551363873295 52631.06098249182 39.19933498091996 21.816393803805113 26108.442569011822 1923.2662858422846 270.43265479803085 z" vector-effect="non-scaling-stroke" fill="#000" fill-opacity="1" stroke="#FFF" stroke-width="0.3px" stroke-linejoin="round" stroke-linecap="round"><title>Black Hawk County</title></path>
<path id="19015" d="M -10456414.935215805 -5192501.660444661 l 25958.696030486375 113.62244361825287 -40.07724306918681 27843.781524843536 79.92527931369841 24010.524549181573 -13079.47989720665 -7.32530524674803 -38807.188206944615 26.15475338883698 -59.440266627818346 -51964.96785388235 z" vector-effect="non-scaling-stroke" fill="#000" fill-opacity="1" stroke="#FFF" stroke-width="0.3px" stroke-linejoin="round" stroke-linecap="round"><title>Boone County</title></path>
<path id="19017" d="M -10250482.835461631 -5257645.684612618 l -52631.06098249182 -39.19933498091996 28.389809738844633 -40162.51473800279 33843.89850362949 40.73362343478948 18769.128721352667 -21.123727776110172 z" vector-effect="non-scaling-stroke" fill="#000" fill-opacity="1" stroke="#FFF" stroke-width="0.3px" stroke-linejoin="round" stroke-linecap="round"><title>Bremer County</title></path>
<path id="19019" d="M -10222589.300259724 -5205882.2796621295 l -14915.026424305514 268.0433997120708 -11097.77076738514 3.460602357983589 64.34466942958534 -25656.03372874856 -1923.2662858422846 -270.43265479803085 -21.816393803805113 -26108.442569011822 17628.32691366598 33.748382727615535 8795.79568519257 -273.1556277545169 13218.51782989502 83.99181629624218 13189.797401266173 -134.6871837908402 -219.63424588926136 12860.08842745889 58.33018865995109 13541.026653851382 1236.202722620219 4.376479314640164 46.97459872439504 26047.599027876742 -14411.41715927422 -36.87317726388574 z" vector-effect="non-scaling-stroke" fill="#000" fill-opacity="1" stroke="#FFF" stroke-width="0.3px" stroke-linejoin="round" stroke-linecap="round"><title>Buchanan County</title></path>
<path id="19021" d="M -10565765.033379035 -5298236.196302012 l -3.341922432184219 26605.541385215707 -182.56518941372633 13217.96380974818 106.64284766092896 13129.45754934568 -14226.738235367462 -126.04706468526274 -27487.780444702134 68.61268102843314 -10983.3344421722 -158.9953977447003 57.10912516154349 -26115.234395943582 -49.86868284456432 -26651.0929290466 37245.15366873145 33.44068137835711 z" vector-effect="non-scaling-stroke" fill="#000" fill-opacity="1" stroke="#FFF" stroke-width="0.3px" stroke-linejoin="round" stroke-linecap="round"><title>Buena Vista County</title></path>
<path id="19023" d="M -10303113.896444123 -5257684.883947599 l 9.68368250504136 13075.551363873295 -37239.253401761875 -25.391755779273808 -15371.881614519283 -121.35353120416403 203.60780144110322 -53182.97017739527 23011.847360759974 91.95074020233005 29414.385981313884 -0.301377699710429 z" vector-effect="non-scaling-stroke" fill="#000" fill-opacity="1" stroke="#FFF" stroke-width="0.3px" stroke-linejoin="round" stroke-linecap="round"><title>Butler County</title></path>
<path id="19025" d="M -10534029.089213349 -5192396.613283403 l -25565.62713113241 -44.78898586984724 195.70300439745188 -39805.335422266275 -6436.379857067019 -32.902049181982875 -8.904446069151163 -13003.59381698072 26324.491988558322 166.70061319414526 6598.127077182755 -119.6954618068412 19573.18929203786 174.8601771881804 50.20397715270519 12908.056410636753 4998.466328443959 11.168748058378696 16.137875266373158 39780.8501377292 z" vector-effect="non-scaling-stroke" fill="#000" fill-opacity="1" stroke="#FFF" stroke-width="0.3px" stroke-linejoin="round" stroke-linecap="round"><title>Calhoun County</title></path>
<path id="19027" d="M -10546950.499886416 -5140387.855532229 l -38737.50242834352 -146.48729755543172 223.7566292770207 -52012.41654977389 25869.529341001064 105.35711028520018 25565.62713113241 44.78898586984724 -45.86652451567352 34871.488790625706 53.54322792030871 17082.26402994804 z" vector-effect="non-scaling-stroke" fill="#000" fill-opacity="1" stroke="#FFF" stroke-width="0.3px" stroke-linejoin="round" stroke-linecap="round"><title>Carroll County</title></path>
<path id="19029" d="M -10542024.952165896 -5086989.100298491 l 61.89141049049795 26105.01201747358 -57.44286099821329 25197.969818881713 -25269.294757965952 -62.544911661185324 -25410.225455945358 -107.64175920188427 137.7049930933863 -33951.244758533314 -12.021057847887278 -17339.562784194015 12685.075163971633 77.44471377599984 z" vector-effect="non-scaling-stroke" fill="#000" fill-opacity="1" stroke="#FFF" stroke-width="0.3px" stroke-linejoin="round" stroke-linecap="round"><title>Cass County</title></path>
<path id="19031" d="M -10118771.886431117 -5152904.6078252895 l 12.020389940589666 26109.40156374313 -161.4150427673012 25974.833855712786 -18049.003269370645 -34.08966436050832 -33894.99403858185 -151.2423588288948 40.52318895794451 -39034.75307260081 32.39508500881493 -13063.36505021993 25879.659080712125 95.04287418816239 z" vector-effect="non-scaling-stroke" fill="#000" fill-opacity="1" stroke="#FFF" stroke-width="0.3px" stroke-linejoin="round" stroke-linecap="round"><title>Cedar County</title></path>
<path id="19033" d="M -10355399.41404615 -5350947.38613628 l 21.59542461670935 6528.26706453599 108.3115268331021 27458.886630570516 -242.23288175836205 19021.184393069707 -30686.32214915566 8.356432180851698 -22018.098489085212 -122.50030020717531 93.39827728644013 -13911.698873741552 13.918275931850076 -38970.42514890898 34926.814398745075 66.33850062638521 z" vector-effect="non-scaling-stroke" fill="#000" fill-opacity="1" stroke="#FFF" stroke-width="0.3px" stroke-linejoin="round" stroke-linecap="round"><title>Cerro Gordo County</title></path>
<path id="19035" d="M -10618534.910323145 -5298265.990664094 l 49.86868284456432 26651.0929290466 -57.10912516154349 26115.234395943582 -39364.34236968681 69.21682261116803 -13171.541116097942 101.86354668159038 -97.84760601446033 -24237.500536062755 245.90597967617214 -15017.960494089872 -87.27325627021492 -13560.058210638352 26414.549456603825 -183.44586450140923 z" vector-effect="non-scaling-stroke" fill="#000" fill-opacity="1" stroke="#FFF" stroke-width="0.3px" stroke-linejoin="round" stroke-linecap="round"><title>Cherokee County</title></path>
<path id="19037" d="M -10250472.479409402 -5297827.788789943 l -18769.128721352667 21.123727776110172 -33843.89850362949 -40.73362343478948 -20.25613982602954 -46571.86854419485 28494.88720999472 -0.303036689758301 24204.301189547405 -20.159599131904542 -18.925983231514692 19858.47844079323 z" vector-effect="non-scaling-stroke" fill="#000" fill-opacity="1" stroke="#FFF" stroke-width="0.3px" stroke-linejoin="round" stroke-linecap="round"><title>Chickasaw County</title></path>
<path id="19039" d="M -10414778.68705082 -5036157.185401772 l 113.0974857006222 38806.5154419411 -26579.079552682117 -145.06693497486413 -12207.62586795725 384.3791001783684 -12226.884362503886 -53.16532795317471 68.35317297652364 -38325.97901753429 12728.267126394436 24.24857759475708 12317.83227516897 -803.9012334980071 z" vector-effect="non-scaling-stroke" fill="#000" fill-opacity="1" stroke="#FFF" stroke-width="0.3px" stroke-linejoin="round" stroke-linecap="round"><title>Clarke County</title></path>
<path id="19041" d="M -10565765.033379035 -5298236.196302012 l -15524.723275378346 3.646319296211004 -37245.15366873145 -33.44068137835711 -92.05999436788261 -13120.082116382197 112.6571057960391 -20011.44281060621 -37.06760932691395 -19501.441740743816 52804.94247238897 25.530084108933806 z" vector-effect="non-scaling-stroke" fill="#000" fill-opacity="1" stroke="#FFF" stroke-width="0.3px" stroke-linejoin="round" stroke-linecap="round"><title>Clay County</title></path>
<path id="19043" d="M -10147880.119927073 -5324112.307972677 l 590.1164350192994 3536.8969738967717 54.35524894297123 5592.441023085266 206.54982584901154 1851.0152322622016 516.3746647424996 1716.879411926493 141.3235071003437 6994.326584700495 548.9877740629017 3359.726734055206 1212.12133064121 2575.592902550474 3179.7804614305496 4003.0103442287073 1092.5398630537093 2136.2176279472187 668.5691415369511 2728.9031445207074 339.7202057912946 6433.5089427875355 404.9463243149221 2818.8292554672807 3788.5588691774756 7567.0186902638525 1391.4936321303248 1949.9999472526833 2503.0578923951834 1942.1974748419598 4889.252059612423 2241.351944002323 7844.616519967094 1545.062242471613 -145.45544498041272 6920.0687904255465 -14385.590926092118 -129.85203717183322 -11813.554981870577 110.17564295325428 -14554.017315663397 33.59637328796089 -21971.01023316756 283.3027730472386 -16273.012558532879 -33.74927126523107 96.51455511339009 -6627.830177295022 -170.9852907024324 -16735.837028901093 269.5079381149262 -43107.88770609535 19504.171096425503 9.146292417310178 z" vector-effect="non-scaling-stroke" fill="#000" fill-opacity="1" stroke="#FFF" stroke-width="0.3px" stroke-linejoin="round" stroke-linecap="round"><title>Clayton County</title></path>
<path id="19045" d="M -10045709.27263979 -5130385.99865394 l -3885.376061005518 3134.310491060838 -1565.4303486663848 1610.6093166163191 -1546.405951473862 2255.1266224458814 -442.1249199323356 897.0456592198461 -16847.763813925907 -5297.02192063164 -5195.453122554347 -1542.9298052052036 -2658.8761839047074 -218.7030891990289 -5381.166791275144 650.0195355741307 -10341.080626670271 3067.2536110160872 -5335.870774516836 1305.5622981283814 -2708.70180234313 291.4500721208751 -2689.75140414387 -804.6091426387429 -1944.0311105642468 -1606.192570336163 -12508.560490408912 -151.1286857780069 -12.020389940589666 -26109.40156374313 12.023506885394454 -13100.334592582658 14689.159177485853 136.38556978758425 21018.89485104941 -5.693490128032863 15073.43394838646 -123.94384755473584 31699.885667547584 65.04767057579011 1908.7378592602909 373.2901617363095 -415.8174942471087 1785.359456972219 -600.6251804698259 6337.520051664673 -1959.5057032890618 5248.212266745977 -162.8733015228063 1822.3725143326446 -660.6082594543695 7387.912889239378 -1576.3013183679432 6717.686683022417 -1410.5179292187095 3165.637836555019 -1956.7879608664662 1334.5057220868766 -1810.0288688000292 740.0964688565582 z" vector-effect="non-scaling-stroke" fill="#000" fill-opacity="1" stroke="#FFF" stroke-width="0.3px" stroke-linejoin="round" stroke-linecap="round"><title>Clinton County</title></path>
<path id="19047" d="M -10585464.245685482 -5192546.759379558 l -223.7566292770207 52012.41654977389 -25508.0750657171 -118.83530717156827 -11087.529596870765 144.99019165430218 -15102.933836087584 -37.369972120039165 -12856.729818772525 45.14023655932397 63.00894686207175 -24791.044883889146 153.95719347521663 -27407.55047423672 25762.32878268324 106.26056282501668 12901.70278173685 -34.71687828190625 z" vector-effect="non-scaling-stroke" fill="#000" fill-opacity="1" stroke="#FFF" stroke-width="0.3px" stroke-linejoin="round" stroke-linecap="round"><title>Crawford County</title></path>
<path id="19049" d="M -10482303.059253225 -5140514.902478876 l 38807.188206944615 -26.15475338883698 138.58953776583076 39227.03857349139 2633.373094972223 119.83495996147394 1.557470995932818 13050.368247278035 -11856.190569486469 1310.6472460152581 -25393.527309687808 0.889759217388928 -12953.243705971166 -87.10448772553355 14.584189128130674 -14472.644821877591 -4296.374633969739 -50.61461834795773 -39.40387147851288 -39036.83580271527 z" vector-effect="non-scaling-stroke" fill="#000" fill-opacity="1" stroke="#FFF" stroke-width="0.3px" stroke-linejoin="round" stroke-linecap="round"><title>Dallas County</title></path>
<path id="19051" d="M -10280030.886519175 -4953527.34500086 l -12991.24387751706 428.97348181623966 -7821.369870711118 258.25407940056175 -11564.706816215068 381.793264281936 -127.45535917207599 -44979.376407964155 29377.984619138762 -19.290710870176554 21831.08185587637 -103.53264682088047 99.29453676380217 31891.073558563367 -180.83148845285177 11809.366950185038 -7403.836184360087 132.28800966404378 z" vector-effect="non-scaling-stroke" fill="#000" fill-opacity="1" stroke="#FFF" stroke-width="0.3px" stroke-linejoin="round" stroke-linecap="round"><title>Davis County</title></path>
<path id="19053" d="M -10438919.190982865 -4950676.317730787 l -1595.4828478582203 47.887381481938064 -12640.30651448667 382.87883290462196 -12640.306414382532 382.86401459015906 116.10741133056581 -47301.83562077023 12226.884362503886 53.16532795317471 12207.62586795725 -384.3791001783684 26579.079552682117 145.06693497486413 39.40554126724601 19150.785768217407 -610.5947205424309 26809.229554983787 -12640.306514488533 382.908862920478 z" vector-effect="non-scaling-stroke" fill="#000" fill-opacity="1" stroke="#FFF" stroke-width="0.3px" stroke-linejoin="round" stroke-linecap="round"><title>Decatur County</title></path>
<path id="19055" d="M -10196528.524367496 -5205482.696636638 l -46.97459872439504 -26047.599027876742 -1236.202722620219 -4.376479314640164 -58.33018865995109 -13541.026653851382 219.63424588926136 -12860.08842745889 16273.012558532879 33.74927126523107 21971.01023316756 -283.3027730472386 14554.017315663397 -33.59637328796089 -155.84929086454213 26252.044284536503 364.79386001452804 225.62273526843637 90.16656115092337 26355.949474523775 -25957.916682735085 -102.94235776830465 z" vector-effect="non-scaling-stroke" fill="#000" fill-opacity="1" stroke="#FFF" stroke-width="0.3px" stroke-linejoin="round" stroke-linecap="round"><title>Delaware County</title></path>
<path id="19057" d="M -10124678.23184472 -5023472.3404597575 l 695.7467660084367 6811.432828817517 -418.535236665979 6943.465725787915 -1959.5057032853365 5301.497815237381 -11031.39188657701 12894.374010467902 -1964.941188134253 2888.6462672427297 -1127.8708149157465 2270.076851707883 -516.3746647424996 2330.58920038864 -375.05095742084086 6471.738801029511 -684.8757963161916 3214.533257470466 -1430.910344781354 3901.85122442618 -1745.6455059144646 -110.80971135012805 -1209.4036475345492 -292.83391222916543 -6092.314254432917 -2079.9707861617208 -1598.9493916854262 -902.6537616839632 -3043.892326377332 -2612.7857469692826 -1644.2454084455967 -1764.1749781426042 -7799.974086346105 -4390.889958863147 -1612.5381967127323 -628.2860676646233 -3424.37886717543 -879.6684438511729 -621.147562623024 -644.1327359415591 789.7434430364519 7.942747941240668 154.51434752345085 -38535.81270899996 22474.73081769049 157.26469972450286 z" vector-effect="non-scaling-stroke" fill="#000" fill-opacity="1" stroke="#FFF" stroke-width="0.3px" stroke-linejoin="round" stroke-linecap="round"><title>Des Moines County</title></path>
<path id="19059" d="M -10618521.210569315 -5388435.898866476 l 26170.664788704365 -2.708617016673088 26501.14121444337 -2.742821542546153 102.96621751226485 37567.923057317734 -52804.94247238897 -25.530084108933806 z" vector-effect="non-scaling-stroke" fill="#000" fill-opacity="1" stroke="#FFF" stroke-width="0.3px" stroke-linejoin="round" stroke-linecap="round"><title>Dickinson County</title></path>
<path id="19061" d="M -10118507.756171305 -5265119.329496416 l 11174.275014232844 2200.427966088988 5084.93091576919 1973.824363428168 2617.2037750147283 406.5415347600356 2619.92161754705 883.2435710346326 1744.8025500439107 2261.3168033389375 2166.0555291380733 6149.365344988182 907.7321768309921 1727.7478675488383 2802.011561350897 4306.915308560245 921.3209890648723 2316.8749962691218 -269.0584021806717 1718.841940660961 -1402.3646018393338 3222.9068900085986 -1440.4132961146533 3310.261743782088 1361.5981651246548 2137.414267868735 3394.4835145566612 1901.1554110199213 1706.7539558727294 1672.4054958382621 1676.8584888670594 2147.1704410668463 3560.267003806308 3092.8359210239723 8367.036140667275 5449.370607120916 -21269.789930596948 -163.37874726206064 -57.887248408049345 13176.490377842449 -25878.545774478465 -78.71070852037519 -25832.682366911322 -79.01250593177974 -90.16656115092337 -26355.949474523775 -364.79386001452804 -225.62273526843637 155.84929086454213 -26252.044284536503 11813.554981870577 -110.17564295325428 14385.590926092118 129.85203717183322 z" vector-effect="non-scaling-stroke" fill="#000" fill-opacity="1" stroke="#FFF" stroke-width="0.3px" stroke-linejoin="round" stroke-linecap="round"><title>Dubuque County</title></path>
<path id="19063" d="M -10559269.87519038 -5388442.031274888 l 3119.9059849027544 -0.322904863394797 36203.29441767186 -14.986938217654824 6617.566213734448 -0.68490778375417 62.116733118891716 13236.613428750075 -94.06719611398876 24354.103932423517 -52385.379311589524 -6.118583138100803 -102.96621751226485 -37567.923057317734 z" vector-effect="non-scaling-stroke" fill="#000" fill-opacity="1" stroke="#FFF" stroke-width="0.3px" stroke-linejoin="round" stroke-linecap="round"><title>Emmet County</title></path>
<path id="19065" d="M -10250482.835461631 -5257645.684612618 l 10.356052229180932 -40182.10417732503 46.9790515024215 -26753.46263488196 24080.514027105644 129.55459549929947 28889.62590170838 44.354691894724965 -269.5079381149262 43107.88770609535 170.9852907024324 16735.837028901093 -96.51455511339009 6627.830177295022 -13189.797401266173 134.6871837908402 -13218.51782989502 -83.99181629624218 -8795.79568519257 273.1556277545169 z" vector-effect="non-scaling-stroke" fill="#000" fill-opacity="1" stroke="#FFF" stroke-width="0.3px" stroke-linejoin="round" stroke-linecap="round"><title>Fayette County</title></path>
<path id="19067" d="M -10303085.506634384 -5297847.398685602 l -29414.385981313884 0.301377699710429 -23011.847360759974 -91.95074020233005 242.23288175836205 -19021.184393069707 -108.3115268331021 -27458.886630570516 37474.805332956836 49.49107398092747 14797.250514365733 -49.63923203293234 z" vector-effect="non-scaling-stroke" fill="#000" fill-opacity="1" stroke="#FFF" stroke-width="0.3px" stroke-linejoin="round" stroke-linecap="round"><title>Floyd County</title></path>
<path id="19069" d="M -10355511.739976458 -5297939.048048104 l -203.60780144110322 53182.97017739527 -14045.955382322893 8.310643710196018 -38552.934489969164 -140.85243676416576 98.07703549228609 -53164.57225236762 22018.098489085212 122.50030020717531 z" vector-effect="non-scaling-stroke" fill="#000" fill-opacity="1" stroke="#FFF" stroke-width="0.3px" stroke-linejoin="round" stroke-linecap="round"><title>Franklin County</title></path>
<path id="19071" d="M -10660805.509899834 -4953588.195583661 l 385.9219271223992 -2420.0125770326704 119.58146758563817 -3226.4199329549447 -1106.1286752913147 -3184.490816364996 -2119.8536075819284 -1515.5940189249814 -5859.492712657899 -2526.511659666896 -1206.685945900157 -2426.7820909433067 -312.5424812082201 -1405.4430380938575 -652.26258687675 -968.1522980136797 -565.2943287305534 -1172.6685794852674 -59.79073378816247 -2019.3275126153603 328.84903586655855 -1542.573936631903 494.6326252296567 -821.6096211690456 1595.3257155623287 -1650.6039316114038 1408.5322911515832 -2199.661313305609 868.951378185302 -1357.2616752590984 -244.59852013364434 -1238.5869882758707 -1097.9754480198026 -1985.6574995191768 -244.59852013364434 -1752.597506929189 434.8417913299054 -3459.431333151646 864.2479976918548 -2720.269228001125 608.7785078622401 -2796.5238662753254 -162.54703642241657 -1864.2501859115437 15075.909519305453 32.72901840880513 34046.945811431855 -20.174685965292156 -32.284767396748066 25471.473520542495 1629.2717332877219 20.12473761662841 -363.6815556567162 10698.584221716039 199.11082138493657 9257.895969876088 -10849.30184265785 -297.06293311715126 -10849.30204289034 -297.071936304681 -10849.30184265785 -297.0810722503811 -10849.302042886615 -297.090077271685 -10.870969701558352 0 -16.306554658338428 0 -10.871069811284542 0 -10.871069813147187 0 -10.870969694107771 0 -10.871069813147187 0 -10.871069813147187 0 -10.871069811284542 0 -16.306454546749592 0 -10.871169924736023 0 -10.871069811284542 0 -10.870969701558352 0 -10.870969695970416 0 -8.153427498415112 -3.57942801527679 -8.153227277100086 -3.579429314471781 -10.871069805696607 0 -10.870969699695706 0 -16.30665477924049 -3.579430620186031 -10.870969694107771 0 -10.871069813147187 0 -10.870969699695706 0 -10.871169921010733 0 -16.306554662063718 0 -10.870969699695706 0 -10.871069813147187 0 -16.306554658338428 0 -10.871069813147187 0 -10.870969694107771 0 -16.306654777377844 0 -10.871069813147187 0 -10.870969694107771 0 -10.871069811284542 0 -19.02429708838463 0 -10.871069807559252 0 -10.870969699695706 0 -10.871169922873378 0 -19.024297090247273 0 -10.870969694107771 0 -16.306654777377844 0 -10.871069807559252 0 -10.870969699695706 0 -19.024397199973464 0 -10.870969694107771 0 -10.871069813147187 0 -10.870969699695706 0 -19.02439720183611 0 -10.871069805696607 0 -10.870969699695706 0 -10.871169924736023 0 -10.870969699695706 -3.579431928694248 -16.306554660201073 0 z" vector-effect="non-scaling-stroke" fill="#000" fill-opacity="1" stroke="#FFF" stroke-width="0.3px" stroke-linejoin="round" stroke-linecap="round"><title>Fremont County</title></path>
<path id="19073" d="M -10482362.499519853 -5192479.870332758 l 59.440266627818346 51964.96785388235 -12943.447590786964 35.42430190835148 -38774.90566593222 36.617714137770236 -53.54322792030871 -17082.26402994804 45.86652451567352 -34871.488790625706 25745.408108770847 35.320350700989366 z" vector-effect="non-scaling-stroke" fill="#000" fill-opacity="1" stroke="#FFF" stroke-width="0.3px" stroke-linejoin="round" stroke-linecap="round"><title>Greene County</title></path>
<path id="19075" d="M -10303104.212761618 -5244609.332583725 l 3.783749492838979 12897.478028762154 2255.5548545327038 771.9036725498736 62.44811926782131 25367.99998183828 -26113.3188032005 48.30798743665218 69.23961007967591 13021.842997169122 -26071.685313647613 124.58944149501622 -136.6969951093197 -39363.17146286741 -2694.2648564316332 -158.76553901750594 13.80461873486638 -12856.93039434962 15371.881614519283 121.35353120416403 z" vector-effect="non-scaling-stroke" fill="#000" fill-opacity="1" stroke="#FFF" stroke-width="0.3px" stroke-linejoin="round" stroke-linecap="round"><title>Grundy County</title></path>
<path id="19077" d="M -10490925.312527692 -5086919.382934026 l -34077.669656932354 -11.299574743956327 -17021.969981271774 -58.41778972093016 -48.75671245157719 -14585.293296067975 -4796.644202958792 -370.09348060935736 -80.14680510945618 -38443.36845706031 12929.087376471609 -55.00493060052395 38774.90566593222 -36.617714137770236 39.40387147851288 39036.83580271527 4296.374633969739 50.61461834795773 z" vector-effect="non-scaling-stroke" fill="#000" fill-opacity="1" stroke="#FFF" stroke-width="0.3px" stroke-linejoin="round" stroke-linecap="round"><title>Guthrie County</title></path>
<path id="19079" d="M -10430456.239185318 -5192388.038001043 l -25958.696030486375 -113.62244361825287 -11.462679285556078 -39445.94073732011 -4441.868985801935 -124.20804124325514 0.334960350766778 -12883.159866470844 21490.55564485863 113.9515228588134 31063.13862549141 -47.60209692642093 52.98707573860884 13101.75068210531 4048.466016659513 22.034330043941736 -44.753774885088205 39382.35965383146 z" vector-effect="non-scaling-stroke" fill="#000" fill-opacity="1" stroke="#FFF" stroke-width="0.3px" stroke-linejoin="round" stroke-linecap="round"><title>Hamilton County</title></path>
<path id="19081" d="M -10408108.84406148 -5350935.315938781 l -13.918275931850076 38970.42514890898 -93.39827728644013 13911.698873741552 -35008.63422448374 -29.18401821795851 -17604.72718161717 140.7350699827075 84.82767837494612 -25622.30949926842 7.683382576331496 -27355.01552567724 6549.925737669691 57.317877299152315 z" vector-effect="non-scaling-stroke" fill="#000" fill-opacity="1" stroke="#FFF" stroke-width="0.3px" stroke-linejoin="round" stroke-linecap="round"><title>Hancock County</title></path>
<path id="19083" d="M -10408314.237650191 -5244888.619663763 l 38552.934489969164 140.85243676416576 14045.955382322893 -8.310643710196018 -13.80461873486638 12856.93039434962 2694.2648564316332 158.76553901750594 136.6969951093197 39363.17146286741 -25606.369953444228 61.015445329248905 -25752.977834140882 -66.27996863704175 44.753774885088205 -39382.35965383146 -4048.466016659513 -22.034330043941736 z" vector-effect="non-scaling-stroke" fill="#000" fill-opacity="1" stroke="#FFF" stroke-width="0.3px" stroke-linejoin="round" stroke-linecap="round"><title>Hardin County</title></path>
<path id="19085" d="M -10693464.84406858 -5091982.284789177 l -2350.863215368241 -1797.4385547684506 -141.3236072063446 -3105.4582150112838 641.3916171789169 -2935.671140834689 -13.588712124153972 -1304.6269033784047 -1535.5350818838924 -1112.1616859110072 -831.6347882561386 -2686.437899550423 -317.9780661650002 -3334.5547438813373 65.67153167538345 -5286.614326625131 13.14359931834042 -1058.4209482846782 293.5180840007961 -1131.92391221039 722.9244905933738 -1201.2228858303279 1163.2017667777836 -1550.8921727873385 293.5181841161102 -684.5112540153787 -141.32370732165873 -841.1416455889121 -138.60576467216015 -2017.584657151252 538.1166041400284 -2834.076407284476 959.3697834536433 -2696.429676306434 423.97062140516937 -2901.3317253869027 -1092.5398630537093 -3427.3290415862575 -6566.110648592934 -7048.113596985117 -516.3745646309108 -828.4580993251875 13056.867553686723 1174.6351044578478 38695.75761930086 91.63149655982852 12856.729818772525 -45.14023655932397 -89.8379460144788 38871.56302027777 6711.561526985839 79.34777858108282 -22.71051195822656 14319.249931003898 -36372.63183385134 -78.19169063586742 -19493.975321576 -1209.0435049831867 633.2383898999542 -1680.632604477927 570.7297134641558 -726.06618573796 152.1945769134909 -461.0803259508684 -891.4255220536143 -1013.0023093791679 -1386.0581472907215 -1013.1090148892254 -1326.2674134857953 -464.8312699412927 -945.7807710040361 352.2569835372269 -2220.410677967593 1430.6845152070746 z" vector-effect="non-scaling-stroke" fill="#000" fill-opacity="1" stroke="#FFF" stroke-width="0.3px" stroke-linejoin="round" stroke-linecap="round"><title>Harrison County</title></path>
<path id="19087" d="M -10171340.173128238 -5023278.210541097 l -154.51434752345085 38535.81270899996 -789.7434430364519 -7.942747941240668 -24739.593422781676 -189.59285022690892 -13064.785724429414 63.83382301405072 58.6662622038275 -12844.216176825576 14.250341974198818 -18345.326086398214 250.13634297065437 -20320.864288030192 11146.974093636498 -104.54082289803773 14476.093783425167 166.202515440993 12848.714592797682 244.41813090909272 z" vector-effect="non-scaling-stroke" fill="#000" fill-opacity="1" stroke="#FFF" stroke-width="0.3px" stroke-linejoin="round" stroke-linecap="round"><title>Henry County</title></path>
<path id="19089" d="M -10291369.05842659 -5388507.224469348 l 24840.008577067405 -2.570916248485446 16253.165106059983 -1.682060573250055 -130.68963120505214 44071.74758055154 -24204.301189547405 20.159599131904542 -28494.88720999472 0.303036689758301 27.60968274436891 -27006.51256978046 348.52666680701077 -17080.26886248775 z" vector-effect="non-scaling-stroke" fill="#000" fill-opacity="1" stroke="#FFF" stroke-width="0.3px" stroke-linejoin="round" stroke-linecap="round"><title>Howard County</title></path>
<path id="19091" d="M -10460829.5220208 -5297941.640864366 l -52.991528522223234 39894.74997592624 -21907.669776862487 -13.319718436338007 -30564.872696017846 -55.846529425121844 14.363665217533708 -39872.855028180405 35020.322993652895 -39.05651657190174 z" vector-effect="non-scaling-stroke" fill="#000" fill-opacity="1" stroke="#FFF" stroke-width="0.3px" stroke-linejoin="round" stroke-linecap="round"><title>Humboldt County</title></path>
<path id="19093" d="M -10657906.493135149 -5245430.446516492 l 39364.34236968681 -69.21682261116803 127.45959243923426 13127.048651621677 7177.878762600943 96.44214654248208 -125.46051702834666 39648.7031864943 -12901.70278173685 34.71687828190625 -25762.32878268324 -106.26056282501668 -10.573793157935143 -17099.48661991395 183.90169122628868 -22546.649312637746 -8079.343776404858 -107.91335576120764 z" vector-effect="non-scaling-stroke" fill="#000" fill-opacity="1" stroke="#FFF" stroke-width="0.3px" stroke-linejoin="round" stroke-linecap="round"><title>Ida County</title></path>
<path id="19095" d="M -10274583.841848511 -5140445.380132791 l 25978.73353882879 -32.13470646645874 18208.523877035826 214.04548704065382 7774.328371630982 -41.25331822410226 68.57213841564953 8670.766715146601 -380.4913553632796 17473.032788656652 137.8126390427351 11765.513062641956 655.5601473227143 1080.8137038359419 -239.44911525212228 13241.26305631455 -13005.67507481575 103.01922722160816 -39123.335338160396 142.55846018344164 -35.62112385593355 -13648.066038331017 -255.70020243525505 -8490.484348112717 z" vector-effect="non-scaling-stroke" fill="#000" fill-opacity="1" stroke="#FFF" stroke-width="0.3px" stroke-linejoin="round" stroke-linecap="round"><title>Iowa County</title></path>
<path id="19097" d="M -10071514.341073552 -5218240.709022009 l 1194.047082901001 777.4155673198402 3454.2741482350975 3523.752085827291 1956.7879608590156 5121.446945649572 0 -1025.5384003855288 279.9293718803674 8572.143942105584 997.4183776266873 3466.3385822232813 3647.235261965543 2213.534484313801 2386.194067111239 3519.3009670088068 1497.4863875992596 807.163391770795 1508.3573572933674 341.18949325662106 9514.881201902404 5813.0107235349715 1146.895212110132 1121.8498764289543 2785.705006694421 3386.7437057951465 1043.6201990712434 703.5876136263832 1701.3183709159493 377.42407658323646 755.5375999156386 1080.8885442409664 184.80778634361923 1762.1346651650965 -19.024397203698754 2373.4202891318128 361.46224530413747 2054.2885350929573 2747.6564125251025 6690.757579864003 -1908.7378592602909 -373.2901617363095 -31699.885667547584 -65.04767057579011 -15073.43394838646 123.94384755473584 -21018.89485104941 5.693490128032863 -14689.159177485853 -136.38556978758425 39.298897195607424 -39301.36568207666 25878.545774478465 78.71070852037519 57.887248408049345 -13176.490377842449 z" vector-effect="non-scaling-stroke" fill="#000" fill-opacity="1" stroke="#FFF" stroke-width="0.3px" stroke-linejoin="round" stroke-linecap="round"><title>Jackson County</title></path>
<path id="19099" d="M -10378522.153319543 -5140435.224328849 l 32767.884862218052 28.103587118908763 19081.825059676543 15.69610845670104 -75.14355059340596 38942.39471281599 1078.7967400010675 -8.336358597502112 62.337801648303866 13777.66624582652 -12792.053083304316 40.43252053577453 -50894.47770535387 103.75471362099051 -7.457292687147856 -13882.706941265613 -2226.166620289907 -19.20383852533996 83.04756839945912 -39056.54489493184 z" vector-effect="non-scaling-stroke" fill="#000" fill-opacity="1" stroke="#FFF" stroke-width="0.3px" stroke-linejoin="round" stroke-linecap="round"><title>Jasper County</title></path>
<path id="19101" d="M -10209765.75711886 -5036386.506158506 l -250.13634297065437 20320.864288030192 -14.250341974198818 18345.326086398214 -19139.2659169212 -72.6099577350542 -16402.58844581805 194.55299676116556 -15754.597801230848 37.8488040342927 -100.40717506967485 -38802.327738408 26098.17935245298 -134.55640409700572 9535.068200910464 277.54372303839773 z" vector-effect="non-scaling-stroke" fill="#000" fill-opacity="1" stroke="#FFF" stroke-width="0.3px" stroke-linejoin="round" stroke-linecap="round"><title>Jefferson County</title></path>
<path id="19103" d="M -10170824.755202938 -5140040.457501624 l -40.52318895794451 39034.75307260081 -230.32203020714223 26047.664941952564 -12856.395637657493 -103.47590917628258 -1706.9721812717617 -5312.120361428708 -292.8811349980533 -4325.128583930433 -1849.0161854811013 -1268.4450099095702 -313.92074139788747 -2045.9145325291902 -12438.057102575898 50.840098936110735 -21827.4082013648 -111.04955873638391 239.44911525212228 -13241.26305631455 -655.5601473227143 -1080.8137038359419 -137.8126390427351 -11765.513062641956 380.4913553632796 -17473.032788656652 -68.57213841564953 -8670.766715146601 15740.460337217897 -37.814900937490165 21889.52436591126 335.70901691541076 z" vector-effect="non-scaling-stroke" fill="#000" fill-opacity="1" stroke="#FFF" stroke-width="0.3px" stroke-linejoin="round" stroke-linecap="round"><title>Johnson County</title></path>
<path id="19105" d="M -10118771.886431117 -5152904.6078252895 l -26140.81460610032 -104.17185236606747 -25879.659080712125 -95.04287418816239 281.19704124704003 -52384.440411805175 25957.916682735085 102.94235776830465 25832.682366911322 79.01250593177974 -39.298897195607424 39301.36568207666 z" vector-effect="non-scaling-stroke" fill="#000" fill-opacity="1" stroke="#FFF" stroke-width="0.3px" stroke-linejoin="round" stroke-linecap="round"><title>Jones County</title></path>
<path id="19107" d="M -10274509.262019826 -5087827.75565644 l 39123.335338160396 -142.55846018344164 -102.30105356499553 25712.111199834384 245.2320514805615 14440.263255216181 -85.82810664176941 11320.531578050926 -26098.17935245298 134.55640409700572 -25635.980826677755 106.46033666655421 -192.46750339493155 -51535.39066668227 z" vector-effect="non-scaling-stroke" fill="#000" fill-opacity="1" stroke="#FFF" stroke-width="0.3px" stroke-linejoin="round" stroke-linecap="round"><title>Keokuk County</title></path>
<path id="19109" d="M -10491634.950248385 -5388460.271337666 l 7888.851935598999 -0.816484140232205 22969.507602123544 -2.377130921930075 39.5797508135438 37544.499063416384 -7.683382576331496 27355.01552567724 -84.82767837494612 25622.30949926842 -17490.847342532128 -86.32781668752432 -35020.322993652895 39.05651657190174 39.074811059981585 -19235.71580004599 -59.441491140052676 -33642.6807000516 94.06719611398876 -24354.103932423517 -62.116733118891716 -13236.613428750075 z" vector-effect="non-scaling-stroke" fill="#000" fill-opacity="1" stroke="#FFF" stroke-width="0.3px" stroke-linejoin="round" stroke-linecap="round"><title>Kossuth County</title></path>
<path id="19111" d="M -10179261.743921837 -4921247.435293747 l -1168.6372516211122 -1188.1134011307731 -3228.700125411153 -1270.3338766572997 -1364.3160076644272 -992.116385362111 -4035.8751317337155 -4115.852870833129 -972.9583954662085 -1417.5657700998709 290.80054180696607 -971.3469679402187 -16.306654773652554 -1007.1593442223966 -347.873433066532 -1025.1230181427673 -684.875796308741 -989.5058377990499 -934.9097011890262 -700.2158460356295 -2239.43517527543 -1003.9678577324376 -972.9583954680711 -796.8163957865909 -334.2846208233386 -725.4092109976336 -195.67875604517758 -821.9568090122193 -307.106996351853 -671.9115327224135 -684.8757963143289 -282.35955989547074 -1212.121430752799 39.31636292859912 -559.8587437644601 -135.82084217481315 -505.5034948196262 -400.3250376842916 -448.43060356378555 -872.193102764897 -505.5034948196262 -2055.6797089045867 -220.13863809034228 -568.5160370636731 -2630.7926873639226 -1780.8485561255366 -2394.347494609654 -618.7237971397117 -1057.2090113051236 -693.8754251245409 -801.7395214792341 -1030.1735613420606 -483.7614553067833 -1112.565976136364 -239.16293517313898 -1406.0918421614915 -62.5085763335228 -1907.3119194498286 -462.0192155763507 -887.5812037996948 -2049.191803975031 -1406.6945254998282 -459.30167336948216 -755.3316233372316 -861.5302552692592 -1457.1308940276504 1324.0465871058404 -28599.36193932686 13064.785724429414 -63.83382301405072 24739.593422781676 189.59285022690892 621.147562623024 644.1327359415591 3424.37886717543 879.6684438511729 1612.5381967127323 628.2860676646233 7799.974086346105 4390.889958863147 1644.2454084455967 1764.1749781426042 3043.892326377332 2612.7857469692826 1598.9493916854262 902.6537616839632 6092.314254432917 2079.9707861617208 1209.4036475345492 292.83391222916543 1745.6455059144646 110.80971135012805 -737.8629267774522 2011.419433108531 -2880.826692348346 4283.005391978659 -3867.3739000540227 2816.084833489731 -4400.055019339547 1540.2633521007374 -4467.999080521986 469.1949986591935 -3424.3789815623313 931.1599240107462 -4984.37354504317 2266.646385848522 -4489.741320256144 2806.6202854290605 -1956.7878607474267 2548.173291550949 -236.4451927486807 1012.6434632288292 -1046.3379415012896 1549.1777658946812 -236.4452928621322 1441.6245564157143 415.81749424524605 1251.8594782901928 3005.843644782901 2792.859455052763 1013.7248321752995 2391.715076356195 67.94406117871404 2601.9818791812286 -703.9000933989882 4501.802144869231 -2.71774242259562 2492.9680738784373 603.3429228998721 3884.6272910097614 157.6300617530942 2152.308439930901 -1000.1360199395567 1491.705322580412 z" vector-effect="non-scaling-stroke" fill="#000" fill-opacity="1" stroke="#FFF" stroke-width="0.3px" stroke-linejoin="round" stroke-linecap="round"><title>Lee County</title></path>
<path id="19113" d="M -10222622.256061016 -5140304.722670441 l -431.5834394134581 -26210.713101092726 75.58693612739444 -13064.147539828904 388.9523045774549 -26302.696350767277 11649.358732953668 362.7098482279107 14411.41715927422 36.87317726388574 26017.361290814355 -5.566327011212707 -281.19704124704003 52384.440411805175 -32.39508500881493 13063.36505021993 -14167.516154948622 33.62894716113806 -21889.52436591126 -335.70901691541076 z" vector-effect="non-scaling-stroke" fill="#000" fill-opacity="1" stroke="#FFF" stroke-width="0.3px" stroke-linejoin="round" stroke-linecap="round"><title>Linn County</title></path>
<path id="19115" d="M -10138479.022383558 -5063127.621076108 l -1731.213637696579 6466.7648558923975 -910.4499192535877 6404.597601048648 27.17752435989678 3043.4995183609426 557.1410013381392 3710.9066123859957 1293.6543041691184 3131.664085336961 2266.612599529326 1318.102526968345 1587.1723881736398 624.6819397909567 5601.305480401963 4425.782327883877 3206.957985782996 4521.163500486873 1902.4328120332211 6008.117648195475 -24187.210465827957 351.3946183845401 -22474.73081769049 -157.26469972450286 46.19847923703492 -12802.215793956071 -12848.714592797682 -244.41813090909272 190.69318203814328 -38736.670930284075 12856.395637657493 103.47590917628258 -91.17166483402252 12921.193830176257 z" vector-effect="non-scaling-stroke" fill="#000" fill-opacity="1" stroke="#FFF" stroke-width="0.3px" stroke-linejoin="round" stroke-linecap="round"><title>Louisa County</title></path>
<path id="19117" d="M -10414665.589565119 -4997350.669959831 l -113.0974857006222 -38806.5154419411 25566.74032604322 90.49312194809318 25455.53215474263 -15.375459847040474 180.33456945978105 38708.42718217708 -32910.59644941799 116.0478481343016 z" vector-effect="non-scaling-stroke" fill="#000" fill-opacity="1" stroke="#FFF" stroke-width="0.3px" stroke-linejoin="round" stroke-linecap="round"><title>Lucas County</title></path>
<path id="19119" d="M -10753301.78809292 -5387846.644500745 l 364.1799877192825 -374.6556735308841 15776.602696668357 -187.33351762406528 36200.576575137675 0 8372.258986551315 -2.599533840082586 21397.265191776678 -6.643719791434705 54.5498999543488 23429.85904003028 -162.19383392110467 13730.623522526585 -19748.294851046056 -199.4764561029151 -6541.020178413019 223.77752279862761 -26278.405719365925 -41.73115682974458 -24858.809176653624 -104.13141610566527 -614.2138925939798 -630.6954367626458 -812.6105912849307 -671.7934789089486 -926.7564739119262 -1657.298193367198 -111.42824031040072 -1045.29462500941 317.97796605341136 -701.9066919647157 741.9487876761705 -126.94618217926472 1625.2210824619979 205.3531556725502 766.4085696134716 -153.08105320762843 600.6251804754138 -377.1130956383422 434.84179132431746 -519.022074546665 282.6472144238651 -530.2541003022343 364.179887605831 -3761.190236370079 43.48417913168669 -7889.622877971269 -282.64711430482566 -1622.8565623443574 -407.66416685655713 -624.5387902725488 -1921.457008998841 -2218.013178922236 -877.8368099275976 -1242.0195340989158 -2051.909546405077 -2331.106063743122 -529.9634769782424 -853.2639492917806 -546.2699315287173 -1433.5102377636358 -73.37954602576792 -1280.2407379429787 84.25061584077775 -1388.9991271654144 258.1873323675245 -1673.814429496415 -59.79073379188776 -1112.298975115642 -260.9050747975707 -973.8391776727512 -377.76879995688796 -824.097745818086 z" vector-effect="non-scaling-stroke" fill="#000" fill-opacity="1" stroke="#FFF" stroke-width="0.3px" stroke-linejoin="round" stroke-linecap="round"><title>Lyon County</title></path>
<path id="19121" d="M -10490930.214704107 -5035545.505293827 l 4.902176415547728 -51373.87764019985 12953.243705971166 87.10448772553355 25393.527309687808 -0.889759217388928 11856.190569486469 -1310.6472460152581 -18.03542730025947 19665.946480701678 175.65959612466395 32207.71417481359 -12317.83227516897 803.9012334980071 -12728.267126394436 -24.24857759475708 z" vector-effect="non-scaling-stroke" fill="#000" fill-opacity="1" stroke="#FFF" stroke-width="0.3px" stroke-linejoin="round" stroke-linecap="round"><title>Madison County</title></path>
<path id="19123" d="M -10338398.505489897 -5087639.267512693 l 12792.053083304316 -40.43252053577453 38351.000933675095 -112.08197621162981 192.46750339493155 51535.39066668227 -25614.05122094974 95.22164727002382 -25540.580245707184 66.09225074201822 z" vector-effect="non-scaling-stroke" fill="#000" fill-opacity="1" stroke="#FFF" stroke-width="0.3px" stroke-linejoin="round" stroke-linecap="round"><title>Mahaska County</title></path>
<path id="19125" d="M -10389292.98319525 -5087535.512799072 l 50894.47770535387 -103.75471362099051 180.8900537174195 51544.19006794691 -25538.799133853987 13.009705075062811 -25455.53215474263 15.375459847040474 -57.9935585167259 -48956.50283917133 z" vector-effect="non-scaling-stroke" fill="#000" fill-opacity="1" stroke="#FFF" stroke-width="0.3px" stroke-linejoin="round" stroke-linecap="round"><title>Marion County</title></path>
<path id="19127" d="M -10352898.190545093 -5192377.210474474 l 26071.685313647613 -124.58944149501622 185.23251572996378 38036.15646167938 -31.17068193294108 14074.21882101614 -19081.825059676543 -15.69610845670104 -32767.884862218052 -28.103587118908763 17.59282100573182 -51880.97070029564 z" vector-effect="non-scaling-stroke" fill="#000" fill-opacity="1" stroke="#FFF" stroke-width="0.3px" stroke-linejoin="round" stroke-linecap="round"><title>Marshall County</title></path>
<path id="19129" d="M -10667327.617758991 -4997842.625193798 l -158.14877217449248 -1814.1490328330547 -1386.0581472814083 -3615.0299733104184 -201.11434100568295 -1964.5493608759716 453.8661885242909 -3098.7494036192074 -46.20192155428231 -1403.9396637529135 -755.53770002909 -1537.3661461761221 -1959.505603177473 -1732.0786227583885 -926.7564739063382 -1120.073737051338 -565.2943287268281 -1725.3821480683982 231.00960778445005 -1228.4858444696292 668.5693417675793 -803.4632928390056 394.0753546152264 -778.3060037828982 -603.343023005873 -1127.933403590694 -451.148245876655 -756.8339638821781 -195.67885615490377 -576.6750314794481 -222.8563805092126 -439.73774186801165 -516.3745646309108 -335.2232245057821 0 -915.6150902807713 679.4402113500983 -969.7807697402313 1532.8172393403947 -4165.030812347308 -703.9000933971256 -2124.6737794438377 -241.88077770918608 -4712.737887167372 -570.729813573882 -2241.700113932602 33532.05142433569 1060.1281511662528 21204.0194981955 -0.885381361469626 -68.46449246257544 38140.82661041431 -34046.945811431855 20.174685965292156 z" vector-effect="non-scaling-stroke" fill="#000" fill-opacity="1" stroke="#FFF" stroke-width="0.3px" stroke-linejoin="round" stroke-linecap="round"><title>Mills County</title></path>
<path id="19131" d="M -10355421.916227484 -5388483.902245758 l 16486.27774284035 -3.412545336410403 36206.01205998473 -18.733870970085263 -348.52666680701077 17080.26886248775 -27.60968274436891 27006.51256978046 -14797.250514365733 49.63923203293234 -37474.805332956836 -49.49107398092747 -21.59542461670935 -6528.26706453599 z" vector-effect="non-scaling-stroke" fill="#000" fill-opacity="1" stroke="#FFF" stroke-width="0.3px" stroke-linejoin="round" stroke-linecap="round"><title>Mitchell County</title></path>
<path id="19133" d="M -10701995.895805195 -5141766.68428188 l -1755.673619857058 -3953.500832505524 -421.25297909229994 -1347.411448464729 105.9927554614842 -1760.3199647124857 1103.4109328668565 -2926.062898845412 377.7687999624759 -1439.6162568842992 -1266.4765795934945 -5961.73839254491 -4041.310616578907 -3346.2008479209617 -4650.089124439284 -2813.180589742027 -2227.0783404503018 -3114.3205570206046 -873.8869899827987 -1222.3117126170546 -448.43060356378555 -3331.582091525197 54.35524894297123 -3087.330789031461 -206.5497257374227 -2831.8495044261217 -1231.145827954635 -2576.1401280388236 -1964.941188134253 -1814.3440838521346 -3731.485877804458 -2558.997008432634 -1592.6078730281442 -2339.6290988903493 -1016.4427748210728 -3657.2831022236496 21897.744911627844 -1221.901500123553 15000.519904552028 329.4560628468171 38857.170880949125 41.935987846925855 -153.95719347521663 27407.55047423672 -63.00894686207175 24791.044883889146 -38695.75761930086 -91.63149655982852 z" vector-effect="non-scaling-stroke" fill="#000" fill-opacity="1" stroke="#FFF" stroke-width="0.3px" stroke-linejoin="round" stroke-linecap="round"><title>Monona County</title></path>
<path id="19135" d="M -10312535.66244279 -4997437.700583326 l -40188.88539270684 89.68624511640519 -10851.532165076584 -25.62621928472072 -180.33456945978105 -38708.42718217708 25538.799133853987 -13.009705075062811 25540.580245707184 -66.09225074201822 z" vector-effect="non-scaling-stroke" fill="#000" fill-opacity="1" stroke="#FFF" stroke-width="0.3px" stroke-linejoin="round" stroke-linecap="round"><title>Monroe County</title></path>
<path id="19137" d="M -10567289.79837437 -5035748.663373797 l -97.07371291704476 38050.705886612646 -31175.682742005214 -70.25435695331544 -19642.20759896189 -61.85901721660048 68.46449246257544 -38140.82661041431 25436.274105476215 114.59233876969665 z" vector-effect="non-scaling-stroke" fill="#000" fill-opacity="1" stroke="#FFF" stroke-width="0.3px" stroke-linejoin="round" stroke-linecap="round"><title>Montgomery County</title></path>
<path id="19139" d="M -10106236.700744804 -5078386.748598693 l -22893.223725888878 1870.3437164025381 -4389.184049647301 2975.6838154178113 -2652.534726869315 4561.415516855195 -2307.379136348143 5851.684473909438 -32707.749703379348 1090.775419213809 91.17166483402252 -12921.193830176257 230.32203020714223 -26047.664941952564 33894.99403858185 151.2423588288948 18049.003269370645 34.08966436050832 12914.83825901337 87.23034679610282 z" vector-effect="non-scaling-stroke" fill="#000" fill-opacity="1" stroke="#FFF" stroke-width="0.3px" stroke-linejoin="round" stroke-linecap="round"><title>Muscatine County</title></path>
<path id="19141" d="M -10618534.910323145 -5298265.990664094 l -26067.78935410641 -61.55741100944579 -26414.549456603825 183.44586450140923 -98.4039808306843 -26460.048941872083 -182.89547434821725 -26653.24323050119 26182.44842962548 -135.12012604251504 11135.953464049846 356.75694349966943 15428.765874315053 136.80023369193077 37.06760932691395 19501.441740743816 -112.6571057960391 20011.44281060621 z" vector-effect="non-scaling-stroke" fill="#000" fill-opacity="1" stroke="#FFF" stroke-width="0.3px" stroke-linejoin="round" stroke-linecap="round"><title>O'Brien County</title></path>
<path id="19143" d="M -10625968.368254885 -5388435.128099114 l 7447.157685570419 -0.770767361856997 -30.170251728966832 37536.94153464958 -15428.765874315053 -136.80023369193077 -11135.953464049846 -356.75694349966943 -26182.44842962548 135.12012604251504 162.19383392110467 -13730.623522526585 -54.5498999543488 -23429.85904003028 6431.052496919408 -1.996803344227374 36208.72980240546 -14.987039870582521 z" vector-effect="non-scaling-stroke" fill="#000" fill-opacity="1" stroke="#FFF" stroke-width="0.3px" stroke-linejoin="round" stroke-linecap="round"><title>Osceola County</title></path>
<path id="19145" d="M -10597840.552585904 -4951776.042777921 l -6408.350921513513 -205.1077971085906 -12523.442689217627 -400.84183657355607 -199.11082138493657 -9257.895969876088 363.6815556567162 -10698.584221716039 -1629.2717332877219 -20.12473761662841 32.284767396748066 -25471.473520542495 19642.20759896189 61.85901721660048 31175.682742005214 70.25435695331544 -7.794479427859187 25483.174283917062 1714.7649909034371 18.949439710006118 -998.6737638525665 21417.110237019137 -12523.44268921204 -400.79254230391234 -12523.44268921949 -400.80905935075134 z" vector-effect="non-scaling-stroke" fill="#000" fill-opacity="1" stroke="#FFF" stroke-width="0.3px" stroke-linejoin="round" stroke-linecap="round"><title>Page County</title></path>
<path id="19147" d="M -10565765.033379035 -5298236.196302012 l 18.595030380412936 -52637.230945705436 52385.379311589524 6.118583138100803 59.441491140052676 33642.6807000516 -39.074811059981585 19235.71580004599 -39632.176619255915 -159.8909588549286 z" vector-effect="non-scaling-stroke" fill="#000" fill-opacity="1" stroke="#FFF" stroke-width="0.3px" stroke-linejoin="round" stroke-linecap="round"><title>Palo Alto County</title></path>
<path id="19149" d="M -10741139.807548894 -5246106.597265816 l -608.7785078585148 -409.6094017624855 -521.8100494798273 -834.0346809383482 -97.83942807279527 -937.4544561728835 81.53287341445684 -1229.1662405384704 -152.19467702321708 -904.4439467377961 -317.977966055274 -874.9936201907694 -733.7955604046583 -1414.190985005349 -402.2285818923265 -616.697912032716 -451.1483459863812 -509.6372880656272 -535.3989618271589 -409.94566577114165 -1926.8924938514829 -1163.456410188228 -163.06564672477543 -439.5652080513537 40.76643670909107 -380.48081684391946 320.695708476007 -602.1513184709474 138.60596490092576 -188.41116563789546 1190.3791910149157 -1030.7861344078556 385.9221273511648 -657.6931998152286 -130.452537400648 -620.7862749751657 -345.1556906364858 -587.5676677031443 -885.9901373162866 -1053.2790260408074 -997.4181774035096 -975.7741590254009 -5946.46107092686 -4517.9703810587525 -875.1190674975514 -854.2954882979393 -1024.5959019940346 -1250.1482016285881 -1761.1091047022492 -2770.8912009187043 -559.8587437644601 -1583.7332876753062 -269.0584021806717 -1232.3883080268279 304.38925392366946 -2080.2531706877053 456.58383084088564 -1436.4579047420993 932.1919587608427 -2136.582182059996 1723.060510540381 -2537.1284173661843 342.4379482027143 -663.0998391732574 274.4937869235873 -785.4078888185322 231.00970789790154 -852.168040513061 269.0584021862596 -778.1339036701247 347.87333294935524 -655.9057208644226 434.8417913299054 -563.3003401234746 442.99501859769225 -422.4974523773417 375.0510575324297 -255.73156256973743 1747.5202924758196 -767.2359750811011 415.81739412620664 -244.63914234749973 279.9294719938189 -581.970469259657 160.3478041831404 -830.3895703190938 105.99275546334684 -2002.1345144985244 190.24317107722163 -923.3504981035367 217.42089566774666 -656.41293018125 529.9633768666536 -571.1537716826424 410.38200939260423 -356.0615099389106 225.5741229392588 -678.7795459004119 260.9050747901201 -1187.0553861446679 111.7669907771051 -2006.8749081678689 42936.16092334129 -73.13754893280566 17259.191816154867 -112.77294606994838 15685.802467236295 170.682640790008 87.27325627021492 13560.058210638352 -245.90597967617214 15017.960494089872 97.84760601446033 24237.500536062755 -41598.412673816085 -118.94685759488493 -21804.142761748284 -105.4953031912446 z" vector-effect="non-scaling-stroke" fill="#000" fill-opacity="1" stroke="#FFF" stroke-width="0.3px" stroke-linejoin="round" stroke-linecap="round"><title>Plymouth County</title></path>
<path id="19151" d="M -10565844.29764322 -5245283.233557702 l -106.64284766092896 -13129.45754934568 182.56518941372633 -13217.96380974818 3.341922432184219 -26605.541385215707 12792.164402794093 87.39317867532372 39632.176619255915 159.8909588549286 -14.363665217533708 39872.855028180405 6.56673676148057 13054.688907174394 -19573.18929203786 -174.8601771881804 -6598.127077182755 119.6954618068412 z" vector-effect="non-scaling-stroke" fill="#000" fill-opacity="1" stroke="#FFF" stroke-width="0.3px" stroke-linejoin="round" stroke-linecap="round"><title>Pocahontas County</title></path>
<path id="19153" d="M -10443495.87104628 -5140541.057232264 l 13079.47989720665 7.32530524674803 38972.83160924539 39.76345322281122 -83.04756839945912 39056.54489493184 2226.166620289907 19.20383852533996 7.457292687147856 13882.706941265613 23.0429119579494 2512.317680076696 -8977.607719363645 -1578.206187077798 -4606.604904651642 -2322.724899441935 -886.8812608756125 1060.0441100848839 -9893.952649360523 -184.2916999636218 -27087.364125002176 -95.44165613967925 -1.557470995932818 -13050.368247278035 -2633.373094972223 -119.83495996147394 z" vector-effect="non-scaling-stroke" fill="#000" fill-opacity="1" stroke="#FFF" stroke-width="0.3px" stroke-linejoin="round" stroke-linecap="round"><title>Polk County</title></path>
<path id="19155" d="M -10679761.052696772 -5070469.552372161 l 385.0816660709679 -1393.4473756384104 40.766436714679 -1677.7213190728799 1070.7979236524552 -6082.8287933804095 -712.0533206686378 -1537.6276907306165 -717.4890057444572 -373.5645454218611 -937.6274436116219 50.776536440476775 -4546.81421151571 -1030.0922051556408 -1543.688209041953 -943.138961751014 -663.1337568033487 -1788.590004290454 211.985310703516 -1407.8867437951267 519.0924071669579 -1908.958908220753 19493.975321576 1209.0435049831867 36372.63183385134 78.19169063586742 38213.187849352136 128.28451183252037 12.021057847887278 17339.562784194015 -137.7049930933863 33951.244758533314 -25436.274105476215 -114.59233876969665 -21204.0194981955 0.885381361469626 -33532.05142433569 -1060.1281511662528 2590.0262506511062 -1288.94154112041 -1402.3647019471973 -1191.6111125899479 -3498.7505636140704 -1160.3913351120427 -1488.3408239632845 -493.66345222946256 -1521.9461695291102 -1853.0213020499796 -108.71049789339304 -2435.113181241788 866.9657401237637 -6274.865040502511 1228.4279854111373 -712.3243791349232 2394.3473944999278 -2672.588064778596 1638.8099948111922 -2890.4089752575383 -1046.3380416128784 -1356.8732384312898 -1935.0457211267203 -293.10963292978704 -5030.575666818768 -1729.8898992948234 -1807.3111263792962 -1013.4684038814157 z" vector-effect="non-scaling-stroke" fill="#000" fill-opacity="1" stroke="#FFF" stroke-width="0.3px" stroke-linejoin="round" stroke-linecap="round"><title>Pottawattamie County</title></path>
<path id="19157" d="M -10274583.841848511 -5140445.380132791 l -216.74149760603905 30479.07408990711 255.70020243525505 8490.484348112717 35.62112385593355 13648.066038331017 -12746.189453091472 35.97364699933678 -38351.000933675095 112.08197621162981 -62.337801648303866 -13777.66624582652 -1078.7967400010675 8.336358597502112 75.14355059340596 -38942.39471281599 28825.951486933976 21.227447226643562 z" vector-effect="non-scaling-stroke" fill="#000" fill-opacity="1" stroke="#FFF" stroke-width="0.3px" stroke-linejoin="round" stroke-linecap="round"><title>Poweshiek County</title></path>
<path id="19159" d="M -10489885.226265023 -4949718.478409394 l -1652.692739121616 9.647931385785341 -12871.316122278571 75.13861166592687 -12871.316122278571 78.71586636453867 748.6383362170309 -43117.82388388645 93.73145652376115 -4855.637991265394 25423.69489169307 231.3688585832715 25335.3072160054 132.545893965289 -116.10741133056581 47301.83562077023 -12871.316122278571 78.71783639211208 z" vector-effect="non-scaling-stroke" fill="#000" fill-opacity="1" stroke="#FFF" stroke-width="0.3px" stroke-linejoin="round" stroke-linecap="round"><title>Ringgold County</title></path>
<path id="19161" d="M -10618542.150765462 -5245499.663339104 l 10983.3344421722 158.9953977447003 27487.780444702134 -68.61268102843314 14226.738235367462 126.04706468526274 8.904446069151163 13003.59381698072 6436.379857067019 32.902049181982875 -195.70300439745188 39805.335422266275 -25869.529341001064 -105.35711028520018 -25898.02724196762 -80.70997488684952 125.46051702834666 -39648.7031864943 -7177.878762600943 -96.44214654248208 z" vector-effect="non-scaling-stroke" fill="#000" fill-opacity="1" stroke="#FFF" stroke-width="0.3px" stroke-linejoin="round" stroke-linecap="round"><title>Sac County</title></path>
<path id="19163" d="M -10053148.609920869 -5122488.906564597 l -1033.6192279290408 2096.825431296602 -1106.1286752913147 3316.932697892189 -432.12404889799654 3235.7252577496693 -1600.761300528422 2932.683717187494 195.67875604331493 669.3704939763993 415.8174942396581 662.0485771000385 231.00970790162683 869.3241837387905 -35.33095185831189 3531.0476146787405 -236.44519275054336 1556.0123139545321 -557.1410013381392 1570.2989079775289 -1693.1651436388493 1802.6192939486355 -4889.251959502697 2819.548701947555 -1019.1604171376675 962.6718839136884 -858.8124127332121 2059.4309751251712 -2068.2162011694163 1576.0564424116164 -4674.549006488174 1858.9788983045146 -11053.133926091716 2029.2172574549913 -2337.2744031324983 1012.6333882492036 -4239.707215160131 5101.471531081013 -2266.612699640915 2096.407403946854 -4772.388334449381 1602.8271990017965 -9056.774664381519 740.0257949670777 230.25791987404227 -22346.393460344523 -12914.83825901337 -87.23034679610282 161.4150427673012 -25974.833855712786 12508.560490408912 151.1286857780069 1944.0311105642468 1606.192570336163 2689.75140414387 804.6091426387429 2708.70180234313 -291.4500721208751 5335.870774516836 -1305.5622981283814 10341.080626670271 -3067.2536110160872 5381.166791275144 -650.0195355741307 2658.8761839047074 218.7030891990289 5195.453122554347 1542.9298052052036 z" vector-effect="non-scaling-stroke" fill="#000" fill-opacity="1" stroke="#FFF" stroke-width="0.3px" stroke-linejoin="round" stroke-linecap="round"><title>Scott County</title></path>
<path id="19165" d="M -10585688.00231476 -5140534.342829784 l -52.65512102097273 13174.132532005198 89.05336624197662 25764.07836570777 5764.789591751993 28.4342726720497 -2.450253311544657 14498.029697448947 -12685.075163971633 -77.44471377599984 -38213.187849352136 -128.28451183252037 22.71051195822656 -14319.249931003898 -6711.561526985839 -79.34777858108282 89.8379460144788 -38871.56302027777 15102.933836087584 37.369972120039165 11087.529596870765 -144.99019165430218 z" vector-effect="non-scaling-stroke" fill="#000" fill-opacity="1" stroke="#FFF" stroke-width="0.3px" stroke-linejoin="round" stroke-linecap="round"><title>Shelby County</title></path>
<path id="19167" d="M -10739452.077990215 -5322502.306310118 l 475.60822803527117 -829.654463016428 429.4062063638121 -1060.428110735491 1182.2260638587177 -6126.795064380392 24.45978193730116 -1217.6492000129074 -146.75909205898643 -990.6209135660902 -328.84903586655855 -1147.166060638614 -326.1312934346497 -1527.290539487265 -951.2163559626788 -6652.21950533893 -366.8977301493287 -1647.9500751830637 -290.800441686064 -730.8583844611421 -442.9950186070055 -570.5567076429725 -644.1093596015126 -331.90872032381594 -722.9244905989617 -70.85850079543889 -1136.0241422969848 134.25767555925995 -769.1262119300663 0 -2541.106686782092 -458.72172630857676 -1731.2137378137559 93.23810673411936 -921.3209890592843 -78.31980405375361 -853.3768277689815 -331.9341057892889 -679.4403114616871 -779.5320974476635 -187.52552876621485 -843.0124290827662 130.45253739319742 -816.9742854973301 364.1799877267331 -664.0773959625512 970.2406530436128 -1126.8018578197807 328.8491359781474 -544.794106005691 24720.203311864287 -451.88989173434675 26278.405719365925 41.73115682974458 6541.020178413019 -223.77752279862761 19748.294851046056 199.4764561029151 182.89547434821725 26653.24323050119 98.4039808306843 26460.048941872083 -15685.802467236295 -170.682640790008 -17259.191816154867 112.77294606994838 -42936.16092334129 73.13754893280566 119.24261701852083 -2141.580496793613 149.47693459130824 -1028.1213660091162 144.04134963452816 -356.3428143430501 2065.498358635232 -2331.4103973107412 421.2528789807111 -972.8301693815738 448.43070367723703 -1767.6905344715342 -157.63016187027097 -2979.0913143754005 -65.22621864639223 -527.5689814686775 38.04849406145513 -401.26935964170843 43.48417913168669 -178.34753933362663 486.479297850281 -758.0149496737868 733.795360179618 -2084.85789589677 269.0585022941232 -1063.0476543866098 -97.8395281881094 -698.8524407697842 -195.67875604331493 -464.69154528249055 -407.66406674683094 -550.2244651941583 -464.737158222124 -870.0156306913123 -8.15322727151215 -847.7855966929346 222.8563805092126 -713.9842060310766 z" vector-effect="non-scaling-stroke" fill="#000" fill-opacity="1" stroke="#FFF" stroke-width="0.3px" stroke-linejoin="round" stroke-linecap="round"><title>Sioux County</title></path>
<path id="19169" d="M -10430416.391149074 -5140533.731927018 l -79.92527931369841 -24010.524549181573 40.07724306918681 -27843.781524843536 26198.700852639973 5.56300326064229 25752.977834140882 66.27996863704175 -17.59282100573182 51880.97070029564 -12921.406220285222 -58.744144945405424 z" vector-effect="non-scaling-stroke" fill="#000" fill-opacity="1" stroke="#FFF" stroke-width="0.3px" stroke-linejoin="round" stroke-linecap="round"><title>Story County</title></path>
<path id="19171" d="M -10274653.188547943 -5205651.563410507 l -61.561348197981715 20189.405657033436 175.99355458840728 29839.77190170437 -45.08550695888698 15177.005718978122 -23262.650062203407 75.18294674344361 -28825.951486933976 -21.227447226643562 31.17068193294108 -14074.21882101614 -185.23251572996378 -38036.15646167938 -69.23961007967591 -13021.842997169122 26113.3188032005 -48.30798743665218 z" vector-effect="non-scaling-stroke" fill="#000" fill-opacity="1" stroke="#FFF" stroke-width="0.3px" stroke-linejoin="round" stroke-linecap="round"><title>Tama County</title></path>
<path id="19173" d="M -10534379.207232833 -4949979.648246233 l -7600.356061348692 -187.1823601592332 -12349.506072793156 -304.1525387391448 -12349.505972689018 -307.74038140662014 998.6737638525665 -21417.110237019137 -1714.7649909034371 -18.949439710006118 7.794479427859187 -25483.174283917062 25806.5225092154 124.00933777820319 25142.16812211089 45.510274277068675 -93.73145652376115 4855.637991265394 -748.6383362170309 43117.82388388645 -12349.506072793156 -307.71150183305144 z" vector-effect="non-scaling-stroke" fill="#000" fill-opacity="1" stroke="#FFF" stroke-width="0.3px" stroke-linejoin="round" stroke-linecap="round"><title>Taylor County</title></path>
<path id="19175" d="M -10516418.586219952 -5035609.37998184 l 25488.371515844017 63.87468801345676 25319.38852882199 55.00315371155739 -68.35317297652364 38325.97901753429 -25335.3072160054 -132.545893965289 -25423.69489169307 -231.3688585832715 z" vector-effect="non-scaling-stroke" fill="#000" fill-opacity="1" stroke="#FFF" stroke-width="0.3px" stroke-linejoin="round" stroke-linecap="round"><title>Union County</title></path>
<path id="19177" d="M -10235155.216857787 -4954329.171552027 l -11218.917415350676 200.46285412367433 -11218.917415343225 200.4586218027398 -3815.081230983138 68.1666438318789 180.83148845285177 -11809.366950185038 -99.29453676380217 -31891.073558563367 15754.597801230848 -37.8488040342927 16402.58844581805 -194.55299676116556 19139.2659169212 72.6099577350542 -58.6662622038275 12844.216176825576 -1324.0465871058404 28599.36193932686 -11653.75920667313 801.9859253177419 z" vector-effect="non-scaling-stroke" fill="#000" fill-opacity="1" stroke="#FFF" stroke-width="0.3px" stroke-linejoin="round" stroke-linecap="round"><title>Van Buren County</title></path>
<path id="19179" d="M -10261326.595967775 -4997560.523941017 l -21831.08185587637 103.53264682088047 -29377.984619138762 19.290710870176554 -141.37274768203497 -38723.46911216248 25614.05122094974 -95.22164727002382 25635.980826677755 -106.46033666655421 z" vector-effect="non-scaling-stroke" fill="#000" fill-opacity="1" stroke="#FFF" stroke-width="0.3px" stroke-linejoin="round" stroke-linecap="round"><title>Wapello County</title></path>
<path id="19181" d="M -10414778.68705082 -5036157.185401772 l -25786.0397229027 -112.96939424611628 -175.65959612466395 -32207.71417481359 18.03542730025947 -19665.946480701678 27087.364125002176 95.44165613967925 9893.952649360523 184.2916999636218 886.8812608756125 -1060.0441100848839 4606.604904651642 2322.724899441935 8977.607719363645 1578.206187077798 57.9935585167259 48956.50283917133 z" vector-effect="non-scaling-stroke" fill="#000" fill-opacity="1" stroke="#FFF" stroke-width="0.3px" stroke-linejoin="round" stroke-linecap="round"><title>Warren County</title></path>
<path id="19183" d="M -10184142.689241799 -5036324.844465963 l -14476.093783425167 -166.202515440993 -11146.974093636498 104.54082289803773 -16027.998470621184 166.64179802220315 -9535.068200910464 -277.54372303839773 85.82810664176941 -11320.531578050926 -245.2320514805615 -14440.263255216181 102.30105356499553 -25712.111199834384 13005.67507481575 -103.01922722160816 21827.4082013648 111.04955873638391 12438.057102575898 -50.840098936110735 313.92074139788747 2045.9145325291902 1849.0161854811013 1268.4450099095702 292.8811349980533 4325.128583930433 1706.9721812717617 5312.120361428708 z" vector-effect="non-scaling-stroke" fill="#000" fill-opacity="1" stroke="#FFF" stroke-width="0.3px" stroke-linejoin="round" stroke-linecap="round"><title>Washington County</title></path>
<path id="19185" d="M -10394384.901739744 -4951145.7549633905 l -7863.697157209739 -91.01853926945478 -12988.179847439751 -153.8811339698732 610.5947205424309 -26809.229554983787 -39.40554126724601 -19150.785768217407 18178.913115127012 93.07725047133863 32910.59644941799 -116.0478481343016 289.30290351063013 46594.917030955665 -12988.179947547615 -153.87381294369698 -12988.179847443476 -153.8760961117223 z" vector-effect="non-scaling-stroke" fill="#000" fill-opacity="1" stroke="#FFF" stroke-width="0.3px" stroke-linejoin="round" stroke-linecap="round"><title>Wayne County</title></path>
<path id="19187" d="M -10456414.935215805 -5192501.660444661 l -25947.564304048195 21.790111903101206 -25921.181584725156 118.57740005571395 -16.137875266373158 -39780.8501377292 -4998.466328443959 -11.168748058378696 -50.20397715270519 -12908.056410636753 -6.56673676148057 -13054.688907174394 30564.872696017846 55.846529425121844 21907.669776862487 13.319718436338007 14.581628780812025 13091.921798744239 -0.334960350766778 12883.159866470844 4441.868985801935 124.20804124325514 z" vector-effect="non-scaling-stroke" fill="#000" fill-opacity="1" stroke="#FFF" stroke-width="0.3px" stroke-linejoin="round" stroke-linecap="round"><title>Webster County</title></path>
<path id="19189" d="M -10424911.176292364 -5388474.202485153 l 13574.384557342157 -5.618878564797342 3264.453008113429 0 -36.50533457286656 37544.50542493723 -46078.241160698235 73.6679267687723 -6549.925737669691 -57.317877299152315 -39.5797508135438 -37544.499063416384 13233.786815548316 -1.369574427604675 z" vector-effect="non-scaling-stroke" fill="#000" fill-opacity="1" stroke="#FFF" stroke-width="0.3px" stroke-linejoin="round" stroke-linecap="round"><title>Winnebago County</title></path>
<path id="19191" d="M -10211445.624954116 -5388521.357902534 l 13371.885214917362 -5.535552144981921 -2.557247310876846 24333.66648342926 767.3250274006277 13.7758609354496 -146.38846997730434 39772.10897288378 -28889.62590170838 -44.354691894724965 -24080.514027105644 -129.55459549929947 18.925983231514692 -19858.47844079323 130.68963120505214 -44071.74758055154 19950.1292114947 -2.064664472825825 z" vector-effect="non-scaling-stroke" fill="#000" fill-opacity="1" stroke="#FFF" stroke-width="0.3px" stroke-linejoin="round" stroke-linecap="round"><title>Winneshiek County</title></path>
<path id="19193" d="M -10740400.576603746 -5238943.153092629 l 54.355248944833875 -5340.7131900936365 -793.5861940924078 -1822.730983093381 6659.217862082645 553.5721352193505 21804.142761748284 105.4953031912446 41598.412673816085 118.94685759488493 13171.541116097942 -101.86354668159038 -25.82723505795002 12977.384189191274 8079.343776404858 107.91335576120764 -183.90169122628868 22546.649312637746 10.573793157935143 17099.48661991395 -38857.170880949125 -41.935987846925855 -15000.519904552028 -329.4560628468171 -21897.744911627844 1221.901500123553 407.66426696814597 -2774.1651007076725 924.0387314837426 -2506.9867072673514 513.6568222083151 -2907.9067807616666 -135.72077154368162 -2446.2698861947283 -57.24034218862653 -1031.9054985390976 -652.26258687675 -2538.7349003078416 -1195.8147759828717 -1980.758963065222 -1570.8658335153013 -1341.565508321859 -138.60596489720047 -2433.6802600044757 -3753.227917311713 -4604.381173015572 551.7055164910853 -6377.015697185881 1524.6639119535685 -6650.216567951255 -1549.1237940005958 -6230.998787858523 -1905.150454344228 -1496.6416579121724 -2660.6880542598665 -943.8172369878739 z" vector-effect="non-scaling-stroke" fill="#000" fill-opacity="1" stroke="#FFF" stroke-width="0.3px" stroke-linejoin="round" stroke-linecap="round"><title>Woodbury County</title></path>
<path id="19195" d="M -10358123.282813845 -5388483.3430817 l 2701.3665863610804 -0.559164058417082 22.50218133442104 37536.51610947773 -17782.61561658606 78.40869812574238 -34926.814398745075 -66.33850062638521 36.50533457286656 -37544.50542493723 32936.12356701866 0 11156.208014197648 -2.30941697396338 z" vector-effect="non-scaling-stroke" fill="#000" fill-opacity="1" stroke="#FFF" stroke-width="0.3px" stroke-linejoin="round" stroke-linecap="round"><title>Worth County</title></path>
<path id="19197" d="M -10408216.1606147 -5298053.1919161305 l -98.07703549228609 53164.57225236762 -31063.13862549141 47.60209692642093 -21490.55564485863 -113.9515228588134 -14.581628780812025 -13091.921798744239 52.991528522223234 -39894.74997592624 17604.72718161717 -140.7350699827075 z" vector-effect="non-scaling-stroke" fill="#000" fill-opacity="1" stroke="#FFF" stroke-width="0.3px" stroke-linejoin="round" stroke-linecap="round"><title>Wright County</title></path>
</svg>
