<svg xmlns="http://www.w3.org/2000/svg" xmlns:xlink="http://www.w3.org/1999/xlink" height="1080" width="1920" viewBox="-11360294.684416642 -4865957.064689547 828305.610552391 426876.9316688748">
<path id="20001" d="M -10584001.554887246 -4584752.816870488 l -272.73431091569364 22965.88763911277 43.191405829042196 7769.627101971768 -918.3854650873691 0.281701298430562 -3.340475279837847 12299.08693963103 -48696.25305649266 -23.227936499752104 67.01522402092814 -12085.62063031178 625.0587181635201 -353.9932294553146 35.29039364680648 -30644.693555871025 z" vector-effect="non-scaling-stroke" fill="#000" fill-opacity="1" stroke="#FFF" stroke-width="0.3px" stroke-linejoin="round" stroke-linecap="round"><title>Allen County</title></path>
<path id="20003" d="M -10584001.554887246 -4584752.816870488 l -49120.15756611526 -72.65197012387216 245.79555074498057 -31294.243936009705 1033.3784990739077 6.805059214122593 -95.06550930254161 -18592.784509397112 26593.106142478064 24.856291638687253 22665.421550689265 22.44152408465743 84.93543564714491 18393.51253550127 -1156.7206061929464 227.6818222431466 z" vector-effect="non-scaling-stroke" fill="#000" fill-opacity="1" stroke="#FFF" stroke-width="0.3px" stroke-linejoin="round" stroke-linecap="round"><title>Anderson County</title></path>
<path id="20005" d="M -10582082.844721224 -4811114.20736874 l 119.58156770095229 3115.014757138677 -92.4038431160152 1611.8068190813065 -407.6642669700086 1191.9354746863246 -1252.8878674600273 832.1546138962731 -2954.2061382606626 176.29504974931479 -804.4572639036924 426.62133292946965 -182.08994380012155 2947.068559593521 1304.5252738669515 2903.9179135402665 2002.989882413298 2223.1838269615546 1886.1260571442544 884.2039459412917 684.8757963161916 1091.936956435442 2478.598010342568 5137.552788516507 1084.3867358900607 1647.4037870522588 885.9900372065604 573.7116812709719 2051.9095463976264 939.6901238653809 4663.677936675027 3406.0791225936264 -24873.36707565002 108.42000491265208 -30980.205938806757 -250.5936116958037 -12374.716534959152 272.0610271245241 2.450587272644043 -21004.610071740113 675.3751280047 -167.93955898936838 9.797117061913013 -12592.226113329642 24977.638026043773 1.30314555298537 25003.352828416973 60.87201950792223 1800.0353868920356 2602.755047827959 -171.4320158176124 1571.2420947942883 z" vector-effect="non-scaling-stroke" fill="#000" fill-opacity="1" stroke="#FFF" stroke-width="0.3px" stroke-linejoin="round" stroke-linecap="round"><title>Atchison County</title></path>
<path id="20007" d="M -10947953.643401971 -4439080.133020672 l -22187.42425413616 0 -25720.890205046162 0 -25726.325589781627 0 688.8910915423185 -34933.55107243452 95.06806965172291 -18794.33466301672 -1104.400334207341 4.623103816062212 -122.33922982402146 -12077.529292993248 14802.816822865978 31.839860934764147 18321.06855014153 -129.03796482551843 7548.9066254179925 90.88922553230077 20323.037715975195 -76.72092129383236 -32.060903903096914 12185.36080014892 12818.10217810981 4.203777910210192 108.86890352144837 22642.463687361218 z" vector-effect="non-scaling-stroke" fill="#000" fill-opacity="1" stroke="#FFF" stroke-width="0.3px" stroke-linejoin="round" stroke-linecap="round"><title>Barber County</title></path>
<path id="20009" d="M -10963422.467483731 -4678343.532324976 l 684.7260765507817 23.53445284627378 -46.756078565493226 24911.939691039734 59.664464078843594 37076.51642527338 -23884.481183048338 -7.090449279174209 -24287.568947900087 -36.57912876363844 -13332.509433742613 -18.289683986455202 -7.234876343980432 -12357.110390093178 -62.335129983723164 -49575.95224601589 36904.73944511823 8.560775681398809 z" vector-effect="non-scaling-stroke" fill="#000" fill-opacity="1" stroke="#FFF" stroke-width="0.3px" stroke-linejoin="round" stroke-linecap="round"><title>Barton County</title></path>
<path id="20011" d="M -10532815.27316766 -4584661.084635221 l 0 2216.477138590999 0 18030.701004110277 -2.717742420732975 17996.01045528706 -3.953520445153117 13069.953493924811 -29578.629105260596 -234.44483207445592 -22747.686654387042 35.581573171541095 -4.563542526215315 -8171.127686263062 3.340475279837847 -12299.08693963103 918.3854650873691 -0.281701298430562 -43.191405829042196 -7769.627101971768 272.73431091569364 -22965.88763911277 13952.001954734325 90.17483285069466 18523.781008915976 -76.4626829745248 z" vector-effect="non-scaling-stroke" fill="#000" fill-opacity="1" stroke="#FFF" stroke-width="0.3px" stroke-linejoin="round" stroke-linecap="round"><title>Bourbon County</title></path>
<path id="20013" d="M -10663082.879624624 -4865957.064689547 l 5750.668170111254 0 23331.978295393288 0 20812.405742069706 0 10.905525235459208 50317.84889589436 -24977.638026043773 -1.30314555298537 -25020.718668982387 -3.18289721943438 -6.566625438630581 -16165.983558917418 z" vector-effect="non-scaling-stroke" fill="#000" fill-opacity="1" stroke="#FFF" stroke-width="0.3px" stroke-linejoin="round" stroke-linecap="round"><title>Brown County</title></path>
<path id="20015" d="M -10780264.555435887 -4591527.45340855 l 35398.47563784011 -105.78893237840384 -107.98113058134913 18510.33259430621 -243.0120068807155 22070.717188348994 70.6860955413431 26995.12705134973 -43.415937239304185 18336.81291979272 -20155.612979184836 113.75761680770665 -49713.0452854 7.010096193291247 50.31885886564851 -36865.33580479678 44.86353589966893 -24639.477669547312 -48.64494768343866 -24717.622527466156 13763.204320985824 185.4214697778225 z" vector-effect="non-scaling-stroke" fill="#000" fill-opacity="1" stroke="#FFF" stroke-width="0.3px" stroke-linejoin="round" stroke-linecap="round"><title>Butler County</title></path>
<path id="20017" d="M -10744866.079798046 -4591633.242340928 l -35398.47563784011 105.78893237840384 -17.475378941744566 -24874.110806013457 349.98836773633957 -222.44415972102433 14.583743849769235 -12169.168222659267 2023.6764665357769 19.02060340438038 -27.6054526027292 -24722.53220606316 14487.893983405083 72.85119006596506 37380.6299343016 41.976701001636684 -185.01544272713363 36735.45511377882 -200.2647658083588 12656.96765951626 -95.51290234178305 12434.408720463514 z" vector-effect="non-scaling-stroke" fill="#000" fill-opacity="1" stroke="#FFF" stroke-width="0.3px" stroke-linejoin="round" stroke-linecap="round"><title>Chase County</title></path>
<path id="20019" d="M -10682692.834961474 -4439080.133020672 l -4480.392345542088 0 -25723.60784735717 0 -25726.32568989508 0 -6545.050404502079 0 69.35493706539273 -42306.815111042 37647.35132292658 237.76849348749965 24744.31259597838 251.7561249313876 z" vector-effect="non-scaling-stroke" fill="#000" fill-opacity="1" stroke="#FFF" stroke-width="0.3px" stroke-linejoin="round" stroke-linecap="round"><title>Chautauqua County</title></path>
<path id="20021" d="M -10532831.579722319 -4439080.133020672 l -25720.8902050443 0 -22317.344720480964 0 -3403.545384451747 0 660.3025981970131 -33832.973142908886 -105.20036970824003 -13678.878569410183 18521.11368260905 -6.299439151771367 32373.717726262286 215.76389819849283 0 11647.011425735429 0 17842.72655800078 -4.514777947217226 9867.180968965404 z" vector-effect="non-scaling-stroke" fill="#000" fill-opacity="1" stroke="#FFF" stroke-width="0.3px" stroke-linejoin="round" stroke-linecap="round"><title>Cherokee County</title></path>
<path id="20023" d="M -11360110.66070619 -4803387.502712496 l -2.726429706439376 -848.8762143403292 -23.66711887344718 -7371.804372575134 -38.048594173043966 -13562.114845629781 -40.76643670722842 -13577.029765665531 -40.76643670536578 -13592.016805941239 -38.04869428835809 -13617.719972899184 26318.797643087804 0 23334.695937709883 0 21618.104092158377 0 132.57939846254885 24767.304472182877 -68.01721074804664 12628.230078781024 -385.6127198599279 25147.983018103987 -21001.19605388865 -11.987646151334047 z" vector-effect="non-scaling-stroke" fill="#000" fill-opacity="1" stroke="#FFF" stroke-width="0.3px" stroke-linejoin="round" stroke-linecap="round"><title>Cheyenne County</title></path>
<path id="20025" d="M -11080865.40835878 -4439080.133020672 l -17896.416676986963 0 -25726.325689893216 0 -7745.289788141847 0 -9675.88780203648 0 -192.02489710785449 -17467.27605716698 -35.73088487610221 -36624.319788815454 -1758.6248702760786 -28.020813909359276 19.815759919583797 -12300.167814711109 37028.97210816108 1042.141029524617 24311.39143024385 -42.21483538672328 38.40444508753717 12138.031678633764 1400.95534635894 -1.680968632921576 -166.75726512447 10875.347663283348 59.55481437779963 14987.093072827905 226.75702350959182 10718.170420083217 z" vector-effect="non-scaling-stroke" fill="#000" fill-opacity="1" stroke="#FFF" stroke-width="0.3px" stroke-linejoin="round" stroke-linecap="round"><title>Clark County</title></path>
<path id="20027" d="M -10793409.922445389 -4803130.326042883 l -213.51078334078193 18568.212537698448 -67.90889688767493 31318.750551335514 -199.25699046067894 12604.17915456649 -26219.85623130575 -174.0810093889013 -19195.92798301764 222.7275257240981 146.38702282123268 -25008.769878835417 140.82205015979707 -37620.26482191309 16851.874021982774 74.36996379867196 z" vector-effect="non-scaling-stroke" fill="#000" fill-opacity="1" stroke="#FFF" stroke-width="0.3px" stroke-linejoin="round" stroke-linecap="round"><title>Clay County</title></path>
<path id="20029" d="M -10839019.17425742 -4803219.571983696 l -140.82205015979707 37620.26482191309 -39318.59050424211 -122.14571586530656 -22977.56140287593 59.27133035287261 -58.33052262105048 -11781.65181081742 147.38900955952704 -25764.19108527992 -354.99774481728673 5.054192719981074 40.2985462192446 -12551.502939444967 35409.94176802598 57.548113129101694 27241.987231675535 -97.4492234038189 z" vector-effect="non-scaling-stroke" fill="#000" fill-opacity="1" stroke="#FFF" stroke-width="0.3px" stroke-linejoin="round" stroke-linecap="round"><title>Cloud County</title></path>
<path id="20031" d="M -10631937.603912845 -4634705.692226805 l 95.06550930254161 18592.784509397112 -1033.3784990739077 -6.805059214122593 -245.79555074498057 31294.243936009705 -20276.060668222606 -111.80206942837685 -28712.183301297948 -168.199930973351 21.37456674128771 -18492.72354070563 67.34918249025941 -12583.758646801114 917.6063399706036 4.111329670064151 -32.05834355764091 -24754.29535945598 18619.18181252852 54.99837638903409 14188.33323368989 -115.67799655348063 16397.35665238835 85.12622162606567 z" vector-effect="non-scaling-stroke" fill="#000" fill-opacity="1" stroke="#FFF" stroke-width="0.3px" stroke-linejoin="round" stroke-linecap="round"><title>Coffey County</title></path>
<path id="20033" d="M -11021588.283450935 -4439080.133020672 l -25723.607947466895 0 -22421.933125972748 0 -3304.392664035782 0 -7827.191170370206 0 -111.20694678463042 -16702.896414269693 -226.75702350959182 -10718.170420083217 -59.55481437779963 -14987.093072827905 166.75726512447 -10875.347663283348 25682.06809774041 -176.93637659866363 33505.37715663947 -262.81868457235396 1104.400334207341 -4.623103816062212 -95.06806965172291 18794.33466301672 z" vector-effect="non-scaling-stroke" fill="#000" fill-opacity="1" stroke="#FFF" stroke-width="0.3px" stroke-linejoin="round" stroke-linecap="round"><title>Comanche County</title></path>
<path id="20035" d="M -10745168.21124877 -4439080.133020672 l -19178.55754296854 0 -5795.07309271954 0 -19928.53475463763 0 -24363.586734764278 0 -220.29971380718052 -22129.534617737867 -158.07100526243448 -38856.25562625006 -246.12694886140525 -5533.561609469354 49713.0452854 -7.010096193291247 20155.612979184836 -113.75761680770665 90.94646550156176 24333.304455416277 z" vector-effect="non-scaling-stroke" fill="#000" fill-opacity="1" stroke="#FFF" stroke-width="0.3px" stroke-linejoin="round" stroke-linecap="round"><title>Cowley County</title></path>
<path id="20037" d="M -10532821.944430526 -4533347.942543308 l -0.831249229609966 2745.946492274292 -0.650715179741383 2149.066946970299 0 17937.545367460698 0 17900.039818619378 0 2626.878792932257 0 3605.944851106964 -32373.717726262286 -215.76389819849283 -18521.11368260905 6.299439151771367 21.600767953321338 -6149.737880663015 -1471.3093758560717 -1.961364445276558 19.706221535801888 -40803.12182411179 22747.686654387042 -35.581573171541095 z" vector-effect="non-scaling-stroke" fill="#000" fill-opacity="1" stroke="#FFF" stroke-width="0.3px" stroke-linejoin="round" stroke-linecap="round"><title>Crawford County</title></path>
<path id="20039" d="M -11153499.432908354 -4865957.064689547 l 1759.4041067101061 0 -245.1280790772289 31109.144340098836 -39.52097957767546 31646.807152950205 -30538.93614521809 -104.55254159588367 -29558.21165397577 -60.65355803724378 -2299.860123189166 -1.299814927391708 77.59324730932713 -44331.7653167611 150.394190531224 -18257.680261727422 20215.11642804742 0 23331.978295391425 0 z" vector-effect="non-scaling-stroke" fill="#000" fill-opacity="1" stroke="#FFF" stroke-width="0.3px" stroke-linejoin="round" stroke-linecap="round"><title>Decatur County</title></path>
<path id="20041" d="M -10839306.383330401 -4740590.537282947 l 19195.92798301764 -222.7275257240981 26219.85623130575 174.0810093889013 3.333573469892144 23985.80644506123 4112.370640138164 -1965.781995570287 -56.224357852712274 15502.83430047147 4059.267569486052 40.45890689548105 -2.119077829644084 8274.845348691568 -4115.480461431667 1.285480449907482 -15.585953222587705 16580.733247311786 -729.1428873389959 5796.999488678761 404.9796395916492 6553.46812272165 -49161.457319838926 1.278419859707356 33.06567362509668 -49767.798670731485 z" vector-effect="non-scaling-stroke" fill="#000" fill-opacity="1" stroke="#FFF" stroke-width="0.3px" stroke-linejoin="round" stroke-linecap="round"><title>Dickinson County</title></path>
<path id="20043" d="M -10613187.82741705 -4865957.064689547 l 2519.572553323582 0 6321.51202834025 5869.856892053038 1454.0021083578467 2244.170222243294 1250.1700249258429 375.7514928402379 1405.0824443716556 226.86193542461842 983.8295653890818 453.7082001408562 741.9486875720322 1236.9586900565773 426.68856405094266 1211.999447207898 505.50349482148886 1087.8384908968583 983.8294652812183 878.6881430316716 970.2406530417502 297.60262574534863 2318.25020615384 262.1662185266614 1271.9121645502746 517.2267675586045 1220.274658029899 921.0222732461989 2962.359465651214 3495.5656379479915 2350.863215368241 1154.2940237987787 2600.897320460528 -701.0584423681721 2334.556760819629 -1536.8358407551423 3342.8460080362856 -2950.3988575246185 1663.2697767429054 -928.1574696302414 1921.457009004429 -428.6822344036773 2609.0505477357656 -102.74470214173198 1445.8487809691578 747.5325133679435 758.2554424516857 1739.3008731557056 -54.35524894297123 1986.8942900402471 -972.9584955777973 1469.5506283631548 1644.2454796507955 2018.065279875882 4919.147426515818 2969.7063240632415 1035.4669717941433 1489.828955957666 -114.14608284644783 1486.067904596217 -529.9633768685162 2844.1405943771824 -116.86372516304255 1648.0981270344928 415.8174942396581 1768.0426080934703 826.1993034146726 1032.3918493837118 600.6252805832773 1000.4695316394791 -252.75184752233326 1640.1287789773196 -1774.6979169454426 1805.95061232429 -2456.855970831588 -201.43027195427567 -5373.013514921069 -1604.5203403700143 -910.4499192554504 484.21068117395043 -597.907438043505 1183.9196374798194 -326.13129343651235 1469.9853166807443 -331.56687840260565 3532.733134771697 -649.5449445657432 918.3060286855325 -967.5228105094284 466.1846085404977 -1190.3792911283672 836.958558332175 -3549.395934002474 3580.1197234094143 -1771.9801745153964 2460.147510114126 -758.2553423438221 2484.240348798223 -4462.120971098542 -290.1392627824098 171.4320158176124 -1571.2420947942883 -1800.0353868920356 -2602.755047827959 -25003.352828416973 -60.87201950792223 z" vector-effect="non-scaling-stroke" fill="#000" fill-opacity="1" stroke="#FFF" stroke-width="0.3px" stroke-linejoin="round" stroke-linecap="round"><title>Doniphan County</title></path>
<path id="20045" d="M -10596179.00337708 -4727988.632544424 l 87.11755441315472 9334.70305430051 8715.349433680996 2129.618152366951 1490.2389514613897 -122.33728880714625 1078.0451989248395 -611.7085794741288 991.9827670790255 -850.6275398666039 1227.522054238245 -780.7757510608062 963.1102103181183 -422.4330498659983 -4.917611980810762 35017.90212360304 -30622.870484683663 -7.566213493235409 -18839.260334508494 -23.97755263093859 1.559808697551489 -18713.984243018553 51.79039441794157 -30344.114752830938 8725.98131782934 -404.52793660294265 3302.079621920362 484.3338358262554 9371.74586797133 3576.350284041837 2763.0570224579424 1662.3101179068908 z" vector-effect="non-scaling-stroke" fill="#000" fill-opacity="1" stroke="#FFF" stroke-width="0.3px" stroke-linejoin="round" stroke-linecap="round"><title>Douglas County</title></path>
<path id="20047" d="M -11023092.823590983 -4579458.225097738 l -54.32569262012839 24418.741203837097 1035.9389586821198 259.458026971668 -25.827012421563268 13009.137916995212 -36241.60957242362 -100.22104203701019 -24542.15662333183 -169.75578585453331 -77.03219707682729 -12774.53931089677 -1144.5867816954851 -100.76695517916232 76.25474174879491 -12227.513390668668 35.512698674574494 -24631.15809942875 12913.502981716767 -115.97645703144372 11486.721402177587 142.42662888672203 7.791473802179098 12218.259476903826 11919.642790554091 105.81009365990758 z" vector-effect="non-scaling-stroke" fill="#000" fill-opacity="1" stroke="#FFF" stroke-width="0.3px" stroke-linejoin="round" stroke-linecap="round"><title>Edwards County</title></path>
<path id="20049" d="M -10745189.802777207 -4505720.25258713 l 43.415937239304185 -18336.81291979272 16699.922917047516 -2.106627573259175 31026.51506961696 246.04411926772445 15091.468039849773 213.2982803778723 -170.9876284133643 14281.85967688635 108.6467098146677 16177.936406191438 -346.09218554757535 1.401027497835457 29.721524799242616 12241.209110979922 -24744.31259597838 -251.7561249313876 -37647.35132292658 -237.76849348749965 z" vector-effect="non-scaling-stroke" fill="#000" fill-opacity="1" stroke="#FFF" stroke-width="0.3px" stroke-linejoin="round" stroke-linecap="round"><title>Elk County</title></path>
<path id="20051" d="M -11025937.134987185 -4740741.668203655 l 1134.0113187544048 -15.355751314200461 -194.36683654785156 39267.80334469676 -376.2615486755967 23160.37469966244 -20495.026217935607 -19.256926342844963 -39891.106756709516 51.48717536777258 -1473.201807199046 4.991965362802148 216.62873095832765 -13468.609028463252 303.3481727577746 -34195.064543699846 208.83647792227566 -14706.153156703338 24928.43514507264 -50.944327735342085 z" vector-effect="non-scaling-stroke" fill="#000" fill-opacity="1" stroke="#FFF" stroke-width="0.3px" stroke-linejoin="round" stroke-linecap="round"><title>Ellis County</title></path>
<path id="20053" d="M -10962784.497485746 -4653408.05818109 l 46.756078565493226 -24911.939691039734 -684.7260765507817 -23.53445284627378 138.81729744933546 -24835.86001272034 16437.765738869086 24.5937882931903 10327.217920033261 -125.39365454949439 8332.15033999458 155.70686656050384 26786.91348726861 -101.65706659387797 54.210699586197734 24868.922071319073 367.3542082980275 21.96538736578077 40.63083490356803 12392.918611290865 58.552938958629966 12404.233706322499 -4357.043756449595 66.73192128259689 -42995.47239459492 73.13131077773869 z" vector-effect="non-scaling-stroke" fill="#000" fill-opacity="1" stroke="#FFF" stroke-width="0.3px" stroke-linejoin="round" stroke-linecap="round"><title>Ellsworth County</title></path>
<path id="20055" d="M -11208517.650202125 -4616807.925378193 l 27200.465618204325 153.54710037633777 22162.369217075408 110.16146806254983 1922.0419940780848 7.230664415284991 181.11480777524412 24720.41465139296 -122.56353860534728 12248.289005105384 -24402.78495482169 45.769025386311114 -24305.71424753219 -259.7964004483074 -111.98918885178864 24509.703542696312 1494.3526217713952 16.771763739176095 -55.994705744087696 13019.726205818355 -36489.184342585504 -72.49522323906422 -12203.730131058022 63.76433183904737 -24.377966606989503 -13067.797104830854 -1546.4500321466476 11.274945975281298 135.9239925649017 -37570.09848454408 -79.14637683704495 -23994.173101715744 21794.235883662477 -90.73753221519291 z" vector-effect="non-scaling-stroke" fill="#000" fill-opacity="1" stroke="#FFF" stroke-width="0.3px" stroke-linejoin="round" stroke-linecap="round"><title>Finney County</title></path>
<path id="20057" d="M -11082535.529669775 -4504499.991301137 l -24311.39143024385 42.21483538672328 -37028.97210816108 -1042.141029524617 -12142.727050103247 -49.936323657631874 122.56442916020751 -24015.54368600808 54.4370121024549 -25422.091242793016 -1425.4456343296915 -4.791906761005521 31.170347973704338 -12293.355952085927 23499.09332856722 149.70895896386355 26257.58964250423 -5.500892477110028 23413.043362183496 -2.255894476547837 -76.25474174879491 12227.513390668668 1144.5867816954851 100.76695517916232 77.03219707682729 12774.53931089677 z" vector-effect="non-scaling-stroke" fill="#000" fill-opacity="1" stroke="#FFF" stroke-width="0.3px" stroke-linejoin="round" stroke-linecap="round"><title>Ford County</title></path>
<path id="20059" d="M -10582679.076219678 -4634658.394411081 l -22665.421550689265 -22.44152408465743 -26593.106142478064 -24.856291638687253 6.790934214368463 -6201.998230040073 -83.15332191251218 -32029.630308448337 867.2902640905231 -5175.838386540301 53.99039831571281 -6212.676037519239 18839.260334508494 23.97755263093859 30622.870484683663 7.566213493235409 -28.832193398848176 6232.624821971171 -1014.4541856385767 44.642593717202544 92.39439812488854 9975.216419481672 z" vector-effect="non-scaling-stroke" fill="#000" fill-opacity="1" stroke="#FFF" stroke-width="0.3px" stroke-linejoin="round" stroke-linecap="round"><title>Franklin County</title></path>
<path id="20061" d="M -10793890.599116078 -4740639.183799283 l 199.25699046067894 -12604.17915456649 12492.815716700628 134.30270781181753 -175.1131287459284 18770.3988482384 11971.529361816123 81.95099099166691 4133.416814383119 -434.3012761985883 7.124113449826837 2533.7279958399013 22800.104330936447 55.94151645991951 0.779236439615488 4174.035517759621 -42.5242681261152 24903.350980969146 -43268.641742073 -51.91047044750303 -4059.267569486052 -40.45890689548105 56.224357852712274 -15502.83430047147 -4112.370640138164 1965.781995570287 z" vector-effect="non-scaling-stroke" fill="#000" fill-opacity="1" stroke="#FFF" stroke-width="0.3px" stroke-linejoin="round" stroke-linecap="round"><title>Geary County</title></path>
<path id="20063" d="M -11212242.389788715 -4740794.352018077 l 32994.30959705077 21.67306588217616 29001.05782518722 174.36790343280882 1830.3146223407239 -23.53545006737113 -69.24172514863312 12351.23626136221 -350.5468576196581 24589.185948009603 -8.016005214303732 12798.636336824857 -227.20397126302123 12473.059740344062 -10394.566211963072 -117.38857237435877 -14884.08005114086 -165.60162086971104 -34186.20716233365 -99.1360665941611 -14548.56332853064 22.82101193163544 154.51301169022918 -18559.29361044895 344.53527116030455 -20759.17557782866 262.38182091526687 -22703.836328607053 z" vector-effect="non-scaling-stroke" fill="#000" fill-opacity="1" stroke="#FFF" stroke-width="0.3px" stroke-linejoin="round" stroke-linecap="round"><title>Gove County</title></path>
<path id="20065" d="M -11148416.707744136 -4740621.846498829 l -1830.3146223407239 23.53545006737113 257.48487650603056 -37521.37758064829 44.75255037471652 -25137.309340734035 34530.406693907455 48.667531395331025 24882.348987199366 -71.76779249403626 2860.6874951682985 15.740593905560672 -11.133841507136822 23926.557174443267 -282.4185500238091 14083.169837223366 -32.8412535302341 24589.448928288184 -47923.807889115065 115.37790812458843 z" vector-effect="non-scaling-stroke" fill="#000" fill-opacity="1" stroke="#FFF" stroke-width="0.3px" stroke-linejoin="round" stroke-linecap="round"><title>Graham County</title></path>
<path id="20067" d="M -11253249.26705242 -4542244.839243049 l -95.62455578520894 15657.14597261604 97.17957775108516 33299.8102376787 -48552.76334605552 -94.01433823630214 -47.19690375030041 -35953.64740983676 -92.28285599127412 -12906.060599777848 22073.647805556655 30.124674065969884 z" vector-effect="non-scaling-stroke" fill="#000" fill-opacity="1" stroke="#FFF" stroke-width="0.3px" stroke-linejoin="round" stroke-linecap="round"><title>Grant County</title></path>
<path id="20069" d="M -11204556.352578776 -4542236.108351649 l 55.994705744087696 -13019.726205818355 -1494.3526217713952 -16.771763739176095 111.98918885178864 -24509.703542696312 24305.71424753219 259.7964004483074 24402.78495482169 -45.769025386311114 -61.67199977859855 12282.645882260054 -31.170347973704338 12293.355952085927 1425.4456343296915 4.791906761005521 -54.4370121024549 25422.091242793016 -122.56442916020751 24015.54368600808 -18559.40357994102 72.236647605896 -30021.857221800834 -24.26842267625034 z" vector-effect="non-scaling-stroke" fill="#000" fill-opacity="1" stroke="#FFF" stroke-width="0.3px" stroke-linejoin="round" stroke-linecap="round"><title>Gray County</title></path>
<path id="20071" d="M -11359542.053026581 -4616562.759336329 l -2.387313319370151 -897.9075528867543 -16.448616448789835 -6188.722960761748 -40.76633659377694 -13312.662989314646 -43.48417913168669 -13329.94735691417 -43.48417913727462 -13347.312464747578 -8.7078045476228 -3056.3213483290747 -29.340789625421166 -10304.955491906032 -4.39249174669385 -1440.6915438128635 28891.36275370978 -78.00437268614769 24443.639207948 -224.50765652395785 -23.825265342369676 37382.991287992336 -19.482803320512176 24695.355434884317 -30495.410558274016 116.6791300708428 z" vector-effect="non-scaling-stroke" fill="#000" fill-opacity="1" stroke="#FFF" stroke-width="0.3px" stroke-linejoin="round" stroke-linecap="round"><title>Greeley County</title></path>
<path id="20073" d="M -10745146.386839967 -4524057.065506923 l -70.6860955413431 -26995.12705134973 243.0120068807155 -22070.717188348994 107.98113058134913 -18510.33259430621 18332.422915566713 78.21352615207434 95.51290234178305 -12434.408720463514 44349.56212399714 391.24315351992846 -21.37456674128771 18492.72354070563 100.18531532026827 30804.342957708053 -364.45990153588355 -6.623475053347647 59.22107854485512 12349.117865364067 -13.470882900059223 18358.80375814438 -15091.468039849773 -213.2982803778723 -31026.51506961696 -246.04411926772445 z" vector-effect="non-scaling-stroke" fill="#000" fill-opacity="1" stroke="#FFF" stroke-width="0.3px" stroke-linejoin="round" stroke-linecap="round"><title>Greenwood County</title></path>
<path id="20075" d="M -11359311.04782704 -4542554.925638734 l -5.242509063333273 -1590.736133296974 -43.48417912982404 -13214.088928913698 -38.0486942846328 -13220.567976738326 -40.76643670536578 -13240.887735770084 -43.48417913168669 -13257.844381324016 -43.48417913354933 -13281.798631982878 -16.49502209201455 -6201.909909568727 22607.271624170244 13.992115064524114 30495.410558274016 -116.6791300708428 2801.9108040332794 -8.790015644393861 128.90607790462673 24950.718105464242 -178.4478154052049 36625.24360521883 1758.4022312872112 110.35225384123623 -11.355589933693409 12746.317021850497 -22269.903956500813 -89.10415836144239 z" vector-effect="non-scaling-stroke" fill="#000" fill-opacity="1" stroke="#FFF" stroke-width="0.3px" stroke-linejoin="round" stroke-linecap="round"><title>Hamilton County</title></path>
<path id="20077" d="M -10887302.792789537 -4439080.133020672 l -5667.451124276966 0 -25720.890104936436 0 -3084.179329479113 0 -22639.42871809937 0 -3538.9013356417418 0 -186.68055967241526 -31051.793458860368 -108.86890352144837 -22642.463687361218 22364.525301037356 -22.834438643418252 38053.77889513038 -290.5648571662605 277.2968515623361 -0.700510342605412 271.9517348986119 24401.54789015092 z" vector-effect="non-scaling-stroke" fill="#000" fill-opacity="1" stroke="#FFF" stroke-width="0.3px" stroke-linejoin="round" stroke-linecap="round"><title>Harper County</title></path>
<path id="20079" d="M -10815011.92359471 -4591821.92087594 l 48.64494768343866 24717.622527466156 -22029.453633746132 79.01342408359051 -39153.281171735376 -43.31988620199263 27.721113553270698 -36939.53502806369 36745.552573286 19.968654138036072 12054.561902076006 -173.0387856559828 12286.217651097104 36.959640610031784 z" vector-effect="non-scaling-stroke" fill="#000" fill-opacity="1" stroke="#FFF" stroke-width="0.3px" stroke-linejoin="round" stroke-linecap="round"><title>Harvey County</title></path>
<path id="20081" d="M -11253249.26705242 -4542244.839243049 l 12203.730131058022 -63.76433183904737 36489.184342585504 72.49522323906422 -43.528481248766184 36734.22275764588 -9.574478086084127 12227.1759003615 -46217.16955500096 -21.299276577308774 -2421.086937341839 8.125937464646995 -97.17957775108516 -33299.8102376787 z" vector-effect="non-scaling-stroke" fill="#000" fill-opacity="1" stroke="#FFF" stroke-width="0.3px" stroke-linejoin="round" stroke-linecap="round"><title>Haskell County</title></path>
<path id="20083" d="M -11084030.655071447 -4591774.842533999 l -35.512698674574494 24631.15809942875 -23413.043362183496 2.255894476547837 -26257.58964250423 5.500892477110028 -23499.09332856722 -149.70895896386355 61.67199977859855 -12282.645882260054 122.56353860534728 -12248.289005105384 -181.11480777524412 -24720.41465139296 36785.51638179831 111.1537603288889 34784.994480673224 -102.64188217371702 1521.0690769217908 31.47409632895142 z" vector-effect="non-scaling-stroke" fill="#000" fill-opacity="1" stroke="#FFF" stroke-width="0.3px" stroke-linejoin="round" stroke-linecap="round"><title>Hodgeman County</title></path>
<path id="20085" d="M -10638154.559917858 -4815640.518939205 l -9.797117061913013 12592.226113329642 -675.3751280047 167.93955898936838 -2.450587272644043 21004.610071740113 -2025.346258893609 -0.720637644641101 -101.74824097193778 29177.685646167956 -49660.83533102274 -33.912084106355906 102.9706403017044 -22986.74106815271 -145.2692638207227 -27367.565817615017 27279.39080321975 23.25129485409707 217.74181454442441 -12579.955974781886 z" vector-effect="non-scaling-stroke" fill="#000" fill-opacity="1" stroke="#FFF" stroke-width="0.3px" stroke-linejoin="round" stroke-linecap="round"><title>Jackson County</title></path>
<path id="20087" d="M -10638842.182750197 -4781875.743195146 l 12374.716534959152 -272.0610271245241 30980.205938806757 250.5936116958037 108.53639220446348 2136.47263964545 -23.49130686558783 39611.07029559091 -872.5219461973757 -2.870063995942473 95.73376020975411 12163.905194910243 -10697.468227762729 -76.83533960580826 -2763.0570224579424 -1662.3101179068908 -9371.74586797133 -3576.350284041837 -3302.079621920362 -484.3338358262554 -8725.98131782934 404.52793660294265 -7508.111089523882 348.2218948453665 -2029.2615509182215 -350.10923385526985 -1454.0021380465478 -822.8043942991644 587.3224729187787 -5991.845310593955 491.2528015524149 -87.5377585478127 -17.142311023548245 -12410.769198969938 101.74824097193778 -29177.685646167956 z" vector-effect="non-scaling-stroke" fill="#000" fill-opacity="1" stroke="#FFF" stroke-width="0.3px" stroke-linejoin="round" stroke-linecap="round"><title>Jefferson County</title></path>
<path id="20089" d="M -10939812.596790291 -4865957.064689547 l 2488.493264572695 0 23331.9781952817 0 12272.157937562093 0 -177.2226330935955 25060.72271282226 215.40109961107373 25141.868786606938 -40.2985462192446 12551.502939444967 -24372.28308038786 -25.128460572101176 -37472.4686255306 -58.05434542056173 -1988.2768684588373 -17.906587441451848 105.31024203822017 -25518.182074357755 -15.02512563019991 -37134.82297108229 4808.749209547415 0 z" vector-effect="non-scaling-stroke" fill="#000" fill-opacity="1" stroke="#FFF" stroke-width="0.3px" stroke-linejoin="round" stroke-linecap="round"><title>Jewell County</title></path>
<path id="20091" d="M -10532798.966613 -4727832.432737589 l 0 18280.989150696434 -1.449658626690507 9743.31352594681 -1.268083795905113 8515.28045048844 -2.107489539310336 7067.731180090457 -32303.3927693367 -25.072823581285775 -16523.37020464614 -44.10016928054392 4.917611980810762 -35017.90212360304 1641.4107534736395 -719.7054537562653 2423.3368967436254 -705.159953635186 2436.9257017746568 -29.139896486885846 2609.0505654662848 885.8154213633388 2695.112997315824 384.60628028120846 2418.8072950690985 -1241.2818051576614 2172.3990978393704 -2197.5207398710772 1981.2456391956657 -2051.96088234894 14.675111601129174 -1079.4900451675057 843.2451427634805 -2867.909765127115 1238.3177929408848 -1204.0188640411943 848.5454583577812 3006.7448736513034 6845.4101296029985 -775.1434854771942 z" vector-effect="non-scaling-stroke" fill="#000" fill-opacity="1" stroke="#FFF" stroke-width="0.3px" stroke-linejoin="round" stroke-linecap="round"><title>Johnson County</title></path>
<path id="20093" d="M -11254763.317435445 -4616865.632988164 l 79.14637683704495 23994.173101715744 -135.9239925649017 37570.09848454408 1546.4500321466476 -11.274945975281298 24.377966606989503 13067.797104830854 -26617.040278274566 33.35853650979698 -22073.647805556655 -30.124674065969884 11.355589933693409 -12746.317021850497 -1758.4022312872112 -110.35225384123623 178.4478154052049 -36625.24360521883 -128.90607790462673 -24950.718105464242 46406.190050367266 -184.59149445034564 z" vector-effect="non-scaling-stroke" fill="#000" fill-opacity="1" stroke="#FFF" stroke-width="0.3px" stroke-linejoin="round" stroke-linecap="round"><title>Kearny County</title></path>
<path id="20095" d="M -10948249.192865165 -4492774.390166894 l -12818.10217810981 -4.203777910210192 32.060903903096914 -12185.36080014892 -15.693487852811813 -36765.40606430266 32515.969745106995 0.706167289987206 40618.80204539746 -166.79306091554463 -58.55494271405041 12277.488339669071 83.3765174895525 24209.233683905564 60.44559294730425 12320.936216603033 -38053.77889513038 290.5648571662605 z" vector-effect="non-scaling-stroke" fill="#000" fill-opacity="1" stroke="#FFF" stroke-width="0.3px" stroke-linejoin="round" stroke-linecap="round"><title>Kingman County</title></path>
<path id="20097" d="M -11022031.063853772 -4504880.9249453 l 122.33922982402146 12077.529292993248 -33505.37715663947 262.81868457235396 -25682.06809774041 176.93637659866363 -1400.95534635894 1.680968632921576 -38.40444508753717 -12138.031678633764 -385.27386332303286 -37540.87347668875 24542.15662333183 169.75578585453331 36241.60957242362 100.22104203701019 -201.3778494000435 12585.931980631314 z" vector-effect="non-scaling-stroke" fill="#000" fill-opacity="1" stroke="#FFF" stroke-width="0.3px" stroke-linejoin="round" stroke-linecap="round"><title>Kiowa County</title></path>
<path id="20099" d="M -10584273.360032296 -4439080.133020672 l -25723.607947468758 0 -10737.124562500045 0 -12771.681727807969 0 111.09852160327137 -27131.341329582036 379.93386735394597 -8078.5271538430825 -347.9833923820406 -18475.120631540194 48194.75886178762 21.438157537952065 1471.3093758560717 1.961364445276558 -21.600767953321338 6149.737880663015 105.20036970824003 13678.878569410183 z" vector-effect="non-scaling-stroke" fill="#000" fill-opacity="1" stroke="#FFF" stroke-width="0.3px" stroke-linejoin="round" stroke-linecap="round"><title>Labette County</title></path>
<path id="20101" d="M -11159154.815366846 -4616544.216809754 l -22162.369217075408 -110.16146806254983 -27200.465618204325 -153.54710037633777 356.11105104349554 -988.5279320599511 -152.83976842090487 -24817.46878151782 -222.19080931693316 -36177.932380355895 34186.20716233365 99.1360665941611 14884.08005114086 165.60162086971104 -150.83846662193537 8466.859913975932 z" vector-effect="non-scaling-stroke" fill="#000" fill-opacity="1" stroke="#FFF" stroke-width="0.3px" stroke-linejoin="round" stroke-linecap="round"><title>Lane County</title></path>
<path id="20103" d="M -10570613.893200781 -4782005.630615488 l 418.53513655625284 858.3748629232869 578.8831409588456 2282.7796793291345 521.810149597004 794.8061581654474 4908.276256585494 1072.5368975745514 -989.2649501264095 2615.8071071868762 845.2236004918814 5739.030697936192 2445.9849010184407 5739.271294919774 3813.018751218915 2608.636302318424 1081.6688933614641 1386.5505319349468 133.17027982138097 3032.1953471703455 475.60822802968323 3031.2836613757536 2108.9824376609176 1382.019255281426 -9937.94857879728 685.2686255471781 -161.970527023077 10621.234175939113 -768.2155833244324 46.78195676393807 -88.46283452957869 17174.47436702717 -2172.3990978393704 2197.5207398710772 -2418.8072950690985 1241.2818051576614 -2695.112997315824 -384.60628028120846 -2609.0505654662848 -885.8154213633388 -2436.9257017746568 29.139896486885846 -2423.3368967436254 705.159953635186 -1641.4107534736395 719.7054537562653 -963.1102103181183 422.4330498659983 -1227.522054238245 780.7757510608062 -991.9827670790255 850.6275398666039 -1078.0451989248395 611.7085794741288 -1490.2389514613897 122.33728880714625 -8715.349433680996 -2129.618152366951 -87.11755441315472 -9334.70305430051 -95.73376020975411 -12163.905194910243 872.5219461973757 2.870063995942473 23.49130686558783 -39611.07029559091 -108.53639220446348 -2136.47263964545 z" vector-effect="non-scaling-stroke" fill="#000" fill-opacity="1" stroke="#FFF" stroke-width="0.3px" stroke-linejoin="round" stroke-linecap="round"><title>Leavenworth County</title></path>
<path id="20105" d="M -10901399.602700116 -4703226.142403986 l -26786.91348726861 101.65706659387797 -8332.15033999458 -155.70686656050384 -10327.217920033261 125.39365454949439 -16437.765738869086 -24.5937882931903 -131.68917649053037 -22862.736710966565 255.5905527304858 -14650.309921654873 -695.6352753266692 -3.73142724391073 -16.91956072486937 -12504.668488499708 34783.10171536729 96.2737581524998 27552.234763836488 -10.487031505443156 149.27832395397127 14531.720573315397 31.167676312848926 22870.53805979155 z" vector-effect="non-scaling-stroke" fill="#000" fill-opacity="1" stroke="#FFF" stroke-width="0.3px" stroke-linejoin="round" stroke-linecap="round"><title>Lincoln County</title></path>
<path id="20107" d="M -10532807.79078905 -4634484.377454281 l -4.764636186882854 15883.814396894537 -2.717742424458265 18090.347416360863 0 12597.99067481514 0 3251.140330988914 -18710.49875593558 -78.02008539065719 -18523.781008915976 76.4626829745248 -13952.001954734325 -90.17483285069466 250.69349702261388 -31284.383182848804 1156.7206061929464 -227.6818222431466 -84.93543564714491 -18393.51253550127 23896.05807613954 165.03333493787795 z" vector-effect="non-scaling-stroke" fill="#000" fill-opacity="1" stroke="#FFF" stroke-width="0.3px" stroke-linejoin="round" stroke-linecap="round"><title>Linn County</title></path>
<path id="20109" d="M -11222323.702953584 -4740791.33897708 l -262.38182091526687 22703.836328607053 -344.53527116030455 20759.17557782866 -154.51301169022918 18559.29361044895 -13867.95607314445 133.93534050602466 -20605.56658361107 -239.77621606271714 -9174.170857032761 -138.79016032535583 -30459.008973469958 195.5574955129996 418.22977593913674 -33363.786081559956 273.6256460789591 -28810.51464229077 9626.68447579071 -51.09066014923155 10257.643349608406 -57.549167400226 29258.98508535698 359.6487195501104 z" vector-effect="non-scaling-stroke" fill="#000" fill-opacity="1" stroke="#FFF" stroke-width="0.3px" stroke-linejoin="round" stroke-linecap="round"><title>Logan County</title></path>
<path id="20111" d="M -10726438.143980138 -4603989.437535239 l 200.2647658083588 -12656.96765951626 185.01544272713363 -36735.45511377882 129.91207214817405 -30974.38029517606 45272.40036871843 -12.983925080858171 -415.22203461639583 6238.661042898893 -69.911311885342 37198.426427586004 32.05834355764091 24754.29535945598 -917.6063399706036 -4.111329670064151 -67.34918249025941 12583.758646801114 z" vector-effect="non-scaling-stroke" fill="#000" fill-opacity="1" stroke="#FFF" stroke-width="0.3px" stroke-linejoin="round" stroke-linecap="round"><title>Lyon County</title></path>
<path id="20113" d="M -10900878.85401837 -4653538.102627688 l -58.552938958629966 -12404.233706322499 28357.18566780165 127.21744120772928 33189.56353862025 -52.13714190851897 -2.673671532422304 28195.76913158782 20.591656770557165 33683.315718606114 -36745.552573286 -19.968654138036072 -24523.120879093185 14.300023606047034 -12.80085089057684 -11888.715167121962 -324.273565357551 -652.0018504830077 z" vector-effect="non-scaling-stroke" fill="#000" fill-opacity="1" stroke="#FFF" stroke-width="0.3px" stroke-linejoin="round" stroke-linecap="round"><title>McPherson County</title></path>
<path id="20115" d="M -10780264.555435887 -4591527.45340855 l -20984.163837837055 -109.04599761217833 -13763.204320985824 -185.4214697778225 -20.036617785692215 -12302.329453623854 -12286.217651097104 -36.959640610031784 -12054.561902076006 173.0387856559828 -20.591656770557165 -33683.315718606114 2.673671532422304 -28195.76913158782 49161.457319838926 -1.278419859707356 35.287388022989035 12379.244130447507 12272.525353735313 -7.397875478491187 27.6054526027292 24722.53220606316 -2023.6764665357769 -19.02060340438038 -14.583743849769235 12169.168222659267 -349.98836773633957 222.44415972102433 z" vector-effect="non-scaling-stroke" fill="#000" fill-opacity="1" stroke="#FFF" stroke-width="0.3px" stroke-linejoin="round" stroke-linecap="round"><title>Marion County</title></path>
<path id="20117" d="M -10738290.41877521 -4865957.064689547 l 10959.554892314598 0 14032.999945487827 0 -56.10891953855753 50285.30953339767 81.81915781274438 12567.427796113305 -39295.917804498225 -16.32026992365718 -23886.225818526 -12.99841554556042 -22.039144104346633 -26545.112695851363 108.42796702124178 -36278.30594819039 2373.08822578378 0 23331.978095168248 0 z" vector-effect="non-scaling-stroke" fill="#000" fill-opacity="1" stroke="#FFF" stroke-width="0.3px" stroke-linejoin="round" stroke-linecap="round"><title>Marshall County</title></path>
<path id="20119" d="M -11141909.32831584 -4439080.133020672 l -8302.43025717698 0 -25723.607947468758 0 -25726.325589779764 0 -1027.7279675863683 -17719.571323804557 27.386264523491263 -23256.191515947692 156.18213614076376 -13211.808467666619 -2103.6038609240204 -7.005365550518036 9.574478086084127 -12227.1759003615 30021.857221800834 24.26842267625034 18559.40357994102 -72.236647605896 12142.727050103247 49.936323657631874 -19.815759919583797 12300.167814711109 1758.6248702760786 28.020813909359276 35.73088487610221 36624.319788815454 z" vector-effect="non-scaling-stroke" fill="#000" fill-opacity="1" stroke="#FFF" stroke-width="0.3px" stroke-linejoin="round" stroke-linecap="round"><title>Meade County</title></path>
<path id="20121" d="M -10532803.791844962 -4684225.118430367 l -3.328095419332385 11151.217548210174 0 18193.44495888613 0 7765.743533282541 0 10391.961556330323 -0.670848667621612 2238.373379376717 -25975.227354489267 -8.983621862716973 -23896.05807613954 -165.03333493787795 97.62941982038319 -33383.413176977076 -92.39439812488854 -9975.216419481672 1014.4541856385767 -44.642593717202544 28.832193398848176 -6232.624821971171 16523.37020464614 44.10016928054392 z" vector-effect="non-scaling-stroke" fill="#000" fill-opacity="1" stroke="#FFF" stroke-width="0.3px" stroke-linejoin="round" stroke-linecap="round"><title>Miami County</title></path>
<path id="20123" d="M -10901722.087472577 -4803202.970250673 l 354.99774481728673 -5.054192719981074 -147.38900955952704 25764.19108527992 58.33052262105048 11781.65181081742 -262.6030127443373 4196.000549550168 181.78406055271626 8351.128838330507 -27552.234763836488 10.487031505443156 -34783.10171536729 -96.2737581524998 47.86938479356468 -25902.132967289537 257.59508280456066 -24183.181203314103 37472.4686255306 58.05434542056173 z" vector-effect="non-scaling-stroke" fill="#000" fill-opacity="1" stroke="#FFF" stroke-width="0.3px" stroke-linejoin="round" stroke-linecap="round"><title>Mitchell County</title></path>
<path id="20125" d="M -10633505.774270073 -4439080.133020672 l -2217.5193995852023 0 -25723.607847355306 0 -1485.8385047409683 0 -19760.094939719886 0 -14.357431326061487 -41817.29049262311 -29.721524799242616 -12241.209110979922 346.09218554757535 -1.401027497835457 43251.729639764875 381.3555907867849 5283.221585892141 -4.903139512985945 493.14523289725184 -1.540935138240457 347.9833923820406 18475.120631540194 -379.93386735394597 8078.5271538430825 z" vector-effect="non-scaling-stroke" fill="#000" fill-opacity="1" stroke="#FFF" stroke-width="0.3px" stroke-linejoin="round" stroke-linecap="round"><title>Montgomery County</title></path>
<path id="20127" d="M -10726052.863771603 -4653381.8603085345 l -37380.6299343016 -41.976701001636684 -14487.893983405083 -72.85119006596506 -12272.525353735313 7.397875478491187 -35.287388022989035 -12379.244130447507 -404.9796395916492 -6553.46812272165 729.1428873389959 -5796.999488678761 15.585953222587705 -16580.733247311786 4115.480461431667 -1.285480449907482 2.119077829644084 -8274.845348691568 43268.641742073 51.91047044750303 17.704363137483597 6219.9460776289925 12358.68663960509 90.30759652517736 69.90774966031313 12362.741474195383 4133.959496906027 -5.280080082826316 z" vector-effect="non-scaling-stroke" fill="#000" fill-opacity="1" stroke="#FFF" stroke-width="0.3px" stroke-linejoin="round" stroke-linecap="round"><title>Morris County</title></path>
<path id="20129" d="M -11358992.876885196 -4439080.133020672 l -40.76643670722842 -13075.57669035811 -43.48417913727462 -13091.763619613834 -35.330751633271575 -13111.441714978777 -40.76643670536578 -13127.788198610768 -6.645986199378967 -2007.3322753543034 22531.876550275832 41.80218652822077 31399.324489558116 57.30595724005252 88.16347824037075 20992.990846233442 578.9467725139111 33321.803508914076 -25720.89010493271 0 -27444.260570703074 0 z" vector-effect="non-scaling-stroke" fill="#000" fill-opacity="1" stroke="#FFF" stroke-width="0.3px" stroke-linejoin="round" stroke-linecap="round"><title>Morton County</title></path>
<path id="20131" d="M -10687859.140691815 -4865957.064689547 l 7192.23329959251 0 17584.02776759863 0 -98.96558765508235 34147.379294204526 6.566625438630581 16165.983558917418 -217.74181454442441 12579.955974781886 -27279.39080321975 -23.25129485409707 -22599.742494529113 -17.330203538760543 -81.81915781274438 -12567.427796113305 56.10891953855753 -50285.30953339767 9298.978249793872 0 z" vector-effect="non-scaling-stroke" fill="#000" fill-opacity="1" stroke="#FFF" stroke-width="0.3px" stroke-linejoin="round" stroke-linecap="round"><title>Nemaha County</title></path>
<path id="20133" d="M -10633849.076789193 -4541741.161424974 l 48696.25305649266 23.227936499752104 4.563542526215315 8171.127686263062 -19.706221535801888 40803.12182411179 -48194.75886178762 -21.438157537952065 -493.14523289725184 1.540935138240457 59.3342904727906 -16072.120377233252 -123.45197945646942 -18768.179263668135 z" vector-effect="non-scaling-stroke" fill="#000" fill-opacity="1" stroke="#FFF" stroke-width="0.3px" stroke-linejoin="round" stroke-linecap="round"><title>Neosho County</title></path>
<path id="20135" d="M -11087233.086835498 -4678291.623696222 l 1473.201807199046 -4.991965362802148 -169.65179452486336 12227.333400694653 201.9306619875133 37169.62463826779 65.34365054033697 12371.183355438523 -34784.994480673224 102.64188217371702 -36785.51638179831 -111.1537603288889 -1922.0419940780848 -7.230664415284991 -462.3056151214987 -53516.04006093275 150.83846662193537 -8466.859913975932 10394.566211963072 117.38857237435877 12328.74180790037 152.76009027194232 z" vector-effect="non-scaling-stroke" fill="#000" fill-opacity="1" stroke="#FFF" stroke-width="0.3px" stroke-linejoin="round" stroke-linecap="round"><title>Ness County</title></path>
<path id="20137" d="M -11090565.531304523 -4865957.064689547 l 326.1659967042506 0 -193.58570768125355 14330.248362249695 -116.55351061373949 25324.363524945453 17.475267624482512 23022.354571108706 -24882.348987199366 71.76779249403626 -34530.406693907455 -48.667531395331025 -2079.892920702696 55.884773646481335 39.52097957767546 -31646.807152950205 245.1280790772289 -31109.144340098836 4428.121117947623 0 23331.978295393288 0 23331.978295389563 0 z" vector-effect="non-scaling-stroke" fill="#000" fill-opacity="1" stroke="#FFF" stroke-width="0.3px" stroke-linejoin="round" stroke-linecap="round"><title>Norton County</title></path>
<path id="20139" d="M -10631930.81297863 -4640907.690456845 l -16397.35665238835 -85.12622162606567 -14188.33323368989 115.67799655348063 -18619.18181252852 -54.99837638903409 69.911311885342 -37198.426427586004 415.22203461639583 -6238.661042898893 -71.02038797363639 -18690.90147379972 16416.614812979475 156.27597421221435 13226.53316719085 -153.1282923175022 19987.29790909961 17.158888325095177 -1.559808697551489 18713.984243018553 -53.99039831571281 6212.676037519239 -867.2902640905231 5175.838386540301 z" vector-effect="non-scaling-stroke" fill="#000" fill-opacity="1" stroke="#FFF" stroke-width="0.3px" stroke-linejoin="round" stroke-linecap="round"><title>Osage County</title></path>
<path id="20141" d="M -11024803.12366843 -4740757.023954969 l -1134.0113187544048 15.355751314200461 16.14277331903577 -18757.58376893308 250.91557940468192 -18744.59413982369 99.07635055854917 -25122.602284322493 33107.18722675182 59.065226630307734 26908.697010196745 3.323525996878743 1988.2768684588373 17.906587441451848 -257.59508280456066 24183.181203314103 -47.86938479356468 25902.132967289537 16.91956072486937 12504.668488499708 -25530.116770168766 -56.54533398151398 z" vector-effect="non-scaling-stroke" fill="#000" fill-opacity="1" stroke="#FFF" stroke-width="0.3px" stroke-linejoin="round" stroke-linecap="round"><title>Osborne County</title></path>
<path id="20143" d="M -10839159.99630758 -4765599.307161783 l -146.38702282123268 25008.769878835417 -51.20874688029289 24955.48257750459 -24725.94499132037 -7.445984464138746 -37272.98409802094 -70.29283640068024 -31.167676312848926 -22870.53805979155 -149.27832395397127 -14531.720573315397 -181.78406055271626 -8351.128838330507 262.6030127443373 -4196.000549550168 22977.56140287593 -59.27133035287261 z" vector-effect="non-scaling-stroke" fill="#000" fill-opacity="1" stroke="#FFF" stroke-width="0.3px" stroke-linejoin="round" stroke-linecap="round"><title>Ottawa County</title></path>
<path id="20145" d="M -11024236.627462702 -4628750.611407939 l 7.234876343980432 12357.110390093178 13332.509433742613 18.289683986455202 -62.118947530165315 36886.61479622405 -12133.821490837261 30.371439897455275 -24610.172832213342 33.9023061580956 -11919.642790554091 -105.81009365990758 -7.791473802179098 -12218.259476903826 -11486.721402177587 -142.42662888672203 -12913.502981716767 115.97645703144372 -110.5383619274944 -24722.15763685573 -1521.0690769217908 -31.47409632895142 -65.34365054033697 -12371.183355438523 24814.55541731231 -2.695116600953042 12574.089854285121 -186.51692914403975 13284.308094231412 305.3265137216076 z" vector-effect="non-scaling-stroke" fill="#000" fill-opacity="1" stroke="#FFF" stroke-width="0.3px" stroke-linejoin="round" stroke-linecap="round"><title>Pawnee County</title></path>
<path id="20147" d="M -11040569.623081693 -4865957.064689547 l 9914.888832200319 0 2562.575815398246 0 74.47006767429411 32129.231757272035 19.367253683507442 30453.008589221165 -18719.480896377936 97.04022702109069 -40953.539754206315 13.426478695124388 -2860.6874951682985 -15.740593905560672 -17.475267624482512 -23022.354571108706 116.55351061373949 -25324.363524945453 193.58570768125355 -14330.248362249695 12923.392410188913 0 23331.978295391425 0 z" vector-effect="non-scaling-stroke" fill="#000" fill-opacity="1" stroke="#FFF" stroke-width="0.3px" stroke-linejoin="round" stroke-linecap="round"><title>Phillips County</title></path>
<path id="20149" d="M -10690672.411204604 -4803086.997156497 l 145.2692638207227 27367.565817615017 -102.9706403017044 22986.74106815271 46.60200083069503 8580.929569373839 -4540.5769027825445 -3285.7911283262074 1095.7327190674841 -2608.4244233742356 -1909.4019360076636 -3805.8094093920663 -3573.047997094691 -665.867160265334 1027.6687935944647 4645.470435216092 -6957.468174576759 -3630.2633132170886 -2781.1754291635007 -865.3763306839392 -2758.52742077969 0 -4923.677021984011 2777.1270694239065 -4402.772829229012 455.96043193060905 -2337.2744648959488 1946.368608715944 -2237.623228020966 946.7463239580393 -2862.708259332925 -923.3688022531569 -2980.4779029116035 -1472.889631761238 -2581.8729554116726 -759.9080793885514 -4550.892626708373 592.9590203724802 -6279.384980985895 844.9725743485615 -2758.527420781553 1069.5479407422245 -1100.6932073049247 1051.9038200285286 -1062.58579281345 -1943.1974618826061 3922.228587159887 -1287.3431086279452 -6905.460701901466 -7944.535769511014 -1376.1152988057584 -3034.8885727524757 -2391.6296850126237 -3652.2136650914326 -3913.575848199427 -5059.099449732341 -3261.3132068347186 -5624.206926222891 -2174.2088045589626 -6190.264217297547 1304.525282735005 -6475.721940870397 7392.309935489669 -9580.469546910375 3893.9658546745777 -4490.304215779528 39295.917804498225 16.32026992365718 z" vector-effect="non-scaling-stroke" fill="#000" fill-opacity="1" stroke="#FFF" stroke-width="0.3px" stroke-linejoin="round" stroke-linecap="round"><title>Pottawatomie County</title></path>
<path id="20151" d="M -10961035.234139372 -4504963.954744953 l -20323.037715975195 76.72092129383236 -7548.9066254179925 -90.88922553230077 -18321.06855014153 129.03796482551843 -14802.816822865978 -31.839860934764147 -307.35133296996355 -24304.03102400247 201.3778494000435 -12585.931980631314 25.827012421563268 -13009.137916995212 25861.069616302848 17.054522997699678 16173.827448830009 138.25387051701546 18161.992775170133 -34.38554761745036 849.8128813970834 -19.73019164428115 13.579975996166468 12949.472403421067 z" vector-effect="non-scaling-stroke" fill="#000" fill-opacity="1" stroke="#FFF" stroke-width="0.3px" stroke-linejoin="round" stroke-linecap="round"><title>Pratt County</title></path>
<path id="20153" d="M -11217310.560011964 -4865957.064689547 l 3116.861667122692 0 -150.394190531224 18257.680261727422 -77.59324730932713 44331.7653167611 -32438.491602158174 4.329490652307868 -39718.227810151875 -51.41262378543615 -2765.732080841437 1.155123712494969 385.6127198599279 -25147.983018103987 68.01721074804664 -12628.230078781024 -132.57939846254885 -24767.304472182877 1713.874203234911 0 7970.137472607195 0 15364.558565206826 0 23331.978195283562 0 z" vector-effect="non-scaling-stroke" fill="#000" fill-opacity="1" stroke="#FFF" stroke-width="0.3px" stroke-linejoin="round" stroke-linecap="round"><title>Rawlins County</title></path>
<path id="20155" d="M -10876118.292338954 -4604008.1398386555 l -27.721113553270698 36939.53502806369 378.2617372851819 25004.107396980748 -12148.404121497646 169.04971073009074 -40618.80204539746 166.79306091554463 -32515.969745106995 -0.706167289987206 -13.579975996166468 -12949.472403421067 -849.8128813970834 19.73019164428115 68.12841891497374 -12712.167958965525 -94.17361754179001 -36487.20224491507 12807.638145975769 -147.8311595004052 15774.969713326544 42.90665904339403 9.01665611192584 2088.2778471298516 7986.503543721512 -99.95077756978571 215.84860396385193 -2047.799415923655 24504.97580209747 29.030256683938205 z" vector-effect="non-scaling-stroke" fill="#000" fill-opacity="1" stroke="#FFF" stroke-width="0.3px" stroke-linejoin="round" stroke-linecap="round"><title>Reno County</title></path>
<path id="20157" d="M -10889438.091201918 -4865957.064689547 l 22112.640104578808 0 23331.97829539515 0 4904.728872157633 0 61.22382750362158 22930.871472456492 -2.339824372902513 27231.818916697986 -27241.987231675535 97.4492234038189 -35409.94176802598 -57.548113129101694 -215.40109961107373 -25141.868786606938 177.2226330935955 -25060.72271282226 11062.538100255653 0 z" vector-effect="non-scaling-stroke" fill="#000" fill-opacity="1" stroke="#FFF" stroke-width="0.3px" stroke-linejoin="round" stroke-linecap="round"><title>Republic County</title></path>
<path id="20159" d="M -10962724.833021667 -4616331.541755817 l -59.664464078843594 -37076.51642527338 14553.12731633149 9.818785462528467 42995.47239459492 -73.13131077773869 4357.043756449595 -66.73192128259689 -99.63361592590809 37003.545795033686 324.273565357551 652.0018504830077 12.80085089057684 11888.715167121962 -24504.97580209747 -29.030256683938205 -215.84860396385193 2047.799415923655 -7986.503543721512 99.95077756978571 -9.01665611192584 -2088.2778471298516 -15774.969713326544 -42.90665904339403 -12807.638145975769 147.8311595004052 39.74194877408445 -12466.121701525524 z" vector-effect="non-scaling-stroke" fill="#000" fill-opacity="1" stroke="#FFF" stroke-width="0.3px" stroke-linejoin="round" stroke-linecap="round"><title>Rice County</title></path>
<path id="20161" d="M -10793691.342125617 -4753243.362953849 l 67.90889688767493 -31318.750551335514 213.51078334078193 -18568.212537698448 16955.62512323074 -3.320002621971071 23886.225818526 12.99841554556042 -3893.9658546745777 4490.304215779528 -7392.309935489669 9580.469546910375 -1304.525282735005 6475.721940870397 2174.2088045589626 6190.264217297547 3261.3132068347186 5624.206926222891 3913.575848199427 5059.099449732341 2391.6296850126237 3652.2136650914326 1376.1152988057584 3034.8885727524757 6905.460701901466 7944.535769511014 -3922.228587159887 1287.3431086279452 1062.58579281345 1943.1974618826061 1100.6932073049247 -1051.9038200285286 2758.527420781553 -1069.5479407422245 6279.384980985895 -844.9725743485615 4550.892626708373 -592.9590203724802 2581.8729554116726 759.9080793885514 266.0311990957707 10577.40058284346 285.3558602556586 12191.793702997267 -12287.23210561648 -58.62290740292519 -0.779236439615488 -4174.035517759621 -22800.104330936447 -55.94151645991951 -7.124113449826837 -2533.7279958399013 -4133.416814383119 434.3012761985883 -11971.529361816123 -81.95099099166691 175.1131287459284 -18770.3988482384 z" vector-effect="non-scaling-stroke" fill="#000" fill-opacity="1" stroke="#FFF" stroke-width="0.3px" stroke-linejoin="round" stroke-linecap="round"><title>Riley County</title></path>
<path id="20163" d="M -11025937.134987185 -4740741.668203655 l -35638.703321602196 29.273450830951333 -24928.43514507264 50.944327735342085 -1493.461954522878 -3.731272294186056 32.8412535302341 -24589.448928288184 282.4185500238091 -14083.169837223366 11.133841507136822 -23926.557174443267 40953.539754206315 -13.426478695124388 18719.480896377936 -97.04022702109069 2427.3208288345486 8.375946319662035 -99.07635055854917 25122.602284322493 -250.91557940468192 18744.59413982369 z" vector-effect="non-scaling-stroke" fill="#000" fill-opacity="1" stroke="#FFF" stroke-width="0.3px" stroke-linejoin="round" stroke-linecap="round"><title>Rooks County</title></path>
<path id="20165" d="M -11024298.962592686 -4678326.563653955 l 62.335129983723164 49575.95224601589 -10818.02533230558 -32.93174670636654 -13284.308094231412 -305.3265137216076 -12574.089854285121 186.51692914403975 -24814.55541731231 2.695116600953042 -201.9306619875133 -37169.62463826779 169.65179452486336 -12227.333400694653 39891.106756709516 -51.48717536777258 20495.026217935607 19.256926342844963 z" vector-effect="non-scaling-stroke" fill="#000" fill-opacity="1" stroke="#FFF" stroke-width="0.3px" stroke-linejoin="round" stroke-linecap="round"><title>Rush County</title></path>
<path id="20167" d="M -10963422.467483731 -4678343.532324976 l -23971.755663836375 25.529446702450514 -36904.73944511823 -8.560775681398809 -1074.7894609682262 -2.282256654463708 376.2615486755967 -23160.37469966244 194.36683654785156 -39267.80334469676 35417.62281289324 4.308223425410688 25530.116770168766 56.54533398151398 695.6352753266692 3.73142724391073 -255.5905527304858 14650.309921654873 131.68917649053037 22862.736710966565 z" vector-effect="non-scaling-stroke" fill="#000" fill-opacity="1" stroke="#FFF" stroke-width="0.3px" stroke-linejoin="round" stroke-linecap="round"><title>Russell County</title></path>
<path id="20169" d="M -10839357.592077281 -4715635.054705443 l -33.06567362509668 49767.798670731485 -33189.56353862025 52.13714190851897 -28357.18566780165 -127.21744120772928 -40.63083490356803 -12392.918611290865 -367.3542082980275 -21.96538736578077 -54.210699586197734 -24868.922071319073 43.081533493474126 -12486.651122321375 37272.98409802094 70.29283640068024 z" vector-effect="non-scaling-stroke" fill="#000" fill-opacity="1" stroke="#FFF" stroke-width="0.3px" stroke-linejoin="round" stroke-linecap="round"><title>Saline County</title></path>
<path id="20171" d="M -11208517.650202125 -4616807.925378193 l -24451.431349657476 -148.4451421862468 -21794.235883662477 90.73753221519291 -2467.952554291114 6.80512673407793 -273.39877695962787 -23742.663556786254 -53.986947409808636 -38273.38291753549 20605.56658361107 239.77621606271714 13867.95607314445 -133.93534050602466 14548.56332853064 -22.82101193163544 222.19080931693316 36177.932380355895 152.83976842090487 24817.46878151782 z" vector-effect="non-scaling-stroke" fill="#000" fill-opacity="1" stroke="#FFF" stroke-width="0.3px" stroke-linejoin="round" stroke-linecap="round"><title>Scott County</title></path>
<path id="20173" d="M -10814963.278647026 -4567104.298348473 l -44.86353589966893 24639.477669547312 -50.31885886564851 36865.33580479678 -11729.62041977048 6.311270764097571 -12299.242031522095 -249.26203435100615 -13080.370787093416 270.86163334175944 -35723.63998176716 162.8483250681311 -83.3765174895525 -24209.233683905564 58.55494271405041 -12277.488339669071 12148.404121497646 -169.04971073009074 -378.2617372851819 -25004.107396980748 39153.281171735376 43.31988620199263 z" vector-effect="non-scaling-stroke" fill="#000" fill-opacity="1" stroke="#FFF" stroke-width="0.3px" stroke-linejoin="round" stroke-linecap="round"><title>Sedgwick County</title></path>
<path id="20175" d="M -11201661.692110265 -4439080.133020672 l -25723.608047580346 0 -9811.262398809195 0 -13500.713184330612 0 -105.19536033272743 -21713.051441389136 -24.153991794213653 -32502.82450815756 46217.16955500096 21.299276577308774 2103.6038609240204 7.005365550518036 -156.18213614076376 13211.808467666619 -27.386264523491263 23256.191515947692 z" vector-effect="non-scaling-stroke" fill="#000" fill-opacity="1" stroke="#FFF" stroke-width="0.3px" stroke-linejoin="round" stroke-linecap="round"><title>Seward County</title></path>
<path id="20177" d="M -10631039.335435022 -4733383.934185202 l -51.79039441794157 30344.114752830938 -19987.29790909961 -17.158888325095177 -13226.53316719085 153.1282923175022 -16416.614812979475 -156.27597421221435 370.431324897334 -35859.03043555468 -10232.37018644251 -5232.604263209738 -46.60200083069503 -8580.929569373839 49660.83533102274 33.912084106355906 17.142311023548245 12410.769198969938 -491.2528015524149 87.5377585478127 -587.3224729187787 5991.845310593955 1454.0021380465478 822.8043942991644 2029.2615509182215 350.10923385526985 z" vector-effect="non-scaling-stroke" fill="#000" fill-opacity="1" stroke="#FFF" stroke-width="0.3px" stroke-linejoin="round" stroke-linecap="round"><title>Shawnee County</title></path>
<path id="20179" d="M -11212121.825659493 -4803366.319296131 l 29558.21165397577 60.65355803724378 30538.93614521809 104.55254159588367 2079.892920702696 -55.884773646481335 -44.75255037471652 25137.309340734035 -257.48487650603056 37521.37758064829 -29001.05782518722 -174.36790343280882 -32994.30959705077 -21.67306588217616 48.20412250235677 -34047.41612200253 z" vector-effect="non-scaling-stroke" fill="#000" fill-opacity="1" stroke="#FFF" stroke-width="0.3px" stroke-linejoin="round" stroke-linecap="round"><title>Sheridan County</title></path>
<path id="20181" d="M -11359921.122504018 -4740760.388111455 l -9.381824791431427 -3318.0204010531306 -43.48417912982404 -13467.635467772372 -43.48417913354933 -13492.680435680784 -35.33095186017454 -13503.762447803281 -40.76643670536578 -13525.47196351178 -17.090630551800132 -5319.543885218911 49765.32737646811 -38.03205413464457 21001.19605388865 11.987646151334047 2765.732080841437 -1.155123712494969 -243.57016279920936 37410.51326784119 -51.32028900831938 24960.690591786057 -9626.68447579071 51.09066014923155 -26310.91178991273 167.47863523755223 z" vector-effect="non-scaling-stroke" fill="#000" fill-opacity="1" stroke="#FFF" stroke-width="0.3px" stroke-linejoin="round" stroke-linecap="round"><title>Sherman County</title></path>
<path id="20183" d="M -10990168.623343198 -4865957.064689547 l 6180.563326807693 0 18523.22908584401 0 15.02512563019991 37134.82297108229 -105.31024203822017 25518.182074357755 -26908.697010196745 -3.323525996878743 -33107.18722675182 -59.065226630307734 -2427.3208288345486 -8.375946319662035 -19.367253683507442 -30453.008589221165 -74.47006767429411 -32129.231757272035 20772.120222423226 0 z" vector-effect="non-scaling-stroke" fill="#000" fill-opacity="1" stroke="#FFF" stroke-width="0.3px" stroke-linejoin="round" stroke-linecap="round"><title>Smith County</title></path>
<path id="20185" d="M -11010896.883152615 -4616375.21133386 l 24287.568947900087 36.57912876363844 23884.481183048338 7.090449279174209 824.2092871963978 6.946829378604889 -39.74194877408445 12466.121701525524 94.17361754179001 36487.20224491507 -68.12841891497374 12712.167958965525 -18161.992775170133 34.38554761745036 -16173.827448830009 -138.25387051701546 -25861.069616302848 -17.054522997699678 -1035.9389586821198 -259.458026971668 54.32569262012839 -24418.741203837097 12133.821490837261 -30.371439897455275 z" vector-effect="non-scaling-stroke" fill="#000" fill-opacity="1" stroke="#FFF" stroke-width="0.3px" stroke-linejoin="round" stroke-linecap="round"><title>Stafford County</title></path>
<path id="20187" d="M -11359159.870675579 -4493494.035519588 l -36.838192937895656 -11133.454269702546 -38.04869428277016 -13157.276793903671 -33.24598408304155 -11510.054551631212 -4.802710196003318 -1663.7894978094846 -38.241569962352514 -11596.315006099641 35101.18873428926 224.2160997679457 22269.903956500813 89.10415836144239 92.28285599127412 12906.060599777848 47.19690375030041 35953.64740983676 -3428.1942592356354 -13.03000482916832 -31399.324489558116 -57.30595724005252 z" vector-effect="non-scaling-stroke" fill="#000" fill-opacity="1" stroke="#FFF" stroke-width="0.3px" stroke-linejoin="round" stroke-linecap="round"><title>Stanton County</title></path>
<path id="20189" d="M -11250697.275740985 -4439080.133020672 l -2414.3501067515463 0 -25726.325589787215 0 -25723.607947466895 0 -578.9467725139111 -33321.803508914076 -88.16347824037075 -20992.990846233442 3428.1942592356354 13.03000482916832 48552.76334605552 94.01433823630214 2421.086937341839 -8.125937464646995 24.153991794213653 32502.82450815756 z" vector-effect="non-scaling-stroke" fill="#000" fill-opacity="1" stroke="#FFF" stroke-width="0.3px" stroke-linejoin="round" stroke-linecap="round"><title>Stevens County</title></path>
<path id="20191" d="M -10814433.96337386 -4439080.133020672 l -1362.7390552386642 0 -25726.325589779764 0 -7934.8211289364845 0 -17788.786818532273 0 -20056.15682318993 0 21.152707001194358 -29606.80906222295 -271.9517348986119 -24401.54789015092 -277.2968515623361 0.700510342605412 -60.44559294730425 -12320.936216603033 35723.63998176716 -162.8483250681311 13080.370787093416 -270.86163334175944 12299.242031522095 249.26203435100615 11729.62041977048 -6.311270764097571 246.12694886140525 5533.561609469354 158.07100526243448 38856.25562625006 z" vector-effect="non-scaling-stroke" fill="#000" fill-opacity="1" stroke="#FFF" stroke-width="0.3px" stroke-linejoin="round" stroke-linecap="round"><title>Sumner County</title></path>
<path id="20193" d="M -11214421.685782682 -4803367.619111058 l 2299.860123189166 1.299814927391708 -72.36000671982765 28524.551156051457 -48.20412250235677 34047.41612200253 -10081.313164869323 3.013040997087956 -25032.96425824985 49.940144665539265 -29258.98508535698 -359.6487195501104 -10257.643349608406 57.549167400226 51.32028900831938 -24960.690591786057 243.57016279920936 -37410.51326784119 39718.227810151875 51.41262378543615 z" vector-effect="non-scaling-stroke" fill="#000" fill-opacity="1" stroke="#FFF" stroke-width="0.3px" stroke-linejoin="round" stroke-linecap="round"><title>Thomas County</title></path>
<path id="20195" d="M -11086504.27345386 -4740661.450425088 l -208.83647792227566 14706.153156703338 -303.3481727577746 34195.064543699846 -216.62873095832765 13468.609028463252 -49509.88765998371 34.655574205331504 -12328.74180790037 -152.76009027194232 227.20397126302123 -12473.059740344062 8.016005214303732 -12798.636336824857 350.5468576196581 -24589.185948009603 69.24172514863312 -12351.23626136221 12495.164446638897 72.04270957130939 47923.807889115065 -115.37790812458843 z" vector-effect="non-scaling-stroke" fill="#000" fill-opacity="1" stroke="#FFF" stroke-width="0.3px" stroke-linejoin="round" stroke-linecap="round"><title>Trego County</title></path>
<path id="20197" d="M -10742503.209948763 -4703023.955671977 l 42.5242681261152 -24903.350980969146 12287.23210561648 58.62290740292519 -285.3558602556586 -12191.793702997267 -266.0311990957707 -10577.40058284346 2980.4779029116035 1472.889631761238 2862.708259332925 923.3688022531569 2237.623228020966 -946.7463239580393 2337.2744648959488 -1946.368608715944 4402.772829229012 -455.96043193060905 4923.677021984011 -2777.1270694239065 2758.52742077969 0 2781.1754291635007 865.3763306839392 6957.468174576759 3630.2633132170886 -1027.6687935944647 -4645.470435216092 3573.047997094691 665.867160265334 1909.4019360076636 3805.8094093920663 -1095.7327190674841 2608.4244233742356 4540.5769027825445 3285.7911283262074 10232.37018644251 5232.604263209738 -370.431324897334 35859.03043555468 71.02038797363639 18690.90147379972 -45272.40036871843 12.983925080858171 -4133.959496906027 5.280080082826316 -69.90774966031313 -12362.741474195383 -12358.68663960509 -90.30759652517736 z" vector-effect="non-scaling-stroke" fill="#000" fill-opacity="1" stroke="#FFF" stroke-width="0.3px" stroke-linejoin="round" stroke-linecap="round"><title>Wabaunsee County</title></path>
<path id="20199" d="M -11359731.064737132 -4678441.281045002 l -36.37394496053457 -11938.104096704163 -43.48417912982404 -13403.37806776166 -40.76643670909107 -13410.592835860327 -34.03829353488982 -11216.734563988633 -6.728143172338605 -2218.6149293854833 -28.666769379749894 -10131.682572753169 37110.23059151508 -64.54097772203386 26310.91178991273 -167.47863523755223 -273.6256460789591 28810.51464229077 -418.22977593913674 33363.786081559956 -9204.227230865508 74.31392635218799 -24443.639207948 224.50765652395785 z" vector-effect="non-scaling-stroke" fill="#000" fill-opacity="1" stroke="#FFF" stroke-width="0.3px" stroke-linejoin="round" stroke-linecap="round"><title>Wallace County</title></path>
<path id="20201" d="M -10788684.182412855 -4865957.064689547 l 12316.273913614452 0 -108.42796702124178 36278.30594819039 22.039144104346633 26545.112695851363 -16955.62512323074 3.320002621971071 -28757.37779004872 -14.875977014191449 -16851.874021982774 -74.36996379867196 -10.685669235885143 -12574.802316696383 2.339824372902513 -27231.818916697986 -61.22382750362158 -22930.871472456492 18427.24932312034 0 23331.978295393288 0 z" vector-effect="non-scaling-stroke" fill="#000" fill-opacity="1" stroke="#FFF" stroke-width="0.3px" stroke-linejoin="round" stroke-linecap="round"><title>Washington County</title></path>
<path id="20203" d="M -11306439.370844137 -4616665.446351335 l 19.482803320512176 -24695.355434884317 23.825265342369676 -37382.991287992336 9204.227230865508 -74.31392635218799 30459.008973469958 -195.5574955129996 9174.170857032761 138.79016032535583 53.986947409808636 38273.38291753549 273.39877695962787 23742.663556786254 -46406.190050367266 184.59149445034564 z" vector-effect="non-scaling-stroke" fill="#000" fill-opacity="1" stroke="#FFF" stroke-width="0.3px" stroke-linejoin="round" stroke-linecap="round"><title>Wichita County</title></path>
<path id="20205" d="M -10682390.821732052 -4493140.033651773 l -108.6467098146677 -16177.936406191438 170.9876284133643 -14281.85967688635 13.470882900059223 -18358.80375814438 48465.93314136006 217.47206802107394 -70.91140618547797 14137.280583573505 123.45197945646942 18768.179263668135 -59.3342904727906 16072.120377233252 -5283.221585892141 4.903139512985945 z" vector-effect="non-scaling-stroke" fill="#000" fill-opacity="1" stroke="#FFF" stroke-width="0.3px" stroke-linejoin="round" stroke-linecap="round"><title>Wilson County</title></path>
<path id="20207" d="M -10633121.712453362 -4584825.468840612 l -35.29039364680648 30644.693555871025 -625.0587181635201 353.9932294553146 -67.01522402092814 12085.62063031178 -48465.93314136006 -217.47206802107394 -59.22107854485512 -12349.117865364067 364.45990153588355 6.623475053347647 -100.18531532026827 -30804.342957708053 28712.183301297948 168.199930973351 z" vector-effect="non-scaling-stroke" fill="#000" fill-opacity="1" stroke="#FFF" stroke-width="0.3px" stroke-linejoin="round" stroke-linecap="round"><title>Woodson County</title></path>
<path id="20209" d="M -10552024.407973057 -4750760.878833305 l 4921.865168940276 3289.1977460570633 2467.7270406428725 1002.6765038501471 3440.685335993767 -126.20572222210467 1663.2697767466307 182.2965762456879 1125.1530724838376 -108.67633686866611 543.5521891023964 52.58548284508288 565.2943287305534 438.2013202123344 244.5984200220555 1261.9141719788313 361.46224529482424 259.37380698975176 2649.8169844504446 220.81298338249326 1820.8999386113137 704.4666743343696 231.0096077863127 1216.0531582431868 -1576.3013183604926 1699.4255255479366 149.4768344834447 231.23990800231695 0 413.41568251512945 114.1459827311337 504.4845423512161 502.7857523970306 192.67851203214377 0 998.3656822210178 0 10496.13987799827 -20658.188011819497 -73.92512501589954 -6845.4101296029985 775.1434854771942 -848.5454583577812 -3006.7448736513034 -1238.3177929408848 1204.0188640411943 -843.2451427634805 2867.909765127115 -14.675111601129174 1079.4900451675057 -1981.2456391956657 2051.96088234894 88.46283452957869 -17174.47436702717 768.2155833244324 -46.78195676393807 161.970527023077 -10621.234175939113 z" vector-effect="non-scaling-stroke" fill="#000" fill-opacity="1" stroke="#FFF" stroke-width="0.3px" stroke-linejoin="round" stroke-linecap="round"><title>Wyandotte County</title></path>
</svg>
