<svg xmlns="http://www.w3.org/2000/svg" xmlns:xlink="http://www.w3.org/1999/xlink" height="1080" width="1920" viewBox="-7913140.65536283 -6017432.345704972 457258.9417785676 692695.4023075001">
<path id="23001" d="M -7792953.8832922345 -5484739.180712114 l -2426.764787973836 12567.913334942423 -1247.802102244459 3943.37736010924 564.3454018449411 1974.7126345774159 -1675.9875256130472 2377.6057664696127 1894.0007475521415 1777.3074956284836 -5518.645621468313 8054.7111730817705 -1266.8153599528596 -867.1250721737742 -2625.4694111198187 3894.928290071897 -9117.396914861165 -6131.282419689 -242.34253145288676 -864.9434085823596 -12857.619038865902 -13260.65111709293 -5387.861573283561 7924.928695146926 -3499.104440908879 -2584.6017536716536 -736.6506077554077 2013.007036675699 -2520.75328120403 -2218.2916367948055 -2929.35247403197 -944.4248442612588 -3255.5822568098083 -3312.6574753038585 -583.0910474983975 -4403.812676249072 16830.50056842249 -23302.06180176325 979.7223931932822 357.19400298874825 6684.845405791886 -24039.678610399365 -1492.7935922984034 -8118.486835787073 491.5869826609269 -4012.3754333164543 3947.7218774929643 -2824.686678241007 4121.380283122882 -2928.687998016365 8044.389122333378 -1497.3871276844293 3217.9108505686745 16127.215821795166 -2406.0589174078777 434.4141041887924 -730.8122344184667 2004.2043575989082 3147.2235305141658 5435.097829395905 222.52732813358307 2207.020763175562 2677.5668214969337 3211.776970423758 -135.58791902009398 14330.180088141933 1702.297096611932 2253.336054368876 7423.782961166464 1710.7490721736103 -582.9800619715825 2156.4536272818223 -2168.8368598865345 1383.0972524369135 -998.7584713939577 4234.272061110474 z" vector-effect="non-scaling-stroke" fill="#000" fill-opacity="1" stroke="#FFF" stroke-width="0.3px" stroke-linejoin="round" stroke-linecap="round"><title>Androscoggin County</title></path>
<path id="23003" d="M -7796709.751136636 -5872808.523646792 l 702.6717689437792 -5800.412482271902 1012.4565573744476 -8352.795208510943 1766.0464294068515 -6942.977048197761 1981.7686857460067 -2860.9660520078614 10046.905534786172 -14604.642132019624 10052.65841475036 -14608.017197672278 10052.658192110248 -14640.92121236585 10052.658192102797 -14652.866888981313 10055.534576435573 -14694.484047820792 10052.658192100003 -14706.639894541353 10046.905646105297 -14740.078122905456 10049.781919108704 -14752.41787946131 1860.9642177363858 -2152.0770624512807 1518.6848360775039 -969.8853746475652 1702.767866736278 -144.64145432412624 16955.771285722032 4576.301860369742 1740.1596384234726 2219.230926721357 -34.515498684719205 4793.638723848388 -1320.220440379344 9791.519341106527 117.9283063299954 5472.65864301566 175.20018058549613 907.5937602715567 676.1836414644495 3501.960995442234 1924.242780411616 3348.0696505410597 14913.600310307927 9642.856047752313 1837.953811080195 -63.48822969570756 14237.670365966856 -7609.271934491582 4901.2102741980925 -1343.0061095254496 5453.459143583663 296.58072359580547 2738.234942098148 -305.0545370588079 2070.933816771023 -1627.1391518311575 1967.387209416367 -2398.8909762464464 2525.3888474348933 -2077.313840456307 5073.787990224548 -2849.6962277144194 2410.3370367558673 -805.8871713774279 2893.5547974612564 -458.1168035948649 2813.0184854660183 305.413889542222 3497.5772488201037 2366.5926307151094 1420.8906634030864 -301.08971319161355 1374.8700727112591 -708.2382271746174 2738.234719472006 -704.0545958084986 247.36170464754105 -890.7532289531082 -161.0727353161201 -1433.8806709395722 310.6401560008526 -1960.303163709119 3808.2172934990376 -5042.8147778101265 5355.665193556808 -1532.9516061758623 5930.924469596706 1193.2625975674018 5499.4799569109455 3150.1040344191715 1415.138228722848 1358.1824673805386 3146.668936806731 4344.755002199672 1225.302540722303 856.8138625612482 3301.9890148043633 1505.5820445399731 1553.200334744528 1000.7494507562369 6908.8656396288425 6718.147988764569 5142.819210209884 3609.1229946510866 3422.79348282516 4183.351446222514 972.1884013703093 1811.5960843628272 414.18676335550845 2242.808797022328 730.5794653622434 1375.0209878673777 4929.973115555942 4216.786395982839 3175.4320007953793 5140.276815047488 1766.0464294068515 1555.0118777099997 4584.81746087037 2606.5575341666117 540.7438886882737 1106.6003502653912 391.17635668441653 6455.182925336994 293.3822953486815 21922.051347182132 281.87709201313555 21879.76958562713 287.6297493381426 21829.410086256452 287.62963803485036 21766.875463850796 281.8772033210844 21704.790081992745 287.62963803019375 21663.93892869819 287.62974933255464 21610.933710363694 287.62963803112507 21550.029886047356 201.34089133050293 1539.058338060975 690.3111980399117 1216.1638675974682 1012.456668692641 1116.7382794274017 868.6416827114299 1182.7622384689748 201.34078000951558 1455.4910284280777 -1288.5811033817008 2480.4008680079132 -1996.1501620942727 2231.7686245404184 -1323.0966020654887 2297.3091511772946 736.3321226993576 2676.6903470903635 1840.82997275237 2890.5811508949846 362.41351533774287 2039.3586908625439 -782.3528246870264 1972.8616945315152 -1587.7159447483718 2640.8034262452275 -1351.8596660532057 2780.2487244280055 -540.7438886882737 2433.0363093260676 454.45503067877144 8555.706831971183 770.8476213626564 2075.8689761795104 1558.9529920807108 1375.4088409878314 1036.363614034839 677.2223194492981 -10668.631764170714 2839.5691970866174 -3822.9583317907527 -355.6255676187575 -830.5546094868332 1505.3253268981352 -14882.186506605707 3489.4650128139183 -13325.04980334919 3267.030430576764 -10141.536118836142 2280.1480977647007 295.1077474588528 1262.0423028850928 -15541.845175478607 3455.825286824256 -3483.2636889647692 -2983.6980364443734 -514.4597149873152 -24284.67333860509 434.3687643976882 -2061.102805580944 165.19879225455225 -18520.43599956669 -127.46048300620168 -11054.259646601975 -380.2673805439845 -1201.8816843861714 -219.18740945868194 -13353.9702725159 -533.665193582885 -1261.1108349049464 130.0212765643373 -11699.649735124782 20.929956704378128 -42750.417769555934 -5764.232771656476 -144.58718398492783 -23013.84966444224 75.03603609930724 2.671890414319932 -2081.9085308220237 -13853.037925537676 -78.60637887567282 -198.48242944665253 -0.645312394946814 -92.72813395410776 -28579.236139309593 -28519.70967533067 48.416880399920046 -19074.14279029332 -224.60477868840098 -13915.154201407917 81.12961174547672 -38577.97892636992 -131.33261439297348 z" vector-effect="non-scaling-stroke" fill="#000" fill-opacity="1" stroke="#FFF" stroke-width="0.3px" stroke-linejoin="round" stroke-linecap="round"><title>Aroostook County</title></path>
<path id="23005" d="M -7779317.921301149 -5459812.336367081 l 1159.5780993057415 805.4725060751662 2029.2614767020568 0 -359.87632150482386 2256.8698996100575 -854.4883000114933 3882.880531608127 -1667.3960985373706 3732.5299580981955 86.99649866763502 3703.1497597200796 -1032.7491926485673 339.2862339364365 -924.038714107126 741.3597440756857 -788.1506777377799 1080.5192054789513 1358.8804750181735 804.0251051392406 1155.048476126045 1130.5412573553622 665.8514116043225 1808.5775282178074 -72.47366391960531 2762.4189854543656 -779.0914975767955 2134.02936256025 -1309.0548728136346 1731.9661766197532 -1209.4036684120074 313.72731199488044 -502.7857234328985 -2158.659138637595 -4561.3088994883 6311.4009657446295 -788.1506777368486 620.8685836633667 -788.1506777359173 263.3861283566803 -602.4370391629636 482.855136314407 -407.6641091099009 2545.5456542205065 -462.019412712194 852.5380091555417 -706.617833650671 476.3840187629685 -869.6835218220949 112.82420789916068 7387.780345411971 -15871.620139001869 -484.6674744365737 -3171.3262353446335 -1277.3476309319958 1174.460083445534 -1807.3111174916849 3039.083398329094 -1603.4788959566504 3439.7358621805906 -693.0290634064004 2397.0128575544804 -439.37135099060833 2546.927487974055 -1168.6372463637963 2408.269332253374 -1721.2486833268777 1630.2420520698652 -2065.4983086697757 200.62521500326693 2002.0839362265542 -4151.3241358902305 5213.571540854871 -8352.206257805228 1281.8772210115567 -4332.825895114802 -2445.984877294861 307.7608270691708 -3705.214147905819 3089.598488461226 -1517.416573108174 -238.59060189593583 1019.1603284291923 -715.8088925788179 1132.400414403528 -1168.0180865013972 1001.0419681128114 -1545.0258425297216 652.2626413675025 -1840.552102619782 -1508.3573929499835 194.75170193891972 -1376.9988353354856 904.5984943602234 -1177.6964265303686 1306.4852597722784 -1920.551092132926 2643.809449562803 -1164.1076562851667 941.7915588729084 -2740.4090117570013 1475.2797037800774 -1485.709331229329 514.722949616611 -1213.9332584813237 175.75245868228376 -1105.2228739233688 489.57840257603675 -5793.360518294387 6199.076625486836 -2418.807336812839 1461.3207095246762 -2903.474588611163 6438.342811050825 -3388.142063044943 2343.5197121426463 72.4735526079312 2004.6783377025276 525.4337851554155 2154.544014436193 163.0656881723553 1365.1195359211415 -1186.7556066829711 1577.776664827019 -1531.0053433533758 582.2067255862057 -3356.4348211586475 -56.34098807349801 0 1145.5323713449761 3238.6651451122016 394.3308190368116 2917.063470168039 -162.7376811169088 2301.0376607673243 1001.4168361853808 1422.2949587795883 3917.001666903496 -13.588881556876004 1676.420063639991 -516.3744936790317 4771.129705605097 -231.00976201798767 993.9363076509908 -1703.1302116783336 318.7870808476582 -2849.1193963270634 1425.031783323735 -1598.9494171952829 356.22367142140865 480.1377730369568 -1062.4620191790164 353.3089168248698 -1037.5805164137855 -2092.675960469991 650.0639521088451 -2346.3336728923023 3437.0801322516054 -1712.1895031630993 1162.0692730024457 -285.3648429773748 -3286.659140670672 -1657.8341995589435 -181.2375754462555 -2038.3207681868225 1543.5306762894616 -1413.2357899080962 1924.3660577349365 -15087.240225623362 -12267.693767652847 3818.702810296789 -5450.81740835309 -10282.132190427743 -11317.270996482112 -3086.888589140959 4379.495359341614 -9628.878429854289 -8651.708270358853 -99.65123687684536 -2031.6539597315714 1037.27878384199 -4303.066036182456 -520.9041927587241 -1643.975248171948 -1653.3046117993072 -1230.0358580490574 -2147.031194497831 -853.590771201998 -2065.4983643284068 -489.5950985811651 -4348.417609112337 282.46188586670905 -1893.3735006367788 -382.8948655873537 -1594.41979000438 -1236.6708036363125 -1340.7620961451903 -1732.8739236043766 -1023.6899788100272 -1890.2089086025953 -606.9666246054694 -1934.5690149972215 3205.39469692111 -2650.8074033195153 1814.0616427343339 332.0059311715886 1099.9476658860222 -2598.614308938384 -352.0366463670507 -2871.3654401926324 3201.926150930114 -3281.2232213215902 -1682.2594769503921 -2917.425507862121 3278.358001984656 -2256.568685695529 -7116.652152103372 -10384.607776591554 -2035.9386424040422 -1764.8033310435712 -2279.1372207487 764.4075505072251 -4272.997095624916 -3487.1424662629142 -180.55954615026712 -5774.826684966683 4045.3484029965475 2783.6195823578164 13607.80175524205 -9602.09897371661 403.0877648405731 769.8106618002057 7967.912632158957 -5720.911776162684 2851.2842264659703 3311.4374129828066 1207.4151683421806 3908.560345799662 -2064.1522333845496 3884.6545188203454 -692.8525107009336 5651.150930960663 1005.2368204863742 3166.1986681912094 2319.963977953419 3686.1096209958196 2086.5572846587747 -976.2275286074728 2209.245946363546 2982.6941609485075 3934.9199134111404 -5510.282929224893 3200.100288638845 1444.4219106864184 3255.5822568098083 3312.6574753038585 2929.35247403197 944.4248442612588 2520.75328120403 2218.2916367948055 736.6506077554077 -2013.007036675699 3499.104440908879 2584.6017536716536 5387.861573283561 -7924.928695146926 12857.619038865902 13260.65111709293 242.34253145288676 864.9434085823596 9117.396914861165 6131.282419689 2625.4694111198187 -3894.928290071897 1266.8153599528596 867.1250721737742 5518.645621468313 -8054.7111730817705 3736.575145592913 3286.4649294279516 2346.3336682496592 1220.6335759190843 2522.9881336195394 -157.2890410106629 z" vector-effect="non-scaling-stroke" fill="#000" fill-opacity="1" stroke="#FFF" stroke-width="0.3px" stroke-linejoin="round" stroke-linecap="round"><title>Cumberland County</title></path>
<path id="23007" d="M -7886138.724160265 -5669066.97943882 l 793.858028024435 -1357.7345120944083 353.7844736929983 -2969.738299774006 -376.79499167297035 -7056.049008959904 181.20675767213106 -3169.662500228733 874.394451348111 -2752.8649774147198 1446.777343077585 -2057.007785929367 2016.2841844270006 -1106.5542103983462 2559.9044574303553 57.38008706923574 2151.4702400956303 1221.2923259185627 3845.609065175988 3974.194886043668 2367.192496432923 1368.0258504915982 2332.6769977593794 -8.191082516685128 2470.7391037866473 -1073.1054408084601 1366.2411423893645 -2064.6561970738694 -995.1988080525771 -3007.7120478656143 -1993.2738890694454 -1836.2663850700483 -4366.218931529671 -2755.10597762838 -1720.0256160786375 -2304.772955464199 -1021.0854877047241 -3281.839987142943 186.95930366870016 -2601.713624002412 4846.560530547984 -10291.16436317563 10817.753378789872 -12582.329048741609 1915.6137387603521 -1670.754035193473 2145.0628066696227 -1034.1470846617594 5276.76349180378 24662.44749925658 -1434.7965828767046 261.7981178108603 4799.7599241836 24265.30951767508 6305.354923974723 33869.98927613534 6192.033463450149 -1052.7827985379845 -161.63578931242228 -845.3143091667444 6278.528373842128 -804.1875213924795 1546.7835453357548 8221.93295027595 15007.309280297719 -2914.4212824022397 3904.529024506919 18937.141999338754 1655.3202714957297 9613.320797576569 -4677.643889935687 787.489549822174 2225.2756190812215 14220.088628391735 11008.158020704985 -1989.0794025333598 1827.0858005098999 12182.645861775614 1398.2834559390321 -233.5474817212671 201.37684752512723 4676.7117350026965 -1335.4995970865712 335.0109291402623 1975.8085288917646 12332.700360142626 3951.6179483495653 -576.7518124096096 -734.59743106924 3562.469823732972 2256.668272086419 1636.0542577309534 1839.9988614488393 5823.242923188023 318.1508820448071 1053.4095169035718 -2879.3892809432 4596.858846511692 -9604.268403884955 -2251.2727478817105 -146.53641358669847 2816.340259158984 -3406.5980553766713 6532.454369242303 3578.141168056056 2337.4474669136107 -374.4788783509284 4528.13867166359 -9631.693073643371 -322.8399993516505 -8044.389122333378 1497.3871276844293 -4121.380283122882 2928.687998016365 -1351.0838805232197 -6949.427734119818 -3338.6931660007685 -255.9798141233623 -998.5349418595433 -5492.022473184392 1011.5598788801581 -4585.548697484657 -29976.21344759036 -6437.0760783730075 4399.456259812228 -2554.5224504647776 -11621.638509952463 -26383.932401368394 -17174.365696254186 9937.958555957302 -526.7627172358334 -16906.804110283963 -2493.7778969183564 -13495.181631206535 -900.3518188986927 138.82958514615893 -2132.991538573988 -14037.47659968771 4846.515000873245 -682.809107218869 -2642.7229303168133 -16785.722838833928 z" vector-effect="non-scaling-stroke" fill="#000" fill-opacity="1" stroke="#FFF" stroke-width="0.3px" stroke-linejoin="round" stroke-linecap="round"><title>Franklin County</title></path>
<path id="23009" d="M -7567264.618884646 -5543011.667207777 l -557.1408923743293 774.7344291005284 -185.71374989394099 1225.4697120180354 -18.118360325694084 1606.19501136709 -448.43053114786744 1485.3192972270772 -1046.3379802387208 0 -1965.8472155770287 -1002.881454587914 -1444.9429091829807 685.52591231931 1440.4133191024885 1510.5135971046984 3465.145317044109 2068.6160828964785 36.23683196865022 767.6798019157723 1159.5779548790306 4230.594650216401 317.0721961846575 418.5126456441358 -113.24008596688509 1103.2599105378613 -285.3648429829627 1318.6639740765095 -462.01941271405667 1153.6746333241463 -652.2626413684338 678.1911048721522 -1100.69317251537 0 -353.3089168248698 -893.7015662323684 -185.71374989300966 -976.1997898304835 -643.2034612074494 -259.91508160624653 -1087.1044022794813 538.8398841638118 -36.2367206402123 494.4367752717808 135.88803636934608 785.9725479967892 -602.4370391620323 1375.2890035072342 -3428.908485083841 5657.41769047454 -1136.9300044858828 1874.4733089013025 -1386.0581268174574 -1557.8123157611117 -380.4865686269477 -1716.43436088413 326.13137634284794 -1976.516381489113 760.9730259347707 -2281.127941241488 -1752.9558138893917 678.061502950266 -670.3810016838834 481.5831898432225 -1014.6308496762067 -2566.6247452721 -1100.6931725163013 -4647.112045573071 -557.1410270435736 -4021.378554664552 489.19695319607854 -3470.976128838025 -389.54574878606945 -2570.771015469916 -3098.2475186623633 -1009.464065188542 -434.8417609119788 -425.40521969273686 22.648061722517014 -888.9706752048805 -49.82560220453888 -787.4465059265494 -634.1442810427397 -114.31243221648037 -987.4531978750601 615.9998937835917 -208.36170028988272 793.7528306329623 4.529701396822929 914.3174629695714 -330.6609664224088 1053.8910128595307 27.177651801146567 863.3377456422895 412.1936991903931 1060.0159609513357 86.0624341648072 894.8875638945028 -942.1571857491508 368.0842245090753 -1666.8933797180653 -63.4617304969579 -634.1442810436711 -482.32366792764515 -253.65760110411793 -1142.4474584441632 -72.47366391960531 -4374.360074847937 -380.4865686260164 -3506.0847407011315 -933.097894272767 -794.1380329439417 -1725.7782733999193 3798.5290101189166 -258.1873025018722 2311.3719951957464 67.94407384749502 2171.1390542965382 -321.60178626328707 894.9678820343688 -3578.38529169932 -4247.119218165055 -557.1410270370543 -1663.8366668475792 86.06243416573852 -2578.912759128958 -1988.4951659813523 31.764531343244016 -1997.5543461469933 -1137.2367019951344 -1540.0645235069096 -196.96600791346282 -620.5553994858637 2896.8769204868004 3582.9148817798123 1733.8732829326764 1304.5252827331424 2076.402361456305 -1848.077428214252 3116.889171080664 552.6113256393 533.1287890570238 348.77932674530894 571.1746811978519 276.30577413830906 577.484784649685 344.2497366666794 539.3755809124559 -4937.265878035687 101.52602586243302 -2287.4487792048603 -609.1728205308318 -1897.9031417369843 -1713.5170411486179 -806.2691493788734 3160.2360064024106 -2731.349720273167 3349.4145733667538 430.3120595132932 2105.44087462686 -2971.418662458658 963.7745594121516 -1521.9461631895974 -76.08371929358691 -416.7232892680913 -1883.2754365578294 375.95686722919345 -8381.173589948565 -951.2163659082726 -2437.7616049600765 -2011.1431163847446 -1104.825683735311 -3148.0731208678335 44.449642666615546 2047.3799483440816 4881.784852643497 231.00965070072562 2087.766725354828 -194.77281873393804 907.2996002202854 -371.42738846782595 659.7975110989064 -181.18404849711806 685.1236963123083 371.4272771514952 945.1325140008703 566.200207201764 602.5500581590459 462.01941271405667 317.11556502152234 244.59853225387633 558.0966235427186 -67.94407384563237 1230.228686062619 -543.5521454801783 1407.5839364100248 -1068.9860419537872 1863.7629187218845 -1032.7492099944502 1153.567167909816 -462.0193013930693 -747.9004883086309 9.05918015819043 -3677.0135347330943 -217.42088045552373 -1680.5084846615791 -552.6114369574934 -1604.699411562644 -2156.0903329132125 2892.060143750161 -2400.6889764945954 1204.7542382283136 -2609.0505654681474 -19.021304693073034 -2781.1754337968305 -792.5851810611784 1268.2885620910674 1597.781273977831 1281.877221012488 3638.345279995352 937.6275956621394 1723.5872988170013 144.9472165349871 1438.1855196645483 -1598.9494171952829 4186.55380124785 -448.43053115624934 1817.1646214602515 480.1377730378881 1892.7589669646695 1105.2227626023814 582.3085195310414 1268.2884507672861 278.48228714615107 951.2163659082726 911.3369948482141 570.7297972803935 2296.92510102503 -258.1871911762282 1625.84867545031 -982.9236077899113 455.4388726213947 -1612.5381874395534 -1189.2491153981537 611.496219326742 1644.6651339735836 819.857919617556 1138.4409959269688 1032.749209993519 847.413981645368 1272.8180408542976 708.2259328272194 -3166.1915925126523 1403.6431668773293 -10255.018213372678 -9159.178507032804 -3723.3325082287192 -303.77647183276713 -1866.1958998553455 582.2292710244656 -2273.860120278783 -1658.185596164316 -3107.306698827073 -3608.5436091395095 -2690.5834095533937 -956.1866200752556 -3958.8718603197485 2811.2827468384057 -3229.60596495308 272.21797677781433 1001.0419681128114 -5749.95408376772 874.2131119025871 -2749.606326355599 1576.3013554736972 -1159.6446927934885 1059.9267504755408 335.8684708951041 1046.3379802322015 1457.399494934827 896.8611736232415 329.466832944192 1059.9267504774034 -696.9630013573915 -108.71038456913084 -1609.5541623197496 -688.4994733268395 -1787.3183474782854 -643.2034612074494 -1223.4374985583127 1449.4726105872542 -1210.9210866326466 1250.1699791308492 -1445.7079487349838 742.8547769291326 -63.41349184140563 2282.9191891252995 1458.3988532321528 1114.2820540787652 196.54892118740827 606.9666292415932 -881.3333478821442 -2011.143227702938 -3412.0071472804993 -108.71038456819952 -2182.325034965761 -4212.529572742991 2290.1589730177075 -1114.2820540787652 995.8174346517771 -2024.7318866234273 3386.2338056610897 -1272.8180408533663 1591.2221465883777 -1254.6996805286035 247.2167546954006 -1010.1012595901266 -1730.658076950349 199.3025201316923 -2479.280684141442 797.2098578959703 -2511.6726479008794 770.0323174186051 -1789.037705621682 416.723400587216 -456.83179542422295 1327.1732331365347 -831.2390446877107 602.4370391629636 -755.1606660410762 289.8945443816483 -977.3597857924178 190.24322865437716 -2380.373419770971 217.42088045552373 -990.4186566388234 3379.0828828811646 -7920.878038043156 -398.6049289526418 -2745.650683806278 -3678.036607420072 -1067.9770942758769 -1848.0774324536324 -44.50180251151323 -2518.4585833242163 -8522.925901200622 -2024.7319492427632 -8671.059627205133 4294.384573073126 -2622.8863710397854 2918.3508800826967 3808.8179102567956 3117.2784761711955 586.6007997887209 1917.4778949515894 -5523.185281157494 4000.1533576510847 -4025.9971224265173 4837.832080596127 2772.6364373350516 3404.9279290577397 -5813.956569571979 18990.653840116225 -3599.2235134756193 -4954.159835276194 -28381.153774253093 -1282.6225049998611 -5799.279479749501 14156.94002408348 -2567.057065582834 -2431.6615097355098 -13480.816764661111 14119.0171471145 -2652.077987857163 -3712.762722576037 -19156.84806933254 13696.41184727382 -2474.6453646309674 13849.809771625325 -2847.5705785583705 4017.8523774528876 20568.23390921019 2870.3711776724085 19699.906674098223 1234.0872070156038 6976.946519182064 -13710.215241487138 2600.240648470819 7943.865952354856 41586.55695522018 2074.6605706820264 -391.04947803821415 2505.8005132367834 13205.429924830794 -2643.8367931442335 507.56017020437866 z M -7613208.36859996 -5490674.844520334 l -144.94721652939916 2626.3478205418214 -1304.5252827331424 1817.7995762638748 -3188.8396542323753 807.7950810473412 -1159.5779548808932 -2423.5991596644744 -1304.5252827331424 -1010.0223582116887 -1014.6308496762067 202.01347726862878 -2898.9449985241517 1413.9687980236486 -1449.4726105872542 -1211.9599324716255 -434.8417609119788 -1818.2407172936946 1594.4198271166533 -1414.4368644747883 1884.314260173589 404.1470306701958 289.8945443816483 -1616.6955088190734 1449.4724992634729 -1212.7091424502432 1739.3670436451212 606.3746583322063 579.7890887632966 1010.5350550729781 1304.5252827340737 -202.098054186441 1159.577954879962 -1010.5575262755156 1594.419827115722 1010.5575262755156 z M -7624224.359839269 -5519411.863267537 l 289.894433057867 2026.6952239600942 1304.5252827331424 1621.0322898151353 -1014.6307383514941 1620.7444740002975 -1449.4724992625415 -1012.9315956495702 -1304.5252827331424 -405.20414071157575 -1449.4726105872542 0 -869.6835218220949 -1215.7201999165118 0 -2229.240933368914 579.7890887642279 -2229.78583025001 579.7889774404466 -1216.476534950547 869.6835218220949 -1825.0190574396402 1014.6307383514941 -202.80238889809698 724.7363052926958 608.3937929850072 434.8417609119788 1824.9379090275615 z M -7641201.30698645 -5505772.016143776 l 2115.3240221934393 1581.0313818352297 733.7954854518175 1985.3877581562847 244.59842093940824 2035.5234097596258 643.2034611999989 1731.73446219787 -1290.9365124870092 682.491536363028 -2695.1129996329546 815.1312865195796 -1340.762003382668 625.5166193768382 638.6737598106265 1377.249632938765 842.5059813382104 878.0464187525213 2255.7416486432776 1105.3341992301866 0 959.9534450126812 -4371.065670833923 2348.9349840693176 -2219.504816682078 555.5739071890712 -3822.9838239504024 -2285.6449626348913 -430.3121708314866 -745.1679793968797 620.5553994858637 -1408.4066163348034 416.723400587216 -1433.8920989232138 -271.7760727396235 -1636.3012793688104 -1254.6996805286035 -2805.769131353125 928.5683041857556 94.80361052043736 1929.6103836176917 -189.608048456721 942.1570744309574 94.80443793628365 -511.8449036004022 -1485.3837492940947 -190.24333997163922 -1694.2642007973045 163.06568817142397 -1694.5782462051138 539.0225554006174 -1492.5007770927623 1281.87733232975 -1492.7444079443812 1277.3476309319958 -75.90873910486698 z M -7596978.8058197955 -5531372.198212662 l 321.60178626235574 3043.8627886157483 6305.205533213913 7472.177057412453 973.8643163125962 4465.173239535652 -2491.2808894226328 3064.188015088439 -4665.489805296063 2189.884457251057 -4728.90406642016 329.0702901156619 -2622.6394470250234 -2487.3052036091685 -760.9730259347707 0 -711.1475350484252 3651.6122352015227 1186.7557179993019 2176.350023826584 1440.4133191034198 1530.7263248162344 18.11836032383144 1713.856203374453 -1386.0581268183887 1896.8830943657085 -1920.551092141308 1858.5637684185058 -1698.6006215987727 360.2900742953643 -729.265895373188 -2579.231361477636 -493.7265432747081 328.7661058809608 -1277.3476309319958 518.4146124050021 -511.8450149167329 309.7703455220908 -1309.054872814566 -2130.6736191604286 -3777.687811830081 -1890.8354898486286 -1059.9267504774034 -2435.264174571261 1680.4821499632671 -632.6422902578488 335.1905565019697 -1075.592603606172 -770.0323174139485 -1025.094319618307 -1657.8341995580122 -455.6343202162534 -837.9762799423188 -810.072941348888 104.18079448956996 -1873.5687372721732 570.7297972803935 -2127.219684167765 2074.5576001461595 -5345.561113850214 973.8643163116649 -1824.7946582250297 978.3940177103505 -773.1132778786123 1517.4165731091052 -430.94409288465977 1277.3476309338585 -1077.449416367337 353.3089168248698 -1388.1960156681016 -1277.3476309319958 -1363.0464001949877 2314.6264310050756 -2993.0775669720024 4348.417609111406 -2131.2645737314597 4660.96010389179 -361.6032901033759 z" vector-effect="non-scaling-stroke" fill="#000" fill-opacity="1" stroke="#FFF" stroke-width="0.3px" stroke-linejoin="round" stroke-linecap="round"><title>Hancock County</title></path>
<path id="23011" d="M -7792953.8832922345 -5484739.180712114 l -2457.265660534613 -937.6510972427204 998.7584713939577 -4234.272061110474 2168.8368598865345 -1383.0972524369135 582.9800619715825 -2156.4536272818223 -7423.782961166464 -1710.7490721736103 -1702.297096611932 -2253.336054368876 135.58791902009398 -14330.180088141933 -2677.5668214969337 -3211.776970423758 -222.52732813358307 -2207.020763175562 -3147.2235305141658 -5435.097829395905 730.8122344184667 -2004.2043575989082 2406.0589174078777 -434.4141041887924 -3217.9108505686745 -16127.215821795166 9631.693073643371 322.8399993516505 374.4788783509284 -4528.13867166359 -3578.141168056056 -2337.4474669136107 3406.5980553766713 -6532.454369242303 146.53641358669847 -2816.340259158984 9604.268403884955 2251.2727478817105 2879.3892809432 -4596.858846511692 -318.1508820448071 -1053.4095169035718 8615.346679295413 -1672.3843390187249 3616.8278080495074 2808.0985296769068 211.7815463701263 3465.272591549903 2887.6267006238922 626.8647305024788 1838.2183061875403 -4827.393933519721 3820.0383102279156 1558.9717927724123 13740.223676092923 3460.9020404992625 1568.820553990081 -2823.6270448891446 1257.6508919326589 -1717.800946380943 1254.6996642947197 -2405.2049343436956 720.2066665086895 -3685.3989294832572 -924.0387419359758 -1559.9026871267706 -1802.78146711085 -1082.5390485739335 -1866.19589057751 -2229.163630207069 -1169.2153154788539 -3939.848445115611 16001.273191950284 -3129.258969720453 1444.8152257306501 331.18775765318424 -130.0209426060319 3966.7301424015313 -430.02730425447226 2514.9972225530073 3656.193162978627 733.5584218008444 -1970.5943239424378 3936.3525730399415 7493.580615845509 1047.183958643116 -2650.8508116165176 13927.8049909845 4951.823239165358 1044.209564124234 -2628.5869134664536 13656.311678024009 -5504.412968824618 -1055.4335485743359 -6827.556881672703 18852.42328786943 -1554.132635476999 9352.4224015465 -2671.632824715227 2942.464598965831 -1339.6509235436097 228.57402402348816 -10403.80461650528 -2702.74475132674 -1692.8352738535032 8099.6231903536245 973.1538753230125 16333.145339139737 -10873.215235261247 -2481.0986825451255 -445.85834586340934 -158.25366344861686 -571.1796393459663 -2152.710156900808 -10059.493765438907 -2236.8130455948412 -3083.103726455942 2848.2523792292923 -1816.0657275253907 6452.617096905597 z" vector-effect="non-scaling-stroke" fill="#000" fill-opacity="1" stroke="#FFF" stroke-width="0.3px" stroke-linejoin="round" stroke-linecap="round"><title>Kennebec County</title></path>
<path id="23013" d="M -7683448.901757367 -5503868.488022297 l -1630.6566590769216 2358.307178897783 -1929.6102722994983 7406.061017103493 -1594.4198271092027 4029.108608596027 -1096.1635824432597 2171.69920794107 -1177.696426522918 1312.8706796551123 0 959.2864881707355 606.9666292415932 2334.6853249818087 -742.8546656109393 2662.0774014322087 294.4240231420845 1765.8806268479675 3709.743849302642 -403.59976930357516 -1295.4661025684327 3360.6880748188123 -1177.6964265294373 2338.5139830689877 -1748.4262238023803 1348.6290917173028 -3034.833146220073 453.69989158026874 -828.9170997766778 1524.7710503423586 -493.72665459290147 2985.8011697558686 -1268.2884507747367 2015.1817242838442 -3143.5435307873413 -1347.603772321716 -172.12486833054572 1586.8772365832701 -452.9601212339476 894.0719862002879 -733.7954854527488 214.06072128005326 -991.9827879490331 -478.4954147161916 -910.4499438684434 1737.5747487377375 -452.96012122835964 1787.5960239041597 221.9504705350846 1598.4710059287027 1141.4595945617184 1208.1084557641298 -3967.9310404853895 2617.02357520815 -1277.3477422501892 553.5056582698599 -2169.679214477539 566.0508320070803 -602.4369278429076 -295.5998671837151 421.2528793485835 -3919.170815966092 3383.6124729663134 -5526.165396901779 1087.1044022776186 -2707.6498378748074 -2119.853612272069 163.74108875915408 -6717.399232401513 8825.100492928177 -1299.9956926554441 1352.600660752505 -357.8385069044307 -1962.9088652729988 1177.696426522918 -4159.984225075692 -1200.3444882435724 -780.6002890821546 -1598.9494171962142 446.9648215333 -2781.175433797762 1693.2324550095946 -1802.7814160939306 -31.469949712976813 1807.3111174926162 -3405.67762930505 609.4983806544915 -1818.8926331503317 540.4537171246484 -196.93622453324497 1851.3715439969674 46.470929690636694 697.5277066724375 -4056.5705798575655 1240.6776548326015 -1828.4392768451944 3041.3889736682177 -947.2389545338228 -126.45883021969348 -2186.797593298368 -2354.7402981948107 -4759.562661836855 11.799977343529463 -5671.343177470379 -3783.3023216724396 -11868.197431280278 -3850.6511701960117 615.7487579304725 -3741.7808195184916 -821.05984114483 262.82520644553006 -1318.9439869197085 -3247.299530096352 -1166.1166720353067 -1872.2817364158109 -5534.827157734893 995.6411916986108 -3436.8286233618855 -1180.2085734745488 -4600.370975619182 1596.6547885304317 -1633.0928401378915 3057.834202040918 -555.6851191828027 1703.8555694865063 -2265.262070179917 5403.668829656206 5248.853713000193 8481.87472115364 -8664.383899755776 16490.974451712333 16952.364135227166 8703.177534895018 -599.3320019040257 z M -7637269.612666607 -5479164.903428144 l 579.7889774404466 2824.7930891523138 289.8945443825796 3630.5986589286476 -1014.6308496743441 3629.162408253178 -2898.9449985269457 806.2856125393882 -2464.103348937817 1209.295713209547 -724.7363052945584 -1410.8604374537244 289.8945443825796 -2015.8912188997492 724.7363052945584 -3024.667546166107 289.894433057867 -2016.9993302971125 1159.5780662046745 -2017.442881481722 1594.419827115722 -2017.886887036264 z M -7660026.331561842 -5488452.501217537 l -1449.4724992644042 606.0000153910369 -1884.3142601726577 1009.9109740108252 -1159.5780662056059 2019.4877906916663 -1304.5252827331424 807.6704444307834 -2753.9977819975466 -1615.4121025651693 -1449.4726105863228 -605.8530279509723 -2029.2614767020568 1413.5946860853583 -2029.2615880277008 3028.397321618162 -579.7889774404466 -1816.9182765865698 289.8944330587983 -1211.4790450315922 1304.5252827331424 -2625.4209800725803 4348.417609112337 -3434.379007213749 3623.681415143423 -2627.1593368425965 4058.5230647297576 404.22734923567623 1014.6307383524254 1414.6556130312383 z M -7664139.209818859 -5480237.0392387565 l 2310.0968409273773 889.2509101470932 4968.973008598201 794.5768450060859 1087.1044022776186 428.7907912284136 -185.7136385748163 3101.8291600802913 -1345.2917047794908 1474.8921073423699 -1540.064634825103 894.9044580468908 -729.2657840549946 1398.9010190851986 -928.5684155048802 869.4795881742612 -2128.912792435847 -491.43487462215126 -3859.220544599928 -2054.2307919738814 1019.1603284385055 -2609.410254389979 -883.2722920682281 -2193.991780113429 -2083.6167803052813 -1626.9191220542416 -2609.050565467216 -876.6380559569225 960.2755460673943 -2870.1575528495014 1938.66945245862 31.545151636004448 z" vector-effect="non-scaling-stroke" fill="#000" fill-opacity="1" stroke="#FFF" stroke-width="0.3px" stroke-linejoin="round" stroke-linecap="round"><title>Knox County</title></path>
<path id="23015" d="M -7719690.244845081 -5466642.811699785 l -516.3745908420533 -906.9150773724541 -1961.3175141802058 -346.41474134102464 -81.53284408524632 -875.5431711087003 2042.850358265452 -2482.209258212708 502.7858347520232 -2048.013180830516 -770.0323174111545 -1506.3691893666983 -1123.3412342388183 -6.303303505294025 -579.7889774460346 2457.9662033272907 -788.1506777368486 1228.736105539836 -1603.479007275775 743.4629530096427 -1250.1700904490426 825.2994455788285 815.3283295389265 3741.266404555179 -1426.8245488591492 1253.046385907568 -1843.5478381346911 415.545471502468 -679.4402931686491 -226.65886327903718 -1173.1668364424258 1813.1139798965305 -765.5026160152629 2140.021138996817 -3451.556546806358 13483.256452404894 -1707.6598017644137 4510.9673733776435 -2092.675960469991 2499.5566133605316 -158.53609809279442 -3203.0716669550166 -815.3283295379952 -2267.9461796209216 -914.9795339470729 -1954.2743254061788 -452.9601212302223 -2250.129033748992 -697.5586534915492 0 -579.7889774395153 2206.1373322047293 -240.06894217804074 2381.5315628107637 -4.529590079560876 5087.752310715616 -1517.4165731109679 -2191.785652658902 828.9170997776091 -1149.4829184748232 -1698.6006215987727 -1828.1618987293914 -158.53609809279442 -1470.3317625988275 566.2002072026953 -1401.4324390282854 462.0194127112627 -1634.2265342408791 163.0656881723553 -1005.8220952302217 543.552145479247 -1810.7571947807446 122.29926612600684 -779.7414013361558 -244.59853225760162 -1056.5293873455375 -1041.8082788325846 -1018.911140492186 -235.5393521003425 -1138.5465087871999 960.2755460739136 -3548.6413050796837 3320.1981005165726 -6156.746247972362 -548.0818468779325 -2575.978536369279 -1213.9332584869117 1404.5963390441611 -1023.6900298362598 2071.8594326786697 -1494.7685113893822 4010.144265097566 -1454.0020893402398 2416.5727308196947 -584.3186788447201 1321.2944547552615 135.88803636841476 1056.8988670259714 308.0129047073424 1094.5170523319393 -267.2464826600626 1358.5294970953837 -566.200207201764 1301.735902437009 -606.9666292406619 955.7466939166188 602.437039161101 980.7945871166885 203.83211021125317 1169.272243756801 -199.3025201316923 1175.408982725814 -606.9666292406619 986.7246204018593 1105.2228739140555 1935.432764308527 770.0322061004117 2324.494922657497 208.3617002889514 2575.1061182226986 -570.7297972794622 2649.723377848044 -1250.170090449974 2171.953465975821 -416.7232892680913 -1261.6794348601252 154.00639669410884 -5123.817512890324 -1685.011740042828 1469.6216783830896 -1621.5974789168686 182.11625129543245 -1689.5414414405823 -935.7391203287989 -1925.0806822199374 -1865.4817278245464 -1331.7028232179582 -1620.8262229068205 -135.8881476856768 -1005.3070938428864 2305.5672508450225 -3708.0193178476766 -489.1969531951472 -1144.1313588349149 -135.88803636934608 -855.0481918677688 176.65445840917528 -880.2796518513933 448.430531155318 -1245.1110065355897 774.561907492578 465.36427283193916 1458.531790746376 314.4219238208607 729.265895373188 276.68249233905226 -937.6275956695899 -1823.7422705711797 -1277.3476309329271 -654.1196797713637 -1105.2228739140555 -855.4578073835 -480.1377730369568 -2516.5134578114375 362.3680969849229 -1931.8917057448998 1920.55120345857 -5558.81443923153 702.0882435720414 -673.8335442608222 1218.4628485674039 -1467.4910767413676 452.9601212302223 -1297.633733522147 -1612.5381874339655 -214.1902814777568 -1512.886983031407 976.4148006467149 -1535.5349334264174 1820.2639860818163 -6853.548298696056 11148.765492335893 0.000004581175745 -0.000015133060515 -400.2324387691915 -4936.732561727054 2436.7025015521795 -5824.466377066448 -10929.586090346798 -1877.2757646525279 898.6300782533363 -1527.4646050194278 1014.6307383514941 -1209.6676226370037 1159.5780662046745 -1411.4805877087638 289.894433057867 -1210.0132817272097 0 -806.7641528798267 -724.7362235635519 -201.7021463206038 1412.0319249602035 -7589.042706490494 716.8808437632397 -3202.1856268653646 138.36246218066663 -1362.3254004577175 10873.215235261247 2481.0986825451255 -973.1538753230125 -16333.145339139737 1692.8352738535032 -8099.6231903536245 10403.80461650528 2702.74475132674 1339.6509235436097 -228.57402402348816 2671.632824715227 -2942.464598965831 1554.132635476999 -9352.4224015465 10837.171394165605 2298.416735192761 -3057.834202040918 555.6851191828027 -1596.6547885304317 1633.0928401378915 1180.2085734745488 4600.370975619182 -995.6411916986108 3436.8286233618855 1872.2817364158109 5534.827157734893 3247.299530096352 1166.1166720353067 -262.82520644553006 1318.9439869197085 3741.7808195184916 821.05984114483 3850.6511701960117 -615.7487579304725 3783.3023216724396 11868.197431280278 -11.799977343529463 5671.343177470379 2354.7402981948107 4759.562661836855 126.45883021969348 2186.797593298368 -3041.3889736682177 947.2389545338228 -1240.6776548326015 1828.4392768451944 -697.5277066724375 4056.5705798575655 -1851.3715439969674 -46.470929690636694 z M -7754966.782657019 -5432867.336839707 l -2319.1560210855678 -3414.0306550255045 -434.84176091104746 -2611.5830898415297 1739.3670436441898 -3818.26175883878 2898.9449985260144 2411.7179672736675 -144.94721652846783 2812.8728173887357 -434.8417609119788 4418.494448041543 z M -7755546.571634459 -5458604.154252265 l 0 2013.2839898606762 -1304.5252827331424 1409.0363144446164 -1014.6308496780694 4426.99461299181 -3.413723501376808 23.523381450213492 -4.194295775145292 28.70895018707961 -5.787389005534351 39.38877549674362 -7.332058263011277 49.605264221318066 -8.827858259901404 59.35777326859534 -10.275011637248099 68.64690058585256 -11.673407081514597 77.47201290167868 -13.023267232812941 85.83371753897518 -14.324258111417294 93.73139011487365 -15.57660239096731 101.16564639471471 -16.780300040729344 108.13586995750666 -17.935128442943096 114.64268404897302 -19.041421537287533 120.68547930195928 -20.099068021401763 126.2648855028674 -21.10773392394185 131.380299388431 -22.06797585915774 136.0323563432321 -22.97934852167964 140.22045829333365 -23.842074583284557 143.94524527620524 -24.65604269783944 147.20612347871065 -25.421475514769554 150.00373664218932 -26.138039072975516 152.33749425411224 -26.805956022813916 154.20804288610816 -27.425226350314915 155.6147943586111 -27.99562741909176 156.55839710775763 -28.517493192106485 157.03826440218836 -28.990712353028357 157.05504558514804 -29.41495092585683 156.6081544375047 -29.79076552670449 155.69824029505253 -30.117710875347257 154.32471648417413 -30.396009601652622 152.48823140375316 -30.62555038649589 150.18819703068584 -30.806555883958936 147.42525988444686 -30.93869211897254 144.19882961641997 -31.02218173351139 140.50954995211214 -31.057024738751352 136.35682734288275 -31.04299848061055 131.74130173772573 -30.980436923913658 126.66237541753799 -30.86922875791788 121.1206836970523 -30.709040007553995 115.11562374792993 -30.500427280552685 108.64782528672367 -30.24294530041516 101.71667945478112 -29.93681669794023 94.32280944660306 -29.581930169835687 86.4655994316563 -29.17850832734257 78.1456651603803 -28.726217238232493 69.3623829241842 -28.225279529578984 60.11636005435139 -27.67569520045072 50.40696405060589 -27.07724162656814 40.23479291331023 -26.430252734571695 29.599204377271235 -55.53918638918549 51.98595194052905 -30.152553875930607 28.64683363866061 -31.62052399571985 30.28737362008542 -32.99810270033777 31.831390141509473 -34.28517865110189 33.27872933167964 -35.48197449091822 34.62985510844737 -36.588156279176474 35.88430503755808 -37.603946628049016 37.042234546504915 -38.52934555709362 38.10364466998726 -39.36413041781634 39.06853665690869 -40.10863517038524 39.93675740342587 -40.76274849753827 40.70877152774483 -41.32613644283265 41.38411731366068 -41.79935559909791 41.96295075584203 -42.18196068610996 42.44527346547693 -42.4741743542254 42.831087154336274 -42.67588526941836 43.12023913953453 -42.78731608018279 43.31319444067776 -42.808132817968726 43.40949159767479 -42.73855814617127 43.40928687620908 -42.578592031262815 43.31258205790073 -42.32801185827702 43.11937898490578 -41.9871515808627 42.82952504232526 -41.55589987244457 42.443485202267766 -41.03392278123647 41.960798003710806 -40.42177689541131 41.38161955587566 -39.71901695430279 40.70595147181302 -38.925865585915744 39.933795338496566 -38.04221145994961 39.0649982476607 -37.06827724073082 38.10002479609102 -36.003728948533535 37.03841311763972 -34.84878922998905 35.88031880836934 -33.60345809068531 34.62574296537787 -32.2675128756091 33.2746865330264 -30.841287564486265 31.826995971612632 -29.32467082515359 30.283135128207505 -27.717328692786396 28.642641343176365 -26.01981777884066 26.905669377185404 -24.231692792847753 25.072219405323267 -22.353176390752196 23.14229142665863 -20.384157239459455 21.115730825811625 -18.324857973493636 18.993000384420156 -16.17494465317577 16.77363629732281 -13.934639896266162 14.457792103290558 -11.603943726047873 12.045466682873666 -9.182633470743895 9.536658722907305 -12.116458657197654 12.592122905887663 -724.7363052945584 -2010.4671838786453 -1014.6307383505628 -2815.3922743489966 869.6835218230262 -2615.064411518164 2464.103348937817 -3018.306327160448 724.7361939698458 -2817.9802459031343 1739.3670436432585 -3422.9951582420617 z" vector-effect="non-scaling-stroke" fill="#000" fill-opacity="1" stroke="#FFF" stroke-width="0.3px" stroke-linejoin="round" stroke-linecap="round"><title>Lincoln County</title></path>
<path id="23017" d="M -7913140.65536283 -5669554.012284999 l 2308.9208618272096 -437.18589500989765 1090.116596383974 -523.4934359407052 1976.0160284182057 -2061.552825368941 1009.5803957013413 -1783.789082955569 1231.0550867291167 -1342.167016188614 2603.0487751159817 -744.8257848937064 2787.131917123683 523.8399536293 1837.9538110671565 1980.4929382195696 4975.993928888813 13573.428375030868 1613.602624409832 1838.1937462789938 2010.5316384127364 -1748.317874930799 417.06314767710865 -1519.8422216586769 -209.96971034165472 -2991.4086834387854 250.23786634206772 -1414.3189087416977 848.5076603749767 -1144.6985883070156 2252.140574433841 -1717.321849545464 4293.926273087971 27838.688957826234 2642.7229303168133 16785.722838833928 -4846.515000873245 682.809107218869 2132.991538573988 14037.47659968771 900.3518188986927 -138.82958514615893 2493.7778969183564 13495.181631206535 526.7627172358334 16906.804110283963 17174.365696254186 -9937.958555957302 11621.638509952463 26383.932401368394 -4399.456259812228 2554.5224504647776 29976.21344759036 6437.0760783730075 -1011.5598788801581 4585.548697484657 998.5349418595433 5492.022473184392 3338.6931660007685 255.9798141233623 1351.0838805232197 6949.427734119818 -3947.7218774929643 2824.686678241007 -491.5869826609269 4012.3754333164543 1492.7935922984034 8118.486835787073 -6684.845405791886 24039.678610399365 -979.7223931932822 -357.19400298874825 -16830.50056842249 23302.06180176325 583.0910474983975 4403.812676249072 -3200.100288638845 -1444.4219106864184 -3934.9199134111404 5510.282929224893 -2209.245946363546 -2982.6941609485075 -2086.5572846587747 976.2275286074728 -2319.963977953419 -3686.1096209958196 -1005.2368204863742 -3166.1986681912094 692.8525107009336 -5651.150930960663 2064.1522333845496 -3884.6545188203454 -1207.4151683421806 -3908.560345799662 -2851.2842264659703 -3311.4374129828066 -7967.912632158957 5720.911776162684 -403.0877648405731 -769.8106618002057 -13607.80175524205 9602.09897371661 -4045.3484029965475 -2783.6195823578164 180.55954615026712 5774.826684966683 4272.997095624916 3487.1424662629142 2279.1372207487 -764.4075505072251 2035.9386424040422 1764.8033310435712 7116.652152103372 10384.607776591554 -3278.358001984656 2256.568685695529 1682.2594769503921 2917.425507862121 -3201.926150930114 3281.2232213215902 352.0366463670507 2871.3654401926324 -1099.9476658860222 2598.614308938384 -1814.0616427343339 -332.0059311715886 -3205.39469692111 2650.8074033195153 606.9666246054694 1934.5690149972215 1023.6899788100272 1890.2089086025953 1340.7620961451903 1732.8739236043766 -1390.4871792048216 1655.6590394452214 -4869.803038346581 2.046243847347796 -8263.04409066774 1774.0703513445333 -1533.6023157546297 1273.0448685651645 -5192.529570364393 -98.69232639018446 -124.41899434942752 -2389.2960472637787 -434.8417913224548 -8262.227907400578 -437.559533752501 -8262.105492766947 -432.1240489045158 -8269.53513073083 -434.84169121831656 -8288.323564145714 -440.27727617509663 -8292.032140796073 -429.4063064754009 -8288.178765714169 -434.8416912164539 -8303.26359157078 -437.55953375343233 -8314.597082857974 -432.12404889892787 -8322.165192202665 -434.8416912164539 -8322.154284362681 -434.84179132897407 -8329.75071064476 -434.8417913224548 -8341.175287375227 -434.84169121831656 -8352.63156827353 -434.84179132804275 -8352.677562996745 -434.84179132804275 -8364.176709507592 -434.84179132338613 -8371.88669617474 -434.84169121738523 -8379.6182270227 -434.84179132804275 -8387.37137529999 -434.84179132897407 -8395.14607345406 -434.841691210866 -8406.778034406714 -434.8417913299054 -8414.603623195551 -432.1240489045158 -8410.924043504521 -437.5594336343929 -8422.61800717935 -432.1240489045158 -8438.1943370644 -437.55953375343233 -8446.108103935607 -434.84179132897407 -8446.330379417166 -434.84169120993465 -8450.413902602158 z" vector-effect="non-scaling-stroke" fill="#000" fill-opacity="1" stroke="#FFF" stroke-width="0.3px" stroke-linejoin="round" stroke-linecap="round"><title>Oxford County</title></path>
<path id="23019" d="M -7660933.450381264 -5843984.173116926 l 13853.037925537676 78.60637887567282 -2.671890414319932 2081.9085308220237 23013.84966444224 -75.03603609930724 5764.232771656476 144.58718398492783 -20.929956704378128 42750.417769555934 -130.0212765643373 11699.649735124782 533.665193582885 1261.1108349049464 219.18740945868194 13353.9702725159 380.2673805439845 1201.8816843861714 127.46048300620168 11054.259646601975 -165.19879225455225 18520.43599956669 -434.3687643976882 2061.102805580944 514.4597149873152 24284.67333860509 3483.2636889647692 2983.6980364443734 15541.845175478607 -3455.825286824256 -295.1077474588528 -1262.0423028850928 10141.536118836142 -2280.1480977647007 13325.04980334919 -3267.030430576764 7479.997968181036 33610.95315178577 2918.35043480061 11861.062882385217 -1270.1548333559185 275.6299052396789 3013.0829875143245 13381.458361384459 -9704.495909303427 1684.8207774395123 -3292.718104980886 234.8340452266857 -13849.809771625325 2847.5705785583705 -13696.41184727382 2474.6453646309674 3712.762722576037 19156.84806933254 -14119.0171471145 2652.077987857163 2431.6615097355098 13480.816764661111 -14156.94002408348 2567.057065582834 1282.6225049998611 5799.279479749501 4954.159835276194 28381.153774253093 -18990.653840116225 3599.2235134756193 -3404.9279290577397 5813.956569571979 -4837.832080596127 -2772.6364373350516 -4000.1533576510847 4025.9971224265173 -1917.4778949515894 5523.185281157494 -3117.2784761711955 -586.6007997887209 -2918.3508800826967 -3808.8179102567956 -4294.384573073126 2622.8863710397854 -747.3842765660957 -4274.914335255511 -19009.689565851353 4303.496792568825 -18857.181659330614 4337.49492484238 -2412.959723962471 -13402.601860067807 -6850.71055652108 1203.4704847652465 -2165.162982732989 -13491.901161571033 557.0426206067204 -108.42145436163992 -8300.421947406605 -41645.91975282412 16880.03685127385 -3191.03342636209 17079.74368379824 -3384.140991820954 5740.410177986138 -1334.4810160892084 15873.152502326295 -3026.3865338210016 -2720.5356996683404 -12974.237004614435 11678.746410608292 -2427.6804689392447 -7667.1259208880365 -38848.51994302776 -1422.2169238189235 -6590.083137023263 -11832.033460741863 2340.7352270437405 1379.1371714361012 -10954.130059910938 87.83152351435274 -8627.918819769286 -932.6341372672468 -4261.182789731771 14942.744086954743 -3547.255591372028 -74.36108589172363 -10556.12361001689 313.0311873462051 -19862.19236825127 93.95420683175325 -20008.610126878135 -13.245349615812302 -40153.2831157241 z" vector-effect="non-scaling-stroke" fill="#000" fill-opacity="1" stroke="#FFF" stroke-width="0.3px" stroke-linejoin="round" stroke-linecap="round"><title>Penobscot County</title></path>
<path id="23021" d="M -7761311.646538067 -5872790.445469567 l 38577.97892636992 131.33261439297348 13915.154201407917 -81.12961174547672 19074.14279029332 224.60477868840098 28519.70967533067 -48.416880399920046 92.72813395410776 28579.236139309593 198.48242944665253 0.645312394946814 -308.24467188399285 23475.801842984743 13.245349615812302 40153.2831157241 -93.95420683175325 20008.610126878135 -313.0311873462051 19862.19236825127 74.36108589172363 10556.12361001689 -14942.744086954743 3547.255591372028 932.6341372672468 4261.182789731771 -87.83152351435274 8627.918819769286 -1379.1371714361012 10954.130059910938 11832.033460741863 -2340.7352270437405 1422.2169238189235 6590.083137023263 7667.1259208880365 38848.51994302776 -11678.746410608292 2427.6804689392447 2720.5356996683404 12974.237004614435 -15873.152502326295 3026.3865338210016 -5740.410177986138 1334.4810160892084 -17079.74368379824 3384.140991820954 -16880.03685127385 3191.03342636209 -16108.259155565873 3126.2429823270068 591.9968294007704 2682.352718118578 -2452.8126582633704 1874.2579704318196 -11567.204503467306 2180.6047669211403 -2717.196003621444 -14193.702547411434 -1041.6161413928494 137.67794137448072 -3381.8841265486553 -17269.991995316 278.4099351549521 -544.19709827099 -2775.7499444577843 -12428.16863425728 840.2390712322667 -140.35710005648434 -2830.8532037185505 -13081.199518804438 -2257.892007247545 -9299.577280897647 -3551.337565936148 -18921.298803044483 2355.392871601507 -789.1965769603848 2355.3928716033697 -1928.0028673447669 1993.0247375098988 -2478.5479175094515 1654.3836269443855 -5541.507792242803 -962.6903997808695 -4770.576851214282 -3516.2449708273634 -1668.6646341206506 181.4964109864086 -3363.6650966042653 -4654.507135652937 -1413.5868088435382 -1040.1911405958235 -5704.447888064198 -3601.4955519447103 -2631.488420573063 4095.791160461493 -1028.8335303803906 2100.820984969847 -1900.0555637171492 2200.98581751436 -299.12360928114504 1917.7966026552022 1226.4720234675333 2608.00739051681 -8947.296684352681 -1001.7559713255614 -3143.9908835273236 1001.7859162678942 -3645.823613088578 -2512.9472245480865 -3905.4492833828554 2503.9528323309496 -1076.0004282332957 2609.6171816755086 5435.760212505236 1510.293350212276 -1652.6461787763983 2869.1241767387837 -352.16837602481246 -4306.390939113684 -18870.549427428283 -5035.646815728396 960.3339716996998 141.71026837360114 -9918.479269628413 -303.67812373302877 -34119.86477083899 -109.87111289333552 -23102.467218854465 1438.5812229244038 -30.989062370732427 z" vector-effect="non-scaling-stroke" fill="#000" fill-opacity="1" stroke="#FFF" stroke-width="0.3px" stroke-linejoin="round" stroke-linecap="round"><title>Piscataquis County</title></path>
<path id="23023" d="M -7761032.180277978 -5455720.766400625 l -3469.4138772068545 5638.593394438736 -1059.9268617955968 2199.9670391613618 729.2658953722566 1124.922725985758 1381.5285367397591 659.8068601954728 924.038714107126 816.8380984812975 249.12812233623117 2104.595133847557 -326.1313763409853 2166.9160717790946 -1517.4165731100366 4244.421424424276 1159.5780662046745 -954.196553629823 1499.2982127843425 -3648.2019322915003 1141.4595945626497 -753.6814717706293 828.9170997766778 1092.8180309981108 -285.36495429556817 2329.6556602278724 -2613.5801555477083 7870.004057209007 -1585.3605356393382 2640.656480331905 -1449.472610580735 -112.88672197237611 -978.3939063902944 -4334.640356426127 63.41437244322151 -1116.9236155916005 289.8945443825796 -627.5444631716236 326.13137634284794 -414.20281859952956 158.53598677366972 -433.0500783091411 -244.59842093940824 -1098.4067319445312 -539.0226667178795 -326.40905325114727 -543.5521454811096 0 -262.71689258050174 -112.99043180886656 -760.9731372548267 -7466.71616828721 -362.36809698399156 -1652.4130409751087 -788.1506777368486 -2042.3653311664239 -371.42738846782595 -1678.2209703354165 -135.88803636934608 -1986.6047684578225 45.296012124978006 -1810.950344165787 -90.59202424436808 -1748.4083578167483 -579.7889774469659 -1736.159085592255 -276.30577413737774 -3127.1716986112297 -434.8417609119788 -2819.7714575119317 289.8945443825796 -2216.1420411765575 289.89454438351095 -2619.766971941106 405.8952044798061 -689.8452308550477 10929.586090346798 1877.2757646525279 -2436.7025015521795 5824.466377066448 400.2324387691915 4936.732561727054 z M -7767287.299208657 -5474726.333515497 l -869.6834922265261 403.3997984183952 -724.7363052954897 1210.093092259951 -1159.5780662037432 806.6401580274105 -2029.2614767029881 1209.8271199306473 -3043.8923263782635 4031.6054007997736 -2174.2088045571 2015.1390296528116 -1159.5780662046745 1611.7926738392562 -869.6835218230262 1611.5100034680218 -0.000033100135624 2013.989872019738 -7922.273310057819 2063.881711030379 -2522.9881336195394 157.2890410106629 -2346.3336682496592 -1220.6335759190843 -3736.575145592913 -3286.4649294279516 -1894.0007475521415 -1777.3074956284836 1675.9875256130472 -2377.6057664696127 -564.3454018449411 -1974.7126345774159 1247.802102244459 -3943.37736010924 2426.764787973836 -12567.913334942423 11958.158109852113 2612.38607299421 1816.0657275253907 -6452.617096905597 3083.103726455942 -2848.2523792292923 10059.493765438907 2236.8130455948412 571.1796393459663 2152.710156900808 445.85834586340934 158.25366344861686 -138.36246218066663 1362.3254004577175 -716.8808437632397 3202.1856268653646 z M -7776129.081725141 -5459006.863861006 l 1449.4726105881855 -1208.2350472407416 1014.6307383505628 -1208.393964865245 724.7363052945584 604.2168511515483 434.84176091104746 1409.6847472013906 724.7361939689144 4227.757326799445 1431.3541389452294 11295.936341292225 149.47691792529076 5457.561673396267 996.5123780332506 5272.361597446725 1050.867570319213 2785.601631883532 235.5392407719046 1461.4769290238619 -770.0323174111545 3994.3578282687813 -371.4272771505639 683.3196225902066 -1395.1173069775105 526.5604928117245 -1232.0517301261425 1310.0022161137313 -960.2755460729823 1729.670187253505 -588.848157598637 1798.2625989289954 -1241.1109102908522 -1691.7356605185196 -280.83525289967656 -4776.126764953136 -1141.4595945617184 -990.6349859852344 -647.7330512879416 -1166.3270935537294 -54.35530360136181 -2546.3660090835765 321.60178626328707 -3563.584326880984 412.19369918853045 -1066.8337340401486 529.9633752349764 -451.8726018881425 448.43064247537404 -627.6377974012867 194.77281873393804 -1581.836642057635 -371.4272771505639 -1343.5190119389445 -1671.4230811158195 -1506.9835192710161 -375.95686722919345 -1419.3017023960128 308.0129046998918 -1620.532203854993 448.430531155318 -904.6071370476857 -104.18079448863864 -559.1418807022274 -1336.2325246138498 -596.8743818392977 -1127.8708416689187 -150.79542960692197 -86.99649866763502 -3703.1497597200796 1667.3960985373706 -3732.5299580981955 854.4883000114933 -3882.880531608127 z" vector-effect="non-scaling-stroke" fill="#000" fill-opacity="1" stroke="#FFF" stroke-width="0.3px" stroke-linejoin="round" stroke-linecap="round"><title>Sagadahoc County</title></path>
<path id="23025" d="M -7853939.233384624 -5727427.455813441 l 4274.832303598523 -2061.27894611191 3336.504624811001 -2857.636978457682 1331.7255323966965 -626.0025009475648 2490.873237441294 -24.711638404987752 1256.9417663924396 -345.9683797825128 2206.1198724340647 -1754.7616838524118 1331.7255323762074 -2331.9788429485634 546.496434694156 -2893.1612285831943 -166.82517000474036 -3430.14973702468 -483.2179833529517 -1674.3271295968443 -601.1460670251399 -965.1494341054931 -388.3000836884603 -973.5045438986272 215.72225634846836 -1691.511104086414 589.6408636989072 -1015.0612531490624 2240.635482418351 -2286.3748077945784 8588.622988373972 -6804.824113314971 3281.8549924716353 -3652.308620855212 2298.1613877639174 -5208.376300896518 733.4557383740321 -4135.807978218421 -802.4868470439687 -1274.2170349108055 -1924.2428917298093 -397.19603191595525 -2617.430251455866 -1489.6433862606063 -1374.8699614033103 -2301.1629888955504 -66.15483566746116 -2566.749385550618 1196.5395880555734 -5823.480057002045 279.0008190087974 -505.48947809729725 1038.3432370489463 -1035.9294715160504 255.9904123498127 -596.7502468954772 -112.17553768586367 -862.0435844473541 -342.2793816700578 -613.4282460957766 -523.4860280361027 -621.761096267961 -442.9498273404315 -679.8422442115843 -733.4557383656502 -945.2330801207572 -140.93860167264938 -1235.5883386470377 1369.117415397428 -1559.2436214033514 3995.1767084924504 -2779.1201101411134 1665.3759837439284 -2248.822338880971 609.774886037223 -3278.827677644789 -583.8882063729689 -3495.9879014464095 -1567.581922389567 -3289.649781094864 -2390.2029031012207 -1387.6686270227656 434.3208970082924 -3216.5732488781214 3060.3800787962973 -6378.428737924434 1918.4901230828837 -5933.495948706754 1389.2514377431944 -2006.4739926205948 2427.594786089845 -757.7499155262485 264.6193426819518 -1573.9964646408334 276.12454600445926 -3482.1117992894724 960.6831980478019 -3475.152141112834 2335.5532707609236 -1575.5203674947843 1599.221148072742 -750.3466391647235 8764.077088721097 -7540.363761564717 1392.1277107354254 -4177.504368226975 1305.8389640413225 -10646.785594900139 1230.19983047992 -10145.834902801551 35398.104598569684 18.078177225776017 181.89482344593853 29150.384827357717 -1438.5812229244038 30.989062370732427 109.87111289333552 23102.467218854465 303.67812373302877 34119.86477083899 -141.71026837360114 9918.479269628413 5035.646815728396 -960.3339716996998 4306.390939113684 18870.549427428283 -2869.1241767387837 352.16837602481246 -1510.293350212276 1652.6461787763983 -2609.6171816755086 -5435.760212505236 -2503.9528323309496 1076.0004282332957 2512.9472245480865 3905.4492833828554 -1001.7859162678942 3645.823613088578 1001.7559713255614 3143.9908835273236 -2608.00739051681 8947.296684352681 -1917.7966026552022 -1226.4720234675333 -2200.98581751436 299.12360928114504 -2100.820984969847 1900.0555637171492 -4095.791160461493 1028.8335303803906 3601.4955519447103 2631.488420573063 1040.1911405958235 5704.447888064198 4654.507135652937 1413.5868088435382 -181.4964109864086 3363.6650966042653 3516.2449708273634 1668.6646341206506 962.6903997808695 4770.576851214282 -1654.3836269443855 5541.507792242803 -1993.0247375098988 2478.5479175094515 -2355.3928716033697 1928.0028673447669 -2355.392871601507 789.1965769603848 3551.337565936148 18921.298803044483 2257.892007247545 9299.577280897647 2830.8532037185505 13081.199518804438 -840.2390712322667 140.35710005648434 2775.7499444577843 12428.16863425728 -278.4099351549521 544.19709827099 3381.8841265486553 17269.991995316 1041.6161413928494 -137.67794137448072 2717.196003621444 14193.702547411434 11567.204503467306 -2180.6047669211403 2452.8126582633704 -1874.2579704318196 -591.9968294007704 -2682.352718118578 16108.259155565873 -3126.2429823270068 8300.421947406605 41645.91975282412 -557.0426206067204 108.42145436163992 2165.162982732989 13491.901161571033 -6750.856973278336 1171.0403838483617 -1798.8108724886551 -5548.547894647345 -4644.692764070816 -599.1062529152259 -1066.663026822731 2960.815708572045 -2135.2213792977855 2781.048631480895 -282.57584445457906 2510.5637122420594 -6128.86532972008 1270.1093223625794 130.0209426060319 -3966.7301424015313 -1444.8152257306501 -331.18775765318424 -16001.273191950284 3129.258969720453 1169.2153154788539 3939.848445115611 1866.19589057751 2229.163630207069 1802.78146711085 1082.5390485739335 924.0387419359758 1559.9026871267706 -720.2066665086895 3685.3989294832572 -1254.6996642947197 2405.2049343436956 -1257.6508919326589 1717.800946380943 -1568.820553990081 2823.6270448891446 -13740.223676092923 -3460.9020404992625 -3820.0383102279156 -1558.9717927724123 -1838.2183061875403 4827.393933519721 -2887.6267006238922 -626.8647305024788 -211.7815463701263 -3465.272591549903 -3616.8278080495074 -2808.0985296769068 -8615.346679295413 1672.3843390187249 -1839.9988614488393 -5823.242923188023 -2256.668272086419 -1636.0542577309534 734.59743106924 -3562.469823732972 -3951.6179483495653 576.7518124096096 -1975.8085288917646 -12332.700360142626 1335.4995970865712 -335.0109291402623 -201.37684752512723 -4676.7117350026965 -1398.2834559390321 233.5474817212671 -1827.0858005098999 -12182.645861775614 -11008.158020704985 1989.0794025333598 -2225.2756190812215 -14220.088628391735 4677.643889935687 -787.489549822174 -1655.3202714957297 -9613.320797576569 -3904.529024506919 -18937.141999338754 -15007.309280297719 2914.4212824022397 -1546.7835453357548 -8221.93295027595 -6278.528373842128 804.1875213924795 161.63578931242228 845.3143091667444 -6192.033463450149 1052.7827985379845 -6305.354923974723 -33869.98927613534 -4799.7599241836 -24265.30951767508 1434.7965828767046 -261.7981178108603 z" vector-effect="non-scaling-stroke" fill="#000" fill-opacity="1" stroke="#FFF" stroke-width="0.3px" stroke-linejoin="round" stroke-linecap="round"><title>Somerset County</title></path>
<path id="23027" d="M -7658318.671653001 -5552828.565607323 l -643.2034569680691 267.0074168490246 -611.4962193211541 4048.6499411538243 -2282.919300443493 8625.176627838984 693.0290634073317 101.57329527940601 1589.8902370361611 863.3281135503203 -1956.787924100645 1853.3398616584018 -2287.4488905221224 1129.5904974667355 -1322.6436430579051 -355.36157635226846 1001.0419681118801 -2627.568782772869 -1626.1270689954981 -380.8699303464964 -1879.7846700940281 1066.3958426658064 -2989.537134095095 3090.5725233592093 -1440.4133191034198 1142.0407433742657 -5122.9795166114345 1478.0956148197874 -2355.3928530449048 1674.4625138584524 480.1377730323002 1179.550107815303 1155.0484761241823 1217.440063836053 -353.30891682580113 1825.8552717808634 258.1873024944216 1597.3235734198242 3139.013940709643 5449.077583614737 788.1506777368486 2622.0006100460887 -896.8611736232415 2304.71177917812 -2065.4983086697757 1455.974008913152 -2282.919300443493 1025.3728096494451 -1598.9493058761582 999.9441377650946 -2518.458541222848 7306.394936605357 -2388.2820852836594 -1813.1287355907261 -8703.177534895018 599.3320019040257 -16490.974451712333 -16952.364135227166 -8481.87472115364 8664.383899755776 -5403.668829656206 -5248.853713000193 -1703.8555694865063 2265.262070179917 -10837.171394165605 -2298.416735192761 6827.556881672703 -18852.42328786943 5504.412968824618 1055.4335485743359 2628.5869134664536 -13656.311678024009 -4951.823239165358 -1044.209564124234 2650.8508116165176 -13927.8049909845 -7493.580615845509 -1047.183958643116 1970.5943239424378 -3936.3525730399415 -3656.193162978627 -733.5584218008444 430.02730425447226 -2514.9972225530073 6128.86532972008 -1270.1093223625794 282.57584445457906 -2510.5637122420594 2135.2213792977855 -2781.048631480895 1066.663026822731 -2960.815708572045 4644.692764070816 599.1062529152259 1798.8108724886551 5548.547894647345 6750.856973278336 -1171.0403838483617 6850.71055652108 -1203.4704847652465 2412.959723962471 13402.601860067807 18857.181659330614 -4337.49492484238 19009.689565851353 -4303.496792568825 747.3842765660957 4274.914335255511 2024.7319492427632 8671.059627205133 z M -7672201.900867358 -5502199.274817383 l -1449.4724992625415 202.30827777646482 0 -1213.9162031011656 724.7363052945584 -3642.716184769757 289.894433057867 -2226.8194335969165 -1884.314260176383 0 -144.9472165275365 -1417.3494889363647 2029.2614767039195 -2632.8043568842113 2609.0505654662848 -607.6780240116641 1739.3670436451212 1822.912764695473 -1739.3670436451212 3037.379608334042 z M -7666404.010647657 -5524683.379015826 l 1014.6307383505628 3649.8353029424325 -1014.6307383505628 1621.68044534605 -1884.314371499233 2634.616051497869 -2029.2614767020568 1823.5195887293667 -1449.4726105872542 -2026.1553136575967 0 -2026.6052084406838 579.7890887642279 -3243.5050617791712 1304.5252827340737 -1824.9784818757325 1739.3670436441898 -2231.0252321735024 z" vector-effect="non-scaling-stroke" fill="#000" fill-opacity="1" stroke="#FFF" stroke-width="0.3px" stroke-linejoin="round" stroke-linecap="round"><title>Waldo County</title></path>
<path id="23029" d="M -7544879.56226716 -5730326.687023287 l 1673.1082640653476 1093.2010043719783 1530.1899280864745 370.50915102194995 811.1158886943012 -930.4190687518567 581.0119333611801 -1136.3955930834636 839.8787300419062 -238.82628848496825 1179.2818387104198 1095.2537342747673 770.847621361725 1589.1140813492239 627.0327467015013 1786.3858520276845 1564.7056493954733 1654.351556925103 3388.277872821316 2616.705609430559 5879.151221587323 2755.7624497814104 6195.543923589401 1529.6979381954297 5062.282675576396 98.68115107249469 3405.5358447916806 -501.640601253137 2876.2970481300727 345.3950874097645 2076.6864740857854 2047.4240949004889 1023.9617607099935 4635.80373566132 -454.45491935685277 5618.918397531845 -1875.3456940762699 1790.0828023804352 -2726.729627447203 2208.3694880064577 -2859.0392987858504 2404.778390381485 1213.7973373858258 5972.214896247722 5953.934876267798 10859.54363252595 -638.537838713266 5821.8491446226835 -2726.729627447203 5049.091175479814 -1069.9825740391389 2625.7131895394996 -707.5690586920828 3082.8007200434804 414.18676334340125 2542.3093360681087 4866.694664207287 4698.516472189687 4124.609995516948 6867.66843570862 3813.9698395067826 4292.689615171403 4124.61010682676 1900.8597956793383 3848.4854495050386 -2496.4909058706835 563.7541840253398 -1477.008758856915 40.268156002275646 -1314.0072209760547 224.35118667781353 -1216.240105530247 1098.7455267086625 -1175.5829321825877 1374.8698500720784 -400.0599530795589 1397.8804793814197 391.89555517118424 2600.172502121888 1649.039844869636 1436.510123802349 430.5536930831149 3356.44183428213 1696.9243644876406 -1698.600621602498 -269.8916200166568 -1458.531679420732 340.576133005321 -661.3219328504056 1124.451947745867 715.6771251354367 2145.7068220516667 443.9009410701692 141.31596752256155 2251.212058561854 -141.31596752256155 810.798739457503 372.55560429021716 439.37135099153966 886.3633367894217 276.3056628201157 1053.245842853561 706.617833650671 1656.686076673679 606.9666292406619 2080.05761869438 231.009762018919 410.81877583265305 679.4401818504557 218.23973561171442 733.7954854518175 571.2498905863613 1245.6405003713444 1367.0011469395831 1639.715727915056 2515.2533201426268 1467.5909709054977 2771.098423829302 -1213.9332584897056 2475.30687710084 742.8546656174585 2474.6271472852677 1612.5381874358281 1903.5901706237346 1449.4726105798036 769.0132677275687 597.907337764278 1038.0640120133758 2187.7976861186326 4881.1434778906405 1327.1732331383973 1607.2526085851714 -1354.350884939544 1869.4317005546764 -421.25299067236483 2496.2401162311435 -747.3842556905001 2201.239053185098 -2310.0968409273773 946.8795729847625 -1227.5220287265256 -1202.8100052233785 -1272.8180408533663 -2002.9063908876851 -1263.7588606942445 -403.1946785226464 -1213.9332584813237 3608.91107463371 1685.011740040034 1548.0623039128259 108.71049588732421 1803.605880874209 -1068.9860419593751 1496.335712403059 -1861.666198453866 613.8096712278202 -1440.4134304206818 -831.2105094427243 -3718.8029181491584 -3274.434883897193 -1304.5252827331424 -281.45203349366784 -770.0323174120858 2149.0486145056784 1431.3541389377788 2250.836037768051 2029.2615880277008 2096.8655698839575 1041.8083901526406 1649.0220997007564 1589.890125718899 8036.27570364438 298.95372454077005 -1596.465806373395 244.5985322566703 -4714.41115105059 217.42088045552373 -1188.5726967500523 1277.3476309329271 -223.6736863553524 1780.1334656830877 2798.717241276987 1567.2421753155068 -428.0581658547744 -824.3875096961856 -1175.6669261055067 1512.8869830239564 -971.3184629613534 -335.190556502901 -702.9928299216554 -575.2593873599544 -1597.9144599912688 -602.437039161101 -818.2416574051604 2137.971972589381 -779.9553217636421 1531.0054546725005 2723.1581386039034 847.0354601005092 4140.696606837213 108.71049588732421 3474.6773460051045 2504.8696596585214 -1832.9814594732597 185.7136385757476 -3213.403676316142 -1929.6102722994983 -6756.343464201316 1739.3670436451212 537.1126065300778 1195.8148981649429 1515.2531642075628 2314.626431006007 4282.253469849937 344.2497366666794 115.01766215637326 1594.4197157910094 -115.01766215637326 371.42738846782595 230.0338613819331 -4.529590079560876 587.8375369906425 -95.12161432951689 709.188088609837 67.94396252837032 613.3069584481418 1358.8804750172421 3876.9263830995187 240.06894217804074 510.83836268261075 -851.5651615047827 1666.409981395118 -3832.043004115112 4703.8771753506735 -1467.5909709054977 1225.032304671593 -1100.6931725163013 140.35781534481794 -2391.6296850098297 -370.0386331155896 -1073.51563204173 229.68081777077168 -54.355192283168435 535.8995717084035 -910.4499438628554 2819.3300880929455 -484.66736311558634 931.0791649725288 -833.4466898618266 -1173.4305460564792 -1100.6931725172326 2863.158751054667 -1028.219619913958 1995.3864606032148 -6228.202279206365 7098.229885853827 -978.3940177103505 522.2713706428185 -1934.1398623781279 675.0868396107107 -951.2163659073412 942.4901643507183 280.8352528978139 573.0879368651658 543.5522567983717 1464.3938239356503 -3107.3068101396784 0 -924.038714107126 -394.7264614943415 -1789.19264584966 -1368.9421502966434 -258.1873025018722 -273.81314900983125 -1213.933258482255 -70.04670413769782 -788.1506777368486 452.1093499446288 4.529590079560876 1324.3595091998577 1168.637246362865 2571.7615234004334 -2450.514467375353 -229.13734226394445 -1585.3606469566002 -1292.1880359081551 -1476.650151063688 -1585.250393813476 -2092.675960469991 -1171.6079064216465 0 -1171.759348754771 1766.5446954453364 -2764.4229350546375 -344.24973666574806 -2867.2271611467004 -1997.554346140474 -1376.591036687605 -3220.5467847958207 1669.7270003613085 1512.8869830304757 968.555719490163 -1494.7686227047816 1108.6143981581554 -1395.1173069784418 -50.96783205959946 -1313.5844628987834 -828.2669080933556 -1182.2260166034102 -1197.9353774953634 706.6178336525336 2561.3500035135075 1318.1140529708937 1834.5523918513209 693.0290634129196 2044.3243817798793 -1195.8147868458182 3177.023270067759 1653.3046094784513 1553.0897278878838 -348.77932674530894 808.2652731062844 -1005.5715581933036 159.09893087111413 -298.95372453983873 -388.2062388025224 -1820.8998877312988 1870.8736166041344 -679.4402931677178 954.3789198836312 -543.552145479247 1545.8809240581468 -1417.7653687009588 -2996.576470152475 -511.84501491766423 -3818.7276583528146 -883.2722920663655 -3100.715321253054 -2500.340069580823 -866.097618535161 706.617833650671 2674.44636897929 -117.76967604551464 2406.328162582591 154.00650801230222 2017.5136584965512 1531.0053433477879 1546.2448253547773 -1961.3175141802058 763.4805470407009 -2024.7319979472086 229.0317127360031 -1943.199042538181 -279.9282942023128 -1739.3670436432585 -712.5839655743912 683.9697719272226 -2239.9135647043586 -697.5586534915492 -1527.530623181723 -1259.2292706081644 -203.6901177028194 -1005.5715581923723 1737.5848979232833 -760.9730259347707 0 -683.96988324821 -3513.702228238806 -1707.6598017644137 337.4252932360396 -4380.124850992113 4340.845552274026 2287.448890521191 -190.90263522975147 815.3282182216644 1208.9824092136696 -135.8880363702774 4808.883985417895 -244.59842093940824 1233.615481368266 -439.3714623088017 1354.240679135546 -194.77281873393804 1404.8909668829292 507.3154248315841 1341.1186865465716 154.00639669410884 972.3462467826903 -982.9234964707866 533.7929811226204 -1327.173344454728 324.0732374768704 -847.0354601005092 349.47789950016886 -674.9107030890882 444.7705332785845 -960.2755460673943 235.08425673656166 -1023.6900298343971 31.76774851512164 -797.2098578969017 -177.90041486080736 -1141.4595945617184 -648.095236312598 -117.76967605110258 -482.92448647040874 122.29926613159478 -711.724969769828 -131.35844629164785 -1283.7875750102103 -63.414483761414886 -1144.121763927862 -371.42727714870125 -1411.2819722834975 -579.7889774404466 -724.7975526824594 -1141.459705880843 292.46899451408535 -1041.80839015916 813.7776916977018 -1685.0117400418967 2097.684328841977 -3388.142063039355 7382.54239872098 -1544.5942249111831 -381.05170836206526 -1354.3508849376813 -1117.8438078146428 -955.7459559878334 -1816.7892928523943 -357.838506905362 -2509.798755452037 1281.8772210106254 -7838.8443695874885 -457.48971131350845 -1183.0891418615356 -1227.5220287283882 966.8371161827818 -3397.201354522258 7476.791327618994 312.54260609764606 699.0454271258786 -312.54260609764606 1525.0033476846293 -448.430531155318 -654.449322947301 -1155.048364800401 -1480.6269754720852 457.48971131350845 -2072.0116353500634 1213.9332584841177 -2517.5576368328184 693.0290634119883 -2391.0537327975035 -375.9569785473868 -2442.5768699580804 -874.2131119007245 254.4657094879076 -1010.1011482728645 1761.9796725921333 -783.6210876572877 2066.869110518135 -1173.1668364433572 -1310.0223923986778 -1245.6405003694817 -76.31792708206922 -978.3939063912258 1017.5181504348293 -978.3940177094191 4132.496256314218 -1263.7588606942445 813.5624649319798 -1304.5252827340737 241.5123655963689 -652.2626413665712 432.16398815251887 312.54249478597194 1830.1139883901924 2196.8568662786856 3341.549739428796 525.4337851554155 1803.6727060917765 -520.9041950758547 2273.134417970665 -1254.6996805295348 495.1886050598696 -1531.0053433543071 -469.79372631944716 -1318.1140529708937 -653.9422654528171 462.01930139400065 3066.139007068239 -1626.1269576791674 6985.417176926509 -289.8945443825796 3880.587467278354 -2119.853612272069 -2206.405945942737 -244.5984209375456 -4116.248006436974 937.6274843504652 -4448.145600407384 1426.8245488591492 -3161.3440984860063 -1657.8341995598748 780.9159084809944 -1213.933258482255 2069.4209354007617 -742.8546656174585 2640.0507071437314 -258.1873024944216 2544.1321723898873 294.42413446027786 2911.2397917956114 -294.42413446027786 1204.816264805384 -1136.9300044840202 -875.061164110899 -706.6178336497396 -760.9911818252876 -606.9666292415932 -507.36265709996223 -425.78258075378835 -678.6417630910873 -163.06568817142397 -1293.9992904737592 -380.4864573087543 -10250.654556456022 -1132.4005490643904 254.02561395056546 -4382.626287928782 -14033.701399690472 2643.8367931442335 -507.56017020437866 -2505.8005132367834 -13205.429924830794 -2074.6605706820264 391.04947803821415 -7943.865952354856 -41586.55695522018 13710.215241487138 -2600.240648470819 -1234.0872070156038 -6976.946519182064 -2870.3711776724085 -19699.906674098223 -4017.8523774528876 -20568.23390921019 3292.718104980886 -234.8340452266857 9704.495909303427 -1684.8207774395123 -3013.0829875143245 -13381.458361384459 1270.1548333559185 -275.6299052396789 -2918.35043480061 -11861.062882385217 -7479.997968181036 -33610.95315178577 14882.186506605707 -3489.4650128139183 830.5546094868332 -1505.3253268981352 3822.9583317907527 355.6255676187575 z M -7521456.757047691 -5537063.143961345 l -2029.2615880277008 2639.7212754301727 -1014.6307383505628 -2030.4869016790763 -1304.5252827331424 -4062.3327526850626 -1159.5780662056059 -3454.408673209138 144.94732785318047 -1422.7849633498117 1594.4197157910094 -609.8330607330427 2029.2615880277008 609.8330607330427 434.8417609119788 3658.14025266096 1304.5252827331424 1828.5188568979502 z M -7490003.203045555 -5561873.303486966 l 1449.4726105872542 1018.1418381910771 -579.7890887642279 1628.7895308649167 -2898.9449985241517 1017.8450185479596 -2174.2088045571 -1017.8450185479596 289.894433057867 -1425.1749228797853 1739.3670436451212 -2036.3520241566002 z M -7463428.030027766 -5610060.149611858 l 0 -2725.8294665832072 774.5619074935094 -1638.452912828885 964.8051361516118 1638.452912828885 2898.945109850727 3000.926081907004 1934.1399736963212 2456.305999916047 -389.54574878606945 1912.1300509590656 -2509.3993610637262 -274.9636192442849 -579.7889774395153 -1362.1528287539259 z" vector-effect="non-scaling-stroke" fill="#000" fill-opacity="1" stroke="#FFF" stroke-width="0.3px" stroke-linejoin="round" stroke-linecap="round"><title>Washington County</title></path>
<path id="23031" d="M -7875001.227140159 -5325369.56019994 l -194.77281873486936 632.6168024679646 -3100.5660350639373 -3604.273775051348 -3837.4786332687363 -4460.723812784068 -2081.8050134098157 -3777.2717958316207 -86.96835826244205 -920.3366251373664 141.32370731793344 -1699.3213557973504 1119.7174875242636 -4618.800516394898 146.75909206550568 -1204.4704434173182 -38.04869428370148 -1350.0869502630085 -385.9220272330567 -2185.9149000309408 -543.5521891033277 -1096.8809392042458 -674.0047265030444 -798.4913133215159 -4304.93343380373 -2866.1777984891087 -3429.814466409385 -5167.321291605942 -3592.879912910983 -5416.821837330237 -3446.121021068655 -4040.389150856994 -747.3842725297436 -1252.4662597673014 -578.8830408519134 -1271.332665286027 -470.17274318356067 -1746.4963283101097 -122.29921001009643 -1178.229134755209 19.02439719438553 -1058.6636894540861 152.19457691255957 -905.3841305151582 1095.2576054772362 -3768.3943927176297 331.566878400743 -1695.7155959047377 -133.1702798223123 -2561.005608322099 -328.84913597721606 -2235.842122887261 16.306654769927263 -1337.2687909761444 114.14588262885809 -962.8032332230359 211.98541081510484 -745.585465958342 277.2116294577718 -2188.396746675484 -21.74213962443173 -2312.6177891781554 505.50359493121505 -4776.990766087547 -241.8807777101174 -4614.348749926314 -434.8416912155226 -8229.006238186732 -432.1240488998592 -8240.099689669907 -440.27727617602795 -8239.936107642949 -304.9872120209038 -5854.242481848225 5192.529570364393 98.69232639018446 1533.6023157546297 -1273.0448685651645 8263.04409066774 -1774.0703513445333 4869.803038346581 -2.046243847347796 1390.4871792048216 -1655.6590394452214 1594.41979000438 1236.6708036363125 1893.3735006367788 382.8948655873537 4348.417609112337 -282.46188586670905 2065.4983643284068 489.5950985811651 2147.031194497831 853.590771201998 1653.3046117993072 1230.0358580490574 520.9041927587241 1643.975248171948 -1037.27878384199 4303.066036182456 99.65123687684536 2031.6539597315714 9628.878429854289 8651.708270358853 3086.888589140959 -4379.495359341614 10282.132190427743 11317.270996482112 -3818.702810296789 5450.81740835309 15087.240225623362 12267.693767652847 -1218.4628372807056 3322.9635933684185 -371.4272771496326 2909.7371818469837 258.1873025018722 2933.78853666503 647.7330512870103 3400.78435069602 2156.090332914144 -1416.3219763394445 1159.5780662056059 -499.19579056836665 1241.1107989652082 -180.96512597054243 0 954.7072396259755 -1512.886871705763 798.633765800856 -1299.9956926554441 1204.060034818016 -2169.6792144756764 2850.441546311602 -344.2497366666794 816.9234197074547 -448.4305311506614 2088.7522313939407 -303.48331462033093 710.6921019377187 -688.4994733333588 536.1001373128965 -1404.1764871366322 174.5375612489879 -946.6867758277804 423.86323072202504 -2119.853612273 1981.9271935755387 -1680.4822612805292 2131.034734335728 -1866.1958998572081 1893.842762567103 -2699.642589711584 1220.825459654443 -3342.845939602703 174.39056645333767 -1200.344488242641 298.94762131851166 -1221.9434606423602 1188.6477758754045 -3493.371946858242 4701.1503993831575 -964.8051361469552 392.10574154928327 -1236.5812088912353 3609.0853440640494 -163.0656881723553 3669.8753208965063 1580.830945553258 3345.167863994837 -1635.1861378373578 2299.8829882917926 -1467.5909709054977 2821.2428326886147 1580.830945553258 1043.7675676150247 -1884.314260173589 975.3201525509357 -1358.8804750181735 1409.995595060289 -2142.5015626763925 3955.5456129135564 -3247.7244365895167 8073.543900304474 -1313.5844628922641 1302.531054424122 -1689.541441445239 -998.5909078633413 -1467.5909709054977 -2487.63786399737 -1598.9494171952829 -2053.886683530174 -2083.61678030435 229.61099791992456 235.53935209009796 881.1572756422684 z" vector-effect="non-scaling-stroke" fill="#000" fill-opacity="1" stroke="#FFF" stroke-width="0.3px" stroke-linejoin="round" stroke-linecap="round"><title>York County</title></path>
</svg>
