<svg xmlns="http://www.w3.org/2000/svg" xmlns:xlink="http://www.w3.org/1999/xlink" height="1080" width="1920" viewBox="-8848556.269363975 -4825590.767391624 494699.14184623305 255888.22510287818">
<path id="24001" d="M -8757470.509400446 -4825576.633524183 l 12852.291825195774 3.533398661762476 12846.856240231544 3.533397402614355 6483.284908238798 0 4211.10368138738 0 2633.4210736714303 2245.635913601145 273.976970391348 3298.0181978074834 -2634.902068177238 4423.916138251312 4.716687379404902 1572.9782543312758 -2214.9751931149513 525.8580242041498 -2891.6977621614933 1446.849002674222 -1024.5958018731326 127.03044543229043 -2176.9265989512205 -381.0960473874584 -975.6762380022556 91.74669614247978 -1127.8708149138838 737.4714270178229 3071.0699635371566 4346.096088828519 -1418.6713567208499 567.8163026683033 -2168.773271560669 28.213700682856143 -1810.0287686865777 532.5172862205654 -361.46224529854953 2041.6420719567686 2217.6929355394095 761.5421958910301 543.5522892158478 747.3832133505493 -521.8101495914161 1462.876537406817 -3465.1453181598336 2597.401286338456 -7990.217390045524 -1120.6414190148935 -3799.4298388715833 1215.7845748737454 -269.05830206908286 553.2211697278544 -9069.16854098253 -1561.0785194635391 -2725.9141727909446 -909.2727698981762 -538.1167042553425 -447.6181848915294 -472.8904856070876 -475.83660265244544 -1834.4886507354677 -1283.1087293289602 -4049.4638438578695 -2009.5941716926172 -377.7689000684768 -260.92429738212377 -241.88057749159634 -222.14349340181798 -625.0851626303047 -881.5707029150799 -81.53267319127917 -172.79695630446076 -57.07309147901833 -246.85811820346862 -8.153227275237441 -387.9318122584373 29.89536689966917 -581.9263689946383 165.78348925337195 -539.6344726691023 173.9366164188832 -377.4087762273848 260.90507479943335 -328.03970255702734 907.73207671009 -546.7566959699616 559.8588438760489 -208.1283168233931 122.29921001009643 -335.1306634359062 -214.70315323770046 -515.0649143960327 -1247.4522825013846 -846.7397667327896 -1008.289347326383 -1136.1549600306898 -337.0022631380707 -585.7702718619257 -782.715124277398 -734.0255055464804 -527.2457345500588 -112.93178386148065 -429.4062063694 151.751911832951 -312.5425813123584 469.3571150759235 -290.80034158192575 532.852653702721 -456.5839309524745 1160.884867197834 -600.6251804716885 1206.6130902264267 -1630.6565673034638 2493.911198474467 -342.43784810230136 663.05722176563 -271.7761446107179 758.229400601238 -73.37954602576792 747.5932874381542 119.58146758750081 613.5491297580302 467.4550007581711 828.5840532984585 114.14588262885809 401.92686136998236 -347.873433066532 370.1813562717289 -646.8271020259708 264.40693165082484 -1945.9167909398675 426.56185305677354 -576.1654986478388 215.03661288507283 -535.3988617137074 320.7836893070489 -418.5352366697043 366.59757245052606 -462.0193156879395 489.9505799021572 -356.0266603305936 475.8285656366497 -1125.1530724912882 1941.8506056061015 -1334.420640770346 1878.0564909698442 -6666.667718976736 6867.941756365821 -1106.1287754084915 1788.4149846695364 -513.656922314316 573.7742587821558 -635.9559321068227 510.3852866673842 -1250.1701250374317 559.6336843278259 -945.7808711081743 56.31363511644304 -842.505858073011 -168.9418531395495 -1184.943806283176 -693.3951855041087 -2098.1115680690855 -2031.184635002166 -1807.3110262658447 -1087.9264962840825 -1899.714969491586 -739.4348965194076 -1027.3135442975909 -102.1166714169085 -842.5059581864625 144.3715327726677 1136.7515303846449 -3449.9733747914433 13723.79800048098 -31128.308374092914 3419.1110581941903 0 10249.582458501682 0 2599.9915241524577 0 z" vector-effect="non-scaling-stroke" fill="#000" fill-opacity="1" stroke="#FFF" stroke-width="0.3px" stroke-linejoin="round" stroke-linecap="round"><title>Allegany County</title></path>
<path id="24003" d="M -8520006.452524826 -4752004.509852942 l 696.0498291105032 1149.6497090188786 220.20331113412976 1737.5611841930076 402.6200003437698 960.5712939901277 791.5235469825566 1147.9927863124758 1956.1915855929255 1694.4542059022933 689.810928247869 487.0608106087893 1535.170696059242 -797.2872769571841 1187.4573647528887 1721.5808771615848 3150.953846646473 2852.5114153670147 862.3599238470197 565.4629348358139 340.18624128960073 3570.4473321093246 1193.3860181979835 2397.3757344912738 -645.6832141838968 2232.54675443843 -855.7435385901481 979.1685212804005 -1177.4934910908341 -1334.0446170130745 33.85993819497526 -1744.2411494133994 -1408.7060772236437 -291.79570257943124 -1472.120560983196 1044.5899041537195 -1027.399529222399 375.1383637562394 -2121.4490432180464 323.1423717867583 -1756.295064650476 -1130.9597758268937 -675.2730480283499 107.53164762351662 311.63390509970486 1444.494592280127 1850.9665029551834 1033.5082056289539 2618.411978041753 634.3994512697682 5253.626520037651 2622.6836279006675 2139.8974658213556 1126.698400946334 1749.4066145624965 1903.6610334254801 -484.66736311651766 1457.5283695058897 -1852.607129611075 635.4168290849775 -2618.109745627269 139.90284802485257 -806.2691493798047 542.1056150253862 -1070.5600995551795 2357.591484040022 -1902.0129460133612 -915.9202981274575 -4373.34426949732 -3844.1290858900174 -1411.070169242099 -3357.5700476057827 -1666.8058825992048 -2677.319880452007 -1344.1117181777954 -1885.1275133127347 -1322.6437543760985 420.1026622951031 -625.0849895644933 1131.8566481964663 72.47355260699987 1475.8910681856796 -297.86078977771103 2501.8263637805358 1068.6717870328575 369.30498862918466 2036.390933495015 642.8976220553741 1373.5179861821234 1425.0701325070113 2053.811431925744 2279.463948761113 2933.0725487750024 2750.1172035019845 1085.7435215059668 1621.4645245326683 720.8568210378289 3072.775190355256 1948.2962507028133 1414.0701812570915 -1421.1800940819085 1563.6128009250388 621.2768611088395 2975.9775911718607 -4656.329992320389 -2143.603775153868 -2655.163885286078 -3426.2428084705025 -3583.25095532462 -1099.4260044516996 -1238.5587996393442 887.0955633958802 3752.157465852797 2131.641324300319 1168.6371350474656 1607.1256610853598 1336.3048822823912 1940.943702132441 2148.293293138966 1988.8156588394195 -344.704142825678 2701.1313860686496 -1249.4695568922907 115.48960925079882 -1556.8975889906287 -1131.2161643262953 -1787.5289760623127 -644.0022038472816 104.18079448863864 611.0403690645471 135.8880363702774 418.97803424298763 520.9041950758547 925.1818641731516 773.0600962471217 1100.3380634998903 -365.7389624863863 1257.634628946893 -1338.2202454414219 695.3335408801213 809.2052009422332 2488.83941674605 1051.2220115736127 -498.0187510959804 1825.304799983278 -221.3207356724888 1443.3940097931772 -22.541097317822278 -152.74659401364625 2697.1673498721793 -1055.9431825038046 2569.3857477214187 -2992.4856534469873 3463.135033200495 -2338.8554521352053 1104.6470924001187 154.00639669410884 2922.0732700116932 1268.2884507663548 2485.716812699102 1932.6694432273507 1827.2741550952196 -339.0353853814304 1742.036249334924 -264.5765196941793 -9.698447797447443 -960.9109577145427 -1244.284268811345 -8889.081418473274 121.42103645112365 -835.0070551671088 -850.5492448033765 -16.252645652741194 -5812.773151187226 -2951.0784764178097 -137.4913799064234 -4070.7299148160964 2848.8183265784755 -1496.8016505669802 -752.2415568865836 -1525.5216339081526 -3147.312344862148 116.66316030733287 -5105.153853611089 1718.8837007433176 -1084.946530140005 -330.17338705807924 -2563.242337848991 914.2667552493513 -3280.3718918533996 2187.4275488108397 -3857.613661135547 269.28207086771727 -2368.856268035248 -2369.5461244303733 -3037.7563335373998 -369.69180628471076 -4573.728527279571 -1360.7686762232333 -4977.383016216569 -4272.885553497821 -3818.781956157647 -356.4448982011527 -2243.2632627440616 -4425.727659629658 -1577.5315826339647 -1538.6573338322341 -1639.5637206276879 -3812.691335150972 -1715.3894418226555 962.1343589257449 -3125.867550648749 -1477.0978780593723 -1901.1169466320425 1986.71828427352 -2246.8307250505313 3476.618126405403 -892.9317052345723 1160.5055801998824 -3055.3320192322135 3842.74759766832 -4768.04343471583 2583.7244907598943 -505.79403341468424 2814.2674901485443 -4402.286925257184 4331.996871022508 -2525.1392840975896 2966.8861780688167 1047.0334990480915 1514.8350741155446 -1934.9265070194378 3926.4896883722395 4302.696413598955 659.8824605066329 263.9520576065406 2991.476987540722 1188.6109575638548 z" vector-effect="non-scaling-stroke" fill="#000" fill-opacity="1" stroke="#FFF" stroke-width="0.3px" stroke-linejoin="round" stroke-linecap="round"><title>Anne Arundel County</title></path>
<path id="24005" d="M -8500683.438634487 -4779155.650135885 l -4290.259980071336 1101.4701509959996 1771.0742855258286 1476.9042873252183 3062.0106867030263 744.2305592121556 2382.5705048516393 1136.7498053405434 -244.59853225573897 2624.580928375013 693.0290634054691 0 -1005.5715581923723 1511.1666982937604 -1109.752352675423 327.97507226560265 -1195.8148981705308 140.55759599618614 -1250.170090449974 972.1357484124601 788.1507890615612 1891.2963927593082 -289.8945443816483 597.1775640379637 -6160.258316684514 -1510.5765897799283 -706.6178336516023 802.1561337364838 819.8579196184874 1791.4465139135718 3668.977315943688 4904.3566432110965 -77.00325400568545 959.5232019424438 -1145.9891846422106 1275.3224092992023 -1716.7189819235355 -1146.6128723863512 -1005.5716695096344 -1404.1933599980548 -1843.5478381346911 -3335.7437730347738 -910.4499438628554 -737.5240552034229 -3650.8589556254447 -1229.3268633931875 1748.4262238088995 3985.985724966973 2228.564108159393 3762.1194461453706 2917.063470168039 2643.75998932682 2746.6770783290267 52.783396855928004 -657.3764361385256 1460.86502570007 -3250.1056718192995 3143.8065558141097 -1915.9545990470797 1577.1856526331976 68.8365222029388 -1936.165104329586 369.66108210757375 -1360.5737295290455 -1121.3074271418154 -324.0684060547501 -856.0946402642876 912.0508281746879 -720.0174720771611 900.8344461731613 -1451.4798123221844 22.179793651215732 -1648.2658440489322 -167.99727241229266 539.654738791287 -2716.7104576081038 -1762.18831849657 -1230.467436443083 -2638.035628993064 -1410.4201368708163 246.09447204880416 -18093.047455194406 -20207.37531789206 -47.08906787633896 10.4632529001683 13419.75010373164 10300.389143515378 5929.822023407556 -1514.8350741155446 1934.9265070194378 -2966.8861780688167 -1047.0334990480915 -4331.996871022508 2525.1392840975896 -4667.2906207013875 -2671.152166262269 -1904.787250366062 -2186.4199562193826 -4184.832058917731 -2750.5143323279917 1784.0058254934847 -4199.245327557437 -1823.6352302581072 -1078.3176928628236 -319.26407695375383 -1711.7924497863278 -6289.883295863867 -421.15940068569034 -2317.5595882683992 -2017.404167813249 -782.0192001853138 -2599.088463291526 -991.7446755561978 -4654.761891162023 1062.6557477936149 -5022.6259027970955 -1226.963093565777 -2980.331913139671 1185.6635624784976 -1127.078411047347 -166.31109660677612 -4159.566491441801 1578.7324618324637 -1036.663189378567 1381.6976310499012 -7165.398314182647 4753.564339252189 -17175.796825464815 2994.606846343726 -10262.574223504402 8818.19303289242 0 12849.57398265414 0 2567.378222286701 1.412557614967227 400.738389255479 13889.31566987373 657.052719052881 4165.068286763504 1348.931963449344 1194.2975210472941 1747.507504047826 3897.7553302422166 -175.94713437184691 2294.149255783297 2864.207862747833 3152.512275812216 1198.6878315825015 -285.2479980131611 6271.604412835091 3235.754829801619 1704.3093077279627 2995.620426892303 3353.0001695901155 2018.8299777815118 2249.2178812026978 4928.345031090081 554.0431169364601 3506.1622805185616 z" vector-effect="non-scaling-stroke" fill="#000" fill-opacity="1" stroke="#FFF" stroke-width="0.3px" stroke-linejoin="round" stroke-linecap="round"><title>Baltimore County</title></path>
<path id="24009" d="M -8518676.529442612 -4680599.044977178 l -278.7760999724269 1432.188259598799 -273.50197012349963 3834.0206113010645 887.5142325796187 3647.999282648787 1381.8191919252276 3139.9904010118917 -339.2706384770572 8070.726071244106 24.389989111572504 6226.606148938648 1834.179746383801 4512.061451410875 6678.826360929757 8216.995483349077 2395.7596381176263 3678.452278027311 1995.4377173446119 2991.7179549951106 1575.383414953947 951.6150334337726 -1208.8668858259916 4402.184857809916 -2960.516810759902 4522.229791615158 -3807.5026223659515 -333.03411387000233 -1974.9578253477812 -1624.6632094252855 240.18582764081657 -4056.7535305861384 -534.4929653145373 -1305.6721611451358 -113.24008597433567 -895.5792241878808 -194.77293005026877 -791.6413363413885 -751.9138457775116 -976.6342845130712 -1852.6070182938129 -1144.3407289003953 -1250.1700904481113 -554.8777508409694 -3505.91173909232 -797.6892538191751 -2093.2759725265205 -2074.5860765865073 -4543.594517596066 -2859.2158688185737 -3786.961170690134 -4240.510399291292 -1249.4997244775295 -4482.840033768676 -2680.9763148594648 -21183.76891630795 -1078.045222118497 -3556.19473914057 -1898.6328409947455 -1832.0457903407514 -382.38211691752076 -2656.130143230781 1758.736301081255 -5345.167193746194 4070.7299148160964 -2848.8183265784755 2951.0784764178097 137.4913799064234 16.252645652741194 5812.773151187226 835.0070551671088 850.5492448033765 8889.081418473274 -121.42103645112365 960.9109577145427 1244.284268811345 z" vector-effect="non-scaling-stroke" fill="#000" fill-opacity="1" stroke="#FFF" stroke-width="0.3px" stroke-linejoin="round" stroke-linecap="round"><title>Calvert County</title></path>
<path id="24011" d="M -8432136.584489353 -4741084.9101892505 l 670.3344177119434 10581.098903163336 719.9189259614795 10349.598545383662 545.2742168512195 10797.841158493422 654.3292003907263 10366.33652703464 109.63491985946894 1688.9673043433577 544.6941804140806 8387.065682072192 654.1061506848782 10423.557053068653 420.7211848963052 7409.5623566918075 -5960.2564171515405 -5625.637359810062 -1323.9222587291151 1285.9708417998627 -2738.2359439786524 6.416472710669041 -229.31815102882683 -2933.811668043025 -4175.147374544293 -1009.88715902064 -4587.029713110998 1482.7022115597501 -2004.084013512358 -809.4333774549887 -2153.2521311808378 2665.1112376283854 -1368.4613635707647 -417.84839611966163 -4205.452370854095 -98.41224675253034 -252.97487866692245 -1475.9329848820344 -2165.6019154824317 -724.3387050237507 -1124.426599279046 -2975.5020455839112 -1447.0071064978838 -603.4271075492725 298.6634033061564 -1438.5557587035 1743.833849536255 -335.09225386660546 -115.86321845278144 -2863.656737688929 3431.558668207377 -2406.5576037093997 1682.2359885387123 -464.6949172662571 1719.0837418641895 -2642.9784105084836 3958.2211979012936 -2769.174013555981 -797.4924980867654 -1602.9732180144638 -2436.671443413943 -1664.250751575455 407.6517526432872 -2525.619513763115 -2282.9391153119504 -2108.308056346141 -675.1523777041584 -6839.3209352577105 -198.70495710894465 -3968.1391338100657 1974.5847937315702 -5802.953944643028 2419.6398952882737 -3245.609898902476 3126.2959115169942 -2617.9861150281504 1499.9182623568922 -4244.489331256598 2371.9950419031084 -2105.1321154935285 37.40346022695303 -2004.318626430817 1462.515136083588 -3271.5474359495565 4851.190753448755 -3488.87515909411 z" vector-effect="non-scaling-stroke" fill="#000" fill-opacity="1" stroke="#FFF" stroke-width="0.3px" stroke-linejoin="round" stroke-linecap="round"><title>Caroline County</title></path>
<path id="24013" d="M -8595671.559288535 -4825553.331584127 l 5207.46376921609 1.431954422965646 12846.856240229681 7.066778546199202 6076.248136935756 0 6770.608203407377 0 12841.420655267313 0 4028.663307448849 0 -2994.606846343726 10262.574223504402 -4753.564339252189 17175.796825464815 -1381.6976310499012 7165.398314182647 -1578.7324618324637 1036.663189378567 166.31109660677612 4159.566491441801 -1185.6635624784976 1127.078411047347 1226.963093565777 2980.331913139671 -1062.6557477936149 5022.6259027970955 991.7446755561978 4654.761891162023 -2971.4500545449555 1.871435961686075 -4117.150253798813 -1529.9432762414217 -4904.401247402653 -77.89281328208745 -3674.5439584050328 1539.5998541330919 -3061.3962031062692 -1624.4043480744585 -3871.022859653458 -866.9457880780101 -4582.576599523425 512.3144687004387 -2139.0033476743847 1933.688065056689 -2517.378185560927 -427.5648710979149 1103.3984587863088 -2804.959793857299 1264.4782072361559 -6611.835737334564 3396.913148364052 -5785.954452034086 -150.28097861632705 -2771.999822142534 1193.0106488782912 -1857.897443360649 -4930.672201957554 -5713.161827092059 -2212.2515726201236 -699.5971322217956 -428.69113640114665 -3442.551486503333 -2805.472693780437 -2680.6852223919705 -2480.9767120759934 265.6021581431851 -1861.9294690471143 -1228.4154181936756 -1361.5479126591235 -2437.6339894616976 -2088.57572966069 271.61587550118566 -4105.350053815171 -2767.649847268127 3152.233130235225 -1667.5484099360183 358.89414964057505 -2240.3113078288734 4564.320536991581 -4509.7555315718055 -955.4550781585276 -2512.3599369106814 3038.242082985118 -370.07947328314185 -1026.0313013661653 -1861.4573217388242 z" vector-effect="non-scaling-stroke" fill="#000" fill-opacity="1" stroke="#FFF" stroke-width="0.3px" stroke-linejoin="round" stroke-linecap="round"><title>Carroll County</title></path>
<path id="24015" d="M -8442379.13299374 -4775024.41613541 l -2764.624340593815 -1167.734720081091 -4529.430559543893 765.0008967025205 -11342.453568505123 -902.2103541251272 -3079.9802128598094 -1775.7813823102042 2266.3790052253753 -3354.9501860439777 4448.06892484054 -4996.6454717908055 2445.9848772883415 -2158.9447414707392 1920.5510921403766 -1255.687052078545 2477.692119177431 -269.9344252925366 5159.216348571703 1742.710319048725 2998.5963142588735 510.4335796004161 0 -897.6763987066224 -3293.0204487219453 -1971.6496483199298 -1698.6006215978414 -1672.685249345377 -1087.1044022776186 -2359.8409157628193 2744.938601836562 -1567.6640700073913 1983.9655759017915 -2730.7868768703192 1340.7620033752173 -3330.805702591315 842.5059813410044 -3308.404528563842 -2708.70188119635 1010.8541355412453 -1934.1398623790592 2091.9087485698983 -1752.9558138828725 2514.413132085465 -1756.7774120029062 3456.2588036376983 -6804.005462286994 5741.96035079658 -3858.401344459504 4173.305954199284 116.78605702333152 -4716.899385535158 1005.5715581923723 -2735.3223221274093 2799.293794123456 -4098.5104392832145 1204.8740783240646 -2196.739877681248 869.6835218220949 -2496.8801788259298 1349.821294857189 -5607.030525511131 -1816.3702976498753 458.55451417248696 -1281.877221012488 1481.3397720139474 -1848.077539531514 3390.9724139589816 -3249.8989515267313 2685.668081733398 -3323.573641434312 -1145.4257828220725 -2959.947745528072 142.3128861170262 -1399.9925130810589 -216.66159117687494 -0.000025736168027 -0.00005871988833 -834.4922518022358 -1736.1889064265415 -11532.365867501125 -14677.419416895136 -3052.9515297301114 -5279.96632824745 -581.9575911648571 -2043.5299649145454 10045.600667255 0 2748.1042637862265 0 10101.469718867913 0 12838.702912848443 0 12409.039118114859 3.412205889821053 12.390871176496148 10689.760916214436 780.9915948472917 10605.451040378772 480.6103277169168 10672.08564282395 720.9152413085103 10971.831616622396 505.9202826321125 6689.49178890232 -1675.0041146874428 -625.3917254665866 z" vector-effect="non-scaling-stroke" fill="#000" fill-opacity="1" stroke="#FFF" stroke-width="0.3px" stroke-linejoin="round" stroke-linecap="round"><title>Cecil County</title></path>
<path id="24017" d="M -8556889.518001674 -4634986.075898542 l -1429.2995785158128 -941.1069119414315 2753.9978933203965 6199.771229494363 1096.1635824367404 3453.608883427456 779.0914975777268 4006.5809425311163 -12.795284908264875 6441.303226848133 -2955.7288481462747 -2081.462854512967 -3334.995911747217 -1490.1505001755431 -2944.1898036878556 -1302.9098031651229 -163.11533666402102 -3303.4352029701695 -2771.4561290591955 -2279.509643914178 -2765.2620899528265 -1890.1555974008515 -1481.3006341103464 -3755.808477506973 -3043.136912316084 -10073.128453069367 -841.7287486549467 -2809.6312571829185 -1111.3062614537776 -2843.0492094494402 -90.59202424436808 1388.6260369857773 -280.83525289967656 1266.9571858290583 -443.9010523930192 1191.606730941683 -629.6145796459168 1098.932118896395 -1734.8374535664916 2567.571858238429 -1458.531790740788 1092.7580259284005 -2382.8597128856927 1722.4651170521975 -1178.0577695965767 -363.89937391877174 177.3051208369434 -3301.3270552307367 -185.71374989300966 -1555.6306266635656 616.0258094053715 -1133.619309979491 0 -1058.5433075521141 -380.4864573087543 -312.37783469166607 -131.35844628885388 -138.83775839023292 -77.0032540075481 -156.19467194844037 -244.59853225573897 -364.46334569435567 -1512.8868717066944 885.102999785915 -1458.531790746376 1145.3139184908941 751.9138457775116 485.8521886151284 471.07859287038445 572.5818783445284 1059.9267504774034 1856.333810926415 -2282.9191891252995 4838.768131081015 -1259.2292706090957 1439.050154385157 -2509.399361062795 1109.4913664590567 -1173.1668364442885 901.3734727511182 -2818.287348276004 1460.1387608088553 -3148.1339013073593 -1387.6061021517962 -2596.770021881908 -2762.6565116550773 -786.5983274392784 -4461.443907342851 497.01325124129653 -3714.2295168275014 -950.1157501004636 -3096.812685072422 -71.96693760342896 -3019.8574509536847 1112.3113651312888 -2464.872493630275 1034.286754803732 -1684.1563891097903 992.743211388588 -2052.021800882183 1259.2292706146836 -2733.6497918628156 2048.1041929498315 164.0602576797828 2533.243216753006 -156.12387546803802 2036.4007296077907 -2869.7844959823415 -836.7797067333013 -182.998237548396 -1531.9612438119948 1303.9167492771521 -1844.3356461729854 432.9207108579576 165.90244275517762 -1272.8009795965627 1214.7325324341655 -2370.9719760175794 1011.5417337976396 -1897.132687104866 611.496219329536 -376.76533869467676 706.6178336497396 -272.4390675621107 851.5651614982635 -753.592715584673 738.3250755313784 -243.4802177734673 2445.9848772976547 139.13222260028124 1100.6931725218892 -336.2396133579314 606.9666292425245 -834.8496480025351 688.4994733259082 -2435.3677406422794 973.8643163107336 -2319.937963878736 407.6642204299569 -2390.0872630104423 674.9105917681009 -1270.6868664100766 851.5651615001261 -911.0463434215635 878.7427019868046 -690.5926342858002 3418.022440765053 10480.431456302293 2626.4112853314728 -2199.9049767777324 981.5038390010595 -1866.2098239492625 5818.779210828245 -1724.5590007770807 2831.2989269588143 931.5949086975306 3893.175326999277 430.77147346455604 4732.5242875777185 -965.3408063407987 11684.089634841308 5519.544534417801 1071.5609730985016 280.53655162267387 797.3810672778636 8335.9289449621 7355.207348499447 101.96066052280366 -58.884870337322354 3283.8371680956334 -79.68427262455225 3686.9708469239995 143.52076209522784 1886.1780120823532 -0.000011149793863 -0.000001074746251 -2725.42038128525 -130.82788093574345 -1417.3843220882118 -1816.5131379878148 -6084.94344539009 -487.82524731196463 -937.6439596321434 624.8213935252279 -5286.561504576355 10923.668027500622 -5057.07175555639 5658.164396381937 z" vector-effect="non-scaling-stroke" fill="#000" fill-opacity="1" stroke="#FFF" stroke-width="0.3px" stroke-linejoin="round" stroke-linecap="round"><title>Charles County</title></path>
<path id="24019" d="M -8442832.093226293 -4636707.475027043 l -1449.4724992681295 -184.96680397726595 -765.5027273334563 554.8905577948317 -366.89768706448376 1329.3033334789798 -285.3649543020874 1606.493528068997 -484.66736311651766 1357.8111216416582 -5716.357264289632 6618.927027231082 -733.7954854518175 1137.3796093910933 -2713.2314712759107 8379.246788968332 -783.6210876572877 1390.1107237720862 -616.0258093997836 -859.4238480003551 18.118471642956138 -1211.3903859909624 163.06557684578001 -1373.0813788548112 -181.18404848873615 -1396.3460764298216 -652.2626413665712 -854.0570123130456 -1059.9267504774034 -1038.813603634946 -969.3348375502974 -1194.7653036350384 -430.31205951422453 -1316.1339117903262 679.4401818495244 -1818.6197921913117 3084.658748427406 -1397.3805225687101 788.150677734986 -2154.185480924323 -1059.9267504774034 -3188.7924078181386 -2853.6490977238864 1623.4037583265454 -3166.191592508927 3869.715056062676 -2033.791066782549 3591.178698169999 1164.107544960454 750.4094501640648 828.9172111004591 1385.2276830170304 217.42088045552373 1788.9766414510086 0 1984.8230845695361 -1263.7589720115066 3691.6764700086787 -1028.2195085976273 1314.8403192535043 -1213.9332584813237 -968.8133466700092 -3605.562943501398 -6345.673498651013 -1109.7524640001357 -1183.035141961649 -2930.6522404123098 -831.0913969650865 -765.5027273334563 -929.2858618656173 -1005.5715581923723 -2586.280675935559 -6626.807208156213 -8473.469995249063 -1866.1958998497576 -1317.5675907619298 -1241.1109102908522 1196.219764150679 1594.4198271147907 6394.8128554504365 -353.3089168239385 3077.5659388471395 -693.0290634147823 0 -575.2593873590231 -3834.1067387666553 -2088.14637039043 -3454.229883177206 -3342.8460509218276 -5316.468555662781 -584.3185675200075 -838.1727936333045 -801.7395592983812 -1456.8494861852378 -729.2658953741193 -1665.2239794405177 -733.7954854518175 -3123.0235782451928 -951.2162545826286 -1104.8527244599536 -1032.7492100000381 -769.4180334517732 -629.6146909631789 -746.3327251048759 -95.12161432392895 -2997.449527609162 1685.0118513610214 -1082.3063432658091 2038.32076818496 353.0644339071587 996.5123780332506 1307.9683469943702 480.13777303136885 3338.6137755410746 1041.8083901572973 277.6866545556113 1050.8675703126937 -2030.7571932757273 471.07859287783504 -3576.4994631586596 860.6242303382605 -2309.762692402117 2047.380059670657 -1198.503226636909 2500.3400695733726 -781.7080745091662 2192.3271648809314 -1094.491504272446 -606.9665179233998 -1494.2568610012531 1698.600621599704 -1842.0586611414328 -330.66096642427146 -1529.5083315223455 -480.1377730369568 -504.09259241074324 -579.788977438584 -295.5140662789345 -724.7363052945584 -139.0684897378087 -874.2131119016558 -34.76731111202389 -1299.9956926535815 156.45225405041128 -317.07208485901356 457.7544090906158 -90.59202424436808 776.397164631635 -575.2594986855984 1089.1742187412456 -1209.4035570845008 978.9992738841102 -1386.0581268202513 399.6827854262665 -3451.5565468054265 34.75434276740998 -1376.998835342005 -903.6499961698428 842.505870020017 -1998.7399769872427 2473.16252909787 -2926.3962391326204 0 -973.7195870149881 -706.6178336516023 -510.0805496284738 -525.4337851554155 -568.0742041878402 -1123.3412342388183 -1843.5604027342051 5000.680250478908 950.8085286142305 1843.5478381272405 23.189287683926523 1630.6566590759903 -394.2260447386652 2880.826638208702 -1217.558861196041 1571.7717653941363 -255.12586996518075 -1653.3046094793826 1472.6847311612219 -629.6146909631789 394.2260447386652 1105.2228739187121 1089.8400226011872 1177.6964265238494 857.877317651175 2074.5576001517475 -463.7085128640756 3080.6634918954223 2779.462446289137 2518.1566427610815 -805.8723524957895 4315.60218170099 3644.811848724261 4666.624818818644 339.33650167658925 1933.8804879672825 -2567.3549102833495 1309.054984131828 -903.9923212332651 1372.469245262444 -2358.869303125888 543.5522567983717 -4388.8293216228485 1114.2819427605718 -2174.821365996264 -452.9601212348789 -435.01974183321 933.8232520725578 -1267.107698848471 2468.474466120824 -2696.317494545132 1368.4613635707647 417.84839611966163 2153.2521311808378 -2665.1112376283854 2004.084013512358 809.4333774549887 4587.029713110998 -1482.7022115597501 4175.147374544293 1009.88715902064 229.31815102882683 2933.811668043025 2738.2359439786524 -6.416472710669041 1323.9222587291151 -1285.9708417998627 5960.2564171515405 5625.637359810062 199.26336776651442 3507.466159174219 619.9846527744085 9518.066165510565 -3467.640270853415 2345.5860691666603 -1416.4286442548037 34.44074968341738 -2237.966597635299 4452.961886387318 -6535.788051018491 3620.7304601212963 781.0172134451568 2518.837704366073 -2232.289192279801 2163.4453426580876 1882.8570880405605 1734.2365356003866 -969.1134230829775 1748.1244345782325 -1374.5617177244276 315.2090686513111 z M -8463980.480141051 -4600432.407938088 l -3287.2267144955695 -1465.9792807316408 -2320.767036760226 -249.12443208042532 511.8872050009668 -3140.296936248429 1619.486972693354 -1652.3447210416198 1764.8166829906404 -835.3362288083881 1379.2343533542007 1487.2371391588822 1380.2712944056839 1621.5682561080903 -663.8609077874571 1778.0181664871052 427.22127384878695 1766.8888730118051 z" vector-effect="non-scaling-stroke" fill="#000" fill-opacity="1" stroke="#FFF" stroke-width="0.3px" stroke-linejoin="round" stroke-linecap="round"><title>Dorchester County</title></path>
<path id="24021" d="M -8603313.669602085 -4825555.433020852 l 7642.110313549638 2.101436724886298 -975.3085972275585 1627.3825026787817 1026.0313013661653 1861.4573217388242 -3038.242082985118 370.07947328314185 955.4550781585276 2512.3599369106814 -4564.320536991581 4509.7555315718055 -358.89414964057505 2240.3113078288734 -3152.233130235225 1667.5484099360183 4105.350053815171 2767.649847268127 2088.57572966069 -271.61587550118566 1361.5479126591235 2437.6339894616976 1861.9294690471143 1228.4154181936756 2480.9767120759934 -265.6021581431851 2805.472693780437 2680.6852223919705 428.69113640114665 3442.551486503333 2212.2515726201236 699.5971322217956 4930.672201957554 5713.161827092059 -1193.0106488782912 1857.897443360649 150.28097861632705 2771.999822142534 -3396.913148364052 5785.954452034086 -1264.4782072361559 6611.835737334564 -1103.3984587863088 2804.959793857299 -80.26146418042481 65.50356335472316 -14754.169760109857 8873.155958748423 -17203.312957827 9155.157647907734 -1209.4036883302033 -2242.146181123331 -2217.6930356565863 -979.1216919897124 -2513.9289621990174 -722.9967146012932 -2108.9824376571923 -1456.680063473992 -2141.595747200772 -3647.8891608882695 -1217.5569156073034 -1137.821813412942 -5036.011151673272 -1239.8101965170354 -4709.879858231172 -1917.9677068060264 -2060.0627736747265 -404.0142190409824 -1396.523929964751 -5.200035972520709 335.0962682887912 -2771.6592078525573 2494.446481777355 -4614.538995816372 1240.210001649335 -3950.3372276285663 378.82056113146245 -5186.365770119242 2340.6030568201095 -4359.708374688402 -794.041371230036 -4524.91201117076 925.5101351346821 -3730.4191328454763 1903.2290001343936 -2134.2919924054295 363.7918732762337 -3272.2514315936714 2699.9427070617676 -8169.341605027206 4495.302230058238 -1731.742457607761 4110.582403834909 -6426.198152182624 -1144.8090867195278 -1852.3568982575089 3786.3088384754956 -4672.166187879629 1114.6405028402805 0 6550.346646184102 0 z" vector-effect="non-scaling-stroke" fill="#000" fill-opacity="1" stroke="#FFF" stroke-width="0.3px" stroke-linejoin="round" stroke-linecap="round"><title>Frederick County</title></path>
<path id="24023" d="M -8834543.493714659 -4825590.767391624 l 12844.138497799635 7.067066378891468 12846.856340343133 7.066801061853766 12846.856240231544 0 9427.74528214708 0 -13723.79800048098 31128.308374092914 -1136.7515303846449 3449.9733747914433 -4234.271630194038 2172.365902869962 -516.3745646327734 447.0897973421961 -442.99501860514283 616.0361549304798 -342.4379482064396 623.0380562543869 -1410.518029332161 3642.4145371532068 -269.0583020746708 499.6289978614077 -315.26022362336516 496.0861725676805 -423.97082162834704 520.688163110055 -418.5351365581155 411.6058521196246 -2122.5713500082493 1674.394002606161 -1244.7345400694758 1779.6169133074582 -494.6324250102043 538.0435771578923 -551.7055164910853 414.94199351686984 -5188.20572857745 2812.7143182205036 -3152.602836959064 2418.3053065212443 -1448.5666235033423 1532.2297596493736 -796.3039365150034 1240.3728289939463 -1309.9607587140054 3052.844755573198 -445.71286114118993 576.0371052762493 -864.2480978053063 396.8844822673127 -4606.604845196009 783.1863875789568 -888.7078797407448 287.9724463438615 -12441.909815797582 11238.543571181595 -1415.9535141848028 950.59492150601 -1100.6931904368103 543.6579933166504 -432.1240489054471 -24.551754085347056 -239.16283506155014 -424.40242393966764 1168.6370513979346 -73812.75543552637 8959.718700131401 0 z" vector-effect="non-scaling-stroke" fill="#000" fill-opacity="1" stroke="#FFF" stroke-width="0.3px" stroke-linejoin="round" stroke-linecap="round"><title>Garrett County</title></path>
<path id="24025" d="M -8469520.506330049 -4801890.495309894 l -1046.3379802387208 1098.5841871555895 -3111.836288901046 7974.341671761125 1182.2260166034102 1432.1258697658777 4081.1711264513433 1431.9212792757899 887.8018821459264 622.0005074422807 -271.7760727405548 1865.7702140398324 -733.7954854518175 1302.3132554907352 -5376.637229027227 5442.075988211669 -6821.5800268910825 4038.6006618216634 -2894.4155197627842 2642.675827179104 -1802.7814160883427 -1898.4374588876963 -412.1938105132431 -2836.605282961391 760.9731372520328 -6168.277570078149 738.325075538829 -2745.2808538461104 36.23672064207494 -1185.1609332449734 -774.5617961809039 -997.5211998391896 -1082.5748121924698 0 -851.5651615038514 1079.6656595729291 -742.8546656128019 1267.285175068304 -706.6178336497396 610.1173326596618 -1521.9461631905288 10829.278348784894 1576.3013554755598 2496.0559295546263 828.9170997757465 1722.2687443308532 -158.53609809279442 779.0247731991112 -819.8578082993627 585.6932538142428 -3356.4349324759096 4239.401985059492 -833.4466898627579 -6693.684338668361 -2210.445636516437 -6575.03891254589 -1521.946163188666 -703.4673237539828 -4202.743127942085 1079.1183836469427 -808.361079653725 -1395.2072700643912 -554.0431169364601 -3506.1622805185616 -2249.2178812026978 -4928.345031090081 -3353.0001695901155 -2018.8299777815118 -1704.3093077279627 -2995.620426892303 -6271.604412835091 -3235.754829801619 -1198.6878315825015 285.2479980131611 -2864.207862747833 -3152.512275812216 175.94713437184691 -2294.149255783297 -1747.507504047826 -3897.7553302422166 -1348.931963449344 -1194.2975210472941 -657.052719052881 -4165.068286763504 -400.738389255479 -13889.31566987373 10276.760275520384 5.654215930961072 12846.85634034127 7.067028852179646 12846.856240231544 0 2798.537930658087 0 581.9575911648571 2043.5299649145454 3052.9515297301114 5279.96632824745 11532.365867501125 14677.419416895136 834.4922518022358 1736.1889064265415 z" vector-effect="non-scaling-stroke" fill="#000" fill-opacity="1" stroke="#FFF" stroke-width="0.3px" stroke-linejoin="round" stroke-linecap="round"><title>Harford County</title></path>
<path id="24027" d="M -8558472.200699052 -4771960.035689039 l 782.0192001853138 2599.088463291526 2317.5595882683992 2017.404167813249 6289.883295863867 421.15940068569034 319.26407695375383 1711.7924497863278 1823.6352302581072 1078.3176928628236 -1784.0058254934847 4199.245327557437 4184.832058917731 2750.5143323279917 1904.787250366062 2186.4199562193826 4667.2906207013875 2671.152166262269 -2814.2674901485443 4402.286925257184 -2583.7244907598943 505.79403341468424 -3842.74759766832 4768.04343471583 -1160.5055801998824 3055.3320192322135 -3476.618126405403 892.9317052345723 -1986.71828427352 2246.8307250505313 -3226.928508559242 -1323.2757956311107 -2130.5428437404335 -2670.7502976153046 -2949.631656989455 612.7577860374004 -1569.6041522677988 -1678.3564971908927 -2168.1691655814648 1262.201522629708 -774.7830993216485 -2191.265523251146 -2200.5631374102086 -670.6212444445118 245.5706853698939 -1759.4437628705055 -2587.2867144607008 -661.0194679815322 -1293.5318151004612 -2086.571076591499 -162.1922754459083 -3706.3752543516457 -2549.7720460668206 -1951.8381857145578 -1390.0458136145025 -2493.18331656605 -1704.5234864279628 -378.29253597650677 -1249.5610615182668 -2105.444556489587 -2931.1523988787085 -1418.5877896733582 -4046.01709918119 -870.4881688887253 -453.40406335890293 -2364.961149570532 -3589.8296032678336 -3711.1382696935907 -1840.1105148941278 -3658.964065093547 2012.210670299828 -2154.4688603514805 80.26146418042481 -65.50356335472316 2517.378185560927 427.5648710979149 2139.0033476743847 -1933.688065056689 4582.576599523425 -512.3144687004387 3871.022859653458 866.9457880780101 3061.3962031062692 1624.4043480744585 3674.5439584050328 -1539.5998541330919 4904.401247402653 77.89281328208745 4117.150253798813 1529.9432762414217 z" vector-effect="non-scaling-stroke" fill="#000" fill-opacity="1" stroke="#FFF" stroke-width="0.3px" stroke-linejoin="round" stroke-linecap="round"><title>Howard County</title></path>
<path id="24029" d="M -8467527.481573988 -4742627.251393691 l -2527.517721382901 1074.6115999715403 -2359.9224431291223 1827.7453750809655 -2396.1592750921845 1161.8771311566234 -2663.4058690704405 -945.839603850618 1512.886983031407 -1062.715493475087 0 -981.0674089118838 -3813.9245324730873 2090.493131380528 -1113.4591804053634 4293.395835398696 -2091.584027584642 1997.560179932043 -951.7903292067349 4078.2128287088126 538.3427272699773 3150.1584201827645 380.57985436171293 2189.2713220585138 -1447.7581791058183 203.3385557187721 -1966.4363183248788 -1667.4849231326953 -861.7882982585579 -1219.15641066432 1281.141621813178 -3585.687945276499 -512.9832567088306 -5726.293651371263 -815.744998389855 -2516.9861010741442 49.884490214288235 -1582.69281533733 -984.9729996155947 -835.2945659188554 -2364.448916265741 -2719.550051065162 6.427253441885114 -2360.286234943196 1866.4940134510398 -2950.19654605072 2423.350062591955 -6021.588523475453 2369.3165836408734 -4530.421560363844 3588.4632678329945 -3753.9719709977508 217.42088045552373 -2844.6729636006057 407.66410910896957 -1206.0092008765787 1123.3412342388183 -1018.7805763464421 2441.455287218094 -480.1508098701015 1059.9267504755408 -550.4449189640582 625.085100883618 -1159.546168810688 869.6835218239576 -3116.2107215765864 375.95686722919345 -644.4496676949784 1251.7801042441279 -1065.128427118063 5093.5729146413505 348.32129565719515 3534.194682121277 1034.3564944928512 3141.2725018523633 32.91347821895033 7586.018094610423 -398.5015710135922 5100.297057170421 353.5978527162224 2847.9361814558506 107.13602319639176 2327.752780083567 -1397.0254338094965 6451.730926159769 -1499.6414279844612 1675.0041146874428 625.3917254665866 247.0019895080477 3264.3480513822287 389.09255289658904 8388.794697129168 100.10448737442493 2157.11223224923 342.049183383584 5115.558637898415 -4631.880388436839 673.3335333559662 -2748.3660176377743 -808.8177157696337 -3508.455278135836 -1971.5042206803337 -3489.7536036800593 1650.805052401498 -6128.470145534724 1538.571537909098 -4995.347156314179 -1048.4610109534115 -7809.618431324139 5391.676229559816 -998.1648045498878 2220.1496886732057 2618.419213809073 1586.6197497472167 580.5308105275035 1663.0940705211833 z" vector-effect="non-scaling-stroke" fill="#000" fill-opacity="1" stroke="#FFF" stroke-width="0.3px" stroke-linejoin="round" stroke-linecap="round"><title>Kent County</title></path>
<path id="24031" d="M -8584934.750696555 -4712231.223335904 l -1405.6327604260296 -2366.622885061428 -1572.9699890520424 -2022.8245313065127 -2838.8247725572437 -695.0305884545669 -3717.8970655687153 -1342.4002777626738 -1587.172488283366 -307.658393362537 -1532.8171392306685 -790.165715765208 -750.1020149588585 -1884.758457267657 -456.58393094688654 -2287.3578864168376 -679.4401112385094 -1969.499947627075 -2432.3961888961494 -2617.2640111055225 -3261.313134619966 -1798.8864525211975 -3557.5491612758487 -1036.0798577172682 -9802.964001268148 -962.6691184137017 -2619.9216175563633 -1484.440158684738 -3976.084297824651 -4083.3342576920986 -1663.2696766313165 -1558.8257858650759 -1473.0265055503696 -1905.9473090367392 -646.8272021431476 -2207.7044831989333 826.1994035262614 -2425.526882960461 3671.6950438953936 -3295.724217977375 1655.1164493523538 -2191.901922875084 407.6642669700086 -2939.6493149735034 17203.312957827 -9155.157647907734 14754.169760109857 -8873.155958748423 -2012.210670299828 2154.4688603514805 1840.1105148941278 3658.964065093547 3589.8296032678336 3711.1382696935907 453.40406335890293 2364.961149570532 4046.01709918119 870.4881688887253 2931.1523988787085 1418.5877896733582 1249.5610615182668 2105.444556489587 1704.5234864279628 378.29253597650677 1390.0458136145025 2493.18331656605 2549.7720460668206 1951.8381857145578 162.1922754459083 3706.3752543516457 1293.5318151004612 2086.571076591499 2587.2867144607008 661.0194679815322 -245.5706853698939 1759.4437628705055 2200.5631374102086 670.6212444445118 774.7830993216485 2191.265523251146 2168.1691655814648 -1262.201522629708 1569.6041522677988 1678.3564971908927 2949.631656989455 -612.7577860374004 -11417.592109708115 19873.173130362295 490.58455064706504 1885.536925604567 -1774.9516542162746 1953.008841660805 -4379.638606155291 -4382.012645801529 -4134.310226636007 4241.526444313116 z" vector-effect="non-scaling-stroke" fill="#000" fill-opacity="1" stroke="#FFF" stroke-width="0.3px" stroke-linejoin="round" stroke-linecap="round"><title>Montgomery County</title></path>
<path id="24033" d="M -8580595.398591066 -4677939.303429495 l 2107.3797067329288 -478.5747086489573 1806.8273229822516 -471.2483461583033 923.5148445796221 643.3129669213668 1723.6044263914227 98.13064171094447 1045.4731391109526 -264.90855734888464 -344.52324865572155 -467.01925763022155 -953.3436813745648 119.69452368747443 -728.440795307979 -505.0269342903048 -446.1863302178681 -703.1054616095498 502.9206426590681 -1061.1368416398764 47.91246543265879 -2246.5172671396285 556.6526684369892 -1333.997409524396 702.0882435664535 -452.9788771783933 808.2395043652505 19.857214821502566 -57.73106716200709 -476.82262684591115 -874.2258023228496 -650.1626482140273 -534.8058844096959 -418.590012261644 -414.51215022429824 -1521.1108400439844 205.98736687749624 -1582.5969850858673 554.7783821672201 -920.63272790052 359.5377989336848 -1107.6630810312927 -350.73743658699095 -757.7149072205648 -198.67926095798612 -980.8463618662208 0.000013342127204 -0.00001735240221 6084.396284935996 -6200.622041916475 6563.53937013261 -6693.160015726462 -7927.151289591566 -7924.718963694759 -2458.063980832696 -2458.5671122642234 1774.9516542162746 -1953.008841660805 -490.58455064706504 -1885.536925604567 11417.592109708115 -19873.173130362295 2130.5428437404335 2670.7502976153046 3226.928508559242 1323.2757956311107 1477.0978780593723 1901.1169466320425 -962.1343589257449 3125.867550648749 3812.691335150972 1715.3894418226555 1538.6573338322341 1639.5637206276879 4425.727659629658 1577.5315826339647 356.4448982011527 2243.2632627440616 4272.885553497821 3818.781956157647 1360.7686762232333 4977.383016216569 369.69180628471076 4573.728527279571 2369.5461244303733 3037.7563335373998 -269.28207086771727 2368.856268035248 -2187.4275488108397 3857.613661135547 -914.2667552493513 3280.3718918533996 330.17338705807924 2563.242337848991 -1718.8837007433176 1084.946530140005 -116.66316030733287 5105.153853611089 1525.5216339081526 3147.312344862148 1496.8016505669802 752.2415568865836 -1758.736301081255 5345.167193746194 382.38211691752076 2656.130143230781 1898.6328409947455 1832.0457903407514 -289.89443305693567 974.7409764425829 135.8880363702774 1113.875801580958 -154.00650801323354 1635.78487203829 602.437039161101 10382.863790106028 462.0193893685937 3128.44403181877 -7355.207348499447 -101.96066052280366 -797.3810672778636 -8335.9289449621 -1071.5609730985016 -280.53655162267387 -11684.089634841308 -5519.544534417801 -4732.5242875777185 965.3408063407987 -3893.175326999277 -430.77147346455604 -2831.2989269588143 -931.5949086975306 -5818.779210828245 1724.5590007770807 -981.5038390010595 1866.2098239492625 -2626.4112853314728 2199.9049767777324 z" vector-effect="non-scaling-stroke" fill="#000" fill-opacity="1" stroke="#FFF" stroke-width="0.3px" stroke-linejoin="round" stroke-linecap="round"><title>Prince George's County</title></path>
<path id="24035" d="M -8476681.806525301 -4709635.025203585 l -113.2400641925633 -1292.4765897877514 -1440.4133191034198 -209.60621572565287 -348.77932674624026 832.5772192273289 -819.8579196166247 3387.8274655751884 -733.7954854536802 750.7573033152148 -2171.6352092493325 1889.598159157671 314.49860087782145 -4823.104427001439 253.65760109759867 -2305.492350379005 -459.34874681197107 -1052.9569647349417 -1229.8424835130572 -1201.8635979900137 -2445.320299932733 -1187.8335945727304 -1486.724119707942 245.5368919884786 -434.84176091104746 -75.71817643474787 -919.5091240275651 1048.354025375098 -815.3283295389265 1211.2964485865086 -108.71038456261158 395.9693783009425 -1114.2820540852845 675.4415325820446 -751.913845770061 174.67582538258284 -3424.3788950052112 291.11969634424895 -896.8611736223102 279.46708294469863 -1059.9267504774034 884.9283701777458 -339.7201465871185 1362.1731055313721 -9.319779090583324 1643.3221781058237 547.6430254466832 2076.9100468605757 -144.85526662692428 2259.4055288257077 -2066.867427084595 1244.0098016643897 -1370.3843425158411 1408.3023950867355 -1726.1851461473852 718.7688754238188 938.5634586289525 -7827.639988173731 1116.6809891052544 -7485.9864525049925 1940.1625807918608 -4147.14275723882 344.24973666109145 -1060.5084252282977 1521.9461631868035 -3065.6097197616473 756.4435471761972 -3288.1102943867445 991.9827879536897 -279.88845873996615 1263.758860686794 524.7844619853422 197.18845168873668 2705.786808489822 903.6080253180116 2770.5978833837435 4537.236170923337 1507.105700605549 3136.094253100455 656.5373512627557 2076.395484942943 -718.9100429257378 3304.482794046402 -2432.4053467325866 1879.7846700940281 -1830.2218144750223 439.37135099060833 -2920.879300147295 -874.2131119016558 -600.6045697238296 -665.8514116071165 -868.8987857839093 -480.1377730369568 -1113.9321147454903 -326.1313763409853 -1318.2143419319764 2618.109856950119 -489.9995457297191 1245.6403890457004 -402.51731650717556 -828.9170997757465 -980.1090996498242 2137.9719725903124 -3256.0442178873345 4946.325058193877 -5148.789113512263 1349.8212948590517 -2552.0161038767546 3242.226032981649 -3450.133910813369 -580.5308105275035 -1663.0940705211833 -2618.419213809073 -1586.6197497472167 998.1648045498878 -2220.1496886732057 7809.618431324139 -5391.676229559816 4995.347156314179 1048.4610109534115 6128.470145534724 -1538.571537909098 3489.7536036800593 -1650.805052401498 3508.455278135836 1971.5042206803337 2748.3660176377743 808.8177157696337 4631.880388436839 -673.3335333559662 325.33513178117573 4863.182179417461 712.2301185950637 11024.759850600734 -4938.188794342801 359.7633128454909 -4851.190753448755 3488.87515909411 -1462.515136083588 3271.5474359495565 -37.40346022695303 2004.318626430817 -2371.9950419031084 2105.1321154935285 -1499.9182623568922 4244.489331256598 -3126.2959115169942 2617.9861150281504 -2419.6398952882737 3245.609898902476 -1974.5847937315702 5802.953944643028 198.70495710894465 3968.1391338100657 -12993.540359765291 -3088.343817242421 -3472.3879857584834 -582.2284636124969 -1588.5704331528395 2752.2271568421274 -645.7505624704063 1417.8117082919925 z" vector-effect="non-scaling-stroke" fill="#000" fill-opacity="1" stroke="#FFF" stroke-width="0.3px" stroke-linejoin="round" stroke-linecap="round"><title>Queen Anne's County</title></path>
<path id="24037" d="M -8535380.492630754 -4649757.563480248 l 109.48862560838461 1438.68755874224 1847.1581518612802 5057.406649438664 4153.363819980994 3860.0852419221774 3773.1582217514515 3474.2012196611613 7183.94823519513 3501.9149074647576 1177.6964265275747 907.067209770903 516.3746049981564 2593.654485857114 1367.9397664945573 2800.874150284566 1938.66945245862 2401.7915584435686 2867.051185183227 2801.975611572154 2040.5595144610852 -127.53239745926112 859.7042860779911 -1082.2768175946549 2028.1295801158994 -939.8534621223807 2290.777009345591 282.5921348808333 1380.462318656966 1051.1993287596852 -1529.358594123274 2259.5660559553653 -1039.1108962576836 2252.473283836618 351.23225172795355 2988.071284550242 670.3810016848147 2698.8585802316666 756.4435471743345 1072.4271382633597 2270.2325520347804 3495.857024842873 2892.3621204420924 4437.458601843566 1513.8946470599622 3482.247832387686 -1149.3149657454342 1375.083055568859 -1054.6131372265518 1179.2149975635111 854.2502989377826 4301.918284874409 510.17166033014655 2003.9327280949801 222.21073551103473 1748.1602908801287 239.92567398957908 2819.4249247852713 -1385.3449028413743 -1347.3428792562336 -1663.3560915775597 -563.3134869392961 -4968.378339877352 -6453.951758250594 -2153.142592800781 -750.4246295709163 -2096.0361393019557 -3373.8652084497735 816.6363335549831 -3801.25874841772 -760.6280468311161 -4437.440581815317 -2509.399361062795 -2363.156672626734 99.65120440907776 1291.1576449582353 588.848268924281 2138.1241443911567 135.8880363702774 968.0615344401449 -244.59842094033957 1382.7874348675832 -543.552256796509 1123.3783532856032 -557.1410270445049 841.013518483378 -896.8610623050481 1871.8732914272696 -1481.1797411441803 -996.3702997518703 -2418.807336812839 -2811.088835601695 -693.029063411057 3669.2401670860127 -783.6210876572877 1174.8028402952477 -1499.2982127871364 -984.7522004544735 -194.77281873300672 -1226.7524393415079 -884.2708278950304 -1750.6989552285522 -833.2295055352151 -3387.864592653699 -1687.8425946924835 -2112.0076339831576 -2748.8337821401656 -1704.972862699069 -3237.202518319711 -1793.8327634818852 -3015.905047921464 -241.1141733871773 -3813.3373221606016 -1392.6379741178825 -2145.466000713408 -448.9318190878257 -6385.371596591547 1473.9531129477546 -2551.5587238930166 -1410.706494083628 -2957.085832733661 -2277.2164496146142 355.6734541300684 -3216.992885177955 -842.505870020017 -1904.2610327759758 -353.3089168239385 -1344.7358030397445 -425.78258075378835 -5265.206318158656 -1340.762114694342 -3765.8138992283493 -2378.0409147720784 -2790.5956439739093 -2099.2601109798998 -1382.0788826085627 -0.000008758157492 -0.00003160815686 5057.07175555639 -5658.164396381937 5286.561504576355 -10923.668027500622 937.6439596321434 -624.8213935252279 6084.94344539009 487.82524731196463 1417.3843220882118 1816.5131379878148 2725.42038128525 130.82788093574345 z" vector-effect="non-scaling-stroke" fill="#000" fill-opacity="1" stroke="#FFF" stroke-width="0.3px" stroke-linejoin="round" stroke-linecap="round"><title>St. Mary's County</title></path>
<path id="24039" d="M -8421081.07263203 -4574583.846581377 l -647.6064198296517 -317.1947602368891 -2106.2647307105362 -568.8337145000696 -10082.893345043063 -879.1681280825287 -2572.8137335069478 327.54194516316056 -2436.9256971366704 1758.2061516232789 -3333.786870755255 3136.4509852854535 -2214.9752266015857 1424.30181337893 -1010.1011482719332 -700.640123700723 -208.36170029826462 -1016.5868303328753 -389.54574878513813 -516.9466748256236 -280.8352528978139 -585.904159501195 181.18404848873615 -1258.0823088157922 652.2626413665712 -1016.9179715402424 969.3347262330353 -844.6347098117694 933.0980055835098 -1114.7933709518984 561.6706171222031 -1833.3489682283252 -1055.3972717151046 103.45780508685857 -874.2131119035184 362.09418306313455 -688.4993620067835 603.4620944149792 -498.2562446799129 856.2810520129278 -751.913845770061 0 63.41437244415283 -689.6167672779411 -163.0656881723553 -183.90566803328693 -294.4240231439471 -17.24127073585987 -298.95372454077005 -166.6675197929144 856.0947515834123 -936.8363056248054 2382.5703935287893 -3753.9424439640716 489.1970645189285 -1529.5612177010626 715.677013810724 -1081.1794731914997 3134.484350623563 -437.10465431492776 711.1474237311631 -460.13004682585597 1091.6341036818922 -1708.4119712496176 5064.094622923061 -4885.198961177841 1512.8869830220938 -2578.7505668904632 -1635.1862491536885 -345.4171989560127 -1218.4628485701978 1082.2688089339063 -1213.9332584813237 1444.7672634227201 -1666.8933797255158 719.4303045477718 -2735.8794216718525 -97.83961296733469 -1585.3605356309563 258.9851508801803 -1340.7621147017926 805.6898777578026 -244.59853225760162 -408.59200654551387 -22.64795040152967 -155.38434416428208 -95.12172564305365 -120.85605717636645 -471.07848155498505 -282.0030077844858 0 -1059.01878229063 1141.4595945570618 -495.0133930752054 1136.9300044830889 -886.4785544928163 946.686775829643 -1128.355506753549 579.788977438584 -1260.9101323606446 -688.4994733259082 -967.3780036522076 1159.5780662037432 -552.8280680300668 3342.8460509218276 -604.6895907688886 883.2722920607775 -777.5100526055321 -357.838506905362 -1451.5087341656908 -1594.4198271166533 -518.4455360472202 -1961.317514181137 224.66302331443876 -1472.120560983196 -276.50886738020927 -2590.9320938251913 1002.3093926450238 -5045.976262604818 -552.9862616881728 -2319.156132403761 604.8272140882909 -584.3185675255954 984.9283623555675 -122.29926612600684 1290.0566914174706 -235.53924077935517 1111.3927523912862 -951.2163659073412 483.67767812591046 -679.4402931686491 -449.12861250154674 -344.2497366666794 -1099.871324699372 -117.76967604644597 -2839.476784958504 1458.5317907482386 -5393.124052681029 3578.3852916918695 -2426.673010307364 4484.305645482615 -1279.8532651951537 4158.174380457029 -1983.5100225592032 -1771.0742928329855 -916.9258433347568 137.91714174300432 -2370.644707192667 1303.8734719175845 22.640139908529818 1965.2741003353149 151.31885298900306 1051.4203829038888 -1525.1721403514966 2423.935714436695 -910.777390634641 2043.157600061968 -1783.6596989575773 6118.005779432133 2912.149553050287 1843.5615304354578 -3899.6906418716535 2197.1123445089906 -942.2446284210309 5582.8932098299265 2876.959490300156 789.700022412464 4102.797805876471 2114.846906851977 3708.8059057816863 1114.9756858255714 609.7152711125091 3384.6675590984523 5511.167689732276 -430.80620672926307 2350.2676436481997 -2946.180752778426 2768.149460528046 3786.3081705607474 5325.828642034903 -333.8469302523881 2816.615149379708 -2883.396559972316 222.89716047327965 -779.6816021986306 2282.4418159583583 -3381.1056693475693 -932.714309762232 -1511.7185736540705 2920.7430976275355 -3746.122390979901 397.95603224635124 -609.9191560987383 1562.6940090013668 1774.98872410506 2892.376476250589 988.739160625264 -273.8550726911053 1491.3746037017554 3996.5897133992985 -906.2745450530201 1497.5519217401743 -1095.9598916713148 1256.7071800688282 z M -8461057.380161522 -4572977.1775824325 l -354.147028606385 -903.1959204906598 -1247.448774177581 -57.23146456759423 306.91515920870006 932.9334538504481 -1614.202278509736 -19.701288946904242 -1222.5421560294926 31.39938823506236 -109.06782672554255 -1541.9886689046398 -21.153597563505173 -2078.302276328206 -686.5087468717247 -1977.1330468691885 588.8482689224184 -752.9738148748875 1732.991999041289 -58.004840018227696 1883.006924079731 1160.0151864029467 1180.8492171410471 -1320.440504066646 -1168.6372463647276 -1345.1714869458228 -2885.3562282864004 -1506.3393813483417 -92.00734025426209 -1137.551789836958 1241.9815400280058 -636.2562237130478 1310.7282274011523 -706.1324242679402 766.9724785741419 408.9043521890417 567.6534831486642 1312.3150165881962 2021.2773088682443 1090.6187008665875 658.6059599146247 3667.5493713906035 -943.7108718845993 2780.23557894025 -445.9739180225879 2693.1323479469866 z M -8465336.505827729 -4595188.367395151 l 2301.5016404017806 -2315.446736091748 629.4115328956395 -247.65180682949722 -46.68661520257592 1878.7449589446187 188.41937011666596 1625.878931983374 905.5798274613917 1750.2667001225054 457.2701892796904 2347.140932164155 -1049.8800551127642 543.3729525003582 -1118.367813354358 -1404.2917044367641 -1602.8464899286628 281.88775310479105 -1924.2450067996979 -1900.7619990799576 1023.0692010372877 -242.92812539543957 1341.3870623130351 271.0731725767255 -237.50380715169013 -1417.3795535247773 z" vector-effect="non-scaling-stroke" fill="#000" fill-opacity="1" stroke="#FFF" stroke-width="0.3px" stroke-linejoin="round" stroke-linecap="round"><title>Somerset County</title></path>
<path id="24041" d="M -8455759.576377584 -4672473.8746623555 l -371.4273884687573 -452.44043773040175 -616.0258093997836 0 -2418.807225493714 4975.741496151313 -1107.3348273020238 3045.0128237716854 -2706.9379125405103 1388.5789718292654 -3907.7227806933224 -1902.24663477391 -1958.8259613364935 -1339.5740866148844 -3126.398325458169 -1325.8964677611366 1406.2122979890555 -4841.616102602333 -1680.482149956748 696.0537877846509 -1449.4726105872542 864.2005981132388 -1612.5381874330342 284.18437007348984 -2165.149624397978 -956.9785764077678 0 -887.4601795636117 1010.1012595910579 -875.9349178066477 2867.2378679700196 -1508.408619934693 1508.3572816252708 -539.6003415090963 0 -974.8342254683375 -2314.6264310050756 191.49271016195416 -2409.7480453290045 568.6538730664179 -1961.3175141885877 -81.23426646180451 -982.92360778898 -1740.891210058704 738.325075533241 -887.9688610155135 421.25299067236483 -1178.274056630209 27.17754048295319 -1364.1818162379786 -425.7825807519257 -1428.2328035505489 -987.4530865494162 1654.6415670718998 -498.2562446799129 1961.9988104589283 -606.9666292406619 1613.4322338588536 -1305.7041561398655 2283.1660460336134 -1159.941301703453 -1663.879942337051 -1941.8181242533028 -2031.9017540439963 -1108.1584802102298 -2023.379490797408 963.1056214813143 -2935.4459376484156 2891.842147100717 488.19875821098685 -2230.8840063512325 -2658.307794961147 -1332.7463321257383 -930.377918381244 -2287.546740351245 1172.2220766274258 -2143.7151677627116 4953.287469331175 -2035.5041624307632 -968.4571939688176 -597.7265549115837 -4227.751551955938 987.3825099915266 -2249.64412139263 44.95793483220041 -1260.498309660703 -706.3392009641975 238.72483478486538 -1719.805203486234 1801.2683068346232 -83.79608065448701 3697.8740986930206 -1773.3476521652192 2438.2103128163144 -25.74953405931592 2780.1401428608224 527.527816100046 1329.790318888612 -424.5100876521319 1696.6185895660892 -1722.2722660396248 621.860870923847 -553.1711513604969 -2389.2279759589583 294.4241344612092 -3459.2708286205307 366.8977983891964 -2031.9980522869155 1014.6307383514941 -2497.0091384351254 2178.738394634798 -8331.662069043145 566.200207201764 -1441.592886394821 208.36170029826462 -1197.6073658075184 3052.951506536454 -2593.3613095162436 1881.9250099435449 -2452.5612151026726 798.9678153004497 435.03492818120867 -711.3986718226224 2256.5665664188564 2253.040926473215 2449.381546029821 2038.5980650354177 971.1997872199863 955.2678387816995 1091.5350300492719 35.94116739183664 2769.799812872894 1521.26922936365 1719.2750423662364 1652.1405415665358 1687.9188922429457 1167.1955476347357 1109.4036687696353 3250.557183675468 -1644.8334479462355 1386.0581268202513 -679.7362354537472 1549.123814990744 -1737.3100466858596 946.6867758277804 -2237.4410766074434 -430.3121708314866 -2261.186784269288 -1494.768622705713 2261.186784269288 -2282.9191891252995 1481.9965502545238 -3353.7293122559786 685.5026323860511 -1938.002203432843 -4051.893760435283 691.1850560475141 -4683.250579720363 3469.781885161996 -1920.1830771351233 3332.151030836627 -844.9903356833383 2337.2743814103305 -1710.49159574043 -4651.900923732668 -1937.7415020354092 -733.7954854536802 -541.2371119949967 792.6803573612124 -2945.300836054608 3361.945603011176 158.39667206723243 645.7505624704063 -1417.8117082919925 1588.5704331528395 -2752.2271568421274 3472.3879857584834 582.2284636124969 12993.540359765291 3088.343817242421 675.1523777041584 6839.3209352577105 2282.9391153119504 2108.308056346141 -407.6517526432872 2525.619513763115 2436.671443413943 1664.250751575455 797.4924980867654 1602.9732180144638 -3958.2211979012936 2769.174013555981 -1719.0837418641895 2642.9784105084836 -1682.2359885387123 464.6949172662571 -3431.558668207377 2406.5576037093997 115.86321845278144 2863.656737688929 -1743.833849536255 335.09225386660546 -298.6634033061564 1438.5557587035 1447.0071064978838 603.4271075492725 1124.426599279046 2975.5020455839112 2165.6019154824317 724.3387050237507 252.97487866692245 1475.9329848820344 4205.452370854095 98.41224675253034 -2468.474466120824 2696.317494545132 z" vector-effect="non-scaling-stroke" fill="#000" fill-opacity="1" stroke="#FFF" stroke-width="0.3px" stroke-linejoin="round" stroke-linecap="round"><title>Talbot County</title></path>
<path id="24043" d="M -8680389.371658728 -4825569.566728119 l 12849.573982656002 7.066791052930057 12844.138497807086 7.066916214302182 12844.138497799635 0 12849.574082765728 0 5176.433606358245 0 -3786.3088384754956 4672.166187879629 1144.8090867195278 1852.3568982575089 -4110.582403834909 6426.198152182624 -4495.302230058238 1731.742457607761 -2699.9427070617676 8169.341605027206 -363.7918732762337 3272.2514315936714 -1903.2290001343936 2134.2919924054295 -925.5101351346821 3730.4191328454763 794.041371230036 4524.91201117076 -2340.6030568201095 4359.708374688402 -378.82056113146245 5186.365770119242 -1240.210001649335 3950.3372276285663 -2494.446481777355 4614.538995816372 -335.0962682887912 2771.6592078525573 -4264.572184113786 -15.879392766393721 -2160.6200442910194 -1029.4331627106294 -152.19467701762915 -70.27235528174788 -1698.6006284896284 -2804.265877775848 -19.02429708838463 -2590.5995869496837 853.3770279977471 -2693.2435648385435 543.5520889926702 -2651.7570231817663 -964.8050680849701 -2437.842129849829 -5106.673055388033 -2216.7337917126715 -1421.3888989202678 -1400.665075732395 2383.4764247983694 -1837.3494970081374 -668.5692416485399 -1784.874154418707 -10.871069813147187 -1573.909888383001 725.64223302342 -1123.3663297491148 1540.9704666193575 -443.7467204350978 0 -986.1743756253272 -2062.7806162163615 144.41019730921835 -1872.5372449085116 591.7076384956017 -1638.8099948056042 -21.131800551898777 -1402.3646018356085 -1697.7346082795411 89.68610069155693 -930.0015671858564 660.4159142654389 -834.9610290555283 394.07535462267697 -1074.6303600594401 -731.0777178704739 -1635.0687802741304 -1005.5716049037874 -429.95464735943824 -837.0703732222319 962.0860181581229 -584.3186258096248 1575.0842057047412 -266.34055964648724 1381.07809240371 -690.3113812729716 0 -1611.6322702225298 -5405.610614748672 -671.2868839669973 -1582.7679783534259 2753.0918973721564 -729.7788488408551 2032.885249312967 -1748.8657322060317 576.1652984302491 -2221.7823190167546 -1627.9388248883188 -2204.6365315662697 -1103.4110329784453 -483.3211970869452 -1527.381654381752 -299.8826189674437 -1348.0094530005008 229.3227809900418 -584.3186258096248 1093.6210437742993 -625.0850625205785 497.38145321328193 -3100.965230325237 -885.426902984269 -1214.8391731772572 388.04544977098703 -1717.6249255724251 1037.0655155144632 -2386.1941672284156 -105.8181508667767 -2522.0822895877063 -924.1921817706898 -2111.7002801932395 -1442.898320070468 -890.5148812904954 -915.2418802613392 -7588.899448916316 -7803.022340564057 -5125.697352478281 -3341.0755816986784 -5729.040075145662 -420.3624359834939 -1285.5009767860174 409.76535326521844 -1040.9024566467851 505.11848393268883 -905.0144343990833 671.0969803808257 -3307.5151562877 4029.166034359485 -1296.3720465991646 1052.047452277504 -1992.1187124941498 2594.341896300204 -812.6105912849307 702.2978373458609 -2217.69293554686 52.935051078908145 -4489.741220144555 -988.1667784554884 -4.716687379404902 -1572.9782543312758 2634.902068177238 -4423.916138251312 -273.976970391348 -3298.0181978074834 -2633.4210736714303 -2245.635913601145 2147.03226586245 0 12846.856240231544 0 12846.856240227818 0 z" vector-effect="non-scaling-stroke" fill="#000" fill-opacity="1" stroke="#FFF" stroke-width="0.3px" stroke-linejoin="round" stroke-linecap="round"><title>Washington County</title></path>
<path id="24045" d="M -8441867.288097454 -4613410.939245918 l -4914.617809006944 -380.63468458130956 -2056.4391285032034 -1170.828080829233 -1050.867570316419 -2815.1461564796045 471.0785928759724 -3231.444120769389 1245.6403890457004 -3030.4006435470656 3691.625377666205 -6167.457465180196 996.5123780332506 -2183.7509953500703 638.6738711223006 -3051.09614334628 294.4241344630718 -762.9157167738304 -280.83536421880126 -502.8617742685601 263.8563588876277 -2414.303056058474 1374.5617177244276 -315.2090686513111 969.1134230829775 -1748.1244345782325 -1882.8570880405605 -1734.2365356003866 2232.289192279801 -2163.4453426580876 -781.0172134451568 -2518.837704366073 6535.788051018491 -3620.7304601212963 2237.966597635299 -4452.961886387318 1416.4286442548037 -34.44074968341738 3467.640270853415 -2345.5860691666603 309.9924265034497 7528.861708094366 504.02423884160817 5862.483530197293 7058.962980845943 431.5519514866173 8335.584016820416 239.74340787623078 8989.831525756046 272.41144975088537 8675.093186361715 13.88189597800374 6176.127396041527 12.353679961524904 2653.0442224871367 7083.049066746607 -1012.0054908040911 3965.6074544526637 2168.1691655898467 3042.8303545508534 -1801.2603465728462 3185.402796210721 -3420.513103048317 2287.635364628397 -1177.2033924981952 3601.9731501862407 -27661.660376131535 1647.5041070953012 -5582.8932098299265 -2876.959490300156 -2197.1123445089906 942.2446284210309 -1843.5615304354578 3899.6906418716535 -6118.005779432133 -2912.149553050287 -2043.157600061968 1783.6596989575773 -2423.935714436695 910.777390634641 -1051.4203829038888 1525.1721403514966 -1965.2741003353149 -151.31885298900306 -1303.8734719175845 -22.640139908529818 z" vector-effect="non-scaling-stroke" fill="#000" fill-opacity="1" stroke="#FFF" stroke-width="0.3px" stroke-linejoin="round" stroke-linecap="round"><title>Wicomico County</title></path>
<path id="24047" d="M -8358300.666766535 -4643703.855141047 l 108.71052123699337 873.3625849410892 -775.4940969087183 2167.9130651252344 -1350.751925800927 -900.5546746961772 -1801.1548156915233 150.22010947484523 2250.607148449868 4201.32181524951 -675.3292643772438 1799.8894872684032 -900.0426846696064 -599.9772071605548 -1725.216777891852 -899.8002090156078 -2250.5877788532525 -1124.3590519977733 -1950.5185217037797 -449.0167376352474 -1574.3243213128299 1201.1749979807064 4425.6006440948695 1272.4801138462499 825.1710875947028 749.6897067688406 -119.19445421174169 1281.91021354869 0 1063.212294312194 819.8579196156934 0 0 872.4453430008143 -507.3153135133907 317.75972423236817 -529.963486559689 462.1783183356747 -475.608182951808 277.29704179335386 1576.3014667928219 531.4651424326003 1485.7093312228099 -306.16681431792676 1268.2884507738054 51.991231362335384 924.038714107126 1576.9421891905367 -199.30240881443024 2223.4816524991766 -1132.4004144025967 2713.728680233471 -1512.886983031407 2562.950080541894 -1309.0548728127033 1789.0687790159136 -2731.3498315922916 6328.499940028414 -1068.9860419603065 1020.7339221052825 -3741.450979864225 161.46277088299394 -353.30891682580113 -1095.6898418031633 1476.6501510646194 -3028.1699217082933 -3632.740483978763 1990.0404795128852 -1449.4726105872542 1228.4417601386085 -1068.9859306365252 1701.1212595077232 -1612.5381874321029 8328.559006637894 -1087.10440227855 1261.6657303981483 -534.4930766392499 979.2688071681187 -1286.4068110911176 4497.6837444463745 -797.209969220683 1375.9804687453434 -770.0322060938925 5.756982838734984 -2065.498419987969 -863.5643077464774 -1041.80839015916 -17.27197702601552 -960.2755460655317 771.4554677270353 -1811.840707572177 2475.17711080797 -652.2626413675025 529.495901347138 539.0226667169482 1162.4935683002695 -2432.396107049659 7087.23292740155 -235.53935209847987 1150.0670975055546 -247.46090968512 1219.7491623545066 -56.47459776327014 4.662082250230014 -1726.5584263429046 205.44996553473175 -3129.3871477413923 273.92673592455685 -4316.395865621045 410.87683797162026 -5017.810276383534 616.2844444261864 -4748.035672433674 479.30711090005934 -4801.990473087877 547.7522026654333 -2805.657342692837 205.39972115121782 -803.9875380545855 211.814177820459 -1491.3746037017554 -3996.5897133992985 -988.739160625264 273.8550726911053 -1774.98872410506 -2892.376476250589 609.9191560987383 -1562.6940090013668 3746.122390979901 -397.95603224635124 1511.7185736540705 -2920.7430976275355 3381.1056693475693 932.714309762232 779.6816021986306 -2282.4418159583583 2883.396559972316 -222.89716047327965 333.8469302523881 -2816.615149379708 -3786.3081705607474 -5325.828642034903 2946.180752778426 -2768.149460528046 430.80620672926307 -2350.2676436481997 -3384.6675590984523 -5511.167689732276 -1114.9756858255714 -609.7152711125091 -2114.846906851977 -3708.8059057816863 -789.700022412464 -4102.797805876471 27661.660376131535 -1647.5041070953012 1177.2033924981952 -3601.9731501862407 3420.513103048317 -2287.635364628397 1801.2603465728462 -3185.402796210721 -2168.1691655898467 -3042.8303545508534 1012.0054908040911 -3965.6074544526637 -2653.0442224871367 -7083.049066746607 2498.965690208599 4.998503798618913 8669.657701515593 17.352410078048706 8675.093086243607 13.881702386774123 6033.42942919489 -34.70454686693847 z M -8353857.127517742 -4643732.775781232 l -9.05918016564101 52.05696178134531 -77.00325400661677 4036.5014460589737 -711.1474237302318 5294.777763209306 -1766.8664087699726 4862.049006597139 -1308.7331594899297 2382.0556699214503 330.66096642334014 -4193.332881429233 1843.5478381346911 -8027.55456974078 167.59526034258306 -4354.4963956698775 z M -8378242.175587309 -4582623.899996115 l 953.4185825586319 -1169.4574833624065 425.7825807519257 -845.3685139110312 2337.274492728524 -4665.145952524617 3320.197989198379 -4799.645089431666 548.0818468760699 -1433.4196502296254 507.3154248390347 -4071.0748961092904 1227.522028727457 -3605.99767731037 2894.41540845111 -5497.826723280363 4334.828838868998 -10375.478828549385 1743.8966337228194 -3179.906944206916 697.5586534934118 0 -1141.4595945626497 4183.8840011917055 -4004.167872445658 7699.673732162453 -3621.870247028768 9988.426596009172 -2059.1481996346265 8278.787090070546 -4361.108476340771 5976.593729075976 -579.7889774404466 1259.583970187232 -1030.3634722745046 1966.35058115609 z" vector-effect="non-scaling-stroke" fill="#000" fill-opacity="1" stroke="#FFF" stroke-width="0.3px" stroke-linejoin="round" stroke-linecap="round"><title>Worcester County</title></path>
<path id="24510" d="M -8519502.788630396 -4756947.40962837 l -3626.476062487811 -2749.389141989872 -695.158382628113 -1247.1451080879197 -1151.9965409636497 908.4100048700348 -1100.6931725163013 549.9486204525456 -2840.0603274852037 187.20964643266052 -738.3250755313784 356.8587963404134 1417.7653687000275 754.6271795658395 876.1151167228818 882.3291865522042 1864.2938950341195 -28.32328369282186 1733.1597575191408 550.3895110096782 709.5549984164536 1924.2925909534097 34.74370363354683 2224.9983754754066 3013.412827156484 628.693397546187 -1568.9154185783118 2021.7952574100345 -2991.476987540722 -1188.6109575638548 -659.8824605066329 -263.9520576065406 -3926.4896883722395 -4302.696413598955 -10300.389143515378 -5929.822023407556 -10.4632529001683 -13419.75010373164 20207.37531789206 47.08906787633896 z" vector-effect="non-scaling-stroke" fill="#000" fill-opacity="1" stroke="#FFF" stroke-width="0.3px" stroke-linejoin="round" stroke-linecap="round"><title>Baltimore city</title></path>
</svg>
