<svg xmlns="http://www.w3.org/2000/svg" xmlns:xlink="http://www.w3.org/1999/xlink" height="1080" width="1920" viewBox="-8182789.07371229 -5294756.898722132 398810.1923403442 247060.62891646102">
<path id="25001" d="M -7851710.01531 -5133491.149513331 l 3211.487635021098 3913.212352043949 7242.833128883503 5065.35521773342 4266.884765025228 1651.431017190218 14041.765205370262 1305.1576266111806 -1685.0118513675407 691.9649934871122 -4076.6415363717824 36.41788090672344 -1449.4724992616102 843.6407983116806 480.1377730369568 971.005514879711 2219.5048166746274 546.1472892975435 4511.483297289349 60.68111119605601 3451.5564354825765 -1335.073350441642 5834.126940341666 -3423.4923625756055 10073.834164885804 -2817.4079871615395 3403.9396346164867 -1122.6708702752367 3761.8902402585372 -1847.4344681892544 1666.8933797180653 -759.3772889757529 2378.040914767422 -3791.7129419604316 -415.65840701851994 -4479.798390076496 225.41506704501808 -5322.423636264168 -2187.79757479392 -3742.3329351507127 1100.6931725172326 6.086418363265693 937.6275956686586 -255.62737710028887 1834.48865796905 -773.0098155708984 0 -1113.9746520929039 -2151.5608541527763 -243.50901620741934 -1408.706077221781 -1083.6906330278143 -1055.3971603987738 -1181.241062690504 -1087.1044022776186 -548.0480397418141 -1549.123814990744 956.0189681826159 -616.0258093997836 4638.681676655076 -1259.2292706137523 1637.0018439749256 -352.47346404381096 -5143.080318771303 -294.9630321180448 -2985.5353154204786 -589.9631336228922 -7093.602714890614 -444.72737696859986 -2613.7926578223705 -1788.5082536190748 -3736.786375512369 -4257.381197458133 -2992.3600800670683 -3063.7709818119183 -972.1470749573782 -2691.1939969556406 2166.83908643201 -259.8300442257896 1719.8790926728398 1721.2486833212897 60.987947875633836 561.6706171222031 -60.987947875633836 90.43706751335412 1503.256394769065 -2055.67158062011 1501.3425522465259 -1478.5518219238147 -1250.2024981863797 -2455.625479158014 -3623.88978816662 -749.7471232088283 -1028.0914203859866 -972.9078592425212 -298.0827721040696 -749.1036965474486 -336.09224157221615 279.19239985756576 -1087.1820421861485 858.8663842575625 -1070.2579048350453 803.6859805975109 -714.0541863804683 1515.3509286390617 -603.9176242575049 2620.9306928394362 -212.91674427315593 2733.8063187990338 462.745905065909 2359.4662558613345 294.8812771541998 3184.0456803552806 1080.6705379216 4081.6092799706385 2316.9976457813755 3347.8554280065 2788.493807617575 4131.283153701574 6115.316836744547 3544.807548414916 6786.091141982935 4331.737385293469 14358.449108522385 2068.685608324595 2920.790330001153 -339.72014658059925 480.2869085818529 -366.8977983882651 285.72890414856374 -407.6641091108322 127.66331175155938 -466.5490027917549 36.474982937797904 -1612.5381874330342 -1349.6649444075301 -1180.2818216979504 -395.246818440035 -898.8053685342893 650.6033939253539 -412.19369918946177 4279.248812666163 -457.4898226335645 2011.3150637224317 2581.8730249833316 -1604.1567487148568 1630.6565477587283 200.53437645174563 865.1539317434654 2017.2626364342868 190.24333997163922 7749.139975488186 -706.6179449688643 9962.642656341195 -4371.065559514798 -1134.0783309340477 -17669.976210586727 3171.443897199817 -5390.225887947716 0 -3569.3262228583917 1830.8345778658986 -1367.9396551763639 303.08456575591117 -1141.459594563581 442.4862348912284 -960.275546066463 1127.3388143396005 -1739.3670436451212 2908.6497671939433 -960.275546066463 830.0154921002686 172.12486832868308 -1557.0954111190513 1132.4004144044593 -3751.3948974059895 -1662.3639009650797 297.0136040346697 -3012.1850844956934 1412.2042889893055 -1784.6630557645112 315.1417978061363 -3659.9181357854977 -381.80769444815814 -1549.1238149898127 357.56630477216095 -1666.8933797189966 1460.4292435795069 -1195.8148981649429 563.5087920287624 -1589.890125716105 -2726.9624326918274 -1358.880475020036 -375.7754713790491 -1145.9892959594727 1212.1263819178566 -3419.849193607457 5997.773307682015 -2310.0969522455707 2640.2563156904653 -2717.7609500354156 1513.5813583191484 -3166.1915925052017 678.0072120400146 -3687.0957875847816 145.2809542156756 -3365.4940013242885 762.6893685925752 -6971.155128608458 4713.905921880156 -2998.498130461201 -1409.6173562863842 2658.8761676652357 -2922.96649176348 1028.2195085948333 -4098.49068497587 54.355303603224456 -11348.073542528786 -566.200207201764 -2431.3104488058016 -131.35844628326595 -2074.07358571887 697.5586534850299 -1407.229203579016 1340.7621147008613 -1249.6957053979859 896.8610622994602 -1316.6030526608229 -656.7922314470634 -1620.2161287739873 1073.5156320398673 -910.353998276405 507.3153135124594 -200.28940842673182 -779.0913862530142 -1596.3961638445035 989.2808412723243 -944.5766116185114 -1203.8065244080499 -2441.4407626735047 7486.344848945737 -3562.278688139282 z M -7789360.048191052 -5109247.69094706 l 883.2722920663655 351.6069960491732 421.2529906667769 654.6821260154247 149.4768066154793 933.451033144258 63.414483761414886 1200.0180285777897 -1875.2550800153986 3029.680981430225 -2880.8267495259643 8708.040866161697 -2156.0903329132125 453.95808047801256 4502.424005799927 -11452.349698933773 z" vector-effect="non-scaling-stroke" fill="#000" fill-opacity="1" stroke="#FFF" stroke-width="0.3px" stroke-linejoin="round" stroke-linecap="round"><title>Barnstable County</title></path>
<path id="25003" d="M -8132243.213795442 -5167315.522155179 l -6893.182555810548 -264.24270555749536 -13561.627503552474 -527.0031301556155 -13561.627403435297 -519.7119836974889 -13556.191818481311 -527.0610609119758 -2973.2306355684996 -3664.612778845243 695.7468661200255 -2720.9998304592445 1483.897475251928 -5524.961596271023 2908.0043168198317 -10843.092445903458 2913.4398016668856 -10859.163422480226 2908.0043168198317 -10875.293114336208 2913.4398016659543 -10880.436065180227 2913.4398016668856 -10892.971594398841 591.9515577396378 -2216.264225033112 2321.4882439328358 -8696.669460875914 2910.721959132701 -10925.579038495198 2910.722059241496 -10930.873671906069 948.49861353077 -3569.978944471106 489.81943702325225 -1575.14144170098 6706.459865001962 38.695854876190424 6450.2991013117135 176.3533643130213 5528.554237735458 0 5311.748230419122 295.2140971273184 3011.206576398574 80.39469519816339 -66.63676239177585 5926.545900691301 2848.9988373210654 206.0095066577196 5308.4908876642585 -552.447636840865 -538.0662096561864 2230.4970278982073 -1795.412065799348 165.6125146197155 -2627.374644204974 2688.87490213383 2168.0462688673288 1656.9473492000252 1781.7292305845767 -975.8442583261058 935.1570822093636 3942.2433638861403 -2725.2123427893966 12829.05069193989 760.0893718162552 2414.476656548679 -4803.769540924579 24170.70023140963 -6034.516161340289 -1396.0168935908005 -301.11933392006904 1261.1409451467916 608.137710290961 7751.090231698938 4077.6316119246185 3213.2111406214535 2910.669835207984 -675.582323377952 -432.1424858914688 9180.071067941375 -3428.083607661538 16173.501762255095 -3670.9814007338136 -641.697175049223 -550.6977435937151 8097.611362837255 2104.7167218709365 5400.728398987092 z" vector-effect="non-scaling-stroke" fill="#000" fill-opacity="1" stroke="#FFF" stroke-width="0.3px" stroke-linejoin="round" stroke-linecap="round"><title>Berkshire County</title></path>
<path id="25005" d="M -7925275.486476644 -5112697.095613634 l 412.4041595412418 -1304.6167637687176 6087.784652756527 -10425.862555135041 2763.0569621622562 -6201.425127453171 -1703.1302116857842 692.6209128974006 -1340.7621146924794 1864.9667211417109 -3501.382037694566 6958.525318235159 -747.3842556914315 995.396578444168 -1073.515632038936 691.8611277081072 -2459.573758852668 -1068.1573705440387 -1454.0020893486217 -333.82365325000137 -647.7330512879416 843.6407983116806 -235.5392407728359 716.1261589629576 -875.5289826281369 1695.5517409499735 -3448.9355718707666 -6003.08518901933 -2049.1918039740995 -1679.4874337501824 -1087.1043782075867 -371.6401829076931 -1271.9121645493433 -717.8161270665005 -1820.8998384997249 -1406.6386003093794 -1271.9121645502746 -1716.6703890142962 -608.7784077404067 -1137.327280556783 -201.1143410084769 -944.2300087027252 -32.613209430128336 -794.8296106215566 532.6811192901805 -5058.558993435465 -168.50103145930916 -1506.7788940090686 -16.306654770858586 -711.515634521842 277.21172957029194 -1284.5111902728677 122.29910989757627 -901.4503870643675 57.07309147994965 -1080.3925051698461 -222.8563805082813 -1690.1835295651108 -396.7932972693816 -562.2440102342516 -891.4255220517516 -178.90273154433817 -2103.546952812001 135.09002047684044 -880.5546524636447 -244.62402483448386 -342.4379482129589 -788.6814855458215 -168.50103145465255 -982.2916518449783 -396.7931971568614 -9422.717878703028 -88.8412174731493 -2078.437078614719 2375.5551572302356 -103.1661331616342 11439.40972803533 -5905.2545051770285 20104.85062346887 -10615.559457860887 3301.956732158549 19582.186274798587 6199.606083138846 5856.5775734251365 2327.1296135718003 9737.644429580308 -6981.177111048251 6643.2121176226065 2465.9482468571514 2530.800339971669 -1323.3657725946978 3007.534814977087 11652.252705756575 -1734.1733635719866 1889.8702159561217 4910.289965189993 2019.7801730381325 -315.17635285202414 4613.411430555396 17204.627673169598 -550.2933290814981 2253.313500707969 679.4401910500601 3811.0008041374385 -135.88803636934608 1708.0977648552507 -1304.525282735005 127.18674634210765 -665.8514116108418 -835.8287401869893 -788.1506777377799 -2774.5032335966825 -475.60818294994533 -1060.3386037740856 -751.9139570947737 -733.216708871536 -2713.231359956786 -1806.0124031705782 -217.42088045552373 3738.9177253991365 -1517.4165731100366 2471.6129987463355 -1186.7556066811085 2688.974383126013 720.2066038884223 4395.216078937054 -2500.340069579892 2124.2396748056635 -1345.291704773903 780.5854994542897 -1549.123814990744 54.4571035830304 154.00650800671428 -635.351959229447 144.94721653591841 -381.2312308559194 -4955.384238359518 3775.3393320143223 -2749.4681919179857 762.1483948640525 -3302.0796288736165 -1488.060223014094 2264.8008288005367 -980.0677627306432 625.085100883618 -1948.3323023878038 -606.9666292415932 -2245.3072166945785 -1454.002200666815 -1846.2652515331283 27.17765180207789 3050.6866037659347 -1290.9365124888718 762.5204191496596 -4121.93754849676 -762.5204191496596 1023.6900298343971 2311.5821916908026 489.1969531951472 732.0868115723133 -2753.997782002203 1542.6454636696726 -113.74679058603942 -1260.9750807937235 -304.3892539292574 -3663.305417147465 -304.3892539292574 -3664.7015248518437 -304.3892539301887 -3669.7331748232245 -304.38915381766856 -407.0270811757073 -304.3892539292574 -407.0443266509101 -304.38925392273813 -407.06144063267857 -304.3892539292574 -410.71350972540677 304.3892539292574 -2039.289054615423 304.38925392273813 -2036.0859841695055 304.3892539292574 -2040.154899859801 304.38915381766856 -2040.588659630157 -1831.770908312872 -611.169931220822 -1826.3353233458474 -611.2087316494435 -1831.770908312872 -611.2476741569117 z" vector-effect="non-scaling-stroke" fill="#000" fill-opacity="1" stroke="#FFF" stroke-width="0.3px" stroke-linejoin="round" stroke-linecap="round"><title>Bristol County</title></path>
<path id="25007" d="M -7848090.863565869 -5070575.357418637 l 1521.9461631895974 -1340.525310411118 1807.3111174926162 -2621.2046651747078 1666.8933797180653 -1383.3653424307704 1078.0452221175656 2392.0700147701427 122.29926612693816 4673.696637813002 -194.77293005306274 2167.0057240035385 -688.4993620086461 1267.3820890337229 -1404.1765984622762 -205.18384555913508 -1757.4854039689526 -1382.087749902159 -1503.8278028648347 -1889.3746871324256 z M -7856529.5114815915 -5075648.596670427 l 1454.0022006602958 1353.1247512148693 1562.7125852359459 616.0921748951077 3551.2076398925856 150.99702243413776 1109.7524639992043 7552.870906135999 -1956.787924100645 525.0397887602448 -15695.069814843126 307.76862682867795 -3370.023702722043 814.6344108115882 -3080.1290470203385 1303.2721833819523 -2640.757807354443 1737.422558828257 -3143.5435307826847 3944.2367802178487 -1168.6372463637963 36.17826111614704 -2033.791178105399 -1248.2264408348128 -1145.989184643142 -1206.1690452620387 -2124.3832023516297 -2847.1561777181923 -1354.3508849376813 -1001.5298742875457 0 -1098.18233642634 7152.240993313491 -24.137364908121526 3057.481096616015 -2709.7931147571653 1372.4693565815687 -1829.0879516135901 2989.537134095095 -5271.8863322250545 1413.235667301342 -1105.4688265919685 1449.4724992625415 -785.3828238444403 3306.60933027789 -3480.620010501705 6096.8438329175115 -2599.19940839801 1349.821294857189 350.6306236786768 -1186.7557180048898 3481.432274869643 1657.8343108771369 -882.3273168029264 1032.7490986753255 -1740.7182984650135 1010.1012595891953 -1196.9263903517276 1617.067777520977 773.7875078199431 1127.8708243165165 2200.11870827619 -54.35530360136181 1432.2248911736533 -1145.9891846422106 1154.0854042200372 z M -7884811.968597864 -5050821.710302901 l 950.2729332223535 -4.014323591254652 880.9795558331534 -410.91262606624514 544.8170688543469 540.9931591963395 815.853089616634 404.2187234200537 4.587921496480703 1289.4246923895553 -1018.1564492676407 4.505268577486277 -1358.7308616228402 -401.86239785980433 -1021.2674950743094 -878.3337680669501 z M -7889343.249732623 -5077262.230198711 l 1303.7419274719432 -1424.9705487079918 330.72619964927435 762.9314229376614 878.8745042569935 1306.0837850868702 -651.7863052664325 766.8100659679621 -2396.7281176904216 992.7861605156213 -1855.7155037540942 8.676618877798319 -1528.626668471843 7.569135915488005 -2396.8055960536003 556.8984662378207 -1196.5510539542884 1098.388747541234 -1095.1516882674769 -430.9758291039616 871.1724200090393 -987.3529004631564 1630.5681600812823 -1208.7580376071855 1635.8121986510232 -117.15742110740393 1523.846275581047 -989.744423459284 z M -7872999.116709895 -5088023.565051311 l 1526.8832939239219 -1206.3377656983212 1749.1241970127448 323.63686178345233 1751.2219015005976 979.343110169284 -2292.102601838298 1207.4356514848769 -2072.108348712325 1535.098621073179 -2726.7540064211935 1537.1179598970339 -1744.5902654696256 878.6950185764581 112.56048047356308 1091.6784539641812 -1196.8997066030279 1314.1334906304255 -2505.8464881926775 1536.8793443078175 -1963.7938162498176 334.55626346636564 -2726.5807932894677 665.4235161701217 -769.2057701963931 -1197.7928623761982 1306.3779730172828 -987.8627533167601 1638.885395833291 321.42478154599667 1196.6993315238506 -1205.4379692021757 2285.2624644050375 -2301.3360674548894 4358.958451692015 -3290.572736317292 z" vector-effect="non-scaling-stroke" fill="#000" fill-opacity="1" stroke="#FFF" stroke-width="0.3px" stroke-linejoin="round" stroke-linecap="round"><title>Dukes County</title></path>
<path id="25009" d="M -7883009.729528162 -5293313.573375675 l -117.6029216228053 1067.759956232272 901.390652384609 5363.066162547097 -212.89129037596285 1321.7594557404518 -1014.6307383524254 352.026044908911 -5064.09462292213 -352.026044908911 1127.8708243183792 1408.0249470034614 1055.3971603969112 753.3299712082371 2382.570504853502 1148.4033675715327 280.83525289874524 12.347627160139382 842.5058700218797 -135.825095619075 389.54574878513813 123.47746845893562 375.95697854831815 481.54663782473654 557.1410270426422 1321.0395834920928 -398.6049289526418 1845.440383308567 3256.7836167551577 9708.820232131518 -837.9763912595809 1121.9743012385443 -3315.6683991188183 -5031.436247848906 -1245.6405003694817 -1171.9219620889053 443.9010523939505 4717.638251530938 2355.3928530467674 2552.0879168007523 6327.853483615443 3068.985632150434 -1725.778162081726 930.3581441463903 -910.4499438684434 178.66751341242343 -1091.6339923581108 -73.93093685433269 2002.0839362265542 2661.149246948771 6210.0838075643405 591.2643322646618 140.41773776710033 1921.3525749146938 1979.4358745040372 1274.5273273093626 511.84501491766423 -1385.3639570306987 -208.3617002973333 -4027.9488078029826 905.9203537888825 -1386.160788828507 1386.0581268202513 -1090.5901506599039 3030.303556133993 -1559.085514364764 -212.89129037689418 2206.0609847363085 416.7232892764732 1207.5685990601778 964.8051361450925 511.32149651646614 1490.2390326252207 110.88537354022264 1091.6339923590422 449.68838247004896 -149.4769179271534 1102.5693813422695 -312.5424947841093 1367.2532801320776 575.2593873599544 1219.2743935799226 0 929.7446779003367 -1608.0085973544046 -6.156931536272168 -774.5617961734533 855.7769963955507 -557.1410270435736 1268.1310096411034 -924.0387141061947 1169.4840169763193 -1195.8148981649429 917.0200145496055 -539.0225554015487 326.16690795496106 -2065.4984199861065 -295.39589694608003 -117.76956472825259 -307.71402767300606 -240.06894217710942 -480.05374699179083 -629.6145796449855 -92.32075127772987 -1295.466102574952 880.0885259425268 -1032.749209993519 1372.2816475285217 -629.6146909631789 1335.167394743301 -842.5058700218797 1021.2447953578085 -11287.767312049866 2872.4263148922473 -5689.179723804817 2398.1440905332565 -1848.0775395380333 1420.1516676461324 824.3875097027048 1032.703397483565 -924.038714107126 719.1373065561056 -693.0290634129196 903.453796855174 -466.5490027917549 1161.4564892984927 -262.71689258143306 1437.7956484900787 1544.5942249111831 -774.1704551922157 1499.2981014670804 -1573.113423595205 1136.9300044840202 -811.23893861752 448.4306424744427 1511.7983886469156 1087.10440227855 1327.2332601416856 235.53924077376723 860.1439813999459 -951.2163659101352 393.18266829662025 -951.2163659082726 227.30125384405255 -606.9666292406619 559.014814550057 -498.25613335333765 675.6881842920557 -2214.9752266034484 2118.8900680430233 -729.265895373188 534.2537473067641 -860.6243416564539 171.93732333928347 -1793.7222359301522 -190.35946742538363 -733.7954854508862 583.3471834259108 -366.897687071003 1866.4689741581678 874.2131119016558 1571.477448769845 1476.6501510702074 1264.3584470245987 1404.1764871366322 920.5430662864819 -2749.468191916123 883.6369673991576 -3039.362736299634 -3700.7812125459313 -2156.090444231406 1307.4066032152623 -4280.608576949686 -0.14239755179733 -2649.2299886979163 -993.5522029334679 -3217.2432675799355 -4843.5147791635245 2070.5420834748074 -4378.033776878379 -623.5003566099331 -3005.4121722998098 -3796.104508387856 -755.2793163396418 474.5546552883461 -3749.9502759864554 1449.9363675853238 -2570.027464415878 3318.321476543322 -185.02523106802255 -626.2832325678319 -1739.780261493288 -2612.8900860240683 -2901.8601282453164 -8681.915512151085 843.7332340143621 -1483.554297203198 -2146.1559176528826 -2536.3023876762018 -444.87075767852366 -10062.057822019793 -6368.638211502694 2359.225139326416 -2122.034301545471 -2057.1545655634254 -7818.432374821976 1513.792942257598 -1935.0315653048456 847.9414430335164 -573.5561523791403 1146.8951119985431 -499.5776489963755 2174.2088565248996 -658.7428045999259 1315.3962435694411 -614.3746904097497 1152.3306969627738 -1302.903682534583 451.14834598917514 -1025.423436459154 1011.0071898624301 -2843.6367297219113 875.1189673934132 -1611.0355722354725 459.3015732578933 -688.9409468770027 1013.7249322934076 -1259.4853794313967 592.4718530811369 -526.0703021129593 592.4719532011077 -418.654522690922 896.8610068978742 -344.57034975942224 1103.4110329793766 -177.84760584309697 1896.997126955539 100.03962478134781 1277.3477495098487 244.53711867053062 1244.7344399662688 7.410066610202193 1059.92685384769 -351.9868100620806 1451.284365925938 -1067.1572459852323 823.4815609855577 -844.9189411960542 1638.8099948037416 -2027.374345421791 576.1652984302491 -541.2014415701851 1220.2746580224484 -886.0068681193516 10792.22895141039 -4828.168897861615 1016.4426747085527 -40.8015721431002 1326.2673133835196 211.42449078615755 3739.6391050741076 1628.1791993938386 2331.839018397033 611.8848373200744 z" vector-effect="non-scaling-stroke" fill="#000" fill-opacity="1" stroke="#FFF" stroke-width="0.3px" stroke-linejoin="round" stroke-linecap="round"><title>Essex County</title></path>
<path id="25011" d="M -8128871.631450811 -5272738.920654343 l 2517.3476613322273 67.20887573249638 5420.151284132153 0 2423.8672759896144 -24.890052415430546 2300.9006489580497 -23.627401613630354 5468.1352005722 203.52762687392533 5473.570685424842 210.92406727187335 5468.135200577788 203.5185153381899 5473.570585315116 207.21457434538752 5473.570585312322 214.610088955611 5468.135200573131 207.2052747020498 5473.570685424842 203.5006248364225 5470.852943002246 210.8960852874443 5470.852943000384 203.49165338091552 10.870969695970416 7.399563916027546 16.306554663926363 0 13.588812237605453 0 24.459781927987933 0 10.871069813147187 0 16.306654778309166 0 10.870969694107771 0 10.871069811284542 0 16.306654770858586 0 13.588712125085294 0 13.588812234811485 0 10.87106981407851 0 13.588812233880162 0 13.588712125085294 0 16.30665477644652 0 7897.813446820714 266.38232978247106 7903.249031785876 266.3746449779719 4459.979124609381 146.24294629506767 1223.5958738923073 7641.994991952553 4719.05418391712 1731.0629865322262 521.7542307097465 3615.824698187411 -328.50381733104587 3487.3725882340223 -2997.721565693617 649.9760964307934 -1384.3689648676664 1654.9146432010457 602.6835005162284 3769.585996071808 -1694.3936354098842 6.349009439349174 861.1672468185425 6394.6072811335325 2701.5004007006064 2998.3734957827255 -5173.238040311262 5141.885790653527 892.3364816009998 5778.996035454795 -2594.9678706461564 3265.2395164221525 -896.6783870216459 3739.9910328136757 492.47709331009537 4551.967774259858 -472.99662770237774 3164.41103522107 -1398.3951093815267 3437.671809189953 -3175.0534032117575 2544.0585950501263 509.50919804163277 -3906.840796906501 -675.4861135389656 -4498.378330099396 -1059.093301448971 -3185.1143050137907 9.23962905537337 -3395.2805139413103 -984.3978118067607 -2585.7887300858274 -12060.127097378485 1954.106947697699 -684.0578256426379 -3957.6373857222497 -10174.264160449617 1694.9969146810472 -4576.565458342433 1100.1753795389086 -9117.620221753605 1454.0376205584034 377.0394492773339 -7147.804516854696 -6318.158335206099 1051.5308809354901 -65.34442977514118 -2259.9560909289867 -1665.2274835407734 -884.2740206951275 -10901.291420860216 -2623.2814437206835 -20.482674985192716 -6095.326716487296 -620.4945077216253 -2508.461070317775 -10957.396555541083 -2233.477254475467 2725.2123427893966 -12829.05069193989 -935.1570822093636 -3942.2433638861403 -1781.7292305845767 975.8442583261058 -2168.0462688673288 -1656.9473492000252 2627.374644204974 -2688.87490213383 1795.412065799348 -165.6125146197155 538.0662096561864 -2230.4970278982073 -5308.4908876642585 552.447636840865 -2848.9988373210654 -206.0095066577196 z" vector-effect="non-scaling-stroke" fill="#000" fill-opacity="1" stroke="#FFF" stroke-width="0.3px" stroke-linejoin="round" stroke-linecap="round"><title>Franklin County</title></path>
<path id="25013" d="M -8127289.317241271 -5167125.624410706 l -4953.896554171108 -189.8977444730699 -98.76239651907235 -2356.673731876537 -2104.7167218709365 -5400.728398987092 550.6977435937151 -8097.611362837255 3670.9814007338136 641.697175049223 3428.083607661538 -16173.501762255095 432.1424858914688 -9180.071067941375 5183.479322148487 -4745.488892904483 6476.231678170152 460.7103654490784 1163.622303306125 1233.9717475492507 422.6712009841576 10189.417227640748 -3456.349630124867 3850.0362822990865 4505.988789855503 3455.138513803482 1699.2915816856548 -3615.124797370285 4452.889615384862 -618.3184963613749 2593.409175134264 1162.0212473748252 153.17550801299512 2939.1510992581025 1200.0234428374097 2663.1064749220386 10230.591711468995 2373.7736063646153 -141.59783569537103 -4416.573636871763 2290.1748822210357 -497.20318811386824 1525.0766899036244 -1698.6247089216486 2449.1397829866037 -6962.877761750482 1903.3170558726415 -1645.9071348626167 -301.51442964188755 2121.602444224991 -434.8417609119788 1597.5248304558918 -181.18406704626977 1591.136548009701 480.1377776740119 1505.214287692681 1558.1829765988514 2141.153575158678 751.9138782415539 1351.736768915318 280.83530391938984 1168.0880372524261 21572.23105903063 -3490.826262511313 912.7116614235565 7134.826625613496 3043.8923263782635 -1724.0003779754043 1232.0516559146345 -1913.8847191566601 1590.4761462612078 -1447.6716069281101 6898.355409897864 -2508.7318894853815 2645.0615301840007 757.740893933922 1174.4204052286223 -1839.4302875520661 2875.9380427692086 -468.70968485530466 -4468.919844698161 6117.425538890064 -293.8833443755284 3098.84923076164 7042.513705193065 3423.72567983903 145.60589395742863 1126.7029843507335 7180.5499851014465 -1223.2661284403875 -106.36965813767165 20424.309353995137 -8403.960682101548 -166.4269035095349 -16442.45409578923 -325.6248601078987 -16453.325165593997 -325.635720923543 -5636.636232032441 -106.10857580322772 -2032.8852493138984 1046.3976181643084 -951.2163559617475 51.219365103170276 -1429.5423264140263 -248.78227578755468 -2592.7438929723576 -812.2454191967845 -15279.25252923742 -230.5147816427052 -635.9559320993721 3420.5588069967926 -4799.566059041768 482.8034495813772 -135.88802224583924 -3903.3622565781698 -6022.558359376155 -559.8446833798662 -7136.840362055227 -289.0830855406821 -7511.8914195923135 -281.77302129007876 z" vector-effect="non-scaling-stroke" fill="#000" fill-opacity="1" stroke="#FFF" stroke-width="0.3px" stroke-linejoin="round" stroke-linecap="round"><title>Hampden County</title></path>
<path id="25015" d="M -8126364.787675952 -5207882.411304027 l -2910.669835207984 675.582323377952 -4077.6316119246185 -3213.2111406214535 -608.137710290961 -7751.090231698938 301.11933392006904 -1261.1409451467916 6034.516161340289 1396.0168935908005 4803.769540924579 -24170.70023140963 -760.0893718162552 -2414.476656548679 10957.396555541083 2233.477254475467 620.4945077216253 2508.461070317775 20.482674985192716 6095.326716487296 10901.291420860216 2623.2814437206835 1665.2274835407734 884.2740206951275 65.34442977514118 2259.9560909289867 6318.158335206099 -1051.5308809354901 -377.0394492773339 7147.804516854696 9117.620221753605 -1454.0376205584034 4576.565458342433 -1100.1753795389086 10174.264160449617 -1694.9969146810472 684.0578256426379 3957.6373857222497 12060.127097378485 -1954.106947697699 984.3978118067607 2585.7887300858274 -9.23962905537337 3395.2805139413103 1059.093301448971 3185.1143050137907 675.4861135389656 4498.378330099396 -509.50919804163277 3906.840796906501 3175.0534032117575 -2544.0585950501263 1398.3951093815267 -3437.671809189953 3379.6588499303907 -1284.9482323750854 1068.6665550209582 7542.720951277763 7047.9685828844085 -1371.5588039709255 -535.6696123359725 8265.334417564794 -551.3653265815228 1645.4057586602867 -2875.9380427692086 468.70968485530466 -1174.4204052286223 1839.4302875520661 -2645.0615301840007 -757.740893933922 -6898.355409897864 2508.7318894853815 -1590.4761462612078 1447.6716069281101 -1232.0516559146345 1913.8847191566601 -3043.8923263782635 1724.0003779754043 -912.7116614235565 -7134.826625613496 -21572.23105903063 3490.826262511313 -280.83530391938984 -1168.0880372524261 -751.9138782415539 -1351.736768915318 -1558.1829765988514 -2141.153575158678 -480.1377776740119 -1505.214287692681 181.18406704626977 -1591.136548009701 434.8417609119788 -1597.5248304558918 301.51442964188755 -2121.602444224991 -1903.3170558726415 1645.9071348626167 -2449.1397829866037 6962.877761750482 -1525.0766899036244 1698.6247089216486 -2290.1748822210357 497.20318811386824 141.59783569537103 4416.573636871763 -10230.591711468995 -2373.7736063646153 -1200.0234428374097 -2663.1064749220386 -153.17550801299512 -2939.1510992581025 -2593.409175134264 -1162.0212473748252 -4452.889615384862 618.3184963613749 -1699.2915816856548 3615.124797370285 -4505.988789855503 -3455.138513803482 3456.349630124867 -3850.0362822990865 -422.6712009841576 -10189.417227640748 -1163.622303306125 -1233.9717475492507 -6476.231678170152 -460.7103654490784 z" vector-effect="non-scaling-stroke" fill="#000" fill-opacity="1" stroke="#FFF" stroke-width="0.3px" stroke-linejoin="round" stroke-linecap="round"><title>Hampshire County</title></path>
<path id="25017" d="M -8003566.324138311 -5268742.987287491 l 7895.095704401843 266.32255771849304 7903.249031779356 262.61640742234886 7903.249031784944 258.91015893407166 7897.81344682537 262.60184248909354 7897.813446819782 266.29280808661133 7903.249031784944 258.88874184992164 7897.813446819782 266.27780098933727 7897.81354693789 262.57227431517094 2587.3085082303733 88.75524982530624 1114.282002672553 -181.2093611387536 880.554452246055 -428.99930201563984 1641.5277372300625 -1261.2236642837524 1622.5032399212942 -1620.2362471800297 2057.1545655634254 7818.432374821976 -2359.225139326416 2122.034301545471 10062.057822019793 6368.638211502694 2536.3023876762018 444.87075767852366 1483.554297203198 2146.1559176528826 8681.915512151085 -843.7332340143621 2612.8900860240683 2901.8601282453164 626.2832325678319 1739.780261493288 -3318.321476543322 185.02523106802255 -1449.9363675853238 2570.027464415878 -474.5546552883461 3749.9502759864554 3796.104508387856 755.2793163396418 623.5003566099331 3005.4121722998098 -2070.5420834748074 4378.033776878379 3217.2432675799355 4843.5147791635245 578.861240806058 995.586416926235 -2282.1604354744777 5503.850181307644 -1078.6062723482028 1345.9508043155074 -2664.174307513982 332.09202431328595 1208.5229983218014 2644.7614743998274 -188.5745278969407 609.3921489026397 -1614.6194166336209 1701.7527289213613 -3212.9817348401994 1037.6344769969583 -2311.4645121851936 -3098.389526163228 -5077.395966242999 3112.1184042757377 1981.5974763780832 3117.3420770177618 -2449.1393377082422 2378.844746683724 1591.9793699178845 1595.5996070839465 -2950.076934958808 3160.2995679918677 -1435.019110539928 -909.0453261779621 -2589.730288599618 -4629.676797593012 -4736.314048324712 -1279.6617330498993 -6367.695508609526 2152.958752551116 2115.180642691441 6485.881077647209 615.1511721657589 3390.6838192408904 -3287.0408109510317 -96.84713907632977 275.99051733966917 2206.2312392918393 -2497.481830334291 3979.552804331295 919.6099794898182 1044.7931307470426 -6743.732637185603 1861.5090180356055 244.1235319878906 1437.6907895375043 -4650.258849925362 609.1121151149273 -2199.561150671914 2492.5233563380316 -1576.3947525247931 195.066629354842 -2141.229848808609 -1480.2960454979911 -1113.4171016402543 -3340.936741333455 -8468.404617484659 -931.9950373880565 -2187.31589536462 -3392.794771272689 1720.5538270622492 -6288.50281694252 2220.633151041344 -996.5171919036657 6845.111965368502 231.50306357629597 2196.889705521986 -6909.74003532622 -30.83561026584357 -2918.955978723243 -7209.270302403718 465.4247013516724 -3796.3275926485658 2335.0614090003073 -4484.949183460325 -5767.638572540134 1734.8023879267275 -1236.4120952673256 238.66909957956523 -1928.4499977109954 3083.214934622869 -2514.8071358110756 -2639.718083301559 -1591.5398977790028 4996.128507820889 -2146.9450406320393 1874.9539607884362 -7492.030099829659 -1858.572852442041 -1868.3869708646089 3062.6042422223836 -6983.259476820007 -833.2259433055297 -3417.057985409163 -4614.636501555331 -1136.1215330827981 -1604.336056032218 1077.3465113854036 -3827.685180010274 -671.1800180431455 -1164.992312273942 2688.7555687529966 -4344.353111864068 -52.981885706074536 1558.4727597823367 -12289.064180287533 -12056.230581240728 -4795.931004334241 -267.1666665878147 1013.8863812740892 -7725.7926283674315 -181.58377072494477 -1525.0765785835683 620.3959413263947 66.68048629723489 -6251.073919719085 -4371.403302847408 -4367.57457865309 z" vector-effect="non-scaling-stroke" fill="#000" fill-opacity="1" stroke="#FFF" stroke-width="0.3px" stroke-linejoin="round" stroke-linecap="round"><title>Middlesex County</title></path>
<path id="25019" d="M -7798392.2397205 -5070436.448385028 l 195.16711237095296 -575.235223644413 1408.2375334864482 326.9408813668415 1210.679946364835 1222.6004454018548 1076.2278201160952 2374.092853518203 1549.9049438536167 4063.2526224208996 3374.5532928006724 6007.2583684632555 1915.2688709823415 3917.646661181934 -1045.2261211592704 3894.0687710158527 -3782.7073189914227 1509.5531996330246 -4665.24479109887 -603.6147659588605 -6073.320911317132 222.7008149791509 -4469.3849375303835 -788.0314526790753 -10619.70743306633 -5421.341550162993 -2583.1593217020854 -1334.5737588591874 -2422.7350224033 -2243.3208241285756 640.563630794175 -509.9455577591434 1788.9409524854273 324.1858960632235 1722.2982034785673 1219.3134500058368 2619.151807383634 519.3191646132618 6260.24425879959 660.866387443617 4092.4373268382624 -430.28785915859044 1946.6713200937957 94.45235236454755 1005.5716695105657 711.3800927363336 896.8610623050481 66.31239415984601 865.153931742534 -379.7955139959231 1173.1668364433572 -1338.4457724019885 2826.47144592274 -886.3701388044283 1626.1269576791674 -1477.4644316267222 1259.2292706081644 -1966.2826197268441 674.9107030890882 -2051.150705304928 -2038.3207681858912 760.1831382932141 -3111.836288901046 3389.929794818163 -1757.4855152880773 820.1600931584835 3537.6188696529716 -5911.535066992044 788.1507890559733 -3246.8516717571765 z" vector-effect="non-scaling-stroke" fill="#000" fill-opacity="1" stroke="#FFF" stroke-width="0.3px" stroke-linejoin="round" stroke-linecap="round"><title>Nantucket County</title></path>
<path id="25021" d="M -7883765.792588402 -5201135.248009251 l 4148.9013564689085 1178.7350309072062 807.142939931713 513.3174914615229 -855.9370557349175 2345.7245589299127 -497.6507779620588 2661.2132496414706 -4254.740921778604 3349.95728916768 -1549.2327967705205 -1872.5479303281754 -1350.1936585539952 -4019.260044526309 931.4100681506097 -3103.7039868775755 z M -7902957.928583365 -5207677.2504785145 l -602.4370391685516 4096.876236380078 1712.189391844906 624.4801931111142 2296.5080706859007 -91.8326719244942 1155.0483648013324 1952.7849354473874 -312.54249477852136 820.1721966871992 -1209.4036684101447 1199.5270523885265 0 636.4222048241645 489.1970645142719 501.7643770771101 720.2066038958728 440.5515832323581 643.2034612018615 73.42340027727187 294.42413446027786 -550.6886015795171 711.1474237320945 73.42694368306547 1639.7158392397687 -660.8632548348978 1216.055787219666 3905.0226751547307 -1089.9289117213339 10055.721512891352 -17316.18672752101 9276.26507553365 -20104.85062346887 10615.559457860887 -11439.40972803533 5905.2545051770285 -2375.5551572302356 103.1661331616342 -112.2730234162882 -2627.271585032344 -130.45253739971668 -2022.669190426357 -5772.524454507977 -87.79290942568332 -6572.915398882702 131.29588908143342 -15.825405215844512 -11656.150778067298 -304.5032237926498 -3703.9967704052106 2548.6590737914667 -2084.4513069838285 9.351059864275157 -3727.276240909472 1576.3947525247931 -195.066629354842 2199.561150671914 -2492.5233563380316 4650.258849925362 -609.1121151149273 -244.1235319878906 -1437.6907895375043 6743.732637185603 -1861.5090180356055 -919.6099794898182 -1044.7931307470426 2497.481830334291 -3979.552804331295 -275.99051733966917 -2206.2312392918393 3287.0408109510317 96.84713907632977 -615.1511721657589 -3390.6838192408904 -2115.180642691441 -6485.881077647209 6367.695508609526 -2152.958752551116 4736.314048324712 1279.6617330498993 2589.730288599618 4629.676797593012 1435.019110539928 909.0453261779621 1756.262893321924 961.0286597376689 3654.0848831413314 6017.846403076313 3639.2557911416516 -1703.9724443741143 1454.581952569075 -2795.4150958117098 3279.804598769173 -780.5641310531646 3017.2149443682283 -1632.0283595193177 1453.6840495606884 -2744.6733135692775 1046.3379802377895 42.869226755574346 z M -7922017.780622711 -5206579.60072042 l -1591.9793699178845 -1595.5996070839465 2449.1393377082422 -2378.844746683724 3829.3892587749287 -3253.059020956978 1747.8267683451995 286.1935965567827 -1090.9307871367782 3930.5203930521384 -3951.9521294580773 4380.381999157369 z" vector-effect="non-scaling-stroke" fill="#000" fill-opacity="1" stroke="#FFF" stroke-width="0.3px" stroke-linejoin="round" stroke-linecap="round"><title>Norfolk County</title></path>
<path id="25023" d="M -7885935.685535384 -5105550.399778322 l -1059.9267596760765 -96.95986882410944 550.2933290814981 -2253.313500707969 -4613.411430555396 -17204.627673169598 -2019.7801730381325 315.17635285202414 -1889.8702159561217 -4910.289965189993 -11652.252705756575 1734.1733635719866 1323.3657725946978 -3007.534814977087 -2465.9482468571514 -2530.800339971669 6981.177111048251 -6643.2121176226065 -2327.1296135718003 -9737.644429580308 -6199.606083138846 -5856.5775734251365 -3301.956732158549 -19582.186274798587 17316.18672752101 -9276.26507553365 1089.9289117213339 -10055.721512891352 -1216.055787219666 -3905.0226751547307 1807.3110061688349 -1028.1010133409873 1227.5221400512382 -997.6093713231385 1259.2292706081644 2001.2331449091434 1313.5844628931955 -587.4742072680965 896.8610623050481 -1560.6551451962441 27.17765180207789 -875.3033111998811 -1449.4724992625415 -905.9933366198093 -1313.5844628931955 -2112.28028248623 -797.2099692188203 -2388.3621034231037 63.4144837660715 -1782.4777142358944 4756.08171821665 5193.3646327657625 2713.2313599558547 2142.658571008593 1150.7326185517013 326.9580109035596 -2620.300846248865 1053.4356583757326 -931.4100681506097 3103.7039868775755 1350.1936585539952 4019.260044526309 1549.2327967705205 1872.5479303281754 4254.740921778604 -3349.95728916768 497.6507779620588 -2661.2132496414706 855.9370557349175 -2345.7245589299127 1666.019589166157 1059.448153661564 2201.3864563554525 2037.4759205896407 2840.0602161698043 3578.2905340725556 285.3649542964995 1009.0175585364923 27.17754048202187 4475.076409677975 40.76642204634845 440.0576563058421 529.963375236839 36.67045112606138 1390.5877168979496 1246.7144348314032 1965.8472155844793 2969.454598095268 2808.3529742797837 5264.530133241788 2450.514578692615 2478.5722841424868 -575.2594986790791 2563.3611296322197 933.0980055844411 2440.6546680545434 3360.9644112447277 5403.8235771162435 597.9074490824714 451.19651868287474 154.00639669410884 414.5941279279068 -665.8514116117731 999.8292955029756 -1109.752352675423 908.2904925867915 -1173.1668364498764 201.153402001597 -1182.226127919741 -347.44931561127305 -1100.6931725228205 -761.9945789771155 548.0818468835205 -219.46577757783234 1032.7490986688063 -591.3633862081915 702.0883548902348 -109.74159423355013 -1336.2325246129185 -4128.420636145398 -1068.9860419547185 -2183.8471622876823 -1050.8675703182817 -951.7771741421893 -824.3875096961856 1085.9946167645976 -1041.80839015916 7098.621113830246 -1105.2227625958622 -609.6394735062495 -869.6835218220949 -201.18969027977437 -833.4466898636892 201.18969027977437 -2726.8202415127307 1804.4197880877182 6667.573630196974 6824.445599833503 3478.7340872902423 304.5488779442385 2083.6167803118005 377.62722711171955 4357.476789271459 -426.3544242074713 2319.156132409349 2210.7449684971943 1707.6598017578945 5107.724571671337 638.6738711288199 5695.025850081816 -860.6243416639045 3977.203475165181 -163.06571856327355 3817.532061674632 -3581.1063549369574 4410.184478787705 -7486.344848945737 3562.278688139282 1203.8065244080499 2441.4407626735047 -989.2808412723243 944.5766116185114 -1046.3380915550515 -121.40981220640242 -910.4498325455934 1007.6550427675247 -362.3682083087042 1820.794339986518 -760.9730259282514 0 -3510.441329177469 -2640.2646953919902 -2296.5080706821755 -1244.5150732519105 -1032.749209993519 279.2711200043559 -398.60492895077914 4831.315332629718 154.00650801230222 1814.1489196214825 1005.5715581923723 2056.4292681310326 -2944.2411219747737 -345.74046949483454 -1087.1044022776186 1546.636865530163 -779.0914975721389 2492.2898622378707 -2029.261476708576 2503.765817445703 -1304.5252827340737 -2121.793293843977 -1313.5845742104575 236.45160395279527 -878.7427019886672 1170.0467244219035 0 715.2949654692784 81.53284408617765 545.5281013781205 -1793.7222359273583 1127.3267139280215 z" vector-effect="non-scaling-stroke" fill="#000" fill-opacity="1" stroke="#FFF" stroke-width="0.3px" stroke-linejoin="round" stroke-linecap="round"><title>Plymouth County</title></path>
<path id="25025" d="M -7909104.59812981 -5214975.179847857 l 1254.6996805276722 367.78840364702046 1082.5748121999204 514.879851417616 856.0947515843436 845.8131390688941 606.9666292406619 1360.4976232275367 -1703.1303230030462 165.45245747454464 -1386.058015493676 913.0012116329744 -498.2562446799129 1543.9358522417024 928.5683041857556 2045.940068392083 1250.170090449974 1120.7918068133295 -1453.6840495606884 2744.6733135692775 -3017.2149443682283 1632.0283595193177 -3279.804598769173 780.5641310531646 -1454.581952569075 2795.4150958117098 -3639.2557911416516 1703.9724443741143 -3654.0848831413314 -6017.846403076313 -1756.262893321924 -961.0286597376689 2950.076934958808 -3160.2995679918677 1391.4930783156306 1369.5926140416414 3951.9521294580773 -4380.381999157369 1090.9307871367782 -3930.5203930521384 -1747.8267683451995 -286.1935965567827 -3829.3892587749287 3253.059020956978 -1981.5974763780832 -3117.3420770177618 5077.395966242999 -3112.1184042757377 2311.4645121851936 3098.389526163228 3212.9817348401994 -1037.6344769969583 1614.6194166336209 -1701.7527289213613 188.5745278969407 -609.3921489026397 -1208.5229983218014 -2644.7614743998274 2664.174307513982 -332.09202431328595 1078.6062723482028 -1345.9508043155074 2282.1604354744777 -5503.850181307644 -578.861240806058 -995.586416926235 2649.2299886979163 993.5522029334679 4280.608576949686 0.14239755179733 -1150.5187747199088 1988.3845655703917 -108.71038457006216 1306.9508932307363 910.4498325437307 2423.2103233374655 348.77932674624026 3317.871039405465 303.48331462033093 1404.0717537812889 869.6835218220949 1446.7732617333531 -1644.2453179955482 -196.15962811838835 -1820.8998877303675 -2391.022887933068 -1508.3573929518461 -594.7840986857191 -1118.811644158326 447.6245747897774 154.00650801230222 1023.938049795106 910.4499438619241 1072.8701472878456 1164.1076562842354 637.5338428644463 -2092.6760717881843 349.3993680262938 -1857.1366083733737 -1434.4584687240422 -1576.3013554727659 -876.7205909658223 z" vector-effect="non-scaling-stroke" fill="#000" fill-opacity="1" stroke="#FFF" stroke-width="0.3px" stroke-linejoin="round" stroke-linecap="round"><title>Suffolk County</title></path>
<path id="25027" d="M -7959118.71220631 -5163306.654319769 l -3499.106904462911 69.89493614900857 -10072.022203233093 208.50218441616744 -10069.304560923018 212.15554595645517 -10069.30446080491 201.17756226472557 -86.96835826709867 -1613.197896104306 -12713.686060519889 -91.45936363656074 -16447.889580636285 -332.9194709174335 -4305.39880385343 -85.2597000496462 -3733.094609826803 -73.92699264269322 106.36965813767165 -20424.309353995137 -7180.5499851014465 1223.2661284403875 -145.60589395742863 -1126.7029843507335 -7042.513705193065 -3423.72567983903 293.8833443755284 -3098.84923076164 4468.919844698161 -6117.425538890064 551.3653265815228 -1645.4057586602867 535.6696123359725 -8265.334417564794 -7047.9685828844085 1371.5588039709255 -1068.6665550209582 -7542.720951277763 -3379.6588499303907 1284.9482323750854 472.99662770237774 -3164.41103522107 -492.47709331009537 -4551.967774259858 896.6783870216459 -3739.9910328136757 2594.9678706461564 -3265.2395164221525 -892.3364816009998 -5778.996035454795 5173.238040311262 -5141.885790653527 -2701.5004007006064 -2998.3734957827255 -861.1672468185425 -6394.6072811335325 1694.3936354098842 -6.349009439349174 -602.6835005162284 -3769.585996071808 1384.3689648676664 -1654.9146432010457 2997.721565693617 -649.9760964307934 328.50381733104587 -3487.3725882340223 -521.7542307097465 -3615.824698187411 -4719.05418391712 -1731.0629865322262 -1223.5958738923073 -7641.994991952553 3437.834422319196 112.72521592956036 7897.813346715644 262.6603947887197 7897.813546931371 262.6531927054748 7897.813446820714 255.24726185854524 7900.531289359555 266.3376460811123 4396.335638293996 148.2542574815452 3501.477808526717 118.07598034106195 19.068514194339514 1745.0546664204448 4371.403302847408 4367.57457865309 -66.68048629723489 6251.073919719085 1525.0765785835683 -620.3959413263947 7725.7926283674315 181.58377072494477 267.1666665878147 -1013.8863812740892 12056.230581240728 4795.931004334241 -1558.4727597823367 12289.064180287533 4344.353111864068 52.981885706074536 1164.992312273942 -2688.7555687529966 3827.685180010274 671.1800180431455 1604.336056032218 -1077.3465113854036 4614.636501555331 1136.1215330827981 833.2259433055297 3417.057985409163 -3062.6042422223836 6983.259476820007 1858.572852442041 1868.3869708646089 -1874.9539607884362 7492.030099829659 -4996.128507820889 2146.9450406320393 2639.718083301559 1591.5398977790028 -3083.214934622869 2514.8071358110756 -238.66909957956523 1928.4499977109954 -1734.8023879267275 1236.4120952673256 4484.949183460325 5767.638572540134 3796.3275926485658 -2335.0614090003073 7209.270302403718 -465.4247013516724 30.83561026584357 2918.955978723243 -2196.889705521986 6909.74003532622 -6845.111965368502 -231.50306357629597 -2220.633151041344 996.5171919036657 -1720.5538270622492 6288.50281694252 2187.31589536462 3392.794771272689 8468.404617484659 931.9950373880565 1113.4171016402543 3340.936741333455 2141.229848808609 1480.2960454979911 -9.351059864275157 3727.276240909472 -2548.6590737914667 2084.4513069838285 304.5032237926498 3703.9967704052106 z" vector-effect="non-scaling-stroke" fill="#000" fill-opacity="1" stroke="#FFF" stroke-width="0.3px" stroke-linejoin="round" stroke-linecap="round"><title>Worcester County</title></path>
</svg>
