<svg xmlns="http://www.w3.org/2000/svg" xmlns:xlink="http://www.w3.org/1999/xlink" height="1080" width="1920" viewBox="-10203248.702546539 -4163891.652948754 397320.3523893785 636984.4416713538">
<path id="28001" d="M -10173484.191839114 -3731920.4016239364 l 1501.0822780076414 -2755.654578862712 7736.949206179008 8930.119178015273 1698.9539496656507 2898.191896887962 -161.21700539067388 2728.7892406014726 2888.5248262751848 919.6197842089459 -243.63383755087852 2067.0088655883446 2351.4158529210836 578.7796991001815 1694.4342670235783 1818.8562757624313 8819.173000890762 -168.1318579041399 -2.560348285362124 2669.4452291424386 -326.2786520309746 31513.551985173952 -150.83791002258658 2864.150815397501 -2408.4153283890337 -49.11643057875335 -3226.6871679034084 -1009.2025047293864 -447.1223044972867 -1496.569825915154 -2572.629611067474 -600.2147112851962 -2970.678721798584 1461.0336463935673 -1472.8711883109063 -1150.0036568008363 -1619.650167066604 1768.2750223507173 -1547.2515324745327 -995.9572324575856 -3808.7508478164673 2801.0042064581066 -4349.544162360951 533.7312805335969 -1124.3266343735158 1364.3685883027501 -2777.977113507688 354.1973149618134 -1287.7436468601227 1102.66417768877 -4927.333285145462 -549.365216113627 -376.48251786641777 4411.16645260714 -2340.269098347053 96.3925903136842 -489.47168970294297 1131.3853164380416 2174.736904222518 2559.365145341959 -5.00948840379715 1522.8376925569028 -2047.1649904120713 2596.006266477052 -2684.5800607334822 1266.9492812817916 -2299.080552795902 -3004.286230483558 -2185.3124784864485 356.9909740155563 -1792.5773149691522 1578.3436353551224 -1883.4524490311742 4117.33263762854 -1915.38290085271 1088.3882269538008 478.32587034627795 -1401.0305043021217 203.8320834338665 -1467.9173611132428 -570.7297134660184 -673.6483201012015 -1540.9705667290837 -950.1611289107241 -1736.6493227723986 -2243.815320970025 -1155.0483392756432 -2625.720054803416 184.80768623016775 -2101.615926327184 1665.9875191729516 -877.6343245930038 2617.2038751244545 -225.7783752437681 5250.714204797521 216.23859219858423 2364.4521277174354 -543.783628593199 1361.598265234381 -1427.9440187555738 725.64223302342 -2022.940085445065 1521.9461695291102 -8426.142534680665 1043.6201990768313 -1187.3807482700795 239.16293517500162 -1155.6577689829282 168.50113156624138 -2560.0275693479925 -195.67865592613816 -767.4757714970037 -1407.8002869095653 -2745.4733425742015 -1127.8708149138838 -1500.397209151648 -478.3259704578668 -971.692997533828 -505.50349482148886 -5675.594096174929 2571.0019535645843 -3838.337175640743 7813.562730869278 -5641.742511939257 125.01705255173147 -899.6034014886245 557.1410013400018 -1403.7693553203717 78.81513099186122 -3127.158999072388 2114.4181227292866 -11302.76802281104 165.78328902833164 -2581.315843476448 464.7371582239866 -2287.8629836896434 z" vector-effect="non-scaling-stroke" fill="#000" fill-opacity="1" stroke="#FFF" stroke-width="0.3px" stroke-linejoin="round" stroke-linecap="round"><title>Adams County</title></path>
<path id="28003" d="M -9887719.653102307 -4163674.746113424 l 4040.219375504181 5.558340646326542 4694.949989955872 6.459084233734757 14472.077422801405 23.22402025386691 14466.641737729311 13.270707274787128 11573.461124770343 13.265974154695868 2898.6161979157478 3.322509874589741 -1195.682379283011 13021.586682894267 -74.25099091231823 19868.259681480005 -26656.446487458423 -68.56094504147768 -12598.46848881431 -88.34286406449974 -3846.8666414693 -24.253537914715707 12.134381096810102 -13803.916873797774 -7849.914194565266 19.806266514584422 z" vector-effect="non-scaling-stroke" fill="#000" fill-opacity="1" stroke="#FFF" stroke-width="0.3px" stroke-linejoin="round" stroke-linecap="round"><title>Alcorn County</title></path>
<path id="28005" d="M -10110690.519311646 -3632768.6980262045 l -5725.719098532572 0 -17994.295632213354 0 -2366.005847448483 -0.445920351427048 87.69903912581503 -36601.51037884969 -2277.596113713458 -933.9652338614687 -864.8405673764646 -3659.0410688919947 -863.1711089741439 -539.7305087419227 981.3922968767583 -742.3968122852966 6940.991108832881 -1543.9690615725704 2476.74690538086 192.11105587892234 2159.931189302355 -1515.853845720645 29777.176647083834 -130.3475802433677 9099.475256079808 63.480276711750776 9479.965164287016 -50.57490621833131 -23.93435844220221 16250.83151783375 535.54110975191 29211.412466312293 -2626.232911616564 0 -15949.66350387223 0 z" vector-effect="non-scaling-stroke" fill="#000" fill-opacity="1" stroke="#FFF" stroke-width="0.3px" stroke-linejoin="round" stroke-linecap="round"><title>Amite County</title></path>
<path id="28007" d="M -9957951.743710736 -3933318.9587455094 l 15295.404901709408 42.88020234927535 -161.1915132254362 23513.190785571467 -145.60678451694548 23528.00829636678 -45238.2450999096 230.1935627614148 -509.9390025995672 321.67781105823815 12.249708089977503 5664.334884757176 -12290.670208096504 -84.44221101375297 98.40631854906678 756.5034578074701 -15478.301808156073 -581.4733716030605 3804.0831161104143 -3557.352493455168 1925.0807123705745 -2244.7382346214727 1598.9493916835636 -2461.071921348572 3271.992065316066 -6322.957817292307 2571.1567430924624 -5754.2664855262265 3605.6002880577 -10182.25228695618 3614.622137574479 -8666.724288625177 2855.7811666168272 -5479.723360655829 2020.700145592913 -3883.64837418776 2524.8878266327083 -4678.280684506521 9310.480142554268 -102.99630999797955 z" vector-effect="non-scaling-stroke" fill="#000" fill-opacity="1" stroke="#FFF" stroke-width="0.3px" stroke-linejoin="round" stroke-linecap="round"><title>Attala County</title></path>
<path id="28009" d="M -9946693.565303175 -4163750.30688676 l 9828.92550284788 11.270675847772509 7357.716941101477 8.433741122018546 7114.3603815846145 8.154788967221975 13052.391411744058 17.957033439539373 -47.66888941824436 19006.670121693984 -1943.4152249936014 -5.291097671724856 -36.847196727991104 5900.0186773943715 -5869.318259645253 -6.373030172660947 -47.089591758325696 29392.67125936225 -17490.84745385684 87.36074803210795 -3.785196643322706 1942.74286503857 -5865.310869297013 41.64461359381676 -99.4065241664648 -35411.89034607494 -5953.141947528347 -2.306127595715225 z" vector-effect="non-scaling-stroke" fill="#000" fill-opacity="1" stroke="#FFF" stroke-width="0.3px" stroke-linejoin="round" stroke-linecap="round"><title>Benton County</title></path>
<path id="28011" d="M -10156280.356902048 -3970787.7721562097 l 1755.6736198589206 -991.5914312480018 2647.0991419088095 -22.833543826825917 2470.444783065468 -411.0144032826647 1916.0215241611004 -1334.2665363526903 978.3940805345774 -2799.5255125444382 -445.7129612453282 -3335.5208818889223 -1777.415559258312 -1775.8572007105686 -4614.7582726906985 -2272.452129959129 -2179.644341373816 -2282.699032262899 307.106996351853 -1224.8107149680145 1709.4716982971877 -947.276282733772 2030.1674067787826 -1483.1342468718067 4364.724267711863 -5891.959188481327 989.2649501264095 -961.0388547643088 747.3843726385385 -487.0878479927778 2348.145472947508 -2354.0042031947523 1084.3866357840598 -817.4755358952098 1277.3476493954659 -274.6849231570959 2997.6904175076634 -130.80458211991936 1111.5641601402313 -506.8820738387294 1432.2600688450038 -2829.1404363224283 -684.8756962046027 -2538.6439214893617 -1266.476579580456 -2149.781673264224 -701.1824510898441 -4582.3122783503495 2114.4181227292866 -3022.057086389046 1630.6566674243659 -3255.4166696607135 -1831.771008424461 -3675.739836328663 -1532.8172393422574 -887.9897663826123 -1473.0265055522323 -599.6779442271218 -1114.2819025665522 -907.7692402573302 -440.27727617509663 -1855.0884873578325 934.9097011815757 -960.4381733322516 5976.356437822804 -1291.6383854025044 1433.484439484775 -748.0422452064231 4773.881706232205 -2491.5319394520484 2530.2355168648064 -423.0487976586446 2614.486132701859 26.236223719082773 2198.668638456613 -259.08358928980306 1807.311126375571 -1059.3522534584627 1429.5423264224082 -2381.4423923147842 -255.46958994679153 -5181.1934859175235 -8069.032521044835 -3945.7208295534365 19299.848996922374 1090.1677502323873 13592.32879129611 267.18321451731026 -100.29986308328807 17619.93412280269 373.4770029298961 -0.134524456225336 -235.21953119710088 35378.174818240106 57.328424563631415 14364.683847185224 -11673.960340412334 14.436323737725616 -4.453113589435816 11593.773718596902 -13459.858931211755 -140.7529271445237 -32993.91624272242 1292.7230728748254 -2079.0871708747 -762.8498881552368 -1812.7466112226248 -997.6487910505384 -1687.729458566755 -2197.7398976921104 z" vector-effect="non-scaling-stroke" fill="#000" fill-opacity="1" stroke="#FFF" stroke-width="0.3px" stroke-linejoin="round" stroke-linecap="round"><title>Bolivar County</title></path>
<path id="28013" d="M -9922925.070830688 -4038757.492257713 l 177.33094695955515 24113.330339161213 -34.62091823667288 11039.639810183086 -5806.868470583111 58.14702981337905 -193.80756743066013 9790.776211841963 -15.918575862422585 2201.0649433066137 -6479.906000606716 70.80026941699907 -28607.87660446763 -25.430688755121082 -25.602481009438634 -19510.199733471964 -53.20949208177626 -27305.393452460412 -213.39912989735603 -12260.890295937192 29417.614914460108 120.54209166765213 116.77336660400033 11730.99701487692 z" vector-effect="non-scaling-stroke" fill="#000" fill-opacity="1" stroke="#FFF" stroke-width="0.3px" stroke-linejoin="round" stroke-linecap="round"><title>Calhoun County</title></path>
<path id="28015" d="M -9979266.30346329 -3933262.0975846276 l -9310.480142554268 102.99630999797955 -2524.8878266327083 4678.280684506521 -2020.700145592913 3883.64837418776 -11725.478148818016 -3785.556528992951 -33343.628378044814 -11254.836987310555 -15.806922417134047 -11147.462382152211 4112.029557220638 61.08225730713457 35.844876032322645 -5678.667408404872 4017.964921457693 23.08396007772535 -65.23233104683459 -19343.88393702684 -795.6561717670411 -3541.4319028793834 786.9193728491664 -2897.143437786028 -2944.1226780302823 -3343.533825344406 14170.52178119868 102.73476682882756 23858.7660467159 -72.90258974675089 128.68488607928157 7917.178605920635 56.43775732256472 26870.44315226702 7723.344044841826 -65.34927077079192 32.50529131107032 1960.3254935359582 7632.0620624013245 -63.07171688741073 z" vector-effect="non-scaling-stroke" fill="#000" fill-opacity="1" stroke="#FFF" stroke-width="0.3px" stroke-linejoin="round" stroke-linecap="round"><title>Carroll County</title></path>
<path id="28017" d="M -9887900.072529746 -4038869.306112792 l 11750.770789064467 57.386738162022084 -139.59553200937808 18294.28001041524 20.704646050930023 17063.309838993475 -23504.43588488549 -181.0070820930414 -47.645076014101505 7776.527523157187 -11484.940067691728 21.154125629458576 30.835387632250786 1971.2159959296696 -17508.6585723795 110.84009588463232 193.80756743066013 -9790.776211841963 5806.868470583111 -58.14702981337905 34.62091823667288 -11039.639810183086 -177.33094695955515 -24113.330339161213 z" vector-effect="non-scaling-stroke" fill="#000" fill-opacity="1" stroke="#FFF" stroke-width="0.3px" stroke-linejoin="round" stroke-linecap="round"><title>Chickasaw County</title></path>
<path id="28019" d="M -9942817.530322252 -3909762.8877575886 l 161.1915132254362 -23513.190785571467 -15295.404901709408 -42.88020234927535 -16.36285194940865 -19631.8833054821 1093.8371164016426 -539.0145105603151 3412.830277070403 452.86784290056676 354.7899113278836 -1927.5122115910053 -3744.8042081445456 -1332.9087259732187 6495.4488036111 -3046.242877458688 3397.2012571189553 -2856.9213175051846 3234.135596778244 -1336.3691363818944 5209.041927581653 -2423.2424225099385 3890.9278398212045 -858.5800730213523 17341.51663343422 526.2292233398184 24.599937673658133 32965.4562187409 -2296.631523994729 8.788992355577648 -1.559029469266534 11696.519717541523 -11635.332699749619 68.64440455008298 -55.548871183767915 11719.670783200767 z" vector-effect="non-scaling-stroke" fill="#000" fill-opacity="1" stroke="#FFF" stroke-width="0.3px" stroke-linejoin="round" stroke-linecap="round"><title>Choctaw County</title></path>
<path id="28021" d="M -10160870.65529269 -3746984.5400063517 l 2133.442519923672 -803.32429986028 2147.031131941825 -1667.6284385267645 5106.672855164856 -5984.234095281456 731.0777178704739 -1098.5529218893498 1087.1044783182442 -2706.774489132222 872.4012249689549 -1159.7745417016558 1087.1043782010674 -708.0941440491006 3476.0163879729807 -1086.2525039971806 3978.802140366286 -2964.462076094467 2478.59801033698 -4475.317665121984 27.177624471485615 -4797.749571943656 -3375.459117354825 -3901.187826876994 -43.4841791279614 -885.6435634419322 57.072891250252724 -1299.7039530538023 12357.260152136907 1121.298887136858 3813.924611326307 994.7548818360083 1304.5252827331424 1080.2317773117684 1974.9063308052719 -181.81438369024545 724.7362681869417 -855.6340874945745 -507.315387731418 -2353.3084619133733 570.7298111952841 -1877.6295366198756 2409.748091718182 144.44348206324503 1612.538196709007 1123.38989961287 1585.3605866581202 -1636.9746327488683 1540.0645698942244 -3595.709577723872 751.9138782415539 -792.0572752254084 2563.7545487061143 717.1351815718226 2310.0968548413366 412.0657154354267 1435.8837313447148 -733.1657113069668 1093.9971566796303 -1097.1938616381958 3207.3956114649773 -929.9540788736194 1407.6643494293094 -1357.6374162076972 1086.5562651064247 -2555.633222930599 481.23349078185856 12031.241818834096 668.1390271466225 11206.903989051934 433.25479024648666 9284.806633603293 -154.5115645416081 1793.0411314698867 -110.42938014119864 15654.422178190202 -1805.0452092569321 1914.0060295416042 -365.3505687844008 5742.952812916134 -12982.29820438847 94.02909980528057 1379.7711359392852 -2410.90048492793 -240.7501061372459 -2998.1676394003443 -19034.7368037533 -4604.998594144359 -15552.330731738359 -765.333237442188 z" vector-effect="non-scaling-stroke" fill="#000" fill-opacity="1" stroke="#FFF" stroke-width="0.3px" stroke-linejoin="round" stroke-linecap="round"><title>Claiborne County</title></path>
<path id="28023" d="M -9845238.967119414 -3793404.2227436174 l -966.6010812129825 8640.721315596718 -1163.2017667666078 10403.78110923618 -989.265050245449 8817.86116816476 -799.0216789375991 7110.502901702654 -587.036368234083 5246.071365189739 -361.4622452966869 3249.625917279627 -127.73479497618973 1120.3578281360678 -15165.904328376055 4236.5178302456625 -15698.047945186496 2785.9207244394347 -16369.192264620215 1216.5664081689902 -338.1871658731252 -35307.488479433116 -38.96126518584788 -16890.066958123818 17028.872012343258 -78.82084261020645 z" vector-effect="non-scaling-stroke" fill="#000" fill-opacity="1" stroke="#FFF" stroke-width="0.3px" stroke-linejoin="round" stroke-linecap="round"><title>Clarke County</title></path>
<path id="28025" d="M -9911274.3782676 -3993866.438962598 l -30.835387632250786 -1971.2159959296696 11484.940067691728 -21.154125629458576 47.645076014101505 -7776.527523157187 23504.43588488549 181.0070820930414 45.19493402726948 17506.96699839644 24443.972053220496 41.337591951247305 -203.0898202136159 2800.1755056614056 643.2034380156547 2122.159964174498 -389.545744150877 1496.1597018362954 869.6835218220949 1376.2952661830932 1195.8148425053805 1435.958892728202 597.9074212536216 1669.6211187033914 -3629.1954243872315 7239.63791809231 -2093.6444400437176 323.3516265838407 -2811.135627593845 2534.67893457599 -1498.1298034098 -465.0680206590332 -4847.7505359034985 2612.4074778375216 -6892.900754848495 77.83318653609604 -30.723845498636365 -7875.036272391211 -4884.153122590855 782.4933768496849 -1915.350802121684 -823.6409927601926 -15466.455759594217 89.72229708731174 -1221.7307435385883 -385.25183552643284 -4421.512547113001 665.2072832896374 -6940.021961346269 -196.67347616655752 -3788.312366673723 271.7263733088039 8.126768104732037 -9790.883020672947 -1750.8323945943266 -4.94706161506474 z" vector-effect="non-scaling-stroke" fill="#000" fill-opacity="1" stroke="#FFF" stroke-width="0.3px" stroke-linejoin="round" stroke-linecap="round"><title>Clay County</title></path>
<path id="28027" d="M -10125056.000744794 -4046111.5644902 l -105.99255524016917 -3805.8648382057436 1508.3572571910918 -1409.0516660935245 5500.748309895396 -3429.751420853194 1769.2624320928007 -673.588240926154 1418.6711564976722 -1104.1140028517693 4307.6512763388455 -9876.085654117167 491.91478269547224 -812.4313430986367 733.7953601814806 -236.83317207498476 1478.4619903955609 -6.578843993600458 1807.3111263774335 809.15992304869 1095.257705597207 230.23802474001423 481.0436127707362 -582.1826602853835 347.8734330609441 -1365.121883938089 1554.559378966689 -2520.1514106430113 377.7687999624759 -1089.1687021413818 -171.21897410787642 -1675.0891753090546 -1002.8538624774665 -2537.788892356213 -347.8733329512179 -1909.477445720695 19.024297090247273 -1221.5762288696133 505.50349481776357 -707.9820673335344 1377.9048198964447 1063.6028174376115 907.7321768291295 503.7768604736775 1258.3233523089439 108.65480450401083 4650.089124439284 -549.8699760623276 2549.2598139457405 -961.5135906892829 4073.9237259067595 -2242.7522141793743 3595.5977554395795 -3906.943808621727 880.5545523576438 -3957.736329354346 -48.91966398432851 -4677.917859372217 571.9739914536476 -5626.101402550936 20244.858960816637 14430.751157344785 53.87752034328878 21879.301840004046 -5739.40885916166 -117.8562048478052 -45.53100757114589 25491.228566309437 -3.451460812240839 11718.647354686167 -22930.69556329772 -254.6817509625107 -373.4770029298961 0.134524456225336 100.29986308328807 -17619.93412280269 -13592.32879129611 -267.18321451731026 z" vector-effect="non-scaling-stroke" fill="#000" fill-opacity="1" stroke="#FFF" stroke-width="0.3px" stroke-linejoin="round" stroke-linecap="round"><title>Coahoma County</title></path>
<path id="28029" d="M -10044449.42028126 -3769821.4932269314 l -330.66092235967517 1758.080518592149 520.9041927587241 2292.0654463893734 3954.3422632850707 7818.588516877033 2214.975219640881 2514.327913109213 1506.9826732818037 2850.9468062315136 789.5253765303642 2080.0974678234197 1413.2357229627669 3707.6292043933645 -176.6544653698802 2090.707628391683 -448.4305659402162 2186.322560847737 -135.88805028423667 5037.701818287373 4144.585533685982 1412.3123923894018 81.53283016942441 554.2209779592231 -1182.2260374780744 3846.8734906357713 -25.262198068201542 699.5890977554955 -1248.2279922254384 -356.4658643454313 -5881.118459627032 3217.0225088912994 -5136.057441703975 1065.8692430509254 -1660.2183290980756 758.2492870856076 -1537.5445841941983 1780.665867147036 -2370.325249547139 529.909485783428 -11107.010619079694 -28.523471255786717 73.80471107549965 1947.9106135168113 -3801.002677306533 -19.884539801161736 -72.91426646895707 -1981.4089133981615 -3680.1102668978274 161.06276631634682 -19361.348412374035 154.77982294838876 -12871.869158204645 -54.036132662091404 60.33572060801089 -11472.379211149178 365.3505687844008 -5742.952812916134 1805.0452092569321 -1914.0060295416042 110.42938014119864 -15654.422178190202 154.5115645416081 -1793.0411314698867 -433.25479024648666 -9284.806633603293 7029.7126316688955 -210.9257260253653 22764.05050821975 46.100166785065085 z" vector-effect="non-scaling-stroke" fill="#000" fill-opacity="1" stroke="#FFF" stroke-width="0.3px" stroke-linejoin="round" stroke-linecap="round"><title>Copiah County</title></path>
<path id="28031" d="M -9952098.463695407 -3736674.4134760266 l 228.0918555241078 47429.87849080982 -5837.370011067018 -0.000130464788526 -15050.72488358058 44.488248623907566 -11.131615122780204 -10409.887009994127 -1172.639182055369 -433.26321897795424 -634.8547220379114 -2888.8151213750243 -3761.7071196902543 -2614.367030433845 -3938.4826937112957 -731.0883450759575 -4975.868249170482 -3191.9058646312915 -2012.5442948192358 -2799.5512796933763 -2282.9396719112992 76.98949591629207 56.88526167161763 -21573.979548675008 11353.694388041273 -784.9074962409213 z" vector-effect="non-scaling-stroke" fill="#000" fill-opacity="1" stroke="#FFF" stroke-width="0.3px" stroke-linejoin="round" stroke-linecap="round"><title>Covington County</title></path>
<path id="28033" d="M -10057131.887420889 -4145971.239561809 l 4379.200498400256 -2831.444182999432 3742.3569476157427 -4626.30415324308 130.45253739319742 -5732.52131778514 -3408.072326786816 -4129.642434983514 -331.56687840260565 -600.5012979339808 14472.077422801405 19.90662855328992 14466.641737729311 13.271106644067913 14469.359680376947 16.588830477558076 14474.79506511055 23.224272205028683 6671.803518142551 9.18237134302035 76.10907661542296 30854.093386104796 -21851.242299120873 -62.746456265915185 -433.60319362953305 1462.3558024973609 -5652.94289184548 4762.753171062563 -5000.680250478908 529.0697239930741 -6087.78465275839 -3439.400240564253 -2826.471445923671 -3440.457683372777 -3043.892326377332 -1588.2605655132793 -6169.317482927814 1439.370720419567 -2183.2680079080164 2960.881360270083 -53.00408679060638 -2739.0317539162934 36.84753068909049 -11850.955272914376 z" vector-effect="non-scaling-stroke" fill="#000" fill-opacity="1" stroke="#FFF" stroke-width="0.3px" stroke-linejoin="round" stroke-linecap="round"><title>DeSoto County</title></path>
<path id="28035" d="M -9957707.74185095 -3689244.5351156816 l 5837.370011067018 0.000130464788526 28173.39674322307 -2.999688547104597 79.25803028978407 32995.313610725105 -88.61109390854836 23445.762184699066 893.0046211853623 34.02579809026793 20.816299505531788 11722.686855940614 -22584.269307954237 -4.671785358339548 16.14177144318819 -11828.145748648793 -918.3855764046311 -1212.6593699473888 -6.344431737437844 -18032.739784842823 127.1277490388602 -25728.35569257289 -11489.058777522296 41.31900773290545 z" vector-effect="non-scaling-stroke" fill="#000" fill-opacity="1" stroke="#FFF" stroke-width="0.3px" stroke-linejoin="round" stroke-linecap="round"><title>Forrest County</title></path>
<path id="28037" d="M -10147678.186211431 -3677855.6750908247 l 150.83791002258658 -2864.150815397501 326.2786520309746 -31513.551985173952 31031.746863041073 -41.04241686919704 15336.593335941434 -96.9886166183278 11588.24444382079 -37.25346629973501 -14.250230647623539 34228.29528705124 -9099.475256079808 -63.480276711750776 -29777.176647083834 130.3475802433677 -2159.931189302355 1515.853845720645 -2476.74690538086 -192.11105587892234 -6940.991108832881 1543.9690615725704 -981.3922968767583 742.3968122852966 -2121.029814010486 104.40629229601473 z" vector-effect="non-scaling-stroke" fill="#000" fill-opacity="1" stroke="#FFF" stroke-width="0.3px" stroke-linejoin="round" stroke-linecap="round"><title>Franklin County</title></path>
<path id="28039" d="M -9844682.898797432 -3632518.4116987465 l 295.5126928836107 6133.729092458263 578.8831409625709 12175.673360530287 587.0362681224942 12166.926488945726 174.62028923630714 3649.740378926974 -10183.800643881783 12.389376090839505 -35733.435429034755 98.16688163205981 -5616.400710517541 -175.4865672639571 -56.10424412600696 -22710.672180044465 5628.645743191242 60.332838867791 15.139896025881171 -11378.851160035469 9384.898430466652 66.49161717202514 13938.087018383667 -170.64377364050597 13904.579851649702 123.50351590104401 z" vector-effect="non-scaling-stroke" fill="#000" fill-opacity="1" stroke="#FFF" stroke-width="0.3px" stroke-linejoin="round" stroke-linecap="round"><title>George County</title></path>
<path id="28041" d="M -9847410.167575518 -3689465.190252613 l 95.75285706482828 2015.1553874141537 584.3186258114874 12242.43707425287 587.036368234083 12223.875036600512 584.3186258133501 12208.564460516907 151.9418861363083 3174.2955235238187 432.3767396733165 9028.540839250665 291.523675352335 6053.910232307389 -7082.337696637958 51.299869540613145 -13904.579851649702 -123.50351590104401 -13938.087018383667 170.64377364050597 -9384.898430466652 -66.49161717202514 -733.5952216926962 -55.453026173170656 -8.34795992821455 -25438.630228911992 -78.2563775125891 -31221.45441472344 10204.432410368696 21.65788381267339 23288.587614875287 -140.38083127699792 z" vector-effect="non-scaling-stroke" fill="#000" fill-opacity="1" stroke="#FFF" stroke-width="0.3px" stroke-linejoin="round" stroke-linecap="round"><title>Greene County</title></path>
<path id="28043" d="M -9995030.24965272 -3985475.6902313656 l -23858.7660467159 72.90258974675089 -14170.52178119868 -102.73476682882756 -945.9931440837681 0.802747464273125 24.93612253665924 -5981.561476020142 32.95101455412805 -11739.75940413028 2022.2294244710356 -143.0866528726183 15579.937742810696 97.40183508303016 18.25650781393051 -1925.7997256452218 5778.0364998281 24.11999154696241 22.264232121407986 -9934.117478647735 17455.22543943487 109.97402896825224 12.801296167075634 3996.416322668083 29146.551843054593 -18.231856183614582 25.602481009438634 19510.199733471964 27.94074690900743 5916.026146094315 -12526.222361924127 -46.28490513050929 z" vector-effect="non-scaling-stroke" fill="#000" fill-opacity="1" stroke="#FFF" stroke-width="0.3px" stroke-linejoin="round" stroke-linecap="round"><title>Grenada County</title></path>
<path id="28045" d="M -9945835.46216414 -3551023.4307172094 l -1096.163582438603 1296.669497139752 -86.06243417039514 1065.5840519266203 924.0387141052634 367.422016994562 2636.2281059529632 136.46818589791656 548.0818468760699 414.64466057764366 36.23683196678758 2482.3339005545713 -244.59853225760162 1532.190935798455 -1078.045222118497 1185.7463858011179 -10110.070885527879 5811.696676215157 806.2691493816674 1688.458401187323 -475.60818295925856 1363.1871716910973 -1852.6071296092123 2301.356263801921 -344.249736668542 1352.3104133172892 -86.0624341648072 1084.8890955685638 -439.37135099060833 974.7486194237135 -1408.7060772236437 1058.513163913507 -760.9731372520328 -953.7059506205842 584.3186788428575 -733.6686813971028 -308.0130160227418 -324.9240797366947 -969.3347262255847 -786.1408357149921 -960.2755460757762 1278.7643301277421 -1580.8309455513954 602.6516254181042 -1653.3046094756573 -99.56655698595569 -1195.8148981705308 -817.5233383909799 -760.9730259291828 0 -276.3057741448283 387.80615511350334 -723.4310536906123 -930.9790838304907 -1375.1871775891632 -424.5221388358623 -1334.4206407628953 496.84682134957984 -896.8611070178449 1336.3584564928897 -2560.130883751437 -2971.624124751892 -3253.1599073447287 -7874.242650945671 -2133.442419819534 -3751.661900392268 187.52552876621485 -5298.915922854561 -532.6811192911118 -2182.5529236840084 -3196.0870160833 -5005.865692946129 -741.9487876817584 -2045.132350266911 -86.96835826896131 -1093.604605549015 165.7834892589599 -2291.5196399339475 -78.81513098999858 -1100.20377505105 -317.97796605341136 -917.4353988990188 3412.0160788651556 -264.27885958878323 -12.356352159753442 -5663.632436261512 5715.029890686274 32.29999639140442 -15.58472871221602 -1884.0035576377995 5754.436879100278 26.61951384600252 -5.78805691935122 -17004.45066540595 22574.0280261077 83.84788423776627 -33.73058494180441 20805.615066012833 z" vector-effect="non-scaling-stroke" fill="#000" fill-opacity="1" stroke="#FFF" stroke-width="0.3px" stroke-linejoin="round" stroke-linecap="round"><title>Hancock County</title></path>
<path id="28047" d="M -9945297.053446818 -3551431.0080390205 l -538.408717321232 407.5773218111135 358.05068185552955 -15253.125880882144 33.73058494180441 -20805.615066012833 11277.774384006858 9.575499900616705 30.390554940328002 -3819.3681422341615 12781.477731678635 30.80563300009817 26773.665911264718 -48.01879321085289 223.6964879501611 31787.376661764458 -5023.191583063453 -1397.1032055248506 -2699.6425897125155 1271.3797982973047 -1576.3013554755598 446.5285860514268 -1807.3111174907535 47.27857644530013 0 803.7085167695768 13683.9266984649 1833.103966075927 -1861.6663097757846 1664.7946236743592 -3456.086025569588 309.82720682863146 -6844.228199930862 -283.5703160627745 -1526.475753268227 525.1250406196341 -3460.615615647286 1743.2585479919799 -1508.3573929518461 367.5237065209076 -1848.0775395296514 236.25964976288378 -7922.273310728371 2630.0581856309436 -7029.941838504747 1952.5031386232004 -6939.3497029375285 2125.3658084068447 -1476.6501510702074 188.90413485607132 -1947.7287439350039 -456.5230750613846 -262.71689258143306 -1028.5493155010045 942.1571857500821 -1186.0841598422267 1685.0118513591588 -855.5192926442251 -2029.2615880258381 -1107.537462273147 -3582.9149930980057 -2750.8927397155203 -2405.2184552494437 -546.0500735989772 -1132.4004144072533 467.2943861084059 z M -9900842.928791393 -3531540.1693027294 l 1440.4134304225445 -10.483698500785977 -1657.8343108780682 487.48409463791177 -2957.829892212525 408.84312101081014 217.42088045552373 -471.74320351099595 z M -9913888.18161873 -3536730.6744063036 l 54.355303602293134 660.7278927564621 -611.4962193183601 377.54338698321953 -285.36495430395007 356.55834558419883 81.53284408524632 1316.0328776272945 -375.9569785464555 1410.2579690827988 -1829.9590678904206 3868.2291695689783 -539.0225553996861 -104.81448923842981 -339.7201465796679 -136.26018271874636 -308.0129047073424 -241.07925519533455 -407.66410910338163 -482.17213301640004 457.48971130885184 -366.8824052605778 593.3778590001166 -754.7629861491732 543.5521454811096 -550.3763533439487 -837.9762799404562 -969.7689577993006 -756.4434358496219 969.7689577993006 -1005.5716695152223 -1399.6361250393093 -1494.7685113884509 -482.30748689733446 -3578.385291695595 120.57865759730339 0 -880.7743793898262 5816.008580017835 220.19927209755406 2704.1721797902137 -739.2556349760853 1358.8804750181735 -2191.8061400726438 z" vector-effect="non-scaling-stroke" fill="#000" fill-opacity="1" stroke="#FFF" stroke-width="0.3px" stroke-linejoin="round" stroke-linecap="round"><title>Harrison County</title></path>
<path id="28049" d="M -10044449.42028126 -3769821.4932269314 l -24470.80037986301 -1.819043150637299 -22764.05050821975 -46.100166785065085 -7029.7126316688955 210.9257260253653 -668.1390271466225 -11206.903989051934 -481.23349078185856 -12031.241818834096 207.43607873097062 -2201.646172525361 1192.8103851098567 -765.288476228714 -433.0694433003664 -3770.062799630221 585.2654859367758 -2917.00585553376 244.59849051199853 -2615.343417406082 -833.4467084109783 -3843.66589389788 1748.4262469932437 -3201.3203329439275 1037.2787838429213 -300.33548436965793 4352.947210788727 1126.2190271876752 2224.03442299366 -911.6929085450247 325.16247727908194 -484.14296080591157 485.6362227536738 -792.3443470504135 -226.48008380830288 -2564.1148503604345 1173.6541592366993 -4269.183443942107 1388.884938530624 -7526.968378416263 1106.438259921968 -2955.5608265330084 2971.4186995588243 -1643.7922365772538 1719.2138136979192 -720.369913179893 2728.8550322912633 -1100.9600342055783 4964.443437067792 -3745.6195703460835 4110.828911636025 -1793.4341894644313 -42.2544413767755 12364.811930251308 22955.742226090282 50.81038502790034 16.92011732235551 11553.806889684405 19912.61416138895 -320.8377905613743 -1974.9063308052719 1190.9444682779722 -2002.0839408636093 1732.557827460114 -1549.123773245141 2193.4964939160272 -625.0850313100964 2536.2296974137425 -2935.1818861495703 3596.9819340016693 -3872.809433117509 5326.472925865091 -1263.7588676474988 2539.151737366803 -394.07534582167864 2784.9468725873157 1209.4036475326866 2912.788823061157 -425.78255756013095 1338.359993811231 -4534.131277834997 3564.660871022381 -1467.5909430757165 1830.089276877232 -312.54251565411687 3188.610575644765 856.0947167910635 2321.374205023516 1155.0484274234623 1968.0022664363496 579.7890145480633 2031.8376167961396 -326.1313206832856 3282.2953854133375 z" vector-effect="non-scaling-stroke" fill="#000" fill-opacity="1" stroke="#FFF" stroke-width="0.3px" stroke-linejoin="round" stroke-linecap="round"><title>Hinds County</title></path>
<path id="28051" d="M -9993122.37157807 -3924597.1722159353 l -2855.7811666168272 5479.723360655829 -3614.622137574479 8666.724288625177 -3605.6002880577 10182.25228695618 -2571.1567430924624 5754.2664855262265 -3271.992065316066 6322.957817292307 -1598.9493916835636 2461.071921348572 -1925.0807123705745 2244.7382346214727 -3804.0831161104143 3557.352493455168 -16308.413062214851 -6802.44919865625 -23200.166765982285 -9845.219813731499 -1412.087184112519 -1675.2005908903666 -1986.974319094792 1541.2682888051495 1098.635568600148 -1293.2041716366075 606.9666246045381 -1226.3581986129284 244.59849051199853 -1113.0178109616973 -1068.985995573923 -1485.9898056411184 -7125.063436597586 -3118.490671440959 -1925.0807123668492 -1291.9582172171213 -702.0882598049939 -1378.6066746916622 312.5425156559795 -2022.2508128583431 883.2723268512636 -2228.1256320485845 3474.20448561199 -1606.4612212013453 3306.6092235986143 48.68389252200723 2622.639370493591 -357.0199291645549 2089.1820197682828 74.06888342741877 -206.00429916754365 -21859.01314828219 2351.938831890002 -2345.834590860177 2080.8021783046424 123.70880928495899 1351.640811931342 -2664.9268319164403 -1714.5421292819083 -2968.4865230736323 -2989.5952428672463 -621.9124643392861 89.27800898253918 -1135.9494748343714 16304.850044218823 5543.265503235161 33343.628378044814 11254.836987310555 z" vector-effect="non-scaling-stroke" fill="#000" fill-opacity="1" stroke="#FFF" stroke-width="0.3px" stroke-linejoin="round" stroke-linecap="round"><title>Holmes County</title></path>
<path id="28053" d="M -10055665.85060811 -3935567.430159735 l 206.00429916754365 21859.01314828219 -2089.1820197682828 -74.06888342741877 -2622.639370493591 357.0199291645549 -3306.6092235986143 -48.68389252200723 -3474.20448561199 1606.4612212013453 -883.2723268512636 2228.1256320485845 -312.5425156559795 2022.2508128583431 702.0882598049939 1378.6066746916622 1925.0807123668492 1291.9582172171213 7125.063436597586 3118.490671440959 1068.985995573923 1485.9898056411184 -244.59849051199853 1113.0178109616973 -606.9666246045381 1226.3581986129284 -1098.635568600148 1293.2041716366075 -9494.659114437178 210.5380896232091 -63.118707878515124 11344.887626516167 -22868.57951006852 133.94276149896905 -119.00042434222996 -892.4129803627729 -184.56671386025846 -22208.065001451876 -4875.346860304475 29.233036414720118 1795.051724607125 -108.11229193257168 692.2068576496094 -2273.695222731214 -2143.255752224475 -2890.6995175615884 1184.8696318697184 -1604.3320263526402 512.737574595958 -3713.125006806571 -158.70419052243233 -4052.247460170649 -5313.522639969364 -3218.386848227121 0.653334088623524 -3928.4497430650517 1823.401793288067 -1319.8683701972477 17929.78020605631 -66.7035220041871 -37.62554261647165 -7811.19410157809 11389.76201438345 -40.3690020297654 -63.229804730042815 8281.74045987567 4410.36523594521 4186.3054066048935 504.154619211331 -1274.6493720086291 2780.663586784154 28.98112796060741 1923.674494413659 -1993.9413414024748 -1038.7994243204594 -2677.2191517958418 1873.8662580475211 0.2287652711384 372.296905009076 -2269.791054479312 z" vector-effect="non-scaling-stroke" fill="#000" fill-opacity="1" stroke="#FFF" stroke-width="0.3px" stroke-linejoin="round" stroke-linecap="round"><title>Humphreys County</title></path>
<path id="28055" d="M -10141120.685940508 -3837957.09358076 l -834.3527309093624 -1028.7623508456163 -2666.123539103195 -1719.1032901741564 -1127.8708149120212 -941.9035792467184 -1290.9363615214825 -1858.2211352065206 -956.6519409213215 -2181.2010990446433 -592.471953202039 -2523.7256171819754 -203.83208342455328 -2872.9264049893245 1212.121430752799 -1872.6201797043905 2772.1162945739925 -565.0730571481399 3060.1987936124206 -129.1632872102782 2079.087170869112 -552.1892275288701 1777.4157594833523 -2796.8635675013065 -516.3745646327734 -2325.8414886547253 -1994.8366551436484 -1596.0510460329242 -5498.030467361212 -930.5909013827331 -1377.904819894582 -1095.4772302983329 -301.6715115066618 -1981.1657461905852 823.4815609846264 -5243.778623776045 1839.9242356941104 -6371.974519120995 1068.080081127584 -1326.5810195207596 1402.3647019416094 -747.4813206247054 1687.729558678344 -1838.1645895033143 1581.7369033247232 -2359.615275736898 1095.257705597207 -2298.5723956609145 -2152.466716900468 -2707.065320407506 -1402.3647019509226 -1331.0949317072518 -1418.671256609261 -570.0528531228192 -1752.9557773135602 -223.49408144131303 -1875.2550874501467 -621.9193100081757 -1492.0509027466178 -988.0126815419644 -616.9317351300269 -1295.8803548892029 187.52562887780368 -4355.208395318128 22380.37539362535 503.9489741125144 5687.979031775147 378.06356208818033 33.061443492770195 8426.132323054597 -1202.5842364057899 4268.411629145034 -1704.5238203816116 3470.4551227926277 462.30973394215107 1265.8987679588608 -957.2360786944628 2549.4102891329676 -2131.990442397073 2506.858720215969 -123.67706746421754 23207.381977651734 26906.470286425203 88.59494748385623 1336.667895147577 2653.4511645659804 2190.4256053287536 619.9818837610073 -971.5888345967978 1807.2161051407456 -2215.201316483319 639.5227348282933 -772.5243155360222 6720.241851205472 -4587.396733475849 -892.2658676328138 -11030.637240115553 -18.456320854835212 -535.0018677581102 13718.712743902579 -5055.035470593721 574.465581308119 -942.1571486406028 1197.1614451482892 -425.7825575582683 1041.3786917934194 -2392.866386618465 702.0809702239931 -1340.7318357899785 4372.232905818615 -73.24722306802869 -21700.390918179415 z" vector-effect="non-scaling-stroke" fill="#000" fill-opacity="1" stroke="#FFF" stroke-width="0.3px" stroke-linejoin="round" stroke-linecap="round"><title>Issaquena County</title></path>
<path id="28057" d="M -9812372.799510267 -4091188.5844420735 l -1040.2644420154393 9562.928431014065 -1065.6339464392513 9786.917736744042 -526.9740266986191 4836.668467733078 -1706.7538557611406 15626.318083692808 -1213.8624267354608 11086.142158897128 -38673.98057023063 -474.2736948132515 -139.48176349140704 -33512.27920759516 270.5063626281917 -16.177865337580442 16.14221672154963 -17157.518474526703 10746.33524627611 -20.387298711575568 12946.564536521211 251.6745325443335 z" vector-effect="non-scaling-stroke" fill="#000" fill-opacity="1" stroke="#FFF" stroke-width="0.3px" stroke-linejoin="round" stroke-linecap="round"><title>Itawamba County</title></path>
<path id="28059" d="M -9840889.219516056 -3553499.9194693216 l -104.08225635439157 29.777773552574217 -466.54900279827416 672.1052124528214 86.0624341648072 1491.1057015825063 -108.71038456074893 1485.6799158733338 -1096.1636937633157 677.1601194380783 -1463.061269506812 267.70437591150403 -693.0290634073317 692.8556875451468 -462.0194127112627 908.0032460479997 -770.0323174186051 934.1778996307403 -2532.047311462462 1091.5361971431412 -1906.9623218942434 -787.1560597852804 -2065.4983086697757 -1396.010551659856 -2998.5963142532855 -750.5507313767448 -1440.4133191015571 -15.746256823651493 -1372.4693565834314 -220.4503027535975 -1032.7492099925876 -661.3737509041093 -729.2657840494066 -2719.3452666602097 -1476.6501510683447 -1155.1116622728296 -407.66422043181956 -1470.295129949227 -833.4466898627579 0 -2029.2614766992629 3181.922821176704 -5041.446672525257 2036.8494173893705 -5503.466085232794 551.1525921393186 -3383.6124729644507 -488.1625247984193 -11555.013906028122 -8842.68767940253 -4081.3077442701906 -1135.0223790593445 -223.6964879501611 -31787.376661764458 -0.110874209553003 -7548.095220777672 5616.400710517541 175.4865672639571 35733.435429034755 -98.16688163205981 10183.800643881783 -12.389376090839505 406.980594150722 8502.16643978376 581.6008833814412 12136.952113924082 587.0363682415336 12134.676222322509 581.6008833814412 12113.524655986112 z M -9852113.473917533 -3531377.672569623 l 0 -969.7689577993006 8425.05914548412 969.7689577993006 -760.9731372538954 880.5906170578673 -3954.3422702401876 -183.45139257097617 z M -9867699.83323649 -3534496.923502907 l 2432.3961070515215 1153.4259791895747 6848.757678691298 47.18325083702803 2423.3369268998504 864.9974425132386 -951.2163659147918 524.2120178090408 -1091.6339923571795 466.53047071862966 -22272.051420796663 -3538.722133965697 0 -802.2478383509442 2785.7050238773227 -875.7141071273945 3727.86209830828 -83.90398082323372 3632.740595301613 707.9220183724537 z" vector-effect="non-scaling-stroke" fill="#000" fill-opacity="1" stroke="#FFF" stroke-width="0.3px" stroke-linejoin="round" stroke-linecap="round"><title>Jackson County</title></path>
<path id="28061" d="M -9897843.583074326 -3792773.8516130145 l 38.96126518584788 16890.066958123818 338.1871658731252 35307.488479433116 -3661.9651899002492 273.0390673377551 -20442.260222695768 1469.510260176845 -21102.718872897327 1474.7022618544288 -58.55371820367873 -9462.679430534132 -514.4068103544414 -7744.036510989536 -109.64813995733857 -38114.139141798485 z" vector-effect="non-scaling-stroke" fill="#000" fill-opacity="1" stroke="#FFF" stroke-width="0.3px" stroke-linejoin="round" stroke-linecap="round"><title>Jasper County</title></path>
<path id="28063" d="M -10171983.109561106 -3734676.056202799 l 320.2253170069307 -587.9439026485197 1440.4133962318301 -4870.449916415848 1038.1847142241895 -2287.197658991907 1704.0361133366823 -2274.8312720260583 1921.4571091160178 -1238.3793113911524 3162.5047792289406 -708.0800218665972 15249.87768839486 688.3095049089752 15552.330731738359 765.333237442188 19034.7368037533 4604.998594144359 240.7501061372459 2998.1676394003443 -1379.7711359392852 2410.90048492793 12982.29820438847 -94.02909980528057 -60.33572060801089 11472.379211149178 -56.32799629867077 11425.469789087772 -15336.593335941434 96.9886166183278 -31031.746863041073 41.04241686919704 2.560348285362124 -2669.4452291424386 -8819.173000890762 168.1318579041399 -1694.4342670235783 -1818.8562757624313 -2351.4158529210836 -578.7796991001815 243.63383755087852 -2067.0088655883446 -2888.5248262751848 -919.6197842089459 161.21700539067388 -2728.7892406014726 -1698.9539496656507 -2898.191896887962 z" vector-effect="non-scaling-stroke" fill="#000" fill-opacity="1" stroke="#FFF" stroke-width="0.3px" stroke-linejoin="round" stroke-linecap="round"><title>Jefferson County</title></path>
<path id="28065" d="M -9991491.749021377 -3733765.914789998 l -56.88526167161763 21573.979548675008 2282.9396719112992 -76.98949591629207 2012.5442948192358 2799.5512796933763 4975.868249170482 3191.9058646312915 3938.4826937112957 731.0883450759575 3761.7071196902543 2614.367030433845 634.8547220379114 2888.8151213750243 1172.639182055369 433.26321897795424 11.131615122780204 10409.887009994127 -7502.152439281344 -15.264807731378824 -18928.31570450589 6.261597679462284 101.96854224428535 5704.739695742261 -15095.80938867107 -61.0306722773239 -17.476603457704186 -17216.843208020553 -1887.421521116048 -7.313167152926326 163.19548668898642 -31274.387817239854 z" vector-effect="non-scaling-stroke" fill="#000" fill-opacity="1" stroke="#FFF" stroke-width="0.3px" stroke-linejoin="round" stroke-linecap="round"><title>Jefferson Davis County</title></path>
<path id="28067" d="M -9951870.371839883 -3689244.534985217 l -228.0918555241078 -47429.87849080982 9425.084766646847 -684.6311100618914 21102.718872897327 -1474.7022618544288 20442.260222695768 -1469.510260176845 44.86019632220268 42044.07380342577 -57.44130253046751 9089.146481087897 -22555.9941572845 -77.49785015778616 z" vector-effect="non-scaling-stroke" fill="#000" fill-opacity="1" stroke="#FFF" stroke-width="0.3px" stroke-linejoin="round" stroke-linecap="round"><title>Jones County</title></path>
<path id="28069" d="M -9834938.97938374 -3885909.1562619517 l -1488.0846976563334 13399.258780710865 -1880.6906724032015 16945.091692244634 -1799.1577989943326 16208.057421875186 -39878.912022272125 87.894114672672 -17932.22901220806 -15.853459858801216 -85.71545131132007 -16825.684605349787 96.62665384449065 -29448.619394612964 11314.064537994564 73.87116367835552 17997.23959483765 -114.18702654819936 z" vector-effect="non-scaling-stroke" fill="#000" fill-opacity="1" stroke="#FFF" stroke-width="0.3px" stroke-linejoin="round" stroke-linecap="round"><title>Kemper County</title></path>
<path id="28071" d="M -9934770.618799848 -4097340.4909829665 l -85.78103021904826 17462.07660953747 95.06562062352896 29413.30864048237 -29417.614914460108 -120.54209166765213 34.28684844635427 -3885.702172613237 -23556.31087891385 -213.31041663279757 176.3309639710933 -19324.04020164674 -300.4508603718132 -11684.725993758067 183.90035538561642 -5683.392921098974 -92.17198177985847 -12094.848835656885 5888.02015673928 -12.570243230089545 11527.241362864152 -136.92140593752265 3099.7162381391972 -65.11302808113396 1950.9335390925407 -907.2894517970271 3877.339034790173 16.501125226728618 6912.172157822177 1309.0121062938124 7935.862136628479 357.4768167855218 5689.179705252871 1154.8474539588206 z" vector-effect="non-scaling-stroke" fill="#000" fill-opacity="1" stroke="#FFF" stroke-width="0.3px" stroke-linejoin="round" stroke-linecap="round"><title>Lafayette County</title></path>
<path id="28073" d="M -9972758.46673453 -3689200.0468670577 l 15050.72488358058 -44.488248623907566 60.44603822566569 11429.535517735407 11489.058777522296 -41.31900773290545 -127.1277490388602 25728.35569257289 6.344431737437844 18032.739784842823 -8444.471594884992 33.24978324910626 -58.99944144114852 3592.296183280647 -5642.115624208003 -58.300864381715655 9.128420883789659 -2397.4434394999407 -2833.748178401962 -12.727612956427038 -1.669792355969548 -1616.479942256119 -5627.755298582837 -12.98893421003595 12.801741439849138 1570.2472909586504 -11375.401911385357 -75.97553148400038 9.018437227234244 -36719.85723607335 -28.38557959906757 -19422.1082431525 z" vector-effect="non-scaling-stroke" fill="#000" fill-opacity="1" stroke="#FFF" stroke-width="0.3px" stroke-linejoin="round" stroke-linecap="round"><title>Lamar County</title></path>
<path id="28075" d="M -9840106.912552794 -3839356.748367121 l -1709.4715981837362 15316.26146977907 -1595.3258156739175 14302.481120781042 -635.4540100581944 5681.343390109949 -834.8546529579908 7459.997413732577 -356.94848974607885 3192.4422291009687 -35575.74394256808 551.5502879926935 -17028.872012343258 78.82084261020645 -93.39660749211907 -8139.265735534485 -101.07653916813433 -35924.89139666408 120.00263371132314 -2446.6989670940675 17932.22901220806 15.853459858801216 z" vector-effect="non-scaling-stroke" fill="#000" fill-opacity="1" stroke="#FFF" stroke-width="0.3px" stroke-linejoin="round" stroke-linecap="round"><title>Lauderdale County</title></path>
<path id="28077" d="M -10046048.0809311 -3726287.3542125663 l 1660.2183290980756 -758.2492870856076 5136.057441703975 -1065.8692430509254 5881.118459627032 -3217.0225088912994 1248.2279922254384 356.4658643454313 16197.98034581542 -1091.8558588093147 -163.19548668898642 31274.387817239854 1887.421521116048 7.313167152926326 17.476603457704186 17216.843208020553 -1888.4233965408057 -534.415747100953 -7189.122031169012 -7.042367709800601 64.34222040139139 7642.486502298154 -1455.83618927747 931.1761615700088 -3279.1372384168208 3.387945113237947 -993.0809547305107 -1881.7129072896205 -1924.490466279909 -988.2822361281142 -15054.73260788992 77.5582704548724 z" vector-effect="non-scaling-stroke" fill="#000" fill-opacity="1" stroke="#FFF" stroke-width="0.3px" stroke-linejoin="round" stroke-linecap="round"><title>Lawrence County</title></path>
<path id="28079" d="M -9988699.071501188 -3880018.673202645 l -12.249708089977503 -5664.334884757176 509.9390025995672 -321.67781105823815 45238.2450999096 -230.1935627614148 54.21170146763325 21086.17464921763 121.11438146606088 25929.650481469464 -557.7103149164468 3.30283161252737 -33671.35384950042 13.605114894453436 -11697.337544796988 -121.40350427059457 -16.92000600323081 -7426.922830780502 z" vector-effect="non-scaling-stroke" fill="#000" fill-opacity="1" stroke="#FFF" stroke-width="0.3px" stroke-linejoin="round" stroke-linecap="round"><title>Leake County</title></path>
<path id="28081" d="M -9876149.301740682 -4038811.91937463 l -11750.770789064467 -57.386738162022084 -98.29388585314155 -24816.625232496765 65.45641718246043 -14199.383161481004 -34.28629184141755 -3929.4825057066046 3935.365636644885 27.115866718348116 37.181155206635594 -13655.008975287434 5874.216428557411 26.33825342450291 22.9324830211699 -1925.4105877559632 21675.679624091834 -38.09469400905073 -31.280999552458525 5929.998343120795 -16.14221672154963 17157.518474526703 -270.5063626281917 16.177865337580442 139.48176349140704 33512.27920759516 -19526.880383865908 -43.686293072998524 z" vector-effect="non-scaling-stroke" fill="#000" fill-opacity="1" stroke="#FFF" stroke-width="0.3px" stroke-linejoin="round" stroke-linecap="round"><title>Lee County</title></path>
<path id="28083" d="M -10033059.537480634 -3985505.5224084477 l 2944.1226780302823 3343.533825344406 -786.9193728491664 2897.143437786028 795.6561717670411 3541.4319028793834 65.23233104683459 19343.88393702684 -4017.964921457693 -23.08396007772535 -35.844876032322645 5678.667408404872 -4112.029557220638 -61.08225730713457 15.806922417134047 11147.462382152211 -16304.850044218823 -5543.265503235161 -89.27800898253918 1135.9494748343714 2989.5952428672463 621.9124643392861 1714.5421292819083 2968.4865230736323 -1351.640811931342 2664.9268319164403 -2080.8021783046424 -123.70880928495899 -2351.938831890002 2345.834590860177 -2778.3523715101182 730.3387774154544 -372.296905009076 2269.791054479312 -1873.8662580475211 -0.2287652711384 1038.7994243204594 2677.2191517958418 -1923.674494413659 1993.9413414024748 -2780.663586784154 -28.98112796060741 -504.154619211331 1274.6493720086291 -4410.36523594521 -4186.3054066048935 63.229804730042815 -8281.74045987567 61.44969474710524 -31273.05463970825 143.82589530199766 -19352.03612162033 -28.274371426552534 -13759.671765892766 17452.44200689532 229.10239479271695 12118.656700225547 85.75974411843345 214.1869688834995 894.8432514253072 -2346.3336682505906 2921.3831404699013 -1512.886959835887 337.8731744354591 -1839.0182805210352 -599.4592410931364 -1816.3702721390873 65.3970759161748 -3601.0333325453103 708.4444263093174 -1630.6566034182906 784.687376246322 -1313.5844860896468 1362.177035601344 -167.59526201337576 1618.0562299396843 620.5554296337068 3709.2279565543868 1186.755639154464 1121.7919299034402 1807.3110687863082 -353.95164673170075 1114.282012335956 -1356.007974125445 1408.706121282652 -3403.999479654245 1730.3078402932733 -191.01323423348367 878.7427251748741 1356.7727833450772 1481.0146983638406 2663.6394866877235 9264.116782961413 62.503182656131685 -24.93612253665924 5981.561476020142 z" vector-effect="non-scaling-stroke" fill="#000" fill-opacity="1" stroke="#FFF" stroke-width="0.3px" stroke-linejoin="round" stroke-linecap="round"><title>Leflore County</title></path>
<path id="28085" d="M -10079778.770072935 -3678230.9420103505 l -9479.965164287016 50.57490621833131 14.250230647623539 -34228.29528705124 -11588.24444382079 37.25346629973501 56.32799629867077 -11425.469789087772 12871.869158204645 54.036132662091404 19361.348412374035 -154.77982294838876 3680.1102668978274 -161.06276631634682 72.91426646895707 1981.4089133981615 3801.002677306533 19.884539801161736 -73.80471107549965 -1947.9106135168113 11107.010619079694 28.523471255786717 2370.325249547139 -529.909485783428 1537.5445841941983 -1780.665867147036 144.8245424516499 47965.1687801294 -1836.882472300902 -0.000130356755108 z" vector-effect="non-scaling-stroke" fill="#000" fill-opacity="1" stroke="#FFF" stroke-width="0.3px" stroke-linejoin="round" stroke-linecap="round"><title>Lincoln County</title></path>
<path id="28087" d="M -9822951.41428394 -3994470.1973496284 l -1392.4843844156712 12649.428888855502 -1708.8933711256832 15520.854785358533 -318.55639334023 2890.949204732664 -2038.3207341618836 18528.954655271955 -1248.127663694322 11299.14576364914 -15530.896322270855 -68.34726612176746 -13670.474962513894 199.62015451071784 -11736.633436372504 0.132368997205049 -242.0070145111531 -29233.354568245355 6892.900754848495 -77.83318653609604 4847.7505359034985 -2612.4074778375216 1498.1298034098 465.0680206590332 2811.135627593845 -2534.67893457599 2093.6444400437176 -323.3516265838407 3629.1954243872315 -7239.63791809231 -597.9074212536216 -1669.6211187033914 -1195.8148425053805 -1435.958892728202 -869.6835218220949 -1376.2952661830932 389.545744150877 -1496.1597018362954 -643.2034380156547 -2122.159964174498 497.8000457659364 -334.64667153637856 2606.277930907905 -683.001941176597 1957.9608975797892 387.27950722910464 5649.499891316518 -2016.2100358204916 1112.5934487152845 -2160.653260742314 2797.1980933938175 1216.212550332304 3554.2078114934266 -3085.6321493959986 1587.7423274535686 -3034.293356261216 -212.9688800573349 -1686.4706719820388 z" vector-effect="non-scaling-stroke" fill="#000" fill-opacity="1" stroke="#FFF" stroke-width="0.3px" stroke-linejoin="round" stroke-linecap="round"><title>Lowndes County</title></path>
<path id="28089" d="M -10016369.637198891 -3879928.0853274544 l 15478.301808156073 581.4733716030605 -98.40631854906678 -756.5034578074701 12290.670208096504 84.44221101375297 -32.0612378641963 33268.20048356615 -1852.2644093316048 1075.1743708150461 -3555.737315783277 2726.4361010054126 -1085.8882122058421 467.92954051075503 -753.1300683133304 360.09435607120395 -2242.1528296992183 381.73177224071696 -2994.066707942635 102.15148536441848 -688.4994547739625 575.2576983845793 -1277.3476726766676 2542.6268788687885 -1073.5155972503126 569.7315985327587 -1517.4165615122765 139.74130268441513 -1132.4004190396518 365.46946211205795 -10372.787838404998 7682.999477463309 -4756.081759965047 2180.420647744555 -2169.6792028807104 2931.65874708537 -3342.846037004143 5625.04113413766 484.6673793476075 697.5772714740597 629.6146329846233 1373.5710684466176 484.6673793513328 708.1856370372698 -19912.61416138895 320.8377905613743 -16.92011732235551 -11553.806889684405 -22955.742226090282 -50.81038502790034 42.2544413767755 -12364.811930251308 1113.9133522305638 -544.7793358159252 5851.205371007323 -2860.2423828719184 3880.797099802643 -3049.305849841796 5082.2130806501955 -4723.276109100785 5533.481237269938 -1543.300771091599 5520.305111471564 -2218.0422321520746 2797.7355769500136 -1663.6082532508299 5846.718785408884 -1665.6241584620439 3303.076600432396 -1333.1616463256069 2699.642598990351 -1513.1417617150582 2237.6232280228287 -2014.233677258715 1127.8708173632622 -1971.4817302799784 910.4499369096011 -2774.6382461478934 1618.4402530938387 -7605.193057264201 z" vector-effect="non-scaling-stroke" fill="#000" fill-opacity="1" stroke="#FFF" stroke-width="0.3px" stroke-linejoin="round" stroke-linecap="round"><title>Madison County</title></path>
<path id="28091" d="M -9989284.814190844 -3632762.3567996556 l -4174.48089640215 0 -4788.694889117032 0 -2233.9994902051985 0 -4.932232873514295 -9723.43545721937 -9466.272978240624 35.35162186063826 -952.2263676505536 -1891.7409866629168 -2.337820624932647 -2851.807508560829 -963.9150255005807 -2832.568475330714 -7542.672845244408 84.53201551781967 -22.48620318248868 -5633.092265803367 -2867.144025636837 -15.873337973374873 2.115292964503169 -7575.997159135062 -946.2153377868235 3.515246342867613 52.0980782918632 -13300.839559537359 -64.34222040139139 -7642.486502298154 7189.122031169012 7.042367709800601 1888.4233965408057 534.415747100953 15095.80938867107 61.0306722773239 -101.96854224428535 -5704.739695742261 18928.31570450589 -6.261597679462284 28.38557959906757 19422.1082431525 -9.018437227234244 36719.85723607335 z" vector-effect="non-scaling-stroke" fill="#000" fill-opacity="1" stroke="#FFF" stroke-width="0.3px" stroke-linejoin="round" stroke-linecap="round"><title>Marion County</title></path>
<path id="28093" d="M -9988064.839218508 -4163809.4797395314 l 7792.120577275753 10.724248766899109 1118.122369017452 1.794645144138485 13351.237211246043 21.429414770100266 14472.077322689816 19.90654289070517 4637.7164351046085 5.318001199513674 -3.436916757375002 20991.06392297661 5953.141947528347 2.306127595715225 99.4065241664648 35411.89034607494 5865.310869297013 -41.64461359381676 8.524079091846943 10046.200120740104 -6082.281545989215 -4415.234009835403 -5689.179705252871 -1154.8474539588206 -7935.862136628479 -357.4768167855218 -6912.172157822177 -1309.0121062938124 -3877.339034790173 -16.501125226728618 -1950.9335390925407 907.2894517970271 -3099.7162381391972 65.11302808113396 -11527.241362864152 136.92140593752265 -79.48122587613761 -17777.441954811104 -5937.223371665925 -42.103236531838775 -126.68102392368019 -11651.60255283257 z" vector-effect="non-scaling-stroke" fill="#000" fill-opacity="1" stroke="#FFF" stroke-width="0.3px" stroke-linejoin="round" stroke-linecap="round"><title>Marshall County</title></path>
<path id="28095" d="M -9817926.288207917 -4040289.6095639924 l -414.6280749812722 3784.3023950662464 -176.10278212465346 1606.9062554570846 -1883.4084148332477 17187.18385506235 -1945.9168910458684 17740.176667795517 -605.0699130389839 5500.843040982727 -9480.389609096572 -33.06810893723741 212.9688800573349 1686.4706719820388 -1587.7423274535686 3034.293356261216 -3554.2078114934266 3085.6321493959986 -2797.1980933938175 -1216.212550332304 -1112.5934487152845 2160.653260742314 -5649.499891316518 2016.2100358204916 -1957.9608975797892 -387.27950722910464 -2606.277930907905 683.001941176597 -497.8000457659364 334.64667153637856 203.0898202136159 -2800.1755056614056 -24443.972053220496 -41.337591951247305 -45.19493402726948 -17506.96699839644 -20.704646050930023 -17063.309838993475 139.59553200937808 -18294.28001041524 22.152578668668866 -1995.6501772487536 19526.880383865908 43.686293072998524 z" vector-effect="non-scaling-stroke" fill="#000" fill-opacity="1" stroke="#FFF" stroke-width="0.3px" stroke-linejoin="round" stroke-linecap="round"><title>Monroe County</title></path>
<path id="28097" d="M -9957951.743710736 -3933318.9587455094 l -21314.5597525537 56.86116088181734 -190.91214747354388 -15594.066382672638 -7632.0620624013245 63.07171688741073 -32.50529131107032 -1960.3254935359582 -7723.344044841826 65.34927077079192 -56.43775732256472 -26870.44315226702 -128.68488607928157 -7917.178605920635 18645.230016788468 -163.73287041531876 12526.222361924127 46.28490513050929 41.966223515570164 28918.32415088406 6965.377584461123 377.4043895509094 3744.8042081445456 1332.9087259732187 -354.7899113278836 1927.5122115910053 -3412.830277070403 -452.86784290056676 -1093.8371164016426 539.0145105603151 z" vector-effect="non-scaling-stroke" fill="#000" fill-opacity="1" stroke="#FFF" stroke-width="0.3px" stroke-linejoin="round" stroke-linecap="round"><title>Montgomery County</title></path>
<path id="28099" d="M -9897907.142384741 -3885559.01171227 l -96.62665384449065 29448.619394612964 85.71545131132007 16825.684605349787 -44869.75743656047 65.65338177233934 -121.11438146606088 -25929.650481469464 -54.21170146763325 -21086.17464921763 5701.226162511855 -104.64549299515784 27854.688929758966 156.10738584026694 3.673654517158866 647.216853399761 5831.135896939784 -24.93309774249792 9.462045393884182 990.2539018034004 3865.011718472466 -17.6369862081483 z" vector-effect="non-scaling-stroke" fill="#000" fill-opacity="1" stroke="#FFF" stroke-width="0.3px" stroke-linejoin="round" stroke-linecap="round"><title>Neshoba County</title></path>
<path id="28101" d="M -9897843.583074326 -3792773.8516130145 l -45512.40452294983 93.95194360380992 10.466258523985744 -46535.85182951158 557.7103149164468 -3.30283161252737 44869.75743656047 -65.65338177233934 -120.00263371132314 2446.6989670940675 101.07653916813433 35924.89139666408 z" vector-effect="non-scaling-stroke" fill="#000" fill-opacity="1" stroke="#FFF" stroke-width="0.3px" stroke-linejoin="round" stroke-linecap="round"><title>Newton County</title></path>
<path id="28103" d="M -9829657.796830678 -3933580.8640517606 l -795.6286554336548 7196.996966454666 -2030.1675068903714 18317.56527091982 -1542.7845232114196 13928.907546038274 -452.05203182063997 4078.1781285819598 -460.54983570612967 4150.059877814259 -33656.85886816867 309.82868681196123 -17997.23959483765 114.18702654819936 -108.09000104479492 -23035.884136293083 77.92464543133974 -24862.11703246273 16027.441650524735 -66.31707702716812 11736.633436372504 -0.132368997205049 13670.474962513894 -199.62015451071784 z" vector-effect="non-scaling-stroke" fill="#000" fill-opacity="1" stroke="#FFF" stroke-width="0.3px" stroke-linejoin="round" stroke-linecap="round"><title>Noxubee County</title></path>
<path id="28105" d="M -9917258.58147001 -3933327.080041012 l -24.599937673658133 -32965.4562187409 23.71127417869866 -3851.711042773444 7753.400418682024 -10.019306402653456 3788.312366673723 -271.7263733088039 6940.021961346269 196.67347616655752 4421.512547113001 -665.2072832896374 1221.7307435385883 385.25183552643284 15466.455759594217 -89.72229708731174 1915.350802121684 823.6409927601926 4884.153122590855 -782.4933768496849 30.723845498636365 7875.036272391211 242.0070145111531 29233.354568245355 -16027.441650524735 66.31707702716812 z" vector-effect="non-scaling-stroke" fill="#000" fill-opacity="1" stroke="#FFF" stroke-width="0.3px" stroke-linejoin="round" stroke-linecap="round"><title>Oktibbeha County</title></path>
<path id="28107" d="M -9987733.364677167 -4103471.668366021 l 92.17198177985847 12094.848835656885 -183.90035538561642 5683.392921098974 300.4508603718132 11684.725993758067 -176.3309639710933 19324.04020164674 -42.52426812238991 3906.4934491412714 -23382.9864317514 -106.28441907092929 -3021.210423534736 652.6166136432439 -19684.731199165806 -85.29212928796187 67.46016801148653 -14249.706684739329 -6594.119241556153 -4778.097082403954 -394.96110806055367 -5238.891441560816 103.08240507543087 -11537.13887643069 -205.7178623881191 -11517.066446931101 -8.348627852275968 -5854.053394676652 29306.962784016505 111.37613347591832 z" vector-effect="non-scaling-stroke" fill="#000" fill-opacity="1" stroke="#FFF" stroke-width="0.3px" stroke-linejoin="round" stroke-linecap="round"><title>Panola County</title></path>
<path id="28109" d="M -10000522.755903276 -3589646.8790844055 l -1095.257605476305 -1937.0262980642729 157.63006175123155 -2319.7706305347383 826.1993034146726 -2813.3789860671386 2125.2890924233943 -4673.5067480294965 -712.0533206705004 -2435.4708726243116 989.2650502435863 -2217.6413571792655 2763.962867068127 -3309.796484463848 1742.0848076213151 -7534.176437040791 2581.873023385182 -4766.616578722838 1448.5666235033423 -4657.532426155638 752.8197573758662 -4510.284858643543 -342.43794820830226 -1940.276037724223 9043.562159404159 -310.9893959076144 11375.401911385357 75.97553148400038 -12.801741439849138 -1570.2472909586504 5627.755298582837 12.98893421003595 1.669792355969548 1616.479942256119 2833.748178401962 12.727612956427038 -9.128420883789659 2397.4434394999407 5642.115624208003 58.300864381715655 58.99944144114852 -3592.296183280647 8444.471594884992 -33.24978324910626 918.3855764046311 1212.6593699473888 -16.14177144318819 11828.145748648793 -66.90434980019927 33972.24634556286 -22574.0280261077 -83.84788423776627 5.78805691935122 17004.45066540595 -5754.436879100278 -26.61951384600252 15.58472871221602 1884.0035576377995 -5715.029890686274 -32.29999639140442 12.356352159753442 5663.632436261512 -3412.0160788651556 264.27885958878323 -1845.3597205486149 -3418.1145834531635 -3133.5784397590905 -2210.9177498840727 -1497.4862874858081 -4012.815599121619 -1812.7467113360763 -1277.9346635295078 -3554.8313187398016 -1394.8325289934874 -1720.3426679968834 -1773.7442788523622 -2910.7220592405647 -6254.292325653601 1405.0823442619294 -2671.8914514267817 -875.1189673952758 -2233.3301710882224 z" vector-effect="non-scaling-stroke" fill="#000" fill-opacity="1" stroke="#FFF" stroke-width="0.3px" stroke-linejoin="round" stroke-linecap="round"><title>Pearl River County</title></path>
<path id="28111" d="M -9922792.507239588 -3621049.746224309 l -20.816299505531788 -11722.686855940614 -893.0046211853623 -34.02579809026793 88.61109390854836 -23445.762184699066 -79.25803028978407 -32995.313610725105 22555.9941572845 77.49785015778616 11327.979585671797 -31.964034840930253 78.2563775125891 31221.45441472344 8.34795992821455 25438.630228911992 733.5952216926962 55.453026173170656 -15.139896025881171 11378.851160035469 -5628.645743191242 -60.332838867791 z" vector-effect="non-scaling-stroke" fill="#000" fill-opacity="1" stroke="#FFF" stroke-width="0.3px" stroke-linejoin="round" stroke-linecap="round"><title>Perry County</title></path>
<path id="28113" d="M -10058482.366012994 -3632768.6980262045 l -2790.5016764104366 0 -17994.295632220805 0 -535.54110975191 -29211.412466312293 23.93435844220221 -16250.83151783375 32038.631211986765 -91.24355244310573 -17.366619799286127 22833.068836289924 110.4281556326896 22720.418700299226 z" vector-effect="non-scaling-stroke" fill="#000" fill-opacity="1" stroke="#FFF" stroke-width="0.3px" stroke-linejoin="round" stroke-linecap="round"><title>Pike County</title></path>
<path id="28115" d="M -9887900.072529746 -4038869.306112792 l -35024.99830094166 111.81385507900268 -11719.49001215212 23.383539643138647 -116.77336660400033 -11730.99701487692 -95.06562062352896 -29413.30864048237 21195.55910557881 -103.85803506849334 14144.918520953506 144.05417111655697 14.47131116874516 1946.8346075662412 11568.540893949568 6.069123045075685 -65.45641718246043 14199.383161481004 z" vector-effect="non-scaling-stroke" fill="#000" fill-opacity="1" stroke="#FFF" stroke-width="0.3px" stroke-linejoin="round" stroke-linecap="round"><title>Pontotoc County</title></path>
<path id="28117" d="M -9876098.535600098 -4130876.702921718 l 12598.46848881431 88.34286406449974 26656.446487458423 68.56094504147768 1949.0921850688756 31.16338506573811 6.01125249825418 1967.173556108959 1960.335787590593 20.72610173607245 -15.808592205867171 22950.253184508067 183.78781138174236 14531.911312760785 -12946.564536521211 -251.6745325443335 -10746.33524627611 20.387298711575568 31.280999552458525 -5929.998343120795 -21675.679624091834 38.09469400905073 114.1029233392328 -11836.477748499718 1964.3429553043097 1.487557134591043 z" vector-effect="non-scaling-stroke" fill="#000" fill-opacity="1" stroke="#FFF" stroke-width="0.3px" stroke-linejoin="round" stroke-linecap="round"><title>Prentiss County</title></path>
<path id="28119" d="M -10068956.498792619 -4038598.3795308275 l 45.53100757114589 -25491.228566309437 5739.40885916166 117.8562048478052 -53.87752034328878 -21879.301840004046 10870.011200545356 -99.72956677386537 -274.2906687203795 -11487.037623601966 11773.034798540175 -200.2065088315867 205.7178623881191 11517.066446931101 -103.08240507543087 11537.13887643069 394.96110806055367 5238.891441560816 6594.119241556153 4778.097082403954 -67.46016801148653 14249.706684739329 -26.606026219204068 11723.049897355027 z" vector-effect="non-scaling-stroke" fill="#000" fill-opacity="1" stroke="#FFF" stroke-width="0.3px" stroke-linejoin="round" stroke-linecap="round"><title>Quitman County</title></path>
<path id="28121" d="M -10044449.42028126 -3769821.4932269314 l 620.5554296337068 -2084.3799711936153 326.1313206832856 -3282.2953854133375 -579.7890145480633 -2031.8376167961396 -1155.0484274234623 -1968.0022664363496 -856.0947167910635 -2321.374205023516 312.54251565411687 -3188.610575644765 1467.5909430757165 -1830.089276877232 4534.131277834997 -3564.660871022381 425.78255756013095 -1338.359993811231 -1209.4036475326866 -2912.788823061157 394.07534582167864 -2784.9468725873157 1263.7588676474988 -2539.151737366803 3872.809433117509 -5326.472925865091 2935.1818861495703 -3596.9819340016693 625.0850313100964 -2536.2296974137425 1549.123773245141 -2193.4964939160272 2002.0839408636093 -1732.557827460114 1974.9063308052719 -1190.9444682779722 -484.6673793513328 -708.1856370372698 -629.6146329846233 -1373.5710684466176 -484.6673793476075 -697.5772714740597 3342.846037004143 -5625.04113413766 2169.6792028807104 -2931.65874708537 4756.081759965047 -2180.420647744555 10372.787838404998 -7682.999477463309 1132.4004190396518 -365.46946211205795 1517.4165615122765 -139.74130268441513 1073.5155972503126 -569.7315985327587 1277.3476726766676 -2542.6268788687885 688.4994547739625 -575.2576983845793 2994.066707942635 -102.15148536441848 2242.1528296992183 -381.73177224071696 753.1300683133304 -360.09435607120395 1701.1411373000592 7655.985864561982 4819.574904868379 25123.83196315309 -36.402030086144805 17240.040936377365 36.066513143479824 22970.69884691201 -23043.796277260408 -112.42209695884958 -13.024491745978594 -161.67378202918917 z" vector-effect="non-scaling-stroke" fill="#000" fill-opacity="1" stroke="#FFF" stroke-width="0.3px" stroke-linejoin="round" stroke-linecap="round"><title>Rankin County</title></path>
<path id="28123" d="M -9988731.132739052 -3846750.472719079 l 16.92000600323081 7426.922830780502 11697.337544796988 121.40350427059457 33671.35384950042 -13.605114894453436 -10.466258523985744 46535.85182951158 -19745.4004329741 7.762723188847303 -22436.77109396644 -45.26698596961796 -3202.549540074542 256.3299895361997 36.402030086144805 -17240.040936377365 -4819.574904868379 -25123.83196315309 -1701.1411373000592 -7655.985864561982 1085.8882122058421 -467.92954051075503 3555.737315783277 -2726.4361010054126 z" vector-effect="non-scaling-stroke" fill="#000" fill-opacity="1" stroke="#FFF" stroke-width="0.3px" stroke-linejoin="round" stroke-linecap="round"><title>Scott County</title></path>
<path id="28125" d="M -10096882.549861187 -3908091.563109689 l 4875.346860304475 -29.233036414720118 184.56671386025846 22208.065001451876 119.00042434222996 892.4129803627729 -11625.202960044146 11496.628968014847 31.320851923897862 2722.0270970403217 2181.726655051112 681.1719382824376 1461.4997910093516 -1289.74399915291 1912.2753785476089 1699.9564364477992 -639.5527385026217 2305.2662986745127 2909.1929595340043 3406.0920501518995 -1192.1795375570655 1830.514709994197 -2445.0948779638857 -18.812931935302913 -2259.005981395021 2952.8569907196797 3189.100958224386 3066.9066071673296 2985.007504587993 322.9745505810715 3782.21739959158 1749.2919576261193 -1471.7942789644003 2098.5721982866526 -2652.6314781922847 1032.580159067642 -698.9747487306595 -2748.5895226444118 -1120.8385494519025 -610.7965166633949 -1898.6459766943008 3781.709024785552 -26906.470286425203 -88.59494748385623 123.67706746421754 -23207.381977651734 2131.990442397073 -2506.858720215969 957.2360786944628 -2549.4102891329676 -462.30973394215107 -1265.8987679588608 1704.5238203816116 -3470.4551227926277 1202.5842364057899 -4268.411629145034 -33.061443492770195 -8426.132323054597 -14.248449543491006 -11915.931467893533 5744.640875237063 307.0820537339896 z" vector-effect="non-scaling-stroke" fill="#000" fill-opacity="1" stroke="#FFF" stroke-width="0.3px" stroke-linejoin="round" stroke-linecap="round"><title>Sharkey County</title></path>
<path id="28127" d="M -10032122.458708445 -3730972.0293872487 l 25.262198068201542 -699.5890977554955 1182.2260374780744 -3846.8734906357713 -81.53283016942441 -554.2209779592231 -4144.585533685982 -1412.3123923894018 135.88805028423667 -5037.701818287373 448.4305659402162 -2186.322560847737 176.6544653698802 -2090.707628391683 -1413.2357229627669 -3707.6292043933645 -789.5253765303642 -2080.0974678234197 -1506.9826732818037 -2850.9468062315136 -2214.975219640881 -2514.327913109213 -3954.3422632850707 -7818.588516877033 -520.9041927587241 -2292.0654463893734 330.66092235967517 -1758.080518592149 32687.95736110583 57.02225220017135 13.024491745978594 161.67378202918917 23043.796277260408 112.42209695884958 7567.496646415442 -21.931842597667128 852.70707683824 4406.865917679388 -8.350297646597028 30147.739990267903 154.73409220390022 406.8787441547029 -11353.694388041273 784.9074962409213 -24432.729341251776 1702.0295439399779 z" vector-effect="non-scaling-stroke" fill="#000" fill-opacity="1" stroke="#FFF" stroke-width="0.3px" stroke-linejoin="round" stroke-linecap="round"><title>Simpson County</title></path>
<path id="28129" d="M -9952098.463695407 -3736674.4134760266 l -28039.590937929228 2123.591189787723 -154.73409220390022 -406.8787441547029 8.350297646597028 -30147.739990267903 -852.70707683824 -4406.865917679388 -7567.496646415442 21.931842597667128 -36.066513143479824 -22970.69884691201 3202.549540074542 -256.3299895361997 22436.77109396644 45.26698596961796 19745.4004329741 -7.762723188847303 109.64813995733857 38114.139141798485 514.4068103544414 7744.036510989536 58.55371820367873 9462.679430534132 z" vector-effect="non-scaling-stroke" fill="#000" fill-opacity="1" stroke="#FFF" stroke-width="0.3px" stroke-linejoin="round" stroke-linecap="round"><title>Smith County</title></path>
<path id="28131" d="M -9945376.776547542 -3621054.418009667 l 22584.269307954237 4.671785358339548 28155.919805800542 -118.19864316191524 56.10424412600696 22710.672180044465 0.110874209553003 7548.095220777672 -26773.665911264718 48.01879321085289 -12781.477731678635 -30.80563300009817 -30.390554940328002 3819.3681422341615 -11277.774384006858 -9.575499900616705 z" vector-effect="non-scaling-stroke" fill="#000" fill-opacity="1" stroke="#FFF" stroke-width="0.3px" stroke-linejoin="round" stroke-linecap="round"><title>Stone County</title></path>
<path id="28133" d="M -10103746.950377364 -3965783.345219344 l 4.453113589435816 -11593.773718596902 11673.960340412334 -14.436323737725616 -57.328424563631415 -14364.683847185224 235.21953119710088 -35378.174818240106 22930.69556329772 254.6817509625107 -70.24337792769074 23376.223426574375 28.274371426552534 13759.671765892766 -143.82589530199766 19352.03612162033 -61.44969474710524 31273.05463970825 -11389.76201438345 40.3690020297654 37.62554261647165 7811.19410157809 -17929.78020605631 66.7035220041871 -5287.229087559506 -43.537860554642975 -75.25075126253068 -23248.545938971452 444.6100462246686 -127.40738535998389 z" vector-effect="non-scaling-stroke" fill="#000" fill-opacity="1" stroke="#FFF" stroke-width="0.3px" stroke-linejoin="round" stroke-linecap="round"><title>Sunflower County</title></path>
<path id="28135" d="M -10068959.95025343 -4026879.7321761413 l 3.451460812240839 -11718.647354686167 35097.46728945337 4.302528747823089 26.606026219204068 -11723.049897355027 19684.731199165806 85.29212928796187 3021.210423534736 -652.6166136432439 666.5807769112289 3194.788167171646 -131.91470978222787 20891.29125648504 64.89870653487742 11690.849388463888 -22.264232121407986 9934.117478647735 -5778.0364998281 -24.11999154696241 -18.25650781393051 1925.7997256452218 -15579.937742810696 -97.40183508303016 -2022.2294244710356 143.0866528726183 -32.95101455412805 11739.75940413028 -9264.116782961413 -62.503182656131685 -1481.0146983638406 -2663.6394866877235 -878.7427251748741 -1356.7727833450772 -1730.3078402932733 191.01323423348367 -1408.706121282652 3403.999479654245 -1114.282012335956 1356.007974125445 -1807.3110687863082 353.95164673170075 -1186.755639154464 -1121.7919299034402 -620.5554296337068 -3709.2279565543868 167.59526201337576 -1618.0562299396843 1313.5844860896468 -1362.177035601344 1630.6566034182906 -784.687376246322 3601.0333325453103 -708.4444263093174 1816.3702721390873 -65.3970759161748 1839.0182805210352 599.4592410931364 1512.886959835887 -337.8731744354591 2346.3336682505906 -2921.3831404699013 -214.1869688834995 -894.8432514253072 -12118.656700225547 -85.75974411843345 -17452.44200689532 -229.10239479271695 z" vector-effect="non-scaling-stroke" fill="#000" fill-opacity="1" stroke="#FFF" stroke-width="0.3px" stroke-linejoin="round" stroke-linecap="round"><title>Tallahatchie County</title></path>
<path id="28137" d="M -10041237.932692863 -4130331.8205209 l 2183.2680079080164 -2960.881360270083 6169.317482927814 -1439.370720419567 3043.892326377332 1588.2605655132793 2826.471445923671 3440.457683372777 6087.78465275839 3439.400240564253 5000.680250478908 -529.0697239930741 5652.94289184548 -4762.753171062563 433.60319362953305 -1462.3558024973609 21851.242299120873 62.746456265915185 126.68102392368019 11651.60255283257 5937.223371665925 42.103236531838775 79.48122587613761 17777.441954811104 -5888.02015673928 12.570243230089545 -23824.70228253305 90.96367331966758 -29306.962784016505 -111.37613347591832 -2769.0622358322144 -3659.44897396164 -683.9698531031609 -1716.6399958096445 -1802.7814671099186 -3224.91131146485 -625.0850313100964 -1651.3370289760642 181.18406704440713 -1811.2456483785063 779.0914882998914 -1684.8860977273434 1241.1108592674136 -1514.4109876644798 597.9074212517589 -1498.0913642961532 -1232.0516559146345 -1520.3267886494286 430.31215923652053 -3239.645064311102 -271.77610057219863 -1851.646529127378 557.141006167978 -1653.5146366986446 z" vector-effect="non-scaling-stroke" fill="#000" fill-opacity="1" stroke="#FFF" stroke-width="0.3px" stroke-linejoin="round" stroke-linecap="round"><title>Tate County</title></path>
<path id="28139" d="M -9909340.171065897 -4163704.4906473835 l 1416.9680684097111 1.949414434377104 14469.359680376947 19.90629001893103 5734.190214803442 7.888829506002366 -63.52895272895694 18989.67904650839 7849.914194565266 -19.806266514584422 -12.134381096810102 13803.916873797774 3846.8666414693 24.253537914715707 79.48089191317558 21699.95027497597 -1964.3429553043097 -1.487557134591043 -18918.5195893161 -95.20474228076637 -12318.05469150655 -210.8320059455 -8064.538284128532 67.48223532550037 47.089591758325696 -29392.67125936225 5869.318259645253 6.373030172660947 36.847196727991104 -5900.0186773943715 1943.4152249936014 5.291097671724856 z" vector-effect="non-scaling-stroke" fill="#000" fill-opacity="1" stroke="#FFF" stroke-width="0.3px" stroke-linejoin="round" stroke-linecap="round"><title>Tippah County</title></path>
<path id="28141" d="M -9835573.68725363 -4163609.645476986 l 14469.359680376947 23.22390940412879 3967.9310705550015 0 1087.1043782066554 0 1945.9168910458684 5486.09893683577 2696.0189060065895 3918.8816331899725 3601.033340405673 2522.340684511233 1877.9728298727423 265.127510136459 -141.3235071003437 2173.8076286646537 -524.5278920140117 4896.1422341060825 -125.01695244014263 1149.188962541055 -369.6155726853758 3370.7131088469177 -584.3186258114874 5424.778516130988 -796.3039365131408 7333.663415655028 -989.2650502361357 9093.42088263994 -1165.9194090887904 10700.362603290007 -1323.5495709516108 12157.640706037637 -424.60883626528084 3905.6703029228374 -20387.402669224888 -29.987130358815193 -183.78781138174236 -14531.911312760785 15.808592205867171 -22950.253184508067 -1960.335787590593 -20.72610173607245 -6.01125249825418 -1967.173556108959 -1949.0921850688756 -31.16338506573811 74.25099091231823 -19868.259681480005 z" vector-effect="non-scaling-stroke" fill="#000" fill-opacity="1" stroke="#FFF" stroke-width="0.3px" stroke-linejoin="round" stroke-linecap="round"><title>Tishomingo County</title></path>
<path id="28143" d="M -10064175.161812017 -4142977.22759077 l 6196.22056677565 -2446.4183166269213 847.0538243521005 -547.5936544123106 15877.798171924427 1049.4320140783675 -36.84753068909049 11850.955272914376 53.00408679060638 2739.0317539162934 -3225.0763934273273 1813.6352676576935 -557.141006167978 1653.5146366986446 271.77610057219863 1851.646529127378 -430.31215923652053 3239.645064311102 1232.0516559146345 1520.3267886494286 -597.9074212517589 1498.0913642961532 -1241.1108592674136 1514.4109876644798 -779.0914882998914 1684.8860977273434 -181.18406704440713 1811.2456483785063 625.0850313100964 1651.3370289760642 1802.7814671099186 3224.91131146485 683.9698531031609 1716.6399958096445 2769.0622358322144 3659.44897396164 8.348627852275968 5854.053394676652 -11773.034798540175 200.2065088315867 274.2906687203795 11487.037623601966 -10870.011200545356 99.72956677386537 -20244.858960816637 -14430.751157344785 588.5100328922272 -5791.692492209841 -1981.2478429079056 -9308.421740809921 953.9340983852744 -5732.86224328354 1926.8925939649343 -4760.338010121603 1592.6079731378704 -2728.1888127587736 1386.0580471716821 -413.4200687529519 2119.8536075819284 1365.8815108346753 2505.7757349200547 112.43798510776833 2386.1940671186894 -727.5601580645889 1002.8537623621523 -1170.8095998070203 1614.350212873891 -1782.9089041380212 -568.0120711512864 -2504.4908684636466 -1263.7590373847634 -2700.3173633697443 -475.6080278120935 -2350.071824595798 1288.2186190970242 -1747.9795935894363 z" vector-effect="non-scaling-stroke" fill="#000" fill-opacity="1" stroke="#FFF" stroke-width="0.3px" stroke-linejoin="round" stroke-linecap="round"><title>Tunica County</title></path>
<path id="28145" d="M -9934779.14287894 -4107386.6911037066 l 3.785196643322706 -1942.74286503857 17490.84745385684 -87.36074803210795 8064.538284128532 -67.48223532550037 12318.05469150655 210.8320059455 18918.5195893161 95.20474228076637 -114.1029233392328 11836.477748499718 -22.9324830211699 1925.4105877559632 -5874.216428557411 -26.33825342450291 -37.181155206635594 13655.008975287434 -3935.365636644885 -27.115866718348116 34.28629184141755 3929.4825057066046 -11568.540893949568 -6.069123045075685 -14.47131116874516 -1946.8346075662412 -14144.918520953506 -144.05417111655697 -21195.55910557881 103.85803506849334 85.78103021904826 -17462.07660953747 z" vector-effect="non-scaling-stroke" fill="#000" fill-opacity="1" stroke="#FFF" stroke-width="0.3px" stroke-linejoin="round" stroke-linecap="round"><title>Union County</title></path>
<path id="28147" d="M -10000481.989466568 -3632762.3567996556 l -6324.229970993474 0 -9821.988098135218 -6.341226548887789 -12740.863584881648 0 -15075.420345697552 0 -3202.5858588386327 0 -110.4281556326896 -22720.418700299226 17.366619799286127 -22833.068836289924 1836.882472300902 0.000130356755108 15054.73260788992 -77.5582704548724 1924.490466279909 988.2822361281142 993.0809547305107 1881.7129072896205 3279.1372384168208 -3.387945113237947 1455.83618927747 -931.1761615700088 -52.0980782918632 13300.839559537359 946.2153377868235 -3.515246342867613 -2.115292964503169 7575.997159135062 2867.144025636837 15.873337973374873 22.48620318248868 5633.092265803367 7542.672845244408 -84.53201551781967 963.9150255005807 2832.568475330714 2.337820624932647 2851.807508560829 952.2263676505536 1891.7409866629168 9466.272978240624 -35.35162186063826 z" vector-effect="non-scaling-stroke" fill="#000" fill-opacity="1" stroke="#FFF" stroke-width="0.3px" stroke-linejoin="round" stroke-linecap="round"><title>Walthall County</title></path>
<path id="28149" d="M -10133668.585354824 -3782692.936756377 l 3821.1719784978777 -6630.279013257008 3500.4761699009687 -8382.203505680896 5057.753291297704 -5050.150929111522 0 -900.3148970054463 875.1190675031394 -424.4577811653726 377.76879995688796 -1878.0850173779763 -747.3843726422638 -2045.648240879178 -2508.4933772366494 -968.2672250089236 -3891.83378210105 -601.5875928327441 -1831.770908312872 -717.4411162445322 -771.8441545758396 -968.4530636589043 -981.1116227451712 -5242.595864786301 -2522.0822895858437 -2449.910811563488 -3432.5321087222546 -1445.7163535053842 -3707.025995755568 -2238.1480064657517 -1353.445037966594 -1884.2354988963343 -396.79309704340994 -2158.380233931355 231.00970790348947 -5417.007414213847 250.03390487283468 -1250.677958827 489.1971403770149 -1476.4852212141268 328.8490358684212 -1579.8496229196899 -239.16293517500162 -1554.2614558371715 15050.39301904291 -1149.2855960554443 73.24722306802869 21700.390918179415 1340.7318357899785 -4372.232905818615 2392.866386618465 -702.0809702239931 425.7825575582683 -1041.3786917934194 942.1571486406028 -1197.1614451482892 5055.035470593721 -574.465581308119 535.0018677581102 -13718.712743902579 11030.637240115553 18.456320854835212 4587.396733475849 892.2658676328138 772.5243155360222 -6720.241851205472 3356.949673805386 26.433283464983106 -33.730139669030905 3867.835028229747 3865.2345800902694 -50.60261358320713 104.41745972260833 5775.903795193881 7410.536275718361 -3.036936913151294 10.463809495791793 1889.7307245023549 1556.080032929778 -57.210362042766064 2051.813571644947 119.23555121105164 -1719.2138136979192 720.369913179893 -2971.4186995588243 1643.7922365772538 -1106.438259921968 2955.5608265330084 -1388.884938530624 7526.968378416263 -1173.6541592366993 4269.183443942107 226.48008380830288 2564.1148503604345 -485.6362227536738 792.3443470504135 -325.16247727908194 484.14296080591157 -2224.03442299366 911.6929085450247 -4352.947210788727 -1126.2190271876752 -1037.2787838429213 300.33548436965793 -1748.4262469932437 3201.3203329439275 833.4467084109783 3843.66589389788 -244.59849051199853 2615.343417406082 -585.2654859367758 2917.00585553376 433.0694433003664 3770.062799630221 -1192.8103851098567 765.288476228714 -207.43607873097062 2201.646172525361 -1086.5562651064247 2555.633222930599 -1407.6643494293094 1357.6374162076972 -3207.3956114649773 929.9540788736194 -1093.9971566796303 1097.1938616381958 -1435.8837313447148 733.1657113069668 -2310.0968548413366 -412.0657154354267 -2563.7545487061143 -717.1351815718226 -751.9138782415539 792.0572752254084 -1540.0645698942244 3595.709577723872 -1585.3605866581202 1636.9746327488683 -1612.538196709007 -1123.38989961287 -2409.748091718182 -144.44348206324503 -570.7298111952841 1877.6295366198756 507.315387731418 2353.3084619133733 -724.7362681869417 855.6340874945745 -1974.9063308052719 181.81438369024545 -1304.5252827331424 -1080.2317773117684 -3813.924611326307 -994.7548818360083 -12357.260152136907 -1121.298887136858 410.38190928287804 -1354.4095227299258 1027.3136444091797 -1033.5622932105325 z" vector-effect="non-scaling-stroke" fill="#000" fill-opacity="1" stroke="#FFF" stroke-width="0.3px" stroke-linejoin="round" stroke-linecap="round"><title>Warren County</title></path>
<path id="28151" d="M -10148605.399735624 -3897206.8684614813 l 576.1652984227985 -13863.853161564562 956.65184080787 -1642.0506181544624 2176.926598949358 -928.2178295464255 2337.274503244087 -678.3597631133161 1437.6955536920577 -876.4082875992171 687.5934386271983 -2356.8912522792816 -269.05830206908286 -2295.6674944800325 -1247.4522825013846 -4430.260818403214 -100.55717050470412 -6629.051358053461 -592.4718530829996 -1631.8460997012444 -1483.8974752500653 -1219.157900112681 -3454.274348460138 -1277.8149599116296 -1212.121430752799 -227.6152335689403 -1551.8414363190532 -2595.1304344329983 1195.814775981009 -2855.964105852414 4158.174341745675 -5473.184649110306 592.4718530811369 -2538.9770878008567 383.2043849211186 -3930.001206604764 -103.2749129217118 -3872.698192547541 -111.42824031412601 -2404.3958035679534 -3761.381144588813 -3884.5789800845087 -2209.539808381349 -1812.3813756424934 32993.91624272242 -1292.7230728748254 13459.858931211755 140.7529271445237 339.96905696205795 11163.37443772424 -444.6100462246686 127.40738535998389 75.25075126253068 23248.545938971452 5287.229087559506 43.537860554642975 -1823.401793288067 1319.8683701972477 -0.653334088623524 3928.4497430650517 5313.522639969364 3218.386848227121 158.70419052243233 4052.247460170649 -512.737574595958 3713.125006806571 -1184.8696318697184 1604.3320263526402 2143.255752224475 2890.6995175615884 -692.2068576496094 2273.695222731214 -1795.051724607125 108.11229193257168 -17924.10302334279 157.8577702487819 -5744.640875237063 -307.0820537339896 14.248449543491006 11915.931467893533 -5687.979031775147 -378.06356208818033 z" vector-effect="non-scaling-stroke" fill="#000" fill-opacity="1" stroke="#FFF" stroke-width="0.3px" stroke-linejoin="round" stroke-linecap="round"><title>Washington County</title></path>
<path id="28153" d="M -9850233.290105084 -3748815.3011383116 l 584.3187259268016 12297.899100259412 587.0363682322204 12282.223656133749 584.3186258096248 12279.380858568009 581.6007832754403 12260.627231922 485.8480263222009 10229.980038815644 -8909.813752941787 144.46644670143723 -23288.587614875287 140.38083127699792 -10204.432410368696 -21.65788381267339 -11327.979585671797 31.964034840930253 57.44130253046751 -9089.146481087897 -44.86019632220268 -42044.07380342577 3661.9651899002492 -273.0390673377551 16369.192264620215 -1216.5664081689902 15698.047945186496 -2785.9207244394347 z" vector-effect="non-scaling-stroke" fill="#000" fill-opacity="1" stroke="#FFF" stroke-width="0.3px" stroke-linejoin="round" stroke-linecap="round"><title>Wayne County</title></path>
<path id="28155" d="M -9928783.036839979 -3993755.5988667132 l 17508.6585723795 -110.84009588463232 25.60292628593743 13916.342271381058 1750.8323945943266 4.94706161506474 -8.126768104732037 9790.883020672947 -7753.400418682024 10.019306402653456 -23.71127417869866 3851.711042773444 -17341.51663343422 -526.2292233398184 -3890.9278398212045 858.5800730213523 -5209.041927581653 2423.2424225099385 -3234.135596778244 1336.3691363818944 -3397.2012571189553 2856.9213175051846 -6495.4488036111 3046.242877458688 -6965.377584461123 -377.4043895509094 -41.966223515570164 -28918.32415088406 -27.94074690900743 -5916.026146094315 28607.87660446763 25.430688755121082 6479.906000606716 -70.80026941699907 z" vector-effect="non-scaling-stroke" fill="#000" fill-opacity="1" stroke="#FFF" stroke-width="0.3px" stroke-linejoin="round" stroke-linecap="round"><title>Webster County</title></path>
<path id="28157" d="M -10203248.702546539 -3632778.209988899 l 8718.577265381813 -7266.06459262874 -690.3112811613828 -3344.267816028092 -3399.919099509716 -4145.102661354933 -1301.8075314443558 -3647.953064383939 122.29931012354791 -1247.9807988624088 1176.7904788926244 -2264.471197312232 293.5181841161102 -1410.3436930291355 266.3406597580761 -495.5646310313605 1915.38290085271 -1088.3882269538008 1883.4524490311742 -4117.33263762854 1792.5773149691522 -1578.3436353551224 2185.3124784864485 -356.9909740155563 2299.080552795902 3004.286230483558 2684.5800607334822 -1266.9492812817916 2047.1649904120713 -2596.006266477052 5.00948840379715 -1522.8376925569028 -2174.736904222518 -2559.365145341959 489.47168970294297 -1131.3853164380416 2340.269098347053 -96.3925903136842 376.48251786641777 -4411.16645260714 4927.333285145462 549.365216113627 1287.7436468601227 -1102.66417768877 2777.977113507688 -354.1973149618134 1124.3266343735158 -1364.3685883027501 4349.544162360951 -533.7312805335969 3808.7508478164673 -2801.0042064581066 1547.2515324745327 995.9572324575856 1619.650167066604 -1768.2750223507173 1472.8711883109063 1150.0036568008363 2970.678721798584 -1461.0336463935673 2572.629611067474 600.2147112851962 447.1223044972867 1496.569825915154 3226.6871679034084 1009.2025047293864 2408.4153283890337 49.11643057875335 4862.707756642252 3456.6902462197468 2121.029814010486 -104.40629229601473 863.1711089741439 539.7305087419227 864.8405673764646 3659.0410688919947 2277.596113713458 933.9652338614687 -87.69903912581503 36601.51037884969 -12913.59389610216 -2.433821115177125 -1543.340894619003 -0.290873021353036 -15075.420345699415 0 -12740.863584879786 -6.341348206624389 -9830.141625741497 0 -6321.512028347701 0 -2231.2817477807403 0 -5158.3104617949575 0 z" vector-effect="non-scaling-stroke" fill="#000" fill-opacity="1" stroke="#FFF" stroke-width="0.3px" stroke-linejoin="round" stroke-linecap="round"><title>Wilkinson County</title></path>
<path id="28159" d="M -9942963.137106769 -3886234.879461222 l 145.60678451694548 -23528.00829636678 11569.876727843657 -70.56838577520102 55.548871183767915 -11719.670783200767 11635.332699749619 -68.64440455008298 1.559029469266534 -11696.519717541523 2296.631523994729 -8.788992355577648 30635.338267650455 -56.06167633552104 -77.92464543133974 24862.11703246273 108.09000104479492 23035.884136293083 -11314.064537994564 -73.87116367835552 -1790.796314433217 970.4948151456192 -3865.011718472466 17.6369862081483 -9.462045393884182 -990.2539018034004 -5831.135896939784 24.93309774249792 -3.673654517158866 -647.216853399761 -27854.688929758966 -156.10738584026694 z" vector-effect="non-scaling-stroke" fill="#000" fill-opacity="1" stroke="#FFF" stroke-width="0.3px" stroke-linejoin="round" stroke-linecap="round"><title>Winston County</title></path>
<path id="28161" d="M -9963912.340501925 -4011019.3640762167 l -29146.551843054593 18.231856183614582 -12.801296167075634 -3996.416322668083 -17455.22543943487 -109.97402896825224 -64.89870653487742 -11690.849388463888 131.91470978222787 -20891.29125648504 -666.5807769112289 -3194.788167171646 23382.9864317514 106.28441907092929 42.52426812238991 -3906.4934491412714 23556.31087891385 213.31041663279757 -34.28684844635427 3885.702172613237 213.39912989735603 12260.890295937192 z" vector-effect="non-scaling-stroke" fill="#000" fill-opacity="1" stroke="#FFF" stroke-width="0.3px" stroke-linejoin="round" stroke-linecap="round"><title>Yalobusha County</title></path>
<path id="28163" d="M -10068789.019497577 -3839893.265583502 l -4110.828911636025 1793.4341894644313 -4964.443437067792 3745.6195703460835 -2728.8550322912633 1100.9600342055783 -2051.813571644947 -119.23555121105164 -1556.080032929778 57.210362042766064 -10.463809495791793 -1889.7307245023549 -7410.536275718361 3.036936913151294 -104.41745972260833 -5775.903795193881 -3865.2345800902694 50.60261358320713 33.730139669030905 -3867.835028229747 -3356.949673805386 -26.433283464983106 2215.201316483319 -639.5227348282933 971.5888345967978 -1807.2161051407456 -2190.4256053287536 -619.9818837610073 -1336.667895147577 -2653.4511645659804 1898.6459766943008 -3781.709024785552 1120.8385494519025 610.7965166633949 698.9747487306595 2748.5895226444118 2652.6314781922847 -1032.580159067642 1471.7942789644003 -2098.5721982866526 -3782.21739959158 -1749.2919576261193 -2985.007504587993 -322.9745505810715 -3189.100958224386 -3066.9066071673296 2259.005981395021 -2952.8569907196797 2445.0948779638857 18.812931935302913 1192.1795375570655 -1830.514709994197 -2909.1929595340043 -3406.0920501518995 639.5527385026217 -2305.2662986745127 -1912.2753785476089 -1699.9564364477992 -1461.4997910093516 1289.74399915291 -2181.726655051112 -681.1719382824376 -31.320851923897862 -2722.0270970403217 11625.202960044146 -11496.628968014847 22868.57951006852 -133.94276149896905 63.118707878515124 -11344.887626516167 9494.659114437178 -210.5380896232091 1986.974319094792 -1541.2682888051495 1412.087184112519 1675.2005908903666 23200.166765982285 9845.219813731499 16308.413062214851 6802.44919865625 -4895.909249082208 4554.790532373823 -1618.4402530938387 7605.193057264201 -910.4499369096011 2774.6382461478934 -1127.8708173632622 1971.4817302799784 -2237.6232280228287 2014.233677258715 -2699.642598990351 1513.1417617150582 -3303.076600432396 1333.1616463256069 -5846.718785408884 1665.6241584620439 -2797.7355769500136 1663.6082532508299 -5520.305111471564 2218.0422321520746 -5533.481237269938 1543.300771091599 -5082.2130806501955 4723.276109100785 -3880.797099802643 3049.305849841796 -5851.205371007323 2860.2423828719184 z" vector-effect="non-scaling-stroke" fill="#000" fill-opacity="1" stroke="#FFF" stroke-width="0.3px" stroke-linejoin="round" stroke-linecap="round"><title>Yazoo County</title></path>
</svg>
