<svg xmlns="http://www.w3.org/2000/svg" xmlns:xlink="http://www.w3.org/1999/xlink" height="1080" width="1920" viewBox="-11583208.159845727 -5312028.210406566 972539.9049820006 446071.1457170192">
<path id="31001" d="M -10940795.984489044 -4967938.934262508 l 528.5448309704661 -1.027807723730802 1.442923240363598 50955.85367857199 -49613.637091444805 -6.431147672235966 -67.9006592426449 -49698.66484616231 329.1717342790216 -1340.6219738908112 z" vector-effect="non-scaling-stroke" fill="#000" fill-opacity="1" stroke="#FFF" stroke-width="0.3px" stroke-linejoin="round" stroke-linecap="round"><title>Adams County</title></path>
<path id="31003" d="M -10890889.782075997 -5174431.962708559 l 138.92438679933548 25985.31756620761 -25506.294287817553 155.57891405653208 -25958.25130912289 43.67955270502716 8.01745236478746 -26053.025549877435 -563.4991510715336 2.999945851974189 39.7458449434489 -52354.73751732241 33966.57325040549 -49.77256519906223 17886.477146772668 -66.51722921431065 -65.01325429417193 28724.295525150374 z" vector-effect="non-scaling-stroke" fill="#000" fill-opacity="1" stroke="#FFF" stroke-width="0.3px" stroke-linejoin="round" stroke-linecap="round"><title>Antelope County</title></path>
<path id="31005" d="M -11288603.505549131 -5070840.523065832 l -24288.905004424974 -1.782948400825262 -39983.61336487718 106.2453422518447 18.480482621118426 -15634.332960018888 -117.88400116376579 -36082.13811906241 40082.68782300688 -13.721834231168032 22212.01770996861 -101.00186242628843 2165.6088173016906 -21.036258222535253 5.564082108438015 19794.227250901982 z" vector-effect="non-scaling-stroke" fill="#000" fill-opacity="1" stroke="#FFF" stroke-width="0.3px" stroke-linejoin="round" stroke-linecap="round"><title>Arthur County</title></path>
<path id="31007" d="M -11583067.56525197 -5070513.812945378 l 11.600083261728287 -15853.186569993384 -34.94972025603056 -9563.516598583199 -32.99434092268348 -9037.192053474486 4.758447939530015 -10872.555034637451 41940.35868140869 8.52426112163812 21264.689177280292 -252.70777633599937 12775.912202412263 56.95467554498464 364.79152229987085 24892.36961797625 -212.62156324833632 14024.547358294949 -157.29499708674848 6403.881406695582 -799.6076797302812 -17.65860098414123 -13678.156452657655 5.489157319068909 -13915.266968041658 218.42870929650962 z" vector-effect="non-scaling-stroke" fill="#000" fill-opacity="1" stroke="#FFF" stroke-width="0.3px" stroke-linejoin="round" stroke-linecap="round"><title>Banner County</title></path>
<path id="31009" d="M -11150605.767459316 -5173846.677974415 l 21156.820256739855 83.10029298253357 32348.43391146511 -117.14472368918359 61.556672777980566 32174.829848667607 -47.64652317017317 19546.39412382897 -35359.6253581848 228.69898518174887 -27467.966020623222 -152.76833193562925 -1586.3022985253483 -5.818431574851274 -239.1093681640923 -51802.14222067408 z" vector-effect="non-scaling-stroke" fill="#000" fill-opacity="1" stroke="#FFF" stroke-width="0.3px" stroke-linejoin="round" stroke-linecap="round"><title>Blaine County</title></path>
<path id="31011" d="M -10942215.403286139 -5148247.38667559 l 25958.25130912289 -43.67955270502716 25506.294287817553 -155.57891405653208 61.44646648876369 21150.742955470458 249.68906125240028 4851.171107955277 -62.563668897375464 24564.20487397723 134.58459645323455 7616.8410873180255 -6194.482826208696 45.49951511062682 17.031770767644048 2147.0259531140327 -17364.61148524657 132.75022523663938 -45.195935904979706 2163.312090313062 -6331.6282162275165 86.94387638103217 -145.82886689901352 2172.9105605604127 -21308.993889337406 6.833151522092521 44.64245539717376 -38782.95749459788 -536.225764516741 4.774076200090349 z" vector-effect="non-scaling-stroke" fill="#000" fill-opacity="1" stroke="#FFF" stroke-width="0.3px" stroke-linejoin="round" stroke-linecap="round"><title>Boone County</title></path>
<path id="31013" d="M -11432269.613185821 -5161703.892460541 l -18329.52894276753 625.7195636630058 -29276.016967447475 -389.78183382563293 -19986.073839986697 175.71514970436692 -6453.523281279951 -124.48526697512716 -4301.9407198335975 -91.97933501470834 -3.115609906613827 -13045.123703428544 -4724.509395563975 -21.901761683635414 27.497806657105684 -19541.358008309267 -74.69203873537481 -32601.63633723557 23193.966826934367 -7.99206044152379 25780.585847094655 -58.22029402945191 25739.28642733209 -321.13545099645853 2664.431344212964 -1.809807294048369 -227.5382636897266 12237.917197437957 422.3459254298359 1039.5604604156688 135.02898385748267 15334.30456828326 544.017349626869 10858.666547880508 -76.58914549276233 12809.692114418373 4440.088096581399 -53.85441592615098 31.502747980877757 6212.150488325395 z" vector-effect="non-scaling-stroke" fill="#000" fill-opacity="1" stroke="#FFF" stroke-width="0.3px" stroke-linejoin="round" stroke-linecap="round"><title>Box Butte County</title></path>
<path id="31015" d="M -11049412.720608782 -5312005.913761899 l 18969.97177010402 0 18964.536285262555 0 18967.254027681425 0 18964.536285256967 3.716056645847857 9580.107620760798 0 654.9804294202477 0 342.43784810230136 312.14554044324905 2250.306044863537 2790.267780973576 845.2237006034702 787.5147965308279 11694.52564338781 7778.720301534049 665.8513991143554 167.01375597249717 1326.2674134913832 63.09330746997148 611.496250282973 148.4531565150246 1846.660263042897 1274.0603642929345 -120.21596804074943 19070.880223046057 524.8096069004387 2492.981654200703 -1818.623190144077 -794.9607376353815 -3890.9278398212045 -1314.5109137715772 -4022.286288427189 -734.4782447963953 -4112.878321953118 -265.41383375879377 -12320.516559151933 259.24150423146784 -5562.350858321413 -487.6268553119153 -25365.769386490807 -8849.58146054577 -4094.7599152438343 -1785.7496725944802 -2817.4122425746173 395.48945245333016 -2599.991362111643 -685.937643006444 -2477.6921168584377 -2150.8325728820637 -928.5683436132967 -1106.511291058734 -1490.2389514558017 -1378.685674821958 -3637.270145956427 -2195.187262294814 -1911.4919073376805 -482.39176538493484 -1938.669517396018 228.82996000628918 -3655.3885526601225 1848.9884011829272 -9018.436937235296 4871.1722927205265 -14274.823036143556 6170.823346831836 -46.317543575540185 -12103.31623869948 z" vector-effect="non-scaling-stroke" fill="#000" fill-opacity="1" stroke="#FFF" stroke-width="0.3px" stroke-linejoin="round" stroke-linecap="round"><title>Boyd County</title></path>
<path id="31017" d="M -11097100.513291111 -5173880.722405122 l -32348.43391146511 117.14472368918359 -21156.820256739855 -83.10029298253357 7.351873124018312 -52257.67416652851 -1739.700445516035 -32.57871273998171 -11.46089817583561 -52559.73244038969 -1703.74436131306 -2.426883134059608 10.798992481082678 -10462.101361926645 3670.319232787937 1937.9120442662388 1806.5461963731796 1039.7444967543706 5325.461985744536 2876.520561972633 6762.6953025031835 987.8724827980623 5405.171649616212 1110.9525852194056 10493.730233700946 2277.8947651833296 8669.6576081682 2850.8695532847196 14095.5445766747 3013.0322302617133 1761.7242050506175 176.38640718907118 170.55628323182464 46609.34182602912 1360.4351630266756 -8.597119124606252 156.3988751862198 52418.43947626371 z" vector-effect="non-scaling-stroke" fill="#000" fill-opacity="1" stroke="#FFF" stroke-width="0.3px" stroke-linejoin="round" stroke-linecap="round"><title>Brown County</title></path>
<path id="31019" d="M -10989618.362751242 -4968029.826359385 l -329.1717342790216 1340.6219738908112 -11377.183245876804 2200.0064069200307 -4468.363358564675 2272.0042383112013 -4382.201961370185 965.8198335273191 -7720.227321743965 -600.5822702702135 -2417.8587834350765 686.2709599444643 -3377.048688447103 -1635.3387667993084 -16976.379283288494 -2241.7894860757515 -23399.180787881836 -3149.7452175468206 -3018.040413049981 4284.578218953684 -648.164925666526 -2583.9917554771528 -379.8699038941413 -1665.1642216192558 -27.160842560231686 -12757.971037913114 152.6210256293416 -24137.195313953795 -62.560329312458634 -14145.206067121588 24314.619695482776 -78.52336392085999 51099.86305642128 53.58491949364543 2955.64302081801 -5.018250662833452 z" vector-effect="non-scaling-stroke" fill="#000" fill-opacity="1" stroke="#FFF" stroke-width="0.3px" stroke-linejoin="round" stroke-linecap="round"><title>Buffalo County</title></path>
<path id="31021" d="M -10701995.895805195 -5141766.68428188 l 516.3745646309108 828.4580993251875 6566.110648592934 7048.113596985117 1092.5398630537093 3427.3290415862575 -423.97062140516937 2901.3317253869027 -959.3697834536433 2696.429676306434 -538.1166041400284 2834.076407284476 138.60576467216015 2017.584657151252 141.32370732165873 841.1416455889121 -293.5181841161102 684.5112540153787 -1163.2017667777836 1550.8921727873385 -722.9244905933738 1201.2228858303279 -293.5180840007961 1131.92391221039 -13.14359931834042 1058.4209482846782 -38234.75067869201 -160.04147109016776 63.230250008404255 -8670.3519832436 -12351.450761385262 -36.25458205677569 34.06732640787959 -40944.74120181706 10519.132388204336 -176.5034422101453 16607.193781215698 275.69445038959384 264.94072204455733 -4719.194912081584 6275.736786009744 -452.3946692738682 2227.0783404503018 3114.3205570206046 4650.089124439284 2813.180589742027 4041.310616578907 3346.2008479209617 1266.4765795934945 5961.73839254491 -377.7687999624759 1439.6162568842992 -1103.4109328668565 2926.062898845412 -105.9927554614842 1760.3199647124857 421.25297909229994 1347.411448464729 z" vector-effect="non-scaling-stroke" fill="#000" fill-opacity="1" stroke="#FFF" stroke-width="0.3px" stroke-linejoin="round" stroke-linecap="round"><title>Burt County</title></path>
<path id="31023" d="M -10786887.37181706 -5080718.462978793 l -885.6439770497382 10180.851013558917 -98.519307827577 19202.883581318893 66.78891148976982 32193.33303607814 -270.84020978212357 -0.590412099845707 -23570.671427184716 -50.18722612876445 -27322.137265039608 -75.57564966473728 3.929582230746746 -50817.09303983208 2047.6431799884886 -490.5158163709566 2717.7610056940466 -36.227960746735334 5104.861089030281 905.6582032963634 3115.6791692953557 -268.79478998016566 16370.667241539806 -1397.6820228109136 9688.817985301837 -3025.753654187545 4253.295973915607 -2265.407217580825 4253.295973911881 -2664.8003796804696 2228.5640246700495 -997.2236432526261 1751.752819325775 -300.0394515963271 z" vector-effect="non-scaling-stroke" fill="#000" fill-opacity="1" stroke="#FFF" stroke-width="0.3px" stroke-linejoin="round" stroke-linecap="round"><title>Butler County</title></path>
<path id="31025" d="M -10667327.617758991 -4997842.625193798 l 162.54703642241657 1864.2501859115437 -608.7785078622401 2796.5238662753254 -864.2479976918548 2720.269228001125 -434.8417913299054 3459.431333151646 244.59852013364434 1752.597506929189 1097.9754480198026 1985.6574995191768 244.59852013364434 1238.5869882758707 -868.951378185302 1357.2616752590984 -31804.88020018488 119.49629314243793 -21335.599136315286 93.79606023710221 -16800.778264384717 -69.54100320953876 -11.129277411848307 -34184.70336086955 12734.055851237848 108.43931399658322 141.26476777531207 -4102.654223040678 7027.460093412548 365.9765090411529 3696.1549677476287 3098.336198597215 4439.009642636403 1500.7766919825226 2713.2314040157944 -276.1255147960037 2559.2249470297247 -1218.6476087467745 4683.608133150265 -3440.6527531621978 3777.687797913328 -2036.1433405550197 4579.427294598892 -1171.4263386745006 10572.090312153101 -468.6101101767272 5204.512325907126 744.9593168292195 3997.319672908634 1812.638952953741 603.343023005873 1127.933403590694 -394.0753546152264 778.3060037828982 -668.5693417675793 803.4632928390056 -231.00960778445005 1228.4858444696292 565.2943287268281 1725.3821480683982 926.7564739063382 1120.073737051338 1959.505603177473 1732.0786227583885 755.53770002909 1537.3661461761221 46.20192155428231 1403.9396637529135 -453.8661885242909 3098.7494036192074 201.11434100568295 1964.5493608759716 1386.0581472814083 3615.0299733104184 z" vector-effect="non-scaling-stroke" fill="#000" fill-opacity="1" stroke="#FFF" stroke-width="0.3px" stroke-linejoin="round" stroke-linecap="round"><title>Cass County</title></path>
<path id="31027" d="M -10814725.90450544 -5281331.637845959 l 2568.284111028537 1325.9160934342071 2633.5103296730667 633.2623604219407 5818.726376064122 207.37486105505377 1097.9755481313914 311.0538412705064 2448.7026434410363 1362.5903540952131 522.0579821486026 13019.695564339869 -112.88063533604145 29520.78657670971 -210.28318602405488 8220.839422791265 -10.131298176944256 12975.542544469237 -6074.7029427960515 43.230158858932555 -32879.87260391377 -120.65757985971868 14.918036280199885 -13100.99572921358 -13103.191171394661 29.71415536198765 -79.2545793838799 -52499.85793518368 14.344086486846209 -11558.091699977405 20561.469774922356 -3840.174985099584 2818.3182161245495 426.55515036545694 2282.9191541913897 1190.542726255022 1913.303781727329 1820.755641802214 3337.410523183644 4411.363333122805 4065.7703985180706 3872.134047852829 z" vector-effect="non-scaling-stroke" fill="#000" fill-opacity="1" stroke="#FFF" stroke-width="0.3px" stroke-linejoin="round" stroke-linecap="round"><title>Cedar County</title></path>
<path id="31029" d="M -11360315.790290851 -4916818.537962425 l -3.353907726705074 -3754.6266341330484 -5.435484850779176 -9136.907855569385 -2.71774242632091 -9138.257209772244 -2.71774242259562 -9150.345731705427 -5.435584958642721 -9155.309434067458 0 -9163.874048078433 -0.895831855013967 -1511.7011658763513 21449.71895341389 -148.75944933015853 26480.67390205711 -237.86541308648884 16356.725372202694 297.4821334797889 14335.831670308486 7.783274576067924 102.96830259077251 25397.125949439593 183.89757240377367 25515.48734055739 -45380.71512381546 137.30057655461133 z" vector-effect="non-scaling-stroke" fill="#000" fill-opacity="1" stroke="#FFF" stroke-width="0.3px" stroke-linejoin="round" stroke-linecap="round"><title>Chase County</title></path>
<path id="31031" d="M -11268646.983360404 -5312020.778277031 l 10621.6455710046 0 18967.254227904603 0 18964.536285264418 0 18961.81854283251 7.432123629376292 18964.536285260692 7.432391502894461 18964.536185143515 0 9167.520346455276 0 -7.386382177472115 22844.722222764976 -10.798992481082678 10462.101361926645 1703.74436131306 2.426883134059608 11.46089817583561 52559.73244038969 1739.700445516035 32.57871273998171 -7.351873124018312 52257.67416652851 -11133.838727684692 -44.850457212887704 -38220.09032569826 -94.20304318796843 -26178.9979706835 -208.6544870492071 -17177.260893566534 -146.10583486501127 -20972.14155547321 -299.8675658646971 -26463.53058915399 -158.2646015221253 -15760.720818495378 -222.17285919189453 -23299.94287085533 76.35567569173872 -25465.32893784903 -475.86178352311254 -3793.3220777157694 -60.90961893927306 218.07966920174658 -48790.49514730368 -83.60060362890363 -3345.5745259132236 -3074.3095979988575 -22.929614583030343 44.30894219875336 -38912.62083846796 -68.34883151389658 -12824.119112914428 -2009.9842804893851 -2.882104141637683 273.2919102497399 -32640.944383627735 10918.050317928195 0 18964.536285256967 0 18964.536285256967 0 18967.254027687013 0 18967.254027681425 0 z" vector-effect="non-scaling-stroke" fill="#000" fill-opacity="1" stroke="#FFF" stroke-width="0.3px" stroke-linejoin="round" stroke-linecap="round"><title>Cherry County</title></path>
<path id="31033" d="M -11460370.797890276 -5012291.851986792 l -13246.367179812863 -7.202053814195096 -13251.802564550191 -3.601028916426003 -13251.802664659917 0 -8364.48210622929 0 21.794352551922202 -7081.909704372287 698.7524437047541 -144.21268452052027 -24.70969868823886 -36331.34978117421 -153.50813065283 -14864.225020163693 799.6076797302812 17.65860098414123 157.29499708674848 -6403.881406695582 41953.30032366514 -135.5683711245656 39569.17123460956 -72.01510154549032 2.559680374339223 6501.365497340448 3037.4629578683525 20.92371005564928 -114.32756607607007 25712.041629187763 22.261560451239347 25630.043249580078 -1186.5541184097528 30.554612293839455 -17.873234793543816 7131.377852885053 -3610.1442971471697 0 -6534.310497164726 0 -13249.084922239184 0 z" vector-effect="non-scaling-stroke" fill="#000" fill-opacity="1" stroke="#FFF" stroke-width="0.3px" stroke-linejoin="round" stroke-linecap="round"><title>Cheyenne County</title></path>
<path id="31035" d="M -10940265.996734833 -4916984.108391659 l -1.442923240363598 -50955.85367857199 23572.78660882637 -12.03798567969352 26785.911500534043 -26.720868980512023 104.97427981905639 2.642944384366274 74.13443940319121 50963.63631156087 -50033.3112377692 26.58058984298259 z" vector-effect="non-scaling-stroke" fill="#000" fill-opacity="1" stroke="#FFF" stroke-width="0.3px" stroke-linejoin="round" stroke-linecap="round"><title>Clay County</title></path>
<path id="31037" d="M -10787432.12704755 -5080625.628408473 l -1751.752819325775 300.0394515963271 -2228.5640246700495 997.2236432526261 -4253.295973911881 2664.8003796804696 -4253.295973915607 2265.407217580825 -9688.817985301837 3025.753654187545 -16370.667241539806 1397.6820228109136 -126.57190473005176 -863.9789025057107 15.589181495830417 -51732.39118504897 25883.33318049088 15.667773151770234 12689.194096453488 32.376094330102205 z" vector-effect="non-scaling-stroke" fill="#000" fill-opacity="1" stroke="#FFF" stroke-width="0.3px" stroke-linejoin="round" stroke-linecap="round"><title>Colfax County</title></path>
<path id="31039" d="M -10748437.60825439 -5163356.637497345 l -34.06732640787959 40944.74120181706 -39045.300931707025 -111.15196390915662 -12689.194096453488 -32.376094330102205 61.4530343413353 -52000.58661112748 21783.99393391423 24.90338591951877 29851.315316626802 68.10614412464201 z" vector-effect="non-scaling-stroke" fill="#000" fill-opacity="1" stroke="#FFF" stroke-width="0.3px" stroke-linejoin="round" stroke-linecap="round"><title>Cuming County</title></path>
<path id="31041" d="M -11159914.194520311 -5122083.567779379 l 27467.966020623222 152.76833193562925 35359.6253581848 -228.69898518174887 47500.79371278733 -188.57084155548364 4263.201425712556 119.05381826031953 1092.4892600048333 26.70493358746171 -49.9871267862618 51537.060879522 1024.5843706261367 14.097118683159351 -43.972646018490195 16346.659035467543 -435.0394643228501 35028.46126012504 -24314.619695482776 78.52336392085999 -38385.17690790258 -42.36579890642315 -50475.472589159384 23.759870047681034 -1549.5668665617704 9.003701742738485 62.22904250584543 -16978.97060518898 364.6840989906341 -17308.1325186491 -198.81505208462477 -17035.862714287825 -1668.9013606924564 3.857958392240107 -158.18410586379468 -9533.044567522593 -46.195362286642194 -24552.573057063855 z" vector-effect="non-scaling-stroke" fill="#000" fill-opacity="1" stroke="#FFF" stroke-width="0.3px" stroke-linejoin="round" stroke-linecap="round"><title>Custer County</title></path>
<path id="31043" d="M -10755269.457371078 -5241712.70329783 l 548.9981216620654 357.75163760688156 14319.882645670325 2411.798567594029 4921.865168930963 829.6047769896686 2660.6880542598665 943.8172369878739 1905.150454344228 1496.6416579121724 1549.1237940005958 6230.998787858523 -1524.6639119535685 6650.216567951255 -551.7055164910853 6377.015697185881 3753.227917311713 4604.381173015572 138.60596489720047 2433.6802600044757 1570.8658335153013 1341.565508321859 1195.8147759828717 1980.758963065222 652.26258687675 2538.7349003078416 57.24034218862653 1031.9054985390976 -43489.63046373613 -229.70046924240887 27.831876447424293 -22830.480334848166 496.4849289357662 -1190.7788161188364 -31.16823290474713 -13160.744253732264 10429.360327893868 26.978271414525807 z" vector-effect="non-scaling-stroke" fill="#000" fill-opacity="1" stroke="#FFF" stroke-width="0.3px" stroke-linejoin="round" stroke-linecap="round"><title>Dakota County</title></path>
<path id="31045" d="M -11466643.390254637 -5312028.210406566 l 18961.81854283437 0 4917.226037422195 0.963383351452649 -120.23329079523683 19766.70802081935 59.22063326835632 12932.875440627337 2147.352532124147 -15.167797782458365 -40.632949970662594 13278.181376364082 40.96167642995715 38958.57818407286 -25739.28642733209 321.13545099645853 -25780.585847094655 58.22029402945191 -23193.966826934367 7.99206044152379 -3957.4068958312273 13.122289435938 -74.69226137176156 -31584.138762027025 38.96393684670329 -21007.74653452076 -2541.3119874019176 27.15060092881322 -62.67521392554045 -31029.317107611336 -3.556432195007801 -1728.5568991256878 17419.73220340535 0 18967.254027679563 0 z" vector-effect="non-scaling-stroke" fill="#000" fill-opacity="1" stroke="#FFF" stroke-width="0.3px" stroke-linejoin="round" stroke-linecap="round"><title>Dawes County</title></path>
<path id="31047" d="M -11068049.153304983 -5019197.508864614 l 62.560329312458634 14145.206067121588 -152.6210256293416 24137.195313953795 27.160842560231686 12757.971037913114 379.8699038941413 1665.1642216192558 648.164925666526 2583.9917554771528 -3015.08740625903 -1037.2729514669627 -2887.1817566175014 487.6064749555662 -6481.687001140788 -81.902588670142 -3413.9452530872077 -823.169628823176 -2697.715871972963 519.9196359449998 -4323.536478405818 -1308.0727292476222 -2355.2972296010703 175.28071623761207 -6497.828104665503 -2216.640685056336 -31159.43076425977 0.878210939466953 -26891.219850141555 -36.85761608276516 -126.0113258715719 -26549.2696745079 23.15656915679574 -24438.633489166386 50475.472589159384 -23.759870047681034 z" vector-effect="non-scaling-stroke" fill="#000" fill-opacity="1" stroke="#FFF" stroke-width="0.3px" stroke-linejoin="round" stroke-linecap="round"><title>Dawson County</title></path>
<path id="31049" d="M -11380859.981802203 -5012281.048916066 l -13251.802764775231 -3.601022248156369 -13251.802664658055 -7.202048477716744 -13249.084922235459 0 -3107.34777023457 0 17.873234793543816 -7131.377852885053 1186.5541184097528 -30.554612293839455 -22.261560451239347 -25630.043249580078 34164.49997295253 13.915102965198457 27604.221299992874 -3.993438034318388 18.921975722536445 25730.97999479808 395.7357322499156 7061.877125755884 -7253.704087220132 0 z" vector-effect="non-scaling-stroke" fill="#000" fill-opacity="1" stroke="#FFF" stroke-width="0.3px" stroke-linejoin="round" stroke-linecap="round"><title>Deuel County</title></path>
<path id="31051" d="M -10776620.177475965 -5266301.979073071 l 375.0510575324297 1061.2712290799245 587.0362681224942 820.8314054263756 1353.4450379647315 776.3962570363656 1407.8001867961138 306.84365616273135 4636.500212091953 -306.84365616273135 1152.3307970743626 155.27159034181386 1527.3816543836147 476.88949982542545 1342.5739681515843 805.8512782948092 573.4475560002029 1149.5125600658357 -334.2847209367901 1396.9676742563024 -679.44011124596 1067.9122388046235 -559.8588438760489 1256.2121970942244 54.35524894669652 1961.5726199746132 1307.2430162969977 1791.2866800632328 4595.733875498176 3570.4771085949615 1005.5716048963368 2425.085152650252 421.25297909229994 2922.5611571222544 1214.8391731791198 2058.533611850813 1369.7411449179053 892.6435147589073 -1369.7653321679682 1844.1456308132038 -10429.360327893868 -26.978271414525807 31.16823290474713 13160.744253732264 -496.4849289357662 1190.7788161188364 -27.831876447424293 22830.480334848166 10.909087460488081 2090.6312573496252 -10679.32113546133 -27.678415259346366 -21733.232246104628 -24.2198453778401 -6.56673676520586 -13079.776690351777 10.131298176944256 -12975.542544469237 210.28318602405488 -8220.839422791265 112.88063533604145 -29520.78657670971 -522.0579821486026 -13019.695564339869 3016.7146144825965 629.3908313326538 1062.6445962693542 795.9336943002418 790.8684516679496 1043.866870735772 1152.3305968437344 1032.6477183662355 2035.6030918583274 729.0772076770663 10033.973609060049 766.0251423018053 1962.2234457060695 1191.4706966308877 1516.5106846876442 1668.5450113490224 1242.016697537154 1856.879379266873 z" vector-effect="non-scaling-stroke" fill="#000" fill-opacity="1" stroke="#FFF" stroke-width="0.3px" stroke-linejoin="round" stroke-linecap="round"><title>Dixon County</title></path>
<path id="31053" d="M -10748471.675580798 -5122411.896295528 l 12351.450761385262 36.25458205677569 -63.230250008404255 8670.3519832436 98.7383845821023 23774.833315978758 1050.6330201495439 0.297524450346828 -36.958404898643494 4311.427873454057 1073.008126474917 2168.288821928203 2139.226097976789 -18.276170291937888 97.51565129496157 2176.123710412532 2074.994751786813 9.507633707486093 -6.45675310306251 2153.2033648518845 2146.016586922109 44.556400186382234 -15.139673395082355 2116.926812246442 4276.11448664777 11.433856309391558 -9.907991275191307 6454.82498636283 -13911.029846698046 397.735217185691 -5403.8147996570915 -4221.267091720365 -6173.847084604204 -3099.187805452384 -6463.741591878235 -1262.9178396230564 -11052.228089826182 1099.7750838017091 -1209.4036475345492 -453.18881360441446 -2468.632913507521 -2109.1190197067335 -1227.5220542401075 -568.1511090425774 -978.3939620461315 96.70893818326294 -3723.3325778041035 1015.3852398628369 -2894.4154710657895 36.26177933625877 -8085.3389919400215 -1148.3559573823586 -544.7552304901183 92.83457032032311 -84.84946495480835 -41897.4198509641 z" vector-effect="non-scaling-stroke" fill="#000" fill-opacity="1" stroke="#FFF" stroke-width="0.3px" stroke-linejoin="round" stroke-linecap="round"><title>Dodge County</title></path>
<path id="31055" d="M -10679761.052696772 -5070469.552372161 l -2232.1221089381725 8073.142572033219 1807.3111263792962 1013.4684038814157 5030.575666818768 1729.8898992948234 1935.0457211267203 293.10963292978704 1046.3380416128784 1356.8732384312898 -1638.8099948111922 2890.4089752575383 -2394.3473944999278 2672.588064778596 -1228.4279854111373 712.3243791349232 -866.9657401237637 6274.865040502511 108.71049789339304 2435.113181241788 1521.9461695291102 1853.0213020499796 -44305.33913008496 2128.5671931020916 -1087.1044022776186 -2738.7197931390256 -1241.110859265551 -2083.1494628619403 -2989.5371062643826 -3348.428018907085 371.42733744345605 -1475.8442132910714 -298.9537106268108 -5381.208583673462 -765.50268326886 -2248.581129560247 -4280.473583968356 -4516.828195706941 -824.3875050637871 -1508.089804314077 -412.1937525290996 -1339.3812058921903 -448.4305659402162 -1061.983827078715 -108.71044022776186 -687.9382373066619 -4144.585533685982 -4678.073422190733 13911.029846698046 -397.735217185691 z" vector-effect="non-scaling-stroke" fill="#000" fill-opacity="1" stroke="#FFF" stroke-width="0.3px" stroke-linejoin="round" stroke-linecap="round"><title>Douglas County</title></path>
<path id="31057" d="M -11360294.684416644 -4865957.064689547 l -5.435484850779176 -9082.953129632398 0 -9091.285926057026 -5.435484847053886 -9096.087305487134 -5.435584966093302 -9104.465896537527 0 -9116.434894679114 -4.799319542944431 -5370.246120484546 33508.54435492121 -42.46766701154411 45380.71512381546 -137.30057655461133 2163.493746967986 -15.921459366567433 -188.0188425835222 3081.154252029024 -16.589164478704333 29701.995340680704 128.57000436261296 18274.01338310074 -7970.137472607195 0 -1713.874203234911 0 -21618.104092158377 0 -23334.695937709883 0 z" vector-effect="non-scaling-stroke" fill="#000" fill-opacity="1" stroke="#FFF" stroke-width="0.3px" stroke-linejoin="round" stroke-linecap="round"><title>Dundy County</title></path>
<path id="31059" d="M -10889729.632829491 -4917012.441668946 l -74.13443940319121 -50963.63631156087 50803.86464171857 -12.916810140945017 -31.95303531549871 50998.32159767952 -50330.64548635855 -22.352755459956825 z" vector-effect="non-scaling-stroke" fill="#000" fill-opacity="1" stroke="#FFF" stroke-width="0.3px" stroke-linejoin="round" stroke-linecap="round"><title>Fillmore County</title></path>
<path id="31061" d="M -10990168.623343198 -4865957.064689547 l -17151.414868474007 0 -20772.120222423226 0 -2562.575815398246 0 -9914.888832200319 0 -30.052032377570868 -51075.83934393525 25170.554926224053 37.39593743905425 25209.962025972083 3.946069863624871 98.29344058036804 19124.729059716687 z" vector-effect="non-scaling-stroke" fill="#000" fill-opacity="1" stroke="#FFF" stroke-width="0.3px" stroke-linejoin="round" stroke-linecap="round"><title>Franklin County</title></path>
<path id="31063" d="M -11156806.94804533 -4968228.211629799 l 26891.219850141555 36.85761608276516 61.22249167226255 38352.912189999595 -12679.509412072599 -53.386194691993296 33.06077557429671 12776.531446528621 -11466.906421504915 177.91232563368976 -7917.374362576753 115.100774849765 -10975.876258926466 -333.18544431589544 -14793.91137492098 225.09304575342685 -28721.64590329863 68.94167811237276 -2108.5020298324525 5.988478763028979 -244.34583701565862 -3731.124891359359 -383.71605837345123 -24382.598038090393 202.15753111615777 -16768.6432180088 375.0358097590506 -6472.931823847815 16966.53332013823 11.307660285383463 z" vector-effect="non-scaling-stroke" fill="#000" fill-opacity="1" stroke="#FFF" stroke-width="0.3px" stroke-linejoin="round" stroke-linecap="round"><title>Frontier County</title></path>
<path id="31065" d="M -11090565.531304523 -4865957.064689547 l -10082.419788390398 0 -23331.978295389563 0 -23331.978295393288 0 -4428.121117947623 0 -1759.4041067101061 0 45.19626986049116 -6871.892747003585 -224.75115760602057 -33816.97881264519 -288.872965419665 -10291.44799705036 11466.906421504915 -177.91232563368976 35034.23870923184 31.55429143831134 15347.725507657975 -24.976844946853817 1308.0036828666925 11.685842644423246 59.44137981906533 38205.924186228774 z" vector-effect="non-scaling-stroke" fill="#000" fill-opacity="1" stroke="#FFF" stroke-width="0.3px" stroke-linejoin="round" stroke-linecap="round"><title>Furnas County</title></path>
<path id="31067" d="M -10738290.41877521 -4865957.064689547 l -12372.42340307869 0 -23331.978095168248 0 -2373.08822578378 0 -12316.273913614452 0 9.688135279342532 -41054.36827810202 137.70287802629173 -9883.122698605992 176.21886524930596 -828.386982768774 97.07248840481043 -24602.477190980688 24270.09156520292 81.86522257141769 13674.594006311148 -111.15131589118391 12036.639352738857 118.18273013178259 -3.231270857155323 38123.54945772607 z" vector-effect="non-scaling-stroke" fill="#000" fill-opacity="1" stroke="#FFF" stroke-width="0.3px" stroke-linejoin="round" stroke-linecap="round"><title>Gage County</title></path>
<path id="31069" d="M -11352975.427436976 -5122452.531751063 l 117.88400116376579 36082.13811906241 -18.480482621118426 15634.332960018888 -7862.048464335501 -66.77733747754246 -31.060475639998913 25728.93197283894 -27604.221299992874 3.993438034318388 -34164.49997295253 -13.915102965198457 114.32756607607007 -25712.041629187763 -3037.4629578683525 -20.92371005564928 -2.559680374339223 -6501.365497340448 -82.03879116475582 -38327.95486371871 99.96545933000743 -6933.239615621045 -3154.3483118861914 -47.29504103399813 -1037.9422642383724 -4259.721925727092 -545.3529608789831 -10610.610642607324 168.20597697980702 -24272.6768302517 19715.678908165544 -338.11973468307406 13901.57455935888 -0.448090353049338 34391.36898386665 -247.6404811339453 -141.15689919143915 39931.828828494996 z" vector-effect="non-scaling-stroke" fill="#000" fill-opacity="1" stroke="#FFF" stroke-width="0.3px" stroke-linejoin="round" stroke-linecap="round"><title>Garden County</title></path>
<path id="31071" d="M -11044230.118742999 -5122202.310522333 l -1092.4892600048333 -26.70493358746171 -100.51671344600618 -51927.85284331441 20295.875537585467 -27.14855088479817 31086.739025451243 -63.14861468132585 15.916683431714773 20822.371325467713 209.16654021665454 31256.95073066186 -32190.91672067903 -14.921794882044196 z" vector-effect="non-scaling-stroke" fill="#000" fill-opacity="1" stroke="#FFF" stroke-width="0.3px" stroke-linejoin="round" stroke-linecap="round"><title>Garfield County</title></path>
<path id="31073" d="M -11129915.728195189 -4968191.354013716 l 31159.43076425977 -0.878210939466953 6497.828104665503 2216.640685056336 -83.15888788923621 39174.21834987402 222.63809102773666 9692.654064336792 -15347.725507657975 24.976844946853817 -35034.23870923184 -31.55429143831134 -33.06077557429671 -12776.531446528621 12679.509412072599 53.386194691993296 z" vector-effect="non-scaling-stroke" fill="#000" fill-opacity="1" stroke="#FFF" stroke-width="0.3px" stroke-linejoin="round" stroke-linecap="round"><title>Gosper County</title></path>
<path id="31075" d="M -11290680.721904 -5122567.25544772 l -22212.01770996861 101.00186242628843 -40082.68782300688 13.721834231168032 -9172.167106203735 28.494816293008626 141.15689919143915 -39931.828828494996 6466.324911406264 44.04663204681128 262.4925838056952 -13108.48379992228 25465.32893784903 475.86178352311254 23299.94287085533 -76.35567569173872 15760.720818495378 222.17285919189453 z" vector-effect="non-scaling-stroke" fill="#000" fill-opacity="1" stroke="#FFF" stroke-width="0.3px" stroke-linejoin="round" stroke-linecap="round"><title>Grant County</title></path>
<path id="31077" d="M -10942232.993992077 -5122286.59316379 l 536.225764516741 -4.774076200090349 -44.64245539717376 38782.95749459788 -8.350186320021749 12893.770295168273 -33149.04324397631 -17.216229299083352 -17268.765403674915 -24.931089494377375 -804.6171681378037 13.948567439801991 81.93248105980456 -15261.718229316175 -156.17790599912405 -36261.79509794712 26795.48508805968 -15.214798192493618 z" vector-effect="non-scaling-stroke" fill="#000" fill-opacity="1" stroke="#FFF" stroke-width="0.3px" stroke-linejoin="round" stroke-linecap="round"><title>Greeley County</title></path>
<path id="31079" d="M -10940795.984489044 -4967938.934262508 l -48822.3782621976 -90.89209687709808 -60.664781019091606 -51197.639200319536 43081.856319444254 85.17101422697306 5320.625046115369 -39.26204364094883 535.4465280827135 81.03405529633164 -11.995784115046263 24417.63585696835 z" vector-effect="non-scaling-stroke" fill="#000" fill-opacity="1" stroke="#FFF" stroke-width="0.3px" stroke-linejoin="round" stroke-linecap="round"><title>Hall County</title></path>
<path id="31081" d="M -10940267.439658074 -4967939.962070231 l -528.5448309704661 1.027807723730802 42.889066310599446 -26743.952414345928 12310.902855286375 -11519.845175016671 2942.8095711860806 -2870.606484644115 11434.384917695075 -8897.571302358992 11423.655427269638 -11248.357148924842 11043.168886475265 -9293.334580110386 1377.826025351882 -781.0718911243603 63.81334571354091 19895.288944133557 185.01299369335175 184.65450908523053 62.77985134907067 51235.00888092257 -26785.911500534043 26.720868980512023 z" vector-effect="non-scaling-stroke" fill="#000" fill-opacity="1" stroke="#FFF" stroke-width="0.3px" stroke-linejoin="round" stroke-linecap="round"><title>Hamilton County</title></path>
<path id="31083" d="M -11040569.623081693 -4865957.064689547 l -13414.371520545334 0 -23331.978295391425 0 -12923.392410188913 0 -326.1659967042506 0 -186.0137559156865 -12934.044406968169 -59.44137981906533 -38205.924186228774 21480.09205800481 73.62132252659649 28731.219268182293 -9.49207326490432 z" vector-effect="non-scaling-stroke" fill="#000" fill-opacity="1" stroke="#FFF" stroke-width="0.3px" stroke-linejoin="round" stroke-linecap="round"><title>Harlan County</title></path>
<path id="31085" d="M -11281426.530812114 -4916998.306205991 l -183.89757240377367 -25515.48734055739 -102.96830259077251 -25397.125949439593 10842.738370578736 42.72824494447559 27555.35193221271 -314.2157638296485 24779.267138728872 -28.33666951674968 -375.0358097590506 6472.931823847815 -202.15753111615777 16768.6432180088 383.71605837345123 24382.598038090393 244.34583701565862 3731.124891359359 -22932.81119021587 -157.90217335429043 -37845.05518385582 -0.879778919741511 z" vector-effect="non-scaling-stroke" fill="#000" fill-opacity="1" stroke="#FFF" stroke-width="0.3px" stroke-linejoin="round" stroke-linecap="round"><title>Hayes County</title></path>
<path id="31087" d="M -11217310.560011964 -4865957.064689547 l -23331.978295391425 0 -23331.978195283562 0 -15364.558565206826 0 -128.57000436261296 -18274.01338310074 16.589164478704333 -29701.995340680704 188.0188425835222 -3081.154252029024 37845.05518385582 0.879778919741511 22932.81119021587 157.90217335429043 2108.5020298324525 -5.988478763028979 -287.6516792792827 25468.010779933073 280.74753314629197 2712.542813337408 z" vector-effect="non-scaling-stroke" fill="#000" fill-opacity="1" stroke="#FFF" stroke-width="0.3px" stroke-linejoin="round" stroke-linecap="round"><title>Hitchcock County</title></path>
<path id="31089" d="M -10942731.139139902 -5226652.149796938 l -39.7458449434489 52354.73751732241 -22471.169150581583 29.698947865515947 -28798.45601798594 20.547866948880255 -31086.739025451243 63.14861468132585 -20295.875537585467 27.14855088479817 -1324.2563285194337 -11.850359112024307 53.66078129783273 -52123.25345105585 -1162.6204278841615 -17.194719127379358 -110.87154116481543 -27923.62316695694 -24.04267230257392 -24690.46189136803 -1270.8125564213842 -6651.137907856144 14274.823036143556 -6170.823346831836 9018.436937235296 -4871.1722927205265 3655.3885526601225 -1848.9884011829272 1938.669517396018 -228.82996000628918 1911.4919073376805 482.39176538493484 3637.270145956427 2195.187262294814 1490.2389514558017 1378.685674821958 928.5683436132967 1106.511291058734 2477.6921168584377 2150.8325728820637 2599.991362111643 685.937643006444 2817.4122425746173 -395.48945245333016 4094.7599152438343 1785.7496725944802 25365.769386490807 8849.58146054577 5562.350858321413 487.6268553119153 12320.516559151933 -259.24150423146784 4112.878321953118 265.41383375879377 4022.286288427189 734.4782447963953 3890.9278398212045 1314.5109137715772 1818.623190144077 794.9607376353815 11.633898539468646 50462.352829333395 z" vector-effect="non-scaling-stroke" fill="#000" fill-opacity="1" stroke="#FFF" stroke-width="0.3px" stroke-linejoin="round" stroke-linecap="round"><title>Holt County</title></path>
<path id="31091" d="M -11288515.113086699 -5122588.291705943 l -2165.6088173016906 21.036258222535253 -70.90561757609248 -52231.36851639673 26463.53058915399 158.2646015221253 20972.14155547321 299.8675658646971 17177.260893566534 146.10583486501127 3.11583255045116 13061.408885308541 288.7613119594753 13256.553368567489 -15.697829311713576 19306.703342747875 132.3583179563284 6398.573337038048 -14551.791482444853 55.64563700836152 -17057.815302586183 -358.35580012295395 z" vector-effect="non-scaling-stroke" fill="#000" fill-opacity="1" stroke="#FFF" stroke-width="0.3px" stroke-linejoin="round" stroke-linecap="round"><title>Hooker County</title></path>
<path id="31093" d="M -10989679.02753226 -5019227.465559704 l -2955.64302081801 5.018250662833452 -71.13237538002431 -8581.072728562169 308.13491086289287 -29677.752264414914 230.0985006671399 -13175.514466999099 17268.765403674915 24.931089494377375 33149.04324397631 17.216229299083352 538.2296266667545 -0.593560227192938 -65.01492409035563 51433.676421333104 -5320.625046115369 39.26204364094883 z" vector-effect="non-scaling-stroke" fill="#000" fill-opacity="1" stroke="#FFF" stroke-width="0.3px" stroke-linejoin="round" stroke-linecap="round"><title>Howard County</title></path>
<path id="31095" d="M -10788684.182412855 -4865957.064689547 l -8645.333898417652 0 -23331.978295393288 0 -18427.24932312034 0 56.88826729543507 -51033.60850342177 17278.11624091305 61.35047791991383 33216.94802202843 34.76704879384488 -137.70287802629173 9883.122698605992 z" vector-effect="non-scaling-stroke" fill="#000" fill-opacity="1" stroke="#FFF" stroke-width="0.3px" stroke-linejoin="round" stroke-linecap="round"><title>Jefferson County</title></path>
<path id="31097" d="M -10738285.4063925 -4904112.973745466 l 3.231270857155323 -38123.54945772607 25529.114672115073 30.169680258259177 18623.07788339071 -51.10768090095371 110.98352857120335 25449.823280055076 -80.26235473901033 12714.36131019611 z" vector-effect="non-scaling-stroke" fill="#000" fill-opacity="1" stroke="#FFF" stroke-width="0.3px" stroke-linejoin="round" stroke-linecap="round"><title>Johnson County</title></path>
<path id="31099" d="M -10989947.53448552 -4966689.204385494 l 67.9006592426449 49698.66484616231 -339.52433559671044 -1.022486847825348 -25209.962025972083 -3.946069863624871 -25170.554926224053 -37.39593743905425 -67.12201417610049 -48009.909436454065 16976.379283288494 2241.7894860757515 3377.048688447103 1635.3387667993084 2417.8587834350765 -686.2709599444643 7720.227321743965 600.5822702702135 4382.201961370185 -965.8198335273191 4468.363358564675 -2272.0042383112013 z" vector-effect="non-scaling-stroke" fill="#000" fill-opacity="1" stroke="#FFF" stroke-width="0.3px" stroke-linejoin="round" stroke-linecap="round"><title>Kearney County</title></path>
<path id="31101" d="M -11352876.023918433 -5070736.060671981 l 39983.61336487718 -106.2453422518447 24288.905004424974 1.782948400825262 15313.661854794249 71.5267507918179 -67.68681450560689 51435.52502866741 2242.085307477042 1.033389123156667 20.81607685983181 6409.147941466421 -19209.397864038125 188.36488294415176 -27509.822260480374 -142.49409533571452 -19157.30045366846 120.5114377727732 -23383.32544774376 475.8588143363595 -395.7357322499156 -7061.877125755884 -18.921975722536445 -25730.97999479808 31.060475639998913 -25728.93197283894 z" vector-effect="non-scaling-stroke" fill="#000" fill-opacity="1" stroke="#FFF" stroke-width="0.3px" stroke-linejoin="round" stroke-linecap="round"><title>Keith County</title></path>
<path id="31103" d="M -11080086.873903934 -5312005.913761899 l 11709.61700988561 0 18964.53628526628 0 104.33560376241803 14328.20772848837 46.317543575540185 12103.31623869948 -18854.683623278514 7464.888769771904 -4593.016099624336 2955.4969329265878 -5575.9396633487195 2350.1595150660723 -3909.7697131130844 716.7285687197 -5226.43686770089 23.35745337419212 -5308.436124203727 -493.72126355953515 -3321.3217553831637 -332.52659379225224 -1761.7242050506175 -176.38640718907118 -14095.5445766747 -3013.0322302617133 -8669.6576081682 -2850.8695532847196 -10493.730233700946 -2277.8947651833296 -5405.171649616212 -1110.9525852194056 -6762.6953025031835 -987.8724827980623 -5325.461985744536 -2876.520561972633 -1806.5461963731796 -1039.7444967543706 -3670.319232787937 -1937.9120442662388 7.386382177472115 -22844.722222764976 9799.733781343326 0 18967.254027681425 0 18964.536285262555 0 18964.53638537042 0 z" vector-effect="non-scaling-stroke" fill="#000" fill-opacity="1" stroke="#FFF" stroke-width="0.3px" stroke-linejoin="round" stroke-linecap="round"><title>Keya Paha County</title></path>
<path id="31105" d="M -11583208.159845727 -5012317.059331142 l 89.686100685969 -18458.552536251955 0 -18493.754079073668 48.919764095917344 -18529.178002674133 1.988728974014521 -2715.2689962359145 47531.21839265898 13.37855224031955 13915.266968041658 -218.42870929650962 13678.156452657655 -5.489157319068909 153.50813065283 14864.225020163693 24.70969868823886 36331.34978117421 -698.7524437047541 144.21268452052027 -21.794352551922202 7081.909704372287 -4887.320558425039 0 -13249.085022354499 0 -3240.304177446291 0 -10014.21612952277 0 -13254.520407088101 -3.601162890903652 -13246.367179811 -10.803098728880286 z" vector-effect="non-scaling-stroke" fill="#000" fill-opacity="1" stroke="#FFF" stroke-width="0.3px" stroke-linejoin="round" stroke-linecap="round"><title>Kimball County</title></path>
<path id="31107" d="M -10926195.105910562 -5288155.365394521 l 5226.488222477958 2274.190337965265 1155.0483392737806 1248.7490449100733 478.32587034069 1793.164738085121 1290.9365617521107 881.6373562272638 7968.475250422955 2792.539386285469 3005.843644786626 266.6181116234511 3005.843644782901 -266.6181116234511 1222.9925005622208 -651.7650639489293 2299.2258089631796 -2025.9452807549387 725.6422330215573 -429.69014655426145 418.5352366641164 -733.4816301679239 1410.5178291071206 -4020.3499323446304 366.89783026464283 -2023.795564211905 934.9097011815757 -1282.704458466731 1252.8878674600273 -819.3917449265718 1318.1140861101449 -637.7661137850955 2750.3740548361093 -645.2260948121548 7612.448590092361 1776.1188591122627 4560.403023747727 -1130.892764300108 1418.671256609261 292.93288742378354 2253.023887399584 1379.2569579696283 1301.8075314443558 500.4866273114458 2622.639359978959 -177.94775580056012 2869.8595701418817 -1544.0778813045472 1492.1467549167573 -802.924018879421 2481.3158528786153 -589.6235295906663 8041.854796456173 1998.6367174750194 3013.997072281316 74.15275969542563 1618.1777233965695 -302.1531554767862 -14.344086486846209 11558.091699977405 79.2545793838799 52499.85793518368 -38865.29742641002 134.84563087299466 -17886.477146772668 66.51722921431065 -33966.57325040549 49.77256519906223 -581.1989501062781 -2.564198003150523 -11.633898539468646 -50462.352829333395 -524.8096069004387 -2492.981654200703 120.21596804074943 -19070.880223046057 2800.7110188584775 1931.9549005180597 4576.709578411654 4172.855884121731 z" vector-effect="non-scaling-stroke" fill="#000" fill-opacity="1" stroke="#FFF" stroke-width="0.3px" stroke-linejoin="round" stroke-linecap="round"><title>Knox County</title></path>
<path id="31109" d="M -10788075.58640023 -5019141.985759937 l 270.84020978212357 0.590412099845707 49496.86261163652 148.78683796711266 0.778791163116694 4283.60958869569 11.129277411848307 34184.70336086955 13.800388593226671 38287.77235711273 -12036.639352738857 -118.18273013178259 -13674.594006311148 111.15131589118391 -24270.09156520292 -81.86522257141769 -98.2929953020066 -25567.250412903726 270.61768211983144 -69.00986011978239 68.35228241793811 -25914.0039392747 z" vector-effect="non-scaling-stroke" fill="#000" fill-opacity="1" stroke="#FFF" stroke-width="0.3px" stroke-linejoin="round" stroke-linecap="round"><title>Lancaster County</title></path>
<path id="31111" d="M -11159900.172939887 -5070526.218971464 l 1668.9013606924564 -3.857958392240107 198.81505208462477 17035.862714287825 -364.6840989906341 17308.1325186491 -62.22904250584543 16978.97060518898 1549.5668665617704 -9.003701742738485 -23.15656915679574 24438.633489166386 126.0113258715719 26549.2696745079 -44762.55788012035 28.775605694390833 -16966.53332013823 -11.307660285383463 -24779.267138728872 28.33666951674968 -27555.35193221271 314.2157638296485 156.1824700962752 -14935.796498167329 -380.1532780714333 -30119.302206573077 -20.81607685983181 -6409.147941466421 -2242.085307477042 -1.033389123156667 67.68681450560689 -51435.52502866741 16058.611775862053 -15.134555549360812 45885.32593030855 226.3003073623404 z" vector-effect="non-scaling-stroke" fill="#000" fill-opacity="1" stroke="#FFF" stroke-width="0.3px" stroke-linejoin="round" stroke-linecap="round"><title>Lincoln County</title></path>
<path id="31113" d="M -11161500.496818837 -5122089.386210954 l 1586.3022985253483 5.818431574851274 -190.3578877262771 17471.731183328666 46.195362286642194 24552.573057063855 158.18410586379468 9533.044567522593 -51445.73304827884 -31.611591763794422 -178.5543481633067 -22476.730770556256 349.10048347711563 -29040.656768987887 24596.814493320882 46.995886591263115 z" vector-effect="non-scaling-stroke" fill="#000" fill-opacity="1" stroke="#FFF" stroke-width="0.3px" stroke-linejoin="round" stroke-linecap="round"><title>Logan County</title></path>
<path id="31115" d="M -11097086.603141503 -5122159.498432625 l 47.64652317017317 -19546.39412382897 -61.556672777980566 -32174.829848667607 2736.2323044594377 9.900176085531712 33877.18403325789 -108.89605346042663 13739.715908424929 -189.00037585012615 1324.2563285194337 11.850359112024307 100.51671344600618 51927.85284331441 -4263.201425712556 -119.05381826031953 z" vector-effect="non-scaling-stroke" fill="#000" fill-opacity="1" stroke="#FFF" stroke-width="0.3px" stroke-linejoin="round" stroke-linecap="round"><title>Loup County</title></path>
<path id="31117" d="M -11288603.505549131 -5070840.523065832 l 93.9565445408225 -31953.541389208287 -5.564082108438015 -19794.227250901982 31175.349451439455 114.43451462499797 17057.815302586183 358.35580012295395 14551.791482444853 -55.64563700836152 14554.796997375786 95.92892543133348 -349.10048347711563 29040.656768987887 178.5543481633067 22476.730770556256 -45885.32593030855 -226.3003073623404 -16058.611775862053 15.134555549360812 z" vector-effect="non-scaling-stroke" fill="#000" fill-opacity="1" stroke="#FFF" stroke-width="0.3px" stroke-linejoin="round" stroke-linecap="round"><title>McPherson County</title></path>
<path id="31119" d="M -10890750.857689198 -5148446.645142351 l -138.92438679933548 -25985.31756620761 25943.890983490273 -76.50142137613147 25945.672206664458 -99.30347770359367 37.17603450641036 52018.472717537545 -51476.67931012064 144.5638111755252 -249.68906125240028 -4851.171107955277 z" vector-effect="non-scaling-stroke" fill="#000" fill-opacity="1" stroke="#FFF" stroke-width="0.3px" stroke-linejoin="round" stroke-linecap="round"><title>Madison County</title></path>
<path id="31121" d="M -10940753.095422734 -4994682.8866768535 l 11.995784115046263 -24417.63585696835 -535.4465280827135 -81.03405529633164 65.01492409035563 -51433.676421333104 1412.8666431922466 6.380918943323195 -168.7620178386569 19199.470796881244 19354.224410243332 44.43025744985789 -12.690421948209405 -2164.348208464682 5401.999593887478 18.07201260793954 -0.445166641846299 -2161.569266114384 17275.556003935635 -108.45268384274095 -35.622125735506415 -2129.1775936428457 21458.718715773895 -141.67359192948788 193.25163789466023 -12708.253426972777 11723.052458493039 2.226774515584111 -8.743536375463009 9075.837112368084 -1949.469854639843 992.0824555736035 -7655.026832705364 6403.650657445192 -6563.392828755081 7754.675703485496 -1114.2820123322308 1891.0292704217136 -1173.1668341290206 1288.5789848761633 -7146.884329177439 4058.5995778171346 -1377.826025351882 781.0718911243603 -11043.168886475265 9293.334580110386 -11423.655427269638 11248.357148924842 -11434.384917695075 8897.571302358992 -2942.8095711860806 2870.606484644115 z" vector-effect="non-scaling-stroke" fill="#000" fill-opacity="1" stroke="#FFF" stroke-width="0.3px" stroke-linejoin="round" stroke-linecap="round"><title>Merrick County</title></path>
<path id="31123" d="M -11506986.020761795 -5077110.575065465 l 212.62156324833632 -14024.547358294949 -364.79152229987085 -24892.36961797625 -0.110540254041553 -6601.550748262554 861.0560386460274 -101.60230535268784 125.01290135830641 -12874.633452564478 -162.52389620617032 -25811.446300058626 6453.523281279951 124.48526697512716 19986.073839986697 -175.71514970436692 29276.016967447475 389.78183382563293 18329.52894276753 -625.7195636630058 2254.553090441972 -65.7649965537712 -168.20597697980702 24272.6768302517 545.3529608789831 10610.610642607324 1037.9422642383724 4259.721925727092 3154.3483118861914 47.29504103399813 -99.96545933000743 6933.239615621045 82.03879116475582 38327.95486371871 -39569.17123460956 72.01510154549032 z" vector-effect="non-scaling-stroke" fill="#000" fill-opacity="1" stroke="#FFF" stroke-width="0.3px" stroke-linejoin="round" stroke-linecap="round"><title>Morrill County</title></path>
<path id="31125" d="M -10941741.410682958 -5083508.409745392 l 21308.993889337406 -6.833151522092521 145.82886689901352 -2172.9105605604127 6331.6282162275165 -86.94387638103217 45.195935904979706 -2163.312090313062 17364.61148524657 -132.75022523663938 -17.031770767644048 -2147.0259531140327 6194.482826208696 -45.49951511062682 14050.63102357462 -92.4861742304638 -15.363759521394968 19595.81749632489 -193.25163789466023 12708.253426972777 -21458.718715773895 141.67359192948788 35.622125735506415 2129.1775936428457 -17275.556003935635 108.45268384274095 0.445166641846299 2161.569266114384 -5401.999593887478 -18.07201260793954 12.690421948209405 2164.348208464682 -19354.224410243332 -44.43025744985789 168.7620178386569 -19199.470796881244 -1412.8666431922466 -6.380918943323195 -538.2296266667545 0.593560227192938 z" vector-effect="non-scaling-stroke" fill="#000" fill-opacity="1" stroke="#FFF" stroke-width="0.3px" stroke-linejoin="round" stroke-linecap="round"><title>Nance County</title></path>
<path id="31127" d="M -10654565.530744903 -4943220.408343781 l 1720.3427681066096 1669.6988334897906 116.86362505331635 1594.3510604333133 -423.97062140516937 1715.6043001264334 108.71039777435362 2019.0252370871603 997.4182775150985 2165.0776805579662 1973.0945155248046 2461.035352715291 828.9170458316803 2364.0139909069985 51.637606631964445 892.6066525420174 -173.93671653047204 2134.7868098057806 122.2991098985076 1056.5122084291652 478.32597045972943 1152.753977860324 1801.875641528517 2747.506946079433 1315.3962435703725 4419.379330703989 274.49388703517616 566.9923909474164 -581.6008833888918 1034.0529475295916 -1027.3136444166303 994.727845502086 -1434.9778112675995 1055.2285919953138 714.7711632102728 1931.91662464384 1815.4643536545336 270.86590477637947 2263.8949572127312 -342.14751851931214 2049.191803978756 131.8706392981112 1964.941188128665 1375.627600072883 1136.024042190984 1799.4303101468831 932.1920588724315 1977.212992746383 1353.4450379647315 1912.710240910761 -38807.80928968638 145.62035826221108 -12807.192645376548 -38.22082648333162 -6296.228729473427 -81.10875236988068 80.26235473901033 -12714.36131019611 -110.98352857120335 -25449.823280055076 35294.05773283169 23.726899415254593 z" vector-effect="non-scaling-stroke" fill="#000" fill-opacity="1" stroke="#FFF" stroke-width="0.3px" stroke-linejoin="round" stroke-linecap="round"><title>Nemaha County</title></path>
<path id="31129" d="M -10889438.091201918 -4865957.064689547 l -1219.3380907010287 0 -11062.538100255653 0 -12272.157937562093 0 -23331.9781952817 0 -2488.493264572695 0 49.65272303111851 -51028.79638955649 50033.3112377692 -26.58058984298259 367.1316806413233 -0.584279482252896 14.469864012673497 20157.179713827558 z" vector-effect="non-scaling-stroke" fill="#000" fill-opacity="1" stroke="#FFF" stroke-width="0.3px" stroke-linejoin="round" stroke-linecap="round"><title>Nuckolls County</title></path>
<path id="31131" d="M -10668354.717909351 -4980668.046910475 l -1408.5322911515832 2199.661313305609 -1595.3257155623287 1650.6039316114038 -494.6326252296567 821.6096211690456 -328.84903586655855 1542.573936631903 59.79073378816247 2019.3275126153603 565.2943287305534 1172.6685794852674 652.26258687675 968.1522980136797 312.5424812082201 1405.4430380938575 1206.685945900157 2426.7820909433067 5859.492712657899 2526.511659666896 2119.8536075819284 1515.5940189249814 1106.1286752913147 3184.490816364996 -119.58146758563817 3226.4199329549447 -385.9219271223992 2420.0125770326704 -600.6252805832773 3818.5382201885805 535.3989618271589 3763.4015626376495 1462.1554357372224 1355.4725121855736 2176.9265989512205 432.7104563191533 2666.123438999057 997.6644885493442 -4270.3940884023905 986.6740393610671 -35294.05773283169 -23.726899415254593 -18623.07788339071 51.10768090095371 -25529.114672115073 -30.169680258259177 -13.800388593226671 -38287.77235711273 16800.778264384717 69.54100320953876 21335.599136315286 -93.79606023710221 z" vector-effect="non-scaling-stroke" fill="#000" fill-opacity="1" stroke="#FFF" stroke-width="0.3px" stroke-linejoin="round" stroke-linecap="round"><title>Otoe County</title></path>
<path id="31133" d="M -10687859.140691815 -4865957.064689547 l -16139.744995798916 0 -9298.978249793872 0 -14032.999945487827 0 -10959.554892314598 0 5.01238271035254 -38155.90905591939 44186.14500019513 19.697131882421672 6296.228729473427 81.10875236988068 z" vector-effect="non-scaling-stroke" fill="#000" fill-opacity="1" stroke="#FFF" stroke-width="0.3px" stroke-linejoin="round" stroke-linecap="round"><title>Pawnee County</title></path>
<path id="31135" d="M -11360336.346585091 -4967829.560041627 l -4.539753111079335 -7664.351897648536 -2.71774242259562 -9191.86008282192 0 -9186.149278018624 -2.717742424458265 -9202.010738114826 -8.153327386826277 -9207.116877835244 23383.32544774376 -475.8588143363595 19157.30045366846 -120.5114377727732 27509.822260480374 142.49409533571452 19209.397864038125 -188.36488294415176 380.1532780714333 30119.302206573077 -156.1824700962752 14935.796498167329 -10842.738370578736 -42.72824494447559 -14335.831670308486 -7.783274576067924 -16356.725372202694 -297.4821334797889 -26480.67390205711 237.86541308648884 z" vector-effect="non-scaling-stroke" fill="#000" fill-opacity="1" stroke="#FFF" stroke-width="0.3px" stroke-linejoin="round" stroke-linecap="round"><title>Perkins County</title></path>
<path id="31137" d="M -11067084.018329179 -4963907.980468529 l 3018.040413049981 -4284.578218953684 23399.180787881836 3149.7452175468206 67.12201417610049 48009.909436454065 -28731.219268182293 9.49207326490432 -21480.09205800481 -73.62132252659649 -1308.0036828666925 -11.685842644423246 -222.63809102773666 -9692.654064336792 83.15888788923621 -39174.21834987402 2355.2972296010703 -175.28071623761207 4323.536478405818 1308.0727292476222 2697.715871972963 -519.9196359449998 3413.9452530872077 823.169628823176 6481.687001140788 81.902588670142 2887.1817566175014 -487.6064749555662 z" vector-effect="non-scaling-stroke" fill="#000" fill-opacity="1" stroke="#FFF" stroke-width="0.3px" stroke-linejoin="round" stroke-linecap="round"><title>Phelps County</title></path>
<path id="31139" d="M -10890889.782075997 -5174431.962708559 l -53.319921020418406 -23612.181357641704 65.01325429417193 -28724.295525150374 38865.29742641002 -134.84563087299466 13103.191171394661 -29.71415536198765 -14.918036280199885 13100.99572921358 -75.70070464350283 39224.236040733755 -25945.672206664458 99.30347770359367 z" vector-effect="non-scaling-stroke" fill="#000" fill-opacity="1" stroke="#FFF" stroke-width="0.3px" stroke-linejoin="round" stroke-linecap="round"><title>Pierce County</title></path>
<path id="31141" d="M -10890367.701233901 -5090263.68511763 l -134.58459645323455 -7616.8410873180255 62.563668897375464 -24564.20487397723 51476.67931012064 -144.5638111755252 12873.53906188719 18.202763182111084 -15.589181495830417 51732.39118504897 126.57190473005176 863.9789025057107 -3115.6791692953557 268.79478998016566 -5104.861089030281 -905.6582032963634 -2717.7610056940466 36.227960746735334 -2047.6431799884886 490.5158163709566 -9664.33559705317 2460.921355860308 -8589.695935500786 2173.4482843382284 -7399.628004953265 3768.182126712054 8.743536375463009 -9075.837112368084 -11723.052458493039 -2.226774515584111 15.363759521394968 -19595.81749632489 z" vector-effect="non-scaling-stroke" fill="#000" fill-opacity="1" stroke="#FFF" stroke-width="0.3px" stroke-linejoin="round" stroke-linecap="round"><title>Platte County</title></path>
<path id="31143" d="M -10838964.465510223 -5070084.841675563 l -3.929582230746746 50817.09303983208 -25587.668724270537 43.98395865224302 -25415.457583338022 10.034871264360845 -185.01299369335175 -184.65450908523053 -63.81334571354091 -19895.288944133557 7146.884329177439 -4058.5995778171346 1173.1668341290206 -1288.5789848761633 1114.2820123322308 -1891.0292704217136 6563.392828755081 -7754.675703485496 7655.026832705364 -6403.650657445192 1949.469854639843 -992.0824555736035 7399.628004953265 -3768.182126712054 8589.695935500786 -2173.4482843382284 z" vector-effect="non-scaling-stroke" fill="#000" fill-opacity="1" stroke="#FFF" stroke-width="0.3px" stroke-linejoin="round" stroke-linecap="round"><title>Polk County</title></path>
<path id="31145" d="M -11153499.432908354 -4865957.064689547 l -17147.17071304843 0 -23331.978295391425 0 -20215.11642804742 0 -3116.861667122692 0 926.9872045889497 -22723.815909028985 -280.74753314629197 -2712.542813337408 287.6516792792827 -25468.010779933073 28721.64590329863 -68.94167811237276 14793.91137492098 -225.09304575342685 10975.876258926466 333.18544431589544 7917.374362576753 -115.100774849765 288.872965419665 10291.44799705036 224.75115760602057 33816.97881264519 z" vector-effect="non-scaling-stroke" fill="#000" fill-opacity="1" stroke="#FFF" stroke-width="0.3px" stroke-linejoin="round" stroke-linecap="round"><title>Red Willow County</title></path>
<path id="31147" d="M -10610668.254863726 -4865957.064689547 l -2519.572553323582 0 -20812.405742069706 0 -23331.978295393288 0 -5750.668170111254 0 -17584.02776759863 0 -7192.23329959251 0 56.108028983697295 -38055.103171667084 12807.192645376548 38.22082648333162 38807.80928968638 -145.62035826221108 1652.3987069278955 861.8450816841796 4046.746101435274 302.69634906295687 1905.15045433864 737.11568560265 1195.814775981009 1616.476695658639 -130.45253739878535 1804.87134980876 -1826.3353233467788 3637.220099931583 3095.5297454744577 3842.183338779025 1557.277021277696 2475.282641299069 665.8513991124928 2136.9225381258875 3389.0480297040194 3476.401603809558 339.7201056778431 678.78672721982 -423.97072151489556 1542.2007841542363 -1092.539863055572 2753.3327075121924 -513.656922319904 3224.8670170791447 271.7762447223067 2538.6668098913506 1258.3233523089439 1668.419853931293 5188.205728583038 997.3681303216144 1940.4814062006772 1082.4388877553865 z" vector-effect="non-scaling-stroke" fill="#000" fill-opacity="1" stroke="#FFF" stroke-width="0.3px" stroke-linejoin="round" stroke-linecap="round"><title>Richardson County</title></path>
<path id="31149" d="M -11094364.280986652 -5173870.822229036 l -156.3988751862198 -52418.43947626371 -1360.4351630266756 8.597119124606252 -170.55628323182464 -46609.34182602912 3321.3217553831637 332.52659379225224 5308.436124203727 493.72126355953515 5226.43686770089 -23.35745337419212 3909.7697131130844 -716.7285687197 5575.9396633487195 -2350.1595150660723 4593.016099624336 -2955.4969329265878 18854.683623278514 -7464.888769771904 1270.8125564213842 6651.137907856144 24.04267230257392 24690.46189136803 110.87154116481543 27923.62316695694 1162.6204278841615 17.194719127379358 -53.66078129783273 52123.25345105585 -13739.715908424929 189.00037585012615 z" vector-effect="non-scaling-stroke" fill="#000" fill-opacity="1" stroke="#FFF" stroke-width="0.3px" stroke-linejoin="round" stroke-linecap="round"><title>Rock County</title></path>
<path id="31151" d="M -10839031.855662491 -4916990.673192969 l 31.95303531549871 -50998.32159767952 50638.10958597809 96.324537740089 98.2929953020066 25567.250412903726 -97.07248840481043 24602.477190980688 -176.21886524930596 828.386982768774 -33216.94802202843 -34.76704879384488 z" vector-effect="non-scaling-stroke" fill="#000" fill-opacity="1" stroke="#FFF" stroke-width="0.3px" stroke-linejoin="round" stroke-linecap="round"><title>Saline County</title></path>
<path id="31153" d="M -10672872.368858323 -5037030.140241574 l 570.729813573882 2241.700113932602 241.88077770918608 4712.737887167372 703.9000933971256 2124.6737794438377 -1532.8172393403947 4165.030812347308 -679.4402113500983 969.7807697402313 0 915.6150902807713 516.3745646309108 335.2232245057821 222.8563805092126 439.73774186801165 195.67885615490377 576.6750314794481 -3546.171427031979 -1055.8049890715629 -5204.512325907126 -744.9593168292195 -10572.090312153101 468.6101101767272 -4579.427294598892 1171.4263386745006 -3777.687797913328 2036.1433405550197 -4683.608133150265 3440.6527531621978 -2559.2249470297247 1218.6476087467745 -2713.2314040157944 276.1255147960037 -4439.009642636403 -1500.7766919825226 -3696.1549677476287 -3098.336198597215 -2473.162515182048 -4354.952929594554 -788.1506916508079 -5246.557895262726 407.66415085457265 -3030.232897366397 597.9074212517589 -2453.7393759479746 271.776100570336 -2472.409684676677 -588.8482179027051 -3141.0503854975104 45793.679954048246 -1634.903740872629 3498.7505636140704 1160.3913351120427 1402.3647019471973 1191.6111125899479 z" vector-effect="non-scaling-stroke" fill="#000" fill-opacity="1" stroke="#FFF" stroke-width="0.3px" stroke-linejoin="round" stroke-linecap="round"><title>Sarpy County</title></path>
<path id="31155" d="M -10787804.746190447 -5019141.395347837 l -66.78891148976982 -32193.33303607814 98.519307827577 -19202.883581318893 885.6439770497382 -10180.851013558917 8085.3389919400215 1148.3559573823586 2894.4154710657895 -36.26177933625877 3723.3325778041035 -1015.3852398628369 978.3939620461315 -96.70893818326294 1227.5220542401075 568.1511090425774 2468.632913507521 2109.1190197067335 1209.4036475345492 453.18881360441446 11052.228089826182 -1099.7750838017091 6463.741591878235 1262.9178396230564 6173.847084604204 3099.187805452384 5403.8147996570915 4221.267091720365 4144.585533685982 4678.073422190733 108.71044022776186 687.9382373066619 448.4305659402162 1061.983827078715 412.1937525290996 1339.3812058921903 824.3875050637871 1508.089804314077 4280.473583968356 4516.828195706941 765.50268326886 2248.581129560247 298.9537106268108 5381.208583673462 -371.42733744345605 1475.8442132910714 2989.5371062643826 3348.428018907085 1241.110859265551 2083.1494628619403 1087.1044022776186 2738.7197931390256 588.8482179027051 3141.0503854975104 -271.776100570336 2472.409684676677 -597.9074212517589 2453.7393759479746 -407.66415085457265 3030.232897366397 788.1506916508079 5246.557895262726 2473.162515182048 4354.952929594554 -7027.460093412548 -365.9765090411529 -141.26476777531207 4102.654223040678 -12734.055851237848 -108.43931399658322 -0.778791163116694 -4283.60958869569 z" vector-effect="non-scaling-stroke" fill="#000" fill-opacity="1" stroke="#FFF" stroke-width="0.3px" stroke-linejoin="round" stroke-linecap="round"><title>Saunders County</title></path>
<path id="31157" d="M -11583119.150781948 -5115840.2632020665 l 3.394779330119491 -7764.256389508024 -10.870969694107771 -18680.443685015664 32.61320943199098 -18713.378722695634 20016.794965432957 -40.44553134404123 49081.53092732653 -570.8850242597982 3378.9909329842776 100.96837190072984 4301.9407198335975 91.97933501470834 162.52389620617032 25811.446300058626 -125.01290135830641 12874.633452564478 -861.0560386460274 101.60230535268784 0.110540254041553 6601.550748262554 -12775.912202412263 -56.95467554498464 -21264.689177280292 252.70777633599937 z" vector-effect="non-scaling-stroke" fill="#000" fill-opacity="1" stroke="#FFF" stroke-width="0.3px" stroke-linejoin="round" stroke-linecap="round"><title>Scotts Bluff County</title></path>
<path id="31159" d="M -10838968.395092454 -5019267.748635731 l 27322.137265039608 75.57564966473728 23570.671427184716 50.18722612876445 52.76332356967032 25266.301707634702 -68.35228241793811 25914.0039392747 -270.61768211983144 69.00986011978239 -50638.10958597809 -96.324537740089 z" vector-effect="non-scaling-stroke" fill="#000" fill-opacity="1" stroke="#FFF" stroke-width="0.3px" stroke-linejoin="round" stroke-linecap="round"><title>Seward County</title></path>
<path id="31161" d="M -11442764.34567438 -5312027.247023215 l 14050.02799025923 2.752682154066861 18964.536285260692 3.716064029373228 18967.254027683288 0 18967.254127798602 0 8043.768224906176 0 -273.2919102497399 32640.944383627735 2009.9842804893851 2.882104141637683 68.34883151389658 12824.119112914428 -44.30894219875336 38912.62083846796 3074.3095979988575 22.929614583030343 83.60060362890363 3345.5745259132236 -218.07966920174658 48790.49514730368 3793.3220777157694 60.90961893927306 -262.4925838056952 13108.48379992228 -6466.324911406264 -44.04663204681128 -34391.36898386665 247.6404811339453 -13901.57455935888 0.448090353049338 -19715.678908165544 338.11973468307406 -2254.553090441972 65.7649965537712 -474.7768489960581 -6965.552185031585 -31.502747980877757 -6212.150488325395 -4440.088096581399 53.85441592615098 76.58914549276233 -12809.692114418373 -544.017349626869 -10858.666547880508 -135.02898385748267 -15334.30456828326 -422.3459254298359 -1039.5604604156688 227.5382636897266 -12237.917197437957 -2664.431344212964 1.809807294048369 -40.96167642995715 -38958.57818407286 40.632949970662594 -13278.181376364082 -2147.352532124147 15.167797782458365 -59.22063326835632 -12932.875440627337 z" vector-effect="non-scaling-stroke" fill="#000" fill-opacity="1" stroke="#FFF" stroke-width="0.3px" stroke-linejoin="round" stroke-linecap="round"><title>Sheridan County</title></path>
<path id="31163" d="M -10992634.670553079 -5019222.447309041 l -51099.86305642128 -53.58491949364543 435.0394643228501 -35028.46126012504 43.972646018490195 -16346.659035467543 50283.334814092144 8.314322549849749 804.6171681378037 -13.948567439801991 -230.0985006671399 13175.514466999099 -308.13491086289287 29677.752264414914 z" vector-effect="non-scaling-stroke" fill="#000" fill-opacity="1" stroke="#FFF" stroke-width="0.3px" stroke-linejoin="round" stroke-linecap="round"><title>Sherman County</title></path>
<path id="31165" d="M -11583094.01376288 -5160998.341999286 l 10.870969699695706 -18742.86087867245 -21.742039512842894 -18790.892314261757 0 -18824.510017217137 -32.6131093185395 -18854.658034325577 48.40874047763646 -16830.309574399143 5.946408353745937 -2069.4668460208923 -21.742039512842894 -18930.376353722066 -21.742139618843794 -18979.718104896136 -13.588812233880162 -19007.076283765025 21665.990776220337 0 18969.97177010961 0 18967.25402769074 0 1544.8041819613427 0 3.556432195007801 1728.5568991256878 62.67521392554045 31029.317107611336 2541.3119874019176 -27.15060092881322 -38.96393684670329 21007.74653452076 74.69226137176156 31584.138762027025 3957.4068958312273 -13.122289435938 74.69203873537481 32601.63633723557 -27.497806657105684 19541.358008309267 4724.509395563975 21.901761683635414 3.115609906613827 13045.123703428544 -3378.9909329842776 -100.96837190072984 -49081.53092732653 570.8850242597982 z" vector-effect="non-scaling-stroke" fill="#000" fill-opacity="1" stroke="#FFF" stroke-width="0.3px" stroke-linejoin="round" stroke-linecap="round"><title>Sioux County</title></path>
<path id="31167" d="M -10800206.170608958 -5122555.424353767 l -25883.33318049088 -15.667773151770234 -12873.53906188719 -18.202763182111084 -37.17603450641036 -52018.472717537545 38855.50131122582 51.75664274394512 z" vector-effect="non-scaling-stroke" fill="#000" fill-opacity="1" stroke="#FFF" stroke-width="0.3px" stroke-linejoin="round" stroke-linecap="round"><title>Stanton County</title></path>
<path id="31169" d="M -10839088.743929787 -4865957.064689547 l -4904.728872157633 0 -23331.97829539515 0 -22112.640104578808 0 90.05991708114743 -30898.781545054168 -14.469864012673497 -20157.179713827558 50330.64548635855 22.352755459956825 z" vector-effect="non-scaling-stroke" fill="#000" fill-opacity="1" stroke="#FFF" stroke-width="0.3px" stroke-linejoin="round" stroke-linecap="round"><title>Thayer County</title></path>
<path id="31171" d="M -11161739.606187 -5173891.528431628 l 239.1093681640923 51802.14222067408 -25078.04854069464 61.16399477329105 -24596.814493320882 -46.995886591263115 -14554.796997375786 -95.92892543133348 -132.3583179563284 -6398.573337038048 15.697829311713576 -19306.703342747875 -288.7613119594753 -13256.553368567489 -3.11583255045116 -13061.408885308541 26178.9979706835 208.6544870492071 z" vector-effect="non-scaling-stroke" fill="#000" fill-opacity="1" stroke="#FFF" stroke-width="0.3px" stroke-linejoin="round" stroke-linecap="round"><title>Thomas County</title></path>
<path id="31173" d="M -10725781.740189 -5191848.503589558 l 1016.4427748210728 3657.2831022236496 1592.6078730281442 2339.6290988903493 3731.485877804458 2558.997008432634 1964.941188134253 1814.3440838521346 1231.145827954635 2576.1401280388236 206.5497257374227 2831.8495044261217 -54.35524894297123 3087.330789031461 448.43060356378555 3331.582091525197 873.8869899827987 1222.3117126170546 -6275.736786009744 452.3946692738682 -264.94072204455733 4719.194912081584 -16607.193781215698 -275.69445038959384 -10519.132388204336 176.5034422101453 -71.80006968602538 -11106.36393750552 -29851.315316626802 -68.10614412464201 130.5799890831113 -26119.472112666816 10679.32113546133 27.678415259346366 -10.909087460488081 -2090.6312573496252 43489.63046373613 229.70046924240887 135.72077154368162 2446.2698861947283 -513.6568222083151 2907.9067807616666 -924.0387314837426 2506.9867072673514 z" vector-effect="non-scaling-stroke" fill="#000" fill-opacity="1" stroke="#FFF" stroke-width="0.3px" stroke-linejoin="round" stroke-linecap="round"><title>Thurston County</title></path>
<path id="31175" d="M -11043255.521499159 -5070651.152524128 l -1024.5843706261367 -14.097118683159351 49.9871267862618 -51537.060879522 18223.77509255521 19.54531877953559 32190.91672067903 14.921794882044196 768.9948197584599 1.491879830136895 156.17790599912405 36261.79509794712 -81.93248105980456 15261.718229316175 z" vector-effect="non-scaling-stroke" fill="#000" fill-opacity="1" stroke="#FFF" stroke-width="0.3px" stroke-linejoin="round" stroke-linecap="round"><title>Valley County</title></path>
<path id="31177" d="M -10697948.704390729 -5113545.248259137 l -65.67153167538345 5286.614326625131 317.9780661650002 3334.5547438813373 831.6347882561386 2686.437899550423 1535.5350818838924 1112.1616859110072 13.588712124153972 1304.6269033784047 -641.3916171789169 2935.671140834689 141.3236072063446 3105.4582150112838 2350.863215368241 1797.4385547684506 1396.9293172061443 -156.12780563347042 2220.410677967593 -1430.6845152070746 945.7807710040361 -352.2569835372269 1326.2674134857953 464.8312699412927 1386.0581472907215 1013.1090148892254 891.4255220536143 1013.0023093791679 -152.1945769134909 461.0803259508684 -570.7297134641558 726.06618573796 -633.2383898999542 1680.632604477927 -519.0924071669579 1908.958908220753 -211.985310703516 1407.8867437951267 663.1337568033487 1788.590004290454 1543.688209041953 943.138961751014 4546.81421151571 1030.0922051556408 937.6274436116219 -50.776536440476775 717.4890057444572 373.5645454218611 712.0533206686378 1537.6276907306165 -1070.7979236524552 6082.8287933804095 -40.766436714679 1677.7213190728799 -385.0816660709679 1393.4473756384104 -43534.61808948591 -32.589228469878435 9.907991275191307 -6454.82498636283 -4276.11448664777 -11.433856309391558 15.139673395082355 -2116.926812246442 -2146.016586922109 -44.556400186382234 6.45675310306251 -2153.2033648518845 -2074.994751786813 -9.507633707486093 -97.51565129496157 -2176.123710412532 -2139.226097976789 18.276170291937888 -1073.008126474917 -2168.288821928203 36.958404898643494 -4311.427873454057 -1050.6330201495439 -0.297524450346828 -98.7383845821023 -23774.833315978758 z" vector-effect="non-scaling-stroke" fill="#000" fill-opacity="1" stroke="#FFF" stroke-width="0.3px" stroke-linejoin="round" stroke-linecap="round"><title>Washington County</title></path>
<path id="31179" d="M -10838924.5181812 -5213832.003648372 l 32879.87260391377 120.65757985971868 6074.7029427960515 -43.230158858932555 6.56673676520586 13079.776690351777 21733.232246104628 24.2198453778401 -130.5799890831113 26119.472112666816 -21783.99393391423 -24.90338591951877 -38855.50131122582 -51.75664274394512 z" vector-effect="non-scaling-stroke" fill="#000" fill-opacity="1" stroke="#FFF" stroke-width="0.3px" stroke-linejoin="round" stroke-linecap="round"><title>Wayne County</title></path>
<path id="31181" d="M -10939812.596790291 -4865957.064689547 l -20843.48493070714 0 -4808.749209547415 0 -18523.22908584401 0 -6180.563326807693 0 47.75862190313637 -31909.768276915886 -98.29344058036804 -19124.729059716687 339.52433559671044 1.022486847825348 49613.637091444805 6.431147672235966 503.05266757309437 -1.752687443979084 z" vector-effect="non-scaling-stroke" fill="#000" fill-opacity="1" stroke="#FFF" stroke-width="0.3px" stroke-linejoin="round" stroke-linecap="round"><title>Webster County</title></path>
<path id="31183" d="M -10942770.884984845 -5174297.412279615 l 563.4991510715336 -2.999945851974189 -8.01745236478746 26053.025549877435 -17.590705938637257 25960.793511799537 -24017.953029869124 105.02683675661683 -26795.48508805968 15.214798192493618 -768.9948197584599 -1.491879830136895 -209.16654021665454 -31256.95073066186 -15.916683431714773 -20822.371325467713 28798.45601798594 -20.547866948880255 z" vector-effect="non-scaling-stroke" fill="#000" fill-opacity="1" stroke="#FFF" stroke-width="0.3px" stroke-linejoin="round" stroke-linecap="round"><title>Wheeler County</title></path>
<path id="31185" d="M -10889803.767268894 -4967976.077980507 l -104.97427981905639 -2.642944384366274 -62.77985134907067 -51235.00888092257 25415.457583338022 -10.034871264360845 25587.668724270537 -43.98395865224302 -31.50753472186625 51278.753845082596 z" vector-effect="non-scaling-stroke" fill="#000" fill-opacity="1" stroke="#FFF" stroke-width="0.3px" stroke-linejoin="round" stroke-linecap="round"><title>York County</title></path>
</svg>
