<svg xmlns="http://www.w3.org/2000/svg" xmlns:xlink="http://www.w3.org/1999/xlink" height="1080" width="1920" viewBox="-13358422.471075546 -5160991.027686567 663525.0429342035 996624.9226126219">
<path id="32001" d="M -13084686.238997677 -4866091.7314533 l 3418.175282418728 4390.292629103176 556.5973426494747 2149.5444178804755 3150.4521297048777 2424.7955775754526 1302.5483598969877 4195.055520031601 512.1808658186346 3903.1507816733792 -1213.3828949220479 6424.38576829806 -1770.0912231039256 1826.5345951020718 233.88169355504215 5854.2545333933085 -979.6121868956834 1745.4664995493367 -44.52790763601661 3612.9423969611526 2237.632973115891 2012.334538269788 -1380.3617971558124 4558.825551461428 2582.7227266579866 3573.09789211303 -2415.632950214669 4930.855924910866 2727.3260772824287 3151.0960281761363 -2081.451393576339 3395.5676479758695 467.42965128459036 2325.7584083816037 -489.69455131702125 3032.9310992769897 -1447.1536029521376 3941.105384205468 -2794.2297591697425 -404.158743978478 -1725.5636494178325 1414.4863825328648 -6234.11267625168 1486.5824998943135 372.9198488779366 2149.7514615505934 -3211.6777383200824 1971.294224537909 -4614.415866320953 3953.971340091899 2178.2999071590602 1540.5269058924168 -1041.839225653559 3589.512123630382 -3176.50178110227 649.6438840599731 -1077.0159621089697 3386.17719609756 -1339.5076553598046 1851.2390932645649 -6529.665479026735 1349.6093103466555 -804.9519058391452 3354.302587597631 1209.0399876330048 6036.971878540702 1402.736680842936 2110.580663833767 1864.3778299298137 6546.305120814592 270.72811105661094 4275.149082800373 -1532.3122341763228 1521.7200346924365 -1123.8820243254304 2732.0838290471584 -4321.532950205728 2270.547293426469 -1063.3235534187406 2393.2153062075377 -44.082963636144996 4883.312943827361 1939.2473119366914 4517.916686168872 -9966.829974150285 2836.401039504446 -42129.076359970495 44.303500077687204 -42008.4056979958 -86.68417196068913 -14794.247003182769 -97.57917495816946 -19.925632251426578 -5363.307068068534 -4264.203078491613 -57.67492192424834 -46.494923043996096 -4175.446591411717 -1966.0498170536011 -2003.5273885400966 -2295.741079390049 -16.940505026839674 0.779236435890198 -2229.6953758951277 -1991.2826060336083 -27.856082567945123 -22.152912624180317 -2113.2875102814287 -2092.582452101633 -1690.5469418270513 -2568.362846303731 -54.585384788922966 54.88073159754276 -4247.747377901338 -2163.1597884949297 4.455145106650889 -0.891223840415478 -2127.7778010768816 -2055.625160396099 14.949187223799527 -26.93853753246367 -2049.584930022247 -2074.549585144967 23.865004976280034 2.671333815902472 -2092.5588349420577 -2079.113795587793 -12.797809768468142 1.447042066603899 -2119.7484530275688 -2518.602143364027 14.814472374506295 -7.792475672438741 -2105.9500706847757 -2002.080485323444 66.89213146921247 27.495468946173787 -2274.864693059586 -2092.026188602671 19.280530214309692 13.135254640132189 -2094.3268528729677 -2090.801896845922 7.914626097306609 9.128309566527605 -2095.76847734116 -2065.644582482055 -5.326409268192947 0.669030137360096 -2094.1908989064395 -2101.043957909569 -1861.629404307343 -2050.0594084896147 -236.5985054494813 -37.95994635671377 -2023.622828014195 -2037.2572217788547 -86.42157714255154 62.117389062419534 -18774.720735246316 3064.5142620429397 0.144593901000917 106.75728410482407 -17047.720435528085 1346.1861568894237 2.747340576723218 -103.97106857225299 -12393.262214589864 -3741.7818213924766 4656.923489170149 -5699.334621718153 5155.1880421396345 -1859.0351622886956 347.0052999323234 -1075.5825010240078 2842.640893657692 -18.465231850743294 -6930.8523833770305 2080.11555968225 4.195504724979401 -28.719204114750028 -15609.734933094122 -2093.696648882702 9.705354549922049 -6.010584579780698 -3154.729887181893 -2090.8020081650466 3.91168480925262 -9.461043521761894 -12977.164013373666 -1949.3152693230659 1.450893107801676 117.22087095864117 -14511.248721488751 29690.795839175582 12.209874385036528 9272.243662383407 132.38192797638476 29973.880302382633 13.445734309963882 11670.288467006758 -55.436579511500895 28440.566526759416 -538.2558170286939 14049.296636831015 72.66177006997168 19331.85063974932 -106.66478269267827 35586.16352757998 91.84810617566109 z" vector-effect="non-scaling-stroke" fill="#000" fill-opacity="1" stroke="#FFF" stroke-width="0.3px" stroke-linejoin="round" stroke-linecap="round"><title>Churchill County</title></path>
<path id="32003" d="M -12694938.619843174 -4417262.031654564 l -2.292477305978537 1643.4292669333518 -13.588812237605453 8709.254880923778 -16.306554658338428 9298.755384035408 -16.306554658338428 9588.695093992166 -19.024397196248174 9580.101299008355 -16.306454554200172 9274.03473753389 -13.588812233880162 8671.505938086659 -16.30665477178991 7749.764896181412 -10.870969699695706 6546.64602509141 -8.153327383100986 5048.996040163562 -2.717742430046201 3243.3301894059405 -5.435484847053886 1159.5403412142769 -19.02439719438553 5842.995186345652 -92.4038431160152 1306.996095337905 -269.0583020746708 1353.9888096647337 -2247.5884025506675 3081.2076634634286 -2084.522655725479 2837.9745574966073 -1225.7102429885417 4280.800857184455 -1467.590920586139 5103.112754159607 -1728.4959953837097 6008.295873868279 -3870.091642482206 2218.2262557474896 -5462.699615612626 897.2445149831474 -2883.544434774667 -164.65726756863296 -2549.259813943878 -1105.6207635020837 -2089.958240682259 -1818.3024902297184 -1380.622662436217 -1714.3907286496833 -1054.4911687690765 -1707.9371128985658 -2494.9045650027692 -5589.661904448643 -828.9172460623085 -1332.2587436614558 -1068.079981006682 -1372.8016640488058 -1209.4036883283406 -1251.8241637386382 -991.9827926680446 -625.9661733852699 -1027.3136444110423 -393.7717592874542 -736.5132027175277 -63.94710355065763 -771.8441545795649 40.38770140055567 -741.9487876798958 121.16232305206358 -660.4158141519874 208.66513198241591 -606.0607654377818 282.7013111077249 -2853.64906786941 1736.4313810765743 -646.8272021431476 245.63534912560135 -758.2552422303706 114.4035944500938 -826.1993034090847 3.364771411754191 -861.5302552692592 -104.30902020260692 -1483.8974752500653 -498.00582720153034 -1155.048539498821 -747.0516102984548 -940.3451860323548 -750.4686383614317 -600.6252805870026 -363.474400928244 -418.5352366641164 -181.74178213067353 -5954.614298194647 -1767.0933368504047 -1038.1847142297775 -114.45024678390473 -940.3452861439437 242.36395497061312 -1736.6493227723986 710.2294899057597 -6457.400150705129 1696.2835252117366 -3620.0576374884695 2274.756422534585 -3728.76813538 1756.2153056552634 -478.3259704615921 444.0554891359061 -432.1239487938583 481.0391617696732 -785.4329668115824 1099.9187879804522 -345.1555905267596 639.0452839285135 -165.78338914178312 1160.274993101135 -5.435484852641821 1546.8402220085263 369.6154725756496 3153.5245849750936 -59.790733793750405 1556.2523022331297 -494.63262523524463 1512.3422315912321 -1880.6905722916126 1962.369595117867 190.2432711906731 3829.630678755231 1152.3306969609112 3650.328373838216 1619.7854974996299 3175.828732893802 4383.748564796522 5761.79325795453 706.6178358197212 1217.740173173137 236.4452928621322 1573.1320223864168 -418.5352366697043 1532.6625246563926 -1954.0702184345573 3507.208237249404 -595.189695622772 2034.7360426485538 -119.58136747777462 7595.896653113887 328.8490358684212 3767.505450360477 548.9877740684897 2772.0537954289466 3899.9870093706995 9954.178340728395 731.0776177551597 2207.0950353108346 -850.6590853426605 2978.8723237654194 690.3112811632454 5941.952357937582 -2350.8632153719664 6626.591514113359 1894.279384534806 5474.60766879376 2035.602991739288 6595.949985194951 3527.6537943724543 7111.98765347898 1084.3866357840598 3246.0477257221937 -154.912419449538 3674.811992625706 269.0584021881223 3473.7869448261335 1454.0021083503962 6524.966274255887 540.8344466798007 5463.359304166399 -76.09728845395148 2903.598590267822 -1021.8782596774399 5432.638941168785 -478.32587034627795 415.48394505586475 -1315.3963436819613 668.0653193513863 -1554.5592788551003 322.3852898972109 -1508.35735729523 6.646975251380354 -1122.4352299515158 515.1320046107285 -372.3333151098341 1857.599719604943 510.9390797857195 1265.9137724395841 2089.958240678534 2418.45685569942 434.84169121831656 1889.8830511379056 -423.97072151862085 1281.8815755140968 -2611.768290163949 3446.3981988951564 1062.6445962674916 4407.705986501183 122.29910990037024 1605.9884550236166 -20709.338835300878 -19433.450776804704 -20679.443368300796 -19434.300895836204 -21570.869090572 -20309.14014368411 -20089.689357748255 -19377.595130139962 -17885.585234440863 -17283.078547528945 -14869.516683071852 -14392.230860963464 -3016.0685513727367 -2921.5758568905294 -17885.58513432555 -17338.00669508055 -4146.680101744831 -4024.29042940028 -247.4058495722711 -25464.991236025468 75.25531535595655 -34577.17242822889 -29.942382672801614 -28436.539574633352 -176.4843622352928 -29763.779201355763 17386.253998020664 30.463843445293605 -10.908976143226027 -1555.7893653167412 27422.437684722245 -50.08175176568329 45220.41828534007 43.68813073635101 36265.3227390293 -47.71494242269546 22.931926429271698 1337.827591540292 23558.873230949044 -10.152917095459998 36914.87163385935 77.76097955368459 z" vector-effect="non-scaling-stroke" fill="#000" fill-opacity="1" stroke="#FFF" stroke-width="0.3px" stroke-linejoin="round" stroke-linecap="round"><title>Clark County</title></path>
<path id="32005" d="M -13283974.495556004 -4654989.651990748 l -22218.0445003286 -19845.50220285449 -5641.440283220261 -5044.412195096724 -20432.758839732036 -18291.30474393349 -13347.25744288601 -11966.179954652674 -12726.941579960287 -11423.2002821723 -10.871169922873378 -2007.5150917852297 0 -7939.527241928503 -0.653552610427141 -6317.907412155531 26596.65155792609 -189.60379006434232 1012.6726285088807 4174.915671263821 22389.462870728225 -127.20656506344676 26635.855275969952 312.0698165250942 112.54278068058193 13312.978894001804 -3660.2956201750785 -7.876961375586688 -495.92833148501813 1022.7018785709515 -5967.948441682383 44.823811043053865 -94.39915083162487 4105.790491998196 -2041.5987932346761 -9.733754677698016 -118.55692748352885 10384.64368841704 -1962.7848163899034 19.305167044512928 -39.51864186860621 4202.423097202554 2004.4186399020255 -13.865015980787575 11.465128310024738 4200.693848764524 1989.6131476312876 2028.7683260869235 -264.0508340355009 10815.51196940057 6293.955696796998 -392.95111614931375 214.6695079151541 12493.163192651235 2064.9769994951785 6.984263203106821 z" vector-effect="non-scaling-stroke" fill="#000" fill-opacity="1" stroke="#FFF" stroke-width="0.3px" stroke-linejoin="round" stroke-linecap="round"><title>Douglas County</title></path>
<path id="32007" d="M -12695158.33311603 -5160991.027686566 l 2.717742424458265 23365.916128650308 13.588712122291327 23298.033510732464 5.435484854504466 23259.723757651635 10.871169924736023 23185.50984252058 5.435484847053886 23137.159303933382 10.871069813147187 23085.58952354826 2.199811862781644 9324.535840374418 3.235672984272242 13699.103156403638 10.870969699695706 22976.519282865338 8.153327388688922 22919.03667864483 10.871069805696607 22869.142625977285 5.435584966093302 22805.39155617263 10.870969699695706 22767.009053264745 0.397829443216324 1663.5062795029953 -23376.558592865244 -278.1713132765144 -31018.27954236418 -349.51325032580644 -37186.93669199385 -488.55441276635975 -29112.491084497422 21.106989581137896 -15346.613203303888 -35.08662629686296 -12484.144373646006 -519.8767750617117 -27467.6339545846 -321.4625540189445 -23638.355124741793 69.88107074517757 -18471.01701744087 67.84218300972134 -7991.287498833612 -35931.30441597756 -4108.2432473786175 -18891.58450535126 -1820.1838807687163 -7522.774488233961 -3550.4216129668057 -16442.76484522689 -35.727990571409464 -49070.72004174162 -14213.82684423402 0.146024565212429 -33501.149019742385 -71.8360909530893 -9910.772372892126 33.186262004077435 -38138.38515903428 -11.951796682551503 57.222337087616324 -35480.77546372637 -90.05646617524326 -4725.87957455311 125.34864093922079 -32926.413317086175 -75.25141917914152 -846.1293132295832 -41.295857544988394 -37229.597165877 222.8948409035802 -37323.48712793086 20693.03228064254 -3.657057433389127 20690.31453821808 -7.314119084738195 20690.314538227394 -7.314124688506126 20693.032380752265 -3.657064449042082 20695.749922960997 -3.657200573943555 20687.596795797348 -7.314135912805796 20690.31453821808 0 20693.03228064254 -7.314141525886953 20695.750123184174 -3.657072875648737 20687.596795793623 0 13216.601360706612 -2.336073217913508 7473.713077401742 -1.32100105471909 20693.032280640677 -7.3144221752882 20693.03238076158 -7.314158372581005 20695.750023066998 -7.314163973554969 14649.73252453655 -2.588710276409984 6046.017498537898 -1.068373815156519 z" vector-effect="non-scaling-stroke" fill="#000" fill-opacity="1" stroke="#FFF" stroke-width="0.3px" stroke-linejoin="round" stroke-linecap="round"><title>Elko County</title></path>
<path id="32009" d="M -13042939.366327286 -4434944.9476364385 l -4769.64227219671 -4489.103059437126 -20407.667423915118 -19224.601229203865 -20404.94958137721 -19259.650437454693 -20410.38516633585 -19298.3617659593 -7834.5182968545705 -7415.781110780314 -12575.866869486868 -11914.696051687934 -20407.667323801666 -19366.251382106915 -26074.199122952297 -23022.713188957423 -7229.47898613289 -6393.394381416962 8228.201025508344 909.4890304524451 11191.0591723416 -12612.55775807891 1838.9980992227793 -2382.605974880047 12076.160221001133 -13252.475431539118 6435.378872208297 -7388.594157782383 7612.359959678724 -8352.050923205912 21436.4597156737 -23910.430035025813 12931.983798297122 -14255.863295269199 9437.218145860359 10856.71066534426 13525.425777332857 15357.48596582748 14428.72778537497 16704.16064638924 12635.371011327952 14262.435989524238 62.33880352601409 2886.61226174701 2426.6530232056975 -32.79558671731502 5972.511761572212 6875.900538559072 83.93456209823489 2141.2861101347953 -66.79503406584263 33077.18479406554 -99.29776501841843 12915.114986101165 97.06736770644784 40887.03046889044 -15.252773994579911 23537.11911078822 z" vector-effect="non-scaling-stroke" fill="#000" fill-opacity="1" stroke="#FFF" stroke-width="0.3px" stroke-linejoin="round" stroke-linecap="round"><title>Esmeralda County</title></path>
<path id="32011" d="M -12978380.247896127 -5012399.524197653 l 33501.149019742385 71.8360909530893 14213.82684423402 -0.146024565212429 35.727990571409464 49070.72004174162 3550.4216129668057 16442.76484522689 1820.1838807687163 7522.774488233961 4108.2432473786175 18891.58450535126 7991.287498833612 35931.30441597756 18471.01701744087 -67.84218300972134 1070.1130404826254 3168.8453034712 -1599.9948185309768 1090.9337477385998 1388.1534935925156 5238.4804938696325 -666.4697913788259 2816.9784092232585 675.486336177215 2878.249266876839 -904.2484463490546 876.9605052089319 868.0692778788507 5141.156231505796 1416.873254302889 4806.116777829826 -155.9591631963849 2885.6020484445617 1538.101626927033 2352.29013314005 -584.9844807125628 1814.2755180243403 1419.3226170595735 6848.804916190915 -520.8637861032039 2748.34956932161 -1439.1380430161953 1393.4583628764376 269.0582073684782 9081.186355867423 -2565.580749588087 4696.930736227892 1012.1161423772573 6290.385065696202 -62.78519468382001 8251.277704192325 1235.3121666908264 5108.576185698621 -2749.2574641201645 5391.850864641368 716.2288245297968 2810.745623856783 -1399.2862219121307 4064.730363660492 -2288.506091726944 2833.3393381675705 -673.9284199010581 2759.573362359777 -2656.4167861640453 1254.493260285817 -1433.2381100021303 -483.7555737886578 65.45218704268336 43535.9999281317 -10597.613965047523 89.01210251450539 -27676.80260986276 -86.57427754625678 -38967.38062773831 52.82944639399648 429.469816243276 -2120.0274695856497 28.945961909368634 -28266.267049112357 442.27278220653534 -307.45206503849477 -3.336245141923428 -37336.365913604386 294.440943704918 -10517.988898005337 -17.58257961086929 -52902.030326767825 -1067.7772236056626 -178.20102419238538 15.697829313576221 -9152.050876166672 627.2877796441317 -26983.365457491018 19.37204043008387 -23498.646865166724 -179.891740527004 -6537.877022531815 -28.93917142227292 -38677.307131994516 -100.07366187311709 -23143.880821992643 1081.0234637763351 -82.53320919629186 z" vector-effect="non-scaling-stroke" fill="#000" fill-opacity="1" stroke="#FFF" stroke-width="0.3px" stroke-linejoin="round" stroke-linecap="round"><title>Eureka County</title></path>
<path id="32013" d="M -13157649.440847514 -5160910.5716947345 l 6880.217169126496 0 20758.258599398658 0 20755.54075686261 0 20752.823014440015 0 20758.258499285206 0 20760.97644193843 0 20752.823014440015 0 -222.8948409035802 37323.48712793086 41.295857544988394 37229.597165877 75.25141917914152 846.1293132295832 -125.34864093922079 32926.413317086175 90.05646617524326 4725.87957455311 -57.222337087616324 35480.77546372637 -27.278061982244253 52547.98571375664 -25394.75460707955 86.55400082096457 -5989.879939837381 17048.477914016694 69.6881163045764 -22011.358910678886 -1054.1946872584522 -1067.4502583118156 -37287.34776324034 -118.32423153426498 19.928749207407236 -25500.06593797356 -17944.587034163997 38.11848568171263 -21768.745278749615 -67.41260229051113 -48670.87688800506 342.4837746238336 -38800.289849417284 -34.29636086151004 3.674545070156455 -15454.366410622373 -21248.32610268891 -30.959124349057674 -36959.8461552877 100.53125862590969 -2246.14858020097 -2.358431745320558 -183.06423469260335 -11604.940906851552 39.18813430517912 -28977.12592735421 2822.504687184468 85.26465431880206 171.5455616991967 -10843.58190016821 -51.53958839736879 -15860.917989899404 -2150.358714973554 19.07405995670706 243.123215040192 -8934.941958685406 60.78233440965414 -17276.492311162874 -646.2095327395946 48.37354546971619 7.908136632293463 -39721.39779119752 220.96930054202676 -2691.397426035255 87.72198513522744 -18651.756889952347 7795.195833945647 0 20755.540856976062 0 20758.258599404246 0 20758.258499285206 0 20755.540756860748 0 20755.5408569742 0 z" vector-effect="non-scaling-stroke" fill="#000" fill-opacity="1" stroke="#FFF" stroke-width="0.3px" stroke-linejoin="round" stroke-linecap="round"><title>Humboldt County</title></path>
<path id="32015" d="M -13110716.466149963 -4735062.995154084 l -1939.2473119366914 -4517.916686168872 44.082963636144996 -4883.312943827361 1063.3235534187406 -2393.2153062075377 4321.532950205728 -2270.547293426469 1123.8820243254304 -2732.0838290471584 1532.3122341763228 -1521.7200346924365 -270.72811105661094 -4275.149082800373 -1864.3778299298137 -6546.305120814592 -1402.736680842936 -2110.580663833767 -1209.0399876330048 -6036.971878540702 804.9519058391452 -3354.302587597631 6529.665479026735 -1349.6093103466555 1339.5076553598046 -1851.2390932645649 1077.0159621089697 -3386.17719609756 3176.50178110227 -649.6438840599731 1041.839225653559 -3589.512123630382 -2178.2999071590602 -1540.5269058924168 4614.415866320953 -3953.971340091899 3211.6777383200824 -1971.294224537909 -372.9198488779366 -2149.7514615505934 6234.11267625168 -1486.5824998943135 1725.5636494178325 -1414.4863825328648 2794.2297591697425 404.158743978478 1447.1536029521376 -3941.105384205468 489.69455131702125 -3032.9310992769897 -467.42965128459036 -2325.7584083816037 2081.451393576339 -3395.5676479758695 -2727.3260772824287 -3151.0960281761363 2415.632950214669 -4930.855924910866 -2582.7227266579866 -3573.09789211303 1380.3617971558124 -4558.825551461428 -2237.632973115891 -2012.334538269788 44.52790763601661 -3612.9423969611526 979.6121868956834 -1745.4664995493367 -233.88169355504215 -5854.2545333933085 1770.0912231039256 -1826.5345951020718 1213.3828949220479 -6424.38576829806 -512.1808658186346 -3903.1507816733792 -1302.5483598969877 -4195.055520031601 -3150.4521297048777 -2424.7955775754526 -556.5973426494747 -2149.5444178804755 -3418.175282418728 -4390.292629103176 17118.82495138608 -48865.92730421387 9726.096009338275 -27737.613346222788 5989.879939837381 -17048.477914016694 25394.75460707955 -86.55400082096457 27.278061982244253 -52547.98571375664 38138.38515903428 11.951796682551503 9910.772372892126 -33.186262004077435 -35.400488620623946 7870.10381914489 -1081.0234637763351 82.53320919629186 100.07366187311709 23143.880821992643 28.93917142227292 38677.307131994516 179.891740527004 6537.877022531815 -19.37204043008387 23498.646865166724 -627.2877796441317 26983.365457491018 -15.697829313576221 9152.050876166672 1067.7772236056626 178.20102419238538 17.58257961086929 52902.030326767825 -294.440943704918 10517.988898005337 3.336245141923428 37336.365913604386 -442.27278220653534 307.45206503849477 -28.945961909368634 28266.267049112357 -429.469816243276 2120.0274695856497 -16694.247404124588 -9.62132178619504 -27830.423952443525 -258.28670706693083 -36839.397909646854 -14.649093327112496 -18822.008039830253 3449.052677466534 z" vector-effect="non-scaling-stroke" fill="#000" fill-opacity="1" stroke="#FFF" stroke-width="0.3px" stroke-linejoin="round" stroke-linecap="round"><title>Lander County</title></path>
<path id="32017" d="M -12694985.601811796 -4675561.26711924 l 3.68907524831593 15098.660035705194 0.233979361131787 956.8798799896613 10.871069811284542 22210.723353370093 5.435484854504466 22159.31476702355 7.222677558660507 14696.203565081581 3.648392245173454 7415.548770357855 8.153327388688922 22061.110875223763 10.871069813147187 22021.17192175053 5.435484847053886 21971.256041534245 1.634987322613597 3299.949950352311 9.235982378944755 18621.77017525118 5.435584958642721 21889.64708426688 10.871069813147187 21827.14981766697 5.435484852641821 21788.93008097727 -5.435484852641821 1153.6035551428795 -5.435484848916531 3283.1696643456817 -8.153427500277758 5091.15519245062 -13.588712124153972 6600.921889205463 -8.578592505306005 6152.06884498056 -19867.235313907266 -34.22362727858126 -36914.87163385935 -77.76097955368459 -23558.873230949044 10.152917095459998 -22.931926429271698 -1337.827591540292 -36265.3227390293 47.71494242269546 -45220.41828534007 -43.68813073635101 -27422.437684722245 50.08175176568329 10.908976143226027 1555.7893653167412 -17386.253998020664 -30.463843445293605 274.8931298069656 -2726.546524612233 -212.06340732052922 -8384.765762951225 45.64254969358444 -12416.434640605003 -37.066941402852535 -33353.89793114271 163.9742778521031 -3530.9174483036622 -168.87088829651475 -13964.349848690443 135.2549624275416 -17552.650888262317 16.477844985201955 -35108.676044072025 197.48400492966175 -29811.681985855103 -73.47019600495696 -12593.657338290475 37197.623919708654 -96.12493759207428 20465.41612393409 84.96227166615427 41746.4710474778 -69.97149001806974 -22.148571165278554 -39079.49437910784 22.15647484920919 -49828.28795848042 22711.843670785427 2.569532223045826 36278.34700813331 -0.281764435581863 z" vector-effect="non-scaling-stroke" fill="#000" fill-opacity="1" stroke="#FFF" stroke-width="0.3px" stroke-linejoin="round" stroke-linecap="round"><title>Lincoln County</title></path>
<path id="32019" d="M -13264699.295989482 -4637803.856107315 l -15419.044943895191 -13745.336180127226 -3856.154622627422 -3440.459703305736 303.2353080175817 -16452.012211716734 -2064.9769994951785 -6.984263203106821 -214.6695079151541 -12493.163192651235 -6293.955696796998 392.95111614931375 264.0508340355009 -10815.51196940057 -1989.6131476312876 -2028.7683260869235 -11.465128310024738 -4200.693848764524 -2004.4186399020255 13.865015980787575 39.51864186860621 -4202.423097202554 1962.7848163899034 -19.305167044512928 118.55692748352885 -10384.64368841704 2041.5987932346761 9.733754677698016 94.39915083162487 -4105.790491998196 5967.948441682383 -44.823811043053865 495.92833148501813 -1022.7018785709515 3660.2956201750785 7.876961375586688 -112.54278068058193 -13312.978894001804 -26635.855275969952 -312.0698165250942 -1138.0184864643961 -7269.903587163426 -1296.8157400805503 -1652.4651290131733 1372.068940371275 -4416.463034512475 -350.1001325007528 -2395.182964177802 -9441.783580819145 20.683988578617573 -3741.0576881095767 -2011.5016899220645 -3399.8631148654968 -5977.971680324525 7268.605260785669 -2256.734041075222 18786.720985764638 -10237.92203201726 21701.623299337924 -40934.658175601624 8867.264356750995 -14.74056196399033 1649.7411612626165 -1573.2645776784047 1075.5825010240078 -2842.640893657692 1859.0351622886956 -347.0052999323234 5699.334621718153 -5155.1880421396345 3741.7818213924766 -4656.923489170149 103.97106857225299 12393.262214589864 -1346.1861568894237 -2.747340576723218 -106.75728410482407 17047.720435528085 -3064.5142620429397 -0.144593901000917 -62.117389062419534 18774.720735246316 2037.2572217788547 86.42157714255154 37.95994635671377 2023.622828014195 2050.0594084896147 236.5985054494813 2101.043957909569 1861.629404307343 -0.669030137360096 2094.1908989064395 2065.644582482055 5.326409268192947 -9.128309566527605 2095.76847734116 2090.801896845922 -7.914626097306609 -13.135254640132189 2094.3268528729677 2092.026188602671 -19.280530214309692 -27.495468946173787 2274.864693059586 2002.080485323444 -66.89213146921247 7.792475672438741 2105.9500706847757 2518.602143364027 -14.814472374506295 -1.447042066603899 2119.7484530275688 2079.113795587793 12.797809768468142 -2.671333815902472 2092.5588349420577 2074.549585144967 -23.865004976280034 26.93853753246367 2049.584930022247 2055.625160396099 -14.949187223799527 0.891223840415478 2127.7778010768816 2163.1597884949297 -4.455145106650889 -54.88073159754276 4247.747377901338 2568.362846303731 54.585384788922966 2092.582452101633 1690.5469418270513 22.152912624180317 2113.2875102814287 1991.2826060336083 27.856082567945123 -0.779236435890198 2229.6953758951277 2295.741079390049 16.940505026839674 1966.0498170536011 2003.5273885400966 46.494923043996096 4175.446591411717 4264.203078491613 57.67492192424834 19.925632251426578 5363.307068068534 -19600.910294270143 171.06413010135293 -5244.817586084828 10035.430178819224 -4208.8782934471965 8604.067661536857 34.17374784499407 13162.996495398693 12513.087886529043 -122.92869859654456 32.503510197624564 12454.304520840757 -577.9706848822534 -14.563242129981518 6.67794493585825 19990.9776541749 125.23242338746786 15760.109859603457 -114.21479942835867 14153.319426010363 -24392.099730860442 90.35680159833282 z" vector-effect="non-scaling-stroke" fill="#000" fill-opacity="1" stroke="#FFF" stroke-width="0.3px" stroke-linejoin="round" stroke-linecap="round"><title>Lyon County</title></path>
<path id="32021" d="M -13183053.741370339 -4565329.500243443 l -18844.720136824995 -16683.87943135947 -26074.19902284071 -23125.358700869605 -26071.48138052784 -23177.305403034203 -10655.154078949243 -9487.812328608707 3657.0549281407148 -277.5630667479709 24392.099730860442 -90.35680159833282 114.21479942835867 -14153.319426010363 -125.23242338746786 -15760.109859603457 -6.67794493585825 -19990.9776541749 577.9706848822534 14.563242129981518 -32.503510197624564 -12454.304520840757 -12513.087886529043 122.92869859654456 -34.17374784499407 -13162.996495398693 4208.8782934471965 -8604.067661536857 5244.817586084828 -10035.430178819224 19600.910294270143 -171.06413010135293 14794.247003182769 97.57917495816946 42008.4056979958 86.68417196068913 42129.076359970495 -44.303500077687204 -36864.334588784724 10566.396185975522 49.31453442387283 11626.956235458143 21389.588198794052 24120.781751269475 31445.743715343997 35622.2009570552 3359.8437579292804 3715.6701960489154 -12931.983798297122 14255.863295269199 -21436.4597156737 23910.430035025813 -7612.359959678724 8352.050923205912 -6435.378872208297 7388.594157782383 -12076.160221001133 13252.475431539118 -1838.9980992227793 2382.605974880047 -11191.0591723416 12612.55775807891 z" vector-effect="non-scaling-stroke" fill="#000" fill-opacity="1" stroke="#FFF" stroke-width="0.3px" stroke-linejoin="round" stroke-linecap="round"><title>Mineral County</title></path>
<path id="32023" d="M -12901207.478400163 -4298879.774410274 l -13736.187390271574 -13341.435519230552 -17885.58513432555 -17393.61821067147 -17885.585134323686 -17421.684959782287 -17882.86739190854 -17446.547812061384 -17882.86749201268 -17478.340516171418 -20407.66732380353 -19120.86271557398 -20410.38516633585 -19155.202779629268 -15640.742894141003 -14707.480713044293 124.12848580442369 -32161.39520167932 15.252773994579911 -23537.11911078822 -97.06736770644784 -40887.03046889044 99.29776501841843 -12915.114986101165 66.79503406584263 -33077.18479406554 -83.93456209823489 -2141.2861101347953 -5972.511761572212 -6875.900538559072 -2426.6530232056975 32.79558671731502 -62.33880352601409 -2886.61226174701 -12635.371011327952 -14262.435989524238 -14428.72778537497 -16704.16064638924 -13525.425777332857 -15357.48596582748 -9437.218145860359 -10856.71066534426 -3359.8437579292804 -3715.6701960489154 -31445.743715343997 -35622.2009570552 -21389.588198794052 -24120.781751269475 -49.31453442387283 -11626.956235458143 36864.334588784724 -10566.396185975522 9966.829974150285 -2836.401039504446 30573.830464122817 -6595.935538291931 18822.008039830253 -3449.052677466534 36839.397909646854 14.649093327112496 27830.423952443525 258.28670706693083 16694.247404124588 9.62132178619504 38967.38062773831 -52.82944639399648 27676.80260986276 86.57427754625678 10597.613965047523 -89.01210251450539 31170.896783132106 21242.025522000156 14418.987775208429 9848.269328626804 27459.728044344112 18954.77470285818 27830.867226649076 19280.87220870424 -22.15647484920919 49828.28795848042 22.148571165278554 39079.49437910784 -41746.4710474778 69.97149001806974 -20465.41612393409 -84.96227166615427 -37197.623919708654 96.12493759207428 73.47019600495696 12593.657338290475 -197.48400492966175 29811.681985855103 -16.477844985201955 35108.676044072025 -135.2549624275416 17552.650888262317 168.87088829651475 13964.349848690443 -163.9742778521031 3530.9174483036622 37.066941402852535 33353.89793114271 -45.64254969358444 12416.434640605003 212.06340732052922 8384.765762951225 -274.8931298069656 2726.546524612233 176.4843622352928 29763.779201355763 29.942382672801614 28436.539574633352 -75.25531535595655 34577.17242822889 z" vector-effect="non-scaling-stroke" fill="#000" fill-opacity="1" stroke="#FFF" stroke-width="0.3px" stroke-linejoin="round" stroke-linecap="round"><title>Nye County</title></path>
<path id="32027" d="M -13084686.238997677 -4866091.7314533 l -9373.099566319957 -137.7640984011814 -35586.16352757998 -91.84810617566109 -19331.85063974932 106.66478269267827 -14049.296636831015 -72.66177006997168 -28440.566526759416 538.2558170286939 -11670.288467006758 55.436579511500895 -29973.880302382633 -13.445734309963882 -9272.243662383407 -132.38192797638476 -29690.795839175582 -12.209874385036528 -12713.797151062638 112.32670291513205 53.65989074483514 -36584.228286130354 112.93507055938244 -15325.019334368408 -78.4220209158957 -23826.675539973192 2834.9734720308334 -74.53414510656148 -21.706298829987645 -15620.473487186246 122.45388890430331 -23025.8910922464 308.13368634693325 -12797.49627454672 -26.046757094562054 -13504.695179399103 36959.8461552877 -100.53125862590969 21248.32610268891 30.959124349057674 -3.674545070156455 15454.366410622373 38800.289849417284 34.29636086151004 48670.87688800506 -342.4837746238336 21768.745278749615 67.41260229051113 17944.587034163997 -38.11848568171263 -19.928749207407236 25500.06593797356 37287.34776324034 118.32423153426498 1054.1946872584522 1067.4502583118156 -69.6881163045764 22011.358910678886 -9726.096009338275 27737.613346222788 z" vector-effect="non-scaling-stroke" fill="#000" fill-opacity="1" stroke="#FFF" stroke-width="0.3px" stroke-linejoin="round" stroke-linecap="round"><title>Pershing County</title></path>
<path id="32029" d="M -13278592.296124082 -4811099.21414442 l -21701.623299337924 40934.658175601624 -18786.720985764638 10237.92203201726 -7268.605260785669 2256.734041075222 1795.0266777221113 -1189.4776441557333 62.67320727184415 -3127.829841155559 2049.446260737255 3.667833676561713 14.751613643020391 -7296.890829013661 2105.3847501315176 6.909514794126153 -2993.3799942322075 -6273.191009669565 934.0821812003851 -4227.81085882429 2210.2482670657337 51.86469422467053 231.0995968412608 -6249.876744082198 -5557.198730720207 2.306808134540916 -64.40420162677765 -12384.079228911549 4928.2066236604005 2031.86238968838 4801.377776728943 -757.4959085294977 4982.56184377335 -4475.6792584182695 5073.153877297416 -3214.089935931377 4955.384233718738 799.2119707716629 2029.2615509182215 -722.8139509120956 1671.4230185039341 -1692.6466202642769 11138.290521673858 -1592.994908740744 5172.805114174262 -3627.8019427964464 z" vector-effect="non-scaling-stroke" fill="#000" fill-opacity="1" stroke="#FFF" stroke-width="0.3px" stroke-linejoin="round" stroke-linecap="round"><title>Storey County</title></path>
<path id="32031" d="M -13287112.96023312 -5160910.5716947345 l 4007.1425518821925 0 -87.72198513522744 18651.756889952347 -220.96930054202676 2691.397426035255 -7.908136632293463 39721.39779119752 646.2095327395946 -48.37354546971619 -60.78233440965414 17276.492311162874 -243.123215040192 8934.941958685406 2150.358714973554 -19.07405995670706 51.53958839736879 15860.917989899404 -171.5455616991967 10843.58190016821 -2822.504687184468 -85.26465431880206 -39.18813430517912 28977.12592735421 183.06423469260335 11604.940906851552 2246.14858020097 2.358431745320558 26.046757094562054 13504.695179399103 -308.13368634693325 12797.49627454672 -122.45388890430331 23025.8910922464 21.706298829987645 15620.473487186246 -2834.9734720308334 74.53414510656148 78.4220209158957 23826.675539973192 -112.93507055938244 15325.019334368408 -53.65989074483514 36584.228286130354 12713.797151062638 -112.32670291513205 -117.22087095864117 14511.248721488751 1949.3152693230659 -1.450893107801676 9.461043521761894 12977.164013373666 2090.8020081650466 -3.91168480925262 6.010584579780698 3154.729887181893 2093.696648882702 -9.705354549922049 28.719204114750028 15609.734933094122 -2080.11555968225 -4.195504724979401 18.465231850743294 6930.8523833770305 -1649.7411612626165 1573.2645776784047 -8867.264356750995 14.74056196399033 -2216.755357405171 -507.54122142121196 -5172.805114174262 3627.8019427964464 -11138.290521673858 1592.994908740744 -1671.4230185039341 1692.6466202642769 -2029.2615509182215 722.8139509120956 -4955.384233718738 -799.2119707716629 -5073.153877297416 3214.089935931377 -4982.56184377335 4475.6792584182695 -4801.377776728943 757.4959085294977 -4928.2066236604005 -2031.86238968838 64.40420162677765 12384.079228911549 5557.198730720207 -2.306808134540916 -231.0995968412608 6249.876744082198 -2210.2482670657337 -51.86469422467053 -934.0821812003851 4227.81085882429 2993.3799942322075 6273.191009669565 -2105.3847501315176 -6.909514794126153 -14.751613643020391 7296.890829013661 -2049.446260737255 -3.667833676561713 -62.67320727184415 3127.829841155559 -1795.0266777221113 1189.4776441557333 -295.21895563043654 946.9967298395932 -4096.111983226612 -14.661386570893228 -7.903238566592336 1966.3035241579637 -2082.565033759922 125.31535438634455 0.111096847802401 2090.323382301256 -3115.7207825351506 6.752651451155543 -5017.5024066492915 2077.6785701895133 -2068.760971620679 2174.194309540093 46.08560126833618 2080.968391796574 -2079.892920702696 809.6673224624246 -13286.522753329948 -13.577276290394366 -1.279096603393555 -12385.81479224749 -1.905121756717563 -9235.013716968708 -3.530363090336323 -17135.753828689456 -0.385998470708728 -1874.8067933851853 -5.049586495384574 -24558.343914218247 -1.546631779521704 -15076.002341546118 -1.171110643073916 -11430.726398902945 -2.717742424458265 -26577.432384770364 -5.435484852641821 -26652.344113435596 -8.153227269649506 -26717.24421362672 0 -26793.478580581024 -5.435584967955947 -26870.41420033388 -5.435584956780076 -26940.86702304706 -5.435484847053886 -27015.581578809768 -1.488990874961019 -14831.190470401198 -1.228751556947827 -12256.183449127711 -2.71774242259562 -27170.713890850544 -5.435584958642721 -27243.91466422472 -8.153227275237441 -27321.447115725838 -2.717742424458265 -27403.359901379794 20839.791372699663 0 20763.6940842513 0 20758.258599404246 0 z" vector-effect="non-scaling-stroke" fill="#000" fill-opacity="1" stroke="#FFF" stroke-width="0.3px" stroke-linejoin="round" stroke-linecap="round"><title>Washoe County</title></path>
<path id="32033" d="M -12695057.378216194 -4882634.851146324 l 5.037655403837562 21040.609429152682 5.572710921987891 9297.240494239144 8.016201425343752 13358.614546824247 5.435484854504466 22607.97321848292 4.003197621554136 16615.370743999258 1.432287221774459 5938.052911363542 5.435584960505366 22499.29402209539 5.435484854504466 22456.100501305424 10.870969699695706 22406.252494581044 5.435584958642721 22346.31798936054 13.588812237605453 22311.219172291458 1.512430237606168 6196.538503387943 -47858.488857097924 8.803130192682147 -36278.34700813331 0.281764435581863 -22711.843670785427 -2.569532223045826 -27830.867226649076 -19280.87220870424 -27459.728044344112 -18954.77470285818 -14418.987775208429 -9848.269328626804 -31170.896783132106 -21242.025522000156 -65.45218704268336 -43535.9999281317 1433.2381100021303 483.7555737886578 2656.4167861640453 -1254.493260285817 673.9284199010581 -2759.573362359777 2288.506091726944 -2833.3393381675705 1399.2862219121307 -4064.730363660492 -716.2288245297968 -2810.745623856783 2749.2574641201645 -5391.850864641368 -1235.3121666908264 -5108.576185698621 62.78519468382001 -8251.277704192325 -1012.1161423772573 -6290.385065696202 2565.580749588087 -4696.930736227892 -269.0582073684782 -9081.186355867423 1439.1380430161953 -1393.4583628764376 520.8637861032039 -2748.34956932161 -1419.3226170595735 -6848.804916190915 584.9844807125628 -1814.2755180243403 -1538.101626927033 -2352.29013314005 155.9591631963849 -2885.6020484445617 -1416.873254302889 -4806.116777829826 -868.0692778788507 -5141.156231505796 904.2484463490546 -876.9605052089319 -675.486336177215 -2878.249266876839 666.4697913788259 -2816.9784092232585 -1388.1534935925156 -5238.4804938696325 1599.9948185309768 -1090.9337477385998 -1070.1130404826254 -3168.8453034712 23638.355124741793 -69.88107074517757 27467.6339545846 321.4625540189445 12484.144373646006 519.8767750617117 15346.613203303888 35.08662629686296 29112.491084497422 -21.106989581137896 37186.93669199385 488.55441276635975 31018.27954236418 349.51325032580644 z" vector-effect="non-scaling-stroke" fill="#000" fill-opacity="1" stroke="#FFF" stroke-width="0.3px" stroke-linejoin="round" stroke-linecap="round"><title>White Pine County</title></path>
<path id="32510" d="M -13358352.462924665 -4737825.201115327 l -0.785093210637569 -7594.737207135186 13286.522753329948 13.577276290394366 2079.892920702696 -809.6673224624246 -46.08560126833618 -2080.968391796574 2068.760971620679 -2174.194309540093 5017.5024066492915 -2077.6785701895133 3115.7207825351506 -6.752651451155543 -0.111096847802401 -2090.323382301256 2082.565033759922 -125.31535438634455 7.903238566592336 -1966.3035241579637 4096.111983226612 14.661386570893228 295.21895563043654 -946.9967298395932 3399.8631148654968 5977.971680324525 3741.0576881095767 2011.5016899220645 9441.783580819145 -20.683988578617573 350.1001325007528 2395.182964177802 -1372.068940371275 4416.463034512475 1296.8157400805503 1652.4651290131733 1138.0184864643961 7269.903587163426 -22389.462870728225 127.20656506344676 -1012.6726285088807 -4174.915671263821 z" vector-effect="non-scaling-stroke" fill="#000" fill-opacity="1" stroke="#FFF" stroke-width="0.3px" stroke-linejoin="round" stroke-linecap="round"><title>Carson City</title></path>
</svg>
