<svg xmlns="http://www.w3.org/2000/svg" xmlns:xlink="http://www.w3.org/1999/xlink" height="1080" width="1920" viewBox="-8076915.975902107 -5669554.012284999 206158.9855765691 403004.2628391385">
<path id="33001" d="M -7921898.549544387 -5394431.793916338 l -3181.621698449366 4111.711322478019 1498.9159416593611 11220.117534420453 2071.4320828001946 12806.134157623164 -8426.215198395774 10885.602664373815 -15301.192402028479 -11625.258215849288 -20460.403963865712 -14489.573018929921 -3782.0240654284135 -353.34888185653836 -4959.9138353951275 1921.7565888566896 -625.0850313100964 -6328.325496967882 -973.8643603734672 -2416.388044955209 -6169.317482926883 -8134.184288369492 -1209.4036475345492 -2706.7316134739667 -448.43056593928486 -3664.413117724471 593.3778195753694 -1057.0714783566073 1363.4101045243442 -731.8894995003939 4692.66733650025 -1664.1694953078404 765.5026832707226 -625.7051075585186 946.686750318855 -1652.064997159876 715.6770648313686 -2873.0434945449233 -72.47362681943923 -3136.9564059972763 -264.84428059868515 -2407.199666906148 760.5058882255107 178.9964594002813 12551.132769659162 -1524.1989347999915 -1132.7862477526069 -10452.06846371293 6919.839626339264 7394.05453700386 15468.505151418038 14940.59186072182 7825.646211609244 7362.376943588257 6831.006895331666 1937.9172770576552 z" vector-effect="non-scaling-stroke" fill="#000" fill-opacity="1" stroke="#FFF" stroke-width="0.3px" stroke-linejoin="round" stroke-linecap="round"><title>Belknap County</title></path>
<path id="33003" d="M -7900843.709380741 -5433119.05189028 l 304.9872120209038 5854.242481848225 440.27727617602795 8239.936107642949 432.1240488998592 8240.099689669907 434.8416912155226 8229.006238186732 241.8807777101174 4614.348749926314 -505.50359493121505 4776.990766087547 -6908.782120347023 7387.9660664871335 -1431.6791918575764 -7168.787956287153 -3311.4196681100875 364.4975300747901 -2461.9410791480914 2237.3385302377865 -2522.387562647462 891.1618776367977 -1771.6485827798024 -10147.217687585391 -3995.589369846508 5167.675580016337 -4003.2700807545334 -3083.3308764472604 -6831.006895331666 -1937.9172770576552 -7825.646211609244 -7362.376943588257 -15468.505151418038 -14940.59186072182 -6919.839626339264 -7394.05453700386 -1255.6831882335246 -4810.211001815274 -2333.922996818088 -14953.927434288897 13210.724797624163 -1903.9369355980307 9356.622945846058 -1562.9623853862286 -2326.2418406363577 -16513.795934754424 3998.928843253292 -7231.260153698735 -2212.028710993938 3.408516407944262 -1676.9161413935944 -4461.902441905811 612.7025886392221 -3365.8400024818256 -1257.0192447528243 -5586.209499384277 -2808.812278500758 -1667.6509499754757 -1409.7492521684617 -6921.19656930957 1077.6836564075202 -194.2888653660193 2288.1712427036837 -439.2228178875521 2661.1846490958706 4112.163404910825 1539.5662083225325 3481.497206381522 1589.4185763550922 6778.855363311246 504.5022342428565 1953.6046942146495 3163.511599591002 246.8542481949553 475.2963889753446 -4515.669904306531 5881.452752053738 -16367.249475012533 1110.3003785368055 -189.57676404062659 16220.802715476602 1317.6330703552812 6122.569767240435 -375.0704237250611 -219.41004844103009 -7131.293042924255 3751.4575706059113 -663.4632964879274 432.12404889892787 8322.165192202665 437.55953375343233 8314.597082857974 434.8416912164539 8303.26359157078 429.4063064754009 8288.178765714169 440.27727617509663 8292.032140796073 434.84169121831656 8288.323564145714 432.1240489045158 8269.53513073083 437.559533752501 8262.105492766947 434.8417913224548 8262.227907400578 z" vector-effect="non-scaling-stroke" fill="#000" fill-opacity="1" stroke="#FFF" stroke-width="0.3px" stroke-linejoin="round" stroke-linecap="round"><title>Carroll County</title></path>
<path id="33005" d="M -8046495.943637278 -5270168.941236677 l -4459.979124609381 -146.24294629506767 -7903.249031785876 -266.3746449779719 -7897.813446820714 -266.38232978247106 -16.30665477644652 0 -13.588712125085294 0 -13.588812233880162 0 -10.87106981407851 0 -13.588812234811485 0 -13.588712125085294 0 -16.306654770858586 0 -10.871069811284542 0 -10.870969694107771 0 -16.306654778309166 0 -10.871069813147187 0 -24.459781927987933 0 -13.588812237605453 0 -16.306554663926363 0 -10.870969695970416 -7.399563916027546 5.435484847053886 -25.898655873723328 -728.3599754450843 -4407.517800262198 -2168.773271560669 -3135.740056639537 -4772.388434562832 -4977.869788108394 -940.3451860351488 -1670.9930381672457 -657.6981718400493 -1497.1067543365061 -429.4062063694 -1727.157465454191 -255.46958994399756 -2361.4574214182794 78.81513098999858 -2755.1674633845687 548.9875738378614 -1780.350397206843 807.1751064397395 -1587.7644855948165 847.9413429209962 -2174.3382539507 771.844154576771 -6604.028791793622 760.9731848761439 -2685.2628006003797 1918.7392665818334 -1092.1530919251963 2685.1478361915797 -984.5328949624673 1065.3623386938125 -2523.1064488384873 467.4549006484449 -6982.036878062412 1940.481306088157 -8584.123291672207 269.058402181603 -3477.5693840133026 -665.8514992268756 -3955.728551856242 2320.025841373019 -478.9507724819705 51.09531231597066 3676.9662335095927 6628.739603195339 544.88390309643 -483.237464254722 -3907.330763598904 5119.358961485326 387.9076525894925 -194.4750390946865 -1177.506141080521 7776.665858299471 -1013.4209117814898 11771.58697724156 -1895.4235469382256 -2438.8983898265287 7631.096149900928 15619.01010483969 480.1782731115818 -441.1593646481633 7094.6898034513 -1784.3400066075847 9722.026109392755 -471.2156271645799 11202.215048524551 6268.286980686709 142.64436056558043 3528.157937449403 23468.049288080074 3292.71799366083 120.89727631676942 1789.7252315180376 10985.259205279872 -4396.335638293996 -148.2542574815452 -7900.531289359555 -266.3376460811123 -7897.813446820714 -255.24726185854524 -7897.813546931371 -262.6531927054748 -7897.813346715644 -262.6603947887197 z" vector-effect="non-scaling-stroke" fill="#000" fill-opacity="1" stroke="#FFF" stroke-width="0.3px" stroke-linejoin="round" stroke-linecap="round"><title>Cheshire County</title></path>
<path id="33007" d="M -7959994.603351986 -5623683.422013324 l 196.7875901972875 -1.298160323873162 -281.87698069401085 -3670.691102394834 207.09332601819187 -2507.672615702264 834.1261840360239 -2141.8444002801552 4527.291555526666 -7007.307128167711 598.2696827119216 -1687.4570044325665 581.0120446886867 -2935.461786407046 488.97052935138345 -1639.3828335143626 3181.184658122249 -5605.520538516343 719.0742620257661 -2963.2805879199877 -1794.809493392706 -1935.231205237098 -2933.8229534653947 -1535.416478022933 1139.01368271932 -1037.3713949052617 4889.704959547147 -1274.4153561228886 1518.6849473854527 -1462.5327524077147 3244.4629981527105 -4356.327392264269 1978.8923014244065 -1643.3666889453307 2536.8940507685766 -858.5947303930297 2019.160568752326 286.2073704926297 9353.718063743785 5942.873990789987 2697.966674777679 980.5639478694648 2761.2451261188835 441.2187873618677 2070.9339280901477 -1037.7158254422247 3417.040936814621 -5501.079259393737 1757.417387759313 -2183.383318179287 1078.6115043591708 -523.4368086457253 66.90045361686498 -12.667000570334494 431.79942280519754 8410.676552851684 434.84169120993465 8450.413902602158 434.84179132897407 8446.330379417166 437.55953375343233 8446.108103935607 432.1240489045158 8438.1943370644 437.5594336343929 8422.61800717935 432.1240489045158 8410.924043504521 434.8417913299054 8414.603623195551 434.841691210866 8406.778034406714 434.84179132897407 8395.14607345406 434.84179132804275 8387.37137529999 434.84169121738523 8379.6182270227 434.84179132338613 8371.88669617474 434.84179132804275 8364.176709507592 434.84179132804275 8352.677562996745 434.84169121831656 8352.63156827353 434.8417913224548 8341.175287375227 434.84179132897407 8329.75071064476 434.8416912164539 8322.154284362681 -3751.4575706059113 663.4632964879274 219.41004844103009 7131.293042924255 -6122.569767240435 375.0704237250611 -16220.802715476602 -1317.6330703552812 -1110.3003785368055 189.57676404062659 -5881.452752053738 16367.249475012533 -475.2963889753446 4515.669904306531 -3163.511599591002 -246.8542481949553 -504.5022342428565 -1953.6046942146495 -1589.4185763550922 -6778.855363311246 -1539.5662083225325 -3481.497206381522 -2661.1846490958706 -4112.163404910825 -2288.1712427036837 439.2228178875521 -3062.509175381623 -5780.699470127001 -2932.3771359175444 -1666.5781352454796 -4194.850924406201 -463.2083584731445 -7615.920513596386 1289.3077169423923 -1264.6999556627125 -7787.8887339010835 -11091.981263313442 -4934.247001668438 -1103.2872506137937 649.2970459172502 -7709.605318769813 -12120.95127856452 6882.360760315321 -4393.078566632234 2902.5688319662586 -1214.3111728569493 994.7005350906402 -1378.1918777124956 1921.457009004429 -3389.2593880705535 3802.1475812960416 -3196.1993025662377 2157.902301860042 -2804.7418836513534 100.55707039311528 -2717.9184441305697 -353.3089179145172 -2802.631771366112 788.15070924256 -3013.316154897213 1114.282102784142 -778.2845050888136 1375.1870774775743 11.445764726027846 1356.1626802766696 -267.07342672906816 1062.644496159628 -1587.3411417966709 -65.22611853387207 -1534.1846088506281 -736.5133028263226 -1614.6083969930187 -1410.5180293386802 -2187.6222826410085 -3435.2498511448503 -9000.375140227377 -434.8417913299054 -2270.6046427283436 -777.2795393113047 -2818.0222745416686 -1546.4060515845194 -2137.9987570215017 -1125.153072484769 -2501.984051356092 478.3258703481406 -3922.695795896463 2725.9143730122596 -5663.159469462 5228.972165286541 -7529.560988014564 4968.067090492696 -7167.526338630356 991.9827926689759 -3856.4787578703836 -937.6275437260047 -2472.0819379612803 -1527.3817544942722 -2403.6353366915137 -809.8927487488836 -3656.5961217116565 375.0509574264288 -4126.972714828327 1133.3063998734578 -1506.7769699525088 z" vector-effect="non-scaling-stroke" fill="#000" fill-opacity="1" stroke="#FFF" stroke-width="0.3px" stroke-linejoin="round" stroke-linecap="round"><title>Coos County</title></path>
<path id="33009" d="M -7997247.529752277 -5520888.105291648 l 3698.8726683678105 -4786.828999772668 1755.6736198635772 -1643.081234531477 2847.223594817333 -1816.7917578816414 7709.605318769813 12120.95127856452 1103.2872506137937 -649.2970459172502 11091.981263313442 4934.247001668438 1264.6999556627125 7787.8887339010835 7615.920513596386 -1289.3077169423923 4194.850924406201 463.2083584731445 2932.3771359175444 1666.5781352454796 3062.509175381623 5780.699470127001 -1077.6836564075202 194.2888653660193 1409.7492521684617 6921.19656930957 2808.812278500758 1667.6509499754757 1257.0192447528243 5586.209499384277 -612.7025886392221 3365.8400024818256 1676.9161413935944 4461.902441905811 2212.028710993938 -3.408516407944262 -3998.928843253292 7231.260153698735 2326.2418406363577 16513.795934754424 -9356.622945846058 1562.9623853862286 -13210.724797624163 1903.9369355980307 2333.922996818088 14953.927434288897 1255.6831882335246 4810.211001815274 1132.7862477526069 10452.06846371293 -12551.132769659162 1524.1989347999915 -760.5058882255107 -178.9964594002813 264.84428059868515 2407.199666906148 72.47362681943923 3136.9564059972763 -715.6770648313686 2873.0434945449233 -946.686750318855 1652.064997159876 -765.5026832707226 625.7051075585186 -4692.66733650025 1664.1694953078404 -1363.4101045243442 731.8894995003939 -593.3778195753694 1057.0714783566073 448.43056593928486 3664.413117724471 -4980.653679315932 748.9763322444633 -1905.9003339596093 2133.930041211657 -1892.3347181612626 -736.4458886217326 -2551.059678616002 2162.4057432655245 -3519.9539136160165 -10271.51322449185 -4729.7411889908835 5650.234906567261 -4795.085730087012 7097.827057353221 -14698.73198577948 -2387.043743696995 -2632.148469252512 2311.809585499577 -3223.9226596662775 -1435.5422536013648 1491.2355647049844 -2333.672363322228 -11352.246344100684 -4882.573005258106 -14972.598216393963 -2483.875066956505 1121.050864114426 -1858.956126788631 896.8611070113257 -3037.2950107986107 989.2649501329288 -6385.703797761351 380.4866424910724 -5374.924891652539 690.3112811613828 -1601.8063714196905 3011.2791296355426 -2474.698365093209 1443.1311386562884 -2020.1167489578947 4585.468338451348 -4257.317265126854 1287.6131864432245 -1195.8209740873426 1174.0727364690974 -2454.7769031431526 940.3452861486003 -3027.9566520815715 630.5205473648384 -3341.6994672855362 228.29186536185443 -3388.1463624518365 676.7225690381601 -3242.330876923166 1644.2453795466572 -3217.068912729621 7280.881711689755 -10469.863415961154 236.4452928621322 -1129.223283897154 -722.9244905989617 -895.16866046004 -962.0873256539926 -959.4759245635942 -483.76145530771464 -1288.272962816991 674.0046263849363 -2448.594853743911 4715.315443195403 -8650.885463710874 1638.809794580564 -4949.192006440833 619.6495776725933 -5944.075907697901 -7.212485720403492 -2013.1684259371832 -41.70717826299369 -11650.11173007451 826.1993034137413 -7896.483075319789 2467.726940526627 -5601.114630766213 4087.512538141571 -3347.1192844072357 5674.685026425868 -1109.6452375501394 5449.110803378746 243.22148469742388 2671.559124068357 -452.245224153623 z" vector-effect="non-scaling-stroke" fill="#000" fill-opacity="1" stroke="#FFF" stroke-width="0.3px" stroke-linejoin="round" stroke-linecap="round"><title>Grafton County</title></path>
<path id="33011" d="M -7931010.258568599 -5271976.449585783 l -1513.792942257598 1935.0315653048456 -1622.5032399212942 1620.2362471800297 -1641.5277372300625 1261.2236642837524 -880.554452246055 428.99930201563984 -1114.282002672553 181.2093611387536 -2587.3085082303733 -88.75524982530624 -7897.81354693789 -262.57227431517094 -7897.813446819782 -266.27780098933727 -7903.249031784944 -258.88874184992164 -7897.813446819782 -266.29280808661133 -7897.81344682537 -262.60184248909354 -7903.249031784944 -258.91015893407166 -7903.249031779356 -262.61640742234886 -7895.095704401843 -266.32255771849304 -3501.477808526717 -118.07598034106195 -1789.7252315180376 -10985.259205279872 -3292.71799366083 -120.89727631676942 -3528.157937449403 -23468.049288080074 -6268.286980686709 -142.64436056558043 471.2156271645799 -11202.215048524551 1784.3400066075847 -9722.026109392755 441.1593646481633 -7094.6898034513 1641.5169886024669 -4782.135020590387 -1490.3447861438617 -3419.363095670007 3094.2355642151088 -812.3632449256256 10657.72448632121 -2960.739795513451 6370.366508472711 14021.944193692878 20950.655557914637 -5675.369497020729 2958.2024785447866 15005.038054280914 13662.348083089106 -2245.980118639767 646.5431572543457 3143.2469698702917 2681.685865287669 -442.5287857595831 1381.5853096814826 2042.0083713494241 2393.479814947583 -974.9475750280544 578.8610181715339 3563.602115858346 6378.715804235078 1796.3629151685163 1870.2777629382908 10619.791902170517 -8449.257887709886 1292.266033939086 2697.603661922738 16071.149005355313 4516.452933306806 228.57536159455776 2769.739248556085 3578.314416908659 -158.42266353499144 2400.5698893116787 1514.9066525492817 1842.2932268055156 9966.819064840674 2432.424493039027 z" vector-effect="non-scaling-stroke" fill="#000" fill-opacity="1" stroke="#FFF" stroke-width="0.3px" stroke-linejoin="round" stroke-linecap="round"><title>Hillsborough County</title></path>
<path id="33013" d="M -7983417.243205635 -5399540.281208988 l 1209.4036475345492 2706.7316134739667 6169.317482926883 8134.184288369492 973.8643603734672 2416.388044955209 625.0850313100964 6328.325496967882 4959.9138353951275 -1921.7565888566896 3782.0240654284135 353.34888185653836 20460.403963865712 14489.573018929921 15301.192402028479 11625.258215849288 -1267.5947077050805 1607.9745844714344 -7585.0856825541705 17093.0110148238 -4545.0624877251685 9202.80724888295 -4173.144180305302 9686.768340492621 162.52623392362148 4479.59817640204 -6378.715804235078 -1796.3629151685163 -578.8610181715339 -3563.602115858346 -2393.479814947583 974.9475750280544 -1381.5853096814826 -2042.0083713494241 -2681.685865287669 442.5287857595831 -646.5431572543457 -3143.2469698702917 -13662.348083089106 2245.980118639767 -2958.2024785447866 -15005.038054280914 -20950.655557914637 5675.369497020729 -6370.366508472711 -14021.944193692878 -10657.72448632121 2960.739795513451 -3592.1672012563795 -5281.859100711532 -460.4173025973141 -4939.113352126442 -2229.617190548219 -40.04560380522162 -2738.346706870012 -10326.357022873126 4349.808100872673 -8339.434167914093 465.76074947975576 -5093.283963977359 -1248.3363244757056 -1938.654791542329 465.42656836565584 -2780.416078031063 4726.17874264624 626.4252390041947 1236.6480005821213 -2982.8736072732136 7237.657440477982 -11048.548071580939 4795.085730087012 -7097.827057353221 4729.7411889908835 -5650.234906567261 3519.9539136160165 10271.51322449185 2551.059678616002 -2162.4057432655245 1892.3347181612626 736.4458886217326 1905.9003339596093 -2133.930041211657 z" vector-effect="non-scaling-stroke" fill="#000" fill-opacity="1" stroke="#FFF" stroke-width="0.3px" stroke-linejoin="round" stroke-linecap="round"><title>Merrimack County</title></path>
<path id="33015" d="M -7875195.999958894 -5324736.943397472 l -1159.5780662046745 3782.4019126873463 2450.514578700997 -657.159899616614 2554.6952618574724 -285.19701769948006 593.3778590029106 954.7556847333908 -475.60818294994533 2082.76470268704 -824.3875097027048 1989.350703516975 -425.7825807472691 700.2002749498934 -964.8051361516118 2478.1634823363274 -5947.367026308551 9460.544459805824 -2391.6296850116923 5357.558235101402 -955.7459559869021 3153.7107141194865 -267.4131257655099 2406.276769175194 -3972.800721971318 1008.16318104323 -2331.839018397033 -611.8848373200744 -3739.6391050741076 -1628.1791993938386 -1326.2673133835196 -211.42449078615755 -1016.4426747085527 40.8015721431002 -10792.22895141039 4828.168897861615 -1220.2746580224484 886.0068681193516 -576.1652984302491 541.2014415701851 -1638.8099948037416 2027.374345421791 -823.4815609855577 844.9189411960542 -1451.284365925938 1067.1572459852323 -1059.92685384769 351.9868100620806 -1244.7344399662688 -7.410066610202193 -1277.3477495098487 -244.53711867053062 -1896.997126955539 -100.03962478134781 -1103.4110329793766 177.84760584309697 -896.8610068978742 344.57034975942224 -592.4719532011077 418.654522690922 -592.4718530811369 526.0703021129593 -1013.7249322934076 1259.4853794313967 -459.3015732578933 688.9409468770027 -875.1189673934132 1611.0355722354725 -1011.0071898624301 2843.6367297219113 -451.14834598917514 1025.423436459154 -1152.3306969627738 1302.903682534583 -1315.3962435694411 614.3746904097497 -2174.2088565248996 658.7428045999259 -1146.8951119985431 499.5776489963755 -847.9414430335164 573.5561523791403 -1606.0218996703625 -2896.2349574621767 -9966.819064840674 -2432.424493039027 -1514.9066525492817 -1842.2932268055156 158.42266353499144 -2400.5698893116787 -2769.739248556085 -3578.314416908659 -4516.452933306806 -228.57536159455776 -2697.603661922738 -16071.149005355313 8449.257887709886 -1292.266033939086 -1870.2777629382908 -10619.791902170517 -162.52623392362148 -4479.59817640204 4173.144180305302 -9686.768340492621 4545.0624877251685 -9202.80724888295 7585.0856825541705 -17093.0110148238 24548.94421797432 20787.978389277123 -5050.897808610462 8589.989945940673 10007.618771409616 -84.8938860045746 5446.749583910219 -1202.7798984907568 5033.04594715219 1169.5993533236906 984.3271239316091 -537.9715819461271 2204.1419477099553 -7255.886564677581 5895.658713772893 -467.72308975830674 3837.4786332687363 4460.723812784068 z" vector-effect="non-scaling-stroke" fill="#000" fill-opacity="1" stroke="#FFF" stroke-width="0.3px" stroke-linejoin="round" stroke-linecap="round"><title>Rockingham County</title></path>
<path id="33017" d="M -7899495.10196965 -5393164.427856918 l 21.74213962443173 2312.6177891781554 -277.2116294577718 2188.396746675484 -211.98541081510484 745.585465958342 -114.14588262885809 962.8032332230359 -16.306654769927263 1337.2687909761444 328.84913597721606 2235.842122887261 133.1702798223123 2561.005608322099 -331.566878400743 1695.7155959047377 -1095.2576054772362 3768.3943927176297 -152.19457691255957 905.3841305151582 -19.02439719438553 1058.6636894540861 122.29921001009643 1178.229134755209 470.17274318356067 1746.4963283101097 578.8830408519134 1271.332665286027 747.3842725297436 1252.4662597673014 3446.121021068655 4040.389150856994 3592.879912910983 5416.821837330237 3429.814466409385 5167.321291605942 4304.93343380373 2866.1777984891087 674.0047265030444 798.4913133215159 543.5521891033277 1096.8809392042458 385.9220272330567 2185.9149000309408 38.04869428370148 1350.0869502630085 -146.75909206550568 1204.4704434173182 -1119.7174875242636 4618.800516394898 -141.32370731793344 1699.3213557973504 86.96835826244205 920.3366251373664 2081.8050134098157 3777.2717958316207 -5895.658713772893 467.72308975830674 -2204.1419477099553 7255.886564677581 -984.3271239316091 537.9715819461271 -5033.04594715219 -1169.5993533236906 -5446.749583910219 1202.7798984907568 -10007.618771409616 84.8938860045746 5050.897808610462 -8589.989945940673 -24548.94421797432 -20787.978389277123 1267.5947077050805 -1607.9745844714344 8426.215198395774 -10885.602664373815 -2071.4320828001946 -12806.134157623164 -1498.9159416593611 -11220.117534420453 3181.621698449366 -4111.711322478019 3995.589369846508 -5167.675580016337 1771.6485827798024 10147.217687585391 2522.387562647462 -891.1618776367977 2461.9410791480914 -2237.3385302377865 3311.4196681100875 -364.4975300747901 1431.6791918575764 7168.787956287153 z" vector-effect="non-scaling-stroke" fill="#000" fill-opacity="1" stroke="#FFF" stroke-width="0.3px" stroke-linejoin="round" stroke-linecap="round"><title>Strafford County</title></path>
<path id="33019" d="M -8063995.740115851 -5348569.335506511 l 184.80778634361923 -1970.0035134823993 529.9633768666536 -1571.0781057085842 845.2237006099895 -1380.976688423194 1136.024042185396 -1384.9145766766742 1358.8805228183046 -2908.618616035208 269.05830206815153 -3469.876439644024 -451.14824587479234 -5784.760810076259 828.9170458316803 -26169.847413525917 679.4403114616871 -4038.177949647419 1125.1530724912882 -2201.680033857934 3859.2205726616085 -3770.7032492533326 449.81506951805204 -745.7901859534904 14972.598216393963 2483.875066956505 11352.246344100684 4882.573005258106 -1491.2355647049844 2333.672363322228 3223.9226596662775 1435.5422536013648 2632.148469252512 -2311.809585499577 14698.73198577948 2387.043743696995 -7237.657440477982 11048.548071580939 -1236.6480005821213 2982.8736072732136 -4726.17874264624 -626.4252390041947 -465.42656836565584 2780.416078031063 1248.3363244757056 1938.654791542329 -465.76074947975576 5093.283963977359 -4349.808100872673 8339.434167914093 2738.346706870012 10326.357022873126 2229.617190548219 40.04560380522162 460.4173025973141 4939.113352126442 3592.1672012563795 5281.859100711532 -3094.2355642151088 812.3632449256256 1490.3447861438617 3419.363095670007 -1641.5169886024669 4782.135020590387 -15619.01010483969 -480.1782731115818 2438.8983898265287 -7631.096149900928 -11771.58697724156 1895.4235469382256 -7776.665858299471 1013.4209117814898 194.4750390946865 1177.506141080521 -5119.358961485326 -387.9076525894925 483.237464254722 3907.330763598904 -6628.739603195339 -544.88390309643 -51.09531231597066 -3676.9662335095927 -2320.025841373019 478.9507724819705 -24.459781936369836 -1870.4294345183298 690.3112811632454 -6254.878131239675 769.1263120416552 -842.753880655393 519.092307055369 -768.240421324037 233.72755043860525 -898.846922843717 -116.86372516304255 -898.9338233498856 -266.3406597580761 -455.0950519181788 -260.9049746869132 -298.4350490383804 z" vector-effect="non-scaling-stroke" fill="#000" fill-opacity="1" stroke="#FFF" stroke-width="0.3px" stroke-linejoin="round" stroke-linecap="round"><title>Sullivan County</title></path>
</svg>
