<svg xmlns="http://www.w3.org/2000/svg" xmlns:xlink="http://www.w3.org/1999/xlink" height="1080" width="1920" viewBox="-8411102.233450018 -5065031.926041236 183797.64723899867 354185.93672662973">
<path id="34001" d="M -8310993.50427855 -4763432.789899909 l -172.12744009494781 208.13258360140026 -928.7840171540156 -1153.1514706742018 -3312.532974340953 1199.909930494614 -4319.194906944409 -1318.5856984108686 -952.1153821181506 520.4353990107775 -4239.49015153572 -1782.9413899974898 -4519.792406717315 259.6780162714422 -4066.944940805435 -2652.486249195412 -419.6742576500401 -2097.1603726241738 1423.7761759264395 -6508.412403872237 -656.56213406194 -2436.0508467433974 237.11062670964748 -3475.6213886281475 -14396.833304110914 -13012.924054589123 12026.286751416512 -13498.84690141026 15682.685632820241 -17588.691670909524 6728.704060647637 5566.837735845707 1155.4959804806858 1658.8873887360096 762.5382892889902 3355.988519350067 -54.88084291666746 3707.68919653818 1276.8341141222045 898.7054038634524 2860.6872725253925 -250.46714235842228 3566.230093858205 2061.074828124605 1548.2310326751322 2025.9774242592975 3096.7959125023335 1375.1247451202944 6195.706450052559 4703.523726300336 4375.077402645722 142.93874652590603 1500.1409013345838 1998.0369240241125 3622.745423491113 -2253.6800580043346 81.53286145441234 5333.114817216992 579.7890887595713 2548.0857494175434 1336.2324132956564 1080.0989616485313 1019.1604397557676 1074.113501005806 -398.60492895077914 2364.992041741498 -1408.7061885409057 3449.658635687083 -1657.8341995598748 -434.07540144585073 -1209.4036684036255 -715.6790212178603 -1209.4036684101447 -152.52838843408972 -1689.5413301214576 1302.2828110978007 -751.9139570938423 1173.0831549037248 -797.2098578959703 1818.0081404903904 -606.9666292425245 2063.9197876323014 -126.82885620929301 1834.8909042002633 2042.8503582645208 -1019.9937857268378 1771.0742855248973 1647.179926726967 1404.1764871440828 2848.2222813349217 928.5683041866869 2607.2325797490776 -3447.026845409535 1441.0116411782801 -6504.50794202555 4163.71503380686 -3039.3627362987027 1088.9576636832207 0 -807.9250399237499 1005.571558191441 -2037.6644283048809 1363.4100650977343 -1879.9354932708666 3016.714785902761 -3051.982941687107 -3102.777220066637 -2044.9367827717215 -3641.7997754616663 4540.485121228732 -1435.8837290247902 2594.479532073252 511.84501491766423 1879.554992732592 0 807.9250399237499 -7106.944981187582 -257.59232443291694 -3071.06997817941 819.5889349803329 z M -8277583.164899869 -4785928.805272543 l -973.8643163116649 -2575.3981893192977 1771.0742855332792 -745.1702701998875 5512.52515407186 786.2409269623458 -312.542494780384 715.7777568437159 -937.6274843523279 668.7953530494124 -502.7858347510919 164.25871589966118 -1454.0020893486217 4023.4988623699173 -3152.6028222655877 3535.3600568063557 -3800.3357622344047 1787.7267563994974 -3578.385291692801 -662.3010459542274 -2518.4585412237793 -3763.636301276274 1920.551092141308 -791.5982934618369 1023.6899185087532 1213.7586187217385 905.9203537907451 1752.947907953523 1535.5349334264174 779.6411324320361 1463.0613808250055 -1025.8561033355072 1657.8341995608062 -4339.064407876693 z" vector-effect="non-scaling-stroke" fill="#000" fill-opacity="1" stroke="#FFF" stroke-width="0.3px" stroke-linejoin="round" stroke-linecap="round"><title>Atlantic County</title></path>
<path id="34003" d="M -8227304.586211019 -5010983.301480123 l -63.414483761414886 2790.037995841354 -1155.0483648078516 5955.403958546929 -4081.1711264513433 10732.11707034614 -4138.162511383183 8845.903444811702 -3190.8565049776807 -2975.7153158877045 -1792.5772036435083 1588.6528407484293 -2671.7779853343964 323.5527487974614 -3172.7162505025044 3778.8910452900454 -3228.375550623052 1455.291552462615 -3272.903235618025 -2396.2019564984366 1954.435965896584 -4935.676340712234 1259.579704368487 -5800.2055172510445 860.499552517198 -900.5266460189596 -2137.444652169943 -3073.5737291220576 15.250992881134152 -5106.657642021775 -1996.736927125603 -3116.388629708439 801.5003337124363 -3537.388862363063 -3361.9588282499462 -1592.311217197217 -6010.471373968758 -683.1521390872076 -2624.4675357071683 -1579.7051990423352 -2663.5403430173174 -3830.8777131000534 6506.760246440768 -16856.66585927084 1114.2094833394513 682.7104489291087 11023.23865930643 6751.966871007346 11020.520916877314 6743.670052968897 z" vector-effect="non-scaling-stroke" fill="#000" fill-opacity="1" stroke="#FFF" stroke-width="0.3px" stroke-linejoin="round" stroke-linecap="round"><title>Bergen County</title></path>
<path id="34005" d="M -8353349.8120929105 -4866324.606010539 l 1762.0149669153616 -1987.0351901426911 3895.8566856123507 -1878.8405436938629 1505.6396148707718 -1025.8021735735238 4375.595237405039 -4942.3751796344295 1706.7538557667285 -1104.5600603967905 4185.352066327818 -1353.3428969243541 1136.024042185396 -539.9678879491985 3880.96271228604 -3499.848019439727 1057.2090113125741 -572.1740469364449 2796.5760765029117 -398.053644862026 3696.155026063323 -1201.3659227741882 3220.5467980187386 -2019.1922310180962 1904.9465765729547 -1120.8276887619868 2156.069559460506 -2329.189539895393 270.4604989942163 -2247.9601008147 7080.118876340799 4171.304829871282 1835.8506519440562 1892.8468235237524 3802.6942882807925 431.2850007051602 3867.348982498981 8603.411674038507 2732.780732329935 6189.657975252718 1882.6345603791997 5154.5168118989095 6972.827258680947 17471.50918840617 6520.647821038961 15416.510041987523 12.800628244876862 25267.603036460467 -1157.2772036455572 3895.8466988112777 -724.1681479802355 2271.7800771407783 -3622.745423491113 2253.6800580043346 -1500.1409013345838 -1998.0369240241125 -4375.077402645722 -142.93874652590603 -6195.706450052559 -4703.523726300336 -3096.7959125023335 -1375.1247451202944 -1548.2310326751322 -2025.9774242592975 -3566.230093858205 -2061.074828124605 -2860.6872725253925 250.46714235842228 -1276.8341141222045 -898.7054038634524 54.88084291666746 -3707.68919653818 -762.5382892889902 -3355.988519350067 -1155.4959804806858 -1658.8873887360096 -6728.704060647637 -5566.837735845707 -4027.4264102587476 -3010.163930787705 -3803.4517060983926 -4728.079227718525 -3334.351594539359 -1016.8146315645427 -4472.3705262755975 1264.6644574953243 -3036.9060264555737 -1720.3021838124841 -3129.3004245804623 -13630.51163253747 -2179.857600792311 -1989.0804974101484 -1253.902299019508 -2763.5225985348225 -2249.432171222754 -905.0384643599391 903.6914036190137 -1674.1392007749528 -4418.380461919121 -1237.2035299222916 -566.6158741815016 -3161.732481529005 960.1304967720062 -1558.9442286603153 z" vector-effect="non-scaling-stroke" fill="#000" fill-opacity="1" stroke="#FFF" stroke-width="0.3px" stroke-linejoin="round" stroke-linecap="round"><title>Burlington County</title></path>
<path id="34007" d="M -8363364.761364108 -4849078.950392478 l 1621.5973675940186 -1930.451042296365 1793.7222359282896 -1346.2241356875747 -1666.8933797189966 -2267.7371880486608 -729.2658953722566 -2711.3337182812393 475.60818295832723 -1719.3334014071152 1920.551092132926 744.4901697393507 1521.9461631895974 -1979.521597089246 697.5586534915492 1087.3084281962365 4380.124850993976 -7122.853133186698 3133.9418907472864 3424.2314428370446 -960.1304967720062 1558.9442286603153 566.6158741815016 3161.732481529005 4418.380461919121 1237.2035299222916 -903.6914036190137 1674.1392007749528 2249.432171222754 905.0384643599391 1253.902299019508 2763.5225985348225 2179.857600792311 1989.0804974101484 3129.3004245804623 13630.51163253747 3036.9060264555737 1720.3021838124841 4472.3705262755975 -1264.6644574953243 3334.351594539359 1016.8146315645427 3803.4517060983926 4728.079227718525 4027.4264102587476 3010.163930787705 -15682.685632820241 17588.691670909524 -3050.4870043294504 -3797.9634003648534 -478.56204564124346 -4320.853306681849 -2384.907880199142 -3758.6632742909715 -3188.634492410347 -1806.1428022803739 -2213.475975696929 -75.67300360649824 -1746.268184153363 -1854.963443388231 -3257.6524653779343 -2054.91302403342 166.42252741381526 -2325.059917191975 -2962.6557034580037 -3563.267552224919 -2549.994685046375 -1270.1210541054606 -122.67396753653884 -1971.7672784086317 -1700.4045539479703 -3975.1425109310076 361.3432897506282 -3386.4693078259006 -2441.1243343651295 -2754.12247364223 -1671.5728058358654 -427.6947787553072 z" vector-effect="non-scaling-stroke" fill="#000" fill-opacity="1" stroke="#FFF" stroke-width="0.3px" stroke-linejoin="round" stroke-linecap="round"><title>Camden County</title></path>
<path id="34009" d="M -8311165.631718645 -4763224.657316308 l 1993.0247802697122 70.23008295893669 1454.0020893421024 667.1615641433746 1263.7588606923819 807.5575841087848 1440.4134304234758 509.0790572222322 6074.195771194063 -2054.0282713370398 0 983.17694080621 -3152.6027109473944 2141.588858081959 -4660.96010389179 6404.4967332445085 -2473.16252909787 1350.5662022186443 -1259.2292706081644 1788.7834190316498 -5245.278782741167 11047.188254496083 -1150.5187747217715 -945.9281185902655 -1222.9925499660894 -116.78737488482147 -1164.107544966042 630.6358212064952 -1019.1604397492483 1331.2132016858086 543.5522567974404 58.3825234528631 90.5920242452994 140.11662329453975 -27.17765180207789 297.7416277593002 154.0065080113709 472.8655206216499 1150.5187747236341 -653.8447312647477 987.4531978666782 145.95119677018374 688.4994733352214 881.5001320298761 208.36170029547065 1587.6738084275275 -602.4370391685516 945.4814710048959 -2609.050565467216 2993.441693625413 -951.2163659082726 2257.62471352797 -901.3907637028024 822.4201720245183 -1141.4595945626497 647.3903021030128 -2672.4650492276996 746.4886646531522 -144.94721653591841 1125.4609685884789 457.4898226335645 1311.9081285241991 212.89117905776948 991.1066441666335 -2219.504816682078 3940.1480399547145 -3650.858955620788 3460.93743413873 -4343.88790771272 2708.495761726983 -6454.6824511401355 2602.9695371435955 -1241.1107989726588 279.47381503507495 -1164.107656283304 -291.11869449168444 -1440.4133191052824 -1339.253687591292 -188.46679221838713 -1462.67570629064 465.70085959509015 -1576.5576200066134 373.14126334525645 -1762.6706907898188 559.9528460586444 -2690.5348856467754 467.781420876272 -2784.039387403056 917.3520862553269 -2461.089328303933 5553.2916874354705 -11883.795234004967 797.2098578959703 -5622.976783091202 -2119.853500947356 -4714.500730941072 -1771.0742855314165 -1279.779525462538 -35.387575566768646 -5141.800264885649 2833.4141086041927 -1502.7630274817348 1644.3000871893018 -10412.825824876316 2357.7461470859125 -2379.4280729349703 4066.944940805435 2652.486249195412 4519.792406717315 -259.6780162714422 4239.49015153572 1782.9413899974898 952.1153821181506 -520.4353990107775 4319.194906944409 1318.5856984108686 3312.532974340953 -1199.909930494614 z" vector-effect="non-scaling-stroke" fill="#000" fill-opacity="1" stroke="#FFF" stroke-width="0.3px" stroke-linejoin="round" stroke-linecap="round"><title>Cape May County</title></path>
<path id="34011" d="M -8340304.5592655735 -4748714.98158863 l -1820.8998877312988 -572.7394467703998 -4484.305645481683 -111.04506363533437 -842.5058700218797 140.26731378398836 -1925.0807935371995 613.646274340339 -1037.278800074011 140.25669378973544 -1019.1603284291923 -315.58037346601486 -135.88803637214005 -806.5283254096285 63.414372445084155 -1087.1617310689762 -425.7824694281444 -1180.8137607723475 -1512.8869830304757 -555.3810049686581 -2323.68572248891 146.15591319277883 -3483.263677368872 853.5078847920522 -1576.3013554746285 1069.7059054719284 -1177.6964265219867 1052.0591826913878 -1304.5252827340737 736.3761402079836 -1956.787924100645 87.66016932949424 163.06568817049265 -631.1707573803142 -1594.4198271147907 -1028.6591564323753 -851.5651614991948 -1285.9714838881046 -203.83199889864773 -1210.1319870073348 353.30891682580113 -1771.6142520736903 -149.4769179271534 -853.7603757958859 -978.3939063902944 -1111.1660146033391 -3995.1086922874674 -3211.373777547851 -1589.8902370352298 -666.9708070512861 -919.5091240275651 -631.9080324415118 -878.742701982148 -2767.9896410340443 -824.3875096961856 -620.4149235896766 -4221.588752908632 0 -1802.7814160883427 -913.1329690059647 -1068.9860419537872 -2089.981389677152 -856.094751582481 -2283.6690962575376 -1168.6372463647276 -1505.1627025296912 -1019.160328431055 -128.85703126806766 -851.5651615047827 433.4218187080696 -697.5586534859613 497.82617519795895 -543.5521454801783 99.56233689375222 -869.6835218220949 -679.3858724748716 -529.9633752405643 -738.0055992295966 -403.1346303485334 -720.4863090505823 -4478.291444038972 -5000.970261708833 -385.62156872823834 -3879.706690110266 1215.4971860107034 -1380.0355398291722 60.55791430734098 -5009.46392325405 3797.5518844127655 625.2927596205845 2486.8768677236512 -2324.7508894130588 1056.5330644799396 -2845.2832904513925 2627.807120426558 -169.49047836568207 8762.06599080097 -9780.780802226625 10278.570300681517 8525.885101085529 7054.536321525462 6115.03908648435 990.8545649116859 -3518.5762714538723 -523.3124809395522 -2769.5836634887382 812.7431570049375 -3289.874493356794 -233.65938853658736 -2930.0517714498565 1385.705021395348 -3498.131711700931 8543.767690111883 7772.11265901383 14396.833304110914 13012.924054589123 -237.11062670964748 3475.6213886281475 656.56213406194 2436.0508467433974 -1423.7761759264395 6508.412403872237 419.6742576500401 2097.1603726241738 -2357.7461470859125 2379.4280729349703 -1644.3000871893018 10412.825824876316 -2833.4141086041927 1502.7630274817348 z" vector-effect="non-scaling-stroke" fill="#000" fill-opacity="1" stroke="#FFF" stroke-width="0.3px" stroke-linejoin="round" stroke-linecap="round"><title>Cumberland County</title></path>
<path id="34013" d="M -8250158.572515084 -4970819.642918564 l -1511.867296489887 2162.1820119293407 -812.7569606229663 1751.99314692989 -987.7942807860672 2219.1578424340114 -1962.4068867191672 -1581.3765440369025 -4682.949822147377 29.360725860111415 -2247.8735870365053 -2978.5216661579907 -7058.766573491506 -2219.5785889187828 -2026.0141758406535 1292.4775462495163 -2449.1392263825983 -572.7815984906629 -5143.181443843059 -3246.2490656888112 1176.3208515802398 -2457.646696959622 -1068.4737496646121 -1156.904784671031 499.51226249337196 -4512.041611019522 3144.218126899563 -2824.946523950435 2490.865890356712 -7134.817210547626 -2697.3401686828583 -2622.620054542087 1112.9944215295836 -4197.827428213321 6455.815238280222 1647.9625547733158 1535.0952214412391 2108.3948612362146 2001.078498580493 427.57245536893606 12274.08271340467 8864.809110603295 -1954.435965896584 4935.676340712234 -2059.4101343983784 5732.1173144783825 679.0485598845407 1895.316825487651 4141.195152484812 -1116.5758639462292 578.9402776444331 1091.638227761723 z" vector-effect="non-scaling-stroke" fill="#000" fill-opacity="1" stroke="#FFF" stroke-width="0.3px" stroke-linejoin="round" stroke-linecap="round"><title>Essex County</title></path>
<path id="34015" d="M -8396642.532240493 -4834896.425900175 l 2471.949814211577 -2448.4836557684466 4321.240068629384 -3025.103750428185 6278.027881410904 -2813.640238709748 4742.492947984487 -1097.3583838855848 2473.1625290969387 -159.3040285781026 1893.3734403317794 -389.4203885709867 4022.2863440895453 -1876.5125861791894 2681.5242293933406 -755.4256209246814 140.41762644983828 -112.13838987611234 149.47680661361665 17.706099782139063 611.4962193211541 -755.490156205371 1848.0775395333767 531.2099836170673 1644.2454293193296 -1298.5633765757084 833.7304432429373 2555.318518070504 1671.5728058358654 427.6947787553072 2441.1243343651295 2754.12247364223 -361.3432897506282 3386.4693078259006 1700.4045539479703 3975.1425109310076 122.67396753653884 1971.7672784086317 2549.994685046375 1270.1210541054606 2962.6557034580037 3563.267552224919 -166.42252741381526 2325.059917191975 3257.6524653779343 2054.91302403342 1746.268184153363 1854.963443388231 2213.475975696929 75.67300360649824 3188.634492410347 1806.1428022803739 2384.907880199142 3758.6632742909715 478.56204564124346 4320.853306681849 3050.4870043294504 3797.9634003648534 -12026.286751416512 13498.84690141026 -8543.767690111883 -7772.11265901383 -15380.563421609811 -14221.831976147369 -2128.427996048704 762.6676784763113 -3183.8477543042973 -425.5772461835295 -398.4122349144891 -1742.409137125127 -1983.8239775057882 -805.5041343430057 -6380.385819236748 -1253.4411879098043 -5628.42277025152 -5210.735503378324 -2568.918887158856 -5952.480136476457 -203.82565368525684 -1749.224752268754 z" vector-effect="non-scaling-stroke" fill="#000" fill-opacity="1" stroke="#FFF" stroke-width="0.3px" stroke-linejoin="round" stroke-linecap="round"><title>Gloucester County</title></path>
<path id="34017" d="M -8236742.382697423 -4982659.839010577 l -1595.9662416949868 2623.9161769058555 -897.0411772411317 2171.2020112881437 -481.1461049839854 2081.0955853313208 -255.3488781163469 1415.2435665018857 -790.5194451818243 2085.2179494425654 -434.2801540847868 2008.7816111203283 -1798.4417370567098 1990.0972013743594 -2554.6953731831163 1971.4606314757839 -2038.3207681877539 2633.9683729941025 -741.4928942853585 2127.72180209402 -1631.265020094812 645.0250136787072 -2266.7430199570954 760.7357782963663 -1231.5521282507107 -168.14427099842578 344.44198542647064 -1690.997347398661 3720.6622876003385 -6949.898151955567 -764.4811483696103 -1865.2298381384462 -573.2430574223399 -2463.228673318401 -578.9402776444331 -1091.638227761723 -4141.195152484812 1116.5758639462292 -679.0485598845407 -1895.316825487651 2059.4101343983784 -5732.1173144783825 3272.903235618025 2396.2019564984366 3228.375550623052 -1455.291552462615 3172.7162505025044 -3778.8910452900454 2671.7779853343964 -323.5527487974614 1792.5772036435083 -1588.6528407484293 z" vector-effect="non-scaling-stroke" fill="#000" fill-opacity="1" stroke="#FFF" stroke-width="0.3px" stroke-linejoin="round" stroke-linecap="round"><title>Hudson County</title></path>
<path id="34019" d="M -8340832.117202763 -4916186.7428977555 l -2313.009126218036 -2067.853161463514 -1530.099396805279 -5633.286044534296 -1451.2843659352511 -2484.093822259456 -4359.288582635112 1645.4254419337958 -2467.727040636353 -1731.0951091265306 -2054.627288828604 -2956.0579517120495 -1125.1530724903569 -2724.7873058617115 -804.4573640078306 -11396.58202854544 -1907.8681967686862 -3876.9235138110816 -5650.225144379772 -1813.810292568989 -3340.1281654946506 651.1500155739486 -1407.8002869077027 -604.6379228476435 -837.0703732203692 -4072.437738845125 5058.054770285264 -4563.520611082204 3963.974745781161 -1492.5607248051092 3550.5340456590056 -3553.870420889929 6012.252597136423 -4136.973665405065 2367.5422622766346 -381.7278855033219 3645.6008907966316 -2350.890492765233 4642.6895698253065 -6506.000199483708 2673.1141531812027 -2441.2163167251274 1465.520873658359 -2410.362890170887 4833.712925473228 4072.396711164154 2120.0790342418477 2358.667231553234 3793.7669103974476 564.4912326019257 4498.975773259997 1345.860866890289 3092.676980022341 1737.6947539746761 1025.297371960245 2804.689102096483 -1278.2148097632453 6070.792946436442 0.422902746126056 3263.254935162142 2724.3393753431737 2339.0576239703223 -2005.083105944097 2764.318455944769 876.1953780753538 2586.7202972611412 -1322.2525776848197 2652.4203683957458 -2029.7990385275334 1878.5957806520164 -3427.8603007579222 6971.587296875194 -2642.6123900683597 -1430.059960496612 5516.434917232953 13337.284922842868 -6721.246100043878 1104.994602445513 725.6912038791925 4630.65038154088 -7551.577847913839 1034.062824795954 1511.8293365426362 4550.867086923681 z" vector-effect="non-scaling-stroke" fill="#000" fill-opacity="1" stroke="#FFF" stroke-width="0.3px" stroke-linejoin="round" stroke-linecap="round"><title>Hunterdon County</title></path>
<path id="34021" d="M -8320131.1259996435 -4886847.163807885 l 1377.9047197904438 -2844.63188354671 -1195.8147759828717 -3151.38492898643 -2821.0359585564584 -3120.3629712695256 -5935.590001108125 -5168.378508347087 -3473.298545435071 -4312.61164296139 -3766.816829659976 -5372.924434181303 -358.7444027606398 -862.5058632129803 -1024.5959019875154 -1375.8885860331357 -3502.999507419765 -3130.890271332115 7871.321442742832 -263.7651798678562 -1511.8293365426362 -4550.867086923681 7551.577847913839 -1034.062824795954 -725.6912038791925 -4630.65038154088 6721.246100043878 -1104.994602445513 2838.0891932584345 7002.1971011394635 5341.6640959260985 -1170.0968523398042 2704.617569072172 -1066.0240350794047 3046.8134611351416 1030.2192369680852 378.82000453118235 1479.7374940477312 -1049.7643941622227 5285.841171707027 905.368431750685 2031.6880857981741 3870.0654007131234 1584.5713024148718 585.0206595528871 1346.486397569999 4582.754822023213 2291.1354793272913 4660.188548504375 1153.320903702639 1754.5721728932112 1061.33622547891 -245.4596998365596 2922.294559907168 293.8833443755284 1496.4076998177916 -6860.506783029996 3880.413682974875 -2111.6189755816013 3808.9427485233173 -3782.746614769101 1536.1044137971476 -1926.1603699624538 -425.60332368686795 2858.905938040465 6472.406198004261 -3802.6942882807925 -431.2850007051602 -1835.8506519440562 -1892.8468235237524 -7080.118876340799 -4171.304829871282 -270.4604989942163 2247.9601008147 -2156.069559460506 2329.189539895393 z" vector-effect="non-scaling-stroke" fill="#000" fill-opacity="1" stroke="#FFF" stroke-width="0.3px" stroke-linejoin="round" stroke-linecap="round"><title>Mercer County</title></path>
<path id="34023" d="M -8262462.489174709 -4931865.017404369 l 116.9043783750385 36.319048745557666 -2827.6734737847 2532.032633206807 -150.39285469800234 4142.161604933441 -13946.658507858403 14358.46148625575 -2540.310111982748 4286.142523040995 -7161.180727662519 4000.742196744308 -2580.941614802927 -309.2179912449792 245.4596998365596 -2922.294559907168 -1754.5721728932112 -1061.33622547891 -4660.188548504375 -1153.320903702639 -4582.754822023213 -2291.1354793272913 -585.0206595528871 -1346.486397569999 -3870.0654007131234 -1584.5713024148718 -905.368431750685 -2031.6880857981741 1049.7643941622227 -5285.841171707027 3562.000175850466 -2970.513555574231 200.3751947460696 -3406.1016386840492 5655.139781999402 -3100.271810383536 5788.834490437061 -6159.425529603846 2638.382472055033 -1405.0986070521176 -904.9155840603635 -2608.454960592091 -1614.5293591674417 -709.6011116215959 -1963.0783658847213 -3056.800339640118 -3009.593344117515 -3205.3833504049107 86.45728440675884 -1807.081349867396 2466.800620195456 -2527.7127026561648 4526.866092437878 -1905.9089045180008 690.1807315992191 498.46512913517654 17076.96080784686 -1964.8320309575647 1427.560704655014 2468.8434942141175 3624.3388680517673 -1499.206770895049 4755.838930416852 1557.5498198606074 -710.5387287558988 2868.285097675398 -1263.237440195866 813.558583509177 -1784.103341373615 522.0782722234726 -1273.9157623471692 1634.4344216026366 67.89798757713288 2210.288725208491 -451.14193998929113 3433.0145487114787 -636.6590996664017 1225.4170108716935 -1451.3743927581236 1112.842713889666 1462.4586970964447 2087.308696351014 1470.8547470578924 3370.075142630376 z" vector-effect="non-scaling-stroke" fill="#000" fill-opacity="1" stroke="#FFF" stroke-width="0.3px" stroke-linejoin="round" stroke-linecap="round"><title>Middlesex County</title></path>
<path id="34025" d="M -8262345.584796334 -4931828.6983556235 l 1780.1334656849504 1309.4745739819482 978.3939063912258 303.5352129172534 5702.76849405095 -999.9158526957035 2889.8859296841547 357.12441574689 9752.232378621586 3457.4844726761803 4380.124850994907 2807.9396988889202 554.6023860536516 -792.695766759105 -812.8895421335474 -2049.7142772227526 -321.50193268060684 -2815.9322723615915 -2228.5639968402684 -5768.791456342675 3188.8396542323753 1804.2275294633582 1159.5779548808932 2768.219814363867 384.597931378521 2927.569478707388 531.1233243318275 5047.159866058268 -162.94434992503375 9802.621898546815 -834.2589881820604 6932.439785976894 -1354.4016466280445 7771.968326623552 -2081.3589983945712 8645.03248695936 -831.8218705719337 3883.0998347792774 -821.6858969759196 4347.83771470841 -2846.6578997448087 579.8578054672107 -2041.2552612889558 1737.44227444008 -2154.724554076791 -1086.5445840591565 -849.0220677386969 -3070.2998093459755 -1310.0096600810066 -1890.2255481369793 -4643.02319434844 5509.186468827538 -1015.3449642006308 -1091.5203813277185 -4962.175951814279 -916.6792537793517 -2587.732103742659 511.0392129905522 -1985.159922719933 -1339.8788223331794 331.6208743965253 -1801.0072730435058 -2723.4302290622145 -5552.997290770523 -15644.724907221273 -517.3167856242508 -13417.779718411155 11949.926493383013 -2871.4852631362155 1622.7375547010452 -3867.348982498981 -8603.411674038507 -2858.905938040465 -6472.406198004261 1926.1603699624538 425.60332368686795 3782.746614769101 -1536.1044137971476 2111.6189755816013 -3808.9427485233173 6860.506783029996 -3880.413682974875 -293.8833443755284 -1496.4076998177916 2580.941614802927 309.2179912449792 7161.180727662519 -4000.742196744308 2540.310111982748 -4286.142523040995 13946.658507858403 -14358.46148625575 150.39285469800234 -4142.161604933441 z" vector-effect="non-scaling-stroke" fill="#000" fill-opacity="1" stroke="#FFF" stroke-width="0.3px" stroke-linejoin="round" stroke-linecap="round"><title>Monmouth County</title></path>
<path id="34027" d="M -8267927.409895652 -4997221.820863585 l -6455.815238280222 -1647.9625547733158 -1112.9944215295836 4197.827428213321 2697.3401686828583 2622.620054542087 -2490.865890356712 7134.817210547626 -3144.218126899563 2824.946523950435 -499.51226249337196 4512.041611019522 1068.4737496646121 1156.904784671031 -1176.3208515802398 2457.646696959622 -2198.676717311144 3102.4027670919895 -6627.679285044782 4726.850934748538 -1070.166473842226 1730.4245620081201 -868.4030137201771 836.5906490171328 -6386.478446284309 2379.0682714907452 -222.22309197019786 -4715.214937176555 1615.141505047679 -1838.987723581493 -1503.7475415142253 -2024.5384095190093 -445.55236571561545 -2779.890536681749 -1914.316198782064 -1047.3078202577308 -850.2137428829446 -3117.1914892857894 -16794.54381630104 4893.76548473537 -2054.178118331358 807.262613395229 -3092.676980022341 -1737.6947539746761 -4498.975773259997 -1345.860866890289 -3793.7669103974476 -564.4912326019257 -2120.0790342418477 -2358.667231553234 -4833.712925473228 -4072.396711164154 4345.911584736779 -2357.279697095044 3624.1163403876126 -4989.205874747597 882.2067419011146 -2440.5903372475877 336.4076124932617 -3959.2200532685965 4387.545185612515 -4518.943992593326 4041.0076107736677 -1311.0847852816805 2093.473675940186 1870.3783350000158 3706.4923182958737 -146.8533539082855 2996.942885858007 -1888.2327469522133 1839.553806124255 -3079.7337358342484 -326.61105202976614 -3603.911330879666 10162.353642853908 -11997.598603729159 4998.466439765878 -5521.984179827385 1541.426072202623 1177.5305435555056 -1423.8948425035924 5442.736946128309 5903.545440837741 -1974.7144629089162 5483.5660564610735 5498.2863390808925 3125.516007170081 883.5675263525918 1875.2875853087753 -339.9034499237314 6349.6617510979995 2554.59184397012 30.501429157331586 2430.354229496792 1596.2991227544844 497.4395415429026 649.3480744604021 3282.707519283518 -1294.912288106978 3687.406274434179 1855.5166871454567 1998.992317903787 z" vector-effect="non-scaling-stroke" fill="#000" fill-opacity="1" stroke="#FFF" stroke-width="0.3px" stroke-linejoin="round" stroke-linecap="round"><title>Morris County</title></path>
<path id="34029" d="M -8240492.731742361 -4882090.012870607 l -551.4629537733272 4611.417172842659 -685.7118106437847 4473.502082412131 -410.90217045508325 2981.739514656365 -684.7220690511167 4468.07601669617 -1364.5310523677617 6220.364338970743 -409.91665900778025 3110.209908670746 -547.9558332180604 4323.909982117824 -547.1909569920972 4051.5652672229335 -2301.312397269532 14356.004955380224 -826.63649737183 -998.861229098402 2192.853372110054 -20249.468402670696 953.4257238460705 -7276.602870539762 682.7202106406912 -2842.2859326526523 954.7507597422227 -2843.5866619888693 683.4991131257266 -3382.936937163584 116.09999500587583 -2850.853576321155 -1159.5780662046745 -1041.57767964527 -2202.0383432991803 1584.5567051973194 268.7472920399159 1084.0407268498093 1218.308337111026 272.8074982892722 402.84508835338056 1625.9296346521005 -1355.6880546584725 810.4287255359814 -816.4409678494558 2030.265622231178 -2300.968197407201 -409.0485370522365 -645.7574642822146 1626.244552670978 -1399.6470083771273 804.1653771316633 -448.43053115624934 2282.0557145057246 2255.7416486423463 -573.4205926917493 394.0753388721496 2122.0819521779194 -1123.3412342444062 3084.780781345442 -2282.91918911878 2310.0034905793145 2145.6298630042 392.97421694826335 402.5854912996292 1355.154091456905 -1898.0367251252756 2300.0051466766745 -1086.1692072367296 2165.7942890813574 535.2968033626676 2708.890557207167 679.7852722667158 2418.538315145299 -154.00650801230222 1038.436808717437 -2074.5576001461595 2566.126412297599 -2222.0629385774955 3506.197935123928 -2299.155248178169 4991.299575353041 -409.4294135933742 4046.9579066447914 2991.9781478904188 1301.2180578084663 242.63908657990396 2070.6965048983693 -542.5630718050525 2426.887064305134 -171.15460765268654 684.441323434934 -1583.87486570701 1067.562050100416 -1890.5298952627927 2292.55807166826 -1352.1396345701069 3640.3768146438524 -3641.6667486727238 1081.320605280809 -945.371869998984 1753.5871159136295 508.3860956970602 1437.9859010577202 -987.4531978741288 1411.220202946104 -2220.6993861347437 659.9553449777886 -1618.339602698572 272.38159686885774 -1754.520743289031 1486.9107327125967 -2429.511596404016 2702.627412066795 -135.6869933689013 2022.7308463258669 2913.4796504778787 2963.3197382269427 1485.709331229329 2672.1933937016875 -797.2098578959703 2096.145353318192 -1508.3573929518461 281.80124820768833 -597.9074490824714 -1138.9953742548823 -212.89129037503153 -1456.2238814029843 -344.2497366601601 -734.0640029907227 -4176.292740783654 -2954.4172269115224 -1653.3046094793826 975.1127193970606 -1463.0612695012242 -140.97436109092087 -1250.1700904546306 -810.6406092951074 -1023.6900471989065 -1010.455605532974 724.1681479802355 -2271.7800771407783 1157.2772036455572 -3895.8466988112777 -12.800628244876862 -25267.603036460467 -6520.647821038961 -15416.510041987523 -6972.827258680947 -17471.50918840617 -1882.6345603791997 -5154.5168118989095 -2732.780732329935 -6189.657975252718 2871.4852631362155 -1622.7375547010452 13417.779718411155 -11949.926493383013 15644.724907221273 517.3167856242508 2723.4302290622145 5552.997290770523 -331.6208743965253 1801.0072730435058 1985.159922719933 1339.8788223331794 2587.732103742659 -511.0392129905522 4962.175951814279 916.6792537793517 1015.3449642006308 1091.5203813277185 4643.02319434844 -5509.186468827538 1310.0096600810066 1890.2255481369793 849.0220677386969 3070.2998093459755 2154.724554076791 1086.5445840591565 2041.2552612889558 -1737.44227444008 z M -8252434.816319619 -4824564.695766906 l 1626.1269576717168 -3374.647803463973 978.3940177103505 -1584.6524808788672 1263.7588606933132 -978.01521647349 -851.5651615047827 3840.809976041317 -2660.311632499099 4032.2113625835627 -2028.2209734283388 5119.733499482274 -4052.796678805724 7277.252512709238 -5268.090929385275 9036.77210576646 -2759.165232764557 4444.133507824503 72.4736639270559 -1086.3955925116315 144.94721652939916 -704.7519660061225 -19.415677662938833 -1840.2768436102197 1621.6595951877534 -4046.7796694179997 8915.078861036338 -15910.11710709799 z" vector-effect="non-scaling-stroke" fill="#000" fill-opacity="1" stroke="#FFF" stroke-width="0.3px" stroke-linejoin="round" stroke-linecap="round"><title>Ocean County</title></path>
<path id="34031" d="M -8278225.937526433 -5042169.01163296 l 6854.161642885767 4200.1634352095425 7807.643099948764 4785.966941796243 2095.9504910539836 1284.3836653949693 -6506.760246440768 16856.66585927084 2663.5403430173174 3830.8777131000534 2624.4675357071683 1579.7051990423352 6010.471373968758 683.1521390872076 3361.9588282499462 1592.311217197217 -801.5003337124363 3537.388862363063 1996.736927125603 3116.388629708439 -15.250992881134152 5106.657642021775 2137.444652169943 3073.5737291220576 -860.499552517198 900.5266460189596 -1259.579704368487 5800.2055172510445 -12274.08271340467 -8864.809110603295 -2001.078498580493 -427.57245536893606 -1535.0952214412391 -2108.3948612362146 5.566085859201848 -2672.2998625179753 -1855.5166871454567 -1998.992317903787 1294.912288106978 -3687.406274434179 -649.3480744604021 -3282.707519283518 -1596.2991227544844 -497.4395415429026 -30.501429157331586 -2430.354229496792 -6349.6617510979995 -2554.59184397012 -1875.2875853087753 339.9034499237314 -3125.516007170081 -883.5675263525918 -5483.5660564610735 -5498.2863390808925 -5903.545440837741 1974.7144629089162 1423.8948425035924 -5442.736946128309 -1541.426072202623 -1177.5305435555056 z" vector-effect="non-scaling-stroke" fill="#000" fill-opacity="1" stroke="#FFF" stroke-width="0.3px" stroke-linejoin="round" stroke-linecap="round"><title>Passaic County</title></path>
<path id="34033" d="M -8409222.448779924 -4794825.237508182 l 443.90094107575715 821.9009724957868 634.1442810446024 675.0826163813472 869.6835218220949 510.68446832802147 253.6577124223113 -2765.0509069124237 1241.1107989661396 -6572.258002389222 -362.3680969849229 -2044.7988810334355 -3764.0990415941924 -3938.0018109232187 -1195.8147868458182 -1793.1857748553157 86.0624341648072 -1123.1096267616376 2455.044057460502 -2552.4562485469505 2101.7352519501 -1282.3553119376302 697.5586534906179 -705.953912416473 344.2497366666794 -1394.4052418395877 240.0688308533281 -1983.0971207069233 430.3121708314866 -1777.4720831541345 1512.8869830295444 -1236.1769698094577 489.19695319607854 -1059.7019492341205 720.206715207547 -1042.1501280339435 1277.3476309329271 -476.9523473745212 203.8321102168411 -683.0826371116564 172.12486833147705 -4176.064837954007 2409.748045336455 -4166.026380631141 1319.3267678562552 -1306.5562775721774 2925.4666442181915 843.8090005395934 203.82565368525684 1749.224752268754 2568.918887158856 5952.480136476457 5628.42277025152 5210.735503378324 6380.385819236748 1253.4411879098043 1983.8239775057882 805.5041343430057 398.4122349144891 1742.409137125127 3183.8477543042973 425.5772461835295 2128.427996048704 -762.6676784763113 15380.563421609811 14221.831976147369 -1385.705021395348 3498.131711700931 233.65938853658736 2930.0517714498565 -812.7431570049375 3289.874493356794 523.3124809395522 2769.5836634887382 -990.8545649116859 3518.5762714538723 -7054.536321525462 -6115.03908648435 -10278.570300681517 -8525.885101085529 -8762.06599080097 9780.780802226625 -2627.807120426558 169.49047836568207 -1056.5330644799396 2845.2832904513925 -2486.8768677236512 2324.7508894130588 -3797.5518844127655 -625.2927596205845 -60.55791430734098 5009.46392325405 -1215.4971860107034 1380.0355398291722 385.62156872823834 3879.706690110266 -6886.479122018442 -7695.085846046917 -3397.2012432031333 -2375.698211722076 -2609.0505654681474 -2974.8148124329746 z" vector-effect="non-scaling-stroke" fill="#000" fill-opacity="1" stroke="#FFF" stroke-width="0.3px" stroke-linejoin="round" stroke-linecap="round"><title>Salem County</title></path>
<path id="34035" d="M -8320925.492352485 -4927771.082973329 l -5516.434917232953 -13337.284922842868 2642.6123900683597 1430.059960496612 3427.8603007579222 -6971.587296875194 2029.7990385275334 -1878.5957806520164 1322.2525776848197 -2652.4203683957458 -876.1953780753538 -2586.7202972611412 2005.083105944097 -2764.318455944769 -2724.3393753431737 -2339.0576239703223 -0.422902746126056 -3263.254935162142 1278.2148097632453 -6070.792946436442 -1025.297371960245 -2804.689102096483 2054.178118331358 -807.262613395229 16794.54381630104 -4893.76548473537 850.2137428829446 3117.1914892857894 1914.316198782064 1047.3078202577308 445.55236571561545 2779.890536681749 1503.7475415142253 2024.5384095190093 -1615.141505047679 1838.987723581493 222.22309197019786 4715.214937176555 6386.478446284309 -2379.0682714907452 868.4030137201771 -836.5906490171328 1013.0069209448993 2934.944827103056 2037.2573330914602 -1555.342043587938 3790.030916967429 1583.077695697546 -1978.3881354499608 3799.2114385375753 -2532.108537185937 2687.6379382852465 -2574.7018233891577 1596.3670993791893 -4526.866092437878 1905.9089045180008 -2466.800620195456 2527.7127026561648 -86.45728440675884 1807.081349867396 3009.593344117515 3205.3833504049107 1963.0783658847213 3056.800339640118 1614.5293591674417 709.6011116215959 904.9155840603635 2608.454960592091 -2638.382472055033 1405.0986070521176 -5788.834490437061 6159.425529603846 -5655.139781999402 3100.271810383536 -200.3751947460696 3406.1016386840492 -3562.000175850466 2970.513555574231 -378.82000453118235 -1479.7374940477312 -3046.8134611351416 -1030.2192369680852 -2704.617569072172 1066.0240350794047 -5341.6640959260985 1170.0968523398042 z" vector-effect="non-scaling-stroke" fill="#000" fill-opacity="1" stroke="#FFF" stroke-width="0.3px" stroke-linejoin="round" stroke-linecap="round"><title>Somerset County</title></path>
<path id="34037" d="M -8346963.580464943 -5025581.609807865 l -48.91966397780925 -1817.5844934154302 462.0193156823516 -706.9303038204089 1070.7978235473856 -847.6630345117301 1174.0728365806863 -717.8661645911634 782.7151242783293 -295.8195734890178 1440.4132961202413 -1215.8412274541333 5777.959939355962 -7868.77127096802 2641.6637571677566 -6505.58474784717 1073.5154658593237 -4116.562251916155 86.96835826896131 -1041.1640787879005 828.9171459432691 -1974.1813709717244 6011.687389682047 -5660.831712354906 233.72745032049716 -419.72090098354965 597.9074380462989 -1454.6909684082493 342.43784810137004 -607.995286709629 565.2943287286907 -416.2095121992752 1190.3792911283672 -137.5340064521879 1500.2040299111977 -1350.1088747754693 1141.4596271514893 -430.7716383356601 2475.880368025042 -152.0414883773774 2209.539608162828 -1455.3763263849542 -48.919764095917344 -257.06700061727315 11017.803274565376 6775.588752119802 11023.23855919484 6767.22504226584 11020.520916877314 6766.10576943215 4166.359173884615 2553.994844458066 -15387.767379345372 17135.895737941377 -4998.466439765878 5521.984179827385 -10162.353642853908 11997.598603729159 326.61105202976614 3603.911330879666 -1839.553806124255 3079.7337358342484 -2996.942885858007 1888.2327469522133 -3706.4923182958737 146.8533539082855 -2093.473675940186 -1870.3783350000158 -4041.0076107736677 1311.0847852816805 -8638.723215766251 -10375.511847659014 -13375.672639735043 -16391.14310470596 z" vector-effect="non-scaling-stroke" fill="#000" fill-opacity="1" stroke="#FFF" stroke-width="0.3px" stroke-linejoin="round" stroke-linecap="round"><title>Sussex County</title></path>
<path id="34039" d="M -8253470.991052983 -4964686.309917271 l -871.2704924894497 1752.0938182715327 -1195.3319942140952 252.61890707630664 -2038.3207681858912 1313.5990155581385 -1252.8032416859642 605.3822339251637 -2151.373169490136 2223.0668030008674 -627.7778080450371 6242.964891605079 -4755.838930416852 -1557.5498198606074 -3624.3388680517673 1499.206770895049 -1427.560704655014 -2468.8434942141175 -17076.96080784686 1964.8320309575647 -690.1807315992191 -498.46512913517654 2574.7018233891577 -1596.3670993791893 2532.108537185937 -2687.6379382852465 1978.3881354499608 -3799.2114385375753 -3790.030916967429 -1583.077695697546 -2037.2573330914602 1555.342043587938 -1013.0069209448993 -2934.944827103056 1070.166473842226 -1730.4245620081201 6627.679285044782 -4726.850934748538 2198.676717311144 -3102.4027670919895 5143.181443843059 3246.2490656888112 2449.1392263825983 572.7815984906629 2026.0141758406535 -1292.4775462495163 7058.766573491506 2219.5785889187828 2247.8735870365053 2978.5216661579907 4682.949822147377 -29.360725860111415 z" vector-effect="non-scaling-stroke" fill="#000" fill-opacity="1" stroke="#FFF" stroke-width="0.3px" stroke-linejoin="round" stroke-linecap="round"><title>Union County</title></path>
<path id="34041" d="M -8347425.599880737 -5025037.122016821 l 423.9707215158269 -173.078912996687 38.048694278113544 -371.40887804701924 1823.8003760818392 -539.1406381065026 13375.672639735043 16391.14310470596 8638.723215766251 10375.511847659014 -4387.545185612515 4518.943992593326 -336.4076124932617 3959.2200532685965 -882.2067419011146 2440.5903372475877 -3624.1163403876126 4989.205874747597 -4345.911584736779 2357.279697095044 -1465.520873658359 2410.362890170887 -2673.1141531812027 2441.2163167251274 -4642.6895698253065 6506.000199483708 -3645.6008907966316 2350.890492765233 -2367.5422622766346 381.7278855033219 -6012.252597136423 4136.973665405065 -3550.5340456590056 3553.870420889929 -3963.974745781161 1492.5607248051092 -5058.054770285264 4563.520611082204 -462.01941579952836 -1542.81502451282 -209.26746816840023 -1532.3165292739868 521.810049478896 -1453.7741379979998 -415.8174942396581 -4638.480886405334 92.40394322760403 -1440.3460836624727 345.155590524897 -1092.9414437264204 -437.559533752501 -1480.1447877483442 -375.0510575324297 -1838.8451628591865 445.71296124719083 -1975.4411940937862 1521.9461695356295 -4206.760525653139 -339.72020578943193 -78.91646480001509 -434.841691210866 -1047.4973371643573 -144.04134963452816 -1212.6540649868548 538.1166041381657 -577.6781519567594 820.7639186726883 -484.4148253230378 758.2552422294393 -1155.5159795507789 1008.2893473282456 -2469.387060303241 2041.0384765909985 951.2186309890822 2272.04828460142 -251.25629992131144 1834.4886507354677 -1464.5940099004656 760.9729846538976 -2700.0236725155264 576.1654986450449 -3544.914987469092 1342.5737679284066 -1419.0454958649352 1521.9461695356295 -1088.6735011013225 1122.4353300631046 -2533.522877455689 -402.2285818923265 -2821.7899534134194 -1606.1967853754759 -2527.723456063308 -1739.3670651968569 -2003.2284181211144 -815.3283337075263 -1237.3880848055705 -182.08994380757213 -877.7777687069029 -475.60812792461365 -464.1029780190438 -638.6738747544587 -183.48861167114228 -671.2869840729982 -32.38062433619052 -413.0995515920222 -226.66804938670248 10.870969699695706 -539.7071365574375 119.58156769908965 -662.0812901603058 -97.83952819183469 -586.5553950555623 -1293.6541039450094 -1817.466951020062 -665.8515993375331 -1173.4360818639398 -250.0340049872175 -1033.1729008900002 1193.0971336718649 -2336.7437069304287 2492.186822572723 -2315.694414866157 2644.3814995968714 -1779.4620699808002 1652.3987069353461 -709.7143413675949 2462.2914556777105 -677.3392760837451 2084.5227558352053 -1711.5730399666354 z" vector-effect="non-scaling-stroke" fill="#000" fill-opacity="1" stroke="#FFF" stroke-width="0.3px" stroke-linejoin="round" stroke-linecap="round"><title>Warren County</title></path>
</svg>
