<svg xmlns="http://www.w3.org/2000/svg" xmlns:xlink="http://www.w3.org/1999/xlink" height="1080" width="1920" viewBox="-12139104.431456052 -4439080.133020672 673170.3767796606 763739.6134657604">
<path id="35001" d="M -11827158.239118187 -4193142.25079178 l 165.19779037684202 6183.7046479117125 -19.259385097771883 17631.9922142243 0.333179235458374 11791.664146827068 10435.976839900017 -14.531232482753694 60.44637218117714 11297.235846359283 -4276.7832941468805 154.26832382567227 -24822.348004303873 -164.4465805287473 0.33395847119391 -2610.811656467151 -2350.2872959244996 -1869.3308968669735 -28168.110403243452 -393.5067201377824 -4044.403745798394 4900.512356055435 -21045.835281016305 60.51187987579033 -12683.407264040783 -87.92202909383923 -4703.602259358391 -11801.14582946524 -13824.962593363598 -33974.18237659056 -586.9874523114413 -1687.3427738798782 12943.782217167318 93.06806819187477 41966.15861540474 190.28995149303228 27109.240074736997 -95.17549749650061 16073.751003971323 153.29187340801582 z" vector-effect="non-scaling-stroke" fill="#000" fill-opacity="1" stroke="#FFF" stroke-width="0.3px" stroke-linejoin="round" stroke-linecap="round"><title>Bernalillo County</title></path>
<path id="35003" d="M -12139066.90119157 -3999062.152240312 l 0.518435852602124 -4526.0335378227755 2.71774242259562 -23749.12249094434 0 -23801.94595537288 5.435484854504466 -23848.6425693864 8.153327381238341 -23902.35431529535 0 -7963.444996505044 7103.250224573538 -122.62993376050144 20611.133893989027 140.20826267451048 48241.07055294514 49.08310568705201 32589.88700018823 -286.431467668619 7932.513145409524 312.663117736578 23126.063162069768 -110.1903504836373 7571.393719147891 183.74237228790298 -187.01730112731457 10541.526594935916 119.10951743647456 32408.762126970105 1019.4633400887251 -10.775382653810084 -65.90202909894288 23052.82564681582 55.99147747270763 28657.55639198562 413.6630051508546 8546.20078200195 101.9680969696492 11677.928866004571 -105.75585396774113 33038.112994703464 -16605.63653285615 111.57033531786874 -8573.323794156313 223.6058696252294 -6868.6893221996725 -484.9197987425141 -5.901825446635485 36837.884282107465 -24395.10457787849 83.14673150051385 -25624.40627130121 -8.914284836966544 -10408.593024399132 -908.4143815995194 -22965.427912339568 -242.41580874938518 -23036.673944922164 303.21638075169176 -10069.729629140347 -243.02521546604112 2.195001345127821 -9520.620337181725 5.435584964230657 -23606.31965434132 0 -23651.322978605516 z" vector-effect="non-scaling-stroke" fill="#000" fill-opacity="1" stroke="#FFF" stroke-width="0.3px" stroke-linejoin="round" stroke-linecap="round"><title>Catron County</title></path>
<path id="35005" d="M -11571209.082330368 -4039922.559309794 l 11613.959691472352 148.25014819018543 -31.951142881065607 35217.33055965556 13927.400792540982 -6.430637387093157 -162.30481944978237 21841.736198792234 23206.045214328915 -135.00654352782294 -46.45384614914656 11614.47413274739 -12835.71303287521 160.02932112431154 -10601.064869260415 -82.70019406173378 -139.37278170883656 23194.673983245622 -4946.925404205918 53.73444290459156 -75.25364557094872 19368.070216642227 125.90256672911346 1495.4160098293796 -40.41086759604514 36351.83160289191 -5374.035692524165 21.50706225540489 -40955.3446884267 1.908481851685792 -24399.779662529007 81.86248687049374 -24914.63208481297 115.69514943938702 -24012.165640871972 46.834006294608116 -144.21551351435483 31459.19881443726 55.490873731672764 27117.839746788144 -1057.4233977664262 26.40344958519563 -33009.33850754239 -26.801095923874527 -123.11913417838514 247.53543762722984 -22792.66106450185 8.316335528157651 221.86085834167898 -11430.728508447763 -70.90840056352317 -47225.970321289264 4052.696936544031 -4.776341244578362 -81.81904650107026 -22603.822795113083 23070.959012251347 24.726411286275834 1173.7527109272778 -295.11452762642875 10273.450605977327 41.2107250620611 1001.0961807072163 -691.1514433128759 10246.512068444863 62.01895682234317 216.07202218659222 -22291.257106874138 2074.3268348444253 -10.256339142099023 4.342350697144866 -11608.23884640215 -805.7305856831372 -575.8712936486118 48.53719041869044 -30360.22771158209 85.93953744508326 -26365.20698390901 -373.92161297798157 -307.2556275213137 36.959629422053695 -21255.776708256453 118.3332866281271 -14165.965128862299 11900.384184684604 72.71879494609311 30.501651803031564 11781.121773399878 32168.208546426147 457.0662957848981 13521.307401446626 118.82925833528861 24407.793997950852 49.4117845618166 47.64574393630028 -11809.236720408313 17290.807553414255 145.83258857717738 z" vector-effect="non-scaling-stroke" fill="#000" fill-opacity="1" stroke="#FFF" stroke-width="0.3px" stroke-linejoin="round" stroke-linecap="round"><title>Chaves County</title></path>
<path id="35006" d="M -12139050.076201059 -4106853.696105639 l 0 -15996.390722473152 0 -24001.243290201295 2.612638533115387 -11556.288311318494 40223.86049676314 -9.600509663112462 24081.51768363081 110.97305621486157 -53.43179710768163 -22373.25442124391 142.60049034655094 -6351.5098775080405 -13.691184172406793 -18614.683037309907 24679.19180705771 23.464152143336833 26220.409600498155 200.5208225697279 30850.520847102627 24.418792541138828 81.26300564035773 -5921.346034911461 11718.823319714516 -0.135524146258831 -14.917257042601705 5944.398740754463 9399.14743661508 160.27653365582228 26034.172426357865 -222.3670692583546 7890.434934485704 -20.023708865977824 2848.3313656505197 7544.818998334929 1937.2924303580076 4186.086044110823 586.9874523114413 1687.3427738798782 13824.962593363598 33974.18237659056 -15150.000607347116 -118.57705444609746 -23.824152138084173 25708.14974496467 -182.8985912874341 16087.679377532564 27.494801027700305 9597.749098411296 -22934.036261213943 -150.7542431927286 -15670.664463648573 128.71452759206295 -4775.604819195345 -122.90190789755434 -14555.242497980595 246.7457796134986 -7571.393719147891 -183.74237228790298 -23126.063162069768 110.1903504836373 -7932.513145409524 -312.663117736578 -32589.88700018823 286.431467668619 -48241.07055294514 -49.08310568705201 -20611.133893989027 -140.20826267451048 z" vector-effect="non-scaling-stroke" fill="#000" fill-opacity="1" stroke="#FFF" stroke-width="0.3px" stroke-linejoin="round" stroke-linecap="round"><title>Cibola County</title></path>
<path id="35007" d="M -11705804.641971223 -4439080.133020672 l 8455.955395914614 0 21032.75248643197 0 21027.31690147333 0 21038.187871167436 0 21035.470228858292 0 21030.034744007513 0 14084.525557143614 0 -52.65679080970585 34760.43932967447 -87.9430656414479 8922.068802175112 94.06274332478642 25754.21069210302 -72.80572996288538 38982.31201077439 -26895.784394543618 14.071697557345033 -18028.40002224408 -137.64238947909325 -23535.72814083658 97.90041769575328 -13118.219191327691 -82.92731618508697 -13780.125106226653 111.48773807380348 40.075239323079586 -5955.102475185879 -28985.028152469546 104.23008328862488 -4590.5927160568535 -195.902700481005 -19373.778680671006 -64.5404794383794 1494.036029132083 -1913.6722375815734 -858.068668788299 -4199.805075058714 719.0872864127159 -4363.463566808961 -837.4557500015944 -4874.906509237364 1202.2497213277966 -1891.7853878205642 -274.62496114708483 -2936.0918142404407 -1366.0006922893226 -991.3712915899232 824.5438022669405 -1858.6348250517622 -768.5503210350871 -2333.745470482856 -1450.883696448058 54.1408684393391 2863.1945214234293 -7600.844225461595 -1860.5373075008392 -1440.5186643162742 -430.41669983416796 -2866.1731736930087 -3190.3040621317923 -2530.9708707807586 2720.5558484923095 -1690.1548549151048 -590.3466292675585 -3518.872066816315 -1963.452176734805 -3024.4015171797946 1023.9162310417742 -2583.3145037787035 1603.9467717707157 -812.5286839315668 -2073.936993986368 -5102.347045937553 1934.0643877647817 -3737.786884437315 2844.9646189697087 -100.48315600026399 1843.3667213208973 -3654.167594378814 6918.393140876666 896.7437113970518 2642.167557384819 -2259.986121600494 -257.37066271342337 -5189.55926073622 -964.471511637792 -2673.431924885139 207.61162956617773 -2965.2561854030937 1152.7126592490822 -2996.125902414322 -700.0879436433315 -1970.8515743212774 1122.2125659249723 -4056.494016220793 2134.4394711907953 -5395.7084294538945 -3882.2480944618583 -5936.780840586871 -131.0402951836586 -3301.7097110413015 1731.685887457803 -2489.5466042468324 z" vector-effect="non-scaling-stroke" fill="#000" fill-opacity="1" stroke="#FFF" stroke-width="0.3px" stroke-linejoin="round" stroke-linecap="round"><title>Colfax County</title></path>
<path id="35009" d="M -11471449.47708742 -4157650.005779411 l -20.656650509685278 4482.872823518235 -78.81513098813593 18863.897346067708 -21.00599280744791 4696.681416113861 -63.2446230314672 14128.83601581771 -86.96835826896131 18800.57971332129 -78.81503087282181 18759.362455268856 -31.6354688256979 7037.193282937165 -6.160987636074424 1369.979730727151 -22118.708157725632 -73.19724279688671 -34798.13006926887 22.90675124246627 -19531.22317983769 -9.030416239518672 202.0462116226554 -27494.324661450926 -3.339028123766184 -13221.423048222438 3542.7427944932133 11.361047985497862 93.39760937727988 -11890.603084257338 23346.251779021695 125.23543403996155 51.87577326409519 -11807.278599312529 11703.126158319414 55.29642864782363 95.62477843090892 -11793.109965276439 11731.73537877202 51.96262489259243 121.00539969280362 -12143.583846495487 z" vector-effect="non-scaling-stroke" fill="#000" fill-opacity="1" stroke="#FFF" stroke-width="0.3px" stroke-linejoin="round" stroke-linecap="round"><title>Curry County</title></path>
<path id="35011" d="M -11571209.082330368 -4039922.559309794 l -6074.257998790592 73.78930093580857 -17290.807553414255 -145.83258857717738 -47.64574393630028 11809.236720408313 -24407.793997950852 -49.4117845618166 -13521.307401446626 -118.82925833528861 -32168.208546426147 -457.0662957848981 -30.501651803031564 -11781.121773399878 -11900.384184684604 -72.71879494609311 143.71524372510612 -34824.60384400142 -19.256156837567687 -34763.5627117469 34093.59045919031 2.84285820601508 15678.344729268923 -152.15140451630577 -2.448806153610349 -11654.078008328564 11712.033053418621 -78.38885259022936 -20.371578140184283 -11750.456438848283 23430.966356799006 -46.75704722525552 60.55691243708134 23571.744314529467 20043.292058251798 19.070580490399152 -10.298388728871942 23612.28838966647 -78.64866739884019 22978.0264879982 389.729871224612 0 z" vector-effect="non-scaling-stroke" fill="#000" fill-opacity="1" stroke="#FFF" stroke-width="0.3px" stroke-linejoin="round" stroke-linecap="round"><title>De Baca County</title></path>
<path id="35013" d="M -11856199.520682901 -3733191.0933686206 l -1239.6839057374746 -466.8929336639121 -4650.972407858819 -6.766772467177361 -2882.049705453217 -6.766645303927362 -2876.297048119828 -6.766780028119683 -2882.0495941378176 -13.533440436702222 -2882.0497054550797 -6.766791378613561 -2876.2970481179655 -13.53333217650652 -2882.0495941378176 0 -2882.049705453217 -6.766671761870384 -2876.297159438953 -13.533485813997686 -2882.049594135955 -6.766814034897834 -2882.0497054569423 -6.766686887014657 -2882.049594135955 -6.766821610275656 -2876.297048119828 -6.766694443300366 -2882.0497054550797 -13.533400232437998 -2882.049594135955 0 -2882.0497054457664 -6.7668367321603 -2882.0497054550797 -13.5335538466461 -2882.0495941378176 -6.76684807240963 -2882.049705453217 -6.76672090915963 -2882.0495941285044 -6.766855634748936 -2876.297048131004 -6.76672845473513 -2882.049705442041 -13.533468290232122 -2882.049594135955 0 -2876.297159448266 -6.766870755702257 -2882.049705447629 -20.300503991078585 -2882.049594135955 0 -2882.0497054550797 -6.76675493363291 -2876.2970481291413 -6.766889643389732 -2882.049594124779 -6.766762506682426 -1481.939202144742 -6.958891979418695 55.623494669795036 -11244.904184529558 -149.05468310415745 -28986.381036686245 -108.36930164322257 -21214.212798577268 82.32287850789726 -35426.323420368135 -179.55822733044624 -12299.772727077827 83.82591428048909 -23114.258437653538 23043.796722535044 184.57213603518903 22713.73599081114 -57.46172978542745 -14.13735269010067 -5765.710450401064 31521.05424517207 -15814.183055504225 29413.775505218655 -14686.118290344253 -28.831414153799415 12550.053461579606 -3994.3656346853822 40.99485401902348 -95.95918217487633 27544.074910196476 74.69548964314163 8041.808733500075 -29.50100089609623 25166.697276312392 -62.11827961727977 32785.49131865287 51.522688679397106 32813.851437791716 -2278.742269968614 1.181375438347459 -24728.907412374392 12.818867878057063 -2878.1089499257505 6.40954687166959 -1842.6418780125678 0 84.25051573291421 2217.472757861484 2334.556660702452 4737.998797873501 597.9075381662697 2786.1882581571117 301.6714113857597 3006.439914068673 823.4816610980779 2304.7500878241844 2742.220827564597 4006.6572477859445 -828.9171459488571 975.8614969523624 785.4329668134451 1519.6273409989662 1027.3135443050414 1145.1931270207278 1277.3477495070547 729.2842019717209 1540.9704666174948 265.4740880052559 -10.871069809421897 0 1470.308763127774 972.2892122990452 z" vector-effect="non-scaling-stroke" fill="#000" fill-opacity="1" stroke="#FFF" stroke-width="0.3px" stroke-linejoin="round" stroke-linecap="round"><title>Doña Ana County</title></path>
<path id="35015" d="M -11547393.505197717 -3763503.44883341 l -24728.90751248598 16.02387996017933 -7833.360094672069 5.07642760546878 -16892.829575283453 10.947431021835655 -24728.907312264666 9.614234099630266 -24723.471827417612 9.614344479516149 -24731.625254912302 12.81907467264682 -543.6776881869882 -33143.746831696946 -403.6449188925326 -8.55649242689833 -114.30173995159566 -17501.775123874657 76.90084007568657 -17736.46898165578 1057.4233977664262 -26.40344958519563 -55.490873731672764 -27117.839746788144 144.21551351435483 -31459.19881443726 24012.165640871972 -46.834006294608116 24914.63208481297 -115.69514943938702 24399.779662529007 -81.86248687049374 40955.3446884267 -1.908481851685792 -42.38099993020296 25820.200304640457 137.75686797872186 14153.032263876405 -22.153803184628487 18617.88564631855 10132.409590385854 -12.541426053270698 4.561316132545471 35653.02395077562 66.45740204676986 15421.875218842644 z" vector-effect="non-scaling-stroke" fill="#000" fill-opacity="1" stroke="#FFF" stroke-width="0.3px" stroke-linejoin="round" stroke-linecap="round"><title>Eddy County</title></path>
<path id="35017" d="M -12139082.257016685 -3865816.363218702 l 2.285448731854558 -19734.880740665365 0 -23511.03782728361 3.240483501926064 -14041.097081842832 10069.729629140347 243.02521546604112 23036.673944922164 -303.21638075169176 22965.427912339568 242.41580874938518 10408.593024399132 908.4143815995194 25624.40627130121 8.914284836966544 24395.10457787849 -83.14673150051385 13918.976690078154 -131.21573163894936 2049.3549787551165 728.0096319834702 1721.667021965608 2063.3970587891527 -1632.6673117149621 2169.551167164929 641.9230644218624 6053.005864173174 1816.734089748934 5533.223641403485 -1854.025896526873 2841.7345682834275 -649.7720903977752 2662.179192419164 907.9208763502538 1272.707644903101 -856.6033703312278 3308.657821633853 2729.2191765382886 3691.7479564226232 229.8747484907508 1379.0146969109774 5479.589167652652 1478.215911458712 1693.8374832309783 5432.588966961484 -1439.4728920422494 2038.5614010230638 609.4741007741541 5708.210518837906 1591.8689409773797 954.0584645788185 1497.3579140678048 2782.2941253976896 -534.3343350477517 2569.5320533500053 1452.7187982555479 2833.860253240913 1714.3203808516264 834.0255097206682 411.99287883378565 3044.8338586064056 -575.744740338996 2509.147135348525 844.0247131511569 1925.2405382031575 -477.6724915970117 3187.8853746969253 -877.0859339963645 709.1398546095006 236.55347266048193 4103.999950214289 -1017.2375068701804 3909.985194040928 1964.2880747877061 1185.4332955740392 12081.55732387118 2267.2365608583204 -35088.67616662569 132.40586748113856 0.111764771863818 11503.747490737587 -16723.523873606697 65.08235803153366 -17314.63025840372 -27.196297879330814 -16.25342489220202 18944.518279170617 -60.78200044669211 38611.36003900785 1447.0408363118768 10.24817927647382 -26.94020733423531 28316.905425177887 -34231.62696172483 52.688845474272966 12.914953360334039 -28349.62582276389 -1508.268114713952 -13.664437228348106 126.57092894613743 -11565.96337402286 -4.116372127085924 -45974.12489478942 -12258.499988446012 -19.275773379951715 87.05262103676796 -11449.253107187338 -23009.95648789592 -5.947480199858546 13.025382298976183 -13950.474373125471 -158.40674484334886 -9018.287195344921 z" vector-effect="non-scaling-stroke" fill="#000" fill-opacity="1" stroke="#FFF" stroke-width="0.3px" stroke-linejoin="round" stroke-linecap="round"><title>Grant County</title></path>
<path id="35019" d="M -11591633.41610755 -4133931.669233106 l -23430.966356799006 46.75704722525552 20.371578140184283 11750.456438848283 -11712.033053418621 78.38885259022936 2.448806153610349 11654.078008328564 -15678.344729268923 152.15140451630577 -34093.59045919031 -2.84285820601508 19.256156837567687 34763.5627117469 -38942.10954485461 -37.89005423290655 -7936.520869713277 74.15583920758218 38.073269601911306 -35154.85574944876 2485.429714338854 41.65696177771315 -23.04090820066631 -36348.27149230521 -42.077765645459294 -22687.784513487015 -39.34876833111048 -23717.67894139141 18443.464441599324 -102.464542909991 29845.416385490447 111.18881687056273 25815.87412567623 45.919369775336236 30197.297407209873 -7.083026438485831 25463.882786344737 44.0118958982639 76.69879519566894 10008.93224793626 -76.47849392518401 25563.120193873998 -467.2082368172705 9.100343418307602 z" vector-effect="non-scaling-stroke" fill="#000" fill-opacity="1" stroke="#FFF" stroke-width="0.3px" stroke-linejoin="round" stroke-linecap="round"><title>Guadalupe County</title></path>
<path id="35021" d="M -11623143.926046103 -4330784.672877867 l 18028.40002224408 137.64238947909325 26895.784394543618 -14.071697557345033 4.843065766617656 6002.362375394441 23922.274372814223 70.26281079463661 -39.63040664233267 12157.340820739977 21870.155108468607 -139.2630614042282 25926.749563019723 58.54451163392514 5.564638705924153 12071.009121142328 -1115.421075111255 11.557934417389333 -4.78874185308814 35524.098009207286 -34.06487737596035 12002.332373852842 -448.17215861566365 -3.013938940130174 -69.13163017109036 34808.29514463805 -1154.3830082099885 1095.3203871482983 -27477.651150276884 33.316900070756674 -3.896182181313634 -4410.202581005171 -9729.655116096139 -28.68774237204343 -12288.220288736746 -22697.456923985854 -15795.67358013615 -29262.868589936756 -4947.928281500936 2774.1010783202946 -19525.65620341897 -97.97578502539545 -19682.736948071048 101.78745980095118 -109.1503766681999 -1964.6253602467477 90.59203352406621 -491.4442737624049 226.48008380644023 -502.63637362327427 298.9537106268108 -379.78507312666625 606.9666246045381 -559.2129870625213 235.53928715921938 -401.47890643775463 298.95371062867343 -938.4319684896618 190.24327039718628 -1111.6995687549934 63.41442346572876 -1111.8130021151155 -95.12163519486785 -949.8798781009391 -1218.4628508929163 -3543.2240065243095 -140.4176519587636 -1117.9755835011601 86.06243184767663 -1129.2719215666875 308.01291397958994 -1095.841229907237 475.608175996691 -1012.0738728009164 597.9074212536216 -838.806616159156 733.7954715359956 -754.9812723239884 3184.309978339821 -2270.8522150479257 326.1313206832856 -693.65535041783 -443.90096426196396 -945.4564062515274 -620.5554296337068 -766.4954490233213 -158.53605866618454 -408.4466654919088 -99.65123687498271 -621.0921654365957 -36.2368134111166 -514.8060059761629 22.64800838381052 -514.8304056655616 81.53283016942441 -526.0475767944008 158.5360586643219 -475.7032581111416 570.7298111971468 -845.124242044054 2260.271236402914 -1757.6213330021128 -484.66737934947014 -1601.1384705817327 -833.4467084147036 -1153.41394898016 -2079.0871693547815 -2015.9693139512092 -2038.3207542710006 -2845.3943611746654 -203.832075426355 -431.3552723750472 -99.65123687684536 -504.203246130608 27.177610056474805 -403.37948558758944 235.53928716108203 -689.1413564989343 81.53283017128706 -352.99181417841464 -9.05920335277915 -700.4146295655519 -172.12486369721591 -616.4023319641128 -317.0721173286438 -532.3756950031966 -874.2131234966218 -812.623879134655 -244.59849051386118 -313.8572676004842 -77.00322849676013 -403.54413824994117 -31.70721172913909 -1362.072504568845 -249.12809219025075 -1575.285177944228 -570.7298111971468 -2119.4286101739854 -217.42088045552373 -381.31693180277944 -865.1539201457053 -886.0530033633113 -240.0688888374716 -370.1448973696679 -221.9504821319133 -656.1970858387649 -271.77610056847334 -1475.186667950824 -1277.3476726766676 -2771.4271556604654 -385.0161424726248 -1122.237407808192 -217.42088045552373 -1133.5781030571088 -158.53605866618454 -2924.2828211067244 -158.53605866618454 -971.1942096864805 z" vector-effect="non-scaling-stroke" fill="#000" fill-opacity="1" stroke="#FFF" stroke-width="0.3px" stroke-linejoin="round" stroke-linecap="round"><title>Harding County</title></path>
<path id="35023" d="M -12046452.190008804 -3734172.2662841924 l 0 920.2748293476179 0 920.2049217470922 0 920.1350386287086 0 920.0651799608022 0 926.7597020417452 0 913.1610487643629 0 919.8557506189682 0 926.5489377574995 0 926.47804127587 0 912.8835969720967 0 919.5763410632499 0 926.2674417803064 0 919.436396444682 0 919.3669130997732 0 926.0566788255237 5.752657325938344 919.2271156366915 5.752545999363065 912.3995034466498 0 925.8463910389692 0 919.0186967626214 0 918.9492288581096 0 918.8797853062861 0 918.8102353387512 0 918.7409711480141 0 925.4263559095562 0 918.6016136733815 0 918.5324224983342 0 918.463124928996 0 918.3938516150229 0 918.3246025620028 0 925.0068119056523 0 918.1856685066596 5.75265733525157 918.1164923855104 0 918.0473404806107 0 924.7277400335297 0 917.9086013594642 0 911.0908804056235 0 924.5189788104035 0 917.7014368302189 0 910.8854415081441 0 924.3104369561188 0 924.2404610402882 0 917.4250492621213 0 910.6110514583997 0 924.0323424264789 0 917.2183929118328 0 917.1494252425618 0 917.080742707476 5.752546006813645 917.0119537878782 5.752657318487763 923.6849766359664 0 916.8739429325797 0 916.8052265020087 0 916.7365341787226 0 923.4077599919401 0 909.8593276939355 0 916.5304712485522 0 923.2005166797899 0 923.1308023445308 0 909.5863785240799 0 916.2558580432087 0 922.9238502555527 0 916.1182489045896 0 909.314572843723 0 922.7168552619405 5.75254600867629 915.9130968507379 -4760.27156120725 6.734345318283886 -4760.271672550589 0 -4751.642742194235 0 -4754.519126530737 0 -4754.519015220925 0 -4754.519015200436 0 -4751.642742203549 0 -4754.519015213475 0 -4760.27167253755 0 -4754.519015209749 0 -4757.395399533212 0 -4754.519015211612 0 -4754.519126530737 0 -4757.3953995313495 0 -4754.519015211612 0 -4754.519015211612 0 -4754.519015200436 0 -3031.9052209760994 0 -1719.7375212404877 0 -4760.2716725263745 0 -2330.7610780000687 0 0.000006049871445 -38.88442722707987 0 -12.726384758017957 0 -15.908116711303592 0 -22.271468370687217 0 -22.27139161201194 0 -15.908077905420214 0 -22.271578120999038 0 -22.27150136511773 0 -19.090024434030056 0 -19.08981974190101 0 -22.271728320978582 0 -19.09000130975619 0 -22.271686210297048 0 -19.090182880870998 0 -19.089978196192533 0 -19.090125099290162 0 -22.27194783091545 0 -19.090189477894455 0 -22.27202293323353 0 -19.09013664117083 0 -19.090283553116024 0 -19.090430474840105 0 -22.27205015812069 0 -19.09037763858214 0 -22.27212527114898 0 -19.090442013461143 0 -19.09058893006295 0 -22.27223503962159 0 -19.090536103583872 0 -22.27231013868004 0 -19.090600488241762 0 -19.090747399255633 0 -19.09054270386696 0 -23102.422058913857 5.435484852641821 -23146.23961404385 0 -23193.645764899906 0 -23235.049879303202 5.435685072094202 -23276.82994471304 8.153227277100086 -23331.863990362268 0 -4107.81482433714 0 -19260.19063560199 2.717742424458265 -23417.42004622612 0.432293690741062 -3729.1428463291377 21469.134504480287 38.79713621363044 158.40674484334886 9018.287195344921 -13.025382298976183 13950.474373125471 23009.95648789592 5.947480199858546 -87.05262103676796 11449.253107187338 12258.499988446012 19.275773379951715 4.116372127085924 45974.12489478942 -126.57092894613743 11565.96337402286 1508.268114713952 13.664437228348106 -12.914953360334039 28349.62582276389 34231.62696172483 -52.688845474272966 -11.243268564343452 5739.441864586435 812.6318375095725 -13.231696506496519 z" vector-effect="non-scaling-stroke" fill="#000" fill-opacity="1" stroke="#FFF" stroke-width="0.3px" stroke-linejoin="round" stroke-linecap="round"><title>Hidalgo County</title></path>
<path id="35025" d="M -11472273.00618524 -3971291.279678803 l -23.326956206932664 5313.473211823497 -86.96835826151073 18546.085790361278 -81.53287342190742 18516.453517813236 -81.53277330286801 18493.513859678525 -84.25061583891511 18464.26611638209 -9.216905368492007 2085.100585586857 -72.31596804596484 16346.884013438597 -78.81503088027239 18399.91757088015 -84.25061583705246 18374.512846617494 -21.56238249503076 4699.692185044289 -62.68813323788345 13652.817101246212 -78.81503088027239 18311.38436038047 -86.96835826337337 18289.770731841214 -32.525627348572016 7054.687036732677 -51.72498849593103 11210.428974316921 -24728.907412374392 9.614282748196274 -4314.114936007187 1.677271884400398 -20414.79257648252 7.937003176659346 -24726.18946972862 9.614385440014303 1080.8954036273062 -17522.718214681372 -66.45740204676986 -15421.875218842644 -4.561316132545471 -35653.02395077562 -10132.409590385854 12.541426053270698 22.153803184628487 -18617.88564631855 -137.75686797872186 -14153.032263876405 42.38099993020296 -25820.200304640457 5374.035692524165 -21.50706225540489 40.41086759604514 -36351.83160289191 -125.90256672911346 -1495.4160098293796 75.25364557094872 -19368.070216642227 4946.925404205918 -53.73444290459156 139.37278170883656 -23194.673983245622 10601.064869260415 82.70019406173378 12835.71303287521 -160.02932112431154 28909.75335619971 -25.275788741651922 z" vector-effect="non-scaling-stroke" fill="#000" fill-opacity="1" stroke="#FFF" stroke-width="0.3px" stroke-linejoin="round" stroke-linecap="round"><title>Lea County</title></path>
<path id="35027" d="M -11676649.98940882 -4040664.513784055 l -118.3332866281271 14165.965128862299 -36.959629422053695 21255.776708256453 373.92161297798157 307.2556275213137 -85.93953744508326 26365.20698390901 -48.53719041869044 30360.22771158209 805.7305856831372 575.8712936486118 -4.342350697144866 11608.23884640215 -2074.3268348444253 10.256339142099023 -216.07202218659222 22291.257106874138 -10246.512068444863 -62.01895682234317 -1001.0961807072163 691.1514433128759 -10273.450605977327 -41.2107250620611 -1173.7527109272778 295.11452762642875 -23070.959012251347 -24.726411286275834 -240.22590265609324 -23003.719388321042 -26384.272224903107 -45.15504485415295 -18913.510880151764 79.91655247705057 -154.2885915990919 -11419.12299029762 -42381.88103112951 150.12160466006026 -26470.099107028916 -188.9239487159066 -2937.052443213761 -9.06703613139689 -94.28760870359838 -11903.286151354201 -94.28582758642733 -24088.04345984431 11738.415327453986 11.502715012989938 12219.537721391767 1053.8475262969732 15.250770239159465 300.62277068849653 11775.372841808945 -13.90645062085241 -1.334164099767804 -23501.48057812918 14263.029725207016 43.55093234870583 -126.01277302391827 -23411.122553967405 206.27713151089847 -34961.82462447602 25335.976134825498 15.625830343458802 31070.153868474066 15.22228084364906 11580.897468751296 -33.806561414618045 28.053624879568815 -11677.655107538216 7936.520869713277 -74.15583920758218 38942.10954485461 37.89005423290655 z" vector-effect="non-scaling-stroke" fill="#000" fill-opacity="1" stroke="#FFF" stroke-width="0.3px" stroke-linejoin="round" stroke-linecap="round"><title>Lincoln County</title></path>
<path id="35028" d="M -11827466.475663744 -4295989.307115218 l 279.41136529669166 4868.503553609364 -323.1829683147371 10309.490361959673 9.512807086110115 2297.0504142707214 2516.7923110798 1445.0913850115612 4643.135849671438 -25.400117336772382 244.31533967517316 1827.8617937052622 -7365.103129627183 8267.120159358718 -2018.4303054474294 -3322.3788277152926 -1886.7527136225253 -1720.4095465773717 -8227.844533719122 -3321.6527803754434 -2834.1940129622817 1133.0439725099131 -2298.969455944374 -2.334191405214369 -1711.313418770209 -1478.5813859403133 2097.481066292152 -1213.9292819797993 -11.46468303911388 -18199.76141906716 1475.8738089371473 1027.0165319861844 7911.474095607176 15.264382494613528 1686.824132669717 -946.2852600775659 -23.48852387070656 -1937.3870339905843 4025.868493983522 86.10867419280112 z" vector-effect="non-scaling-stroke" fill="#000" fill-opacity="1" stroke="#FFF" stroke-width="0.3px" stroke-linejoin="round" stroke-linecap="round"><title>Los Alamos County</title></path>
<path id="35029" d="M -12037811.793549774 -3734145.198213795 l -2876.297048131004 -13.53396216686815 -2887.8022514507174 -6.767052229959518 -2876.297159448266 -6.767056000418961 571.7668496537954 -5585.162017648108 -812.6318375095725 13.231696506496519 11.243268564343452 -5739.441864586435 26.94020733423531 -28316.905425177887 -1447.0408363118768 -10.24817927647382 60.78200044669211 -38611.36003900785 16.25342489220202 -18944.518279170617 17314.63025840372 27.196297879330814 16723.523873606697 -65.08235803153366 -0.111764771863818 -11503.747490737587 35088.67616662569 -132.40586748113856 34369.88409950398 -19.132680924143642 179.55822733044624 12299.772727077827 -82.32287850789726 35426.323420368135 108.36930164322257 21214.212798577268 149.05468310415745 28986.381036686245 -55.623494669795036 11244.904184529558 -1400.110503308475 -6.574644346255809 -2876.2970481235534 -6.766904768999666 -2882.0495941340923 -13.533689955249429 -2882.0497054550797 0 -2879.173432452604 -6.766785176936537 -2882.0495941266418 -13.533843582496047 -2882.0495941378176 -6.766796518582851 -2882.0497054569423 -13.533604365773499 -2876.2971594352275 -6.766938806511462 -2882.0495941378176 -6.766811636742204 -2882.0497054550797 -6.766946367453784 -2882.049594135955 -6.766819187439978 -2882.0497054457664 -13.53378069261089 -2882.0497054569423 -6.766961491666734 -2882.049594135955 0 -2882.0497054457664 -13.53367242589593 -2876.2970481291413 -6.766972829122096 -2882.049594124779 -6.76684566680342 -2882.0497054550797 -6.766980383079499 -2882.0495941396803 -6.766853224951774 -2876.2970481272787 -13.53384874528274 -2882.0497054457664 -6.766995514277369 -2882.049594135955 0 -2876.297159448266 -13.533740479964763 -2882.0497054550797 -6.766875911969692 -2882.0495941266418 -6.767010630108416 -2876.2970481291413 -6.767014420591295 -2882.0497054457664 -6.766887252219021 -2882.0495941340923 -13.533916784450412 -2882.0497054550797 -6.767029556445777 -2876.2969368118793 0 -2882.0497054457664 -20.30071846395731 z" vector-effect="non-scaling-stroke" fill="#000" fill-opacity="1" stroke="#FFF" stroke-width="0.3px" stroke-linejoin="round" stroke-linecap="round"><title>Luna County</title></path>
<path id="35031" d="M -12139047.463562526 -4158407.618429632 l 2.82294643111527 -12500.028254870325 0 -24111.866189774126 5.435484848916531 -24161.22726972215 5.435484852641821 -24211.029180406593 0 -24267.97392628994 2.717742424458265 -24322.054854252376 0.999578287824988 -8960.518866625614 32694.732361312956 -27.916390004567802 31170.67525733821 34.815950095653534 24761.23449441418 22.844045073725283 17960.50572135113 -59.855862179771066 51519.85156899318 307.87168478313833 35428.66637429409 224.2319120708853 -48.98302497342229 34162.03495195508 -9.018659869208932 24765.725283968262 238.4451247639954 20609.1782139102 -338.74487652257085 -65.70398350525647 -45.308702543377876 15532.628359612077 -26034.172426357865 222.3670692583546 -9399.14743661508 -160.27653365582228 14.917257042601705 -5944.398740754463 -11718.823319714516 0.135524146258831 -81.26300564035773 5921.346034911461 -30850.520847102627 -24.418792541138828 -26220.409600498155 -200.5208225697279 -24679.19180705771 -23.464152143336833 13.691184172406793 18614.683037309907 -142.60049034655094 6351.5098775080405 53.43179710768163 22373.25442124391 -24081.51768363081 -110.97305621486157 z" vector-effect="non-scaling-stroke" fill="#000" fill-opacity="1" stroke="#FFF" stroke-width="0.3px" stroke-linejoin="round" stroke-linecap="round"><title>McKinley County</title></path>
<path id="35033" d="M -11726487.322794368 -4336769.527610099 l 19373.778680671006 64.5404794383794 4590.5927160568535 195.902700481005 28985.028152469546 -104.23008328862488 -40.075239323079586 5955.102475185879 13780.125106226653 -111.48773807380348 13118.219191327691 82.92731618508697 23535.72814083658 -97.90041769575328 277.7984788864851 826.5082413395867 158.53605866618454 971.1942096864805 158.53605866618454 2924.2828211067244 217.42088045552373 1133.5781030571088 385.0161424726248 1122.237407808192 1277.3476726766676 2771.4271556604654 271.77610056847334 1475.186667950824 221.9504821319133 656.1970858387649 240.0688888374716 370.1448973696679 865.1539201457053 886.0530033633113 217.42088045552373 381.31693180277944 570.7298111971468 2119.4286101739854 249.12809219025075 1575.285177944228 31.70721172913909 1362.072504568845 77.00322849676013 403.54413824994117 244.59849051386118 313.8572676004842 874.2131234966218 812.623879134655 317.0721173286438 532.3756950031966 172.12486369721591 616.4023319641128 9.05920335277915 700.4146295655519 -81.53283017128706 352.99181417841464 -235.53928716108203 689.1413564989343 -27.177610056474805 403.37948558758944 99.65123687684536 504.203246130608 203.832075426355 431.3552723750472 2038.3207542710006 2845.3943611746654 2079.0871693547815 2015.9693139512092 833.4467084147036 1153.41394898016 484.66737934947014 1601.1384705817327 -2260.271236402914 1757.6213330021128 -570.7298111971468 845.124242044054 -158.5360586643219 475.7032581111416 -81.53283016942441 526.0475767944008 -22.64800838381052 514.8304056655616 36.2368134111166 514.8060059761629 99.65123687498271 621.0921654365957 158.53605866618454 408.4466654919088 620.5554296337068 766.4954490233213 443.90096426196396 945.4564062515274 -326.1313206832856 693.65535041783 -3184.309978339821 2270.8522150479257 -733.7954715359956 754.9812723239884 -597.9074212536216 838.806616159156 -475.608175996691 1012.0738728009164 -308.01291397958994 1095.841229907237 -86.06243184767663 1129.2719215666875 140.4176519587636 1117.9755835011601 1218.4628508929163 3543.2240065243095 95.12163519486785 949.8798781009391 -63.41442346572876 1111.8130021151155 -190.24327039718628 1111.6995687549934 -298.95371062867343 938.4319684896618 -235.53928715921938 401.47890643775463 -606.9666246045381 559.2129870625213 -298.9537106268108 379.78507312666625 -226.48008380644023 502.63637362327427 -90.59203352406621 491.4442737624049 109.1503766681999 1964.6253602467477 -11926.870616197586 125.58143835049123 -43262.751716498286 705.8211584752426 -15246.480987384915 537.8785123387352 -2068.3710194472224 2347.786868225783 -3624.442172538489 -3495.634984491393 -995.2044853363186 -14.622885500080884 -5956.22727853246 -3915.7473348863423 -3416.818297835067 -591.8837582943961 -2586.144910439849 -1615.0173235833645 -8270.800387509167 -2312.387459668331 -11104.43357287161 -4024.4868969591334 -41460.93532908149 -43.962235456332564 323.4952194876969 -14811.452172927558 1090.1516620218754 1377.3150059245527 3216.087993901223 132.52031979896128 2078.488068735227 1273.5011001629755 1675.6921835877001 -606.645353410393 1500.000416137278 -2279.840607892722 3124.321437710896 859.1613938156515 3356.9494511671364 96.83633074723184 4070.842570139095 -2602.768121025525 710.7516829427332 -2968.689609414898 2531.7611090540886 -936.2217727648094 2029.0202473662794 -2414.490492435172 2945.123774215579 -5646.716061828658 4775.215868895873 -7343.585280212574 584.4278832618147 -3503.767267599702 -769.1058052945882 -1778.4399674208835 2742.46608463116 -2972.764584939927 469.32319581881166 -3386.403108539991 -1549.6420072205365 -3045.353024210781 2155.999384891242 -2022.510154264979 3681.4163784831762 -1973.784367840737 z" vector-effect="non-scaling-stroke" fill="#000" fill-opacity="1" stroke="#FFF" stroke-width="0.3px" stroke-linejoin="round" stroke-linecap="round"><title>Mora County</title></path>
<path id="35035" d="M -11671032.606774753 -3763439.353441571 l -8414.984632628039 3.272373399697244 -16308.487194789574 6.341953159775585 -24731.62515479885 9.614200821146369 -24723.471827417612 9.614193147514015 -24734.34289723076 9.614303512033075 -24728.907412376255 12.819020059891045 -4968.183979187161 1.287719634827226 -19760.723433189094 5.121844302862883 -22447.447299873456 11.637506083585322 -51.522688679397106 -32813.851437791716 62.11827961727977 -32785.49131865287 29.50100089609623 -25166.697276312392 -74.69548964314163 -8041.808733500075 95.95918217487633 -27544.074910196476 3994.3656346853822 -40.99485401902348 28.831414153799415 -12550.053461579606 -412.8263278491795 -26235.744381320197 -185.84677669033408 -18744.28467431804 26470.099107028916 188.9239487159066 42381.88103112951 -150.12160466006026 154.2885915990919 11419.12299029762 18913.510880151764 -79.91655247705057 26384.272224903107 45.15504485415295 240.22590265609324 23003.719388321042 81.81904650107026 22603.822795113083 -4052.696936544031 4.776341244578362 70.90840056352317 47225.970321289264 -221.86085834167898 11430.728508447763 22792.66106450185 -8.316335528157651 123.11913417838514 -247.53543762722984 33009.33850754239 26.801095923874527 -76.90084007568657 17736.46898165578 114.30173995159566 17501.775123874657 403.6449188925326 8.55649242689833 z" vector-effect="non-scaling-stroke" fill="#000" fill-opacity="1" stroke="#FFF" stroke-width="0.3px" stroke-linejoin="round" stroke-linecap="round"><title>Otero County</title></path>
<path id="35037" d="M -11470977.208427994 -4264821.805120293 l -77.10801590792835 16887.649493843317 -81.53277331218123 19019.33804704249 -78.81503087282181 18986.478812084533 -84.25061584450305 18957.170045676176 -9.65296158194542 2169.1695181666873 -74.59765425510705 16748.937479345128 -66.31160765141249 14403.055944723543 -25950.89679490216 -26.385793471243232 -121.00539969280362 12143.583846495487 -11731.73537877202 -51.96262489259243 -95.62477843090892 11793.109965276439 -11703.126158319414 -55.29642864782363 -51.87577326409519 11807.278599312529 -23346.251779021695 -125.23543403996155 -93.39760937727988 11890.603084257338 -3542.7427944932133 -11.361047985497862 -23443.433583168313 -55.18272497970611 -20043.292058251798 -19.070580490399152 -60.55691243708134 -23571.744314529467 -33.50571957603097 -23715.391046406236 467.2082368172705 -9.100343418307602 76.47849392518401 -25563.120193873998 4835.939871888608 -2642.383175794501 21313.670643782243 -12052.023013246711 3589.1625768784434 -1913.0571875236928 18.25650781393051 2983.6145962867886 24542.71355474554 179.6442937431857 -9.905987521633506 -20305.45349390991 27477.651150276884 -33.316900070756674 1154.3830082099885 -1095.3203871482983 69.13163017109036 -34808.29514463805 448.17215861566365 3.013938940130174 34.06487737596035 -12002.332373852842 z" vector-effect="non-scaling-stroke" fill="#000" fill-opacity="1" stroke="#FFF" stroke-width="0.3px" stroke-linejoin="round" stroke-linecap="round"><title>Quay County</title></path>
<path id="35039" d="M -11852878.473103348 -4439080.133020672 l 8308.672950960696 0 21030.034543786198 0 21035.47022885643 0 1900.8874235153198 0 279.41147661209106 3302.5005296012387 1759.4031048398465 4915.311502351426 284.6436039991677 2842.159282444045 1544.3348504956812 4758.069075543433 -296.66644296236336 6790.189961032011 -1100.0592080187052 3529.385871216655 363.0003916900605 4516.152148345485 8.694386187940836 9219.50295032654 1141.302077487111 4382.860530183651 281.9168330691755 3059.3768659634516 -735.9401667583734 2032.667348834686 1196.245593270287 4525.450461590663 191.7254476789385 2697.935201675631 1275.9097170643508 6428.79396262113 -69.7984339185059 4036.190596370958 976.2720455732197 2401.2647415148094 427.6884817555547 5002.039706060663 -1592.7586063537747 4528.055316030979 144.29855785518885 7427.642837977037 -1000.0120401792228 3354.6440722402185 -1203.2523759901524 1190.285634192638 -7414.74827128835 2745.2379010133445 -2107.3507636599243 3878.9215035634115 22314.5412911959 9148.52414442692 10615.256211910397 13847.692651974037 2855.67834071815 4111.669248141348 22883.807237176225 11990.63047831133 -710.7516829427332 2968.689609414898 -4070.842570139095 2602.768121025525 -3356.9494511671364 -96.83633074723184 -3124.321437710896 -859.1613938156515 -1500.000416137278 2279.840607892722 -1675.6921835877001 606.645353410393 -2078.488068735227 -1273.5011001629755 -3216.087993901223 -132.52031979896128 -1090.1516620218754 -1377.3150059245527 69.46347357518971 -3246.383959626779 -39478.89179550484 44.9934665504843 1926.420412292704 2253.594770843163 -7.273615524172783 7545.571621241979 -21293.63269016333 -20.210504787042737 -279.41136529669166 -4868.503553609364 78.7031026314944 -4839.589467650279 -28202.452466156334 69.07415103539824 -27830.311519749463 254.6929421145469 -13914.933788811788 77.3285414064303 -1093.3802612125874 -343.30787170585245 -128.12728674523532 -17065.40971238911 175.5519501734525 -12624.812055085786 -39283.637297330424 29.10966770723462 -29246.407096089795 -209.04032002575696 -13764.095656147227 -265.6172655131668 -151.28185215219855 -17945.120095631108 207.61174088157713 -6078.847852990031 -337.7427784688771 -6069.14089020621 380.93774652294815 -32331.45936522726 466.20569348707795 -618.4608316374943 102.71683186106384 -16115.32383275032 2024.3212290257215 -3469.1462800763547 91.02002917416394 -2947.6029253415763 15441.412114026025 -9206.500117409043 2821.941844245419 -3614.570805151947 720.2066665086895 -4947.951855018735 394.0753458272666 -754.0142838601023 679.440251423046 -606.6519102975726 1630.6566034145653 -3468.463469750248 6478.635460462421 0 21032.75248643197 0 21030.034643897787 0 21030.034643895924 0 21030.034643897787 0 z" vector-effect="non-scaling-stroke" fill="#000" fill-opacity="1" stroke="#FFF" stroke-width="0.3px" stroke-linejoin="round" stroke-linecap="round"><title>Rio Arriba County</title></path>
<path id="35041" d="M -11471836.77933036 -4069510.602995639 l -46.45415938459337 10324.38388883695 -81.5328734125942 18700.66619914677 -81.53277330286801 18669.986815999262 -76.79358598776162 16466.170256054495 -10.174672169610858 2179.8891600775532 -81.5328734125942 18609.24656000128 -58.205917209386826 13268.980436719954 -21519.626899067312 23.79843873763457 -28909.75335619971 25.275788741651922 46.45384614914656 -11614.47413274739 -23206.045214328915 135.00654352782294 162.30481944978237 -21841.736198792234 -13927.400792540982 6.430637387093157 31.951142881065607 -35217.33055965556 -11613.959691472352 -148.25014819018543 -19.701991396024823 -23827.980150627438 -389.729871224612 0 78.64866739884019 -22978.0264879982 10.298388728871942 -23612.28838966647 23443.433583168313 55.18272497970611 3.339028123766184 13221.423048222438 -202.0462116226554 27494.324661450926 19531.22317983769 9.030416239518672 34798.13006926887 -22.90675124246627 z" vector-effect="non-scaling-stroke" fill="#000" fill-opacity="1" stroke="#FFF" stroke-width="0.3px" stroke-linejoin="round" stroke-linecap="round"><title>Roosevelt County</title></path>
<path id="35043" d="M -11827158.239118187 -4193142.25079178 l -7770.766927160323 -241.8562848372385 -16073.751003971323 -153.29187340801582 -27109.240074736997 95.17549749650061 -41966.15861540474 -190.28995149303228 -12943.782217167318 -93.06806819187477 -1937.2924303580076 -4186.086044110823 -2848.3313656505197 -7544.818998334929 -7890.434934485704 20.023708865977824 45.308702543377876 -15532.628359612077 338.74487652257085 65.70398350525647 -238.4451247639954 -20609.1782139102 9.018659869208932 -24765.725283968262 48.98302497342229 -34162.03495195508 -35428.66637429409 -224.2319120708853 247.48693908937275 -30242.320961519144 13764.095656147227 265.6172655131668 29246.407096089795 209.04032002575696 39283.637297330424 -29.10966770723462 -175.5519501734525 12624.812055085786 128.12728674523532 17065.40971238911 1093.3802612125874 343.30787170585245 13914.933788811788 -77.3285414064303 27830.311519749463 -254.6929421145469 28202.452466156334 -69.07415103539824 -78.7031026314944 4839.589467650279 -1810.0544750187546 -891.5686153667048 -4025.868493983522 -86.10867419280112 23.48852387070656 1937.3870339905843 -1686.824132669717 946.2852600775659 -7911.474095607176 -15.264382494613528 -1475.8738089371473 -1027.0165319861844 11.46468303911388 18199.76141906716 -2097.481066292152 1213.9292819797993 1711.313418770209 1478.5813859403133 2298.969455944374 2.334191405214369 2834.1940129622817 -1133.0439725099131 8227.844533719122 3321.6527803754434 1886.7527136225253 1720.4095465773717 2018.4303054474294 3322.3788277152926 -81.3627404589206 34808.08461252041 -58.221986120566726 26849.06159049645 296.44391530379653 1490.2668463457376 z" vector-effect="non-scaling-stroke" fill="#000" fill-opacity="1" stroke="#FFF" stroke-width="0.3px" stroke-linejoin="round" stroke-linecap="round"><title>Sandoval County</title></path>
<path id="35045" d="M -12139030.05232568 -4300942.316971573 l 1.718164134770632 -15419.456230270676 0 -24428.28211671114 5.435584958642721 -24483.78552906867 5.435484854504466 -24549.93868222367 0 -24599.678732874803 2.717742424458265 -24656.674757950008 21035.470228854567 0 21030.034643895924 0 21032.752386322245 0 11199.965068237856 0 9830.06967577152 0 21030.034643895924 0 21030.0346438922 0 21032.75238631852 0 21032.75248643011 0 5938.9222523234785 0 8617.912415960804 0 -1630.6566034145653 3468.463469750248 -679.440251423046 606.6519102975726 -394.0753458272666 754.0142838601023 -720.2066665086895 4947.951855018735 -2821.941844245419 3614.570805151947 -15441.412114026025 9206.500117409043 -91.02002917416394 2947.6029253415763 -2024.3212290257215 3469.1462800763547 -102.71683186106384 16115.32383275032 -466.20569348707795 618.4608316374943 -380.93774652294815 32331.45936522726 337.7427784688771 6069.14089020621 -207.61174088157713 6078.847852990031 151.28185215219855 17945.120095631108 -247.48693908937275 30242.320961519144 -51519.85156899318 -307.87168478313833 -17960.50572135113 59.855862179771066 -24761.23449441418 -22.844045073725283 -31170.67525733821 -34.815950095653534 z" vector-effect="non-scaling-stroke" fill="#000" fill-opacity="1" stroke="#FFF" stroke-width="0.3px" stroke-linejoin="round" stroke-linecap="round"><title>San Juan County</title></path>
<path id="35047" d="M -11591123.235096384 -4183219.2808168046 l -76.69879519566894 -10008.93224793626 -25463.882786344737 -44.0118958982639 -30197.297407209873 7.083026438485831 -25815.87412567623 -45.919369775336236 -29845.416385490447 -111.18881687056273 -18443.464441599324 102.464542909991 39.34876833111048 23717.67894139141 -22007.52336010523 50.98522037034854 -25146.399821242318 21.209350923541933 -117.9962112121284 -35768.05866682576 -262.26849767006934 -9666.48306255322 -65.34153546579182 -36825.1016456699 290.3208980280906 -1206.8894252125174 -589.4352565985173 -13283.068914291449 98.51875122450292 -16607.403003098443 41460.93532908149 43.962235456332564 11104.43357287161 4024.4868969591334 8270.800387509167 2312.387459668331 2586.144910439849 1615.0173235833645 3416.818297835067 591.8837582943961 5956.22727853246 3915.7473348863423 995.2044853363186 14.622885500080884 3624.442172538489 3495.634984491393 2068.3710194472224 -2347.786868225783 15246.480987384915 -537.8785123387352 43262.751716498286 -705.8211584752426 11926.870616197586 -125.58143835049123 19682.736948071048 -101.78745980095118 19525.65620341897 97.97578502539545 4947.928281500936 -2774.1010783202946 15795.67358013615 29262.868589936756 12288.220288736746 22697.456923985854 9729.655116096139 28.68774237204343 3.896182181313634 4410.202581005171 9.905987521633506 20305.45349390991 -24542.71355474554 -179.6442937431857 -18.25650781393051 -2983.6145962867886 -3589.1625768784434 1913.0571875236928 -21313.670643782243 12052.023013246711 z" vector-effect="non-scaling-stroke" fill="#000" fill-opacity="1" stroke="#FFF" stroke-width="0.3px" stroke-linejoin="round" stroke-linecap="round"><title>San Miguel County</title></path>
<path id="35049" d="M -11827012.300712908 -4169326.553929644 l 19.259385097771883 -17631.9922142243 -165.19779037684202 -6183.7046479117125 -146.49578196555376 -10709.925723496359 -296.44391530379653 -1490.2668463457376 58.221986120566726 -26849.06159049645 81.3627404589206 -34808.08461252041 7365.103129627183 -8267.120159358718 -244.31533967517316 -1827.8617937052622 -4643.135849671438 25.400117336772382 -2516.7923110798 -1445.0913850115612 -9.512807086110115 -2297.0504142707214 323.1829683147371 -10309.490361959673 21293.63269016333 20.210504787042737 7.273615524172783 -7545.571621241979 -1926.420412292704 -2253.594770843163 39478.89179550484 -44.9934665504843 -69.46347357518971 3246.383959626779 -323.4952194876969 14811.452172927558 -98.51875122450292 16607.403003098443 589.4352565985173 13283.068914291449 -290.3208980280906 1206.8894252125174 65.34153546579182 36825.1016456699 262.26849767006934 9666.48306255322 117.9962112121284 35768.05866682576 -17933.45463979803 -25.835437012370676 -28644.947887336835 198.91452368628234 z" vector-effect="non-scaling-stroke" fill="#000" fill-opacity="1" stroke="#FFF" stroke-width="0.3px" stroke-linejoin="round" stroke-linecap="round"><title>Santa Fe County</title></path>
<path id="35051" d="M -12022576.79572447 -3922086.972290094 l 5.901825446635485 -36837.884282107465 6868.6893221996725 484.9197987425141 8573.323794156313 -223.6058696252294 16605.63653285615 -111.57033531786874 19924.51482949592 149.6084639839828 16500.66169644706 -277.3278126316145 36940.80874124728 -48.31048435671255 12345.551607603207 312.1621478125453 35315.877577546984 90.75367477722466 16832.61652930826 -79.27324972301722 17.032327365130186 -576.950741854962 11249.944511301816 -0.933582230936736 94.28760870359838 11903.286151354201 2937.052443213761 9.06703613139689 185.84677669033408 18744.28467431804 412.8263278491795 26235.744381320197 -29413.775505218655 14686.118290344253 -31521.05424517207 15814.183055504225 14.13735269010067 5765.710450401064 -22713.73599081114 57.46172978542745 -23043.796722535044 -184.57213603518903 -83.82591428048909 23114.258437653538 -34369.88409950398 19.132680924143642 -12081.55732387118 -2267.2365608583204 -1964.2880747877061 -1185.4332955740392 1017.2375068701804 -3909.985194040928 -236.55347266048193 -4103.999950214289 877.0859339963645 -709.1398546095006 477.6724915970117 -3187.8853746969253 -844.0247131511569 -1925.2405382031575 575.744740338996 -2509.147135348525 -411.99287883378565 -3044.8338586064056 -1714.3203808516264 -834.0255097206682 -1452.7187982555479 -2833.860253240913 534.3343350477517 -2569.5320533500053 -1497.3579140678048 -2782.2941253976896 -1591.8689409773797 -954.0584645788185 -609.4741007741541 -5708.210518837906 1439.4728920422494 -2038.5614010230638 -1693.8374832309783 -5432.588966961484 -5479.589167652652 -1478.215911458712 -229.8747484907508 -1379.0146969109774 -2729.2191765382886 -3691.7479564226232 856.6033703312278 -3308.657821633853 -907.9208763502538 -1272.707644903101 649.7720903977752 -2662.179192419164 1854.025896526873 -2841.7345682834275 -1816.734089748934 -5533.223641403485 -641.9230644218624 -6053.005864173174 1632.6673117149621 -2169.551167164929 -1721.667021965608 -2063.3970587891527 -2049.3549787551165 -728.0096319834702 z" vector-effect="non-scaling-stroke" fill="#000" fill-opacity="1" stroke="#FFF" stroke-width="0.3px" stroke-linejoin="round" stroke-linecap="round"><title>Sierra County</title></path>
<path id="35053" d="M -11990523.244249811 -3958775.112978402 l 105.75585396774113 -33038.112994703464 -101.9680969696492 -11677.928866004571 -413.6630051508546 -8546.20078200195 -55.99147747270763 -28657.55639198562 65.90202909894288 -23052.82564681582 -1019.4633400887251 10.775382653810084 -119.10951743647456 -32408.762126970105 187.01730112731457 -10541.526594935916 14555.242497980595 -246.7457796134986 4775.604819195345 122.90190789755434 15670.664463648573 -128.71452759206295 22934.036261213943 150.7542431927286 12787.4895407781 42.589632648043334 11530.805145047605 -264.8645870741457 11509.764091497287 134.79969847667962 12721.588513547555 6514.71197808953 29310.58178064972 10017.062520288862 5328.806806061417 2664.1701091602445 4466.137080065906 -328.6668768483214 125.67848059535027 24281.054872860666 19177.115434350446 -29.631024489179254 35581.26391150989 -14.409453147556633 -206.27713151089847 34961.82462447602 126.01277302391827 23411.122553967405 -14263.029725207016 -43.55093234870583 1.334164099767804 23501.48057812918 -11775.372841808945 13.90645062085241 -15.250770239159465 -300.62277068849653 -12219.537721391767 -1053.8475262969732 -11738.415327453986 -11.502715012989938 94.28582758642733 24088.04345984431 -11249.944511301816 0.933582230936736 -17.032327365130186 576.950741854962 -16832.61652930826 79.27324972301722 -35315.877577546984 -90.75367477722466 -12345.551607603207 -312.1621478125453 -36940.80874124728 48.31048435671255 -16500.66169644706 277.3278126316145 z" vector-effect="non-scaling-stroke" fill="#000" fill-opacity="1" stroke="#FFF" stroke-width="0.3px" stroke-linejoin="round" stroke-linecap="round"><title>Socorro County</title></path>
<path id="35055" d="M -11769196.801669708 -4439080.133020672 l 8758.011162715033 0 21030.034643890336 0 21030.03474401124 0 5274.750709490851 0 -1731.685887457803 2489.5466042468324 131.0402951836586 3301.7097110413015 3882.2480944618583 5936.780840586871 -2134.4394711907953 5395.7084294538945 -1122.2125659249723 4056.494016220793 700.0879436433315 1970.8515743212774 -1152.7126592490822 2996.125902414322 -207.61162956617773 2965.2561854030937 964.471511637792 2673.431924885139 257.37066271342337 5189.55926073622 -2642.167557384819 2259.986121600494 -6918.393140876666 -896.7437113970518 -1843.3667213208973 3654.167594378814 -2844.9646189697087 100.48315600026399 -1934.0643877647817 3737.786884437315 2073.936993986368 5102.347045937553 -1603.9467717707157 812.5286839315668 -1023.9162310417742 2583.3145037787035 1963.452176734805 3024.4015171797946 590.3466292675585 3518.872066816315 -2720.5558484923095 1690.1548549151048 3190.3040621317923 2530.9708707807586 430.41669983416796 2866.1731736930087 1860.5373075008392 1440.5186643162742 -2863.1945214234293 7600.844225461595 1450.883696448058 -54.1408684393391 768.5503210350871 2333.745470482856 -824.5438022669405 1858.6348250517622 1366.0006922893226 991.3712915899232 274.62496114708483 2936.0918142404407 -1202.2497213277966 1891.7853878205642 837.4557500015944 4874.906509237364 -719.0872864127159 4363.463566808961 858.068668788299 4199.805075058714 -1494.036029132083 1913.6722375815734 -1496.53570830822 -671.4869690835476 -3681.4163784831762 1973.784367840737 -2155.999384891242 2022.510154264979 1549.6420072205365 3045.353024210781 -469.32319581881166 3386.403108539991 -2742.46608463116 2972.764584939927 769.1058052945882 1778.4399674208835 -584.4278832618147 3503.767267599702 -4775.215868895873 7343.585280212574 -2945.123774215579 5646.716061828658 -2029.0202473662794 2414.490492435172 -2531.7611090540886 936.2217727648094 -22883.807237176225 -11990.63047831133 -2855.67834071815 -4111.669248141348 -10615.256211910397 -13847.692651974037 -22314.5412911959 -9148.52414442692 2107.3507636599243 -3878.9215035634115 7414.74827128835 -2745.2379010133445 1203.2523759901524 -1190.285634192638 1000.0120401792228 -3354.6440722402185 -144.29855785518885 -7427.642837977037 1592.7586063537747 -4528.055316030979 -427.6884817555547 -5002.039706060663 -976.2720455732197 -2401.2647415148094 69.7984339185059 -4036.190596370958 -1275.9097170643508 -6428.79396262113 -191.7254476789385 -2697.935201675631 -1196.245593270287 -4525.450461590663 735.9401667583734 -2032.667348834686 -281.9168330691755 -3059.3768659634516 -1141.302077487111 -4382.860530183651 -8.694386187940836 -9219.50295032654 -363.0003916900605 -4516.152148345485 1100.0592080187052 -3529.385871216655 296.66644296236336 -6790.189961032011 -1544.3348504956812 -4758.069075543433 -284.6436039991677 -2842.159282444045 -1759.4031048398465 -4915.311502351426 -279.41147661209106 -3302.5005296012387 19134.582805339247 0 z" vector-effect="non-scaling-stroke" fill="#000" fill-opacity="1" stroke="#FFF" stroke-width="0.3px" stroke-linejoin="round" stroke-linecap="round"><title>Taos County</title></path>
<path id="35057" d="M -11845614.675620042 -4146262.3634256436 l 24822.348004303873 164.4465805287473 4276.7832941468805 -154.26832382567227 -60.44637218117714 -11297.235846359283 -10435.976839900017 14.531232482753694 -0.333179235458374 -11791.664146827068 12353.454734856263 -30.27904893318191 28644.947887336835 -198.91452368628234 17933.45463979803 25.835437012370676 25146.399821242318 -21.209350923541933 22007.52336010523 -50.98522037034854 42.077765645459294 22687.784513487015 23.04090820066631 36348.27149230521 -2485.429714338854 -41.65696177771315 -38.073269601911306 35154.85574944876 -28.053624879568815 11677.655107538216 -11580.897468751296 33.806561414618045 -31070.153868474066 -15.22228084364906 -25335.976134825498 -15.625830343458802 -35581.26391150989 14.409453147556633 -19177.115434350446 29.631024489179254 -125.67848059535027 -24281.054872860666 -53.766646133735776 -11055.558575073723 -5844.494792435318 67.5545684248209 -117.17356017418206 -11852.613348249346 662.6400669347495 -15.905311754904687 -157.96113292127848 -13626.467032710556 180.78307569213212 -5492.243840179872 77.14474107697606 -16264.17422626121 z" vector-effect="non-scaling-stroke" fill="#000" fill-opacity="1" stroke="#FFF" stroke-width="0.3px" stroke-linejoin="round" stroke-linecap="round"><title>Torrance County</title></path>
<path id="35059" d="M -11475491.793400703 -4439080.133020672 l 9495.230248091742 0 13.588812233880162 17398.859392063692 16.306554660201073 17363.64170842059 19.024397199973464 17335.404611431062 13.588712126016617 17314.103313001804 -4660.960094142705 84.52234667818993 65.22621864452958 2484.6617645313963 -21.742039512842894 4345.929164239205 -81.53287341445684 19221.30096740648 -81.53277330286801 19187.060206782073 -73.19603573903441 16119.40052002389 -13.772322522476315 3030.292395208031 -84.2506158426404 19122.640496647917 -81.53287341631949 19089.085889772512 -9.860342353582382 2161.4251241721213 -36672.78667615354 -83.38454372622073 4.78874185308814 -35524.098009207286 1115.421075111255 -11.557934417389333 -5.564638705924153 -12071.009121142328 -25926.749563019723 -58.54451163392514 -21870.155108468607 139.2630614042282 39.63040664233267 -12157.340820739977 -23922.274372814223 -70.26281079463661 -4.843065766617656 -6002.362375394441 72.80572996288538 -38982.31201077439 -94.06274332478642 -25754.21069210302 87.9430656414479 -8922.068802175112 52.65679080970585 -34760.43932967447 6945.508986640722 0 21030.034744009376 0 21032.75248643197 0 21030.034543778747 0 21032.75248643197 0 z" vector-effect="non-scaling-stroke" fill="#000" fill-opacity="1" stroke="#FFF" stroke-width="0.3px" stroke-linejoin="round" stroke-linecap="round"><title>Union County</title></path>
<path id="35061" d="M -11918609.987910952 -4158064.0563217434 l 4703.602259358391 11801.14582946524 12683.407264040783 87.92202909383923 21045.835281016305 -60.51187987579033 4044.403745798394 -4900.512356055435 28168.110403243452 393.5067201377824 2350.2872959244996 1869.3308968669735 -0.33395847119391 2610.811656467151 -5922.19613096863 13.702979298774153 -77.14474107697606 16264.17422626121 -180.78307569213212 5492.243840179872 157.96113292127848 13626.467032710556 -662.6400669347495 15.905311754904687 117.17356017418206 11852.613348249346 5844.494792435318 -67.5545684248209 53.766646133735776 11055.558575073723 -4466.137080065906 328.6668768483214 -5328.806806061417 -2664.1701091602445 -29310.58178064972 -10017.062520288862 -12721.588513547555 -6514.71197808953 -11509.764091497287 -134.79969847667962 -11530.805145047605 264.8645870741457 -12787.4895407781 -42.589632648043334 -27.494801027700305 -9597.749098411296 182.8985912874341 -16087.679377532564 23.824152138084173 -25708.14974496467 z" vector-effect="non-scaling-stroke" fill="#000" fill-opacity="1" stroke="#FFF" stroke-width="0.3px" stroke-linejoin="round" stroke-linecap="round"><title>Valencia County</title></path>
</svg>
