<svg xmlns="http://www.w3.org/2000/svg" xmlns:xlink="http://www.w3.org/1999/xlink" height="1080" width="1920" viewBox="-11582523.005737858 -6273617.6661137715 833920.2264333572 502597.79884726927">
<path id="38001" d="M -11354432.975608703 -5771058.949812098 l -224.55367682874203 0 -16336.980139290914 0 -25932.875515742227 0 -25932.875515747815 0 -25932.875515745953 0 -10664.520356029272 0 -5971.220455478877 0 75.29872996360064 -19352.124310122803 -46.749955989420414 -35036.08339478262 7893.32912992686 -129.822237030603 13450.619413474575 3.06214224267751 34090.86168450862 -273.17848447710276 -0.057106897234917 12413.371317161247 27498.578769272193 110.98973934538662 28115.132900975645 -0.865205681882799 -14.595525290817022 21779.277311515994 z" vector-effect="non-scaling-stroke" fill="#000" fill-opacity="1" stroke="#FFF" stroke-width="0.3px" stroke-linejoin="round" stroke-linecap="round"><title>Adams County</title></path>
<path id="38003" d="M -10904988.30831048 -5981420.4036722835 l 28403.35097382404 88.87184554338455 0.806064432486892 42757.93710317556 2729.4419268425554 12.563634247519076 -55.26534043997526 56670.48628150206 -39168.59817707352 -114.41973909456283 -45105.97739602253 -63.714019728824496 28.946852466091514 -32980.592583645135 -74.58127584122121 -23703.81083965674 -3124.0692990645766 10.442119741812348 6.01626187376678 -42666.878501607105 42155.2323214896 -136.08691243920475 z" vector-effect="non-scaling-stroke" fill="#000" fill-opacity="1" stroke="#FFF" stroke-width="0.3px" stroke-linejoin="round" stroke-linecap="round"><title>Barnes County</title></path>
<path id="38005" d="M -10967813.547285812 -6092733.464668144 l -8.806707555428147 11420.155491608195 -2130.8660042192787 -191.26785610895604 -41466.05357662588 21.060867685824633 -42321.77518526651 77.94843214936554 -29201.979821274057 16.341400284320116 -28095.473322311416 -90.81892199162394 2.293515466153622 -28857.72947737947 -4006.5622433684766 -147.0799654358998 63.45734176971018 -41011.97713742405 106.31222877465189 -17351.222815340385 39376.899096926674 59.057869729585946 32583.8961191494 48.19797697290778 16.58226267248392 34253.61898682732 826.101384581998 2854.374829600565 7846.685818001628 3371.126187408343 1432.9591433629394 3478.079566385597 4319.696067294106 -32.25843991339207 10.239612041041255 14309.044377692975 5206.07773537375 -4885.596586528234 2148.020115111023 1560.2442460805178 1718.4376435391605 6704.487019480206 3618.1051992066205 -124.9440231109038 2925.475216174498 881.06147420872 1399.5084156170487 -1163.8981708092615 0.000445270910859 -2795.5980403013527 3840.5214304942638 -711.4416227331385 6067.2450935114175 -5082.504851189442 3075.388506507501 -834.640250235796 64.04265964962542 2616.4786123661324 1491.7917168866843 3179.7444228893146 411.9928788263351 4035.412537878379 2422.0887014400214 701.5523651270196 2576.4885012172163 3082.5234107021242 1714.320046896115 -3185.1652176482603 2609.9208612516522 -1018.9495024736971 3123.142786938697 694.5459969174117 1091.0412160735577 6352.765993086621 3857.330117003992 3756.397695775144 -929.5176368039101 1428.930929845199 1684.0404774807394 2354.891395119019 z" vector-effect="non-scaling-stroke" fill="#000" fill-opacity="1" stroke="#FFF" stroke-width="0.3px" stroke-linejoin="round" stroke-linecap="round"><title>Benson County</title></path>
<path id="38007" d="M -11476945.314923812 -5995893.414631454 l 7413.386388644576 3.679764550179243 -55.21847493760288 32173.933878125623 56.380093824118376 24806.344810734503 -22090.178415976465 118.29194982443005 -58.869420278817415 56928.57249738462 -42043.49426940456 8.31213147006929 -51.093865159898996 -14364.42509820778 13.808960191905499 -42574.25971957762 -6394.301200868562 18.436703871004283 32.814870819449425 -57222.53505474981 6369.985684491694 125.26847599912435 28835.49390500225 32.14742679335177 z" vector-effect="non-scaling-stroke" fill="#000" fill-opacity="1" stroke="#FFF" stroke-width="0.3px" stroke-linejoin="round" stroke-linecap="round"><title>Billings County</title></path>
<path id="38009" d="M -11298563.904596284 -6273617.6661137715 l 14737.23049582541 0 3634.4035971779376 0 24468.65915404819 0 24465.782769735903 0 24471.535427052528 0 24465.782881055027 0 24471.53542705998 0 5562.189120296389 0 -36.52325692586601 46141.81783075631 4178.821251690388 353.9936108253896 -40.568607307970524 29072.385751533322 -14559.182873994112 95.13640023767948 -14438.044892791659 6.135354903526604 -48.199447084218264 -14678.532901697792 -38254.04199115001 -157.32706417609006 -34420.19995274395 65.35003306996077 -4.565991550683975 14634.804695894942 -43593.8141010087 -103.33457532338798 -1.498916942626238 -29299.1758135017 -5054.738331038505 -97.61302682571113 z" vector-effect="non-scaling-stroke" fill="#000" fill-opacity="1" stroke="#FFF" stroke-width="0.3px" stroke-linejoin="round" stroke-linecap="round"><title>Bottineau County</title></path>
<path id="38011" d="M -11582224.330280334 -5771062.858061724 l -152.19467702507973 -30576.310232801363 0 -23723.442324354313 35966.51940306462 30.848863685503602 52623.214628184214 36.005157073028386 22203.112039385363 -18.036948052234948 6183.350877132267 -133.36397083010525 46.749955989420414 35036.08339478262 -75.29872996360064 19352.124310122803 -9297.134704239666 0 -25932.875515745953 0 -25927.44003089331 0 -25935.593258172274 0 z" vector-effect="non-scaling-stroke" fill="#000" fill-opacity="1" stroke="#FFF" stroke-width="0.3px" stroke-linejoin="round" stroke-linecap="round"><title>Bowman County</title></path>
<path id="38013" d="M -11459097.735033508 -6273608.8989029005 l 7619.09801713936 0 24468.659154057503 0 24471.535427063704 0 24468.65915404819 -8.767210870981216 21128.863145614043 0 -72.21406662277877 31424.683893710375 -14512.940868835896 7.012522615492344 -42.02500020712614 14653.566526665352 -9022.998988537118 0.673752769827843 -32.50918749719858 29300.761242068373 -36160.74342076667 -21.21619183756411 -36405.18521517888 12.630477607250214 -15.026127509772778 -14625.808282891288 23.60162448324263 -14699.786492862739 -6037.7448718529195 -146.12586104497313 z" vector-effect="non-scaling-stroke" fill="#000" fill-opacity="1" stroke="#FFF" stroke-width="0.3px" stroke-linejoin="round" stroke-linecap="round"><title>Burke County</title></path>
<path id="38015" d="M -11144529.343071913 -5995650.305361561 l -179.9735603518784 56569.56308646221 4376.468896275386 36.468947637826204 -341.25368388555944 32914.38151772879 -312.8104408029467 23692.2226894442 -43659.49271189049 -136.34613486379385 -19174.868857847527 -230.9511079089716 -1602.6116436608136 -2077.1787923881784 2344.1911066509783 -2759.3122386764735 -1549.5496120434254 -2007.3180850930512 -4555.94163024053 1659.9299939787015 -2721.764555523172 1887.3715067263693 -2913.749154968187 -1271.611636375077 801.4482361935079 -3144.384608335793 -1845.8519289586693 -1588.512781092897 -3078.6289055645466 1039.2765564005822 -1958.2573413792998 -4324.142849199474 2436.8989804573357 -1139.717503214255 -560.6385741215199 -2709.6905316142365 -4199.882899353281 214.6284940149635 -2005.4642638787627 -3063.5170744992793 -14.344963541254401 -2303.07060572505 1732.4500957652926 -2784.65692884475 696.2368458583951 -3164.6013278244063 -2074.623278653249 -3188.361039363779 -3167.7725519109517 -1968.3034376781434 -459.4497135914862 -2737.698579686694 -1817.0730575919151 -3963.298401683569 -3215.7038303483278 -4880.894709211774 1183.771353777498 -3239.8216599933803 -517.679603388533 -2946.456241670996 -2879.500155152753 -2823.668999691494 -376.34626280516386 -3182.338559971191 4481.054003151134 -3243.339554090053 1622.85772687383 -2184.6221899520606 -342.9376138225198 -4741.183441243134 -5369.471593407914 -6552.348633281887 -1408.3825827799737 -9212.80307437852 -2235.314522081986 -2478.921012655832 24025.856713719666 -91.53266759682447 4.01095257140696 -27947.24926303886 8441.399288263172 -6.436879481188953 13195.20775116235 87.40733406599611 z" vector-effect="non-scaling-stroke" fill="#000" fill-opacity="1" stroke="#FFF" stroke-width="0.3px" stroke-linejoin="round" stroke-linecap="round"><title>Burleigh County</title></path>
<path id="38017" d="M -10779422.189037321 -5966692.926730349 l -301.6715115066618 1634.3230359843 27.17752435989678 1917.6406227182597 1521.9461695365608 6704.42561752256 119.58156769908965 3260.501664020121 -809.8927487507463 10726.698274252005 236.44519274681807 2151.725307228975 584.318525698036 1474.0237319068983 1391.4936321359128 2557.039690537378 399.5109395775944 2138.256975175813 51.637506522238255 1206.2714753979817 -451.14844609983265 -3.980792223475874 597.9074380472302 433.8986001359299 1299.0897890217602 378.1508522713557 1116.999845214188 843.8147241193801 1323.5495709571987 378.09807306341827 703.9000933989882 700.4329684553668 421.25297908484936 1018.7115109264851 -201.114341000095 736.1040257485583 -410.3819092810154 712.1714823134243 -584.3185256998986 2609.4731278251857 -1559.994863813743 2238.911376159638 -358.7445028722286 1681.7884928770363 160.34790429472923 5492.383106030524 -160.34790429472923 1783.6860135030001 -323.4135510120541 1120.080210486427 -1021.8781595639884 2688.401223118417 -244.59842002764344 1639.6383695574477 312.5424812063575 2536.2686322731897 1595.3257155623287 5700.944463203661 372.3332149963826 3564.675184749067 -396.79309704340994 3654.36810331326 -1364.3160076662898 5637.104058616795 241.88067760318518 3500.0733336918056 -54020.10079535656 2114.784286260605 -44756.311632175 -128.5058986870572 55.26534043997526 -56670.48628150206 -2729.4419268425554 -12.563634247519076 -0.806064432486892 -42757.93710317556 28333.283369375393 150.26270800363272 18183.811061404645 83.45760965906084 38520.87447662093 -39.345796898938715 10632.748489182442 349.9394160369411 1663.2698768582195 7949.845811466686 385.9220272321254 3502.5058946432546 -182.09004391729832 1239.133525618352 z" vector-effect="non-scaling-stroke" fill="#000" fill-opacity="1" stroke="#FFF" stroke-width="0.3px" stroke-linejoin="round" stroke-linecap="round"><title>Cass County</title></path>
<path id="38019" d="M -11020606.743437208 -6273617.6661137715 l 9566.847021581605 0 24468.65915404819 0 24474.41170006618 0 24462.906496733427 0 24471.53553838283 0 9408.317937111482 0 125.22418489679694 15888.230177205056 -67.12954913452268 30635.958622426726 2489.7710631694645 194.70630440022796 2.645730333402753 29208.391791989096 -29013.61366187036 -22.29936310183257 -14509.400686394423 -86.76381285022944 -28849.194885289297 23.704599561169744 -43756.7852789294 -100.89238387066871 2.675341319292784 -29283.676913114265 -3286.3730053193867 -6.749552268534899 -75.02677644975483 -20800.458732101135 z" vector-effect="non-scaling-stroke" fill="#000" fill-opacity="1" stroke="#FFF" stroke-width="0.3px" stroke-linejoin="round" stroke-linecap="round"><title>Cavalier County</title></path>
<path id="38021" d="M -10910212.643778184 -5771035.500350469 l -19920.264136534184 0 -25932.875515747815 0 -25930.157773323357 0 -7950.210582334548 0 -17982.664833294228 0 -13334.963061206043 0 291.37264458090067 -43358.18836328853 -3.227152042090893 -11405.360473312438 42685.66980643384 24.971609523519874 31924.751484233886 -41.876251813955605 33212.64953121543 23.225753739476204 3095.9737067446113 37.50407282169908 z" vector-effect="non-scaling-stroke" fill="#000" fill-opacity="1" stroke="#FFF" stroke-width="0.3px" stroke-linejoin="round" stroke-linecap="round"><title>Dickey County</title></path>
<path id="38023" d="M -11582523.005737858 -6273608.89888526 l 8692.444243520498 -0.000017640180886 24468.659154050052 0 24471.535427063704 0 24468.659154059365 0 24468.659042736515 0 16855.313682919368 0 -120.97122460231185 45897.624375929125 6037.7448718529195 146.12586104497313 -23.60162448324263 14699.786492862739 -24169.12500968948 2.607486940920353 -30581.125898268074 -3.373057384043932 -46875.734883297235 -34.3687097011134 -27545.976155363023 -329.808880738914 2.717742424458265 -28151.703178304248 z" vector-effect="non-scaling-stroke" fill="#000" fill-opacity="1" stroke="#FFF" stroke-width="0.3px" stroke-linejoin="round" stroke-linecap="round"><title>Divide County</title></path>
<path id="38025" d="M -11469530.76691628 -5938909.456178044 l -56.380093824118376 -24806.344810734503 55.21847493760288 -32173.933878125623 -7413.386388644576 -3.679764550179243 -78.18335192650557 -56964.503954868764 50884.23731408082 83.49465217627585 306.2767056636512 -25461.279725468718 1363.923007413745 2435.1330596394837 2795.929088992998 2409.1271845027804 3705.162600725889 1220.4882768187672 5818.911966541782 -1534.998062252067 3865.9376750402153 3421.7515619397163 4008.697483399883 1442.378365272656 3841.102221380919 422.6113426219672 2857.9465698394924 -762.5650508878753 2234.2419485747814 -463.3733301293105 2630.8339098095894 -260.06628697924316 2396.9723803494126 -1801.8312762435526 1708.931042779237 1168.7429975355044 1082.116683397442 2289.078727583401 286.53297571465373 1802.9990548109636 1140.4402472302318 2266.8051543664187 1402.4471915382892 1611.5372254541144 812.134891660884 994.3430513236672 -256.1482633892447 16995.862968718633 6690.521252671257 8221.472970689647 -27.946424206718802 40568.47403263021 6829.894257018343 -0.820197504013777 -58.33786970563233 52027.68994287215 -42378.42856844142 16.43686540145427 0.11076289229095 4722.227480771951 -28260.003974972293 71.13752128649503 z" vector-effect="non-scaling-stroke" fill="#000" fill-opacity="1" stroke="#FFF" stroke-width="0.3px" stroke-linejoin="round" stroke-linecap="round"><title>Dunn County</title></path>
<path id="38027" d="M -10964979.567674194 -6038439.406228018 l -56798.87741196714 -44.29926245007664 -28443.903217170388 -36.3142357384786 15.141120541840792 -14098.624630576931 -3518.4741436298937 -76.21292145829648 -15.367433059960604 -28710.710454567336 42321.77518526651 -77.94843214936554 41466.05357662588 -21.060867685824633 2130.8660042192787 191.26785610895604 50.76936884596944 28772.705149812624 2782.902889655903 35.088913375511765 z" vector-effect="non-scaling-stroke" fill="#000" fill-opacity="1" stroke="#FFF" stroke-width="0.3px" stroke-linejoin="round" stroke-linecap="round"><title>Eddy County</title></path>
<path id="38029" d="M -11118599.11176918 -5771043.3168307915 l -18996.800271501765 0 -25932.875515747815 0 -25932.875515747815 0 1071.7950859870762 -3945.597287976183 -2700.164232848212 -5358.444825897925 -2651.963449932635 -881.422640947625 -5654.91636377573 -8193.408647801727 -949.9257277343422 -2422.59523482807 -141.00383488833904 -6966.4874439826235 -1496.2443852033466 -4901.288266077638 1540.8845028840005 -3871.0018360642716 4297.154538324103 -6142.406943200156 1992.7302046902478 -4633.870819676667 66.79191711358726 -2027.9222741536796 -2404.4998879339546 -3703.4198865629733 -66.7914718426764 -1465.6314104441553 2371.216250749305 -4285.549333825707 1102.0630701743066 -3433.0023490162566 -701.311790117994 -7257.722482673824 -3207.1293282546103 -9184.182195744477 -308.0129139777273 -3404.963971552439 1032.749182164669 -5563.837692655623 588.8482179008424 -4040.2624748507515 67.94402514211833 -4700.621997744776 -326.1313206832856 -5296.149228891358 -2513.9289302676916 -5240.006286009215 -3306.6092235967517 -3224.652610870078 -2063.1544923111796 -1617.2013908205554 19174.868857847527 230.9511079089716 43659.49271189049 136.34613486379385 18427.71217705682 76.19664412550628 -210.28786144405603 45897.717105539516 45.86240568943322 10414.378444003873 4291.6992153562605 263.84685550816357 z" vector-effect="non-scaling-stroke" fill="#000" fill-opacity="1" stroke="#FFF" stroke-width="0.3px" stroke-linejoin="round" stroke-linecap="round"><title>Emmons County</title></path>
<path id="38031" d="M -10964979.567674194 -6038439.406228018 l 95.24673743359745 42903.49646633305 -39312.44511175901 -26.938821280375123 -46070.426866399124 -80.80809712875634 44.84461158700287 -42876.36304611247 28443.903217170388 36.3142357384786 z" vector-effect="non-scaling-stroke" fill="#000" fill-opacity="1" stroke="#FFF" stroke-width="0.3px" stroke-linejoin="round" stroke-linecap="round"><title>Foster County</title></path>
<path id="38033" d="M -11582376.524957359 -5882416.23285768 l 0 -27090.176212573424 0 -27174.313165495172 0 -27259.206394337118 0 -27344.864013377577 0 -4849.604881038889 42254.444700401276 137.33475647307932 -32.814870819449425 57222.53505474981 6394.301200868562 -18.436703871004283 -13.808960191905499 42574.25971957762 51.093865159898996 14364.42509820778 -21329.8666278217 41.65828843135387 -8.963000116869807 14377.940195660107 -27314.386307479814 -25.412255560047925 z" vector-effect="non-scaling-stroke" fill="#000" fill-opacity="1" stroke="#FFF" stroke-width="0.3px" stroke-linejoin="round" stroke-linecap="round"><title>Golden Valley County</title></path>
<path id="38035" d="M -10812423.960954055 -6135277.114394733 l 864.2479976918548 6314.1083378000185 1733.9315803516656 5987.990858124569 4864.79207745567 12284.464224237017 1255.605609882623 6190.458347228356 1815.464353652671 5634.147325540893 3886.398197133094 4644.985286921263 -1630.6565673053265 3973.6272614458576 304.38925392366946 3761.08919955045 2845.4957404937595 8132.593296339735 21.742139618843794 967.4612413225695 -616.9317351300269 1226.3742317706347 214.70315323770046 736.5500031914562 380.4864422734827 331.8315589418635 394.0753546152264 145.678169246763 309.8248388953507 182.09413313679397 125.01695243269205 420.8251141179353 402.2286820039153 655.4752782583237 2636.2280721049756 3353.471497256309 850.6592855677009 2086.6645963042974 1361.5981651227921 5832.700228190981 1497.4863875992596 3341.009326312691 1508.35735729523 2572.5431826515123 1163.2016666624695 2874.525098251179 -31672.81407999806 1157.4428018890321 -32706.881669940427 2.145142709836364 -45604.27494023368 -22.960791491903365 26.31025032699108 -57825.2463486027 -2384.462824875489 -15.644738467410207 31.673957359045744 -29008.86968300864 39225.91613760218 29.947210625745356 18656.91878595203 -39.74287982005626 28227.2517150715 248.97269681934267 z" vector-effect="non-scaling-stroke" fill="#000" fill-opacity="1" stroke="#FFF" stroke-width="0.3px" stroke-linejoin="round" stroke-linecap="round"><title>Grand Forks County</title></path>
<path id="38037" d="M -11354366.458743623 -5791544.322933928 l 14.595525290817022 -21779.277311515994 -8.3446203507483 -12592.833043987863 -5440.443780032918 -4.206401102244854 -279.535820486024 -39749.41842096485 -196.4344847742468 -16361.139990562573 -5062.085528751835 -21.966429707594216 38.32752331905067 -14084.612189476378 28356.81987195462 28.290639308281243 13731.478266103193 -57.72088581696153 49.20154513977468 14119.235119217075 46611.4623008389 134.06879076641053 0.551588069647551 41839.498244793154 27880.8496780172 9.360939585603774 -5.716420469805598 11562.96981328912 -5335.870774516836 3782.1258725365624 -1141.4596223905683 1775.7944812709466 -1476.650146426633 4192.340810478665 -1367.9397062007338 1597.8060122067109 -6984.3697724714875 4719.342651504092 -1182.5020496416837 2055.0251733595505 620.5554296318442 2492.4457437274978 -797.209895003587 1478.1266691256315 -3804.8654079716653 1490.9571023676544 -8026.454170154408 1994.089155879803 -765.50268326886 2509.951857741922 -973.8643603771925 1881.9967386778444 -1531.0053665395826 1528.8277032235637 -1829.959077168256 1247.6935682427138 -1956.7879240997136 809.9268198339269 -4285.0031856466085 744.5447722766548 -4574.256648615003 3093.070480812341 -1916.6625533197075 1255.3876939862967 -3975.135235099122 2332.143361946568 -1709.5148684810847 663.5248275268823 -4111.35922354646 984.6003864798695 -2248.201529780403 209.46862866077572 -4147.798156708479 -615.6815241817385 -2261.588215054944 -343.4759545531124 -6454.682388525456 411.08020373620093 -8434.11832100898 -1748.8541510365903 -4457.128049340099 593.8660487737507 -2020.2023475654423 -19.577367112971842 -1413.2357229627669 -1390.1036502206698 -1109.7524106577039 -2114.9422239949927 -1698.6006285585463 -1057.6605217298493 -2160.619999527931 -293.8170075174421 -4398.24322755076 -137.1179397040978 -4303.121592352167 195.88212108053267 z" vector-effect="non-scaling-stroke" fill="#000" fill-opacity="1" stroke="#FFF" stroke-width="0.3px" stroke-linejoin="round" stroke-linecap="round"><title>Grant County</title></path>
<path id="38039" d="M -10904988.30831048 -5981420.4036722835 l -14204.697087513283 -125.20161196123809 -42155.2323214896 136.08691243920475 23.712721336632967 -14125.077042809688 -3559.795938612893 -1.314347069710493 -95.24673743359745 -42903.49646633305 -9.11406067200005 -14066.108885329217 21348.96660341136 7.124989995732904 36021.604298669845 -9.639129736460745 -93.12376342713833 42746.859595670365 -104.47501190006733 14297.199863422662 2880.3910450395197 7.390695441514254 z" vector-effect="non-scaling-stroke" fill="#000" fill-opacity="1" stroke="#FFF" stroke-width="0.3px" stroke-linejoin="round" stroke-linecap="round"><title>Griggs County</title></path>
<path id="38041" d="M -11354351.863218332 -5813323.600245444 l -28115.132900975645 0.865205681882799 -27498.578769272193 -110.98973934538662 0.057106897234917 -12413.371317161247 -34090.86168450862 273.17848447710276 -13450.619413474575 -3.06214224267751 -149.94557298347354 -14039.261319143698 29.280365658923984 -26847.767645297572 -264.0478284098208 -15433.705891164951 48552.87388631329 24.970350742340088 44000.13057635911 -180.4202728709206 5062.085528751835 21.966429707594216 196.4344847742468 16361.139990562573 279.535820486024 39749.41842096485 5440.443780032918 4.206401102244854 z" vector-effect="non-scaling-stroke" fill="#000" fill-opacity="1" stroke="#FFF" stroke-width="0.3px" stroke-linejoin="round" stroke-linecap="round"><title>Hettinger County</title></path>
<path id="38043" d="M -11140986.911860678 -5882437.6691202875 l 312.8104408029467 -23692.2226894442 341.25368388555944 -32914.38151772879 -4376.468896275386 -36.468947637826204 179.9735603518784 -56569.56308646221 8875.314871003851 6.966638189740479 31492.16405432485 7.722928806208074 30019.916477805004 22.26891108043492 -40.701856741681695 56691.2123528691 3858.55507668294 -31.81703200750053 -161.08364463970065 37595.55297484528 -200.43308088369668 19190.187256684527 -37925.48273671232 -120.63231059908867 -13948.105772547424 -72.6288344701752 z" vector-effect="non-scaling-stroke" fill="#000" fill-opacity="1" stroke="#FFF" stroke-width="0.3px" stroke-linejoin="round" stroke-linecap="round"><title>Kidder County</title></path>
<path id="38045" d="M -10958184.550258918 -5882068.678566638 l 45105.97739602253 63.714019728824496 21.26001898944378 17153.26433469169 -140.0425910819322 25193.739091953263 44.79206878505647 13865.233044643886 -33212.64953121543 -23.225753739476204 -31924.751484233886 41.876251813955605 -42685.66980643384 -24.971609523519874 -3815.4744337424636 -60.16265278030187 97.40934118255973 -42208.22087943554 -28.83007832430303 -13912.98540813569 22910.992013426498 -26.177716460078955 z" vector-effect="non-scaling-stroke" fill="#000" fill-opacity="1" stroke="#FFF" stroke-width="0.3px" stroke-linejoin="round" stroke-linecap="round"><title>LaMoure County</title></path>
<path id="38047" d="M -11118431.92592402 -5825785.53007111 l -4291.6992153562605 -263.84685550816357 -45.86240568943322 -10414.378444003873 210.28786144405603 -45897.717105539516 13948.105772547424 72.6288344701752 37925.48273671232 120.63231059908867 45963.08181539178 187.79320367146283 28.83007832430303 13912.98540813569 -97.40934118255973 42208.22087943554 -40471.9710804373 -17.159421253949404 -40649.52566825412 156.72246276121587 z" vector-effect="non-scaling-stroke" fill="#000" fill-opacity="1" stroke="#FFF" stroke-width="0.3px" stroke-linejoin="round" stroke-linecap="round"><title>Logan County</title></path>
<path id="38049" d="M -11249909.29148589 -6198083.902402424 l 4.565991550683975 -14634.804695894942 34420.19995274395 -65.35003306996077 38254.04199115001 157.32706417609006 48.199447084218264 14678.532901697792 14438.044892791659 -6.135354903526604 27.469976786524057 29100.239174666815 4349.084301542491 23.041900935582817 26.764879127964377 58339.03455749992 4400.903524506837 1.498413260094822 -48.80602698214352 28945.876402459107 -43099.48888151348 27.59609322808683 -42987.033931912854 -202.87242358643562 91.7587638348341 -28894.938804991543 -4945.728831006214 -21.803810843266547 88.06117562577128 -58233.86532360129 -5095.8708828911185 -25.332420296035707 8.618132336065173 -14561.812320130877 z" vector-effect="non-scaling-stroke" fill="#000" fill-opacity="1" stroke="#FFF" stroke-width="0.3px" stroke-linejoin="round" stroke-linecap="round"><title>McHenry County</title></path>
<path id="38051" d="M -11033861.692235276 -5771035.500350469 l -25932.875515745953 -3.908239301294088 -25932.87541563809 -3.908241021446884 -14836.379671782255 0 -11101.93142892234 0 -6933.3575018160045 0 167.18584516085684 -54742.21324031893 12519.320553500205 65.88127276767045 40649.52566825412 -156.72246276121587 40471.9710804373 17.159421253949404 3815.4744337424636 60.16265278030187 3.227152042090893 11405.360473312438 -291.37264458090067 43358.18836328853 z" vector-effect="non-scaling-stroke" fill="#000" fill-opacity="1" stroke="#FFF" stroke-width="0.3px" stroke-linejoin="round" stroke-linecap="round"><title>McIntosh County</title></path>
<path id="38053" d="M -11582376.524957359 -6007191.628150185 l 0 -11524.459795631468 0 -27518.508648874238 0 -27606.51302179601 0 -27695.317832940258 0 -8342.884930766188 1273.3248443249613 812.921656624414 8569.353493716568 2053.941595647484 6387.391240958124 1452.7862541666254 2246.682431375608 927.215525762178 2772.116225808859 575.229364939034 2346.333668248728 -879.7781635355204 1001.0419704318047 -3465.8496676450595 828.917106738314 -934.3943124972284 3791.276602944359 54.17056458443403 1277.3476726766676 -2112.9054873595014 122.29924525506794 -284.4693277394399 1295.4660793803632 -2804.5597175825387 2196.856812939048 -3361.260265073739 3451.5564772337675 -3823.680039640516 3456.086078906432 -3208.054482043721 5806.949348835275 -4145.798430973664 4556.7792862169445 -1757.9900448890403 3736.9213828314096 2585.953014295548 896.8611318804324 5386.591623415239 1309.0548844058067 4136.0148145975545 2554.695345355198 5787.070706827566 4629.252913035452 2059.0925079565495 9122.617775782943 -4958.916121182032 3315.668426947668 -921.6446041464806 3315.668426947668 -318.5325663127005 4289.532787322998 -47.44203296396881 3451.5564772337675 -1599.6278901789337 2418.807295067236 -2583.0801756568253 1922.9166237562895 -3048.3587600728497 2810.5171278286725 -5601.474188840948 4180.8223470933735 -3258.6722814571112 10223.310983091593 -835.2344344481826 5458.170019771904 61.11747791338712 5050.505868917331 353.1146625811234 4321.448916560039 743.7459478080273 5344.7210603598505 919.7714327275753 5839.223816329613 1701.1037215646356 5493.839577421546 1604.6020953916013 4285.003185644746 2436.0383339952677 4285.0031856466085 3371.3113538967445 8049.102178534493 8581.700206666254 2450.5145068001 1754.5981216402724 2767.586624134332 1090.5152651043609 1929.6103140413761 1388.3436901280656 656.7922430448234 1956.8444847539067 -2010.2141382843256 3637.5220537753776 -2120.7825903706253 2609.2061520293355 -1363.4101045243442 886.2205186253414 -1467.5909430757165 2570.1987277353182 -1472.223685503006 2431.403834717348 -318.9045861493796 2766.071127589792 -1470.339646305889 7963.384843905456 1277.5023838002235 6937.530033451505 -306.2767056636512 25461.279725468718 -50884.23731408082 -83.49465217627585 78.18335192650557 56964.503954868764 -27971.28574365191 53.76776621770114 -28835.49390500225 -32.14742679335177 -6369.985684491694 -125.26847599912435 -42254.444700401276 -137.33475647307932 z" vector-effect="non-scaling-stroke" fill="#000" fill-opacity="1" stroke="#FFF" stroke-width="0.3px" stroke-linejoin="round" stroke-linecap="round"><title>McKenzie County</title></path>
<path id="38055" d="M -11206922.038365902 -5995730.753119492 l -8441.399288263172 6.436879481188953 -4.01095257140696 27947.24926303886 -24025.856713719666 91.53266759682447 -2659.9357065819204 -4296.688509000465 -422.57580017857254 -2362.948677177541 2087.7082168720663 -6243.151869040914 -2430.5191491227597 -4656.206479840912 -6384.377958815545 -4730.960230547935 -8208.763927718624 -32.26866342872381 -6203.848580248654 2152.359042370692 -1469.068737141788 5469.096098929644 -3320.3550610020757 -730.1608739104122 -3482.9705731496215 -2408.775273542851 -2581.097350774333 -1973.203947420232 -7151.618828678504 -2564.372679955326 -1395.0431682020426 -5403.3220853870735 -820.6907007303089 -6997.9234403297305 -2655.6368818059564 -1932.9280800288543 -1510.367155034095 -2750.1969057461247 -461.7007050141692 -3834.682423181832 -1491.7989526502788 -3860.598742264323 -2424.394239416346 -3125.5032905247062 116.88557665236294 -2363.1575227230787 2282.0493386238813 -2866.2968590930104 3614.8771566078067 -2102.8839591490105 1646.7491159886122 -3282.226578015834 -2691.5929660126567 -1717.3487067250535 -4449.327057726681 -4348.811279644258 -4801.542371867225 1442.2584596136585 -2120.747173829004 -154.88757335022092 -8816.835736870766 3677.6186493048444 -7100.845786288381 935.4811335969716 -4870.003747384995 -1586.9503898704425 -2459.380842184648 -45.18114641867578 -3817.144560061395 1491.9957028776407 -8017.339599268511 5393.868224931881 -2115.0697684772313 280.09170557092875 -3834.509955354035 -1534.5216498365626 -2752.1511029619724 -167.75469564646482 -3521.47943591699 -2999.034815643914 -4363.277313983068 -2400.6694948058575 -6178.452819537371 327.46988005563617 -1513.9444068726152 -1302.7013118425384 1146.7020746655762 -2605.9908857159317 -1669.791693981737 -2161.4247212177143 -4408.36193039082 -181.50492465030402 -9462.377018703148 1385.9359137360007 -4909.076777337119 -1501.6075407657772 -6690.521252671257 -8221.472970689647 256.1482633892447 -16995.862968718633 -812.134891660884 -994.3430513236672 -1402.4471915382892 -1611.5372254541144 -1140.4402472302318 -2266.8051543664187 -286.53297571465373 -1802.9990548109636 -1082.116683397442 -2289.078727583401 -1708.931042779237 -1168.7429975355044 -2396.9723803494126 1801.8312762435526 -2630.8339098095894 260.06628697924316 -2234.2419485747814 463.3733301293105 67.59324765577912 -12380.081114321016 15341.380408003926 38.48499728087336 41843.76094284654 -11.771634922362864 49964.62700062804 -73.3934806259349 50282.666674509645 -111.38018740713596 42987.033931912854 202.87242358643562 6.653343323618174 28742.485984166153 -9646.610553320497 -39.84386394172907 -202.37983614206314 8459.717807887122 71.7404024451971 41276.490043498576 z" vector-effect="non-scaling-stroke" fill="#000" fill-opacity="1" stroke="#FFF" stroke-width="0.3px" stroke-linejoin="round" stroke-linecap="round"><title>McLean County</title></path>
<path id="38057" d="M -11370702.739419216 -5943760.861946831 l 58.33786970563233 -52027.68994287215 -6829.894257018343 0.820197504013777 27.946424206718802 -40568.47403263021 4909.076777337119 1501.6075407657772 9462.377018703148 -1385.9359137360007 4408.36193039082 181.50492465030402 1669.791693981737 2161.4247212177143 -1146.7020746655762 2605.9908857159317 1513.9444068726152 1302.7013118425384 6178.452819537371 -327.46988005563617 4363.277313983068 2400.6694948058575 3521.47943591699 2999.034815643914 2752.1511029619724 167.75469564646482 3834.509955354035 1534.5216498365626 2115.0697684772313 -280.09170557092875 8017.339599268511 -5393.868224931881 3817.144560061395 -1491.9957028776407 2459.380842184648 45.18114641867578 4870.003747384995 1586.9503898704425 7100.845786288381 -935.4811335969716 8816.835736870766 -3677.6186493048444 2120.747173829004 154.88757335022092 4801.542371867225 -1442.2584596136585 4449.327057726681 4348.811279644258 2691.5929660126567 1717.3487067250535 -1646.7491159886122 3282.226578015834 -3614.8771566078067 2102.8839591490105 -2282.0493386238813 2866.2968590930104 -116.88557665236294 2363.1575227230787 2424.394239416346 3125.5032905247062 1491.7989526502788 3860.598742264323 461.7007050141692 3834.682423181832 1510.367155034095 2750.1969057461247 2655.6368818059564 1932.9280800288543 820.6907007303089 6997.9234403297305 1395.0431682020426 5403.3220853870735 7151.618828678504 2564.372679955326 2581.097350774333 1973.203947420232 -93.61802196875215 3969.0977482851595 -56380.635502202436 22.45647405553609 3.111602410674095 42511.66153268982 -37011.840038534254 41.94999183900654 -5343.656603485346 -140.99896260816604 z" vector-effect="non-scaling-stroke" fill="#000" fill-opacity="1" stroke="#FFF" stroke-width="0.3px" stroke-linejoin="round" stroke-linecap="round"><title>Mercer County</title></path>
<path id="38059" d="M -11236141.11073839 -5939272.316403774 l 376.34626280516386 3182.338559971191 2879.500155152753 2823.668999691494 517.679603388533 2946.456241670996 -1183.771353777498 3239.8216599933803 3215.7038303483278 4880.894709211774 1817.0730575919151 3963.298401683569 459.4497135914862 2737.698579686694 3167.7725519109517 1968.3034376781434 2074.623278653249 3188.361039363779 -696.2368458583951 3164.6013278244063 -1732.4500957652926 2784.65692884475 14.344963541254401 2303.07060572505 2005.4642638787627 3063.5170744992793 4199.882899353281 -214.6284940149635 560.6385741215199 2709.6905316142365 -2436.8989804573357 1139.717503214255 1958.2573413792998 4324.142849199474 3078.6289055645466 -1039.2765564005822 1845.8519289586693 1588.512781092897 -801.4482361935079 3144.384608335793 2913.749154968187 1271.611636375077 2721.764555523172 -1887.3715067263693 4555.94163024053 -1659.9299939787015 1549.5496120434254 2007.3180850930512 -2344.1911066509783 2759.3122386764735 1602.6116436608136 2077.1787923881784 2063.1544923111796 1617.2013908205554 3306.6092235967517 3224.652610870078 2513.9289302676916 5240.006286009215 326.1313206832856 5296.149228891358 -67.94402514211833 4700.621997744776 -588.8482179008424 4040.2624748507515 -1032.749182164669 5563.837692655623 308.0129139777273 3404.963971552439 -4271.414380615577 1655.9928406113759 -13312.49932623282 2634.4894960932434 -2038.3207542710006 -157.65300948079675 -2151.560796175152 -748.8903393317014 -2151.5607961732894 -282.4927231259644 -6504.508006963879 6.569701141677797 -4606.604904651642 -413.9007447771728 -2097.2055760622025 144.53897873871028 -1549.1237732488662 1077.3976310305297 -1087.1044022776186 1793.1806126674637 -1820.8998738136142 4274.573572718538 -1245.6404609438032 1772.2564073232934 -3437.967672204599 2677.4004187956452 -3886.3982381429523 5254.0032192301005 -1521.9461631905288 1527.7305879276246 5.716420469805598 -11562.96981328912 -27880.8496780172 -9.360939585603774 -0.551588069647551 -41839.498244793154 -46611.4623008389 -134.06879076641053 -49.20154513977468 -14119.235119217075 -13731.478266103193 57.72088581696153 -28356.81987195462 -28.290639308281243 -70.61462843045592 -42842.29727644939 37011.840038534254 -41.94999183900654 12126.25165414624 24.476849511265755 44225.99748921953 14.690482262521982 z" vector-effect="non-scaling-stroke" fill="#000" fill-opacity="1" stroke="#FFF" stroke-width="0.3px" stroke-linejoin="round" stroke-linecap="round"><title>Morton County</title></path>
<path id="38061" d="M -11453189.536883231 -6198239.553890172 l 36405.18521517888 -12.630477607250214 36160.74342076667 21.21619183756411 29006.51203496009 -133.51044198311865 -8.575496975332499 29382.83568002004 5707.042605901137 92.41862959321588 0.966364499181509 58179.65011771768 5631.206314112991 -0.498651619069278 -36.18261936493218 29174.92810829077 -41843.76094284654 11.771634922362864 -15341.380408003926 -38.48499728087336 -67.59324765577912 12380.081114321016 -2857.9465698394924 762.5650508878753 -3841.102221380919 -422.6113426219672 -4008.697483399883 -1442.378365272656 -3865.9376750402153 -3421.7515619397163 -5818.911966541782 1534.998062252067 -3705.162600725889 -1220.4882768187672 -2795.929088992998 -2409.1271845027804 -1363.923007413745 -2435.1330596394837 -1277.5023838002235 -6937.530033451505 1470.339646305889 -7963.384843905456 318.9045861493796 -2766.071127589792 1472.223685503006 -2431.403834717348 1467.5909430757165 -2570.1987277353182 1363.4101045243442 -886.2205186253414 2120.7825903706253 -2609.2061520293355 2010.2141382843256 -3637.5220537753776 -656.7922430448234 -1956.8444847539067 -1929.6103140413761 -1388.3436901280656 -2767.586624134332 -1090.5152651043609 -2450.5145068001 -1754.5981216402724 -8049.102178534493 -8581.700206666254 -4285.0031856466085 -3371.3113538967445 -4285.003185644746 -2436.0383339952677 -5493.839577421546 -1604.6020953916013 38.28745807334781 -38898.71293335315 -6420.516940945759 55.71891379728913 z" vector-effect="non-scaling-stroke" fill="#000" fill-opacity="1" stroke="#FFF" stroke-width="0.3px" stroke-linejoin="round" stroke-linecap="round"><title>Mountrail County</title></path>
<path id="38063" d="M -10898546.065255838 -6139339.580215563 l -31.673957359045744 29008.86968300864 2384.462824875489 15.644738467410207 -26.31025032699108 57825.2463486027 -11398.524194136262 -18.209807603619993 -36021.604298669845 9.639129736460745 -21348.96660341136 -7.124989995732904 -2782.902889655903 -35.088913375511765 -50.76936884596944 -28772.705149812624 8.806707555428147 -11420.155491608195 -6.009026115760207 -17639.361693377607 11460.338348906487 5.826470002532005 72.69518970698118 -28959.678707710467 14452.38284320943 -69.36839756555855 26431.13583809696 83.56821896322072 z" vector-effect="non-scaling-stroke" fill="#000" fill-opacity="1" stroke="#FFF" stroke-width="0.3px" stroke-linejoin="round" stroke-linecap="round"><title>Nelson County</title></path>
<path id="38065" d="M -11239393.305320457 -5967685.534309375 l 2235.314522081986 2478.921012655832 1408.3825827799737 9212.80307437852 5369.471593407914 6552.348633281887 342.9376138225198 4741.183441243134 -1622.85772687383 2184.6221899520606 -4481.054003151134 3243.339554090053 -35865.79463754967 289.4597460133955 -44225.99748921953 -14.690482262521982 -12126.25165414624 -24.476849511265755 -3.111602410674095 -42511.66153268982 56380.635502202436 -22.45647405553609 93.61802196875215 -3969.0977482851595 3482.9705731496215 2408.775273542851 3320.3550610020757 730.1608739104122 1469.068737141788 -5469.096098929644 6203.848580248654 -2152.359042370692 8208.763927718624 32.26866342872381 6384.377958815545 4730.960230547935 2430.5191491227597 4656.206479840912 -2087.7082168720663 6243.151869040914 422.57580017857254 2362.948677177541 z" vector-effect="non-scaling-stroke" fill="#000" fill-opacity="1" stroke="#FFF" stroke-width="0.3px" stroke-linejoin="round" stroke-linecap="round"><title>Oliver County</title></path>
<path id="38067" d="M -10903754.065589285 -6273617.6661137715 l 15060.341105626896 0 24468.659154050052 0 24468.659042738378 0 16597.735271943733 0.000044204294682 -348.3193322289735 4077.087275779806 861.5302552711219 2769.1723013911396 1179.50822131522 2652.4224233841524 345.1556906364858 2250.3895681332797 527.2456344459206 3386.8662920761853 652.2626869920641 1546.1767706237733 758.2552422266454 1438.4350521015003 587.0363682359457 1520.8377895206213 828.9171459488571 5882.409111901186 3277.6196892745793 9088.220069857314 818.0461762491614 6535.6774924127385 924.0386313777417 2827.1301739001647 2581.8730233777314 5762.614846991375 934.9098012931645 8112.106600713916 -2318.2501060403883 6423.275333517231 -2956.9239808041602 6077.49192558229 -981.1118229683489 7086.975569188595 -2481.0906772445887 -1359.4384360620752 -33094.60745637491 -131.15351843368262 -50140.97833607718 -19.40979076270014 -2.645730333402753 -29208.391791989096 -2489.7710631694645 -194.70630440022796 67.12954913452268 -30635.958622426726 z" vector-effect="non-scaling-stroke" fill="#000" fill-opacity="1" stroke="#FFF" stroke-width="0.3px" stroke-linejoin="round" stroke-linecap="round"><title>Pembina County</title></path>
<path id="38069" d="M -11162744.23921057 -6197954.332520419 l 14559.182873994112 -95.13640023767948 41151.62065425143 79.16962616611272 31503.407211571932 -7.562608589418232 33.926507256925106 29188.86512271315 -39376.899096926674 -59.057869729585946 -106.31222877465189 17351.222815340385 -63.45734176971018 41011.97713742405 4006.5622433684766 147.0799654358998 -2.293515466153622 28857.72947737947 -28613.442801645026 -7.301934652961791 -14336.877850878984 -57.29488242790103 48.80602698214352 -28945.876402459107 -4400.903524506837 -1.498413260094822 -26.764879127964377 -58339.03455749992 -4349.084301542491 -23.041900935582817 z" vector-effect="non-scaling-stroke" fill="#000" fill-opacity="1" stroke="#FFF" stroke-width="0.3px" stroke-linejoin="round" stroke-linecap="round"><title>Pierce County</title></path>
<path id="38071" d="M -11017332.548672503 -6197876.630178012 l 43756.7852789294 100.89238387066871 28849.194885289297 -23.704599561169744 -56.642919136211276 29201.174621702172 2956.42214593105 18.851827670820057 -7.350648615509272 29183.368947534822 -14452.38284320943 69.36839756555855 -72.69518970698118 28959.678707710467 -11460.338348906487 -5.826470002532005 6.009026115760207 17639.361693377607 -10530.932142913342 -227.05079280305654 -1684.0404774807394 -2354.891395119019 929.5176368039101 -1428.930929845199 -3857.330117003992 -3756.397695775144 -1091.0412160735577 -6352.765993086621 -3123.142786938697 -694.5459969174117 -2609.9208612516522 1018.9495024736971 -1714.320046896115 3185.1652176482603 -2576.4885012172163 -3082.5234107021242 -2422.0887014400214 -701.5523651270196 -411.9928788263351 -4035.412537878379 -1491.7917168866843 -3179.7444228893146 -64.04265964962542 -2616.4786123661324 -3075.388506507501 834.640250235796 -6067.2450935114175 5082.504851189442 -3840.5214304942638 711.4416227331385 -0.000445270910859 2795.5980403013527 -1399.5084156170487 1163.8981708092615 -2925.475216174498 -881.06147420872 -3618.1051992066205 124.9440231109038 -1718.4376435391605 -6704.487019480206 -2148.020115111023 -1560.2442460805178 -5206.07773537375 4885.596586528234 -10.239612041041255 -14309.044377692975 -4319.696067294106 32.25843991339207 -1432.9591433629394 -3478.079566385597 -7846.685818001628 -3371.126187408343 -826.101384581998 -2854.374829600565 -16.58226267248392 -34253.61898682732 25517.98250039853 -98.52943964581937 z" vector-effect="non-scaling-stroke" fill="#000" fill-opacity="1" stroke="#FFF" stroke-width="0.3px" stroke-linejoin="round" stroke-linecap="round"><title>Ramsey County</title></path>
<path id="38073" d="M -10913078.572862895 -5882004.96454691 l 39168.59817707352 114.41973909456283 44756.311632175 128.5058986870572 -61.262010088190436 56040.73023521155 -41312.79235260375 11.190019722096622 -39528.872243119404 -45.10534860473126 -3095.9737067446113 -37.50407282169908 -44.79206878505647 -13865.233044643886 140.0425910819322 -25193.739091953263 z" vector-effect="non-scaling-stroke" fill="#000" fill-opacity="1" stroke="#FFF" stroke-width="0.3px" stroke-linejoin="round" stroke-linecap="round"><title>Ransom County</title></path>
<path id="38075" d="M -11356940.920135586 -6273617.6661137715 l 3334.0433511175215 0 24468.659154057503 0 24468.659154059365 0 6105.65388006717 0 4.56176140345633 46033.640295696445 5054.738331038505 97.61302682571113 1.498916942626238 29299.1758135017 43593.8141010087 103.33457532338798 -19.21552522480488 14626.231320605613 -41686.06586350128 -90.91968314908445 -45380.38016347401 -100.22087419219315 -109.64858523570001 -8285.816180192865 69.3487031776458 -35571.73475305643 -19939.19976275973 -59.65878649614751 -38.68151929974556 -14626.960861155763 z" vector-effect="non-scaling-stroke" fill="#000" fill-opacity="1" stroke="#FFF" stroke-width="0.3px" stroke-linejoin="round" stroke-linecap="round"><title>Renville County</title></path>
<path id="38077" d="M -10748602.7793045 -5771019.867266502 l -25930.15777331777 0 -25938.31100059487 0 -22932.560117689893 0 -29.99414623528719 -8119.883540870622 -3457.916340634227 -757.1139315888286 26.545134453102946 -45811.997211391106 -2349.7515152152628 -12.446723563596606 61.262010088190436 -56040.73023521155 54020.10079535656 -2114.784286260605 1100.6932905502617 2244.2214351668954 3533.089279225096 5083.987578124739 755.5374998059124 3179.457098410465 654.9804294146597 5999.868526255712 81.53287342004478 3428.9143970245495 -736.5133028347045 3281.4984591612592 627.802905054763 1144.879560528323 1812.7465111184865 2123.5547166122124 668.5692416485399 1247.0533522320911 157.63006176054478 1199.5299719460309 -10.870969701558352 1428.1742779267952 182.08994380570948 1629.0983707318082 741.9486875720322 1758.9298452464864 6460.117993239313 10522.574594718404 3804.8653237186372 4406.288286991417 1655.116649582982 2786.755637929775 690.311181049794 3411.3958771219477 -277.2116294577718 10430.607623448595 277.2116294577718 3260.721780804917 358.7445028722286 1716.3060992527753 491.91468258574605 1374.3754941858351 2551.9776564817876 4361.245024641976 54.35514883324504 1051.71551768668 -250.03400499001145 1208.5334424721077 -168.5012316815555 1867.408695794642 516.3746647443622 906.1005650218576 755.5375999175012 5948.1468398422 -35.3309518545866 2034.078170354478 -788.1506091281772 4485.861053902656 -1328.9852560311556 3559.647483635694 -16.306454546749592 3808.6878110235557 z" vector-effect="non-scaling-stroke" fill="#000" fill-opacity="1" stroke="#FFF" stroke-width="0.3px" stroke-linejoin="round" stroke-linecap="round"><title>Richland County</title></path>
<path id="38079" d="M -11152286.785724033 -6273617.6661137715 l 18903.593649441376 0 24465.782881055027 0 24468.659042729065 0 5300.13279761374 0 -21.887638229876757 46190.59095981158 3661.297050314024 221.20430490374565 -20.820529643446207 29228.008945976384 -31503.407211571932 7.562608589418232 -41151.62065425143 -79.16962616611272 40.568607307970524 -29072.385751533322 -4178.821251690388 -353.9936108253896 z" vector-effect="non-scaling-stroke" fill="#000" fill-opacity="1" stroke="#FFF" stroke-width="0.3px" stroke-linejoin="round" stroke-linecap="round"><title>Rolette County</title></path>
<path id="38081" d="M -10826401.405851735 -5771019.867266502 l -25932.875515749678 -7.816466554999352 -25932.875415634364 -7.81661741156131 -25932.875615851954 0 -2746.6318819597363 0 -3265.979497253895 0 156.05411872640252 -54719.72365233023 39528.872243119404 45.10534860473126 41312.79235260375 -11.190019722096622 2349.7515152152628 12.446723563596606 -26.545134453102946 45811.997211391106 3457.916340634227 757.1139315888286 29.99414623528719 8119.883540870622 z" vector-effect="non-scaling-stroke" fill="#000" fill-opacity="1" stroke="#FFF" stroke-width="0.3px" stroke-linejoin="round" stroke-linecap="round"><title>Sargent County</title></path>
<path id="38083" d="M -11144529.343071913 -5995650.305361561 l -49197.48754282668 6.959576134569943 -13195.20775116235 -87.40733406599611 63.13028510659933 -7347.442887267098 -71.7404024451971 -41276.490043498576 202.37983614206314 -8459.717807887122 9646.610553320497 39.84386394172907 -6.653343323618174 -28742.485984166153 43099.48888151348 -27.59609322808683 14336.877850878984 57.29488242790103 -34.28996539115906 28756.108738146722 4081.528016742319 4.794810081832111 -49.321547551080585 57083.10491757002 z" vector-effect="non-scaling-stroke" fill="#000" fill-opacity="1" stroke="#FFF" stroke-width="0.3px" stroke-linejoin="round" stroke-linecap="round"><title>Sheridan County</title></path>
<path id="38085" d="M -11241330.131846095 -5771043.3168307915 l -25932.875515747815 -7.816487207077444 -25932.875515740365 -7.816494099795818 -25935.59325817041 0 -25930.157773323357 0 -9371.341699626297 0 66.51686508022249 -20485.373121829703 3457.6158129666 -638.9625807693228 4303.121592352167 -195.88212108053267 4398.24322755076 137.1179397040978 2160.619999527931 293.8170075174421 1698.6006285585463 1057.6605217298493 1109.7524106577039 2114.9422239949927 1413.2357229627669 1390.1036502206698 2020.2023475654423 19.577367112971842 4457.128049340099 -593.8660487737507 8434.11832100898 1748.8541510365903 6454.682388525456 -411.08020373620093 2261.588215054944 343.4759545531124 4147.798156708479 615.6815241817385 2248.201529780403 -209.46862866077572 4111.35922354646 -984.6003864798695 1709.5148684810847 -663.5248275268823 3975.135235099122 -2332.143361946568 1916.6625533197075 -1255.3876939862967 4574.256648615003 -3093.070480812341 4285.0031856466085 -744.5447722766548 1956.7879240997136 -809.9268198339269 1829.959077168256 -1247.6935682427138 1531.0053665395826 -1528.8277032235637 973.8643603771925 -1881.9967386778444 765.50268326886 -2509.951857741922 8026.454170154408 -1994.089155879803 3804.8654079716653 -1490.9571023676544 797.209895003587 -1478.1266691256315 -620.5554296318442 -2492.4457437274978 1182.5020496416837 -2055.0251733595505 6984.3697724714875 -4719.342651504092 1367.9397062007338 -1597.8060122067109 1476.650146426633 -4192.340810478665 1141.4596223905683 -1775.7944812709466 5335.870774516836 -3782.1258725365624 1521.9461631905288 -1527.7305879276246 3886.3982381429523 -5254.0032192301005 3437.967672204599 -2677.4004187956452 1245.6404609438032 -1772.2564073232934 1820.8998738136142 -4274.573572718538 1087.1044022776186 -1793.1806126674637 1549.1237732488662 -1077.3976310305297 2097.2055760622025 -144.53897873871028 4606.604904651642 413.9007447771728 6504.508006963879 -6.569701141677797 2151.5607961732894 282.4927231259644 2151.560796175152 748.8903393317014 2038.3207542710006 157.65300948079675 13312.49932623282 -2634.4894960932434 4271.414380615577 -1655.9928406113759 3207.1293282546103 9184.182195744477 701.311790117994 7257.722482673824 -1102.0630701743066 3433.0023490162566 -2371.216250749305 4285.549333825707 66.7914718426764 1465.6314104441553 2404.4998879339546 3703.4198865629733 -66.79191711358726 2027.9222741536796 -1992.7302046902478 4633.870819676667 -4297.154538324103 6142.406943200156 -1540.8845028840005 3871.0018360642716 1496.2443852033466 4901.288266077638 141.00383488833904 6966.4874439826235 949.9257277343422 2422.59523482807 5654.91636377573 8193.408647801727 2651.963449932635 881.422640947625 2700.164232848212 5358.444825897925 -1071.7950859870762 3945.597287976183 -25930.157673209906 0 z" vector-effect="non-scaling-stroke" fill="#000" fill-opacity="1" stroke="#FFF" stroke-width="0.3px" stroke-linejoin="round" stroke-linecap="round"><title>Sioux County</title></path>
<path id="38087" d="M -11582376.524957359 -5825362.61061888 l 0 -3122.6979922102764 0 -26924.137280262075 0 -12050.647479481064 27314.386307479814 25.412255560047925 8.963000116869807 -14377.940195660107 21329.8666278217 -41.65828843135387 42043.49426940456 -8.31213147006929 33788.102837136015 -35.12287880573422 264.0478284098208 15433.705891164951 -29.280365658923984 26847.767645297572 149.94557298347354 14039.261319143698 -7893.32912992686 129.822237030603 -6183.350877132267 133.36397083010525 -22203.112039385363 18.036948052234948 -52623.214628184214 -36.005157073028386 z" vector-effect="non-scaling-stroke" fill="#000" fill-opacity="1" stroke="#FFF" stroke-width="0.3px" stroke-linejoin="round" stroke-linecap="round"><title>Slope County</title></path>
<path id="38089" d="M -11491679.814752536 -5881862.591730835 l 58.869420278817415 -56928.57249738462 22090.178415976465 -118.29194982443005 28189.7057165429 -41.603901327587664 28260.003974972293 -71.13752128649503 -0.11076289229095 -4722.227480771951 42378.42856844142 -16.43686540145427 -11.9117421079427 4639.788986528292 5343.656603485346 140.99896260816604 70.61462843045592 42842.29727644939 -38.32752331905067 14084.612189476378 -44000.13057635911 180.4202728709206 -48552.87388631329 -24.970350742340088 z" vector-effect="non-scaling-stroke" fill="#000" fill-opacity="1" stroke="#FFF" stroke-width="0.3px" stroke-linejoin="round" stroke-linecap="round"><title>Stark County</title></path>
<path id="38091" d="M -10876584.957336657 -5981331.53182674 l -28403.35097382404 -88.87184554338455 52.989747408777475 -14036.175426269881 -2880.3910450395197 -7.390695441514254 104.47501190006733 -14297.199863422662 93.12376342713833 -42746.859595670365 11398.524194136262 18.209807603619993 45604.27494023368 22.960791491903365 -119.2298538107425 57259.5839849161 2443.239404696971 11.331886616535485 39.628180246800184 14014.673663723283 z" vector-effect="non-scaling-stroke" fill="#000" fill-opacity="1" stroke="#FFF" stroke-width="0.3px" stroke-linejoin="round" stroke-linecap="round"><title>Steele County</title></path>
<path id="38093" d="M -10961348.237719484 -5981409.518371806 l -6.01626187376678 42666.878501607105 3124.0692990645766 -10.442119741812348 74.58127584122121 23703.81083965674 -28.946852466091514 32980.592583645135 -43626.98708662577 62.08272275701165 -22910.992013426498 26.177716460078955 -45963.08181539178 -187.79320367146283 200.43308088369668 -19190.187256684527 161.08364463970065 -37595.55297484528 -3858.55507668294 31.81703200750053 40.701856741681695 -56691.2123528691 23874.754753861576 -30.309796609915793 46070.426866399124 80.80809712875634 39312.44511175901 26.938821280375123 3559.795938612893 1.314347069710493 z" vector-effect="non-scaling-stroke" fill="#000" fill-opacity="1" stroke="#FFF" stroke-width="0.3px" stroke-linejoin="round" stroke-linecap="round"><title>Stutsman County</title></path>
<path id="38095" d="M -11079148.617353193 -6273617.6661137715 l 19168.52646776475 0 24471.53531574458 0 14901.812132475898 0 -84.52967574447393 25650.15073827561 75.02677644975483 20800.458732101135 3286.3730053193867 6.749552268534899 -2.675341319292784 29283.676913114265 -61.674671445041895 29037.301934972405 -25517.98250039853 98.52943964581937 -32583.8961191494 -48.19797697290778 -33.926507256925106 -29188.86512271315 20.820529643446207 -29228.008945976384 -3661.297050314024 -221.20430490374565 z" vector-effect="non-scaling-stroke" fill="#000" fill-opacity="1" stroke="#FFF" stroke-width="0.3px" stroke-linejoin="round" stroke-linecap="round"><title>Towner County</title></path>
<path id="38097" d="M -10781629.011003166 -6024539.449735969 l 8.15322727151215 2401.4050023583695 -1755.673519745469 8321.323164550588 -48.91966398432851 3426.7027693940327 557.140901228413 807.2671896079555 1005.5716049037874 1156.5502504734322 970.2406530436128 1409.3369752485305 437.559533752501 1633.9016163554043 -828.9170458335429 20892.403047066182 369.6153724566102 3703.341830975376 -10632.748489182442 -349.9394160369411 -38520.87447662093 39.345796898938715 -18183.811061404645 -83.45760965906084 -39.628180246800184 -14014.673663723283 -2443.239404696971 -11.331886616535485 119.2298538107425 -57259.5839849161 32706.881669940427 -2.145142709836364 31672.81407999806 -1157.4428018890321 649.5449445676059 5851.058623958379 1331.702898338437 4544.947079318576 1785.5689867511392 1507.7323968708515 494.63242501579225 850.5029592933133 46.20192155428231 1051.9281983785331 -296.2359265424311 938.9693362936378 -364.17998772487044 781.7249650135636 -146.7589919473976 608.4070748565719 133.17027982138097 3963.670196212828 -201.114341000095 3281.542086146772 108.71039777435362 2897.995272297412 z" vector-effect="non-scaling-stroke" fill="#000" fill-opacity="1" stroke="#FFF" stroke-width="0.3px" stroke-linejoin="round" stroke-linecap="round"><title>Traill County</title></path>
<path id="38099" d="M -10815486.877690323 -6196180.377472492 l 2609.050547743216 9750.340838513337 606.0607654321939 5315.529634994455 608.7784077450633 2662.6658002743497 -92.40384311415255 1863.371262327768 -505.50349482148886 1846.5883298115805 -1372.4693350475281 3012.6427584495395 -399.51083946973085 2013.2927823048085 1956.7879608590156 10937.95483936835 733.7954602912068 2361.576241117902 529.9633768703789 2646.8043174138293 -1633.3744098469615 11574.220170199871 9.724476469680667 3094.987309778109 -28227.2517150715 -248.97269681934267 -18656.91878595203 39.74287982005626 -39225.91613760218 -29.947210625745356 -16856.93883617036 27.101437731646 -26431.13583809696 -83.56821896322072 7.350648615509272 -29183.368947534822 -2956.42214593105 -18.851827670820057 56.642919136211276 -29201.174621702172 14509.400686394423 86.76381285022944 29013.61366187036 22.29936310183257 50140.97833607718 19.40979076270014 33094.60745637491 131.15351843368262 z" vector-effect="non-scaling-stroke" fill="#000" fill-opacity="1" stroke="#FFF" stroke-width="0.3px" stroke-linejoin="round" stroke-linecap="round"><title>Walsh County</title></path>
<path id="38101" d="M -11380623.608247286 -6198230.968175942 l 32.50918749719858 -29300.761242068373 9022.998988537118 -0.673752769827843 42.02500020712614 -14653.566526665352 14512.940868835896 -7.012522615492344 38.68151929974556 14626.960861155763 19939.19976275973 59.65878649614751 -69.3487031776458 35571.73475305643 109.64858523570001 8285.816180192865 45380.38016347401 100.22087419219315 41686.06586350128 90.91968314908445 -8.618132336065173 14561.812320130877 5095.8708828911185 25.332420296035707 -88.06117562577128 58233.86532360129 4945.728831006214 21.803810843266547 -91.7587638348341 28894.938804991543 -50282.666674509645 111.38018740713596 -49964.62700062804 73.3934806259349 36.18261936493218 -29174.92810829077 -5631.206314112991 0.498651619069278 -0.966364499181509 -58179.65011771768 -5707.042605901137 -92.41862959321588 8.575496975332499 -29382.83568002004 z" vector-effect="non-scaling-stroke" fill="#000" fill-opacity="1" stroke="#FFF" stroke-width="0.3px" stroke-linejoin="round" stroke-linecap="round"><title>Ward County</title></path>
<path id="38103" d="M -11050222.348303331 -6038520.019726207 l -44.84461158700287 42876.36304611247 -23874.754753861576 30.309796609915793 -30019.916477805004 -22.26891108043492 -31492.16405432485 -7.722928806208074 49.321547551080585 -57083.10491757002 -4081.528016742319 -4.794810081832111 34.28996539115906 -28756.108738146722 28613.442801645026 7.301934652961791 28095.473322311416 90.81892199162394 29201.979821274057 -16.341400284320116 15.367433059960604 28710.710454567336 3518.4741436298937 76.21292145829648 z" vector-effect="non-scaling-stroke" fill="#000" fill-opacity="1" stroke="#FFF" stroke-width="0.3px" stroke-linejoin="round" stroke-linecap="round"><title>Wells County</title></path>
<path id="38105" d="M -11582376.524957359 -6171886.940207724 l 0 -13284.610423582606 0 -28058.754702639766 27545.976155363023 329.808880738914 46875.734883297235 34.3687097011134 30581.125898268074 3.373057384043932 24169.12500968948 -2.607486940920353 15.026127509772778 14625.808282891288 2.834639510139823 29175.365367595106 6420.516940945759 -55.71891379728913 -38.28745807334781 38898.71293335315 -5839.223816329613 -1701.1037215646356 -5344.7210603598505 -919.7714327275753 -4321.448916560039 -743.7459478080273 -5050.505868917331 -353.1146625811234 -5458.170019771904 -61.11747791338712 -10223.310983091593 835.2344344481826 -4180.8223470933735 3258.6722814571112 -2810.5171278286725 5601.474188840948 -1922.9166237562895 3048.3587600728497 -2418.807295067236 2583.0801756568253 -3451.5564772337675 1599.6278901789337 -4289.532787322998 47.44203296396881 -3315.668426947668 318.5325663127005 -3315.668426947668 921.6446041464806 -9122.617775782943 4958.916121182032 -4629.252913035452 -2059.0925079565495 -2554.695345355198 -5787.070706827566 -1309.0548844058067 -4136.0148145975545 -896.8611318804324 -5386.591623415239 -3736.9213828314096 -2585.953014295548 -4556.7792862169445 1757.9900448890403 -5806.949348835275 4145.798430973664 -3456.086078906432 3208.054482043721 -3451.5564772337675 3823.680039640516 -2196.856812939048 3361.260265073739 -1295.4660793803632 2804.5597175825387 -122.29924525506794 284.4693277394399 -1277.3476726766676 2112.9054873595014 -3791.276602944359 -54.17056458443403 -828.917106738314 934.3943124972284 -1001.0419704318047 3465.8496676450595 -2346.333668248728 879.7781635355204 -2772.116225808859 -575.229364939034 -2246.682431375608 -927.215525762178 -6387.391240958124 -1452.7862541666254 -8569.353493716568 -2053.941595647484 -1273.3248443249613 -812.921656624414 0 -19446.119525453076 0 -27879.464520744048 z" vector-effect="non-scaling-stroke" fill="#000" fill-opacity="1" stroke="#FFF" stroke-width="0.3px" stroke-linejoin="round" stroke-linecap="round"><title>Williams County</title></path>
</svg>
