<svg xmlns="http://www.w3.org/2000/svg" xmlns:xlink="http://www.w3.org/1999/xlink" height="1080" width="1920" viewBox="-9442512.066276388 -5158652.327569939 479040.70818571746 521780.4471205827">
<path id="39001" d="M -9311953.545232954 -4669670.60010388 l -2239.4351752828807 713.2270603757352 -4837.61455309391 -1068.119577393867 1214.0891405120492 -5766.985302138142 1915.2528409752995 -27102.991953311488 1463.963625298813 -21701.868339918554 6837.9088150803 220.6533735645935 11154.098429730162 -2506.126905536279 13999.089876692742 -2697.2619963837788 7909.024844171479 430.337900984101 464.313262142241 1407.7147913575172 4408.138957448304 3808.349396603182 254.36403458938003 19565.29523504805 22.930033991113305 35393.1672249157 -82.08412295021117 3287.605757176876 -4008.6974071525037 945.9509425135329 -853.3770279921591 -372.10987739730626 -1377.90481990017 -1544.227384715341 -2657.9703118335456 -4400.9365554200485 -796.3039365131408 -998.7374120987952 -1396.9291169829667 -995.3545673098415 -3179.780361313373 -1440.9998976364732 -1573.5835759360343 -393.3517348272726 -3943.471288619563 83.54506835248321 -1030.0314869526774 -567.4231979465112 -1831.7709083110094 -1827.8045756164938 -2108.982437653467 -1458.9971691416577 -2315.532463738695 -936.7931320751086 -2451.4203858654946 -250.75484499707818 -7854.329367799684 2573.4260093113407 -1263.7588371615857 926.1353118531406 -519.0924071744084 2666.5215215077624 -1375.186977358535 2324.8054894264787 z" vector-effect="non-scaling-stroke" fill="#000" fill-opacity="1" stroke="#FFF" stroke-width="0.3px" stroke-linejoin="round" stroke-linecap="round"><title>Adams County</title></path>
<path id="39003" d="M -9337484.409297843 -4985814.041512172 l -15.586398504674435 25741.250268611126 -25335.52907574363 237.81530557759106 -13.46954707056284 -2181.645835010335 -12784.037746008486 145.27160800155252 -5.565863218158484 -4257.666843815707 -19367.247677469626 151.35118214879185 -66.34519200026989 -19251.974386646412 6375.599192453548 -29.711882919073105 -47.86693576537073 -6320.452966246754 12884.781996496022 -30.761093685403466 12823.890012394637 -248.1579045848921 7.792809633538127 -6439.617387955077 12729.491306835786 -49.48769582249224 -7.0130165964365 -2176.714797387831 12780.03024434112 -86.32959762308747 z" vector-effect="non-scaling-stroke" fill="#000" fill-opacity="1" stroke="#FFF" stroke-width="0.3px" stroke-linejoin="round" stroke-linecap="round"><title>Allen County</title></path>
<path id="39005" d="M -9147288.21335149 -5021716.6995059075 l -207.94525407627225 10544.044583684765 4903.621899647638 38.3455492593348 155.51254940219223 12709.166633681394 318.15088204853237 2784.983225496486 -252.25074537098408 12159.569001330063 124.89946679398417 19953.756032885984 -10515.903789009899 95.24829471763223 61.78131550736725 14573.480553601868 -13007.901241989806 1934.9199426518753 -250.35597631894052 -25186.324081545696 -4028.564445607364 203.8707952015102 -1505.3252442888916 -8173.228958787397 -1656.3367256708443 -5930.567476654425 -1287.1308279372752 -2531.525903629139 -69.52672444097698 -5748.450974215753 -212.7304337117821 -17009.489700479433 -1658.8824952039868 -2.064775563776493 -363.56878901459277 -10688.87636678759 11084.30110900104 -56.40061583556235 z" vector-effect="non-scaling-stroke" fill="#000" fill-opacity="1" stroke="#FFF" stroke-width="0.3px" stroke-linejoin="round" stroke-linecap="round"><title>Ashland County</title></path>
<path id="39007" d="M -8963471.35809067 -5158652.327569939 l 0 11909.733901916072 0 8306.601166722365 0 7364.400688297115 0 15645.380254270509 0 15616.26034619566 0 13515.00898775179 -16142.699579907581 22.531502683646977 -37612.17269403674 -350.4813967877999 -56.32554727047682 -31779.291514248587 115.04346443712711 -19950.83172961604 5053.712365197018 -954.7737098205835 2834.472200019285 -1803.937394419685 3981.368465922773 -836.0864608548582 655.3692948017269 -572.1013103397563 1392.6597514543682 -1760.5266188960522 917.5170127227902 -748.322070418857 2048.029046257958 -616.3092579757795 4292.6688809506595 -616.3490300746635 3538.9941919334233 -2597.908087615855 z" vector-effect="non-scaling-stroke" fill="#000" fill-opacity="1" stroke="#FFF" stroke-width="0.3px" stroke-linejoin="round" stroke-linecap="round"><title>Ashtabula County</title></path>
<path id="39009" d="M -9097436.36364038 -4752340.609847648 l -2496.4922853987664 2933.4112628828734 -847.9414430316538 2254.561620140448 -36310.79185535014 -2321.6253708153963 -21004.75694176182 -1425.2550495350733 928.4051098115742 -12815.789867374115 -4256.076866984367 -299.3329012906179 981.0590063203126 -12838.83736545965 1030.039582265541 -12784.88191253785 12582.549578998238 951.5982331940904 914.8240206111223 -13024.637342977338 12426.924819543958 830.0295863039792 -918.4974524918944 13096.37255762145 23479.05448438786 1418.2342751491815 -954.7881630882621 19019.8816653369 2092.80587031506 96.83808244857937 -89.83494038879871 2111.7844929685816 2096.479524826631 107.7501641465351 -194.47548437304795 4239.5953572308645 10748.004815997556 433.2516412716359 z" vector-effect="non-scaling-stroke" fill="#000" fill-opacity="1" stroke="#FFF" stroke-width="0.3px" stroke-linejoin="round" stroke-linecap="round"><title>Athens County</title></path>
<path id="39011" d="M -9395005.845605858 -4965977.665826659 l 19367.247677469626 -151.35118214879185 5.565863218158484 4257.666843815707 12784.037746008486 -145.27160800155252 13.46954707056284 2181.645835010335 25335.52907574363 -237.81530557759106 29.164704713970423 15536.473061546683 -3184.070281961933 486.0063030011952 -9499.112005388364 31.637335896492004 8.571378152817488 7491.067610931583 -955.3437586706132 131.13732071593404 -11663.496196959168 -6.733054209500551 -25826.336821973324 328.71296303439885 29.721524802967906 14943.1484095091 -10585.701221056283 59.03615099564195 -45.863852847367525 3476.6973274284974 -2340.6027228608727 -627.4272005669773 47.9794797655195 -15631.38259324897 -133.35863490216434 -32113.853741800413 z" vector-effect="non-scaling-stroke" fill="#000" fill-opacity="1" stroke="#FFF" stroke-width="0.3px" stroke-linejoin="round" stroke-linecap="round"><title>Auglaize County</title></path>
<path id="39013" d="M -8987761.223652355 -4870797.891600434 l 36.566377345472574 2019.9325611153618 -356.02666033804417 3303.382070423104 -845.2236004918814 2018.3893228629604 -1005.5717050153762 1748.4658730095252 -828.9171459507197 2485.6254969760776 165.7834892589599 960.7526198392734 440.2772761769593 1208.7855058880523 138.6057646702975 1364.5810797866434 -744.6665301062167 1424.6354726133868 -1405.0823442544788 187.80972327198833 -1494.7685450650752 -825.6808789316565 -1182.2261639684439 -148.8425330594182 -481.04361277259886 2228.860391973518 312.5425813179463 1495.0763538395986 608.778407741338 1675.4935915600508 421.2528789807111 1579.593926765956 -271.7760444916785 1193.3833698723465 -2079.0871708747 2584.5828720135614 -703.9000933989882 1228.326799986884 -21751.570114798844 -2289.154725605622 -13122.114816909656 -1040.548461987637 -11386.867151018232 -358.3801644127816 363.23605505749583 -12109.536838645115 904.917587807402 -31824.47871910967 9551.654582399875 -138.68861394468695 3122.2880758941174 453.06312163639814 25512.192884998396 1226.809514717199 12982.409078607336 638.544867371209 46.308908166363835 -689.815906168893 7958.821790790185 333.7117741582915 -953.9340983778238 2634.6474119126797 -2394.3473945073783 5082.425207807682 -1214.8391731753945 3570.353560456075 -415.8173941280693 2791.4397748941556 z" vector-effect="non-scaling-stroke" fill="#000" fill-opacity="1" stroke="#FFF" stroke-width="0.3px" stroke-linejoin="round" stroke-linecap="round"><title>Belmont County</title></path>
<path id="39015" d="M -9340644.948231038 -4689026.771227567 l -4508.765517229214 -2133.5862123761326 -2619.9216175489128 -376.561458600685 -9949.722993222997 1948.9043340310454 4071.340809676796 -30240.994826280512 2246.650297148153 -20518.6128138965 1690.8323022536933 -17785.710696788505 13830.329306013882 972.3401736989617 -454.51903938129544 27533.179496716708 -272.9556140638888 4905.243939761072 6162.088631752878 162.05382434651256 16012.302311094478 -36.82274931110442 -1463.963625298813 21701.868339918554 -1915.2528409752995 27102.991953311488 -1214.0891405120492 5766.985302138142 -4413.643831579015 -3027.5256720660254 -7541.786786487326 -7677.235787735321 -1704.0361133366823 -2313.007466266863 -1489.3330602105707 -2553.974784827791 -1725.7782529629767 -2073.615317444317 z" vector-effect="non-scaling-stroke" fill="#000" fill-opacity="1" stroke="#FFF" stroke-width="0.3px" stroke-linejoin="round" stroke-linecap="round"><title>Brown County</title></path>
<path id="39017" d="M -9442266.371051544 -4765486.941237583 l 42.38747442513704 -5217.9354697605595 97.83942807465792 -11712.377637345344 92.4038431160152 -11729.57418258302 21.443273838609457 -2572.5811106422916 54.84794486872852 -6583.195354073308 26305.61901703663 6.88513330090791 11501.192490700632 -179.6431024800986 -28.052289040759206 -3210.446105763316 12684.852079709992 220.2934148190543 66.34619387425482 6472.990927469917 3654.928462252021 -959.0356876198202 -882.7408528197557 13694.247476919554 335.1828754618764 57.525898382999 -1848.4610351789743 23573.934004803188 -4709.093761159107 -772.7310553314164 -14266.984906706959 -1264.6837963266298 -11509.422563297674 -791.2598977014422 -1602.4051081519574 989.5189024684951 z" vector-effect="non-scaling-stroke" fill="#000" fill-opacity="1" stroke="#FFF" stroke-width="0.3px" stroke-linejoin="round" stroke-linecap="round"><title>Butler County</title></path>
<path id="39019" d="M -9026595.661508441 -4972283.129641487 l 18936.552678912878 136.75908795557916 -104.97483641654253 12253.465857328847 6378.938665859401 131.15711584314704 -130.46677717007697 6330.708691441454 -175.10589297302067 6447.791394361295 -6384.504640398547 -132.4516949020326 -416.11292450129986 12934.71279299818 -1724.8949532471597 -54.579511740244925 -150.05911886505783 6385.922668041661 -17654.820395875722 -619.3078345460817 -12491.489901563153 -662.3437507236376 -6416.564987702295 -4.241684672422707 579.6413677930832 -19258.909482569434 -6335.746703425422 -235.48802629392594 436.92944664135575 -12451.094601049088 8514.15759612061 150.83458055742085 447.8386454191059 -10717.930843414739 4251.289906242862 180.08009969163686 48.75815960764885 -1007.0792753072456 z" vector-effect="non-scaling-stroke" fill="#000" fill-opacity="1" stroke="#FFF" stroke-width="0.3px" stroke-linejoin="round" stroke-linecap="round"><title>Carroll County</title></path>
<path id="39021" d="M -9300891.927703563 -4899328.767640572 l 6327.3977416194975 569.0733573324978 -1025.9210950713605 16607.070628065616 -1384.9262302350253 14730.864470189437 -12935.988628305495 -882.1018601274118 -17503.092152558267 -1459.877135809511 -27437.46325563267 -2018.2783694788814 1466.523750944063 -20925.490978048183 905.250655727461 -13051.894265343435 25560.839836437255 1950.5346094304696 -23.154676720499992 2169.7885851310566 z" vector-effect="non-scaling-stroke" fill="#000" fill-opacity="1" stroke="#FFF" stroke-width="0.3px" stroke-linejoin="round" stroke-linecap="round"><title>Champaign County</title></path>
<path id="39023" d="M -9354851.921323746 -4871782.0165504 l 27437.46325563267 2018.2783694788814 17503.092152558267 1459.877135809511 12935.988628305495 882.1018601274118 445.2779631689191 27.032861727289855 -5869.431137604639 23484.642068600282 -2677.010780636221 11529.886328502558 -6483.245362689719 -632.7730229077861 -2365.3158724606037 -550.2506429860368 -7846.018012378365 -646.7539813444018 -219.18785473890603 -1123.9881283305585 -9869.471839932725 -1319.4251108746976 233.99379228800535 -3549.2739228615537 -12675.278714822605 -897.3739737849683 191.02446884289384 -2167.8857497991994 -12708.563019931316 -965.9451548745856 300.2288893070072 -4256.955361018889 z" vector-effect="non-scaling-stroke" fill="#000" fill-opacity="1" stroke="#FFF" stroke-width="0.3px" stroke-linejoin="round" stroke-linecap="round"><title>Clark County</title></path>
<path id="39025" d="M -9376418.954945495 -4703793.911544716 l -192.84241035208106 -1455.1548285335302 -706.6178358215839 -2566.539812721312 -1062.6445962712169 -2354.1047104094177 -1163.2016666624695 -1379.884913502261 -1516.5105845704675 -1369.5900694662705 -1315.3964437935501 -1589.9347619423643 -568.0120711456984 -2009.6146207405254 -217.42079555615783 -2495.971322589554 -676.72246892564 -2653.954459748231 -1163.2017667684704 -2423.782934761606 -1674.1407464407384 -1805.0980397975072 2681.7823110073805 -20824.80725094676 2178.6561295352876 -3205.692519452423 -517.3311733845621 -2205.0618507014588 -3430.135448515415 413.223045499064 -772.0085723344237 -1961.3528145020828 3410.576725302264 -3803.6485331868753 3211.2087493035942 -2025.0198588715866 202.79828610643744 -1024.207476685755 28118.40435817279 2261.1851880177855 1877.180016649887 139.59118827991188 -1690.8323022536933 17785.710696788505 -2246.650297148153 20518.6128138965 -4071.340809676796 30240.994826280512 -2462.2914556842297 -299.8071792041883 -12422.885518709198 -4683.018214269541 -2448.702643448487 -1845.205694056116 -1046.3380416128784 -2480.5675193276256 -119.58146758563817 -3420.0584132084623 z" vector-effect="non-scaling-stroke" fill="#000" fill-opacity="1" stroke="#FFF" stroke-width="0.3px" stroke-linejoin="round" stroke-linecap="round"><title>Clermont County</title></path>
<path id="39027" d="M -9335884.205643946 -4757160.99272778 l -13830.329306013882 -972.3401736989617 -1877.180016649887 -139.59118827991188 3314.7621471416205 -45257.166572742164 34153.81129808165 2731.1473844377324 10454.009929496795 823.8909081891179 -1624.3746775779873 23907.777353061363 -21400.94412268512 16535.645926095545 -2773.9008163977414 5557.653257667087 -3097.4216393604875 266.44522714428604 163.08316533453763 -3220.8848856454715 z" vector-effect="non-scaling-stroke" fill="#000" fill-opacity="1" stroke="#FFF" stroke-width="0.3px" stroke-linejoin="round" stroke-linecap="round"><title>Clinton County</title></path>
<path id="39029" d="M -8963471.35809067 -4991190.985112541 l 0 15417.245792618953 0 15392.957042695023 -1723.0605105310678 479.96850634738803 -4978.938060194254 3577.530319051817 -1875.2550874445587 -1102.8429956361651 -2810.164888745174 93.1019590580836 -2867.2378801126033 970.3559292033315 -2013.8608521129936 1543.0617853058502 -1165.9195091985166 2942.243005742319 -7844.369618518278 803.1271769357845 -46.30890817195177 -1998.3412818806246 -12719.138371555135 -358.4610158186406 130.46677717007697 -6330.708691441454 -6378.938665859401 -131.15711584314704 104.97483641654253 -12253.465857328847 -18936.552678912878 -136.75908795557916 69.13085093721747 -25555.224986123852 21088.914476804435 45.952316855080426 112.43268570303917 -4255.978323362768 8302.316382501274 60.558406048454344 -32.06012466736138 4247.262869878672 33583.56914649159 199.69673123862594 z" vector-effect="non-scaling-stroke" fill="#000" fill-opacity="1" stroke="#FFF" stroke-width="0.3px" stroke-linejoin="round" stroke-linecap="round"><title>Columbiana County</title></path>
<path id="39031" d="M -9095818.554739017 -4930786.692338739 l -351.324758220464 10814.11899467837 10715.38831651397 392.4542164215818 -740.6096854414791 21426.799608379602 -4999.022925898433 -169.11913959495723 -379.0433114282787 10417.418162858114 -5040.656304139644 -173.16765393596143 -17389.76879961416 -712.79998485744 -23910.306080402806 -680.5145914331079 -11115.69287144579 -750.1927197938785 480.00997825711966 -10456.464418691583 -1456.9489389006048 -65.18539422098547 1258.3567484393716 -31726.381617886946 10979.215398373082 495.2117564463988 z" vector-effect="non-scaling-stroke" fill="#000" fill-opacity="1" stroke="#FFF" stroke-width="0.3px" stroke-linejoin="round" stroke-linecap="round"><title>Coshocton County</title></path>
<path id="39033" d="M -9220537.195599958 -5011842.250855318 l 11655.814929453656 145.4272491997108 67.79290197603405 9607.764064776711 -331.7337523549795 32253.17529412359 -14587.301620772108 -178.87559493351728 -10.909421414136887 1087.0031885243952 -13209.389409009367 228.1928274575621 -14968.682084910572 84.2855386827141 -144.4900273811072 -42757.81327958591 28894.300875043496 -26.693065988831222 z" vector-effect="non-scaling-stroke" fill="#000" fill-opacity="1" stroke="#FFF" stroke-width="0.3px" stroke-linejoin="round" stroke-linecap="round"><title>Crawford County</title></path>
<path id="39035" d="M -9071274.54227946 -5107162.080276185 l 1.047042142599821 1247.1597296567634 88.8326196949929 9124.954196220264 10780.510329952464 49.84659821446985 -56.32888685911894 18363.033678332344 1838.997319990769 157.41886789910495 23.710940217599273 3073.310373290442 -1893.5438704732805 104.66344627272338 70.35302761942148 11194.521137422882 -54.323800183832645 1.037853843532503 -22842.24300286919 -383.68077230639756 1338.3211323637515 3597.1450060214847 1496.969858294353 4302.47124664858 1136.9300207141787 3170.776055652648 -13781.199710411951 -147.70020636357367 -21482.762723911554 306.3148073349148 108.31464378163218 -11184.168435259722 -10497.758600693196 -118.18956355471164 326.7706841751933 -22808.173310144804 0.634491890668869 -239.7192397462204 10106.905671838671 2441.5155953681096 2834.4722000174224 131.23576125875115 1441.8124485649168 -437.4594946661964 2228.2556023281068 -1968.8137741424143 1261.5858924929053 -612.6019844496623 966.6697098333389 218.79089935217053 3604.5311214104295 1881.39645448979 2637.8614115789533 -306.248783281073 3784.757677482441 -2362.818188948557 4096.05809251219 -1312.927488790825 z" vector-effect="non-scaling-stroke" fill="#000" fill-opacity="1" stroke="#FFF" stroke-width="0.3px" stroke-linejoin="round" stroke-linecap="round"><title>Cuyahoga County</title></path>
<path id="39037" d="M -9441558.132178005 -4852994.808354699 l 97.83952819369733 -11812.838862996548 14.666412448510528 -1875.67320848722 77.73743065819144 -9947.691680066288 95.1215855460614 -11841.047330176458 95.1216856520623 -11858.800540863536 95.12158553861082 -11869.495318084955 42.38260204717517 -5146.129281510599 23445.459552006796 155.5049128178507 18375.05761262402 -364.4567872779444 228.8716485556215 22939.954141279683 668.2484542056918 32983.78345783707 17.365506602451205 7368.043023253791 -6563.840451380238 162.41700820159167 -15482.866812882945 289.41227581351995 z" vector-effect="non-scaling-stroke" fill="#000" fill-opacity="1" stroke="#FFF" stroke-width="0.3px" stroke-linejoin="round" stroke-linecap="round"><title>Darke County</title></path>
<path id="39039" d="M -9439982.396067081 -5049660.636152515 l 22.494155902415514 -2770.489382047206 26.990915743634105 -3325.3802114333957 -425.66682024113834 -11114.743970168754 0 -8513.708878768608 51487.9996347744 -227.742105753161 12602.475767843425 -35.928187193349004 122.11659084260464 13074.092008235864 -96.29291800782084 25738.5674938187 -12621.400192599744 49.98003196436912 -102.19084727019072 -6460.598282160237 -12749.973870502785 -117.3418238395825 -122.56220276653767 -6437.301665553823 -7444.711470711976 99.65059146191925 z" vector-effect="non-scaling-stroke" fill="#000" fill-opacity="1" stroke="#FFF" stroke-width="0.3px" stroke-linejoin="round" stroke-linecap="round"><title>Defiance County</title></path>
<path id="39041" d="M -9241832.390213892 -4929181.324093786 l -142.71147588081658 2181.085125735961 10829.379363764077 596.2599595114589 -533.3320143464953 8284.09167986922 20555.80554671213 1245.8921892913058 -647.7686735279858 10603.05166305881 -1232.975459260866 22024.001498161815 -45435.48141898215 -2509.0572733804584 -261.48848200030625 -14743.650976574048 -8471.188161356375 -30.481247917748988 -123.5632989462465 -22540.188170709647 104.97472509741783 -6601.411884827539 9292.948197115213 726.5101543162018 z" vector-effect="non-scaling-stroke" fill="#000" fill-opacity="1" stroke="#FFF" stroke-width="0.3px" stroke-linejoin="round" stroke-linecap="round"><title>Delaware County</title></path>
<path id="39043" d="M -9166973.833621206 -5077366.49271827 l 36.68029058165848 1851.1420722501352 642.5919832475483 21260.032869681716 -11161.11144633405 -43.99808567482978 -34734.675955755636 -626.3563656592742 -9679.338149664924 -287.71036591846496 -693.2964528240263 -20747.023670932278 -5986.9250752758235 -83.95969418343157 -1497.7971368599683 -780.4804090512916 4054.136123182252 -1656.2467735568061 5505.102076336741 -3541.676426797174 4603.969295984134 -787.2160820132121 2261.0240670684725 1530.6388605367392 868.364315610379 437.28071485087276 1490.9651456754655 131.18034364189953 1081.359336424619 -174.90752184204757 1736.7286312244833 -699.6618491606787 1327.1228219736367 -131.19225493166596 2785.319502910599 612.2152355303988 2981.9302913472056 1530.3678807364777 5357.643985008821 3934.1159380888566 -2310.1767641771585 -2709.996637761593 -4669.506225466728 -4153.893475957215 -1441.8124485630542 -3193.156933146529 1179.6647306438535 437.4813619730994 802.8273861315101 918.6461558472365 770.0589213948697 1268.4625204596668 1032.2066393122077 1355.7579542296007 786.4431537631899 524.758298529312 1982.4921167753637 918.258238309063 1048.5908716823906 655.8451564172283 7782.510375775397 6381.229083121754 4636.737760722637 2359.1110246572644 5193.801661308855 305.76844318863004 2195.4871375858784 -829.965469673276 4964.422408128157 -3233.178110972978 1572.8863075245172 -1529.5836221883073 1851.4182578157634 -1136.4192693084478 z" vector-effect="non-scaling-stroke" fill="#000" fill-opacity="1" stroke="#FFF" stroke-width="0.3px" stroke-linejoin="round" stroke-linecap="round"><title>Erie County</title></path>
<path id="39045" d="M -9215304.745164024 -4857176.870959579 l 16240.840780418366 1069.986204107292 18164.886525329202 1049.11385066621 1181.099463360384 -771.5451559182256 -993.4156924430281 13519.27983581461 8298.19756134972 596.3979597678408 -785.1369251608849 12816.670947400853 4251.84672633186 301.8560238266364 -943.9897272028029 12668.407470371574 -12672.606935726479 -958.673314482905 -862.9488039445132 8490.379643260501 -13516.74230045639 -831.6642982652411 -282.97459086962044 6444.885136183351 -12265.622988706455 -733.4319692226127 -138.7040855269879 2111.1952151935548 -12398.983849992976 -1092.8688787957653 948.6652571354061 -12632.591361108236 -360.45251118950546 -23.27704038657248 1487.4518152177334 -21042.355487124994 307.0193782467395 -4242.357886106707 2061.524982087314 186.977186745964 956.680260470137 -12734.645060419105 -2082.78711614199 -135.69557955488563 255.58955086022615 -4273.829682457261 z" vector-effect="non-scaling-stroke" fill="#000" fill-opacity="1" stroke="#FFF" stroke-width="0.3px" stroke-linejoin="round" stroke-linecap="round"><title>Fairfield County</title></path>
<path id="39047" d="M -9305293.506269468 -4776067.275016813 l 1624.3746775779873 -23907.777353061363 -10454.009929496795 -823.8909081891179 1877.5150883160532 -24084.313801112585 21454.553363069892 1712.7519967090338 23172.860428843647 1389.2534658126533 -1592.0923592019826 25890.43722102698 -11803.537118250504 20022.56832316611 z" vector-effect="non-scaling-stroke" fill="#000" fill-opacity="1" stroke="#FFF" stroke-width="0.3px" stroke-linejoin="round" stroke-linecap="round"><title>Fayette County</title></path>
<path id="39049" d="M -9258439.474345414 -4886755.999251538 l 45435.48141898215 2509.0572733804584 -1335.6122524105012 21774.05143355485 -965.1399851813912 5296.019585023634 -3150.563226554543 -217.78624050412327 -255.58955086022615 4273.829682457261 2082.78711614199 135.69557955488563 -956.680260470137 12734.645060419105 -2061.524982087314 -186.977186745964 -307.0193782467395 4242.357886106707 -23753.345709700137 -1531.679086273536 -14505.370475545526 -459.07200012821704 -8434.007228797302 -546.0441106017679 -927.1789256222546 -15207.92993953079 2937.497943820432 -2162.70186870452 -2652.2968518063426 -6015.190204524435 -485.46363143622875 -10978.23493962083 4634.674232535064 167.0887669986114 659.3456779289991 -8680.1188054597 4016.183253005147 -22.996476896107197 z" vector-effect="non-scaling-stroke" fill="#000" fill-opacity="1" stroke="#FFF" stroke-width="0.3px" stroke-linejoin="round" stroke-linecap="round"><title>Franklin County</title></path>
<path id="39051" d="M -9395318.45327562 -5117176.475078347 l 1225.8037709388882 -60.07117971498519 3134.61146068573 0 6374.137876784429 0 8874.83278838545 -463.16993578057736 9335.862996803597 -308.79243524745107 9451.120623992756 -617.6148493820801 9566.37805095315 -308.8221479859203 8817.203874683008 -154.41493968851864 1353.1041452270001 15229.659829123877 -564.9463044553995 4.467253087088466 -55.66096990928054 19334.11330178473 -19368.027025226504 209.5285031637177 -31723.039676358923 91.23871551826596 -16.58638148754835 -4249.105218397453 -4306.281734693795 24.52944760490209 -64.23034431226552 -15293.12218124047 -1899.4439148101956 -37.22562639694661 z" vector-effect="non-scaling-stroke" fill="#000" fill-opacity="1" stroke="#FFF" stroke-width="0.3px" stroke-linejoin="round" stroke-linecap="round"><title>Fulton County</title></path>
<path id="39053" d="M -9138462.553676767 -4717172.382589229 l -3171.627033930272 5524.965064334683 -1758.391462393105 4408.029720459133 -760.9730847645551 5854.621728508733 -546.2699315268546 1319.1807388952002 -1443.1311386562884 2512.2519616317004 -1288.218719208613 3306.8522481685504 -2114.4180226176977 1475.1791855096817 -1886.1261572558433 1708.5694112181664 -320.69580858945847 3332.6284174183384 807.1751064378768 2463.910082827322 1011.0070897508413 1954.6732967495918 858.812512839213 2337.4502392504364 361.46214518509805 3607.8879494043067 -712.0533206686378 2036.7090257378295 -198.39659857936203 1462.0020826701075 1032.7491292636842 2474.4835577197373 456.5838308352977 1812.8486214615405 266.34055964648724 1927.3209647359326 -84.25061583891511 1436.5570708066225 -1701.3183709140867 2347.4491534503177 -2489.4689800441265 472.9024037932977 -5343.118248136714 -789.3419111818075 -1559.9947637021542 1317.853875379078 -9412.314882198349 443.0251291077584 790.3689412325621 -12953.149427440949 -13122.782956495881 -919.1828697323799 621.1630925890058 -8410.097242332995 -2193.104731518775 -214.08446802105755 326.9454557746649 -4183.110269588418 -11025.190236752853 -970.4000309221447 790.368607275188 -9343.325384035707 133.58350026793778 -1286.0020203767344 13269.72446170263 1271.8527331799269 1758.8485111258924 -20057.999888272025 453.07066149264574 -7206.625918242149 12516.20305115357 1061.1740601919591 -113.54599192366004 2080.4651593025774 25428.592170054093 1486.4411859186366 z" vector-effect="non-scaling-stroke" fill="#000" fill-opacity="1" stroke="#FFF" stroke-width="0.3px" stroke-linejoin="round" stroke-linecap="round"><title>Gallia County</title></path>
<path id="39055" d="M -9017282.555911886 -5118402.183633138 l 56.32554727047682 31779.291514248587 -7.348199587315321 22837.112759045325 -33261.36305171065 77.84742745012045 -9926.022141261026 -139.2403164813295 -70.35302761942148 -11194.521137422882 1893.5438704732805 -104.66344627272338 -23.710940217599273 -3073.310373290442 -1838.997319990769 -157.41886789910495 56.32888685911894 -18363.033678332344 10588.595193861052 -34.817078781314194 134.25197380967438 -10558.994628428482 21512.707444291562 -86.69225691538304 -93.06231506168842 -10857.784075854346 z" vector-effect="non-scaling-stroke" fill="#000" fill-opacity="1" stroke="#FFF" stroke-width="0.3px" stroke-linejoin="round" stroke-linecap="round"><title>Geauga County</title></path>
<path id="39057" d="M -9356818.603658145 -4844233.867613918 l 12708.563019931316 965.9451548745856 -191.02446884289384 2167.8857497991994 12675.278714822605 897.3739737849683 -233.99379228800535 3549.2739228615537 9869.471839932725 1319.4251108746976 219.18785473890603 1123.9881283305585 7846.018012378365 646.7539813444018 2365.3158724606037 550.2506429860368 -685.8398280590773 8129.713869886473 -1877.5150883160532 24084.313801112585 -34153.81129808165 -2731.1473844377324 -15272.250336296856 -1272.9130316488445 251.91623029857874 -6989.31437703874 2114.8490219246596 -30687.20250802394 4219.230004217476 289.9453557897359 z" vector-effect="non-scaling-stroke" fill="#000" fill-opacity="1" stroke="#FFF" stroke-width="0.3px" stroke-linejoin="round" stroke-linecap="round"><title>Greene County</title></path>
<path id="39059" d="M -9042028.104933454 -4890686.836890387 l -904.917587807402 31824.47871910967 -12657.912985583767 -343.14643036574125 -4257.523797724396 426.9332077149302 -145.2722694464028 4252.071691682562 -8396.715088054538 -328.33617914188653 -152.1738552339375 4225.582735380158 -12743.294923696667 -459.23204543441534 -192.58316435292363 8500.82903284207 -12671.827587969601 -512.069462521933 338.63433627411723 -12784.169330261648 -4172.587248891592 -166.07603919692338 1370.4556983094662 -32028.217159351334 5040.656304139644 173.16765393596143 379.0433114282787 -10417.418162858114 4999.022925898433 169.11913959495723 31684.411590408534 1028.5027348296717 -167.87001475319266 6157.6855666833 z" vector-effect="non-scaling-stroke" fill="#000" fill-opacity="1" stroke="#FFF" stroke-width="0.3px" stroke-linejoin="round" stroke-linecap="round"><title>Guernsey County</title></path>
<path id="39061" d="M -9420227.685184583 -4732597.909277001 l -1545.1467894911766 -152.1393074421212 -5680.120511274785 -5834.236429129727 -1646.9631219692528 -935.3317962670699 -595.189695622772 -486.9671588623896 -1415.953414073214 -2140.8321870919317 -994.7005350850523 -490.5983995422721 -1350.7272955421358 346.9256086256355 -1030.031386839226 837.4781510597095 -1799.1577989887446 1933.9939858112484 -6226.390542918816 3884.3882470149547 97.83952819183469 -11671.6702692369 95.12158553861082 -11692.199028789066 52.73411111347377 -6487.8433767315 20009.88256700337 21.932358536869287 1602.4051081519574 -989.5189024684951 11509.422563297674 791.2598977014422 14266.984906706959 1264.6837963266298 4709.093761159107 772.7310553314164 2306.427861828357 -141.82460934948176 7687.053779527545 698.0292154354975 464.98117908649147 2535.5391482925043 -202.79828610643744 1024.207476685755 -3211.2087493035942 2025.0198588715866 -3410.576725302264 3803.6485331868753 772.0085723344237 1961.3528145020828 3430.135448515415 -413.223045499064 517.3311733845621 2205.0618507014588 -2178.6561295352876 3205.692519452423 -2681.7823110073805 20824.80725094676 -4690.855461036786 -2498.2828291412443 -2731.349857866764 -1007.8851257422939 -2179.6443413719535 -412.98195102252066 -1258.3233523145318 -1165.5399312209338 -1179.5082213170826 -2615.0779794920236 -1565.4303486663848 -2668.2861306164414 -2424.2428615130484 -1383.443782016635 -4750.646194824949 956.1724277557805 -2258.858492573723 1038.7372090453282 -7329.402355466038 3369.694932455197 z" vector-effect="non-scaling-stroke" fill="#000" fill-opacity="1" stroke="#FFF" stroke-width="0.3px" stroke-linejoin="round" stroke-linecap="round"><title>Hamilton County</title></path>
<path id="39063" d="M -9337484.409297843 -4985814.041512172 l -41.07589022256434 -14796.832027358003 -81.48375219106674 -36510.63916209992 17146.536157511175 -108.09754054713994 25291.557876884937 410.05971604119986 8779.876775365323 -153.19610743410885 82.93146217055619 25828.39996245876 -4169.470080506057 32.297828742302954 9.461711436510086 6362.317666985095 -2127.537551442161 20.339066242799163 5.788279557600617 6396.589844893664 -4228.692272247747 -22.24059817381203 -128.57456846162677 12802.835647899657 -13641.086394306272 -190.7844753311947 z" vector-effect="non-scaling-stroke" fill="#000" fill-opacity="1" stroke="#FFF" stroke-width="0.3px" stroke-linejoin="round" stroke-linecap="round"><title>Hancock County</title></path>
<path id="39065" d="M -9337499.995696347 -4960072.791243561 l 15.586398504674435 -25741.250268611126 26898.231753548607 71.04982231929898 13641.086394306272 190.7844753311947 2180.5252951048315 29.12483922485262 55.10203474573791 17094.873439181596 6189.027948521078 -100.73012105003 -8.348961809650064 2157.406886436045 2276.1488490160555 115.38909382373095 -61.22638785652816 11645.961011725478 565.2794836908579 13473.502820895985 -342.30754550918937 1502.681689391844 -11335.771616065875 168.80403895210475 19.258271910250187 -762.4997820137069 -12666.150293938816 -1163.9228103123605 -27386.70134518668 -2141.6630373569205 -10.575574267655611 -1003.039036391303 z" vector-effect="non-scaling-stroke" fill="#000" fill-opacity="1" stroke="#FFF" stroke-width="0.3px" stroke-linejoin="round" stroke-linecap="round"><title>Hardin County</title></path>
<path id="39067" d="M -9003841.969390161 -4889145.652867978 l -25512.192884998396 -1226.809514717199 -3122.2880758941174 -453.06312163639814 -9551.654582399875 138.68861394468695 -12650.454357055947 -280.29432735871524 167.87001475319266 -6157.6855666833 384.720939418301 -13137.730400592089 6599.239715497941 128.74472280126065 597.5640284586698 -19001.734047881328 6416.564987702295 4.241684672422707 12491.489901563153 662.3437507236376 17654.820395875722 619.3078345460817 8459.94489278458 257.9478434436023 -673.3718224465847 6354.577654499561 z" vector-effect="non-scaling-stroke" fill="#000" fill-opacity="1" stroke="#FFF" stroke-width="0.3px" stroke-linejoin="round" stroke-linecap="round"><title>Harrison County</title></path>
<path id="39069" d="M -9376242.278740223 -5036835.969385825 l 96.29291800782084 -25738.5674938187 -122.11659084260464 -13074.092008235864 -12602.475767843425 35.928187193349004 -26.49348221346736 -8607.652262782678 31723.039676358923 -91.23871551826596 19368.027025226504 -209.5285031637177 -32.39463973604143 7650.481675939634 -38.73985071666539 13083.208140097558 270.17051172629 26665.91766448412 z" vector-effect="non-scaling-stroke" fill="#000" fill-opacity="1" stroke="#FFF" stroke-width="0.3px" stroke-linejoin="round" stroke-linecap="round"><title>Henry County</title></path>
<path id="39071" d="M -9282446.19223304 -4729580.073744622 l -13999.089876692742 2697.2619963837788 -11154.098429730162 2506.126905536279 -6837.9088150803 -220.6533735645935 -16012.302311094478 36.82274931110442 -6162.088631752878 -162.05382434651256 272.9556140638888 -4905.243939761072 454.51903938129544 -27533.179496716708 3481.5159613694996 232.5772362286225 -163.08316533453763 3220.8848856454715 3097.4216393604875 -266.44522714428604 2773.9008163977414 -5557.653257667087 21400.94412268512 -16535.645926095545 24279.664150858298 199.02894435171038 -805.8174148853868 2912.336949802004 -376.3639626055956 5808.045878867619 159.63181583955884 5569.1323538077995 -1233.0041796918958 1391.1333065973595 3245.506507061422 4021.0031099719927 2283.6984255574644 888.8120289258659 -1131.9777342993766 5265.294784095138 z" vector-effect="non-scaling-stroke" fill="#000" fill-opacity="1" stroke="#FFF" stroke-width="0.3px" stroke-linejoin="round" stroke-linecap="round"><title>Highland County</title></path>
<path id="39073" d="M -9145915.5457349 -4801711.398541421 l -914.8240206111223 13024.637342977338 -12582.549578998238 -951.5982331940904 -1030.039582265541 12784.88191253785 -25026.394961139187 -1666.8163033016026 -345.2019635885954 3787.6718838764355 -13002.780322777107 -935.732191151008 -144.7152267061174 2073.525571600534 -12568.523434475064 -950.1693684821948 875.1943932138383 -14436.364787349477 1025.3642749749124 -12422.65069696866 138.7040855269879 -2111.1952151935548 12265.622988706455 733.4319692226127 282.97459086962044 -6444.885136183351 13516.74230045639 831.6642982652411 862.9488039445132 -8490.379643260501 12672.606935726479 958.673314482905 -596.5614851210266 8414.587650765665 13128.571570014581 887.8593542836607 -169.87376558966935 4110.339480240829 z" vector-effect="non-scaling-stroke" fill="#000" fill-opacity="1" stroke="#FFF" stroke-width="0.3px" stroke-linejoin="round" stroke-linecap="round"><title>Hocking County</title></path>
<path id="39075" d="M -9152700.347026547 -4948858.10563125 l -61.78131550736725 -14573.480553601868 10515.903789009899 -95.24829471763223 24647.57462264411 206.20182400383055 28357.629943890497 -189.7612471440807 123.78693979978561 4918.853299112059 -1454.8342025391757 998.1710861241445 -851.8179680649191 26939.63990189787 -4394.6695217024535 -132.96272316295654 -41950.40323390812 -1187.8227816307917 -10979.215398373082 -495.2117564463988 616.4882305674255 -17107.34931081999 z" vector-effect="non-scaling-stroke" fill="#000" fill-opacity="1" stroke="#FFF" stroke-width="0.3px" stroke-linejoin="round" stroke-linecap="round"><title>Holmes County</title></path>
<path id="39077" d="M -9165656.36882173 -5022046.243746895 l -11084.30110900104 56.40061583556235 363.56878901459277 10688.87636678759 -9545.754649389535 -45.278278541751206 -22958.524879397824 -350.578563304618 -11655.814929453656 -145.4272491997108 -1179.316013796255 -38233.643976342864 -153.17528537660837 -5137.487761929631 9679.338149664924 287.71036591846496 34734.675955755636 626.3563656592742 11161.11144633405 43.99808567482978 z" vector-effect="non-scaling-stroke" fill="#000" fill-opacity="1" stroke="#FFF" stroke-width="0.3px" stroke-linejoin="round" stroke-linecap="round"><title>Huron County</title></path>
<path id="39079" d="M -9176656.19513514 -4726696.497356958 l -453.07066149264574 7206.625918242149 -1758.8485111258924 20057.999888272025 -13269.72446170263 -1271.8527331799269 -133.58350026793778 1286.0020203767344 -8288.401446156204 -656.7745908591896 -12317.60907958448 -829.3547274144366 808.9591848682612 -12945.094496913254 -5974.181442609057 -386.17469777632505 1035.38302914612 -12522.573202414438 114.77050632797182 -4277.516230247915 1209.7092404067516 -14838.895138005726 2137.2223471440375 143.72736461367458 423.0142876524478 -5773.521375567652 12557.391262752935 818.5683762952685 -155.73596761748195 1824.5146080944687 8571.932189205661 588.4230935135856 4249.842975504696 676.8517516953871 -442.60662935860455 5209.65132390894 12867.30472512357 955.1801576949656 z" vector-effect="non-scaling-stroke" fill="#000" fill-opacity="1" stroke="#FFF" stroke-width="0.3px" stroke-linejoin="round" stroke-linecap="round"><title>Jackson County</title></path>
<path id="39081" d="M -8980905.79487901 -4951877.363768155 l 818.0460761375725 2526.3310398254544 3696.1549259442836 5039.982391495258 2473.162525491789 4905.1476462306455 997.4182775132358 2594.589885125868 402.2286820039153 2129.481941307895 -573.4475559964776 3289.7854361645877 -2274.7660270258784 5733.953772482462 -198.39649846591055 3408.0835409006104 309.8247387763113 -21.408213519491255 722.9243904873729 156.99340466596186 771.8440544661134 342.5227327113971 478.32597045972943 524.4648970169947 86.96835826151073 702.8103108871728 -146.75909205712378 1573.1144150104374 59.79073379561305 716.9145086305216 722.9244905915111 3270.037229713984 146.7589919473976 1942.965004088357 -489.1969401538372 859.060612549074 -1070.797823548317 4529.326401221566 -625.0850625168532 883.5285133058205 -3016.7146144825965 2493.4037371268496 -1054.4913690015674 1153.8764508999884 -2345.4277305137366 5721.0924712838605 -1027.3136444110423 3355.638975236565 -812.6105912905186 5182.454531175084 -7958.821790790185 -333.7117741582915 -46.308908166363835 689.815906168893 -12982.409078607336 -638.544867371209 1262.2531532589346 -32091.464874237776 673.3718224465847 -6354.577654499561 -8459.94489278458 -257.9478434436023 150.05911886505783 -6385.922668041661 1724.8949532471597 54.579511740244925 416.11292450129986 -12934.71279299818 6384.504640398547 132.4516949020326 175.10589297302067 -6447.791394361295 12719.138371555135 358.4610158186406 46.30890817195177 1998.3412818806246 z" vector-effect="non-scaling-stroke" fill="#000" fill-opacity="1" stroke="#FFF" stroke-width="0.3px" stroke-linejoin="round" stroke-linecap="round"><title>Jefferson County</title></path>
<path id="39083" d="M -9165708.248268537 -4946923.185688598 l 13007.901241989806 -1934.9199426518753 4568.661885816604 -718.9705563858151 -616.4882305674255 17107.34931081999 -1258.3567484393716 31726.381617886946 -16741.110460728407 -166.39343029540032 -14588.971524449065 -816.8370939446613 138.0363912191242 -2755.369923038408 -30572.441753474995 -1788.9977701120079 647.7686735279858 -10603.05166305881 10957.062819704413 659.9128622598946 1469.8635583091527 -25856.850775484927 -1058.5367039963603 -34.26761900726706 1.113417549058795 -4086.6117987586185 2136.1089295949787 19.04580319300294 27687.931887272745 -145.47772287670523 z" vector-effect="non-scaling-stroke" fill="#000" fill-opacity="1" stroke="#FFF" stroke-width="0.3px" stroke-linejoin="round" stroke-linecap="round"><title>Knox County</title></path>
<path id="39085" d="M -9017167.512447448 -5138353.015362754 l -115.04346443712711 19950.83172961604 -10979.104078883305 123.77584106568247 93.06231506168842 10857.784075854346 -21512.707444291562 86.69225691538304 -134.25197380967438 10558.994628428482 -10588.595193861052 34.817078781314194 -10780.510329952464 -49.84659821446985 -88.8326196949929 -9124.954196220264 -1.047042142599821 -1247.1597296567634 15611.452557610348 -13378.553657157347 35865.0846580416 -17315.45277030673 z" vector-effect="non-scaling-stroke" fill="#000" fill-opacity="1" stroke="#FFF" stroke-width="0.3px" stroke-linejoin="round" stroke-linecap="round"><title>Lake County</title></path>
<path id="39087" d="M -9193815.192065928 -4638831.573678824 l -1116.999845214188 -1703.3295646402985 -1831.770908312872 -4580.618050017394 -1144.1772694606334 -2020.286415583454 -4190.0369674786925 -4291.438952496275 -3824.640304615721 -3918.7694617714733 -4275.038066908717 -2706.921456614509 -5177.334758885205 -1817.757318793796 -2970.2383012734354 -1679.9911929927766 7728.557809157297 -2580.6173144178465 -2866.6981910783798 -6754.456417036243 249.35565938055515 -5046.886049739085 6399.532994290814 353.2108885580674 547.8031028788537 -1908.2241940042004 691.4056912735105 -8431.206002661027 3605.525874108076 284.4735811194405 456.41002357006073 -2926.474503844045 973.7118086107075 -11513.630750346929 8288.401446156204 656.7745908591896 -790.368607275188 9343.325384035707 11025.190236752853 970.4000309221447 -326.9454557746649 4183.110269588418 2193.104731518775 214.08446802105755 -621.1630925890058 8410.097242332995 13122.782956495881 919.1828697323799 -790.3689412325621 12953.149427440949 9412.314882198349 -443.0251291077584 -1233.8634702656418 3083.6010832302272 -2372.6054551061243 12512.594694914296 -831.6347882542759 2520.122822230682 -1636.0920521579683 2467.454011058435 -1986.6833277605474 805.004245868884 -8346.24405038543 693.9184766607359 -9406.170804118738 3399.5225375639275 -4859.356692718342 513.2993793971837 -4044.0284591168165 -1879.9109591227025 z" vector-effect="non-scaling-stroke" fill="#000" fill-opacity="1" stroke="#FFF" stroke-width="0.3px" stroke-linejoin="round" stroke-linecap="round"><title>Lawrence County</title></path>
<path id="39089" d="M -9150006.530119738 -4900743.345258929 l 1456.9489389006048 65.18539422098547 -480.00997825711966 10456.464418691583 -1295.315153349191 31510.497464785352 -3665.0818016771227 -122.84995250683278 -253.69734216108918 5489.721643938683 -20559.81304837577 -1333.427876567468 -4914.419890258461 -1151.5618943572044 -1181.099463360384 771.5451559182256 -18164.886525329202 -1049.11385066621 -16240.840780418366 -1069.986204107292 965.1399851813912 -5296.019585023634 1335.6122524105012 -21774.05143355485 1232.975459260866 -22024.001498161815 30572.441753474995 1788.9977701120079 -138.0363912191242 2755.369923038408 14588.971524449065 816.8370939446613 z" vector-effect="non-scaling-stroke" fill="#000" fill-opacity="1" stroke="#FFF" stroke-width="0.3px" stroke-linejoin="round" stroke-linecap="round"><title>Licking County</title></path>
<path id="39091" d="M -9351100.785659501 -4936396.469611469 l 955.3437586706132 -131.13732071593404 -8.571378152817488 -7491.067610931583 9499.112005388364 -31.637335896492004 3184.070281961933 -486.0063030011952 10.575574267655611 1003.039036391303 27386.70134518668 2141.6630373569205 12666.150293938816 1163.9228103123605 -19.258271910250187 762.4997820137069 -3465.265653412789 40136.4258753676 -26050.53405379504 -2310.310958658345 23.154676720499992 -2169.7885851310566 -25560.839836437255 -1950.5346094304696 1231.5276379678398 -5760.189216343686 196.2568188663572 -11362.8445373727 z" vector-effect="non-scaling-stroke" fill="#000" fill-opacity="1" stroke="#FFF" stroke-width="0.3px" stroke-linejoin="round" stroke-linecap="round"><title>Logan County</title></path>
<path id="39093" d="M -9124671.310764024 -5087351.05880675 l -0.634491890668869 239.7192397462204 -326.7706841751933 22808.173310144804 10497.758600693196 118.18956355471164 -108.31464378163218 11184.168435259722 -10524.586597977206 -42.65899767447263 -218.07532773725688 11163.453840000555 -10913.091843480244 16.42178972158581 -200.486736882478 9390.07576872781 -10642.808008514345 -103.31764559447765 -179.89285372011364 10860.13399695605 -18368.15547024086 -329.54424098785967 -638.192525645718 -32209.074029442854 -642.5919832475483 -21260.032869681716 -36.68029058165848 -1851.1420722501352 6009.28245703131 -240.3127972530201 4833.348549166694 -1355.1796348914504 8650.874691385776 -4853.9813717175275 14745.8091330491 -4200.0120547786355 4767.811619685963 -131.27991187665612 z" vector-effect="non-scaling-stroke" fill="#000" fill-opacity="1" stroke="#FFF" stroke-width="0.3px" stroke-linejoin="round" stroke-linecap="round"><title>Lorain County</title></path>
<path id="39095" d="M -9258891.730228761 -5105998.42739548 l -872.9718597754836 1289.6127746030688 -5512.668158894405 -3.391622642055154 -20496.4723694399 643.7439445629716 -19838.659461133182 -70.0691454904154 -2518.458531944081 3113.859799045138 -4724.3745482340455 3742.5657420353964 -5055.035470593721 3281.115878143348 -1236.581257591024 1452.535050672479 -289.894507272169 1996.8775789253414 -770.0322849489748 1827.0823814105242 -1295.4660793803632 1536.416635569185 -4955.384233716875 3434.8791878782213 -6241.791109746322 5023.118522041477 -3578.385324165225 1849.0086291581392 -1560.4941756688058 10.433533355593681 32.39463973604143 -7650.481675939634 55.66096990928054 -19334.11330178473 564.9463044553995 -4.467253087088466 -1353.1041452270001 -15229.659829123877 9681.635778246447 -463.2594786947593 4382.090420154855 -238.02379131224006 4146.969586787745 -225.25808191113174 9566.378151066601 -463.30427128635347 9508.749337470159 0 9976.597888424993 -589.7858297675848 40.49793178588152 572.2661214675754 606.2165976911783 1141.5383180696517 8618.106226647273 2765.471434045583 1720.3443988543004 219.44769262056798 1867.8024901859462 -263.3378339111805 2605.0929468385875 -921.7393862186 1261.585892494768 87.78852185886353 2588.7087144684047 1667.8291934654117 5193.8016613051295 5571.957022931427 2932.7775942403823 2105.094117271714 z" vector-effect="non-scaling-stroke" fill="#000" fill-opacity="1" stroke="#FFF" stroke-width="0.3px" stroke-linejoin="round" stroke-linecap="round"><title>Lucas County</title></path>
<path id="39097" d="M -9296975.37728725 -4867421.7591849845 l 1384.9262302350253 -14730.864470189437 25096.192281866446 329.09602423291653 8014.778360424563 214.53926480468363 -659.3456779289991 8680.1188054597 -4634.674232535064 -167.0887669986114 485.46363143622875 10978.23493962083 2652.2968518063426 6015.190204524435 -2937.497943820432 2162.70186870452 927.1789256222546 15207.92993953079 -972.1537810135633 16950.649758640677 -23172.860428843647 -1389.2534658126533 -21454.553363069892 -1712.7519967090338 685.8398280590773 -8129.713869886473 6483.245362689719 632.7730229077861 2677.010780636221 -11529.886328502558 5869.431137604639 -23484.642068600282 z" vector-effect="non-scaling-stroke" fill="#000" fill-opacity="1" stroke="#FFF" stroke-width="0.3px" stroke-linejoin="round" stroke-linecap="round"><title>Madison County</title></path>
<path id="39099" d="M -8963471.35809067 -5030734.359312741 l 0 8628.29246325139 0 15466.22078078892 0 9098.983441747725 -33583.56914649159 -199.69673123862594 32.06012466736138 -4247.262869878672 -8302.316382501274 -60.558406048454344 -112.43268570303917 4255.978323362768 -21088.914476804435 -45.952316855080426 -16.251977736130357 -12755.590919411741 9685.126763178036 -37.90025952178985 1.782225050032139 -21523.44212519843 13435.924350133166 -40.496993268840015 39948.59120620787 180.27414127066731 z" vector-effect="non-scaling-stroke" fill="#000" fill-opacity="1" stroke="#FFF" stroke-width="0.3px" stroke-linejoin="round" stroke-linecap="round"><title>Mahoning County</title></path>
<path id="39101" d="M -9251921.60405699 -4968615.278287487 l 14968.682084910572 -84.2855386827141 13209.389409009367 -228.1928274575621 -161.07974845543504 8601.744789315388 -10916.876483529806 186.03288841061294 -65.12323795072734 22639.18390124291 -6501.501759180799 936.3119595283642 -444.2764217052609 7383.159021344036 -16065.401151612401 -763.8972834646702 -9292.948197115213 -726.5101543162018 46.0866031460464 -9226.09239931032 -18946.23747461103 263.8263759855181 342.30754550918937 -1502.681689391844 -565.2794836908579 -13473.502820895985 61.22638785652816 -11645.961011725478 12796.06036233157 -32.296289569698274 21.818620197474957 -2145.7885674173012 z" vector-effect="non-scaling-stroke" fill="#000" fill-opacity="1" stroke="#FFF" stroke-width="0.3px" stroke-linejoin="round" stroke-linecap="round"><title>Marion County</title></path>
<path id="39103" d="M -9142592.536705919 -5011134.309372963 l -4903.621899647638 -38.3455492593348 207.94525407627225 -10544.044583684765 179.89285372011364 -10860.13399695605 10642.808008514345 103.31764559447765 200.486736882478 -9390.07576872781 10913.091843480244 -16.42178972158581 218.07532773725688 -11163.453840000555 10524.586597977206 42.65899767447263 21482.762723911554 -306.3148073349148 -394.407182270661 42651.38204386737 -15627.359400616959 44.97864157613367 z" vector-effect="non-scaling-stroke" fill="#000" fill-opacity="1" stroke="#FFF" stroke-width="0.3px" stroke-linejoin="round" stroke-linecap="round"><title>Medina County</title></path>
<path id="39105" d="M -9101295.530738741 -4736133.459038224 l -458.22502553649247 687.3328802632168 -5579.563340775669 2296.9633696507663 -657.6982719562948 45.513767653144896 -48.91966397687793 511.1411456465721 508.2213373556733 1886.7976736202836 426.68856405094266 875.0185603620484 744.6664299927652 962.4331135191023 826.1994035206735 776.8792447047308 695.7467660158873 318.433301798068 1454.0021083503962 1091.695267189294 206.54982585459948 2546.831390359439 -551.7055164910853 5168.659311605617 717.4890057444572 2384.1086926283315 1030.0314869526774 2236.777264177799 57.07289125584066 1659.7893303437158 -2187.797568650916 646.3707832545042 -1209.4036883283406 -489.14157482329756 -1962.2234457060695 -2128.040785660036 -1353.4449378531426 -489.2678817436099 -1168.6372516229749 723.4091062285006 -671.2869840785861 1694.7422039201483 -853.3769278805703 3448.0140468021855 -1345.2917105760425 2025.6425720211118 -2163.337786713615 2304.5501420795918 -2413.371791699901 1274.261688331142 -2095.3937255274504 -1082.2393306195736 -793.5861940905452 -1564.2142916098237 211.98541081510484 -698.3876563580707 595.189695622772 -803.2051020823419 331.5667782891542 -1903.500836038962 247.31626255623996 -412.18111324775964 548.9876739513129 -244.52212124876678 551.7055164910853 -384.2608920978382 244.59852013364434 -827.9571085115895 -119.58156769908965 -960.7943728966638 -258.18723225593567 -761.7124846782535 -383.20438492298126 -761.7697936361656 -540.8343465682119 -2271.671361400746 -1027.3137445207685 -2247.7078095450997 -1494.7684449460357 -1723.6967941801995 -3500.476270020008 -1468.6949948072433 -1717.6249255724251 -1608.814901318401 -2076.3694284465164 -1381.6862439485267 -2633.5103296805173 -52.47284124046564 -3533.089379336685 2700.2478880332783 -3766.8167295455933 4961.40399649553 -362.3922290895134 -4896.0343623152 -25428.592170054093 -1486.4411859186366 113.54599192366004 -2080.4651593025774 1803.9331275429577 -25513.296837056987 4239.712790522724 249.10274884756655 21004.75694176182 1425.2550495350733 36310.79185535014 2321.6253708153963 -154.9123193360865 1780.852929824032 312.5424812063575 5319.655089800246 -252.75174741074443 3289.215517276898 z" vector-effect="non-scaling-stroke" fill="#000" fill-opacity="1" stroke="#FFF" stroke-width="0.3px" stroke-linejoin="round" stroke-linecap="round"><title>Meigs County</title></path>
<path id="39107" d="M -9441040.14134792 -4917346.484576885 l 55.45682602748275 -6737.675201230682 100.55717050284147 -11898.17220275011 95.12158553861082 -11909.02152523771 12.467178873717785 -1562.4035223135725 82.65450677648187 -10364.676514983177 95.12158554047346 -11938.038952478208 18807.674752371386 -490.39811342116445 20174.09112410061 -87.2546153254807 -1.447487343102694 6365.853874297813 133.35863490216434 32113.853741800413 -47.9794797655195 15631.38259324897 2340.6027228608727 627.4272005669773 -27.161955755203962 40.17136336583644 -18375.05761262402 364.4567872779444 z" vector-effect="non-scaling-stroke" fill="#000" fill-opacity="1" stroke="#FFF" stroke-width="0.3px" stroke-linejoin="round" stroke-linecap="round"><title>Mercer County</title></path>
<path id="39109" d="M -9353385.397572802 -4892707.5075284485 l -1466.523750944063 20925.490978048183 -1666.4534450918436 23291.193575463258 -11531.471392203122 -843.573134903796 -977.9442869648337 -1393.2899241093546 217.18744348548353 -3965.7557949675247 -29494.535569405183 429.78599994350225 -17.365506602451205 -7368.043023253791 -668.2484542056918 -32983.78345783707 19213.293155664578 -258.39657408278435 4577.7898614201695 489.2455263938755 z" vector-effect="non-scaling-stroke" fill="#000" fill-opacity="1" stroke="#FFF" stroke-width="0.3px" stroke-linejoin="round" stroke-linecap="round"><title>Miami County</title></path>
<path id="39111" d="M -9010662.56011567 -4807706.43819549 l -10535.620863750577 8364.31629451923 224.25394358672202 -4613.825121410191 -23378.978150844574 -999.26761107333 -2063.7514832224697 321.64195890072733 120.00274503603578 -4123.636070188135 -2093.473675938323 -63.5740218879655 277.85400561243296 -14649.523386261426 -4290.919756280258 -35.88572355825454 616.0431752428412 -23484.92851893045 8490.891599910334 238.2990627475083 11386.867151018232 358.3801644127816 13122.114816909656 1040.548461987637 21751.570114798844 2289.154725605622 -706.6178358215839 1670.5642112353817 -385.9220272321254 1493.360553770326 -459.30167337693274 2865.7755773989484 -603.3430230077356 1492.7072800230235 -2424.2426612805575 1584.4302918715402 -905.0144344065338 1205.8372916970402 633.2381896823645 1746.6142621785402 1766.5446896702051 2011.409352440387 1168.6372516211122 1675.275764817372 366.8977301493287 1929.399447409436 -606.0607654359192 2783.897159928456 -1780.133301679045 1469.358714750968 -500.0681100860238 600.3968861503527 -114.14598273299634 639.2062896098942 157.63016187027097 1624.3182755848393 -43.48417913727462 695.5512760989368 -1309.9607587140054 3957.0123564349487 -209.26766839064658 1475.095237415284 z" vector-effect="non-scaling-stroke" fill="#000" fill-opacity="1" stroke="#FFF" stroke-width="0.3px" stroke-linejoin="round" stroke-linecap="round"><title>Monroe County</title></path>
<path id="39113" d="M -9391493.837788815 -4806465.515652111 l -12684.852079709992 -220.2934148190543 -195.36470446549356 -16309.628634507768 -494.92445231601596 -31105.801119334996 6563.840451380238 -162.41700820159167 29494.535569405183 -429.78599994350225 -217.18744348548353 3965.7557949675247 977.9442869648337 1393.2899241093546 11531.471392203122 843.573134903796 -300.2288893070072 4256.955361018889 -144.60424117930233 2044.2923904955387 -4219.230004217476 -289.9453557897359 -2114.8490219246596 30687.20250802394 -251.91623029857874 6989.31437703874 -19095.96230104752 -1614.1200406644493 z" vector-effect="non-scaling-stroke" fill="#000" fill-opacity="1" stroke="#FFF" stroke-width="0.3px" stroke-linejoin="round" stroke-linecap="round"><title>Montgomery County</title></path>
<path id="39115" d="M -9110928.06388346 -4786366.762122346 l -23479.05448438786 -1418.2342751491815 918.4974524918944 -13096.37255762145 881.9842142369598 87.77764592971653 1712.7625759020448 -25219.973927257583 -6234.4461894501 -432.3343202304095 399.08070845529437 -6267.398091735318 42212.00370331481 2228.4369704807177 6415.896848123521 393.4149321410805 -377.70747754350305 12614.340450706892 6352.778696844354 244.10212656389922 -228.53935987874866 11131.51877583377 -10314.000161765143 -418.9838018650189 -1189.3459621500224 -1105.7707713078707 -2160.619999527931 817.0740668224171 -1085.683183800429 1508.9147221054882 -170.7207865808159 7201.266646692529 1908.238154584542 80.82539835572243 -420.5652588531375 7242.6406514132395 -5799.966328205541 -285.8611792838201 -2504.6876522880048 -1413.4156669024378 -4421.163671830669 -141.51104220282286 -287.872425833717 6400.048608696088 z" vector-effect="non-scaling-stroke" fill="#000" fill-opacity="1" stroke="#FFF" stroke-width="0.3px" stroke-linejoin="round" stroke-linecap="round"><title>Morgan County</title></path>
<path id="39117" d="M -9223743.53256307 -4968927.756653627 l 10.909421414136887 -1087.0031885243952 14587.301620772108 178.87559493351728 11128.940002175048 262.43243011273444 114.2133522760123 6354.372119918466 -2094.141592890024 -43.000732557848096 95.73442812822759 4282.238694990054 2154.8107153680176 -6.30775423720479 128.1278433445841 12813.38282181602 -2136.1089295949787 -19.04580319300294 -1.113417549058795 4086.6117987586185 1058.5367039963603 34.26761900726706 -1469.8635583091527 25856.850775484927 -10957.062819704413 -659.9128622598946 -20555.80554671213 -1245.8921892913058 533.3320143464953 -8284.09167986922 -10829.379363764077 -596.2599595114589 142.71147588081658 -2181.085125735961 444.2764217052609 -7383.159021344036 6501.501759180799 -936.3119595283642 65.12323795072734 -22639.18390124291 10916.876483529806 -186.03288841061294 z" vector-effect="non-scaling-stroke" fill="#000" fill-opacity="1" stroke="#FFF" stroke-width="0.3px" stroke-linejoin="round" stroke-linecap="round"><title>Morrow County</title></path>
<path id="39119" d="M -9149029.591159094 -4890221.695446016 l 11115.69287144579 750.1927197938785 23910.306080402806 680.5145914331079 17389.76879961416 712.79998485744 -1370.4556983094662 32028.217159351334 4172.587248891592 166.07603919692338 -338.63433627411723 12784.169330261648 -366.90970957279205 12614.86494319234 -42212.00370331481 -2228.4369704807177 368.57883401587605 -6560.467322082259 -10766.706490447745 -653.357061251998 853.8209396600723 -12845.396300771274 -7970.13913329877 -571.8079572832212 253.69734216108918 -5489.721643938683 3665.0818016771227 122.84995250683278 z" vector-effect="non-scaling-stroke" fill="#000" fill-opacity="1" stroke="#FFF" stroke-width="0.3px" stroke-linejoin="round" stroke-linecap="round"><title>Muskingum County</title></path>
<path id="39121" d="M -9042933.022521261 -4858862.358171278 l -363.23605505749583 12109.536838645115 -8490.891599910334 -238.2990627475083 -616.0431752428412 23484.92851893045 4290.919756280258 35.88572355825454 -277.85400561243296 14649.523386261426 -50.6507022716105 2016.5396770061925 -8116.857999522239 -241.8250916013494 17.254632391035557 -1062.2775247581303 -4301.829066380858 -98.53343637567014 -11.354588065296412 -2042.2556519927457 -2094.364231862128 -27.88977922219783 20.59410579316318 -2114.0799779761583 -4346.690821168944 -95.8293824614957 86.49535566195846 -2064.815014676191 -2362.7554128486663 -76.18878027051687 -34.62080691754818 9054.394821450114 -12769.900059355423 -527.9414851758629 228.53935987874866 -11131.51877583377 -6352.778696844354 -244.10212656389922 377.70747754350305 -12614.340450706892 -6415.896848123521 -393.4149321410805 366.90970957279205 -12614.86494319234 12671.827587969601 512.069462521933 192.58316435292363 -8500.82903284207 12743.294923696667 459.23204543441534 152.1738552339375 -4225.582735380158 8396.715088054538 328.33617914188653 145.2722694464028 -4252.071691682562 4257.523797724396 -426.9332077149302 z" vector-effect="non-scaling-stroke" fill="#000" fill-opacity="1" stroke="#FFF" stroke-width="0.3px" stroke-linejoin="round" stroke-linecap="round"><title>Noble County</title></path>
<path id="39123" d="M -9234584.917740032 -5079290.845455723 l -437.7479276023805 -259.9730087351054 66.92112030647695 -66.9671993162483 z M -9238579.628039721 -5079672.31578426 l -980.3622916787863 306.45127760618925 -2396.472212428227 -496.49731085821986 -3009.5232435129583 0 -1386.5068946611136 -848.2579245613888 6579.783817879856 262.08933918271214 1081.3593364227563 306.07218590565026 z M -9246355.836163575 -5080712.665357512 l -9.47599027492106 -5.797621280886233 -13547.129448594525 526.4070358183235 -17253.180007049814 133.38461505342275 -144.826434886083 -6488.283595535904 -8362.874074175954 140.16177108045667 -100.52049831487238 -17661.66914657876 20496.4723694399 -643.7439445629716 5512.668158894405 3.391622642055154 872.9718597754836 -1289.6127746030688 1997.498537933454 857.1771500073373 3768.373445112258 964.3809962542728 2965.5460589788854 0 2850.856432389468 2673.459087042138 5685.32863240689 7140.1858196863905 3276.8464740104973 1488.695653305389 1867.8024901859462 350.24784157332033 3883.0630717035383 1488.4110537916422 2195.487137587741 87.54641954787076 3735.6049803718925 -831.7231566952541 1736.7286312244833 -831.7950812513009 1441.8124485649168 -1313.5071432916448 557.0639005824924 -1313.6865875907242 507.9112034700811 -2058.469961799681 262.1477179210633 -1883.6672694999725 -196.61078844033182 -832.4357283683494 1966.1078844051808 788.6251194449142 1376.2755190841854 1708.4657681901008 1261.585892494768 2496.442301446572 524.2954358421266 525.4842067025602 704.5219919122756 963.3131324620917 868.3643156122416 656.7490853378549 1802.2655607070774 -1050.8200663253665 1163.2804982736707 -131.3605824392289 4227.131951471791 525.4315634267405 1130.5120335351676 744.3122415374964 688.13775954023 1400.9020932931453 704.5219919141382 2451.0878675924614 -7569.515354966745 306.3420835370198 -3751.9892127402127 962.7259216709062 -2424.8663907684386 1968.912217351608 -2621.4771792069077 -1356.3185884645209 -2457.6348555069417 131.264990683645 -5226.570126049221 1225.0535977808759 -2818.0879676472396 174.99493052437901 -1130.5120335351676 262.4864314487204 -1015.8224069420248 481.20653744321316 -868.3643156122416 1093.561784496531 -573.4481329526752 1355.8441561982036 -802.8273861315101 612.2541523985565 -1490.9651456754655 -1093.3382930951193 -1835.0340254455805 962.1442511649802 -4030.5211630333215 174.924992127344 z" vector-effect="non-scaling-stroke" fill="#000" fill-opacity="1" stroke="#FFF" stroke-width="0.3px" stroke-linejoin="round" stroke-linecap="round"><title>Ottawa County</title></path>
<path id="39125" d="M -9440288.725797823 -5010776.730078392 l 70.44984554685652 -8889.268554869108 95.12158553861082 -12015.241432852112 92.40404333919287 -12026.53579350654 48.35425631701946 -5952.860292895697 30699.27874300629 -40.94438143726438 7444.711470711976 -99.65059146191925 122.56220276653767 6437.301665553823 12749.973870502785 117.3418238395825 102.19084727019072 6460.598282160237 -34.39916981011629 25818.317260768265 -6409.217789988965 55.598954857327044 -26997.639947503805 125.50156632531434 z" vector-effect="non-scaling-stroke" fill="#000" fill-opacity="1" stroke="#FFF" stroke-width="0.3px" stroke-linejoin="round" stroke-linecap="round"><title>Paulding County</title></path>
<path id="39127" d="M -9133488.620915355 -4800881.368955117 l -12426.924819543958 -830.0295863039792 -11612.734397837892 -802.5187968313694 169.87376558966935 -4110.339480240829 -13128.571570014581 -887.8593542836607 596.5614851210266 -8414.587650765665 943.9897272028029 -12668.407470371574 -4251.84672633186 -301.8560238266364 785.1369251608849 -12816.670947400853 -8298.19756134972 -596.3979597678408 993.4156924430281 -13519.27983581461 4914.419890258461 1151.5618943572044 20559.81304837577 1333.427876567468 7970.13913329877 571.8079572832212 -853.8209396600723 12845.396300771274 10766.706490447745 653.357061251998 -368.57883401587605 6560.467322082259 -399.08070845529437 6267.398091735318 6234.4461894501 432.3343202304095 -1712.7625759020448 25219.973927257583 z" vector-effect="non-scaling-stroke" fill="#000" fill-opacity="1" stroke="#FFF" stroke-width="0.3px" stroke-linejoin="round" stroke-linecap="round"><title>Perry County</title></path>
<path id="39129" d="M -9219953.3354461 -4836195.106178291 l -1487.4518152177334 21042.355487124994 360.45251118950546 23.27704038657248 -948.6652571354061 12632.591361108236 12398.983849992976 1092.8688787957653 -1025.3642749749124 12422.65069696866 -1031.82002620399 41.52972424402833 -27630.157071551308 -1730.407760555856 1982.3769354484975 -1471.2025135029107 -391.7331767808646 -2361.5872823605314 -18279.545266889036 -701.9481603121385 -13204.045962136239 -685.8356892326847 1592.0923592019826 -25890.43722102698 972.1537810135633 -16950.649758640677 8434.007228797302 546.0441106017679 14505.370475545526 459.07200012821704 z" vector-effect="non-scaling-stroke" fill="#000" fill-opacity="1" stroke="#FFF" stroke-width="0.3px" stroke-linejoin="round" stroke-linecap="round"><title>Pickaway County</title></path>
<path id="39131" d="M -9269664.715169279 -4723933.671655677 l -4408.138957448304 -3808.349396603182 -464.313262142241 -1407.7147913575172 -7909.024844171479 -430.337900984101 3574.0235714074224 -20432.41391577106 6967.2622860223055 317.7347482005134 23569.55711908266 1632.4683366408572 22756.813850758597 1428.4446892756969 9895.743128439412 759.7345393979922 -1209.7092404067516 14838.895138005726 -114.77050632797182 4277.516230247915 -1035.38302914612 12522.573202414438 -21463.28181301616 -1180.9451502328739 -17193.17891283706 -298.62271590158343 -6433.262577360496 -248.95387044548988 -311.80578239262104 -4521.882157037035 -2039.4835002720356 -1006.4897922417149 -585.6517297402024 -1611.4218584317714 z" vector-effect="non-scaling-stroke" fill="#000" fill-opacity="1" stroke="#FFF" stroke-width="0.3px" stroke-linejoin="round" stroke-linecap="round"><title>Pike County</title></path>
<path id="39133" d="M -9060475.287557358 -5063846.134395032 l 54.323800183832645 -1.037853843532503 9926.022141261026 139.2403164813295 33261.36305171065 -77.84742745012045 377.70491719059646 31630.491428101435 -1.782225050032139 21523.44212519843 -9685.126763178036 37.90025952178985 -34132.66037219018 -53.82995389029384 147.1655913386494 -21732.323014517315 z" vector-effect="non-scaling-stroke" fill="#000" fill-opacity="1" stroke="#FFF" stroke-width="0.3px" stroke-linejoin="round" stroke-linecap="round"><title>Portage County</title></path>
<path id="39135" d="M -9441957.449087221 -4803302.604991987 l 21.548209372907877 -2587.5361152188852 92.40394322760403 -11753.575810491107 71.93932722136378 -8653.598014731891 25.900000739842653 -3117.3545087119564 95.12158553861082 -11781.320304756053 92.4038431160152 -11798.818608801812 21206.286339815706 -817.0181902600452 15482.866812882945 -289.41227581351995 494.92445231601596 31105.801119334996 195.36470446549356 16309.628634507768 28.052289040759206 3210.446105763316 -11501.192490700632 179.6431024800986 z" vector-effect="non-scaling-stroke" fill="#000" fill-opacity="1" stroke="#FFF" stroke-width="0.3px" stroke-linejoin="round" stroke-linecap="round"><title>Preble County</title></path>
<path id="39137" d="M -9337525.485188065 -5000610.87353953 l -12780.03024434112 86.32959762308747 7.0130165964365 2176.714797387831 -12729.491306835786 49.48769582249224 -7.792809633538127 6439.617387955077 -12823.890012394637 248.1579045848921 -12884.781996496022 30.761093685403466 -48.75749168731272 -6551.515759361908 -6395.414173133671 -39.91478112246841 -118.66568663157523 -12740.837535279803 6409.217789988965 -55.598954857327044 34.39916981011629 -25818.317260768265 12621.400192599744 -49.98003196436912 38635.309799967334 -285.54331580456346 z" vector-effect="non-scaling-stroke" fill="#000" fill-opacity="1" stroke="#FFF" stroke-width="0.3px" stroke-linejoin="round" stroke-linecap="round"><title>Putnam County</title></path>
<path id="39139" d="M -9176377.101141717 -5011300.966764272 l 1658.8824952039868 2.064775563776493 212.7304337117821 17009.489700479433 69.52672444097698 5748.450974215753 1287.1308279372752 2531.525903629139 1656.3367256708443 5930.567476654425 1505.3252442888916 8173.228958787397 4028.564445607364 -203.8707952015102 250.35597631894052 25186.324081545696 -4221.456616671756 604.9412985453382 -27687.931887272745 145.47772287670523 -128.1278433445841 -12813.38282181602 -2154.8107153680176 6.30775423720479 -95.73442812822759 -4282.238694990054 2094.141592890024 43.000732557848096 -114.2133522760123 -6354.372119918466 -11128.940002175048 -262.43243011273444 331.7337523549795 -32253.17529412359 -67.79290197603405 -9607.764064776711 22958.524879397824 350.578563304618 z" vector-effect="non-scaling-stroke" fill="#000" fill-opacity="1" stroke="#FFF" stroke-width="0.3px" stroke-linejoin="round" stroke-linecap="round"><title>Richland County</title></path>
<path id="39141" d="M -9281013.84211861 -4775868.246072461 l 11803.537118250504 -20022.56832316611 13204.045962136239 685.8356892326847 18279.545266889036 701.9481603121385 391.7331767808646 2361.5872823605314 -1982.3769354484975 1471.2025135029107 27630.157071551308 1730.407760555856 1031.82002620399 -41.52972424402833 -875.1943932138383 14436.364787349477 -1591.9808170739561 23041.0985687254 -423.0142876524478 5773.521375567652 -2137.2223471440375 -143.72736461367458 -9895.743128439412 -759.7345393979922 -22756.813850758597 -1428.4446892756969 -23569.55711908266 -1632.4683366408572 -6967.2622860223055 -317.7347482005134 1131.9777342993766 -5265.294784095138 -2283.6984255574644 -888.8120289258659 -3245.506507061422 -4021.0031099719927 1233.0041796918958 -1391.1333065973595 -159.63181583955884 -5569.1323538077995 376.3639626055956 -5808.045878867619 z" vector-effect="non-scaling-stroke" fill="#000" fill-opacity="1" stroke="#FFF" stroke-width="0.3px" stroke-linejoin="round" stroke-linecap="round"><title>Ross County</title></path>
<path id="39143" d="M -9221869.686899131 -5055213.382593591 l 153.17528537660837 5137.487761929631 -26211.835884634405 -231.14894638303667 -18831.689941219985 582.9657428683713 -10136.193228561431 -311.69185111951083 -9357.736029433087 159.62212423421443 490.3639154173434 -25816.125188425183 90.2806636299938 -10714.52020189073 8362.874074175954 -140.16177108045667 144.826434886083 6488.283595535904 17253.180007049814 -133.38461505342275 13547.129448594525 -526.4070358183235 9.47599027492106 5.797621280886233 -3.334113309159875 1.77962641697377 6.677594881504774 0.26598902232945 1386.5068946611136 848.2579245613888 3009.5232435129583 0 2396.472212428227 496.49731085821986 980.3622916787863 -306.45127760618925 314.26855364255607 1322.3708438239992 1032.2066393140703 349.71980946697295 1228.8174277525395 -568.3011359451339 981.6697513777763 -982.2921975441277 437.7479276023805 259.9730087351054 3348.393940705806 2951.616127576679 1188.8182352352887 -485.6170396115631 1497.7971368599683 780.4804090512916 5986.9250752758235 83.95969418343157 z" vector-effect="non-scaling-stroke" fill="#000" fill-opacity="1" stroke="#FFF" stroke-width="0.3px" stroke-linejoin="round" stroke-linecap="round"><title>Sandusky County</title></path>
<path id="39145" d="M -9218345.428488078 -4661550.686091734 l -1872.8117366693914 -1059.4195700315759 -3255.8776497673243 -5463.63072882127 -2687.8656787350774 -9442.169147393666 -350.5911754835397 -2772.0108628543094 10.870969701558352 -2831.990036010742 -361.46214518509805 -2066.142141647637 -1323.5496710706502 -968.7571676457301 -2888.9799196179956 466.9664444392547 -6769.942631911486 3459.763710996136 -2831.9070283640176 435.43588043004274 -2288.354739146307 738.4568711593747 -1774.6979169473052 1713.5710117127746 -1540.9704666174948 1974.429282547906 -1581.736903326586 1507.5519278319553 -3000.4081599339843 1141.830990742892 -869.6834825407714 713.5797034008428 -611.496250282973 1082.4572499785572 -1163.2017667740583 2992.6927273906767 -885.9900372009724 1412.5248453104869 -1992.1188126057386 1280.1492717964575 -2350.86331547983 118.26653210446239 -5087.648558082059 -956.607094289735 -2611.768290165812 222.63657262641937 -1671.4231041297317 1029.6309922626242 -1361.598265234381 1133.8653871612623 82.08412295021117 -3287.605757176876 -22.930033991113305 -35393.1672249157 -254.36403458938003 -19565.29523504805 3595.395800448954 830.2353351768106 585.6517297402024 1611.4218584317714 2039.4835002720356 1006.4897922417149 311.80578239262104 4521.882157037035 6433.262577360496 248.95387044548988 17193.17891283706 298.62271590158343 21463.28181301616 1180.9451502328739 5974.181442609057 386.17469777632505 -808.9591848682612 12945.094496913254 12317.60907958448 829.3547274144366 -973.7118086107075 11513.630750346929 -456.41002357006073 2926.474503844045 -3605.525874108076 -284.4735811194405 -691.4056912735105 8431.206002661027 -547.8031028788537 1908.2241940042004 -6399.532994290814 -353.2108885580674 -249.35565938055515 5046.886049739085 2866.6981910783798 6754.456417036243 z" vector-effect="non-scaling-stroke" fill="#000" fill-opacity="1" stroke="#FFF" stroke-width="0.3px" stroke-linejoin="round" stroke-linecap="round"><title>Scioto County</title></path>
<path id="39147" d="M -9220537.195599958 -5011842.250855318 l -2634.5976093690842 442.46622225642204 -28894.300875043496 26.693065988831222 -34239.97258395329 228.74489596206695 -82.93146217055619 -25828.39996245876 135.03143289126456 -12903.401128491387 9357.736029433087 -159.62212423421443 10136.193228561431 311.69185111951083 18831.689941219985 -582.9657428683713 26211.835884634405 231.14894638303667 z" vector-effect="non-scaling-stroke" fill="#000" fill-opacity="1" stroke="#FFF" stroke-width="0.3px" stroke-linejoin="round" stroke-linecap="round"><title>Seneca County</title></path>
<path id="39149" d="M -9399192.462227535 -4917595.607814711 l 45.863852847367525 -3476.6973274284974 10585.701221056283 -59.03615099564195 -29.721524802967906 -14943.1484095091 25826.336821973324 -328.71296303439885 11663.496196959168 6.733054209500551 48.42319926060736 13514.034063960426 -196.2568188663572 11362.8445373727 -1231.5276379678398 5760.189216343686 -905.250655727461 13051.894265343435 -21814.271944846958 -1677.1258293054998 -4577.7898614201695 -489.2455263938755 -19213.293155664578 258.39657408278435 -228.8716485556215 -22939.954141279683 z" vector-effect="non-scaling-stroke" fill="#000" fill-opacity="1" stroke="#FFF" stroke-width="0.3px" stroke-linejoin="round" stroke-linecap="round"><title>Shelby County</title></path>
<path id="39151" d="M -9026595.661508441 -4972283.129641487 l -12390.63466554135 -191.99441699963063 -48.75815960764885 1007.0792753072456 -4251.289906242862 -180.08009969163686 -447.8386454191059 10717.930843414739 -8514.15759612061 -150.83458055742085 -16965.752970511094 -425.37112865783274 -19903.139594826847 2914.8591450741515 -123.78693979978561 -4918.853299112059 181.3398957811296 -11788.516189896502 75.69881221093237 -24421.722306171432 25336.419520352036 1138.4827575488016 423.12571846693754 -12055.7453964632 2548.99303226918 -9.880463221110404 34132.66037219018 53.82995389029384 16.251977736130357 12755.590919411741 z" vector-effect="non-scaling-stroke" fill="#000" fill-opacity="1" stroke="#FFF" stroke-width="0.3px" stroke-linejoin="round" stroke-linecap="round"><title>Stark County</title></path>
<path id="39153" d="M -9093126.509259267 -5053307.123065379 l 13781.199710411951 147.70020636357367 -1136.9300207141787 -3170.776055652648 -1496.969858294353 -4302.47124664858 -1338.3211323637515 -3597.1450060214847 22842.24300286919 383.68077230639756 -52.98985873349011 31466.035879601724 -147.1655913386494 21732.323014517315 -2548.99303226918 9.880463221110404 -423.12571846693754 12055.7453964632 -25336.419520352036 -1138.4827575488016 5.232461342588067 -10933.043689229526 -4542.167624361813 -2.064933504909277 z" vector-effect="non-scaling-stroke" fill="#000" fill-opacity="1" stroke="#FFF" stroke-width="0.3px" stroke-linejoin="round" stroke-linecap="round"><title>Summit County</title></path>
<path id="39155" d="M -8963471.35809067 -5084222.6580736 l 0 15569.34415046405 0 15540.644241633825 0 15519.315553447232 0 5577.843344314024 -39948.59120620787 -180.27414127066731 -13435.924350133166 40.496993268840015 -377.70491719059646 -31630.491428101435 7.348199587315321 -22837.112759045325 37612.17269403674 350.4813967877999 16142.699579907581 -22.531502683646977 z" vector-effect="non-scaling-stroke" fill="#000" fill-opacity="1" stroke="#FFF" stroke-width="0.3px" stroke-linejoin="round" stroke-linecap="round"><title>Trumbull County</title></path>
<path id="39157" d="M -9052248.340481373 -4961081.028620014 l -436.92944664135575 12451.094601049088 6335.746703425422 235.48802629392594 -579.6413677930832 19258.909482569434 -597.5640284586698 19001.734047881328 -6599.239715497941 -128.74472280126065 -384.720939418301 13137.730400592089 -31684.411590408534 -1028.5027348296717 740.6096854414791 -21426.799608379602 -10715.38831651397 -392.4542164215818 351.324758220464 -10814.11899467837 4394.6695217024535 132.96272316295654 851.8179680649191 -26939.63990189787 1454.8342025391757 -998.1710861241445 19903.139594826847 -2914.8591450741515 z" vector-effect="non-scaling-stroke" fill="#000" fill-opacity="1" stroke="#FFF" stroke-width="0.3px" stroke-linejoin="round" stroke-linecap="round"><title>Tuscarawas County</title></path>
<path id="39159" d="M -9295590.451057015 -4882152.623655174 l 1025.9210950713605 -16607.070628065616 -6327.3977416194975 -569.0733573324978 3465.265653412789 -40136.4258753676 11335.771616065875 -168.80403895210475 18946.23747461103 -263.8263759855181 -46.0866031460464 9226.09239931032 -104.97472509741783 6601.411884827539 123.5632989462465 22540.188170709647 8471.188161356375 30.481247917748988 261.48848200030625 14743.650976574048 -23.8228163048625 5124.014408505522 -4016.183253005147 22.996476896107197 -8014.778360424563 -214.53926480468363 z" vector-effect="non-scaling-stroke" fill="#000" fill-opacity="1" stroke="#FFF" stroke-width="0.3px" stroke-linejoin="round" stroke-linecap="round"><title>Union County</title></path>
<path id="39161" d="M -9440598.76249466 -4971756.472495878 l 95.12168565578759 -11956.225425865501 95.1216856520623 -11967.29496625252 41.66490457393229 -5248.089368689805 53.456680964678526 -6737.520952262916 24.671739991754293 -3111.1268694428727 17983.789957696572 -9.841493518091738 26997.639947503805 -125.50156632531434 118.66568663157523 12740.837535279803 6395.414173133671 39.91478112246841 48.75749168731272 6551.515759361908 47.86693576537073 6320.452966246754 -6375.599192453548 29.711882919073105 66.34519200026989 19251.974386646412 -6612.59849967435 9.39447633177042 1.447487343102694 -6365.853874297813 -20174.09112410061 87.2546153254807 z" vector-effect="non-scaling-stroke" fill="#000" fill-opacity="1" stroke="#FFF" stroke-width="0.3px" stroke-linejoin="round" stroke-linecap="round"><title>Van Wert County</title></path>
<path id="39163" d="M -9160442.958916774 -4776853.4775191 l -981.0590063203126 12838.83736545965 4256.076866984367 299.3329012906179 -928.4051098115742 12815.789867374115 -4239.712790522724 -249.10274884756655 -1803.9331275429577 25513.296837056987 -12516.20305115357 -1061.1740601919591 1181.7680482175201 -14734.212689671665 -12867.30472512357 -955.1801576949656 442.60662935860455 -5209.65132390894 -4249.842975504696 -676.8517516953871 -8571.932189205661 -588.4230935135856 155.73596761748195 -1824.5146080944687 -12557.391262752935 -818.5683762952685 1591.9808170739561 -23041.0985687254 12568.523434475064 950.1693684821948 144.7152267061174 -2073.525571600534 13002.780322777107 935.732191151008 345.2019635885954 -3787.6718838764355 z" vector-effect="non-scaling-stroke" fill="#000" fill-opacity="1" stroke="#FFF" stroke-width="0.3px" stroke-linejoin="round" stroke-linecap="round"><title>Vinton County</title></path>
<path id="39165" d="M -9390168.582145225 -4763625.853032155 l 1848.4610351789743 -23573.934004803188 -335.1828754618764 -57.525898382999 882.7408528197557 -13694.247476919554 -3654.928462252021 959.0356876198202 -66.34619387425482 -6472.990927469917 8848.67233200185 48.39191729668528 19095.96230104752 1614.1200406644493 15272.250336296856 1272.9130316488445 -3314.7621471416205 45257.166572742164 -28118.40435817279 -2261.1851880177855 -464.98117908649147 -2535.5391482925043 -7687.053779527545 -698.0292154354975 z" vector-effect="non-scaling-stroke" fill="#000" fill-opacity="1" stroke="#FFF" stroke-width="0.3px" stroke-linejoin="round" stroke-linecap="round"><title>Warren County</title></path>
<path id="39167" d="M -9030879.984268393 -4786868.79482753 l -4432.668228780851 1643.6048859274015 -1973.094515517354 1682.0405977219343 -3152.6027368400246 3507.4504989478737 -1704.0361133422703 1125.501975260675 -2236.7173327412456 967.1273521492258 -2443.267158595845 692.7579394849017 -2323.6855908967555 253.17856054287404 -2263.8949572127312 907.1714619221166 -3872.809384902939 3655.9853942915797 -2638.9460147432983 354.98179697059095 -2198.6686384622008 -1602.7888239352033 -1459.4375932049006 -2696.4952729018405 -1070.7979236543179 -2531.918408524245 -1040.9024566505104 -1125.501975260675 -4745.210709979758 -38.69136376772076 -1752.9557773210108 858.2100079096854 -8389.728229515254 8117.713475943543 -891.4257222767919 2561.573237489909 -788.1506091244519 5574.175524598919 -1293.6543041747063 1776.624768407084 -883.2722947765142 -768.8958161249757 -665.8513991124928 -249.28949831984937 -665.8514992333949 252.80054845660925 -891.4256221633404 765.3847659882158 -763.6908271871507 -1070.8529046634212 -2424.2427614014596 951.4848064398393 -2753.091997483745 80.74928409978747 -2247.5883024409413 660.0124751953408 -1739.366965085268 4875.03072440438 -2849.3437051642686 3349.058961227536 206.49138020910323 -8017.050871294923 -10748.004815997556 -433.2516412716359 194.47548437304795 -4239.5953572308645 -2096.479524826631 -107.7501641465351 89.83494038879871 -2111.7844929685816 -2092.80587031506 -96.83808244857937 954.7881630882621 -19019.8816653369 2126.8694118577987 150.50536218564957 287.872425833717 -6400.048608696088 4421.163671830669 141.51104220282286 2504.6876522880048 1413.4156669024378 5799.966328205541 285.8611792838201 420.5652588531375 -7242.6406514132395 -1908.238154584542 -80.82539835572243 170.7207865808159 -7201.266646692529 1085.683183800429 -1508.9147221054882 2160.619999527931 -817.0740668224171 1189.3459621500224 1105.7707713078707 10314.000161765143 418.9838018650189 12769.900059355423 527.9414851758629 34.62080691754818 -9054.394821450114 2362.7554128486663 76.18878027051687 -86.49535566195846 2064.815014676191 4346.690821168944 95.8293824614957 -20.59410579316318 2114.0799779761583 2094.364231862128 27.88977922219783 11.354588065296412 2042.2556519927457 4301.829066380858 98.53343637567014 -17.254632391035557 1062.2775247581303 8116.857999522239 241.8250916013494 50.6507022716105 -2016.5396770061925 2093.473675938323 63.5740218879655 -120.00274503603578 4123.636070188135 2063.7514832224697 -321.64195890072733 23378.978150844574 999.26761107333 -224.25394358672202 4613.825121410191 -1841.0628335215151 1460.9182427721098 -3582.0089432094246 4061.9471560036764 -2576.437538523227 4750.355157332495 z" vector-effect="non-scaling-stroke" fill="#000" fill-opacity="1" stroke="#FFF" stroke-width="0.3px" stroke-linejoin="round" stroke-linecap="round"><title>Washington County</title></path>
<path id="39169" d="M -9142246.224553045 -4963526.834479569 l -124.89946679398417 -19953.756032885984 252.25074537098408 -12159.569001330063 -318.15088204853237 -2784.983225496486 -155.51254940219223 -12709.166633681394 33444.26086376421 523.5469930274412 15627.359400616959 -44.97864157613367 4542.167624361813 2.064933504909277 -5.232461342588067 10933.043689229526 -75.69881221093237 24421.722306171432 -181.3398957811296 11788.516189896502 -28357.629943890497 189.7612471440807 z" vector-effect="non-scaling-stroke" fill="#000" fill-opacity="1" stroke="#FFF" stroke-width="0.3px" stroke-linejoin="round" stroke-linecap="round"><title>Wayne County</title></path>
<path id="39171" d="M -9440569.122613767 -5115670.025696219 l 7692.301482819021 -331.51021114271134 10661.325008675456 -463.11027185432613 9451.120623985305 -154.37501708976924 9220.605469729751 -154.37750288750976 8225.316752938554 -403.0763791538775 134.83923720009625 13401.19853644818 1899.4439148101956 37.22562639694661 64.23034431226552 15293.12218124047 4306.281734693795 -24.52944760490209 16.58638148754835 4249.105218397453 26.49348221346736 8607.652262782678 -51487.9996347744 227.742105753161 0 -3276.5736750429496 -210.54479809105396 -13211.01695776172 0 -11961.773949076422 z" vector-effect="non-scaling-stroke" fill="#000" fill-opacity="1" stroke="#FFF" stroke-width="0.3px" stroke-linejoin="round" stroke-linecap="round"><title>Williams County</title></path>
<path id="39173" d="M -9286388.998130495 -5036972.74663357 l -8779.876775365323 153.19610743410885 -25291.557876884937 -410.05971604119986 -17146.536157511175 108.09754054713994 -270.17051172629 -26665.91766448412 38.73985071666539 -13083.208140097558 1560.4941756688058 -10.433533355593681 3578.385324165225 -1849.0086291581392 6241.791109746322 -5023.118522041477 4955.384233716875 -3434.8791878782213 1295.4660793803632 -1536.416635569185 770.0322849489748 -1827.0823814105242 289.894507272169 -1996.8775789253414 1236.581257591024 -1452.535050672479 5055.035470593721 -3281.115878143348 4724.3745482340455 -3742.5657420353964 2518.458531944081 -3113.859799045138 19838.659461133182 70.0691454904154 100.52049831487238 17661.66914657876 -90.2806636299938 10714.52020189073 -490.3639154173434 25816.125188425183 z" vector-effect="non-scaling-stroke" fill="#000" fill-opacity="1" stroke="#FFF" stroke-width="0.3px" stroke-linejoin="round" stroke-linecap="round"><title>Wood County</title></path>
<path id="39175" d="M -9252066.09408437 -5011373.091567073 l 144.4900273811072 42757.81327958591 -21513.152944890782 181.05035359505564 -21.818620197474957 2145.7885674173012 -12796.06036233157 32.296289569698274 -2276.1488490160555 -115.38909382373095 8.348961809650064 -2157.406886436045 -6189.027948521078 100.73012105003 -55.10203474573791 -17094.873439181596 -2180.5252951048315 -29.12483922485262 128.57456846162677 -12802.835647899657 4228.692272247747 22.24059817381203 -5.788279557600617 -6396.589844893664 2127.537551442161 -20.339066242799163 -9.461711436510086 -6362.317666985095 4169.470080506057 -32.297828742302954 z" vector-effect="non-scaling-stroke" fill="#000" fill-opacity="1" stroke="#FFF" stroke-width="0.3px" stroke-linejoin="round" stroke-linecap="round"><title>Wyandot County</title></path>
</svg>
