<svg xmlns="http://www.w3.org/2000/svg" xmlns:xlink="http://www.w3.org/1999/xlink" height="1080" width="1920" viewBox="-8001412.785540064 -5163437.95020885 84159.43403890729 129570.08385076467">
<path id="44001" d="M -7930050.792076877 -5117572.291727134 l -170.8089976105839 331.1589829623699 -240.0689421761781 1383.2572030266747 36.236831965856254 2001.7294685207307 -90.59202425088733 509.46429626457393 -425.78258074633777 133.42678827699274 -1730.307863485068 4353.543346893974 -2817.412265763618 -1267.0531622236595 -1793.7222359310836 0 -779.0914975712076 -1667.430368307978 231.0097620105371 -2074.081453706138 584.3185675274581 -2669.0687742922455 828.9170997776091 -2615.1946345893666 1463.0613808250055 -3168.3147876523435 -235.53935209847987 -1110.9790880344808 -742.8546656128019 -783.2265720320866 -1014.6307383496314 -297.5214615268633 -353.3089168248698 655.7493222067133 -271.77607274148613 3229.5176940001547 -489.1970645133406 1201.6855257824063 -1041.80839015916 -418.75204483419657 -2101.7351406291127 -1341.3435809509829 -2065.498419987969 -1863.6260599307716 3542.547769243829 -4701.608172906563 1820.8998384997249 1406.6386003093794 1271.9121645493433 717.8161270665005 1087.1043782075867 371.6401829076931 2049.1918039740995 1679.4874337501824 z" vector-effect="non-scaling-stroke" fill="#000" fill-opacity="1" stroke="#FFF" stroke-width="0.3px" stroke-linejoin="round" stroke-linecap="round"><title>Bristol County</title></path>
<path id="44003" d="M -7947665.09722446 -5125022.640302948 l 416.7234005937353 2537.8786065597087 733.7954854536802 1019.8193400884047 1019.1603284301236 764.7932003829628 901.3907637028024 1001.4226051745936 389.5457487916574 1753.754790094681 -317.0720848646015 1268.0864814240485 -1494.7686227066442 2966.303152983077 -462.019301394932 1407.004962249659 -783.6210876572877 -1309.9634593119845 -774.5619074916467 -1006.8529390301555 -942.1571857500821 -606.5888145277277 -1304.5252827331424 -121.32236759085208 -1295.466102574952 527.7411598544568 -1268.2884507663548 1049.3300576815382 -570.7297972822562 1018.8926621060818 2609.0505654681474 1352.291773895733 1059.9268617955968 2273.603380505927 -5327.05274483934 2194.943572657183 -2930.707009598613 3241.0272570652887 287.6492302501574 2032.1327187782153 -17625.097869196907 302.9436746323481 -1170.74675071612 292.663371887058 -9628.464808406308 5.209806258790195 -6220.579431666993 -1191.020088488236 -38.92544523999095 -4928.1171195348725 -29.01851583365351 -3675.5069285528734 -65.22631874959916 -8607.704791366123 19228.401968279853 -850.7061446299776 18496.224091620184 -654.5456695342436 1665.5102350488305 -1585.0399603620172 639.5378216896206 -2482.222608683631 z" vector-effect="non-scaling-stroke" fill="#000" fill-opacity="1" stroke="#FFF" stroke-width="0.3px" stroke-linejoin="round" stroke-linecap="round"><title>Kent County</title></path>
<path id="44005" d="M -7917253.351501157 -5088307.0977062285 l -7125.063452830538 6579.177193805575 -1472.1205609841272 -3476.4866132754833 -321.6016749450937 -1560.292520317249 625.0849895654246 -1602.8892931398004 81.53284408524632 -1101.0070040691644 -1254.6996805286035 -5555.352548321709 -398.60492895077914 -6557.993610977195 90.59202425088733 -3562.4485263433307 308.0129046998918 -2987.9018252361566 1444.7325601503253 -4564.803159531206 1505.3432831410319 509.69141630269587 1831.770908312872 611.2476741569117 1826.3353233458474 611.2087316494435 1831.770908312872 611.169931220822 -304.38915381766856 2040.588659630157 -304.3892539292574 2040.154899859801 -304.38925392273813 2036.0859841695055 -304.3892539292574 2039.289054615423 304.3892539292574 410.71350972540677 304.38925392273813 407.06144063267857 304.3892539292574 407.0443266509101 304.38915381766856 407.0270811757073 304.3892539301887 3669.7331748232245 304.3892539292574 3664.7015248518437 304.3892539292574 3663.305417147465 z M -7938759.900305939 -5098390.189546642 l -1739.3670436460525 775.0665317866951 -724.7361939679831 -968.8428574446589 0 -1550.351738316007 724.7361939679831 -2713.717486511916 -579.7889774395153 -2326.654051406309 -2319.156021083705 -775.6767439516261 -289.8945443825796 -1551.541230541654 434.84176091104746 -2715.8010185202584 1304.525282735005 -1552.2314833309501 869.6835218202323 1940.250157682225 579.7889774395153 1551.9175266092643 1449.4726105881855 2133.4771443055943 1594.419715792872 969.6056477474049 -144.94721653033048 3295.9268107069656 z M -7943515.982024162 -5095023.948491546 l 58.88478236552328 3213.7814712505788 -348.7793267481029 3273.200576217845 -579.7889774376526 2854.82223245129 -647.7330512879416 1928.9449735321105 -516.3746049972251 798.0711551299319 -896.8611736232415 1118.3974331058562 -946.686664503999 918.8023940203711 -683.9698832547292 205.5096565587446 -244.5985322566703 -973.1871586572379 647.7330512879416 -3337.388437510468 -403.13451903127134 -1777.994239247404 733.7954854527488 -453.6225921874866 303.48331462033093 -489.9363198373467 185.7136385757476 -544.4031083714217 375.9569785464555 -635.1757884901017 -1213.933258487843 -1379.3831147169694 294.42413446027786 -2414.396726347506 1671.4229698050767 -5248.411156799644 1032.749209993519 254.31429106462747 665.8514116052538 563.100726088509 366.8977983882651 902.1032205438241 z M -7935466.8798572235 -5098529.465862531 l 674.9105917699635 -1689.64375227876 652.2626413675025 -4155.728731226176 643.2034612074494 -1733.0944172367454 1114.2820540796965 -1200.0180285777897 2790.234613955952 -1800.3083098689094 1349.8212948590517 -1157.9524960052222 0 3055.237576313317 -1331.702934534289 5083.8448742274195 -117.76956472732127 11170.158589824103 -163.0656881723553 1760.613389451988 -271.7760727396235 1409.468428648077 -54.35519228409976 1366.9266540342942 489.19695319607854 1650.9403681727126 -3469.674907132052 -1021.9773252857849 -2355.392853051424 2092.2158545851707 -1920.551092132926 2321.46469051484 -2210.445636522956 -350.60201518423855 -1322.6437543705106 1438.5960412230343 -1250.1699791308492 640.6500816429034 -933.0980055900291 -531.8574224393815 -362.3680969858542 -2103.542136876844 724.7363052945584 -798.0155417555943 3487.793267449364 -1578.0889506600797 1241.1107989717275 -1034.0606577210128 -1395.117306984961 -1947.4801394417882 -466.5490027908236 -1699.8310339599848 366.8977983882651 -1554.9127701530233 1087.1044022776186 -1537.0089207999408 371.4272771431133 -792.8054282842204 108.71049588732421 -1053.1402528993785 -72.47366392053664 -2173.222898470238 339.72014658059925 -587.2782446676865 1635.1862491620705 -974.840069510974 z" vector-effect="non-scaling-stroke" fill="#000" fill-opacity="1" stroke="#FFF" stroke-width="0.3px" stroke-linejoin="round" stroke-linecap="round"><title>Newport County</title></path>
<path id="44007" d="M -7943275.325058983 -5123057.890667562 l -929.156438505277 -2013.3280601352453 -176.65445841569453 -2660.0436350926757 -529.9633752349764 -2150.4383128881454 -942.1571857491508 -1932.1619793036953 -1395.1173069784418 -2060.187161379494 -407.6641091099009 1950.8079726146534 -144.9473278550431 3353.7304813675582 135.88803637120873 3546.8710594316944 -4802.1122163450345 -9.748317332938313 -639.5378216896206 2482.222608683631 -1665.5102350488305 1585.0399603620172 -18496.224091620184 654.5456695342436 -19228.401968279853 850.7061446299776 -65.22621864359826 -8615.442987884395 -65.2263187551871 -8619.555544238538 -65.22621864359826 -8630.983964284882 -67.94406117871404 -8646.098975747824 -67.94396106898785 -8642.968381755985 10069.30446080491 -201.17756226472557 10069.304560923018 -212.15554595645517 10072.022203233093 -208.50218441616744 3499.106904462911 -69.89493614900857 6572.915398882702 -131.29588908143342 5772.524454507977 87.79290942568332 130.45253739971668 2022.669190426357 112.2730234162882 2627.271585032344 88.8412174731493 2078.437078614719 396.7931971568614 9422.717878703028 168.50103145465255 982.2916518449783 342.4379482129589 788.6814855458215 880.5546524636447 244.62402483448386 2103.546952812001 -135.09002047684044 891.4255220517516 178.90273154433817 396.7932972693816 562.2440102342516 222.8563805082813 1690.1835295651108 -57.07309147994965 1080.3925051698461 -122.29910989757627 901.4503870643675 -277.21172957029194 1284.5111902728677 16.306654770858586 711.515634521842 168.50103145930916 1506.7788940090686 -532.6811192901805 5058.558993435465 32.613209430128336 794.8296106215566 201.1143410084769 944.2300087027252 608.7784077404067 1137.327280556783 1271.9121645502746 1716.6703890142962 -3542.547769243829 4701.608172906563 z" vector-effect="non-scaling-stroke" fill="#000" fill-opacity="1" stroke="#FFF" stroke-width="0.3px" stroke-linejoin="round" stroke-linecap="round"><title>Providence County</title></path>
<path id="44009" d="M -7949748.713893446 -5109126.445710408 l 394.0753388637677 2970.0302554983646 -244.59853225573897 3011.520994774066 -1250.170090449974 2744.0850460641086 -1521.946163188666 1417.1674086693674 -602.4370391620323 1507.7820568513125 1476.650151063688 3014.8547556698322 543.5522567974404 2305.9074319005013 135.8880363702774 7803.301819979213 -298.95372454077005 2623.875428577885 -3194.38536861632 9296.067602214403 -1650.4982451172546 2196.4283603401855 -1596.2099558496848 1688.6158237978816 -480.1377730295062 1388.3438772410154 -1050.8675703182817 639.7784129576758 -1123.3412342388183 -271.59884841926396 -2513.928951142356 -1237.380264465697 -2832.321173842065 238.1565034929663 -4793.018861102872 1086.2862449390814 -17246.70277116075 5409.816392173991 -8366.576671757735 2083.581698190421 -4731.321146527305 2135.4415687369183 -716.8221574127674 -1324.4133264683187 1947.0008657379076 -1332.4082326814532 58.753496730700135 21.353170309215784 1662.1511577758938 -171.18031915277243 698.4646085454151 -2924.4150243736804 986.5471075903624 -7485.180660658516 665.8515993440524 -2007.1747333621606 703.8999932808802 -1174.0648174770176 1454.0021083569154 -384.1387117775157 587.0364683466032 -9169.511942032725 383.2042848095298 -6157.789206335321 -35.330851749517024 -4472.94526981283 -62.50857632514089 -8592.293182570487 6220.579431666993 1191.020088488236 9628.464808406308 -5.209806258790195 1170.74675071612 -292.663371887058 17625.097869196907 -302.9436746323481 -287.6492302501574 -2032.1327187782153 2930.707009598613 -3241.0272570652887 z M -7965964.1775035085 -5042038.0342489015 l -743.3650654759258 1075.8019399670884 693.028952088207 1480.6864146729931 896.8611736232415 1185.5896316533908 823.3198444638401 1898.6397899417207 -514.4431005129591 1603.5494676139206 -2502.1406623413786 336.00750188715756 -3114.560722124763 589.8931450806558 -1580.440325458534 -1389.9564112937078 114.70660893898457 -1816.6520491112024 522.3335373383015 -1940.684470335953 1173.138449977152 -1047.2108330279589 697.961518727243 -1429.5935639254749 951.2163659082726 -993.3244644431397 249.12812233529985 -1589.5312642650679 137.34520850889385 -1595.7428043941036 736.8679033936933 -481.87896690145135 616.0258094072342 590.2104903040454 1503.431616797112 1519.5661689974368 z" vector-effect="non-scaling-stroke" fill="#000" fill-opacity="1" stroke="#FFF" stroke-width="0.3px" stroke-linejoin="round" stroke-linecap="round"><title>Washington County</title></path>
</svg>
