<svg xmlns="http://www.w3.org/2000/svg" xmlns:xlink="http://www.w3.org/1999/xlink" height="1080" width="1920" viewBox="-11583534.291039057 -5771062.858061724 846373.2856305242 532119.7049690951">
<path id="46003" d="M -10945514.884161502 -5442420.764670312 l -84.38273437134922 26032.86769354716 76.47504302300513 14006.097304166295 528.3652726244181 14200.691644482315 -16605.902475116774 21.329426469281316 -26276.068232705817 -123.8463738374412 -9878.88991412893 20.25603680126369 20.997638951987028 -26524.722805856727 -292.5448388159275 -27249.397274251096 -1081.8582486342639 13.583416257984936 -121.05849908478558 -13398.198531205766 40981.146431326866 -269.7481853645295 12034.502129832283 -104.68645282182842 4.362276889383793 13386.57951169461 z" vector-effect="non-scaling-stroke" fill="#000" fill-opacity="1" stroke="#FFF" stroke-width="0.3px" stroke-linejoin="round" stroke-linecap="round"><title>Aurora County</title></path>
<path id="46005" d="M -10906836.81387346 -5563708.827639828 l 13532.828523470089 88.30400057788938 -4.843733686953783 13389.13769793231 360.5637193620205 153.38228935934603 -74.70094429515302 54357.73581419047 -12209.62973011285 113.82235890254378 -27028.587767820805 -313.3276035320014 -14010.622798584402 4.811746460385621 -41011.35854112357 -20.65481606684625 -79.25791897252202 -13607.093035123311 -18.474916653707623 -40987.33636454027 -487.91321682557464 1.405645718798041 0.020037507638335 -13595.936485315673 40504.45778139308 238.9803356351331 z" vector-effect="non-scaling-stroke" fill="#000" fill-opacity="1" stroke="#FFF" stroke-width="0.3px" stroke-linejoin="round" stroke-linecap="round"><title>Beadle County</title></path>
<path id="46007" d="M -11268646.983360404 -5312020.778277031 l -8342.890714257956 0 -18967.254027681425 0 -18967.254027687013 0 -18964.536285256967 0 -18964.536285256967 0 -10918.050317928195 0 120.11640223115683 -19633.211285557598 -3053.047575259581 -118.36531200632453 -218.85000007599592 -39735.02174540516 13497.15096062608 57.445879658684134 40536.53705301136 113.97297384869307 44221.322515891865 -61.57516732998192 31.611173156648874 34325.44309385773 z" vector-effect="non-scaling-stroke" fill="#000" fill-opacity="1" stroke="#FFF" stroke-width="0.3px" stroke-linejoin="round" stroke-linecap="round"><title>Bennett County</title></path>
<path id="46009" d="M -10907069.988021508 -5278898.466419424 l -3005.843644786626 -266.6181116234511 -7968.475250422955 -2792.539386285469 -1290.9365617521107 -881.6373562272638 -478.32587034069 -1793.164738085121 -1155.0483392737806 -1248.7490449100733 -5226.488222477958 -2274.190337965265 1360.2581776995212 -3251.7009044568986 2246.411962121725 -934.5410598972812 824.4989405106753 -3484.975710065104 -85.56695111095905 -5558.6870399508625 1664.738457011059 -4399.4138858336955 413.7152139917016 -2971.3334053205326 -2247.20555877313 -4210.780220349319 1753.2078412193805 -4021.7213217886165 -1293.3238702882081 -6251.052490715869 254.4768012315035 -4267.046165946871 1641.06414090842 -2681.3330557290465 721.5909730792046 -5733.564993668348 1048.4885614737868 -1705.9397307140753 48937.37085091323 -67.15226419176906 302.0067729000002 30801.15672255587 -71.82041146606207 15554.127289984375 -2869.8595701418817 1544.0778813045472 -2622.639359978959 177.94775580056012 -1301.8075314443558 -500.4866273114458 -2253.023887399584 -1379.2569579696283 -1418.671256609261 -292.93288742378354 -4560.403023747727 1130.892764300108 -7612.448590092361 -1776.1188591122627 -2750.3740548361093 645.2260948121548 -1318.1140861101449 637.7661137850955 -1252.8878674600273 819.3917449265718 -934.9097011815757 1282.704458466731 -366.89783026464283 2023.795564211905 -1410.5178291071206 4020.3499323446304 -418.5352366641164 733.4816301679239 -725.6422330215573 429.69014655426145 -2299.2258089631796 2025.9452807549387 -1222.9925005622208 651.7650639489293 z" vector-effect="non-scaling-stroke" fill="#000" fill-opacity="1" stroke="#FFF" stroke-width="0.3px" stroke-linejoin="round" stroke-linecap="round"><title>Bon Homme County</title></path>
<path id="46011" d="M -10737161.005408533 -5495943.640872797 l 0 18.84254813939333 -18148.656243065372 189.4991757022217 -30347.537531575188 -25.355524589307606 -26753.710111424327 -51.46771554835141 169.6979921106249 -54067.19834630564 26997.19556010142 -101.05221976246685 48083.01033385284 32.219133798033 0 25691.660300808027 z" vector-effect="non-scaling-stroke" fill="#000" fill-opacity="1" stroke="#FFF" stroke-width="0.3px" stroke-linejoin="round" stroke-linecap="round"><title>Brookings County</title></path>
<path id="46013" d="M -10910212.643778184 -5771035.500350469 l 3265.979497253895 0 -90.62007675506175 56389.9366726568 -212.29194623976946 55197.64049897902 -18155.981522670016 -51.967473284341395 -31946.73708366044 -170.62931812461466 -31841.750558689237 -302.01544561143965 -541.358817556873 -5.059471399523318 27.89143237657845 -54076.40982587356 -297.7795265521854 -1032.071323864162 59.14059455320239 -55949.42431347817 7950.210582334548 0 25930.157773323357 0 25932.875515747815 0 z" vector-effect="non-scaling-stroke" fill="#000" fill-opacity="1" stroke="#FFF" stroke-width="0.3px" stroke-linejoin="round" stroke-linecap="round"><title>Brown County</title></path>
<path id="46015" d="M -10999229.75114976 -5455422.104133739 l 121.05849908478558 13398.198531205766 1081.8582486342639 -13.583416257984936 292.5448388159275 27249.397274251096 -20.997638951987028 26524.722805856727 -32507.21947653778 -61.54200777132064 -24303.65617066063 24.98620444536209 115.22002162598073 -1617.2392295626923 1454.0021380465478 -2710.9574723485857 -693.0290564522147 -2911.727509263903 -4511.483269453049 -5275.933575109579 -1059.9267922248691 -2732.9158823667094 -647.733039688319 -3115.383230681531 -1195.8148425072432 -3510.7558162333444 -2667.9353872537613 -2729.423149130307 -3229.605995103717 -826.498151095584 -2618.109768819064 -162.80380752123892 -2355.3928716033697 -1108.3944913949817 -751.9138782415539 -1885.2023346489295 751.9138782415539 -1691.3727951170877 896.8611318785697 -1046.3005087971687 2980.477902913466 -1240.677631196566 2228.5640246700495 -2450.5149854328483 -946.6867503169924 -1893.1706679612398 -733.7954715359956 -2031.5158525602892 -190.24327040091157 -2809.7469287076965 1037.278783839196 -2208.25913698785 2835.5306492764503 -1625.164934080094 2137.9719911459833 -1085.6945452857763 1177.6964358035475 -1456.161145336926 1127.8708173632622 -2084.217242446728 2378.040879983455 -3026.7213133806363 1331.7028927896172 -2518.8398346137255 -597.9074212517589 -1576.9812250584364 -529.9633961115032 -1784.6393308863044 -2051.9095593001693 -2558.167766571045 -1911.491907339543 -2980.1882757646963 -113.2400419022888 -1622.5338173480704 25.720577523112297 -999.2919946061447 19445.502584144473 470.4014409072697 28946.06555145979 -302.8208072418347 z" vector-effect="non-scaling-stroke" fill="#000" fill-opacity="1" stroke="#FFF" stroke-width="0.3px" stroke-linejoin="round" stroke-linecap="round"><title>Brule County</title></path>
<path id="46017" d="M -11012501.925308177 -5455409.738689841 l -28946.06555145979 302.8208072418347 -19445.502584144473 -470.4014409072697 24.105040913447738 -956.9337561503053 317.0721173323691 -3668.2592785088345 -117.7696435842663 -3052.7557683130726 -525.433794433251 -730.2940316013992 -8986.729725496843 -8352.146405435167 -2799.2938358671963 -1165.8737852117047 -3261.313206832856 -491.60200669337064 -3614.622137574479 -1588.4327352996916 -2935.1818861551583 -2799.3368128323928 -1204.8740458544344 -4162.756711900234 389.545744150877 -9070.004176107235 -819.8579033836722 -3581.2434381591156 21854.87709738128 -462.1375142717734 8536.84461966157 18.07356545701623 7133.707299973816 -251.0474519263953 34516.71406258084 -19.948296670801938 z" vector-effect="non-scaling-stroke" fill="#000" fill-opacity="1" stroke="#FFF" stroke-width="0.3px" stroke-linejoin="round" stroke-linecap="round"><title>Buffalo County</title></path>
<path id="46019" d="M -11581601.963060359 -5621510.599290195 l 78.81513099186122 -1971.9258018219844 -8.153327381238341 -9069.49140653573 -122.29921001009643 -17749.99319941178 -22.064469197764993 -4796.146778134629 34866.33599671535 -48.83919049426913 53022.183905828744 57.050854249857366 32619.80544917658 2.467444436624646 6.36736355535686 27344.8594062794 -117.77891556546092 25881.432573348284 -24.604835730046034 28916.06314648129 -556.1519533656538 0.626188489608467 -53.32359456457198 13507.405309503898 -36450.222298167646 2.810295535251498 -30720.52216839604 28.285371310077608 -28006.95117267035 -107.0943680908531 -2595.081416528672 2724.5515008922666 -5040.12208189629 -1795.060639503412 -6965.422397479415 3138.0088174045086 -5588.994074525312 668.2166959149763 -2804.2484020162374 -789.7144990973175 -3354.9340745694935 1343.9931422546506 8.313379913568497 -8584.72701934632 -10.870969699695706 -19281.687838543206 -32.613209430128336 -19790.687319901772 -59.79063368588686 -19657.307111821137 z" vector-effect="non-scaling-stroke" fill="#000" fill-opacity="1" stroke="#FFF" stroke-width="0.3px" stroke-linejoin="round" stroke-linecap="round"><title>Butte County</title></path>
<path id="46021" d="M -11118599.11176918 -5771043.3168307915 l 6933.3575018160045 0 11101.93142892234 0 67.3419467266649 55611.08765897248 -14248.000480754301 36.1107921898365 -22573.86126951687 -114.30589708779007 -42506.50141995959 -139.15934604685754 2632.3723327480257 -8788.742074188776 2949.5206714607775 -1713.017539538443 4750.391065850854 -385.3783912854269 2169.115492573008 -1636.8706193435937 976.2723795361817 -5478.865614029579 -4697.234895803034 -10208.470756702125 -1968.8630832266062 -5356.4364249436185 -2096.485313443467 -3283.776167280972 2940.4321029521525 -4974.258352648467 -865.5641440618783 -1582.785355902277 -4886.809873558581 -1061.6084809070453 -1410.217127988115 -1422.3162676971406 796.0554747767746 -2635.262824764475 -801.3386978060007 -2427.8331124642864 -4646.958560988307 743.7263920959085 -5008.115835860372 -3211.931755111553 -469.39099739305675 -1969.9058633157983 25932.875515747815 0 25932.875515747815 0 z" vector-effect="non-scaling-stroke" fill="#000" fill-opacity="1" stroke="#FFF" stroke-width="0.3px" stroke-linejoin="round" stroke-linecap="round"><title>Campbell County</title></path>
<path id="46023" d="M -10926195.105910562 -5288155.365394521 l -10156.039119575173 -4420.7525223605335 -4576.709578411654 -4172.855884121731 -2800.7110188584775 -1931.9549005180597 -1846.660263042897 -1274.0603642929345 -611.496250282973 -148.4531565150246 -1326.2674134913832 -63.09330746997148 -665.8513991143554 -167.01375597249717 -11694.52564338781 -7778.720301534049 -845.2237006034702 -787.5147965308279 -2250.306044863537 -2790.267780973576 -342.43784810230136 -312.14554044324905 -4311.674107171595 -3956.9599402416497 -2473.162515182048 -3253.513767419383 -674.9106497466564 -1450.5026157358661 -842.5059117656201 -427.7553067104891 -4851.203395165503 -1990.2496542353183 -7247.362681854516 -1432.4981985278428 -3134.484359903261 -1197.0176715636626 -2581.8729554116726 -2078.089438540861 -2599.9913621153682 -2934.9262684155256 -1639.7158067673445 -3128.2949809050187 -3125.4251565486193 -1887.4154809825122 -4796.848175050691 -1136.3586733220145 -3016.71471632272 -503.0226496681571 -2323.6856598705053 -1266.9921267302707 -878.7427251730114 -2497.2239557476714 507.315387731418 -3821.6754683218896 -1870.7254922538996 -3860.551799453795 -2554.695345355198 -1958.8629880687222 -5893.011780682951 -1523.8451577257365 -3243.1948001291603 -1916.0451461421326 -5299.633961105719 -5227.584367835894 -3433.438070528209 -4246.463428830728 -4015.661281866953 -6047.563418740407 -2796.859639076516 -5100.852088434622 -3990.579076692462 -2787.637580140494 -8221.227042229846 -3630.797273542732 -3270.3724101874977 -1198.1006580311805 -1662.3638151492923 -1710.057632856071 -1100.6932073067874 -2859.122036593035 88.61205380223691 -1267.747263292782 24303.65617066063 -24.98620444536209 32507.21947653778 61.54200777132064 9878.88991412893 -20.25603680126369 -119.44781737029552 19813.004781099968 3387.4942949339747 -271.78589050564915 30444.679594650865 12866.72734698467 32667.763889558613 13895.144447640516 4500.836478549987 1825.658650481142 -897.6803737618029 2527.420260827057 -1048.4885614737868 1705.9397307140753 -721.5909730792046 5733.564993668348 -1641.06414090842 2681.3330557290465 -254.4768012315035 4267.046165946871 1293.3238702882081 6251.052490715869 -1753.2078412193805 4021.7213217886165 2247.20555877313 4210.780220349319 -413.7152139917016 2971.3334053205326 -1664.738457011059 4399.4138858336955 85.56695111095905 5558.6870399508625 -824.4989405106753 3484.975710065104 -2246.411962121725 934.5410598972812 z" vector-effect="non-scaling-stroke" fill="#000" fill-opacity="1" stroke="#FFF" stroke-width="0.3px" stroke-linejoin="round" stroke-linecap="round"><title>Charles Mix County</title></path>
<path id="46025" d="M -10892948.265364315 -5550078.003651959 l -360.5637193620205 -153.38228935934603 4.843733686953783 -13389.13769793231 -13532.828523470089 -88.30400057788938 105.75540868937969 -18544.27008273173 -38.6533554662019 -22191.143882426433 -642.953214995563 -2409.076600960456 130.4705620314926 -38832.483161656186 15821.389607021585 194.4738051155582 38452.50249065459 68.25743659771979 13.04230286180973 40784.06691115536 323.71685658954084 304.8375925421715 -14.79135469906032 13627.941567168571 -102.09956529177725 40708.50703402795 z" vector-effect="non-scaling-stroke" fill="#000" fill-opacity="1" stroke="#FFF" stroke-width="0.3px" stroke-linejoin="round" stroke-linecap="round"><title>Clark County</title></path>
<path id="46027" d="M -10776620.177475965 -5266301.979073071 l -725.64223302342 -1475.6247106501833 -1242.016697537154 -1856.879379266873 -1516.5106846876442 -1668.5450113490224 -1962.2234457060695 -1191.4706966308877 -10033.973609060049 -766.0251423018053 -2035.6030918583274 -729.0772076770663 -1152.3305968437344 -1032.6477183662355 -790.8684516679496 -1043.866870735772 -1062.6445962693542 -795.9336943002418 -3016.7146144825965 -629.3908313326538 -2448.7026434410363 -1362.5903540952131 -1097.9755481313914 -311.0538412705064 -5818.726376064122 -207.37486105505377 -2633.5103296730667 -633.2623604219407 -2568.284111028537 -1325.9160934342071 -1135.3262462150306 -43303.16255632229 26327.418244007975 -89.61879520211369 13175.516891706735 9.603551873005927 24.599381076171994 24516.8507700013 z" vector-effect="non-scaling-stroke" fill="#000" fill-opacity="1" stroke="#FFF" stroke-width="0.3px" stroke-linejoin="round" stroke-linecap="round"><title>Clay County</title></path>
<path id="46029" d="M -10852686.334570773 -5590706.224055024 l 14.79135469906032 -13627.941567168571 -323.71685658954084 -304.8375925421715 -13.04230286180973 -40784.06691115536 27212.709871636704 72.0130357099697 2615.9404627121985 -112.19786087982357 22351.81216991134 219.28284036833793 15748.197041826323 42.93522323761135 187.2921489533037 27321.63405502308 -247.68853867985308 27094.31589537114 -27030.814046321437 171.63857802189887 -13682.831425989047 -140.73457002919167 z" vector-effect="non-scaling-stroke" fill="#000" fill-opacity="1" stroke="#FFF" stroke-width="0.3px" stroke-linejoin="round" stroke-linecap="round"><title>Codington County</title></path>
<path id="46031" d="M -11354432.975608703 -5771058.949812098 l 9371.341699626297 0 25930.157773323357 0 25935.59325817041 0 25932.875515740365 7.816494099795818 25932.875515747815 7.816487207077444 25938.311100706458 0 25930.157673209906 0 469.39099739305675 1969.9058633157983 5008.115835860372 3211.931755111553 4646.958560988307 -743.7263920959085 801.3386978060007 2427.8331124642864 -796.0554747767746 2635.262824764475 1410.217127988115 1422.3162676971406 4886.809873558581 1061.6084809070453 865.5641440618783 1582.785355902277 -2940.4321029521525 4974.258352648467 2096.485313443467 3283.776167280972 1968.8630832266062 5356.4364249436185 4697.234895803034 10208.470756702125 -976.2723795361817 5478.865614029579 -2169.115492573008 1636.8706193435937 -4750.391065850854 385.3783912854269 -2949.5206714607775 1713.017539538443 -2632.3723327480257 8788.742074188776 -1195.014622349292 2519.495729327202 -3852.154762558639 3103.853284586221 -1239.709509216249 3642.4997542779893 824.6543425172567 1814.4171667993069 3917.554184164852 2421.9863297659904 5819.670212030411 -335.81300831679255 2964.8823159132153 1917.8132276106626 2574.1506805866957 4286.192849613726 -29945.380397671834 67.304354515858 -56752.38705302216 -2.546412068419158 -38903.84758872166 12.536322033964097 -20493.879515856504 31.270246260799468 -38457.25638951361 -30.800682185217738 -128.7368722744286 -35122.05612157937 34.76975238695741 -39735.51922997646 z" vector-effect="non-scaling-stroke" fill="#000" fill-opacity="1" stroke="#FFF" stroke-width="0.3px" stroke-linejoin="round" stroke-linecap="round"><title>Corson County</title></path>
<path id="46033" d="M -11583327.521523353 -5384984.20181635 l -2.937532391399145 -3454.405667142011 -13.588812233880162 -19195.603767722845 -21.742039509117603 -19239.307343808003 -20.19818252697587 -15920.616761924699 33937.19520987198 -216.6958319079131 27830.42250527814 -217.05099016893655 22386.677991023287 -0.460666443221271 37894.202739039436 -49.474382567219436 31278.3870249521 -250.00534670241177 -1313.5844860877842 2757.3391193291172 -575.2594128716737 5361.571353914216 -381.8332606907934 1266.9376578591764 -419.90623598732054 1124.0452731475234 -9457.80829982087 10805.029495838098 -2382.570481657982 4730.662960313261 -182.13703520968556 230.9049070570618 -1389.6347464192659 1760.8874957803637 -2513.928930265829 1208.6457027019933 -4987.091445451602 -125.2409142497927 -2368.981676630676 876.6507434966043 -2119.8535844422877 5589.822928359732 -2645.2873788774014 1295.254721541889 -3057.481131406501 788.3270825073123 -2364.452074954286 1126.0649709720165 225.09082579612732 19895.226344146766 -16645.126231659204 -3.606730282306671 -22383.922833625227 -143.97520413063467 -48999.37692048028 20.09127450082451 -15806.751539263874 -176.7295694509521 z" vector-effect="non-scaling-stroke" fill="#000" fill-opacity="1" stroke="#FFF" stroke-width="0.3px" stroke-linejoin="round" stroke-linecap="round"><title>Custer County</title></path>
<path id="46035" d="M -10944994.426580226 -5388181.108028117 l -528.3652726244181 -14200.691644482315 -76.47504302300513 -14006.097304166295 84.38273437134922 -26032.86769354716 39840.678470782936 57.48916186951101 -89.05715110339224 16065.743180400692 204.49268006905913 11476.82223345153 144.4901387039572 26579.90921355784 -16669.554959956557 115.12525838799775 z" vector-effect="non-scaling-stroke" fill="#000" fill-opacity="1" stroke="#FFF" stroke-width="0.3px" stroke-linejoin="round" stroke-linecap="round"><title>Davison County</title></path>
<path id="46037" d="M -10907249.576303925 -5659447.923178833 l 212.29194623976946 -55197.64049897902 38610.041611380875 129.32848602999002 28863.633245892823 5.729677567258477 981.7814698088914 4593.8521144241095 15312.77096491307 93.64488909766078 94.06062825769186 41321.97676325496 -4.655603744089603 23037.776796378195 -2615.9404627121985 112.19786087982357 -27212.709871636704 -72.0130357099697 -38452.50249065459 -68.25743659771979 -15821.389607021585 -194.4738051155582 z" vector-effect="non-scaling-stroke" fill="#000" fill-opacity="1" stroke="#FFF" stroke-width="0.3px" stroke-linejoin="round" stroke-linecap="round"><title>Day County</title></path>
<path id="46039" d="M -10737161.005408533 -5563669.406878625 l 0 5129.820381185971 0 8591.432676075958 -48083.01033385284 -32.219133798033 103.9765232205391 -40804.7139818985 247.68853867985308 -27094.31589537114 15795.674915978685 59.86355617642403 31935.670355973765 -151.43261685501784 0 25018.415835952386 0 2003.046783491969 z" vector-effect="non-scaling-stroke" fill="#000" fill-opacity="1" stroke="#FFF" stroke-width="0.3px" stroke-linejoin="round" stroke-linecap="round"><title>Deuel County</title></path>
<path id="46041" d="M -11295612.426260274 -5696201.844024618 l 38903.84758872166 -12.536322033964097 56752.38705302216 2.546412068419158 29945.380397671834 -67.304354515858 1163.5105385370553 4522.299602781422 3848.6471967212856 5037.463380402885 2558.899910353124 4993.583368592896 -936.4197791945189 4092.792296020314 -2884.287561174482 3681.75753228087 -937.8668212573975 2243.854093173519 1032.4876091908664 4114.333055695519 4378.193791789934 4872.241672637872 871.7424871232361 2261.287087892182 -124.56673283688724 3558.239229841158 -1515.3924508094788 4210.7143699666485 -450.2878968566656 6120.88453457877 -1304.3303623050451 3238.392594547011 -3866.5709705706686 6158.836699030362 995.7519545909017 6313.482520196587 3888.277046766132 4078.3632077584043 148.1659082826227 2360.9359553083777 -3959.7446051295847 438.5710321003571 -5272.200844988227 -2122.191616841592 -3188.1894370839 487.9510411079973 -3437.1002637762576 5088.523319127038 -82.48807663470507 3561.061955144629 857.7156746853143 7473.707259202376 1221.9532712046057 4063.219127894379 1307.8919180911034 3568.4669067533687 -2858.4616619497538 4965.259217278101 -6283.98403076455 4227.672805421054 -4161.789926202968 4831.763465162367 -1596.877984110266 2721.928027738817 -1850.2409225124866 1127.2975145718083 -7297.213145410642 -1307.7732092458755 -3640.702721880749 -3515.5061272317544 -3856.773519549519 -4913.896038416773 -2731.890733005479 -880.0384085932747 -1591.645856719464 1191.0992913078517 -1452.1084867883474 1573.858879991807 559.40549550578 4102.374596657231 -9962.858575209975 -795.6453695781529 -4334.828804085031 -89.35517964605242 -3809.3950096499175 485.0603745393455 -3505.911697346717 1167.867711449042 -11006.932073066011 5052.642652682029 -5335.870774514973 108.42229795921594 -5027.857860537246 -1084.28137361072 -3072.127271240577 809.9817248489708 90.11901982501149 -38505.80080852844 -13659.510215314105 100.11268659401685 -26899.401832712814 -53.837879738770425 -40.769984263926744 -7016.395704190247 1589.8925747405738 -9.294409516267478 27.279286498203874 -54794.89753660653 1685.450895436108 -66.02599464915693 z" vector-effect="non-scaling-stroke" fill="#000" fill-opacity="1" stroke="#FFF" stroke-width="0.3px" stroke-linejoin="round" stroke-linecap="round"><title>Dewey County</title></path>
<path id="46043" d="M -10987876.397288049 -5388283.624975485 l 26276.068232705817 123.8463738374412 16605.902475116774 -21.329426469281316 22910.59159721993 55.43240547180176 173.79165506735444 2125.3068512417376 388.5015719626099 34639.39256581385 25.634429700672626 9380.441915323958 -32667.763889558613 -13895.144447640516 -30444.679594650865 -12866.72734698467 -3387.4942949339747 271.78589050564915 z" vector-effect="non-scaling-stroke" fill="#000" fill-opacity="1" stroke="#FFF" stroke-width="0.3px" stroke-linejoin="round" stroke-linecap="round"><title>Douglas County</title></path>
<path id="46045" d="M -10990005.292380678 -5715086.076036991 l 297.7795265521854 1032.071323864162 -27.89143237657845 54076.40982587356 -14059.258284108713 -153.363209660165 -34009.709441760555 12.486593248322606 -46654.654040629044 -112.41917497944087 -15093.471901999786 -79.37216973304749 142.60639027692378 -55116.079995043576 31949.019244540483 107.22655352950096 38185.80336593278 62.84213325660676 26116.10212442465 3.184514403343201 z" vector-effect="non-scaling-stroke" fill="#000" fill-opacity="1" stroke="#FFF" stroke-width="0.3px" stroke-linejoin="round" stroke-linecap="round"><title>Edmunds County</title></path>
<path id="46047" d="M -11583140.215784546 -5312028.210406566 l -40.76633659563959 -19045.784843331203 -51.637506518512964 -19088.473831651732 -81.53277330473065 -19116.480635100044 -13.369122387841344 -15705.252099701203 13498.52202349715 -155.7111450349912 15806.751539263874 176.7295694509521 48999.37692048028 -20.09127450082451 22383.922833625227 143.97520413063467 16645.126231659204 3.606730282306671 -33.73425848968327 42379.58278787974 -615.8340213205665 30427.899537576362 -18961.818542841822 0 -18967.254027679563 0 -17419.73220340535 0 -1544.8041819613427 0 -18967.25402769074 0 -18969.97177010961 0 z" vector-effect="non-scaling-stroke" fill="#000" fill-opacity="1" stroke="#FFF" stroke-width="0.3px" stroke-linejoin="round" stroke-linecap="round"><title>Fall River County</title></path>
<path id="46049" d="M -10989735.404286502 -5659977.594887253 l 541.358817556873 5.059471399523318 3.102696843445301 18188.62155887205 117.1812412198633 36459.27651066426 -20382.16929365322 13.367258217185736 -45865.31313489191 -43.76337887533009 -29087.471694985405 -27.90400660969317 -50.310398587957025 -54847.95320505928 46654.654040629044 112.41917497944087 34009.709441760555 -12.486593248322606 z" vector-effect="non-scaling-stroke" fill="#000" fill-opacity="1" stroke="#FFF" stroke-width="0.3px" stroke-linejoin="round" stroke-linecap="round"><title>Faulk County</title></path>
<path id="46051" d="M -10737166.44099349 -5663956.8094874015 l 0 1798.1176387788728 5.435584956780076 34673.33047439065 0 9514.389481122606 -31935.670355973765 151.43261685501784 -15795.674915978685 -59.86355617642403 -187.2921489533037 -27321.63405502308 -15748.197041826323 -42.93522323761135 -22351.81216991134 -219.28284036833793 4.655603744089603 -23037.776796378195 24345.677276812494 123.59786695800722 1624.9306071083993 -4751.019648307003 14525.909366874024 137.35633993241936 43109.64649084024 459.3192458981648 1073.406646501273 2099.25151153747 750.1020149514079 1603.60300270468 578.8830408547074 498.4109938647598 0 42.49887475371361 z" vector-effect="non-scaling-stroke" fill="#000" fill-opacity="1" stroke="#FFF" stroke-width="0.3px" stroke-linejoin="round" stroke-linecap="round"><title>Grant County</title></path>
<path id="46053" d="M -10973546.422240477 -5312002.197705253 l -18964.536285256967 -3.716056645847857 -18967.254027681425 0 -18964.536285262555 0 -18969.97177010402 0 -18964.53628526628 0 -11709.61700988561 0 20.927507674321532 -44963.22896371689 27.699406255036592 -31386.926338310353 25472.084140628576 56.144321916624904 -88.61205380223691 1267.747263292782 1100.6932073067874 2859.122036593035 1662.3638151492923 1710.057632856071 3270.3724101874977 1198.1006580311805 8221.227042229846 3630.797273542732 3990.579076692462 2787.637580140494 2796.859639076516 5100.852088434622 4015.661281866953 6047.563418740407 3433.438070528209 4246.463428830728 5299.633961105719 5227.584367835894 3243.1948001291603 1916.0451461421326 5893.011780682951 1523.8451577257365 2554.695345355198 1958.8629880687222 1870.7254922538996 3860.551799453795 -507.315387731418 3821.6754683218896 878.7427251730114 2497.2239557476714 2323.6856598705053 1266.9921267302707 3016.71471632272 503.0226496681571 4796.848175050691 1136.3586733220145 3125.4251565486193 1887.4154809825122 1639.7158067673445 3128.2949809050187 2599.9913621153682 2934.9262684155256 2581.8729554116726 2078.089438540861 3134.484359903261 1197.0176715636626 7247.362681854516 1432.4981985278428 4851.203395165503 1990.2496542353183 842.5059117656201 427.7553067104891 674.9106497466564 1450.5026157358661 2473.162515182048 3253.513767419383 4311.674107171595 3956.9599402416497 -654.9804294202477 0 z" vector-effect="non-scaling-stroke" fill="#000" fill-opacity="1" stroke="#FFF" stroke-width="0.3px" stroke-linejoin="round" stroke-linecap="round"><title>Gregory County</title></path>
<path id="46055" d="M -11258515.085275179 -5582081.635210621 l -21.317022478207946 9239.098946380429 -1931.7265671342611 2.348454070277512 -74.81259774789214 54141.88463529479 -1293.1981905903667 5.292123370803893 5.785719219595194 27203.472007519566 13344.977216711268 -44.74074165895581 9.681901391595602 26871.59947154112 -1923.8229946102947 6.344148884527385 -49710.03977046907 1.696868364699185 -20051.084199966863 17.173849990591407 -35242.962643153965 42.8588175708428 -44.97095921449363 -20208.89394413866 56.77661385014653 -33994.12150339037 697.5278179887682 -7.315882158465684 -70.19676232896745 -26525.14543703571 2963.2932528536767 -1721.4316902672872 5594.058070054278 -1105.554047172889 11215.293750170618 -127.08378944080323 5299.633961105719 -1963.6702621886507 6296.146329859272 -4729.801190561615 2482.22171853669 -610.476252081804 15291.935258708894 1316.2883002851158 2821.941844249144 -470.53527465462685 2532.0473369713873 -1456.2702932348475 6776.284107534215 -6941.158695813268 7677.6748410873115 -4761.992511759512 4063.052703516558 -3490.319137309678 2432.3961000964046 -1286.9163128882647 9598.225951775908 -1013.09723294992 1789.1926620863378 -1223.5135705573484 1508.3573581594974 -1644.35639192909 2962.3594962097704 -2824.1451227460057 4112.878321951255 -2474.2407868104056 z" vector-effect="non-scaling-stroke" fill="#000" fill-opacity="1" stroke="#FFF" stroke-width="0.3px" stroke-linejoin="round" stroke-linecap="round"><title>Haakon County</title></path>
<path id="46057" d="M -10785244.015742386 -5549980.372955161 l -26997.19556010142 101.05221976246685 -40547.22283357754 -118.39628559723496 102.09956529177725 -40708.50703402795 26832.64987929724 -47.95887404307723 13682.831425989047 140.73457002919167 27030.814046321437 -171.63857802189887 z" vector-effect="non-scaling-stroke" fill="#000" fill-opacity="1" stroke="#FFF" stroke-width="0.3px" stroke-linejoin="round" stroke-linecap="round"><title>Hamlin County</title></path>
<path id="46059" d="M -10987868.791161196 -5564124.576391265 l -0.020037507638335 13595.936485315673 487.91321682557464 -1.405645718798041 18.474916653707623 40987.33636454027 79.25791897252202 13607.093035123311 -25102.53849471733 23.598224873654544 -34516.71406258084 19.948296670801938 -7133.707299973816 251.0474519263953 -81.23528708703816 -54903.244633781724 -1297.428219916299 -123.71176991891116 93.2331904862076 -29919.065955376253 0.31136061437428 -24767.98892936483 45865.31313489191 43.76337887533009 20382.16929365322 -13.367258217185736 1186.449366768822 24.487767326645553 z" vector-effect="non-scaling-stroke" fill="#000" fill-opacity="1" stroke="#FFF" stroke-width="0.3px" stroke-linejoin="round" stroke-linecap="round"><title>Hand County</title></path>
<path id="46061" d="M -10905414.28002305 -5388240.800881033 l -144.4901387039572 -26579.90921355784 -204.49268006905913 -11476.82223345153 89.05715110339224 -16065.743180400692 12939.440200438723 127.90694149956107 27005.32188292779 123.18282650783658 -55.43844225630164 13477.658087946475 281.7481840457767 14221.196233473718 -58.77914016507566 26051.912280068733 z" vector-effect="non-scaling-stroke" fill="#000" fill-opacity="1" stroke="#FFF" stroke-width="0.3px" stroke-linejoin="round" stroke-linecap="round"><title>Hanson County</title></path>
<path id="46063" d="M -11581675.664935956 -5655098.156476099 l -56.75066179595888 -12347.648121316917 -84.25061584450305 -17192.08889403008 -81.53277330473065 -17217.391782895662 -81.5328734125942 -17250.61042240262 -81.53277330286801 -17284.019444331527 -84.25051572732627 -17321.521107745357 -35.15117662213743 -7734.4657273544 -43.66395436786115 -9616.956085548736 29702.409987716004 3.908249625936151 25935.593258172274 0 25927.44003089331 0 25932.875515745953 0 9297.134704239666 0 5971.220455478877 0 -41.97145553305745 33422.04554730281 -877.7539622671902 26.314386285841465 -73.80905253253877 36505.21720298566 97.62496703490615 18559.020205944777 -752.4082156326622 -4.517303601838648 -61.36553721688688 27463.392405274324 -32619.80544917658 -2.467444436624646 -53022.183905828744 -57.050854249857366 z" vector-effect="non-scaling-stroke" fill="#000" fill-opacity="1" stroke="#FFF" stroke-width="0.3px" stroke-linejoin="round" stroke-linecap="round"><title>Harding County</title></path>
<path id="46065" d="M -11095928.48235875 -5550658.048476271 l 1420.5253128316253 3.499089832417667 345.99632328376174 50825.792453052476 -3569.3261208105832 619.3940603025258 -2296.508049812168 2312.876421507448 6237.2615080699325 5596.510737276636 3741.4509845059365 1332.2989757927135 837.9763100910932 1445.735459247604 448.43056593835354 1906.2541707158089 135.88805028423667 1844.7385455733165 -448.43056593835354 1752.077750721015 -1114.282012335956 775.9699012562633 -1481.1797481030226 220.7924348572269 -1521.9461631905288 -31.541450710967183 -2704.1722006667405 -536.2212732229382 -5530.643646588549 -2094.717912840657 -2853.6490559820086 -454.3393756002188 -9539.34112998657 530.0604142146185 -2998.596309620887 -530.0604142146185 -2165.1496012005955 -1401.021616675891 -2835.530649278313 -2556.4700726969168 -2516.447773767635 -2839.4755564676598 -980.4047202244401 -2307.190548929386 286.2289560697973 -1440.7099160011858 366.0336852967739 -1825.6087422017008 2785.705030836165 -4361.121313340031 493.72658270038664 -2446.9310153750703 -1268.2884693220258 -2087.047882261686 -2708.70180234313 -961.4672586135566 -5553.291654970497 -234.05668356176466 -2214.975219640881 -797.1028739670292 -7392.309935493395 -5575.338246004656 -5467.22922312282 -2228.556043920107 -17402.729639800265 -2013.765696742572 -5109.39069070667 -1596.1299826335162 -3356.4348420351744 -3395.8720389166847 -2174.2088045552373 -5172.264095305465 -1680.4822218548506 -6177.601389918476 -3075.5995381101966 -3363.289304830134 -6021.574236232787 957.462258733809 -6820.321114769205 2455.9997569313273 -4210.2131254617125 -1693.0399912837893 -761.8700383901596 -2966.2680923696607 557.1541627366096 -2686.9624396273866 2487.767646294087 -2694.780028465204 2413.5173232946545 -957.7082025911659 1651.2018956113607 -3106.729261255823 -1064.65905335173 -1938.3985487269238 58603.57396857813 -149.63497765921056 z" vector-effect="non-scaling-stroke" fill="#000" fill-opacity="1" stroke="#FFF" stroke-width="0.3px" stroke-linejoin="round" stroke-linecap="round"><title>Hughes County</title></path>
<path id="46067" d="M -10868955.380370574 -5337694.607643149 l -48937.37085091323 67.15226419176906 897.6803737618029 -2527.420260827057 -4500.836478549987 -1825.658650481142 -25.634429700672626 -9380.441915323958 -388.5015719626099 -34639.39256581385 -173.79165506735444 -2125.3068512417376 16669.554959956557 -115.12525838799775 39852.36701732129 -120.61825791373849 22886.92485083267 6.601116147823632 114.90097277238965 31771.72694825288 132.69094059616327 18789.428574441 z" vector-effect="non-scaling-stroke" fill="#000" fill-opacity="1" stroke="#FFF" stroke-width="0.3px" stroke-linejoin="round" stroke-linecap="round"><title>Hutchinson County</title></path>
<path id="46069" d="M -11054036.125003524 -5495641.0221785335 l -8536.84461966157 -18.07356545701623 -21854.87709738128 462.1375142717734 -2758.524491837248 -2824.91943929065 -3111.839280465618 -1231.7262458028272 -3863.7502297647297 -575.1530185742304 -345.99632328376174 -50825.792453052476 -1420.5253128316253 -3.499089832417667 218.0576279424131 -47668.38467235118 158.2969838231802 -7070.491797588766 11143.412092572078 13.987472626380622 29087.471694985405 27.90400660969317 -0.31136061437428 24767.98892936483 -93.2331904862076 29919.065955376253 1297.428219916299 123.71176991891116 z" vector-effect="non-scaling-stroke" fill="#000" fill-opacity="1" stroke="#FFF" stroke-width="0.3px" stroke-linejoin="round" stroke-linecap="round"><title>Hyde County</title></path>
<path id="46071" d="M -11268668.275662048 -5371397.532933823 l -44221.322515891865 61.57516732998192 -40536.53705301136 -113.97297384869307 -13497.15096062608 -57.445879658684134 -34.7302339784801 -13326.311402012594 -3108.0394037049264 24.237811755388975 -224.21284335665405 -37107.847961773165 864.414089826867 -76.2456453051418 6291.616728184745 94.00805708300322 6444.777650980279 709.2384850783274 -87.49389149434865 -28514.80193591304 58.55549931153655 -14883.627530097961 1314.794171800837 -5.879888107068837 35242.962643153965 -42.8588175708428 20051.084199966863 -17.173849990591407 49710.03977046907 -1.696868364699185 -414.18728048726916 19149.50380922854 -1965.8471274487674 226.19408420659602 -1857.1366872265935 854.4608192844316 -8619.831989727914 6066.903807726689 -3601.033332547173 2215.998162459582 -1888.8438989575952 884.9947888338938 68.66665326058865 2436.1604342032224 27.604450725018978 26376.107840480283 z" vector-effect="non-scaling-stroke" fill="#000" fill-opacity="1" stroke="#FFF" stroke-width="0.3px" stroke-linejoin="round" stroke-linecap="round"><title>Jackson County</title></path>
<path id="46073" d="M -10946214.102588601 -5455796.5387719255 l -12034.502129832283 104.68645282182842 -40981.146431326866 269.7481853645295 -13272.174158416688 12.365443898364902 116.2216672077775 -40502.27923728991 25102.53849471733 -23.598224873654544 41011.35854112357 20.65481606684625 z" vector-effect="non-scaling-stroke" fill="#000" fill-opacity="1" stroke="#FFF" stroke-width="0.3px" stroke-linejoin="round" stroke-linecap="round"><title>Jerauld County</title></path>
<path id="46075" d="M -11250399.517810417 -5464656.336165219 l 1923.8229946102947 -6.344148884527385 -9.681901391595602 -26871.59947154112 33001.43382181972 44.28012998495251 42645.1499570664 -88.11429108958691 128.4574603550136 49787.11483955663 2980.8012257367373 -1.234529280103743 47.02799755707383 17808.69417228736 -4512.9864840153605 -40.8121720449999 -8275.582262344658 -959.1479747248814 -4058.523101836443 -927.8981642881408 -9512.163519935682 -4716.168567751534 -1993.0247375052422 -552.0497535923496 -1848.077483875677 326.21521361358464 -1757.4854503478855 928.3955118637532 -5743.534925369546 4546.533490876667 -4140.05593200773 639.4704381935298 -4144.585533685982 112.84312331862748 -4158.174338713288 -720.965938215144 -1820.899873815477 -865.2335089799017 -1608.0085950382054 -1291.7314773993567 -4294.062388995662 -4610.322841172107 -5372.10758792609 -6646.686026377603 -1467.5909430757165 -1444.2014006869867 -1712.189433587715 -552.6239237850532 -4162.703940389678 1450.5670768488199 -1662.3638151492923 -847.7062589675188 -2957.829894531518 -3215.7139119543135 -1766.544653698802 -1061.6834337506443 -2051.909559302032 -735.0833512032405 -2110.794381093234 -339.28904162626714 z" vector-effect="non-scaling-stroke" fill="#000" fill-opacity="1" stroke="#FFF" stroke-width="0.3px" stroke-linejoin="round" stroke-linecap="round"><title>Jones County</title></path>
<path id="46077" d="M -10893022.96630861 -5495720.267837768 l 74.70094429515302 -54357.73581419047 40159.83122825064 80.28663096297532 40547.22283357754 118.39628559723496 -169.6979921106249 54067.19834630564 -15963.16889349185 -21.894074687734246 -10812.657061170787 184.46630440372974 -33023.61066814326 14.850289014168084 -20344.299404757097 -69.24969675578177 z" vector-effect="non-scaling-stroke" fill="#000" fill-opacity="1" stroke="#FFF" stroke-width="0.3px" stroke-linejoin="round" stroke-linecap="round"><title>Kingsbury County</title></path>
<path id="46079" d="M -10812410.909294598 -5495812.122389093 l 26753.710111424327 51.46771554835141 61.04582764022052 9394.140624562278 2.427989415824413 44358.219957661815 -26765.717922262847 64.05588135775179 -26758.916190054268 -104.48381943441927 -77.72671937569976 -20299.85175637901 9.350948549807072 -33300.97637360077 10812.657061170787 -184.46630440372974 z" vector-effect="non-scaling-stroke" fill="#000" fill-opacity="1" stroke="#FFF" stroke-width="0.3px" stroke-linejoin="round" stroke-linecap="round"><title>Lake County</title></path>
<path id="46081" d="M -11583314.65319014 -5487299.604090466 l -28.19566812366247 -6097.954307339154 -50.1186736933887 -10849.34476767201 -27.177624471485615 -19446.838301403448 -29.895366901531816 -19480.773079339415 10.710917174816132 -11048.579880964011 3354.9340745694935 -1343.9931422546506 2804.2484020162374 789.7144990973175 5588.994074525312 -668.2166959149763 6965.422397479415 -3138.0088174045086 5040.12208189629 1795.060639503412 2595.081416528672 -2724.5515008922666 28006.95117267035 107.0943680908531 -210.04050953313708 40536.59553715307 -542.5710868053138 7.938566233962774 -11.689993685111403 13705.985176536255 13511.956452896819 -82.68473509512842 66.36667666584253 17986.32599456515 -17626.902692100033 16.81321763806045 z" vector-effect="non-scaling-stroke" fill="#000" fill-opacity="1" stroke="#FFF" stroke-width="0.3px" stroke-linejoin="round" stroke-linecap="round"><title>Lawrence County</title></path>
<path id="46083" d="M -10753301.78809292 -5387846.644500745 l 241.88077770918608 1030.2252113269642 377.76879995688796 824.097745818086 260.9050747975707 973.8391776727512 59.79073379188776 1112.298975115642 -258.1873323675245 1673.814429496415 -84.25061584077775 1388.9991271654144 73.37954602576792 1280.2407379429787 546.2699315287173 1433.5102377636358 529.9634769782424 853.2639492917806 2051.909546405077 2331.106063743122 877.8368099275976 1242.0195340989158 1921.457008998841 2218.013178922236 407.66416685655713 624.5387902725488 282.64711430482566 1622.8565623443574 -43.48417913168669 7889.622877971269 -364.179887605831 3761.190236370079 -282.6472144238651 530.2541003022343 -434.84179132431746 519.022074546665 -600.6251804754138 377.1130956383422 -766.4085696134716 153.08105320762843 -1625.2210824619979 -205.3531556725502 -741.9487876761705 126.94618217926472 -317.97796605341136 701.9066919647157 111.42824031040072 1045.29462500941 926.7564739119262 1657.298193367198 812.6105912849307 671.7934789089486 614.2138925939798 630.6954367626458 138.60586478933692 556.021307840012 -328.8491359781474 544.794106005691 -970.2406530436128 1126.8018578197807 -364.1799877267331 664.0773959625512 -130.45253739319742 816.9742854973301 187.52552876621485 843.0124290827662 679.4403114616871 779.5320974476635 853.3768277689815 331.9341057892889 921.3209890592843 78.31980405375361 1731.2137378137559 -93.23810673411936 2541.106686782092 458.72172630857676 769.1262119300663 0 1136.0241422969848 -134.25767555925995 722.9244905989617 70.85850079543889 644.1093596015126 331.90872032381594 442.9950186070055 570.5567076429725 290.800441686064 730.8583844611421 366.8977301493287 1647.9500751830637 951.2163559626788 6652.21950533893 326.1312934346497 1527.290539487265 328.84903586655855 1147.166060638614 146.75909205898643 990.6209135660902 -24.45978193730116 1217.6492000129074 -1182.2260638587177 6126.795064380392 -429.4062063638121 1060.428110735491 -475.60822803527117 829.654463016428 -36906.21762572415 -2212.5093354918063 -13175.516891706735 -9.603551873005927 -54.57593883574009 -24525.715069456026 -48.865582920610905 -39137.38184007909 z" vector-effect="non-scaling-stroke" fill="#000" fill-opacity="1" stroke="#FFF" stroke-width="0.3px" stroke-linejoin="round" stroke-linecap="round"><title>Lincoln County</title></path>
<path id="46085" d="M -11060893.493443782 -5455577.319323506 l -25.720577523112297 999.2919946061447 113.2400419022888 1622.5338173480704 1911.491907339543 2980.1882757646963 2051.9095593001693 2558.167766571045 529.9633961115032 1784.6393308863044 597.9074212517589 1576.9812250584364 -1331.7028927896172 2518.8398346137255 -2378.040879983455 3026.7213133806363 -1127.8708173632622 2084.217242446728 -1177.6964358035475 1456.161145336926 -2137.9719911459833 1085.6945452857763 -2835.5306492764503 1625.164934080094 -1037.278783839196 2208.25913698785 190.24327040091157 2809.7469287076965 733.7954715359956 2031.5158525602892 946.6867503169924 1893.1706679612398 -2228.5640246700495 2450.5149854328483 -2980.477902913466 1240.677631196566 -896.8611318785697 1046.3005087971687 -751.9138782415539 1691.3727951170877 751.9138782415539 1885.2023346489295 2355.3928716033697 1108.3944913949817 2618.109768819064 162.80380752123892 3229.605995103717 826.498151095584 2667.9353872537613 2729.423149130307 1195.8148425072432 3510.7558162333444 647.733039688319 3115.383230681531 1059.9267922248691 2732.9158823667094 4511.483269453049 5275.933575109579 693.0290564522147 2911.727509263903 -1454.0021380465478 2710.9574723485857 -115.22002162598073 1617.2392295626923 -25472.084140628576 -56.144321916624904 -10008.840502822772 -16.52413300704211 21.840104850009084 -28560.939568677917 -25.880168605595827 -11179.850977923721 -2824.426290024072 251.84169745258987 -10576.61991382949 181.86368354968727 -1807.3110687844455 664.7126104943454 -1839.0182805210352 3774.1577410455793 -1712.189433587715 1027.9083363432437 -6382.208761706948 2606.863842931576 -3995.1086783744395 93.98374370858073 -3075.5995381101966 -883.484970299527 -9453.278698142618 0 -3736.9213828314096 -1980.316057072021 -2418.807295067236 213.09238207992166 -1947.7287207525223 1090.4545875871554 -2441.4553034454584 1115.3892162572592 -11360.241003805771 -1591.6638782629743 -4280.73206467554 -1029.0833246037364 -1793.4637830536813 -431.2277271877974 -4112.878321953118 -658.1556307645515 -4140.05593200773 -300.8867819607258 -1733.3342274073511 -15.60519194882363 -47.02799755707383 -17808.69417228736 -2980.8012257367373 1.234529280103743 -128.4574603550136 -49787.11483955663 9.017324030399323 -4030.5328432247043 31535.96860791184 -12.573008593171835 16263.474911188707 -62.57640071492642 -286.2289560697973 1440.7099160011858 980.4047202244401 2307.190548929386 2516.447773767635 2839.4755564676598 2835.530649278313 2556.4700726969168 2165.1496012005955 1401.021616675891 2998.596309620887 530.0604142146185 9539.34112998657 -530.0604142146185 2853.6490559820086 454.3393756002188 5530.643646588549 2094.717912840657 2704.1722006667405 536.2212732229382 1521.9461631905288 31.541450710967183 1481.1797481030226 -220.7924348572269 1114.282012335956 -775.9699012562633 448.43056593835354 -1752.077750721015 -135.88805028423667 -1844.7385455733165 -448.43056593835354 -1906.2541707158089 -837.9763100910932 -1445.735459247604 -3741.4509845059365 -1332.2989757927135 -6237.2615080699325 -5596.510737276636 2296.508049812168 -2312.876421507448 3569.3261208105832 -619.3940603025258 3863.7502297647297 575.1530185742304 3111.839280465618 1231.7262458028272 2758.524491837248 2824.91943929065 819.8579033836722 3581.2434381591156 -389.545744150877 9070.004176107235 1204.8740458544344 4162.756711900234 2935.1818861551583 2799.3368128323928 3614.622137574479 1588.4327352996916 3261.313206832856 491.60200669337064 2799.2938358671963 1165.8737852117047 8986.729725496843 8352.146405435167 525.433794433251 730.2940316013992 117.7696435842663 3052.7557683130726 -317.0721173323691 3668.2592785088345 z" vector-effect="non-scaling-stroke" fill="#000" fill-opacity="1" stroke="#FFF" stroke-width="0.3px" stroke-linejoin="round" stroke-linecap="round"><title>Lyman County</title></path>
<path id="46087" d="M -10865561.913005728 -5388361.419138947 l 58.77914016507566 -26051.912280068733 -281.7481840457767 -14221.196233473718 55.43844225630164 -13477.658087946475 26611.084128918126 63.46371103823185 26758.916190054268 104.48381943441927 -39.857498398050666 53604.46259309165 -30275.687368117273 -15.042405927553773 z" vector-effect="non-scaling-stroke" fill="#000" fill-opacity="1" stroke="#FFF" stroke-width="0.3px" stroke-linejoin="round" stroke-linecap="round"><title>McCook County</title></path>
<path id="46089" d="M -11100563.822838442 -5771043.3168307915 l 14836.379671782255 0 25932.87541563809 3.908241021446884 25932.875515745953 3.908239301294088 12597.912554651499 0 13334.963061206043 0 17982.664833294228 0 -59.14059455320239 55949.42431347817 -13153.674449147657 -167.01360524073243 -26116.10212442465 -3.184514403343201 -38185.80336593278 -62.84213325660676 -31949.019244540483 -107.22655352950096 -1086.589326992631 -5.886328398250043 z" vector-effect="non-scaling-stroke" fill="#000" fill-opacity="1" stroke="#FFF" stroke-width="0.3px" stroke-linejoin="round" stroke-linecap="round"><title>McPherson County</title></path>
<path id="46091" d="M -10906946.66428093 -5771035.500350469 l 2746.6318819597363 0 25932.875615851954 0 25932.875415634364 7.81661741156131 25932.875515749678 7.816466554999352 2997.597655631602 0 74.28650183230639 24427.429046235047 60.46462858095765 36769.42970957421 -15312.77096491307 -93.64488909766078 -981.7814698088914 -4593.8521144241095 -28863.633245892823 -5.729677567258477 -38610.041611380875 -129.32848602999002 z" vector-effect="non-scaling-stroke" fill="#000" fill-opacity="1" stroke="#FFF" stroke-width="0.3px" stroke-linejoin="round" stroke-linecap="round"><title>Marshall County</title></path>
<path id="46093" d="M -11529083.57598647 -5559405.995076959 l 30720.52216839604 -28.285371310077608 36450.222298167646 -2.810295535251498 53.32359456457198 -13507.405309503898 556.1519533656538 -0.626188489608467 24.604835730046034 -28916.06314648129 117.77891556546092 -25881.432573348284 35949.117721682414 130.38191477302462 12209.574293002486 -145.5629374831915 15818.940912185237 126.97698929905891 26709.991941768676 -23.15486293286085 15887.001426223665 154.79590481799096 -49.2534200232476 51435.58904658817 -128.86836787126958 30733.508510549553 -1629.7228467687964 946.5935670668259 -12198.217313896865 10213.84624090325 -2640.757777201012 932.5772607913241 -12035.15165355429 -1154.6335384678096 -2464.1033118311316 266.4668836351484 -2758.5274207778275 1021.3841847954318 543.5522011388093 5701.153456602246 -2255.7416347265244 5786.289870915934 -2921.5930811222643 5491.361670860089 -1449.4725363720208 4810.934610897675 -385.0161424726248 6655.167602659203 -575.2594128735363 3660.805993536487 -905.9203352313489 2446.569555832073 -1404.176519608125 1629.8054069224745 -344.24972739070654 909.8264034297317 -113.2400419022888 1768.847942355089 217.42088045738637 960.0885712364689 366.8977357670665 795.7865521190688 67.94402514398098 846.2367717036977 -652.2626413684338 1105.0421784501523 991.9827670808882 3023.9763368330896 -26917.445207808167 343.8031944409013 -36129.733595490456 -54.916303432546556 -26887.15691136755 -32.26802881062031 -29025.136231042445 3.502473174594343 -66.36667666584253 -17986.32599456515 -13511.956452896819 82.68473509512842 11.689993685111403 -13705.985176536255 542.5710868053138 -7.938566233962774 z" vector-effect="non-scaling-stroke" fill="#000" fill-opacity="1" stroke="#FFF" stroke-width="0.3px" stroke-linejoin="round" stroke-linecap="round"><title>Meade County</title></path>
<path id="46095" d="M -11268668.275662048 -5371397.532933823 l 18.14863922074437 -35048.479484972544 -27.604450725018978 -26376.107840480283 -68.66665326058865 -2436.1604342032224 1888.8438989575952 -884.9947888338938 3601.033332547173 -2215.998162459582 8619.831989727914 -6066.903807726689 1857.1366872265935 -854.4608192844316 1965.8471274487674 -226.19408420659602 2110.794381093234 339.28904162626714 2051.909559302032 735.0833512032405 1766.544653698802 1061.6834337506443 2957.829894531518 3215.7139119543135 1662.3638151492923 847.7062589675188 4162.703940389678 -1450.5670768488199 1712.189433587715 552.6239237850532 1467.5909430757165 1444.2014006869867 5372.10758792609 6646.686026377603 4294.062388995662 4610.322841172107 1608.0085950382054 1291.7314773993567 1820.899873815477 865.2335089799017 4158.174338713288 720.965938215144 4144.585533685982 -112.84312331862748 4140.05593200773 -639.4704381935298 5743.534925369546 -4546.533490876667 1757.4854503478855 -928.3955118637532 1848.077483875677 -326.21521361358464 1993.0247375052422 552.0497535923496 9512.163519935682 4716.168567751534 4058.523101836443 927.8981642881408 8275.582262344658 959.1479747248814 4512.9864840153605 40.8121720449999 1733.3342274073511 15.60519194882363 4140.05593200773 300.8867819607258 4112.878321953118 658.1556307645515 1793.4637830536813 431.2277271877974 256.1859951838851 2088.445776465349 -15.254443787038326 35479.593596120365 1843.2277945969254 99.56216504983604 23.598173575475812 13338.52265102882 -15379.340131718665 55.91135359928012 -44309.82139975391 46.25759807508439 -33240.214129567146 85.01401718705893 z" vector-effect="non-scaling-stroke" fill="#000" fill-opacity="1" stroke="#FFF" stroke-width="0.3px" stroke-linejoin="round" stroke-linecap="round"><title>Mellette County</title></path>
<path id="46097" d="M -10865729.443607353 -5442112.1857404355 l -27005.32188292779 -123.18282650783658 50.26453495211899 -38816.4751601154 129.85563316754997 -14652.105840059929 20344.299404757097 69.24969675578177 33023.61066814326 -14.850289014168084 -9.350948549807072 33300.97637360077 77.72671937569976 20299.85175637901 z" vector-effect="non-scaling-stroke" fill="#000" fill-opacity="1" stroke="#FFF" stroke-width="0.3px" stroke-linejoin="round" stroke-linecap="round"><title>Miner County</title></path>
<path id="46099" d="M -10737161.005408533 -5388408.6336919 l -15776.602696668357 187.33351762406528 -364.1799877192825 374.6556735308841 -36335.46593648195 -540.8716062726453 -22762.04675737582 47.740490146912634 39.857498398050666 -53604.46259309165 26765.717922262847 -64.05588135775179 42518.45679931715 118.39628495369107 5914.263158267364 -312.3706272719428 0 20019.183700181544 z" vector-effect="non-scaling-stroke" fill="#000" fill-opacity="1" stroke="#FFF" stroke-width="0.3px" stroke-linejoin="round" stroke-linecap="round"><title>Minnehaha County</title></path>
<path id="46101" d="M -10737161.005408533 -5495924.798324658 l 0 5819.210423066281 0 34023.990832383744 0 13879.32863556873 -5914.263158267364 312.3706272719428 -42518.45679931715 -118.39628495369107 -2.427989415824413 -44358.219957661815 -61.04582764022052 -9394.140624562278 30347.537531575188 25.355524589307606 z" vector-effect="non-scaling-stroke" fill="#000" fill-opacity="1" stroke="#FFF" stroke-width="0.3px" stroke-linejoin="round" stroke-linecap="round"><title>Moody County</title></path>
<path id="46102" d="M -11409749.78139886 -5312020.778277031 l -18964.536285260692 -3.716064029373228 -14050.02799025923 -2.752682154066861 -4917.226037422195 -0.963383351452649 -18961.81854283437 0 615.8340213205665 -30427.899537576362 33.73425848968327 -42379.58278787974 -225.09082579612732 -19895.226344146766 2364.452074954286 -1126.0649709720165 3057.481131406501 -788.3270825073123 2645.2873788774014 -1295.254721541889 2119.8535844422877 -5589.822928359732 2368.981676630676 -876.6507434966043 4987.091445451602 125.2409142497927 2513.928930265829 -1208.6457027019933 1389.6347464192659 -1760.8874957803637 8861.020972030237 43.82417707238346 36478.38612934016 -4.15263363160193 20409.878805458546 5.022716665640473 347.614719837904 -645.1928102448583 1503.827756486833 -1390.806968105957 1784.6630604024976 -1165.4320427272469 1920.551110694185 -877.3039828557521 1965.8471274524927 -526.4224198274314 1210.1434778552502 -105.50240109674633 224.21284335665405 37107.847961773165 3108.0394037049264 -24.237811755388975 34.7302339784801 13326.311402012594 218.85000007599592 39735.02174540516 3053.047575259581 118.36531200632453 -120.11640223115683 19633.211285557598 -8043.768224906176 0 -18967.254127798602 0 z" vector-effect="non-scaling-stroke" fill="#000" fill-opacity="1" stroke="#FFF" stroke-width="0.3px" stroke-linejoin="round" stroke-linecap="round"><title>Oglala Lakota County</title></path>
<path id="46103" d="M -11583385.988090014 -5442794.135356948 l -4.261699518188834 -3362.6765081556514 76.09738856740296 -19320.0073442813 10.870969694107771 -19364.53217300307 -11.371758868917823 -2458.252708078362 49418.19605110958 64.58277053851634 17626.902692100033 -16.81321763806045 29025.136231042445 -3.502473174594343 26887.15691136755 32.26802881062031 36129.733595490456 54.916303432546556 26917.445207808167 -343.8031944409013 -991.9827670808882 -3023.9763368330896 652.2626413684338 -1105.0421784501523 -67.94402514398098 -846.2367717036977 -366.8977357670665 -795.7865521190688 -217.42088045738637 -960.0885712364689 113.2400419022888 -1768.847942355089 344.24972739070654 -909.8264034297317 1404.176519608125 -1629.8054069224745 905.9203352313489 -2446.569555832073 575.2594128735363 -3660.805993536487 385.0161424726248 -6655.167602659203 1449.4725363720208 -4810.934610897675 2921.5930811222643 -5491.361670860089 2255.7416347265244 -5786.289870915934 -543.5522011388093 -5701.153456602246 2758.5274207778275 -1021.3841847954318 2464.1033118311316 -266.4668836351484 12035.15165355429 1154.6335384678096 2640.757777201012 -932.5772607913241 12198.217313896865 -10213.84624090325 1629.7228467687964 -946.5935670668259 70.19676232896745 26525.14543703571 -697.5278179887682 7.315882158465684 -56.77661385014653 33994.12150339037 44.97095921449363 20208.89394413866 -1314.794171800837 5.879888107068837 -58.55549931153655 14883.627530097961 87.49389149434865 28514.80193591304 -6444.777650980279 -709.2384850783274 -6291.616728184745 -94.00805708300322 -864.414089826867 76.2456453051418 -1210.1434778552502 105.50240109674633 -1965.8471274524927 526.4224198274314 -1920.551110694185 877.3039828557521 -1784.6630604024976 1165.4320427272469 -1503.827756486833 1390.806968105957 -347.614719837904 645.1928102448583 -20409.878805458546 -5.022716665640473 -36478.38612934016 4.15263363160193 -8861.020972030237 -43.82417707238346 182.13703520968556 -230.9049070570618 2382.570481657982 -4730.662960313261 9457.80829982087 -10805.029495838098 419.90623598732054 -1124.0452731475234 381.8332606907934 -1266.9376578591764 575.2594128716737 -5361.571353914216 1313.5844860877842 -2757.3391193291172 -31278.3870249521 250.00534670241177 -37894.202739039436 49.474382567219436 -22386.677991023287 0.460666443221271 -27830.42250527814 217.05099016893655 z" vector-effect="non-scaling-stroke" fill="#000" fill-opacity="1" stroke="#FFF" stroke-width="0.3px" stroke-linejoin="round" stroke-linecap="round"><title>Pennington County</title></path>
<path id="46105" d="M -11459457.656328088 -5771058.949812098 l 10664.520356029272 0 25932.875515745953 0 25932.875515747815 0 25932.875515742227 0 16336.980139290914 0 -34.76975238695741 39735.51922997646 128.7368722744286 35122.05612157937 -40.96946879290044 34251.575770456344 18.18570861965418 34450.61773693282 -15887.001426223665 -154.79590481799096 -26709.991941768676 23.15486293286085 -15818.940912185237 -126.97698929905891 -12209.574293002486 145.5629374831915 -35949.117721682414 -130.38191477302462 -6.36736355535686 -27344.8594062794 61.36553721688688 -27463.392405274324 752.4082156326622 4.517303601838648 -97.62496703490615 -18559.020205944777 73.80905253253877 -36505.21720298566 877.7539622671902 -26.314386285841465 z" vector-effect="non-scaling-stroke" fill="#000" fill-opacity="1" stroke="#FFF" stroke-width="0.3px" stroke-linejoin="round" stroke-linecap="round"><title>Perkins County</title></path>
<path id="46107" d="M -11177004.911634231 -5605428.83497066 l -1221.9532712046057 -4063.219127894379 -857.7156746853143 -7473.707259202376 82.48807663470507 -3561.061955144629 3437.1002637762576 -5088.523319127038 3188.1894370839 -487.9510411079973 5272.200844988227 2122.191616841592 3959.7446051295847 -438.5710321003571 -148.1659082826227 -2360.9359553083777 -3888.277046766132 -4078.3632077584043 -995.7519545909017 -6313.482520196587 3866.5709705706686 -6158.836699030362 1304.3303623050451 -3238.392594547011 450.2878968566656 -6120.88453457877 1515.3924508094788 -4210.7143699666485 124.56673283688724 -3558.239229841158 22511.355486754328 49.60989618208259 38852.05040701479 99.65345506276935 15093.471901999786 79.37216973304749 50.310398587957025 54847.95320505928 -11143.412092572078 -13.987472626380622 -23918.54461327754 2.197565886192024 z" vector-effect="non-scaling-stroke" fill="#000" fill-opacity="1" stroke="#FFF" stroke-width="0.3px" stroke-linejoin="round" stroke-linecap="round"><title>Potter County</title></path>
<path id="46109" d="M -10823403.808196103 -5771019.867266502 l 22932.560117689893 0 25938.31100059487 0 25930.15777331777 0 -717.488905634731 1656.9468852123246 -358.7444027606398 609.5535674598068 -391.35761219263077 851.7418572427705 -285.3649568464607 836.0342024760321 -991.9827926624566 9745.320300864056 -744.6664299927652 2758.4518504273146 -2258.4594723638147 4145.821858717129 -3331.9748381134123 7880.702977188863 -413.0997518170625 720.6851387778297 -888.7077796272933 1262.0326719135046 -1068.0801812298596 1137.2343740658835 -2981.3837627414614 2449.2340234061703 -8112.51660005562 4768.038686847314 -1146.895112004131 1023.3363380767405 -2538.3888442460448 2948.7299440717325 -4220.682817958295 3083.841782031581 -1008.2893473282456 835.9144566915929 -831.6348883733153 991.3319858806208 -1380.6225623246282 3354.1617101607844 -472.8904856070876 3360.6701340535656 2956.9239807985723 4003.9562492864206 5498.030567472801 6431.3099380536005 2274.765926912427 3673.5112832700834 4033.1573893092573 9647.899990763515 2470.4447830673307 4701.954038599506 2236.717232629657 2005.5188030600548 8810.981208607554 960.012428605929 4734.339740278199 1486.2676395112649 3245.0065799616277 2418.5283454004675 1206.6858457885683 1392.775984985754 2652.5348269864917 2301.4751077229157 1081.6688933577389 1179.5187254371122 1975.9211774133146 3865.576043283567 -43109.64649084024 -459.3192458981648 -14525.909366874024 -137.35633993241936 -1624.9306071083993 4751.019648307003 -24345.677276812494 -123.59786695800722 -94.06062825769186 -41321.97676325496 -60.46462858095765 -36769.42970957421 z" vector-effect="non-scaling-stroke" fill="#000" fill-opacity="1" stroke="#FFF" stroke-width="0.3px" stroke-linejoin="round" stroke-linecap="round"><title>Roberts County</title></path>
<path id="46111" d="M -10945514.884161502 -5442420.764670312 l -694.8561502099037 10.805410081520677 -4.362276889383793 -13386.57951169461 -57.704016527161 -40118.422564012 14010.622798584402 -4.811746460385621 27028.587767820805 313.3276035320014 12209.62973011285 -113.82235890254378 468.3209864497185 16.31827064976096 -129.85563316754997 14652.105840059929 -50.26453495211899 38816.4751601154 -12939.440200438723 -127.90694149956107 z" vector-effect="non-scaling-stroke" fill="#000" fill-opacity="1" stroke="#FFF" stroke-width="0.3px" stroke-linejoin="round" stroke-linecap="round"><title>Sanborn County</title></path>
<path id="46115" d="M -10906836.81387346 -5563708.827639828 l -40527.51950634271 -176.7684158012271 -40504.45778139308 -238.9803356351331 -18.52100291661918 -41175.57318772562 -1186.449366768822 -24.487767326645553 -117.1812412198633 -36459.27651066426 -3.102696843445301 -18188.62155887205 31841.750558689237 302.01544561143965 31946.73708366044 170.62931812461466 18155.981522670016 51.967473284341395 -32.61816927604377 13762.121811229736 -130.4705620314926 38832.483161656186 642.953214995563 2409.076600960456 38.6533554662019 22191.143882426433 z" vector-effect="non-scaling-stroke" fill="#000" fill-opacity="1" stroke="#FFF" stroke-width="0.3px" stroke-linejoin="round" stroke-linecap="round"><title>Spink County</title></path>
<path id="46117" d="M -11258515.085275179 -5582081.635210621 l 3072.127271240577 -809.9817248489708 5027.857860537246 1084.28137361072 5335.870774514973 -108.42229795921594 11006.932073066011 -5052.642652682029 3505.911697346717 -1167.867711449042 3809.3950096499175 -485.0603745393455 4334.828804085031 89.35517964605242 9962.858575209975 795.6453695781529 79.26834083162248 595.6286585116759 5654.271466737613 5689.139004602097 4635.0083023272455 1207.2363702096045 1814.2840590719134 4712.3700582217425 37.73697342351079 2976.282228762284 -1262.3632482346147 5725.5587446745485 -1957.219287129119 4659.8952734693885 -352.2152028270066 3723.1311844410375 611.2548786662519 2224.7063123965636 2133.325942326337 2660.5852857409045 3101.9166090805084 1581.4484769701958 6235.670926481485 620.6619389280677 1170.8580702003092 809.3111968077719 1064.65905335173 1938.3985487269238 -1651.2018956113607 3106.729261255823 -2413.5173232946545 957.7082025911659 -2487.767646294087 2694.780028465204 -557.1541627366096 2686.9624396273866 761.8700383901596 2966.2680923696607 4210.2131254617125 1693.0399912837893 6820.321114769205 -2455.9997569313273 6021.574236232787 -957.462258733809 3075.5995381101966 3363.289304830134 1680.4822218548506 6177.601389918476 2174.2088045552373 5172.264095305465 3356.4348420351744 3395.8720389166847 5109.39069070667 1596.1299826335162 17402.729639800265 2013.765696742572 5467.22922312282 2228.556043920107 7392.309935493395 5575.338246004656 2214.975219640881 797.1028739670292 5553.291654970497 234.05668356176466 2708.70180234313 961.4672586135566 1268.2884693220258 2087.047882261686 -493.72658270038664 2446.9310153750703 -2785.705030836165 4361.121313340031 -366.0336852967739 1825.6087422017008 -16263.474911188707 62.57640071492642 -31535.96860791184 12.573008593171835 -9.017324030399323 4030.5328432247043 -42645.1499570664 88.11429108958691 -33001.43382181972 -44.28012998495251 -13344.977216711268 44.74074165895581 -5.785719219595194 -27203.472007519566 1293.1981905903667 -5.292123370803893 74.81259774789214 -54141.88463529479 1931.7265671342611 -2.348454070277512 z" vector-effect="non-scaling-stroke" fill="#000" fill-opacity="1" stroke="#FFF" stroke-width="0.3px" stroke-linejoin="round" stroke-linecap="round"><title>Stanley County</title></path>
<path id="46119" d="M -11212459.303209528 -5587736.328049265 l -559.40549550578 -4102.374596657231 1452.1084867883474 -1573.858879991807 1591.645856719464 -1191.0992913078517 2731.890733005479 880.0384085932747 3856.773519549519 4913.896038416773 3640.702721880749 3515.5061272317544 7297.213145410642 1307.7732092458755 1850.2409225124866 -1127.2975145718083 1596.877984110266 -2721.928027738817 4161.789926202968 -4831.763465162367 6283.98403076455 -4227.672805421054 2858.4616619497538 -4965.259217278101 -1307.8919180911034 -3568.4669067533687 57534.239273969084 34.10759033448994 23918.54461327754 -2.197565886192024 -158.2969838231802 7070.491797588766 -218.0576279424131 47668.38467235118 -36025.449051244184 -41.95981691684574 -58603.57396857813 149.63497765921056 -1170.8580702003092 -809.3111968077719 -6235.670926481485 -620.6619389280677 -3101.9166090805084 -1581.4484769701958 -2133.325942326337 -2660.5852857409045 -611.2548786662519 -2224.7063123965636 352.2152028270066 -3723.1311844410375 1957.219287129119 -4659.8952734693885 1262.3632482346147 -5725.5587446745485 -37.73697342351079 -2976.282228762284 -1814.2840590719134 -4712.3700582217425 -4635.0083023272455 -1207.2363702096045 -5654.271466737613 -5689.139004602097 z" vector-effect="non-scaling-stroke" fill="#000" fill-opacity="1" stroke="#FFF" stroke-width="0.3px" stroke-linejoin="round" stroke-linecap="round"><title>Sully County</title></path>
<path id="46121" d="M -11182167.192448137 -5312005.913761899 l -18964.536285260692 -7.432391502894461 -18961.81854283251 -7.432123629376292 -18964.536285264418 0 -18967.254227904603 0 -10621.6455710046 0 10.318871513009071 -25051.31156293396 -31.611173156648874 -34325.44309385773 19943.8835303355 13.175959025509655 33240.214129567146 -85.01401718705893 44309.82139975391 -46.25759807508439 15379.340131718665 -55.91135359928012 69.79331322573125 40027.088230483234 1670.7939033582807 -10.981975559145212 19.293337550014257 19549.519926835783 -9167.520346455276 0 z" vector-effect="non-scaling-stroke" fill="#000" fill-opacity="1" stroke="#FFF" stroke-width="0.3px" stroke-linejoin="round" stroke-linecap="round"><title>Todd County</title></path>
<path id="46123" d="M -11080086.873903934 -5312005.913761899 l -7252.2015329468995 0 -18964.53638537042 0 -18964.536285262555 0 -18967.254027681425 0 -9799.733781343326 0 -19.293337550014257 -19549.519926835783 -1670.7939033582807 10.981975559145212 -69.79331322573125 -40027.088230483234 -23.598173575475812 -13338.52265102882 -1843.2277945969254 -99.56216504983604 15.254443787038326 -35479.593596120365 -256.1859951838851 -2088.445776465349 4280.73206467554 1029.0833246037364 11360.241003805771 1591.6638782629743 2441.4553034454584 -1115.3892162572592 1947.7287207525223 -1090.4545875871554 2418.807295067236 -213.09238207992166 3736.9213828314096 1980.316057072021 9453.278698142618 0 3075.5995381101966 883.484970299527 3995.1086783744395 -93.98374370858073 6382.208761706948 -2606.863842931576 1712.189433587715 -1027.9083363432437 1839.0182805210352 -3774.1577410455793 1807.3110687844455 -664.7126104943454 10576.61991382949 -181.86368354968727 2824.426290024072 -251.84169745258987 25.880168605595827 11179.850977923721 -21.840104850009084 28560.939568677917 10008.840502822772 16.52413300704211 -27.699406255036592 31386.926338310353 z" vector-effect="non-scaling-stroke" fill="#000" fill-opacity="1" stroke="#FFF" stroke-width="0.3px" stroke-linejoin="round" stroke-linecap="round"><title>Tripp County</title></path>
<path id="46125" d="M -10789533.812507646 -5324724.419197483 l -26327.418244007975 89.61879520211369 -0.110094977542758 -13244.181170422584 -26566.055394895375 85.31907259859145 -132.69094059616327 -18789.428574441 -114.90097277238965 -31771.72694825288 30275.687368117273 15.042405927553773 22762.04675737582 -47.740490146912634 48.865582920610905 39137.38184007909 z" vector-effect="non-scaling-stroke" fill="#000" fill-opacity="1" stroke="#FFF" stroke-width="0.3px" stroke-linejoin="round" stroke-linecap="round"><title>Turner County</title></path>
<path id="46127" d="M -10772896.844925549 -5263336.6365253655 l -1407.8001867961138 -306.84365616273135 -1353.4450379647315 -776.3962570363656 -587.0362681224942 -820.8314054263756 -375.0510575324297 -1061.2712290799245 286.48124110139906 -33895.98580253776 -24.599381076171994 -24516.8507700013 36906.21762572415 2212.5093354918063 -3701.5904107969254 3637.7045959811658 -222.8563805092126 713.9842060310766 8.15322727151215 847.7855966929346 464.737158222124 870.0156306913123 407.66406674683094 550.2244651941583 195.67875604331493 464.69154528249055 97.8395281881094 698.8524407697842 -269.0585022941232 1063.0476543866098 -733.795360179618 2084.85789589677 -486.479297850281 758.0149496737868 -43.48417913168669 178.34753933362663 -38.04849406145513 401.26935964170843 65.22621864639223 527.5689814686775 157.63016187027097 2979.0913143754005 -448.43070367723703 1767.6905344715342 -421.2528789807111 972.8301693815738 -2065.498358635232 2331.4103973107412 -144.04134963452816 356.3428143430501 -149.47693459130824 1028.1213660091162 -119.24261701852083 2141.580496793613 -111.7669907771051 2006.8749081678689 -260.9050747901201 1187.0553861446679 -225.5741229392588 678.7795459004119 -410.38200939260423 356.0615099389106 -529.9633768666536 571.1537716826424 -217.42089566774666 656.41293018125 -190.24317107722163 923.3504981035367 -105.99275546334684 2002.1345144985244 -160.3478041831404 830.3895703190938 -279.9294719938189 581.970469259657 -415.81739412620664 244.63914234749973 -1747.5202924758196 767.2359750811011 -375.0510575324297 255.73156256973743 -442.99501859769225 422.4974523773417 -434.8417913299054 563.3003401234746 -347.87333294935524 655.9057208644226 -269.0584021862596 778.1339036701247 -231.00970789790154 852.168040513061 -274.4937869235873 785.4078888185322 -342.4379482027143 663.0998391732574 -1723.060510540381 2537.1284173661843 -932.1919587608427 2136.582182059996 -456.58383084088564 1436.4579047420993 -304.38925392366946 2080.2531706877053 269.0584021806717 1232.3883080268279 559.8587437644601 1583.7332876753062 1761.1091047022492 2770.8912009187043 1024.5959019940346 1250.1482016285881 875.1190674975514 854.2954882979393 5946.46107092686 4517.9703810587525 997.4181774035096 975.7741590254009 885.9901373162866 1053.2790260408074 345.1556906364858 587.5676677031443 130.452537400648 620.7862749751657 -385.9221273511648 657.6931998152286 -1190.3791910149157 1030.7861344078556 -138.60596490092576 188.41116563789546 -320.695708476007 602.1513184709474 -40.76643670909107 380.48081684391946 163.06564672477543 439.5652080513537 1926.8924938514829 1163.456410188228 535.3989618271589 409.94566577114165 451.1483459863812 509.6372880656272 402.2285818923265 616.697912032716 733.7955604046583 1414.190985005349 317.977966055274 874.9936201907694 152.19467702321708 904.4439467377961 -81.53287341445684 1229.1662405384704 97.83942807279527 937.4544561728835 521.8100494798273 834.0346809383482 608.7785078585148 409.6094017624855 793.5861940924078 1822.730983093381 -54.355248944833875 5340.7131900936365 -14319.882645670325 -2411.798567594029 -548.9981216620654 -357.75163760688156 -1369.7411449179053 -892.6435147589073 -1214.8391731791198 -2058.533611850813 -421.25297909229994 -2922.5611571222544 -1005.5716048963368 -2425.085152650252 -4595.733875498176 -3570.4771085949615 -1307.2430162969977 -1791.2866800632328 -54.35524894669652 -1961.5726199746132 559.8588438760489 -1256.2121970942244 679.44011124596 -1067.9122388046235 334.2847209367901 -1396.9676742563024 -573.4475560002029 -1149.5125600658357 -1342.5739681515843 -805.8512782948092 -1527.3816543836147 -476.88949982542545 -1152.3307970743626 -155.27159034181386 z" vector-effect="non-scaling-stroke" fill="#000" fill-opacity="1" stroke="#FFF" stroke-width="0.3px" stroke-linejoin="round" stroke-linecap="round"><title>Union County</title></path>
<path id="46129" d="M -11179824.844061946 -5715649.583622764 l 42506.50141995959 139.15934604685754 22573.86126951687 114.30589708779007 14248.000480754301 -36.1107921898365 1086.589326992631 5.886328398250043 -142.60639027692378 55116.079995043576 -38852.05040701479 -99.65345506276935 -22511.355486754328 -49.60989618208259 -871.7424871232361 -2261.287087892182 -4378.193791789934 -4872.241672637872 -1032.4876091908664 -4114.333055695519 937.8668212573975 -2243.854093173519 2884.287561174482 -3681.75753228087 936.4197791945189 -4092.792296020314 -2558.899910353124 -4993.583368592896 -3848.6471967212856 -5037.463380402885 -1163.5105385370553 -4522.299602781422 -2574.1506805866957 -4286.192849613726 -2964.8823159132153 -1917.8132276106626 -5819.670212030411 335.81300831679255 -3917.554184164852 -2421.9863297659904 -824.6543425172567 -1814.4171667993069 1239.709509216249 -3642.4997542779893 3852.154762558639 -3103.853284586221 z" vector-effect="non-scaling-stroke" fill="#000" fill-opacity="1" stroke="#FFF" stroke-width="0.3px" stroke-linejoin="round" stroke-linecap="round"><title>Walworth County</title></path>
<path id="46135" d="M -10814725.90450544 -5281331.637845959 l -2372.6054551042616 -1748.4210971277207 -4065.7703985180706 -3872.134047852829 -3337.410523183644 -4411.363333122805 -1913.303781727329 -1820.755641802214 -2282.9191541913897 -1190.542726255022 -2818.3182161245495 -426.55515036545694 -20561.469774922356 3840.174985099584 -1618.1777233965695 302.1531554767862 -3013.997072281316 -74.15275969542563 -8041.854796456173 -1998.6367174750194 -2481.3158528786153 589.6235295906663 -1492.1467549167573 802.924018879421 71.82041146606207 -15554.127289984375 -302.0067729000002 -30801.15672255587 26527.98412904702 -99.0548569560051 26566.055394895375 -85.31907259859145 0.110094977542758 13244.181170422584 z" vector-effect="non-scaling-stroke" fill="#000" fill-opacity="1" stroke="#FFF" stroke-width="0.3px" stroke-linejoin="round" stroke-linecap="round"><title>Yankton County</title></path>
<path id="46137" d="M -11354563.562165644 -5696201.374460543 l 38457.25638951361 30.800682185217738 20493.879515856504 -31.270246260799468 -109.59927069582045 13774.069167361595 -1685.450895436108 66.02599464915693 -27.279286498203874 54794.89753660653 -1589.8925747405738 9.294409516267478 40.769984263926744 7016.395704190247 26899.401832712814 53.837879738770425 13659.510215314105 -100.11268659401685 -90.11901982501149 38505.80080852844 -832.3893736060709 223.27755252458155 -4112.878321951255 2474.2407868104056 -2962.3594962097704 2824.1451227460057 -1508.3573581594974 1644.35639192909 -1789.1926620863378 1223.5135705573484 -9598.225951775908 1013.09723294992 -2432.3961000964046 1286.9163128882647 -4063.052703516558 3490.319137309678 -7677.6748410873115 4761.992511759512 -6776.284107534215 6941.158695813268 -2532.0473369713873 1456.2702932348475 -2821.941844249144 470.53527465462685 -15291.935258708894 -1316.2883002851158 -2482.22171853669 610.476252081804 -6296.146329859272 4729.801190561615 -5299.633961105719 1963.6702621886507 -11215.293750170618 127.08378944080323 -5594.058070054278 1105.554047172889 -2963.2932528536767 1721.4316902672872 128.86836787126958 -30733.508510549553 49.2534200232476 -51435.58904658817 -18.18570861965418 -34450.61773693282 z" vector-effect="non-scaling-stroke" fill="#000" fill-opacity="1" stroke="#FFF" stroke-width="0.3px" stroke-linejoin="round" stroke-linecap="round"><title>Ziebach County</title></path>
</svg>
