<svg xmlns="http://www.w3.org/2000/svg" xmlns:xlink="http://www.w3.org/1999/xlink" height="1080" width="1920" viewBox="-12695158.33311603 -5160991.027686567 556176.200976152 721910.894665895">
<path id="49001" d="M -12694958.149524963 -4600439.48551807 l -7.222677558660507 -14696.203565081581 -5.435484854504466 -22159.31476702355 -10.871069811284542 -22210.723353370093 -0.233979361131787 -956.8798799896613 7448.346421809867 -198.28511329740286 26620.270101977512 -206.03172122780234 34321.23926313594 -154.4189737169072 6109.101333372295 155.70374543312937 13463.198961213231 -167.02196040004492 25305.864991798997 181.83448519557714 2524.8934757113457 -343.87327716033906 22014.315184872597 565.1443196581677 17945.365714000538 107.14575244300067 8519.61325304769 -312.3227986935526 5576.660208903253 240.9188103955239 -368.24543214030564 8891.336289620958 98.62862356565893 4370.89453854505 2711.1294253300875 3918.7923345360905 1557.1930309142917 479.6612655799836 3007.628221148625 2836.5689635621384 930.1861103400588 3192.0675634695217 1073.6757094711065 556.1339896582067 3335.799415830523 -2024.2448287690058 44.19361520558596 2955.0452524870634 2677.343959869817 2199.8935821577907 2042.7123221028596 3438.785163970664 1906.9026546441019 1091.3113575661555 959.0169679094106 1977.776887900196 -1398.5068741515279 4119.112756269984 -476.5596306473017 3624.832671387121 -2985.254339322448 5022.052810751833 1780.7773376256227 2397.097070458345 -118.55514637567103 1449.553070393391 -3411.273696633056 1522.024052945897 -3235.1672640722245 3629.3952023414895 -917.7173255085945 3580.5526681300253 -1268.4858202245086 736.6855906900018 -3880.7081006243825 369.1721102911979 -12245.58648224175 -114.37479270901531 -16864.009516267106 62.70631516631693 -14583.072927270085 -213.46490190830082 -2005.6428203452379 154.57683312986046 -24397.21975952387 -37.93834793474525 -40431.56577882171 -39.92109083663672 -31084.736721768975 -13.874696403741837 z" vector-effect="non-scaling-stroke" fill="#000" fill-opacity="1" stroke="#FFF" stroke-width="0.3px" stroke-linejoin="round" stroke-linecap="round"><title>Beaver County</title></path>
<path id="49003" d="M -12695107.213640181 -5012334.559779155 l -2.199811862781644 -9324.535840374418 -10.871069813147187 -23085.58952354826 -5.435484847053886 -23137.159303933382 -10.871169924736023 -23185.50984252058 -5.435484854504466 -23259.723757651635 -13.588712122291327 -23298.033510732464 -2.717742424458265 -23365.916128650308 20818.049233084545 0 20818.04923308082 7.314172402024269 20818.04933319427 3.657084091566503 20818.049333190545 0 20818.049333192408 0 11784.236798191443 0 9033.812434891239 0 20820.767075616866 0 20820.76707562059 7.314163973554969 20818.049333196133 7.314158372581005 20818.049233082682 0 2431.9423915538937 4487.642431862652 1366.113236296922 902.0471177967265 1746.8244476485997 5179.466754972003 2010.429224492982 2838.938818681054 2118.186602897942 1051.3720918036997 3760.4817147348076 5817.024476115592 605.5778072755784 3316.021348340437 2014.4368374794722 3445.7217547139153 -250.80259011872113 1363.812905290164 2354.851395048201 2140.54424432572 -576.1900183092803 2223.514711051248 -2138.7810426466167 2486.4158257581294 -1082.9158951193094 4132.2495145294815 -3.117613663896918 3958.83580562938 -895.1199141480029 1566.9445658968762 2323.014354640618 2622.7819776423275 1636.5075001902878 3485.3966164933518 967.4763586521149 3783.0572478296235 55.65974539518356 6115.880030124448 1388.9326187167317 3858.909695503302 -264.94116733036935 1255.2142175883055 1617.2492282874882 3501.2966838143766 4308.063959743828 -2887.212739231065 2931.486357351765 2177.9835060313344 1206.7027236036956 5996.240487175994 2363.534649288282 340.5039664665237 736.8225963655859 3058.3472249275073 -4283.906517045572 1759.733264745213 2855.567021228373 3254.3243222329766 635.4104289375246 2287.662784053944 -4610.740764655173 2062.987848555669 -3543.5215856526047 -3159.90584939532 -1528.0822048392147 2068.270598905161 418.1160074174404 4154.353011954576 -725.6925397161394 2150.1631163209677 1327.930316992104 1763.0069321906194 -6421.798005647957 3215.602344849147 -823.7647884618491 1097.1788638718426 -23321.539297351614 -44.18397894874215 -28443.909562375396 38471.52332655247 -34054.18447264284 11290.471254571341 -35445.67732832208 44.68879519216716 -31107.112162061036 0.144402107223868 -25455.534603770822 0.29219670407474 z" vector-effect="non-scaling-stroke" fill="#000" fill-opacity="1" stroke="#FFF" stroke-width="0.3px" stroke-linejoin="round" stroke-linecap="round"><title>Box Elder County</title></path>
<path id="49005" d="M -12480062.725625806 -5160965.428107726 l 13908.370259309188 0 20823.484818043187 0 20818.04933319427 0 11496.942483594641 4.039451736025512 2565.3128959406167 3600.195034880191 1308.004016822204 4244.28587983083 -511.17999227531254 5083.293738921173 -2910.892919478938 1674.5342708313838 1202.8065414242446 2351.3336700526997 -1539.6600998025388 4902.543589918874 5160.5471730828285 5441.353979822248 1905.5663754865527 6823.351088124327 180.94827380776405 5380.532636643387 2394.482135646045 1646.6988759087399 359.06135151162744 1890.5295767951757 -1018.7970929332078 5164.788654295728 1208.3727385979146 171.69426365476102 1544.223642328754 3188.60560925398 -1672.7978768292814 2304.589186954312 606.1344047281891 1841.7835412854329 -2031.8026780392975 1119.106520542875 266.83170623146 5032.656580871902 -715.0053119957447 4803.617139223963 -1063.1008031219244 3270.723868920468 -3568.2354031689465 3949.8280668938532 -42.858449229970574 2279.4793721288443 -1680.812323572114 3474.7337170047686 -1351.6419251281768 1129.8425320871174 213.7334223203361 3085.2236196910962 -1127.4096276685596 2162.5047785183415 -3661.5544209759682 2603.439129214734 -1137.1277078986168 -2595.562020856887 -2395.761975828558 -843.7894959952682 -928.2377966158092 1525.1813277220353 -3911.431500852108 -545.8523896001279 -3773.1741404421628 1590.854744934477 -1513.4431352037936 -2577.385350059718 -3236.335896084085 1722.093868180178 -3487.7507434096187 4761.918042851612 78.59144918620586 1344.8787135863677 -4243.664632441476 974.6037932895124 -3760.6498071700335 -3365.6965431617573 -4935.794011726975 34.87108379043639 -2892.1907997466624 -980.507588069886 -1900.3345820512623 -4150.244908452965 -635.4104289375246 -2287.662784053944 -2855.567021228373 -3254.3243222329766 4283.906517045572 -1759.733264745213 -736.8225963655859 -3058.3472249275073 -2363.534649288282 -340.5039664665237 -1206.7027236036956 -5996.240487175994 -2931.486357351765 -2177.9835060313344 -4308.063959743828 2887.212739231065 -1617.2492282874882 -3501.2966838143766 264.94116733036935 -1255.2142175883055 -1388.9326187167317 -3858.909695503302 -55.65974539518356 -6115.880030124448 -967.4763586521149 -3783.0572478296235 -1636.5075001902878 -3485.3966164933518 -2323.014354640618 -2622.7819776423275 895.1199141480029 -1566.9445658968762 3.117613663896918 -3958.83580562938 1082.9158951193094 -4132.2495145294815 2138.7810426466167 -2486.4158257581294 576.1900183092803 -2223.514711051248 -2354.851395048201 -2140.54424432572 250.80259011872113 -1363.812905290164 -2014.4368374794722 -3445.7217547139153 -605.5778072755784 -3316.021348340437 -3760.4817147348076 -5817.024476115592 -2118.186602897942 -1051.3720918036997 -2010.429224492982 -2838.938818681054 -1746.8244476485997 -5179.466754972003 -1366.113236296922 -902.0471177967265 -2431.9423915538937 -4487.642431862652 z" vector-effect="non-scaling-stroke" fill="#000" fill-opacity="1" stroke="#FFF" stroke-width="0.3px" stroke-linejoin="round" stroke-linecap="round"><title>Cache County</title></path>
<path id="49007" d="M -12340643.941247938 -4838721.273375695 l 27922.37351787649 -2.89521106146276 9903.091550664976 124.34100678097457 -10.018865490332246 718.4784129559994 28688.696892492473 -9.995160318911076 32603.6908396855 104.62539721280336 6734.230355743319 70.31951979920268 -417.9811734072864 1515.6288735745475 -394.73447113111615 1476.2691014688462 -1211.8645589519292 5241.744873016141 -502.78578605502844 836.5359111754224 -1218.4628508854657 88.3623731629923 -2590.9321587644517 -430.0375803327188 -280.83530391938984 671.5574071463197 -797.209895003587 4263.923943181522 298.95371062494814 5703.978082833812 -480.13777767308056 2971.3709708284587 -1752.9558486733586 1294.1824435349554 -1277.3476726766676 1564.5605175392702 -1462.36697149463 3881.2933451877907 -443.0145963020623 2116.6575580155477 -961.8562932107598 4277.363890802488 348.60901593230665 5989.091758775525 1177.491991829127 3889.9474243270233 1036.7035790588707 3335.804072909057 -37991.58299263008 -144.35560725443065 -31350.678985275328 58.68732684664428 -20627.941801259294 -0.146077273413539 -29377.430582031608 -44.561309029348195 304.1248488444835 -3135.756350520067 -1287.40902046673 -4484.38620452024 -3616.880016895011 -5751.796710316092 -1506.819514181465 -7464.433100841008 -2625.470301678404 2544.525838636793 -3381.550835993141 -3350.166032162495 -1618.3619779124856 -5329.837413650006 -2410.9568636864424 -2964.1465099742636 129.46412251517177 -2079.4902153844014 -2907.26279088296 -1925.5636369707063 -12.645114913582802 -15743.56526142452 16647.604537485167 71.8820716990158 2092.6937715839595 -208.5418695975095 z" vector-effect="non-scaling-stroke" fill="#000" fill-opacity="1" stroke="#FFF" stroke-width="0.3px" stroke-linejoin="round" stroke-linecap="round"><title>Carbon County</title></path>
<path id="49009" d="M -12245221.550339807 -5012317.059331142 l 8658.209291297942 0 13942.113945825025 0 13936.678360855207 0 13942.114045938477 0 13939.396103285253 0 13936.678561085835 0 13942.113845707849 0 13942.114045932889 0 0 18423.572700258344 0 18381.637397987768 0 14131.395191764459 -8587.420453973114 -25.972060153260827 -13.52509549446404 -4454.686907469295 -4169.637171059847 46.0207758359611 -280.63554573617876 -14995.581917301752 -4316.300711503252 9.408597275614738 -99.62960842438042 -10711.357777322643 -21287.399243960157 83.5984004298225 12.577543992549181 9884.527538596652 -4458.45570124872 2032.9776247972623 -606.3574889879674 3001.4985090065747 -3395.0210509803146 338.1458626333624 -1514.7245338596404 2182.748135842383 -3615.767267262563 -2237.856835762039 -281.7485180068761 -4052.513994219713 559.2690104264766 -4241.868554124609 -1703.966443695128 -2423.7229428682476 -4309.733306825161 1835.535362814553 -1405.0749467480928 -1503.9420844838023 -2422.422882558778 1511.0017152586952 -3970.6544718295336 792.7714299447834 -4312.738376475871 2179.4202655637637 -1804.0433338358998 -1033.6203926317394 -3002.954027045518 6.323372044600546 -913.599283574149 1003.3294134363532 -2708.8469304963946 -1150.6824435517192 -1355.8722884152085 2987.816104429774 -7480.779319686815 999.9492343133315 -250.91390961036086 1100.825627727434 -4015.738642958924 648.6197422379628 -2962.767690865323 -2668.684023150243 -1934.3980122804642 -87.76895711477846 -7047.1900143660605 -4006.563349019736 -2583.056796450168 -576.8499584477395 z" vector-effect="non-scaling-stroke" fill="#000" fill-opacity="1" stroke="#FFF" stroke-width="0.3px" stroke-linejoin="round" stroke-linecap="round"><title>Daggett County</title></path>
<path id="49011" d="M -12451782.396381598 -5032869.002528078 l 1272.8388575911522 2657.85357983876 -1225.4042867310345 1414.9561866866425 97.62685946375132 2869.1741319559515 2051.5053373612463 8241.756087539718 -324.6073011960834 845.306007145904 2168.7250951174647 3547.478150425479 2986.1440046988428 3018.2625886946917 2032.3596094548702 3800.845752422698 -3735.992985235527 433.3776606572792 4973.975483871996 12308.72279321216 2805.2500547990203 1863.3077474571764 -4813.454002669081 2488.6630865968764 -7805.943440973759 2188.202555673197 -2007.3130579832941 1063.3208995200694 -7940.140756921843 -25.808425751514733 -1589.5847763493657 -3974.751284518279 -1115.0314568895847 -449.963820271194 -470.7135762684047 -4937.272210354917 1243.8836561683565 -2216.288130344823 -1.557916268706322 -3118.3851336454973 -5328.474072098732 30.275376917794347 -15214.087238200009 10605.688350407407 -13388.794572036713 11239.83614361845 -25594.72381963767 -44691.31580651086 33857.89047306031 -11247.88479410857 13891.706754423678 89.4485407229513 9615.496644325554 -161.59020790737122 2890.4656815920025 2061.02504998073 4845.180168861523 680.5072514656931 z" vector-effect="non-scaling-stroke" fill="#000" fill-opacity="1" stroke="#FFF" stroke-width="0.3px" stroke-linejoin="round" stroke-linecap="round"><title>Davis County</title></path>
<path id="49013" d="M -12241536.10731271 -4837786.718930125 l -32603.6908396855 -104.62539721280336 -28688.696892492473 9.995160318911076 10.018865490332246 -718.4784129559994 -9903.091550664976 -124.34100678097457 -27922.37351787649 2.89521106146276 64.6786278989166 -12545.35763435997 -3846.1997263934463 -29.747120604850352 -42.2981782425195 -26657.53135174606 -459.0816913470626 2.909431957639754 -24.04011195152998 -50847.99036054779 -705.3199597094208 -4.241833832114935 -21.59431141987443 -23314.663201740943 132.54466678015888 -12867.2628083257 -197.33071799390018 -2989.7327501550317 1177.8163176197559 -4216.9917621370405 3223.088208766654 884.1123905237764 1736.583499778062 -626.4637804683298 2650.182338077575 2260.076989494264 4302.386443074793 -3211.3798947725445 1272.1586955022067 132.2122337827459 2614.2272557504475 -2436.3781196661294 2772.2991515621543 336.33697098121047 1451.717590752989 -1121.3143789824098 2504.1312774773687 1663.7782715642825 3705.6018736902624 158.97271452844143 2941.7293089851737 -3955.0858461167663 2640.164029182866 1445.1723436769098 2680.9067401830107 -819.634166918695 2434.66724730283 716.7615442844108 1414.9827153868973 -2202.6247938880697 2672.668541263789 1724.986105981283 3828.722343703732 -2138.492434129119 2128.4281073734164 633.5567522132769 1109.0751962177455 -1241.4269479997456 3085.6645200178027 325.1823525764048 5849.0592255126685 -1315.642947671935 3113.271308461204 -2404.7554262364283 1428.0064278971404 -3057.3078669486567 1456.949384180829 623.1305889682844 7404.748552752659 -2285.5916207050905 1948.758337913081 946.1679566605017 8382.46741775237 2419.5104686450213 4152.216116031632 -184.0019037136808 3341.587695395574 850.2629482392222 5478.253779042512 -808.1952223116532 2761.501828867942 -1137.6171755362302 2856.902521165088 1109.966134567745 2583.056796450168 576.8499584477395 -42.526049233973026 27152.95003682375 24.37651945836842 24949.080053307116 121.89239338599145 15493.255337340757 52.76310092583299 27704.201674742624 415.3305711224675 25917.35412969906 z" vector-effect="non-scaling-stroke" fill="#000" fill-opacity="1" stroke="#FFF" stroke-width="0.3px" stroke-linejoin="round" stroke-linecap="round"><title>Duchesne County</title></path>
<path id="49015" d="M -12384001.360729203 -4823099.590445592 l 2907.26279088296 1925.5636369707063 -129.46412251517177 2079.4902153844014 2410.9568636864424 2964.1465099742636 1618.3619779124856 5329.837413650006 3381.550835993141 3350.166032162495 2625.470301678404 -2544.525838636793 1506.819514181465 7464.433100841008 3616.880016895011 5751.796710316092 1287.40902046673 4484.38620452024 -304.1248488444835 3135.756350520067 29377.430582031608 44.561309029348195 20627.941801259294 0.146077273413539 31350.678985275328 -58.68732684664428 37991.58299263008 144.35560725443065 289.15152704156935 1010.3337286114693 980.086904168129 3473.24904162623 154.00645698979497 6490.401733931154 -548.0818028151989 3469.208866865374 -973.8643603734672 2981.85971740447 -1444.9429346956313 2606.2064321646467 -2006.6135425381362 2330.372536838986 -878.7427251767367 2089.850178066641 99.65123687684536 2850.160900881514 394.0753458235413 3223.7481026472524 -27.17761005461216 3222.717354061082 -539.0225994624197 2794.9171085637063 -380.48654079809785 958.7471397519112 -602.4370229281485 1058.0237200092524 -937.6275469642133 841.66340253409 -1241.110859271139 672.1113384468481 -1087.104402275756 800.6307486807927 -462.0193709693849 1209.591713947244 -77.00322849303484 3213.1872505778447 -258.1872955430299 2207.743472479284 -2382.570481657982 10850.648193073459 -398.6049475017935 6339.236673118547 291.53414968028665 2473.9301216751337 1747.018183881417 -42.99951595347375 -4.453113593161106 2352.6641360716894 4255.075548168272 34.08512515760958 4050.4701014403254 1085.480685228482 1991.0597444176674 1979.4867958743125 -32.95090323314071 1952.0461046239361 -4053.8091295752674 12.882174594327807 -2860.7889711782336 -3652.0795957632363 -4323.228817788884 110.64442885201424 135.88805028796196 2877.8399400180206 -1195.8148425072432 3121.5914516048506 -1254.699664298445 1327.5501188971102 -1059.9267922174186 628.778939679265 -656.7922430448234 1129.375490764156 -63.414423463866115 2776.3325959471986 434.8417609091848 2566.123204003088 828.917106738314 2152.483411606401 2532.0473369713873 4071.0197044601664 4561.308887893334 5847.785362415016 1164.1076307706535 2393.9487727871165 45.29601676389575 1214.1909522730857 -2346.3336682505906 2770.602038865909 -498.25618437863886 3553.631935477257 4896.499411927536 7741.700230224058 1372.4693078771234 4373.14763235487 529.9633961096406 2417.767220103182 1281.8772743530571 452.18072458542883 1612.538196714595 -28.98534374963492 1481.17974810116 968.0660061975941 -597.9074212517589 747.7247540354729 -4140.660333899781 1496.3986936053261 -1756.8810484595597 1198.4344609621912 6309.735134890303 1998.933559037745 1358.8805028479546 921.1161645324901 679.440251423046 2797.5991877745837 -1716.7190352659672 1389.82706937287 -2341.8040665723383 642.7312143426389 -1186.7556391526014 555.8431108761579 -167.5952620189637 932.1274925768375 -271.776100570336 422.61370504274964 40.76641508564353 480.48480975534767 1412.4328811261803 1803.3478802405298 -32268.748285785317 -13.189797070808709 -36948.266924493015 0.138970063067973 -37778.3767012991 -0.0032715536654 -37936.33872477338 0.281069428659976 3.672986598685384 -1450.966926438734 -144.93519402854145 -23086.37151797302 879.3115445822477 -151.28159465175122 0.001892430707812 -20458.41884194035 114.99615093320608 -28771.530663707294 -129.68754073046148 -2076.8755050795153 -40.405078971758485 -37655.395884133875 -164.641749529168 -2079.4522471874952 -2.22382946126163 -22802.316834515892 6005.35145662725 21.631058705970645 z" vector-effect="non-scaling-stroke" fill="#000" fill-opacity="1" stroke="#FFF" stroke-width="0.3px" stroke-linejoin="round" stroke-linecap="round"><title>Emery County</title></path>
<path id="49017" d="M -12521068.330062447 -4600259.313450961 l 3880.7081006243825 -369.1721102911979 42623.33434249647 93.71385019645095 0.556374816223979 526.0045627001673 12197.830198047683 -59.30688641127199 -11.131615120917559 -721.9233615966514 12094.749462759122 -27.886652593500912 23127.95537077263 169.4463822664693 24557.964992910624 0.143679979257286 44.527684999629855 -552.0847830679268 25300.577204670757 238.67618694435805 28109.167400782928 29.872002861462533 27477.651929516345 99.23585507553071 48614.8814030271 -63.83884895220399 37565.55724689923 15.435935338027775 -681.1353504918516 737.3503610761836 -8144.223813733086 6022.861362988129 -2790.234632514417 3107.9432940836996 -3492.3228923175484 8030.284010131843 -2147.0311944987625 3415.008966783993 -2255.741634728387 -505.85621024109423 -2767.586624134332 -80.47940196469426 -2341.804066574201 1063.4273578040302 -1499.2981548067182 4206.653482957743 -1177.6964358016849 792.8663951829076 -1295.4660793803632 603.2272963616997 -892.3315302021801 769.7819667411968 -421.2529558837414 1280.9284162623808 -231.00968548469245 1602.373825179413 -108.71044022776186 3238.451803367585 -2649.816980553791 2135.447296231985 -17679.03534204699 -551.0411289120093 -1617.067798389122 413.2835880620405 -2391.629685010761 3030.243896749802 -507.31538772955537 3970.118291972205 -1340.7620961423963 1858.320451658219 -2690.583395637572 1020.7878101943061 -1177.6964358016849 1548.1947913235053 117.76964357867837 1633.9556941147894 2898.945072742179 5364.450569266453 -806.2690983545035 3024.8816395113245 -2763.0570224579424 2571.6044692331925 -1653.3046118002385 2553.794344363734 86.06243184953928 2879.4259497895837 -462.0193709693849 2008.8305373769253 -1685.0118235293776 1922.6209171591327 -2917.0634794477373 2265.4916203459725 -1853.804183408618 1237.5592484837398 -2381.373383797705 1622.2081771837547 -3129.9547582268715 3190.576545146294 -4239.707168884575 6606.772058000788 -1254.5965842735022 1487.3301979061216 -12972.440792115405 85.30525793135166 -27741.81308116764 -37.486799464561045 -27830.758356191218 112.4507298907265 -27830.311965029687 -79.46249089296907 -1653.4281741119921 127.7544061569497 -22026.44945464842 22.46092089265585 -14177.424591507763 -59.52695075515658 -28.05273432098329 577.6900617592037 -24407.683680329472 -4.073477772064507 -11691.661252651364 -115.11497256346047 -21803.475957993418 20.213596013374627 1.447042057290673 -931.3471380639821 -15573.594090308994 44.363576175644994 -20272.054279746488 -54.89666962157935 -49.64737970009446 -12454.25270330254 -595.3358575310558 -12006.401785069145 -25.713466538116336 -12475.604819477536 5135.278761867434 -124.40974449831992 7184.669028900564 303.9085135580972 17.033217925578356 -10939.937517669052 -1113.7511714324355 -1167.3133898861706 13383.38299764134 -5.781461579725146 134.8093504998833 -12306.67283919733 -1335.722347388044 -2.541739757172763 z" vector-effect="non-scaling-stroke" fill="#000" fill-opacity="1" stroke="#FFF" stroke-width="0.3px" stroke-linejoin="round" stroke-linecap="round"><title>Garfield County</title></path>
<path id="49019" d="M -12138995.720952118 -4793519.871767573 l -5.435484843328595 18020.582603812218 0 17981.321522763 0 17952.808178163134 0 17920.97820694372 0 17885.854729992338 0 17857.91564955935 0 17826.67448575236 -5.435584960505366 17799.099785173312 -1491.6431711241603 -24.49683097936213 -43622.5363107454 0.565125986933708 -31205.18418817036 -0.002702594734728 -30252.494748668745 13.468875133432448 -1412.4328811261803 -1803.3478802405298 -40.76641508564353 -480.48480975534767 271.776100570336 -422.61370504274964 167.5952620189637 -932.1274925768375 1186.7556391526014 -555.8431108761579 2341.8040665723383 -642.7312143426389 1716.7190352659672 -1389.82706937287 -679.440251423046 -2797.5991877745837 -1358.8805028479546 -921.1161645324901 -6309.735134890303 -1998.933559037745 1756.8810484595597 -1198.4344609621912 4140.660333899781 -1496.3986936053261 597.9074212517589 -747.7247540354729 -1481.17974810116 -968.0660061975941 -1612.538196714595 28.98534374963492 -1281.8772743530571 -452.18072458542883 -529.9633961096406 -2417.767220103182 -1372.4693078771234 -4373.14763235487 -4896.499411927536 -7741.700230224058 498.25618437863886 -3553.631935477257 2346.3336682505906 -2770.602038865909 -45.29601676389575 -1214.1909522730857 -1164.1076307706535 -2393.9487727871165 -4561.308887893334 -5847.785362415016 -2532.0473369713873 -4071.0197044601664 -828.917106738314 -2152.483411606401 -434.8417609091848 -2566.123204003088 63.414423463866115 -2776.3325959471986 656.7922430448234 -1129.375490764156 1059.9267922174186 -628.778939679265 1254.699664298445 -1327.5501188971102 1195.8148425072432 -3121.5914516048506 -135.88805028796196 -2877.8399400180206 4323.228817788884 -110.64442885201424 2860.7889711782336 3652.0795957632363 4053.8091295752674 -12.882174594327807 32.95090323314071 -1952.0461046239361 -1991.0597444176674 -1979.4867958743125 -4050.4701014403254 -1085.480685228482 -4255.075548168272 -34.08512515760958 4.453113593161106 -2352.6641360716894 -1747.018183881417 42.99951595347375 -291.53414968028665 -2473.9301216751337 398.6049475017935 -6339.236673118547 2382.570481657982 -10850.648193073459 258.1872955430299 -2207.743472479284 77.00322849303484 -3213.1872505778447 462.0193709693849 -1209.591713947244 1087.104402275756 -800.6307486807927 1241.110859271139 -672.1113384468481 937.6275469642133 -841.66340253409 602.4370229281485 -1058.0237200092524 380.48654079809785 -958.7471397519112 539.0225994624197 -2794.9171085637063 27.17761005461216 -3222.717354061082 -394.0753458235413 -3223.7481026472524 -99.65123687684536 -2850.160900881514 878.7427251767367 -2089.850178066641 2006.6135425381362 -2330.372536838986 1444.9429346956313 -2606.2064321646467 973.8643603734672 -2981.85971740447 548.0818028151989 -3469.208866865374 -154.00645698979497 -6490.401733931154 -980.086904168129 -3473.24904162623 20995.546360034496 -14.099180211313069 34888.96788694896 -115.49106069747359 43827.58781466074 84.49799850489944 1974.8438341841102 -4022.7732148505747 z" vector-effect="non-scaling-stroke" fill="#000" fill-opacity="1" stroke="#FFF" stroke-width="0.3px" stroke-linejoin="round" stroke-linecap="round"><title>Grand County</title></path>
<path id="49021" d="M -12694928.406263346 -4523670.447958851 l -1.634987322613597 -3299.949950352311 -5.435484847053886 -21971.256041534245 -10.871069813147187 -22021.17192175053 -8.153327388688922 -22061.110875223763 -3.648392245173454 -7415.548770357855 32277.985456276685 -22.11861438769847 31084.736721768975 13.874696403741837 40431.56577882171 39.92109083663672 24397.21975952387 37.93834793474525 2005.6428203452379 -154.57683312986046 14583.072927270085 213.46490190830082 16864.009516267106 -62.70631516631693 12245.58648224175 114.37479270901531 -31.50508568994701 23987.318267133087 1335.722347388044 2.541739757172763 -134.8093504998833 12306.67283919733 -13383.38299764134 5.781461579725146 1113.7511714324355 1167.3133898861706 -17.033217925578356 10939.937517669052 -7184.669028900564 -303.9085135580972 -5135.278761867434 124.40974449831992 25.713466538116336 12475.604819477536 595.3358575310558 12006.401785069145 49.64737970009446 12454.25270330254 -24265.083523955196 -28.78256306424737 20.036951752379537 6127.928396088071 -15137.889714667574 162.9022116381675 11.131281159818172 3366.81845731847 -12178.460606647655 69.99165349360555 -42.524156799539924 -950.6286106118932 -11912.741650043055 -194.28986679390073 54.88095423579216 -6544.5038244873285 -24624.423174191266 -13.898408943787217 -67.01310893893242 -12542.240242821164 -12568.413562132046 -13.914681387133896 -11.131949082016945 1911.1455108877271 -37004.03910257295 28.37955958209932 z" vector-effect="non-scaling-stroke" fill="#000" fill-opacity="1" stroke="#FFF" stroke-width="0.3px" stroke-linejoin="round" stroke-linecap="round"><title>Iron County</title></path>
<path id="49023" d="M -12695029.312965967 -4799715.042713625 l -4.003197621554136 -16615.370743999258 -5.435484854504466 -22607.97321848292 -8.016201425343752 -13358.614546824247 46279.44554279931 117.6010721642524 41746.1367550455 -1.156575025059283 27830.64603482373 28.44604702666402 22587.50002220273 261.06181533262134 25003.131525274366 -43.67643985245377 25759.993077127263 -101.86730868276209 712.4450750369579 -2815.609720464796 -500.9380425270647 -2816.406608589925 3128.077691288665 -682.4457151619717 1380.3611292429268 1393.8813259406015 3228.3759958967566 -101.63031149841845 3748.571642415598 -3160.213034941815 1474.8726014383137 -4125.778384242207 4879.35469593294 -3282.521159310825 2087.685619018972 622.8512532515451 3178.3930992577225 4351.617539034225 2511.0886343289167 518.2355121709406 845.4701967388391 2194.65780913271 -123.06269519217312 4356.725939902477 2278.1519319247454 1003.0460693230852 3172.04844487831 4379.622925695032 -514.8668938111514 1652.3859646618366 -2457.02966321446 2184.6466531716287 656.3400516789407 3690.215032439679 1067.886984616518 1317.4681849442422 -1260.3594973962754 4480.231267706491 -1429.2308309748769 2598.0286850444973 2316.447061277926 642.7025357708335 4194.294660916552 -537.5368154197931 4636.307400779799 -4428.729686492123 2043.6406153347343 705.7269082069397 735.9329309947789 -2757.6894958931953 1825.6950861159712 -3378.0790472533554 2465.6150676198304 -2815.591902227141 2055.9046836365014 -3898.3770511280745 2982.9158507809043 -1758.1264964444563 1663.2241779826581 226.09517268370837 3633.468068175018 -2639.384040839039 641.8679612725973 -3227.995340759866 3719.629131410271 2279.4282061262056 1436.687901025638 4285.651839046739 2667.326430214569 1679.1858573975042 82.20833075605333 2068.3019251944497 2063.4734071306884 1615.1744421739131 -962.6902884617448 2046.8512955587357 -863.7285969872028 5456.3731815563515 12667.042297022417 -93.03766254428774 -124.23277436569333 2022.6035652663559 2132.213192695752 106.64035002700984 -20.59421711601317 2114.303235745989 4217.783296111971 -6.663103812374175 -25.826567141339183 6319.667765462771 -6425.248909860849 79.47735309973359 20.92761898972094 2078.632585714571 -4180.935988057405 1113.2506143897772 -1041.7281288057566 3219.0736470799893 -3239.9535568971187 96.06258497294039 349.43154764175415 8358.126616865396 -25.938777189701796 12807.575302443467 277.18419624492526 12704.854697139934 -3846.310155339539 24.22282474115491 78.0340724941343 11111.677919815294 -19523.987635575235 198.46165821421891 88.94405050203204 2108.534820523113 -4078.077669121325 108.4239426581189 57.77459307946265 4204.903885289095 -6440.94473542273 7.771305342204869 -4.341905422508717 3214.715529116802 -6279.753333514556 -67.48151263501495 -14.026033198460937 -2114.597590841353 -13732.703671064228 2.733506505377591 533.221362773329 -7255.458190809935 -1786.4554108884186 -1687.6011686306447 2141.1191972400993 -2826.5049917055294 -363.5686776973307 -4265.3225386645645 -1442.4407809916884 -2742.087702339515 1917.496040031314 -3521.3340162681416 -1697.8989748507738 -535.1229334650561 -592.3304539099336 -3429.642644125037 1625.2642316240817 -2684.170806404203 -478.67381041124463 -1775.2673943312839 -2515.931032186374 -1631.3465126259252 -26984.396156365052 0.141779902391136 -22.263341560959816 231.0028477255255 -25024.616854909807 0.141776631586254 -29200.877424361184 14.724401422776282 -17588.142469912767 -65.69351715315133 -23757.021367965266 94.85249494574964 -32140.491551697254 -0.869136039167643 -22960.419203171507 -70.16854650713503 -20.260036000981927 1232.8939629467204 z" vector-effect="non-scaling-stroke" fill="#000" fill-opacity="1" stroke="#FFF" stroke-width="0.3px" stroke-linejoin="round" stroke-linecap="round"><title>Juab County</title></path>
<path id="49025" d="M -12528428.971790168 -4439403.712053189 l -10129.254469022155 -9.919887921772897 -17369.2105696965 -13.612457017414272 -11971.087315896526 -9.380425962619483 -153.08678365685046 -51540.02734051738 -28.273926144465804 -18017.18969931733 -20.036951752379537 -6127.928396088071 24265.083523955196 28.78256306424737 20272.054279746488 54.89666962157935 15573.594090308994 -44.363576175644994 -1.447042057290673 931.3471380639821 21803.475957993418 -20.213596013374627 11691.661252651364 115.11497256346047 24407.683680329472 4.073477772064507 28.05273432098329 -577.6900617592037 14177.424591507763 59.52695075515658 22026.44945464842 -22.46092089265585 1653.4281741119921 -127.7544061569497 27830.311965029687 79.46249089296907 27830.758356191218 -112.4507298907265 27741.81308116764 37.486799464561045 12972.440792115405 -85.30525793135166 -1309.157964432612 1551.7554343305528 -434.8417609091848 2033.1812707781792 -6460.799354383722 3888.0186975738034 -2563.0726317893714 982.5219968277961 -1096.3115682620555 3213.3932271646336 1786.4918545782566 3135.5257514277473 4189.10616617091 -488.9727626219392 -1793.722263759002 3194.1941422708333 -2387.1000833343714 3330.0531744221225 -1377.5125539619476 -1872.3301625121385 -1692.056148737669 1008.9500438505784 2969.9174658209085 3274.7286146562546 -760.9730815924704 3863.8443909408525 -2418.8072950690985 2051.0217225989327 -3333.7868336532265 0 -7366.216060144827 -1807.5910817366093 -2092.9165218863636 -378.0799410790205 467.54108209349215 3038.2523814355955 2783.20924089849 1147.727555403486 378.4856007769704 2729.180803148076 619.7326272409409 525.3204213911667 -1008.9790703430772 1476.5673581231385 -1626.127001741901 5082.697408501059 -1259.229265972972 2071.0793664949015 -620.5554296318442 2173.0578734837472 -1037.2787838410586 2172.610150558874 -1159.5780290961266 1364.7618149099872 -1227.5220542401075 1012.0843412987888 -847.0355134438723 704.9901602203026 -779.0914882980287 909.5951447999105 -1666.8934168238193 2972.692464672029 -2196.856812937185 2574.1416487917304 -4022.2862884309143 1994.102429884486 -2815.296703817323 629.5208047628403 -1727.8937773704529 324.7882544314489 -3940.753458255902 -39.76115729287267 -3107.3067498449236 210.16442311834544 -2092.675974385813 369.197652769275 -2192.3272112607956 -22.71948322840035 -2038.3207542710006 -329.4379940405488 -2246.682431373745 1374.4836920779198 -2124.3831861186773 3003.93120481167 -2024.7319492436945 1839.4157205615193 -1875.2550939302891 170.30009627901018 -5634.824485138059 -1901.8400178663433 -1050.8675888702273 1561.2370844688267 59.32130547426641 4159.554741579108 -1028.6560641732067 1725.6576221007854 -4425.420837607235 1214.091939096339 -3178.762068606913 -211.83298988826573 -6229.220612771809 -1104.3851769734174 -1367.9397062025964 2524.498628959991 -226.3183599077165 1073.6446253517643 -12517.769655300304 -9.80715066473931 -17371.928412230685 -13.61232588160783 -17369.21056969464 -13.612218011170626 -17374.64615465887 -13.612360851839185 -17371.928312126547 -17.015444309450686 -17366.492827268317 -13.612400191836059 -17371.92831212096 -13.612292312085629 z" vector-effect="non-scaling-stroke" fill="#000" fill-opacity="1" stroke="#FFF" stroke-width="0.3px" stroke-linejoin="round" stroke-linecap="round"><title>Kane County</title></path>
<path id="49027" d="M -12694985.601811796 -4675561.26711924 l -1.512430237606168 -6196.538503387943 -13.588812237605453 -22311.219172291458 -5.435584958642721 -22346.31798936054 -10.870969699695706 -22406.252494581044 -5.435484854504466 -22456.100501305424 -5.435584960505366 -22499.29402209539 -1.432287221774459 -5938.052911363542 25117.298215404153 -195.45817779004574 20.260036000981927 -1232.8939629467204 22960.419203171507 70.16854650713503 32140.491551697254 0.869136039167643 23757.021367965266 -94.85249494574964 17588.142469912767 65.69351715315133 29200.877424361184 -14.724401422776282 25024.616854909807 -0.141776631586254 22.263341560959816 -231.0028477255255 26984.396156365052 -0.141779902391136 2515.931032186374 1631.3465126259252 478.67381041124463 1775.2673943312839 -1625.2642316240817 2684.170806404203 592.3304539099336 3429.642644125037 1697.8989748507738 535.1229334650561 -1917.496040031314 3521.3340162681416 1442.4407809916884 2742.087702339515 363.5686776973307 4265.3225386645645 -2141.1191972400993 2826.5049917055294 1786.4554108884186 1687.6011686306447 -533.221362773329 7255.458190809935 13732.703671064228 -2.733506505377591 14.026033198460937 2114.597590841353 6279.753333514556 67.48151263501495 -61.22683312930167 16738.675608512945 225.86524306982756 21918.32849261351 -537.228753125295 7059.5344654768705 -4217.8943929597735 5.729044337756932 -1023.9164536800236 1017.0481387022883 85.60390918515623 4464.866299993359 -7445.602360598743 137.57166288420558 -43.303838511928916 3046.858987518586 -2031.5799277462065 -19.17702111043036 6.121792763471603 4146.656337494031 -2049.0574217550457 -28.896119067445397 -49.53750736452639 3973.238197551109 -2059.6325507368892 -20.305478217080235 -7.235766904428601 1996.9053904041648 -4076.5190849285573 6.147538550198078 -444.2758651189506 3915.460687464103 5.11980602145195 10492.067578121088 1036.7181951142848 -4.139244755730033 91.28075794316828 5230.497273969464 -1991.6164531894028 76.62728731241077 -561.0506788752973 2090.2336365105584 -1563.3700381480157 1062.074669345282 -3071.304305702448 510.5258329100907 -21.706966752186418 2073.0836359858513 -2940.8387530539185 1525.2686045272276 -5203.961663171649 -38.78516555670649 8.348405208438635 -1035.69609389361 -10157.901085853577 371.6237447941676 -2088.687271796167 1047.207745139487 -1933.9540701527148 4164.9537144629285 -74.13933745957911 6309.486195202917 -2042.0438485592604 46.577431119047105 -27.051526818424463 4170.635904897004 -1340.62018234469 -230.3763391552493 -5576.660208903253 -240.9188103955239 -8519.61325304769 312.3227986935526 -17945.365714000538 -107.14575244300067 -22014.315184872597 -565.1443196581677 -2524.8934757113457 343.87327716033906 -25305.864991798997 -181.83448519557714 -13463.198961213231 167.02196040004492 -6109.101333372295 -155.70374543312937 -34321.23926313594 154.4189737169072 -26620.270101977512 206.03172122780234 -7448.346421809867 198.28511329740286 z" vector-effect="non-scaling-stroke" fill="#000" fill-opacity="1" stroke="#FFF" stroke-width="0.3px" stroke-linejoin="round" stroke-linecap="round"><title>Millard County</title></path>
<path id="49029" d="M -12438679.975652402 -4991867.961842041 l -2805.2500547990203 -1863.3077474571764 -4973.975483871996 -12308.72279321216 3735.992985235527 -433.3776606572792 -2032.3596094548702 -3800.845752422698 -2986.1440046988428 -3018.2625886946917 -2168.7250951174647 -3547.478150425479 324.6073011960834 -845.306007145904 -2051.5053373612463 -8241.756087539718 -97.62685946375132 -2869.1741319559515 1225.4042867310345 -1414.9561866866425 -1272.8388575911522 -2657.85357983876 -174.98143778927624 -2625.5293179349974 -2091.9157596658915 -2016.7630717149004 432.4770009703934 -2446.141271909699 1671.684904558584 -1582.7273384612054 4471.70294329524 -1042.4705809112638 1304.6636528614908 -1614.677571981214 3597.6220789384097 -362.05040893144906 1271.93716972135 1431.035812035203 3856.1059365626425 1813.9250676259398 2296.075705781579 1898.930433115922 5492.612991480157 -392.4169389978051 1794.4703029114753 -1897.9716087505221 3217.912075083703 -1550.9770418433473 1232.640944192186 -3897.6621221285313 4638.236901514232 -686.4402968129143 3399.139872137457 1521.4424868142232 3625.2296466194093 456.62297998927534 602.5721810236573 -1569.6288949716836 3004.2908628042787 -3126.695556794293 722.2404109928757 -2217.488502711989 2007.6475730519742 -2364.2244656737894 -1037.94326611422 -3908.1622338034213 1261.1388451568782 -3245.5060024401173 1529.8637619689107 -1311.3190562650561 371.2727656979114 -2193.3448190800846 4065.5877335742116 -1842.4077433003113 1965.9017621278763 1869.6979999626055 2067.981957828626 -145.34963741898537 2199.2266356013715 1204.414248608984 3705.268805772066 3646.140586112626 983.1731860935688 3613.1990159628913 2756.93706182763 1348.119478361681 -1798.700554875657 2876.978799071163 84.93688279390335 4784.82334881369 4722.950254777446 3862.8851991472766 835.4525557644665 3903.654250170104 -1227.854094767943 3162.028473825194 -3016.9367569666356 3876.105816437863 -2884.2196562811732 159.14526204578578 -1805.1567513868213 1806.3567095203325 -2872.7096662186086 -1028.109160241671 -1604.6712390184402 1340.8348053768277 -2225.7215649653226 -104.710390268825 -1513.5553452465683 6304.24916743394 -4090.044403064996 1881.7408544244245 -3483.0746568739414 -1039.551050919108 -2801.3549858145416 2494.393466759473 -2306.2048888932914 24.361493228934705 -3270.232681028545 1173.2498985631391 -3509.6800151728094 3603.9052821518853 -352.6603694744408 3045.827243020758 -3830.72564926371 2728.084039879963 610.9209201969206 3994.3509344439954 4053.1411013118923 1714.080214384012 2938.443602886051 86.22652402613312 -361.3981702569872 5086.611292307265 1334.7203606516123 147.16905231121927 4059.70895126462 8748.563806599006 -972.821141358465 694.6838452378288 -2356.6337314154953 4775.490761057474 -1120.7645219881088 4328.528021704406 -3879.2612812034786 1736.3424382051453 -3727.9773139841855 -2089.2371181184426 -2539.307902608067 -2476.0510761048645 -3367.4147078171372 1751.6975046452135 -530.6591220535338 -3644.6387693351135 -2262.2345805782825 -1129.7016079314053 371.58468290418386 -2611.659945282154 -3664.302676565945 -1856.059135123156 -1236.0908465348184 1346.4169342964888 z" vector-effect="non-scaling-stroke" fill="#000" fill-opacity="1" stroke="#FFF" stroke-width="0.3px" stroke-linejoin="round" stroke-linecap="round"><title>Morgan County</title></path>
<path id="49031" d="M -12517187.621961823 -4600628.485561253 l 1268.4858202245086 -736.6855906900018 917.7173255085945 -3580.5526681300253 3235.1672640722245 -3629.3952023414895 3411.273696633056 -1522.024052945897 118.55514637567103 -1449.553070393391 -1780.7773376256227 -2397.097070458345 2985.254339322448 -5022.052810751833 476.5596306473017 -3624.832671387121 1398.5068741515279 -4119.112756269984 -959.0169679094106 -1977.776887900196 -1906.9026546441019 -1091.3113575661555 -2042.7123221028596 -3438.785163970664 -2677.343959869817 -2199.8935821577907 -44.19361520558596 -2955.0452524870634 -3335.799415830523 2024.2448287690058 -1073.6757094711065 -556.1339896582067 -930.1861103400588 -3192.0675634695217 -3007.628221148625 -2836.5689635621384 -1557.1930309142917 -479.6612655799836 -2711.1294253300875 -3918.7923345360905 -98.62862356565893 -4370.89453854505 17363.832805417478 -7.680111598223448 11656.484516190365 -304.15844492521137 14700.515657981858 -13.655785014852881 7037.671752622351 243.769697858952 3.506786599755287 1205.8150171339512 32923.845806529745 -3.83735781442374 -6345.544265771285 6341.902852569707 -1496.4679147358984 4092.4690540740266 -1300.3227493166924 525.7596535962075 553.4787271153182 24822.44745522365 122.00493738800287 13981.761445223354 -12094.749462759122 27.886652593500912 11.131615120917559 721.9233615966514 -12197.830198047683 59.30688641127199 -0.556374816223979 -526.0045627001673 z" vector-effect="non-scaling-stroke" fill="#000" fill-opacity="1" stroke="#FFF" stroke-width="0.3px" stroke-linejoin="round" stroke-linecap="round"><title>Piute County</title></path>
<path id="49033" d="M -12362055.955573369 -5160954.4566112785 l 0 9357.579510781914 5.435584962368012 9344.763374317437 2.717742424458265 9335.633184454404 0 9326.532164752483 0 9324.73832569737 2.717742424458265 9301.137617329136 3.922438900917768 6716.925555586815 1.513045953586698 2589.739925729111 0 9290.4074372584 0 9285.07444347255 5.435584958642721 9276.137676157989 2.717842534184456 9259.99234234821 0 9261.969965381548 -2669.8977362439036 765.8787882467732 -3050.0978313926607 5485.731799009256 -983.5629156213254 -1023.3203735351562 -2558.6780506037176 1160.4116753209382 421.9003135059029 1359.8507087286562 -5143.961125550792 4050.0131904920563 -3416.394949806854 1174.115078723058 -3133.5315671060234 2907.3174952920526 -3376.053434262052 -235.12628912739456 3016.9367569666356 -3876.105816437863 1227.854094767943 -3162.028473825194 -835.4525557644665 -3903.654250170104 -4722.950254777446 -3862.8851991472766 -84.93688279390335 -4784.82334881369 1798.700554875657 -2876.978799071163 -2756.93706182763 -1348.119478361681 -983.1731860935688 -3613.1990159628913 -3705.268805772066 -3646.140586112626 -2199.2266356013715 -1204.414248608984 -2067.981957828626 145.34963741898537 -1965.9017621278763 -1869.6979999626055 -4065.5877335742116 1842.4077433003113 -6376.957624198869 -3484.7204543165863 190.02270473912358 -2241.679764586501 -2634.263205619529 -1322.371208295226 -1227.1521140579134 -2095.544585119933 1127.4096276685596 -2162.5047785183415 -213.7334223203361 -3085.2236196910962 1351.6419251281768 -1129.8425320871174 1680.812323572114 -3474.7337170047686 42.858449229970574 -2279.4793721288443 3568.2354031689465 -3949.8280668938532 1063.1008031219244 -3270.723868920468 715.0053119957447 -4803.617139223963 -266.83170623146 -5032.656580871902 2031.8026780392975 -1119.106520542875 -606.1344047281891 -1841.7835412854329 1672.7978768292814 -2304.589186954312 -1544.223642328754 -3188.60560925398 -1208.3727385979146 -171.69426365476102 1018.7970929332078 -5164.788654295728 -359.06135151162744 -1890.5295767951757 -2394.482135646045 -1646.6988759087399 -180.94827380776405 -5380.532636643387 -1905.5663754865527 -6823.351088124327 -5160.5471730828285 -5441.353979822248 1539.6600998025388 -4902.543589918874 -1202.8065414242446 -2351.3336700526997 2910.892919478938 -1674.5342708313838 511.17999227531254 -5083.293738921173 -1308.004016822204 -4244.28587983083 -2565.3128959406167 -3600.195034880191 9321.106849594042 3.274970439262688 20818.049233082682 3.657074272632599 z" vector-effect="non-scaling-stroke" fill="#000" fill-opacity="1" stroke="#FFF" stroke-width="0.3px" stroke-linejoin="round" stroke-linecap="round"><title>Rich County</title></path>
<path id="49035" d="M -12497111.186862893 -4978974.444434194 l 13388.794572036713 -11239.83614361845 15214.087238200009 -10605.688350407407 5328.474072098732 -30.275376917794347 1.557916268706322 3118.3851336454973 -1243.8836561683565 2216.288130344823 470.7135762684047 4937.272210354917 1115.0314568895847 449.963820271194 1589.5847763493657 3974.751284518279 7940.140756921843 25.808425751514733 2007.3130579832941 -1063.3208995200694 7805.943440973759 -2188.202555673197 4813.454002669081 -2488.6630865968764 3537.844514258206 1221.600125479512 1236.0908465348184 -1346.4169342964888 3664.302676565945 1856.059135123156 -371.58468290418386 2611.659945282154 2262.2345805782825 1129.7016079314053 530.6591220535338 3644.6387693351135 -889.7770238630474 3778.0744252661243 2662.873427944258 1835.5073785036802 69.40714591182768 3145.047183206305 1056.0320154502988 2890.088679184206 2378.8965163771063 2586.899054143578 -1151.711340425536 5310.1400868417695 2695.823217984289 3028.776848663576 452.95800616405904 1878.3358076354489 2512.369253754616 3406.462956679985 -1269.2646113857627 3605.801139501855 -3251.383730901405 1126.6731985397637 -1354.9418801106513 1852.653897671029 -3568.3092079870403 -512.401073760353 -1446.3734759632498 2467.333095151931 -2825.6226348020136 2712.19084062241 -2478.08207135275 -401.03184448182583 -2523.056147515774 1481.4513205364347 -2582.8343801070005 365.09265617560595 -1808.496224788949 -951.2026989692822 -3041.8048632834107 2298.690330008045 -179.22393490560353 2304.0083098402247 -4641.354292530566 2200.4325998229906 -452.9593419972807 1100.8365203784779 -3061.7309408187866 872.0060019185767 -1132.4524006079882 -1181.9608988016844 -3056.5733974892646 2030.526981253177 -2070.1337635815144 2965.018434001133 -2993.2695653047413 2638.959790216759 -4061.7132586985826 1540.5770500320941 -2658.5318564828485 -1740.5527719678357 -3584.931768314913 -5551.6856211600825 -3092.9001756031066 2613.1727858530357 -5316.450899170712 -505.4058778779581 -3238.8951311819255 -2969.322292928584 -1951.486110713333 1348.9981716498733 -1381.0499742478132 -850.0055332733318 -1587.0048358365893 -6859.5355739388615 984.9552998188883 -1158.874985945411 -296.22060840576887 -8542.030842229724 641.3116977829486 -3583.9923538528383 -2452.534248219803 -3015.1875939005986 -709.1598142236471 -8631.431635264307 610.2536711711437 -1380.2898046178743 -1051.9685200825334 -3300.0115481065586 -2221.937258871272 -1447.9331500846893 z" vector-effect="non-scaling-stroke" fill="#000" fill-opacity="1" stroke="#FFF" stroke-width="0.3px" stroke-linejoin="round" stroke-linecap="round"><title>Salt Lake County</title></path>
<path id="49037" d="M -12328709.350792026 -4439235.582004841 l -1391.1708061080426 -1.090087589807808 -17369.210569692776 -17.015258541330695 -17371.92841223441 -13.61225157417357 -17371.928312126547 -13.612143696285784 -17369.210569692776 -17.01532956957817 -4856.876399248838 -3.805157734081149 226.3183599077165 -1073.6446253517643 1367.9397062025964 -2524.498628959991 6229.220612771809 1104.3851769734174 3178.762068606913 211.83298988826573 4425.420837607235 -1214.091939096339 1028.6560641732067 -1725.6576221007854 -59.32130547426641 -4159.554741579108 1050.8675888702273 -1561.2370844688267 5634.824485138059 1901.8400178663433 1875.2550939302891 -170.30009627901018 2024.7319492436945 -1839.4157205615193 2124.3831861186773 -3003.93120481167 2246.682431373745 -1374.4836920779198 2038.3207542710006 329.4379940405488 2192.3272112607956 22.71948322840035 2092.675974385813 -369.197652769275 3107.3067498449236 -210.16442311834544 3940.753458255902 39.76115729287267 1727.8937773704529 -324.7882544314489 2815.296703817323 -629.5208047628403 4022.2862884309143 -1994.102429884486 2196.856812937185 -2574.1416487917304 1666.8934168238193 -2972.692464672029 779.0914882980287 -909.5951447999105 847.0355134438723 -704.9901602203026 1227.5220542401075 -1012.0843412987888 1159.5780290961266 -1364.7618149099872 1037.2787838410586 -2172.610150558874 620.5554296318442 -2173.0578734837472 1259.229265972972 -2071.0793664949015 1626.127001741901 -5082.697408501059 1008.9790703430772 -1476.5673581231385 -619.7326272409409 -525.3204213911667 -378.4856007769704 -2729.180803148076 -2783.20924089849 -1147.727555403486 -467.54108209349215 -3038.2523814355955 2092.9165218863636 378.0799410790205 7366.216060144827 1807.5910817366093 3333.7868336532265 0 2418.8072950690985 -2051.0217225989327 760.9730815924704 -3863.8443909408525 -2969.9174658209085 -3274.7286146562546 1692.056148737669 -1008.9500438505784 1377.5125539619476 1872.3301625121385 2387.1000833343714 -3330.0531744221225 1793.722263759002 -3194.1941422708333 -4189.10616617091 488.9727626219392 -1786.4918545782566 -3135.5257514277473 1096.3115682620555 -3213.3932271646336 2563.0726317893714 -982.5219968277961 6460.799354383722 -3888.0186975738034 434.8417609091848 -2033.1812707781792 1309.157964432612 -1551.7554343305528 1254.5965842735022 -1487.3301979061216 4239.707168884575 -6606.772058000788 3129.9547582268715 -3190.576545146294 2381.373383797705 -1622.2081771837547 1853.804183408618 -1237.5592484837398 2917.0634794477373 -2265.4916203459725 1685.0118235293776 -1922.6209171591327 462.0193709693849 -2008.8305373769253 -86.06243184953928 -2879.4259497895837 1653.3046118002385 -2553.794344363734 2763.0570224579424 -2571.6044692331925 806.2690983545035 -3024.8816395113245 -2898.945072742179 -5364.450569266453 -117.76964357867837 -1633.9556941147894 1177.6964358016849 -1548.1947913235053 2690.583395637572 -1020.7878101943061 1340.7620961423963 -1858.320451658219 507.31538772955537 -3970.118291972205 2391.629685010761 -3030.243896749802 1617.067798389122 -413.2835880620405 17679.03534204699 551.0411289120093 2649.816980553791 -2135.447296231985 108.71044022776186 -3238.451803367585 231.00968548469245 -1602.373825179413 421.2529558837414 -1280.9284162623808 892.3315302021801 -769.7819667411968 1295.4660793803632 -603.2272963616997 1177.6964358016849 -792.8663951829076 1499.2981548067182 -4206.653482957743 2341.804066574201 -1063.4273578040302 2767.586624134332 80.47940196469426 2255.741634728387 505.85621024109423 2147.0311944987625 -3415.008966783993 3492.3228923175484 -8030.284010131843 2790.234632514417 -3107.9432940836996 8144.223813733086 -6022.861362988129 681.1353504918516 -737.3503610761836 1755.7903512809426 -1900.9167781490833 824.3875050600618 -1002.4878697879612 1150.5188257489353 -1037.1589027419686 1123.3412156831473 -898.9553826358169 -2436.9257017746568 -1999.8804260743782 18.118406703695655 -1314.2536016125232 1059.9267922230065 -1227.9409046079963 670.3810480739921 -1747.041226436384 -385.01614247635007 -2802.803529941477 -1001.041970429942 -2186.2546699838713 -2826.4714459218085 -3808.306358232163 -901.3907335568219 -2002.811172480695 -1444.9429346937686 -5144.451643944718 -1109.7524106595665 -2148.613693379797 -1712.189433587715 -1340.2230801107362 -1752.9558486733586 -693.2874282281846 -1540.0645698942244 -1132.4700813405216 -1078.0451989248395 -2646.7689734511077 -99.65123687684536 -2797.763845488429 1277.3476726766676 -4938.411142926663 344.2497273888439 -2499.0248199542984 -253.65769386664033 -1469.6184396743774 -643.203438013792 -1215.198005642742 -1133.2032608743757 -1449.4625225290656 30252.494748668745 -13.468875133432448 31205.18418817036 0.002702594734728 43622.5363107454 -0.565125986933708 1491.6431711241603 24.49683097936213 -5.435584964230657 17771.69916782342 0 17730.629215935245 0 13708.560654390603 0 3991.6064069606364 0 17673.341926327907 0 16687.322811187245 0 955.9206974152476 0 17616.768422277644 0 17576.73499274347 0 17557.49094166048 0 2122.83877989091 0 15408.699125210755 0 17495.506178763695 0 17463.097264871 -2.71774242259562 17434.28699928336 -17371.928312119097 -13.612028661184013 -17369.210669813678 -13.612046144902706 -17374.646054543555 -17.01492557208985 -17371.928312124684 -13.612085482105613 -17366.49282727018 -13.612228318117559 -17374.646154662594 -17.01499659754336 -1974.3734381701797 -1.547061235643923 -15397.554873947054 -12.065081058070064 -17369.210669806227 -13.612034430727363 -17369.2104695905 -13.612302623689175 -17374.646154657006 -13.61206939816475 z" vector-effect="non-scaling-stroke" fill="#000" fill-opacity="1" stroke="#FFF" stroke-width="0.3px" stroke-linejoin="round" stroke-linecap="round"><title>San Juan County</title></path>
<path id="49039" d="M -12384014.005844116 -4838843.155707017 l 12.645114913582802 15743.56526142452 12.620290672406554 34290.73632167 -6005.35145662725 -21.631058705970645 2.22382946126163 22802.316834515892 164.641749529168 2079.4522471874952 40.405078971758485 37655.395884133875 -22953.73992240429 30.66559781972319 -38738.172905638814 -133.4225247707218 371.28089201822877 -1789.4079390708357 -18254.75341441296 28.166724989190698 -225.86524306982756 -21918.32849261351 61.22683312930167 -16738.675608512945 4.341905422508717 -3214.715529116802 6440.94473542273 -7.771305342204869 -57.77459307946265 -4204.903885289095 4078.077669121325 -108.4239426581189 -88.94405050203204 -2108.534820523113 19523.987635575235 -198.46165821421891 -78.0340724941343 -11111.677919815294 3846.310155339539 -24.22282474115491 -277.18419624492526 -12704.854697139934 25.938777189701796 -12807.575302443467 -349.43154764175415 -8358.126616865396 3239.9535568971187 -96.06258497294039 1041.7281288057566 -3219.0736470799893 4180.935988057405 -1113.2506143897772 -20.92761898972094 -2078.632585714571 6425.248909860849 -79.47735309973359 25.826567141339183 -6319.667765462771 -4217.783296111971 6.663103812374175 20.59421711601317 -2114.303235745989 -2132.213192695752 -106.64035002700984 124.23277436569333 -2022.6035652663559 36866.55875221081 100.72362781595439 z" vector-effect="non-scaling-stroke" fill="#000" fill-opacity="1" stroke="#FFF" stroke-width="0.3px" stroke-linejoin="round" stroke-linecap="round"><title>Sanpete County</title></path>
<path id="49041" d="M -12525501.289258845 -4651702.4775252845 l 368.24543214030564 -8891.336289620958 1340.62018234469 230.3763391552493 27.051526818424463 -4170.635904897004 2042.0438485592604 -46.577431119047105 74.13933745957911 -6309.486195202917 1933.9540701527148 -4164.9537144629285 2088.687271796167 -1047.207745139487 10157.901085853577 -371.6237447941676 -8.348405208438635 1035.69609389361 5203.961663171649 38.78516555670649 2940.8387530539185 -1525.2686045272276 21.706966752186418 -2073.0836359858513 3071.304305702448 -510.5258329100907 1563.3700381480157 -1062.074669345282 561.0506788752973 -2090.2336365105584 1991.6164531894028 -76.62728731241077 -91.28075794316828 -5230.497273969464 -1036.7181951142848 4.139244755730033 -5.11980602145195 -10492.067578121088 444.2758651189506 -3915.460687464103 4076.5190849285573 -6.147538550198078 7.235766904428601 -1996.9053904041648 2059.6325507368892 20.305478217080235 49.53750736452639 -3973.238197551109 2049.0574217550457 28.896119067445397 -6.121792763471603 -4146.656337494031 2031.5799277462065 19.17702111043036 43.303838511928916 -3046.858987518586 7445.602360598743 -137.57166288420558 -85.60390918515623 -4464.866299993359 1023.9164536800236 -1017.0481387022883 4217.8943929597735 -5.729044337756932 537.228753125295 -7059.5344654768705 18254.75341441296 -28.166724989190698 -371.28089201822877 1789.4079390708357 38738.172905638814 133.4225247707218 22953.73992240429 -30.66559781972319 129.68754073046148 2076.8755050795153 -114.99615093320608 28771.530663707294 -0.001892430707812 20458.41884194035 -879.3115445822477 151.28159465175122 144.93519402854145 23086.37151797302 -50140.180954558775 28.590590906329453 -1168.7428885623813 1138.0269928881899 -32923.845806529745 3.83735781442374 -3.506786599755287 -1205.8150171339512 -7037.671752622351 -243.769697858952 -14700.515657981858 13.655785014852881 -11656.484516190365 304.15844492521137 z" vector-effect="non-scaling-stroke" fill="#000" fill-opacity="1" stroke="#FFF" stroke-width="0.3px" stroke-linejoin="round" stroke-linecap="round"><title>Sevier County</title></path>
<path id="49043" d="M -12362031.49559121 -5049283.825088011 l 0 9245.887769606896 0 9237.069942539558 0 9228.279880412854 2.717742424458265 9223.11853078194 8.153227275237441 3.601046249270439 0 14.404304309748113 0 14.404282968491316 13936.678360862657 0 13942.114045931026 0 13942.113945826888 0 13936.678360853344 0 13939.396303517744 0 13942.113845707849 0 13939.39630350843 0 13939.396103285253 0 5281.187012210488 0 -0.108313867822289 27409.45080457814 -2856.902521165088 -1109.966134567745 -2761.501828867942 1137.6171755362302 -5478.253779042512 808.1952223116532 -3341.587695395574 -850.2629482392222 -4152.216116031632 184.0019037136808 -8382.46741775237 -2419.5104686450213 -1948.758337913081 -946.1679566605017 -7404.748552752659 2285.5916207050905 -1456.949384180829 -623.1305889682844 -1428.0064278971404 3057.3078669486567 -3113.271308461204 2404.7554262364283 -5849.0592255126685 1315.642947671935 -3085.6645200178027 -325.1823525764048 -1109.0751962177455 1241.4269479997456 -2128.4281073734164 -633.5567522132769 -3828.722343703732 2138.492434129119 -2672.668541263789 -1724.986105981283 -1414.9827153868973 2202.6247938880697 -2434.66724730283 -716.7615442844108 -2680.9067401830107 819.634166918695 -2640.164029182866 -1445.1723436769098 -2941.7293089851737 3955.0858461167663 -3705.6018736902624 -158.97271452844143 -2504.1312774773687 -1663.7782715642825 -1451.717590752989 1121.3143789824098 -2772.2991515621543 -336.33697098121047 -2614.2272557504475 2436.3781196661294 -1272.1586955022067 -132.2122337827459 -4302.386443074793 3211.3798947725445 -2650.182338077575 -2260.076989494264 -1736.583499778062 626.4637804683298 -3223.088208766654 -884.1123905237764 -1177.8163176197559 4216.9917621370405 197.33071799390018 2989.7327501550317 -4218.190168846399 1079.8463433375582 -160.5231510028243 2061.8885664483532 -2235.5181254297495 4843.511624101549 -149.6130616683513 2701.355184920132 -2188.0963563099504 2077.458606391214 -3135.5355405751616 -83.26642676070333 -2279.7114066779613 2319.8918102011085 -2455.3724499549717 -755.4041153425351 -2860.353981975466 -1979.0685802930966 -4664.50874662213 598.8490000199527 -2009.0935019217432 5023.028978958726 -2947.405935091898 7.178919550962746 -7053.424017172307 -3190.2039923341945 -2141.6754607316107 -240.37095925584435 -6207.840942468494 -3886.7469601547346 -2488.545769525692 -2475.520840502344 -4774.826695960015 -880.6104824095964 -1939.7407912388444 -3532.7681579543278 -403.6444736160338 -3721.927316465415 -5242.5896377991885 -1093.1750310147181 736.933915855363 2998.708820493892 -4812.897627849132 3259.082720901817 -1462.2918291836977 3296.8619319163263 -322.4928987864405 3161.4590127365664 -4229.249537618831 -1798.7978731282055 -2842.097251523286 302.5106974700466 -2512.369253754616 -3406.462956679985 -452.95800616405904 -1878.3358076354489 -2695.823217984289 -3028.776848663576 1151.711340425536 -5310.1400868417695 -2378.8965163771063 -2586.899054143578 -1056.0320154502988 -2890.088679184206 -69.40714591182768 -3145.047183206305 -2662.873427944258 -1835.5073785036802 889.7770238630474 -3778.0744252661243 3367.4147078171372 -1751.6975046452135 2539.307902608067 2476.0510761048645 3727.9773139841855 2089.2371181184426 3879.2612812034786 -1736.3424382051453 1120.7645219881088 -4328.528021704406 2356.6337314154953 -4775.490761057474 972.821141358465 -694.6838452378288 -4059.70895126462 -8748.563806599006 -1334.7203606516123 -147.16905231121927 361.3981702569872 -5086.611292307265 -2938.443602886051 -86.22652402613312 -4053.1411013118923 -1714.080214384012 -610.9209201969206 -3994.3509344439954 3830.72564926371 -2728.084039879963 352.6603694744408 -3045.827243020758 3509.6800151728094 -3603.9052821518853 3270.232681028545 -1173.2498985631391 2306.2048888932914 -24.361493228934705 2801.3549858145416 -2494.393466759473 3483.0746568739414 1039.551050919108 4090.044403064996 -1881.7408544244245 1513.5553452465683 -6304.24916743394 2225.7215649653226 104.710390268825 1604.6712390184402 -1340.8348053768277 2872.7096662186086 1028.109160241671 1805.1567513868213 -1806.3567095203325 2884.2196562811732 -159.14526204578578 3376.053434262052 235.12628912739456 3133.5315671060234 -2907.3174952920526 3416.394949806854 -1174.115078723058 5143.961125550792 -4050.0131904920563 -421.9003135059029 -1359.8507087286562 2558.6780506037176 -1160.4116753209382 983.5629156213254 1023.3203735351562 3050.0978313926607 -5485.731799009256 z" vector-effect="non-scaling-stroke" fill="#000" fill-opacity="1" stroke="#FFF" stroke-width="0.3px" stroke-linejoin="round" stroke-linecap="round"><title>Summit County</title></path>
<path id="49045" d="M -12695057.378216194 -4882634.851146324 l -0.397829443216324 -1663.5062795029953 -10.870969699695706 -22767.009053264745 -5.435584966093302 -22805.39155617263 -10.871069805696607 -22869.142625977285 -8.153327388688922 -22919.03667864483 -10.870969699695706 -22976.519282865338 -3.235672984272242 -13699.103156403638 46338.794390853494 4.396187025122344 25455.534603770822 -0.29219670407474 31107.112162061036 -0.144402107223868 35445.67732832208 -44.68879519216716 34054.18447264284 -11290.471254571341 25594.72381963767 44691.31580651086 3971.4988301619887 7024.624683143571 2221.937258871272 1447.9331500846893 1051.9685200825334 3300.0115481065586 -610.2536711711437 1380.2898046178743 709.1598142236471 8631.431635264307 2452.534248219803 3015.1875939005986 -641.3116977829486 3583.9923538528383 296.22060840576887 8542.030842229724 -984.9552998188883 1158.874985945411 1587.0048358365893 6859.5355739388615 -1909.8320270478725 -218.62951461225748 -2452.3676029462367 1420.1384261008352 466.98526388406754 3966.2553389752284 1426.4469531457871 1511.3342827185988 -680.218193769455 5060.36483449582 1381.5853096805513 2109.642690354958 -550.6413046140224 1781.7330558588728 1897.2164117973298 3800.3206637268886 -1528.9346895050257 659.0783177344128 -873.0602872520685 2461.176772722043 1178.0380660407245 2785.054667171091 -462.8671106286347 4251.2388951759785 1404.1823870688677 2186.5551610849798 -9.127419006079435 2533.5526217343286 2758.4963139370084 2480.470861058682 896.8443643786013 5384.595115876757 -3289.6573755815625 6822.648089502938 2842.2082370631397 3475.2407441213727 -774.5061364267021 2617.6694861380383 -1598.1573790237308 626.4645621106029 -147.38689448684454 2759.8724324936047 -1112.972825549543 799.1151463016868 1260.8042187634856 3129.805374989286 -854.4889679271728 3999.5180170368403 -4879.35469593294 3282.521159310825 -1474.8726014383137 4125.778384242207 -3748.571642415598 3160.213034941815 -3228.3759958967566 101.63031149841845 -1380.3611292429268 -1393.8813259406015 -3128.077691288665 682.4457151619717 500.9380425270647 2816.406608589925 -712.4450750369579 2815.609720464796 -25759.993077127263 101.86730868276209 -25003.131525274366 43.67643985245377 -22587.50002220273 -261.06181533262134 -27830.64603482373 -28.44604702666402 -41746.1367550455 1.156575025059283 -46279.44554279931 -117.6010721642524 -5.572710921987891 -9297.240494239144 z" vector-effect="non-scaling-stroke" fill="#000" fill-opacity="1" stroke="#FFF" stroke-width="0.3px" stroke-linejoin="round" stroke-linecap="round"><title>Tooele County</title></path>
<path id="49047" d="M -12138982.132139878 -4961380.454041132 l 0 4215.726997318678 -5.435584958642721 18319.971441406757 -8.153227280825377 18285.860954451375 0 18251.96373746451 0 3955.971822084859 0 14255.1983268084 0 18177.721683319658 0 18148.023440491408 0 18118.51298976969 0 12927.421185810119 0 5154.711434990168 0 18049.498259643093 -4760.785642681643 1434.1755957510322 -1974.8438341841102 4022.7732148505747 -43827.58781466074 -84.49799850489944 -34888.96788694896 115.49106069747359 -20995.546360034496 14.099180211313069 -289.15152704156935 -1010.3337286114693 -1036.7035790588707 -3335.804072909057 -1177.491991829127 -3889.9474243270233 -348.60901593230665 -5989.091758775525 961.8562932107598 -4277.363890802488 443.0145963020623 -2116.6575580155477 1462.36697149463 -3881.2933451877907 1277.3476726766676 -1564.5605175392702 1752.9558486733586 -1294.1824435349554 480.13777767308056 -2971.3709708284587 -298.95371062494814 -5703.978082833812 797.209895003587 -4263.923943181522 280.83530391938984 -671.5574071463197 2590.9321587644517 430.0375803327188 1218.4628508854657 -88.3623731629923 502.78578605502844 -836.5359111754224 1211.8645589519292 -5241.744873016141 394.73447113111615 -1476.2691014688462 417.9811734072864 -1515.6288735745475 -6734.230355743319 -70.31951979920268 -530.6580088566989 -25327.19840607792 -415.3305711224675 -25917.35412969906 -52.76310092583299 -27704.201674742624 -121.89239338599145 -15493.255337340757 -24.37651945836842 -24949.080053307116 42.526049233973026 -27152.95003682375 7047.1900143660605 4006.563349019736 1934.3980122804642 87.76895711477846 2962.767690865323 2668.684023150243 4015.738642958924 -648.6197422379628 250.91390961036086 -1100.825627727434 7480.779319686815 -999.9492343133315 1355.8722884152085 -2987.816104429774 2708.8469304963946 1150.6824435517192 913.599283574149 -1003.3294134363532 3002.954027045518 -6.323372044600546 1804.0433338358998 1033.6203926317394 4312.738376475871 -2179.4202655637637 3970.6544718295336 -792.7714299447834 2422.422882558778 -1511.0017152586952 1405.0749467480928 1503.9420844838023 4309.733306825161 -1835.535362814553 1703.966443695128 2423.7229428682476 -559.2690104264766 4241.868554124609 281.7485180068761 4052.513994219713 3615.767267262563 2237.856835762039 1514.7245338596404 -2182.748135842383 3395.0210509803146 -338.1458626333624 606.3574889879674 -3001.4985090065747 4458.45570124872 -2032.9776247972623 -12.577543992549181 -9884.527538596652 21287.399243960157 -83.5984004298225 99.62960842438042 10711.357777322643 4316.300711503252 -9.408597275614738 280.63554573617876 14995.581917301752 4169.637171059847 -46.0207758359611 13.52509549446404 4454.686907469295 z" vector-effect="non-scaling-stroke" fill="#000" fill-opacity="1" stroke="#FFF" stroke-width="0.3px" stroke-linejoin="round" stroke-linecap="round"><title>Uintah County</title></path>
<path id="49049" d="M -12340643.941247938 -4838721.273375695 l -24629.766287108883 -258.542129220441 -2092.6937715839595 208.5418695975095 -16647.604537485167 -71.8820716990158 -6890.4519486911595 137.23977578710765 -36866.55875221081 -100.72362781595439 -12667.042297022417 93.03766254428774 863.7285969872028 -5456.3731815563515 962.6902884617448 -2046.8512955587357 -2063.4734071306884 -1615.1744421739131 -82.20833075605333 -2068.3019251944497 -2667.326430214569 -1679.1858573975042 -1436.687901025638 -4285.651839046739 -3719.629131410271 -2279.4282061262056 -641.8679612725973 3227.995340759866 -3633.468068175018 2639.384040839039 -1663.2241779826581 -226.09517268370837 -2982.9158507809043 1758.1264964444563 -2055.9046836365014 3898.3770511280745 -2465.6150676198304 2815.591902227141 -1825.6950861159712 3378.0790472533554 -735.9329309947789 2757.6894958931953 -2043.6406153347343 -705.7269082069397 -4636.307400779799 4428.729686492123 -4194.294660916552 537.5368154197931 -2316.447061277926 -642.7025357708335 1429.2308309748769 -2598.0286850444973 1260.3594973962754 -4480.231267706491 -1067.886984616518 -1317.4681849442422 -656.3400516789407 -3690.215032439679 2457.02966321446 -2184.6466531716287 514.8668938111514 -1652.3859646618366 -3172.04844487831 -4379.622925695032 -2278.1519319247454 -1003.0460693230852 123.06269519217312 -4356.725939902477 -845.4701967388391 -2194.65780913271 -2511.0886343289167 -518.2355121709406 -3178.3930992577225 -4351.617539034225 -2087.685619018972 -622.8512532515451 854.4889679271728 -3999.5180170368403 -1260.8042187634856 -3129.805374989286 1112.972825549543 -799.1151463016868 147.38689448684454 -2759.8724324936047 1598.1573790237308 -626.4645621106029 774.5061364267021 -2617.6694861380383 -2842.2082370631397 -3475.2407441213727 3289.6573755815625 -6822.648089502938 -896.8443643786013 -5384.595115876757 -2758.4963139370084 -2480.470861058682 9.127419006079435 -2533.5526217343286 -1404.1823870688677 -2186.5551610849798 462.8671106286347 -4251.2388951759785 -1178.0380660407245 -2785.054667171091 873.0602872520685 -2461.176772722043 1528.9346895050257 -659.0783177344128 -1897.2164117973298 -3800.3206637268886 550.6413046140224 -1781.7330558588728 -1381.5853096805513 -2109.642690354958 680.218193769455 -5060.36483449582 -1426.4469531457871 -1511.3342827185988 -466.98526388406754 -3966.2553389752284 2452.3676029462367 -1420.1384261008352 1909.8320270478725 218.62951461225748 1381.0499742478132 850.0055332733318 1951.486110713333 -1348.9981716498733 3238.8951311819255 2969.322292928584 5316.450899170712 505.4058778779581 3092.9001756031066 -2613.1727858530357 3584.931768314913 5551.6856211600825 2658.5318564828485 1740.5527719678357 4061.7132586985826 -1540.5770500320941 2993.2695653047413 -2638.959790216759 2070.1337635815144 -2965.018434001133 3056.5733974892646 -2030.526981253177 1132.4524006079882 1181.9608988016844 3061.7309408187866 -872.0060019185767 452.9593419972807 -1100.8365203784779 4641.354292530566 -2200.4325998229906 179.22393490560353 -2304.0083098402247 3041.8048632834107 -2298.690330008045 1808.496224788949 951.2026989692822 2582.8343801070005 -365.09265617560595 2523.056147515774 -1481.4513205364347 2478.08207135275 401.03184448182583 2825.6226348020136 -2712.19084062241 1446.3734759632498 -2467.333095151931 3568.3092079870403 512.401073760353 1354.9418801106513 -1852.653897671029 2500.6440831106156 4949.537373316474 -410.3244222998619 8299.069586213678 -2218.596783593297 2768.260905153118 -2752.3742985446006 1739.204278527759 918.6081040687859 3603.109589172527 2044.3820031434298 51.91811765637249 2089.0205623488873 5769.099610087462 1570.9400974791497 526.5947667695582 648.2123930118978 3663.6057134056464 8230.62796626985 77.28532095625997 -22.15302394889295 1053.5809334767982 3894.9573294110596 3681.24486247357 345.534586224705 2231.9547519097105 -1666.0906548723578 2032.690380060114 3430.893645565957 1987.1046442752704 1751.556305244565 -1109.2935135001317 3649.7201572377235 -413.40738090407103 1927.607523335144 1259.8010781947523 5074.943820495158 164.396771594882 5608.329268204048 6705.274354527704 -960.464343925938 2874.1268697334453 5332.702542955056 7957.413659631275 398.9678304903209 6261.306858642027 -2269.69320910424 5495.674899626523 699.9765128325671 2532.0654248679057 -1112.7491846960038 3195.562048475258 2168.8921856787056 1668.819658210501 2529.235269801691 -1504.5954441120848 3848.7576256617904 7273.723833476193 2820.668694825843 1331.8118480620906 2749.3121219892055 2726.1232702909037 78.59122654236853 3563.055505993776 3945.051211586222 52.27089511137456 67.45805294625461 6247.730627436191 21215.59817239642 146.41220554802567 3846.1997263934463 29.747120604850352 z" vector-effect="non-scaling-stroke" fill="#000" fill-opacity="1" stroke="#FFF" stroke-width="0.3px" stroke-linejoin="round" stroke-linecap="round"><title>Utah County</title></path>
<path id="49051" d="M -12345545.251932323 -4964985.158254894 l -132.54466678015888 12867.2628083257 21.59431141987443 23314.663201740943 705.3199597094208 4.241833832114935 24.04011195152998 50847.99036054779 459.0816913470626 -2.909431957639754 42.2981782425195 26657.53135174606 -21215.59817239642 -146.41220554802567 -67.45805294625461 -6247.730627436191 -3945.051211586222 -52.27089511137456 -78.59122654236853 -3563.055505993776 -2749.3121219892055 -2726.1232702909037 -2820.668694825843 -1331.8118480620906 -3848.7576256617904 -7273.723833476193 -2529.235269801691 1504.5954441120848 -2168.8921856787056 -1668.819658210501 1112.7491846960038 -3195.562048475258 -699.9765128325671 -2532.0654248679057 2269.69320910424 -5495.674899626523 -398.9678304903209 -6261.306858642027 -5332.702542955056 -7957.413659631275 960.464343925938 -2874.1268697334453 -5608.329268204048 -6705.274354527704 -5074.943820495158 -164.396771594882 -1927.607523335144 -1259.8010781947523 -3649.7201572377235 413.40738090407103 -1751.556305244565 1109.2935135001317 -3430.893645565957 -1987.1046442752704 1666.0906548723578 -2032.690380060114 -345.534586224705 -2231.9547519097105 -3894.9573294110596 -3681.24486247357 22.15302394889295 -1053.5809334767982 -8230.62796626985 -77.28532095625997 -648.2123930118978 -3663.6057134056464 -1570.9400974791497 -526.5947667695582 -2089.0205623488873 -5769.099610087462 -2044.3820031434298 -51.91811765637249 -918.6081040687859 -3603.109589172527 2752.3742985446006 -1739.204278527759 2218.596783593297 -2768.260905153118 410.3244222998619 -8299.069586213678 -2500.6440831106156 -4949.537373316474 3251.383730901405 -1126.6731985397637 1269.2646113857627 -3605.801139501855 2842.097251523286 -302.5106974700466 4229.249537618831 1798.7978731282055 322.4928987864405 -3161.4590127365664 1462.2918291836977 -3296.8619319163263 4812.897627849132 -3259.082720901817 -736.933915855363 -2998.708820493892 5242.5896377991885 1093.1750310147181 403.6444736160338 3721.927316465415 1939.7407912388444 3532.7681579543278 4774.826695960015 880.6104824095964 2488.545769525692 2475.520840502344 6207.840942468494 3886.7469601547346 2141.6754607316107 240.37095925584435 7053.424017172307 3190.2039923341945 2947.405935091898 -7.178919550962746 2009.0935019217432 -5023.028978958726 4664.50874662213 -598.8490000199527 2860.353981975466 1979.0685802930966 2455.3724499549717 755.4041153425351 2279.7114066779613 -2319.8918102011085 3135.5355405751616 83.26642676070333 2188.0963563099504 -2077.458606391214 149.6130616683513 -2701.355184920132 2235.5181254297495 -4843.511624101549 160.5231510028243 -2061.8885664483532 z" vector-effect="non-scaling-stroke" fill="#000" fill-opacity="1" stroke="#FFF" stroke-width="0.3px" stroke-linejoin="round" stroke-linecap="round"><title>Wasatch County</title></path>
<path id="49053" d="M -12694897.428141342 -4439542.950800689 l -5.435484852641821 -21788.93008097727 -10.871069813147187 -21827.14981766697 -5.435584958642721 -21889.64708426688 -9.235982378944755 -18621.77017525118 13367.896619081497 -43.632147199474275 37004.03910257295 -28.37955958209932 11.131949082016945 -1911.1455108877271 12568.413562132046 13.914681387133896 67.01310893893242 12542.240242821164 24624.423174191266 13.898408943787217 -54.88095423579216 6544.5038244873285 11912.741650043055 194.28986679390073 42.524156799539924 950.6286106118932 12178.460606647655 -69.99165349360555 -11.131281159818172 -3366.81845731847 15137.889714667574 -162.9022116381675 28.273926144465804 18017.18969931733 153.08678365685046 51540.02734051738 -5400.841096332297 -4.232048539444804 -17371.928312124684 -13.612366629764438 -17371.928412230685 -13.61250947136432 -17366.492727160454 -13.612526949495077 -17371.928412236273 -17.015651943162084 -17374.646054549143 -13.612566300667822 -17369.21066980809 -13.612583784386516 z" vector-effect="non-scaling-stroke" fill="#000" fill-opacity="1" stroke="#FFF" stroke-width="0.3px" stroke-linejoin="round" stroke-linecap="round"><title>Washington County</title></path>
<path id="49055" d="M -12390506.508090382 -4651748.842093439 l -3.672986598685384 1450.966926438734 37936.33872477338 -0.281069428659976 37778.3767012991 0.0032715536654 36948.266924493015 -0.138970063067973 32268.748285785317 13.189797070808709 1133.2032608743757 1449.4625225290656 643.203438013792 1215.198005642742 253.65769386664033 1469.6184396743774 -344.2497273888439 2499.0248199542984 -1277.3476726766676 4938.411142926663 99.65123687684536 2797.763845488429 1078.0451989248395 2646.7689734511077 1540.0645698942244 1132.4700813405216 1752.9558486733586 693.2874282281846 1712.189433587715 1340.2230801107362 1109.7524106595665 2148.613693379797 1444.9429346937686 5144.451643944718 901.3907335568219 2002.811172480695 2826.4714459218085 3808.306358232163 1001.041970429942 2186.2546699838713 385.01614247635007 2802.803529941477 -670.3810480739921 1747.041226436384 -1059.9267922230065 1227.9409046079963 -18.118406703695655 1314.2536016125232 2436.9257017746568 1999.8804260743782 -1123.3412156831473 898.9553826358169 -1150.5188257489353 1037.1589027419686 -824.3875050600618 1002.4878697879612 -1755.7903512809426 1900.9167781490833 -37565.55724689923 -15.435935338027775 -48614.8814030271 63.83884895220399 -27477.651929516345 -99.23585507553071 -28109.167400782928 -29.872002861462533 -25300.577204670757 -238.67618694435805 -44.527684999629855 552.0847830679268 -24557.964992910624 -0.143679979257286 -23127.95537077263 -169.4463822664693 -122.00493738800287 -13981.761445223354 -553.4787271153182 -24822.44745522365 1300.3227493166924 -525.7596535962075 1496.4679147358984 -4092.4690540740266 6345.544265771285 -6341.902852569707 1168.7428885623813 -1138.0269928881899 z" vector-effect="non-scaling-stroke" fill="#000" fill-opacity="1" stroke="#FFF" stroke-width="0.3px" stroke-linejoin="round" stroke-linecap="round"><title>Wayne County</title></path>
<path id="49057" d="M -12522705.910682531 -5023665.760240705 l 28443.909562375396 -38471.52332655247 23321.539297351614 44.18397894874215 823.7647884618491 -1097.1788638718426 6421.798005647957 -3215.602344849147 -1327.930316992104 -1763.0069321906194 725.6925397161394 -2150.1631163209677 -418.1160074174404 -4154.353011954576 1528.0822048392147 -2068.270598905161 3543.5215856526047 3159.90584939532 4610.740764655173 -2062.987848555669 1900.3345820512623 4150.244908452965 2892.1907997466624 980.507588069886 4935.794011726975 -34.87108379043639 3760.6498071700335 3365.6965431617573 4243.664632441476 -974.6037932895124 -78.59144918620586 -1344.8787135863677 3487.7507434096187 -4761.918042851612 3236.335896084085 -1722.093868180178 1513.4431352037936 2577.385350059718 3773.1741404421628 -1590.854744934477 3911.431500852108 545.8523896001279 928.2377966158092 -1525.1813277220353 2395.761975828558 843.7894959952682 1137.1277078986168 2595.562020856887 3661.5544209759682 -2603.439129214734 1227.1521140579134 2095.544585119933 2634.263205619529 1322.371208295226 -190.02270473912358 2241.679764586501 6376.957624198869 3484.7204543165863 -371.2727656979114 2193.3448190800846 -1529.8637619689107 1311.3190562650561 -1261.1388451568782 3245.5060024401173 1037.94326611422 3908.1622338034213 -2007.6475730519742 2364.2244656737894 -722.2404109928757 2217.488502711989 -3004.2908628042787 3126.695556794293 -602.5721810236573 1569.6288949716836 -3625.2296466194093 -456.62297998927534 -3399.139872137457 -1521.4424868142232 -4638.236901514232 686.4402968129143 -1232.640944192186 3897.6621221285313 -3217.912075083703 1550.9770418433473 -1794.4703029114753 1897.9716087505221 -5492.612991480157 392.4169389978051 -2296.075705781579 -1898.930433115922 -3856.1059365626425 -1813.9250676259398 -1271.93716972135 -1431.035812035203 -3597.6220789384097 362.05040893144906 -1304.6636528614908 1614.677571981214 -4471.70294329524 1042.4705809112638 -1671.684904558584 1582.7273384612054 -432.4770009703934 2446.141271909699 2091.9157596658915 2016.7630717149004 174.98143778927624 2625.5293179349974 -5822.77457867004 624.7481275266036 -4845.180168861523 -680.5072514656931 -2890.4656815920025 -2061.02504998073 -9615.496644325554 161.59020790737122 -13891.706754423678 -89.4485407229513 z" vector-effect="non-scaling-stroke" fill="#000" fill-opacity="1" stroke="#FFF" stroke-width="0.3px" stroke-linejoin="round" stroke-linecap="round"><title>Weber County</title></path>
</svg>
