<svg xmlns="http://www.w3.org/2000/svg" xmlns:xlink="http://www.w3.org/1999/xlink" height="1080" width="1920" viewBox="-8175141.294170345 -5623683.422013324 215162.42107432336 352828.08129167557">
<path id="50001" d="M -8166993.446718539 -5428149.037127218 l 217.42089566681534 -3232.8558683395386 -57.072991367429495 -1603.6762791378424 -171.21897410508245 -1234.9454860435799 -293.51818411797285 -715.4406399689615 -767.3046837272123 -1402.5562375038862 -1276.4515352882445 -2333.698937627487 -125.01695243921131 -926.7656192043796 108.71039778087288 -934.3946582805365 652.2625868776813 -2411.779127202928 260.90507479198277 -2024.121299436316 -21.742039506323636 -1202.6216281773522 -108.71049789246172 -976.538832041435 -225.5741229392588 -742.8421091996133 -334.2846208233386 -648.6219306383282 -837.0703732222319 -1297.380931854248 -472.89038549363613 -1305.1086828000844 -489.1970402719453 -1946.6910438556224 -1043.6201990759 -6737.3739193426445 -111.42824031133205 -2356.415803845972 127.73479497525841 -4219.6457149153575 -146.75909205712378 -1345.2543778140098 -266.3405596530065 -1020.4086686717346 -342.43784809391946 -672.7759217089042 -1424.106841574423 -1935.4507150715217 -510.93907977920026 -865.7926550703123 -489.19694015942514 -1368.799705522135 0 -1070.2261065812781 266.3405596455559 -945.5332061313093 1309.960758721456 -2262.1112905154005 3853.7851879270747 -12478.120478589088 434.84179132804275 -2087.6560157723725 331.56687840167433 -3289.6875586342067 222.8563805082813 -875.680822044611 380.486442274414 -769.6065203715116 462.0194158004597 -716.5887638982385 1125.1530724829063 -1126.1812759172171 1228.4278853088617 -936.6941367592663 1299.0897890217602 -777.4910525288433 1195.8148760925978 -898.9379203515127 570.7298135748133 -1115.260938482359 429.4063064754009 -1669.3525375248864 372.3332149973139 -3328.2326104501262 5285.425558958203 2168.724773543887 8190.801192048006 -1014.8514231732115 12278.460241061635 -2296.4763753237203 2012.7996617238969 204.12141814641654 5777.326949398965 -815.0258170450106 -429.193075992167 -2863.4840033184737 4863.275820007548 666.5724222483113 2730.4357872577384 21467.80251523573 1993.8737898180261 -327.28726417571306 1945.9303775634617 14186.736653196625 2212.4045256031677 -274.8878660798073 17260.157067452557 6835.598555949517 -5507.80765669141 10471.22724923212 -2966.4469113554806 4112.520187149756 -5265.807766634971 11371.628346632235 -989.4376904331148 -372.39018618594855 -265.0376813188195 -5977.875989238732 -8519.088604286313 4308.7650675121695 -3014.0659386133775 -1191.7483891677111 2371.8460964253172 8651.772442507558 -6478.668907099403 3342.8237486882135 -1434.691163321957 -6456.0985489133745 -14052.640117744915 679.6825271295384 -6986.515882504173 796.7943318122998 1404.0358906202018 10854.641480305232 z" vector-effect="non-scaling-stroke" fill="#000" fill-opacity="1" stroke="#FFF" stroke-width="0.3px" stroke-linejoin="round" stroke-linecap="round"><title>Addison County</title></path>
<path id="50003" d="M -8128871.631450811 -5272738.920654343 l -3011.206576398574 -80.39469519816339 -5311.748230419122 -295.2140971273184 -5528.554237735458 0 -6450.2991013117135 -176.3533643130213 -6706.459865001962 -38.695854876190424 -1193.5225098636001 -77.39191516209394 -1323.4296366954222 -7783.2131977733225 888.390924920328 -2227.002308244817 1212.1212305352092 -5366.026832570322 304.3892539246008 -2472.8148386245593 48.9198642084375 -1650.1418128889054 21.741939400322735 -1120.0369550259784 65.22631875611842 -3160.5610405011103 103.27491292078048 -4913.599123460241 125.01705255173147 -6372.2198588503525 154.9123193351552 -7554.993690027855 176.6544589549303 -8439.2292130813 184.80778634175658 -9020.440016560256 195.67875603679568 -9331.165122163482 190.2433713087812 -9344.252024928108 187.525428654626 -9054.779118700884 17501.205746291205 2346.8869652021676 5399.646745134145 17.001610789448023 20070.182505767792 983.1316890753806 5343.70625197608 234.32804564759135 59.268834608606994 6683.536331991665 -3186.0578914685175 -923.9906446663663 -347.6302869655192 7951.583337676711 -1211.5221896339208 673.055626838468 -750.6092926599085 14028.085684604943 -14272.026677768677 -903.9489586092532 -1238.049958252348 28780.573616423644 9650.243576224893 500.8848994038999 -990.6746022235602 28149.715699017048 -2423.8672759896144 24.890052415430546 -5420.151284132153 0 z" vector-effect="non-scaling-stroke" fill="#000" fill-opacity="1" stroke="#FFF" stroke-width="0.3px" stroke-linejoin="round" stroke-linecap="round"><title>Bennington County</title></path>
<path id="50005" d="M -7997247.529752277 -5520888.105291648 l -2108.9825377697125 1482.3048737477511 -2671.559124068357 452.245224153623 -5449.110803378746 -243.22148469742388 -5674.685026425868 1109.6452375501394 -4087.512538141571 3347.1192844072357 -2467.726940526627 5601.114630766213 -826.1993034137413 7896.483075319789 41.70717826299369 11650.11173007451 -13413.564275111072 -5627.092090789229 -14997.337836908177 1382.3326617171988 -7054.924603910185 -3246.0627141129225 5794.367959689349 -10647.203492871486 -141.22469275817275 -4018.0841878801584 5159.175049040467 -6363.377231698483 6024.032425656915 -11175.859149984084 -758.6962083922699 -2117.0626444686204 -23421.43674046267 -12701.273254803382 6626.929659591056 -12187.156962921843 12448.362838405184 6529.206541051157 5881.041983135045 -10979.8246263396 7073.062779095955 -14225.597707833163 6427.21559130121 3097.4763213107362 -2854.231298658997 -10324.9904937651 11354.810922534205 7959.410575548187 8078.242826640606 -11002.209524819627 11426.285494031385 8211.575380358845 -8125.077162811533 10896.314572934061 7519.805706774816 5611.108521157876 -7338.829825727269 10015.323929576203 5783.991090720519 7955.92000269983 -5215.2618160052225 6496.959932113066 -3310.5807644287124 2074.2002089265734 z" vector-effect="non-scaling-stroke" fill="#000" fill-opacity="1" stroke="#FFF" stroke-width="0.3px" stroke-linejoin="round" stroke-linecap="round"><title>Caledonia County</title></path>
<path id="50007" d="M -8161658.481797785 -5507958.355155045 l 40.76633659657091 -3048.4645696533844 -195.6786559317261 -1575.881885252893 -1543.688309153542 -6975.118800599128 -65.22621864359826 -1254.263344691135 65.22621864359826 -1109.9767150999978 274.4937869217247 -927.6185088166967 366.8978302553296 -878.2829379001632 2119.8536075828597 -4095.969173779711 695.746766009368 -1864.1421400271356 554.4231588039547 -2587.604636453092 331.566878400743 -2287.5978938583285 59.79073379095644 -1461.927386120893 -54.355148831382394 -1465.9702336369082 -122.29931012261659 -925.3961623106152 -638.6737746428698 -2281.522378081456 -1087.104378205724 -2476.4226248934865 -3813.468602027744 -6513.927640439011 -926.3066230984405 -1582.9633338358253 -877.1066183941439 -1941.4644991774112 7491.393305619247 -2185.3959191460162 3167.9916286747903 -2256.520434889011 1226.642493436113 -2189.5263853352517 124.418566592969 -5220.706571828574 2227.1123906793073 -1496.4323617788032 571.9858150947839 -6022.630813819356 -87.3321442771703 -5418.870329652913 21242.16690658126 11227.229899126105 12681.50336678885 2832.6219319608063 1507.3520666249096 343.50550185795873 9073.186156452633 12283.678433558904 2195.7525769276544 679.7865787325427 -2382.9613475836813 4917.58555647172 3026.777956549078 1601.2565368711948 -3904.054469520226 7324.278021452017 3745.21658428479 1177.85091759637 -3800.07917081099 7532.148806986399 3859.216203142889 2007.6788244647905 -2419.8374873856083 4856.196044912562 -3271.9769461322576 -975.2822757232934 -6211.862025110982 13036.421738986857 1716.3652085820213 852.7959441002458 -6254.503178699873 17864.228730035946 -2730.4357872577384 -21467.80251523573 -4863.275820007548 -666.5724222483113 429.193075992167 2863.4840033184737 -5777.326949398965 815.0258170450106 -2012.7996617238969 -204.12141814641654 -12278.460241061635 2296.4763753237203 -8190.801192048006 1014.8514231732115 z" vector-effect="non-scaling-stroke" fill="#000" fill-opacity="1" stroke="#FFF" stroke-width="0.3px" stroke-linejoin="round" stroke-linecap="round"><title>Chittenden County</title></path>
<path id="50009" d="M -8004213.594949055 -5623375.5063114995 l 11108.259289822541 -73.23393707349896 11102.506632475182 -81.37166869360954 11102.506632496603 -81.37240295019001 10905.719042275101 -71.93769310694188 -1750.8144337050617 646.828273339197 -1133.3063998734578 1506.7769699525088 -375.0509574264288 4126.972714828327 809.8927487488836 3656.5961217116565 1527.3817544942722 2403.6353366915137 937.6275437260047 2472.0819379612803 -991.9827926689759 3856.4787578703836 -4968.067090492696 7167.526338630356 -5228.972165286541 7529.560988014564 -2725.9143730122596 5663.159469462 -478.3258703481406 3922.695795896463 1125.153072484769 2501.984051356092 1546.4060515845194 2137.9987570215017 777.2795393113047 2818.0222745416686 434.8417913299054 2270.6046427283436 3435.2498511448503 9000.375140227377 1410.5180293386802 2187.6222826410085 736.5133028263226 1614.6083969930187 65.22611853387207 1534.1846088506281 -1062.644496159628 1587.3411417966709 -1356.1626802766696 267.07342672906816 -1375.1870774775743 -11.445764726027846 -1114.282102784142 778.2845050888136 -788.15070924256 3013.316154897213 353.3089179145172 2802.631771366112 -100.55707039311528 2717.9184441305697 -2157.902301860042 2804.7418836513534 -3802.1475812960416 3196.1993025662377 -1921.457009004429 3389.2593880705535 -994.7005350906402 1378.1918777124956 -2902.5688319662586 1214.3111728569493 -6882.360760315321 4393.078566632234 -2847.223594817333 1816.7917578816414 -1755.6736198635772 1643.081234531477 -3698.8726683678105 4786.828999772668 -10277.909994019195 -13090.162863572128 3310.5807644287124 -2074.2002089265734 5215.2618160052225 -6496.959932113066 -5783.991090720519 -7955.92000269983 7338.829825727269 -10015.323929576203 -7519.805706774816 -5611.108521157876 8125.077162811533 -10896.314572934061 -11426.285494031385 -8211.575380358845 -3827.4506298424676 -2742.3191841095686 5269.494779489003 -7121.316174490377 5824.525634256192 -7002.196964534 -5994.639070712961 -4839.800440194085 z" vector-effect="non-scaling-stroke" fill="#000" fill-opacity="1" stroke="#FFF" stroke-width="0.3px" stroke-linejoin="round" stroke-linecap="round"><title>Essex County</title></path>
<path id="50011" d="M -8148551.934273971 -5622374.702364002 l 11102.50674381759 -73.22581068053842 11096.75408647675 -73.22640520427376 11108.25917849131 -81.36329975165427 11108.259289812297 -73.22766035143286 11102.506632486358 -73.22825491894037 11096.75408647675 -81.36535504180938 5278.1374797271565 -38.66135787870735 2411.4675198923796 27536.94166430086 -5067.488642882556 8125.280608945526 -3778.75024505239 -3138.6466608848423 -15057.798124027438 2418.366348675452 -2189.6763138389215 3104.810762169771 -503.42391807679087 4092.6885888157412 -1280.5980487493798 -6.897441536188126 -1385.7528887698427 7535.969122087583 -6185.928368625231 -2955.303087200038 -4432.063297131099 8465.886969797313 -1307.0116035602987 1645.3891396885738 -2719.8872636323795 253.16841222066432 327.92618049588054 1848.245075713843 -12681.50336678885 -2832.6219319608063 -21242.16690658126 -11227.229899126105 -3057.542211022228 -5732.437734103762 -304.9006343781948 -1965.0163931623101 1912.479649817571 -5080.837775080465 3675.2169960467145 -2997.397250019014 622.1217760359868 -6739.515881203115 1275.2006119154394 -4329.513076946139 -347.0495331780985 -2597.831752376631 -3283.3140570353717 -1197.902426276356 -1600.3964592600241 -3666.843977380544 1013.0262905331329 -2812.381163374521 z" vector-effect="non-scaling-stroke" fill="#000" fill-opacity="1" stroke="#FFF" stroke-width="0.3px" stroke-linejoin="round" stroke-linecap="round"><title>Franklin County</title></path>
<path id="50013" d="M -8165433.9134714855 -5622250.988330056 l 5779.472565039061 -42.3526318827644 11102.506632475182 -81.36140206363052 -3294.6353605650365 7252.072097957134 -1013.0262905331329 2812.381163374521 1600.3964592600241 3666.843977380544 3283.3140570353717 1197.902426276356 347.0495331780985 2597.831752376631 -1275.2006119154394 4329.513076946139 -622.1217760359868 6739.515881203115 -3675.2169960467145 2997.397250019014 -1912.479649817571 5080.837775080465 304.9006343781948 1965.0163931623101 3057.542211022228 5732.437734103762 87.3321442771703 5418.870329652913 -571.9858150947839 6022.630813819356 -2227.1123906793073 1496.4323617788032 -124.418566592969 5220.706571828574 -1226.642493436113 2189.5263853352517 -3167.9916286747903 2256.520434889011 -7491.393305619247 2185.3959191460162 -672.0171756139025 -1487.7822146173567 -342.43784810137004 -1335.4293724205345 -837.0703732213005 -5652.947672216222 -157.63026198279113 -3440.8214652128518 103.27501303888857 -901.4740694100037 190.2432711897418 -943.5876846164465 1810.0288688065484 -5984.707459537312 211.98521059006453 -1831.360336376354 163.065746829845 -3526.123615693301 372.33331510890275 -1897.4843578413129 1032.7490291530266 -3199.0788018889725 356.0268605547026 -1439.188423124142 377.7686998490244 -2239.6178827332333 86.96835826244205 -1328.7189333038405 -29.895366895012558 -1068.4772418653592 -116.86372516397387 -781.3321035578847 -247.31626255717129 -708.6192308971658 -339.7202057885006 -708.6748566925526 -2084.522555610165 -2344.7681868765503 -519.0924071678892 -735.7388599123806 -497.3502675425261 -892.9300363473594 -521.8101495904848 -1356.809288754128 -184.80768623109907 -1046.49182266742 -59.790733797475696 -966.1000641351566 173.93671653047204 -1825.1372387399897 190.24327119719237 -939.5526161855087 625.0849624052644 -1967.6243178704754 415.81749424058944 -920.6731720920652 1850.7952053947374 -3100.2890233723447 483.76155542582273 -1032.3868338586763 413.0995515929535 -1297.3671383932233 404.94642442744225 -2073.1035836599767 48.91966398246586 -1244.0904227364808 -97.83942807931453 -1056.075598390773 -568.0119710331783 -2300.7525518247858 -559.8588438760489 -3630.927677084692 z" vector-effect="non-scaling-stroke" fill="#000" fill-opacity="1" stroke="#FFF" stroke-width="0.3px" stroke-linejoin="round" stroke-linecap="round"><title>Grand Isle County</title></path>
<path id="50015" d="M -8056674.278111303 -5556293.141788139 l -6626.929659591056 12187.156962921843 -6268.767324293032 12538.362735736184 -1464.5775522906333 -519.3711539711803 -10355.7932993602 -7835.819629693404 -6411.083059381694 12639.044445076957 -12408.112048235722 -6915.612443412654 -4356.931212450378 -1415.778587013483 -3745.21658428479 -1177.85091759637 3904.054469520226 -7324.278021452017 -3026.777956549078 -1601.2565368711948 2382.9613475836813 -4917.58555647172 -2195.7525769276544 -679.7865787325427 -9073.186156452633 -12283.678433558904 -1507.3520666249096 -343.50550185795873 -327.92618049588054 -1848.245075713843 2719.8872636323795 -253.16841222066432 1307.0116035602987 -1645.3891396885738 4432.063297131099 -8465.886969797313 6185.928368625231 2955.303087200038 1385.7528887698427 -7535.969122087583 1280.5980487493798 6.897441536188126 503.42391807679087 -4092.6885888157412 2189.6763138389215 -3104.810762169771 15057.798124027438 -2418.366348675452 3778.75024505239 3138.6466608848423 17628.26969545055 9195.018611608073 -6930.501361899078 13950.985292999074 12681.320914143696 6491.915962450206 z" vector-effect="non-scaling-stroke" fill="#000" fill-opacity="1" stroke="#FFF" stroke-width="0.3px" stroke-linejoin="round" stroke-linecap="round"><title>Lamoille County</title></path>
<path id="50017" d="M -8020491.5988477385 -5489592.302720326 l 7.212485720403492 2013.1684259371832 -619.6495776725933 5944.075907697901 -1638.809794580564 4949.192006440833 -4715.315443195403 8650.885463710874 -674.0046263849363 2448.594853743911 483.76145530771464 1288.272962816991 962.0873256539926 959.4759245635942 722.9244905989617 895.16866046004 -236.4452928621322 1129.223283897154 -7280.881711689755 10469.863415961154 -1644.2453795466572 3217.068912729621 -676.7225690381601 3242.330876923166 -228.29186536185443 3388.1463624518365 -630.5205473648384 3341.6994672855362 -940.3452861486003 3027.9566520815715 -1174.0727364690974 2454.7769031431526 -1287.6131864432245 1195.8209740873426 -12454.08602911979 -5073.3586850985885 -13657.175400310196 -4410.487858281471 -15624.564279519953 -6618.537800541148 -11298.550608485006 -4326.364158322103 -9042.777122464031 -3059.501881526783 -904.9070124607533 -5084.752266444266 5507.80765669141 -10471.22724923212 6486.948628189042 2523.4216563599184 5351.41089657601 -11821.667431205511 947.2558410670608 362.95583137124777 4135.472328785807 -11186.126678521745 3358.289626520127 -545.4525764761493 12986.608606384136 5303.672841517255 2591.988404478878 -14327.180072734132 5721.384007214569 2628.063132018782 7054.924603910185 3246.0627141129225 14997.337836908177 -1382.3326617171988 z" vector-effect="non-scaling-stroke" fill="#000" fill-opacity="1" stroke="#FFF" stroke-width="0.3px" stroke-linejoin="round" stroke-linecap="round"><title>Orange County</title></path>
<path id="50019" d="M -8076658.756776683 -5622869.00050783 l 5830.121810076758 -42.70473124552518 11102.50663249474 -73.2301708292216 11108.259289802052 -73.23060801438987 11102.506632496603 -89.5050939405337 11096.75408647675 -73.2320869024843 11102.50674380362 -73.23268158454448 11102.506632477045 -81.37043115310371 -2780.2468066047877 16430.202845185064 5994.639070712961 4839.800440194085 -5824.525634256192 7002.196964534 -5269.494779489003 7121.316174490377 3827.4506298424676 2742.3191841095686 -8078.242826640606 11002.209524819627 -11354.810922534205 -7959.410575548187 2854.231298658997 10324.9904937651 -6427.21559130121 -3097.4763213107362 -7073.062779095955 14225.597707833163 -5881.041983135045 10979.8246263396 -12448.362838405184 -6529.206541051157 738.5894593251869 -1275.7165793869644 -12681.320914143696 -6491.915962450206 6930.501361899078 -13950.985292999074 -17628.26969545055 -9195.018611608073 5067.488642882556 -8125.280608945526 z" vector-effect="non-scaling-stroke" fill="#000" fill-opacity="1" stroke="#FFF" stroke-width="0.3px" stroke-linejoin="round" stroke-linecap="round"><title>Orleans County</title></path>
<path id="50021" d="M -8171597.333821308 -5399190.442032497 l -211.98531070165336 -71.27060959953815 -244.59852013364434 -352.61047553177923 -793.5861940896139 -1541.890640186146 -619.6494775591418 -1763.547337146476 -171.2189741069451 -1887.7435620548204 -35.330951855517924 -3322.313824479468 198.39649846870452 -1723.5686011835933 317.97816627658904 -1352.0435051061213 5840.468315456994 -15269.289643540047 323.4135510129854 -1674.3168958928436 17752.336482697167 -1280.0321711590514 -1404.0358906202018 -10854.641480305232 6986.515882504173 -796.7943318122998 14052.640117744915 -679.6825271295384 1434.691163321957 6456.0985489133745 6478.668907099403 -3342.8237486882135 9384.503134959377 -4875.538281450048 132.07167026214302 2855.3084967061877 3982.1332924421877 1613.5443348782137 723.4593594148755 -1518.3558455947787 3834.295554008335 1485.918522742577 1540.873036972247 3864.4280030494556 -3984.4199060974643 8946.850712792017 1396.2122454894707 597.0832051942125 -1556.2384662823752 3943.0702852634713 13258.350726683624 5235.479569307528 -6351.888808826916 14660.07705784589 -1650.2511158511043 -622.1366619542241 -1798.574986487627 14051.761579417624 2081.8499173466116 1264.1322671007365 -139.91746797878295 2143.3271448248997 4938.166007438675 1402.7789734639227 238.46505095623434 1724.6264677792788 -1364.4429986560717 5472.057039930485 -2356.8787456108257 6087.632607282139 -147.80656897183508 4272.5759409330785 -7360.003683424555 -4003.61963910982 -3064.2537744445726 1411.0988194011152 -28.02935722284019 3596.7597806630656 -1378.7288515465334 93.98935840651393 -203.22820197511464 7073.637629170902 -20070.182505767792 -983.1316890753806 -5399.646745134145 -17.001610789448023 -17501.205746291205 -2346.8869652021676 171.21897410508245 -8472.801992056891 157.63006176054478 -7601.076221086085 130.45253739133477 -6431.361695688218 103.2750130398199 -4955.715111612342 59.79063368495554 -3192.8391188709065 27.177724584005773 -1139.495385655202 65.2261185310781 -3363.078829058446 -831.6347882607952 -1233.810084681958 -1059.926753736101 -1016.4228693256155 -562.5765862977132 -393.8471262641251 -905.0144344009459 -1335.453830649145 -1581.736803214997 -5531.431661305949 -489.19714038353413 -855.903770558536 -625.0849624061957 -668.2605769187212 -826.1993034081534 -379.2029448226094 -1761.109104710631 -397.9922510003671 -853.3770279921591 -30.037775984965265 -788.1506091253832 71.339645027183 -736.5133028347045 198.9973782710731 -660.415914259851 337.9102657753974 -581.6008833870292 510.59642897639424 -456.5838308427483 705.778105571866 -331.566878400743 795.8127483250573 -516.3745646262541 2675.9813130535185 -323.41355101950467 844.2933107092977 -470.1726430701092 690.387240415439 -524.5278920195997 604.0464889453724 -1220.274658024311 911.6227838126943 -1236.5813128082082 562.6851768530905 z" vector-effect="non-scaling-stroke" fill="#000" fill-opacity="1" stroke="#FFF" stroke-width="0.3px" stroke-linejoin="round" stroke-linecap="round"><title>Rutland County</title></path>
<path id="50023" d="M -8097536.7839028835 -5470020.811565841 l -17260.157067452557 -6835.598555949517 -2212.4045256031677 274.8878660798073 -1945.9303775634617 -14186.736653196625 -1993.8737898180261 327.28726417571306 6254.503178699873 -17864.228730035946 -1716.3652085820213 -852.7959441002458 6211.862025110982 -13036.421738986857 3271.9769461322576 975.2822757232934 2419.8374873856083 -4856.196044912562 -3859.216203142889 -2007.6788244647905 3800.07917081099 -7532.148806986399 4356.931212450378 1415.778587013483 12408.112048235722 6915.612443412654 6411.083059381694 -12639.044445076957 10355.7932993602 7835.819629693404 1464.5775522906333 519.3711539711803 6268.767324293032 -12538.362735736184 23421.43674046267 12701.273254803382 758.6962083922699 2117.0626444686204 -6024.032425656915 11175.859149984084 -5159.175049040467 6363.377231698483 141.22469275817275 4018.0841878801584 -5794.367959689349 10647.203492871486 -5721.384007214569 -2628.063132018782 -2591.988404478878 14327.180072734132 -12986.608606384136 -5303.672841517255 -3358.289626520127 545.4525764761493 -4135.472328785807 11186.126678521745 -947.2558410670608 -362.95583137124777 -5351.41089657601 11821.667431205511 z" vector-effect="non-scaling-stroke" fill="#000" fill-opacity="1" stroke="#FFF" stroke-width="0.3px" stroke-linejoin="round" stroke-linecap="round"><title>Washington County</title></path>
<path id="50025" d="M -8066968.9705511965 -5270855.340721648 l -5470.852943000384 -203.49165338091552 -5470.852943002246 -210.8960852874443 -5473.570685424842 -203.5006248364225 -5468.135200573131 -207.2052747020498 -5473.570585312322 -214.610088955611 -5473.570585315116 -207.21457434538752 -5468.135200577788 -203.5185153381899 -5473.570685424842 -210.92406727187335 -5468.1352005722 -203.52762687392533 -2300.9006489580497 23.627401613630354 990.6746022235602 -28149.715699017048 -9650.243576224893 -500.8848994038999 1238.049958252348 -28780.573616423644 14272.026677768677 903.9489586092532 750.6092926599085 -14028.085684604943 1211.5221896339208 -673.055626838468 347.6302869655192 -7951.583337676711 3186.0578914685175 923.9906446663663 15025.675771767274 5038.510692740791 15379.546740696765 -2046.5078498870134 11882.556845993735 -172.29890179540962 260.9049746869132 298.4350490383804 266.3406597580761 455.0950519181788 116.86372516304255 898.9338233498856 -233.72755043860525 898.846922843717 -519.092307055369 768.240421324037 -769.1263120416552 842.753880655393 -690.3112811632454 6254.878131239675 24.459781936369836 1870.4294345183298 665.8514992268756 3955.728551856242 -269.058402181603 3477.5693840133026 -1940.481306088157 8584.123291672207 -467.4549006484449 6982.036878062412 -1065.3623386938125 2523.1064488384873 -2685.1478361915797 984.5328949624673 -1918.7392665818334 1092.1530919251963 -760.9731848761439 2685.2628006003797 -771.844154576771 6604.028791793622 -847.9413429209962 2174.3382539507 -807.1751064397395 1587.7644855948165 -548.9875738378614 1780.350397206843 -78.81513098999858 2755.1674633845687 255.46958994399756 2361.4574214182794 429.4062063694 1727.157465454191 657.6981718400493 1497.1067543365061 940.3451860351488 1670.9930381672457 4772.388434562832 4977.869788108394 2168.773271560669 3135.740056639537 728.3599754450843 4407.517800262198 z" vector-effect="non-scaling-stroke" fill="#000" fill-opacity="1" stroke="#FFF" stroke-width="0.3px" stroke-linejoin="round" stroke-linecap="round"><title>Windham County</title></path>
<path id="50027" d="M -8040062.531107215 -5430976.581666394 l -4585.468338451348 4257.317265126854 -1443.1311386562884 2020.1167489578947 -3011.2791296355426 2474.698365093209 -690.3112811613828 1601.8063714196905 -380.4866424910724 5374.924891652539 -989.2649501329288 6385.703797761351 -896.8611070113257 3037.2950107986107 -1121.050864114426 1858.956126788631 -449.81506951805204 745.7901859534904 -3859.2205726616085 3770.7032492533326 -1125.1530724912882 2201.680033857934 -679.4403114616871 4038.177949647419 -828.9170458316803 26169.847413525917 451.14824587479234 5784.760810076259 -269.05830206815153 3469.876439644024 -1358.8805228183046 2908.618616035208 -1136.024042185396 1384.9145766766742 -845.2237006099895 1380.976688423194 -529.9633768666536 1571.0781057085842 -184.80778634361923 1970.0035134823993 -11762.975278294645 608.777257649228 -15379.546740696765 2046.5078498870134 -15025.675771767274 -5038.510692740791 -59.268834608606994 -6683.536331991665 -5343.70625197608 -234.32804564759135 203.22820197511464 -7073.637629170902 1378.7288515465334 -93.98935840651393 28.02935722284019 -3596.7597806630656 3064.2537744445726 -1411.0988194011152 7360.003683424555 4003.61963910982 147.80656897183508 -4272.5759409330785 2356.8787456108257 -6087.632607282139 1364.4429986560717 -5472.057039930485 -238.46505095623434 -1724.6264677792788 -4938.166007438675 -1402.7789734639227 139.91746797878295 -2143.3271448248997 -2081.8499173466116 -1264.1322671007365 1798.574986487627 -14051.761579417624 1650.2511158511043 622.1366619542241 6351.888808826916 -14660.07705784589 -13258.350726683624 -5235.479569307528 1556.2384662823752 -3943.0702852634713 -1396.2122454894707 -597.0832051942125 3984.4199060974643 -8946.850712792017 -1540.873036972247 -3864.4280030494556 -3834.295554008335 -1485.918522742577 -723.4593594148755 1518.3558455947787 -3982.1332924421877 -1613.5443348782137 -132.07167026214302 -2855.3084967061877 -9384.503134959377 4875.538281450048 -2371.8460964253172 -8651.772442507558 3014.0659386133775 1191.7483891677111 8519.088604286313 -4308.7650675121695 265.0376813188195 5977.875989238732 989.4376904331148 372.39018618594855 5265.807766634971 -11371.628346632235 2966.4469113554806 -4112.520187149756 904.9070124607533 5084.752266444266 9042.777122464031 3059.501881526783 11298.550608485006 4326.364158322103 15624.564279519953 6618.537800541148 13657.175400310196 4410.487858281471 z" vector-effect="non-scaling-stroke" fill="#000" fill-opacity="1" stroke="#FFF" stroke-width="0.3px" stroke-linejoin="round" stroke-linecap="round"><title>Windsor County</title></path>
</svg>
