<svg xmlns="http://www.w3.org/2000/svg" xmlns:xlink="http://www.w3.org/1999/xlink" height="1080" width="1920" viewBox="-10341772.981097972 -5955402.697236616 673355.9849685505 720466.9395384276">
<path id="55001" d="M -9988128.232165528 -5503846.430645993 l 14127.441138263792 299.92278917040676 -0.33729805983603 40853.87659214903 88.83117253892124 18752.87660245318 -216.29488380625844 16298.960149221122 -53.65777567215264 17343.37594804261 -13307.684408061206 -82.45359615702182 -7971.640144692734 318.4361009057611 -36.440601997077465 -1340.2900343397632 -5134.976678432897 -11515.108726516366 -4635.374137040228 -10383.4616035074 -3347.3756386805326 -5649.162939514965 -3954.3422632869333 -4126.077853047289 -1589.8901883307844 -3461.8052138583735 -1449.4725363720208 -3626.553693342954 135.88805028423667 -3338.698887096718 552.6114044915885 -6064.3164327237755 -842.5059117656201 -4783.819509186782 -3025.773919675499 -3482.425137368031 -1499.2981548067182 -5550.681041632779 258.18729554116726 -4828.8624217081815 760.9730815961957 -2837.9853995339945 1589.8901883307844 -3122.7992937490344 2051.9095593001693 -3489.962335685268 4303.1215923484415 -5707.97612838354 1521.9461631905288 -3525.0637401733547 616.0258279573172 -3690.7693279236555 72.47362681850791 -2870.2234404310584 -19.746933598071337 -659.227911496535 z" vector-effect="non-scaling-stroke" fill="#000" fill-opacity="1" stroke="#FFF" stroke-width="0.3px" stroke-linejoin="round" stroke-linecap="round"><title>Adams County</title></path>
<path id="55003" d="M -10078977.935260484 -5877357.965622399 l -987.9694443270564 3051.447601479478 161.34502279944718 13476.621286978945 -56.775945926085114 27591.729345964268 -360.4536243863404 14209.390901369974 14048.738369593397 64.54277202859521 -32.95201642997563 13895.279501297511 13714.780008532107 -128.39788830373436 -66.45851524174213 9347.857022063807 378.5969202723354 4606.049827498384 -199.81982180848718 13883.896960963495 -41734.22111675143 -32.8440657556057 -22063.962007980794 168.0431101731956 -5566.195174891502 -88.108392694965 65.90336493961513 -27864.331345775165 9.241521487012506 -16597.144834733568 -427.6890383493155 -4258.744522485882 451.2895496301353 -6816.497168384492 -28.160936860367656 -27980.72575133294 -333.1790133025497 -338.8055351357907 16.421962598338723 -13481.237795543857 1086.7921455521137 -2302.6628332287073 1870.1240483745933 -410.32977375760674 13320.380916852504 -5677.381880644709 2916.393361866474 -2243.3396867653355 2080.7975109983236 -3103.4368556644768 -3866.6788393333554 0 0 -1002.8836250668392 999.4381745755672 -668.6528208162636 1114.1278011593968 -477.64038343075663 1196.048963015899 -191.06344043835998 1245.2016601227224 95.53224075771868 -2211.8713699541986 -2675.2963875308633 -770.058921393007 -621.1677542841062 2277.40829943493 1481.1735061416402 8274.03734687902 8213.580838296562 10272.913696022704 6059.746523596346 z M -10083904.744801572 -5917421.615719107 l -1720.3443988524377 1006.0994731057435 -2932.7775942403823 287.43572903238237 -2752.5510381683707 1053.8501742910594 -2703.3983410596848 2250.9818085208535 -1130.5120335314423 1963.1494435053319 2015.2605815157294 287.2532123737037 -1540.117842786014 2680.5752967288718 -6144.087138770148 1674.9426724845544 -4948.038175752386 3683.7460710732266 -1638.4232370071113 -908.8322589918971 -98.30539421923459 -2727.063016952947 2228.255602326244 -3398.056787757203 8470.648135315627 -5171.407109403051 1327.1228219736367 -2011.928862085566 1310.7385896053165 -1389.4592199847102 6357.082159580663 -3210.974735053256 2277.4082994386554 -431.4148542340845 1769.497095964849 2636.091585269198 z M -10077858.963057019 -5933918.995846553 l -1212.433195386082 1151.9918302008882 -1114.127801163122 1343.7983491709456 -524.2954358439893 1727.4368623765185 507.9112034738064 2446.617384346202 -1638.423237003386 -1439.103681806475 -1851.418257817626 -815.597368077375 -1998.8763491455466 -191.9163344623521 -6062.165976919234 479.78292756993324 -901.13278035447 -959.5922190630808 1736.7286312282085 -2735.4165846155956 1441.8124485630542 -911.9960391158238 5554.25477344729 -1296.1583207789809 4325.437345694751 -1584.454980536364 1769.497095964849 336.12055252026767 z M -10104581.646052577 -5932910.994680913 l 753.6746890228242 -1056.0041249012575 589.8323653228581 -1008.1231373306364 491.52697110176086 -1152.2833433821797 442.37427399121225 -1344.5229073651135 1048.5908716861159 768.3241725480184 1998.8763491455466 960.3100884249434 753.6746890190989 624.1448921114206 1572.8863075282425 2688.1140052508563 196.61078843846917 1631.665439424105 -1097.7435687929392 1103.6007913285866 -2195.4871375896037 1247.3807851243764 -1130.5120335295796 -1583.2445207126439 z M -10064341.971351726 -5954103.520227992 l -278.5319502931088 433.015944853425 -311.3004150297493 577.3211120320484 507.91120347194374 5530.721606068313 -2506.787552619353 2932.2631467375904 -4767.8116196841 2210.5627677133307 425.9900416210294 -5335.139929897152 1310.7385896053165 -4713.019558158703 2342.9452289156616 -2934.9020979730412 3457.0730300806463 0 0 818.0229332018644 z" vector-effect="non-scaling-stroke" fill="#000" fill-opacity="1" stroke="#FFF" stroke-width="0.3px" stroke-linejoin="round" stroke-linecap="round"><title>Ashland County</title></path>
<path id="55005" d="M -10244865.057172412 -5722832.6915485095 l 15892.0770384036 159.6958169899881 20611.576834231615 -9.550984486937523 18143.290544122458 219.71543146204203 93.95231439173222 11467.607310156338 -192.69648759067059 25037.39747898467 -15.69749535806477 18348.099115891382 -101.52471143193543 13515.533438372426 -13736.820822430775 -224.36371830757707 -18079.83887964487 -22.91266823373735 -36563.655078172684 -219.47463515214622 -50.87133750319481 -18070.92895503249 230.88152196630836 -50171.204464560375 z" vector-effect="non-scaling-stroke" fill="#000" fill-opacity="1" stroke="#FFF" stroke-width="0.3px" stroke-linejoin="round" stroke-linecap="round"><title>Barron County</title></path>
<path id="55007" d="M -10120902.663051335 -5876952.607425956 l -1086.7921455521137 2302.6628332287073 -16.421962598338723 13481.237795543857 333.1790133025497 338.8055351357907 28.160936860367656 27980.72575133294 -451.2895496301353 6816.497168384492 427.6890383493155 4258.744522485882 -9.241521487012506 16597.144834733568 -22330.68295132555 -117.6355756809935 -5577.105041584 -289.4313941542059 -14069.109502453357 80.51371486764401 -27787.00645671971 -46.92965686228126 54.88206743821502 -14942.179787334986 -124.89712909050286 -31677.676859920844 -169.53880523890257 -9043.059014037251 222.00991514511406 -41085.246670295484 -14.290810093283653 -1690.4195888740942 6805.344078622758 -1032.282685383223 8437.879670578986 -3541.2009191950783 1507.349378041923 1292.2258257642388 5374.028217379004 -5217.933890342712 8700.027388496324 -5700.199932491407 5554.25477344729 -5032.676622176543 3178.5410797912627 -815.0869957050309 -819.2116185035557 3547.471031631343 1507.3493780456483 958.5288135036826 2490.4033202473074 -1006.4580137385055 2211.871369957924 -2348.852878334932 16.384232370182872 671.1652479702607 131.07385895960033 287.626469030045 32.768464740365744 383.48723277263343 -180.22655607014894 958.6444654818624 2179.1029052156955 1437.7695714319125 1441.8124485630542 -1198.1248844545335 1769.4970959685743 -3691.2570552937686 983.0539422035217 -575.40131300129 950.2854774612933 -335.6682681469247 2211.871369957924 -95.90758845210075 933.9012450929731 -383.64088357333094 327.68464739993215 -911.2146308748052 180.2265560720116 -1103.1764897303656 491.5269710998982 -1007.3698089681566 1261.5858924966305 -1055.4644506620243 4816.964316792786 -2303.274475187063 442.3742739930749 -431.9316206667572 475.14273872971535 -719.9335307357833 688.1377595439553 -671.991538003087 1081.3593364227563 -288.0122116180137 753.6746890209615 144.0072937803343 1671.1917017456144 720.0008320352063 933.9012450948358 143.99303982406855 2359.3294612895697 -191.99124761857092 1163.2804982699454 -335.99484500009567 1081.359336424619 -480.0150730209425 327.6846474017948 -672.065456151031 327.6846474017948 -1200.2456247946247 475.14273872971535 -1152.3911301456392 786.4431537613273 -528.2301362482831 2261.0240670684725 240.10857177432626 950.285477463156 384.15997177083045 1015.8224069420248 576.2082470729947 212.9950208105147 672.1948691289872 98.30539421923459 1152.2136144312099 229.3792531825602 1056.0622016135603 589.8323653228581 479.98603718727827 3358.767635859549 -287.98845502734184 1146.8962659034878 1055.9112212536857 442.37427399121225 3118.991827514954 851.9800832439214 1103.3764591887593 1441.8124485649168 1247.1272903745994 278.53195028938353 1294.9052793467417 -2572.324482098222 1342.6620213286951 311.3004150316119 623.3086610268801 524.2954358421266 1629.9816934522241 -1835.0340254455805 2252.7094906559214 -2785.319502910599 7377.153907495551 -1916.9551872946322 1580.0094060245901 -2048.029046256095 1244.654946230352 -1294.3543572351336 2967.3090679263696 -704.5219919122756 3492.478064346127 -212.9950208105147 2773.852750984952 458.75850636325777 1625.6432294370607 851.9800832401961 1577.5417205225676 507.91120347194374 1625.0489582987502 -589.8323653228581 1863.6556970374659 -7159.909545712173 8787.291516258381 -1900.5709549244493 3197.53480345197 -1277.9701248649508 3196.369999368675 2883.624897127971 1573.9037255365402 z M -10123013.907468881 -5939729.27183271 l -1589.2705398965627 2113.27532401029 -1884.1867225579917 816.3556656083092 -1802.265560703352 -1680.8155162697658 81.92116185091436 -1537.0290499068797 3211.309544527903 -2546.3002978516743 1261.585892494768 -1585.807912982069 1605.654772264883 2210.4409501338378 z" vector-effect="non-scaling-stroke" fill="#000" fill-opacity="1" stroke="#FFF" stroke-width="0.3px" stroke-linejoin="round" stroke-linecap="round"><title>Bayfield County</title></path>
<path id="55009" d="M -9800933.989038719 -5502803.8797377 l -16621.108272287995 -161.9135056771338 189.3552330750972 -8923.592305675149 -77.92275300063193 -11221.428436669521 155.84940218366683 -21344.49419126101 -44.52701707929373 -12246.47355826106 -6077.931208033115 312.6069632479921 262.2702787872404 -14835.691749768332 1295.4240238014609 1137.3119270456955 11144.302537180483 -714.1482715820894 15256.066708726808 -95.56037233024836 448.1755038201809 1.254614347591996 100.76457532122731 368.4315144903958 -311.3004150297493 691.1901397192851 -753.6746890228242 598.9888616036624 -1048.5908716842532 2027.0535550937057 -753.6746890209615 1059.415999321267 -606.216597693041 1381.6611415119842 -442.37427399121225 3453.2331503927708 -999.438174571842 4648.280143500306 -1130.5120335351676 920.1694677984342 1196.0489630121738 2024.044907266274 2244.6398346982896 2161.55019701086 1916.9551872983575 1333.466110125184 2670.6298763174564 643.6722723795101 2998.314523719251 -183.90171411912888 2441.250623136759 -1655.2828283458948 999.4381745737046 -3679.4857553346083 1015.8224069457501 -2668.5590441906825 2392.097926022485 -2623.3133374871686 4964.422408128157 -3729.1703333221376 7913.58423473686 -3500.3681307807565 527.0649055186659 -558.1391814099625 -15.60922927968204 2488.46650278382 -276.9584403131157 17760.350507391617 -123.67818065918982 31720.636213816702 -13529.655361384153 -70.64932607114315 -43.527256736531854 13566.62733838521 z" vector-effect="non-scaling-stroke" fill="#000" fill-opacity="1" stroke="#FFF" stroke-width="0.3px" stroke-linejoin="round" stroke-linecap="round"><title>Brown County</title></path>
<path id="55011" d="M -10190295.853650955 -5475600.277016959 l -10762.333584507927 -18.91161503829062 -1388.7758897077292 -408.5001811096445 -1388.7758897133172 -760.3126469459385 -12887.622676938772 -11836.47738493979 -4310.368918649852 -2026.641887892969 -2201.386480996385 -2974.483138809912 -875.9941342249513 -1738.1845397111028 -7505.580667795613 -14906.44739344716 -4223.400760613382 -7273.522619298659 -15660.537023130804 -14541.631405758671 1366.526883289218 -8132.463221095502 4375.595219170675 -15141.314176132903 1117.854799753055 -1264.6553426878527 2898.0906214378774 -1647.9159760056064 39284.414196057245 28.92506119981408 13486.018677590415 70.66388953570276 -71.24959480576217 54462.143362332135 -2969.891804318875 3394.2395658874884 -4957.723617454991 2156.3635951830074 451.1772282682359 4263.546765490435 -1101.9515280388296 3070.311449254863 4540.163873530924 2354.4193923752755 1922.820562593639 3822.973063099198 41.967336712405086 2559.648300313391 1567.7117209210992 1765.660115044564 -841.3524887748063 3082.656212470494 z" vector-effect="non-scaling-stroke" fill="#000" fill-opacity="1" stroke="#FFF" stroke-width="0.3px" stroke-linejoin="round" stroke-linecap="round"><title>Buffalo County</title></path>
<path id="55013" d="M -10281840.915287862 -5784724.98555673 l 1078.9510508179665 -1370.1117293611169 505.50359493121505 -2188.703515733592 1236.5812126882374 -2161.826560924761 1519.2283270005137 -1774.501972110942 1369.7515926249325 -1046.0651568220928 2168.7733716741204 -446.6721594519913 0 -5291.2534799054265 5.435484852641821 -2348.76231339667 5.663589214906096 -4242.49798249267 27030.352634938434 -63.214399974793196 -109.65225877799094 27886.992347511463 1919.4813118316233 8.170566959306598 258.9251280799508 39593.17501361575 -13.136924427002668 15337.565350308083 -13769.326559016481 29.613166083581746 49.53817527741194 -13683.105059586465 -23553.861404839903 -69.84674377646297 -18070.376166326925 -422.9076152741909 -85.94020536541939 13795.63677127473 -41139.48845677264 -459.2370027061552 422.50387636758387 -6695.7143174521625 410.38180916942656 -2665.3384586852044 1027.3137445207685 -1938.2214264404029 2355.8620817605406 -2314.359455693513 7289.47175764665 -7164.8669391311705 3076.5053482726216 -4743.401197801344 -478.32597045972943 -4648.413804650307 4467.999180639163 -8648.146604430862 3090.094260621816 -3971.7572003118694 3497.7584274820983 -1664.213909828104 2024.7319219261408 -546.9928760714829 5989.945250056684 -3829.894214994274 2878.1089499183 -484.7166677089408 921.3208889514208 -508.1991157224402 538.1168043650687 -684.1602611150593 1307.2430162988603 -2217.0414296006784 125.01705254614353 -477.1078739631921 426.688363827765 -344.1590878609568 646.8271020296961 -750.9393837749958 861.5302552692592 -751.0029720021412 1068.0801812298596 -344.2310231467709 4595.733775386587 0 1657.8342918939888 -888.0208570631221 2478.59801033698 -4233.992768397555 1633.37430973351 -1440.4880335479975 1981.2478429079056 129.1837416915223 2799.2938189320266 618.4901889730245 z" vector-effect="non-scaling-stroke" fill="#000" fill-opacity="1" stroke="#FFF" stroke-width="0.3px" stroke-linejoin="round" stroke-linecap="round"><title>Burnett County</title></path>
<path id="55015" d="M -9817555.097311007 -5502965.7932433775 l 16621.108272287995 161.9135056771338 -58.443845860660076 9134.342725484632 225.41874058917165 44974.25950310193 -13410.766479171813 38.925421591848135 65.79048697277904 -7145.462839468382 -26996.415655745193 -80.38915947265923 97.73895819485188 -6462.179645889439 -144.7135569192469 -18458.64385154005 53.99151150509715 -22491.26275254041 z" vector-effect="non-scaling-stroke" fill="#000" fill-opacity="1" stroke="#FFF" stroke-width="0.3px" stroke-linejoin="round" stroke-linecap="round"><title>Calumet County</title></path>
<path id="55017" d="M -10204170.899958074 -5654318.557659447 l 13736.820822430775 224.36371830757707 101.52471143193543 -13515.533438372426 9185.747527481988 87.18921247310936 59398.05917061865 -79.27145904581994 -75.69959144853055 27154.31327642128 344.0882120858878 105.69926234334707 -61.56079160794616 13919.958302281797 124.4526303615421 27337.507968844846 -36120.04724132456 63.28284525498748 -30849.404757888988 -87.78707210533321 -14098.609390145168 238.69506118725985 -104.85906414873898 -41682.9062082842 -1665.4504564739764 -5.364080908708274 z" vector-effect="non-scaling-stroke" fill="#000" fill-opacity="1" stroke="#FFF" stroke-width="0.3px" stroke-linejoin="round" stroke-linecap="round"><title>Chippewa County</title></path>
<path id="55019" d="M -10121417.46726672 -5599084.3308161935 l -124.4526303615421 -27337.507968844846 54508.68549787253 42.534019141457975 13233.100794503465 -467.98606278933585 -185.5707043427974 13024.948593371548 200.59694316796958 7635.657425252721 -242.45529809966683 18219.37525728438 75.91855688765645 15871.3008312257 15.692152021452785 40699.03511945717 -13405.311601489782 331.5324842100963 -22609.4272902254 89.77666857745498 -18090.636202331632 -165.37537986505777 26.049762718379498 -13486.62486737594 -13497.595570668578 -53.387070246972144 83.37952311709523 -13526.423216569237 110.31961912475526 -24034.57379604224 z" vector-effect="non-scaling-stroke" fill="#000" fill-opacity="1" stroke="#FFF" stroke-width="0.3px" stroke-linejoin="round" stroke-linecap="round"><title>Clark County</title></path>
<path id="55021" d="M -9995461.574365018 -5410061.436060208 l 7971.640144692734 -318.4361009057611 13307.684408061206 82.45359615702182 39426.34643549472 -74.91146751306951 13173.099477654323 -44.6096983300522 -5.232127387076616 1791.6450487338006 13391.842054417357 -201.17211480345577 -49.983119282871485 8767.445426248014 290.54142194241285 31340.72136043571 -461.0853308662772 8.57582527026534 -35.06653015129268 13283.634642113 -11608.615688001737 357.8274291101843 -27791.90473695658 204.13680673297495 -42.30140650086105 -1970.7821240024641 -41648.34003151581 76.5706535289064 902.751364108175 -5619.487188292667 81.53283016942441 -1886.9797793477774 344.2497273888439 -1526.0559459589422 869.6835218220949 -959.3634740523994 1109.7524106595665 -766.3160236850381 1059.9267922211438 -972.0039505558088 4973.502640422434 -1476.8930009445176 3800.3358062952757 -2187.728863521479 2106.0900151617825 -492.9525191793218 25.04194751381874 -16647.870942453854 140.6091988813132 -7720.7484796578065 -5379.047911399975 -1562.782263956964 -1866.19589057751 -1481.6947522722185 -1286.4068760294467 -694.0398939410225 -2971.418699560687 1237.9807185642421 -1476.650146426633 -62.520307471975684 -978.3939620517194 -875.3286627465859 -1299.9956810567528 -2288.750547799282 -760.973081594333 -938.1761451549828 -1408.7061212863773 -857.4225965663791 -2450.5145068001 -844.0462700445205 -1087.1044022776186 -1019.7802789062262 -298.95371062494814 -1307.7356257569045 z" vector-effect="non-scaling-stroke" fill="#000" fill-opacity="1" stroke="#FFF" stroke-width="0.3px" stroke-linejoin="round" stroke-linecap="round"><title>Columbia County</title></path>
<path id="55023" d="M -10147880.119927073 -5324112.307972677 l -271.4138202499598 -1627.1842562733218 -600.6251804716885 -10686.961025559343 1255.6056098844856 -5325.708640284836 5905.694634219632 -8242.399616643786 2079.0872709825635 -4710.021266866475 -190.24337130226195 -5698.505496729165 -2731.349857866764 -3470.8538315184414 -9582.825263073668 -3969.346246054396 -1301.8075314462185 -1061.769637898542 -858.812512844801 -1611.5798714552075 -494.632425006479 -4207.878616154194 -358.74440276250243 -1631.299729318358 45284.43409129977 -352.32986612059176 7849.468916594982 -108.66978910192847 8718.985125223175 238.9508651215583 283.75271411426365 6675.703967947513 951.252073995769 27789.89036356937 -3958.871864963323 2683.8361901883036 -9421.571486409754 8996.396366930567 -10454.32066857256 5924.562685282901 -8628.891193084419 2604.3770420355722 -16410.746872723103 8985.726298748516 -6212.402475725859 -214.58266060147434 -206.54982584901154 -1851.0152322622016 -54.35524894297123 -5592.441023085266 z" vector-effect="non-scaling-stroke" fill="#000" fill-opacity="1" stroke="#FFF" stroke-width="0.3px" stroke-linejoin="round" stroke-linecap="round"><title>Crawford County</title></path>
<path id="55025" d="M -9989542.949393418 -5356758.336777433 l 41648.34003151581 -76.5706535289064 42.30140650086105 1970.7821240024641 27791.90473695658 -204.13680673297495 11608.615688001737 -357.8274291101843 24.71159111894667 13319.208192236722 -350.5458557456732 13286.015279033221 115.43797799758613 7371.26026074402 -242.23277044296265 17110.41588413436 -31.170681934803724 15575.104111959226 -39577.40676186979 350.87713188584894 13.13558859564364 -1736.6147867925465 -28522.271804727614 -148.51854710001498 -23716.16488846019 8.198372001759708 -19.513281997293234 -57170.54534810409 3583.840830715373 -2148.0524416044354 4901.029013602063 -1069.6403166688979 1476.6501464303583 -1374.5438902843744 860.6243184693158 -2258.1756890332326 z" vector-effect="non-scaling-stroke" fill="#000" fill-opacity="1" stroke="#FFF" stroke-width="0.3px" stroke-linejoin="round" stroke-linecap="round"><title>Dane County</title></path>
<path id="55027" d="M -9908451.787530443 -5355426.089542802 l 35.06653015129268 -13283.634642113 461.0853308662772 -8.57582527026534 -290.54142194241285 -31340.72136043571 49.983119282871485 -8767.445426248014 13446.166077252477 -80.13154597766697 24647.57529055886 63.985171099193394 29343.80864490941 345.2866476858035 67.34706741571426 13426.715218460187 -164.97737778536975 26619.082369172014 -1863.0424413233995 -14.70131719391793 -97.85083427652717 13507.307597961277 170.98562465794384 13304.492448786274 -13118.107315238565 -201.86551383230835 -23132.18373031169 -286.1632095873356 -29530.602973097935 35.57757973019034 z" vector-effect="non-scaling-stroke" fill="#000" fill-opacity="1" stroke="#FFF" stroke-width="0.3px" stroke-linejoin="round" stroke-linecap="round"><title>Dodge County</title></path>
<path id="55029" d="M -9726936.064868681 -5570592.002915428 l -13407.517480753362 67.86330263502896 -26408.8571344465 -292.7823605649173 -1186.026808442548 -3.32011329382658 1838.676772652194 -2334.3379854345694 1212.4331953842193 -2581.656458686106 -999.4381745737046 -2397.9108452452347 3588.1468890402466 -7612.9592155134305 4014.1369306631386 -6372.120319656096 1900.5709549281746 -2263.6441379925236 2834.4722000174224 -2680.1476824609563 3113.0041503105313 -1802.6149147106335 2785.3195029087365 184.90011818613857 -622.6008300632238 2726.837734871544 1736.7286312244833 -1247.7728689275682 4292.668880954385 -4669.121968102641 2539.556017357856 1710.7502822605893 2261.0240670684725 -1941.9575848467648 2539.5560173597187 -1526.1165367271751 3424.304565338418 2913.2716610329226 3227.6937768999487 5407.872598497197 2113.5659757368267 2263.875312854536 2605.0929468385875 923.8679860653356 2228.2556023281068 1477.9926311494783 -147.45809133164585 3463.099885649048 -3457.0730300806463 10289.13528086152 -393.2215768825263 1844.3497834261507 -163.84232369996607 1797.879896667786 -360.4531121402979 783.5797023195773 z M -9668548.069988381 -5682691.1910566185 l -901.1327803526074 2752.399834643118 -1081.359336424619 2471.7742572333664 294.91618266142905 606.1801752001047 524.295435840264 1585.2005647849292 -6963.298757271841 -1118.9360106969252 -2752.5510381702334 652.7296422244981 -1425.4282161928713 93.243212884292 -1081.3593364227563 -745.9728551087901 1589.2705398947 -1585.3984326217324 376.83734451048076 -1399.1138553591445 -442.37427399121225 -4058.665799461305 229.37925318069756 -2473.422041683458 671.7535271737725 -2474.1052841441706 966.6697098314762 -1213.9619971187785 1163.280498271808 1307.3368722321466 1441.8124485667795 2054.0009592957795 1949.7236520368606 -233.38547609839588 2162.71867284365 -886.9202806912363 2113.5659757386893 140.04588406067342 1294.3543572351336 1913.7409669049084 z M -9684211.396134153 -5656833.309456258 l -4259.900416214019 -2884.934860378504 -1130.512033533305 -372.3171563241631 -1540.117842786014 558.469947305508 212.99502081237733 791.1063259653747 868.3643156122416 884.0952204344794 458.7585063613951 1023.5805229973048 -1327.1228219736367 4976.661632748321 -196.61078844033182 1580.7924249134958 212.99502081237733 1534.0327970450744 999.438174571842 2277.323652137071 311.3004150297493 1486.9206172740087 -3113.0041503105313 -1533.3908470543101 -1441.8124485630542 -232.354750062339 -1523.7336104139686 697.0462452629581 1097.7435687910765 2044.3574674446136 4276.284648586065 4412.370284929872 -753.6746890246868 1300.0754878278822 -868.3643156122416 278.5631812531501 -868.3643156122416 92.85247856006026 -606.2165976911783 464.24803013633937 -688.1377595420927 1439.0168027281761 -196.61078844219446 603.3902314249426 114.68962659314275 2969.94731958583 -360.4531121440232 556.7561312485486 -884.7485479824245 -278.37376488838345 -999.4381745755672 -556.7733349874616 -786.4431537594646 -324.8003367651254 -1245.201660124585 603.1913053924218 -786.4431537631899 1438.216316643171 -1015.8224069420248 3339.487957401201 -5046.343569975346 8296.981647939421 -1441.8124485667795 4956.006559421308 2621.4771792087704 2870.460063299164 -1097.7435687910765 1110.9008931554854 -2408.4821584001184 1203.3217834308743 -1048.590871680528 1018.070156515576 -524.2954358421266 1295.5597353689373 -589.8323653228581 3006.8333964888006 -786.4431537613273 1526.1633881581947 -5439.565146857873 7534.545671718195 -1785.8813283368945 1524.635143281892 -4554.8165988735855 46.197054639458656 -4063.2896277718246 -3881.375149888918 -2818.087967650965 -5917.681405344047 -786.4431537613273 -6245.505513496697 1458.1966809350997 -6666.6360600674525 2719.7825734261423 -5605.635771983303 6537.308715652674 -8299.029394995421 475.14273873344064 -139.15499773435295 1294.3543572295457 278.307846727781 507.9112034738064 -139.15284899342805 98.30539422109723 -603.0205101687461 -180.22655607014894 -1902.0983030982316 81.92116184905171 -649.5889638112858 1507.3493780437857 -2413.169212145731 557.063900584355 -1531.7697410946712 507.91120346821845 -5200.677681406029 786.4431537650526 -3019.6291387677193 1212.4331953823566 -2509.3859506873414 1507.3493780456483 -1487.3739604493603 1474.5809133052826 232.4183976035565 2031.6448138859123 790.1776244277135 1785.8813283350319 139.43590351380408 786.4431537631899 -1673.373546179384 851.9800832439214 -1441.2101276656613 3751.9892127402127 -1441.4411933040246 851.9800832439214 -1488.1817801203579 294.91618266142905 -2232.734808188863 1916.9551872946322 -6980.874862130731 655.3692948035896 -372.465788484551 1015.8224069420248 -139.67865441646427 950.2854774612933 -279.3638282371685 409.6058092545718 -884.7094776555896 49.15269710868597 -1490.2341322842985 196.61078844033182 -1257.5775332469493 425.9900416210294 -1071.4087652014568 786.4431537613273 -1118.1281622694805 1507.349378047511 1583.9737781248987 1310.7385896034539 652.143237574026 3391.536100598052 46.57984646037221 2818.087967650965 -558.9741149032488 786.4431537631899 558.9741149032488 -557.0639005824924 2049.2739528389648 -425.9900416210294 1350.4020816329867 16.384232368320227 1303.6437831120566 393.2215768825263 1350.0029861135408 720.9062242824584 1489.4229850685224 z" vector-effect="non-scaling-stroke" fill="#000" fill-opacity="1" stroke="#FFF" stroke-width="0.3px" stroke-linejoin="round" stroke-linecap="round"><title>Door County</title></path>
<path id="55031" d="M -10191473.117956012 -5903988.853817403 l 14.290810093283653 1690.4195888740942 -222.00991514511406 41085.246670295484 169.53880523890257 9043.059014037251 124.89712909050286 31677.676859920844 -54.88206743821502 14942.179787334986 -1157.9447866342962 -128.72758199181408 -40238.42189819366 63.47627091873437 -14083.024550117552 -43.0716188903898 -27030.352634938434 63.214399974793196 7.925223020836711 -5940.068264306523 8.15322727151215 -10190.38123877719 13.588912345468998 -10206.092382080853 13.588712126016617 -10217.917597346008 7.057586448267102 -5311.532238440588 6.53122578561306 -4918.2499489970505 10.871069813147187 -10241.687336358242 10.871069813147187 -10253.63248734735 13.588712122291327 -10257.701830766164 5.435584960505366 -3567.0935246329755 263.62281722202897 -538.555200275965 500.0680099725723 83.16143850795925 1608.9145277980715 605.8666572701186 2008.4253672659397 174.22836408484727 1888.8438996803015 -134.63082401361316 1622.5033400319517 -443.5040912684053 581.600783277303 -403.92500933632255 407.66416685655713 -498.9918081378564 225.57422305084765 -427.7299075303599 277.2116294577718 -712.9295014105737 532.6811192911118 -4136.1351918224245 192.96111372485757 -998.6699788542464 402.22858189046383 -840.2390113687143 459.3016733787954 -665.907170326449 568.0119710396975 -523.248116270639 638.6737746410072 -301.27826970722526 1815.464353647083 -495.5460007805377 581.6008833888918 -420.24504564516246 391.35751208662987 -630.4052249658853 945.7808711063117 -2744.179380437359 888.7079798523337 -1467.6162704722956 1780.1334017924964 -1372.642355967313 1500.00977319479 -733.5850112931803 765.666873825714 1601.5370805459097 2392.0979260299355 3012.887492452748 2654.2456439472735 2581.650301449932 1867.8024901859462 1099.360795323737 1736.728631226346 573.5247884318233 7028.83568675071 3726.996444123797 2687.0141086876392 143.31437050923705 16285.926975833252 -2627.8025410007685 24854.880505368114 -9466.620707793161 z" vector-effect="non-scaling-stroke" fill="#000" fill-opacity="1" stroke="#FFF" stroke-width="0.3px" stroke-linejoin="round" stroke-linecap="round"><title>Douglas County</title></path>
<path id="55033" d="M -10258814.393915892 -5654560.944962833 l 36563.655078172684 219.47463515214622 18079.83887964487 22.91266823373735 -84.93821862712502 13760.147388397716 1665.4504564739764 5.364080908708274 104.85906414873898 41682.9062082842 21.81617116369307 27022.43682036642 -41998.939311131835 -43.37301125284284 -11980.31135644205 -74.68468930572271 -126.45638119056821 -27201.656950676814 125.12410952337086 -11359.57974604331 -157.29265937395394 -18997.489624937065 56.99669247865677 -11116.438297469169 -2339.8238203823566 -28.870531535707414 z" vector-effect="non-scaling-stroke" fill="#000" fill-opacity="1" stroke="#FFF" stroke-width="0.3px" stroke-linejoin="round" stroke-linecap="round"><title>Dunn County</title></path>
<path id="55035" d="M -10188972.129279936 -5558172.149595098 l -13486.018677590415 -70.66388953570276 -5.5645273886621 -13604.889676856808 -21.81617116369307 -27022.43682036642 14098.609390145168 -238.69506118725985 30849.404757888988 87.78707210533321 36120.04724132456 -63.28284525498748 98.2935518939048 16842.2820367869 -110.31961912475526 24034.57379604224 -27078.792301569134 -86.92379570007324 -23325.879199018702 176.81016465183347 z" vector-effect="non-scaling-stroke" fill="#000" fill-opacity="1" stroke="#FFF" stroke-width="0.3px" stroke-linejoin="round" stroke-linecap="round"><title>Eau Claire County</title></path>
<path id="55037" d="M -9808939.629286796 -5768272.7869028095 l 2886.2621771954 6463.8130538212135 415.81749424524605 1190.7031984990463 -100.55727061629295 1436.4392403364182 -388.6398697681725 901.5591865098104 -445.7127610296011 784.3993815658614 -2432.3960887808353 3289.0402087392285 -413.09965170547366 784.0400490015745 -293.5181841161102 846.3734513269737 -40.76643670909107 1076.3770690374076 312.54248120076954 1146.43239771761 1081.6688933596015 1493.259977553971 853.3770279921591 818.6523618213832 1652.3987069297582 982.2834410695359 1663.2696766350418 701.5645614378154 1858.9485327787697 463.7817837651819 -379.70295915938914 11409.424101580866 -13218.405953809619 -801.4707225272432 -20846.12689001672 -647.19355374109 -6682.618348060176 -44.168586120940745 -27907.342492312193 -65.21891300100833 -18.14307324960828 -19274.734184692614 188.4654563870281 -21966.64991394803 -1085.253270464018 -251.67026104591787 893.5381308794022 -6132.437231840566 3793.994354022667 2019.3090557949618 1277.3476493973285 316.9428081549704 964.8052683025599 -125.21063033491373 2413.3716915883124 -1921.422089853324 728.359975444153 -199.60127579886466 842.5058580711484 101.75798998493701 804.4573640134186 215.25380315445364 896.8610068988055 62.61827784962952 750.1021150704473 -211.33858681097627 1380.6225623246282 -798.4350387621671 741.9486875701696 -230.933534857817 858.812512839213 -86.11228138487786 907.7321768235415 129.1682525165379 1127.8709150254726 414.8908469704911 1179.5082213245332 720.1420644791797 1845.3597205486149 1432.2823568806052 1100.6931904423982 305.2103760326281 940.3452861495316 0 690.3112811613828 -246.5154731106013 818.0460761319846 -35.21695277839899 861.5302552692592 332.59992045909166 3804.8654238283634 2136.1676836973056 1087.104378208518 199.50595045648515 940.3453862611204 0 2307.3790362365544 -676.7734143584967 970.2406530436128 187.7804776262492 1008.2894474398345 594.6118745431304 2834.6246706750244 2315.4768285937607 657.6981718372554 262.0176763664931 1891.5615419968963 336.3097549015656 3891.833882210776 78.20978372823447 907.7321768235415 148.59645891562104 896.861107012257 344.10900630429387 1962.2234457097948 1149.5397277055308 1869.8196025975049 719.3642322560772 945.7807709965855 136.828891008161 896.8612071294338 -35.184436277486384 1695.8827859479934 -281.480080999434 877.8368099275976 15.638056539930403 837.0703732222319 340.1202271953225 2869.955622535199 2360.9340836126357 722.9244905989617 429.90395141672343 1744.8025500457734 652.6324349138886 1011.0070897508413 679.9373459173366 z" vector-effect="non-scaling-stroke" fill="#000" fill-opacity="1" stroke="#FFF" stroke-width="0.3px" stroke-linejoin="round" stroke-linecap="round"><title>Florence County</title></path>
<path id="55039" d="M -9841108.405791935 -5455882.204086463 l 26996.415655745193 80.38915947265923 -65.79048697277904 7145.462839468382 254.9185169674456 40227.15997493174 -102.52669817209244 13448.577681868337 -26665.908087581396 -89.99687488004565 -67.34706741571426 -13426.715218460187 -29343.80864490941 -345.2866476858035 -24647.57529055886 -63.985171099193394 104.08439180254936 -8958.588267129846 -63.89471604861319 -31369.52569038607 26858.824765130877 84.81124554108828 26853.036040280014 256.1233152784407 z" vector-effect="non-scaling-stroke" fill="#000" fill-opacity="1" stroke="#FFF" stroke-width="0.3px" stroke-linejoin="round" stroke-linecap="round"><title>Fond du Lac County</title></path>
<path id="55041" d="M -9899926.436735649 -5792145.828326517 l 1327.8718690909445 764.0289010265842 6601.441500339657 3791.081365841441 2676.994508802891 1534.7699276395142 1445.8489811923355 191.8275329498574 858.8123126216233 -39.14830660726875 1646.9632220827043 -317.10631664283574 752.8197573740035 7.830157252028584 804.4573640152812 348.4244659980759 801.7394213601947 786.8409316185862 1130.588557338342 234.86434455029666 910.4499192535877 -43.057994812726974 2320.9680486973375 -880.7776319924742 853.3768277689815 -137.01795597095042 1040.9024566449225 121.35871166177094 1155.048539498821 387.55376614350826 1685.0118162538856 915.968531858176 2527.5176743231714 810.2010900601745 -893.5381308794022 6132.437231840566 1085.253270464018 251.67026104591787 -188.4654563870281 21966.64991394803 18.14307324960828 19274.734184692614 27907.342492312193 65.21891300100833 -34.95810496993363 41188.329369538464 -278.74489550478756 13719.917623355053 -27799.13994726166 -264.97784725856036 -14031.929015157744 103.3271989421919 -13597.449265234172 -96.19811945036054 329.8408757299185 -13719.043058747426 -13720.456857282668 59.519758199341595 -16.13832053542137 -32167.95484119747 -113.32012468203902 -36440.66960592102 -9.349501395598054 -13895.35102694109 12689.86145679839 11.05452866666019 z" vector-effect="non-scaling-stroke" fill="#000" fill-opacity="1" stroke="#FFF" stroke-width="0.3px" stroke-linejoin="round" stroke-linecap="round"><title>Forest County</title></path>
<path id="55043" d="M -10118507.756171305 -5265119.329496416 l -7844.616519967094 -1545.062242471613 -4889.252059612423 -2241.351944002323 -2503.0578923951834 -1942.1974748419598 -1391.4936321303248 -1949.9999472526833 -3788.5588691774756 -7567.0186902638525 -404.9463243149221 -2818.8292554672807 -339.7202057912946 -6433.5089427875355 -668.5691415369511 -2728.9031445207074 -1092.5398630537093 -2136.2176279472187 -3179.7804614305496 -4003.0103442287073 -1212.12133064121 -2575.592902550474 -548.9877740629017 -3359.726734055206 -141.3235071003437 -6994.326584700495 -516.3746647424996 -1716.879411926493 6212.402475725859 214.58266060147434 16410.746872723103 -8985.726298748516 8628.891193084419 -2604.3770420355722 10454.32066857256 -5924.562685282901 9421.571486409754 -8996.396366930567 3958.871864963323 -2683.8361901883036 4919.147420307621 -1845.5858923569322 5671.061298549175 -820.3777731787413 14790.97819756344 177.3167121997103 -64.3891006372869 13586.437671392225 351.4312909748405 47484.89788178541 111.20694678649306 20065.234198630787 -52.26898604631424 25740.086265311576 -3708.3741053212434 -35.34419010300189 -19730.944954987615 -191.71711739338934 -29.89526678994298 0 -35.3309518545866 0 -27.177624471485615 0 -32.61320943757892 0 -29.8952667824924 0 -29.89536689594388 0 -29.89546701312065 0 -29.8952667824924 0 -32.61320943199098 0 -29.895366901531816 0 -27.177524358034134 0 -32.61320943199098 0 -32.6131093185395 0 -27.17762447707355 0 -27.177624471485615 0 -32.613109320402145 0 1402.3646018393338 -3222.9068900085986 269.0584021806717 -1718.841940660961 -921.3209890648723 -2316.8749962691218 -2802.011561350897 -4306.915308560245 -907.7321768309921 -1727.7478675488383 -2166.0555291380733 -6149.365344988182 -1744.8025500439107 -2261.3168033389375 -2619.92161754705 -883.2435710346326 -2617.2037750147283 -406.5415347600356 -5084.93091576919 -1973.824363428168 z" vector-effect="non-scaling-stroke" fill="#000" fill-opacity="1" stroke="#FFF" stroke-width="0.3px" stroke-linejoin="round" stroke-linecap="round"><title>Grant County</title></path>
<path id="55045" d="M -9951540.549306558 -5236631.502615365 l -19730.94485487789 -191.69434245023876 -19733.66269740835 -188.01158425863832 -9668.12569051981 -92.12668793834746 39.736827904358506 -26767.137943214737 -131.8006073050201 -19801.293282222934 27.051192853599787 -6618.377189249732 23716.16488846019 -8.198372001759708 28522.271804727614 148.51854710001498 -13.13558859564364 1736.6147867925465 334.6505574081093 51814.37090849597 z" vector-effect="non-scaling-stroke" fill="#000" fill-opacity="1" stroke="#FFF" stroke-width="0.3px" stroke-linejoin="round" stroke-linecap="round"><title>Green County</title></path>
<path id="55047" d="M -9908196.193972085 -5408826.466796869 l -13391.842054417357 201.17211480345577 5.232127387076616 -1791.6450487338006 -13173.099477654323 44.6096983300522 -4.005831869319081 -19009.8496327037 8671.117744181305 152.60519365873188 -48.86858854442835 -6873.55021807272 -1889.4251606315374 894.9698315812275 -1468.3036382924765 -1210.4357972163707 -15.917907945811749 -9932.133535025641 3362.1820238363 6.486726674251258 -20.147825956344604 -16440.90457255952 31404.220988675952 -61.10720371082425 55.213354237377644 13611.536939481273 63.89471604861319 31369.52569038607 -104.08439180254936 8958.588267129846 z" vector-effect="non-scaling-stroke" fill="#000" fill-opacity="1" stroke="#FFF" stroke-width="0.3px" stroke-linejoin="round" stroke-linecap="round"><title>Green Lake County</title></path>
<path id="55049" d="M -10000757.808417909 -5347460.688992804 l 19.513281997293234 57170.54534810409 -27.051192853599787 6618.377189249732 -11121.927096897736 83.76501756254584 -34709.51819611527 -223.38101059012115 -19677.273127246648 281.8003823021427 -351.4312909748405 -47484.89788178541 64.3891006372869 -13586.437671392225 12730.881586777046 158.30110959801823 5136.568300763145 1435.561978276819 6803.46171759069 3615.890117118135 2060.9687626529485 596.3007170390338 8067.2205852381885 614.8951646313071 2536.5769386496395 782.535191450268 2359.9224732778966 155.2571100499481 2441.4553034491837 -1403.6182470619678 933.0979452896863 -1323.0726369256154 679.440251423046 -1360.5381492711604 914.979538584128 -1062.4761288072914 1621.5974000636488 -428.752746370621 11278.708173636347 -347.98774877842516 2133.4423894714564 -633.8682288648561 z" vector-effect="non-scaling-stroke" fill="#000" fill-opacity="1" stroke="#FFF" stroke-width="0.3px" stroke-linejoin="round" stroke-linecap="round"><title>Iowa County</title></path>
<path id="55051" d="M -10064329.03729164 -5875258.728854801 l -349.1848820205778 786.3830969100818 576.1652984283864 3052.2118801567703 464.7371582239866 1667.988774514757 464.7370581123978 667.8973323758692 750.1020149532706 490.0223385738209 1252.8878674581647 213.3884891923517 940.3453862629831 -75.0804174374789 828.9170458372682 -320.0871943142265 1962.2234457060695 -1244.89450280834 741.9487876817584 -110.66593701578677 785.4328666999936 442.65494681801647 1111.5643603689969 2351.2302827890962 625.0849624052644 730.9267032258213 2171.491013985127 434.57627447880805 1032.749229375273 406.9016972212121 1040.9024566467851 1102.096033031121 924.0387314893305 699.1074753068388 1318.114086104557 458.141880184412 1068.0800811238587 114.53170288912952 1144.1773695740849 371.2306959135458 1078.9511509295553 766.1072418373078 1451.2843659278005 1697.8348533632234 1358.8805228117853 1973.8142935531214 1116.999745104462 2679.7309381254017 1913.3036816120148 4584.038579056971 2927.0287140235305 7001.631913229823 1848.0774629712105 4412.5832499424 869.6834825389087 3248.9275590283796 347.873433066532 834.682509381324 616.9317351300269 716.5040940549225 3122.7073699440807 889.6436455072835 1174.0727364700288 326.705133815296 3307.5151562877 924.9426719341427 5133.850579753518 1424.6153928125277 6663.950076665729 1865.032413892448 1783.453603811562 497.98228675685823 -71.95865125767887 2548.9602108709514 0.329171732068062 49167.88376547862 -12815.207314746454 3.042649080976844 -28732.10837695934 95.95561001449823 199.81982180848718 -13883.896960963495 -378.5969202723354 -4606.049827498384 66.45851524174213 -9347.857022063807 -13714.780008532107 128.39788830373436 32.95201642997563 -13895.279501297511 -14048.738369593397 -64.54277202859521 360.4536243863404 -14209.390901369974 56.775945926085114 -27591.729345964268 -161.34502279944718 -13476.621286978945 987.9694443270564 -3051.447601479478 4854.577183837071 1234.97609608341 4784.19585205242 2813.0780146885663 2129.9502081070095 95.34278605133295 z" vector-effect="non-scaling-stroke" fill="#000" fill-opacity="1" stroke="#FFF" stroke-width="0.3px" stroke-linejoin="round" stroke-linecap="round"><title>Iron County</title></path>
<path id="55053" d="M -10121429.49333395 -5558207.474983364 l -83.37952311709523 13526.423216569237 13497.595570668578 53.387070246972144 -26.049762718379498 13486.62486737594 18090.636202331632 165.37537986505777 22609.4272902254 -89.77666857745498 13405.311601489782 -331.5324842100963 -246.4635790064931 27364.985174359754 693.4087741915137 14.141427833586931 -60.113526904955506 14514.830158876255 -13728.249444274232 -894.8464053757489 -31989.87249578722 286.75430308189243 -24237.31610840559 -494.2791319312528 -3623.6813409253955 2190.7630345225334 243.30704755149782 3037.278195299208 -194.14163722097874 8977.427371724509 -19888.557409457862 -37.18671206757426 -31.33833750896156 -3291.427438504994 -198.0884613469243 -24106.25568033848 -1331.0465948171914 23.465546188876033 -76.03065561316907 -9124.929134173319 203.93897692672908 -20165.351081185974 -108.08888784982264 -25192.794805279 z" vector-effect="non-scaling-stroke" fill="#000" fill-opacity="1" stroke="#FFF" stroke-width="0.3px" stroke-linejoin="round" stroke-linecap="round"><title>Jackson County</title></path>
<path id="55055" d="M -9908935.58726945 -5288764.085814695 l 31.170681934803724 -15575.104111959226 242.23277044296265 -17110.41588413436 -115.43797799758613 -7371.26026074402 350.5458557456732 -13286.015279033221 29530.602973097935 -35.57757973019034 23132.18373031169 286.1632095873356 -354.7759963925928 9548.824415166862 -364.90796248987317 36971.10101391282 89.05481339804828 7243.9758687876165 -26223.302126143128 37.80117361061275 -12942.77911723964 -482.5033388705924 z" vector-effect="non-scaling-stroke" fill="#000" fill-opacity="1" stroke="#FFF" stroke-width="0.3px" stroke-linejoin="round" stroke-linecap="round"><title>Jefferson County</title></path>
<path id="55057" d="M -10009133.744539145 -5504116.707131428 l 19.746933598071337 659.227911496535 -72.47362681850791 2870.2234404310584 -616.0258279573172 3690.7693279236555 -1521.9461631905288 3525.0637401733547 -4303.1215923484415 5707.97612838354 -2051.9095593001693 3489.962335685268 -1589.8901883307844 3122.7992937490344 -760.9730815961957 2837.9853995339945 -258.18729554116726 4828.8624217081815 1499.2981548067182 5550.681041632779 3025.773919675499 3482.425137368031 842.5059117656201 4783.819509186782 -552.6114044915885 6064.3164327237755 -135.88805028423667 3338.698887096718 1449.4725363720208 3626.553693342954 1589.8901883307844 3461.8052138583735 3954.3422632869333 4126.077853047289 3347.3756386805326 5649.162939514965 4635.374137040228 10383.4616035074 5134.976678432897 11515.108726516366 36.440601997077465 1340.2900343397632 -16242.679687710479 -6.16844922862947 -26696.966225504875 -174.13363925274462 -15128.87116611749 191.6662674639374 23.267109407112002 -13904.504437885247 46.31013268791139 -17921.21208857745 -94.61956342682242 -20710.257556132972 6.013478891924024 -26916.97087720409 60.113526904955506 -14514.830158876255 35130.97412221879 -13.36160282511264 z" vector-effect="non-scaling-stroke" fill="#000" fill-opacity="1" stroke="#FFF" stroke-width="0.3px" stroke-linejoin="round" stroke-linecap="round"><title>Juneau County</title></path>
<path id="55059" d="M -9774323.878965672 -5234935.757698189 l -19374.54668639414 -191.81701360456645 -19730.944754762575 -187.97781955543905 -4596.468916341662 -42.944566362537444 -12006.29232095182 -112.17507660575211 -134.0327390693128 -17448.720017448068 13123.673178460449 -66.55194325745106 12.357465354725718 -8844.800514411181 20655.325394120067 -69.18800216447562 21836.870135441422 324.4459826508537 307.6325664669275 2.350235276855528 -782.5062856320292 2197.9470702130347 -147.4580913297832 1425.6442489214242 -16.384232370182872 2048.9854903891683 180.22655607014894 1959.4820996373892 884.7485479824245 2626.8478123629466 -196.61078844033182 1646.9716850612313 -442.37427399121225 1646.6839296855032 -262.1477179210633 1468.421401633881 z" vector-effect="non-scaling-stroke" fill="#000" fill-opacity="1" stroke="#FFF" stroke-width="0.3px" stroke-linejoin="round" stroke-linecap="round"><title>Kenosha County</title></path>
<path id="55061" d="M -9745631.009900425 -5516265.827199745 l -24454.018656492233 52.20893467683345 123.67818065918982 -31720.636213816702 276.9584403131157 -17760.350507391617 15.60922927968204 -2488.46650278382 734.5209869742393 -777.8835589364171 983.0539422016591 -1843.1128639224917 12.741485165432096 -16.174174732528627 1186.026808442548 3.32011329382658 26408.8571344465 292.7823605649173 13407.517480753362 -67.86330263502896 -447.7835605610162 755.615945354104 -1097.7435687929392 3086.6732642715797 -5341.259752634913 6906.659320122562 -2850.856432389468 5751.5400050012395 -2162.7186728473753 6851.084139555693 -3162.1568474192172 17540.995592168532 -245.76348555088043 3577.520248763263 -376.83734451048076 1604.8413630146533 -1556.5020751543343 3300.500176907517 -589.8323653228581 2382.952139827423 z" vector-effect="non-scaling-stroke" fill="#000" fill-opacity="1" stroke="#FFF" stroke-width="0.3px" stroke-linejoin="round" stroke-linecap="round"><title>Kewaunee County</title></path>
<path id="55063" d="M -10157090.249750908 -5422416.23342718 l -13.588712124153972 -2911.0969320228323 -328.8490358646959 -3021.139927559532 -383.20428480394185 -1407.444168349728 -698.4646085482091 -1174.289137803018 -1521.9461695384234 -1855.8321886295453 -600.6251804698259 -1080.544923835434 -442.9950185995549 -1310.3777162628248 -222.85638051480055 -1306.797861630097 -76.09738856740296 -1337.1176872784272 277.2116294577718 -4528.809322214685 -86.96835826151073 -3550.7576772579923 -527.2456344440579 -3736.936737328768 -464.73715822584927 -1750.2076994245872 -733.7954602912068 -1524.1590545037761 -1111.5642602555454 -1222.5280740503222 -1478.4619903992862 -947.1935192896053 -4753.363937254995 -1826.7365855388343 -872.4012249670923 -2034.7476581754163 -2573.7197961043566 -3334.336052904837 -793.5861940886825 -2156.823620984331 5547.456962618977 -29.95218059141189 1200.3444441799074 -1649.7569466615096 454.05543187633157 -2090.471072129905 -680.5355156827718 -4127.116774042137 18.1184067055583 -2004.1326954048127 942.1571486406028 -1739.7909617628902 1567.2421799506992 -1544.656249390915 4792.318573376164 -1179.1576613523066 4411.832032579929 838.6678139735013 3777.6877979151905 50.44373824913055 3551.2077141068876 -1229.645196591504 1916.6537256874144 -588.8554663471878 31.33833750896156 3291.427438504994 19888.557409457862 37.18671206757426 6673.378719003871 -95.90586487390101 345.5335843488574 25258.975503592752 -127.90720811672509 13076.275417444296 81.92969806864858 15125.662494236603 -18065.144484214485 65.92791209183633 z" vector-effect="non-scaling-stroke" fill="#000" fill-opacity="1" stroke="#FFF" stroke-width="0.3px" stroke-linejoin="round" stroke-linecap="round"><title>La Crosse County</title></path>
<path id="55065" d="M -10010736.101713723 -5237199.223870989 l -19730.944954987615 -188.01920962706208 -19728.22711245157 -184.33622081018984 -16019.853007122874 -152.68230080697685 52.26898604631424 -25740.086265311576 -111.20694678649306 -20065.234198630787 19677.273127246648 -281.8003823021427 34709.51819611527 223.38101059012115 11121.927096897736 -83.76501756254584 131.8006073050201 19801.293282222934 -39.736827904358506 26767.137943214737 z" vector-effect="non-scaling-stroke" fill="#000" fill-opacity="1" stroke="#FFF" stroke-width="0.3px" stroke-linejoin="round" stroke-linecap="round"><title>Lafayette County</title></path>
<path id="55067" d="M -9912589.725919912 -5694986.601376836 l 13720.456857282668 -59.519758199341595 -329.8408757299185 13719.043058747426 13597.449265234172 96.19811945036054 14031.929015157744 -103.3271989421919 -249.3581084050238 27483.990798225626 4663.394995121285 28.28199388924986 -332.2897932175547 13809.08023301512 -37960.26885307208 -106.32878525275737 58.441396836191416 14071.926648602821 -7951.660097826272 -165.54380698129535 -19010.135307602584 87.25950623303652 -41.74347320944071 -14079.937158099376 -22458.144102241844 -89.76615247409791 193.9222264997661 -39875.166239188984 -67.569261116907 -15212.215595960617 5532.576354717836 -370.32234251499176 21868.15124631487 204.45097280759364 z" vector-effect="non-scaling-stroke" fill="#000" fill-opacity="1" stroke="#FFF" stroke-width="0.3px" stroke-linejoin="round" stroke-linecap="round"><title>Langlade County</title></path>
<path id="55069" d="M -9954725.142036201 -5695382.625713771 l 67.569261116907 15212.215595960617 -193.9222264997661 39875.166239188984 -14233.52816771157 -104.91054809931666 -42217.79298475385 -28.715943071059883 -12313.490369746462 -32.0264863492921 -348.2046955320984 -30475.120378579013 505.28005926683545 -10902.819353695028 -131.46598092094064 -27494.74715654459 35884.16135164909 -56.27521358896047 19722.690588938072 -117.16588971577585 12876.432812048122 130.04628724977374 z" vector-effect="non-scaling-stroke" fill="#000" fill-opacity="1" stroke="#FFF" stroke-width="0.3px" stroke-linejoin="round" stroke-linecap="round"><title>Lincoln County</title></path>
<path id="55071" d="M -9765847.656217119 -5448775.06913037 l -469.2031236663461 3.055416429415345 -34450.15480320528 76.73620482720435 -225.41874058917165 -44974.25950310193 58.443845860660076 -9134.342725484632 17275.777863681316 86.23948494624346 43.527256736531854 -13566.62733838521 13529.655361384153 70.64932607114315 24454.018656492233 -52.20893467683345 -168.7157127521932 501.63153013493866 -245.76348555088043 1786.2051049536094 819.2116184998304 5402.288557647727 4554.816598877311 6496.826943310909 688.1377595420927 2469.4130180478096 -540.6796682141721 3337.220971468836 -1441.8124485630542 3061.857847703621 -1949.723652034998 2695.41494152043 -2129.9502081070095 2100.9595155408606 -6373.466391950846 3378.793372527696 -1654.8074693754315 1415.0701413564384 -1703.9601664878428 2646.963786554523 -5849.1709561068565 13633.444384653121 -835.5958508718759 3234.3991503166035 -311.3004150297493 3870.670348475687 -311.3004150316119 1411.2504808027297 -1966.107884408906 3367.915568000637 -376.8373445086181 1547.0070185186341 z" vector-effect="non-scaling-stroke" fill="#000" fill-opacity="1" stroke="#FFF" stroke-width="0.3px" stroke-linejoin="round" stroke-linecap="round"><title>Manitowoc County</title></path>
<path id="55073" d="M -10053951.644107092 -5572096.008721552 l -75.91855688765645 -15871.3008312257 242.45529809966683 -18219.37525728438 -200.59694316796958 -7635.657425252721 185.5707043427974 -13024.948593371548 13061.223278082907 32.45116033498198 -30.1663574911654 -13706.63942557294 17152.77016031742 60.582237782888114 12313.490369746462 32.0264863492921 42217.79298475385 28.715943071059883 14233.52816771157 104.91054809931666 22458.144102241844 89.76615247409791 41.74347320944071 14079.937158099376 -55.33001706749201 47828.127043143846 65.23255369253457 6794.802458103746 -13599.563890283927 3.91262439172715 -16178.835935363546 -688.427587912418 -28817.045593710616 168.31195310037583 -10554.08637435548 -38.047441175207496 -11299.258600447327 32.25277318432927 z" vector-effect="non-scaling-stroke" fill="#000" fill-opacity="1" stroke="#FFF" stroke-width="0.3px" stroke-linejoin="round" stroke-linecap="round"><title>Marathon County</title></path>
<path id="55075" d="M -9778856.732656581 -5735821.54557014 l 1111.5641601439565 1012.0753434076905 1394.211374560371 1879.8191924020648 1532.817139228806 1661.5390049554408 676.7225690372288 929.8596794279292 168.5012316852808 486.28979496192187 -16.306554665789008 470.7030780678615 -293.51818411797285 910.2148571191356 -500.0681100767106 540.6392579171807 -1179.5082213226706 1026.7354810768738 -277.2116294577718 871.0765946321189 86.96835826896131 1170.3751952564344 766.4085696097463 1679.4731053514406 1913.30368161574 3198.67691964563 369.6155726853758 924.7985417004675 225.5741229392588 1204.4258012995124 -19.024196971207857 2105.41233109124 -277.2117295693606 1281.650040846318 -432.1240489054471 955.2920031351969 -543.5520889945328 500.9050206914544 -687.593538729474 345.5693196281791 -763.6909273080528 248.49098906572908 -519.0922069437802 644.4911210555583 -100.55727060884237 1428.5859592817724 1016.4426747113466 3232.8846547137946 929.4742163345218 4942.150989564136 27.17762447334826 1054.7991867810488 -62.50857633166015 546.7403307119384 -252.75174741260707 829.7406883984804 -616.9317351281643 1585.5984775610268 -845.223600499332 1465.1689978595823 -472.89048560522497 662.7357048131526 -527.2455343324691 589.0571301067248 -3658.1063317712396 2801.366078769788 -491.9148828089237 596.5816490678117 -293.51808400452137 949.025064506568 -84.25061584636569 1297.4837646018714 282.6471143066883 1959.4250652305782 -59.79063367843628 1304.7548079937696 -222.85648062825203 1045.2153113149107 -1318.1140861026943 3394.1730769751593 -130.45253739878535 955.7094088606536 304.38925393112004 1017.5058344677091 684.8757963143289 974.8402010649443 1674.1407464407384 1148.7826556218788 1081.6687932424247 220.45652203261852 875.1191676147282 -158.57341470383108 1304.525273868814 -785.1735914181918 747.3842725288123 -228.21605580858886 847.9413429219276 23.208803442306817 2549.259914059192 800.6625051042065 945.7808711081743 81.22265611682087 850.6590853445232 -77.35492103919387 793.5861940886825 -189.52226374857128 8169.5895914305 -4418.1649079872295 712.0535208918154 -216.7085520364344 777.2796394322067 104.48516026418656 663.1336566898972 499.19007542543113 690.3112811613828 862.8754689469934 926.7564739137888 1454.7047820575535 714.7710630912334 1415.789197451435 154.91241944767535 789.0313714873046 -40.76633659377694 835.3692583022639 -527.2456344459206 997.7000574776903 -1690.4474012125283 1890.685509587638 -929.4742163363844 1322.0828962465748 -2772.11629457213 6402.7732821609825 -2193.233153609559 6386.629072585143 -404.94632431678474 1983.7957139750943 -497.35026754811406 5034.712666647509 133.17027982324362 1106.872856923379 769.1263120416552 1503.8943585976958 1679.5763314068317 2185.9824974304065 2609.050547737628 2682.5962593099102 1125.1530724912882 1541.3600605279207 606.0607654284686 1101.9105878286064 241.88067760318518 743.5207950854674 1875.2551875561476 1540.7801032345742 6017.528152767569 2484.5581658435985 -329.93335963971913 1031.5628905072808 -2965.5460589770228 4594.551591175608 -393.2215768843889 1299.0441253827885 -81.92116184905171 1762.6889550732449 131.07385896146297 3385.251301416196 -491.52697110176086 3337.633331795223 -1327.1228219736367 2178.0667255762964 -1966.1078844070435 1436.3094324897975 -2375.71369365789 1065.501198339276 -8350.891495352611 1899.504324422218 -0.078726809471846 -116.49093229044229 273.82446268573403 -3835.462049259804 -13731.299375684932 1.278745918534696 -6791.409216616303 -403.1647950382903 159.81449111923575 -4303.902427996509 -19835.60773705691 -504.1793430726975 256.2908636536449 -13645.89744466357 -7834.918123317882 -265.6084416164085 323.0826694499701 -13578.553154880181 -13659.040892332792 -590.9862234201282 -24.600828232243657 -7630.350995363668 386.3637924604118 -19728.54088533856 -13610.14369468391 -389.9143558917567 278.74489550478756 -13719.917623355053 34.95810496993363 -41188.329369538464 6682.618348060176 44.168586120940745 20846.12689001672 647.19355374109 13218.405953809619 801.4707225272432 379.70295915938914 -11409.424101580866 943.0630285721272 62.35537728853524 1747.5203925855458 -214.3483950747177 2299.225808961317 -736.618623631075 646.8271020296961 -7.795177428983152 478.3258703481406 226.05895237065852 312.5425813123584 245.54029383137822 1331.7028983402997 1823.8012410597876 491.91478269547224 545.5089485542849 603.3428227901459 498.72181610483676 722.9244905933738 416.8788183061406 1848.0775630809367 561.0022300258279 4848.485522795469 420.7285448424518 875.119067505002 260.9974714862183 717.4890057463199 436.27733079344034 603.3429228998721 486.8913580328226 489.1969401538372 592.0241692299023 1301.8075314462185 1974.4271116815507 548.9876739550382 556.8106744065881 z" vector-effect="non-scaling-stroke" fill="#000" fill-opacity="1" stroke="#FFF" stroke-width="0.3px" stroke-linejoin="round" stroke-linecap="round"><title>Marinette County</title></path>
<path id="55077" d="M -9974182.249812264 -5410297.418564957 l 53.65777567215264 -17343.37594804261 216.29488380625844 -16298.960149221122 -88.83117253892124 -18752.87660245318 38724.03176808171 -23.047970410436392 9107.823995251209 -69.46280104946345 20.147825956344604 16440.90457255952 -3362.1820238363 -6.486726674251258 15.917907945811749 9932.133535025641 1468.3036382924765 1210.4357972163707 1889.4251606315374 -894.9698315812275 48.86858854442835 6873.55021807272 -8671.117744181305 -152.60519365873188 4.005831869319081 19009.8496327037 z" vector-effect="non-scaling-stroke" fill="#000" fill-opacity="1" stroke="#FFF" stroke-width="0.3px" stroke-linejoin="round" stroke-linecap="round"><title>Marquette County</title></path>
<path id="55078" d="M -9905389.812020704 -5626047.2562673 l -58.441396836191416 -14071.926648602821 37960.26885307208 106.32878525275737 17529.252121580765 166.74519668053836 -495.2625296097249 24308.474334814586 -112.8794108144939 16761.275543506257 -27500.914920108393 -161.43382140435278 48.536188546568155 -13644.03151401598 -27347.73985737376 55.67250276822597 z" vector-effect="non-scaling-stroke" fill="#000" fill-opacity="1" stroke="#FFF" stroke-width="0.3px" stroke-linejoin="round" stroke-linecap="round"><title>Menominee County</title></path>
<path id="55079" d="M -9775398.59314476 -5287991.069270426 l -1453.511412607506 4.952807777561247 -27046.338773822412 -167.00325479637831 75.36485374160111 -17679.970839173533 629.8481279350817 -35426.78106067609 19377.25355608575 18.131744742393494 496.3590528294444 2132.125178278424 -376.83734451048076 2426.208926271647 -819.211618501693 2380.665381499566 -442.37427399121225 3457.620196483098 491.52697110176086 1481.445052661933 2129.950208105147 1840.255712101236 491.5269711036235 897.5540705779567 -98.30539422109723 1884.582712393254 -278.5319502912462 1211.3166274158284 -2277.4082994386554 5426.5644050957635 -540.6796682104468 2689.6900224387646 835.5958508718759 2016.7597611369565 3047.4672208297998 851.390196329914 1818.6497930753976 3359.994172998704 901.1327803526074 3537.8893496068195 327.6846474017948 12349.737691967748 425.9900416210294 1564.927569980733 1097.7435687948018 2145.761717269197 z" vector-effect="non-scaling-stroke" fill="#000" fill-opacity="1" stroke="#FFF" stroke-width="0.3px" stroke-linejoin="round" stroke-linecap="round"><title>Milwaukee County</title></path>
<path id="55081" d="M -10127079.074265853 -5476399.919473704 l 194.14163722097874 -8977.427371724509 -243.30704755149782 -3037.278195299208 3623.6813409253955 -2190.7630345225334 24237.31610840559 494.2791319312528 31989.87249578722 -286.75430308189243 13728.249444274232 894.8464053757489 -6.013478891924024 26916.97087720409 94.61956342682242 20710.257556132972 -46.31013268791139 17921.21208857745 -11367.386574089527 695.9989759819582 -8935.946701463312 158.81825791765004 -18752.764978848398 -99.66759295761585 -27543.216883203015 164.5147548643872 -81.92969806864858 -15125.662494236603 127.90720811672509 -13076.275417444296 -345.5335843488574 -25258.975503592752 z" vector-effect="non-scaling-stroke" fill="#000" fill-opacity="1" stroke="#FFF" stroke-width="0.3px" stroke-linejoin="round" stroke-linecap="round"><title>Monroe County</title></path>
<path id="55083" d="M -9871569.731657967 -5681334.20715578 l 27799.13994726166 264.97784725856036 13610.14369468391 389.9143558917567 -386.3637924604118 19728.54088533856 24.600828232243657 7630.350995363668 13659.040892332792 590.9862234201282 -323.0826694499701 13578.553154880181 7834.918123317882 265.6084416164085 -256.2908636536449 13645.89744466357 19835.60773705691 504.1793430726975 -159.81449111923575 4303.902427996509 6791.409216616303 403.1647950382903 13731.299375684932 -1.278745918534696 -273.82446268573403 3835.462049259804 0.078726809471846 116.49093229044229 -1627.1060180086643 370.05705707427114 -5095.496267085895 2176.3901339108124 -3227.6937769018114 4212.371113251895 1245.2016601283103 4534.203759706579 -1966.107884408906 4254.530069354922 -6127.702906399965 7209.631185028702 -770.058921393007 1524.3782896958292 -737.2904566507787 1893.5669354982674 -557.0639005824924 1985.5105766048655 -212.9950208105147 1754.2749055391178 -540.6796682123095 1707.783295487985 -1228.8174277544022 1430.597590581514 -2441.250623136759 2260.8064948311076 -1212.4331953842193 1752.890231590718 -638.9850624315441 1429.7383354669437 -770.0589213911444 3734.7039052462205 32.7684647385031 921.9123581182212 554.6047194804996 2028.102144336328 -448.1755038201809 -1.254614347591996 -15256.066708726808 95.56037233024836 -11144.302537180483 714.1482715820894 -1295.4240238014609 -1137.3119270456955 -1087.924381652847 -13634.581403921358 461.30897172540426 -13480.993814439513 -26792.25559831038 -435.91731552314013 112.8794108144939 -16761.275543506257 495.2625296097249 -24308.474334814586 -17529.252121580765 -166.74519668053836 332.2897932175547 -13809.08023301512 -4663.394995121285 -28.28199388924986 z" vector-effect="non-scaling-stroke" fill="#000" fill-opacity="1" stroke="#FFF" stroke-width="0.3px" stroke-linejoin="round" stroke-linecap="round"><title>Oconto County</title></path>
<path id="55085" d="M -9912719.18436513 -5763595.225823955 l 113.32012468203902 36440.66960592102 16.13832053542137 32167.95484119747 -14734.68851525709 -561.8957066424191 -21868.15124631487 -204.45097280759364 -5532.576354717836 370.32234251499176 -382.27035214565694 -13994.35284724366 -12876.432812048122 -130.04628724977374 -19722.690588938072 117.16588971577585 -35884.16135164909 56.27521358896047 67.2395327873528 -26313.8483226737 -222.97149290144444 -15527.215688144788 222.52877528592944 -12706.900488108397 45814.96978573501 -285.0372639019042 29939.924629427493 31.514055487699807 6868.967175643891 -436.37565722875297 -24.267982948571444 6486.012924445793 4798.202453192323 -188.14445045311004 9184.968179728836 879.9465480260551 -337.63134766183794 -6846.850187189877 6306.469899987802 628.9413738008589 z" vector-effect="non-scaling-stroke" fill="#000" fill-opacity="1" stroke="#FFF" stroke-width="0.3px" stroke-linejoin="round" stroke-linecap="round"><title>Oneida County</title></path>
<path id="55087" d="M -9817555.097311007 -5502965.7932433775 l -23546.29156814702 -328.4970930553973 -37364.932550266385 124.15521815419197 332.9583780746907 -20308.215040104464 5.457326719537377 -33812.41743965447 14544.555381579325 6.878703210502863 24385.974264563993 327.1667133765295 15787.102424621582 567.5474094543606 6077.931208033115 -312.6069632479921 44.52701707929373 12246.47355826106 -155.84940218366683 21344.49419126101 77.92275300063193 11221.428436669521 z" vector-effect="non-scaling-stroke" fill="#000" fill-opacity="1" stroke="#FFF" stroke-width="0.3px" stroke-linejoin="round" stroke-linecap="round"><title>Outagamie County</title></path>
<path id="55089" d="M -9783815.976793427 -5341241.739872552 l -19377.25355608575 -18.131744742393494 113.32546801865101 -26763.34454561677 2525.6157165598124 -12.250122781842947 -83.93278098851442 -26856.381954719312 26511.75428739749 -101.41616659238935 -116.28534906357527 764.3470994532108 1130.5120335351676 4925.821707043797 -1622.0390046350658 6097.160279691219 -7110.756848601624 14211.138739921153 -770.058921393007 4687.158888324164 -3178.5410797875375 11572.56399446167 131.07385895773768 5443.581026131287 458.7585063613951 1753.864623383619 1015.8224069438875 2697.6085580382496 z" vector-effect="non-scaling-stroke" fill="#000" fill-opacity="1" stroke="#FFF" stroke-width="0.3px" stroke-linejoin="round" stroke-linecap="round"><title>Ozaukee County</title></path>
<path id="55091" d="M -10251500.629677234 -5532085.389829911 l -1314.5980918314308 -1221.7293825065717 -5951.89665588364 -2268.820970941335 -9460.265215985477 -1632.0854933252558 -3517.043561646715 -606.8351511061192 -1492.0508026331663 -754.046400686726 -1195.8148760925978 -1306.399520673789 -932.1920588724315 -1725.6489427341148 -2875.3911073897034 -6722.86570241861 -928.6256407704204 -1207.6801579650491 22714.632999364287 206.0638809762895 10.911536486819386 -22640.323190756142 11980.31135644205 74.68468930572271 41998.939311131835 43.37301125284284 5.5645273886621 13604.889676856808 -39284.414196057245 -28.92506119981408 -2898.0906214378774 1647.9159760056064 -1117.854799753055 1264.6553426878527 -4375.595219170675 15141.314176132903 z" vector-effect="non-scaling-stroke" fill="#000" fill-opacity="1" stroke="#FFF" stroke-width="0.3px" stroke-linejoin="round" stroke-linecap="round"><title>Pepin County</title></path>
<path id="55093" d="M -10279168.50768834 -5549531.501552269 l -2272.8967600539327 -2956.5853311587125 -3785.8411267474294 -3090.111155495979 -3924.446891417727 -1518.7358255209401 -17325.726390564814 -2916.074146152474 -4824.025840971619 -3058.303218775429 -489.19694015942514 -970.0143263740465 -529.9633768666536 -1470.494704642333 -684.875796308741 -1340.8405043147504 -1975.8122579474002 -1348.6805379958823 -7824.434000907466 -8027.458559351973 -6862.346374908462 -4544.3977910820395 -2984.1017053872347 -2705.5341534567997 4593.01613307558 -9784.169695606455 728.3598753269762 -4242.455041160807 -57.07289125584066 -1905.345084448345 43750.45852274448 -447.4078968074173 13481.899522475898 658.4975981088355 13586.094454534352 32.19411377888173 126.45638119056821 27201.656950676814 -10.911536486819386 22640.323190756142 z" vector-effect="non-scaling-stroke" fill="#000" fill-opacity="1" stroke="#FFF" stroke-width="0.3px" stroke-linejoin="round" stroke-linecap="round"><title>Pierce County</title></path>
<path id="55095" d="M -10334864.432601279 -5711524.566751839 l -4845.767780365422 -1156.9793508574367 -2062.7807163279504 -5600.655881201848 338.46930851601064 -5360.336048596539 41139.48845677264 459.2370027061552 85.94020536541939 -13795.63677127473 18070.376166326925 422.9076152741909 23553.861404839903 69.84674377646297 -49.53817527741194 13683.105059586465 -230.88152196630836 50171.204464560375 50.87133750319481 18070.92895503249 -24344.118358666077 48.82237667404115 -20541.890832995996 -194.66900926362723 -22801.478888673708 -1562.1162090124562 133.17037993483245 -7024.957174024545 445.71276102028787 -2942.8509514201432 940.3452861495316 -2592.2074988344684 1530.0994969196618 -1932.087067849934 1747.520292473957 -1484.1256004851311 1443.1311386488378 -1812.9760266495869 600.6251804791391 -2880.6410029679537 752.8197573777288 -3666.9061925448477 3220.546798026189 -5429.62159556523 489.1969401575625 -2853.5150370467454 -527.2456344459206 -3032.614613766782 -1587.1723881792277 -2498.902656786144 -2016.5786946490407 -2146.901649069041 -1921.457009004429 -2573.860845826566 -845.2237006090581 -2326.4149526366964 -1625.2210824582726 -6098.079555752687 -1261.0410947371274 -2421.765954435803 -4299.497848838568 -1684.7564941663295 z" vector-effect="non-scaling-stroke" fill="#000" fill-opacity="1" stroke="#FFF" stroke-width="0.3px" stroke-linejoin="round" stroke-linecap="round"><title>Polk County</title></path>
<path id="55097" d="M -9974000.791027265 -5503546.507856823 l -14127.441138263792 -299.92278917040676 21.597873641178012 -19806.044674042612 -210.1694175004959 -21240.23838426359 -13115.21311980486 -46.83240111079067 -59.2198540288955 -27117.315412986092 10554.08637435548 38.047441175207496 28817.045593710616 -168.31195310037583 16178.835935363546 688.427587912418 13599.563890283927 -3.91262439172715 45.97238934598863 29351.289680466056 -173.10481380671263 38943.42169550061 -28303.528671361506 -36.05339461751282 z" vector-effect="non-scaling-stroke" fill="#000" fill-opacity="1" stroke="#FFF" stroke-width="0.3px" stroke-linejoin="round" stroke-linecap="round"><title>Portage County</title></path>
<path id="55099" d="M -10023590.697140982 -5709333.58374496 l 131.46598092094064 27494.74715654459 -31365.48191720806 226.15840203035623 -14931.056319659576 560.2270029662177 -24554.51186230406 -137.24313958454877 79.81774469278753 -18185.239566556178 -172.43322332203388 -5078.915863943286 91.50606858544052 -18113.892538969405 111.09763105027378 -6960.161145223305 -101.85321525484324 -43316.213898061775 189.0208293236792 -4548.275021056645 41734.22111675143 32.8440657556057 28732.10837695934 -95.95561001449823 122.89560463652015 13573.955657185987 -222.52877528592944 12706.900488108397 222.97149290144444 15527.215688144788 z" vector-effect="non-scaling-stroke" fill="#000" fill-opacity="1" stroke="#FFF" stroke-width="0.3px" stroke-linejoin="round" stroke-linecap="round"><title>Price County</title></path>
<path id="55101" d="M -9774230.305643348 -5261573.13643367 l -307.6325664669275 -2.350235276855528 -21836.870135441422 -324.4459826508537 -20655.325394120067 69.18800216447562 -12.357465354725718 8844.800514411181 -13123.673178460449 66.55194325745106 -232.54485779069364 -22121.086765674874 177.6671318206936 -12926.20536191389 26322.59877797216 -186.4353980915621 27046.338773822412 167.00325479637831 1453.511412607506 -4.952807777561247 3433.2484366074204 4614.818878186867 1310.7385896071792 3349.55273436103 131.07385895960033 2768.061646502465 -1146.8962659053504 10216.906460387632 -2342.9452289156616 4859.171903718263 z" vector-effect="non-scaling-stroke" fill="#000" fill-opacity="1" stroke="#FFF" stroke-width="0.3px" stroke-linejoin="round" stroke-linecap="round"><title>Racine County</title></path>
<path id="55103" d="M -10091942.293855783 -5342112.270666017 l -951.252073995769 -27789.89036356937 -283.75271411426365 -6675.703967947513 -344.3094039093703 -19942.63477001246 15528.39670725353 22.88770621549338 24623.30730761029 -187.2374421497807 13247.127384306863 -146.99728708714247 71.79806593805552 30662.198322157376 68.20096366852522 26900.723851284012 153.5510474462062 474.0609198054299 -2060.9687626529485 -596.3007170390338 -6803.46171759069 -3615.890117118135 -5136.568300763145 -1435.561978276819 -12730.881586777046 -158.30110959801823 -14790.97819756344 -177.3167121997103 -5671.061298549175 820.3777731787413 z" vector-effect="non-scaling-stroke" fill="#000" fill-opacity="1" stroke="#FFF" stroke-width="0.3px" stroke-linejoin="round" stroke-linecap="round"><title>Richland County</title></path>
<path id="55105" d="M -9900790.073719732 -5236144.238952215 l -11288.585776966065 -107.57300829142332 -19730.944954985753 -188.00020486209542 -16368.739022227004 -159.02560894470662 -334.6505574081093 -51814.37090849597 39577.40676186979 -350.87713188584894 13374.587644668296 226.98922659363598 12942.77911723964 482.5033388705924 -195.5891245584935 12387.47841949854 246.79408657178283 14167.014251976274 18.882857028394938 25529.680142575875 -9802.299595629796 -93.39492839574814 z" vector-effect="non-scaling-stroke" fill="#000" fill-opacity="1" stroke="#FFF" stroke-width="0.3px" stroke-linejoin="round" stroke-linecap="round"><title>Rock County</title></path>
<path id="55107" d="M -10190332.554424211 -5667609.727379512 l 15.69749535806477 -18348.099115891382 192.69648759067059 -25037.39747898467 -93.95231439173222 -11467.607310156338 9396.697851212695 17.195735537447035 20865.608023546636 -270.18222901411355 8932.607228059322 104.12687028758228 25753.756736617535 -115.58737551793456 30958.052246941254 159.5359907792881 -91.50606858544052 18113.892538969405 172.43322332203388 5078.915863943286 -79.81774469278753 18185.239566556178 -19136.705345997587 -89.06673451326787 -8296.194033147767 -177.4996588760987 -5.567087732255459 13854.451090307906 -59398.05917061865 79.27145904581994 z" vector-effect="non-scaling-stroke" fill="#000" fill-opacity="1" stroke="#FFF" stroke-width="0.3px" stroke-linejoin="round" stroke-linecap="round"><title>Rusk County</title></path>
<path id="55109" d="M -10327387.872033434 -5599410.701627806 l -703.9000933971256 -5066.259952344932 358.7444027606398 -1695.779713817872 1562.7126062437892 -2667.084453133866 358.7444027606398 -997.9608016926795 -491.9146825838834 -6739.120984254405 -1027.313744528219 -6694.181902480312 -2663.4056965690106 -7053.0944161834195 -725.64223302342 -3482.433262224309 1524.6640120726079 -1493.4336528200656 2274.765926912427 -831.5031371721998 1437.6955536976457 -2194.6135382391512 635.9561323244125 -3108.025884541683 -135.88812235929072 -3556.096765141003 -1932.3280788101256 -5292.440630596131 -508.22133736126125 -809.752139819786 209.26766839064658 -1862.7067945562303 712.0533206760883 -3313.7181476112455 22801.478888673708 1562.1162090124562 20541.890832995996 194.66900926362723 24344.118358666077 -48.82237667404115 -70.02129554189742 13891.148950122297 2339.8238203823566 28.870531535707414 -56.99669247865677 11116.438297469169 157.29265937395394 18997.489624937065 -125.12410952337086 11359.57974604331 -13586.094454534352 -32.19411377888173 -13481.899522475898 -658.4975981088355 z" vector-effect="non-scaling-stroke" fill="#000" fill-opacity="1" stroke="#FFF" stroke-width="0.3px" stroke-linejoin="round" stroke-linecap="round"><title>St. Croix County</title></path>
<path id="55111" d="M -9995461.574365018 -5410061.436060208 l 67.74023655802011 2352.402489072643 298.95371062494814 1307.7356257569045 1087.1044022776186 1019.7802789062262 2450.5145068001 844.0462700445205 1408.7061212863773 857.4225965663791 760.973081594333 938.1761451549828 1299.9956810567528 2288.750547799282 978.3939620517194 875.3286627465859 1476.650146426633 62.520307471975684 2971.418699560687 -1237.9807185642421 1286.4068760294467 694.0398939410225 1866.19589057751 1481.6947522722185 5379.047911399975 1562.782263956964 -140.6091988813132 7720.7484796578065 -25.04194751381874 16647.870942453854 -2106.0900151617825 492.9525191793218 -3800.3358062952757 2187.728863521479 -4973.502640422434 1476.8930009445176 -1059.9267922211438 972.0039505558088 -1109.7524106595665 766.3160236850381 -869.6835218220949 959.3634740523994 -344.2497273888439 1526.0559459589422 -81.53283016942441 1886.9797793477774 -902.751364108175 5619.487188292667 -392.71471527405083 2447.235447037965 -860.6243184693158 2258.1756890332326 -1476.6501464303583 1374.5438902843744 -4901.029013602063 1069.6403166688979 -3583.840830715373 2148.0524416044354 -6104.977154586464 3658.198875534348 -2133.4423894714564 633.8682288648561 -11278.708173636347 347.98774877842516 -1621.5974000636488 428.752746370621 -914.979538584128 1062.4761288072914 -679.440251423046 1360.5381492711604 -933.0979452896863 1323.0726369256154 -2441.4553034491837 1403.6182470619678 -2359.9224732778966 -155.2571100499481 -2536.5769386496395 -782.535191450268 -8067.2205852381885 -614.8951646313071 -153.5510474462062 -474.0609198054299 -68.20096366852522 -26900.723851284012 -71.79806593805552 -30662.198322157376 -13247.127384306863 146.99728708714247 -160.1874114125967 -13365.222377744503 15128.87116611749 -191.6662674639374 26696.966225504875 174.13363925274462 z" vector-effect="non-scaling-stroke" fill="#000" fill-opacity="1" stroke="#FFF" stroke-width="0.3px" stroke-linejoin="round" stroke-linecap="round"><title>Sauk County</title></path>
<path id="55113" d="M -10094113.125424158 -5777392.392356814 l -189.0208293236792 4548.275021056645 101.85321525484324 43316.213898061775 -111.09763105027378 6960.161145223305 -30958.052246941254 -159.5359907792881 -25753.756736617535 115.58737551793456 -8932.607228059322 -104.12687028758228 -20865.608023546636 270.18222901411355 -9396.697851212695 -17.195735537447035 9.242078084498644 -27989.58474453166 -223.08158788643777 -27108.995518331416 -1067.5538053885102 -109.57786354608834 136.47925418429077 -12048.185809530318 -78.2563775125891 -15831.096676456742 27787.00645671971 46.92965686228126 14069.109502453357 -80.51371486764401 5577.105041584 289.4313941542059 22330.68295132555 117.6355756809935 -65.90336493961513 27864.331345775165 5566.195174891502 88.108392694965 z" vector-effect="non-scaling-stroke" fill="#000" fill-opacity="1" stroke="#FFF" stroke-width="0.3px" stroke-linejoin="round" stroke-linecap="round"><title>Sawyer County</title></path>
<path id="55115" d="M -9932351.607426133 -5626125.540568048 l 19010.135307602584 -87.25950623303652 7951.660097826272 165.54380698129535 22.819048456847668 13521.10437899921 27347.73985737376 -55.67250276822597 -48.536188546568155 13644.03151401598 27500.914920108393 161.43382140435278 26792.25559831038 435.91731552314013 -461.30897172540426 13480.993814439513 1087.924381652847 13634.581403921358 -262.2702787872404 14835.691749768332 -15787.102424621582 -567.5474094543606 -24385.974264563993 -327.1667133765295 102.97141954302788 -13737.146227259189 -49375.30039185658 -257.38095242343843 -19486.0255741477 -224.19499229080975 -65.23255369253457 -6794.802458103746 z" vector-effect="non-scaling-stroke" fill="#000" fill-opacity="1" stroke="#FFF" stroke-width="0.3px" stroke-linejoin="round" stroke-linecap="round"><title>Shawano County</title></path>
<path id="55117" d="M -9774126.467658525 -5394993.264407005 l -26511.75428739749 101.41616659238935 -13387.16685844399 -88.7661903090775 102.52669817209244 -13448.577681868337 -254.9185169674456 -40227.15997493174 13410.766479171813 -38.925421591848135 34450.15480320528 -76.73620482720435 469.2031236663461 -3.055416429415345 -547.0494852140546 6688.033446090296 98.30539422109723 3952.2541297394782 819.211618501693 1771.1497481931 229.3792531825602 726.5270467270166 2474.0190878771245 4448.728742837906 393.221576878801 1769.8153888741508 81.92116185091436 1542.6388616338372 -344.06887977197766 1406.2988092498854 -966.6697098314762 1587.4990722481161 507.91120347194374 1179.1082116542384 131.07385895960033 453.463038562797 -638.9850624315441 1632.282455228269 835.5958508737385 1042.696002945304 -2834.4722000211477 7204.983701661229 -6864.993363050744 12448.203823924996 -1212.4331953842193 3030.29846090544 z" vector-effect="non-scaling-stroke" fill="#000" fill-opacity="1" stroke="#FFF" stroke-width="0.3px" stroke-linejoin="round" stroke-linecap="round"><title>Sheboygan County</title></path>
<path id="55119" d="M -10121541.919897081 -5626421.838785038 l 61.56079160794616 -13919.958302281797 -344.0882120858878 -105.69926234334707 75.69959144853055 -27154.31327642128 5.567087732255459 -13854.451090307906 8296.194033147767 177.4996588760987 19136.705345997587 89.06673451326787 24554.51186230406 137.24313958454877 14931.056319659576 -560.2270029662177 31365.48191720806 -226.15840203035623 -505.28005926683545 10902.819353695028 348.2046955320984 30475.120378579013 -17152.77016031742 -60.582237782888114 30.1663574911654 13706.63942557294 -13061.223278082907 -32.45116033498198 -13233.100794503465 467.98606278933585 z" vector-effect="non-scaling-stroke" fill="#000" fill-opacity="1" stroke="#FFF" stroke-width="0.3px" stroke-linejoin="round" stroke-linecap="round"><title>Taylor County</title></path>
<path id="55121" d="M -10174497.508914774 -5464434.109972225 l -203.83208342641592 -1182.5017459271476 -285.36485673487186 -1020.1717883571982 -451.14844609983265 -876.6826252853498 -720.2065479420125 -740.7108729071915 -1334.4207408782095 -672.7382438946515 -4073.9236257951707 -325.0486522493884 -945.7808711063117 -309.94066395703703 -831.634888375178 -464.9306931560859 -6310.641058642417 -5297.336704066955 -641.3916171807796 -276.1050549335778 -94.60394034720957 -1639.9107566876337 841.3524887748063 -3082.656212470494 -1567.7117209210992 -1765.660115044564 -41.967336712405086 -2559.648300313391 -1922.820562593639 -3822.973063099198 -4540.163873530924 -2354.4193923752755 1101.9515280388296 -3070.311449254863 -451.1772282682359 -4263.546765490435 4957.723617454991 -2156.3635951830074 2969.891804318875 -3394.2395658874884 71.24959480576217 -54462.143362332135 17137.964445397258 54.560980685055256 23325.879199018702 -176.81016465183347 108.08888784982264 25192.794805279 -203.93897692672908 20165.351081185974 76.03065561316907 9124.929134173319 1331.0465948171914 -23.465546188876033 198.0884613469243 24106.25568033848 -1916.6537256874144 588.8554663471878 -3551.2077141068876 1229.645196591504 -3777.6877979151905 -50.44373824913055 -4411.832032579929 -838.6678139735013 -4792.318573376164 1179.1576613523066 -1567.2421799506992 1544.656249390915 -942.1571486406028 1739.7909617628902 -18.1184067055583 2004.1326954048127 680.5355156827718 4127.116774042137 -454.05543187633157 2090.471072129905 -1200.3444441799074 1649.7569466615096 z" vector-effect="non-scaling-stroke" fill="#000" fill-opacity="1" stroke="#FFF" stroke-width="0.3px" stroke-linejoin="round" stroke-linecap="round"><title>Trempealeau County</title></path>
<path id="55123" d="M -10155030.18677701 -5376355.816207433 l -554.423258908093 -1526.7970454003662 -1532.817239349708 -3129.222564935684 -557.1410013381392 -1669.8497279351577 -337.00236324593425 -1786.2481462499127 -103.27491293102503 -1913.9520083749667 160.34790429659188 -1948.0674224980175 35.330851746723056 -206.06950793601573 641.3916171789169 -3593.84031143412 173.9367165286094 -1938.0297390092164 -141.32360720448196 -2020.9307830659673 -660.4158141557127 -3979.4116188548505 -81.53287341445684 -2041.0030037956312 459.30157325975597 -4822.908262339421 -43.48417913168669 -1618.2082844888791 -837.0703732203692 -4086.204181744717 -24.45978193730116 -1416.321323373355 1342.5737679284066 -8363.35328831058 18918.96579414606 -552.7505840323865 18065.144484214485 -65.92791209183633 27543.216883203015 -164.5147548643872 18752.764978848398 99.66759295761585 8935.946701463312 -158.81825791765004 11367.386574089527 -695.9989759819582 -23.267109407112002 13904.504437885247 160.1874114125967 13365.222377744503 -24623.30730761029 187.2374421497807 -15528.39670725353 -22.88770621549338 344.3094039093703 19942.63477001246 -8718.985125223175 -238.9508651215583 -7849.468916594982 108.66978910192847 z" vector-effect="non-scaling-stroke" fill="#000" fill-opacity="1" stroke="#FFF" stroke-width="0.3px" stroke-linejoin="round" stroke-linecap="round"><title>Vernon County</title></path>
<path id="55125" d="M -9906428.78493681 -5795887.94479501 l 1226.0608274880797 705.602696461603 5276.287373673171 3036.5137720312923 -112.23567407764494 14666.306004287675 -12689.86145679839 -11.05452866666019 9.349501395598054 13895.35102694109 -8253.113167576492 -16.315076945349574 -6306.469899987802 -628.9413738008589 337.63134766183794 6846.850187189877 -9184.968179728836 -879.9465480260551 -4798.202453192323 188.14445045311004 24.267982948571444 -6486.012924445793 -6868.967175643891 436.37565722875297 -29939.924629427493 -31.514055487699807 -45814.96978573501 285.0372639019042 -122.89560463652015 -13573.955657185987 12815.207314746454 -3.042649080976844 -0.329171732068062 -49167.88376547862 71.95865125767887 -2548.9602108709514 6092.617703389376 1700.9904704550281 8802.827881220728 2446.155786115676 9406.1708041206 2622.3752787178382 9713.277900584042 2704.122906047851 9713.277800478041 2703.294922115281 9408.888646656647 2612.137084730901 8797.392396371812 2450.3859789986163 7878.789149736986 2190.6352849239483 6666.667718984187 1864.3603431051597 5133.850479636341 1420.57502922602 3307.5151562877 918.150688492693 1168.6372516211122 317.79919970501214 3962.495485588908 1098.4771953215823 2301.943651497364 1333.681760231033 6604.159242762253 3811.6522766081616 z" vector-effect="non-scaling-stroke" fill="#000" fill-opacity="1" stroke="#FFF" stroke-width="0.3px" stroke-linejoin="round" stroke-linecap="round"><title>Vilas County</title></path>
<path id="55127" d="M -9874855.89027052 -5235897.130481026 l -7692.2424179799855 -73.28995415382087 -18.882857028394938 -25529.680142575875 -246.79408657178283 -14167.014251976274 195.5891245584935 -12387.47841949854 26223.302126143128 -37.80117361061275 26173.87627223693 125.71010348759592 -177.6671318206936 12926.20536191389 232.54485779069364 22121.086765674874 134.0327390693128 17448.720017448068 -3122.7482328470796 -29.17612989898771 -19730.944954987615 -187.98536722920835 -19733.662697412074 -187.9889744548127 z" vector-effect="non-scaling-stroke" fill="#000" fill-opacity="1" stroke="#FFF" stroke-width="0.3px" stroke-linejoin="round" stroke-linecap="round"><title>Walworth County</title></path>
<path id="55129" d="M -10190218.112755654 -5722462.831284544 l -18143.290544122458 -219.71543146204203 -20611.576834231615 9.550984486937523 -15892.0770384036 -159.6958169899881 13.136924427002668 -15337.565350308083 -258.9251280799508 -39593.17501361575 -1919.4813118316233 -8.170566959306598 109.65225877799094 -27886.992347511463 14083.024550117552 43.0716188903898 40238.42189819366 -63.47627091873437 1157.9447866342962 128.72758199181408 78.2563775125891 15831.096676456742 -136.47925418429077 12048.185809530318 1067.5538053885102 109.57786354608834 223.08158788643777 27108.995518331416 z" vector-effect="non-scaling-stroke" fill="#000" fill-opacity="1" stroke="#FFF" stroke-width="0.3px" stroke-linejoin="round" stroke-linecap="round"><title>Washburn County</title></path>
<path id="55131" d="M -9842646.181920676 -5341654.430206876 l -170.98562465794384 -13304.492448786274 97.85083427652717 -13507.307597961277 1863.0424413233995 14.70131719391793 164.97737778536975 -26619.082369172014 26665.908087581396 89.99687488004565 13387.16685844399 88.7661903090775 83.93278098851442 26856.381954719312 -2525.6157165598124 12.250122781842947 -113.32546801865101 26763.34454561677 -20774.103179477155 -175.74808175954968 -12432.379474589601 66.87796443887055 z" vector-effect="non-scaling-stroke" fill="#000" fill-opacity="1" stroke="#FFF" stroke-width="0.3px" stroke-linejoin="round" stroke-linecap="round"><title>Washington County</title></path>
<path id="55133" d="M -9855764.289235914 -5341856.295720709 l 13118.107315238565 201.86551383230835 6246.468917096034 285.688472260721 12432.379474589601 -66.87796443887055 20774.103179477155 175.74808175954968 -629.8481279350817 35426.78106067609 -75.36485374160111 17679.970839173533 -26322.59877797216 186.4353980915621 -26173.87627223693 -125.71010348759592 -89.05481339804828 -7243.9758687876165 364.90796248987317 -36971.10101391282 z" vector-effect="non-scaling-stroke" fill="#000" fill-opacity="1" stroke="#FFF" stroke-width="0.3px" stroke-linejoin="round" stroke-linecap="round"><title>Waukesha County</title></path>
<path id="55135" d="M -9863583.350343047 -5557283.888894827 l -14544.555381579325 -6.878703210502863 -5.457326719537377 33812.41743965447 -332.9583780746907 20308.215040104464 -16353.718744078651 103.79913202859461 -29729.53090314567 -45.22068055998534 -7919.266237324104 -96.34302402380854 173.10481380671263 -38943.42169550061 -45.97238934598863 -29351.289680466056 19486.0255741477 224.19499229080975 49375.30039185658 257.38095242343843 z" vector-effect="non-scaling-stroke" fill="#000" fill-opacity="1" stroke="#FFF" stroke-width="0.3px" stroke-linejoin="round" stroke-linecap="round"><title>Waupaca County</title></path>
<path id="55137" d="M -9974001.128325325 -5462692.631264674 l 0.33729805983603 -40853.87659214903 13228.425041934475 302.5547713711858 28303.528671361506 36.05339461751282 7919.266237324104 96.34302402380854 29729.53090314567 45.22068055998534 109.0916538219899 20473.8300387254 -54.10305363871157 19746.25670768041 -31404.220988675952 61.10720371082425 -9107.823995251209 69.46280104946345 z" vector-effect="non-scaling-stroke" fill="#000" fill-opacity="1" stroke="#FFF" stroke-width="0.3px" stroke-linejoin="round" stroke-linecap="round"><title>Waushara County</title></path>
<path id="55139" d="M -9841101.388879154 -5503294.290336433 l -53.99151150509715 22491.26275254041 144.7135569192469 18458.64385154005 -97.73895819485188 6462.179645889439 110.4283782672137 6988.426346919499 -26853.036040280014 -256.1233152784407 -26858.824765130877 -84.81124554108828 -55.213354237377644 -13611.536939481273 54.10305363871157 -19746.25670768041 -109.0916538219899 -20473.8300387254 16353.718744078651 -103.79913202859461 z" vector-effect="non-scaling-stroke" fill="#000" fill-opacity="1" stroke="#FFF" stroke-width="0.3px" stroke-linejoin="round" stroke-linecap="round"><title>Winnebago County</title></path>
<path id="55141" d="M -9988128.232165528 -5503846.430645993 l -21005.51237361692 -270.27648543473333 -9224.28809852153 85.49852870125324 -35130.97412221879 13.36160282511264 -693.4087741915137 -14.141427833586931 246.4635790064931 -27364.985174359754 -15.692152021452785 -40699.03511945717 41161.14882342331 71.39997634012252 11299.258600447327 -32.25277318432927 59.2198540288955 27117.315412986092 13115.21311980486 46.83240111079067 210.1694175004959 21240.23838426359 z" vector-effect="non-scaling-stroke" fill="#000" fill-opacity="1" stroke="#FFF" stroke-width="0.3px" stroke-linejoin="round" stroke-linecap="round"><title>Wood County</title></path>
</svg>
