<svg xmlns="http://www.w3.org/2000/svg" xmlns:xlink="http://www.w3.org/1999/xlink" height="1080" width="1920" viewBox="-12362183.690268228 -5621537.503716797 779127.7250995208 609220.4443856543">
<path id="56001" d="M -11821077.63624238 -5012317.059331142 l -3266.58653001301 0 -11155.176774052903 0 -348.5914194472134 -18201.54514135141 77.70189513266087 -8997.829841706902 -37.95694073289633 -31283.333148861304 12780.587843665853 203.8908780440688 15547.878397384658 -187.11967536248267 -298.00094102323055 -12877.5023649605 -228.75765739940107 -38807.44456677511 2.896533152088523 -22411.832072350197 -202.26395254954696 -35316.98669587914 125.90423652529716 -18389.15652153641 43.97409316524863 -27511.712534712628 28864.691894246265 280.53578738868237 28727.657712396234 119.60382210835814 -15.919132461771369 3668.7364245075732 -2155.256215967238 3.768883930519223 -16.92100788280368 4150.001383841038 -4337.006359431893 189.572256276384 88.27524300850928 10991.134117870592 1608.1209187228233 1041.8242660751566 7073.238663893193 448.9340565018356 1067.7205619793385 855.1420929450542 16781.01972268708 -191.0346847139299 -349.765283472836 -4346.950840837322 2236.519332928583 -35.98190332856029 -350.0987966693938 -8594.742531567812 1058.5367039963603 -11.00019190274179 29.054943691939116 -4295.329671096988 2215.2576441485435 -3953.4027075553313 5363.705911695957 -44.009122357703745 218.74157489091158 10666.861941725016 86.82497268356383 40851.23003637232 822.5394948329777 9.600455752573907 223.08270107395947 15397.37518860586 -7.016801463440061 36482.133692813106 -797.4926094040275 5.072371436282992 82.04124020040035 12723.573364005424 -15.810595957562327 32949.61390582193 -255.70254013873637 16867.161235490814 215.6219574790448 40801.70995057281 108.54010956548154 6749.438104771078 -17480.63881000504 0 -17480.638810010627 0 -17483.356552433223 0 -17475.20322504826 0 -17477.921067582443 0 z" vector-effect="non-scaling-stroke" fill="#000" fill-opacity="1" stroke="#FFF" stroke-width="0.3px" stroke-linejoin="round" stroke-linecap="round"><title>Albany County</title></path>
<path id="56003" d="M -12091667.961150689 -5621525.973299108 l 1635.42249821499 0 12110.342937394977 0 12110.343137620017 0 12107.625194977969 0 3871.3320028875023 0 8241.72887715511 0 12115.77852236107 0 12107.62529509142 0 4687.752707310021 0 3324.2215208690614 2225.997502952814 539.8990850728005 3665.6730183437467 -456.0765103790909 4696.085472966544 3085.4413244463503 2903.377384335734 395.7263182308525 1933.8287709020078 -1686.810329047963 4451.669273566455 3628.902855850756 4465.722327917814 1796.806899022311 4345.036394345574 -1708.086266733706 2782.734298311174 5695.214687366039 4255.686333667487 2902.432304209098 323.4905636161566 927.2909130360931 2532.7972231609747 -356.87102921307087 5071.623286096379 5423.79817658104 2592.2223444450647 3432.3125237915665 4063.236514958553 2335.148735728115 -2022.777695567347 5900.9335516337305 -395.5576135022566 4353.147462952882 2572.2305482234806 856.9368835259229 1812.7115237871185 3266.7809975836426 1050.6750465547666 -1677.5846149343997 2152.305519857444 2492.3313001338392 2062.317370993085 2703.838332645595 797.9233070937917 2049.1684072818607 2499.6843783296645 9455.019913556054 2644.9391780467704 1669.8011561390013 5552.444327807985 1763.6340247225016 2756.329319727607 1789.23761892505 400.4536357438192 1177.4256975185126 2490.0998497009277 2860.130675079301 2694.992232126184 343.8654617778957 3322.563257161528 -559.4919833615422 3397.6230355696753 6837.686287410557 3881.0905471919104 2847.106851257384 -1579.0267892312258 1802.5959578156471 1021.4017651807517 80.26057362742722 6656.095562084578 2200.7859990205616 -626.6158887548372 1165.2918730266392 1513.0757304076105 -2199.8961110152304 7081.234150552191 4895.940966108814 3761.424776523374 -201.15710285119712 24604.945203027688 -25472.11998338066 -343.90212861727923 -18860.63434466906 213.38444445002824 -18678.961047003046 8.843565209768713 -1106.738043507561 -222.23251022771 -52019.58613651618 -54.16824723780155 -40127.105190386996 -34.76810771599412 -2586.50770066306 -2.017827197909355 41.97390455566347 -54845.70145384967 -2123.307410793379 -18.579707915894687 22.04782702960074 -54891.20786228031 -3135.4239984489977 -5.812339562922716 z" vector-effect="non-scaling-stroke" fill="#000" fill-opacity="1" stroke="#FFF" stroke-width="0.3px" stroke-linejoin="round" stroke-linecap="round"><title>Big Horn County</title></path>
<path id="56005" d="M -11802627.08208505 -5621537.503716797 l 3259.0828874856234 0 12110.343137618154 0 12115.77852236107 0 12110.343037514016 0 12110.343037508428 0 12113.060779936612 0 12113.060779932886 0 12110.343137623742 0 12110.34293739684 0 3976.5303704999387 0 -4.566325509920716 18800.17337766383 1640.8489603325725 -10.211345643736422 -281.8626204840839 14815.979478585534 -914.2667552437633 -87.20649537164718 -69.9133156388998 40235.94755204953 372.029626917094 417.54365418013185 -260.3798511903733 31618.13973501511 67.79167746193707 16720.62348097097 574.7194878272712 6280.060515411198 -234.0886364914477 54049.69027472008 77.0318631157279 11866.732792775147 -117.44484577514231 24294.60775084328 219.63190818578005 14385.849653546698 -18043.32686590217 34.52664544247091 -22160.977946080267 240.3133180970326 -32336.02245615609 165.26734124869108 -31829.351793812588 93.29580280091614 -166.53173183836043 -19970.749260347337 140.71117594651878 -30270.640621960163 934.7495415471494 -13.886004741303623 -113.09748569875956 -27566.261196728796 72.02515769377351 -12942.538096946664 -279.41036341153085 -13365.269618500024 -492.4772046338767 0.77582951169461 -14.245332594960928 -31910.10123174172 239.89606300741434 -22766.284185755998 532.8425425477326 -6716.148165697232 -109.82536058872938 -20209.541495746 -478.67347645387053 -2176.906579066068 78.14906552620232 -23635.381246845238 -982.7280194424093 -1733.261640805751 z" vector-effect="non-scaling-stroke" fill="#000" fill-opacity="1" stroke="#FFF" stroke-width="0.3px" stroke-linejoin="round" stroke-linecap="round"><title>Campbell County</title></path>
<path id="56007" d="M -11946703.258757384 -5012317.059331142 l -17480.638810010627 0 -17480.63881000504 0 -17480.63881001249 0 -14278.971188496798 0 137.82688794471323 -34010.684647437185 10.46648116223514 -24970.357526004314 -1422.217480417341 -4.600567100569606 16.03401417657733 -38820.511150457896 33853.69662257098 270.7338743833825 12902.260047102347 48.72292156983167 -37.29080490022898 -12383.724916765466 508.1733641549945 -2.536201450973749 185.79757346957922 -51973.09206312243 -2059.4101343993098 -0.000150001607835 -44.636332819238305 -26106.129054087214 -22.382342098280787 -25997.33622347284 26205.391265353188 -60.479909187182784 36922.328926542774 198.4940768405795 33513.392827898264 353.98734509851784 19014.14392246306 56.7106953067705 18010.1536576394 -379.7712060920894 27421.768988538533 2.717889690771699 272.6214329544455 -2.714873162098229 -43.97409316524863 27511.712534712628 -125.90423652529716 18389.15652153641 202.26395254954696 35316.98669587914 -2.896533152088523 22411.832072350197 228.75765739940107 38807.44456677511 298.00094102323055 12877.5023649605 -15547.878397384658 187.11967536248267 -12780.587843665853 -203.8908780440688 37.95694073289633 31283.333148861304 -77.70189513266087 8997.829841706902 348.5914194472134 18201.54514135141 -6325.462035957724 0 -17480.63870989345 0 -17480.638810010627 0 -17480.63881001249 0 -1222.2353618051857 0 -16261.121190626174 0 -17475.20332516171 0 z" vector-effect="non-scaling-stroke" fill="#000" fill-opacity="1" stroke="#FFF" stroke-width="0.3px" stroke-linejoin="round" stroke-linecap="round"><title>Carbon County</title></path>
<path id="56009" d="M -11720147.195001064 -5225820.82957851 l -5363.705911695957 44.009122357703745 -2215.2576441485435 3953.4027075553313 -29.054943691939116 4295.329671096988 -1058.5367039963603 11.00019190274179 350.0987966693938 8594.742531567812 -2236.519332928583 35.98190332856029 349.765283472836 4346.950840837322 -16781.01972268708 191.0346847139299 -1067.7205619793385 -855.1420929450542 -7073.238663893193 -448.9340565018356 -1608.1209187228233 -1041.8242660751566 -88.27524300850928 -10991.134117870592 4337.006359431893 -189.572256276384 16.92100788280368 -4150.001383841038 2155.256215967238 -3.768883930519223 15.919132461771369 -3668.7364245075732 -28727.657712396234 -119.60382210835814 -28864.691894246265 -280.53578738868237 -272.6214329544455 2.714873162098229 113.43567431904376 -10642.409092549235 -194.8085522931069 -4916.661738186143 101.74890889041126 -27562.04479036946 -155.84628523141146 -9019.63126853481 489.8056481704116 -30.33254762645811 -27.716994740068913 -14692.54259759374 -306.12448085844517 -38342.70023325831 278.41205022856593 -18798.79166761134 -78.14249767549336 -34079.60532816127 -467.43009656481445 -3360.1167253684253 6757.314171664417 -76.41805176995695 31829.351793812588 -93.29580280091614 32336.02245615609 -165.26734124869108 22160.977946080267 -240.3133180970326 18043.32686590217 -34.52664544247091 20021.473438056186 -183.38545377459377 331.1695851739496 54168.697128343396 -90.72649819031358 10708.547068895772 -86.165961291641 44440.180799611844 553.6473761424422 29.955932028591633 127.40237422473729 26350.07117056288 -24171.40761585161 90.82324250228703 -5163.868724046275 238.34046803694218 -14532.719002768397 142.118064426817 199.70672120526433 4275.741205636412 z" vector-effect="non-scaling-stroke" fill="#000" fill-opacity="1" stroke="#FFF" stroke-width="0.3px" stroke-linejoin="round" stroke-linecap="round"><title>Converse County</title></path>
<path id="56011" d="M -11583439.329606155 -5554223.094427184 l -10.710917174816132 11048.579880964011 29.895366901531816 19480.773079339415 27.177624471485615 19446.838301403448 50.1186736933887 10849.34476767201 -34874.20500115305 -83.04676617030054 -39479.22519737668 253.01098747737706 -39677.17351590842 481.14041256252676 -574.7194878272712 -6280.060515411198 -67.79167746193707 -16720.62348097097 260.3798511903733 -31618.13973501511 -372.029626917094 -417.54365418013185 69.9133156388998 -40235.94755204953 914.2667552437633 87.20649537164718 281.8626204840839 -14815.979478585534 -1640.8489603325725 10.211345643736422 4.566325509920716 -18800.17337766383 5677.292694620788 0 2459.237814931199 0 12110.342937393114 0 12107.62539520301 0 12115.778622472659 0 12113.060679817572 0 12107.625395195559 0 12107.625194979832 0 12113.060880042613 0 12113.060679825023 0 9938.85212363489 0 59.79063368588686 19657.307111821137 32.613209430128336 19790.687319901772 10.870969699695706 19281.687838543206 z" vector-effect="non-scaling-stroke" fill="#000" fill-opacity="1" stroke="#FFF" stroke-width="0.3px" stroke-linejoin="round" stroke-linecap="round"><title>Crook County</title></path>
<path id="56013" d="M -11969395.828479962 -5226266.57503509 l 22.382342098280787 25997.33622347284 -12958.243286943063 60.162975260056555 -40426.46044434048 -110.11863018013537 -41563.34213615209 -238.2513178717345 -16714.729077240452 91.13949563167989 -25628.527652807534 28.740581418387592 -32041.40818801336 -121.69369124714285 7.0022186152637 -25599.939268408343 -2858.2192081008106 25.189481439068913 -375.57604325562716 -39302.323618571274 -6860.3540526833385 -126.89156004972756 14.407079817727208 -3554.3779000900686 -1455.067750826478 -1554.6418569143862 376.47383493743837 -2149.4368748366833 -3979.4234420768917 -2019.8241545883939 -1722.2156044188887 -1964.4112117197365 -2470.411824479699 1287.1804702328518 -2130.4453278575093 -1465.0850326297805 1030.475732030347 -3056.3845807965845 -1555.2903581839055 -2472.909354807809 -2055.4459360148758 -1377.6657342379913 -2826.724252482876 -4741.128572609276 -3361.9786431230605 -1466.1824469342828 -1680.5860110428184 -2858.520454327576 -1751.399010811001 -6743.790301019326 -2688.4535337332636 -3989.924744512886 -3242.190967347473 838.3433543462306 -1345.959510397166 -2356.497718045488 -2316.23032223247 -1915.8882847642526 -2419.9768593851477 -279.7560793766752 -676.2489860039204 -2749.3615279747173 -3608.856553271413 -1213.2452923404053 -1058.89081129618 -2178.4011044586077 -5618.293253183365 -334.3176364079118 -731.696667779237 -5140.167629352771 815.5229160152376 -3292.501916940324 -4422.046324081719 -7237.3942503603175 -3237.613398561254 -1558.8529090415686 -1141.1468981076032 -3521.2997961947694 -2763.495560955256 -4233.1791991163045 -563.152056902647 -3542.9464263487607 -1701.3134775944054 -2375.682591525838 657.1129429005086 -2187.083242382854 -658.5726753789932 -2865.1137493858114 -1814.0400467552245 -2468.238442737609 2089.2308448702097 -4935.626047998667 62.923898769542575 -2096.5578027293086 -2877.507870225236 -3173.9196470072493 438.0466490518302 -5362.000369652174 -1526.3174569588155 -1255.1142963459715 -2699.0469191204756 1272.2629944775254 -2400.382625248283 20.65615293942392 -28.376340076327324 -14910.27176411543 -33045.52502309717 -242.7913554413244 -29.1556878387928 -20093.113935615867 43.96529893577099 -33693.10083899088 -244.89430814236403 -15.421059968881309 50.981098517775536 -29895.760751396418 2403.938615065068 1091.0793551076204 1418.886133333668 3345.664310246706 2779.3190699685365 4607.616728847846 3897.6164180915803 -2321.7711580842733 4096.556036673486 2858.5995144359767 3179.0613501612097 -149.51041838061064 3499.0009137820452 -1584.140520866029 402.857556136325 2358.1077901739627 -1563.2594978939742 2179.6207981994376 2554.0060828942806 1065.0268128626049 -520.0847723055631 2678.235125169158 3409.8225357513875 2555.7189141046256 -817.7534246426076 2027.820961965248 1778.5616344809532 2027.0677610132843 -3644.832563670352 1192.7442971616983 -991.74601139687 3777.1417248910293 3322.003591341898 802.9848887389526 4104.1180810034275 3126.3901214040816 2959.315896101296 -2672.0065273679793 4808.223099788651 -2604.5695168133825 3402.0467579998076 -311.7408046191558 2542.524256657809 -1467.701871854253 -629.1773166824132 -2883.8948924914002 2154.8112719599158 -2950.442684768699 -150.05833962745965 -3143.742784687318 1397.8260441478342 -2421.3751761093736 3127.5245447419584 -725.4806358534843 1434.360544430092 -3315.9756744103506 1452.7187982555479 1635.5715596051887 2319.34136804007 -2546.4781165057793 2739.680759644136 -1010.1281463867053 3355.567085733637 3444.7610846683383 2761.66279685311 -1505.9436380527914 1668.3610158860683 2572.044468897395 3343.1259081214666 269.3894931199029 941.8924679961056 2533.7044593999162 2280.0282219517976 739.8390070162714 1664.674893580377 3848.355533240363 2036.4681892264634 238.1738231703639 1493.0302575398237 6143.399594916031 3345.1308834701777 146.6240736702457 1613.0370100736618 1081.7429369911551 1032.3487937822938 3371.3802788741887 455.31875860504806 1226.0118792587891 3813.483595971018 1292.3472382994369 1387.250024607405 3504.4079051902518 2991.265257867053 1579.4561263015494 4261.091698732227 7942.510642889887 2842.8751521259546 2023.9533727644011 -21.1570484675467 12223.9829698354 26438.039316317067 92.42620247974992 34.51471944525838 2220.7679492151365 13308.794931299984 -82.40673669148237 -0.000556595623493 4546.537285822444 13314.247359955683 -12.513113758526742 -44.51076443120837 6681.697795322165 13236.43036047183 -46.20591390598565 0.002671668305993 4497.846324873157 13269.835781192407 15.353747135959566 -1.2313048876822 4430.7537827678025 13269.610247902572 33.46082564909011 -10.125286923721433 2192.7278340104967 20206.599198402837 23.543598505668342 6.344097776338458 -1689.6635631537065 24830.248682521284 -20.538825515657663 37636.78777117282 -229.62872901652008 3.221920017153025 -4470.689614624716 6702.3206734173 5.368477028794587 -15.019114380702376 4388.615336042829 2003.8572557121515 15.318232456222177 133.6905896216631 26453.538176857866 -99.97002342902124 26271.80241996143 1603.1115416362882 -15.230107417330146 100.40439208596945 52717.7612084141 -4686.660880019888 0.021992412395775 167.08498971164227 52498.852544916794 z" vector-effect="non-scaling-stroke" fill="#000" fill-opacity="1" stroke="#FFF" stroke-width="0.3px" stroke-linejoin="round" stroke-linecap="round"><title>Fremont County</title></path>
<path id="56015" d="M -11583119.150781948 -5115840.2632020665 l -4.758447939530015 10872.555034637451 32.99434092268348 9037.192053474486 -23785.287178104743 18.786796502768993 -25752.53366937302 -3.870820123702288 -17287.91280137375 -125.12695583701134 -36.734207443892956 -13100.883238664828 -53.42923676595092 -40781.90765237622 61.004639429971576 -16671.035835633986 -197.36667418666184 -26912.72725085728 20.040736604481936 -31833.065095425583 -88.1621423996985 -27375.169899175875 20487.234076216817 -29.794638170860708 25568.745190074667 -365.7336618611589 21066.22695475258 69.47154741641134 -48.40874047763646 16830.309574399143 32.6131093185395 18854.658034325577 0 18824.510017217137 21.742039512842894 18790.892314261757 -10.870969699695706 18742.86087867245 -32.61320943199098 18713.378722695634 10.870969694107771 18680.443685015664 z" vector-effect="non-scaling-stroke" fill="#000" fill-opacity="1" stroke="#FFF" stroke-width="0.3px" stroke-linejoin="round" stroke-linecap="round"><title>Goshen County</title></path>
<path id="56017" d="M -11977431.062464738 -5388602.628443947 l -3.221920017153025 4470.689614624716 -37636.78777117282 229.62872901652008 -24830.248682521284 20.538825515657663 -6.344097776338458 1689.6635631537065 -20206.599198402837 -23.543598505668342 10.125286923721433 -2192.7278340104967 -13269.610247902572 -33.46082564909011 1.2313048876822 -4430.7537827678025 -13269.835781192407 -15.353747135959566 -0.002671668305993 -4497.846324873157 -13236.43036047183 46.20591390598565 44.51076443120837 -6681.697795322165 -13314.247359955683 12.513113758526742 0.000556595623493 -4546.537285822444 -13308.794931299984 82.40673669148237 -34.51471944525838 -2220.7679492151365 -26438.039316317067 -92.42620247974992 21.1570484675467 -12223.9829698354 -2842.8751521259546 -2023.9533727644011 -4261.091698732227 -7942.510642889887 -2991.265257867053 -1579.4561263015494 -1387.250024607405 -3504.4079051902518 -3813.483595971018 -1292.3472382994369 -455.31875860504806 -1226.0118792587891 4496.883634751663 -450.49498878605664 20080.47310213372 -12.6482406957075 -79.70308561436832 -13628.41118675284 20048.079241635278 -43.10432867240161 -356.44333973154426 -13312.468072911724 13738.77002671361 -31.098766305483878 32.33987055160105 -13713.189170679078 26885.766085645184 33.009599432349205 6735.272912485525 -55.3200464034453 91.61449376866221 13610.636366193183 6942.66112383455 -29.70748395472765 -197.593654634431 13714.447624245659 13300.449754355475 15.297115137800574 -37.404239462688565 8746.135533312336 13846.304543502629 -251.67563084699214 -1176.8139969240874 3150.4481848329306 2478.639002768323 1370.5915425820276 24175.137041425332 44.28168283589184 -14.361772783100605 13138.655575622804 26794.70674217865 15.717372621409595 -38.07282432354987 13482.857739015482 13476.445757977664 -102.14663089904934 z" vector-effect="non-scaling-stroke" fill="#000" fill-opacity="1" stroke="#FFF" stroke-width="0.3px" stroke-linejoin="round" stroke-linecap="round"><title>Hot Springs County</title></path>
<path id="56019" d="M -11927526.868589265 -5491114.210310886 l 201.15710285119712 -24604.945203027688 -4895.940966108814 -3761.424776523374 2199.8961110152304 -7081.234150552191 -1165.2918730266392 -1513.0757304076105 -2200.7859990205616 626.6158887548372 -80.26057362742722 -6656.095562084578 -1802.5959578156471 -1021.4017651807517 -2847.106851257384 1579.0267892312258 -6837.686287410557 -3881.0905471919104 559.4919833615422 -3397.6230355696753 -343.8654617778957 -3322.563257161528 -2860.130675079301 -2694.992232126184 -1177.4256975185126 -2490.0998497009277 -1789.23761892505 -400.4536357438192 -1763.6340247225016 -2756.329319727607 13246.348370509222 182.79339024145156 41746.246516060084 124.3638342358172 23578.353139972314 155.7614152012393 26149.944140180945 15.156872474588454 0 -781.1618368672207 27797.806117124856 -47.33729310426861 18868.048111427575 -296.95242165308446 -532.8425425477326 6716.148165697232 -239.89606300741434 22766.284185755998 14.245332594960928 31910.10123174172 492.4772046338767 -0.77582951169461 279.41036341153085 13365.269618500024 -72.02515769377351 12942.538096946664 113.09748569875956 27566.261196728796 -934.7495415471494 13.886004741303623 -140.71117594651878 30270.640621960163 166.53173183836043 19970.749260347337 -6757.314171664417 76.41805176995695 -16609.866005592048 183.98385468684137 -26350.65318208374 91.91183963883668 -14572.60844986327 184.592303478159 -26528.764367355034 -76.11104829236865 -30914.639983238652 -60.767729219049215 20.705536602064967 -1215.9813906075433 -323.4933270495385 -8520.489555047825 -71.24002132564783 -40072.146816304885 -1485.2242008876055 20.055557961575687 -154.3969054631889 -28430.695260676555 47.3136778883636 -25682.844466716982 z" vector-effect="non-scaling-stroke" fill="#000" fill-opacity="1" stroke="#FFF" stroke-width="0.3px" stroke-linejoin="round" stroke-linecap="round"><title>Johnson County</title></path>
<path id="56021" d="M -11682241.4910662 -5012317.059331142 l -2265.7746536117047 0 -17477.92106758803 0 -17480.6387099009 0 -108.54010956548154 -6749.438104771078 -215.6219574790448 -40801.70995057281 255.70254013873637 -16867.161235490814 15.810595957562327 -32949.61390582193 24735.185065655038 77.77702960092574 34009.65478389338 514.3122437847778 10820.251833440736 -48.717077664099634 36.734207443892956 13100.883238664828 17287.91280137375 125.12695583701134 25752.53366937302 3.870820123702288 23785.287178104743 -18.786796502768993 34.94972025603056 9563.516598583199 -11.600083261728287 15853.186569993384 -1.988728974014521 2715.2689962359145 -48.919764095917344 18529.178002674133 0 18493.754079073668 -89.686100685969 18458.552536251955 -13898.629666576162 0 -17480.63881001249 0 -17480.63881001249 0 -17483.35665254481 0 -17480.63881000504 0 z" vector-effect="non-scaling-stroke" fill="#000" fill-opacity="1" stroke="#FFF" stroke-width="0.3px" stroke-linejoin="round" stroke-linecap="round"><title>Laramie County</title></path>
<path id="56023" d="M -12362041.162064657 -5098247.146878359 l -3.922438900917768 -6716.925555586815 -2.717742424458265 -9301.137617329136 0 -9324.73832569737 0 -9326.532164752483 -2.717742424458265 -9335.633184454404 -5.435584962368012 -9344.763374317437 0 -9357.579510781914 -8.15322727151215 -23412.24598558061 -10.870969701558352 -23477.417240785435 -8.153427500277758 -23532.05145257432 -0.781600430607796 -6777.424742728472 -1.936141991987824 -16809.699792400002 -5.435484847053886 -23653.7484030528 -8.153327388688922 -23709.76652016118 -4.357450785115361 -12696.213611534797 -3.795776491984725 -11073.743385062553 -10.870969694107771 -23830.631668712012 -3.490754263475537 -10222.957317994907 26366.551675764844 -28.90152908395976 -0.669252775609493 12343.121048210189 26197.70832805708 -7.026799536310136 8.005429860204458 16627.280152773485 -1047.404866239056 24.406873845495284 -112.76809132285416 13101.737197875977 149.6131729837507 39668.383286919445 -3982.1241642367095 -2.578023274429142 -4.788073938339949 10462.937716176733 3718.9613257776946 13.200575463473797 -6.84792978875339 39552.97531115729 5209.915029533207 -10.787764650769532 188.69855940528214 25769.24109617155 13003.330908976495 -368.16591320652515 -11.137960327789187 571.7419679379091 12468.120823498815 89.96687383018434 11844.827743779868 -150.58222216926515 -44.526794442906976 887.5966410683468 17055.032426634803 -15.485508778132498 33.3939548060298 17359.26942030154 -108.65016072429717 21631.15186184272 887.8840359319001 611.5501390015706 -11.024748416617513 38423.52186072804 -166.58093504980206 25707.52529852651 -36480.79207749292 -241.05077509582043 -37560.746540199965 15.323885574936867 z" vector-effect="non-scaling-stroke" fill="#000" fill-opacity="1" stroke="#FFF" stroke-width="0.3px" stroke-linejoin="round" stroke-linecap="round"><title>Lincoln County</title></path>
<path id="56025" d="M -11808308.648891527 -5226094.916143432 l -27421.768988538533 -2.717889690771699 -18010.1536576394 379.7712060920894 -19014.14392246306 -56.7106953067705 -33513.392827898264 -353.98734509851784 -36922.328926542774 -198.4940768405795 -26205.391265353188 60.479909187182784 -2126.4145604204386 -0.005128184333444 -167.08498971164227 -52498.852544916794 4686.660880019888 -0.021992412395775 -100.40439208596945 -52717.7612084141 -1603.1115416362882 15.230107417330146 99.97002342902124 -26271.80241996143 -133.6905896216631 -26453.538176857866 -2003.8572557121515 -15.318232456222177 15.019114380702376 -4388.615336042829 31645.11992898211 -40.20525857061148 15572.479893526062 205.34092248231173 -20.705536602064967 1215.9813906075433 30914.639983238652 60.767729219049215 26528.764367355034 76.11104829236865 14572.60844986327 -184.592303478159 26350.65318208374 -91.91183963883668 16609.866005592048 -183.98385468684137 467.43009656481445 3360.1167253684253 78.14249767549336 34079.60532816127 -278.41205022856593 18798.79166761134 306.12448085844517 38342.70023325831 27.716994740068913 14692.54259759374 -489.8056481704116 30.33254762645811 155.84628523141146 9019.63126853481 -101.74890889041126 27562.04479036946 194.8085522931069 4916.661738186143 z" vector-effect="non-scaling-stroke" fill="#000" fill-opacity="1" stroke="#FFF" stroke-width="0.3px" stroke-linejoin="round" stroke-linecap="round"><title>Natrona County</title></path>
<path id="56027" d="M -11583327.521523353 -5384984.20181635 l 13.369122387841344 15705.252099701203 81.53277330473065 19116.480635100044 51.637506518512964 19088.473831651732 40.76633659563959 19045.784843331203 13.588812233880162 19007.076283765025 21.742139618843794 18979.718104896136 21.742039512842894 18930.376353722066 -5.946408353745937 2069.4668460208923 -21066.22695475258 -69.47154741641134 -25568.745190074667 365.7336618611589 -20487.234076216817 29.794638170860708 -14399.840711470693 -134.61704609170556 -11960.385835502297 214.62646525539458 -127.40237422473729 -26350.07117056288 -553.6473761424422 -29.955932028591633 86.165961291641 -44440.180799611844 90.72649819031358 -10708.547068895772 -331.1695851739496 -54168.697128343396 18498.845888260752 -321.5105525068939 41305.977596020326 -49.25916332285851 34271.566305585206 265.12097816262394 z" vector-effect="non-scaling-stroke" fill="#000" fill-opacity="1" stroke="#FFF" stroke-width="0.3px" stroke-linejoin="round" stroke-linecap="round"><title>Niobrara County</title></path>
<path id="56029" d="M -12362162.954227775 -5569130.9732943345 l 3.723841596394777 -2169.654155438766 5.435484848916531 -4752.256915350445 2.717742420732975 -4758.57534527313 2.71774242259562 -4764.904042439535 5.435484854504466 -4759.751930775121 5.435584958642721 -4766.088430979289 2.717742424458265 -4764.766297299415 2.717742430046201 -4771.1149411052465 5.435484847053886 -4777.473657009192 0 -4776.161495774984 8.153427500277758 -4778.68963721022 0 -2555.5631561186165 5633.918489608914 0 12107.62529508397 0 12113.060779936612 0 12115.778622465208 0 12107.625194979832 0 12107.625295082107 0 12113.060779938474 0 12113.060880042613 0 12110.342937402427 0 12107.625395197421 0 12113.060679825023 0 12113.060880042613 0 12107.625194977969 0 12115.77862246707 0 12113.0608800482 0 12107.625194972381 0 12113.060880050063 0 12115.77852236107 0 12107.62529508397 0 12113.060779938474 0 12110.343037504703 0 12110.343037514016 0 10480.356124259531 0 94.73043764010072 20215.600813277066 3135.4239984489977 5.812339562922716 -22.04782702960074 54891.20786228031 2123.307410793379 18.579707915894687 -41.97390455566347 54845.70145384967 2586.50770066306 2.017827197909355 -21.820178670808673 13809.880712051876 -26885.766085645184 -33.009599432349205 -32.33987055160105 13713.189170679078 -13738.77002671361 31.098766305483878 356.44333973154426 13312.468072911724 -20048.079241635278 43.10432867240161 79.70308561436832 13628.41118675284 -20080.47310213372 12.6482406957075 -4496.883634751663 450.49498878605664 -1032.3487937822938 -3371.3802788741887 -1613.0370100736618 -1081.7429369911551 -3345.1308834701777 -146.6240736702457 -1493.0302575398237 -6143.399594916031 -2036.4681892264634 -238.1738231703639 -1664.674893580377 -3848.355533240363 -2280.0282219517976 -739.8390070162714 -941.8924679961056 -2533.7044593999162 -3343.1259081214666 -269.3894931199029 -1668.3610158860683 -2572.044468897395 -2761.66279685311 1505.9436380527914 -3355.567085733637 -3444.7610846683383 -2739.680759644136 1010.1281463867053 -2319.34136804007 2546.4781165057793 -1452.7187982555479 -1635.5715596051887 -1434.360544430092 3315.9756744103506 -3127.5245447419584 725.4806358534843 -1397.8260441478342 2421.3751761093736 150.05833962745965 3143.742784687318 -2154.8112719599158 2950.442684768699 629.1773166824132 2883.8948924914002 -2542.524256657809 1467.701871854253 -3402.0467579998076 311.7408046191558 -4808.223099788651 2604.5695168133825 -2959.315896101296 2672.0065273679793 -4104.1180810034275 -3126.3901214040816 -3322.003591341898 -802.9848887389526 991.74601139687 -3777.1417248910293 3644.832563670352 -1192.7442971616983 -1778.5616344809532 -2027.0677610132843 817.7534246426076 -2027.820961965248 -3409.8225357513875 -2555.7189141046256 520.0847723055631 -2678.235125169158 -2554.0060828942806 -1065.0268128626049 1563.2594978939742 -2179.6207981994376 -402.857556136325 -2358.1077901739627 -3499.0009137820452 1584.140520866029 -3179.0613501612097 149.51041838061064 -4096.556036673486 -2858.5995144359767 -3897.6164180915803 2321.7711580842733 -2779.3190699685365 -4607.616728847846 -1418.886133333668 -3345.664310246706 -2403.938615065068 -1091.0793551076204 -19.814869360998273 -19305.970706144348 -2600.5509553290904 -0.423988992348313 -1299.3051446843892 -2513.9147937679663 -796.1035961974412 -2032.9524426246062 -407.66415085271 -2178.6394761940464 -144.94725363887846 -2021.230736773461 58.884821789339185 -5358.42195052281 -163.06566034071147 -1643.541411023587 -434.8417609129101 -1580.6069413879886 -1635.1862050928175 -3465.64689111989 -924.4480558168143 -4242.666846418753 -905.5110213495791 -1781.0731890546158 -1259.229265972972 -1076.0860581295565 -3424.37886717543 -1380.1077459389344 -1467.5909430757165 -823.0993499495089 -1282.122798807919 -259.0176182491705 -2543.5938143245876 -2123.850042389706 -339.3011400233954 -5023.319396262988 -2780.7599894590676 -2579.060305462219 -207.7218358591199 -2340.7570306658745 -3465.1519962213933 -2154.015320449136 -1075.6799055729061 -1789.5816441103816 1605.0049748532474 -7634.570612444542 581.867646291852 -5697.426026646979 -1518.7588635273278 -4031.524213706143 -2657.8355530761182 -2100.6363411201164 -2061.02437832579 1264.76639761962 -2997.5548090990633 -852.3492319891229 -1620.8111180383712 -2430.0978193413466 -121.78318896889687 -2273.981151441112 -32521.314305180684 35.47525833453983 3.563893496990204 -13059.9089103695 z" vector-effect="non-scaling-stroke" fill="#000" fill-opacity="1" stroke="#FFF" stroke-width="0.3px" stroke-linejoin="round" stroke-linecap="round"><title>Park County</title></path>
<path id="56031" d="M -11719518.47442825 -5109684.982527799 l -82.04124020040035 -12723.573364005424 797.4926094040275 -5.072371436282992 7.016801463440061 -36482.133692813106 -223.08270107395947 -15397.37518860586 -822.5394948329777 -9.600455752573907 -86.82497268356383 -40851.23003637232 -218.74157489091158 -10666.861941725016 -92.61558994837105 -22067.65408727061 -199.70672120526433 -4275.741205636412 14532.719002768397 -142.118064426817 5163.868724046275 -238.34046803694218 24171.40761585161 -90.82324250228703 11960.385835502297 -214.62646525539458 14399.840711470693 134.61704609170556 88.1621423996985 27375.169899175875 -20.040736604481936 31833.065095425583 197.36667418666184 26912.72725085728 -61.004639429971576 16671.035835633986 53.42923676595092 40781.90765237622 -10820.251833440736 48.717077664099634 -34009.65478389338 -514.3122437847778 z" vector-effect="non-scaling-stroke" fill="#000" fill-opacity="1" stroke="#FFF" stroke-width="0.3px" stroke-linejoin="round" stroke-linecap="round"><title>Platte County</title></path>
<path id="56033" d="M -12012680.009977676 -5621525.973299108 l 7422.5903301965445 0 12113.060779938474 0 12110.343037506565 0 12110.343037514016 -3.843470923602581 12107.62529508397 -7.686946764588356 12113.060779931024 0 12115.778622472659 0 12104.907452547923 0 12110.343037514016 0 12115.778622472659 0 12110.343037508428 0 12110.343037514016 0 12107.625194972381 0 12113.0608800482 0 12115.77862246707 0 6491.9750144556165 0 5615.6501805223525 0 12113.060880042613 0 8851.260049916804 0 190.46531103923917 20645.140016964637 982.7280194424093 1733.261640805751 -78.14906552620232 23635.381246845238 478.67347645387053 2176.906579066068 109.82536058872938 20209.541495746 -18868.048111427575 296.95242165308446 -27797.806117124856 47.33729310426861 0 781.1618368672207 -26149.944140180945 -15.156872474588454 -23578.353139972314 -155.7614152012393 -41746.246516060084 -124.3638342358172 -13246.348370509222 -182.79339024145156 -1669.8011561390013 -5552.444327807985 -9455.019913556054 -2644.9391780467704 -2049.1684072818607 -2499.6843783296645 -2703.838332645595 -797.9233070937917 -2492.3313001338392 -2062.317370993085 1677.5846149343997 -2152.305519857444 -3266.7809975836426 -1050.6750465547666 -856.9368835259229 -1812.7115237871185 -4353.147462952882 -2572.2305482234806 -5900.9335516337305 395.5576135022566 -2335.148735728115 2022.777695567347 -3432.3125237915665 -4063.236514958553 -5423.79817658104 -2592.2223444450647 356.87102921307087 -5071.623286096379 -927.2909130360931 -2532.7972231609747 -2902.432304209098 -323.4905636161566 -5695.214687366039 -4255.686333667487 1708.086266733706 -2782.734298311174 -1796.806899022311 -4345.036394345574 -3628.902855850756 -4465.722327917814 1686.810329047963 -4451.669273566455 -395.7263182308525 -1933.8287709020078 -3085.4413244463503 -2903.377384335734 456.0765103790909 -4696.085472966544 -539.8990850728005 -3665.6730183437467 z" vector-effect="non-scaling-stroke" fill="#000" fill-opacity="1" stroke="#FFF" stroke-width="0.3px" stroke-linejoin="round" stroke-linecap="round"><title>Sheridan County</title></path>
<path id="56035" d="M -12250883.432409404 -5382985.27369227 l 33045.52502309717 242.7913554413244 28.376340076327324 14910.27176411543 2400.382625248283 -20.65615293942392 2699.0469191204756 -1272.2629944775254 1526.3174569588155 1255.1142963459715 -438.0466490518302 5362.000369652174 2877.507870225236 3173.9196470072493 -62.923898769542575 2096.5578027293086 -2089.2308448702097 4935.626047998667 1814.0400467552245 2468.238442737609 658.5726753789932 2865.1137493858114 -657.1129429005086 2187.083242382854 1701.3134775944054 2375.682591525838 563.152056902647 3542.9464263487607 2763.495560955256 4233.1791991163045 1141.1468981076032 3521.2997961947694 3237.613398561254 1558.8529090415686 4422.046324081719 7237.3942503603175 -815.5229160152376 3292.501916940324 731.696667779237 5140.167629352771 5618.293253183365 334.3176364079118 1058.89081129618 2178.4011044586077 3608.856553271413 1213.2452923404053 676.2489860039204 2749.3615279747173 2419.9768593851477 279.7560793766752 2316.23032223247 1915.8882847642526 1345.959510397166 2356.497718045488 3242.190967347473 -838.3433543462306 2688.4535337332636 3989.924744512886 1751.399010811001 6743.790301019326 1680.5860110428184 2858.520454327576 3361.9786431230605 1466.1824469342828 2826.724252482876 4741.128572609276 2055.4459360148758 1377.6657342379913 1555.2903581839055 2472.909354807809 -1030.475732030347 3056.3845807965845 2130.4453278575093 1465.0850326297805 2470.411824479699 -1287.1804702328518 1722.2156044188887 1964.4112117197365 3979.4234420768917 2019.8241545883939 -376.47383493743837 2149.4368748366833 1455.067750826478 1554.6418569143862 -14.407079817727208 3554.3779000900686 6860.3540526833385 126.89156004972756 375.57604325562716 39302.323618571274 2858.2192081008106 -25.189481439068913 -7.0022186152637 25599.939268408343 -22543.53194028698 28.87879787478596 -27872.724691020325 26.169962041079998 -28267.574034314603 -361.7667914731428 -33731.46882355213 -755.3183209719136 -17055.032426634803 15.485508778132498 44.526794442906976 -887.5966410683468 -11844.827743779868 150.58222216926515 -12468.120823498815 -89.96687383018434 11.137960327789187 -571.7419679379091 -13003.330908976495 368.16591320652515 -188.69855940528214 -25769.24109617155 -5209.915029533207 10.787764650769532 6.84792978875339 -39552.97531115729 -3718.9613257776946 -13.200575463473797 4.788073938339949 -10462.937716176733 3982.1241642367095 2.578023274429142 -149.6131729837507 -39668.383286919445 112.76809132285416 -13101.737197875977 1047.404866239056 -24.406873845495284 -8.005429860204458 -16627.280152773485 30.71805688738823 -8624.15526588168 26095.405493380502 72.7913641417399 -28.608329897746444 -13277.361989412457 10406.352830965072 -97.40513226017356 21532.08738840185 120.39941599685699 -17.914311690256 -13178.422816275619 z" vector-effect="non-scaling-stroke" fill="#000" fill-opacity="1" stroke="#FFF" stroke-width="0.3px" stroke-linejoin="round" stroke-linecap="round"><title>Sublette County</title></path>
<path id="56037" d="M -12245221.550339807 -5012317.059331142 l -5281.187012210488 0 -99.87516657449305 -36433.31800354645 29.50356123968959 -37912.47066553868 86.67469136416912 -11225.429170507006 166.58093504980206 -25707.52529852651 11.024748416617513 -38423.52186072804 -887.8840359319001 -611.5501390015706 108.65016072429717 -21631.15186184272 -33.3939548060298 -17359.26942030154 33731.46882355213 755.3183209719136 28267.574034314603 361.7667914731428 27872.724691020325 -26.169962041079998 22543.53194028698 -28.87879787478596 32041.40818801336 121.69369124714285 25628.527652807534 -28.740581418387592 16714.729077240452 -91.13949563167989 41563.34213615209 238.2513178717345 40426.46044434048 110.11863018013537 12958.243286943063 -60.162975260056555 44.636332819238305 26106.129054087214 2059.4101343993098 0.000150001607835 -185.79757346957922 51973.09206312243 -508.1733641549945 2.536201450973749 37.29080490022898 12383.724916765466 -12902.260047102347 -48.72292156983167 -33853.69662257098 -270.7338743833825 -16.03401417657733 38820.511150457896 1422.217480417341 4.600567100569606 -10.46648116223514 24970.357526004314 -137.82688794471323 34010.684647437185 -3201.66752140224 0 -17480.63881000504 0 -17483.356552435085 0 -17475.203325156122 0 -17477.920967478305 0 -17477.92106758058 0 -17483.356552436948 0 -17477.92096747458 0 -13942.114045932889 0 -13942.113845707849 0 -13936.678561085835 0 -13939.396103285253 0 -13942.114045938477 0 -13936.678360855207 0 -13942.113945825025 0 z" vector-effect="non-scaling-stroke" fill="#000" fill-opacity="1" stroke="#FFF" stroke-width="0.3px" stroke-linejoin="round" stroke-linecap="round"><title>Sweetwater County</title></path>
<path id="56039" d="M -12362156.863554297 -5462994.387259792 l -2.366831881925464 -7013.547768896446 -8.153327390551567 -24205.10151948314 -10.871069811284542 -24276.895769773982 -5.435484847053886 -24326.411785809323 0 -4737.373320732266 5.435484847053886 -4747.470522181131 5.435484847053886 -4749.951204269193 5.435584964230657 -4740.981113975868 0 -4758.738698154688 4.42948579415679 -2580.114331266843 42673.68810999021 -5.93352064397186 -3.563893496990204 13059.9089103695 32521.314305180684 -35.47525833453983 121.78318896889687 2273.981151441112 1620.8111180383712 2430.0978193413466 2997.5548090990633 852.3492319891229 2061.02437832579 -1264.76639761962 2657.8355530761182 2100.6363411201164 1518.7588635273278 4031.524213706143 -581.867646291852 5697.426026646979 -1605.0049748532474 7634.570612444542 1075.6799055729061 1789.5816441103816 3465.1519962213933 2154.015320449136 207.7218358591199 2340.7570306658745 2780.7599894590676 2579.060305462219 339.3011400233954 5023.319396262988 2543.5938143245876 2123.850042389706 1282.122798807919 259.0176182491705 1467.5909430757165 823.0993499495089 3424.37886717543 1380.1077459389344 1259.229265972972 1076.0860581295565 905.5110213495791 1781.0731890546158 924.4480558168143 4242.666846418753 1635.1862050928175 3465.64689111989 434.8417609129101 1580.6069413879886 163.06566034071147 1643.541411023587 -58.884821789339185 5358.42195052281 144.94725363887846 2021.230736773461 407.66415085271 2178.6394761940464 796.1035961974412 2032.9524426246062 1299.3051446843892 2513.9147937679663 2600.5509553290904 0.423988992348313 19.814869360998273 19305.970706144348 -50.981098517775536 29895.760751396418 244.89430814236403 15.421059968881309 -43.96529893577099 33693.10083899088 29.1556878387928 20093.113935615867 -656.8904152382165 157.955256302841 17.914311690256 13178.422816275619 -21532.08738840185 -120.39941599685699 -10406.352830965072 97.40513226017356 28.608329897746444 13277.361989412457 -26095.405493380502 -72.7913641417399 -30.71805688738823 8624.15526588168 -26197.70832805708 7.026799536310136 0.669252775609493 -12343.121048210189 -26366.551675764844 28.90152908395976 -4.66267323680222 -13672.5780848274 -5.020156029611826 -14739.141402792186 -3.13307124748826 -9210.568298532628 -8.153327383100986 -24015.604630801827 -8.153227277100086 -24082.031066163443 z" vector-effect="non-scaling-stroke" fill="#000" fill-opacity="1" stroke="#FFF" stroke-width="0.3px" stroke-linejoin="round" stroke-linecap="round"><title>Teton County</title></path>
<path id="56041" d="M -12362031.49559121 -5049283.825088011 l 0 -9261.969965381548 -2.717842534184456 -9259.99234234821 -5.435584958642721 -9276.137676157989 0 -9285.07444347255 0 -9290.4074372584 -1.513045953586698 -2589.739925729111 37513.18918097578 133.1428181035444 37560.746540199965 -15.323885574936867 36480.79207749292 241.05077509582043 -86.67469136416912 11225.429170507006 -29.50356123968959 37912.47066553868 99.87516657449305 36433.31800354645 -13939.396103285253 0 -13939.39630350843 0 -13942.113845707849 0 -13939.396303517744 0 -13936.678360853344 0 -13942.113945826888 0 -13942.114045931026 0 -13936.678360862657 0 0 -14.404282968491316 0 -14.404304309748113 -8.153227275237441 -3.601046249270439 -2.717742424458265 -9223.11853078194 0 -9228.279880412854 0 -9237.069942539558 z" vector-effect="non-scaling-stroke" fill="#000" fill-opacity="1" stroke="#FFF" stroke-width="0.3px" stroke-linejoin="round" stroke-linecap="round"><title>Uinta County</title></path>
<path id="56043" d="M -12083792.013334729 -5491547.053295025 l 40127.105190386996 34.76810771599412 52019.58613651618 54.16824723780155 1106.738043507561 222.23251022771 18678.961047003046 -8.843565209768713 18860.63434466906 -213.38444445002824 25472.11998338066 343.90212861727923 2028.6858436148614 -4.034532905556262 -47.3136778883636 25682.844466716982 154.3969054631889 28430.695260676555 1485.2242008876055 -20.055557961575687 71.24002132564783 40072.146816304885 323.4933270495385 8520.489555047825 -15572.479893526062 -205.34092248231173 -31645.11992898211 40.20525857061148 -6702.3206734173 -5.368477028794587 -5.786164492368698 -22284.325194730423 -13476.445757977664 102.14663089904934 38.07282432354987 -13482.857739015482 -26794.70674217865 -15.717372621409595 14.361772783100605 -13138.655575622804 -24175.137041425332 -44.28168283589184 -2478.639002768323 -1370.5915425820276 1176.8139969240874 -3150.4481848329306 -13846.304543502629 251.67563084699214 37.404239462688565 -8746.135533312336 -13300.449754355475 -15.297115137800574 197.593654634431 -13714.447624245659 -6942.66112383455 29.70748395472765 -91.61449376866221 -13610.636366193183 -6735.272912485525 55.3200464034453 z" vector-effect="non-scaling-stroke" fill="#000" fill-opacity="1" stroke="#FFF" stroke-width="0.3px" stroke-linejoin="round" stroke-linecap="round"><title>Washakie County</title></path>
<path id="56045" d="M -11583385.988090014 -5442794.135356948 l 20.19818252697587 15920.616761924699 21.742039509117603 19239.307343808003 13.588812233880162 19195.603767722845 -34271.566305585206 -265.12097816262394 -41305.977596020326 49.25916332285851 -18498.845888260752 321.5105525068939 -20021.473438056186 183.38545377459377 -219.63190818578005 -14385.849653546698 117.44484577514231 -24294.60775084328 -77.0318631157279 -11866.732792775147 234.0886364914477 -54049.69027472008 39677.17351590842 -481.14041256252676 39479.22519737668 -253.01098747737706 34874.20500115305 83.04676617030054 28.19566812366247 6097.954307339154 11.371758868917823 2458.252708078362 -10.870969694107771 19364.53217300307 -76.09738856740296 19320.0073442813 z" vector-effect="non-scaling-stroke" fill="#000" fill-opacity="1" stroke="#FFF" stroke-width="0.3px" stroke-linejoin="round" stroke-linecap="round"><title>Weston County</title></path>
</svg>
