<svg xmlns="http://www.w3.org/2000/svg" xmlns:xlink="http://www.w3.org/1999/xlink" height="400" width="400" viewBox="60.4857421875 -38.456396484375 14.40556640625 9.064453125"><path d="M 66.522 -37.348 l 0.305 -0.023 0.241 0.036 0.127 0.1 0.124 0.026 0.122 -0.048 0.076 -0.009 0.029 0.031 0.061 0.013 0.093 -0.005 0.053 0.027 0.006 0.028 0.007 0.032 0.068 0.076 0.124 0.092 0.11 0.022 0.144 -0.072 0.049 0.008 0.024 -0.023 0.015 -0.052 0.087 -0.049 0.16 -0.046 0.091 -0.041 0.032 -0.034 0.054 -0.01 0.059 0.01 0.042 -0.013 0.015 -0.032 0.017 -0.014 0.03 -0.011 0.027 -0.006 0.049 0.009 0.09 0.059 0.13 0.108 0.085 0.05 0.039 -0.009 0.05 -0.033 0.061 -0.058 0.015 -0.083 -0.03 -0.108 0.021 -0.087 0.072 -0.066 0.134 -0.041 0.195 -0.016 0.12 0.009 0.044 0.034 0.06 0.019 0.075 0.004 0.069 -0.039 0.063 -0.082 0.004 -0.101 -0.056 -0.121 0.015 -0.038 0.024 -0.017 0.075 -0.044 0.104 -0.091 0.101 -0.117 0.097 -0.142 0.12 -0.088 0.143 -0.034 0.173 0.039 0.204 0.111 0.077 0.137 -0.05 0.162 -0.004 0.09 0.041 0.017 0.07 -0.004 0.098 -0.026 0.064 -0.001 0.03 0.023 -0.002 0.046 -0.034 0.069 -0.041 0.193 -0.025 0.167 -0.025 0.164 -0.022 0.144 0.039 0.112 0.059 0.17 0.067 0.112 0.068 0.036 0.068 0.013 0.068 -0.01 0.14 -0.072 0.212 -0.134 0.205 -0.082 0.299 -0.046 0.1 -0.144 0.138 -0.095 0.316 -0.141 0.172 -0.054 0.098 -0.009 0.123 0.026 0.028 0.009 0.025 0.007 0.063 0.012 0.013 0.043 -0.017 0.046 -0.068 0.038 -0.021 0.03 0.026 0.022 0.096 0.008 0.199 -0.051 0.129 -0.033 0.089 -0.013 0.036 -0.043 0.056 -0.043 0.089 -0.003 0.096 0.023 0.079 0.013 0.135 -0.012 0.071 0.037 0.1 0.071 0.045 0.044 0.016 0.01 -0.051 0.007 -0.073 -0.024 -0.028 -0.036 -0.012 -0.005 -0.058 0.024 -0.11 0.03 -0.187 0.079 0.004 0.02 0.122 0.08 0.029 0.027 0.015 0.008 -0.11 0.038 -0.236 0.087 -0.156 0.071 -0.037 0.003 -0.094 -0.03 -0.139 -0.036 -0.037 0.001 -0.321 0.006 -0.294 0.013 -0.123 0.017 -0.228 0.017 -0.143 0.005 -0.092 0.028 -0.1 0.036 -0.104 0.023 -0.077 0.008 -0.093 0.034 -0.061 0.067 -0.175 0.1 -0.098 0.048 -0.05 0.054 -0.056 0.005 -0.096 -0.01 -0.075 0.059 -0.083 0.084 -0.151 0.122 -0.08 0.049 -0.048 0.08 0.035 0.041 0.123 0.062 0.055 0.058 0.03 0.046 0.056 0.119 0.035 0.117 0.053 0.051 0.015 0.086 0.013 0.053 -0.029 0.038 -0.026 0.042 0 0.04 0.032 0.041 0.028 0.036 0.015 0.029 -0.019 0.032 -0.056 0.049 -0.028 0.05 -0.062 0.084 -0.097 0.057 -0.064 0.042 -0.068 0.088 -0.113 0.098 -0.048 0.082 -0.049 0.045 -0.051 0.024 0.013 0.044 0.044 0.055 0.073 0.062 -0.003 0.096 -0.003 0.069 0.002 0.084 -0.04 0.071 -0.203 0.068 -0.194 0.03 -0.238 0.002 -0.09 -0.011 -0.072 -0.015 -0.259 -0.076 -0.105 0.045 -0.022 0.11 0.189 0.178 0.078 0.099 0.086 0.166 0.064 0.086 -0.023 0.08 -0.171 0.091 -0.17 0.086 -0.216 0.018 -0.136 0.031 -0.066 0.044 -0.048 0.187 -0.049 0.069 0.001 0.082 -0.046 0.092 -0.07 0.06 -0.049 0.097 0.015 0.184 0.023 0.313 -0.092 0.099 -0.104 0.1 -0.11 0.071 -0.104 0.033 -0.087 -0.012 -0.069 -0.062 -0.04 -0.052 -0.076 -0.043 -0.077 0.009 -0.077 0.04 -0.123 -0.013 -0.106 -0.04 -0.053 0.004 -0.031 0.04 -0.113 0.085 -0.277 0.13 -0.113 0.009 -0.049 0.032 0.019 0.053 0.05 0.043 0.086 0.031 0.004 0.035 -0.076 0.031 -0.065 0.035 -0.144 0.043 -0.166 0.017 -0.171 -0.025 -0.088 -0.057 -0.103 -0.005 -0.095 0.042 -0.098 0.069 -0.107 0.148 -0.028 0.026 -0.029 0.023 -0.069 0.032 -0.1 0.052 -0.05 0.109 -0.06 0.195 0.014 0.105 0.004 0.182 -0.024 0.128 -0.043 0.084 0.009 0.066 0.066 0.075 -0.026 0.049 -0.056 0.054 -0.054 0.03 -0.215 0.057 -0.295 0.078 -0.195 0.05 -0.291 0.074 -0.085 0.018 -0.177 0.007 -0.092 -0.011 -0.124 -0.003 -0.182 0.003 -0.127 0.02 -0.128 0.037 -0.094 0.047 -0.054 0.046 -0.019 0.022 -0.128 -0.038 -0.403 -0.068 -1.091 0.09 -0.103 -0.017 -0.372 -0.105 -0.479 -0.135 -0.297 -0.084 -0.381 -0.109 0.261 -0.27 0.228 -0.235 0.228 -0.236 0.225 -0.233 0.027 -0.081 0.003 -0.159 -0.059 -0.213 -0.095 -0.097 -0.314 -0.039 -0.236 -0.029 -0.257 -0.032 -0.033 -0.012 -0.029 -0.165 0.013 -0.074 -0.017 -0.143 0.002 -0.11 0.037 -0.181 0.002 -0.081 -0.119 -0.351 -0.066 -0.194 -0.068 -0.2 -0.015 -0.064 -0.001 -0.079 0.158 -0.186 0.049 -0.04 0.092 -0.092 0.058 -0.049 -0.01 -0.034 -0.1 -0.02 -0.152 -0.002 -0.081 -0.028 -0.063 -0.051 -0.025 -0.073 0.041 -0.13 -0.041 -0.253 0.084 -0.125 0.072 -0.088 0.247 -0.012 -0.086 -0.099 -0.041 -0.057 -0.026 -0.017 -0.01 -0.026 0.013 -0.026 0.063 -0.01 0.043 -0.033 0.069 -0.046 0.036 -0.02 0.007 -0.056 0.033 -0.04 0.05 -0.05 0.04 -0.056 -0.01 -0.066 0.036 -0.079 0.017 -0.05 0.026 -0.043 -0.023 -0.063 -0.02 -0.053 -0.007 -0.063 0.04 -0.017 0.05 -0.023 0.01 -0.05 0.026 -0.063 0.02 -0.05 0.033 -0.04 0.003 -0.04 -0.02 -0.066 0.083 -0.01 0.033 0.036 0.044 0.047 0.121 0.088 0.078 0.026 0.099 0.013 0.121 -0.012 0.097 -0.016 0.046 0.004 0.106 0.064 0.123 0.09 0.04 0.04 0.018 0.061 0.037 0.018 0.079 -0.06 0.076 -0.02 0.07 0.011 0.077 0.007 0.078 -0.022 0.035 -0.016 0.135 -0.078 0.122 -0.06 0.076 -0.037 0.028 -0.122 0.035 -0.069 0.05 -0.041 -0.019 -0.05 -0.021 -0.038 -0.021 -0.052 0.021 -0.027 0.049 -0.012 0.123 0 0.215 -0.055 0.18 -0.055 0.166 -0.045 0.076 -0.007 0.072 0.008 0.033 -0.013 0.009 -0.043 0.041 -0.045 0.092 -0.036 0.174 -0.077 0.153 -0.115 0.055 -0.087 0.037 -0.127 0.072 -0.196 0.079 -0.215 0.029 -0.094 0.034 -0.073 0.135 -0.061 0.138 -0.044 0.214 -0.009 0.251 -0.004 0.053 -0.117 0.033 -0.099 0.042 -0.051 0.061 -0.042 0.021 -0.008 0.136 0.061 0.208 0.093 0.242 0.047 0.122 0.023 z" vector-effect="non-scaling-stroke" fill="#000" fill-opacity="1" stroke="#FFF" stroke-width="0px" stroke-linejoin="round" stroke-linecap="round"/></svg>
