<svg xmlns="http://www.w3.org/2000/svg" xmlns:xlink="http://www.w3.org/1999/xlink" height="400" width="400" viewBox="19.322265625 -42.64794921875 1.70878906250002 2.99443359375"><path d="M 19.342 -41.869 l 0.003 -0.05 0.016 -0.079 -0.009 -0.026 0.009 -0.045 -0.02 -0.04 0.053 0.021 0.073 0.009 0.013 -0.029 -0.03 -0.048 -0.059 -0.071 -0.028 -0.062 -0.005 0.002 0.041 -0.054 0.066 -0.073 0.079 -0.077 0.053 -0.073 0.057 -0.063 0.049 -0.019 0.024 0.013 0.013 0.028 -0.003 0.082 0.017 0.028 0.034 0.021 0.071 -0.01 0.079 -0.02 0.107 -0.043 0.018 0.003 0.04 0.023 0.082 0.099 0.055 0.087 0.108 0.03 0.06 0.034 0.077 0.052 0.037 0.052 0.053 0.158 0.006 0.096 -0.015 0.044 -0.013 0.011 -0.048 0.156 0.011 0.079 0 0.052 -0.041 0.021 -0.027 0.033 0.044 0.13 -0.005 0.055 0.002 0.063 0.079 0.145 0.047 0.045 0.042 0.021 0.053 0.133 0.032 0.023 0.129 -0.013 0.063 0.015 0.025 0.032 0.006 0.022 -0.008 0.075 0.032 0.058 0.043 0.059 0 0.036 -0.029 0.059 -0.052 0.069 -0.069 0.026 -0.076 0.022 -0.036 0.054 -0.018 0.057 -0.034 0.042 -0.021 0.046 -0.032 0.095 -0.008 0.034 -0.051 0.035 -0.079 0.014 -0.071 0.003 -0.048 0.016 -0.024 0.032 -0.045 0.026 -0.027 0.012 0 0.029 0.033 0.06 0.037 0.049 0.001 0.039 -0.018 0.011 -0.058 -0.005 -0.012 0.014 -0.006 0.044 -0.016 0.037 -0.024 0.023 -0.041 0.025 -0.076 -0.008 -0.071 -0.037 -0.037 -0.012 -0.021 0.001 -0.006 -0.092 -0.031 -0.071 -0.113 -0.171 -0.367 -0.166 -0.086 -0.075 -0.038 -0.063 -0.038 -0.059 0.036 -0.002 0.036 0.015 0.046 0.018 0.019 -0.03 -0.02 -0.065 -0.095 -0.152 -0.007 -0.042 0.046 -0.127 0.077 -0.143 -0.005 -0.173 0.024 -0.13 -0.027 -0.085 -0.013 -0.104 0.057 -0.138 0.048 -0.034 0.03 -0.044 0.002 -0.147 -0.109 -0.069 z" vector-effect="non-scaling-stroke" fill="#000" fill-opacity="1" stroke="#FFF" stroke-width="0px" stroke-linejoin="round" stroke-linecap="round"/></svg>
