<svg xmlns="http://www.w3.org/2000/svg" xmlns:xlink="http://www.w3.org/1999/xlink" height="400" width="400" viewBox="-8.683349609375 -37.0923828125 20.651220703125 18.10576171875"><path d="M 8.577 -36.937 l 0.021 0.053 0.004 0.05 -0.095 0.046 -0.063 0.027 -0.075 0.128 -0.139 0.087 -0.023 0.026 0.001 0.024 0.094 0.04 0.031 0.037 0.015 0.05 -0.042 0.179 -0.026 0.138 -0.035 0.18 0.001 0.069 0.036 0.083 0.035 0.064 0.011 0.073 -0.013 0.179 0.043 0.104 0.034 0.096 -0.082 0.119 -0.035 0.105 -0.022 0.151 -0.009 0.095 -0.053 0.088 -0.069 0.082 -0.078 0.051 -0.096 0.044 -0.111 0.058 -0.09 0.156 -0.194 0.129 -0.041 0.044 -0.018 0.104 0.005 0.144 0.034 0.115 0.093 0.169 0.082 0.186 0.022 0.094 0.031 0.035 0.115 0.061 0.198 0.083 0.037 0.034 0.098 0.129 0.093 0.23 0.029 0.153 0.182 0.121 0.168 0.112 0.161 0.098 0.175 0.107 0.025 0.033 0.058 0.226 0.058 0.225 0.064 0.248 0.064 0.248 0.075 0.292 0.043 0.166 0.052 0.201 0.061 0.236 -0.098 0.05 -0.111 0.064 0.081 0.122 0.155 0.198 0.094 0.16 0.033 0.069 0.073 0.198 0.059 0.192 0.015 0.062 0.022 0.148 -0.027 0.407 0.043 0.517 0.058 0.258 -0.091 0.233 -0.078 0.222 0.005 0.112 0.043 0.175 0.042 0.129 0.057 0.068 -0.011 0.217 -0.024 0.079 -0.174 0.114 -0.194 0.104 -0.054 0.088 -0.016 0.098 0.026 0.08 0.133 0.177 0.2 0.266 0.22 0.292 0.018 0.074 0.009 0.208 0.091 0.261 0.099 0.114 0.037 0.085 0.07 0.061 0.07 0.045 0.043 0.005 0.247 -0.071 0.422 0.117 0.399 0.12 0.029 0.024 0.087 0.151 0.143 0.247 0.106 0.198 0.095 0.177 -0.518 0.305 -0.518 0.305 -0.518 0.305 -0.518 0.305 -0.518 0.305 -0.518 0.305 -0.518 0.305 -0.518 0.305 -0.343 0.202 -0.218 0.179 -0.274 0.224 -0.259 0.222 -0.204 0.175 -0.264 0.227 -0.133 0.114 -0.294 0.253 -0.088 0.045 -0.39 0.075 -0.357 0.068 -0.33 0.063 -0.226 0.043 -0.218 0.042 -0.317 0.059 -0.227 0.042 -0.245 0.045 -0.038 0.008 -0.044 0.002 -0.033 -0.002 -0.067 -0.025 -0.082 -0.06 -0.054 -0.03 -0.014 -0.047 0.032 -0.062 0.039 -0.056 0.015 -0.044 0.027 -0.033 0.035 -0.027 0.001 -0.038 -0.029 -0.063 -0.025 -0.087 0.001 -0.158 0.001 -0.052 0 -0.019 -0.073 -0.06 -0.138 -0.066 -0.127 -0.039 -0.058 -0.013 -0.14 -0.023 -0.194 -0.042 -0.068 -0.029 -0.125 -0.146 -0.062 -0.038 -0.291 -0.025 -0.096 -0.024 -0.079 -0.035 -0.068 -0.047 -0.038 -0.08 -0.011 -0.066 -0.025 -0.031 -0.32 -0.158 -0.081 -0.054 -0.043 -0.05 -0.002 -0.074 0.009 -0.091 -0.014 -0.081 -0.014 -0.04 -0.146 -0.096 -0.328 -0.214 -0.327 -0.214 -0.327 -0.214 -0.328 -0.214 -0.327 -0.214 -0.327 -0.214 -0.327 -0.214 -0.327 -0.214 -0.327 -0.214 -0.327 -0.214 -0.328 -0.214 -0.327 -0.214 -0.327 -0.214 -0.327 -0.214 -0.327 -0.214 -0.328 -0.214 -0.277 -0.181 -0.306 -0.191 -0.227 -0.14 -0.225 -0.139 -0.242 -0.149 -0.158 -0.093 -0.188 -0.111 -0.188 -0.111 -0.188 -0.111 -0.188 -0.111 -0.188 -0.111 -0.188 -0.111 -0.188 -0.111 -0.188 -0.111 -0.188 -0.111 -0.188 -0.111 -0.188 -0.111 -0.188 -0.111 -0.188 -0.111 -0.188 -0.111 -0.188 -0.111 -0.188 -0.111 0 -0.204 0 -0.166 0 -0.244 0 -0.212 0 -0.212 0 -0.146 0 -0.152 0.005 -0.069 0.019 -0.029 0.102 -0.049 0.159 -0.112 0.059 -0.05 0.075 -0.05 0.266 -0.152 0.055 -0.042 0.259 -0.175 0.061 -0.026 0.139 -0.017 0.058 -0.033 0.078 -0.07 0.115 -0.08 0.075 -0.038 0.018 -0.007 0.048 -0.006 0.239 0.024 0.1 0.018 0.12 0.015 0.038 -0.01 0.032 -0.025 0.045 -0.056 0.01 -0.066 0.003 -0.058 0.007 -0.025 0.021 -0.011 0.052 0.004 0.07 0.008 0.143 -0.002 0.048 -0.008 0.162 -0.012 0.229 -0.038 0.182 -0.049 0.145 -0.039 0.155 -0.102 0.114 -0.108 0.118 -0.16 0.094 -0.139 0.19 -0.087 0.159 -0.052 0.09 -0.021 0.206 -0.073 0.174 -0.111 0.163 -0.104 0.125 -0.014 0.158 -0.017 0.035 -0.02 0.04 -0.037 0.002 -0.065 -0.048 -0.046 -0.058 -0.024 -0.041 -0.026 -0.041 -0.005 -0.022 -0.031 0.012 -0.058 0.006 -0.053 0.026 -0.053 -0.007 -0.075 -0.041 -0.075 -0.012 -0.054 0.003 -0.053 0.02 -0.042 0.059 -0.028 0.068 -0.011 0.096 0.013 0.165 -0.018 0.422 -0.13 0.029 -0.04 0.027 -0.09 0.03 -0.079 0.044 -0.026 0.024 -0.006 0.141 -0.021 0.199 -0.03 0.075 -0.004 0.217 0.009 0.158 0.006 0.256 0.01 0.182 0.005 0.158 0.005 0.202 0.006 0.049 -0.018 0 -0.057 -0.036 -0.107 0.022 -0.066 0.078 -0.062 0.097 -0.069 -0.046 -0.084 -0.077 -0.056 -0.108 -0.067 -0.056 -0.028 -0.098 -0.081 -0.06 -0.093 -0.041 -0.196 -0.074 -0.11 -0.054 -0.135 0.048 -0.248 -0.072 -0.15 -0.011 -0.065 -0.001 -0.076 0.022 -0.132 -0.014 -0.186 -0.085 -0.192 0.04 -0.065 0.019 -0.034 -0.006 -0.029 -0.077 -0.061 -0.033 -0.05 0.017 -0.047 0.04 -0.069 -0.003 -0.029 -0.125 -0.084 -0.211 -0.135 -0.059 -0.059 -0.029 -0.074 0.202 0.019 0.104 -0.009 0.24 -0.089 0.19 -0.12 0.148 -0.061 0.13 -0.131 0.118 -0.083 0.17 -0.09 0.491 -0.193 0.075 -0.002 0.162 0.044 0.141 -0.014 0.096 -0.068 0.104 -0.163 0.161 -0.099 0.203 -0.099 0.276 -0.095 0.181 -0.087 0.286 -0.076 0.717 -0.048 0.368 -0.043 0.25 0.01 0.253 -0.138 0.126 -0.046 0.548 -0.011 0.258 -0.101 0.979 0 0.12 0.034 0.118 0.054 0.2 0.131 0.1 0.029 0.129 -0.027 0.301 -0.124 0.339 -0.065 0.184 -0.074 0.079 -0.108 0.159 -0.04 0.089 0.083 0.352 0.084 0.216 -0.024 0.095 -0.025 -0.034 -0.124 0.228 0.033 0.175 0.06 0.184 0.119 0.119 0.024 0.217 -0.054 z" vector-effect="non-scaling-stroke" fill="#000" fill-opacity="1" stroke="#FFF" stroke-width="0px" stroke-linejoin="round" stroke-linecap="round"/></svg>
