<svg xmlns="http://www.w3.org/2000/svg" xmlns:xlink="http://www.w3.org/1999/xlink" height="400" width="400" viewBox="11.74306640625 4.42890625000001 12.30361328125 13.5908203125"><path d="M 13.073 4.635 l -0.015 0.016 -0.11 0.044 -0.118 0.041 -0.155 0.169 -0.079 0.073 -0.023 0.018 -0.071 0.04 -0.051 0.035 0.002 0.019 0.034 0.022 0.035 0.036 -0.003 0.276 -0.015 0.271 -0.019 0.023 -0.099 0.009 -0.131 0.019 -0.042 0.012 -0.015 -0.027 -0.044 -0.099 0.025 -0.094 0.026 -0.07 -0.029 -0.143 -0.067 -0.128 -0.071 -0.162 -0.022 -0.031 0.059 -0.052 0.09 -0.114 0.037 -0.059 0.104 -0.013 0.039 -0.041 0.027 -0.066 0.011 -0.039 0.117 -0.032 0.14 -0.056 0.078 -0.061 0.079 -0.039 0.05 -0.002 0.033 0.016 0.09 0.107 0.077 0.067 z M 23.967 10.872 l 0.022 0.131 0.022 0.182 0.016 0.131 0.016 0.058 0.005 0.031 -0.017 0.034 -0.015 0.079 -0.028 0.07 -0.016 0.049 0.013 0.089 -0.01 0.128 -0.011 0.135 -0.003 0.13 0.038 0.233 -0.005 0.071 -0.047 0.122 -0.035 0.092 -0.023 0.107 -0.004 0.056 0.086 0.158 -0.005 0.032 -0.066 0.01 -0.054 0.003 -0.207 0 -0.297 0 -0.297 0 -0.297 0 -0.273 0 -0.261 0 -0.231 0 0 0.156 0 0.321 0 0.321 0 0.321 0 0.321 0 0.321 0 0.321 0 0.321 0 0.321 0 0.231 0.06 0.307 0.11 0.334 0.043 0.031 0.111 0.061 0.154 0.126 0.087 0.095 0.176 0.165 0.234 0.21 0.226 0.189 0.199 0.166 -0.312 0.058 -0.444 0.083 -0.3 0.056 -0.363 0.068 -0.242 0.043 -0.302 0.053 -0.048 -0.001 -0.081 -0.037 -0.174 -0.007 -0.205 0.05 -0.163 0.014 -0.12 -0.023 -0.117 -0.044 -0.115 -0.065 -0.199 -0.024 -0.283 0.018 -0.272 -0.013 -0.262 -0.043 -0.188 -0.017 -0.113 0.009 -0.121 -0.014 -0.129 -0.037 -0.108 -0.063 -0.13 -0.133 -0.102 -0.127 -0.026 -0.018 -0.032 -0.019 -0.032 -0.006 -0.288 -0.003 -0.273 -0.003 -0.157 0 -0.383 -0.001 -0.383 -0.001 -0.383 -0.001 -0.383 -0.001 -0.383 -0.001 -0.383 0 -0.383 -0.001 -0.383 -0.001 -0.203 0 -0.189 0.01 -0.208 0.011 -0.03 -0.005 -0.049 -0.015 -0.034 -0.028 -0.112 -0.072 -0.098 -0.055 -0.133 -0.092 -0.086 -0.101 -0.072 -0.032 -0.128 -0.018 -0.096 -0.018 -0.078 -0.004 -0.138 0.048 -0.104 0.047 -0.074 0.046 -0.129 0.052 -0.108 0.052 -0.189 -0.007 -0.041 0.008 -0.105 -0.003 -0.099 -0.045 -0.1 0.004 -0.111 0.058 -0.159 0.023 0.037 -0.378 0.039 -0.167 0.001 -0.2 -0.023 -0.518 -0.028 -0.071 -0.019 -0.083 0.099 -0.064 0.05 -0.049 0.068 -0.086 0.048 -0.12 0.057 -0.265 0.207 -0.611 0.098 -0.598 0.125 -0.284 0.047 -0.318 0.347 -0.41 0.086 -0.252 0.179 -0.124 0.254 -0.132 0.181 -0.234 0.088 -0.162 0.1 -0.311 -0.001 -0.325 0.063 -0.434 -0.014 -0.125 -0.095 -0.173 -0.018 -0.124 -0.088 -0.121 -0.094 -0.092 -0.044 -0.164 -0.163 -0.258 -0.045 -0.172 -0.078 -0.124 -0.013 -0.153 -0.041 -0.161 -0.08 -0.159 -0.077 -0.182 0 -0.057 0.048 -0.069 0.046 -0.023 -0.016 0.035 -0.031 0.041 0.007 0.032 0.305 -0.32 0.019 -0.063 -0.01 -0.07 -0.002 -0.086 0.012 -0.1 -0.288 -0.59 -0.229 -0.548 -0.039 -0.277 -0.302 -0.364 -0.119 -0.237 -0.068 -0.166 -0.051 -0.063 0.019 -0.032 0.078 -0.008 0.173 -0.038 0.237 -0.042 0.219 -0.096 0.058 -0.043 0.116 -0.009 0.118 0.026 0.044 -0.018 0.025 -0.002 0.278 0 0.116 -0.007 0.214 0.002 0.135 0.008 0.077 0.011 0.208 0.017 0.259 -0.004 0.092 -0.009 0.34 -0.006 0.336 -0.006 0.302 -0.005 0.333 0.001 0.255 0.001 0.116 0.035 0.106 0.066 0.048 0.059 0.023 0.026 0.032 0.063 0.058 0.05 0.021 0.077 -0.017 0.105 0.008 0.126 0.034 0.147 0.07 0.154 0.106 0.161 0.046 0.128 -0.014 0.095 0.033 0.1 0.079 0.106 0.058 0.056 0.033 0.042 0.09 0.162 0.166 0.259 0.125 0.194 0.044 0.023 0.064 -0.008 0.135 -0.019 0.134 -0.004 0.096 0.04 0.038 -0.007 0.144 -0.077 0.143 -0.024 0.15 -0.032 0.078 -0.033 0.091 0 0.245 0.062 0.046 0.003 0.198 0 0.198 -0.035 0.029 -0.26 0.002 -0.051 0.048 -0.098 0.061 -0.085 0.008 -0.081 -0.004 -0.111 0.044 -0.135 0.133 -0.107 0.215 -0.051 0.122 -0.01 0.193 -0.03 0.292 -0.03 0.108 0.004 0.009 0.015 -0.062 0.187 -0.001 0.061 0.023 0.062 0.049 0.033 0.303 0.004 0.279 0.004 0.321 0.012 0.24 0.009 0.031 0.009 0.024 0.014 0.036 0.092 -0.008 0.181 -0.054 0.264 0.021 0.246 0.095 0.229 0.009 0.352 -0.033 0.21 -0.042 0.265 -0.016 0.3 0.043 0.125 0.092 0.131 0.141 0.137 0.109 0.178 0.077 0.218 0.028 0.138 -0.021 0.057 0.002 0.098 0.024 0.14 -0.027 0.093 -0.077 0.046 -0.026 0.063 0.039 0.12 0.009 0.109 0.03 0.042 0.022 0.03 0.036 0.004 0.078 -0.039 0.093 -0.073 0.075 -0.031 0.105 0.004 0.148 0.021 0.262 0.008 0.08 -0.013 0.243 -0.098 0.064 -0.007 0.096 0.009 0.136 0.029 0.138 0.006 0.067 -0.03 0.006 -0.04 0.021 -0.052 z" vector-effect="non-scaling-stroke" fill="#000" fill-opacity="1" stroke="#FFF" stroke-width="0px" stroke-linejoin="round" stroke-linecap="round"/></svg>
