<svg xmlns="http://www.w3.org/2000/svg" xmlns:xlink="http://www.w3.org/1999/xlink" height="400" width="400" viewBox="-180.0 60.5208984375 360.0 29.47802734375"><path d="M -45.718 60.521 l 0.218 0.026 0.113 0.036 0.029 0.041 0.129 0.016 0.017 0.008 0.025 0.024 0.014 0.027 -0.001 0.034 -0.224 -0.083 -0.311 -0.004 -0.071 -0.059 -0.157 0.034 -0.017 -0.022 -0.002 -0.029 0.021 -0.042 0.101 0.017 z M -90.536 68.798 l -0.011 0.001 -0.019 0 -0.014 0 -0.014 0.002 -0.014 0.002 -0.008 0.001 -0.003 0 -0.003 -0.002 -0.005 -0.004 -0.01 -0.009 -0.009 -0.009 -0.005 -0.009 0.004 -0.011 0.011 -0.005 0 -0.007 0 -0.009 0.005 -0.008 0.003 -0.008 -0.001 -0.005 0.003 -0.003 0.009 -0.002 0.017 0 0.01 0.001 0.019 0.001 0.009 0.001 0.013 0.003 0.013 0.01 0.01 0.01 0 0.004 0.002 0.006 0.002 0.007 0.002 0.008 0.004 0.007 -0.003 0.012 -0.008 0.012 -0.007 0.002 z M -57.021 63.373 l 0.093 0.133 0.146 0.066 -0.053 0.06 -0.139 -0.007 -0.146 0.013 -0.033 -0.066 0.055 -0.048 -0.055 -0.044 -0.132 0.012 -0.177 0.023 -0.121 0.033 -0.155 0.07 -0.12 0.04 -0.406 0.107 -0.269 0.152 -0.191 0.162 -0.116 0.109 -0.166 0.008 -0.042 0.04 0.07 0.031 0.054 0.013 0.124 0.013 -0.02 0.046 -0.086 0.013 0.01 0.037 0.09 0.056 0.02 0.079 -0.106 0.013 -0.159 -0.086 -0.179 -0.008 -0.14 -0.04 -0.091 -0.058 -0.086 0.013 -0.065 0.081 0.039 0.091 -0.073 0.053 -0.088 -0.025 -0.031 -0.108 -0.085 -0.018 -0.113 -0.002 -0.279 0.116 -0.098 0.004 -0.053 0.059 -0.162 0.067 -0.104 0.053 -0.255 0.178 -0.144 0.074 -0.272 0.043 -0.108 -0.006 -0.064 -0.018 -0.1 -0.012 -0.1 -0.001 -0.033 0.046 0.159 0.152 -0.086 0.053 -0.192 -0.003 -0.092 -0.043 -0.077 0.04 -0.06 0.041 -0.061 0.058 0.092 0.125 0.15 0.057 0.108 0.009 0.04 0.046 -0.235 0.02 -0.159 0.11 -0.072 0.076 -0.083 0.065 0.012 0.076 0.124 0.115 0.164 0.082 0.166 0.007 0.214 -0.025 0.05 -0.023 0.216 -0.013 0.093 -0.079 0.068 -0.005 0.061 0.014 0.098 0.003 0.051 -0.052 0.075 -0.019 0.1 0.013 0.195 -0.001 0.053 0.046 -0.06 0.053 -0.119 0.073 -0.112 -0.04 -0.099 0.007 -0.054 0.039 0.107 0.08 -0.04 0.073 -0.086 0.073 -0.106 -0.046 -0.015 -0.079 -0.143 -0.047 -0.139 -0.02 -0.094 0.081 -0.15 0.024 -0.021 0.094 -0.06 0.086 -0.086 -0.026 -0.033 -0.107 -0.241 -0.087 -0.125 -0.012 -0.253 0.022 -0.089 -0.002 -0.099 0.02 -0.073 0.073 0.105 0.054 0.035 0.072 -0.003 0.054 -0.02 0.021 -0.018 0.045 0.112 0.065 0.007 0.086 -0.092 -0.001 -0.076 -0.026 -0.292 -0.227 -0.183 -0.1 -0.078 -0.089 -0.191 -0.02 -0.138 -0.002 -0.166 0.036 0.065 0.042 0.033 0.063 -0.101 0.026 -0.125 0.097 -0.084 0.083 -0.051 0.018 -0.063 0.047 0.269 0.107 0.04 0.042 0.014 0.07 -0.085 0.039 -0.203 0.015 -0.358 -0.074 -0.153 -0.002 -0.053 -0.052 -0.079 0.007 -0.049 0.088 -0.058 0.078 -0.085 0.053 0.024 0.08 0.069 0.019 -0.053 0.032 -0.112 0.027 -0.076 0.031 0.169 0.029 0.032 0.026 0.007 0.038 -0.26 0.028 -0.169 0.007 -0.102 -0.031 -0.093 0.015 -0.06 0.051 -0.02 0.067 0.02 0.084 0.033 0.06 0.024 0.022 0.029 0.049 -0.156 0.129 -0.015 0.028 -0.011 0.059 0.072 0.054 0.058 0.079 -0.082 0.039 -0.088 0.082 0.093 0.016 0.159 0.004 0.169 -0.01 0.259 -0.072 0.074 -0.011 0.031 0.027 0.024 0.044 -0.066 0.041 -0.469 0.119 -0.087 0.049 0.121 0.027 0.242 0.006 0.093 0.038 -0.058 0.042 -0.086 0.04 -0.102 0.094 0.083 0.035 0.26 0.055 0.469 0.073 0.35 0.025 -0.078 -0.084 -0.012 -0.104 0.245 -0.085 0.128 -0.028 0.58 -0.051 0.16 0.002 0.123 0.022 -0.046 0.044 -0.135 -0.016 -0.233 0.029 -0.36 0.093 -0.066 0.04 0.026 0.073 0.304 0.06 0.099 0.046 -0.135 0.141 0.022 0.091 0.154 0.099 0.207 0.112 0.1 0.076 0.154 0.043 0.253 0.105 0.136 0.107 0.043 0.243 0.205 0.201 0.241 0.092 0.026 0.079 -0.079 0.079 -0.204 -0.046 -0.114 0.046 -0.046 0.086 0.146 0.06 0.231 0.073 0.496 -0.007 0.013 0.079 -0.114 0.047 -0.091 0.059 -0.112 0.033 -0.185 0.02 -0.046 0.073 0.079 0.099 0.259 -0.044 0.189 -0.006 0.201 0.016 0.061 0.135 0.234 0.165 0.055 0.078 -0.041 0.075 -0.145 0.023 -0.089 0.059 -0.132 0.052 -0.147 0.027 -0.274 0.137 -0.12 0.015 -0.049 0.027 0.233 0.015 0.163 0.003 0.349 -0.111 0.132 0.025 0.086 0.073 0.046 0.086 -0.086 0.073 -0.609 0.043 -0.294 0.041 -0.318 0.114 0.363 0.053 0.266 -0.018 0.135 0.02 0.182 0.04 0.203 -0.021 0.156 -0.041 0.119 0.001 0.114 0.021 0.015 0.071 0.013 0.126 0.026 0.093 -0.066 0.063 -0.317 0.045 -0.232 -0.002 -0.006 0.133 0.347 0.099 0.215 -0.053 0.192 0.026 0 0.159 0.148 0.175 0.13 0.01 0.106 -0.079 0.139 0 0.053 0.093 -0.06 0.159 -0.106 0.086 -0.282 -0.035 -0.157 -0.029 -0.126 0.06 -0.209 0.049 -0.185 0.008 -0.161 -0.078 -0.186 -0.059 -0.298 -0.031 -0.282 -0.013 0.094 0.068 0.127 0.039 0.05 0.121 0.101 0.125 0.231 -0.033 0.326 0.072 0.201 0.073 0.089 0.1 -0.112 0.159 -0.186 0.059 -0.115 0.027 -0.201 -0.061 -0.141 0 -0.146 0.028 -0.05 0.072 -0.097 0.036 0.519 0.004 0.159 0.02 0.119 0.066 -0.185 0.086 -0.344 -0.013 -0.147 0.033 -0.125 0.062 0.511 0.039 0.211 -0.022 0.337 -0.066 0.079 0.066 -0.134 0.066 -0.172 0.105 -0.359 0.033 -0.27 0.002 -0.355 -0.038 -0.094 -0.023 -0.146 -0.012 0.01 0.064 0.093 0.044 0.238 0.163 0.039 0.064 -0.073 0.086 -0.21 0.064 -0.235 0.026 -0.194 -0.056 -0.142 -0.159 -0.179 -0.046 -0.185 -0.013 -0.106 0.007 0.01 0.08 0.043 0.085 -0.073 0.06 -0.159 -0.031 -0.202 0.027 -0.192 0.047 -0.174 0.052 0.354 0.026 0.234 0.004 0.164 0.08 -0.058 0.039 -0.32 0.018 -0.306 0.035 -0.422 0.087 0.307 0.037 0.294 -0.001 0.204 0.008 0.171 0.016 0.046 0.046 -0.106 0.053 -0.689 0.128 -0.726 0.159 -0.266 0.049 -0.277 0.028 -0.644 0.137 -0.405 0.062 -1.148 0.096 -1.786 0.241 -0.611 0.171 -0.18 0.133 -0.115 0.02 -0.341 0.044 -0.344 0.021 -0.904 0.013 -0.924 -0.064 -0.749 -0.014 -0.408 0.021 -1.389 -0.115 -0.175 0.005 -0.216 0.021 -0.172 0 -0.131 -0.016 -0.281 -0.007 -0.946 0.044 -0.097 0.072 0.119 0.132 0.344 0.16 0.575 0.281 0.311 0.06 0.189 0.064 0.361 0.076 0.806 0.004 1.102 0.058 0.626 0.055 -0.023 0.104 -0.376 0.2 -0.233 0.077 -0.557 0.139 -0.77 0.068 -0.586 -0.02 -1.039 -0.114 -1.304 -0.104 -1.937 -0.098 -0.425 -0.046 -0.497 -0.045 -0.287 0.046 -0.215 0.044 -0.478 0.004 0.14 0.04 1.931 0.269 1.652 0.197 0.193 0.05 0.232 0.033 -0.02 0.126 -0.093 0.099 -0.324 0.086 -0.842 0.007 -1.055 0.069 -0.526 0.002 -0.524 -0.068 -1.113 -0.195 -0.679 -0.147 -0.474 -0.166 -0.33 -0.132 -0.367 -0.131 0.027 0.083 0.064 0.082 0.179 0.1 0.262 0.109 0.019 0.045 -0.128 0.006 -0.189 -0.052 -0.161 0.049 -0.057 0.057 0.066 0.076 0.101 0.074 0.335 0.163 0.289 0.042 0.382 0.1 0.928 0.183 0.158 0.063 0.281 0.135 0.059 0.103 0.271 0.101 0.187 0.015 0.17 -0.004 0.056 -0.087 -0.01 -0.105 0.073 -0.026 0.265 -0.026 0.696 0.036 2.957 0.021 0.281 0.062 0.113 0.078 0.074 0.162 -0.312 0.194 -0.214 0.083 -0.346 0.052 -0.318 0.039 -0.48 0.015 -0.99 -0.014 -0.968 0.001 0.753 0.093 0.731 0.077 1.016 -0.014 0.403 -0.022 0.35 -0.036 0.148 0.065 0.274 0.135 0.163 0.043 0.113 0.045 0.154 0.148 0.06 0.087 0.15 0.101 0.108 0.084 0.161 0.057 0.269 0.026 0.295 -0.049 0.573 -0.022 0.554 0.078 0.354 0.024 0.476 -0.064 0.38 -0.089 0.794 -0.082 0.149 -0.035 0.213 -0.028 0.33 0.007 0.128 0.02 0.168 0.089 0.153 0.121 0.227 0.061 0.24 0.044 0.138 0.004 0.452 0.039 0.592 -0.037 0.263 0.036 0.042 0.07 0.141 0.057 0.178 0.018 2.392 0.312 0.824 0.061 1.272 0.032 0.987 0.004 0.137 0.02 0.188 0.059 -0.376 0.042 -0.404 0.006 -0.608 -0.017 -0.215 0.009 -0.464 -0.016 -0.243 0.012 -0.22 -0.019 -0.325 0.044 -0.598 0.033 0.133 0.046 0.223 0.011 0.453 0.017 0.62 -0.008 0.053 0.075 -0.569 0.018 -1.21 0.015 -0.126 0.012 -0.092 0.04 0.181 0.018 0.109 0.022 0.057 0.052 -0.127 0.138 0.199 0.096 0.142 0.015 0.148 -0.014 0.254 0.038 0.251 0.052 0.523 0.004 0.624 -0.07 0.307 0.003 0.821 -0.044 0.744 0.008 1.043 -0.084 0.172 0.002 0.159 0.011 -0.289 0.076 -1.277 0.191 -0.458 0.037 -0.183 0.024 0.105 0.093 0.165 0.097 0.337 0.104 0.212 0.154 0.208 0.033 0.396 -0.071 0.094 0.053 0.018 0.106 -0.103 0.086 -0.133 0.048 -0.094 0.047 -0.059 0.062 0.165 0.054 0.442 0.032 0.586 0.013 0.543 0.002 0.338 0.016 1.226 -0.338 0.492 -0.162 0.241 -0.068 0.204 -0.05 1.036 -0.207 0.243 -0.063 0.274 -0.092 0.506 -0.014 0.694 -0.149 0.615 -0.116 0.246 -0.022 0.182 -0.009 0.219 -0.025 0.54 0.009 0.384 -0.019 0.684 -0.073 0.521 -0.046 0.557 -0.04 0.624 -0.008 1.668 -0.075 0.474 0.033 0.527 0.079 0.34 -0.001 0.453 -0.024 0.309 -0.032 0.139 0.093 0.073 0.119 -0.152 0.112 -0.25 0.069 -0.068 0.115 0.341 0.057 0.387 -0.017 0.745 -0.057 0.589 -0.072 0.163 -0.048 0.228 0.014 0.395 -0.061 0.489 -0.253 0.616 -0.256 0.518 -0.164 0.335 -0.19 0.278 -0.11 0.308 -0.083 0.211 -0.042 0.474 -0.007 0.679 -0.133 0.991 -0.15 0.761 0.072 0.802 0.11 0.397 -0.089 0.313 -0.015 0.266 -0.039 0.268 -0.03 0.19 -0.078 0.255 -0.067 0.194 -0.095 0.977 -0.047 1.021 -0.063 0.137 -0.022 0.134 0.013 0.351 -0.018 0.45 -0.053 0.621 -0.016 0.322 0.005 0.297 -0.142 0.59 -0.028 0.628 -0.056 0.266 -0.042 0.202 -0.01 5.089 -0.11 0.22 -0.053 0.445 -0.044 0.168 -0.106 -0.681 -0.044 -0.212 -0.044 -0.234 -0.013 -0.137 0.017 -0.588 -0.012 -4.691 -0.163 -0.1 -0.014 -0.162 -0.1 0.033 -0.181 -0.138 -0.141 -0.329 -0.039 -0.34 0.004 -0.428 0.017 -1.129 0.077 -0.452 0.007 -1.203 -0.119 -0.798 -0.133 -0.521 -0.045 -0.374 -0.089 -0.349 -0.069 -0.026 -0.159 0.085 -0.147 0.672 -0.427 0.422 -0.204 0.279 -0.017 0.257 -0.092 0.261 -0.207 0.214 -0.096 0.485 -0.114 0.214 -0.03 0.763 -0.141 0.209 -0.005 0.342 0.024 0.388 -0.127 1.187 -0.271 0.267 -0.102 0.33 -0.062 0.958 -0.228 0.854 -0.113 0.426 -0.031 0.519 -0.069 0.574 -0.103 0.501 -0.097 1.79 -0.19 1.072 -0.049 0.732 -0.057 0.517 0.033 0.514 -0.011 0.445 -0.049 0.206 -0.04 0.296 -0.102 0.994 0.048 0.642 -0.07 0.266 -0.008 0.281 -0.031 -0.111 -0.035 -0.102 -0.007 -0.1 -0.048 -0.132 -0.1 0.132 -0.127 0.1 -0.063 0.296 -0.077 0.153 -0.112 0.146 -0.164 0.487 -0.32 0.137 -0.045 0.31 -0.014 0.262 0.008 0.298 -0.004 0.757 0.083 0.141 -0.032 0.242 -0.095 0.201 -0.118 0.43 -0.174 0.085 -0.051 -0.038 -0.086 -0.648 0.037 -0.489 0.057 -0.471 -0.03 -0.062 -0.049 0.101 -0.037 0.178 -0.014 0.067 -0.058 -0.162 -0.049 -0.29 -0.028 -0.131 -0.037 0.012 -0.088 0.072 -0.13 0.156 -0.037 0.13 -0.054 0.346 -0.182 0.207 -0.055 0.589 -0.049 0.686 0.076 0.156 -0.021 0.165 -0.102 -0.168 -0.157 -0.13 -0.059 0 -0.052 0.359 0.023 0.336 0.036 0.394 -0.007 0.462 -0.156 0.652 -0.131 0.317 -0.054 0.28 -0.031 0.15 -0.131 0.225 -0.25 0.163 -0.13 -0.003 -0.08 -0.048 -0.064 -0.17 0.019 -0.154 0.009 -0.364 -0.066 -0.451 -0.106 -0.136 -0.119 -0.067 -0.105 0.144 -0.058 0.134 -0.035 0.148 -0.008 0.263 0.043 0.335 0.108 0.168 0.041 0.19 0.079 0.144 -0.007 0.166 -0.111 0.139 -0.147 0.113 -0.045 0.176 -0.049 0.197 -0.07 -0.089 -0.07 -0.209 -0.037 -0.029 -0.042 0.089 -0.047 0.172 -0.009 0.211 0.101 0.289 0.068 0.197 0.022 0.172 0.056 0.265 0.187 0.319 0.311 0.149 0.002 0.281 -0.028 0.301 -0.012 0.202 -0.089 0.045 -0.222 0.079 -0.101 -0.028 -0.102 -0.139 -0.104 -0.117 -0.077 0.019 -0.056 0.102 -0.042 0.133 -0.014 0.232 -0.042 0.357 0.048 0.193 0.009 0.291 -0.028 0.302 -0.061 0.309 -0.043 0.242 0.033 0.107 0.111 -0.121 0.112 -0.195 0.084 -0.176 0.102 -0.046 0.112 0.009 0.06 0.167 0.016 1.5 -0.014 0.197 0.011 0.258 0 0.282 0.036 0.474 -0.014 0.428 -0.039 0.202 0 0.349 0.036 0.247 0.076 0.514 -0.021 0.146 -0.025 0.138 -0.103 0.149 -0.019 0.172 0.084 0.056 0.191 0.08 0.091 0.217 0.082 0.216 -0.071 0.142 -0.083 0.339 -0.161 0.384 -0.124 0.296 -0.072 0.717 -0.122 0.356 -0.077 0.701 -0.104 0.897 -0.056 1.606 -0.189 0.531 -0.019 0.864 -0.05 0.443 -0.051 0.45 -0.041 0.276 -0.138 0.63 0.105 0.216 0.012 0.294 -0.083 0.324 -0.207 0.472 0.085 0.272 0.134 0.332 0.105 0.751 0.18 0.235 0.041 0.498 0.038 0.132 -0.03 0.234 -0.12 0.241 -0.173 0.153 -0.073 0.22 -0.061 0.247 -0.095 -0.065 -0.051 -0.141 -0.019 -0.128 -0.026 0.031 -0.052 0.439 -0.012 0.232 0.176 0.235 0.058 0.29 0.056 0.669 -0.044 0.572 -0.005 0.499 0.036 0.244 -0.007 0.218 -0.131 0.356 -0.048 0.204 0.059 0.124 0.193 0.458 0.054 0.958 0.089 0.107 -0.022 0.119 -0.103 0.081 -0.126 0.195 -0.021 0.25 -0.068 0.132 0.011 0.187 0.081 -0.064 0.199 -0.106 0.182 0.126 0.147 0.112 0.081 0.144 0.015 0.243 0.004 0.292 -0.01 0.184 0.007 0.943 -0.074 0.115 -0.163 0.151 -0.185 0.368 -0.237 0.144 0.018 0.113 0.024 0.254 0.117 0.15 0.058 0.03 0.086 -0.163 0.081 0.044 0.053 0.168 0.044 0.534 0.071 0.171 -0.014 0.257 -0.073 0.258 -0.148 0.139 -0.17 0.221 0.009 0.212 0.035 0.15 0.088 0 0.167 0.203 0.116 0.168 0.072 0.431 0.079 0.463 0.02 0.324 0.047 0.525 -0.018 0.256 -0.052 0.164 -0.014 0.289 -0.043 0.302 -0.098 0.189 -0.041 0.689 -0.09 0.525 -0.099 0.552 -0.177 0.539 -0.106 0.831 -0.054 0.229 -0.022 0.316 0.001 0.781 -0.126 0.297 -0.074 0.165 -0.025 0.188 -0.091 0.102 -0.176 0.078 -0.109 -0.013 -0.107 -0.073 -0.138 -0.165 -0.124 -0.17 -0.181 0.074 -0.205 0.135 -0.086 0.345 -0.094 0.344 -0.018 0.388 0.012 0.339 0.019 0.026 0.088 -0.145 0.095 -0.189 0.094 -0.113 0.041 0.042 0.079 0.245 0.011 0.537 -0.016 0.154 0.073 0.382 0.319 0.093 0.15 0.132 0.044 0.211 -0.021 0.45 0.002 0.313 -0.022 0.255 -0.001 0.133 0.014 0.137 0.073 0.259 0.085 0.26 -0.063 0.185 -0.029 0.227 0.007 0.357 0.099 0.355 0.232 0.386 0.116 0.026 -0.074 -0.052 -0.092 0.159 -0.082 0.193 -0.138 0.276 -0.178 0.218 -0.182 0.057 -0.252 0.102 -0.206 0.178 -0.099 0.174 -0.063 0.268 -0.066 0.333 -0.015 0.316 -0.149 0.224 -0.06 0.468 -0.082 0.584 -0.081 0.411 -0.229 0.141 -0.028 0.21 -0.036 0.383 -0.014 0.623 -0.073 0.195 -0.011 0.327 -0.057 0.29 -0.135 0.207 -0.038 0.372 0.005 0.318 -0.077 0.266 -0.003 0.245 -0.039 0.037 -0.084 -0.117 -0.057 -0.002 -0.075 0.137 -0.098 0.106 -0.035 0.324 0.007 0.271 0.082 0.197 0.005 0.051 0.047 -0.172 0.059 -0.114 0.104 0.197 0.092 0.176 0.063 0.214 -0.012 0.255 -0.056 0.251 0.039 0.112 0.086 0 0.132 0.053 0.071 0.176 -0.062 0.097 -0.132 -0.028 -0.169 0.01 -0.105 0.423 -0.168 0.166 -0.126 -0.296 -0.027 -0.209 0.017 -0.115 -0.046 -0.133 -0.128 0.365 -0.105 0.417 0.003 0.242 0.089 0.517 0.144 0.287 -0.003 0.26 0.022 0.053 -0.044 -0.097 -0.212 0.012 -0.119 -0.215 -0.067 -0.062 -0.15 0.088 -0.159 0.256 -0.088 0.349 -0.041 0.751 -0.243 0.197 -0.052 0.494 -0.051 0.577 -0.024 0.717 -0.087 1.276 0.058 0.343 0.038 0.214 0.048 0.206 0.077 0.264 0.129 0.387 0.163 0.498 0.051 0.141 0.051 0.185 0.138 -0.199 0.091 -0.163 0.008 -0.314 -0.053 -0.216 -0.056 -0.149 0.023 0.146 0.095 0.161 0.059 0.026 0.079 -0.088 0.115 -0.589 0.225 0.352 0.065 0.211 -0.052 0.196 -0.097 0.198 -0.043 0.132 -0.017 0.47 -0.004 0.266 -0.039 0.201 0.027 0.199 0.062 0.291 0.06 0.42 0.067 0.513 0.255 0.399 -0.026 0.217 -0.055 0.614 -0.018 0.53 0.114 0.297 0.041 0.865 0.035 0.514 0.072 0.33 -0.086 0.22 -0.035 0.461 -0.019 0.232 0.018 0.642 0.094 1.134 0.096 0.781 0.049 0.686 0.002 0.328 0.042 0.596 0.044 0.229 0.035 0.572 -0.027 0.268 -0.037 0.249 -0.082 0.143 0.02 0.097 0.101 -0.053 0.176 0.101 0.12 0.084 0.119 0.119 0.1 0.075 0.085 -0.054 0.071 -0.166 0.063 -0.228 0.138 0.013 0.12 0.099 0.076 -0.115 0.092 0.084 0.13 0.015 0.078 -0.08 0.062 -0.178 0.038 -0.307 0.006 -0.159 0.035 -0.026 0.097 0.079 0.071 0.176 0.038 0.053 0.077 -0.026 0.115 -0.079 0.097 -0.162 0.045 -0.177 0.01 -0.329 -0.019 -0.237 -0.065 -0.151 0.057 -0.11 0.058 -0.342 0.135 -0.159 0.089 -0.149 0.096 0.391 0.053 0.282 0.097 0.619 -0.01 0.198 -0.043 0.263 -0.045 0.141 0.009 0.088 0.097 -0.054 0.154 -0.008 0.119 -0.316 0.331 -0.105 0.056 -0.144 0.091 -0.176 0.07 -0.137 0.035 -0.273 0.104 -0.164 0.189 -0.18 0.157 -0.261 0.266 -0.151 0.288 -0.066 0.171 -0.101 0.18 -0.221 0.308 -0.146 0.051 -0.249 0.126 0.071 0.084 0.196 0.008 0.238 0.02 0.319 0.064 0.427 -0.132 0.223 -0.083 0.044 -0.167 -0.044 -0.168 0.135 -0.1 0.313 -0.136 0.737 -0.096 0.152 -0.01 0.245 -0.034 0.215 -0.121 0.192 -0.121 0.332 -0.078 0.279 -0.124 0.043 -0.089 0.115 -0.02 0.347 -0.086 0.089 -0.065 0.109 -0.048 0.072 -0.11 0.03 -0.205 0.086 -0.155 0.169 -0.205 0.138 -0.148 0.133 -0.095 0.358 -0.05 0.155 -0.058 0.204 -0.127 0.138 -0.076 -0.016 -0.157 0.078 -0.143 0.219 -0.086 0.283 -0.161 0.351 -0.023 0.266 -0.083 0.285 0.057 0.344 0.079 0.577 -0.024 0.276 0.038 0.212 -0.044 0.185 -0.123 0.071 -0.15 0.221 -0.088 0.248 0.003 0.41 -0.151 0.422 -0.134 0.349 -0.032 0.277 -0.105 0.198 -0.177 0.213 -0.136 0.26 -0.13 0.075 -0.232 0.163 -0.116 0.309 -0.102 0.253 -0.056 1.075 -0.172 0.824 -0.116 0.83 -0.141 0.256 0.002 0.334 -0.079 0.551 -0.003 0.146 -0.008 0.189 -0.162 0.41 -0.149 0.257 -0.048 0.324 -0.13 0.263 -0.012 0.368 0.023 0.312 0.035 0.282 0 0.408 -0.106 0.632 -0.018 0.196 -0.052 0.138 -0.045 0.895 -0.152 0.334 0.029 0.475 -0.025 0.287 0.007 0.275 0.019 0.347 0.005 0.595 -0.053 0.254 -0.035 0.474 -0.131 0.524 -0.031 0.231 -0.035 0.296 -0.03 0.239 0.051 0.174 0.046 0.106 0.01 0.139 0.01 0.344 -0.053 0.283 0.014 0.364 0.058 0.243 0.047 0.125 -0.001 0.225 -0.042 0.273 -0.104 0.253 -0.042 0.244 0.026 0.164 0.044 0.293 0.06 0.45 -0.01 0.432 -0.022 0.365 -0.049 0.312 -0.051 0.288 0.079 0.331 0.029 0.538 -0.14 0.204 0.031 0.141 0.036 0.117 0.018 0.139 0.118 0.511 -0.023 0.454 -0.1 0.387 -0.075 0.379 -0.049 0.298 -0.067 0.438 -0.258 -0.006 -0.08 0.06 -0.048 0.093 -0.022 0.7 0.003 0.218 -0.022 0.282 -0.067 0.492 0.052 0.472 0.082 0.125 -0.009 0.188 -0.002 0.338 0.051 0.378 0.098 0.333 0.027 1.387 0.247 0.784 0.06 0.395 0.082 0.102 0.028 0.118 0.084 0.207 0.008 0.166 -0.033 0.218 0.127 0.534 0.096 0.553 0.047 0.361 -0.075 0.613 -0.213 0.185 -0.097 -0.035 -0.212 0.32 -0.236 0.546 -0.116 0.677 -0.061 0.418 -0.052 0.552 -0.048 0.269 0.049 0.134 0.038 0.208 0.043 0.245 0.131 0.382 0.3 0.282 0.108 0.251 0.009 0.213 0.016 0.228 0.068 0.325 0.21 -0.193 0.187 -0.168 0.07 -0.703 0.081 -0.311 0.064 -0.269 0.04 -0.079 0.156 0.114 0.074 0.292 -0.036 0.339 -0.018 0.268 -0.031 0.246 -0.049 0.212 -0.07 0.501 -0.036 0.329 -0.059 0.294 -0.035 0.204 -0.061 0.21 0.008 0.208 0.059 0.166 -0.005 0.447 0.019 0.207 -0.043 0.187 -0.003 0.187 0.033 0.193 0.046 0.195 0.011 0.251 -0.027 0.354 -0.074 0.45 -0.079 0.419 -0.025 0.102 0 0.086 0.017 -0.421 0.092 -0.673 0.123 -0.359 0.121 0.211 0.051 1.267 -0.135 0.578 -0.1 0.509 -0.045 0.126 -0.034 0.42 -0.155 0.15 -0.042 0.45 -0.055 0.589 -0.06 0.445 -0.068 0.303 -0.069 0.227 -0.007 0.174 0.051 0.227 0.056 0.224 -0.014 0.274 -0.053 0.191 -0.125 0.112 -0.091 0.205 -0.031 0.263 -0.029 0.212 0.031 0.347 0.067 0.241 0.035 0.209 0.262 0.492 0.23 0.176 0.061 0.427 -0.023 0.462 0.091 0.197 -0.012 0.189 -0.027 0.166 0.018 0.254 -0.057 0.263 -0.289 0.241 -0.284 0.235 -0.124 0.145 -0.053 0.18 -0.023 0.278 -0.06 0.373 -0.017 0.28 0.024 0.599 0.02 0.489 -0.07 0.554 0.013 0.274 -0.083 0.296 -0.013 0.398 0.072 0.115 0.051 0.221 0.073 0.053 0.071 0.058 0.129 0.109 0.003 0.372 -0.127 0.202 -0.023 0.38 -0.203 0.203 0.053 0.455 0.087 0.185 0.025 0.359 0.147 0.186 -0.031 0.15 -0.068 0.447 0.007 0.418 0.06 0.172 0.05 0.214 0.087 0.131 0.021 0.105 -0.024 0.865 0.034 0.372 0.064 0.287 0.078 1.001 0.037 0.384 0.08 0.231 -0.038 0.456 0.013 0.186 0.067 0.168 0.075 0.361 0.064 0.201 -0.013 0.281 -0.051 0.279 -0.072 0.282 0 0.132 0.062 0.048 0.152 0.207 -0.003 0.23 -0.07 0.203 0.018 0.071 0.106 -0.106 0.141 -0.256 0.196 -0.106 0.165 -0.212 0.15 0.035 0.071 0.212 0.035 0.215 -0.106 0.475 -0.073 0.249 -0.095 0.429 -0.035 0.419 0.033 0.301 0.127 0.551 0.214 0.025 0.076 0.044 0.079 -0.018 0.071 -0.081 0.082 0.296 0.095 0.26 0.016 0.215 -0.009 0.888 0.092 0.424 -0.036 0.382 0 0.454 -0.014 0.349 0.002 0.277 0.016 0.33 -0.033 0.264 -0.044 0.132 0.026 0.053 0.238 0.018 0.141 0.15 0.053 0.159 -0.053 0.115 -0.071 0.703 0.032 0.28 0.004 0.269 0.038 0.268 0.089 0.258 -0.039 0.156 -0.054 0.21 -0.035 0.062 -0.088 0.025 -0.147 -0.008 -0.144 0.123 -0.026 0.124 0.026 0.168 0.068 0.377 0.216 0.29 0.14 0.121 0.067 0.176 0.053 0.356 0.13 0.491 0.053 0.478 0.105 0.558 -0.007 0.435 0.132 0.294 -0.104 0.157 -0.024 0.225 0.028 0.275 0.091 0.215 0.021 0.739 0.148 0.398 0.054 0.147 0.109 0.195 0.104 0 0.106 0.084 0.135 0.442 0.106 0.175 0.101 0.21 0.135 0.387 0.51 0.201 0.089 0.291 -0.009 0.273 0.132 0.088 -0.018 0.009 -0.053 -0.247 -0.344 -0.018 -0.185 0.194 -0.106 0.459 -0.029 0.352 0.197 0.322 0.12 0.218 0.021 0.432 -0.006 0.405 -0.126 0.313 0.046 0.493 0.014 0.645 0.075 0.278 -0.013 0.495 0.031 0.602 0.107 0.341 0.039 0.071 0.044 0.159 0.071 0.079 0.088 0.088 0.079 0.206 0.091 0.21 0.014 0.415 0.077 0.866 0.237 0.313 0.069 0.185 0.05 0.088 -0.062 0.026 -0.125 0.159 -0.025 0.168 0.185 0.176 0.141 0.079 0.123 -0.184 0.1 -0.266 -0.021 -0.185 0 -0.194 0.168 -0.077 0.287 0.174 -0.005 0.132 -0.026 0.026 0.106 -0.079 0.088 -0.159 0.035 -0.273 -0.067 -0.335 -0.047 -0.368 -0.018 -0.354 -0.084 -0.143 -0.005 -0.148 0.004 0.193 0.089 0.198 0.08 0.45 0.069 0.559 0.108 0.016 0.066 -0.133 0.082 -0.167 0.173 -0.512 0.15 -0.297 -0.109 -0.355 -0.025 -0.177 0.064 -0.351 -0.007 -0.697 0.025 -0.273 -0.136 -0.43 -0.075 0.014 0.061 0.367 0.227 0.392 0.051 0.39 0.061 0.093 0.057 -0.175 0.053 -0.238 -0.007 -0.3 0.104 -0.567 -0.017 -0.269 0.007 -0.158 0.043 -0.141 0.016 0.11 0.038 0.135 0.104 -0.193 0.088 -0.18 0.044 -0.185 -0.021 -0.202 0.033 -0.097 -0.097 -0.005 -0.211 -0.115 -0.189 -0.125 -0.008 -0.192 0.022 -0.063 0.162 0.138 0.279 0.092 0.088 -0.074 0.077 -0.13 0.026 0.262 0.235 0.226 0.163 0.137 0.053 0.009 0.079 -0.106 0.035 -0.302 -0.031 -0.148 0.016 -0.164 -0.01 -0.278 -0.035 -0.237 -0.01 -0.238 0.044 -0.201 -0.004 -0.179 -0.146 -0.159 -0.035 -0.132 0.044 -0.098 0.176 -0.206 0.054 -0.209 0.08 -0.148 0.087 -0.071 0.344 -0.124 0.071 -0.184 -0.003 -0.138 0.027 -0.177 -0.028 -0.231 -0.016 -0.769 0.117 0.122 0.061 0.194 -0.01 0.676 0.018 0.286 0.063 0.049 0.155 0.113 0.065 0.226 0.071 0.176 0.035 0.062 0.053 -0.071 0.106 -0.097 0.097 -0.212 0.106 0.062 0.053 0.229 0.018 0.097 0.238 -0.15 0.106 0.071 0.088 0.018 0.088 -0.153 0.083 -0.12 0.041 -0.039 0.086 0.229 0.051 0.171 0.017 0.237 0.009 0.163 0.094 0.209 0.143 0.149 0.118 0.012 0.195 0.147 0.118 0.279 0.075 -0.009 0.078 0.196 0.024 0.189 0.006 0.071 0.071 -0.062 0.088 -0.322 0.105 -0.13 0.077 0.32 0.012 0.331 0.079 0.422 -0.09 0.223 -0.097 0.144 -0.086 0.106 0.021 0.01 0.09 0.129 0.152 0.546 0.146 0.302 0.046 0.291 0.024 0.257 -0.003 0.072 0.088 -0.081 0.08 -0.199 -0.006 -0.325 0.015 -0.238 -0.067 -0.17 -0.057 -1.482 0.032 -0.334 0.027 -0.399 0.087 -0.399 0.042 -0.608 0.086 -0.256 0.053 -0.665 -0.204 -0.217 -0.149 -0.088 -0.009 -0.159 0.035 -0.009 0.106 0.312 0.23 0.138 0.061 0 0.062 -0.087 0.031 -0.127 -0.001 -0.191 -0.045 -0.356 -0.036 -0.317 0.071 -0.391 0.152 0.085 0.101 0.103 0.057 -0.024 0.068 -0.437 0.128 -0.141 0.007 -0.092 0.024 0.108 0.047 0.239 0.003 0.024 0.056 -0.081 0.045 -0.393 0.053 0.025 0.069 0.215 0.033 0.276 -0.013 0.171 0.05 0.001 0.081 -0.177 0.044 -0.202 0.034 -1.412 0.205 -0.207 0.056 0.013 0.075 0.492 0.019 1.477 -0.018 0.095 0.025 -0.034 0.058 -0.082 0.076 0.08 0.053 0.222 0.037 0.007 0.056 -0.11 0.023 -0.217 0.026 -0.242 0.007 0.016 0.06 0.331 0.054 0.11 0.006 0.011 0.205 -0.011 0.087 -0.177 0.042 -0.061 0.028 -0.009 0.071 0.438 0.05 0.674 0.22 0.148 0.001 0.266 0.043 0.429 0.112 0.151 0.067 0.245 0.034 0.033 0.054 0.15 0.048 0.598 0.152 0.078 0.067 -1.254 0.127 -1.26 0.093 0.117 0.082 1.361 -0.008 0.368 0.053 0.163 -0.016 0.094 -0.056 0.733 -0.067 0.746 -0.042 0.233 0.031 1.002 0.245 0.464 0.092 0.296 0.035 0.215 0.008 0.16 0.037 0.155 0.078 -0.039 0.073 0.065 0.033 0.107 0.013 0.197 0.049 0.226 -0.017 0.264 -0.056 0.184 0.013 0.331 0.078 -0.126 0.061 -0.073 0.028 -0.088 0.056 -0.08 0.019 -0.267 0.013 -0.148 0 -0.151 -0.012 -0.017 0.041 0.185 0.044 0.267 0.046 1.728 0.037 0.494 0.08 0.485 -0.043 0.218 0.013 0.185 0.027 0.069 0.08 0.248 0.026 0.38 0.063 0.533 0.031 0.424 -0.002 0.523 0.086 0.265 0.002 0.161 0.049 1.189 0.029 0.176 0.038 0.135 0.063 0.283 0.028 0.305 0.006 1.67 0.102 0.628 0.055 0.144 -0.003 0.143 0.009 0.448 0.046 0.459 0.025 0.217 0.062 0.38 0.083 0 5.647 -1.406 0 -1.406 0 -1.406 0 -1.406 0 -1.406 0 -1.406 0 -1.406 0 -1.406 0 -1.406 0 -1.406 0 -1.406 0 -1.406 0 -1.406 0 -1.406 0 -1.406 0 -1.406 0 -1.406 0 -1.406 0 -1.406 0 -1.406 0 -1.406 0 -1.406 0 -1.406 0 -1.406 0 -1.406 0 -1.406 0 -1.406 0 -1.406 0 -1.406 0 -1.406 0 -1.406 0 -1.406 0 -1.406 0 -1.406 0 -1.406 0 -1.406 0 -1.406 0 -1.406 0 -1.406 0 -1.406 0 -1.406 0 -1.406 0 -1.406 0 -1.406 0 -1.406 0 -1.406 0 -1.406 0 -1.406 0 -1.406 0 -1.406 0 -1.406 0 -1.406 0 -1.406 0 -1.406 0 -1.406 0 -1.406 0 -1.406 0 -1.406 0 -1.406 0 -1.406 0 -1.406 0 -1.406 0 -1.406 0 -1.406 0 -1.406 0 -1.406 0 -1.406 0 -1.406 0 -1.406 0 -1.406 0 -1.406 0 -1.406 0 -1.406 0 -1.406 0 -1.406 0 -1.406 0 -1.406 0 -1.406 0 -1.406 0 -1.406 0 -1.406 0 -1.406 0 -1.406 0 -1.406 0 -1.406 0 -1.406 0 -1.406 0 -1.406 0 -1.406 0 -1.406 0 -1.406 0 -1.406 0 -1.406 0 -1.406 0 -1.406 0 -1.406 0 -1.406 0 -1.406 0 -1.406 0 -1.406 0 -1.406 0 -1.406 0 -1.406 0 -1.406 0 -1.406 0 -1.406 0 -1.406 0 -1.406 0 -1.406 0 -1.406 0 -1.406 0 -1.406 0 -1.406 0 -1.406 0 -1.406 0 -1.406 0 -1.406 0 -1.406 0 -1.406 0 -1.406 0 -1.406 0 -1.406 0 -1.406 0 -1.406 0 -1.406 0 -1.406 0 -1.406 0 -1.406 0 -1.406 0 -1.406 0 -1.406 0 -1.406 0 -1.406 0 -1.406 0 -1.406 0 -1.406 0 -1.406 0 -1.406 0 -1.406 0 -1.406 0 -1.406 0 -1.406 0 -1.406 0 -1.406 0 -1.406 0 -1.406 0 -1.406 0 -1.406 0 -1.406 0 -1.406 0 -1.406 0 -1.406 0 -1.406 0 -1.406 0 -1.406 0 -1.406 0 -1.406 0 -1.406 0 -1.406 0 -1.406 0 -1.406 0 -1.406 0 -1.406 0 -1.406 0 -1.406 0 -1.406 0 -1.406 0 -1.406 0 -1.406 0 -1.406 0 -1.406 0 -1.406 0 -1.406 0 -1.406 0 -1.406 0 -1.406 0 -1.406 0 -1.406 0 -1.406 0 -1.406 0 -1.406 0 -1.406 0 -1.406 0 -1.406 0 -1.406 0 -1.406 0 -1.406 0 -1.406 0 -1.406 0 -1.406 0 -1.406 0 -1.406 0 -1.406 0 -1.406 0 -1.406 0 -1.406 0 -1.406 0 -1.406 0 -1.406 0 -1.406 0 -1.406 0 -1.406 0 -1.406 0 -1.406 0 -1.406 0 -1.406 0 -1.406 0 -1.406 0 -1.406 0 -1.406 0 -1.406 0 -1.406 0 -1.406 0 -1.406 0 -1.406 0 -1.406 0 -1.406 0 -1.406 0 -1.406 0 -1.406 0 -1.406 0 -1.406 0 -1.406 0 -1.406 0 -1.406 0 -1.406 0 -1.406 0 -1.406 0 -1.406 0 -1.406 0 -1.406 0 -1.406 0 -1.406 0 -1.406 0 -1.406 0 -1.406 0 -1.406 0 -1.406 0 -1.406 0 -1.406 0 -1.406 0 -1.406 0 -1.406 0 -1.406 0 -1.406 0 -1.406 0 -1.406 0 -1.406 0 -1.406 0 -1.406 0 -1.406 0 -1.406 0 -1.406 0 -1.406 0 -1.406 0 -1.406 0 0 -0.416 0 -0.29 0 -0.706 0 -0.706 0 -0.706 0 -0.706 0 -0.706 0 -0.706 0 -0.706 1.61 -0.014 0.32 0.015 0.339 0.043 0.745 0.004 0.697 0.019 0.182 0.057 0.233 0.035 0.494 -0.031 0.394 -0.014 0.324 -0.003 2.96 0.08 3.036 0.141 0.619 0.045 0.556 0.105 0.581 -0.014 3.447 0.082 0.53 0 2.112 0.085 3.693 0.199 0.317 0.007 0.351 -0.006 -0.184 -0.107 -0.346 -0.097 -0.466 -0.07 0.304 -0.021 0.66 -0.002 -0.131 -0.05 -0.365 -0.029 -1.317 -0.033 -5.265 -0.249 -0.117 -0.016 -0.074 -0.02 -0.138 -0.022 -0.217 -0.025 -0.803 -0.014 -0.219 -0.021 -0.105 -0.029 0.056 -0.012 0.06 0.005 1.226 -0.022 0.134 -0.028 0.008 -0.019 -0.064 -0.015 -0.211 -0.017 -0.496 -0.083 -0.157 -0.036 0.082 -0.058 0.1 -0.025 0.379 -0.018 0.113 -0.038 -0.072 -0.07 -0.868 -0.14 -0.585 -0.049 -0.385 0.034 -0.728 0.002 -0.903 0.019 -0.248 -0.02 -0.252 -0.055 -0.295 -0.099 -0.15 -0.025 -0.288 -0.082 -0.383 -0.079 -2.02 -0.193 -0.352 -0.053 -2.527 -0.304 -0.106 -0.052 -0.064 -0.054 1.165 0.122 0.22 0.001 0.259 -0.033 0.201 0.009 0.268 -0.031 0.303 -0.015 0.79 0.096 1.591 0.153 0.425 0.054 0.226 0.038 0.186 0.014 0.186 0.027 0.227 -0.016 0.136 0.013 0.33 -0.009 1.507 -0.017 0.598 0.015 0.704 0.075 0.271 0.122 0.199 0.055 0.387 -0.043 0.325 -0.052 0.622 -0.044 0.199 0.018 0.338 0.064 0.377 0.108 1.603 -0.029 0.671 0.005 0.479 0.048 1.745 -0.162 0.271 -0.035 0.401 -0.112 -0.328 -0.036 -0.233 -0.011 -0.09 -0.058 0.158 -0.023 0.504 -0.031 0.981 -0.048 0.578 -0.046 0.309 -0.122 1.328 -0.189 0.424 -0.083 0.389 -0.137 -0.873 -0.273 -0.835 -0.236 0.266 -0.073 0.263 -0.057 0.127 -0.045 0.105 -0.065 -0.275 -0.077 -0.253 -0.057 -0.423 -0.056 -1.585 -0.133 -0.54 -0.058 0.217 -0.088 0.287 -0.069 0.607 -0.029 3.886 -0.104 3.912 -0.128 0.099 -0.065 -0.52 -0.076 -0.441 -0.019 -0.163 -0.023 -0.06 -0.048 -0.007 -0.066 -0.05 -0.011 -0.164 -0.007 -0.704 -0.076 -0.149 -0.03 -0.234 -0.071 -0.059 -0.056 0.14 -0.143 0.215 -0.061 0.375 -0.032 0.268 -0.012 0.812 0.002 0.318 -0.018 0.131 -0.02 -0.023 -0.068 -0.09 -0.031 -0.003 -0.042 0.137 -0.023 0.167 0.001 0.046 -0.051 -0.094 -0.081 -0.241 -0.044 -0.634 -0.075 -1.439 -0.111 -0.558 -0.086 -0.32 -0.066 -0.268 -0.076 -0.267 -0.037 -0.188 -0.039 0.038 -0.049 -0.084 -0.077 -0.106 -0.013 -0.458 0.032 -0.816 -0.018 -1 -0.071 -0.692 -0.082 -0.905 -0.22 -0.355 -0.109 0.261 -0.077 0.288 -0.048 1.203 -0.112 0.179 -0.039 0.245 -0.1 -0.402 -0.042 -0.342 0.004 -0.305 -0.029 -1.228 -0.006 -0.698 0.014 -0.581 -0.126 -0.438 -0.123 -0.121 -0.063 -0.093 -0.109 0.149 -0.163 0.121 -0.117 -0.017 -0.143 0.033 -0.197 0.21 -0.066 0.161 -0.012 0.377 0.152 0.326 0.011 0.472 -0.029 0.299 -0.078 0.157 -0.029 0.292 -0.008 0.561 0.035 0.257 -0.014 0.287 0.007 0.905 0.1 0.197 0.047 0.106 0.036 0.033 0.053 0.112 0.053 0.384 0.026 1.079 -0.03 0.279 0.013 0.763 0.148 0.651 0.158 0.221 0.04 0.367 0.026 0.129 -0.023 0.114 -0.059 0.348 -0.072 0.786 -0.092 0.184 -0.089 -0.104 -0.05 -0.299 -0.051 -0.185 -0.018 -0.099 -0.06 0.005 -0.081 0.062 -0.077 0.205 -0.02 0.376 0.106 0.466 0.098 0.164 0.016 0.124 -0.005 0.235 -0.035 0.28 -0.026 0.537 0.213 0.317 0.014 0.396 0.001 0.077 -0.033 -0.049 -0.057 -0.064 -0.06 -0.08 -0.008 -0.014 -0.057 0.173 -0.052 0.119 -0.022 -0.047 -0.037 -0.19 -0.058 -0.111 -0.009 -0.103 -0.025 0.033 -0.04 0.128 -0.017 0.177 -0.058 -0.056 -0.069 0.01 -0.088 -0.075 -0.048 -0.416 -0.091 -0.61 -0.151 -0.564 -0.069 -1.261 0.055 -0.445 -0.035 -0.294 -0.039 -0.315 -0.054 0.369 -0.054 0.39 -0.039 0.114 -0.033 0.149 -0.07 0.173 -0.05 0.139 -0.013 0.46 0.026 1.043 0.187 0.22 0.02 0.712 0.087 0.199 0.004 0.245 -0.02 -0.2 -0.083 -0.218 -0.059 -0.523 -0.167 0.06 -0.079 0.336 -0.132 0.882 -0.01 0.384 -0.047 0.501 -0.101 0.646 -0.168 0.552 -0.02 0.692 -0.053 0.236 0.039 0.588 0.161 0.371 0.056 0.126 0.005 0.135 -0.005 -0.349 -0.2 0.225 -0.026 0.289 -0.022 0.238 -0.05 0.177 -0.041 0.603 -0.193 0.542 -0.053 1.531 -0.085 0.528 0.077 0.44 0.009 0.1 -0.022 0.088 -0.104 0.234 -0.2 0.198 -0.071 0.668 -0.075 0.522 0.004 0.375 0.082 0.348 0.054 0.321 0.025 0.321 -0.003 0.483 -0.046 0.64 -0.017 0.302 -0.024 0.343 0.045 0.849 0.015 0.662 0.065 0.405 0.001 0.553 -0.063 0.298 -0.009 1.077 -0.101 0.843 -0.021 0.636 0.045 1.031 -0.028 1.041 0.021 0.423 0.037 2.346 -0.023 1.867 -0.095 0.255 -0.033 0.4 -0.104 0.219 -0.096 0.147 -0.029 0.314 -0.011 0.536 0.021 0.738 0.07 0.635 -0.026 1.21 0.04 0.117 -0.032 0.114 -0.18 0.2 -0.286 0.167 -0.086 0.278 0.022 0.837 0.164 0.019 0.07 -0.085 0.05 -0.139 0.02 -0.04 0.139 0.112 0.04 0.187 -0.012 0.121 0.06 -0.264 0.105 -0.186 0.059 -0.12 0.026 -0.081 0.199 -0.112 0.066 -0.013 0.073 0.179 0 0.179 -0.03 0.159 -0.008 0.502 -0.052 0.921 -0.059 0.302 -0.031 0.172 -0.009 0.112 -0.041 -0.154 -0.097 -0.05 -0.082 0.093 -0.068 -0.026 -0.117 -0.084 -0.117 0.176 -0.088 0.163 0.019 0.287 -0.013 0.16 0.042 0.249 0.038 0.236 0.02 0.227 0.078 0.077 0.17 -0.071 0.174 -0.231 0.126 -0.436 0.115 -0.496 0.182 0.104 0.087 0.255 -0.029 1.114 0.008 0.718 -0.014 0.45 0.022 0.568 0.046 0.45 0.069 0.538 0.013 0.335 -0.025 0.313 0.035 1.219 -0.146 0.498 -0.083 0.284 0.041 0.458 -0.036 0.258 0.032 0.476 -0.051 0.304 -0.006 0.35 0.022 1.063 0.01 0.08 0.094 0.324 0.144 0.264 0.056 0.333 -0.024 0.243 -0.045 0.381 0.017 0.551 -0.061 0.551 0.018 0.228 -0.01 0.107 -0.04 0.088 -0.087 -0.169 -0.049 -0.481 -0.062 -0.444 -0.13 -0.197 -0.027 -0.315 0.016 -0.149 -0.024 -0.16 -0.042 0.208 -0.049 0.252 -0.161 -0.106 -0.147 -0.12 -0.031 -0.293 0.005 -0.351 0.052 -0.141 -0.036 -0.229 -0.019 -0.091 -0.136 -0.244 -0.254 -0.129 -0.073 -0.39 -0.066 -0.336 -0.032 -0.326 -0.042 -0.096 -0.1 0.063 -0.138 0.389 -0.029 0.374 0.014 0.208 0.025 0.241 0.011 0.277 0.028 0.181 0.04 0.145 0.022 0.268 0.001 0.937 -0.038 0.125 -0.026 0.115 -0.049 0.198 -0.011 0.181 0.007 0.266 -0.03 -0.304 -0.04 -0.328 -0.076 -0.493 -0.093 -0.416 -0.049 -0.753 -0.035 -0.384 0.012 -0.242 -0.018 -0.859 0.01 -0.234 -0.036 -0.167 -0.101 -0.232 -0.239 -0.067 -0.126 0.158 -0.047 0.106 -0.051 0.254 -0.005 0.371 0.019 0.122 0.025 0.091 0.075 -0.091 0.076 -0.119 0.04 0.073 0.036 0.38 0.011 0.187 0.023 0.16 0.009 0.349 -0.034 0.511 -0.014 0.257 0.034 0.305 0.026 0.448 -0.041 1.602 0.022 0.196 0.011 0.194 0.069 0.167 0.043 0.175 -0.018 0.521 0.08 0.28 0.062 0.282 0.033 0.242 0.008 0.272 -0.015 0.351 -0.052 0.293 -0.021 0.207 0.019 0.443 0.011 0.34 0.063 0.262 -0.026 0.279 -0.072 0.878 -0.05 0.587 0.014 1.072 0.129 0.248 0.012 0.49 -0.076 0.157 -0.125 -0.022 -0.141 0.143 -0.033 0.117 0.016 0.218 -0.098 0.295 0.008 0.181 0.019 0.112 -0.064 0.102 -0.133 0.347 -0.01 0.253 0.019 0.333 0.085 0 0.071 -0.137 0.076 -0.229 0.186 0.141 0.108 0.214 -0.009 0.269 0.021 0.328 -0.046 0.207 -0.003 0.363 0.162 0.247 0.01 0.189 -0.01 0.621 -0.145 0.179 -0.016 0.219 0.067 0.322 0.154 0.279 0.089 0.41 0.055 0.357 0.016 0.418 0.072 0.231 0.061 0.523 0.001 0.227 0.025 0.632 0.125 0.577 -0.061 0.297 -0.057 0.146 -0.106 -0.073 -0.159 -0.026 -0.159 0.086 -0.066 0.152 -0.013 0.688 0.179 -0.043 -0.106 -0.059 -0.083 -0.175 -0.142 0.026 -0.106 0.146 -0.033 0.29 0.056 0.344 0.028 0.286 0.061 0.558 0.223 0.177 0.194 0.378 0.049 0.264 -0.009 0.299 -0.032 0.402 -0.027 0.308 0.008 0.285 -0.035 0.086 0.106 -0.269 0.152 -0.102 0.099 0.086 0.026 0.161 -0.024 0.133 -0.031 0.464 0.016 0.375 -0.069 0.321 -0.025 0.302 -0.072 0.25 0.006 0.188 0.013 0.261 0.057 0.249 -0.031 0.148 0.012 0.201 0.004 1.067 -0.252 0.242 0.004 0.307 -0.014 0.387 -0.059 0.297 -0.026 0.245 0.001 0.436 -0.092 0.695 0.011 0.354 -0.048 0.686 -0.057 0.461 -0.064 0.821 -0.17 0.333 -0.101 0.36 -0.223 0.227 -0.224 0.252 -0.297 -0.124 -0.193 -0.132 -0.085 -0.112 -0.093 -0.265 -0.192 -0.07 -0.242 0.025 -0.227 -0.094 -0.213 -0.094 -0.158 -0.196 -0.264 -0.237 -0.172 -0.278 -0.23 0 -0.211 -0.066 -0.165 -0.168 -0.117 -0.07 -0.094 0.128 -0.02 0.119 -0.029 0.321 -0.036 0.769 0.065 0.067 -0.095 0.194 -0.07 0.136 -0.087 -0.046 -0.132 -0.166 -0.054 -0.203 -0.113 0.092 -0.091 0.165 0 0.079 -0.099 -0.063 -0.097 0.076 -0.122 0.148 -0.155 0.1 -0.057 -0.184 -0.094 -0.172 -0.122 0.043 -0.095 0.085 -0.099 0.106 -0.139 0.146 -0.099 0.093 -0.033 -0.028 -0.033 -0.218 -0.036 -0.201 -0.007 -0.363 0.062 -0.058 -0.012 -0.02 -0.032 -0.021 -0.068 0.035 -0.166 0.057 -0.156 0.053 -0.022 0.141 -0.02 0.139 -0.119 0.126 -0.007 0.079 0.04 0.026 0.159 0.042 0.036 -0.016 0.076 0.066 0.026 0.079 -0.05 0.147 -0.024 0.058 0.054 0.053 0.026 0.026 -0.046 -0.019 -0.129 -0.024 -0.052 -0.018 -0.083 0.031 -0.039 0.037 -0.065 -0.062 -0.134 0.023 -0.051 0.133 -0.081 0.064 -0.017 0.125 0 0.228 0.053 0.106 0.004 0.081 -0.025 0.048 -0.052 0.04 -0.171 -0.097 -0.06 0.001 -0.055 0.057 -0.033 0.1 -0.119 0.152 -0.006 0.149 0.011 0.144 -0.023 -0.05 -0.048 -0.045 -0.074 0.162 -0.036 0.106 -0.012 0.277 0.046 0.108 0.026 0.099 -0.059 -0.033 -0.06 -0.106 -0.033 -0.02 -0.053 0.026 -0.066 0.172 0.033 0.039 -0.013 0.045 -0.06 -0.027 -0.029 -0.022 -0.039 0.225 -0.008 0.033 -0.016 0.048 -0.047 0.066 -0.017 0.204 0.002 0.044 -0.024 0.02 -0.051 -0.11 -0.013 -0.143 -0.05 -0.02 -0.139 0.033 -0.099 0.126 -0.086 0.152 -0.06 0.278 0.051 0.218 -0.012 0.086 0.053 0.119 0.013 0.026 -0.06 -0.053 -0.052 -0.034 -0.085 0.345 -0.101 0.11 0.016 0.137 -0.024 -0.049 -0.078 0.073 -0.099 0.099 -0.013 0.066 0.086 0.095 0.018 0.104 -0.02 0.257 -0.101 0.126 -0.016 0.125 -0.005 0.131 -0.059 0.03 -0.07 0.074 -0.048 0.222 -0.065 0.091 -0.048 0.196 -0.165 -0.035 -0.042 0.058 -0.034 0.587 -0.15 0.287 -0.014 0.48 -0.089 0.293 -0.107 0.181 -0.044 0.164 -0.118 0.199 -0.017 0.458 -0.083 0.348 -0.133 0.478 -0.092 0.221 0.008 0.092 0.028 z M -45.223 78.811 l 0.131 0.004 0.525 -0.01 0.525 0.002 0.319 0.012 0.095 0.028 0.083 0.056 0.094 0.088 0.087 0.095 0.096 0.078 0.057 0.137 0.092 0.05 0.153 0.127 0.021 0.102 -0.045 0.222 -0.076 0.09 -0.201 0.087 -0.229 -0.009 -0.104 0.005 -0.103 0.016 -0.039 0.013 -0.016 0.018 0.268 0.075 0.031 0.028 0.005 0.032 -0.036 0.023 -0.039 0.013 -5.66 0.451 -0.223 0.024 -0.219 0.045 -0.072 0.041 -0.072 0.031 -4.389 0.086 -0.04 -0.006 -0.039 -0.017 -0.109 -0.087 -0.021 -0.137 0.024 -0.054 0.218 -0.053 0.085 -0.029 0.369 -0.204 0.194 -0.095 0.088 -0.08 0.047 0.006 0.17 0.046 0.123 0.014 0.246 -0.019 0.24 -0.057 0.106 -0.032 0.104 0.011 0.019 0.048 0.041 0.015 0.586 -0.151 0.527 -0.17 0.519 -0.193 0.263 -0.115 0.062 -0.032 0.044 -0.05 -0.036 -0.048 -0.047 -0.043 -0.041 -0.017 -0.044 -0.008 -0.269 -0.031 0.084 -0.05 0.076 -0.061 0.053 -0.068 0.018 -0.083 -0.011 -0.042 0.011 -0.03 0.123 -0.027 0.082 -0.041 0.056 -0.049 -0.094 -0.015 -0.042 -0.038 0.083 -0.084 0.075 -0.091 0.078 -0.049 0.202 -0.095 0.586 -0.24 0.21 -0.129 0.062 -0.046 1.389 -0.207 0.229 -0.021 0.434 -0.029 0.204 -0.005 0.568 0.02 0.265 0.022 0.463 0.055 0.678 0.107 0.257 0.047 0.255 0.058 0.246 0.074 0.24 0.091 0.046 0.028 0.024 0.05 0.008 0.049 -0.012 0.048 -0.064 0.097 -0.095 0.068 -1.121 0.064 -0.145 0.026 -0.082 0.053 -0.058 0.051 z M -59.734 80.344 l -0.04 0.214 0.002 0.098 -0.054 0.077 -0.101 0.041 -0.198 0.066 -0.144 0.041 -0.315 0.067 -1.441 -0.059 -0.647 -0.055 -0.27 -0.068 -0.046 -0.031 -0.081 -0.107 -0.076 -0.033 -0.571 0.022 -0.35 0.033 -0.061 0.017 -0.093 0.066 -0.048 0.015 -0.935 -0.141 -0.981 -0.165 -0.408 -0.084 -0.142 -0.039 -0.038 -0.025 0.09 -0.033 0.093 -0.022 0.106 -0.014 0.106 -0.002 0.081 0.013 0.078 0.023 0.05 0.088 0.052 0.015 0.135 0.023 3.461 -0.011 0.287 -0.005 0.599 -0.025 0.32 -0.038 0.119 -0.05 -0.291 -0.013 -0.113 -0.038 -0.097 -0.071 -0.023 -0.065 0.033 -0.05 0.382 -0.024 0.056 -0.017 -0.1 -0.028 0.003 -0.064 0.228 -0.025 0.089 -0.053 0.448 -0.068 0.705 0.036 0.167 0.098 -0.046 0.063 -0.033 0.063 -0.002 0.1 0.29 0.014 0.09 0.036 0.086 0.045 -0.105 0.001 -0.103 0.01 -0.082 0.047 -0.071 0.06 z M -70.051 69.189 l -0.028 0.122 0.166 -0.044 0.058 0.009 0.147 0.044 0.291 0.262 0.064 0.083 0.119 0.243 0.143 0.181 0.361 0.318 0.177 0.173 0.094 0.101 0.009 0.135 0.115 0.038 0.022 0.056 0.036 0.185 0.025 0.216 0.025 0.412 -0.013 0.097 -0.153 0.153 -0.067 0.11 -0.082 0.072 -0.097 0.052 -0.509 0.217 -0.06 0.108 -0.854 0.092 -0.48 0.038 -0.188 -0.042 -0.192 -0.01 -0.236 0.014 -0.688 0.012 -0.521 0.03 -0.066 -0.011 -0.047 -0.041 -0.051 -0.028 -0.139 0.006 -0.11 -0.015 -0.107 -0.034 -0.119 -0.063 -0.05 -0.037 -0.029 -0.04 0.232 -0.104 0.117 -0.024 0.119 -0.005 0.242 0.021 0.241 0.035 0.53 0.028 0.733 0.007 0.201 -0.01 0.243 -0.034 0.222 -0.095 -0.108 -0.037 -0.11 -0.023 -0.109 -0.004 -0.108 0.006 -0.304 0.059 -0.233 0.035 -0.235 0.02 -0.249 -0.035 -0.231 -0.097 -0.005 -0.032 0.791 -0.074 0.072 -0.012 0.143 -0.047 0.046 -0.042 0.024 -0.039 -0.534 -0.07 -0.11 0.001 -0.11 0.013 -0.242 -0.029 -0.23 -0.082 -0.213 -0.098 -0.078 -0.009 -0.076 0.03 -0.515 0.259 -0.044 0.002 -0.195 -0.019 -0.243 -0.051 -0.223 -0.018 -0.143 0.014 -0.054 0.021 0.139 0.059 0.118 0.052 0.035 0.041 -0.362 0.13 -0.096 0.017 -0.157 -0.011 -0.056 -0.017 -0.113 -0.07 -0.108 -0.017 -0.234 0.014 -0.123 -0.006 -0.122 -0.03 -0.116 -0.045 -0.106 -0.025 -0.129 -0.05 -0.094 -0.036 -0.03 -0.05 0.009 -0.048 0.042 -0.028 0.006 -0.027 -0.028 -0.046 0.018 -0.034 0.043 -0.03 0.193 -0.06 0.237 -0.012 0.227 0.074 0.149 0.024 0.069 0.002 0.027 -0.005 0.018 -0.02 -0.007 -0.039 -0.04 -0.072 -0.005 -0.05 0.05 -0.042 0.067 -0.015 0.072 -0.012 0.049 -0.005 0.146 0.027 0.104 0.028 0.213 0.079 0.179 0.056 0.066 0.006 0.052 -0.02 0.047 -0.031 -0.212 -0.08 -0.025 -0.051 0.013 -0.046 0.131 -0.026 0.077 -0.004 0.378 0.047 0.199 0.015 0.199 0.005 0.41 -0.053 -0.218 -0.06 -0.475 -0.052 -0.089 -0.037 -0.066 -0.06 0.35 -0.054 0.354 0.002 0.638 0.07 0.214 -0.034 0.197 -0.101 0.113 -0.026 0.453 0.008 0.36 -0.046 0.058 0.005 0.055 0.014 0.351 0.169 0.047 -0.008 0.035 -0.033 0.012 -0.059 0 -0.06 -0.008 -0.06 -0.045 -0.038 -0.057 0.004 -0.06 0.017 -0.101 -0.014 -0.102 -0.032 -0.102 -0.014 -0.362 -0.018 -0.256 -0.032 -0.132 -0.024 -0.123 -0.049 -0.017 -0.053 0.129 -0.122 0.499 -0.133 0.234 -0.043 0.238 -0.011 0.115 0.009 0.273 0.055 0.042 -0.002 0.042 -0.014 -0.265 -0.093 -0.235 -0.071 -0.116 -0.054 -0.094 -0.021 -0.392 -0.02 -0.207 0.053 -0.098 0.009 -0.097 -0.005 -0.576 -0.129 -0.032 -0.014 -0.081 -0.049 -0.044 -0.036 -0.026 -0.06 0.012 -0.062 0.016 -0.04 0.085 -0.158 0.048 -0.125 -0.025 -0.101 -0.091 -0.056 -0.13 -0.038 -0.117 -0.062 -0.034 -0.042 -0.021 -0.049 -0.003 -0.062 0.029 -0.054 0.051 -0.059 0.068 -0.03 0.121 -0.03 0.477 -0.067 0.975 -0.085 0.105 0.043 0.158 0.091 0.049 0.036 0.053 0.18 z M -98.091 71.913 l -0.085 0.106 0.008 0.105 0.245 -0.006 0.107 -0.198 0.231 -0.036 0.111 0.118 -0.108 0.095 0.056 0.054 0.065 0.039 0.115 0.001 0.103 -0.057 0.046 -0.041 0.041 -0.046 0.066 -0.101 0.219 -0.093 0.486 -0.015 0.258 0.059 -0.173 0.15 -0.417 0.087 -0.264 0.09 0.089 0.025 0.091 0.012 0.081 -0.004 0.235 -0.048 0.576 -0.086 0.221 -0.065 0.076 0.012 0 0.107 0.078 0.074 -0.044 0.161 -0.25 0.029 -0.252 0.015 0.064 0.071 -0.016 0.03 -0.022 0.023 -0.641 -0.03 -0.111 0.01 -0.111 0.02 -0.113 -0.004 -0.223 -0.053 -0.115 0.001 -0.23 0.026 -0.233 0.009 -0.335 -0.001 -0.244 -0.008 -0.233 -0.058 -0.241 -0.017 -0.267 -0.001 -0.285 -0.065 -0.238 -0.027 -0.342 -0.067 -0.09 -0.025 -0.091 -0.014 -0.162 0.005 -1.245 -0.102 -0.183 0.002 -0.119 0.013 -0.119 -0.005 -0.243 -0.05 -0.049 -0.054 0.025 -0.049 0.052 -0.023 0.108 -0.024 1.727 -0.12 0.182 -0.033 0.134 0.004 0.099 0.103 0.152 0.107 0.049 -0.002 0.049 -0.011 0.172 -0.088 0.309 0.027 0.172 -0.04 0.118 -0.078 0.349 -0.091 0.221 0.018 0.205 0.038 z M -120.556 73.756 l 0.178 0.1 0.066 0.066 0.04 0.067 -0.717 0.168 -0.03 0.016 -0.035 0.087 0.018 0.019 0.032 0.014 0.002 0.033 -0.06 0.011 -1.224 0.066 -0.572 -0.06 -0.079 -0.041 -0.018 -0.062 0.065 -0.013 0.126 -0.008 -0.029 -0.028 -0.081 -0.049 -0.006 -0.042 0.171 -0.105 0.085 -0.028 -0.326 -0.099 -0.04 -0.022 -0.043 -0.007 -0.156 0.012 -0.155 -0.006 0.054 -0.04 0.043 -0.064 0.137 -0.056 0.1 -0.009 0.102 0.007 0.475 0.002 0.469 0.03 0.469 0.021 0.775 0.019 z M -126.33 73.286 l 0.265 0.029 0.089 0.042 0.119 0.031 0.121 0.017 0.109 0.048 0.065 0.083 0.057 0.026 0.178 0.055 0.062 0.049 -0.012 0.024 -0.336 0.02 -0.111 -0.008 -0.105 0.016 -0.031 0.03 0.003 0.032 0.058 0.022 0.124 0.02 0.122 -0.002 0.226 -0.025 0.102 0.005 0.116 0.025 0.115 0.004 0.299 -0.08 0.077 -0.014 0.077 0.004 0.411 0.094 0.086 0.046 -0.058 0.026 -0.051 0.037 0.022 0.027 0.197 0.037 0.081 0.049 0.051 0.019 -0.011 0.041 -0.028 0.051 0.002 0.057 -0.101 0.03 -0.045 0 -0.217 -0.03 -0.674 -0.017 -0.217 -0.026 -0.331 -0.113 -0.129 -0.007 -0.133 -0.027 -0.204 -0.081 -0.357 -0.064 -0.228 -0.079 0.006 -0.066 -0.031 -0.046 -0.042 -0.02 -0.044 -0.01 -0.128 -0.016 -0.127 0.004 -0.063 0.019 -0.105 0.049 -0.116 0.008 -0.09 -0.01 -0.02 -0.011 -0.001 -0.128 -0.099 -0.018 -0.082 -0.051 -0.015 -0.069 0.035 -0.065 0.127 -0.078 0.144 -0.01 0.146 0.014 0.148 -0.017 0.233 -0.012 z M -159.053 79.807 l -1.249 0.037 -0.505 -0.033 -1.059 -0.108 -1.452 -0.199 -0.395 -0.063 -0.258 -0.053 -0.255 -0.068 -0.056 -0.075 0.037 -0.108 0.045 -0.087 0.074 -0.055 0.311 -0.067 0.154 -0.073 0.315 -0.076 0.089 -0.058 0.132 -0.003 0.251 0.006 0.251 0.017 0.232 0.018 0.229 0.033 0.518 0.108 0.36 0.106 0.519 0.125 0.515 0.14 0.286 0.053 0.279 0.078 0.265 0.106 0.052 0.037 0.11 0.046 0.066 0.046 0.071 0.037 0.067 0.02 0.055 0.041 -0.013 0.045 z M 167.084 77.322 l 0.377 0.073 0.99 -0.008 0.825 0.069 0.077 0.07 -0.235 0.036 -0.363 0.093 -0.236 0.028 -0.196 0.001 -0.405 -0.038 -0.525 0.004 -0.113 0.054 -0.254 0.054 -0.296 0.095 -0.079 -0.077 -0.118 -0.074 -0.296 -0.153 -0.02 -0.023 0.162 -0.031 0.08 -0.05 0.168 -0.067 -0.019 -0.041 -0.138 -0.047 -0.056 -0.037 0.093 -0.063 0.21 -0.028 0.271 0.025 0.12 0.084 -0.022 0.037 z M -31.119 79.798 l 0.134 0.02 0.144 -0.047 -0.021 -0.045 0.082 -0.079 0.12 0.086 0.789 0.09 0.256 0.086 -0.106 0.02 -0.079 -0.004 -0.229 0.01 -0.393 0.075 -0.422 -0.072 -0.75 -0.051 -0.23 -0.038 -0.176 -0.117 0.32 -0.098 0.076 0.01 z M -33.934 79.32 l -0.116 0.037 -2.431 -0.063 -0.119 -0.011 0.035 -0.074 0.328 -0.013 0.19 -0.015 0.258 -0.032 0.193 -0.057 0.063 -0.002 1.143 0.133 0.397 0.056 0.048 0.027 z M -70.334 79.68 l -0.218 0.003 -0.431 -0.009 -0.43 -0.034 -0.112 -0.017 -0.161 -0.056 -0.049 -0.029 -0.043 -0.038 -0.006 -0.056 0.116 -0.199 0.213 -0.117 0.2 -0.069 0.629 -0.158 0.082 -0.018 0.572 -0.074 0.224 -0.04 0.349 -0.083 1.92 -0.324 0.44 -0.047 0.198 0.034 0.112 0.034 -0.059 0.038 -0.259 0.092 -0.12 0.055 -0.315 0.113 -0.676 0.188 -0.481 0.142 -0.613 0.197 -0.144 0.069 -0.292 0.164 0.052 0.074 -0.097 0.101 -0.385 0.048 z M -57.846 64.054 l 0.037 0.014 0.035 -0.006 0.033 -0.014 0.031 -0.033 0.117 -0.048 0.113 -0.005 -0.037 0.049 0.268 0.086 -0.023 0.069 0.051 0.055 -0.105 0.016 -0.086 0.058 0.076 0.022 0.044 0.049 -0.093 0.012 -0.193 -0.029 -0.102 0.007 0.012 -0.046 -0.033 -0.018 -0.12 0.009 -0.049 0.099 -0.038 0.009 -0.042 -0.016 0.032 -0.063 -0.05 -0.011 -0.05 0.001 -0.148 0.047 -0.045 0.001 -0.09 -0.055 0.284 -0.073 -0.118 -0.036 -0.025 -0.045 0.015 -0.063 -0.103 0.009 -0.102 0.024 -0.046 0.004 -0.04 -0.021 0.013 -0.046 0.083 -0.073 0.067 -0.078 0.129 -0.039 0.075 -0.03 0.1 -0.013 0.045 -0.029 0.094 -0.002 0.052 0.064 -0.001 0.039 -0.046 0.042 z M -55.528 63.174 l 0.062 0.026 0.251 -0.001 0.059 0.006 0.05 0.045 0.031 0.075 -0.082 0.029 -0.437 -0.017 -0.157 -0.039 -0.08 0.002 -0.179 0.043 -0.074 0.041 -0.296 0.055 -0.084 -0.019 -0.036 -0.06 -0.006 -0.023 0.03 -0.016 0.015 -0.016 -0.005 -0.018 0.081 -0.049 0.343 -0.077 0.453 -0.029 0.061 0.029 z M -57.978 61.912 l 0.129 0.028 0.111 -0.019 0.061 0.021 0.04 0.056 -0.003 0.022 -0.167 -0.008 -0.156 0.066 -0.185 -0.014 -0.025 0.054 0.039 0.028 -0.05 0.024 -0.158 -0.051 -0.125 0.018 -0.041 0.088 -0.055 0.018 -0.032 0.004 -0.05 -0.023 -0.102 -0.007 -0.01 -0.012 -0.064 -0.035 -0.185 0.038 0.048 -0.046 0.246 -0.12 0.026 -0.037 0.284 -0.07 0.134 0.015 z M -63.181 64.47 l -0.096 0.104 0.146 -0.001 0.098 -0.037 0.104 -0.016 0.092 0.053 -0.189 0.039 -0.177 0.069 -0.073 0.037 -0.079 0.017 -0.103 -0.007 -0.101 0.007 -0.088 0.069 -0.093 0.031 -0.03 -0.026 -0.034 -0.017 -0.203 -0.023 -0.092 -0.036 -0.085 -0.023 -0.088 -0.012 0.046 -0.062 0.055 -0.053 0.304 -0.072 -0.03 -0.023 -0.019 -0.03 0.242 -0.036 0.006 -0.037 -0.015 -0.041 0.078 -0.029 0.071 -0.041 0.049 -0.012 0.152 0.006 0.104 0.057 -0.041 0.057 z M -62.326 64.424 l -0.07 0.04 -0.059 0.007 -0.053 -0.018 -0.072 0.06 -0.147 -0.018 -0.055 -0.017 0.035 -0.007 0.026 -0.027 0.078 -0.053 0.139 -0.138 0.024 -0.043 -0.111 -0.071 -0.02 -0.023 0.025 -0.041 0.041 -0.03 0.094 -0.033 0.123 0.001 0.061 0.026 -0.001 0.05 0.21 0.048 -0.035 0.096 -0.08 0.061 -0.011 0.073 -0.118 0.033 z M -67.988 67.474 l -0.104 0.064 -0.083 0.02 -0.075 -0.019 -0.075 -0.007 -0.056 0.023 -0.058 0.101 -0.067 0.051 -0.074 0.026 -0.042 -0.01 -0.042 0 -0.07 0.023 -0.085 0.008 -0.083 -0.009 -0.081 -0.064 -0.115 -0.077 -0.023 -0.025 -0.018 -0.063 0.005 -0.063 0.05 -0.05 0.263 -0.17 0.086 -0.076 0.077 -0.087 0.082 -0.078 0.158 -0.139 0.081 -0.051 0.398 -0.145 0.107 -0.033 0.119 0.009 0.03 0.076 -0.06 0.037 -0.192 0.098 -0.037 0.138 0.001 0.05 0.019 0.013 0.073 0.018 0.048 0.02 0.067 0.041 0.073 0.024 -0.16 0.072 -0.108 0.036 -0.074 0.045 -0.145 0.044 -0.06 0.028 0.091 0.01 0.137 0.036 0.037 0.032 z M -73.707 70.635 l 0.156 0.088 -0.144 0.071 -0.51 0.13 -0.3 0.049 -0.301 0.039 -1.371 0.12 -0.095 0 -0.093 -0.016 -0.058 -0.026 -0.09 -0.1 0.011 -0.049 0.123 -0.047 0.129 -0.03 0.214 -0.028 0.825 -0.063 0.083 -0.021 0.067 -0.046 0.022 -0.055 0.03 -0.042 0.054 -0.019 0.055 0 0.108 0.04 0.201 0.161 0.063 -0.022 0.058 -0.043 0.013 -0.14 0.055 -0.011 0.176 0.039 0.11 0.041 0.002 -0.079 0.074 -0.024 0.081 0.008 0.078 0.017 z M -74.987 69.728 l 0.177 0.025 0.26 0.108 0.084 0.056 0.027 0.033 -0.022 0.022 -0.118 0.026 -0.093 0.134 -0.177 0.048 -0.42 -0.03 -0.458 -0.053 -0.038 -0.011 -0.04 -0.047 -0.009 -0.054 0.053 -0.068 0.078 -0.034 0.341 -0.041 0.026 -0.023 0.049 -0.067 0.086 -0.014 0.043 0.005 z M -74.354 73.098 l -0.144 0.131 -0.024 0.015 -0.145 0.031 0.052 0.036 0.04 0.016 0.025 0.041 0.083 0.058 0.101 0.037 -0.086 0.101 -0.123 0.046 -1.326 -0.279 -0.102 -0.045 -0.05 -0.033 -0.037 -0.052 -0.006 -0.052 0.034 -0.042 0.045 -0.023 0.12 -0.029 0.123 -0.002 0.269 0.055 0.038 -0.008 0.05 -0.05 0.141 -0.001 0.032 -0.041 -0.196 -0.015 -0.161 -0.042 -0.101 -0.042 -0.029 -0.032 0.354 -0.059 0.903 0.073 0.138 0.025 0.06 0.032 0.052 0.046 z M -91.161 73.182 l -0.183 0.025 -0.167 -0.012 0.06 -0.228 0.094 -0.058 -0.025 -0.042 -0.169 -0.114 -0.119 -0.13 0.058 -0.03 0.309 -0.046 0.356 0.009 0.14 0.054 0.044 0.07 -0.017 0.051 -0.115 0.092 0.119 0.03 0.025 0.063 -0.025 0.076 -0.117 0.091 -0.105 0.053 z M 167.643 78.141 l -0.125 0.075 -0.141 0.033 -0.441 -0.027 -0.31 0.062 -0.341 0.022 -0.163 -0.032 -0.071 -0.061 -0.038 -0.082 0 -0.029 0.098 -0.012 0.456 0.058 0.193 0.05 0.104 -0.002 0.274 -0.066 0.226 -0.084 0.058 -0.039 0.075 -0.014 0.096 0.03 0.046 0.089 z M 100.981 65.678 l -0.435 0.024 -0.035 -0.026 -0.162 -0.002 -0.058 -0.022 -0.022 -0.048 0.054 -0.083 0.085 -0.055 0.136 -0.057 0.062 -0.013 0.276 -0.018 0.195 0.024 0.142 0.07 0.038 0.055 -0.021 0.037 z M 26.857 70.381 l -0.064 0.038 -0.184 -0.007 -0.139 0.036 -0.113 -0.014 -0.352 -0.061 -0.041 -0.078 -0.01 -0.033 0.028 -0.062 0.319 -0.127 0.125 -0.012 0.179 0.018 0.081 0.036 0.051 0.072 0.137 0.144 z M -5.894 70.552 l -0.262 0.059 -0.025 -0.026 -0.085 -0.035 -0.172 -0.098 0.194 -0.007 0.175 -0.041 0.097 0.017 0.022 0.011 z M -3.28 70.534 l -0.162 0.002 -0.048 -0.027 -0.007 -0.02 0.209 -0.144 0.114 -0.037 0.223 -0.028 0.145 0.009 0.092 0.032 0.029 0.056 0.002 0.086 -0.055 0.045 z M -66.174 80.078 l -0.094 0.004 -0.052 -0.006 -0.047 -0.021 -0.044 -0.081 -0.494 -0.064 -0.058 -0.036 -0.031 -0.079 -0.084 -0.032 -0.642 -0.142 -0.052 -0.031 -0.038 -0.044 0.121 -0.017 0.25 0.032 0.459 0.008 0.098 0.014 0.096 0.026 0.511 0.004 0.26 0.012 0.144 0.113 0.291 0.033 0.04 0.066 0.035 0.117 -0.395 0.086 -0.09 0.013 z M -67.262 79.453 l -0.172 0.049 -0.727 -0.023 -0.247 -0.015 -0.141 -0.027 0.127 -0.104 0.098 -0.035 0.091 -0.013 0.2 -0.058 0.318 -0.013 0.24 0.009 0.406 0.046 -0.104 0.043 -0.067 0.016 -0.065 0.066 z M -55.165 61.22 l -0.132 0.028 -0.05 -0.037 -0.022 -0.065 -0.071 -0.04 0.053 -0.033 0.716 0.044 -0.039 0.023 -0.348 0.029 z M -55.873 63.536 l -0.084 0.044 -0.222 -0.067 -0.057 -0.044 0.025 -0.032 0.352 -0.03 0.096 0.015 0.043 0.07 z M -57.24 64.567 l -0.086 0.004 -0.107 -0.03 -0.015 -0.052 0.002 -0.029 0.08 -0.021 0.051 -0.003 0.292 -0.083 0.128 -0.019 -0.057 0.049 0.006 0.046 -0.046 0.041 z M -56.06 63.079 l -0.199 0.095 -0.095 -0.004 -0.192 -0.071 -0.055 -0.037 -0.014 -0.017 0.126 -0.063 0.348 0.023 0.079 0.007 0.003 0.006 0.007 0.036 z M -57.374 63.807 l 0.014 0.018 0.199 -0.009 0.057 0.025 -0.114 0.034 -0.03 -0.007 -0.096 0.01 -0.273 -0.025 -0.067 -0.041 0.244 -0.021 z M -61.998 69.722 l -0.088 0.008 -0.087 -0.093 -0.044 -0.142 -0.28 -0.207 -0.071 -0.108 0.052 -0.026 0.074 -0.009 0.203 0.03 0.121 0.039 0.14 0.086 0.162 0.076 0.032 0.066 -0.023 0.073 -0.104 0.019 0.004 0.054 -0.062 0.104 z M -60.625 62.56 l 0.049 0.013 0.436 -0.024 0.137 0.07 0.153 -0.004 -0.371 0.13 -0.101 -0.038 -0.032 -0.028 -0.024 -0.063 -0.242 0.017 -0.077 -0.013 -0.099 0.042 -0.199 0.017 -0.068 0 -0.086 -0.045 -0.003 -0.045 0.178 0.003 0.137 -0.058 0.038 -0.058 0.067 0.016 z M -71.985 69.698 l -0.217 0.042 -0.143 -0.033 -0.432 -0.062 -0.181 -0.116 0.021 -0.06 0.079 -0.036 0.131 -0.02 0.262 0.039 0.133 0.04 z M -95.027 72.665 l -0.192 0.005 -0.054 -0.023 0.057 -0.047 0.463 -0.082 0.187 -0.049 0.028 0.008 0.025 0.016 0.08 0.097 0.008 0.023 z M -104.538 73.166 l -0.122 0.046 -0.221 -0.012 -0.172 -0.075 -0.071 -0.1 -0.008 -0.035 0.047 -0.026 0.112 -0.025 z M -119.549 74.11 l -0.209 0.012 -0.063 -0.002 -0.066 -0.022 -0.018 -0.016 0.108 -0.052 0.103 -0.023 0.032 -0.017 -0.141 -0.175 0.134 -0.005 0.153 -0.034 0.3 0.003 0.257 0.032 0.049 0.025 0.032 0.044 -0.112 0.089 -0.069 0.031 -0.39 0.079 z M -127.366 74.623 l -0.152 0.018 -0.299 -0.066 -0.098 -0.032 -0.085 -0.053 -0.07 -0.011 -0.026 -0.012 -0.037 -0.139 0.091 -0.015 0.19 0.02 0.367 0.073 0.257 0.02 0.085 0.055 -0.087 0.098 z M -161.994 83.119 l -0.311 0.023 -0.742 -0.045 -0.196 -0.037 -0.106 -0.038 -0.204 -0.034 -0.05 -0.019 0 -0.041 -0.032 -0.025 -0.07 -0.023 -0.031 -0.022 -0.061 -0.014 0.997 0.022 0.388 0.034 0.071 0.024 0.705 0.104 -0.193 0.016 z M -160.467 81.589 l -0.104 0.008 -2.682 -0.115 -0.513 -0.038 -0.124 -0.021 -0.049 -0.02 -0.012 -0.013 0.021 -0.039 0.061 -0.028 0.668 -0.043 0.744 0.032 0.898 0.083 0.621 0.067 0.321 0.059 0.131 0.045 z M 163.976 74.833 l -0.131 0 -0.081 -0.03 -0.026 -0.069 0.004 -0.022 0.261 -0.083 0.206 -0.021 -0.11 0.124 -0.039 0.021 z M 162.968 75.567 l -0.18 0.129 -0.126 -0.004 -0.071 -0.023 0.129 -0.072 0.122 -0.03 0.075 -0.009 z M 169.844 73.605 l -0.134 0.02 -0.187 -0.064 -0.043 -0.022 0.18 -0.121 -0.014 -0.039 0.026 -0.033 0.068 -0.026 0.043 0.004 0.103 0.134 0.074 0.056 -0.102 0.054 z M 164.834 67.54 l -0.087 0.028 -0.054 -0.009 -0.053 -0.06 0.057 -0.092 -0.021 -0.119 0.009 -0.029 0.141 0.067 0.025 0.038 0.057 0.055 0.011 0.029 -0.058 0.056 z M 163.302 66.821 l -0.018 0.061 -0.049 -0.014 -0.071 -0.049 -0.074 -0.119 0.067 -0.012 0.082 0.02 0.033 0.059 0.028 0.031 z M 162.611 66.477 l -0.054 0.048 -0.046 -0.005 -0.209 -0.12 0.024 -0.052 -0.029 -0.044 0.005 -0.039 0.008 -0.013 0.253 0.181 z M 96.613 66.036 l 0.115 0.025 0.204 -0.002 0.074 0.038 0.013 0.043 -0.003 0.025 -0.082 0.037 -0.539 0.024 -0.087 -0.039 0.092 -0.106 0.101 -0.034 z M 100.265 66.217 l -0.132 0.013 -0.051 -0.027 -0.006 -0.015 0.098 -0.057 0.116 -0.019 -0.009 0.068 z M 98.846 66.47 l -0.094 0.012 -0.097 -0.028 -0.05 -0.053 -0.009 -0.017 0.152 -0.013 0.201 0.051 z M 103.397 65.445 l -0.06 0.023 -0.161 -0.014 -0.038 -0.02 -0.014 -0.097 -0.011 -0.026 -0.058 -0.027 -0.266 -0.049 -0.029 -0.068 0.037 -0.032 0.097 -0.007 0.244 0.061 0.054 0.046 -0.009 0.071 0.004 0.023 0.075 0.047 0.118 0.049 z M 92.601 65.808 l -0.131 0.013 -0.137 -0.014 -0.07 -0.047 -0.015 -0.02 0.053 -0.033 0.195 -0.005 0.137 0.029 0.031 0.03 0.005 0.014 z M 85.822 66.953 l -0.172 0.026 -0.028 -0.014 -0.005 -0.014 -0.259 -0.097 -0.044 -0.078 0.026 -0.053 0.213 0.005 0.253 0.046 0.131 0.12 z M 86.542 66.767 l -0.115 0.025 -0.09 -0.004 -0.105 -0.055 0.046 -0.036 0.106 -0.022 0.137 0.012 0.036 0.019 0.095 0.012 z M 85.329 66.612 l -0.106 0.032 -0.086 -0.006 -0.057 -0.033 -0.011 -0.021 0.052 -0.065 0.044 0.003 0.029 0.034 z M 69.918 71.918 l -0.126 0.129 -0.048 -0.003 -0.051 -0.076 0.045 -0.046 0.059 -0.028 0.099 0.014 z M 68.462 72.3 l -0.053 0 0.027 -0.04 0.13 -0.07 0.101 -0.087 0.062 -0.014 0.111 0.076 -0.023 0.063 -0.148 0.047 z M 72.002 70.633 l -0.073 0 -0.088 -0.011 -0.115 -0.073 -0.066 -0.052 -0.022 -0.054 0.009 -0.107 0.058 -0.052 0.092 -0.02 0.041 0.048 0.013 0.055 0.029 0.038 0.12 0.051 0.056 0.044 0.018 0.024 0.024 0.05 -0.019 0.034 z M 48.546 66.784 l -0.168 0.023 -0.073 -0.009 -0.008 -0.024 -0.002 -0.024 0.007 -0.026 0.057 -0.02 0.28 -0.003 0.113 0.019 0.031 0.012 0.003 0.036 -0.011 0.011 z M 16.223 70.008 l -0.063 0.064 -0.314 -0.09 -0.181 -0.027 -0.05 -0.016 -0.043 -0.054 -0.008 -0.022 0.034 -0.035 0.102 -0.055 0.211 -0.045 0.337 -0.023 0.327 0.018 0.052 0.027 -0.31 0.094 z M 3.037 70.597 l -0.339 0.026 -0.075 -0.03 -0.038 -0.059 0.047 -0.034 0.441 -0.119 0.121 0.011 0.038 0.01 0.029 0.046 -0.039 0.07 -0.05 0.035 z M -2.955 71.214 l -0.106 0.023 -0.141 -0.006 -0.108 -0.029 -0.076 -0.058 -0.018 -0.023 0.012 -0.039 -0.007 -0.019 0.136 -0.01 0.05 0.024 0.021 0.019 z M 1.299 70.255 l -0.088 0.126 -0.055 -0.003 -0.052 -0.074 -0.114 -0.08 -0.038 -0.055 -0.003 -0.075 0.077 -0.044 0.288 -0.027 0.097 0.018 0.049 0.095 z M -2.533 70.768 l 0.109 0.033 0.168 -0.004 0.163 0.025 -0.027 0.034 -0.094 0.046 -0.08 0.096 -0.076 0.046 -0.238 0.097 -0.177 0.026 -0.042 -0.055 0.003 -0.056 0.017 -0.042 0.005 -0.033 -0.163 -0.042 -0.012 -0.057 -0.032 -0.032 -0.482 -0.116 -0.086 -0.033 0.038 -0.02 0.497 -0.009 0.29 0.02 z M 4.526 70.479 l -0.161 0.024 -0.186 -0.051 -0.05 -0.034 -0.053 -0.092 -0.006 -0.035 0.042 -0.023 0.144 -0.026 0.239 0.011 0.091 0.043 0.031 0.074 -0.028 0.064 z M -20.607 73.887 l -0.047 0.218 0.013 0.046 0.041 0.046 0.177 0.121 0.012 0.091 -0.005 0.035 -0.072 0.049 -0.248 -0.012 -0.081 -0.026 -0.028 -0.017 -0.131 -0.213 -0.074 -0.049 -0.115 -0.043 -0.443 -0.041 -0.425 0.015 0.105 -0.05 0.642 -0.067 0.162 -0.05 0.102 -0.06 0.045 -0.09 0.112 -0.114 0.177 -0.051 0.11 -0.006 0.06 0.093 0 0.086 z M -16.104 72.679 l -0.07 0.024 -0.143 -0.001 -0.135 -0.05 -0.057 -0.07 -0.007 -0.051 0.061 -0.057 0.1 -0.015 0.053 0.019 0.13 0.122 z M -12.509 72.173 l -0.08 0.023 -0.132 -0.008 -0.168 -0.051 -0.055 -0.038 -0.02 -0.034 0.048 -0.05 0.039 -0.014 0.087 0.006 0.152 0.065 0.102 0.069 z M -32.343 79.674 l -0.172 0.009 -0.068 -0.025 0.082 -0.066 0.124 -0.058 0.227 -0.005 0.217 0.038 -0.023 0.036 -0.044 0.003 z M -54.071 61.299 l -0.045 0.009 -0.068 -0.039 -0.008 -0.023 0.07 -0.045 0.072 -0.06 0.026 -0.007 -0.017 0.12 z M -58.838 62.303 l -0.221 0.045 -0.115 -0.046 -0.028 -0.019 0.139 -0.044 0.073 0.01 0.029 0.015 0.083 0.004 z M -61.158 69.976 l -0.15 0.002 -0.07 -0.028 -0.026 -0.017 0.018 -0.039 0.059 -0.037 0.175 0.027 0.044 0.072 z M -60.656 68.768 l -0.037 0.027 -0.127 -0.017 -0.074 -0.02 -0.121 -0.049 0.068 -0.029 0.134 0.007 0.109 0.034 z M -60.741 70.711 l -0.085 0 -0.07 -0.021 -0.062 -0.061 -0.018 -0.03 0.034 -0.067 0.058 -0.015 0.33 -0.009 0.101 0.035 0.004 0.059 -0.039 0.043 z M -60.552 71.053 l -0.1 0.006 -0.138 -0.018 -0.117 -0.034 -0.04 -0.04 0.057 -0.033 0.106 -0.02 0.17 0.006 0.08 0.042 0.017 0.037 -0.02 0.041 z M -59.389 62.444 l -0.136 0.007 -0.094 -0.056 -0.041 -0.041 0.182 -0.002 0.083 0.015 0.042 0.046 z M -60.505 62.967 l -0.05 0.01 -0.065 -0.008 0.002 0.018 0.054 0.022 -0.058 0.009 -0.071 -0.022 -0.048 -0.047 0.035 -0.043 0.068 -0.01 z M -60.653 63.867 l -0.125 0.036 -0.075 -0.011 -0.12 -0.042 0.162 -0.012 0.013 -0.12 0.082 -0.048 0.152 0.027 -0.094 0.063 -0.033 0.049 0.034 0.042 z M -61.952 64.077 l -0.091 0.003 0.023 -0.053 0.084 -0.037 0.138 -0.024 -0.088 0.06 -0.025 0.028 z M -63.316 64.861 l -0.158 0.045 -0.084 -0.001 0.099 -0.11 0.092 -0.004 0.148 -0.062 0.042 0.009 -0.08 0.052 z M -62.615 63.069 l -0.04 0.004 0.016 -0.042 0.112 -0.108 0.21 -0.05 -0.027 0.044 -0.067 0.054 z M -65.845 65.842 l -0.219 0.038 -0.111 -0.014 -0.006 -0.04 0.028 -0.053 0.104 -0.029 -0.017 -0.079 0.067 -0.033 0.031 -0.062 0.135 -0.044 0.197 0.021 -0.031 0.078 -0.002 0.027 -0.114 0.021 -0.03 0.012 -0.027 0.052 0.005 0.075 z M -66.595 66.201 l -0.223 0.112 -0.031 -0.007 -0.018 -0.012 0.001 -0.019 0.075 -0.041 0.013 -0.123 0.148 -0.044 0.056 0.016 -0.048 0.051 0.03 0.045 z M -67.362 66.895 l -0.047 0.007 -0.112 -0.005 -0.072 -0.022 0.094 -0.072 -0.011 -0.047 0.085 -0.019 0.094 0.017 0.063 0.062 0.012 0.026 z M -67.349 67.766 l -0.196 0.019 -0.149 -0.022 0.004 -0.076 -0.041 -0.008 -0.013 -0.018 0.187 -0.057 0.139 -0.014 0.171 0.008 0.072 0.026 0.025 0.026 -0.13 0.062 -0.02 0.025 z M -71.695 70.265 l 0.047 0.03 0.216 -0.028 0.077 0.031 0.015 0.02 -0.097 0.074 -0.113 0.047 -0.133 0.003 -0.097 -0.123 -0.013 -0.03 z M -73.878 73.357 l -0.096 0.019 -0.063 -0.011 -0.108 -0.05 0.012 -0.039 0.05 -0.027 0.036 -0.029 0.217 -0.107 0.158 -0.013 0.132 0.023 -0.14 0.101 -0.039 0.071 z M -93.796 72.92 l -0.17 0 -0.113 -0.036 -0.035 -0.024 0.066 -0.037 0.043 -0.003 0.205 0.062 0.044 0.026 z M -116.739 74.165 l -0.492 0.028 -0.133 -0.032 -0.035 -0.038 0.022 -0.04 0.995 -0.217 0.179 0.03 0.048 0.015 -0.296 0.107 -0.133 0.038 -0.024 0.013 0.074 0.015 0.02 0.012 -0.057 0.03 z M -132.391 74.442 l -0.155 0.057 -0.311 -0.037 0.025 -0.04 0.279 -0.035 0.19 0.023 z M -131.067 74.584 l -0.112 0.021 -0.419 -0.051 -0.243 -0.011 -0.112 -0.028 -0.073 -0.026 -0.024 -0.025 -0.113 -0.038 0.225 -0.077 0.175 -0.025 0.169 0.006 0.034 0.038 0.326 0.046 0.253 0 0.024 0.042 -0.01 0.059 z M -147.588 76.65 l 0.009 0.013 -0.151 -0.009 -0.225 -0.056 -0.047 -0.02 0.101 -0.019 0.13 0.019 0.121 0.034 z M -145.238 75.711 l -0.11 0.005 -0.193 -0.023 -0.502 -0.081 -0.108 -0.038 0.075 -0.04 0.18 -0.029 0.135 0.009 0.343 0.074 0.102 0.053 0.063 0.041 z M -146.607 76.961 l -0.375 0.044 -0.097 -0.013 0.035 -0.063 -0.057 -0.043 -0.014 -0.02 0.029 -0.029 0.22 0 0.622 0.046 0.08 0.065 z M -148.596 77.007 l -0.419 0.012 -0.23 -0.026 -0.058 -0.077 0.064 -0.016 0.534 0.035 0.195 0.019 0.069 0.023 -0.035 0.021 z M -149.333 76.717 l 0.405 0.013 0.265 -0.01 0.278 0.024 0.063 0.027 -0.05 0.023 -0.299 0.007 -0.145 0.039 -0.169 0.005 -0.255 -0.028 -0.23 -0.061 z M -149.218 77.336 l 0.289 0.05 -0.51 -0.016 -0.224 -0.07 0.144 -0.026 0.143 0.005 0.126 0.035 z M -150.233 76.776 l -0.423 0.013 -0.175 -0.027 -0.043 -0.025 0.036 -0.023 0.66 -0.023 0.074 0.028 0.019 0.016 z M -146.69 76.246 l -0.204 0.015 -0.256 -0.063 -0.194 -0.051 -0.062 -0.042 -0.013 -0.014 0.003 -0.017 0.057 -0.011 0.412 0.035 z M -146.79 76.633 l -0.118 0.081 -0.314 -0.043 -0.134 -0.052 0.077 -0.066 0.143 -0.021 0.188 0.023 0.07 0.008 z M -150.397 77.369 l -0.078 0.005 -0.87 -0.077 -0.167 -0.023 0.294 -0.047 0.196 -0.006 0.522 0.115 0.143 0.014 z M -153.93 80.033 l -0.184 0.003 -0.235 -0.01 -0.181 -0.026 -0.412 -0.034 -0.103 -0.067 -0.481 -0.053 -0.226 -0.017 0.077 -0.064 0.512 0.085 0.627 0.085 0.51 0.052 z M -149.231 77.121 l -0.063 0.016 -0.435 -0.008 -0.088 -0.014 -0.039 -0.015 -0.605 -0.024 -0.274 -0.071 -0.053 -0.023 0.108 -0.033 0.204 -0.022 0.082 -0.027 0.523 -0.024 0.081 0.014 0.047 0.038 0.237 0.075 0.064 0.048 0.025 0.03 0.128 0.014 z M -157.988 82.105 l -0.089 0.007 -0.078 -0.054 -0.391 -0.11 -0.228 -0.073 -0.153 -0.057 -0.062 -0.039 0.075 0 0.567 0.121 0.086 0.047 0.426 0.083 z" vector-effect="non-scaling-stroke" fill="#000" fill-opacity="1" stroke="#FFF" stroke-width="0px" stroke-linejoin="round" stroke-linecap="round"/></svg>
