<svg xmlns="http://www.w3.org/2000/svg" xmlns:xlink="http://www.w3.org/1999/xlink" height="400" width="400" viewBox="-73.57626953125 21.8025390625 19.90771484375 33.22958984375"><path d="M -57.609 30.188 l -0.037 0.039 -0.005 0.068 -0.062 0.089 -0.119 0.111 -0.041 0.096 0.054 0.121 0.008 0.147 -0.023 0.059 -0.052 0.02 -0.012 0.038 0.028 0.056 0.002 0.073 -0.025 0.091 -0.055 0.104 -0.085 0.117 -0.02 0.078 0.044 0.039 0.022 0.042 -0.001 0.044 -0.018 0.064 -0.035 0.084 -0.054 0.063 -0.072 0.041 -0.022 0.052 0.029 0.062 0.004 0.065 -0.021 0.067 0.012 0.066 0.045 0.064 -0.003 0.073 -0.078 0.15 -0.019 0.092 0.049 0.395 -0.03 0.055 -0.05 0.064 -0.058 0.005 -0.067 -0.011 -0.048 0.04 -0.03 0.174 -0.092 0.378 0.017 0.09 0.074 0.145 0.027 0.093 0.02 0.07 0.017 0.132 -0.043 0.06 -0.04 0.01 -0.05 0.033 0.059 0.161 0.047 0.074 0.136 0.152 0.52 0.211 0.216 0.124 0.244 0.17 0.133 0.174 0.012 0.143 -0.195 0.214 -0.022 0.18 0.04 0.126 0.07 0.117 0.189 0.153 0.139 0.056 0.188 -0.006 0.032 0.043 0.019 0.037 0.03 0.309 -0.004 0.116 -0.055 0.106 -0.361 0.489 -0.308 0.298 -0.112 0.165 -0.04 0.176 -0.099 0.084 -0.534 0.266 -0.828 0.237 -0.669 0.123 -0.152 0.042 -1.076 0.136 -0.208 0.019 -0.271 -0.012 -0.22 0.018 -0.245 -0.037 -0.219 -0.043 -0.122 -0.106 -0.146 -0.013 -0.04 0.053 0.071 0.135 -0.034 0.162 0.043 0.093 0.086 0.019 0.083 0.048 0.073 0.064 -0.126 0.007 0.049 0.051 0.054 0.03 -0.006 0.107 -0.049 0.257 -0.122 0.055 -0.033 0.015 -0.037 0.055 -0.078 0.246 -0.025 0.159 0.033 0.103 0.147 0.216 -0.056 0.14 -0.093 0.076 -0.403 0.156 -0.161 0.063 -0.254 0.043 -0.409 0.007 -0.151 -0.01 -0.35 -0.142 -0.26 -0.085 -0.238 -0.068 -0.231 -0.041 0.033 -0.021 0.015 -0.037 -0.065 -0.021 -0.047 -0.004 -0.153 0.074 -0.064 0.075 -0.018 0.066 -0.003 0.159 0.027 0.133 0.11 0.328 0.011 0.178 -0.052 0.225 0.073 0.132 0.088 0.06 0.199 0.059 0.077 0.04 0.085 -0.006 0.026 0.016 -0.012 0.029 -0.05 0.057 0.003 0.06 0.151 0.018 0.156 -0.012 0.164 -0.027 0.039 -0.042 0.001 -0.087 -0.192 -0.015 0.024 -0.033 0.145 -0.035 0.19 -0.058 0.097 -0.011 0.066 0.039 0.045 0.036 0.055 0.094 0.034 0.124 0.001 0.149 -0.023 0.14 -0.027 0.05 -0.048 0.06 -0.342 0.076 -0.096 -0.02 -0.089 -0.106 -0.028 -0.109 -0.076 -0.074 -0.164 -0.059 -0.163 0.018 -0.161 0.102 -0.159 0.033 -0.056 0.093 0.398 0.15 0.188 0.042 0.061 -0.001 0.061 0.02 -0.057 0.056 -0.057 0.035 -0.283 0.076 -0.125 0.053 -0.146 0.105 -0.204 0.229 -0.063 0.05 -0.031 0.058 -0.021 0.158 0.066 0.261 -0.07 0.109 0.043 0.121 -0.024 0.081 -0.071 0.117 -0.286 0.184 -0.051 0.135 0.099 0.079 -0.007 0.069 -0.033 0.063 -0.119 -0.001 -0.432 -0.042 -0.158 0.069 -0.146 0.084 -0.04 0.04 -0.052 0.025 -0.297 0.045 -0.059 0.03 -0.316 0.32 -0.135 0.198 -0.164 0.195 -0.043 0.082 -0.009 0.114 0.023 0.103 0.023 0.076 0.057 0.097 0.12 0.111 0.61 0.452 0.126 0.039 0.652 0.048 0.145 0.063 0.085 0.1 0.031 0.088 -0.037 0.223 -0.039 0.07 -0.072 0.063 -0.154 0.082 -0.185 0.043 0.053 0.031 0.075 -0.004 0.163 -0.026 0.071 0.026 0.054 0.088 -0.102 0.036 -0.031 0.043 -0.074 0.065 -0.376 0.258 -0.203 0.077 -0.187 0.103 -0.25 0.105 -0.098 0.06 -0.132 0.126 -0.203 0.137 -0.219 0.295 -0.009 0.057 0.032 0.038 -0.122 0.517 -0.042 0.061 -0.088 0.065 -0.232 0.107 -0.112 0.013 -0.147 -0.062 -0.083 -0.065 -0.081 -0.111 -0.098 -0.114 -0.005 0.041 0.034 0.07 -0.023 0.073 -0.251 0.033 -0.067 0.034 0.227 -0.015 0.155 0.022 0.065 0.027 0.059 0.055 0.052 0.067 -0.044 0.037 -0.124 0.03 -0.16 0.056 -0.19 0.101 -0.105 0.117 -0.045 0.084 -0.051 0.169 -0.014 0.112 -0.08 0.086 -0.123 0.078 0.007 0.018 0.084 -0.04 0.067 -0.013 0.058 0.103 0.078 0.207 0.036 0.143 -0.006 0.042 -0.023 0.058 -0.16 0.014 -0.142 -0.002 -0.105 0.025 0.056 0.026 0.096 -0.009 0.133 0.061 0.148 -0.026 0.067 0.041 0.049 0.038 0.226 0.298 0.197 0.184 0.1 0.109 -0.05 0.05 -0.018 -0.066 -0.129 -0.017 -0.125 -0.018 -0.209 -0.047 -0.282 -0.072 -0.282 0 -0.224 -0.061 -0.248 -0.067 -0.523 -0.006 -0.46 -0.004 -0.472 -0.004 -0.302 -0.003 -0.202 -0.002 -0.052 -0.025 0.018 -0.084 -0.075 -0.062 -0.109 -0.075 -0.132 -0.053 -0.066 -0.071 -0.073 -0.079 0.041 -0.071 0.063 -0.171 0.001 -0.076 -0.057 -0.053 -0.018 -0.075 0.018 -0.035 0.052 -0.027 0.031 -0.123 -0.024 -0.121 -0.04 -0.108 -0.052 -0.048 -0.068 -0.023 -0.05 -0.004 -0.111 0.04 -0.183 -0.01 -0.062 0.015 -0.09 0.043 -0.127 0.064 -0.071 -0.022 -0.022 -0.068 -0.047 -0.059 -0.03 -0.052 -0.023 -0.086 -0.038 -0.111 -0.075 -0.131 -0.115 -0.106 -0.006 -0.095 -0.021 -0.119 0.058 -0.116 -0.034 -0.096 -0.072 -0.115 0.022 -0.119 0.071 -0.066 0.022 -0.084 0.326 -0.013 -0.014 -0.113 0.054 -0.091 0.061 -0.083 0.052 -0.038 0.116 -0.033 0.137 -0.048 0.077 -0.055 0.037 -0.049 0.023 -0.063 0.006 -0.067 -0.022 -0.143 0.026 -0.044 0.085 -0.058 0.143 -0.052 0.062 -0.137 -0.035 -0.119 -0.08 -0.094 -0.101 -0.043 -0.009 -0.097 0.046 -0.092 0.06 -0.099 0.071 -0.113 -0.004 -0.079 0.063 -0.046 0.179 -0.104 0.062 -0.101 0.063 -0.028 0.074 -0.012 0.004 -0.057 -0.054 -0.057 -0.009 -0.071 0.006 -0.079 0.016 -0.106 0.084 -0.04 0.124 -0.086 0.033 -0.054 0.004 -0.073 -0.036 -0.151 -0.031 -0.108 -0.016 -0.04 -0.056 -0.073 -0.042 -0.046 0.066 -0.058 0.125 -0.061 0.053 -0.088 -0.049 -0.075 -0.071 -0.04 -0.022 -0.115 0.026 -0.146 0.053 -0.044 0.185 -0.022 0.018 -0.075 0.141 -0.106 -0.004 -0.101 -0.09 -0.062 -0.088 -0.1 -0.065 -0.089 -0.216 -0.049 -0.229 -0.026 -0.031 -0.084 0.009 -0.049 0.107 0.02 0.174 -0.017 0.131 -0.004 0.091 -0.008 0.105 -0.012 0.097 0.035 0.097 -0.022 0.04 -0.132 0.062 -0.071 0.009 -0.066 -0.062 -0.053 -0.113 -0.016 -0.494 -0.042 -0.015 -0.053 0.004 -0.089 0.019 -0.091 0 -0.045 0.045 -0.039 0.051 -0.082 0.036 -0.055 -0.036 -0.071 -0.079 -0.105 0.057 -0.049 0.005 -0.058 -0.018 -0.057 -0.082 -0.063 -0.073 -0.087 0 -0.093 0.085 -0.025 0.056 -0.028 0.013 -0.057 -0.031 -0.071 -0.117 -0.021 -0.156 -0.043 -0.048 -0.036 -0.044 -0.076 0.033 -0.213 -0.016 -0.129 -0.014 -0.071 0.038 -0.055 0.052 -0.049 -0.025 -0.115 -0.046 -0.06 0.016 -0.046 0.044 -0.046 0.038 -0.057 0.033 -0.014 0.049 0.033 0.083 -0.019 0.1 -0.046 0.011 -0.055 -0.02 -0.078 -0.074 -0.197 -0.067 -0.122 0.014 -0.044 0.026 -0.046 -0.021 -0.167 0.007 -0.101 0.005 -0.298 0.008 -0.102 -0.068 -0.104 0.009 -0.097 0.048 -0.071 0.045 -0.096 0.034 -0.085 0.035 -0.038 0.06 -0.019 0.014 -0.046 -0.027 -0.036 -0.078 -0.055 -0.018 -0.068 0.016 -0.052 0.038 -0.03 0.059 0 0.045 -0.074 0.013 -0.092 0.009 -0.042 -0.034 -0.054 -0.025 -0.126 -0.023 -0.072 0.027 -0.03 0.038 -0.011 0.067 0.017 0.048 -0.009 0.008 -0.038 0.005 -0.041 0.018 -0.028 0.042 -0.093 0.045 -0.115 0.011 -0.081 -0.016 -0.22 0.024 -0.051 0.048 -0.046 0.067 -0.043 0.088 -0.036 0.11 -0.052 0.135 -0.019 0.055 -0.057 0.038 -0.077 0.011 -0.063 -0.052 -0.044 -0.068 -0.052 -0.033 -0.131 -0.018 -0.121 -0.01 -0.153 -0.068 -0.131 -0.071 -0.148 -0.019 -0.131 0.024 -0.072 0.028 -0.114 -0.03 -0.052 -0.035 -0.093 0.037 -0.073 0.045 -0.113 -0.005 -0.057 -0.036 -0.137 -0.033 -0.077 0.033 -0.082 0.052 -0.077 0.041 -0.041 -0.007 -0.066 0.018 -0.054 0.078 -0.036 0.073 -0.067 0.052 -0.008 0.063 0 0.041 -0.019 0.016 -0.052 0.011 -0.057 0.1 -0.071 0.058 -0.066 0.107 -0.014 0.052 -0.071 0.001 -0.091 -0.012 -0.092 0.036 -0.107 -0.04 -0.163 0.004 -0.086 -0.041 -0.071 0.008 -0.077 -0.022 -0.049 -0.062 -0.018 -0.023 -0.061 0.03 -0.03 0.058 -0.023 0.073 -0.047 0.055 -0.225 0.026 -0.067 0.025 -0.08 -0.003 -0.042 0.035 -0.06 0.044 -0.091 0.069 -0.088 0.04 -0.061 0.038 -0.082 0.011 -0.049 0.049 -0.025 0.056 -0.006 0.067 -0.016 0.027 -0.03 -0.005 -0.044 -0.004 -0.097 -0.02 -0.154 -0.013 -0.198 0.012 -0.13 0.044 -0.131 0.041 -0.071 -0.011 -0.055 -0.011 -0.06 -0.077 -0.033 -0.073 0.028 -0.051 -0.008 -0.065 -0.07 -0.019 -0.074 0.011 -0.101 0.051 -0.063 0.02 -0.079 -0.03 -0.025 -0.064 -0.053 -0.061 -0.181 0.007 -0.154 -0.06 -0.041 -0.028 -0.121 -0.062 -0.043 -0.025 -0.09 -0.019 -0.093 0.008 -0.041 0.065 -0.011 0.037 -0.073 -0.027 -0.041 -0.049 -0.036 -0.063 0.003 -0.056 -0.042 -0.075 -0.175 -0.06 -0.097 0.019 -0.142 0.012 -0.111 0.026 -0.095 0.009 -0.074 0.046 -0.036 0.044 0.017 0.041 -0.008 0.038 -0.061 0.042 -0.038 -0.003 -0.03 -0.025 -0.033 -0.012 -0.057 0.029 -0.068 0.05 -0.157 0.075 -0.173 0.033 -0.064 -0.008 -0.055 0.016 -0.025 0.051 0.027 0.146 -0.03 0.049 -0.077 0.019 -0.068 0.044 -0.038 -0.019 -0.055 -0.06 -0.016 -0.036 -0.026 0.015 -0.062 0.021 -0.142 -0.004 -0.105 -0.055 -0.224 -0.044 -0.221 0.031 -0.074 0.095 -0.101 0.072 -0.046 0.013 -0.058 0.072 -0.262 0.008 -0.143 0.047 -0.079 0.031 -0.148 0.13 -0.128 0.038 -0.085 0.052 -0.008 0.027 -0.027 0.069 -0.095 0.09 -0.097 0.077 -0.049 0.019 -0.077 0.037 -0.105 0.076 -0.174 0.043 -0.121 0.057 -0.044 0.067 -0.158 0.029 -0.093 0.077 -0.038 0.06 -0.011 0.057 0.044 0.06 -0.008 0.055 -0.055 0.132 -0.037 0.059 -0.02 0.027 -0.055 0 -0.096 -0.055 -0.071 -0.112 -0.136 -0.096 -0.152 -0.01 -0.048 -0.001 -0.052 0.016 -0.066 0.046 -0.075 0.115 -0.123 -0.012 -0.088 -0.084 -0.324 -0.031 -0.089 -0.058 -0.166 0.008 -0.066 0.051 -0.183 0.044 -0.074 0.066 -0.014 0.035 -0.025 0.011 -0.033 -0.044 -0.041 -0.019 -0.052 -0.019 -0.074 -0.061 -0.026 -0.035 -0.062 0 -0.09 0.055 -0.118 0.06 -0.033 0.025 -0.052 0.064 -0.048 0.059 -0.037 0.049 -0.068 0.203 -0.084 0.161 -0.065 0.314 -0.124 0.216 -0.085 0.021 -0.059 0.016 -0.04 0.1 -0.301 0.129 -0.389 0.081 -0.244 -0.186 -0.18 0.033 -0.048 0.106 -0.123 0.022 -0.099 0.042 -0.042 0.191 -0.1 0.033 -0.067 0.017 -0.074 0.039 -0.053 0.073 -0.011 0.132 -0.047 0.142 -0.045 0.043 -0.061 0.04 -0.106 0.035 -0.117 0.027 -0.028 0.046 0.003 0.076 0.029 0.04 0.044 0.198 0.14 0.089 0.08 0.085 0.011 0.167 -0.016 0.034 0.004 0.427 0.005 0.065 0.007 0.15 0.034 0.084 0.027 0.059 0.014 0.095 0.043 0.082 0.143 0.046 0.114 0.032 0.1 0.072 0.176 0.049 0.067 0.017 -0.032 0.042 -0.192 0.057 -0.112 0.077 -0.125 0.156 -0.293 0.054 -0.044 0.061 -0.021 0.042 -0.002 0.043 0.022 0.059 0 0.042 -0.023 0.408 -0.004 0.424 -0.003 0.009 0.002 0.019 0.05 0.071 0.11 0.079 0.058 0.014 0.016 0.025 0.028 0 0.029 0.084 0.059 0.169 0.09 0.158 0.173 0.148 0.257 0.139 0.19 0.129 0.123 0.119 0.087 0.108 0.051 0.058 0.041 0.008 0.032 0.102 0.066 0.196 0.1 0.124 0.099 0.052 0.099 0.193 0.102 0.334 0.105 0.243 0.05 0.152 -0.005 0.218 0.084 0.284 0.173 0.173 0.12 0.062 0.067 0.186 0.108 0.463 0.224 0.204 0.056 0.097 0.051 0.057 0.065 0.057 0.02 0.056 -0.025 0.116 0.023 0.177 0.072 0.138 0.087 0.178 0.192 0.057 0.077 0.024 0.069 -0.009 0.06 -0.054 0.065 -0.1 0.068 -0.029 0.03 -0.002 0.029 -0.025 0.058 -0.083 0.123 -0.021 0.057 -0.004 0.042 -0.052 0.046 -0.139 0.086 -0.029 0.042 -0.007 0.045 -0.018 0.027 -0.019 0.011 -0.027 0.045 -0.022 0.074 -0.002 0.095 0.017 0.116 -0.003 0.037 -0.031 0.02 -0.017 0.027 -0.006 0.054 -0.026 0.04 -0.046 0.025 -0.017 0.029 0.012 0.033 -0.034 0.032 -0.08 0.032 -0.049 0.046 -0.018 0.061 -0.044 0.054 -0.071 0.048 -0.023 0.064 0.037 0.118 0.437 -0.041 0.356 0.043 0.421 0.114 0.279 0.04 0.138 -0.034 0.102 0.005 0.067 0.044 0.089 0.009 0.112 -0.026 0.093 0.02 0.073 0.066 0.067 -0.016 0.06 -0.099 0.069 -0.072 0.078 -0.045 0.097 -0.014 0.116 0.018 0.092 0.036 0.069 0.054 0.075 -0.002 0.082 -0.058 0.039 -0.069 -0.003 -0.08 0.032 -0.058 0.068 -0.035 0.046 -0.047 0.024 -0.059 0.081 -0.036 0.138 -0.013 0.072 -0.029 0.006 -0.045 0.041 -0.042 0.075 -0.038 0.051 -0.047 0.028 -0.057 0.046 -0.036 0.063 -0.015 0.07 -0.119 0.077 -0.224 0.046 -0.303 0.016 -0.43 0.078 0 0.036 0.032 0.058 0.017 0.061 -0.036 0.051 -0.017 0.082 -0.001 0.044 -0.041 0.052 -0.007 0.035 0.022 0.034 0.027 0.073 0.006 0.058 0.07 0.064 0.021 0.027 0.08 0.041 0.211 0.076 0.124 0.076 0.141 0.003 0.063 -0.042 0.064 -0.007 0.091 -0.026 0.223 -0.009 0.082 0.026 0.056 0.01 0.078 -0.041 0.096 -0.08 0.143 -0.077 0.038 -0.02 0.002 -0.105 0.083 -0.074 0.031 -0.043 -0.021 -0.049 0.036 -0.055 0.092 -0.067 0.042 -0.121 0.023 -0.036 0.011 -0.071 -0.003 -0.06 0.023 -0.05 0.049 -0.054 0.018 -0.057 -0.012 -0.052 0.018 -0.047 0.049 -0.027 0.053 -0.007 0.057 -0.046 0.039 -0.084 0.021 -0.029 0.029 0.005 0.04 -0.038 0.031 -0.142 0.032 -0.103 0.057 -0.063 0.082 -0.067 0.052 -0.106 0.032 -0.143 0.083 -0.021 0.051 0.054 0.047 0.02 0.042 -0.015 0.037 -0.045 0.005 -0.074 -0.027 -0.053 -0.006 -0.032 0.016 -0.015 0.03 0.002 0.044 -0.027 0.03 -0.055 0.016 -0.035 0.036 -0.015 0.056 -0.069 0.071 -0.123 0.085 -0.097 0.115 -0.071 0.145 -0.083 0.095 -0.095 0.046 -0.065 0.065 -0.036 0.084 -0.101 0.131 -0.166 0.177 -0.151 0.121 -0.135 0.066 -0.076 0.074 -0.017 0.083 -0.088 0.094 -0.159 0.106 z M -68.653 54.854 l 0.006 -0.226 0.008 -0.304 0.002 -0.271 0.002 -0.264 0.002 -0.273 0.002 -0.274 0.002 -0.292 0.002 -0.297 0.059 0.042 0.232 0.205 0.061 0.084 0.038 0.098 -0.093 -0.062 -0.098 0.036 -0.048 0.058 -0.041 0.063 0 0.045 0.032 0.039 0.095 0.034 0.232 0.012 0.017 0.013 0.136 0.245 0.068 0.055 0.079 0.043 0.183 0.125 0.176 0.135 0.208 0.128 0.225 0.098 0.204 0.075 0.195 0.091 0.208 0.127 0.226 0.092 0.243 0.065 0.246 0.054 0.378 -0.021 0.117 0.006 0.073 0.04 -0.073 0.111 -0.094 0.089 -0.125 0.037 -0.132 0.013 -0.119 -0.002 -0.119 -0.016 -0.112 0.009 -0.107 0.037 -0.111 0.019 -0.115 0.002 -0.112 0.032 -0.112 0.023 -0.117 -0.019 -0.303 -0.088 -0.197 -0.021 -0.666 -0.035 -0.214 -0.02 -0.213 -0.031 -0.112 -0.001 -0.159 0.02 -0.128 -0.002 z M -64.549 54.716 l 0.11 0.023 0.218 -0.017 0.115 0 0.05 0.008 0.023 0.013 0.15 -0.019 0.067 0.002 -0.017 0.043 -0.139 0.043 -0.057 -0.018 -0.295 0.004 -0.13 0.044 -0.055 0 -0.129 0.063 -0.094 -0.04 -0.026 -0.036 0.068 -0.052 0.064 -0.001 0.044 -0.021 z M -61.876 39.172 l 0.01 0.063 -0.052 -0.007 -0.124 -0.061 -0.042 -0.057 -0.01 -0.024 0.126 0.026 0.06 0.023 z" vector-effect="non-scaling-stroke" fill="#000" fill-opacity="1" stroke="#FFF" stroke-width="0px" stroke-linejoin="round" stroke-linecap="round"/></svg>
