<svg xmlns="http://www.w3.org/2000/svg" xmlns:xlink="http://www.w3.org/1999/xlink" height="400" width="400" viewBox="43.439453125 -41.290966796875 3.14531250000002 2.421923828125"><path d="M 44.768 -39.704 l -0.034 -0.043 -0.173 -0.141 -0.161 -0.108 -0.11 -0.045 -0.111 0.005 -0.173 0.022 -0.063 -0.009 -0.15 -0.047 -0.125 -0.056 0.017 -0.023 0.027 -0.017 -0.032 -0.073 -0.07 -0.117 0.007 -0.037 -0.022 -0.051 -0.024 -0.038 0.099 -0.092 0.045 -0.074 0.01 -0.072 -0.026 -0.075 -0.065 -0.135 -0.04 -0.039 -0.074 -0.037 -0.062 -0.06 -0.016 -0.042 0.053 -0.008 0.153 -0.001 0.148 -0.014 0.116 -0.028 0.168 -0.024 0.069 -0.021 0.081 -0.01 0.246 0.022 0.092 -0.017 0.277 -0.003 0.007 -0.009 -0.038 -0.028 0 -0.011 0.165 -0.018 0.025 -0.013 0.022 0.045 0.062 0.05 0.068 0.02 0.036 0.028 0.002 0.021 -0.12 0.026 -0.008 0.013 0.008 0.013 0.036 0.006 0.167 0.063 0.096 0.001 0.05 0.019 0.025 0.038 0.08 0.051 0.063 0.05 0.004 0.017 -0.012 0.025 -0.178 0.097 -0.022 0.034 -0.003 0.035 0.078 0.106 0.115 0.116 0.166 0.088 0.229 0.095 0.003 0.059 -0.036 0.07 -0.031 0.048 -0.014 0.032 -0.028 0.014 -0.228 -0.003 -0.034 0.011 -0.015 0.014 -0.001 0.011 0.082 0.021 0.128 0.075 0.074 0.073 0.077 0.032 0.086 0.058 0.069 0.054 0.107 0.07 0.12 -0.023 0.16 0.062 0.007 0.042 -0.01 0.038 -0.1 0.041 -0.012 0.017 0 0.014 0.013 0.02 0.059 0.034 0.069 0.05 0.078 0.075 -0.035 0.022 -0.073 0.003 -0.057 -0.009 -0.02 0.015 0.001 0.025 0.074 0.057 0.014 0.041 -0.003 0.072 0.004 0.091 -0.173 -0.006 -0.148 0.044 -0.056 -0.009 -0.037 -0.077 -0.032 -0.063 -0.094 -0.161 0.026 -0.066 -0.052 -0.038 -0.126 -0.068 -0.032 -0.028 0.018 -0.039 0.012 -0.071 -0.012 -0.057 -0.034 -0.017 -0.063 -0.001 -0.077 0.014 -0.154 0.055 -0.107 -0.035 -0.062 -0.036 -0.036 -0.03 -0.08 0.025 -0.02 -0.012 -0.004 -0.074 -0.024 -0.04 -0.048 -0.046 -0.045 -0.022 -0.164 0.046 z M 45.024 -41.027 l 0.005 -0.027 -0.008 -0.024 -0.027 -0.008 -0.033 0.006 -0.003 0.027 0.01 0.025 0.033 0.011 z M 45.552 -40.616 l -0.038 0.017 -0.036 -0.007 0 -0.041 0.026 -0.017 0.03 0.001 0.028 0.015 z" vector-effect="non-scaling-stroke" fill="#000" fill-opacity="1" stroke="#FFF" stroke-width="0px" stroke-linejoin="round" stroke-linecap="round"/></svg>
