<svg xmlns="http://www.w3.org/2000/svg" xmlns:xlink="http://www.w3.org/1999/xlink" height="400" width="400" viewBox="112.908203125 10.0517578125 46.05068359375 44.6974609375"><path d="M 143.179 11.954 l -0.026 0.121 -0.048 0.094 -0.006 0.056 0.011 0.078 0.08 0.058 0.063 0.036 0.036 0.101 0.112 0.141 -0.004 0.096 0.06 0.12 0.054 0.239 0.017 0.209 0.057 0.14 -0.038 0.297 0.041 0.122 0.054 0.101 0.064 0.201 0.049 0.184 0.066 0.052 0.139 0.062 0.144 -0.068 0.104 -0.093 0.112 -0.023 0.151 -0.048 0.113 0.123 0.062 0.138 0.268 0.182 0.149 0.117 0.116 0.066 0.108 0.086 -0.011 0.086 -0.025 0.068 0.025 0.106 0.017 0.123 -0.021 0.149 0.078 0.225 0.026 0.179 0.083 0.175 -0.006 0.18 -0.015 0.068 -0.01 0.101 0.064 0.126 0.059 0.093 0.088 0.101 0.117 0.153 0.083 0.031 0.074 0.002 -0.01 0.158 0.148 0.311 0.076 0.254 -0.052 0.342 -0.051 0.198 0.009 0.097 0.191 0.237 0.11 0.044 -0.021 0.113 -0.015 0.175 0.087 0.136 0.098 0.102 0.106 0.061 0.105 0.048 0.137 0.048 0.174 0.02 0.09 0.077 0.046 0.061 0.139 0.021 0.063 -0.011 0.077 -0.025 0.052 0.041 0.039 0.055 0.076 0.149 0.156 0.147 0.111 0.025 0.062 0.075 0.089 0.02 0.077 0.009 0.109 0.057 0.177 0.132 0.16 0.021 0.074 0.036 0.159 0.144 0.062 0.077 0.064 0.114 -0.08 0.011 -0.075 -0.024 -0.046 0.112 0.106 0.155 0.123 0.11 0.148 0.116 0.144 0.164 0.037 0.125 0.039 0.049 0.049 0.177 0.125 0.103 0.006 0.187 0.064 0.258 0.072 0.234 0.05 0.071 0.059 0.112 0.068 -0.014 0.051 -0.036 0.098 0.112 0.054 0.049 0.031 -0.029 -0.064 -0.213 0.039 -0.124 0.039 -0.016 0.056 -0.004 0.067 0.101 0.092 0.108 0.17 0.096 0.136 0.09 0.038 -0.003 -0.015 -0.07 0.004 -0.102 0.054 -0.017 0.05 0.051 0.091 0.158 0.019 0.327 0 0.274 0.06 0.281 0.088 0.074 0.058 0.07 0.099 0.094 0.066 0.088 0.083 0.041 0.264 0.187 0.075 0.021 0.116 0.005 0.141 0.085 0.071 0.078 0.153 0.293 0.075 0.103 0.152 0.102 0.071 0.033 0.103 0.07 0.037 0.102 0.009 0.06 0.061 0.108 0.091 0.13 0.135 0.072 0.124 0.158 0.007 0.256 0.064 0.128 0.043 0.054 0.097 0.052 0.039 0.042 -0.081 0.34 0.078 0.679 -0.045 0.212 0.081 0.21 0.188 0.364 0.043 0.129 0.026 0.151 0.121 0.192 -0.007 0.293 0.048 0.14 -0.012 0.181 -0.142 0.196 -0.114 0.24 -0.001 0.206 -0.075 0.396 -0.049 0.106 -0.036 0.165 -0.158 0.4 -0.007 0.157 0.024 0.187 -0.026 0.179 -0.039 0.122 -0.038 0.226 -0.158 0.351 -0.227 0.259 -0.014 0.197 -0.029 0.087 -0.046 0.109 -0.139 0.118 -0.084 0.051 -0.032 0.069 -0.079 0 -0.002 0.022 0.054 0.022 -0.024 0.036 -0.21 0.063 -0.141 0.081 -0.145 0.198 -0.061 0.103 -0.078 0.099 -0.046 0.046 -0.02 0.05 -0.031 0.124 -0.075 0.022 -0.065 0.037 0.031 0.118 -0.034 0.136 -0.008 0.092 -0.036 0.058 -0.043 -0.021 -0.034 0.009 -0.043 0.032 0.066 0.01 0.04 0.014 -0.142 0.133 -0.13 0.135 -0.033 0.09 -0.056 0.112 -0.049 0.25 -0.041 0.143 0.028 0.102 -0.005 0.019 -0.03 0.008 -0.019 -0.013 -0.059 0.035 -0.016 0.035 0.025 0.043 0.017 0.015 -0.008 0.021 -0.024 0.023 -0.056 0 -0.067 0.037 -0.193 0.37 -0.082 0.098 -0.097 0.151 -0.037 0.137 -0.03 0.15 -0.034 0.252 -0.033 0.178 -0.075 0.172 -0.028 0.123 -0.01 0.235 0.036 0.178 -0.023 0.095 -0.001 0.091 -0.03 0.085 -0.123 0.019 -0.1 0.069 -0.144 0.113 -0.085 0.041 -0.182 0.031 -0.354 -0.014 -0.681 0.042 -0.132 0.025 -0.254 0.078 -0.245 0.121 -0.236 0.163 -0.539 0.444 -0.421 0.048 -0.079 0 -0.064 -0.012 -0.075 0.028 -0.001 0.055 0.069 0.058 0.051 0.054 0.09 -0.075 0.04 0.021 0.015 0.138 0.002 0.087 -0.027 0.047 -0.057 0.033 -0.06 -0.022 -0.008 -0.047 -0.078 -0.112 -0.096 -0.099 -0.088 -0.032 -0.052 0.033 -0.083 0.035 -0.07 -0.126 -0.075 -0.109 -0.099 -0.011 -0.086 0.001 -0.071 -0.047 -0.138 -0.074 0.027 -0.058 0.039 -0.061 0.079 -0.022 -0.024 -0.082 -0.043 -0.068 -0.109 -0.018 -0.074 0.012 -0.044 0.054 -0.058 0.092 -0.232 0.117 -0.112 -0.064 -0.129 -0.096 0.063 0.007 0.131 -0.003 0.109 -0.086 0.047 -0.054 0.053 -0.114 -0.07 -0.08 -0.065 -0.059 -0.094 -0.052 -0.353 0.177 -0.073 0.025 -0.07 0.034 0.122 0.029 0.072 -0.009 0.076 0.052 -0.122 0.074 -0.096 0.02 -0.119 0.045 -0.227 0.114 -0.29 0.237 -0.125 0.068 -0.148 0.054 -0.2 -0.063 -0.112 -0.015 -0.144 -0.097 -0.242 -0.065 -0.228 -0.129 -0.156 -0.065 -0.111 -0.014 -0.157 0.027 -0.263 -0.116 -0.2 -0.012 -0.131 0.116 -0.102 -0.008 -0.068 -0.016 -0.21 -0.192 -0.203 -0.095 -0.384 -0.049 -0.237 -0.132 -0.178 -0.254 -0.337 -0.29 -0.091 -0.106 -0.042 -0.104 -0.004 -0.082 0.045 -0.157 0.063 -0.155 0.011 -0.086 -0.128 -0.291 -0.18 -0.275 -0.083 -0.086 -0.221 -0.183 -0.207 -0.138 -0.053 -0.072 -0.016 -0.037 0.098 0.018 0.046 -0.056 0.066 -0.019 0.053 0.075 0.059 0.014 0.003 -0.125 0.033 -0.059 -0.023 -0.027 -0.02 -0.024 -0.09 -0.028 -0.099 0.042 -0.076 0.054 -0.102 0.046 -0.04 0.048 -0.104 0.002 -0.041 0.012 -0.208 0.092 -0.133 0.002 -0.205 -0.032 0.068 -0.126 0.081 -0.075 0.067 -0.086 0.111 -0.301 -0.021 -0.261 -0.054 -0.107 -0.172 -0.216 -0.078 -0.133 -0.097 -0.137 -0.048 0.08 -0.029 0.084 -0.093 0.122 -0.045 0.271 -0.182 0.416 -0.125 0.005 -0.107 -0.017 -0.187 0.047 -0.128 0.058 -0.115 0 -0.063 0.018 -0.083 -0.015 0.131 -0.324 0.114 0.009 0.124 -0.013 0.056 0.005 0.083 -0.004 0.063 -0.149 0.039 -0.167 -0.024 -0.108 -0.01 -0.111 0.025 -0.127 0.01 -0.091 0.157 -0.302 0.13 -0.156 0.151 -0.124 -0.018 -0.118 -0.048 -0.147 -0.014 -0.113 0.072 -0.036 0.068 -0.071 -0.079 -0.324 -0.05 -0.097 -0.08 -0.096 -0.001 0.124 0.009 0.121 -0.111 0.155 -0.144 0.111 -0.094 0.104 -0.088 0.237 -0.117 0.199 -0.107 0.074 -0.096 0.017 -0.098 0.031 -0.153 0.079 -0.148 0.067 -0.11 0.088 -0.095 0.046 -0.31 0.399 -0.141 0.133 -0.029 0.054 -0.06 0.045 0.012 0.063 0.048 0.043 0.048 0.177 -0.029 0.038 -0.051 -0.02 -0.127 -0.099 -0.08 0.036 -0.065 0.04 -0.167 -0.181 -0.069 -0.043 -0.088 -0.073 -0.094 -0.063 -0.04 -0.007 -0.068 0.013 0.007 -0.049 0.046 -0.04 0.041 -0.009 0.076 0.058 0.086 0.052 0.049 0.004 0.023 -0.021 -0.082 -0.205 -0.056 -0.18 -0.026 -0.053 -0.067 -0.183 -0.033 -0.053 -0.143 -0.129 -0.153 -0.151 -0.042 -0.182 -0.056 -0.116 -0.072 -0.073 -0.111 -0.065 -0.306 -0.025 -0.128 -0.186 -0.073 -0.23 0.058 -0.015 0.069 -0.003 0.022 -0.072 -0.015 -0.11 -0.304 -0.137 -0.143 -0.143 -0.121 -0.062 -0.114 -0.024 -0.151 0.006 -0.188 -0.005 -0.455 -0.228 -0.109 -0.007 -0.325 0.071 -0.109 -0.013 -0.493 -0.311 -0.328 -0.148 -0.108 -0.028 -0.141 -0.025 -0.114 0.036 -0.081 0.034 -0.165 0.038 -0.653 -0.025 -0.561 0.048 -0.381 0.033 -0.242 0.043 -0.4 0.185 -0.478 0.179 -0.39 0.085 -0.358 0.113 -0.236 0.033 -0.305 0.014 -0.643 -0.054 -0.219 0.04 -0.35 0.209 -0.104 0.051 -0.197 0.058 -0.508 0.268 -0.234 0.057 -0.151 0.018 -0.129 0.057 -0.118 0.114 -0.159 0.317 -0.099 0.15 -0.218 0.24 -0.144 0.08 -0.141 -0.011 -0.158 0.083 -0.14 -0.088 -0.112 -0.017 -0.178 0.007 -0.627 0.101 -0.09 -0.117 -0.115 -0.018 -0.217 0.006 -0.325 -0.036 -0.591 0.045 -0.284 0.048 -0.112 0.043 -0.209 -0.028 -0.355 0.039 -0.125 0.067 -0.094 0.06 -0.185 0.267 -0.203 0.088 -0.166 0.003 -0.186 0.021 -0.375 0.257 -0.385 0.25 -0.129 0.027 -0.143 0.042 -0.188 0.02 -0.093 0.023 -0.438 -0.064 -0.279 -0.007 -0.348 -0.039 -0.3 -0.122 -0.23 -0.071 -0.26 -0.269 -0.161 -0.1 -0.287 -0.122 -0.083 0.005 -0.067 0.033 -0.119 -0.086 -0.003 -0.111 -0.032 -0.094 0.002 -0.247 0.018 -0.289 0.105 0.065 0.083 0.063 0.177 -0.004 0.157 -0.109 0.089 -0.159 0.079 -0.179 -0.012 -0.191 -0.052 -0.335 0.036 -0.07 0.054 -0.029 0.017 -0.167 0.013 -0.513 -0.04 -0.193 -0.244 -0.392 -0.16 -0.341 -0.117 -0.154 -0.099 -0.248 -0.083 -0.344 -0.026 -0.174 -0.027 -0.321 0.029 -0.182 -0.012 -0.106 -0.102 -0.291 -0.228 -0.271 -0.038 -0.1 0.001 -0.105 -0.054 -0.123 -0.184 -0.248 -0.188 -0.214 -0.032 -0.104 -0.035 -0.432 -0.07 -0.197 -0.319 -0.5 -0.376 -0.43 -0.102 -0.176 -0.046 -0.059 0.026 -0.008 0.042 0.023 0.047 0.043 0.023 0.004 0.022 -0.036 -0.002 -0.082 0.013 -0.046 0.033 0.025 0.038 0.092 0.119 0.239 0.035 0.121 0.152 0.037 0.047 -0.032 0.056 -0.063 0.016 -0.168 -0.077 -0.076 -0.069 -0.032 -0.117 -0.125 -0.076 -0.2 -0.118 -0.185 0.002 -0.066 0.054 -0.048 0.088 0.026 0.082 0.106 0.092 0.099 -0.015 0.173 -0.014 0.047 0.008 0.04 0.032 0.038 0.042 0.03 0.046 -0.044 0.042 -0.101 0.026 0.013 0.063 0.231 0.05 0.063 0.098 0.072 0.086 -0.056 0.04 -0.048 -0.012 -0.163 0.025 -0.158 -0.014 -0.117 -0.221 -0.307 -0.2 -0.379 -0.122 -0.189 -0.102 -0.284 -0.066 -0.098 -0.086 -0.159 -0.005 -0.182 0.008 -0.122 0.069 -0.263 0.063 -0.137 0.204 -0.315 0.01 -0.136 -0.002 -0.102 0.03 -0.157 0 -0.109 -0.027 -0.102 -0.085 -0.175 0.112 -0.306 0.163 -0.393 0.064 -0.058 0.101 -0.053 0.019 0.081 -0.05 0.272 0.071 0.142 -0.022 0.16 0.064 -0.027 0.098 -0.03 0.074 -0.084 0.039 -0.08 0.186 -0.319 0.106 -0.119 0.15 -0.088 0.303 -0.105 0.294 -0.139 0.14 -0.134 0.175 -0.116 0.122 -0.126 0.117 -0.086 0.595 -0.317 0.101 -0.06 0.13 -0.007 0.159 0.011 0.144 -0.017 0.154 0.072 0.113 0.008 0.278 -0.078 0.148 -0.07 0.255 -0.154 0.112 -0.044 0.259 -0.049 0.293 -0.065 0.353 -0.267 0.254 0.017 0.227 0.026 0.182 -0.08 0.429 -0.049 0.237 -0.067 0.445 -0.177 0.12 -0.061 0.182 -0.126 0.158 -0.158 0.156 -0.213 0.096 -0.191 0.041 -0.099 0.091 -0.157 0.063 -0.124 0.049 -0.059 0.172 -0.083 0.256 -0.235 0.083 -0.047 0.016 -0.075 -0.055 -0.042 -0.068 -0.026 -0.046 -0.248 -0.044 -0.171 -0.004 -0.121 0.017 -0.115 0.101 -0.178 0.072 -0.076 0.099 -0.089 0.091 -0.028 0.075 -0.078 0.122 -0.077 0.052 -0.078 0.076 -0.158 0.069 -0.12 0.054 0.004 0.104 0.279 0.068 0.148 0.124 0.174 0.117 0.256 0.096 0.117 0.046 0.076 0.038 0.035 0.008 -0.049 -0.01 -0.057 0.046 -0.196 -0.022 -0.137 0.007 -0.052 0.024 -0.022 0.046 0.015 0.09 0.077 0.045 0.027 0.032 -0.006 -0.002 -0.124 0.045 -0.078 -0.018 -0.054 -0.078 0.003 -0.033 -0.067 -0.065 -0.077 -0.073 -0.056 -0.089 -0.127 -0.028 -0.05 0.035 -0.023 0.056 0.003 0.045 -0.055 0.021 -0.073 -0.039 -0.119 0.04 -0.044 0.081 0.013 0.13 0.19 0.056 -0.019 0.046 -0.077 0.083 -0.022 0.085 0.014 0.056 0.055 0.114 0.055 0.152 -0.006 0.077 0.013 0.162 -0.009 0.08 0.017 -0.015 -0.029 -0.088 -0.035 -0.099 -0.007 -0.116 0.003 -0.05 -0.036 -0.017 -0.096 0.028 -0.07 0.018 -0.03 0.075 0.013 0.067 -0.003 0.008 -0.094 0.024 -0.083 0.04 -0.067 0 -0.065 -0.042 0.017 -0.102 0.15 -0.049 -0.122 -0.074 -0.092 0.015 -0.132 0.043 -0.132 0.066 -0.018 0.056 0.021 0.083 -0.077 0.047 -0.059 -0.011 -0.049 0.012 -0.037 0.058 0.012 0.222 0.119 0.044 0.062 0.047 -0.024 0.015 -0.068 -0.005 -0.068 -0.049 0.01 -0.115 -0.007 -0.026 -0.038 0.01 -0.031 -0.054 -0.08 0.075 -0.051 0.065 -0.003 0.045 -0.035 0.001 -0.047 0.014 -0.02 0.035 0.028 0.116 0.013 0.114 0.061 0.053 0.013 0.02 -0.033 0.008 -0.071 -0.141 -0.071 -0.004 -0.07 -0.059 -0.081 -0.002 -0.079 0.088 -0.066 0.018 -0.064 0.051 -0.026 0.1 -0.001 0.068 -0.055 0.076 -0.019 0.019 -0.122 -0.001 -0.083 0.031 -0.021 0.077 0.035 -0.023 0.097 0 0.092 -0.019 0.049 0.029 -0.004 0.018 -0.021 0.03 -0.061 0.081 0.025 0.02 0.065 0.011 0.063 0.041 0.021 0.055 -0.098 0.075 -0.026 -0.004 -0.123 0.028 -0.088 0.009 -0.066 0.047 -0.032 0.01 -0.07 -0.038 -0.049 -0.02 -0.088 0.065 -0.02 0.065 0.044 0.044 0.111 0.03 0.05 0.04 -0.027 0.024 -0.074 0.08 -0.043 0.079 0.06 0.087 0.082 0.109 -0.072 0.102 -0.134 -0.016 -0.082 0.011 -0.085 0.128 -0.044 0.103 0.033 0.093 0.091 0.194 0.067 0.165 0.097 0.073 0.063 0.142 0.1 0.091 0.104 0.124 0.186 0.293 0.226 0.019 0.04 -0.04 0.076 -0.035 0.097 -0.044 0.164 -0.011 0.241 0.042 -0.017 0.044 -0.086 0.046 0.018 0.053 0.055 0.004 -0.053 -0.032 -0.032 -0.054 -0.111 0.002 -0.059 0.043 -0.047 0.067 -0.057 0.073 -0.037 0.045 -0.033 0.007 -0.04 0.068 -0.041 0.098 -0.013 0.06 0.006 0.423 0.103 0.107 0.103 0.01 0.127 0.041 0.045 0.022 -0.08 -0.004 -0.174 0.034 -0.035 0.114 0.027 0.078 0.035 0.108 0.114 0.021 0.056 0.047 0.036 0.016 -0.053 -0.022 -0.075 -0.016 -0.086 0.024 -0.075 0.126 -0.006 0.085 -0.016 -0.04 -0.029 -0.055 -0.01 -0.091 -0.069 -0.058 -0.074 0.094 -0.072 -0.001 -0.018 -0.09 0.002 -0.124 -0.07 -0.105 -0.097 0.08 -0.179 0.16 -0.175 0.09 -0.058 0.008 -0.059 0.043 -0.109 0.028 -0.092 0.008 -0.071 0.042 -0.075 0.099 -0.071 0.135 -0.025 0.063 -0.028 0.063 -0.066 0.06 -0.08 -0.125 -0.157 0.01 -0.086 0.023 -0.102 0.15 -0.075 0.082 -0.195 0.054 -0.029 0.118 0.006 0.046 -0.017 -0.008 -0.156 0.013 -0.06 0.05 -0.024 0.064 0.021 0.04 0.068 0.091 0.063 0.031 -0.034 -0.015 -0.069 -0.009 -0.088 0.083 -0.019 0.067 -0.005 0.007 -0.072 -0.011 -0.057 0.026 -0.024 0.174 -0.012 0.046 -0.059 0.026 -0.051 0.022 0.028 0.028 0.114 0.096 0.067 0.288 0.001 0.162 -0.046 0.069 0.027 0.107 0.021 0.118 -0.054 0.071 -0.041 0.119 0.053 0.039 0.056 0.031 -0.119 0.069 -0.042 0.073 -0.025 0.093 0.02 0.036 -0.007 -0.082 -0.088 0.005 -0.08 -0.005 -0.119 0.015 -0.109 0.029 -0.078 -0.199 -0.158 -0.197 -0.024 -0.144 0.033 -0.061 -0.026 -0.128 -0.126 -0.122 -0.046 -0.011 -0.031 0.15 -0.091 0.057 0.016 0.087 0.085 0.05 0.03 0.042 -0.006 0.027 -0.066 0.038 -0.035 0.071 0.02 0.223 0.143 0.125 0.139 0.064 -0.037 0.11 -0.078 0.104 0.016 0.064 0.046 0.089 0.169 0.071 0.084 0.171 0.023 0.087 0.032 0.09 0.056 0.121 -0.005 0.25 0.021 0.235 0.108 0.098 0.068 0.114 0.018 0.066 0.027 0.121 0.008 0.192 -0.076 0.086 0.07 0.038 0.048 0.175 0.091 0.188 0.028 0.134 -0.092 0.196 -0.069 0.137 -0.104 0.103 -0.049 0.097 -0.085 0.037 0.004 -0.079 0.08 -0.01 0.045 0.062 0.019 -0.006 0.023 -0.085 0.062 -0.102 0.097 0.002 0.058 0.04 0.032 0.047 -0.014 0.067 -0.049 0.08 -0.026 0.071 0.039 0.023 0.139 0.05 0.092 0.111 0.013 0.068 -0.001 0.068 -0.128 -0.037 -0.109 -0.042 -0.023 0.02 -0.041 0.173 -0.18 0.097 0.006 0.07 0.176 0.11 0.093 0.117 -0.007 0.061 0.024 0.05 0.106 -0.41 0.434 -0.019 0.049 0.055 0.079 0.021 0.092 -0.133 0.221 -0.049 0.011 -0.047 -0.06 -0.07 -0.038 -0.062 0.027 -0.066 0.016 -0.239 0.123 0.002 0.317 0.06 0.189 -0.035 0.125 -0.071 0.218 -0.077 0.081 -0.062 0.052 -0.206 0.298 -0.066 0.072 -0.068 0.102 0.023 0.097 0.025 0.067 0.077 0.077 0.302 0.16 0.137 0.11 0.236 0.133 0.054 0.092 0.032 0.075 0.171 0.085 0.122 0.051 0.035 -0.013 0.025 -0.018 0.03 0 0.03 0.01 -0.005 0.067 -0.013 0.037 0.011 0.046 0.087 0.059 0.138 -0.002 0.079 -0.014 0.088 0.063 0.079 0.041 0.13 0.084 0.227 0.101 0.177 0.066 0.209 0.244 0.159 0.14 0.173 0.101 0.261 0.071 0.12 -0.012 0.195 0.083 0.19 0.039 0.1 0.115 0.034 0.087 0.01 0.067 0.094 0.161 0.192 0.052 0.249 0.16 0.205 0.071 0.051 0.042 0.09 0.049 0.174 0.002 0.301 -0.08 0.137 -0.081 0.182 -0.129 0.085 -0.222 0.05 -0.178 0.253 -0.368 0.072 -0.183 0.064 -0.242 0.056 -0.152 -0.019 -0.165 0.058 -0.299 0.13 -0.41 0.044 -0.139 -0.022 -0.204 -0.081 -0.383 0.036 -0.132 0.035 -0.185 -0.059 -0.134 -0.055 -0.092 -0.008 -0.129 0.062 -0.244 0.055 -0.129 0.057 -0.166 -0.032 -0.316 0.121 -0.11 0.048 -0.055 0.094 0 0.045 0.025 0.009 -0.063 -0.037 -0.058 -0.015 -0.068 -0.026 -0.035 -0.058 -0.012 -0.048 -0.037 -0.069 -0.038 0.011 -0.14 0.117 -0.271 0.065 -0.104 0.042 0.044 0.048 0.035 0.007 -0.078 -0.016 -0.08 0.089 -0.264 0.098 -0.358 0.029 -0.327 0.158 -0.062 0.08 -0.082 0.05 -0.095 0.088 0 0.06 0.041 -0.04 0.071 -0.013 0.055 0.17 0.136 0.057 0.105 0.024 0.099 0.033 0.093 0.016 0.125 -0.002 0.2 0.022 0.189 0.061 0.059 0.054 0.038 0.078 0.005 z M 153.077 25.751 l -0.025 0.028 -0.045 -0.049 -0.03 -0.178 0.022 -0.103 0.053 -0.094 0.009 -0.052 -0.023 -0.109 0.151 -0.123 0.038 -0.065 0.014 -0.083 -0.056 -0.09 -0.043 -0.018 0.037 -0.05 0.042 -0.025 0.034 -0.011 0.025 0.009 0.016 0.177 0.061 0.063 -0.009 0.085 -0.209 0.45 -0.058 0.17 z M 139.508 16.573 l -0.077 0.088 -0.039 -0.012 -0.037 0.048 -0.071 0.023 -0.044 -0.001 -0.079 0.023 -0.012 -0.028 0.015 -0.088 0.066 -0.098 0.064 -0.06 0.166 -0.029 0.129 -0.043 0.017 0.008 0.093 0.112 -0.138 0.015 z M 136.715 13.804 l 0.043 0.042 0.046 -0.003 0.041 -0.092 0.025 0.013 0.02 0.023 0.015 0.04 -0.063 0.07 -0.028 0.011 -0.027 0.038 -0.043 0.127 0.005 0.043 0.037 0.043 0.098 0.039 0.048 -0.018 0.017 0.005 -0.019 0.062 -0.037 0.047 -0.131 -0.02 -0.113 0.007 -0.189 -0.046 -0.097 -0.006 -0.028 -0.017 0.057 -0.036 0.036 -0.049 -0.017 -0.115 0.014 -0.146 0.109 -0.071 0.049 -0.073 0.073 -0.045 0.046 0.006 -0.006 0.045 z M 130.459 11.679 l 0.083 0.024 0.038 0.034 0.023 0.036 0.004 0.043 -0.104 0.019 -0.185 -0.064 -0.186 0.053 -0.055 0.001 -0.033 -0.038 0.029 -0.107 0.067 0.016 0.058 -0.039 -0.01 -0.117 -0.034 -0.064 0.098 -0.117 0.044 -0.024 0.044 0 0.038 0.083 0.009 0.09 0.047 0.082 z M 130.619 11.376 l 0.133 0.008 0.161 -0.075 0.075 0.031 0.036 -0.005 0.118 -0.071 0.077 -0.021 0.051 -0.053 0.052 0.057 0.116 0.066 0.036 0.069 0.049 0.033 0.016 0.022 -0.071 0.073 -0.009 0.078 -0.076 -0.005 -0.091 0.128 -0.341 0.216 -0.306 -0.184 -0.133 -0.125 -0.089 -0.172 -0.018 -0.141 -0.036 -0.09 0.016 -0.023 0.018 -0.012 0.024 0.003 0.092 0.096 0.041 0.026 z M 113.183 26.053 l -0.027 0.041 -0.192 -0.311 -0.056 -0.213 0.039 -0.038 0.035 -0.011 0.114 0.295 0.035 0.068 0 0.069 0.017 0.022 z M 137.596 35.739 l 0.239 0.023 0.093 -0.036 0.118 0.029 0.077 0.097 -0.057 0.048 -0.055 0.007 -0.176 -0.04 -0.165 0.03 -0.049 0.04 -0.032 0.089 -0.142 0.048 -0.066 -0.054 -0.173 -0.038 -0.062 0.057 -0.122 -0.015 -0.113 0.023 -0.158 -0.014 -0.166 -0.098 -0.049 -0.045 0.038 -0.081 0.06 -0.06 0.453 -0.085 0.242 -0.071 0.196 0.013 0.054 0.015 0.05 0.036 -0.037 0.066 z M 145.487 38.355 l -0.151 0.066 -0.056 -0.03 0.006 -0.05 0.009 -0.022 0.131 -0.005 z M 145.314 38.491 l 0.035 0.047 0.006 0.019 -0.084 -0.037 -0.142 0.008 0.089 -0.069 0.07 0.014 z M 149.044 20.292 l -0.024 0.011 -0.033 -0.001 -0.049 -0.018 0.042 -0.13 0.023 0.068 0.041 0.056 z M 148.936 20.15 l -0.022 0.004 -0.027 -0.011 0.02 -0.042 0.025 -0.033 0.036 -0.025 -0.012 0.09 z M 151.147 23.491 l 0.034 0.025 0.031 -0.003 0.028 0.017 -0.011 0.065 0.046 0.074 0.021 0.052 -0.034 0.042 -0.023 0.013 -0.054 -0.035 -0.151 -0.211 0.027 -0.07 z M 150.517 22.323 l -0.028 0.002 -0.026 -0.017 0.022 -0.04 0.004 -0.057 0.033 0.018 0.027 0.079 z M 149.928 22.193 l -0.035 0.03 -0.024 -0.073 0.006 -0.076 0.037 -0.025 0.016 0.101 z M 153.539 27.436 l -0.086 0.275 -0.026 -0.005 -0.031 -0.041 0.005 -0.159 0.035 -0.1 0.086 0.017 z M 153.442 27.316 l -0.022 0.015 -0.044 -0.096 -0.012 -0.096 0.015 -0.089 0.052 -0.02 0.034 0.008 -0.04 0.163 z M 142.275 10.705 l -0.083 0.057 -0.054 -0.03 -0.012 -0.063 0.006 -0.028 0.067 -0.049 z M 142.339 10.192 l -0.06 0.062 -0.063 -0.019 -0.021 -0.036 0.024 -0.05 0.08 -0.009 z M 142.168 10.154 l -0.026 0.027 -0.044 -0.059 0.051 -0.07 0.043 0.033 z M 146.278 18.231 l 0.021 0.095 0.043 0.074 -0.015 0.049 -0.028 0.036 -0.063 -0.034 -0.044 -0.088 -0.075 -0.071 -0.017 -0.041 0.088 0.003 0.044 -0.014 0.018 -0.016 z M 136.599 11.379 l -0.072 0.06 -0.005 -0.045 0.038 -0.036 0.089 -0.146 0.039 -0.034 0.023 -0.019 0.017 -0.054 0.004 -0.08 0.049 -0.012 -0.039 0.182 z M 136.339 11.602 l -0.158 0.074 0.087 -0.1 0.182 -0.089 0.03 -0.021 -0.009 0.043 -0.091 0.074 z M 137.094 15.778 l -0.043 0.046 -0.054 -0.049 -0.011 -0.05 -0.042 -0.014 0.021 -0.046 0.022 -0.013 0.024 -0.058 0.055 0.068 0.007 0.075 z M 136.863 15.62 l -0.016 0.007 -0.001 -0.083 0.031 -0.042 0.013 0.086 z M 136.591 15.628 l -0.06 0.004 -0.017 -0.005 -0.012 -0.044 0.02 -0.04 0.063 -0.009 0.026 0.01 z M 139.459 17.115 l -0.037 0.017 -0.013 -0.041 0.051 -0.042 0.034 -0.059 0.067 0.052 0.011 0.052 z M 136.237 13.825 l -0.024 0.011 -0.091 -0.019 0 -0.036 0.012 -0.027 0.025 -0.016 0.056 -0.072 0.042 0.042 0.018 0.084 z M 132.593 11.303 l -0.02 0.016 -0.08 -0.155 0.023 -0.048 -0.033 -0.079 0.054 -0.009 0.041 -0.06 0.014 0.029 0.004 0.109 0.032 0.063 z M 125.199 14.579 l -0.064 0.062 -0.044 -0.05 0.026 -0.1 0.043 -0.036 0.038 0.019 -0.005 0.078 z M 124.597 15.402 l -0.038 0.028 -0.035 -0.009 0 -0.039 -0.041 -0.042 0.021 -0.048 0.015 -0.025 0.032 0.003 0.014 0.041 0.041 0.046 z M 115.446 20.788 l -0.058 0.078 -0.07 -0.015 -0.009 -0.039 0.046 -0.065 0.08 -0.078 0.023 0.048 z M 145.043 40.787 l 0.116 0.004 0.066 -0.025 0.059 0.005 0.066 0.056 0.08 0.032 0.056 -0.006 0.048 0.012 0.043 0.04 0.11 0.035 0.048 0.023 0.042 0.035 0.046 0.027 0.29 0.093 0.206 0.045 0.257 -0.021 0.076 -0.026 0.073 -0.038 0.063 0.036 0.062 0.054 -0.012 -0.059 0.021 -0.051 0.063 -0.041 0.07 -0.025 0.116 0.002 0.113 -0.011 0.05 -0.024 0.052 -0.003 0.067 0.029 0.067 0.016 0.046 -0.037 0.079 -0.089 0.042 -0.031 0.196 0.027 0.055 0.001 0.096 -0.093 0.064 0.001 0.182 0.074 0.078 0.092 -0.007 0.168 0.006 0.059 0.015 0.058 0.006 0.117 -0.022 0.115 -0.003 0.09 0.01 0.091 -0.009 0.17 0.028 0.112 -0.014 0.076 0 0.036 0.027 0.034 0.013 0.037 -0.01 0.048 0.012 0.056 -0.011 0.046 -0.041 -0.007 -0.013 -0.036 0.008 -0.046 -0.007 -0.037 -0.021 -0.034 -0.073 -0.038 0.021 -0.023 0.037 -0.02 -0.028 -0.052 -0.046 0.042 -0.026 0.058 0.015 0.018 -0.029 0.015 -0.061 0.067 -0.044 0.089 -0.018 0.086 0.004 0.091 -0.036 0.07 -0.049 0.067 -0.012 0.086 0.003 0.158 0.043 0.144 0.023 0.197 -0.035 0.025 -0.107 0.013 -0.053 0.025 -0.087 -0.097 -0.051 -0.102 0.039 -0.041 0.087 0.024 0.026 -0.023 0.007 -0.026 -0.007 -0.026 -0.107 -0.056 -0.12 -0.026 -0.038 0.032 0.013 0.096 -0.012 0.022 -0.084 0.037 -0.044 -0.14 -0.11 -0.103 0.004 0.05 0.046 0.086 -0.005 0.038 -0.018 0.049 -0.044 0.018 -0.021 0.039 0 0.055 -0.015 0.089 -0.072 0.04 -0.176 -0.1 -0.012 0.033 0.003 0.029 0.09 0.057 -0.041 0.043 -0.031 0.051 -0.05 0.133 -0.081 0.11 -0.04 0.007 -0.135 -0.017 -0.151 -0.093 -0.135 0.011 -0.226 -0.007 -0.144 0.034 -0.03 -0.102 -0.031 -0.036 0.013 -0.032 0.114 -0.022 0.118 0.001 -0.018 -0.039 -0.032 -0.014 -0.051 0.009 -0.15 -0.034 -0.102 0.015 -0.071 -0.048 -0.121 -0.168 -0.072 -0.078 -0.043 -0.03 -0.05 -0.017 -0.03 -0.025 -0.219 -0.382 -0.031 -0.089 -0.038 -0.225 0.174 0.108 0.062 0.068 0.033 0.086 0.059 -0.105 -0.011 -0.034 -0.156 -0.127 -0.021 -0.037 -0.009 -0.044 -0.037 0.044 -0.06 0.006 0.024 -0.09 -0.021 -0.088 -0.183 -0.193 -0.14 -0.183 -0.138 -0.225 -0.012 -0.029 -0.002 -0.049 -0.067 -0.151 -0.035 -0.112 -0.016 -0.098 0.064 -0.198 0.009 -0.111 0.1 0.049 z M 143.928 40.116 l -0.029 0.004 -0.023 -0.056 0.012 -0.08 -0.049 -0.079 0.027 -0.08 -0.003 -0.086 0.018 -0.038 0.06 -0.042 0.009 -0.074 0.052 -0.004 0.091 0.058 0.03 0.147 -0.015 0.089 0.035 0.08 -0.029 0.068 -0.077 0.056 z M 148 39.758 l 0.178 0.181 0.092 0.028 0.027 0.019 -0.008 0.08 -0.039 0.034 0.072 0.045 -0.01 0.029 -0.014 -0.001 -0.089 0.061 -0.105 0.028 -0.032 -0.021 -0.027 -0.028 -0.022 -0.041 -0.134 -0.157 0.015 -0.043 -0.03 -0.066 -0.064 0.005 -0.045 -0.04 0.072 -0.039 0.094 -0.106 z M 147.356 43.397 l -0.047 0.104 -0.077 -0.018 -0.078 0.017 -0.049 -0.069 0 -0.018 0.058 0.017 0.022 -0.022 0.014 -0.029 0.021 -0.008 0.014 -0.041 0.05 -0.052 0.029 0.001 0.03 0.066 z M 148.104 42.71 l -0.056 0.009 -0.018 -0.004 0.001 -0.051 -0.008 -0.023 0.05 -0.047 0.07 0.023 0.027 0.036 -0.069 0.029 z M 147.435 43.241 l -0.063 0 -0.023 -0.008 -0.011 -0.049 -0.042 -0.022 0.023 -0.016 0.008 -0.031 0.025 -0.034 0.045 0.038 z M 144.784 40.507 l -0.036 0.083 -0.038 -0.104 0.041 -0.015 0.032 -0.035 0.007 0.005 z M 148.326 40.307 l 0.094 0.06 0.054 0.065 -0.07 0.054 -0.051 0.011 -0.033 -0.063 -0.105 0.023 -0.112 -0.006 -0.082 -0.047 -0.01 -0.024 0.048 -0.024 0.139 0.001 z M 148.237 40.515 l -0.049 0.077 -0.061 -0.049 -0.01 -0.022 0.076 -0.018 0.025 0.002 z M 158.879 54.71 l -0.034 0.039 -0.009 -0.045 0.061 -0.198 0.062 -0.034 -0.013 0.103 z" vector-effect="non-scaling-stroke" fill="#000" fill-opacity="1" stroke="#FFF" stroke-width="0px" stroke-linejoin="round" stroke-linecap="round"/></svg>
