<svg xmlns="http://www.w3.org/2000/svg" xmlns:xlink="http://www.w3.org/1999/xlink" height="400" width="400" viewBox="9.52753906250001 -49.001123046875 7.61982421875001 2.601416015625"><path d="M 9.528 -47.271 l 0.082 -0.121 0.017 -0.075 -0.071 -0.044 0.131 0.005 0.033 -0.008 0.012 -0.012 -0.035 -0.016 0.02 -0.008 0.034 -0.025 0.09 0.023 0.132 0.047 0.063 0.032 0.026 0.025 0.014 0.021 -0.008 0.035 0.03 0.014 0.062 0.005 0.042 0.011 -0.015 0.046 -0.003 0.038 0.058 -0.005 0.072 -0.029 0.056 -0.053 0.035 -0.051 0.026 -0.124 0.009 -0.01 0.043 0.01 0.176 -0.005 0.083 0.023 0.131 0.004 -0.002 0.019 0.023 0.03 0.058 0.044 0.029 0.029 0.061 0.005 0.094 -0.016 0.055 -0.016 0.021 0.012 0.086 -0.011 0.076 -0.035 0.019 -0.027 0.077 -0.019 0.104 -0.044 0.143 -0.034 0.469 -0.036 0.018 -0.027 -0.007 -0.062 0.012 -0.009 0.059 0.016 0.095 0.015 0.073 0.022 0.047 0.029 0.044 0.001 0.068 -0.02 0.092 -0.013 0.086 0.03 0.025 0.032 -0.015 0.017 0.002 0.026 0.027 0.022 0.07 0.036 0.089 0.031 0.046 -0.002 0.017 -0.03 0.016 -0.071 0.006 -0.076 -0.021 -0.044 -0.048 -0.011 -0.057 -0.003 -0.03 -0.009 0.011 -0.024 0.046 -0.062 -0.001 -0.083 -0.104 -0.094 -0.09 -0.091 0 -0.031 0.054 -0.054 0.083 -0.043 0.185 -0.071 0.058 -0.015 0.075 -0.012 0.108 -0.029 0.052 -0.03 0.035 -0.033 0.05 -0.17 0.012 -0.007 0.015 -0.01 0.189 0.059 0.017 -0.01 0.032 -0.01 0.061 -0.045 0.013 -0.034 -0.001 -0.065 0.005 -0.061 0.012 -0.019 0.028 0.007 0.081 0.032 0.064 0.036 0.06 0.09 0.141 0.024 0.178 0.002 0.063 -0.04 0.058 -0.009 0.065 0.012 0.137 0.014 0.015 -0.073 0.079 -0.075 0.036 -0.027 0.101 0.003 0.025 -0.056 0.025 -0.156 0.021 -0.017 0.073 0.003 0.073 0.029 0.022 0.023 0.038 -0.002 0.053 -0.016 0.058 -0.01 0.092 0.017 0.196 0.071 0.101 0.026 0.064 -0.005 0.06 0.001 0.232 0.11 0.162 0.015 0.148 0 0.048 -0.033 0.063 -0.028 0.066 0.004 0.057 0.014 0.112 0.048 0.052 0.012 0.069 0.008 0.05 0.011 0.045 0.083 0.025 0.022 -0.004 0.01 -0.005 0.038 -0.039 0.047 -0.042 0.062 0.003 0.054 0.107 0.189 0.095 0.115 0.018 0.044 0.061 0.034 -0.058 0.042 -0.011 0.063 -0.038 0.028 -0.01 0.036 0.016 0.033 0 0.041 0.021 0.056 -0.093 0.012 -0.111 -0.002 -0.04 0.003 -0.037 0.015 -0.038 -0.008 -0.1 -0.053 -0.057 -0.012 -0.04 0.003 -0.03 0.023 -0.051 0.029 -0.048 0.021 0.011 0.018 0.208 0.047 0.037 0.073 -0.04 0.059 -0.014 0.029 -0.049 0.023 -0.06 0.02 -0.072 0.005 -0.008 0.032 0.028 0.094 -0.023 0.02 -0.023 0.029 0.021 0.078 0.044 0.006 0.01 0.018 -0.008 0.031 -0.008 0.033 -0.016 0.035 -0.008 0.016 -0.029 0.01 -0.092 -0.005 -0.079 0.03 -0.159 0.109 -0.056 0.018 -0.06 0.043 0.004 0.096 -0.008 0.009 -0.015 0.02 -0.191 -0.034 -0.007 0.001 -0.128 0.012 -0.087 0.044 -0.106 0.025 -0.222 -0.013 -0.216 0.017 -0.051 0.013 -0.056 0.007 -0.053 0.025 -0.03 0.036 -0.054 0.045 -0.077 0.036 -0.083 0.027 -0.02 0.023 -0.027 0.013 -0.046 -0.017 -0.038 0.001 -0.046 -0.012 -0.153 -0.013 -0.168 -0.021 -0.08 -0.02 -0.091 -0.016 -0.097 -0.013 -0.087 -0.003 -0.044 -0.006 -0.21 -0.035 -0.138 -0.002 -0.183 -0.015 -0.363 -0.053 -0.106 -0.022 -0.101 -0.007 -0.119 -0.018 -0.091 -0.03 -0.058 -0.057 -0.062 -0.076 -0.114 -0.099 -0.023 -0.05 0.035 -0.043 0.036 -0.033 -0.004 -0.014 -0.028 -0.007 -0.2 0.042 -0.194 0.054 -0.076 0.001 -0.074 -0.012 -0.098 -0.001 -0.094 0.014 -0.189 0.007 -0.111 0.04 -0.07 0.077 -0.038 0.062 -0.032 0.02 -0.066 0.008 -0.098 -0.006 -0.069 -0.018 -0.071 -0.053 -0.109 -0.007 -0.1 -0.001 -0.027 -0.01 0.002 -0.034 -0.04 -0.065 -0.066 -0.02 -0.17 0.122 -0.046 0.011 -0.137 -0.034 -0.119 -0.052 -0.013 -0.038 -0.019 -0.031 -0.1 -0.03 -0.125 -0.02 -0.04 0 0.015 -0.018 0.015 -0.031 -0.009 -0.025 -0.029 -0.026 -0.016 -0.028 -0.005 -0.027 -0.009 -0.022 -0.005 -0.021 z" vector-effect="non-scaling-stroke" fill="#000" fill-opacity="1" stroke="#FFF" stroke-width="0px" stroke-linejoin="round" stroke-linecap="round"/></svg>
