<svg xmlns="http://www.w3.org/2000/svg" xmlns:xlink="http://www.w3.org/1999/xlink" height="400" width="400" viewBox="44.76826171875 -41.890966796875 5.59765625 3.492236328125"><path d="M 44.817 -39.65 l -0.034 -0.034 -0.015 -0.019 0.099 -0.016 0.164 -0.046 0.045 0.022 0.048 0.046 0.024 0.04 0.004 0.074 0.02 0.012 0.08 -0.025 0.036 0.03 0.062 0.036 0.107 0.035 0.154 -0.055 0.077 -0.014 0.063 0.001 0.034 0.017 0.012 0.057 -0.012 0.071 -0.018 0.039 0.032 0.028 0.126 0.068 0.052 0.038 -0.026 0.066 0.094 0.161 0.032 0.063 0.037 0.077 -0.193 -0.03 -0.347 -0.065 -0.095 -0.033 -0.09 -0.09 -0.054 -0.043 -0.08 -0.056 -0.065 -0.021 -0.049 -0.039 -0.028 -0.057 -0.041 -0.051 -0.071 -0.061 -0.162 -0.206 z M 48.869 -38.435 l -0.028 -0.002 -0.205 0.039 -0.043 -0.012 -0.175 -0.175 -0.036 -0.019 -0.076 -0.008 -0.044 -0.029 -0.036 -0.047 -0.021 -0.035 -0.181 -0.095 -0.027 -0.035 -0.004 -0.031 0.027 -0.028 0.031 -0.023 0.088 -0.024 0.103 -0.02 0.033 -0.015 0.017 -0.025 -0.001 -0.04 -0.017 -0.04 -0.149 -0.073 -0.016 -0.031 -0.005 -0.038 0.008 -0.04 0.023 -0.031 0.121 -0.043 0.065 -0.044 -0.04 -0.049 -0.131 -0.112 -0.155 -0.123 -0.104 -0.001 -0.119 0.036 -0.191 0.105 -0.106 0.045 -0.138 0.074 -0.15 0.083 -0.123 0.088 -0.077 0.073 -0.136 0.032 -0.069 0.061 -0.228 0.183 -0.064 -0.002 -0.004 -0.091 0.003 -0.072 -0.014 -0.041 -0.074 -0.057 -0.001 -0.025 0.02 -0.015 0.057 0.009 0.073 -0.003 0.035 -0.022 -0.078 -0.075 -0.069 -0.05 -0.059 -0.034 -0.013 -0.02 0 -0.014 0.012 -0.017 0.1 -0.041 0.01 -0.038 -0.007 -0.042 -0.16 -0.062 -0.12 0.023 -0.107 -0.07 -0.069 -0.054 -0.086 -0.058 -0.077 -0.032 -0.074 -0.073 -0.128 -0.075 -0.082 -0.021 0.001 -0.011 0.015 -0.014 0.034 -0.011 0.228 0.003 0.028 -0.014 0.014 -0.032 0.031 -0.048 0.036 -0.07 -0.003 -0.059 -0.229 -0.095 -0.166 -0.088 -0.115 -0.116 -0.078 -0.106 0.003 -0.035 0.022 -0.034 0.178 -0.097 0.012 -0.025 -0.004 -0.017 -0.063 -0.05 -0.08 -0.051 -0.025 -0.038 -0.05 -0.019 -0.096 -0.001 -0.167 -0.063 -0.036 -0.006 -0.008 -0.013 0.008 -0.013 0.12 -0.026 -0.002 -0.021 -0.036 -0.028 -0.068 -0.02 -0.062 -0.05 -0.022 -0.045 0.216 -0.132 0.064 -0.026 0.141 0.024 0.293 0.088 -0.02 0.049 0.03 0.027 0.067 0.037 0.129 0.038 0.109 0.019 0.055 -0.017 0.084 -0.014 0.109 0.043 0.101 0.055 0.05 0.022 0.027 0.007 0.076 -0.018 0.092 -0.071 0.036 -0.086 0.01 -0.041 -0.054 -0.057 -0.11 -0.062 -0.124 -0.054 -0.079 -0.048 -0.051 -0.094 -0.051 -0.01 -0.013 -0.012 -0.008 -0.032 0.002 -0.045 0.018 -0.035 0.05 -0.015 0.051 -0.005 0.046 -0.033 0.057 -0.065 0.024 -0.036 0.108 0.021 0.014 0.058 0.019 0.012 0.045 -0.007 0.074 -0.024 0.059 0.019 0.076 0.069 0.105 0.073 0.057 0.049 0.022 0.034 0.054 0.033 0.079 0.039 0.063 0.06 0.056 0.141 0.057 0.033 0.203 0.053 0.071 0.011 0.199 0.019 0.07 -0.013 0.103 -0.121 0.092 -0.125 0.086 -0.026 0.156 -0.06 0.093 -0.057 0.039 -0.061 0.088 -0.116 0.054 -0.065 0.092 0.058 0.159 0.157 0.227 0.256 0.056 0.072 0.037 0.084 0.031 0.102 0.052 0.09 0.23 0.226 0.099 0.084 0.162 0.108 0.058 0.024 0.076 0.007 0.139 0 0.129 0.042 0.063 0.03 0.066 0.043 0.059 0.05 0.059 0.133 -0.223 -0.044 -0.224 0.007 -0.127 0.029 -0.123 0.039 -0.118 0.055 -0.074 0.107 -0.062 0.247 -0.091 0.231 0.003 0.107 0.04 0.103 -0.005 0.049 -0.042 0.021 -0.052 0.044 -0.07 0.213 -0.034 0.042 -0.044 0.026 -0.012 -0.025 0.003 -0.056 -0.098 -0.049 -0.052 0.055 -0.036 0.117 -0.072 0.123 -0.004 0.023 z M 45.552 -40.616 l 0.01 -0.033 -0.028 -0.015 -0.03 -0.001 -0.026 0.017 0 0.041 0.036 0.007 z M 45.024 -41.027 l -0.022 0.011 -0.033 -0.011 -0.01 -0.025 0.003 -0.027 0.033 -0.006 0.027 0.008 0.008 0.024 z" vector-effect="non-scaling-stroke" fill="#000" fill-opacity="1" stroke="#FFF" stroke-width="0px" stroke-linejoin="round" stroke-linecap="round"/></svg>
