<svg xmlns="http://www.w3.org/2000/svg" xmlns:xlink="http://www.w3.org/1999/xlink" height="400" width="400" viewBox="-78.98564453125 -26.940087890625 6.23837890624999 6.002685546875"><path d="M -77.658 -24.249 l 0.002 0.023 -0.099 0.063 0.072 0.045 0.068 -0.098 0.054 0.08 0.029 0.149 -0.005 0.026 0.005 0.022 0.011 0.029 0.003 0.041 -0.055 0.13 -0.198 -0.013 -0.004 -0.11 -0.031 -0.021 -0.046 -0.157 -0.062 -0.051 -0.086 -0.129 0.05 -0.033 0.066 0.011 0.034 -0.016 0.092 -0.012 0.056 -0.018 z M -77.226 -25.904 l -0.021 0.009 -0.087 -0.1 -0.07 -0.029 0.109 -0.071 0.047 -0.061 -0.001 -0.133 0.027 -0.073 -0.009 -0.063 0.024 -0.064 -0.033 -0.072 -0.091 -0.057 -0.181 -0.228 -0.285 -0.055 -0.148 -0.002 0.081 -0.037 0.075 0.004 0.115 0.022 0.138 0.01 0.084 0.067 0.081 0.089 0.073 0.036 0.03 0.023 -0.003 0.026 0.012 0.024 0.095 0.042 0.096 0.067 0.028 0.197 -0.129 0.093 -0.024 0.285 z M -73.027 -21.192 l -0.032 0.073 -0.106 0.14 -0.236 0.035 -0.26 0.006 -0.02 -0.038 -0.006 -0.034 0.019 -0.052 -0.002 -0.021 -0.011 -0.021 0.095 -0.023 0.062 -0.065 0.099 -0.011 0.123 0.046 0.066 0.002 0.098 -0.05 0.079 -0.109 0.047 0.014 z M -77.744 -24.707 l -0.002 0.121 0.011 0.091 -0.01 0.032 -0.108 0.061 -0.028 0.034 -0.102 0.034 -0.062 0.048 -0.031 -0.077 -0.06 -0.048 -0.01 -0.081 -0.046 0.027 -0.066 -0.017 -0.109 -0.061 -0.069 -0.083 0.096 -0.014 0.02 0.052 0.076 -0.064 -0.017 -0.033 -0.014 -0.004 -0.025 -0.062 0.115 -0.163 0.025 -0.105 -0.052 -0.169 0.049 -0.011 0.129 0.059 0.058 0.058 0.002 0.08 0.054 0.062 0.079 0.148 z M -78.493 -26.729 l 0.121 0.031 0.065 -0.004 0.039 -0.02 0.179 0.008 0.145 -0.03 0.021 0.053 -0.004 0.028 -0.308 0.026 -0.282 0.078 -0.155 0.053 -0.073 0.006 -0.056 -0.028 -0.186 -0.161 0.05 0.016 0.138 0.091 0.086 -0.017 0.079 -0.06 0.012 -0.045 -0.012 -0.022 0.036 -0.072 z M -77.348 -25.014 l -0.113 0.021 -0.081 -0.02 -0.021 -0.016 0.035 -0.028 0.076 -0.023 0.122 -0.002 0.054 0.027 0.006 0.012 z M -74.058 -22.723 l 0.023 0.018 -0.064 0.04 -0.144 -0.05 -0.032 0.003 -0.029 -0.053 -0.011 -0.039 0.007 -0.036 0.086 0.028 0.046 0.052 z M -74.429 -24.068 l -0.079 0.108 -0.042 -0.009 0.024 -0.136 0.055 -0.022 0.022 0.001 z M -74.207 -22.214 l -0.07 0.03 0.016 -0.052 0.135 -0.088 0.074 -0.077 0.042 -0.027 0.015 -0.021 0.059 -0.029 0.03 -0.05 -0.008 -0.041 -0.062 -0.067 0.001 -0.047 0.021 -0.033 0.104 -0.016 -0.028 0.05 0.041 0.142 -0.138 0.177 -0.118 0.055 z M -76.649 -25.487 l 0.165 0.113 0.14 0.043 0.152 0.141 0.065 0.05 0.012 0.046 -0.026 0.209 -0.034 0.126 0.005 0.11 -0.036 -0.033 -0.036 -0.072 -0.059 -0.042 -0.02 -0.022 0.106 -0.005 0.009 -0.114 0.052 -0.09 -0.008 -0.093 -0.124 -0.103 -0.085 -0.09 -0.131 -0.029 -0.121 -0.09 -0.072 -0.011 -0.088 0.016 0.032 -0.054 0.022 -0.071 0.016 -0.013 z M -75.665 -23.45 l -0.042 0.006 -0.075 -0.026 -0.175 -0.122 -0.081 -0.01 0.027 -0.069 0.062 0.024 0.141 0.105 0.053 0.053 z M -74.84 -22.894 l -0.006 0.026 -0.126 -0.2 -0.159 -0.049 -0.091 -0.048 0.019 -0.027 0.063 -0.012 0.011 -0.063 -0.027 -0.068 -0.084 -0.138 -0.047 -0.094 -0.022 -0.022 -0.006 -0.079 0.099 0.122 0.041 0.108 0.067 0.106 0.045 0.183 0.127 0.062 0.092 0.088 z M -75.308 -24.2 l 0.007 0.051 -0.067 -0.01 -0.099 0.02 -0.036 0.001 0.022 -0.035 0.069 -0.047 0.003 -0.045 -0.085 -0.065 -0.099 -0.161 -0.046 -0.038 -0.022 -0.06 -0.083 -0.065 0.017 -0.035 0.017 -0.008 0.056 0.017 0.127 0.231 0.008 0.022 z M -73.041 -22.429 l 0.062 0.014 0.034 -0.001 0.114 0.03 0.068 0.041 0.015 0.017 -0.037 0.037 -0.105 -0.07 -0.092 -0.009 -0.129 0.002 -0.052 -0.013 0.035 -0.075 z M -72.916 -21.507 l -0.133 0.049 -0.013 -0.058 0.068 -0.046 z" vector-effect="non-scaling-stroke" fill="#000" fill-opacity="1" stroke="#FFF" stroke-width="0px" stroke-linejoin="round" stroke-linecap="round"/></svg>
