<svg xmlns="http://www.w3.org/2000/svg" xmlns:xlink="http://www.w3.org/1999/xlink" height="400" width="400" viewBox="88.0234375 -26.571533203125 4.60820312499999 5.78110351562501"><path d="M 89.051 -22.093 l 0.004 -0.093 -0.006 -0.088 -0.079 -0.236 -0.051 -0.121 0.006 -0.039 -0.004 -0.016 -0.024 -0.156 -0.033 -0.095 -0.016 -0.102 0.078 -0.146 -0.031 -0.024 -0.089 -0.019 -0.083 -0.025 -0.02 -0.038 0.037 -0.144 -0.043 -0.056 -0.062 -0.057 -0.019 -0.023 -0.02 -0.029 -0.029 -0.072 0.055 -0.152 0.077 -0.176 0.014 -0.067 0.013 -0.117 0.007 -0.045 -0.01 -0.044 -0.081 -0.051 -0.144 -0.021 -0.102 -0.043 -0.059 -0.065 -0.05 -0.026 -0.062 0.019 -0.079 -0.025 -0.066 -0.064 -0.056 -0.078 0.007 -0.037 0.015 -0.049 0.105 -0.202 0.039 -0.006 0.091 0.039 0.034 0 0.06 -0.08 0.083 -0.227 0.118 0.001 0.104 0.007 0.07 0.012 0.07 -0.007 0.073 -0.018 0.04 -0.029 0.022 -0.036 -0.008 -0.031 -0.089 -0.043 -0.034 -0.032 -0.025 -0.091 -0.026 -0.034 -0.176 -0.005 -0.091 -0.042 -0.05 -0.037 -0.089 -0.124 -0.11 -0.092 -0.105 -0.022 -0.041 -0.03 -0.022 -0.047 0.013 -0.068 0.032 -0.062 0.022 -0.069 0.084 -0.091 0.099 -0.079 0.044 -0.054 0.062 -0.057 0.007 -0.032 -0.011 -0.036 -0.05 -0.034 -0.035 -0.011 -0.006 -0.022 0.024 -0.059 0.048 -0.007 0.1 0.054 0.102 0.087 0.061 0.078 0.002 0.061 0.039 0.01 0.04 0.002 0.066 0.027 0.068 -0.008 0.044 0.015 0.03 -0.006 0.011 -0.035 -0.033 -0.052 -0.024 -0.037 0.028 -0.037 0.031 -0.007 0.035 0.009 0.048 0.033 0.035 0.069 0.006 0.106 0.078 0.096 0.103 0.068 0.08 0.031 0.097 0.023 0.083 -0.022 0.042 -0.067 -0.019 -0.06 0.013 -0.054 0.033 -0.03 0.052 0.002 0.039 0.043 0.113 0.23 -0.023 0.102 0.025 0.279 -0.029 0.184 0.005 0.04 0.013 0.031 0.019 0.013 0.033 0 0.137 0.035 0.116 0.038 0.131 0.035 0.189 0.027 0.116 -0.009 0.058 -0.001 0.117 0.008 0.308 -0.015 0.255 -0.004 0.104 0.026 0.083 0.009 0.284 -0.019 0.286 -0.009 0.155 0.059 0.169 0.096 0.095 0.071 0.017 0.041 -0.01 0.035 -0.032 0.019 -0.058 0.001 -0.134 -0.046 -0.023 0.014 0.002 0.095 -0.004 0.015 -0.029 0.085 -0.081 0.192 -0.016 0.086 -0.017 0.022 -0.021 0.012 -0.063 0.003 -0.049 0.014 -0.021 0.031 -0.032 0.065 -0.022 0.065 -0.031 0.02 -0.074 -0.035 -0.046 0.006 -0.058 0.015 -0.058 0.037 -0.04 0.046 -0.045 0.016 -0.134 -0.009 -0.026 0.007 -0.017 0.033 -0.014 0.042 -0.104 0.098 -0.04 0.158 -0.032 0.102 0.005 0.08 0.088 0.207 0.061 0.269 0.024 0.027 0.021 0.009 0.009 -0.006 -0.002 -0.056 0.004 -0.068 0.029 -0.016 0.037 0.014 0.035 0.059 0.04 0.108 0.042 0.042 0.066 0.012 0.075 -0.025 0.056 -0.049 0.023 -0.053 -0.016 -0.104 -0.004 -0.077 0.036 -0.074 0.129 -0.11 0.019 -0.034 -0.008 -0.094 0 -0.088 0.049 -0.006 0.066 0.014 0.083 -0.043 0.025 -0.001 0.035 0.046 0.059 -0.008 0.043 0.191 0.045 0.169 0 0.081 0.007 0.173 0.02 0.141 0.032 0.032 0.037 0.075 0.034 0.087 0.027 0.049 0.018 0.16 0.022 0.115 0.029 0.362 0.014 0.07 0.008 0.038 0.001 0.331 0.009 0.142 0.032 0.117 0.006 0.045 -0.032 0.036 -0.031 0.007 -0.029 -0.056 -0.067 -0.043 -0.099 -0.046 -0.042 -0.031 -0.051 0.012 -0.071 0.07 -0.029 0.065 0.012 0.091 0.023 0.09 0.05 0.051 0.004 0.057 0.018 0.073 0.026 0.067 0.012 0.073 -0.016 0.001 -0.06 -0.093 -0.054 -0.101 -0.139 -0.191 -0.045 -0.341 -0.003 -0.169 -0.095 -0.198 -0.063 -0.274 -0.025 -0.071 0.033 -0.089 0.006 -0.033 -0.018 0.007 -0.048 0.046 -0.063 -0.109 -0.041 -0.098 -0.163 -0.203 -0.048 -0.09 -0.002 -0.087 -0.071 0.088 -0.096 0.062 -0.098 0.093 -0.065 0.028 -0.206 0.017 -0.119 -0.124 -0.171 -0.304 -0.023 -0.069 0.022 -0.179 -0.04 -0.169 0 -0.089 -0.012 -0.06 -0.031 0.013 -0.012 0.041 0.006 0.063 -0.012 0.053 -0.148 -0.01 -0.139 -0.024 0.122 0.089 0.131 0.021 0.068 0.08 0.008 0.062 -0.004 0.07 -0.067 0.049 -0.062 0.031 0.012 0.067 0.075 0.082 -0.091 0.023 -0.025 0.054 -0.002 0.076 0.046 0.067 0.018 0.05 -0.011 0.046 0.044 0.049 0.064 0.103 0.021 0.074 -0.027 0.104 -0.037 0.04 -0.059 0.039 -0.138 0.131 -0.068 0.149 -0.058 0.07 -0.072 0.013 -0.028 -0.031 -0.06 -0.04 -0.001 -0.073 0.018 -0.058 0.122 -0.139 -0.066 0.019 -0.075 0.04 -0.114 0.075 -0.036 -0.093 -0.024 -0.086 0 -0.106 0.091 -0.158 -0.103 0.079 -0.029 0.099 0.013 0.116 -0.013 0.082 -0.041 0.107 -0.055 0.064 -0.089 0.041 -0.04 0.064 -0.06 0.047 -0.002 -0.093 -0.019 -0.123 -0.064 -0.292 -0.014 0.063 0.033 0.181 -0.002 0.118 -0.049 0.093 -0.098 0.1 -0.075 0.014 -0.044 -0.015 -0.067 -0.062 -0.073 -0.088 -0.012 -0.142 z M 91.151 -22.175 l -0.106 0.07 0.035 -0.415 0.079 0.154 0.02 0.082 z M 91.557 -22.382 l -0.046 0.029 -0.044 -0.026 -0.056 -0.097 0.028 -0.123 0.017 -0.018 0.028 0.04 0.039 0.086 0.025 0.065 z M 90.778 -22.089 l -0.174 0.035 -0.089 -0.011 0.165 -0.262 -0.006 -0.117 -0.026 -0.096 -0.084 -0.077 -0.005 -0.055 -0.038 -0.075 -0.02 -0.088 0.094 -0.028 0.076 0.05 0.011 0.028 0.016 0.072 0.038 0.075 0.131 0.154 -0.002 0.094 -0.036 0.231 z M 91.874 -21.832 l -0.036 0.082 -0.018 -0.06 0.015 -0.076 0.016 -0.042 0.011 0 0.021 0.043 z M 91.949 -21.508 l -0.06 0.005 -0.029 -0.03 0.014 -0.041 -0.016 -0.134 0.051 -0.014 0.026 0.001 0.015 0.04 0.013 0.073 z M 90.642 -22.963 l 0.018 0.043 -0.056 -0.026 -0.042 -0.03 -0.026 -0.039 0.044 -0.021 z" vector-effect="non-scaling-stroke" fill="#000" fill-opacity="1" stroke="#FFF" stroke-width="0px" stroke-linejoin="round" stroke-linecap="round"/></svg>
