<svg xmlns="http://www.w3.org/2000/svg" xmlns:xlink="http://www.w3.org/1999/xlink" height="400" width="400" viewBox="23.17509765625 -56.14580078125 9.53515625 4.88076171875"><path d="M 31.763 -52.101 l -0.19 -0.007 -0.228 0.003 -0.128 0.055 -0.05 -0.013 -0.089 -0.014 -0.099 0.031 -0.135 0.093 -0.09 0.058 -0.088 0.081 -0.028 0.044 -0.056 0.081 -0.051 0.093 0.028 0.065 0.042 0.06 0.009 0.065 0.021 0.051 -0.056 0.037 -0.032 0.053 -0.095 -0.009 -0.116 -0.051 -0.024 -0.074 -0.089 -0.052 -0.059 -0.027 -0.097 -0.004 -0.155 0.024 -0.203 0.018 -0.153 0.005 -0.083 0.026 -0.123 0.026 -0.048 -0.03 -0.068 -0.084 -0.056 -0.084 -0.039 -0.037 -0.034 -0.01 -0.041 0.002 -0.048 0.027 -0.035 0.027 -0.05 0.01 -0.078 0.022 -0.056 0.03 -0.062 0.077 -0.041 -0.005 -0.042 -0.018 -0.049 -0.086 -0.067 -0.02 -0.107 -0.001 -0.133 -0.018 -0.108 -0.026 -0.039 0.006 -0.064 0.037 -0.07 0.005 -0.152 -0.033 -0.03 0.015 -0.04 0.048 -0.048 0.047 -0.041 0.005 -0.023 -0.012 0.013 -0.082 -0.088 -0.029 -0.149 -0.004 -0.105 0.012 -0.051 -0.003 -0.026 -0.016 -0.128 -0.138 -0.068 -0.009 -0.121 0.007 -0.179 -0.017 -0.207 -0.031 -0.113 -0.012 -0.059 -0.031 -0.127 -0.011 -0.342 -0.058 -0.14 -0.01 -0.205 -0.001 -0.313 -0.013 -0.2 0.007 -0.093 0.019 -0.107 0.012 -0.181 0.011 -0.074 -0.001 -0.116 0.006 -0.133 0.016 -0.038 0.029 -0.044 0.064 -0.153 0.11 -0.149 0.073 -0.027 0.006 -0.087 -0.039 -0.073 -0.013 -0.085 -0.004 -0.06 0.012 -0.038 0.018 0.005 0.085 -0.008 0.007 -0.066 -0.101 0.005 -0.091 0.037 -0.052 0.044 -0.047 -0.018 -0.07 0.044 -0.093 0.001 -0.067 -0.019 -0.029 -0.035 -0.033 -0.097 -0.037 -0.043 -0.029 -0.131 -0.039 -0.13 -0.048 -0.022 -0.03 0.006 -0.02 0.023 -0.031 0.099 -0.09 0.108 -0.088 0.069 -0.035 0.365 -0.113 0.057 -0.039 0.014 -0.067 0.001 -0.048 -0.007 -0.086 -0.022 -0.123 -0.028 -0.085 -0.07 -0.159 -0.19 -0.328 -0.114 -0.341 0.074 0.02 0.175 0.008 0.139 -0.023 0.072 -0.003 0.064 0.007 0.095 -0.013 0.087 -0.005 0.045 0.03 0.081 0.027 0.161 -0.039 0.142 -0.048 0.147 0.005 0.021 -0.024 0.036 -0.121 0.044 -0.026 0.177 0.012 0.065 -0.022 0.068 -0.059 0.104 -0.037 0.087 0 0.091 -0.042 0.045 0.028 0.022 0.05 -0.03 0.04 0.013 0.016 0.063 0.02 0.108 -0.001 0.069 -0.017 0.016 -0.023 0 -0.041 -0.017 -0.038 -0.046 -0.033 -0.086 -0.017 -0.059 -0.001 -0.01 -0.021 0.02 -0.045 0.053 -0.083 0.065 -0.075 0.04 -0.028 0.007 -0.026 -0.008 -0.046 -0.001 -0.082 0.058 -0.115 0.078 -0.086 0.105 -0.028 0.129 -0.015 0.082 -0.041 0.041 -0.047 0.015 -0.04 0.02 -0.034 0.041 -0.015 0.309 0.009 0.047 -0.074 0.027 -0.021 0.059 -0.022 0.041 -0.026 -0.016 -0.02 -0.079 -0.013 -0.186 -0.012 -0.038 -0.024 0.012 -0.029 0.05 -0.076 0.047 -0.098 0.024 -0.076 0.003 -0.045 0.027 -0.012 0.152 -0.014 0.051 -0.015 0.131 -0.104 0.1 -0.018 0.257 0.027 0.118 -0.002 0.032 0.002 0.118 0.005 0.013 -0.01 0.053 -0.103 0.052 -0.03 0.202 -0.135 0.136 -0.057 0.086 -0.012 0.03 0.003 0.136 0.087 0.032 0.003 0.076 -0.034 0.015 -0.002 0.157 -0.003 0.073 0.03 0.054 0.059 0.05 0.047 0.054 0.013 0.153 -0.06 0.084 -0.02 0.056 0.001 0.196 0.053 0.092 0.029 0.021 0.027 0.002 0.031 -0.025 0.046 -0.02 0.05 0.06 0.06 0.069 0.04 0.148 -0.067 0.054 -0.019 0.06 -0.001 0.08 -0.025 0.058 -0.037 0.055 -0.013 0.106 0.009 0.191 -0.009 0.223 0.058 0.019 0.018 0.111 0.069 0.039 0.034 0.037 0.011 0.059 0.033 0.079 0.021 0.055 -0.006 0.026 0.011 0.025 0.026 0.002 0.045 -0.008 0.128 -0.039 0.037 -0.041 0.03 -0.01 0.023 0.004 0.028 0.063 0.055 0.081 0.086 0.019 0.05 0 0.037 -0.111 0.11 -0.037 0.026 -0.025 0.054 -0.013 0.055 0.008 0.023 0.185 0.087 0.137 0.047 0.031 0.023 0.003 0.014 -0.073 0.094 -0.007 0.025 0.11 0.039 0.061 0.061 0.054 0.1 0.104 0.096 0.225 0.085 0.164 0.055 0.034 0.025 0.012 0.03 -0.013 0.066 -0.042 0.08 -0.029 0.045 0.067 0.019 0.171 -0.005 0.208 0.016 0.25 0.088 0.001 0.04 -0.026 0.036 0.017 0.038 0.027 0.032 0.216 0.099 0.021 0.029 0.004 0.048 -0.006 0.035 -0.06 0.007 -0.066 0.017 -0.109 0.042 -0.043 0.06 -0.176 0.082 -0.109 0.037 -0.087 0.002 -0.206 -0.017 -0.072 -0.041 -0.03 -0.037 -0.079 -0.017 -0.105 -0.002 -0.145 0.006 -0.029 0.011 -0.024 0.046 -0.062 0.078 -0.044 0.044 0.036 0.027 0.058 0.056 0.09 0.072 0.092 0.064 0.03 0.039 -0.001 0.028 -0.044 0.033 0.007 0.066 0.09 0.087 -0.03 0.014 -0.009 0.106 0.001 0.114 0.024 0.027 0.048 0.023 0.041 0.042 0.068 0.095 z" vector-effect="non-scaling-stroke" fill="#000" fill-opacity="1" stroke="#FFF" stroke-width="0px" stroke-linejoin="round" stroke-linecap="round"/></svg>
