<svg xmlns="http://www.w3.org/2000/svg" xmlns:xlink="http://www.w3.org/1999/xlink" height="400" width="400" viewBox="2.52490234375 -51.49111328125 3.83955078125001 1.980224609375"><path d="M 4.226 -51.386 l 0.078 0.025 0.069 0.006 0.03 -0.011 -0.019 -0.06 0.056 -0.032 0.063 -0.015 0.028 0.026 0.057 0.027 0.045 0 0.122 -0.069 0.029 0.014 0.026 0.025 0.005 0.02 0.005 0.021 0.027 0.009 0.096 -0.004 0.049 -0.038 0.038 -0.024 0.029 0.016 0.014 0.046 0.026 0.06 0.114 0.068 0.097 0.019 0.119 -0.013 0.047 -0.012 0.032 0.01 0.032 0.036 0.068 0.041 0.144 0.029 0.044 0.016 0.031 0.027 -0.009 0.039 -0.068 0.098 -0.009 0.029 0.009 0.01 -0.013 0.018 -0.089 0.065 -0.008 0.023 0.03 0.038 0.024 0.031 0 0 0.053 0.015 0.05 0.005 0.095 0.002 0.101 0.002 0.012 0.018 0.113 0.053 0.035 0.042 0.081 0.041 -0.067 0.051 0.01 0.023 0.024 0.023 0.092 0.014 0.046 0.034 0.003 0.052 0.021 0.084 -0.189 0.083 -0.054 0.093 -0.005 0.018 -0.006 -0.003 -0.021 -0.031 -0.034 0 -0.079 -0.013 -0.109 0.084 -0.05 0.07 -0.029 0.051 -0.044 0.042 -0.009 0.044 0.006 0.018 -0.015 0.024 -0.001 0.025 0.063 0.049 0.016 0.027 0.077 0.087 -0.024 0.032 -0.019 0.035 -0.022 0.025 -0.026 0.016 -0.079 -0.001 -0.1 0.011 -0.068 0.017 -0.035 0 -0.073 -0.044 -0.081 -0.065 -0.052 -0.031 -0.023 -0.027 -0.064 -0.011 -0.091 -0.032 -0.063 -0.035 -0.054 -0.022 -0.076 -0.011 -0.063 0.001 -0.018 -0.059 -0.008 -0.067 -0.051 -0.045 0.071 -0.176 -0.042 -0.017 -0.046 0.014 -0.066 0.042 -0.032 0.05 -0.019 0.044 -0.111 0.042 -0.176 0.015 -0.193 -0.015 -0.027 -0.011 -0.012 -0.013 0 -0.016 0.013 -0.024 0.034 -0.029 0.008 -0.041 -0.034 -0.036 -0.022 -0.014 0.009 -0.035 0.025 -0.043 0.005 -0.025 -0.13 -0.075 -0.094 -0.015 -0.092 -0.003 -0.07 -0.008 -0.041 0.003 -0.029 0.022 -0.029 0.016 -0.022 -0.019 -0.041 -0.133 -0.031 -0.02 -0.118 -0.022 -0.161 -0.008 -0.043 -0.024 -0.024 -0.06 -0.015 -0.072 -0.053 -0.069 -0.027 -0.017 -0.048 -0.031 -0.084 0.013 -0.101 0.04 -0.06 0.011 -0.023 0.004 -0.08 -0.039 -0.09 -0.061 -0.072 -0.065 -0.017 -0.036 0.022 -0.044 -0.027 -0.033 -0.039 -0.061 -0.011 -0.048 0.435 -0.168 0.265 -0.086 0.125 -0.026 0.03 0.087 0.023 0.027 0.03 0.018 0.039 0.004 0.045 -0.021 0.063 -0.023 0.102 0.01 0.074 0.021 0.026 0.022 0.049 0.021 0.071 0.005 0.138 -0.039 0.133 -0.06 0.039 -0.042 z" vector-effect="non-scaling-stroke" fill="#000" fill-opacity="1" stroke="#FFF" stroke-width="0px" stroke-linejoin="round" stroke-linecap="round"/></svg>
