<svg xmlns="http://www.w3.org/2000/svg" xmlns:xlink="http://www.w3.org/1999/xlink" height="400" width="400" viewBox="-89.2375 -18.48232421875 1.44887695312501 2.59365234374999"><path d="M -89.161 -17.815 l -0.001 -0.087 0.029 -0.069 0.083 -0.029 0.108 0.06 0.045 0.025 0.04 -0.014 0.051 -0.037 0.063 -0.106 0.157 -0.219 0.063 -0.155 0.062 -0.031 0.089 -0.006 0.077 0.01 -0.054 0.114 0.054 0.015 0.048 -0.011 0.117 0.004 0.045 0.125 -0.012 0.104 -0.11 0.276 -0.014 0.095 -0.05 0.142 0.068 0.093 -0.064 0.124 -0.022 0.08 -0.005 0.121 0.032 0.229 -0.052 0.33 -0.091 0.144 -0.057 0.055 -0.101 0.143 -0.133 0.043 -0.184 0.231 -0.033 0.061 0.018 0.065 -0.043 0.001 -0.176 -0.011 -0.119 0.012 -0.005 -0.006 0.01 -0.248 0.015 -0.384 0.011 -0.282 0.011 -0.276 0.008 -0.207 0.011 -0.281 z M -87.951 -17.925 l -0.048 0.019 0.039 -0.058 0.006 -0.037 0.055 -0.154 0.039 0.001 0.01 0.014 z M -87.853 -17.423 l -0.077 0.14 -0.005 -0.04 0.032 -0.104 0.043 -0.036 0.027 -0.038 0.006 -0.045 0.038 0.022 -0.01 0.045 z" vector-effect="non-scaling-stroke" fill="#000" fill-opacity="1" stroke="#FFF" stroke-width="0px" stroke-linejoin="round" stroke-linecap="round"/></svg>
