<svg xmlns="http://www.w3.org/2000/svg" xmlns:xlink="http://www.w3.org/1999/xlink" height="400" width="400" viewBox="0.763378906250011 -12.383837890625 3.07109374999999 6.16704101562499"><path d="M 1.623 -6.217 l -0.012 -0.034 0.167 -0.044 -0.035 -0.132 -0.104 -0.155 -0.041 -0.029 -0.021 -0.077 0.025 -0.051 -0.012 -0.034 -0.009 -0.105 -0.051 -0.115 0.094 -0.005 0 -0.372 0 -0.357 0 -0.304 0 -0.241 -0.018 -0.288 -0.003 -0.212 -0.004 -0.279 -0.034 -0.087 -0.142 -0.148 -0.039 -0.077 -0.007 -0.101 -0.032 -0.105 -0.002 -0.183 -0.002 -0.213 -0.013 -0.034 -0.154 -0.101 -0.218 -0.144 -0.166 -0.11 -0.012 -0.008 -0.017 -0.027 0.024 -0.324 0.034 -0.042 0.053 -0.133 0.026 -0.108 0.024 0 0.033 -0.035 0.027 -0.051 0.029 0.011 0.048 0.01 0.022 -0.018 -0.003 -0.04 0.016 -0.04 0.038 -0.018 0.01 -0.036 0 -0.042 0.033 -0.011 0.056 0.002 0.046 -0.013 0.037 -0.021 0.047 -0.084 0.027 -0.029 0.008 -0.021 0.027 -0.018 0.075 -0.008 0.06 0.006 0.039 0.048 0.258 -0.043 0.123 0.025 0.25 -0.211 0.056 -0.062 0.076 -0.149 0.026 -0.057 0.024 -0.102 -0.049 -0.189 0.003 -0.033 0.103 -0.041 0.129 -0.032 0.05 -0.002 0.033 -0.016 0.047 -0.041 0.077 -0.03 0.045 0.01 0.028 0.006 0.271 0.25 0.118 0.126 0.032 0.065 0.061 0.047 0.09 0.029 0.082 0.065 0.064 0.091 -0.042 0.064 -0.063 0.133 -0.003 0.104 0.151 0.219 0.017 0.022 0.039 0.034 0.021 0.041 0.018 0.108 0.011 0.121 0.012 0.082 0.073 0.115 0.005 0.046 -0.051 0.172 -0.012 0.018 -0.013 0.005 -0.078 -0.015 -0.034 0.019 -0.042 0.058 -0.026 0.058 -0.001 0.024 0.069 0.108 -0.044 0.156 -0.045 0.097 -0.08 0.055 -0.072 0.013 -0.05 0.026 -0.029 0.034 0.004 0.111 -0.106 0.101 -0.059 0.071 -0.029 0.043 0.012 0.131 -0.038 0.132 -0.066 0.104 -0.147 0.022 -0.123 0.013 -0.042 0.266 0.002 0.169 -0.011 0.172 -0.021 0.07 0.008 0.099 -0.009 0.223 -0.016 0.176 0.022 0.047 0.013 0.104 -0.001 0.107 0.032 0.074 0.034 0.065 -0.001 0.033 -0.018 0.021 -0.015 0.027 0 0.252 0.006 0.075 -0.009 0.048 -0.026 0.04 0.01 0.127 0.021 0.081 0.022 0.06 -0.021 0.05 -0.018 0.066 -0.028 0.168 -0.002 0.058 -0.42 0.041 -0.469 0.067 z" vector-effect="non-scaling-stroke" fill="#000" fill-opacity="1" stroke="#FFF" stroke-width="0px" stroke-linejoin="round" stroke-linecap="round"/></svg>
