<svg xmlns="http://www.w3.org/2000/svg" xmlns:xlink="http://www.w3.org/1999/xlink" height="400" width="400" viewBox="88.73876953125 -28.311181640625 3.34462890625002 1.60961914062497"><path d="M 91.632 -27.76 l -0.006 0.023 -0.028 0.06 -0.018 0.066 0.015 0.054 0.063 0.064 0.085 0.051 0.108 0.004 0.1 -0.02 0.04 0.008 0.054 0.085 0.038 0.074 -0.052 0.076 -0.029 0.067 -0.01 0.047 0.006 0.021 0.032 0.038 0.037 0.066 0.005 0.06 -0.024 0.04 -0.051 0.02 -0.055 -0.006 -0.045 0.001 -0.057 0.007 -0.088 0.022 -0.082 0.029 -0.154 -0.005 -0.062 -0.06 -0.029 0 -0.14 0.077 -0.153 -0.013 -0.278 0.026 -0.116 0.006 -0.119 -0.009 -0.06 -0.016 -0.112 -0.054 -0.102 -0.04 -0.104 0.036 -0.036 0.007 -0.083 0.093 -0.18 0.031 -0.179 0.022 -0.053 -0.012 -0.101 -0.006 -0.004 -0.022 0.003 -0.021 -0.023 -0.017 -0.041 -0.017 -0.071 -0.007 -0.09 -0.023 -0.052 -0.022 -0.184 0.032 -0.107 -0.049 -0.122 -0.067 -0.062 -0.029 -0.022 -0.104 -0.022 -0.033 -0.048 -0.035 -0.027 -0.041 0.022 -0.043 0.121 -0.079 0.01 -0.019 0.056 -0.148 0.078 -0.054 0.077 -0.075 0.058 -0.119 0.112 -0.122 0.123 -0.125 0.085 -0.102 0.056 -0.047 0.116 -0.051 0.097 -0.03 0.067 -0.068 0.081 -0.038 0.083 -0.017 0.123 0.009 0.116 0.024 0.127 0.034 0.015 0.027 -0.011 0.048 -0.018 0.049 -0.001 0.025 0.02 0.014 0.125 0.009 0.153 -0.008 0.086 0.007 0.191 0.045 0.056 0.032 0.058 0.025 0.057 -0.004 0.072 -0.052 0.076 -0.044 0.047 -0.007 0.034 0.014 0.061 0.042 0.126 0.04 0.112 0.03 0.036 0.028 -0.012 0.122 z" vector-effect="non-scaling-stroke" fill="#000" fill-opacity="1" stroke="#FFF" stroke-width="0px" stroke-linejoin="round" stroke-linecap="round"/></svg>
