<svg xmlns="http://www.w3.org/2000/svg" xmlns:xlink="http://www.w3.org/1999/xlink" height="400" width="400" viewBox="-69.645703125 9.71044921875 12.150048828125 13.18125"><path d="M -69.511 17.506 l 0 -0.001 0 -0.045 -0.011 -0.071 -0.042 -0.056 -0.062 -0.038 -0.02 -0.046 0.021 -0.048 0.122 -0.095 0.065 -0.016 0.017 -0.048 0.04 -0.039 0.114 -0.14 0.067 -0.092 0.067 -0.055 0.078 -0.039 0.034 -0.032 -0.018 -0.1 0.001 -0.01 0.031 0.018 0.064 0.032 0.038 0.007 0.033 0 0.009 -0.021 0.006 -0.021 -0.002 -0.023 -0.01 -0.024 -0.029 -0.036 -0.031 -0.016 0.022 -0.024 0.046 -0.009 0.073 -0.008 0.048 -0.024 0.027 -0.024 0.007 -0.02 0.012 -0.013 0.039 -0.008 0.043 -0.007 0.023 -0.01 0.002 -0.014 -0.007 -0.016 0 -0.033 -0.042 -0.018 -0.059 -0.002 -0.07 -0.017 -0.065 -0.012 -0.042 -0.054 -0.018 -0.052 0.036 -0.035 0.027 -0.032 0.017 -0.023 0.013 -0.022 -0.035 -0.024 -0.072 -0.004 -0.091 -0.018 -0.02 -0.016 0 -0.062 -0.024 -0.053 -0.064 -0.031 -0.044 -0.04 -0.023 -0.028 -0.019 -0.018 -0.034 -0.018 -0.046 -0.033 -0.029 -0.006 -0.062 -0.11 -0.004 -0.002 0.063 -0.11 0.048 -0.067 0.082 -0.096 -0.015 -0.038 -0.144 -0.16 -0.044 -0.076 0.001 -0.075 0.014 -0.092 0.083 -0.049 0.024 -0.075 0.017 -0.074 0.036 -0.025 0.037 -0.042 0.043 -0.061 0.067 -0.053 0.04 -0.04 0.009 -0.112 0.033 -0.031 0.091 -0.036 0.009 -0.029 -0.021 -0.075 -0.046 -0.08 -0.037 -0.039 -0.049 -0.196 -0.051 -0.097 0.021 -0.039 0.035 -0.05 0.034 -0.098 0.011 -0.114 -0.008 -0.42 0.002 -0.083 0.045 -0.058 0.066 -0.067 0.056 -0.026 0.053 -0.042 -0.004 -0.079 0.035 -0.047 0.043 -0.059 -0.133 -0.232 -0.117 -0.204 -0.11 -0.191 -0.128 -0.221 -0.084 -0.146 -0.104 -0.181 -0.092 -0.159 -0.125 -0.217 0.116 -0.004 0.234 0.008 0.227 0.039 0.153 0.017 0.064 0.033 0.014 0.053 0.042 0.025 0.049 -0.01 0.056 -0.004 0.124 -0.054 0.1 -0.036 0.087 -0.044 0.045 -0.042 0.108 -0.148 0.087 -0.082 0.08 -0.029 0.157 -0.012 0.049 0.023 0.064 -0.003 0.055 -0.084 0.084 -0.093 0.165 -0.116 0.084 -0.032 0.052 -0.041 0.09 -0.006 0.079 -0.042 0.382 -0.293 0.155 -0.076 0.096 -0.014 0.08 -0.018 0.136 -0.042 0.339 -0.041 0.218 -0.017 0.07 0.041 0.078 -0.012 0.067 -0.066 0.055 -0.021 0.041 0.002 0.058 0.078 0.029 0.082 -0.019 0.063 0.004 0.091 0.026 0.12 -0.015 0.106 -0.082 0.139 -0.041 0.057 -0.01 0.058 0.007 0.079 0.038 0.129 0.068 0.178 0.01 0.132 -0.048 0.086 -0.022 0.074 0.004 0.062 0.017 0.044 0.03 0.025 0.017 0.05 0.003 0.074 0.04 0.072 0.076 0.07 0.031 0.066 -0.014 0.063 0.004 0.039 0.022 0.016 0.021 -0.013 0.028 -0.017 0.025 0.006 0.053 0.088 0.007 0.018 0.029 0.073 0.009 0.055 0.078 0.031 0.084 0.024 0.046 0.029 0.093 0.087 0.078 0.057 0.098 0.047 0.033 0.075 0.06 0.114 0.165 0.044 0.193 0.022 0.123 0.025 0.15 -0.06 0.1 0.009 0.103 0.041 0.044 0.028 0.077 0.058 0.119 0.075 0.097 0.028 0.069 -0.042 0.064 -0.015 0.049 0.017 0.026 0.081 0.026 0.055 0.057 0.042 0.123 0.107 0.07 0.044 0.078 -0.003 0.162 0.07 0.173 0.068 0.089 0.011 0.088 -0.01 0.058 0.026 0.023 0.082 0.15 0.164 0.071 0.064 0.084 0.055 0.214 -0.001 0.064 0.016 0.096 -0.015 0.287 -0.028 0.052 -0.009 0.162 0.072 0.192 0.103 0.127 0.081 0.089 0.045 0.046 0.073 0.038 0.076 0.017 0.081 -0.023 0.081 -0.035 0.032 -0.012 0.052 0.015 0.078 0.064 0.07 0.024 0.086 0.035 0.152 0.039 0.048 0.026 0.47 -0.129 0.004 -0.181 0.006 0.053 0.045 0.15 0.175 0.138 0.161 0.022 0.259 0.014 0.163 0.019 0.23 0.012 0.137 0.344 0.012 0.397 0.014 0.477 0.017 0.419 0.015 0.041 -0.002 0.073 -0.019 0.048 -0.024 0.03 0.001 0.005 0.056 -0.01 0.07 0 0.081 -0.12 0.159 -0.008 0.05 0.018 0.21 0.042 0.17 0.021 0.154 0.048 0.048 0.142 0.081 0.215 0.15 0.086 0.019 0.073 -0.02 0.044 0.061 0.009 0.099 0.119 0.276 0.075 0.175 0.034 0.061 0.056 0.032 -0.01 0.023 -0.047 0.009 -0.021 0.033 -0.065 0.196 -0.086 0.258 -0.058 0.181 0.052 0.003 0.002 0.05 0.012 0.077 -0.065 0.009 -0.019 0.027 -0.074 0.149 -0.097 0.195 -0.1 0.201 -0.059 0.119 0.102 0.088 0.169 0.147 -0.027 0.041 -0.073 0.02 -0.061 0.014 -0.046 0.055 -0.026 0.041 -0.066 0.014 0.02 -0.166 -0.02 -0.144 -0.02 -0.037 -0.294 -0.172 -0.267 -0.156 -0.349 -0.204 -0.45 0.006 -0.467 0.006 -0.444 0.091 -0.437 0.09 -0.207 0.042 -0.416 0.085 -0.245 0.039 -0.064 0.164 -0.096 0.246 -0.095 0.144 -0.11 0.151 -0.155 0.213 0 0.258 0 0.245 -0.109 0.346 -0.092 0.294 -0.089 0.283 -0.062 0.195 -0.022 0.05 -0.014 -0.016 -0.079 -0.058 -0.071 -0.11 -0.019 -0.05 -0.009 -0.002 -0.424 0.003 -0.408 0.004 -0.042 0.023 -0.059 0 -0.043 -0.022 -0.042 0.002 -0.061 0.021 -0.054 0.044 -0.156 0.293 -0.077 0.125 -0.057 0.112 -0.042 0.192 -0.017 0.032 -0.049 -0.067 -0.072 -0.176 -0.032 -0.1 -0.046 -0.114 -0.082 -0.143 -0.095 -0.043 -0.059 -0.014 -0.084 -0.027 -0.15 -0.034 -0.065 -0.007 -0.427 -0.005 -0.034 -0.004 -0.167 0.016 -0.085 -0.011 -0.089 -0.08 -0.198 -0.14 -0.04 -0.044 -0.076 -0.029 -0.046 -0.003 -0.027 0.028 -0.035 0.117 -0.04 0.106 -0.043 0.061 -0.142 0.045 -0.132 0.047 -0.073 0.011 -0.039 0.053 -0.017 0.074 -0.033 0.067 -0.191 0.1 -0.042 0.042 -0.022 0.099 -0.106 0.123 -0.033 0.048 -0.167 0.033 -0.218 0.037 -0.127 -0.003 -0.087 -0.01 -0.026 -0.022 -0.059 -0.035 -0.01 -0.039 -0.001 -0.055 0.016 -0.099 -0.008 -0.137 -0.069 -0.16 0.005 -0.051 -0.009 -0.078 -0.034 -0.147 -0.088 -0.074 -0.025 -0.122 -0.01 -0.108 -0.074 -0.134 -0.012 -0.171 0.002 -0.147 -0.117 -0.171 -0.122 -0.181 -0.098 -0.025 -0.024 -0.022 -0.011 -0.052 -0.002 -0.081 0.008 -0.049 0.076 -0.079 0.003 -0.012 -0.016 -0.016 -0.196 -0.119 -0.049 -0.034 -0.015 -0.042 0.001 -0.038 0.047 -0.039 0.024 -0.029 -0.046 -0.085 0.005 -0.077 -0.029 -0.033 0.004 -0.025 0.028 -0.021 0.127 -0.025 0.04 -0.078 0.001 -0.065 -0.019 -0.046 -0.118 -0.116 -0.002 -0.02 0.123 -0.161 0.088 -0.106 0.024 -0.022 -0.007 -0.023 -0.022 -0.028 -0.056 -0.041 -0.073 -0.044 -0.06 -0.054 -0.078 -0.08 -0.099 -0.069 -0.073 -0.068 -0.037 -0.057 -0.001 -0.058 -0.01 -0.097 -0.048 -0.157 -0.013 -0.106 -0.021 -0.117 -0.021 -0.076 -0.011 -0.074 -0.034 -0.08 -0.019 -0.058 0.027 -0.041 0.028 -0.032 -0.004 -0.02 -0.188 -0.086 -0.031 -0.022 -0.045 -0.171 -0.137 -0.152 z M -68.98 16.24 l -0.066 -0.022 -0.087 0.004 0.012 -0.044 0.014 -0.046 0.004 -0.046 0.025 -0.005 0.063 0.029 0.068 0.065 0.056 0.03 0.006 0.035 -0.02 0.001 -0.041 -0.018 z" vector-effect="non-scaling-stroke" fill="#000" fill-opacity="1" stroke="#FFF" stroke-width="0px" stroke-linejoin="round" stroke-linecap="round"/></svg>
