<svg xmlns="http://www.w3.org/2000/svg" xmlns:xlink="http://www.w3.org/1999/xlink" height="400" width="400" viewBox="15.73662109375 -45.2765625 3.84716796875 2.716845703125"><path d="M 19.007 -44.869 l 0.035 -0.002 0.089 -0.028 0.105 -0.015 0.076 0.017 0.036 0.017 0.008 0.022 -0.022 0.078 -0.043 0.084 -0.069 0.087 -0.072 0.082 -0.019 0.044 -0.005 0.069 -0.009 0.055 0.01 0.03 0.024 0.028 0.08 0.022 0.107 0.055 0.091 0.071 0.117 0.081 0.037 0.03 0 0.032 -0.034 0.024 -0.1 0.009 -0.104 -0.007 -0.04 -0.008 -0.037 0.01 -0.023 0.018 0.012 0.022 0.107 0.099 0.124 0.141 0.007 0.061 -0.015 0.048 -0.029 0.033 -0.052 -0.006 -0.039 -0.026 -0.06 0.002 -0.046 0.007 -0.06 0.051 -0.03 -0.002 -0.052 0.008 -0.033 0.01 -0.052 -0.015 -0.054 -0.01 -0.024 0.016 -0.01 0.03 0.034 0.054 0.063 0.085 -0.01 0.065 -0.048 0.007 -0.044 -0.054 -0.039 -0.009 -0.045 0.002 -0.102 0.063 -0.075 0.053 -0.017 0.037 -0.027 0.04 -0.008 0.029 0.002 0.097 -0.135 0.016 -0.028 0.014 -0.016 0.029 0.011 0.124 0.011 0.067 0.077 0.103 0.003 0.033 -0.011 0.021 -0.055 0.041 -0.026 0.015 -0.018 0.005 -0.09 -0.027 -0.043 -0.013 -0.18 -0.091 -0.079 -0.051 -0.126 -0.066 -0.078 -0.038 -0.039 -0.057 -0.062 -0.013 -0.073 0.018 -0.082 -0.041 0.058 -0.021 0.014 -0.02 -0.007 -0.027 -0.026 -0.036 -0.223 -0.156 -0.109 -0.107 -0.018 -0.038 -0.001 -0.102 -0.026 -0.024 -0.163 -0.046 -0.183 -0.132 -0.188 -0.13 -0.026 -0.036 -0.097 -0.098 -0.118 -0.089 -0.095 -0.057 -0.077 -0.065 -0.086 -0.091 -0.044 -0.137 -0.04 -0.122 -0.027 -0.047 -0.054 -0.017 -0.169 -0.144 -0.143 -0.084 0.001 -0.091 0.024 -0.151 0.027 -0.171 0.035 -0.024 0.065 -0.013 0.075 0.005 0.065 0.021 0.129 0.117 0.074 0.046 0.062 0.018 0.072 -0.05 0.088 -0.104 0.077 -0.055 0.26 0.02 0.128 -0.08 0.207 0.105 0.085 0.016 0.048 -0.015 0.065 0.007 0.145 0.031 0.033 0.013 0.044 -0.002 0.107 -0.041 0.037 0.005 0.123 0.08 0.062 0.001 0.074 -0.035 0.048 -0.03 0.141 0.022 0.081 -0.014 0.067 -0.001 0.073 0.014 0.066 0.019 0.064 0.016 0.174 0.008 0.083 0.051 0.033 0.049 0.001 0.03 0.008 0.032 0.048 0.032 0.105 0.018 z" vector-effect="non-scaling-stroke" fill="#000" fill-opacity="1" stroke="#FFF" stroke-width="0px" stroke-linejoin="round" stroke-linecap="round"/></svg>
