<svg xmlns="http://www.w3.org/2000/svg" xmlns:xlink="http://www.w3.org/1999/xlink" height="400" width="400" viewBox="19.97734375 17.78759765625 9.38749999999999 9.06660156250001"><path d="M 25.259 17.794 l -0.02 0.05 -0.015 0.072 0.018 0.054 0.04 0.072 0.058 0.063 0.044 0.038 0.052 0.093 0.053 0.116 0.069 0.091 0.203 0.207 0.022 0.074 0.028 0.074 0.127 0.142 0.02 0.047 -0.008 0.096 0.131 0.288 0.086 0.168 0.073 0.031 0.234 0.179 0.204 0.144 0.238 0.097 0.175 0.064 0.086 0.047 0.043 0.045 0.035 0.086 0.018 0.15 0.006 0.097 0.188 -0.004 0.156 0.009 0.055 0.019 0.02 0.028 -0.005 0.064 0.002 0.095 0.007 0.077 -0.016 0.082 -0.011 0.096 -0.008 0.119 0.024 0.047 0.151 0.15 0.063 0.098 0.067 0.148 0.039 0.047 0.032 0.019 0.136 0.016 0.35 0.062 0.216 0.056 0.172 0.058 0.071 0.015 0.035 0.015 0.012 0.014 -0.021 0.129 0.008 0.041 0.019 0.037 0.029 0.029 0.035 0.018 0.13 0.014 0.078 0.078 0.05 0.036 -0.235 0.019 -0.116 0.065 -0.068 0.117 -0.106 0.086 -0.144 0.055 -0.153 0.038 -0.161 0.02 -0.172 0.1 -0.182 0.18 -0.093 0.113 -0.004 0.047 -0.041 0.04 -0.078 0.034 -0.044 0.041 -0.01 0.048 -0.042 0.023 -0.073 -0.002 -0.051 0.035 -0.029 0.072 -0.064 0.044 -0.1 0.015 -0.086 0.041 -0.072 0.066 -0.056 0.033 -0.039 0.001 -0.061 0.054 -0.099 0.127 -0.016 0.059 -0.136 0.477 -0.074 0.056 -0.143 0.098 -0.116 0.118 -0.05 0.069 -0.055 0.031 -0.266 0.058 -0.099 0.031 -0.12 0.045 -0.03 0.041 -0.029 0.147 -0.083 0.211 -0.067 0.156 -0.043 0.136 -0.075 0.168 -0.066 0.057 -0.075 0.052 -0.097 0.025 -0.133 0.016 -0.121 -0.005 -0.094 0.003 -0.13 0.059 -0.121 0.004 -0.192 -0.034 -0.156 -0.033 -0.07 -0.007 -0.138 -0.11 -0.088 0.002 -0.135 -0.009 -0.076 -0.025 -0.07 -0.056 -0.153 -0.111 -0.149 -0.09 -0.132 -0.053 -0.123 -0.025 -0.117 0.022 -0.091 0.024 -0.035 0.012 -0.071 0.046 -0.072 0.088 -0.06 0.137 -0.023 0.084 -0.067 0.178 -0.089 0.214 -0.043 0.062 -0.049 0.046 -0.078 0.041 -0.253 0.17 -0.127 0.191 -0.08 0.056 -0.096 0.026 -0.081 0.016 -0.045 0.032 -0.05 0.097 -0.043 0.034 -0.048 0.013 -0.145 -0.012 -0.046 -0.01 -0.384 0.019 -0.117 -0.031 -0.083 -0.012 -0.131 0.04 -0.055 -0.026 -0.044 -0.08 -0.021 -0.161 0.007 -0.137 0.071 -0.104 0.059 -0.076 0.058 -0.099 0.008 -0.044 -0.012 -0.04 -0.012 -0.082 -0.006 -0.083 -0.082 -0.182 -0.101 -0.242 -0.136 -0.27 -0.042 -0.074 -0.085 -0.117 -0.317 -0.223 -0.048 -0.03 0 -0.025 0 -0.216 0 -0.287 0 -0.287 0 -0.287 0 -0.287 0 -0.287 0 -0.287 0 -0.287 0 -0.287 0 -0.242 0.228 0 0.282 0 0.335 0 0.148 0 0.008 -0.038 0 -0.178 -0.001 -0.408 -0.001 -0.408 -0.001 -0.408 -0.001 -0.408 -0.001 -0.408 -0.001 -0.408 -0.001 -0.408 -0.001 -0.408 0 -0.202 0.258 -0.012 0.297 -0.041 0.482 -0.067 0.449 -0.083 0.293 -0.049 0.347 -0.058 0.119 -0.01 0.032 0.008 0.047 0.02 0.161 0.204 0.1 0.155 0.02 0.067 0.019 0.007 0.047 -0.011 0.053 -0.025 0.164 -0.155 0.034 -0.04 0.104 -0.075 0.127 -0.077 0.115 -0.054 0.115 -0.045 0.053 0.011 0.063 0.039 0.056 0.024 0.262 -0.188 0.117 -0.043 0.307 -0.034 z" vector-effect="non-scaling-stroke" fill="#000" fill-opacity="1" stroke="#FFF" stroke-width="0px" stroke-linejoin="round" stroke-linecap="round"/></svg>
