<svg xmlns="http://www.w3.org/2000/svg" xmlns:xlink="http://www.w3.org/1999/xlink" height="400" width="400" viewBox="-74.00205078125 -5.25795898437499 39.19658203125 39.000146484375"><path d="M -66.876 -1.223 l 0.257 0.231 0.19 0.17 0.082 0.054 0.045 0.015 0.11 -0.011 0.131 -0.022 0.064 -0.024 0.07 -0.053 0.115 -0.074 0.093 -0.041 0.037 -0.005 0.037 0.013 0.079 0.044 0.043 0.083 -0.04 0.096 0.007 0.06 0.083 -0.003 0.066 -0.099 0.046 -0.078 0.097 -0.063 0.094 -0.09 0.066 -0.086 0.077 -0.05 0.116 -0.061 0.092 -0.037 0.086 0.004 0.064 -0.041 0.083 -0.076 0.058 -0.061 0.04 -0.022 0.081 0.006 0.101 -0.008 0.099 -0.074 0.09 -0.09 0.048 -0.151 0.032 -0.134 0.027 -0.027 0.033 -0.021 0.039 -0.014 0.093 -0.01 0.162 -0.071 0.112 -0.072 0.106 -0.016 0.031 -0.02 0.039 -0.067 0.019 -0.118 -0.014 -0.071 -0.195 -0.022 -0.128 0 -0.212 -0.018 -0.101 -0.029 -0.022 -0.021 -0.002 -0.023 0.02 -0.051 0.02 -0.096 -0.029 -0.13 -0.106 -0.203 -0.075 -0.2 -0.01 -0.139 0.002 -0.147 0.006 -0.096 -0.054 -0.075 -0.293 -0.237 -0.101 -0.112 -0.034 -0.077 -0.115 -0.143 0.029 -0.044 0.066 0.002 0.057 0.037 0.052 0.079 0.037 0.018 0.051 0 0.27 0 0.063 0.013 0.038 0.027 0.033 0.033 0.048 0.093 0.052 0.045 0.107 -0.002 0.168 -0.002 0.094 -0.008 0.056 0.026 0.07 0.021 0.147 -0.049 0.041 -0.001 0.044 0.022 0.158 0.166 0.091 0.07 0.077 0.093 0.112 0 0.092 -0.079 0.025 -0.267 0.028 -0.078 0.047 -0.022 0.056 -0.003 0.066 -0.042 0.071 -0.054 0.062 -0.018 0.258 0.058 0.072 -0.028 0.261 -0.071 0.267 -0.091 0.075 -0.114 0.112 -0.031 0.087 -0.084 0.071 0.009 0.107 0.003 0.066 -0.015 0.033 -0.016 0.036 -0.039 0.06 -0.112 0.073 -0.042 0.092 -0.045 0.063 -0.053 0.052 -0.065 0.024 -0.057 -0.001 -0.045 -0.031 -0.087 -0.037 -0.082 -0.04 -0.027 -0.03 -0.01 0.091 -0.019 0.075 0.029 0.117 0.004 0.051 -0.022 0.074 0.011 0.094 -0.059 0.06 0.019 0.04 0 0.036 0.045 0.028 0.05 0.087 0.061 -0.009 0.093 -0.016 0.082 -0.011 0.095 -0.005 0.072 -0.037 0.074 -0.056 0.069 -0.016 0.028 -0.008 0.036 0.038 0.022 0.066 0.007 0.083 0.003 0.056 0.021 0.073 0.004 0.088 0.059 0.043 0.036 0.004 0.028 -0.028 0.066 -0.011 0.061 0.022 0.039 0.026 0.028 0.071 0.137 0.034 0.048 0.029 0.015 0.007 0.026 -0.024 0.05 -0.029 0.064 -0.066 0.067 -0.009 0.053 -0.053 0.033 -0.123 0.079 0.021 0.125 0.004 0.064 -0.002 0.049 -0.042 0.066 -0.073 0.195 -0.027 0.097 -0.024 0.225 0.002 0.075 0.034 0.102 0.071 0.225 0.041 0.036 0.094 0.053 0.012 0.152 -0.008 0.159 -0.004 0.062 0.015 0.026 0.042 0.013 0.03 0.019 0.005 0.047 -0.003 0.049 0.07 0.028 0.061 0.018 0.056 0.068 0.102 0.105 0.04 0.019 0.02 0.044 0.086 0.089 0.131 0.032 0.132 0.039 0.052 0.056 0.054 0.045 0.041 0.002 0.035 -0.007 0.057 -0.039 0.046 -0.034 0.08 0.002 0.093 -0.006 0.016 -0.028 0.009 -0.035 -0.019 -0.091 0.033 -0.028 0.077 -0.015 0.015 -0.048 0.018 -0.026 0.022 -0.031 0.026 -0.004 0.033 0.018 0.051 0.011 0.057 0.015 0.031 0.031 0.051 0.003 0.057 -0.006 0.023 -0.02 0.017 -0.034 0.012 -0.074 0.036 -0.002 0.073 -0.017 0.078 -0.033 0.104 -0.005 0.097 0.001 0.049 -0.022 0.045 -0.048 0.088 -0.135 0.046 -0.031 0.049 -0.023 0.042 0.004 0.086 -0.022 0.071 -0.032 0.026 0.008 0.055 0.069 0.028 0.015 0.041 0.005 0.133 0.035 0.07 -0.011 0.076 -0.022 0.073 -0.008 0.053 0.015 0.038 -0.02 0.043 -0.015 0.03 0.01 0.067 0.008 0.159 0.039 0.207 0.043 0.057 -0.015 0.034 -0.03 0.008 -0.089 0.006 -0.063 -0.047 -0.056 -0.058 -0.063 -0.054 -0.079 -0.064 -0.022 0.008 -0.04 0.042 -0.042 0.043 -0.023 0.025 -0.028 0.027 -0.105 0.018 -0.018 0.018 -0.004 0.022 0.004 0.042 0.027 0.163 0.083 0.072 -0.013 0.274 -0.022 0.041 -0.048 0.058 -0.011 0.098 -0.048 0.039 -0.003 0.035 0.012 0.044 -0.009 0.065 -0.045 0.027 -0.005 0.01 0.049 0.042 0.051 0.05 0.047 0.024 0.011 0.085 -0.015 0.045 0.013 0.019 0.044 0.006 0.038 0.036 0.032 0.046 0.001 0.024 0.013 0.041 0.021 0.035 0.048 0.082 0.038 0.14 0.053 0.065 0.001 0.061 0.016 0.037 0.016 0.04 -0.029 0.143 -0.082 0.07 -0.046 0.047 -0.035 0.035 -0.033 0.026 -0.009 0.018 0.02 0.015 0.026 0.051 0.016 0.12 0.031 0.055 0.009 0.077 -0.026 0.066 -0.045 0.032 -0.016 0.049 0.045 0.033 0.063 0.022 0.027 0.05 -0.006 0.098 0.01 0.073 0.02 0.045 -0.002 0.061 -0.028 0.033 -0.055 0.087 -0.051 0.083 -0.046 0.047 -0.062 0.07 -0.103 0.024 -0.044 0.005 -0.075 0.099 -0.217 0.037 -0.04 0.022 -0.068 0.04 -0.079 0 -0.066 0.029 -0.064 0.057 -0.055 0.042 -0.035 0.067 -0.093 0.046 -0.088 0.117 -0.195 0.009 -0.055 0.046 -0.033 0.015 -0.042 0.049 -0.052 0.052 -0.041 0.022 -0.06 0.038 -0.063 0.084 -0.047 0.031 -0.022 0.095 -0.173 0.011 -0.077 0.086 -0.003 0.134 0.089 0.107 0.131 0.144 0.422 0.024 0.39 0.058 0.204 0.167 0.426 0.011 0.079 0.027 0.095 0.053 0.101 0.058 0.166 0.002 0.031 -0.038 0.045 0.055 0.003 0.05 0.027 0.033 0.106 0.041 0.071 0.076 0.098 0.155 0.032 0.117 0.012 0.133 0.055 0.098 0.071 0.076 0.24 -0.025 0.151 0.007 0.106 -0.039 0.042 -0.109 0.069 -0.024 0.037 -0.223 0.179 -0.049 0.085 -0.12 0.114 -0.119 0.217 -0.174 0.198 -0.061 0.05 -0.094 0.012 -0.057 0.031 -0.135 0.162 -0.181 0.054 -0.017 0.094 -0.105 0.214 -0.092 0.117 -0.059 0.04 -0.148 0.213 -0.019 0.093 0.001 0.163 -0.099 0.099 -0.102 0.063 -0.013 0.139 -0.046 0.048 -0.04 0.031 -0.209 -0.037 -0.324 0.152 -0.111 0.038 0.354 0.008 0.114 0.081 0.249 -0.053 0.301 -0.192 0.115 -0.04 0.234 -0.131 0.095 -0.087 0.173 -0.104 0.037 -0.046 0.097 -0.049 0.053 0.062 0.004 0.039 -0.08 0.076 0.021 0.049 0.053 0.062 0.019 0.085 0.007 0.065 0.033 0.114 0.107 0.154 0.004 0.051 -0.015 0.067 0.051 0.055 0.053 0.033 0.182 0.166 0.143 -0.093 0.088 -0.027 0.056 -0.039 0.117 -0.026 0.096 0.039 0.183 0.056 0.134 -0.059 0.272 -0.135 -0.085 0.24 -0.062 0.22 -0.047 0.089 -0.046 0.24 -0.046 0.064 -0.037 0.073 0.061 -0.025 0.052 -0.035 0.066 -0.092 0.05 -0.16 0.197 -0.428 0.056 -0.038 0.163 -0.049 0.281 -0.342 0.11 0.001 0.07 0.079 0.067 0.046 0.017 -0.094 0.096 -0.038 -0.102 -0.046 -0.017 -0.042 -0.01 -0.07 0.069 -0.095 -0.041 -0.084 0.143 -0.106 -0.011 -0.079 0.051 -0.065 0.065 -0.067 0.073 -0.033 0.013 -0.058 0.046 -0.024 0.036 -0.009 0.072 0.065 0.078 -0.076 0.076 -0.03 0.034 0.013 0.042 0.034 0.044 0.014 0.036 -0.006 0.094 -0.049 0.087 0.079 0.052 0.017 -0.014 -0.044 -0.027 -0.041 0.021 -0.033 0.041 -0.021 0.129 0.019 0.068 0.035 0.074 0.065 0.102 0.005 0.08 -0.007 0.051 0.037 0.082 0 0.041 0.057 0.125 0.08 0.027 0.054 0.101 0.026 0.095 0.033 0.101 0.009 0.102 -0.008 0.004 0.069 0.075 0.019 0.096 -0.015 0.072 0.084 0.193 0.063 0.134 0.097 0.088 -0.017 0.098 0.026 0.106 0.211 0.024 0.15 0.047 -0.021 0.044 -0.067 0.056 -0.122 0.106 -0.041 0.051 0.047 0.106 0.075 0.091 0.083 0.039 0.053 0.069 0.009 -0.057 0.065 0.058 -0.007 0.07 -0.046 0.06 0.096 0.045 0.104 0.009 0.106 -0.042 0.061 -0.037 0.038 -0.041 0.075 -0.049 0.014 -0.049 0.024 0.056 0.055 0.038 0.053 0.083 -0.143 0.059 -0.04 0.085 -0.022 0.044 0.102 0.009 0.096 -0.138 0.04 -0.001 0.076 -0.041 0.043 -0.027 0.049 -0.022 0.103 -0.028 0.086 -0.082 0.38 -0.002 0.063 0.1 -0.067 0.185 -0.193 0.056 -0.206 0.073 -0.203 0.08 -0.064 0.049 0 0.074 0.022 0.004 0.067 -0.011 0.038 -0.079 0.101 -0.034 0.055 0.033 0.055 0.179 -0.167 0.08 -0.059 0.068 0.012 0.136 -0.077 0.273 -0.016 0.021 -0.088 0.055 -0.038 0.15 0.01 0.293 0.079 0.104 0.065 0.156 0.06 0.082 0.071 0.344 0.131 0.25 0.014 0.124 -0.059 0.154 0.062 0.082 0.07 0.16 0.038 0.162 0.02 0.124 -0.05 0.319 -0.017 0.401 -0.074 0.239 0.018 0.271 0.048 0.193 0.124 0.162 0.07 0.098 0.069 0.158 0.072 0.338 0.193 0.118 0.112 0.21 0.152 0.21 0.064 0.114 0.159 0.09 0.072 0.223 0.268 0.253 0.188 0.169 0.188 0.325 0.121 0.127 0.199 0.22 0.024 0.094 0.03 0.114 0.084 0.157 0.047 0.204 -0.013 0.225 0.009 0.182 -0.039 0.43 0.075 0.068 0.037 0.089 0.085 0.157 0.316 0.094 0.35 0.046 0.268 0.107 0.208 0.059 0.391 0.05 0.123 0.004 0.095 0.042 0.021 0.028 0.264 -0.011 0.106 -0.041 0.138 -0.003 0.062 0.006 0.039 -0.018 0.058 -0.006 0.055 0.042 0.124 0.002 0.1 -0.056 0.121 -0.076 0.315 -0.191 0.523 -0.183 0.3 -0.256 0.31 -0.167 0.162 -0.066 0.017 -0.061 -0.032 0.043 0.085 -0.038 0.075 -0.17 0.228 -0.169 0.149 -0.175 0.259 -0.013 0.006 -0.224 0.1 -0.133 0.082 -0.169 0.149 -0.156 0.234 -0.032 0.03 -0.057 -0.017 0.002 0.119 -0.134 0.188 -0.041 0.028 0.001 -0.053 0.023 -0.041 0.011 -0.043 -0.001 -0.051 -0.037 0.037 -0.079 0.141 0.027 0.104 -0.058 0.156 -0.219 0.446 -0.269 0.375 -0.062 0.116 -0.221 0.253 -0.162 0.122 -0.046 0.001 -0.052 -0.01 -0.026 -0.194 -0.129 -0.118 -0.037 -0.021 -0.053 0.125 -0.044 0.034 -0.064 0.007 0.068 0.054 0.02 0.063 -0.069 0.126 -0.002 0.114 -0.124 0.126 -0.072 0.092 -0.036 0.115 -0.022 0.108 0.054 -0.029 0.026 0.023 0.02 0.034 -0.013 0.05 -0.04 0.094 0.006 0.233 -0.013 0.053 0.04 0.057 0.042 -0.098 0.024 0.027 -0.117 0.624 0.046 0.281 0.017 0.318 0.053 0.311 0.058 0.278 0.005 0.022 -0.08 0.322 -0.102 0.318 -0.062 0.259 -0.039 0.28 -0.039 0.135 -0.012 0.138 0.045 0.326 0.017 0.062 -0.124 0.146 -0.134 0.071 -0.074 0.07 -0.164 0.262 -0.089 0.388 -0.002 0.206 0.042 0.432 -0.032 0.176 -0.052 0.118 -0.061 0.077 -0.157 0.093 -0.14 0.226 -0.061 0.238 -0.096 0.087 -0.02 0.133 -0.077 0.144 -0.201 0.214 -0.13 0.062 -0.062 0.06 -0.04 0.125 -0.126 0.207 -0.093 0.268 0.024 0.091 0.002 0.014 0.034 0.309 -0.012 0.079 -0.122 0.085 -0.46 0.159 -0.123 0.066 -0.275 0.271 -0.017 0.064 0.011 0.091 0.045 0.052 -0.047 0.057 -0.055 0.102 -0.08 -0.006 -0.459 0 -0.248 0.032 -0.129 -0.006 -0.058 -0.025 -0.065 -0.04 -0.02 -0.052 0.035 -0.079 -0.021 -0.047 -0.068 0.002 -0.075 0.022 -0.013 0.047 0.005 0.034 0.028 0.049 0.015 0.06 -0.031 0.053 -0.145 0.007 -0.163 0.048 -0.204 0.02 -0.162 0.035 -0.075 -0.044 0.075 -0.022 0.107 0.011 0.115 -0.037 -0.027 -0.043 -0.163 -0.056 -0.181 0.034 -0.101 0.066 -0.22 -0.006 -0.269 0.05 -0.044 0.051 0.007 0.1 0.053 0.022 0.051 0.046 -0.049 0.042 -0.048 0.019 -0.284 0.046 -0.264 0.194 -0.11 0.024 -0.098 0.086 -0.01 0.073 -0.031 0.044 -0.063 0.002 -0.138 -0.04 -0.179 -0.001 -0.129 0.032 -0.659 0.315 -0.237 0.126 -0.27 0.257 -0.455 0.288 -0.239 0.172 -0.045 0.045 -0.038 0.002 -0.075 0.036 0.03 0.03 0.051 0.003 -0.021 0.1 -0.095 0.068 -0.178 0.18 -0.04 -0.013 0.056 -0.093 -0.088 -0.004 -0.129 -0.034 -0.056 0.039 0.031 0.093 -0.048 0.04 -0.088 0.004 -0.08 -0.011 -0.088 -0.068 0.04 0.123 0.185 0.03 0.077 0.029 0.029 0.047 -0.144 0.219 -0.121 0.028 -0.013 0.031 0.066 0 0.037 0.06 -0.043 0.244 -0.06 0.046 -0.035 0.001 -0.035 0.042 0.048 0.08 0.049 0.058 -0.007 0.113 -0.018 0.093 -0.001 0.091 0.062 0.175 0.022 0.18 0.025 0.065 0.014 0.073 -0.041 0.068 0.024 0.109 -0.071 0.185 0.037 0.267 -0.015 0.25 -0.028 0.132 -0.045 0.103 -0.104 0.133 -0.002 0.133 -0.224 0.123 -0.248 0.173 -0.229 0.204 -0.246 0.288 -0.287 0.438 -0.266 0.625 -0.32 0.472 -0.128 0.17 -0.173 0.19 -0.23 0.222 -0.309 0.222 -0.338 0.198 -0.122 0.089 -0.119 0.125 -0.03 -0.052 0.026 -0.086 -0.016 -0.064 -0.004 -0.083 0.068 -0.015 0.102 0.053 0.052 -0.036 0.038 -0.035 0.123 -0.022 0.234 -0.217 0.174 -0.08 0.098 -0.137 0.017 -0.073 -0.004 -0.148 0.055 -0.038 0.126 0.013 0.026 -0.042 -0.011 -0.047 0.025 -0.102 0.171 -0.09 0.081 -0.109 -0.027 -0.278 0.031 -0.013 0.07 0.043 0.033 -0.018 0.035 -0.122 -0.017 -0.063 -0.083 -0.017 -0.286 0.138 -0.093 -0.006 -0.015 -0.108 -0.139 -0.05 -0.054 -0.09 -0.016 -0.061 -0.048 -0.025 0.003 0.106 0.013 0.103 0.125 0.12 -0.03 0.048 -0.059 0.056 -0.041 0.124 0.005 0.16 -0.033 -0.049 -0.043 -0.028 -0.017 0.172 -0.083 0.066 -0.026 0.065 0.022 0.075 -0.043 0.052 -0.211 0.139 -0.21 0.095 -0.046 0.045 -0.022 0.106 -0.032 0.109 -0.093 0.096 -0.074 0.191 0.002 0.082 0.024 0.121 0.04 0.079 -0.063 0.053 -0.084 0.103 -0.067 0.116 -0.167 0.436 -0.144 0.263 -0.111 0.129 -0.158 0.136 -0.45 0.34 -0.027 -0.005 -0.066 -0.027 -0.055 -0.033 -0.013 -0.022 -0.006 -0.033 0.004 -0.075 0.006 0.005 0.018 0.004 0.018 -0.01 0.037 -0.015 0.017 -0.059 -0.015 -0.122 0.016 -0.115 0.028 -0.077 0.032 -0.039 0.025 -0.024 0.026 -0.01 0.034 -0.004 0.064 -0.026 0.054 -0.099 0.042 -0.111 0.063 -0.037 0.052 -0.009 0.04 0.024 0.037 0.039 0.044 0.049 0.048 0.007 0.039 -0.01 0.035 -0.031 0.041 -0.064 0.038 -0.055 0.034 -0.059 0.042 -0.059 0.019 -0.053 0.007 -0.046 -0.002 -0.041 -0.032 -0.046 -0.028 -0.06 -0.037 -0.046 0 -0.111 -0.011 -0.033 -0.019 -0.005 -0.024 0.019 -0.035 0.046 -0.013 0.047 -0.012 0.037 -0.006 0.043 -0.067 0.041 -0.082 0.036 -0.032 0.066 -0.038 0.064 -0.062 0.022 -0.047 0.029 -0.03 0.023 -0.063 -0.046 -0.131 -0.044 -0.127 -0.078 -0.112 -0.1 -0.052 -0.104 -0.048 -0.112 -0.045 -0.089 -0.015 -0.041 -0.044 -0.017 -0.07 -0.045 -0.044 -0.042 -0.065 -0.024 -0.115 -0.027 -0.12 -0.046 -0.149 -0.11 -0.108 -0.122 -0.053 -0.081 -0.057 -0.057 -0.308 -0.094 -0.14 -0.112 -0.055 0.035 -0.082 -0.034 -0.081 -0.054 -0.024 -0.041 -0.034 -0.042 -0.032 -0.049 -0.021 -0.047 -0.083 -0.082 -0.108 -0.088 -0.046 -0.025 -0.024 0.007 -0.023 0.034 -0.015 0.033 -0.041 0.022 -0.05 0.041 -0.051 0.05 -0.066 0.033 -0.078 0.011 -0.053 -0.002 -0.011 -0.02 -0.003 -0.068 0.019 -0.155 -0.046 -0.06 -0.061 -0.064 -0.07 -0.085 -0.231 -0.181 -0.314 -0.261 -0.111 -0.08 -0.105 -0.006 -0.095 0.009 -0.088 0.034 -0.066 0.12 -0.028 0.019 -0.169 -0.003 -0.168 -0.019 -0.057 -0.073 0.045 -0.048 0.159 -0.106 0.088 -0.094 0.017 -0.083 0.076 -0.074 0.135 -0.066 0.151 -0.121 0.166 -0.177 0.101 -0.131 0.036 -0.084 0.065 -0.065 0.095 -0.046 0.083 -0.095 0.071 -0.145 0.097 -0.115 0.123 -0.085 0.069 -0.071 0.015 -0.056 0.035 -0.036 0.055 -0.016 0.027 -0.03 -0.002 -0.044 0.015 -0.03 0.032 -0.016 0.053 0.006 0.074 0.027 0.045 -0.005 0.015 -0.037 -0.02 -0.042 -0.054 -0.047 0.021 -0.051 0.143 -0.083 0.106 -0.032 0.067 -0.052 0.063 -0.082 0.103 -0.057 0.142 -0.032 0.038 -0.031 -0.005 -0.04 0.029 -0.029 0.084 -0.021 0.046 -0.039 0.007 -0.057 0.027 -0.053 0.047 -0.049 0.052 -0.018 0.057 0.012 0.054 -0.018 0.05 -0.049 0.06 -0.023 0.071 0.003 0.036 -0.011 0.121 -0.023 0.067 -0.042 0.055 -0.092 0.049 -0.036 0.043 0.021 0.074 -0.031 0.105 -0.083 0.02 -0.002 0.077 -0.038 0.08 -0.143 0.041 -0.096 -0.01 -0.078 -0.026 -0.056 0.009 -0.082 0.026 -0.223 0.007 -0.091 0.042 -0.064 -0.003 -0.063 -0.076 -0.141 -0.076 -0.124 -0.041 -0.211 -0.027 -0.08 -0.064 -0.021 -0.058 -0.07 -0.073 -0.006 -0.034 -0.027 -0.035 -0.022 -0.052 0.007 -0.044 0.041 -0.082 0.001 -0.051 0.017 -0.061 0.036 -0.058 -0.017 -0.036 -0.032 -0.078 0 0.005 -0.143 0.137 -0.213 0.037 -0.099 -0.018 -0.056 0.041 -0.198 0.1 -0.339 0.032 -0.222 -0.036 -0.105 -0.001 -0.073 0.051 -0.062 0.025 -0.019 -0.129 -0.076 -0.069 -0.069 -0.089 -0.05 -0.096 -0.04 -0.046 0.017 -0.05 0.023 -0.096 0.036 -0.109 0.063 -0.056 0.023 -0.099 0.023 -0.112 0.02 -0.093 -0.013 -0.079 -0.013 -0.05 -0.04 -0.026 -0.086 0 -0.073 -0.017 -0.106 -0.06 -0.059 -0.02 -0.046 -0.003 -0.056 0.007 -0.063 0.017 -0.046 -0.01 -0.056 -0.026 -0.04 0.007 -0.069 -0.013 -0.096 -0.04 -0.06 -0.02 -0.069 0 -0.069 -0.03 -0.069 -0.003 -0.076 0.026 -0.069 0.01 -0.069 -0.03 -0.05 -0.056 -0.03 -0.043 -0.079 -0.007 -0.103 -0.046 -0.056 -0.05 -0.046 -0.056 0 -0.086 -0.026 -0.076 0.003 -0.122 -0.003 -0.056 -0.017 -0.03 -0.036 -0.076 -0.05 -0.043 -0.086 -0.053 -0.017 -0.076 0.026 -0.026 0.033 -0.03 0.046 -0.053 0.053 -0.069 -0.003 -0.073 0.03 -0.069 0.003 -0.093 0.007 -0.093 -0.026 -0.112 -0.03 -0.096 -0.02 -0.093 0.02 -0.063 -0.017 -0.083 -0.01 -0.093 -0.007 -0.073 -0.053 -0.079 -0.03 -0.043 0.01 -0.056 0.033 -0.06 -0.007 -0.076 -0.026 -0.03 -0.063 0.007 -0.04 0.017 -0.04 0.03 -0.056 -0.017 -0.06 0.007 -0.053 0.013 -0.046 0.013 -0.053 -0.01 -0.05 -0.003 -0.053 -0.007 -0.05 -0.01 -0.053 0.04 -0.076 0.033 -0.063 -0.02 -0.053 0.007 -0.036 0.026 -0.06 0.033 -0.073 -0.003 -0.136 -0.03 -0.079 -0.032 -0.021 -0.008 -0.024 0.016 -0.031 -0.017 -0.032 -0.007 -0.033 0.017 -0.029 -0.024 -0.057 -0.047 -0.017 -0.017 -0.017 -0.017 -0.063 -0.013 -0.073 0.007 -0.056 -0.023 -0.05 -0.033 -0.03 -0.033 -0.053 -0.033 -0.04 -0.013 -0.056 -0.022 -0.073 0.066 -0.014 0.026 -0.041 0.046 -0.055 0.061 -0.014 0.073 -0.02 0.027 -0.041 -0.169 -0.147 -0.102 -0.088 0.059 -0.119 0.1 -0.201 0.097 -0.195 0.074 -0.149 0.019 -0.027 0.065 -0.009 -0.012 -0.077 -0.002 -0.05 -0.052 -0.003 0.058 -0.181 0.086 -0.258 0.065 -0.196 0.021 -0.033 0.047 -0.009 0.01 -0.023 -0.056 -0.032 -0.034 -0.061 -0.075 -0.175 -0.119 -0.276 -0.009 -0.099 -0.044 -0.061 -0.073 0.02 -0.086 -0.019 -0.215 -0.15 -0.142 -0.081 -0.048 -0.048 -0.021 -0.154 -0.042 -0.17 -0.018 -0.21 0.008 -0.05 0.12 -0.159 0 -0.081 0.01 -0.07 -0.005 -0.056 -0.03 -0.001 -0.048 0.024 -0.073 0.019 -0.041 0.002 -0.419 -0.015 -0.477 -0.017 -0.397 -0.014 -0.344 -0.012 -0.012 -0.137 -0.019 -0.23 -0.014 -0.163 -0.022 -0.259 -0.138 -0.161 -0.15 -0.175 -0.053 -0.045 0.181 -0.006 0.129 -0.004 -0.026 -0.47 -0.039 -0.048 -0.035 -0.152 -0.024 -0.086 -0.064 -0.07 -0.015 -0.078 0.012 -0.052 0.035 -0.032 0.023 -0.081 -0.017 -0.081 -0.038 -0.076 -0.046 -0.073 -0.089 -0.045 -0.127 -0.081 -0.192 -0.103 -0.162 -0.072 -0.052 0.009 -0.287 0.028 -0.096 0.015 -0.064 -0.016 -0.214 0.001 -0.084 -0.055 -0.071 -0.064 -0.15 -0.164 -0.023 -0.082 -0.058 -0.026 -0.088 0.01 -0.089 -0.011 -0.173 -0.068 -0.162 -0.07 -0.078 0.003 -0.07 -0.044 -0.123 -0.107 -0.057 -0.042 -0.026 -0.055 -0.026 -0.081 -0.049 -0.017 -0.064 0.015 -0.069 0.042 -0.097 -0.028 -0.119 -0.075 -0.077 -0.058 -0.044 -0.028 -0.103 -0.041 -0.1 -0.009 -0.15 0.06 -0.123 -0.025 -0.193 -0.022 -0.165 -0.044 -0.06 -0.114 -0.033 -0.075 -0.098 -0.047 -0.078 -0.057 -0.093 -0.087 -0.046 -0.029 -0.084 -0.024 -0.078 -0.031 -0.009 -0.055 -0.029 -0.073 -0.007 -0.018 -0.053 -0.088 -0.025 -0.006 -0.028 0.017 -0.021 0.013 -0.022 -0.016 -0.004 -0.039 0.014 -0.063 -0.031 -0.066 -0.076 -0.07 -0.04 -0.072 -0.003 -0.074 -0.017 -0.05 -0.03 -0.025 -0.017 -0.044 -0.004 -0.062 0.022 -0.074 0.048 -0.086 -0.01 -0.132 -0.068 -0.178 -0.038 -0.129 -0.007 -0.079 0.01 -0.058 0.041 -0.057 0.082 -0.139 0.015 -0.106 -0.026 -0.12 -0.004 -0.091 0.019 -0.063 -0.029 -0.082 -0.058 -0.078 -0.041 -0.002 -0.055 0.021 -0.067 0.066 -0.078 0.012 -0.07 -0.041 -0.218 0.017 -0.339 0.041 -0.136 0.042 -0.08 0.018 -0.096 0.014 -0.155 0.076 -0.382 0.293 -0.079 0.042 -0.09 0.006 -0.052 0.041 -0.084 0.032 -0.165 0.116 -0.084 0.093 -0.055 0.084 -0.064 0.003 -0.049 -0.023 -0.157 0.012 -0.08 0.029 -0.087 0.082 -0.108 0.148 -0.045 0.042 -0.087 0.044 -0.1 0.036 -0.124 0.054 -0.056 0.004 -0.049 0.01 -0.042 -0.025 -0.014 -0.053 -0.064 -0.033 -0.153 -0.017 -0.227 -0.039 -0.234 -0.008 -0.116 0.004 -0.095 0.002 -0.166 -0.021 -0.121 -0.004 -0.106 0.053 -0.154 0.065 -0.07 0.017 -0.052 0.002 -0.05 -0.008 -0.059 -0.034 -0.082 -0.078 -0.063 0.03 -0.046 0.033 0.001 -0.169 0.001 -0.255 0.001 -0.225 0.001 -0.18 0.001 -0.21 0.001 -0.148 0.043 -0.056 0.027 -0.063 -0.032 -0.084 0.007 -0.077 0.022 -0.054 0.029 -0.052 -0.067 0.026 -0.029 0.015 -0.036 0.04 -0.086 0.054 -0.058 0.054 -0.068 0.044 -0.086 0.097 -0.071 0.053 -0.074 0.034 -0.123 0.114 -0.101 0.023 -0.269 0.017 -0.279 0 -0.256 0 -0.039 -0.001 0.002 -0.094 0.006 -0.066 -0.087 -0.07 -0.006 -0.086 -0.023 -0.059 -0.029 -0.073 -0.061 -0.046 -0.086 -0.018 -0.141 -0.04 -0.209 -0.042 -0.2 -0.003 -0.196 0.004 0.12 -0.146 0.119 -0.146 -0.004 -0.127 -0.096 -0.11 -0.052 -0.069 -0.081 -0.095 -0.099 -0.065 -0.054 -0.087 0.005 -0.053 -0.009 -0.035 -0.038 -0.02 -0.038 -0.032 -0.052 -0.035 -0.061 -0.046 0 -0.046 -0.023 -0.049 -0.038 -0.058 0 -0.046 -0.035 -0.073 -0.038 -0.052 -0.038 -0.035 -0.055 -0.049 0.003 -0.041 0.041 -0.02 0.017 -0.046 -0.006 -0.046 -0.046 -0.029 -0.055 -0.015 -0.073 -0.084 -0.052 -0.044 -0.035 -0.026 -0.02 -0.029 0.02 -0.02 0.023 -0.029 0.006 -0.046 -0.012 -0.044 0 -0.038 0.035 -0.012 0.038 0.006 0.038 -0.023 0.049 -0.009 0.055 -0.006 0.029 -0.026 -0.003 -0.046 -0.035 -0.09 -0.035 -0.038 -0.012 -0.055 0.028 -0.106 0.018 -0.068 0.064 -0.072 0.195 -0.154 0.174 -0.105 0.085 -0.011 0.063 -0.039 0.04 -0.059 0.011 -0.065 -0.009 -0.057 -0.032 -0.084 -0.039 -0.104 -0.029 -0.058 0.026 -0.07 0.046 -0.095 0.095 -0.144 0.088 -0.155 0.01 -0.045 0.011 -0.094 0.041 -0.193 0.022 -0.104 -0.012 -0.041 0.02 -0.035 0.055 -0.029 0.133 -0.027 0.09 -0.058 0.139 -0.108 0.116 -0.115 0.096 -0.037 0.174 -0.107 0.1 -0.068 0.039 -0.021 0.098 -0.049 0.176 -0.017 0.147 -0.018 0.083 -0.032 0.121 -0.013 0.082 -0.036 0.091 -0.001 0.171 -0.037 0.058 -0.055 0.05 -0.066 0.067 -0.056 0.078 -0.014 0.087 0.01 0.104 -0.001 0.126 -0.017 0.061 0.044 0.027 0.053 0.078 0.054 0.055 -0.003 0.055 -0.012 0.075 0.046 0.049 -0.006 0.032 -0.026 0.006 -0.065 0.018 -0.035 0.037 -0.204 0.061 -0.337 0.056 -0.305 0.062 -0.338 0.064 -0.349 0.064 -0.353 0.053 -0.29 0.045 -0.249 0.028 -0.153 0.044 -0.2 0.017 -0.176 0.018 -0.051 -0.011 -0.043 -0.038 -0.061 0 -0.027 0.004 -0.035 -0.004 -0.031 -0.04 -0.033 -0.031 -0.02 -0.024 -0.029 -0.011 -0.04 -0.02 -0.04 -0.009 -0.042 -0.029 -0.033 -0.009 -0.042 0.02 -0.04 0.009 -0.042 -0.009 -0.04 -0.011 -0.046 -0.022 -0.044 -0.033 -0.027 -0.08 -0.03 -0.08 -0.071 -0.095 -0.064 -0.121 -0.121 -0.026 -0.057 0 -0.157 0.005 -0.171 0.008 -0.258 0.004 -0.131 0.068 -0.007 0.06 -0.004 0.063 -0.009 0.055 -0.009 0.05 -0.019 0.038 -0.023 0.045 -0.015 0.035 0.005 0.035 -0.021 0.039 -0.02 0.038 -0.016 0.055 -0.014 0.051 0.032 0.029 0.031 0.033 0.015 0.031 -0.004 0.022 0.003 0.023 0.025 0.029 0.002 0.041 -0.004 0.039 -0.005 0.018 -0.007 0.003 -0.016 -0.01 -0.028 -0.014 -0.026 0.011 -0.04 0.001 -0.049 0.002 -0.062 -0.031 -0.034 -0.031 -0.065 -0.034 -0.052 -0.053 -0.035 -0.05 -0.014 -0.041 0.022 -0.039 0.004 -0.029 -0.02 -0.047 -0.001 -0.05 -0.006 -0.053 -0.007 -0.096 0.014 -0.034 -0.018 -0.047 -0.002 -0.054 0.019 0.001 -0.249 0.001 -0.235 0.001 -0.165 0.049 0.004 0.06 -0.03 0.09 -0.005 0.069 -0.031 0.038 -0.002 0.073 0.015 0.076 0.032 0.075 0.005 0.195 0 0.211 0 0.235 0 0.235 0 0.204 0 0.063 0.002 -0.037 -0.055 -0.043 -0.071 0.017 -0.056 0.021 -0.056 0.025 -0.029 0.064 0.031 0.053 0.096 0.044 0.072 0.043 0.035 0.054 0.004 0.061 -0.012 0.06 -0.029 0.103 -0.132 0.103 -0.113 0.053 -0.038 0.056 -0.035 0.042 -0.013 0.057 0.004 0.048 0.031 0.031 0.054 0.115 0.187 0.087 0.141 0.029 0.088 0.002 0.215 -0.005 0.191 0.011 0.025 0.017 0.007 z M -49.629 0.229 l 0.093 0.004 0.132 -0.019 0.089 -0.047 0.099 -0.009 0.098 0.005 0.33 0.052 0.199 0.016 0.073 0.017 0.071 0.024 0.052 0.025 0.013 0.055 -0.048 0.089 -0.036 0.093 -0.033 0.13 -0.026 0.026 -0.043 -0.007 0.027 0.117 -0.01 0.047 -0.021 0.045 -0.053 0.094 -0.081 0.12 -0.024 0.025 -0.061 0.042 -0.05 0.053 0.011 0.05 0.025 0.05 -0.03 0.063 -0.095 0.092 -0.057 0.022 -0.053 0.009 -0.048 -0.009 -0.086 -0.092 -0.009 0.072 -0.023 0.074 -0.029 0.041 -0.111 -0.004 -0.062 -0.04 -0.1 -0.044 -0.019 0.119 -0.062 0.082 -0.063 0.026 -0.098 0.017 -0.056 0.035 -0.106 -0.027 -0.099 -0.054 -0.056 -0.005 -0.044 0.044 -0.229 0.008 -0.105 0.045 -0.064 -0.013 -0.094 -0.09 -0.015 -0.06 -0.056 -0.122 -0.05 -0.145 -0.036 -0.131 0.03 -0.113 0.061 0.004 0.072 0.017 0.015 -0.008 0.004 -0.036 -0.016 -0.03 -0.117 0.005 -0.074 -0.067 -0.013 -0.104 0.015 -0.216 0.01 -0.044 0.051 -0.062 0.017 -0.055 -0.013 -0.058 0.022 -0.106 0.048 -0.092 0.184 -0.115 0.213 -0.041 z M -44.129 23.142 l 0.031 0.027 -0.058 -0.003 -0.065 0.024 -0.1 0.021 -0.04 -0.04 0.086 -0.056 0.031 -0.042 0.022 0.009 0.029 0.03 z M -48.584 26.402 l -0.019 0.012 -0.063 -0.124 0.126 -0.119 0.042 0.048 -0.033 0.094 -0.037 0.067 z M -45.26 23.889 l -0.001 0.052 -0.042 -0.027 -0.11 0.02 -0.039 -0.039 0.149 -0.168 0.03 0.024 0.023 0.031 0.016 0.043 -0.017 0.028 z M -44.499 2.94 l -0.098 0.098 0.032 -0.114 -0.017 -0.078 0.013 -0.061 0.067 -0.059 0.021 -0.009 -0.006 0.072 0.005 0.022 z M -38.744 13.097 l -0.039 0.022 -0.004 -0.064 0.102 -0.08 0.017 -0.095 0.054 0.044 0.014 0.048 -0.001 0.02 z M -38.904 13.473 l -0.034 0.059 -0.04 -0.009 -0.016 -0.039 -0.029 -0.038 0.016 -0.03 0.026 -0.017 0.073 0.003 z M -44.883 1.318 l -0.064 0.048 -0.021 0.025 -0.053 -0.018 0.01 -0.028 0.016 0.003 0.017 -0.08 0.09 0.01 z M -49.738 -0.268 l 0.041 0.052 -0.142 0.209 -0.078 0.03 -0.085 0.006 -0.111 -0.062 -0.172 0.004 -0.054 -0.015 -0.006 -0.091 0.072 -0.097 0.145 0.005 0.249 -0.078 z M -50.299 -1.939 l -0.1 0.046 -0.057 -0.018 -0.053 -0.119 0.018 -0.099 0.072 -0.033 0.056 0.007 0.021 0.013 0.05 0.162 z M -50.653 0.132 l -0.273 0.196 -0.093 -0.064 -0.019 -0.037 0.016 -0.037 -0.003 -0.016 0.031 -0.067 0.153 -0.055 0.077 -0.009 0.098 0.017 0.016 0.048 z M -49.444 0.112 l -0.265 0.031 -0.121 -0.05 0.027 -0.042 0.09 -0.067 0.11 -0.048 0.099 -0.021 0.103 0.026 0.028 0.056 -0.009 0.057 z M -50.426 -0.139 l -0.018 0.147 -0.18 -0.062 0.013 -0.15 0.084 -0.042 0.075 -0.08 0.025 -0.098 0.002 -0.133 0.028 -0.023 0.024 -0.009 0.022 0.009 0.008 0.2 0.01 0.123 z M -50.153 -0.393 l -0.108 0.034 -0.02 -0.032 0 -0.126 0.031 -0.069 0.138 -0.019 0.014 -0.02 0.04 -0.013 0.022 0.043 -0.003 0.072 z M -51.833 1.434 l -0.106 0.019 0.136 -0.25 0.122 -0.116 0.002 -0.231 0.132 -0.205 0.122 -0.084 0.17 -0.025 0.093 0.125 -0.116 0.355 -0.034 0.002 -0.155 0.187 -0.173 0.131 z M -48.486 27.767 l -0.069 0.045 0.012 -0.237 0.037 -0.079 0.04 -0.059 0.05 -0.037 0.037 0.052 -0.032 0.115 -0.087 0.141 z" vector-effect="non-scaling-stroke" fill="#000" fill-opacity="1" stroke="#FFF" stroke-width="0px" stroke-linejoin="round" stroke-linecap="round"/></svg>
