<svg xmlns="http://www.w3.org/2000/svg" xmlns:xlink="http://www.w3.org/1999/xlink" height="400" width="400" viewBox="114.0638671875 -5.02236328124999 1.26289062500001 0.998388671875006"><path d="M 115.14 -4.9 l 0.028 0.033 0.059 0.116 0.039 0.117 0.013 0.178 0.047 0.076 -0.008 0.015 -0.029 0.013 -0.044 0.005 -0.076 -0.017 -0.064 -0.026 -0.055 -0.192 -0.025 -0.109 0.002 -0.13 -0.002 -0.079 z M 115.027 -4.9 l -0.082 0.043 -0.08 0.054 -0.08 0.047 -0.037 0.037 0.013 0.052 0.019 0.113 0.011 0.089 0.028 0.035 0.022 0.036 -0.009 0.039 -0.048 0.074 0.027 0.014 -0.034 0.098 -0.051 0.072 -0.071 0.059 -0.046 0.014 -0.037 -0.025 -0.06 -0.065 -0.065 -0.09 -0.03 -0.052 -0.094 -0.007 -0.033 -0.041 -0.002 -0.051 -0.027 -0.06 -0.037 -0.064 -0.055 -0.049 -0.074 -0.038 -0.031 -0.027 0.114 0.002 0.121 -0.016 0.125 -0.053 0.12 -0.064 0.101 -0.074 0.095 -0.083 0.1 -0.065 0.155 -0.076 0.052 0.006 -0.001 0.054 z" vector-effect="non-scaling-stroke" fill="#000" fill-opacity="1" stroke="#FFF" stroke-width="0px" stroke-linejoin="round" stroke-linecap="round"/></svg>
