<svg xmlns="http://www.w3.org/2000/svg" xmlns:xlink="http://www.w3.org/1999/xlink" height="400" width="400" viewBox="22.34404296875 -44.23779296875 6.24130859375001 2.99423828125001"><path d="M 28.014 -41.969 l -0.135 -0.018 -0.047 0.005 -0.03 0.025 -0.063 -0.005 -0.078 0 -0.081 0.028 -0.045 0.012 -0.06 -0.026 -0.112 -0.078 -0.068 -0.054 -0.051 -0.014 -0.051 0.016 -0.182 0.018 -0.043 0.032 -0.084 0.035 -0.084 0.017 -0.121 0.012 -0.064 -0.002 -0.036 0.017 -0.03 0.051 -0.02 0.05 -0.018 0.02 -0.151 0.025 -0.033 0.029 -0.009 0.028 0.003 0.028 -0.12 -0.027 -0.093 0.018 -0.022 0.022 -0.02 0.031 0.011 0.033 0.034 0.032 0.032 0.087 0.012 0.087 -0.02 0.049 -0.069 0.035 -0.143 0.039 -0.138 -0.019 -0.061 0.015 -0.102 0.005 -0.094 0.01 -0.145 0.035 -0.131 0.021 -0.118 -0.072 -0.14 -0.049 -0.147 -0.029 -0.051 0.021 -0.022 0.017 -0.123 -0.064 -0.055 -0.023 -0.027 -0.025 -0.051 -0.085 -0.03 -0.003 -0.101 0.032 -0.097 -0.002 -0.059 -0.006 -0.174 0.004 -0.023 0.058 -0.022 0.009 -0.038 0.008 -0.093 -0.004 -0.119 0.043 -0.127 0.026 -0.099 0.001 -0.102 -0.013 -0.061 0.009 -0.132 0.005 -0.084 0.063 -0.13 -0.004 -0.11 -0.011 0.014 -0.02 0.022 -0.25 0.054 -0.111 -0.002 -0.023 -0.012 -0.017 -0.048 -0.018 -0.035 -0.06 -0.072 -0.158 -0.041 -0.032 -0.114 -0.033 -0.1 -0.046 -0.084 -0.06 -0.154 -0.149 0.078 -0.015 0.024 -0.03 0.078 -0.082 0.009 -0.04 -0.008 -0.023 -0.052 -0.039 -0.036 -0.086 0.027 -0.08 0.002 -0.041 -0.026 -0.041 0.028 -0.051 0.056 -0.028 0.035 -0.008 0.148 -0.005 0.094 -0.102 0.057 -0.033 0.058 -0.058 0.027 -0.021 0.026 -0.045 0.009 -0.046 -0.117 -0.064 -0.04 -0.048 -0.052 -0.053 -0.071 -0.037 -0.142 -0.063 -0.055 -0.064 -0.025 -0.083 -0.038 -0.063 -0.042 -0.041 -0.008 -0.033 -0.017 -0.041 -0.004 -0.081 0.034 -0.107 0.022 -0.038 0.048 -0.011 0.128 -0.057 0.006 -0.073 0.023 -0.046 0.041 -0.026 0.038 -0.018 0.07 0.043 0.17 0.068 0.083 0.049 -0.004 0.031 -0.039 0.03 -0.074 0.03 -0.043 0.039 -0.012 0.049 0.011 0.034 0.051 0.03 0.306 -0.039 0.31 0.02 0.416 0.067 0.276 0.023 0.204 -0.031 0.378 0.056 0.351 0.052 0.337 0.016 0.189 -0.041 0.133 -0.055 0.115 -0.104 0.282 -0.137 0.273 -0.077 0.358 -0.062 0.239 -0.021 0.034 0.021 0.305 0.126 0.136 0 0.11 0.022 0.04 0.033 0.028 0.008 0.146 -0.031 0.065 0.069 0.101 0.096 0.172 0.05 0.153 0.028 0.048 0.004 0.162 -0.002 -0.024 0.241 -0.096 0.112 -0.146 -0.038 -0.186 0.031 -0.099 0.127 -0.056 0.038 -0.05 0.044 -0.032 0.165 -0.008 0.271 -0.071 0.033 -0.065 0.01 -0.269 0.238 0.155 0.067 0.069 0.051 0.113 0.142 0.161 0.161 z" vector-effect="non-scaling-stroke" fill="#000" fill-opacity="1" stroke="#FFF" stroke-width="0px" stroke-linejoin="round" stroke-linecap="round"/></svg>
