<svg xmlns="http://www.w3.org/2000/svg" xmlns:xlink="http://www.w3.org/1999/xlink" height="400" width="400" viewBox="-5.52353515624998 -15.077880859375 7.91269531249998 5.65317382812501"><path d="M 0.9 -10.993 l -0.258 0.01 -0.094 0.028 -0.056 0 -0.002 -0.023 -0.007 -0.014 -0.325 -0.078 -0.228 -0.046 -0.231 -0.051 -0.013 0.048 -0.033 0.031 -0.05 0.002 -0.035 -0.008 -0.023 0.037 -0.038 0.049 -0.054 0.024 -0.052 0.03 -0.029 0.026 -0.021 0.001 -0.053 -0.062 -0.07 -0.006 -0.131 0.011 -0.059 -0.017 -0.081 -0.008 -0.19 0.013 -0.304 -0.025 -0.05 0.014 -0.013 0.011 -0.301 0.003 -0.331 0.003 -0.277 0.003 -0.242 0.002 0 -0.011 -0.078 -0.001 -0.009 0.021 -0.069 0.25 -0.008 0.136 0.036 0.084 0.041 0.053 0.046 0.022 0.005 0.031 -0.037 0.039 0.003 0.04 0.043 0.041 0.011 0.043 -0.022 0.046 0.005 0.109 0.032 0.173 0.001 0.112 -0.031 0.051 0.015 0.088 0.06 0.124 0.01 0.053 -0.021 0.024 -0.049 0.032 -0.05 -0.001 -0.058 -0.075 -0.026 -0.034 -0.047 -0.076 -0.04 -0.077 -0.054 -0.034 -0.053 -0.031 -0.065 -0.097 -0.063 -0.046 -0.066 0.013 -0.097 -0.018 -0.195 -0.024 -0.209 0.007 -0.087 0.022 -0.086 0.035 -0.218 0.078 -0.086 0.038 -0.065 0.098 -0.074 -0.002 -0.074 -0.031 -0.046 -0.044 -0.099 0.01 -0.096 -0.043 -0.093 -0.085 -0.068 -0.028 -0.087 -0.061 -0.024 -0.116 -0.055 -0.082 -0.051 -0.113 -0.075 -0.051 -0.087 -0.027 -0.12 0.006 -0.079 -0.046 -0.062 -0.066 0.017 -0.057 0.028 -0.082 0.003 -0.079 0.019 -0.127 -0.011 -0.16 -0.022 -0.111 0.066 -0.046 0.077 -0.042 0.048 -0.076 0.05 -0.17 0.021 -0.147 -0.015 -0.054 -0.026 -0.043 -0.02 -0.063 -0.011 -0.077 0.014 -0.067 0.058 -0.062 0.073 -0.052 0.052 -0.025 0.137 -0.026 0.171 -0.039 0.099 -0.044 0.072 -0.044 0.04 -0.035 0.041 -0.071 0.066 -0.055 0.051 -0.056 0.007 -0.155 0 -0.089 -0.038 -0.049 -0.021 -0.042 0.254 -0.121 0.002 -0.086 -0.035 -0.096 -0.05 -0.077 -0.018 -0.067 0.07 -0.078 0.063 -0.059 0.045 -0.05 0.1 -0.076 0.104 -0.02 0.094 0.029 0.278 0.179 0.048 0.011 0.058 -0.014 0.073 -0.047 0.095 -0.037 0.035 -0.12 -0.003 -0.177 0.022 -0.081 0.05 -0.015 0.16 0.034 0.041 0.002 0.046 -0.011 0.034 -0.031 -0.001 -0.057 -0.007 -0.05 0.052 -0.164 0.095 -0.123 0.192 -0.154 0.06 -0.031 0.07 -0.016 0.344 0.106 0.056 -0.026 0.084 -0.262 0.093 -0.025 0.112 -0.005 0.073 -0.022 0.038 -0.018 0.164 -0.099 0.289 -0.135 0.155 -0.058 0.03 -0.022 0.111 -0.096 0.148 -0.11 0.094 -0.022 0.13 -0.008 0.082 0.018 0.022 0.031 0.027 0.016 0.17 -0.047 0.243 0.075 0.21 0.073 -0.014 0.046 -0.001 0.082 -0.018 0.13 -0.021 0.156 0.087 0.101 0.104 0.108 0.028 0.042 -0.028 0.107 0.019 0.063 0.055 0.104 0.093 0.132 0.096 0.136 0.066 0.018 0.063 0.011 0.038 0.024 0.056 0.024 0.056 0.015 0.049 0.03 0.031 0.029 0.04 0.084 0.108 0.056 0.075 0.055 -0.03 0.028 -0.094 -0.011 -0.088 -0.024 -0.012 0.04 -0.004 0.154 0.014 0.128 0.021 0.017 0.089 0.024 0.212 0.167 0.192 0.158 0.064 0.041 0.106 0.016 0.119 0.007 0.051 -0.015 0.115 -0.08 0.061 -0.009 0.056 0.002 0.031 0.013 0.055 0.065 0.052 0.098 0.015 0.072 -0.005 0.039 -0.018 0.015 -0.094 0.019 -0.041 0.015 -0.01 0.021 0.015 0.049 0.018 0.031 0.103 0.142 0.149 0.19 0.046 0.049 -0.026 0.057 -0.076 0.149 -0.056 0.062 -0.25 0.211 -0.123 -0.025 -0.258 0.043 -0.039 -0.048 -0.06 -0.006 -0.075 0.008 -0.027 0.018 -0.008 0.021 -0.027 0.029 -0.047 0.084 -0.037 0.021 -0.046 0.013 -0.056 -0.002 -0.033 0.011 0 0.042 -0.01 0.036 -0.038 0.018 -0.016 0.04 0.003 0.04 -0.022 0.018 -0.048 -0.01 -0.029 -0.011 -0.027 0.051 -0.033 0.035 z" vector-effect="non-scaling-stroke" fill="#000" fill-opacity="1" stroke="#FFF" stroke-width="0px" stroke-linejoin="round" stroke-linecap="round"/></svg>
