<svg xmlns="http://www.w3.org/2000/svg" xmlns:xlink="http://www.w3.org/1999/xlink" height="400" width="400" viewBox="29.01416015625 2.31298828125 1.79726562500002 2.14287109375"><path d="M 30.554 2.4 l -0.02 0.026 -0.092 0.187 -0.018 0.028 0.01 0.017 0.039 0.035 -0.023 0.059 -0.009 0.016 -0.017 0.055 0.009 0.05 0.022 0.019 0.059 0.024 0.089 0.018 0.105 0.042 0.071 0.008 0.017 0.03 -0.003 0.054 0.018 0.047 0 0.084 -0.021 0.074 -0.108 0.035 -0.056 0.038 -0.015 0.019 0.014 0.022 0.007 0.03 -0.102 0.074 -0.105 0.096 -0.025 0.065 -0.021 0.077 -0.031 0.049 -0.08 0.071 -0.081 0.142 -0.04 0.092 -0.2 0.222 -0.178 0.111 -0.052 0.038 -0.071 -0.001 0.006 -0.034 -0.023 -0.054 -0.05 -0.066 -0.056 -0.096 -0.09 -0.202 0.001 -0.024 -0.07 -0.121 -0.018 -0.062 -0.011 -0.131 -0.004 -0.2 0.001 -0.072 -0.033 -0.035 -0.088 -0.014 0.002 -0.06 0.014 -0.143 -0.002 -0.085 -0.071 -0.098 -0.088 -0.104 -0.048 -0.051 -0.002 -0.041 0 -0.038 0.014 -0.056 0.035 -0.062 0.039 -0.007 0.096 0.025 0.1 0.053 0.053 0.118 0.04 0.017 0.073 0 0.188 -0.016 0.047 0.002 0.085 -0.028 0.085 -0.05 0.024 -0.052 0.02 -0.116 0.018 -0.209 0.043 -0.002 0.118 0.074 0.025 0.005 0.025 -0.003 0.041 -0.037 0.05 -0.03 0.037 0.001 0.138 -0.035 0.074 0.063 0.047 0.02 z" vector-effect="non-scaling-stroke" fill="#000" fill-opacity="1" stroke="#FFF" stroke-width="0px" stroke-linejoin="round" stroke-linecap="round"/></svg>
