<svg xmlns="http://www.w3.org/2000/svg" xmlns:xlink="http://www.w3.org/1999/xlink" height="400" width="400" viewBox="-25.341552734375 -17.19365234375 2.65966796875 2.37543945312501"><path d="M -25.17 -16.946 l -0.097 0.021 -0.041 -0.01 -0.014 -0.08 -0.02 -0.052 0.004 -0.023 0.224 -0.103 0.079 0.017 0.055 0.082 -0.037 0.045 z M -23.444 -15.008 l -0.06 0.092 -0.133 -0.007 -0.068 -0.038 -0.08 -0.116 0.002 -0.089 0.028 -0.077 -0.005 -0.067 0.011 -0.018 0.041 0.012 0.007 0.045 0.121 0.111 0.045 0.022 z M -24.887 -16.818 l -0.082 0.024 -0.051 -0.003 -0.073 -0.035 0.023 -0.038 0.079 -0.043 0.055 -0.009 0.045 0.076 z M -22.918 -16.237 l 0.083 0.018 0.032 -0.007 0.053 0.004 0.057 0.052 0.011 0.056 -0.028 0.07 -0.11 0.057 -0.064 -0.007 -0.075 -0.052 0.043 -0.103 z M -24.308 -14.856 l -0.078 0.038 -0.054 -0.017 -0.052 -0.039 -0.025 -0.057 0.02 -0.049 0.105 -0.058 0.063 0.019 0.034 0.09 z M -24.088 -16.623 l 0.041 0.029 0.014 0.021 -0.061 0.011 -0.149 -0.038 -0.04 0.023 -0.04 0.083 -0.076 -0.125 0.005 -0.046 0.016 -0.013 0.106 0.033 z M -22.888 -16.659 l -0.032 0.051 -0.039 -0.075 -0.021 -0.018 -0.01 -0.108 0.058 -0.032 0.028 -0.003 0.001 0.112 z M -23.182 -15.137 l -0.028 0.004 -0.042 -0.045 0.009 -0.062 -0.005 -0.016 0.037 -0.067 0.073 0.006 0.018 0.049 0.003 0.102 z" vector-effect="non-scaling-stroke" fill="#000" fill-opacity="1" stroke="#FFF" stroke-width="0px" stroke-linejoin="round" stroke-linecap="round"/></svg>
