<svg xmlns="http://www.w3.org/2000/svg" xmlns:xlink="http://www.w3.org/1999/xlink" height="400" width="400" viewBox="102.3197265625 -14.705078125 5.28574218749998 4.29384765625001"><path d="M 103.045 -11.285 l -0.018 0.01 -0.017 0 -0.017 -0.015 0.002 -0.058 0.012 -0.035 0.029 -0.007 z M 103.318 -10.719 l -0.037 0.039 -0.058 -0.08 0 -0.022 z M 107.519 -14.705 l 0.016 0.055 -0.042 0.104 -0.045 0.095 -0.084 0.083 -0.004 0.061 -0.029 0.181 0.011 0.058 0.02 0.049 0.027 0.026 0.073 0.177 0.066 0.161 0.065 0.133 0.012 0.084 -0.06 0.212 -0.07 0.195 0.006 0.097 0.03 0.097 0.032 0.13 0.012 0.166 -0.017 0.108 -0.032 0.067 -0.06 0.069 -0.053 0.035 -0.063 -0.059 -0.05 -0.003 -0.068 0.018 -0.053 0.027 -0.108 0.101 -0.12 0.098 -0.166 0.025 -0.065 0.073 -0.069 0.01 -0.131 0.004 -0.086 0.017 0.004 0.037 -0.007 0.173 0.002 0.041 -0.013 0.011 -0.059 0.005 -0.101 -0.027 -0.136 -0.043 -0.097 -0.007 -0.05 0.076 -0.03 0.03 -0.037 0.005 -0.038 0.013 -0.013 0.034 -0.003 0.042 0.019 0.072 0.007 0.115 -0.005 0.078 0.036 0.049 0.208 0.166 0.061 0.042 0.007 0.025 -0.036 0.09 0.032 0.127 -0.065 -0.002 -0.109 -0.055 -0.052 -0.033 -0.063 0.027 -0.022 -0.005 -0.043 -0.063 -0.056 -0.064 -0.057 -0.004 -0.121 0.025 -0.124 0.017 -0.047 0 -0.019 0.012 -0.072 0.095 -0.03 -0.016 -0.125 -0.036 -0.114 -0.014 -0.023 0.025 0.014 0.077 0.025 0.076 -0.015 0.032 -0.063 0.04 -0.083 0.072 -0.051 0.056 -0.035 0.014 -0.126 -0.002 -0.125 0.007 -0.05 0.053 -0.047 0.041 -0.041 0.011 -0.164 -0.13 -0.325 -0.045 -0.035 -0.057 -0.031 -0.011 -0.03 0.075 -0.179 0.072 -0.075 -0.043 -0.055 -0.052 0.008 -0.064 0.052 -0.052 0.089 -0.038 0.041 -0.132 -0.068 -0.169 -0.059 -0.049 -0.063 -0.039 -0.066 0.063 -0.055 0.107 -0.058 0.055 -0.081 0.012 -0.119 -0.004 -0.046 -0.16 -0.015 -0.137 0.016 -0.157 0.018 -0.093 -0.115 -0.128 -0.006 -0.122 -0.056 -0.063 -0.016 0.032 0.002 0.035 -0.016 -0.025 -0.181 -0.358 -0.03 -0.166 0.031 -0.128 0.018 -0.043 -0.052 -0.067 -0.074 -0.076 -0.13 -0.1 -0.009 -0.158 -0.029 -0.187 -0.039 -0.063 -0.06 -0.115 -0.032 -0.095 -0.011 -0.252 0.017 -0.02 0.092 -0.007 0.118 -0.018 0.019 -0.041 -0.021 -0.034 0.076 -0.057 0.108 -0.125 0.084 -0.131 0.06 -0.082 0.036 -0.082 0.122 -0.116 0.168 -0.08 0.114 -0.019 0.119 -0.027 0.114 -0.039 0.054 -0.004 0.142 0.047 0.076 0.012 0.08 -0.001 0.083 0.005 0.072 -0.005 0.173 -0.033 0.184 0.026 0.164 -0.02 0.203 -0.038 0.1 0.024 0.091 0.038 0.013 0.077 0.021 0.035 0.03 0.027 0.04 0 0.052 -0.054 0.043 -0.055 0.014 -0.01 0.002 0.027 0.021 0.06 0.039 0.059 0.039 0.039 0.065 0.052 0.042 0.002 0.139 -0.049 0.208 0.071 0.024 0.036 0.067 0.072 0.073 0.052 0.162 0.003 0.058 -0.128 -0.028 -0.078 -0.093 -0.136 -0.025 -0.08 0.029 -0.014 0.157 -0.015 0.025 -0.016 0.035 -0.088 0.043 0.01 0.087 0.011 0.092 -0.06 0.054 -0.063 0.03 0.029 0.033 0.044 0.036 0.026 0.066 0.038 0.073 0.054 0.045 0.053 0.036 0.02 0.093 -0.015 0.025 0.002 0.054 -0.064 0.038 -0.035 0.032 0.01 0.047 -0.001 0.097 -0.081 0.056 -0.074 0.03 -0.02 0.087 0.037 0.035 -0.008 0.05 -0.102 z" vector-effect="non-scaling-stroke" fill="#000" fill-opacity="1" stroke="#FFF" stroke-width="0px" stroke-linejoin="round" stroke-linecap="round"/></svg>
