<svg xmlns="http://www.w3.org/2000/svg" xmlns:xlink="http://www.w3.org/1999/xlink" height="400" width="400" viewBox="8.53281250000001 -13.078515625 7.65058593750001 11.402294921875"><path d="M 8.556 -4.755 l 0.029 -0.078 0.055 -0.094 0.075 -0.12 0.085 -0.151 0.058 -0.266 0.04 -0.166 0.036 -0.151 0.062 -0.137 0.063 -0.091 0.179 -0.177 0.135 -0.133 0.069 -0.054 0.048 -0.045 0.084 -0.052 0.086 -0.062 0.066 -0.118 0.054 -0.11 0.041 -0.024 0.054 -0.019 0.165 -0.118 0.105 -0.075 0.024 0.037 0.018 0.046 0.02 0.021 0.088 0.015 0.12 -0.001 0.069 -0.014 0.037 -0.039 0.037 -0.107 0.022 -0.02 0.028 -0.005 0.131 0.075 0.109 0.106 0.108 0.105 0.054 0.037 0.024 0.041 0.047 0.192 0.027 0.048 0.047 0.02 0.084 -0.013 0.087 -0.034 0.077 -0.049 0.076 -0.063 0.052 -0.058 0.023 -0.042 0.011 -0.157 0.017 -0.034 0.077 -0.063 0.129 -0.105 0.074 -0.06 -0.007 -0.022 -0.046 -0.064 -0.041 -0.07 0.042 -0.073 0.043 -0.056 0.164 -0.189 0.001 -0.062 0.009 -0.076 0.131 -0.215 0.075 -0.285 0.002 -0.055 0.078 -0.137 0.092 -0.176 0.179 -0.029 0.069 -0.044 0.08 -0.078 0.051 -0.072 0.024 -0.069 0.018 -0.133 0.032 -0.151 0.02 -0.133 0.054 -0.123 0.09 -0.062 0.156 -0.051 0.023 -0.024 0.022 -0.081 0.018 -0.169 0.005 -0.102 0.006 -0.044 0.02 -0.076 0.145 -0.135 0.064 -0.212 0.057 -0.222 0.165 -0.268 0.192 -0.267 0.089 -0.072 0.075 -0.033 0.087 -0.004 0.059 -0.02 0.207 -0.133 0.087 -0.045 0.064 -0.046 0.016 -0.04 0.006 -0.059 -0.02 -0.138 0.036 -0.101 0.021 -0.157 0.009 -0.122 -0.007 -0.042 -0.033 -0.058 -0.006 -0.013 -0.062 -0.076 -0.104 -0.046 -0.143 -0.012 -0.075 -0.027 -0.013 -0.063 -0.007 -0.037 -0.007 -0.04 -0.01 -0.089 -0.096 -0.466 0.181 0.001 0.217 0.056 0.054 0.042 0.029 0.16 0.079 0.09 0.138 0.074 0.086 0.154 0.034 0.233 0.076 0.139 0.017 0.022 0.086 0.201 0.021 0.062 0.006 0.121 -0.01 0.082 0.044 0.101 -0.067 0.173 -0.02 0.106 -0.006 0.149 0.039 0.263 0.064 0.203 0.069 0.164 0.075 0.127 0.124 0.14 0.132 0.128 0.123 0.081 -0.114 0.048 -0.221 0.006 -0.127 -0.027 -0.06 -0.001 -0.061 0.017 -0.236 0.024 -0.238 -0.011 -0.221 -0.032 -0.134 0.005 -0.104 0.078 -0.084 0.117 -0.079 0.093 0.028 0.103 0.059 0.057 0.114 0.125 0.102 0.121 0.052 0.082 0.204 0.178 0.197 0.16 0.038 0.027 0.055 0.029 0.034 0.012 0.107 0.091 0.148 0.15 0.136 0.235 0.097 0.239 0.094 0.232 0.042 0.039 0.065 0.025 0.008 0.05 -0.005 0.074 -0.02 0.06 -0.052 0.081 -0.101 0.166 -0.133 0.095 -0.039 0.057 -0.021 0.071 -0.029 0.071 -0.071 0.154 -0.052 0.125 -0.052 0.039 -0.121 0.19 -0.082 0.19 -0.016 0.049 -0.025 0.037 -0.04 0.03 -0.14 0.059 -0.047 0.029 -0.037 0.035 -0.034 0.04 -0.01 0.048 0.033 0.068 0.039 0.054 0.039 0.003 0.035 -0.002 0.022 0.032 0.018 0.019 0 0.37 -0.033 0.056 0.001 0.025 -0.016 0.064 -0.005 0.071 0.011 0.028 0.028 0.023 0.039 0.05 0.021 0.114 0.047 0.4 0.022 0.063 0.039 0.044 0.123 0.086 0.129 0.113 0.041 0.074 0.024 0.121 0.049 0.095 -0.001 0.032 -0.02 0.012 -0.048 0.002 -0.033 0.007 0.027 0.069 0.067 0.12 0.111 0.125 0.12 0.135 0.098 0.11 0.122 0.128 0.096 0.1 0.098 0.102 0.074 0.024 0.056 0.007 0.024 0.02 0.029 0.047 0.05 0.052 0.055 0.068 0.019 0.069 -0.023 0.066 0.023 0.095 0.001 0.008 0.018 0.037 -0.006 0.033 0.011 0.126 0.029 0.11 0.047 0.094 -0.001 0.008 -0.006 0.058 -0.061 0.037 -0.036 0.061 -0.01 0.085 0.018 0.104 0.047 0.122 0.001 0.072 -0.017 0.01 -0.029 0.023 -0.031 0.015 -0.084 -0.084 -0.094 -0.057 -0.14 -0.098 -0.141 -0.035 -0.183 -0.006 -0.079 0.012 -0.056 -0.037 -0.079 -0.043 -0.043 -0.011 -0.06 0.033 -0.042 0.001 -0.051 -0.013 -0.104 0.001 -0.01 -0.057 -0.018 -0.011 -0.112 0.005 -0.035 -0.047 -0.015 0.005 -0.044 -0.015 -0.09 -0.067 -0.095 0.044 -0.197 -0.006 -0.253 0.001 -0.262 0.001 -0.239 -0.002 -0.24 -0.002 -0.024 -0.063 -0.05 -0.032 -0.089 -0.003 -0.263 0.013 -0.202 -0.01 -0.064 -0.008 -0.072 -0.016 -0.168 -0.015 -0.208 0.012 -0.047 -0.003 -0.166 0.002 -0.381 -0.017 -0.211 0.002 0.005 0.038 -0.013 0.028 -0.011 0.066 -0.232 0 -0.306 0 -0.289 0 -0.195 0 -0.327 0 -0.11 -0.046 -0.033 -0.029 -0.007 -0.033 -0.004 -0.022 -0.025 -0.007 0.021 -0.235 0.046 -0.196 0.018 -0.182 0.063 -0.163 -0.033 -0.161 -0.039 -0.07 -0.204 -0.228 0.094 -0.086 -0.123 0.012 -0.026 -0.085 -0.06 -0.102 0.037 -0.016 0.035 -0.056 0.112 0.017 -0.004 -0.027 -0.096 -0.085 0.009 -0.043 0.04 -0.048 -0.019 -0.02 -0.069 0.05 -0.05 -0.002 -0.039 -0.032 -0.028 -0.005 0.017 0.065 -0.039 0.058 -0.037 0.02 -0.063 -0.003 -0.051 -0.015 -0.014 -0.033 -0.048 -0.025 -0.135 -0.043 -0.114 -0.051 -0.023 -0.139 -0.045 -0.06 -0.018 -0.068 -0.011 -0.077 0.015 -0.119 -0.029 -0.019 -0.033 -0.006 -0.049 0.006 -0.045 -0.007 -0.054 -0.066 -0.048 -0.025 0.029 0.121 -0.033 0.034 -0.082 -0.01 -0.035 -0.046 -0.007 -0.034 0.038 -0.146 z" vector-effect="non-scaling-stroke" fill="#000" fill-opacity="1" stroke="#FFF" stroke-width="0px" stroke-linejoin="round" stroke-linecap="round"/></svg>
