<svg xmlns="http://www.w3.org/2000/svg" xmlns:xlink="http://www.w3.org/1999/xlink" height="400" width="400" viewBox="-81.419091796875 -19.76572265625 1.676806640625 0.493847656249997"><path d="M -81.37 -19.349 l 0.032 0.019 0.041 -0.012 0.012 -0.021 0.154 0.016 0.023 0.042 -0.117 0.001 -0.053 0.027 -0.026 0.006 -0.101 -0.007 -0.014 -0.096 0.028 -0.01 z M -79.979 -19.708 l -0.01 0.006 -0.032 -0.004 -0.073 0.041 -0.032 -0.002 0.01 -0.014 0.015 -0.013 0.017 -0.01 0.016 -0.004 0.051 -0.008 0.024 -0.001 0.017 0.009 z M -79.823 -19.712 l -0.047 0.015 -0.036 -0.006 0.082 -0.042 0.021 -0.014 0.018 -0.008 0.019 0 0.024 0.009 0 0.006 z" vector-effect="non-scaling-stroke" fill="#000" fill-opacity="1" stroke="#FFF" stroke-width="0px" stroke-linejoin="round" stroke-linecap="round"/></svg>
