<svg xmlns="http://www.w3.org/2000/svg" xmlns:xlink="http://www.w3.org/1999/xlink" height="400" width="400" viewBox="14.43115234375 -10.996240234375 12.97216796875 8.72617187500001"><path d="M 24.147 -8.666 l 0.047 0.012 0.026 0.045 -0.041 0.147 0.028 0.092 0.083 0.078 0.084 0.033 0.081 0.019 0.281 0.048 0.117 0.054 0.154 0.173 0.193 0.157 0.047 0.083 -0.009 0.076 -0.057 0.092 0.009 0.038 0.089 0.092 0.102 0.094 0.186 0.105 0.322 0.164 0.148 0.11 0.05 0.083 0.082 0.09 0.115 0.083 0.077 0.064 -0.053 0.18 0.016 0.059 0.029 0.051 0.067 0.071 0.027 0.091 0.067 0.114 0.079 0.052 0.133 0.019 0.07 0.053 0.146 0.091 0.141 0.078 0.061 0.054 0.037 0.048 0.032 0.056 0.016 0.056 0.003 0.122 0.024 0.151 0.076 0.103 0.071 0.077 -0.288 -0.089 -0.043 -0.002 -0.051 0.015 -0.15 0.109 -0.048 0.013 -0.054 -0.01 -0.135 -0.013 -0.459 -0.086 -0.354 -0.083 -0.106 -0.03 -0.189 -0.028 -0.125 0.056 -0.117 0.193 -0.034 0.038 -0.184 0.057 -0.087 -0.016 -0.213 0.053 -0.328 -0.08 -0.117 0.016 -0.092 0.04 -0.236 0.088 -0.143 0.05 -0.167 0.046 -0.158 0.07 -0.106 0.038 -0.104 0 -0.094 -0.039 -0.103 -0.034 -0.123 -0.007 -0.128 0.02 -0.109 0.077 -0.044 0.055 -0.095 0.146 -0.112 0.238 -0.044 0.048 -0.012 0.005 -0.028 0.02 -0.514 -0.119 -0.221 -0.027 -0.149 0.037 -0.187 -0.067 -0.082 -0.012 -0.039 0.021 -0.104 -0.03 -0.17 -0.081 -0.163 -0.034 -0.146 0.012 -0.089 -0.027 -0.072 -0.079 -0.093 -0.145 -0.167 -0.143 -0.224 -0.115 -0.14 -0.087 -0.056 -0.058 -0.121 -0.032 -0.185 -0.006 -0.178 0.057 -0.255 0.179 -0.237 0.368 -0.132 0.141 -0.106 0.036 -0.027 0.089 0.052 0.141 0.014 0.162 -0.037 0.276 0.014 0.2 -0.057 -0.032 -0.054 -0.094 -0.025 -0.019 -0.156 0.042 -0.081 0.038 -0.043 0.037 -0.033 0.006 -0.05 -0.051 -0.039 -0.009 -0.062 0.009 -0.063 -0.001 -0.041 -0.007 -0.027 0.005 -0.074 -0.03 -0.269 -0.077 -0.046 -0.026 -0.054 0.003 -0.14 0.067 -0.074 0.019 -0.222 0.042 -0.238 0.02 -0.091 0.001 -0.063 0.03 -0.04 0.042 -0.027 0.094 -0.047 0.161 -0.02 0.044 0.003 0.064 -0.014 0.108 -0.007 0.097 0.009 0.065 -0.067 0.131 -0.082 0.158 -0.068 0.136 -0.068 0.137 -0.047 -0.094 -0.029 -0.11 -0.011 -0.126 0.006 -0.033 -0.018 -0.037 -0.001 -0.008 -0.023 -0.095 0.023 -0.066 -0.019 -0.069 -0.055 -0.068 -0.05 -0.052 -0.029 -0.047 -0.024 -0.02 -0.056 -0.007 -0.074 -0.024 -0.098 -0.102 -0.096 -0.1 -0.122 -0.128 -0.098 -0.11 -0.12 -0.135 -0.111 -0.125 -0.067 -0.12 -0.027 -0.069 0.033 -0.007 0.048 -0.002 0.02 -0.012 0.001 -0.032 -0.049 -0.095 -0.024 -0.121 -0.041 -0.074 -0.129 -0.113 -0.123 -0.086 -0.039 -0.044 -0.022 -0.063 -0.047 -0.4 -0.021 -0.114 -0.039 -0.05 -0.028 -0.023 -0.011 -0.028 0.005 -0.071 0.016 -0.064 -0.001 -0.025 0.033 -0.056 0 -0.37 -0.018 -0.019 -0.022 -0.032 -0.035 0.002 -0.039 -0.003 -0.039 -0.054 -0.033 -0.068 0.01 -0.048 0.034 -0.04 0.037 -0.035 0.047 -0.029 0.14 -0.059 0.04 -0.03 0.025 -0.037 0.016 -0.049 0.082 -0.19 0.121 -0.19 0.052 -0.039 0.052 -0.125 0.071 -0.154 0.029 -0.071 0.021 -0.071 0.039 -0.057 0.133 -0.095 0.101 -0.166 0.109 0.009 0.112 0.027 0.144 0.013 0.113 -0.032 0.073 -0.065 0.16 -0.051 0.188 -0.06 0.025 -0.089 0.055 -0.047 0.064 -0.041 0.022 -0.006 0.005 0.03 0.039 0.093 0.079 0.092 0.116 0.101 0.033 -0.006 0.072 -0.076 0.182 -0.047 0.046 -0.021 0.129 -0.111 0.155 -0.072 0.034 -0.006 0.056 -0.019 0.157 -0.074 0.111 0.01 0.179 -0.012 0.299 -0.035 0.216 -0.012 0.109 -0.014 0.027 -0.015 0.042 -0.107 0.033 -0.03 0.081 -0.046 0.159 -0.161 0.104 -0.136 0.029 -0.046 0.003 -0.003 0.021 -0.009 0.045 -0.057 -0.045 -0.059 -0.178 -0.121 0.003 -0.016 -0.01 -0.021 0.01 -0.017 0.068 -0.049 0.092 -0.056 0.098 -0.021 0.255 0.004 0.217 -0.012 0.051 0.003 0.169 -0.028 0.116 -0.026 0.119 -0.058 0.269 0.006 0.225 -0.148 0.065 -0.026 0.028 -0.023 0.008 -0.023 0.105 -0.059 0.118 -0.121 0.093 -0.109 0.025 -0.077 0.254 -0.261 0.089 0.005 0.044 -0.032 0.101 -0.174 0.031 -0.032 0.048 -0.011 0.057 -0.02 0.05 -0.052 0.043 -0.077 0 -0.095 -0.02 -0.076 0 -0.037 0.024 -0.034 0.041 -0.034 0.193 -0.094 0.049 -0.045 0.029 -0.041 0.054 -0.007 0.059 0.004 0.037 -0.025 0.042 -0.043 0.134 -0.057 0.124 -0.045 0.13 0.019 0.106 0.023 0.087 0.027 0.043 0.008 0.071 0.124 0.034 0.044 0.292 0.294 0.056 0.07 0.144 0.214 0.088 0.144 0.101 0.207 0.01 0.113 -0.013 0.096 -0.02 0.273 -0.027 0.079 -0.128 0.147 -0.005 0.066 0.026 0.055 0.039 0.023 0.024 0.027 -0.015 0.127 0.046 0.05 0.096 0.033 0.243 0.023 0.126 0.018 z" vector-effect="non-scaling-stroke" fill="#000" fill-opacity="1" stroke="#FFF" stroke-width="0px" stroke-linejoin="round" stroke-linecap="round"/></svg>
