<svg xmlns="http://www.w3.org/2000/svg" xmlns:xlink="http://www.w3.org/1999/xlink" height="400" width="400" viewBox="13.4482421875 -23.44521484375 10.53515625 15.969921875"><path d="M 23.98 -19.497 l 0 0.446 0 0.446 0 0.446 0 0.446 0 0.446 0 0.446 0 0.446 0 0.446 0 0.148 -0.013 0.059 -0.006 0.008 -0.019 0.01 -0.238 -0.041 -0.104 -0.001 -0.146 0.032 -0.215 0.017 -0.138 -0.005 -0.096 0.077 -0.075 0.093 0.036 0.222 -0.008 0.073 -0.029 0.076 -0.065 0.065 -0.065 0.052 -0.039 0.046 -0.048 0.1 -0.036 0.047 0.003 0.063 -0.012 0.066 -0.039 0.034 -0.1 0.025 -0.064 0.029 -0.052 0.048 -0.035 0.035 0.018 0.046 0.025 0.063 0.014 0.099 0.01 0.058 0.049 0.047 0.03 0.034 0.01 0.041 -0.029 0.034 -0.122 0.072 -0.049 0.027 -0.056 0.037 -0.021 0.014 -0.089 0.068 -0.045 0.06 -0.022 0.05 0.001 0.069 0.045 0.104 0.049 0.088 0.019 0.066 0.011 0.073 -0.004 0.069 -0.025 0.06 -0.045 0.054 -0.168 0.102 -0.083 0.112 -0.066 0.136 -0.017 0.074 0.018 0.049 0.035 0.042 0.05 0.021 0.073 0.006 0.121 -0.023 0.112 -0.015 0.119 0.049 0.062 0.114 -0.024 0.083 0.045 0.151 0.04 0.183 -0.003 0.061 0.017 0.023 0.075 0.012 0.017 0.043 -0.025 0.321 0.035 0.09 0.05 0.064 0.056 0.033 0.057 0.043 0.029 0.03 0.066 0.007 0.074 0.058 0.02 0.078 -0.005 0.075 -0.043 0.163 -0.035 0.109 -0.043 -0.008 -0.087 -0.027 -0.106 -0.023 -0.13 -0.019 -0.124 0.045 -0.134 0.057 -0.042 0.043 -0.037 0.025 -0.059 -0.004 -0.054 0.007 -0.029 0.041 -0.049 0.045 -0.193 0.094 -0.041 0.034 -0.024 0.034 0 0.037 0.02 0.076 0 0.095 -0.043 0.077 -0.05 0.052 -0.057 0.02 -0.048 0.011 -0.031 0.032 -0.101 0.174 -0.044 0.032 -0.089 -0.005 -0.254 0.261 -0.025 0.077 -0.093 0.109 -0.118 0.121 -0.105 0.059 -0.008 0.023 -0.028 0.023 -0.065 0.026 -0.225 0.148 -0.269 -0.006 -0.119 0.058 -0.116 0.026 -0.169 0.028 -0.051 -0.003 -0.217 0.012 -0.255 -0.004 -0.098 0.021 -0.092 0.056 -0.068 0.049 -0.01 0.017 0.01 0.021 -0.003 0.016 0.178 0.121 0.045 0.059 -0.045 0.057 -0.021 0.009 -0.003 0.003 -0.029 0.046 -0.104 0.136 -0.159 0.161 -0.081 0.046 -0.033 0.03 -0.042 0.107 -0.027 0.015 -0.109 0.014 -0.216 0.012 -0.299 0.035 -0.179 0.012 -0.111 -0.01 -0.157 0.074 -0.056 0.019 -0.034 0.006 -0.155 0.072 -0.129 0.111 -0.046 0.021 -0.182 0.047 -0.072 0.076 -0.033 0.006 -0.116 -0.101 -0.079 -0.092 -0.039 -0.093 -0.005 -0.03 -0.022 0.006 -0.064 0.041 -0.055 0.047 -0.025 0.089 -0.188 0.06 -0.16 0.051 -0.073 0.065 -0.113 0.032 -0.144 -0.013 -0.112 -0.027 -0.109 -0.009 0.052 -0.081 0.02 -0.06 0.005 -0.074 -0.008 -0.05 -0.065 -0.025 -0.042 -0.039 -0.094 -0.232 -0.097 -0.239 -0.136 -0.235 -0.148 -0.15 -0.107 -0.091 -0.034 -0.012 -0.055 -0.029 -0.038 -0.027 -0.197 -0.16 -0.204 -0.178 -0.052 -0.082 -0.102 -0.121 -0.114 -0.125 -0.059 -0.057 -0.028 -0.103 0.079 -0.093 0.084 -0.117 0.104 -0.078 0.134 -0.005 0.221 0.032 0.238 0.011 0.236 -0.024 0.061 -0.017 0.06 0.001 0.127 0.027 0.221 -0.006 0.114 -0.048 -0.123 -0.081 -0.132 -0.128 -0.124 -0.14 -0.075 -0.127 -0.069 -0.164 -0.064 -0.203 -0.039 -0.263 0.006 -0.149 0.02 -0.106 0.067 -0.173 -0.044 -0.101 0.01 -0.082 -0.006 -0.121 -0.021 -0.062 -0.086 -0.201 -0.017 -0.022 -0.076 -0.139 -0.034 -0.233 -0.086 -0.154 -0.138 -0.074 -0.079 -0.09 -0.029 -0.16 -0.054 -0.042 -0.217 -0.056 -0.181 -0.001 -0.132 -0.18 -0.169 -0.231 -0.157 -0.215 -0.101 -0.43 -0.058 -0.246 0.065 -0.075 0.129 -0.175 0.165 -0.335 0.371 -0.519 0.19 -0.265 0.379 -0.396 0.465 -0.487 0.262 -0.275 0.042 -0.5 0.045 -0.529 0.034 -0.4 0.042 -0.474 0.035 -0.396 0.026 -0.288 0.036 -0.409 0.031 -0.079 0.183 -0.321 0.014 -0.043 -0.034 -0.054 -0.261 -0.273 -0.081 -0.061 -0.047 -0.142 0.067 -0.079 -0.314 -0.457 -0.078 -0.056 -0.034 -0.056 -0.004 -0.082 -0.006 -0.316 -0.083 -0.496 -0.11 -0.578 0.368 -0.165 0.28 -0.125 0.357 -0.159 0.331 0.163 0.479 0.237 0.479 0.237 0.479 0.237 0.479 0.237 0.479 0.237 0.479 0.237 0.479 0.237 0.479 0.237 0.479 0.237 0.479 0.237 0.479 0.237 0.479 0.237 0.479 0.237 0.479 0.237 0.479 0.237 z" vector-effect="non-scaling-stroke" fill="#000" fill-opacity="1" stroke="#FFF" stroke-width="0px" stroke-linejoin="round" stroke-linecap="round"/></svg>
