<svg xmlns="http://www.w3.org/2000/svg" xmlns:xlink="http://www.w3.org/1999/xlink" height="400" width="400" viewBox="-109.434130859375 17.5060546875 42.99833984375 38.38564453125"><path d="M -109.28 27.14 l -0.154 0.031 0.005 -0.055 0.039 -0.048 0.114 0.028 0.054 0.005 z M -78.804 33.646 l -0.179 0.021 -0.006 -0.006 0.01 -0.018 0.041 -0.031 0.05 -0.037 0.011 -0.001 0.018 0.003 0.021 0.007 0.054 0.025 0.016 0.017 -0.006 0.014 z M -70.418 18.346 l 0.041 -0.012 0.095 -0.008 0.098 0 0.125 -0.042 0.133 -0.077 0.087 -0.113 0.037 -0.103 0 -0.09 -0.039 -0.115 -0.011 -0.081 0.046 -0.039 0.121 -0.015 0.098 -0.077 0.075 -0.067 0.016 0.113 0.137 0.152 0.045 0.171 0.031 0.022 0.188 0.086 0.004 0.02 -0.028 0.032 -0.027 0.041 0.019 0.058 0.034 0.08 0.011 0.074 0.021 0.076 0.021 0.117 0.013 0.106 0.048 0.157 0.01 0.097 0.001 0.058 0.037 0.057 0.073 0.068 0.099 0.069 0.078 0.08 0.06 0.054 0.073 0.044 0.056 0.041 0.022 0.028 0.007 0.023 -0.024 0.022 -0.088 0.106 -0.123 0.161 0.002 0.02 0.118 0.116 0.019 0.046 -0.001 0.065 -0.04 0.078 -0.127 0.025 -0.028 0.021 -0.004 0.025 0.029 0.033 -0.005 0.077 0.046 0.085 -0.024 0.029 -0.047 0.039 -0.001 0.038 0.015 0.042 0.049 0.034 0.196 0.119 0.016 0.016 -0.003 0.012 -0.076 0.079 -0.008 0.049 0.002 0.081 0.011 0.052 0.024 0.022 0.098 0.025 0.122 0.181 0.117 0.171 -0.002 0.147 0.012 0.171 0.074 0.134 0.01 0.108 0.025 0.122 0.088 0.074 0.034 0.147 0.009 0.078 -0.005 0.051 0.069 0.16 0.008 0.137 -0.016 0.099 0.001 0.055 0.01 0.039 0.059 0.035 0.026 0.022 0.087 0.01 0.127 0.003 0.218 -0.037 0.167 -0.033 0.186 0.18 -0.081 0.244 -0.129 0.389 -0.1 0.301 -0.016 0.04 -0.021 0.059 -0.216 0.085 -0.314 0.124 -0.161 0.065 -0.203 0.084 -0.049 0.068 -0.059 0.037 -0.064 0.048 -0.025 0.052 -0.06 0.033 -0.055 0.118 0 0.09 0.035 0.062 0.061 0.026 0.019 0.074 0.019 0.052 0.044 0.041 -0.011 0.033 -0.035 0.025 -0.066 0.014 -0.044 0.074 -0.051 0.183 -0.008 0.066 0.058 0.166 0.031 0.089 0.084 0.324 0.012 0.088 -0.115 0.123 -0.046 0.075 -0.016 0.066 0.001 0.052 0.01 0.048 0.096 0.152 0.112 0.136 0.055 0.071 0 0.096 -0.027 0.055 -0.059 0.02 -0.132 0.037 -0.055 0.055 -0.06 0.008 -0.057 -0.044 -0.06 0.011 -0.077 0.038 -0.029 0.093 -0.067 0.158 -0.057 0.044 -0.043 0.121 -0.076 0.174 -0.037 0.105 -0.019 0.077 -0.077 0.049 -0.09 0.097 -0.069 0.095 -0.027 0.027 -0.052 0.008 -0.038 0.085 -0.13 0.128 -0.031 0.148 -0.047 0.079 -0.008 0.143 -0.072 0.262 -0.013 0.058 -0.072 0.046 -0.095 0.101 -0.031 0.074 0.044 0.221 0.055 0.224 0.004 0.105 -0.021 0.142 -0.015 0.062 0.036 0.026 0.06 0.016 0.019 0.055 -0.044 0.038 -0.019 0.068 -0.049 0.077 -0.146 0.03 -0.051 -0.027 -0.016 0.025 0.008 0.055 -0.033 0.064 -0.075 0.173 -0.05 0.157 -0.029 0.068 0.012 0.057 0.025 0.033 0.003 0.03 -0.042 0.038 -0.038 0.061 -0.041 0.008 -0.044 -0.017 -0.046 0.036 -0.009 0.074 -0.026 0.095 -0.012 0.111 -0.019 0.142 0.06 0.097 0.075 0.175 0.056 0.042 0.063 -0.003 0.049 0.036 0.027 0.041 -0.037 0.073 -0.065 0.011 -0.008 0.041 0.019 0.093 0.025 0.09 0.062 0.043 0.028 0.121 0.06 0.041 -0.007 0.154 0.061 0.181 0.064 0.053 0.03 0.025 -0.02 0.079 -0.051 0.063 -0.011 0.101 0.019 0.074 0.065 0.07 0.051 0.008 0.073 -0.028 0.077 0.033 0.011 0.06 0.011 0.055 -0.041 0.071 -0.044 0.131 -0.012 0.13 0.013 0.198 0.02 0.154 0.004 0.097 0.005 0.044 -0.027 0.03 -0.067 0.016 -0.056 0.006 -0.049 0.025 -0.011 0.049 -0.038 0.082 -0.04 0.061 -0.069 0.088 -0.044 0.091 -0.035 0.06 0.003 0.042 -0.025 0.08 -0.026 0.067 -0.055 0.225 -0.073 0.047 -0.058 0.023 -0.03 0.03 0.023 0.061 0.062 0.018 0.022 0.049 -0.008 0.077 0.041 0.071 -0.004 0.086 0.04 0.163 -0.036 0.107 0.012 0.092 -0.001 0.091 -0.052 0.071 -0.107 0.014 -0.058 0.066 -0.1 0.071 -0.011 0.057 -0.016 0.052 -0.041 0.019 -0.063 0 -0.052 0.008 -0.073 0.067 -0.078 0.036 -0.018 0.054 0.007 0.066 -0.041 0.041 -0.052 0.077 -0.033 0.082 0.033 0.077 0.036 0.137 0.005 0.057 -0.045 0.113 -0.037 0.073 0.035 0.093 0.03 0.052 -0.028 0.114 -0.024 0.072 0.019 0.131 0.071 0.148 0.068 0.131 0.01 0.153 0.018 0.121 0.033 0.131 0.068 0.052 0.052 0.044 -0.011 0.063 -0.038 0.077 -0.055 0.057 -0.135 0.019 -0.11 0.052 -0.088 0.036 -0.067 0.043 -0.048 0.046 -0.024 0.051 0.016 0.22 -0.011 0.081 -0.045 0.115 -0.042 0.093 -0.018 0.028 -0.005 0.041 -0.008 0.038 -0.048 0.009 -0.067 -0.017 -0.038 0.011 -0.027 0.03 0.023 0.072 0.025 0.126 0.034 0.054 -0.009 0.042 -0.013 0.092 -0.045 0.074 -0.059 0 -0.038 0.03 -0.016 0.052 0.018 0.068 0.078 0.055 0.027 0.036 -0.014 0.046 -0.06 0.019 -0.035 0.038 -0.034 0.085 -0.045 0.096 -0.048 0.071 -0.009 0.097 0.068 0.104 -0.008 0.102 -0.005 0.298 -0.007 0.101 0.021 0.167 -0.026 0.046 -0.014 0.044 0.067 0.122 0.074 0.197 0.02 0.078 -0.011 0.055 -0.1 0.046 -0.083 0.019 -0.049 -0.033 -0.033 0.014 -0.038 0.057 -0.044 0.046 -0.016 0.046 0.046 0.06 0.025 0.115 -0.052 0.049 -0.038 0.055 0.014 0.071 0.016 0.129 -0.033 0.213 0.044 0.076 0.048 0.036 0.156 0.043 0.117 0.021 0.031 0.071 -0.013 0.057 -0.056 0.028 -0.085 0.025 0 0.093 0.073 0.087 0.082 0.063 0.018 0.057 -0.005 0.058 -0.057 0.049 0.079 0.105 0.036 0.071 -0.036 0.055 -0.051 0.082 -0.045 0.039 0 0.045 -0.019 0.091 -0.004 0.089 0.015 0.053 0.494 0.042 0.113 0.016 0.062 0.053 -0.009 0.066 -0.062 0.071 -0.04 0.132 -0.097 0.022 -0.097 -0.035 -0.105 0.012 -0.091 0.008 -0.131 0.004 -0.174 0.017 -0.107 -0.02 -0.009 0.049 0.031 0.084 0.229 0.026 0.216 0.049 0.065 0.089 0.088 0.1 0.09 0.062 0.004 0.101 -0.141 0.106 -0.018 0.075 -0.185 0.022 -0.053 0.044 -0.026 0.146 0.022 0.115 0.071 0.04 0.049 0.075 -0.053 0.088 -0.125 0.061 -0.066 0.058 0.042 0.046 0.056 0.073 0.016 0.04 0.031 0.108 0.036 0.151 -0.004 0.073 -0.033 0.054 -0.124 0.086 -0.084 0.04 -0.016 0.106 -0.006 0.079 0.009 0.071 0.054 0.057 -0.004 0.057 -0.074 0.012 -0.063 0.028 -0.062 0.101 -0.179 0.104 -0.063 0.046 0.004 0.079 -0.071 0.113 -0.06 0.099 -0.046 0.092 0.009 0.097 0.101 0.043 0.08 0.094 0.035 0.119 -0.062 0.137 -0.143 0.052 -0.085 0.058 -0.026 0.044 0.022 0.143 -0.006 0.067 -0.023 0.063 -0.037 0.049 -0.077 0.055 -0.137 0.048 -0.116 0.033 -0.052 0.038 -0.061 0.083 -0.054 0.091 0.014 0.113 -0.326 0.013 -0.022 0.084 -0.071 0.066 -0.022 0.119 0.072 0.115 0.034 0.096 -0.058 0.116 0.021 0.119 0.006 0.095 0.115 0.106 0.075 0.131 0.038 0.111 0.023 0.086 0.03 0.052 0.047 0.059 0.022 0.068 0.071 0.022 0.127 -0.064 0.09 -0.043 0.062 -0.015 0.183 0.01 0.111 -0.04 0.05 0.004 0.068 0.023 0.052 0.048 0.04 0.108 0.024 0.121 -0.031 0.123 -0.052 0.027 -0.018 0.035 0.018 0.075 0.057 0.053 -0.001 0.076 -0.063 0.171 -0.041 0.071 0.073 0.079 0.066 0.071 0.132 0.053 0.109 0.075 0.075 0.062 -0.018 0.084 0.052 0.025 0.202 0.002 0.302 0.003 0.472 0.004 0.46 0.004 0.523 0.006 0.248 0.067 0.224 0.061 0.282 0 0.282 0.072 0.209 0.047 0.125 0.018 0.129 0.017 0.018 0.066 -0.564 -0.094 -0.127 -0.051 -0.107 -0.006 -0.206 0.064 -0.114 0.152 -0.06 0.043 -0.143 0.041 -0.144 0.008 -0.484 0.147 -0.172 0.013 -0.117 0.039 -0.115 0.056 -0.044 0.121 0.018 0.074 -0.131 0.264 -0.032 0.147 -0.001 0.075 0.037 0.122 -0.048 0.209 -0.087 0.046 -0.215 0.058 -0.146 -0.042 -0.25 -0.038 -0.178 -0.08 -0.229 -0.057 -0.073 -0.033 -0.202 -0.161 -0.021 -0.053 -0.015 -0.068 0.107 -0.096 0.057 -0.007 0.167 0.003 0.139 -0.016 0.089 0.052 0.025 0.113 -0.039 0.06 -0.035 0.037 0.011 0.028 0.1 -0.039 0.051 -0.252 0.34 -0.126 0.111 -0.073 0.109 -0.113 0.017 -0.032 0.008 -0.042 -0.072 -0.035 -0.161 -0.046 -0.51 0.238 -0.231 0.063 -0.149 0.068 -0.18 0.122 -0.034 0.036 -0.038 0.081 -0.018 0.089 -0.178 -0.041 -0.272 -0.129 -0.054 -0.047 0.054 -0.066 0.083 -0.055 0.006 -0.185 0.021 -0.065 0.057 -0.052 0.104 -0.057 0.052 -0.013 0.044 0.025 0.005 0.044 0.173 -0.003 0.336 -0.164 0.138 -0.004 0.182 0.037 0.206 -0.022 0.037 -0.017 0.043 -0.039 -0.153 -0.045 -0.147 -0.023 -0.414 -0.016 -0.09 0.018 -0.122 0.087 -0.041 -0.022 -0.026 -0.044 -0.14 -0.031 -0.067 0.006 -0.064 0.042 0.011 0.065 -0.036 0.07 -0.13 0.069 -0.088 0.11 0.004 0.086 -0.007 0.045 -0.032 0.024 -0.067 0.028 -0.216 -0.019 -0.122 -0.09 -0.048 -0.061 -0.138 -0.067 0.299 -0.083 0.105 -0.047 0.096 -0.105 0.072 -0.067 -0.051 -0.047 -0.06 0 0.006 0.075 -0.066 0.061 -0.138 -0.029 -0.204 0.091 -0.125 -0.024 -0.204 0.027 -0.1 -0.049 -0.021 -0.062 0.036 -0.065 -0.037 -0.11 -0.056 -0.027 -0.057 0.006 -0.026 -0.065 -0.062 -0.115 -0.027 -0.031 -0.03 -0.053 0.031 -0.013 0.07 0.015 0.061 0.035 0.093 0.004 0.206 0.075 0.085 -0.018 0.046 -0.017 0.017 -0.062 0.001 -0.059 0.035 0 0.117 0.075 0.074 -0.007 0.131 0.02 0.066 -0.008 0.123 -0.028 0.194 -0.083 0.1 -0.086 0.048 -0.012 0.06 0.011 0.04 0.025 0.001 0.06 0.045 0.055 0.062 0.045 0.017 0.055 -0.013 0.054 -0.11 0.076 -0.02 0.026 0.037 0.028 0.046 -0.013 0.063 -0.038 0.036 -0.052 0.01 -0.027 0.004 -0.038 -0.005 -0.047 -0.089 -0.133 -0.011 -0.03 0 -0.06 0.102 -0.056 0.029 -0.043 0.004 -0.084 -0.053 -0.058 -0.219 -0.133 -0.366 -0.133 -0.042 0.014 -0.028 0.024 0.034 0.018 0.048 0.009 0.326 0.11 0.085 0.064 0.056 0.017 0.066 0.042 -0.017 0.062 -0.328 0.061 -0.26 0.131 -0.195 0.079 -0.135 -0.029 -0.064 -0.081 -0.068 -0.104 -0.102 -0.061 -0.058 0.006 -0.047 -0.011 -0.037 -0.032 -0.079 0.027 -0.173 -0.072 -0.05 -0.032 0.127 -0.102 0.14 0.039 0.034 -0.286 -0.044 -0.065 -0.182 -0.071 -0.089 0.009 -0.122 -0.01 -0.082 -0.033 -0.094 -0.013 -0.079 -0.019 -0.103 -0.044 -0.125 -0.024 -0.168 -0.182 -0.072 -0.096 -0.039 -0.104 0.258 -0.002 0.151 -0.017 0.037 -0.044 -0.053 -0.083 -0.074 -0.065 0.054 -0.061 0.077 -0.048 0.08 0.021 0.199 0.106 0.034 0.072 0.141 0.218 0.034 0.019 0.017 0.02 0.292 0.122 0.041 -0.002 -0.018 -0.103 0.084 -0.139 0.082 -0.046 0.041 0 0.004 -0.023 -0.079 -0.058 0.039 -0.077 -0.025 -0.002 -0.07 0.05 -0.141 0.243 -0.087 0.044 -0.119 -0.11 -0.067 -0.079 -0.033 -0.028 0.012 -0.124 0.235 0.025 -0.081 -0.041 -0.275 -0.072 -0.069 -0.035 -0.051 -0.013 -0.091 -0.085 -0.113 -0.072 0.195 -0.129 0.101 -0.091 0.314 0.048 0.061 -0.028 -0.053 -0.066 -0.062 0.02 -0.098 -0.041 -0.153 -0.124 0.005 -0.063 0.028 -0.116 0.06 -0.025 0.128 -0.024 0.146 0.038 0.064 0.031 0.055 -0.014 -0.056 -0.086 -0.096 -0.033 -0.106 -0.061 0.011 -0.068 0.034 -0.056 0.026 -0.062 0.018 -0.086 -0.01 -0.067 0.031 -0.031 0.047 -0.014 0.003 -0.025 -0.093 0.005 -0.034 0.085 -0.013 0.077 -0.066 0.062 -0.028 0.07 -0.017 0.084 -0.037 0.096 -0.08 -0.037 -0.047 -0.038 -0.018 -0.026 0.008 -0.049 -0.022 -0.304 -0.002 -0.254 0.041 -0.198 0.113 -0.079 0.051 -0.023 0.047 0.01 0.072 -0.001 0.048 -0.029 -0.162 -0.048 -0.099 0.027 -0.073 0.038 -0.131 -0.029 -0.025 -0.102 -0.078 -0.088 -0.014 -0.112 0.006 -0.163 0.184 0.014 0.15 0.032 0.397 -0.003 0.326 0.156 0.144 -0.021 -0.007 -0.031 -0.11 -0.039 -0.069 -0.087 -0.04 -0.025 -0.019 -0.052 -0.006 -0.061 -0.081 -0.225 -0.032 0.006 -0.031 0.077 -0.067 0.129 -0.094 0.062 -0.144 0.025 -0.142 0.014 -0.124 -0.025 -0.029 -0.053 0.003 -0.062 -0.053 -0.03 -0.14 -0.027 -0.04 -0.015 -0.046 -0.056 0.067 -0.084 0.055 -0.05 0.067 0.01 0.063 0.023 0.081 0.066 0.08 0.013 0.091 -0.053 0.018 -0.036 -0.057 -0.022 -0.052 -0.009 -0.081 -0.028 -0.159 -0.101 0.079 -0.103 0.188 -0.118 0.057 -0.027 -0.05 -0.099 0.056 -0.109 -0.058 -0.09 -0.104 -0.097 -0.141 -0.021 -0.03 0.028 -0.005 0.04 0.022 0.03 -0.013 0.021 -0.032 -0.001 -0.179 -0.021 -0.12 -0.064 -0.195 -0.059 -0.025 -0.046 -0.021 -0.067 0.068 -0.116 -0.035 -0.002 -0.127 0.09 -0.192 0.047 -0.141 0.015 -0.062 0.036 -0.025 0.03 0.037 0.018 0.082 0.004 0.06 0.112 -0.015 0.043 -0.029 0.029 -0.066 0.006 -0.139 -0.077 -0.073 -0.088 0.002 -0.07 0.05 -0.095 0.22 -0.127 0.061 -0.054 0.129 -0.06 0.172 -0.135 0.15 -0.075 -0.073 -0.062 -0.077 -0.093 0.008 -0.13 0.304 -0.051 0.132 0.021 0.168 -0.004 0.094 -0.031 0.068 -0.007 0.143 -0.036 0.062 -0.05 0.014 -0.038 -0.001 -0.034 -0.017 -0.041 -0.023 -0.107 0.024 -0.036 0.061 -0.043 0.08 -0.013 0.037 0.003 0.095 0.039 -0.019 0.056 -0.038 0.067 -0.078 0.266 -0.039 0.06 -0.062 0.052 0.041 0.108 -0.062 0.076 -0.275 0.081 -0.036 0.005 0.021 0.029 0.159 -0.007 0.123 -0.017 0.122 -0.068 0.038 -0.104 0.05 -0.203 0.066 -0.029 0.077 -0.006 0.04 0.048 -0.013 0.107 0 0.104 -0.102 0.307 -0.124 0.123 -0.014 0.032 0.005 0.038 0.098 -0.006 0.075 -0.066 0.054 -0.085 0.054 -0.118 -0.006 -0.085 0.017 -0.053 0.022 -0.173 0.038 -0.087 -0.002 -0.122 -0.068 -0.046 -0.095 -0.028 -0.024 -0.075 0.05 -0.148 0.181 0.004 0.171 -0.101 0.112 -0.037 0.064 0.008 0.224 0.097 0.044 0.001 -0.007 -0.035 -0.035 -0.025 -0.088 -0.033 -0.162 -0.105 -0.219 -0.017 0.04 -0.136 0.042 -0.124 0.106 -0.017 0.178 -0.041 0.339 -0.186 0.059 -0.14 0.016 -0.158 -0.164 -0.041 -0.173 -0.103 -0.14 -0.055 -0.124 -0.069 0.024 -0.103 0.016 -0.168 0.156 -0.036 0.072 -0.23 -0.104 -0.176 0.025 -0.132 0.136 -0.112 0.025 -0.078 0.037 -0.085 0.12 -0.009 0.003 -0.046 -0.011 -0.085 -0.079 -0.1 -0.003 -0.139 0.074 -0.164 0.119 0.011 0.023 -0.007 -0.084 -0.099 -0.069 -0.109 0.012 -0.044 0.066 -0.037 0.076 -0.021 0.083 0.056 0.118 0.178 0.018 -0.046 -0.048 -0.182 -0.039 -0.226 -0.125 0.03 -0.114 -0.016 -0.043 -0.035 -0.043 -0.051 0.04 -0.062 0.04 -0.046 0.084 -0.058 0.174 -0.02 0.126 -0.073 0.042 -0.15 -0.041 0.015 -0.068 0.132 -0.115 0.045 -0.058 -0.007 -0.069 -0.025 -0.135 -0.115 -0.075 -0.027 -0.073 -0.003 -0.062 0.029 -0.159 0.203 -0.068 0.034 -0.279 0.016 -0.103 -0.023 -0.111 -0.031 0.013 -0.05 0.034 -0.053 0.063 -0.027 0.001 -0.031 -0.087 -0.008 -0.1 -0.056 -0.044 -0.071 -0.021 -0.127 -0.09 -0.201 -0.018 -0.144 0.063 -0.103 0.136 -0.403 0.042 -0.205 0.073 -0.181 -0.002 -0.119 0.189 -0.109 0.072 -0.065 0.16 -0.367 0.023 -0.198 -0.254 -0.6 -0.039 -0.115 -0.012 -0.143 0.061 -0.237 0.007 -0.09 -0.052 -0.13 -0.145 -0.212 -0.003 -0.108 0.061 -0.111 -0.059 -0.138 0.029 -0.086 0.032 -0.067 0.227 0.036 0.103 -0.017 0.055 -0.041 0.043 -0.113 0.022 -0.177 0.013 -0.076 0.02 -0.112 0.111 -0.045 0.039 -0.106 0.093 -0.147 0.096 -0.412 0.095 -0.102 0.096 -0.117 -0.037 -0.174 0.062 -0.08 0.057 -0.058 0.05 -0.106 0.068 -0.1 0.163 -0.144 0.041 -0.176 0.126 -0.304 0.025 -0.195 0.039 -0.132 -0.011 -0.123 0.076 -0.15 0.073 -0.126 0.023 -0.07 0.167 -0.167 0.028 -0.133 -0.059 -0.09 -0.001 -0.14 -0.046 -0.194 0.107 -0.073 0.044 -0.053 0.14 -0.31 -0.009 -0.122 0.04 -0.151 -0.092 -0.179 -0.013 -0.402 -0.051 -0.309 -0.085 -0.327 0.008 -0.183 -0.052 -0.227 -0.003 -0.131 0.039 -0.298 0.269 -0.187 0.052 -0.21 0.032 -0.283 -0.011 -0.207 -0.027 -0.093 -0.133 -0.152 -0.033 -0.272 0.026 -0.071 0.11 -0.077 0.077 -0.106 0.04 -0.165 0.08 -0.13 0.032 -0.314 0.068 -0.25 0.034 -0.087 0.107 -0.109 0.02 -0.029 0.017 -0.083 -0.005 -0.197 0.016 -0.12 0.085 -0.237 0.01 -0.11 0.095 -0.244 0.021 -0.175 0.04 -0.092 -0.016 -0.104 0.027 -0.233 -0.064 -0.132 -0.014 -0.077 0.081 -0.239 0.055 -0.058 0.089 -0.111 0.037 -0.125 0.007 -0.079 -0.113 -0.394 -0.015 -0.134 0.028 -0.313 0.039 -0.202 -0.013 -0.161 0.013 -0.083 0.02 -0.104 0.078 -0.126 0.018 -0.09 -0.027 -0.037 -0.092 -0.046 -0.076 -0.114 -0.005 -0.113 0.025 -0.082 0.006 -0.116 0.114 -0.023 0.06 -0.065 0.057 -0.121 0.072 -0.293 0.031 -0.363 0.043 -0.219 0.03 -0.108 0.025 -0.226 0.042 -0.148 0.008 -0.136 -0.008 -0.104 -0.109 -0.528 0.003 -0.194 0.046 -0.302 -0.001 -0.425 -0.009 -0.099 -0.041 -0.093 -0.012 -0.126 -0.065 -0.219 -0.059 -0.44 -0.001 -0.232 -0.026 -0.197 z M -68.63 52.653 l -0.002 0.297 -0.002 0.292 -0.002 0.274 -0.002 0.273 -0.002 0.264 -0.002 0.271 -0.008 0.304 -0.006 0.226 -0.151 0 -0.04 0.023 -0.238 0.033 -0.405 -0.051 -0.101 -0.046 -0.136 -0.101 -0.048 0.027 -0.128 0.043 -0.131 0.034 -0.108 0.004 -0.1 -0.042 -0.021 -0.021 -0.023 -0.005 -0.215 0.058 -0.238 -0.059 -0.19 -0.036 -0.305 -0.02 -0.212 -0.075 -0.391 0.007 -0.07 -0.025 -0.026 -0.073 0.021 -0.034 0.084 -0.02 0.023 -0.04 0.084 0.01 0.11 0.054 0.034 -0.002 0.072 -0.05 0.107 -0.045 0.038 -0.005 0.196 0.055 0.079 -0.006 0.113 -0.025 0.02 -0.021 0.018 -0.038 0.03 -0.022 0.101 -0.011 0.098 0.022 0.011 0.066 -0.014 0.071 0.128 0.019 0.155 -0.002 0.107 0.026 0.013 -0.043 -0.171 -0.112 -0.072 -0.07 -0.096 -0.041 -0.124 -0.021 -0.103 -0.131 0.006 -0.115 -0.011 -0.112 0.223 -0.061 -0.051 -0.095 0.077 -0.072 0.087 -0.028 0.088 0.266 0.063 0.093 -0.081 0.019 -0.169 0 0.095 0.131 0.155 0.045 0.134 0.097 0.003 0.07 0.074 0.032 0.179 0.002 0.123 -0.014 0.058 -0.047 0.067 -0.015 0.12 0.058 0.202 0.043 0.054 0.03 0.04 0.051 0.003 0.054 0.01 0.029 0.059 -0.014 0.084 -0.074 0.041 -0.026 0.051 -0.013 0.032 -0.017 0.001 -0.022 -0.151 -0.052 -0.792 -0.245 -0.097 -0.098 -0.066 -0.123 0.002 -0.127 0.058 -0.039 0.141 -0.05 0.26 -0.071 0.3 -0.101 0.037 -0.019 -0.004 -0.064 -0.038 -0.043 -0.119 -0.031 -0.124 -0.008 -0.119 0.003 -0.119 0.013 -0.216 0.068 -0.122 -0.004 -0.116 -0.036 -0.086 -0.073 -0.045 -0.099 0 -0.063 0.017 -0.058 0.053 -0.059 0.071 -0.026 0.064 0.003 0.06 -0.014 0.036 -0.02 0.03 -0.027 -0.009 -0.023 -0.023 -0.02 -0.096 -0.042 -0.038 -0.04 -0.083 -0.065 0.045 -0.018 0.145 -0.01 0.101 0.045 0.095 0.053 0.058 0 0.052 -0.022 0.12 -0.068 0.1 -0.085 0.091 -0.097 0.073 -0.058 0.084 -0.005 0.247 0.181 0.087 0.007 0.29 -0.098 0.032 0.005 0.098 0.05 z M -67.08 55.154 l -0.03 0.038 -0.063 0.05 -0.085 0.039 -0.082 0.011 -0.06 -0.02 -0.03 -0.036 -0.014 -0.035 -0.02 -0.019 -0.031 -0.004 -0.041 0.001 -0.05 0.013 -0.106 0.051 -0.046 0.013 -0.031 0.003 -0.302 -0.038 -0.029 -0.014 -0.036 -0.034 -0.039 -0.101 -0.127 -0.091 0.194 -0.051 0.233 0 0.45 0.039 0.179 0.009 0.138 0.086 0.022 0.052 z M -73.773 43.346 l -0.075 0.021 -0.07 0.005 -0.071 -0.015 -0.124 0.001 -0.124 -0.039 -0.116 -0.055 -0.032 -0.032 0.014 -0.046 0.084 -0.106 0.08 -0.201 0.053 -0.288 -0.043 -0.109 0.005 -0.045 0.019 -0.054 0.01 -0.056 -0.006 -0.057 0.01 -0.053 0.088 -0.111 0.013 -0.05 0.003 -0.054 0.038 -0.111 -0.012 -0.037 -0.033 -0.031 0.026 -0.027 0.306 0.082 0.203 0.019 0.011 0.085 0.039 0.066 0.023 0.119 0.032 0.027 -0.016 0.085 -0.094 0.037 0.008 0.078 0.054 0.074 -0.078 0.026 -0.085 0.016 -0.02 0.021 -0.061 0.016 -0.075 0.041 0.022 0.036 0.094 0.083 0.105 0.057 0.058 0.086 0.074 0.089 -0.036 0.057 -0.068 0.08 -0.109 0.053 -0.1 0.032 0.012 0.132 z M -74.476 49.148 l 0.009 0.147 -0.017 0.147 -0.038 0.181 0.006 0.037 0.045 0.009 0.012 0.023 -0.013 0.095 -0.024 0.073 -0.046 0.06 -0.027 0.072 -0.025 0.016 -0.109 0.013 -0.06 -0.008 -0.048 -0.082 -0.014 -0.05 0.003 -0.066 -0.058 -0.088 -0.002 -0.034 0.023 -0.058 0.047 -0.029 0.007 -0.089 0.024 -0.027 0.054 -0.037 0.008 -0.015 -0.005 -0.013 -0.02 -0.001 -0.216 0.111 -0.021 0.031 -0.01 0.042 -0.003 0.146 -0.038 0.084 -0.034 0.016 -0.101 0.004 -0.133 -0.008 -0.151 -0.078 -0.099 0.021 -0.02 -0.094 0.049 -0.075 0.184 0.007 0.031 -0.134 -0.058 -0.032 -0.065 -0.054 -0.039 -0.05 0.034 -0.037 0.106 -0.053 0.057 -0.006 0.053 0.03 0.131 -0.023 -0.008 -0.085 -0.116 -0.037 0.026 -0.064 0.147 -0.062 0.088 -0.062 0.004 -0.071 -0.036 -0.071 0.011 -0.028 0.073 -0.058 0.103 -0.028 0.047 0.004 0.095 0.041 0.085 0.005 0.021 0.012 0.015 0.046 z M -75.51 48.763 l -0.113 0.001 -0.028 -0.178 0.132 -0.258 0.009 -0.098 -0.044 -0.074 -0.018 -0.061 0.011 -0.025 0.169 -0.051 0.053 0.054 0.063 0.144 0.12 0.207 -0.003 0.197 -0.067 0.049 -0.209 0.05 z M -74.386 52.922 l 0.016 0.009 0.039 -0.002 0.055 0.016 0.209 0.02 0.187 0.047 0.097 0.044 0.128 0.014 0.105 0.056 0.045 0.014 0.054 0.004 0.14 0.103 0.008 0.012 0.159 0.081 0.008 0.013 -0.091 0.004 -0.184 -0.038 -0.092 -0.002 -0.066 -0.012 -0.016 -0.007 -0.013 -0.047 -0.021 -0.023 -0.176 -0.109 -0.073 -0.024 -0.127 -0.021 -0.145 0.015 -0.098 -0.014 -0.034 0.005 -0.144 -0.087 -0.144 -0.073 -0.062 -0.087 -0.092 -0.067 0 -0.019 0.042 -0.015 0.098 0.037 0.097 0.064 0.052 0.024 z M -74.567 48.592 l -0.019 0.024 -0.123 -0.015 -0.213 0.025 -0.09 -0.091 -0.039 -0.144 -0.027 -0.03 -0.053 -0.082 -0.027 -0.054 -0.054 -0.084 -0.021 -0.088 -0.013 -0.027 0.049 -0.052 0.223 -0.052 0.079 -0.083 0.068 0.011 -0.019 0.17 0.041 0.057 0.076 0.048 0.014 0.02 0.013 0.06 0.038 0.093 0.049 0.044 0.013 0.027 0.002 0.023 -0.018 0.032 z M -72.923 53.482 l 0.027 0.081 0.014 0.016 0.073 -0.013 0.124 -0.007 0.203 0.03 0.023 0.011 0.086 0.089 0.066 0.038 0.101 0.082 -0.101 0.055 -0.06 0.079 -0.003 0.04 -0.039 0.023 -0.062 0.024 -0.092 0.046 -0.114 0.005 -0.112 0.024 -0.052 0.022 -0.031 0.001 -0.036 -0.012 -0.039 -0.023 -0.013 -0.026 0.077 -0.024 0.1 -0.087 0.018 -0.09 -0.108 -0.016 -0.064 0.012 -0.048 0 -0.055 -0.028 -0.034 0.042 -0.013 0.041 0.015 0.062 -0.01 0.02 -0.039 0.011 -0.091 -0.024 -0.094 -0.042 -0.007 -0.024 0.019 -0.084 -0.002 -0.044 -0.019 -0.063 -0.01 -0.007 -0.035 0.001 -0.111 0.012 -0.111 -0.081 -0.06 -0.085 -0.204 -0.025 0.159 -0.119 0.239 -0.017 0.081 0.06 0.267 0.042 -0.016 -0.064 0.004 -0.023 0.037 -0.028 0.021 -0.002 0.032 0.02 0.051 0.008 0.024 0.019 z M -74.823 51.63 l 0.043 0.195 0.031 0.027 0.102 0.014 0.111 0.099 0.005 0.027 -0.134 0.168 -0.029 0.119 -0.157 -0.008 -0.066 -0.118 -0.099 -0.114 -0.034 -0.134 -0.055 -0.115 0.097 -0.065 0.093 0.015 0.006 -0.088 z M -69.703 54.919 l 0.802 0.099 0.247 -0.06 0.196 0.002 0.058 0.082 -0.198 0.086 -0.015 0.027 0.028 0.022 0.204 0.014 0.052 0.028 0.047 0.036 -0.04 0.053 -0.004 0.025 0.021 0.024 0.153 0.08 0.063 0.041 0.032 0.04 0.013 0.07 -0.003 0.056 -0.034 0.007 -0.074 -0.017 -0.073 -0.032 -0.064 -0.08 -0.045 -0.016 -0.129 -0.016 -0.127 -0.039 -0.099 0.002 -0.091 -0.017 -0.082 0.015 -0.029 -0.026 -0.035 -0.053 -0.001 -0.023 0.043 -0.084 -0.001 -0.022 -0.023 -0.003 -0.096 0.017 -0.039 -0.011 -0.104 -0.061 -0.042 -0.012 -0.104 -0.006 -0.059 0.108 -0.003 0.027 0.06 0.069 0.118 0.105 -0.06 0.002 -0.171 -0.033 -0.044 -0.02 -0.053 -0.053 -0.102 -0.031 -0.036 -0.019 -0.01 -0.022 -0.001 -0.069 -0.022 -0.01 -0.144 0.018 -0.03 -0.017 -0.012 -0.029 -0.021 -0.017 -0.093 -0.027 -0.008 -0.017 0.041 -0.02 0.026 -0.05 0.036 -0.179 z M -71.39 54.033 l 0.222 0.08 0.147 -0.001 -0.001 0.05 0.018 0.085 -0.023 0.034 -0.055 0.035 -0.035 0.05 -0.026 0.008 -0.161 -0.06 -0.169 -0.082 -0.085 0.014 -0.112 -0.02 -0.091 0.004 -0.056 0.047 -0.131 0.024 -0.024 -0.094 -0.119 -0.088 -0.119 -0.071 0.064 -0.109 0.077 -0.018 0.072 -0.036 0.291 0.038 0.151 0.033 z M -73.735 44.395 l -0.049 0.043 -0.078 0.008 -0.121 0.05 -0.013 0.043 -0.006 0.053 0.083 0.064 0.041 0.074 0.05 0.111 0.036 0.106 -0.003 0.033 0.009 0.055 0.059 0.085 0.005 0.039 -0.006 0.038 -0.024 0.071 -0.019 0.01 -0.059 0.007 -0.005 0.043 -0.015 0.014 -0.167 0.004 -0.083 -0.02 0.01 -0.13 -0.106 -0.051 -0.073 -0.086 -0.082 -0.148 -0.069 -0.046 -0.08 -0.117 -0.119 -0.1 0.137 -0.063 -0.021 -0.111 0.08 -0.038 0.12 -0.04 0.089 0.031 0.08 -0.011 0.036 -0.027 -0.011 -0.113 0.025 -0.089 0.088 -0.046 0.095 -0.005 0.036 0.05 0.047 0.05 0.115 0.039 0 0.051 z M -72.986 44.78 l -0.242 0.08 -0.122 -0.027 -0.047 -0.059 -0.023 -0.05 -0.025 -0.084 0.041 -0.045 0.089 -0.065 0.033 -0.042 0.016 -0.049 -0.006 -0.046 0.012 -0.044 0.052 -0.015 0.179 0.049 0.186 0.074 0.066 0.051 0.012 0.04 -0.081 0.089 -0.052 0.074 z M -75.042 44.89 l -0.025 0.016 -0.031 -0.005 -0.025 -0.032 -0.018 -0.054 0.035 -0.021 0.028 0 0.031 0.029 0.016 0.047 z M -75.302 50.68 l -0.028 0.092 -0.081 -0.008 -0.027 -0.023 -0.014 -0.059 -0.025 -0.028 0.035 -0.059 0.023 -0.065 -0.008 -0.05 0.124 0.003 0.148 0.013 0.041 0.014 -0.045 0.044 -0.043 0.026 -0.089 0.016 z M -75.107 48.837 l -0.008 0.079 -0.148 0.153 -0.127 0.09 -0.116 0.071 -0.074 -0.001 -0.061 -0.035 0.068 -0.057 0.085 -0.056 -0.027 -0.073 -0.026 -0.021 -0.036 -0.008 -0.062 -0.038 0.019 -0.057 0.036 -0.027 0.048 -0.021 0.045 0.012 0.193 -0.04 0.061 -0.032 0.118 -0.006 z M -75.112 47.838 l -0.074 0.013 -0.008 -0.033 -0.067 -0.054 0.058 -0.036 0.113 -0.037 0.086 0.004 0.077 0.028 0.01 0.033 -0.135 0.044 -0.033 0.024 z M -74.669 43.608 l -0.142 0.018 -0.032 -0.03 0.001 -0.025 0.024 -0.021 0.073 -0.013 0.048 0.017 0.025 0.024 0.008 0.022 z M -73.632 44.821 l -0.033 0.011 -0.03 -0.002 -0.03 -0.034 -0.01 -0.045 -0.065 -0.068 -0.018 -0.032 0.001 -0.038 0.037 -0.055 0.056 -0.015 0.037 0.002 0.045 0.065 0.013 0.07 0.012 0.072 z M -74.559 51.277 l -0.002 0.084 -0.032 0.027 -0.028 0.008 -0.07 -0.025 -0.04 -0.003 -0.066 0.044 -0.056 0.022 -0.083 -0.006 -0.111 -0.03 -0.099 0.126 -0.046 0.042 -0.097 0.059 -0.011 -0.069 0.062 -0.103 0.028 -0.07 0.056 -0.104 0.113 0.039 0.159 -0.039 0.145 -0.072 0.125 0 0.041 0.038 z M -75.055 50.296 l -0.196 0.08 -0.057 -0.033 -0.141 0 0.037 -0.087 0.014 -0.064 0.021 -0.025 0.008 -0.055 0.042 -0.101 0.117 0.034 0.087 0.01 0.118 0.033 0.128 0.021 0.037 0.087 -0.125 0.04 z M -73.811 43.827 l 0.021 0.049 -0.044 0.007 -0.071 -0.008 -0.034 0.039 -0.017 0.008 -0.162 -0.034 -0.025 -0.015 0.003 -0.051 0.173 -0.004 0.11 -0.033 0.016 0.005 z M -74.142 51.931 l -0.03 0.011 -0.111 -0.023 -0.056 -0.021 -0.085 -0.053 -0.013 -0.054 -0.038 -0.065 0.025 -0.001 0.089 0.026 0.036 0.02 0.049 0.041 0.144 0.059 0.018 0.018 -0.003 0.023 z M -74.313 45.692 l -0.056 0.044 -0.097 0.021 -0.096 -0.035 -0.116 0.016 -0.012 -0.076 0.043 -0.063 0.088 -0.074 0.064 -0.1 -0.008 -0.141 0.052 -0.032 0.028 -0.05 0.111 -0.031 0.025 0.105 -0.03 0.187 0.075 0.11 0.011 0.037 -0.015 0.042 z M -67.575 55.89 l -0.036 0.002 -0.088 -0.019 -0.132 -0.008 -0.015 -0.008 -0.003 -0.015 0.016 -0.015 0.072 -0.011 0.217 0.01 0.028 0.007 0.007 0.012 -0.035 0.033 z M -66.472 55.229 l -0.08 0.044 -0.059 -0.003 -0.019 -0.016 -0.006 -0.02 0.012 -0.021 0.025 -0.019 0.058 -0.024 0.018 -0.004 0.087 0.024 z M -70.992 54.868 l 0.046 0.063 0.017 0.012 0.123 0.025 0.056 -0.015 0.134 -0.007 0.081 -0.024 0.117 -0.012 0.134 0.157 -0.015 0.048 -0.106 0.052 -0.071 0.011 -0.068 -0.016 0.005 -0.026 -0.012 -0.023 -0.046 -0.03 -0.043 0.003 -0.07 0.022 -0.033 -0.003 -0.071 -0.024 -0.124 -0.018 -0.025 -0.022 -0.003 -0.033 -0.023 -0.016 -0.13 -0.053 -0.083 -0.045 -0.07 -0.006 -0.026 0.005 -0.026 0.021 -0.063 0.021 -0.018 -0.003 -0.02 -0.017 -0.01 -0.025 0.027 -0.05 0.036 -0.005 0.177 0.01 0.108 0.023 z M -67.289 55.777 l -0.036 0.008 -0.027 -0.019 -0.041 -0.013 -0.167 -0.028 -0.004 -0.017 0.017 -0.024 0.033 -0.022 0.064 -0.021 0.051 -0.055 0.023 0.004 0.023 0.023 0.04 0.077 0.048 0.055 -0.005 0.019 z" vector-effect="non-scaling-stroke" fill="#000" fill-opacity="1" stroke="#FFF" stroke-width="0px" stroke-linejoin="round" stroke-linecap="round"/></svg>
