<svg xmlns="http://www.w3.org/2000/svg" xmlns:xlink="http://www.w3.org/1999/xlink" height="400" width="400" viewBox="73.60732421875 -53.555615234375 61.14501953125 35.337353515625"><path d="M 118.183 -24.496 l -0.033 0.06 -0.059 -0.01 -0.002 -0.043 -0.012 -0.013 0.016 -0.04 0.011 -0.011 0.067 0.034 z M 121.863 -31.492 l -0.082 0.029 -0.261 -0.086 -0.183 -0.094 -0.11 -0.114 -0.016 -0.047 0.128 0.008 0.125 0.041 0.028 0.063 0.05 0.02 0.034 0.037 0.232 0.085 0.035 0.026 z M 122.296 -29.963 l -0.014 0.02 -0.124 -0.057 -0.134 -0.012 -0.046 -0.05 -0.008 -0.079 0.141 0.003 0.174 0.072 0.038 0.037 z M 122.173 -29.679 l -0.004 0.019 -0.085 -0.065 -0.041 -0.011 0.02 -0.037 0.057 -0.009 0.045 0.081 z M 122.404 -29.892 l -0.01 0.046 -0.026 -0.007 -0.036 -0.082 0.019 -0.02 0.051 0.005 z M 119.821 -25.457 l -0.074 0.046 -0.046 -0.022 -0.001 -0.062 0.024 -0.056 -0.027 -0.04 0.027 -0.048 0.055 -0.014 0.02 0.03 0.031 0.016 0.01 0.016 0 0.031 -0.03 0.052 0.023 0.028 z M 110.385 -21.093 l 0.037 0.035 0.099 -0.025 0.018 0.044 -0.001 0.021 -0.035 0.051 -0.082 -0.039 -0.082 0.009 -0.059 -0.003 -0.016 -0.024 0.045 -0.05 z M 121.251 -28.086 l -0.087 0.024 -0.033 0 0.002 -0.073 0.071 -0.069 0.029 0.023 0.017 0.036 z M 113.555 -22.804 l 0.008 0.046 -0.078 -0.07 -0.022 -0.004 -0.037 -0.026 -0.022 -0.044 0.061 -0.002 0.056 0.052 z M 112.79 -21.602 l -0.019 0.02 -0.029 -0.036 -0.008 -0.052 -0.021 -0.028 0.048 -0.035 0.021 -0.039 0.057 0.008 0.024 0.012 -0.05 0.04 -0.012 0.017 z M 112.644 -21.64 l -0.098 0.021 -0.021 -0.005 0.034 -0.052 0.089 -0.035 z M 107.973 -21.508 l -0.064 -0.052 -0.106 -0.085 -0.043 -0.01 -0.118 0.041 -0.17 0.016 -0.038 -0.044 -0.082 0.033 -0.079 -0.102 -0.094 -0.006 -0.117 -0.077 -0.042 -0.041 -0.013 -0.059 -0.035 -0.031 -0.046 0.004 -0.051 -0.031 -0.08 -0.031 -0.065 -0.018 -0.032 0.014 -0.034 0.007 -0.006 -0.039 0.002 -0.118 -0.006 -0.105 -0.018 -0.047 -0.043 -0.036 -0.04 -0.017 -0.017 -0.054 0.014 -0.106 0.032 -0.072 0.051 -0.013 0.068 -0.052 0.035 -0.073 0.044 -0.068 -0.156 -0.095 -0.082 -0.034 -0.091 0.014 -0.113 0.03 -0.059 0.006 -0.03 -0.012 -0.065 -0.086 -0.036 -0.015 -0.08 -0.005 -0.067 0.001 -0.039 0.037 -0.06 0.013 -0.06 0.002 -0.061 -0.047 -0.091 -0.061 -0.143 -0.043 -0.017 -0.049 -0.036 -0.059 -0.054 -0.054 -0.09 -0.072 -0.075 -0.038 -0.037 0.023 -0.05 0.041 -0.193 0.087 -0.086 0.034 -0.045 0.024 -0.038 0.036 -0.012 0.089 -0.019 0.1 -0.056 0.051 -0.053 0.038 -0.056 0.004 -0.054 -0.002 -0.051 0.016 -0.155 0.1 -0.073 -0.008 -0.06 -0.056 -0.026 -0.041 -0.069 0.009 -0.089 0.048 -0.041 0.086 -0.022 0.08 -0.019 0.036 -0.03 0.01 -0.026 0.002 -0.278 -0.232 -0.017 -0.012 -0.05 0.048 -0.045 0.123 -0.032 0.024 -0.022 -0.009 -0.115 -0.157 -0.029 -0.015 -0.026 0.005 -0.034 0.051 -0.073 0.075 -0.056 0.046 -0.001 0.051 -0.06 0.045 -0.071 0.045 -0.023 0.005 -0.047 -0.018 -0.061 -0.059 -0.044 -0.062 -0.109 -0.061 -0.122 -0.052 -0.081 -0.041 -0.046 -0.01 -0.043 0.018 -0.021 0.025 -0.031 0.061 -0.074 0.101 -0.065 0.08 -0.061 0.051 -0.049 0.035 -0.036 -0.033 -0.067 -0.027 -0.079 0 -0.104 0.051 -0.082 -0.102 -0.021 -0.005 -0.031 0.009 -0.036 0.024 -0.025 0.057 -0.026 0.078 -0.052 0.051 -0.043 0.023 0.013 0.044 0.025 0.047 -0.002 0.042 0.016 0.066 0.027 0.066 0.097 0.107 0.037 0.056 0.007 0.049 0.003 0.172 -0.004 0.072 -0.019 0.139 -0.001 0.08 0.04 0.036 0.039 0.043 -0.001 0.023 -0.017 0.008 -0.055 0.048 -0.023 0.006 -0.036 -0.019 -0.047 -0.015 -0.038 -0.019 -0.042 -0.031 -0.099 0.003 -0.162 0.047 -0.034 -0.013 -0.023 -0.026 -0.013 -0.054 0.008 -0.064 -0.014 -0.041 -0.03 -0.024 0.021 -0.115 -0.058 -0.045 0.008 -0.014 -0.019 -0.123 0.003 -0.03 -0.01 -0.011 -0.041 -0.01 -0.06 0.019 -0.184 0.081 -0.158 0.15 -0.073 0.033 -0.073 0.014 -0.086 -0.026 -0.095 -0.017 -0.136 0.038 -0.067 -0.018 -0.031 -0.031 -0.028 -0.047 0.017 -0.059 -0.01 -0.044 -0.054 -0.022 -0.063 -0.019 -0.038 -0.057 -0.015 -0.062 0.015 -0.081 0.007 -0.087 -0.03 -0.04 -0.092 -0.022 -0.233 -0.039 -0.204 -0.022 -0.086 0.01 -0.07 -0.01 -0.04 -0.016 -0.02 -0.027 -0.001 -0.039 0.033 -0.09 0.038 -0.088 0.095 -0.128 0.005 -0.088 -0.005 -0.102 0.047 -0.136 0.082 -0.102 0.04 -0.032 -0.01 -0.045 -0.033 -0.042 -0.046 -0.023 -0.077 -0.027 -0.121 -0.007 -0.165 -0.027 -0.191 -0.061 0.022 -0.116 -0.003 -0.073 -0.024 -0.06 -0.039 -0.042 -0.022 -0.038 0.034 -0.104 -0.045 -0.113 -0.053 -0.045 -0.054 -0.059 -0.004 -0.063 0.025 -0.059 0.132 -0.127 0.001 -0.031 -0.033 0.002 -0.038 0.003 -0.181 0.046 -0.019 -0.029 -0.065 -0.017 -0.132 -0.003 -0.155 0.008 -0.196 0.045 -0.179 0.079 -0.082 0.054 -0.07 0.034 -0.056 0.011 -0.065 -0.024 0.004 -0.077 0.122 -0.142 0.018 -0.098 -0.038 -0.084 -0.004 -0.067 -0.043 -0.043 -0.06 -0.021 -0.032 -0.048 -0.002 -0.14 0.054 -0.144 0.087 -0.045 0.053 -0.022 0.014 -0.028 -0.027 -0.1 0.004 -0.064 0.052 -0.124 0.052 -0.094 0.098 0.016 0.044 -0.023 0.049 -0.033 0.053 -0.056 0.036 -0.067 0.043 -0.155 0.03 -0.023 0.124 0.026 0.037 -0.018 0.068 -0.091 0.064 -0.111 0.093 -0.034 0.067 -0.003 0.031 -0.037 -0.002 -0.054 -0.064 -0.086 -0.027 -0.069 0.008 -0.042 0.091 -0.025 0.022 -0.05 -0.014 -0.109 0.038 -0.131 0.022 -0.154 0.008 -0.115 -0.001 -0.088 -0.009 -0.092 -0.013 -0.168 -0.042 -0.146 0.008 -0.055 -0.006 -0.177 -0.026 -0.151 -0.051 -0.026 -0.095 -0.049 -0.052 -0.01 -0.044 0.018 -0.017 0.052 -0.042 0.049 -0.052 -0.012 -0.025 -0.049 -0.033 -0.064 -0.111 -0.304 -0.012 -0.088 -0.019 -0.087 -0.037 -0.044 -0.039 -0.026 -0.088 -0.102 -0.046 -0.043 -0.023 -0.007 -0.048 0.007 -0.047 0 -0.039 -0.051 -0.035 -0.062 -0.036 -0.031 -0.06 -0.017 -0.061 0.007 -0.036 0.054 -0.024 0.031 -0.046 0.072 -0.075 0.099 -0.034 0.037 -0.033 -0.019 -0.144 -0.104 -0.07 -0.029 -0.095 0.031 -0.148 -0.025 -0.057 -0.005 -0.123 -0.083 -0.05 -0.01 -0.175 0.054 -0.039 0.038 -0.023 0.001 -0.047 -0.019 -0.038 -0.026 -0.003 -0.016 0.047 -0.04 0.004 -0.028 -0.003 -0.029 0.068 -0.081 0.185 -0.157 -0.031 -0.066 -0.073 -0.13 -0.01 -0.063 -0.031 -0.028 -0.089 0.023 -0.185 0.118 -0.025 -0.013 0.004 -0.041 -0.019 -0.119 0.058 -0.036 0.09 -0.044 0.069 -0.049 0.016 -0.039 -0.019 -0.012 -0.102 0.015 -0.04 -0.027 -0.066 -0.109 -0.049 -0.043 -0.044 -0.023 -0.15 0.056 -0.175 0.077 -0.195 0.107 0.001 0.055 -0.023 0.014 -0.037 0.035 -0.036 0.048 -0.031 0.017 -0.036 0.002 -0.074 -0.014 -0.134 -0.054 -0.146 -0.045 -0.031 0.005 -0.198 -0.032 -0.006 -0.025 -0.03 -0.05 -0.056 -0.045 -0.054 -0.015 -0.155 0.096 -0.175 0.072 -0.1 0.085 -0.082 0.084 -0.094 0.016 -0.004 0.052 -0.04 0.047 -0.071 0.058 -0.142 0.073 -0.096 0.04 -0.304 0.036 -0.109 0.025 -0.045 0.039 -0.049 0.098 -0.039 0.09 -0.084 0.075 -0.153 0.1 -0.18 0.081 -0.049 0.054 -0.009 0.032 0.022 0.012 0.022 0.024 0 0.037 -0.023 0.04 -0.118 0.07 -0.066 0.033 -0.066 0.021 -0.074 0.004 -0.071 -0.009 -0.02 -0.011 -0.028 0.015 -0.065 0.015 -0.056 0.005 -0.124 0.077 -0.068 0.001 -0.085 -0.017 -0.112 -0.013 -0.081 0 -0.003 -0.041 0.012 -0.122 -0.036 -0.028 -0.112 -0.03 -0.126 -0.04 -0.061 -0.042 -0.034 -0.014 -0.047 0.007 -0.076 0.044 -0.072 0.052 -0.057 0.004 -0.058 -0.025 -0.056 -0.032 -0.191 -0.045 -0.086 -0.007 -0.153 0.008 -0.125 -0.009 -0.02 -0.014 0.001 -0.025 0.018 -0.049 0.011 -0.048 -0.015 -0.027 -0.127 -0.034 -0.116 -0.024 -0.123 -0.009 -0.083 0.017 -0.081 0.038 -0.067 0.068 -0.097 0.03 -0.116 0.051 -0.056 0.047 -0.085 0.102 -0.123 0.125 -0.112 0.122 -0.058 0.119 -0.077 0.075 -0.078 0.054 -0.056 0.148 -0.059 -0.047 -0.068 -0.067 -0.016 -0.092 0.081 -0.246 0.019 -0.101 -0.02 -0.039 -0.025 -0.1 -0.047 -0.033 -0.135 -0.052 -0.043 -0.002 -0.046 0.036 -0.046 0.023 -0.06 0.023 -0.151 0.043 -0.134 0.02 -0.032 0.016 -0.01 0.028 0.011 0.034 -0.086 -0.013 -0.09 -0.007 -0.073 0.005 -0.178 0.065 -0.06 0.006 -0.067 -0.007 -0.091 -0.002 -0.173 0.002 -0.149 -0.016 -0.121 -0.09 -0.086 -0.04 -0.091 -0.031 -0.092 -0.023 -0.031 -0.049 -0.029 -0.024 -0.076 -0.008 -0.06 0.018 -0.038 0.122 -0.032 0.024 -0.076 0.011 -0.08 -0.031 -0.111 -0.063 -0.044 -0.07 -0.037 -0.023 -0.058 0.031 -0.003 0.089 -0.011 0.06 -0.07 0.024 -0.04 -0.018 -0.032 -0.061 -0.081 -0.146 -0.081 -0.085 -0.081 -0.057 -0.268 0.001 -0.199 -0.017 -0.09 -0.023 -0.034 -0.056 0.033 -0.112 0.039 -0.088 -0.001 -0.02 -0.033 -0.01 -0.057 -0.007 -0.214 0.056 -0.058 -0.007 -0.037 -0.019 -0.045 -0.016 -0.038 -0.026 -0.026 -0.038 -0.185 -0.093 -0.055 -0.051 -0.099 -0.064 -0.083 -0.044 -0.053 -0.125 -0.048 -0.12 -0.026 -0.064 -0.079 -0.034 -0.086 -0.026 -0.146 0.052 -0.119 0.04 -0.088 0.004 -0.127 -0.123 -0.101 -0.133 -0.12 -0.115 -0.08 -0.058 -0.142 -0.005 -0.16 -0.065 -0.213 -0.148 -0.154 -0.11 -0.266 -0.122 -0.062 -0.051 -0.024 -0.044 -0.036 -0.086 -0.056 -0.082 -0.188 -0.036 -0.213 -0.025 -0.225 0.05 -0.162 0.244 -0.078 0.053 -0.067 0.003 -0.055 -0.062 -0.045 -0.066 -0.025 -0.073 -0.112 -0.053 -0.127 -0.07 -0.065 -0.054 -0.073 -0.034 -0.068 -0.015 -0.131 -0.046 -0.149 -0.052 -0.07 -0.007 -0.005 -0.037 0.021 -0.078 -0.013 -0.075 -0.045 -0.031 -0.068 0.008 -0.157 -0.107 -0.006 -0.001 -0.002 -0.004 -0.045 -0.03 -0.077 -0.044 -0.13 0.003 -0.099 0.016 -0.072 -0.045 -0.105 -0.071 -0.019 -0.016 -0.031 -0.026 -0.106 -0.136 -0.125 -0.161 -0.063 -0.024 -0.033 0.012 -0.037 0.085 -0.028 -0.009 -0.046 0.006 -0.055 0.03 -0.053 0.008 -0.034 -0.009 -0.014 -0.021 0.015 -0.113 -0.032 -0.035 0.028 -0.078 0.048 -0.068 -0.049 -0.05 -0.06 -0.072 -0.006 -0.065 0.033 -0.082 0.016 -0.07 -0.01 -0.026 -0.048 -0.039 -0.182 -0.193 -0.01 -0.02 -0.031 -0.064 -0.014 -0.097 -0.024 -0.069 -0.028 -0.053 0.002 -0.025 0.021 -0.013 0.114 -0.013 0.105 -0.008 0.069 -0.018 0.036 0.039 0.017 0.059 0.018 0.031 0.067 0.056 0.081 0.054 0.079 -0.007 0.069 -0.023 0.06 -0.088 0.043 -0.021 0.049 -0.004 0 -0.006 -0.003 -0.056 0.017 -0.139 -0.006 -0.056 -0.022 -0.05 0.004 -0.056 -0.007 -0.081 -0.057 -0.055 -0.037 -0.021 -0.006 -0.03 0.019 -0.056 0.013 -0.064 -0.023 -0.054 -0.046 -0.024 -0.054 -0.041 -0.064 -0.055 -0.032 -0.04 -0.052 -0.044 -0.063 -0.069 -0.012 -0.151 -0.006 -0.158 -0.022 -0.079 -0.035 -0.126 0.005 -0.042 0.021 -0.032 0.179 -0.101 0.039 -0.039 0.006 -0.03 -0.007 -0.045 -0.034 -0.049 -0.072 -0.038 -0.102 -0.063 -0.092 -0.065 -0.155 -0.04 -0.189 -0.048 -0.045 -0.048 -0.046 -0.116 -0.078 -0.177 -0.083 -0.188 -0.064 -0.116 -0.003 -0.056 0.038 -0.142 -0.005 -0.03 -0.033 -0.01 -0.064 0.019 -0.051 0.023 -0.043 -0.012 -0.041 -0.024 -0.008 -0.008 -0.003 -0.003 -0.075 0.015 -0.151 0.009 -0.053 -0.002 -0.074 -0.002 -0.152 -0.033 -0.205 -0.044 -0.211 -0.061 -0.112 -0.048 -0.039 -0.017 -0.096 -0.051 -0.068 -0.044 -0.012 -0.114 -0.049 0.009 -0.116 0.041 -0.134 0.026 -0.074 0 -0.03 -0.018 -0.045 -0.12 -0.032 -0.034 -0.06 -0.013 -0.065 -0.021 -0.033 -0.031 -0.007 -0.04 0.029 -0.045 0.035 -0.035 0.006 -0.214 -0.023 -0.076 -0.019 -0.063 -0.048 -0.079 -0.045 -0.049 -0.068 -0.045 -0.105 -0.047 -0.093 -0.017 -0.113 0.034 -0.036 -0.013 -0.047 -0.145 -0.03 -0.03 -0.201 -0.06 -0.091 -0.014 -0.105 0.019 -0.06 0.016 -0.048 -0.027 -0.075 -0.034 -0.074 -0.023 -0.092 -0.001 -0.059 0.015 -0.015 -0.008 -0.029 -0.027 -0.122 -0.08 -0.004 -0.02 0.187 -0.079 0.11 -0.03 0.058 -0.024 0.012 0.005 0.028 0.036 0.073 0.024 0.051 -0.007 0.027 -0.018 0.09 -0.044 0.071 -0.05 0.04 -0.042 -0.021 -0.066 -0.111 -0.079 -0.071 -0.042 -0.022 -0.029 0.018 -0.086 0.026 -0.085 -0.017 -0.032 -0.021 -0.028 -0.009 -0.093 -0.048 -0.112 -0.053 -0.066 -0.015 -0.088 -0.003 -0.083 0.064 -0.13 -0.024 -0.056 -0.067 -0.05 -0.231 -0.09 -0.237 -0.06 -0.09 0.002 -0.056 -0.004 -0.066 0.053 -0.04 0.069 -0.056 0.006 -0.101 -0.029 -0.067 -0.044 -0.048 -0.092 -0.037 -0.118 -0.021 -0.037 0.011 -0.032 0.023 -0.028 0.065 -0.027 0.011 -0.027 -0.01 -0.033 -0.052 -0.042 -0.053 -0.06 -0.083 -0.125 0.016 -0.069 0.013 -0.099 -0.005 -0.052 0.084 -0.013 0.107 -0.027 0.05 -0.044 0.034 -0.045 0.008 -0.028 -0.032 -0.108 -0.043 -0.048 -0.004 -0.037 0.021 -0.029 0.028 -0.049 0.054 -0.101 0.053 -0.064 0.029 -0.016 0.065 -0.015 0.158 -0.018 0.169 -0.045 0.201 -0.135 0.067 -0.038 0.088 -0.019 0.063 0.001 0.011 -0.016 -0.041 -0.084 0.01 -0.03 0.024 -0.024 0.03 -0.011 0.139 0.044 0.107 -0.005 0.13 -0.026 0.28 -0.147 0.035 0.002 0.028 0.02 0.034 0.089 0.039 0.187 0.021 0.023 0.195 0.003 0.132 -0.068 0.058 -0.016 0.094 0.011 0.049 -0.032 0.052 -0.022 0.06 0.079 0.078 -0.038 0.084 -0.06 0.041 -0.062 0.057 -0.067 0.044 -0.084 0.018 -0.08 0.021 -0.037 0.047 -0.038 0.116 -0.164 0.084 -0.042 0.079 -0.015 0.195 0.028 0.102 -0.004 0.298 0.022 0.138 -0.032 0.096 -0.031 0.141 0.005 0.167 -0.025 0.223 -0.206 0.003 -0.044 0.014 -0.046 0.08 -0.046 0.1 -0.042 0.199 -0.1 0.406 -0.159 0.145 -0.064 0.061 0.002 0.15 -0.04 0.262 -0.078 0.074 -0.097 0.069 -0.019 0.307 -0.017 0.019 -0.011 0.011 -0.016 -0.017 -0.07 -0.02 -0.06 0.024 -0.018 0.026 -0.028 -0.004 -0.039 -0.049 -0.125 -0.026 -0.119 -0.017 -0.107 0.003 -0.04 0.037 -0.069 0.048 -0.063 0.174 -0.058 0.115 -0.018 0.005 -0.038 -0.093 -0.024 -0.067 -0.038 -0.012 -0.022 0.003 -0.025 0.016 -0.023 0.117 -0.043 0.11 -0.042 0.134 0.026 0.027 -0.016 0.008 -0.043 -0.029 -0.043 -0.027 -0.07 -0.062 -0.036 -0.002 -0.043 0.038 -0.074 -0.053 -0.137 -0.057 -0.121 -0.097 -0.207 -0.064 -0.06 -0.036 -0.095 -0.041 -0.05 0.004 -0.074 0.006 -0.052 -0.01 -0.103 -0.019 -0.112 0.019 -0.114 0.036 -0.075 -0.01 -0.029 0.019 -0.021 0.055 -0.007 0.026 -0.031 -0.026 -0.031 -0.095 -0.024 -0.106 -0.038 -0.127 0.004 -0.131 0.007 -0.065 -0.028 -0.057 -0.036 -0.003 -0.023 0.078 -0.06 0.109 -0.062 0.169 -0.028 0.187 -0.041 0.094 -0.03 0.126 -0.022 0.145 -0.009 0.073 0.006 0.187 -0.04 0.294 -0.077 0.267 -0.065 0.09 -0.039 0.067 0.039 0.031 0.085 0.078 0.044 0.077 0.021 0.044 -0.001 0.133 -0.033 0.144 -0.024 0.057 0.013 0.073 0.043 0.082 0.039 0.043 -0.002 0.038 -0.03 0.038 -0.061 0.024 -0.077 0.005 -0.081 -0.014 -0.05 -0.029 -0.018 -0.131 -0.029 -0.125 -0.048 -0.014 -0.044 0.003 -0.031 0.033 -0.077 0.082 -0.14 0.082 -0.194 0.043 -0.153 0.137 -0.228 0.108 -0.238 0.175 -0.342 0.029 -0.067 0.016 -0.108 0.009 -0.044 0.061 -0.023 0.103 0.023 0.25 0.078 0.191 0.065 0.08 0.022 0.119 0.023 0.183 0.027 0.106 -0.008 0.093 -0.016 0.124 -0.001 0.194 0.02 0.06 0.001 0.074 0.003 0.053 0.033 0.026 0.075 0.04 0.034 0.072 -0.012 0.154 -0.066 0.098 -0.052 0.123 -0.075 0.122 -0.01 0.129 -0.017 0.045 -0.037 0.048 -0.088 0.079 -0.066 0.013 -0.084 -0.028 -0.059 -0.055 -0.096 0.002 -0.065 -0.027 -0.188 -0.036 -0.169 0.036 -0.136 0.064 -0.152 0.025 -0.047 0.041 -0.061 0.057 -0.073 0.08 -0.023 0.226 -0.016 0.209 -0.031 0.107 -0.032 0.111 -0.019 0.066 -0.023 0.114 -0.107 0.054 -0.062 0.04 -0.164 -0.029 -0.079 0.025 -0.069 0.055 -0.041 0.078 -0.041 0.052 -0.007 0.111 -0.012 0.181 0.004 0.093 0.02 0.094 0.009 0.059 -0.015 0.04 -0.031 0.061 -0.01 0.092 -0.015 0.094 -0.019 0.052 0.004 0.011 0.046 -0.009 0.036 0.018 0.048 0.038 0.032 -0.012 0.035 -0.053 0.02 -0.052 0.027 -0.012 0.037 0.066 0.046 0.023 0.044 0.11 0.026 0.086 0.03 0.032 0.028 -0.01 0.032 -0.04 0.035 -0.038 0.037 -0.005 0.022 0.012 0.026 0.083 0.017 0.096 0.029 0.152 0.037 0.104 0.069 0.103 0.019 0.05 0.067 0.009 0.097 0.106 0.05 0.156 0.069 0.079 0.013 0.053 0.039 0.077 0.047 0.068 0.015 0.081 0.007 0.134 -0.044 0.149 -0.004 0.082 0.025 0.078 0.095 0.055 0.03 0.032 0.027 0.053 0.025 0.053 0.004 0.079 -0.021 0.048 -0.042 0.069 0.009 0.026 0.027 0.013 0.047 0.037 0.058 0.088 0.043 0.122 0.026 0.017 0.021 0.017 0.058 0.033 0.04 0.045 0.053 0.042 0.096 0.009 0.079 0.02 0.044 0.057 0.071 0.09 0.114 0.072 0.096 0.083 0.019 0.071 0.031 0.041 0.071 0.075 0.134 0.012 0.088 0.006 0.065 0.025 0.03 0.005 0.037 -0.062 0.141 -0.053 0.064 -0.007 0.054 0.036 0.093 0.049 0.072 0.005 0.069 -0.042 0.051 -0.073 0.063 -0.035 0.036 -0.057 0.032 -0.086 0.123 -0.039 0.136 -0.009 0.07 0.033 0.051 0.055 0.056 0.014 0.048 0.09 0.108 0.024 0.067 0.037 0.002 0.04 -0.022 0.096 -0.002 0.088 0.023 0.084 0.049 0.09 0.026 0.129 -0.007 0.069 0.027 0.074 0.022 0.153 0.008 0.115 0 0.177 0.001 0.143 0.033 0.251 0.026 0.155 -0.002 0.209 -0.025 0.128 0.016 0.378 0.037 0.222 0.039 0.14 0.044 0.099 0.069 0.113 0.108 0.09 0.049 0.241 0.03 0.165 0.126 0.13 0.047 0.218 0.122 0.154 0.048 0.184 0.044 0.3 -0.019 0.017 0.017 -0.023 0.066 -0.018 0.091 0 0.066 0.031 0.033 0.115 0.02 0.054 0.032 0.042 0.062 0.024 0.039 0.096 0.19 0.155 0.28 0.018 0.108 0.053 0.069 0.168 0.11 0.088 0.082 0.131 0.086 0.043 0.079 0.01 0.103 0.033 0.026 0.24 -0.023 0.208 -0.016 0.373 -0.03 0.513 0.054 0.529 0.052 0.468 0.046 0.231 0.023 0.521 0.048 0.29 -0.061 0.226 -0.048 0.103 0.007 0.433 0.054 0.254 0.029 0.319 0.036 0.222 0.013 0.182 -0.001 0.084 0.015 0.081 0.023 0.054 0.034 0.166 0.173 0.093 0.076 0.184 0.058 0.419 0.066 0.232 0.04 0.266 0.046 0.175 0.069 0.202 0.081 0.261 0.105 0.286 -0.046 0.308 -0.049 0.193 -0.031 0 0.218 0.275 0.018 0.087 -0.003 0.122 0.048 0.069 -0.02 0.065 -0.047 0.082 -0.075 0.117 -0.033 0.203 -0.084 0.049 -0.02 0.301 -0.119 0.45 -0.147 0.202 -0.071 0.06 -0.016 0.114 -0.036 0.077 -0.025 0.136 -0.02 0.185 -0.013 0.202 -0.028 0.456 -0.052 0.057 -0.005 0.256 -0.021 0.109 -0.02 0.163 0.011 0.213 0.007 0.141 0.013 0.187 -0.01 0.257 -0.014 0.208 0.002 0.103 -0.018 0.152 -0.055 0.103 -0.043 0.161 -0.052 0.199 -0.054 0.139 -0.049 0.092 -0.033 0.112 -0.031 0.029 -0.04 0.032 -0.031 0.059 -0.051 0.107 -0.095 0.081 -0.083 0.04 -0.037 0.091 -0.083 0.074 -0.063 0.094 -0.085 0.079 -0.027 0.1 -0.023 0.264 -0.083 0.052 -0.018 0.044 -0.004 0.093 -0.067 0.079 -0.058 0.051 -0.043 0.107 -0.016 0.055 -0.031 0.01 -0.041 -0.011 -0.063 -0.051 -0.064 -0.043 -0.056 -0.153 -0.106 -0.081 -0.066 -0.083 -0.085 -0.033 -0.08 -0.057 -0.051 -0.027 -0.045 0.009 -0.052 0.079 -0.092 0.025 -0.058 0.033 -0.103 0.074 -0.154 0.06 -0.072 0.07 -0.07 0.147 -0.095 0.135 -0.018 0.08 0.019 0.179 0 0.119 0.005 0.088 0.047 0.097 0.093 0.11 0.034 0.343 0.073 0.147 0.016 0.105 0.003 0.155 0.024 0.052 0.005 0.079 0.017 0.066 -0.018 0.1 -0.062 0.125 -0.07 0.054 -0.016 0.099 -0.03 0.05 -0.029 0.087 -0.079 0.114 -0.061 0.138 -0.092 0.068 -0.069 0.015 -0.045 0.015 -0.048 0.043 -0.025 0.084 -0.023 0.094 -0.006 0.18 0.041 0.243 -0.012 0.055 -0.006 0.222 -0.024 0.1 -0.02 0.142 -0.019 0.108 -0.077 0.145 -0.091 0.105 -0.051 0.07 -0.01 0.088 -0.053 0.043 -0.057 -0.012 -0.05 -0.016 -0.041 0.052 -0.076 0.093 -0.134 0.087 -0.062 0.072 -0.05 0.046 -0.081 0.057 -0.023 0.07 -0.009 0.098 -0.055 0.072 -0.011 0.12 0.026 0.177 0.007 0.113 0.003 0.064 -0.01 0.024 -0.029 -0.001 -0.045 0.036 -0.101 0.013 -0.033 0.033 -0.015 0.109 -0.002 0.074 0.036 0.051 0.03 0.07 0.004 0.072 -0.02 0.097 -0.082 0.161 -0.047 0.086 -0.012 0.152 -0.038 0.096 0.014 0.176 0.011 0.068 -0.01 0.074 0.01 0.067 -0.055 0.054 -0.013 0.113 0.025 0.071 0.043 0.134 0.054 0.17 0.025 0.142 -0.013 0.146 0.023 0.086 -0.002 0.041 -0.021 0.12 -0.045 0.029 -0.061 -0.012 -0.059 0.014 -0.066 -0.035 -0.049 -0.074 -0.072 -0.029 -0.048 -0.003 -0.063 -0.046 -0.06 -0.111 -0.072 -0.073 -0.033 -0.15 -0.125 -0.051 -0.029 -0.017 -0.021 -0.018 -0.042 -0.056 -0.02 -0.073 -0.033 -0.039 -0.033 -0.026 -0.058 -0.015 -0.038 -0.064 -0.031 -0.064 -0.018 -0.073 -0.022 -0.12 -0.033 -0.069 -0.065 -0.123 -0.121 -0.069 -0.041 -0.259 -0.016 -0.093 -0.029 -0.105 0.01 -0.063 0.019 -0.139 0 -0.072 0.012 -0.092 0.08 -0.121 0.104 -0.1 0.063 -0.071 0.066 -0.033 0.024 -0.065 -0.014 -0.089 -0.074 -0.127 -0.066 -0.118 -0.03 -0.05 -0.017 -0.141 -0.017 -0.109 0.005 -0.138 0.025 -0.135 -0.004 -0.061 -0.016 -0.086 0.002 -0.156 0.069 -0.081 0.078 -0.096 0.024 -0.087 -0.051 -0.1 -0.061 -0.095 -0.076 -0.059 -0.07 -0.033 -0.186 0.114 -0.055 0.146 -0.062 0.011 -0.098 -0.005 -0.109 0.029 -0.122 0.133 -0.112 0.072 -0.093 0.009 -0.058 0.064 -0.096 0.061 -0.101 0.084 -0.133 0.159 -0.236 0.188 -0.279 0.094 -0.139 0.206 0.086 0.133 0.045 0.224 0.068 0.232 0.015 0.221 0.074 0.114 0.022 0.061 0 0.313 -0.179 0.265 -0.152 0.304 -0.118 0.224 -0.016 0.168 -0.035 0.112 -0.053 0.066 -0.089 0.02 -0.124 -0.045 -0.075 -0.11 -0.026 -0.028 -0.026 0.053 -0.027 0.039 -0.052 0.025 -0.077 0.063 -0.073 0.102 -0.069 0.056 -0.076 0.011 -0.084 0.061 -0.084 0.112 -0.083 0.061 -0.078 0.011 -0.072 0.057 -0.088 0.154 -0.155 0.1 -0.179 0.17 -0.122 0.274 -0.126 0.171 -0.125 0.068 -0.123 -0.005 -0.109 -0.079 -0.094 -0.015 -0.096 0.049 -0.098 -0.043 -0.073 -0.135 -0.048 -0.161 -0.012 -0.187 0.025 -0.105 -0.03 -0.023 -0.085 0.05 -0.069 0.124 -0.053 0.203 -0.128 0.283 -0.204 0.281 -0.113 0.42 -0.032 0.338 -0.067 0.345 -0.068 0.249 -0.034 0.042 0.023 0.136 0.006 0.229 -0.012 0.213 -0.029 0.196 -0.047 0.155 -0.011 0.114 0.025 0.065 0.001 0.045 0.003 0.025 0 0.048 -0.02 0.133 0.036 0.254 0.105 0.16 0.047 0.066 -0.011 0.071 0.029 0.078 0.07 0.097 0.041 0.174 0.019 0.172 0.077 0.07 0.004 0.025 -0.043 0.064 -0.025 0.104 -0.006 0.151 0.038 0.197 0.082 0.124 0.036 0.05 -0.01 0.053 0.015 0.043 0.039 0.004 0.047 -0.015 0.025 0.047 0.04 0.055 0 0.089 0.019 0.07 0.071 0.063 0.033 0.044 0.028 0.008 0.024 0.004 0.024 -0.013 0.019 -0.024 0.03 -0.007 0.033 0.03 0.037 0.111 0.027 0.038 0.027 0.008 0.035 0.035 0.039 0.075 0.045 0.029 0.038 -0.017 0.03 0.022 0.025 0.037 0.02 0.008 0.072 0.003 0.042 0.061 0.047 0.012 0.095 0.042 0.105 0.143 0.145 0.047 0.078 -0.012 0.093 0.021 0.044 0.065 0.021 0.031 0.039 -0.004 0.058 0.026 0.036 0.02 0.038 -0.014 0.059 0.021 0.054 0.033 0.031 0.024 0.058 0.013 0.072 0.096 0.114 0.178 0.156 0.109 0.121 0.04 0.087 0 0.071 -0.039 0.056 -0.002 0.041 0.035 0.025 0.01 0.034 -0.014 0.043 0.058 0.052 0.195 0.09 -0.078 0.137 -0.021 0.097 0.011 0.102 0.048 0.072 0.086 0.042 0.053 0.043 0.021 0.045 0.103 0.049 0.185 0.054 0.238 0.009 0.29 -0.035 0.177 -0.006 0.065 0.023 0.022 0.035 -0.021 0.047 0.049 0.031 0.119 0.015 0.082 0.03 0.045 0.045 0.055 0.013 0.065 -0.019 0.063 0.003 0.061 0.025 0.04 -0.008 0.035 -0.027 0.056 0 0.057 0.001 0.036 0.065 0.058 0.037 0.08 0.008 0.121 0.08 0.245 0.227 0.159 0.081 0.159 0.025 0.198 0.005 0.064 0.088 -0.052 0.093 -0.013 0.078 0.045 0.028 0.062 0.091 0.088 0.053 0.017 0.042 0.041 0.047 -0.017 0.087 -0.075 0.127 0.021 0.108 0.116 0.09 0.067 0.087 0.017 0.083 0.029 0.05 0.041 0.018 0.119 -0.006 0.197 -0.03 0.145 0.005 0.092 0.041 0.229 0.002 0.365 -0.037 0.23 -0.012 0.096 0.015 0.086 -0.054 0.075 -0.122 0.07 -0.057 0.066 0.007 0.104 -0.039 0.143 -0.085 0.124 -0.041 0.157 0.004 0.167 0.004 0.105 -0.036 0.099 -0.075 0.17 -0.066 0.364 -0.086 0.087 -0.014 0.042 0.005 0.121 0.014 0.107 0.034 0.102 0.068 0.016 0.043 -0.012 0.057 -0.022 0.033 -0.042 0.037 -0.039 0.06 0.025 0.047 0.059 0.101 0.048 0.073 0.054 0.086 -0.024 0.031 -0.032 0.06 -0.1 0.101 -0.054 0.039 -0.058 0.038 -0.101 0.009 -0.043 0.009 -0.049 0.016 -0.031 0.036 -0.035 0.025 -0.058 0.05 -0.005 0.043 0.026 0.065 0.013 0.066 -0.065 0.059 -0.05 0.091 -0.015 0.027 -0.025 0.069 -0.007 0.024 -0.016 0.145 -0.065 0.099 -0.091 0.115 0.02 0.069 0.016 0.064 -0.022 0.031 -0.005 0.027 -0.013 0.061 -0.029 0.023 -0.083 0.038 -0.05 0.046 0.01 0.07 -0.025 0.061 -0.038 0.054 -0.04 0.035 -0.057 0.023 -0.038 0.019 -0.028 0.068 -0.009 0.053 -0.027 0.053 0.017 0.054 -0.029 0.047 -0.081 0.032 -0.046 0.019 -0.043 0.008 -0.081 0.05 -0.073 0.173 -0.017 0.101 0.017 0.09 -0.102 0.056 -0.076 0.045 -0.047 -0.016 -0.05 -0.015 -0.029 -0.005 -0.001 -0.083 -0.083 -0.081 -0.146 -0.066 -0.178 -0.033 -0.172 0.001 -0.159 0.042 -0.047 0.052 -0.046 -0.009 -0.068 -0.03 -0.057 -0.053 -0.057 0.022 -0.053 0.063 -0.088 0.037 -0.04 0.069 -0.035 0.053 -0.091 0.071 -0.041 0.029 -0.179 0.048 -0.04 0.016 -0.146 0.01 -0.049 0.021 -0.051 0.045 -0.014 0.044 0.036 0.047 0.057 0.094 0.026 0.064 0.039 0.126 0.129 0.398 -0.042 0.069 -0.039 0.298 0.009 0.054 -0.004 0.084 0.002 0.062 0.027 0.015 0.035 0.021 0.018 0.036 -0.004 0.055 -0.018 0.04 -0.027 0.08 -0.036 0.116 -0.04 0.045 -0.027 0.035 -0.023 0.024 -0.003 0.082 -0.015 0.054 -0.063 0.019 -0.063 0.031 -0.074 -0.012 -0.065 0.006 -0.081 0.021 -0.145 0.024 -0.084 0.033 -0.04 0.024 -0.028 0.028 -0.005 0.027 0.019 0.014 0.081 0.011 0.056 0.051 0.008 0.056 -0.058 0.032 -0.029 -0.035 -0.048 -0.011 -0.09 -0.049 -0.065 -0.054 -0.049 -0.06 0.002 -0.128 -0.008 -0.019 -0.089 -0.026 -0.026 -0.038 -0.042 -0.018 -0.06 0.012 -0.045 -0.012 -0.036 -0.021 -0.043 -0.002 -0.037 0.033 -0.02 0.071 -0.062 0.118 -0.006 0.071 -0.027 0.102 -0.027 0.129 -0.022 0.027 -0.07 0.004 -0.024 0.008 -0.036 0.044 -0.044 0.007 -0.039 -0.026 -0.061 -0.026 -0.058 -0.003 -0.052 0.026 -0.061 0.056 -0.035 0.045 -0.012 0.042 -0.01 0.052 -0.062 0.05 -0.056 0.026 -0.117 0.074 -0.037 0.031 -0.084 0 -0.091 -0.003 -0.122 0.02 -0.2 0.01 -0.119 -0.015 -0.148 0.014 -0.115 0.024 -0.017 0.036 0.004 0.053 0.023 0.035 0.028 0.023 0.048 0.071 0.05 0.069 0.076 0.045 0.031 0.048 0.002 0.045 -0.036 0.056 -0.055 0.074 -0.051 0.045 -0.038 -0.002 -0.058 -0.026 -0.04 -0.033 -0.094 -0.012 -0.231 0.021 -0.116 -0.015 -0.055 -0.027 -0.097 -0.002 -0.15 -0.036 -0.091 -0.012 -0.043 -0.023 -0.008 -0.053 -0.043 -0.036 -0.024 -0.044 -0.054 -0.055 -0.052 -0.027 -0.051 -0.012 -0.056 0.033 -0.06 0.03 -0.045 -0.007 -0.021 0.008 -0.025 0.025 -0.096 0.051 -0.023 0.047 -0.038 0.099 -0.027 0.102 -0.023 0.036 -0.039 0.006 -0.04 0.031 -0.083 0.096 -0.075 0.088 -0.109 0.06 -0.051 0.055 -0.026 0.05 -0.078 0.069 -0.114 0.012 -0.091 0.02 -0.056 0.005 -0.04 0.028 -0.029 0.043 -0.014 0.017 -0.051 0 -0.051 0.036 -0.126 0.083 -0.102 0.015 -0.129 0.055 -0.113 0.042 -0.047 0.024 -0.013 0.026 -0.017 0.033 -0.055 0.007 -0.053 -0.002 -0.117 0.076 -0.06 0.065 -0.231 0.138 -0.094 0.077 -0.025 0.1 -0.012 -0.008 -0.083 0.087 -0.162 0.083 -0.346 0.019 -0.109 -0.059 -0.04 0.041 -0.031 0.055 -0.091 0.018 -0.142 0.005 -0.079 0.036 -0.042 0.04 -0.194 0.013 -0.071 0.054 -0.121 0.019 -0.505 0.235 -0.11 0.099 -0.104 0.115 -0.073 0.058 -0.065 0.041 -0.06 0.017 -0.058 0.04 -0.059 0.005 -0.06 -0.018 -0.068 0.006 -0.044 0.049 0.038 0.063 -0.021 0.027 -0.133 0.034 -0.197 0.023 -0.084 0.041 -0.029 0.023 -0.044 0.012 -0.042 -0.082 -0.015 -0.108 0.082 -0.026 0.075 -0.014 0.417 -0.148 -0.052 -0.111 0.037 -0.049 0.093 -0.079 0.061 -0.039 -0.033 -0.014 -0.273 0.026 -0.157 -0.002 -0.08 -0.008 0.024 -0.067 -0.013 -0.067 -0.019 -0.025 0.139 -0.077 0.063 -0.019 0.048 0.001 -0.003 -0.046 -0.04 -0.07 0.043 -0.09 0.284 -0.106 0.068 -0.096 0.114 -0.089 0.208 -0.222 0.012 -0.038 0.061 -0.104 0.011 -0.042 -0.096 -0.061 -0.038 -0.085 -0.282 -0.154 -0.024 -0.132 -0.026 0.006 -0.043 0.093 -0.036 0.03 -0.13 0.003 -0.062 -0.035 -0.363 -0.023 -0.089 0.06 -0.083 0.092 -0.081 0.066 -0.081 0.034 -0.071 0.06 -0.292 0.358 -0.11 0.027 -0.519 0.216 -0.259 0.085 -0.2 0.15 -0.069 0.091 -0.061 0.101 -0.037 0.153 -0.184 0.186 -0.063 0.04 -0.065 0.016 -0.086 -0.006 -0.074 0.012 -0.126 -0.016 -0.154 0.059 -0.174 0.051 -0.15 -0.128 -0.107 -0.032 -0.175 0.035 -0.081 0.057 -0.168 0.282 -0.063 0.161 0.004 0.066 0.098 0.201 0.111 0.113 0.248 0.128 0.528 0.088 0.124 -0.031 0.133 0 0.14 0.084 0.087 0.139 0.008 0.095 0.003 0.033 0.032 0.028 0.019 0.048 -0.056 0.04 -0.043 0.02 -0.036 0.147 -0.002 0.163 0.046 0.054 0.114 0.076 0.176 0.063 0.163 0.014 0.311 -0.03 0.127 -0.098 -0.008 -0.042 0.003 -0.055 0.273 -0.144 0.156 -0.128 -0.024 -0.034 -0.03 -0.023 0.027 -0.013 0.085 -0.009 0.38 -0.133 0.299 0.109 0.171 0.125 0.169 0.021 0.117 0.064 0.135 0.055 0.176 0.004 0.148 0.011 0.045 -0.05 0.046 -0.033 0.053 0.007 0.06 0.066 0.169 0.051 0.156 -0.003 0.109 -0.018 0.065 0.024 -0.094 0.085 0.014 0.137 -0.072 0.043 -0.069 0.07 0.041 0.046 0.036 0.02 -0.004 0.056 -0.063 0.032 -0.116 0.083 -0.067 -0.002 -0.032 -0.016 -0.023 -0.03 -0.017 -0.048 -0.041 -0.031 -0.113 -0.012 -0.117 0.011 -0.263 0.123 -0.257 0.098 -0.269 0.078 -0.09 0.049 -0.064 0.013 -0.111 -0.037 -0.068 0.002 -0.014 0.026 0.086 0.068 0.022 0.054 -0.009 0.041 -0.049 0.018 -0.071 -0.03 -0.065 0.043 -0.029 0.073 -0.001 0.172 -0.043 0.038 -0.119 0.021 -0.126 0.055 -0.045 -0.025 -0.018 -0.031 0.013 -0.079 -0.016 -0.039 -0.058 0.002 -0.087 0.024 -0.066 0.052 -0.023 0.031 0.087 0.101 0.083 0.01 0.02 0.023 -0.066 0.05 -0.164 0.074 -0.027 0.062 -0.049 0.059 -0.067 0.047 -0.046 0.05 -0.056 0.026 -0.091 0.029 -0.111 0.119 -0.082 0.111 -0.097 0.057 -0.077 0.188 -0.137 0.102 -0.05 0.163 0.036 0.1 0.15 -0.001 0.075 0.035 0.156 0.132 0.187 0.086 0.194 0.048 0.238 0.122 0.065 0.052 0.056 0.105 0.103 0.303 0.074 0.15 0.005 0.078 0.111 0.148 0.119 0.254 0.137 0.22 0.026 0.173 -0.044 0.079 0 0.103 0.137 0.094 0.303 0.11 0.048 0.032 0.059 0.053 0.003 0.166 0.047 0.053 0.04 0.032 0.184 0.07 0.077 0.058 0.081 0.093 0.024 0.083 0.01 0.113 -0.103 0.004 -0.083 -0.013 -0.329 -0.147 -0.086 -0.004 -0.121 0.02 -0.172 -0.027 -0.182 -0.162 -0.131 -0.049 -0.14 -0.025 -0.336 0.14 -0.085 -0.01 -0.025 0.016 -0.038 0.024 0.156 0.03 0.156 -0.046 0.15 -0.068 0.218 0.036 0.037 0.061 0.036 0.103 0.15 0.07 0.118 0.031 0.15 0.091 0.146 0.143 0.31 0.166 0.125 0.157 0.049 0.101 0.043 0.145 -0.108 0.047 -0.094 0.007 -0.148 0.023 -0.109 0.051 -0.109 0.09 -0.312 0.141 -0.059 0.089 -0.041 0.077 -0.076 0.038 -0.192 -0.036 -0.18 0.003 -0.204 0.104 -0.051 0.042 0.034 -0.008 0.032 -0.013 0.092 0.016 0.142 -0.056 0.139 0.17 0.271 -0.027 0.255 -0.141 0.099 -0.002 0.083 0.022 0.092 0.056 0.245 0.248 0.134 0.027 0.132 0.058 0.073 0.006 0.066 0.017 -0.177 0.091 -0.229 0.196 -0.102 0.047 -0.068 0.052 0.184 -0.026 0.131 -0.094 0.066 -0.023 0.053 0.022 0.027 0.115 -0.051 0.356 -0.064 0.006 -0.063 -0.097 -0.073 -0.031 -0.062 0.02 -0.122 -0.001 -0.047 0.044 -0.039 0.062 0.073 0.013 0.144 0.108 0.015 0.057 -0.039 0.037 -0.101 -0.016 0.122 0.08 -0.032 0.083 -0.04 0.033 -0.071 0.021 -0.044 0.072 0.063 0.12 0.064 0.154 0.008 0.074 -0.1 -0.032 -0.155 0.094 -0.082 0.008 -0.055 -0.124 -0.071 0.02 -0.047 0.036 -0.063 0.133 -0.077 0.12 -0.066 0.033 -0.079 -0.009 -0.065 0.003 0.016 0.033 0.07 0.04 0 0.046 -0.148 0.147 -0.024 0.057 0.004 0.048 -0.077 0.059 0.042 0.099 -0.022 0.07 -0.068 0.094 -0.071 0.062 -0.084 0.101 -0.106 0.058 -0.14 0.211 -0.041 0.105 -0.011 0.109 -0.044 0.038 -0.075 0.047 -0.086 -0.024 -0.003 -0.073 -0.037 -0.006 -0.021 -0.048 -0.006 -0.061 0.009 -0.049 -0.036 0.015 -0.022 0.057 -0.056 0.046 -0.059 -0.019 -0.063 -0.038 0.002 0.054 0.034 0.055 0.015 0.055 0.088 0.012 0.059 0.063 0.046 0.096 0.009 0.036 0.036 0.043 0.005 0.037 -0.084 0.034 -0.105 0.064 -0.126 0.109 -0.104 0.073 -0.093 0.001 -0.057 -0.008 -0.081 -0.042 -0.093 -0.017 0.124 0.147 0.068 0.026 0.086 -0.006 0.083 -0.055 0.118 0.006 0.029 0.085 -0.031 0.096 -0.064 0.124 -0.013 0.107 0.08 0.154 0.003 0.046 -0.03 0.023 -0.094 -0.041 -0.077 -0.051 -0.078 0.013 -0.081 -0.022 -0.083 0.018 -0.034 0.035 0.023 0.059 0.074 0.049 0.042 0.075 -0.05 0.026 -0.211 -0.017 -0.047 0.014 -0.063 0.082 0.041 0.122 -0.047 0.076 -0.087 0.018 -0.115 0.061 -0.071 0.014 0.003 0.026 0.052 0.027 0.027 0.036 -0.062 0.125 -0.097 0.041 -0.148 -0.02 -0.117 0.028 -0.101 -0.053 -0.107 -0.001 -0.073 0.067 -0.008 0.078 -0.071 0.008 -0.038 -0.006 -0.054 0.006 0.006 0.042 0.031 0.037 0.145 0.016 0.026 0.052 0.005 0.081 -0.152 0.14 -0.065 0.094 -0.098 -0.002 -0.074 0.076 -0.04 0.103 -0.049 -0.02 -0.113 0.016 -0.033 0.049 0.026 0.02 0.003 0.035 -0.045 0.115 -0.049 0.032 -0.021 -0.047 -0.016 -0.073 -0.04 -0.006 -0.066 0.067 -0.077 0.048 -0.066 0.02 -0.05 -0.045 -0.122 -0.023 -0.05 0.194 -0.101 0.071 -0.047 0.022 -0.083 0.007 0.053 0.026 0.017 0.05 -0.03 0.05 -0.083 0.01 -0.048 0.039 -0.018 0.173 -0.049 0.061 -0.125 0.005 -0.094 -0.04 -0.03 0.032 -0.016 0.031 -0.049 0.031 -0.095 0.008 -0.21 0.078 -0.096 -0.022 -0.115 -0.029 -0.079 0.029 -0.026 0.06 -0.036 0.046 -0.116 0 -0.093 -0.057 -0.094 -0.041 -0.104 0.036 -0.079 0.073 -0.098 0.024 -0.018 0.045 -0.043 0.023 -0.103 -0.01 -0.039 -0.112 -0.059 -0.017 -0.059 0.057 -0.021 0.044 -0.028 0.033 0.01 0.092 -0.058 0.002 -0.076 -0.056 -0.079 -0.01 -0.075 0.052 -0.038 -0.013 -0.04 -0.011 -0.065 0 -0.025 0.014 -0.047 0.008 -0.032 0.029 -0.003 0.003 -0.084 -0.019 -0.103 -0.076 -0.074 -0.126 -0.093 -0.068 -0.042 -0.06 -0.016 -0.107 -0.017 -0.051 0.006 -0.057 0.028 -0.051 -0.101 0.025 -0.074 0.047 0.015 0.059 -0.018 0.055 -0.111 0.029 0.007 0.023 0.007 0.024 0.087 0.075 0.018 0.063 0.035 0.034 0.068 0.098 -0.002 0.19 0.037 0.054 -0.012 0.053 -0.027 0.072 -0.002 0.001 -0.02 -0.022 -0.033 0.004 -0.013 0.024 -0.002 0.022 -0.005 0.001 -0.058 0.016 -0.048 0.014 -0.04 0.019 -0.061 0.057 -0.117 0.014 -0.06 -0.133 -0.081 0.089 -0.024 0.181 -0.03 0.031 -0.05 0.026 -0.095 -0.063 -0.083 0.042 -0.065 0.043 -0.027 0.04 -0.048 0.043 -0.092 -0.041 -0.073 -0.062 0.018 -0.047 -0.01 -0.031 -0.033 -0.023 -0.036 0.003 0.018 0.061 0.012 0.116 -0.033 0.034 -0.051 0.026 -0.112 -0.021 -0.076 -0.043 -0.092 -0.037 -0.081 -0.007 -0.017 0.073 -0.053 0.059 -0.049 0.007 -0.049 -0.009 -0.064 0.064 -0.03 0.047 -0.079 0.049 -0.21 0.024 -0.073 0.049 -0.099 -0.008 -0.076 0.012 -0.044 -0.002 -0.039 -0.026 -0.044 -0.001 -0.02 0.081 -0.119 0.034 -0.107 0.009 -0.119 0.107 -0.085 0.065 -0.063 0.007 -0.046 -0.023 -0.023 -0.096 -0.024 -0.011 -0.013 0.09 -0.023 0.075 -0.043 0.041 -0.138 0.094 -0.04 0.093 0.026 0.086 0.185 0.021 0.023 0.047 -0.018 0.038 -0.044 0.032 -0.013 0.048 0.198 0.153 0.006 0.058 -0.031 0.033 -0.037 0.071 -0.105 0.061 -0.222 0.031 -0.185 -0.031 -0.056 -0.069 0.003 -0.049 0.046 0.014 0.052 -0.004 -0.016 -0.045 -0.022 -0.026 -0.085 -0.04 -0.069 -0.108 0.013 -0.09 -0.038 -0.069 -0.041 -0.058 -0.042 -0.035 -0.022 -0.043 0.042 -0.136 -0.023 -0.079 0.079 -0.097 0.019 -0.109 0.142 -0.039 0.01 -0.104 -0.101 -0.003 -0.07 -0.076 -0.016 0.032 -0.056 0.003 -0.093 -0.147 -0.028 -0.019 -0.045 -0.003 0.023 0.155 -0.108 0.058 -0.089 0.026 -0.126 0.011 -0.072 0.018 -0.067 -0.015 0.017 -0.047 0.035 -0.056 -0.032 -0.047 -0.071 -0.036 -0.109 0.002 -0.075 -0.01 -0.075 0.004 -0.028 -0.021 -0.069 -0.073 -0.059 -0.046 -0.026 -0.046 0.026 -0.053 -0.022 -0.032 -0.114 -0.004 0.001 0.076 0.012 0.089 0.033 0.068 -0.024 0.038 -0.058 0.026 -0.062 -0.072 -0.028 -0.018 -0.03 0.003 -0.023 0.072 -0.056 0.064 -0.101 -0.007 -0.078 0.039 z M 110.889 -19.992 l 0.05 0.044 0.032 0.064 0.027 0.119 0.016 0.109 -0.101 0.069 -0.09 0.028 -0.181 0.267 -0.038 0.084 -0.031 0.035 -0.01 0.037 0.004 0.037 -0.047 0.128 -0.042 0.158 -0.026 0.065 -0.052 0.05 -0.066 0.025 -0.043 0.004 -0.039 0.014 -0.096 0.086 -0.108 0.065 0.018 0.03 0.001 0.028 -0.047 0.031 -0.053 -0.006 -0.152 0.025 -0.056 0.048 -0.057 0.089 -0.022 0.012 -0.092 0.021 -0.07 0.008 -0.119 -0.063 -0.059 -0.019 -0.158 -0.026 -0.153 -0.043 -0.108 -0.048 -0.221 -0.119 -0.025 -0.215 -0.038 -0.116 -0.002 -0.041 0.014 -0.357 0.016 -0.039 0.028 -0.034 0.097 -0.08 0.112 -0.063 0.16 -0.132 0.116 -0.061 0.098 -0.087 -0.057 0.004 -0.042 -0.011 0.042 -0.074 0.045 -0.04 0.051 -0.022 0.103 0.016 0.096 -0.015 0.071 -0.066 0.067 -0.014 0.255 0.022 0.177 -0.03 0.089 -0.061 0.042 -0.002 0.131 0.017 0.048 0.063 -0.004 -0.042 0.006 -0.041 0.024 0.004 0.171 0.078 0.001 -0.096 0.01 -0.025 0.053 -0.04 0.027 0.001 0.066 0.078 0.065 0.045 z" vector-effect="non-scaling-stroke" fill="#000" fill-opacity="1" stroke="#FFF" stroke-width="0px" stroke-linejoin="round" stroke-linecap="round"/></svg>
