<svg xmlns="http://www.w3.org/2000/svg" xmlns:xlink="http://www.w3.org/1999/xlink" height="400" width="400" viewBox="-79.025439453125 -12.434375 12.1494140625 16.6703125"><path d="M -71.32 -11.862 l -0.036 0.012 -0.045 0.026 -0.136 0.049 -0.183 0.047 -0.239 0.06 -0.054 0.064 -0.236 0.406 -0.198 0.082 -0.072 0.06 -0.054 0.077 -0.118 0.141 -0.049 0.109 -0.13 0.236 -0.071 0.296 -0.027 0.166 -0.039 0.241 -0.058 0.121 -0.077 0.114 -0.083 0.111 -0.071 0.122 -0.061 0.095 -0.01 0.033 0.029 0.026 0.144 -0.026 0.056 -0.029 0.078 -0.037 0.049 0.02 0.049 0.105 0.056 0.013 0.052 -0.013 0.056 0.026 0.071 0.261 0.06 0.221 0.14 0.138 0.109 0.108 0.026 0.095 0.026 0.134 0.007 0.065 -0.034 0.04 -0.054 0.082 -0.014 0.156 -0.009 0.052 -0.01 0.145 0.007 0.089 0.029 0.069 0.048 0.04 0.098 0.021 0.089 0.024 0.051 0.121 0.072 0.153 0.078 0.064 0.114 0.042 0.081 -0.015 0.19 -0.027 0.164 0.007 0.239 0.041 0.089 -0.002 0.115 -0.008 0.203 -0.083 0.074 -0.012 0.082 0.007 0.12 0.042 0.065 0.033 0.083 0.035 0.121 0.025 0.078 -0.004 0.059 -0.002 0.034 0.016 0.191 0.238 0.165 0.206 0.144 0.173 0.156 0.187 0.012 0.011 0.07 -0.024 0.046 0.01 0.043 0.038 0.074 -0.016 0.105 -0.069 0.153 -0.014 0.201 0.041 0.265 0 0.329 -0.041 0.204 -0.044 0.08 -0.048 0.132 0.005 0.159 0.043 0.086 0.062 0.01 0.06 0.032 0.094 -0.035 0.096 -0.101 0.097 -0.056 0.124 -0.011 0.151 -0.052 0.111 -0.094 0.072 -0.036 0.105 0.021 0.138 -0.01 0.202 -0.041 0.265 0 0.159 0.041 0.052 0.019 0.074 -0.003 0.097 0.015 0.086 0.051 0.112 0.071 0.222 0.059 0.095 0.051 0.035 0.052 0.043 0.151 0.227 0.037 0.048 -0.011 0.042 -0.014 0.031 -0.017 0.02 -0.161 0.135 -0.32 0.294 -0.026 0.038 0.002 0.062 0.093 -0.04 0.099 0.033 0.049 0.007 0.022 0.024 0.029 0.079 0.033 0.013 0.049 0.033 0.095 0.084 0.079 0.088 0.06 0.042 0.042 0.039 0.013 0.057 -0.018 0.057 0.05 0.133 0.034 0.041 0.018 0.051 -0.018 0.051 0.042 0.06 0.046 0.117 0.056 0.143 0.007 0.079 0.023 0.037 0.027 0.106 0.047 0.1 -0.011 0.068 0.019 0.067 -0.189 0.045 -0.017 -0.007 -0.011 -0.025 0.005 -0.191 -0.002 -0.215 -0.029 -0.088 -0.087 -0.141 -0.115 -0.187 -0.031 -0.054 -0.048 -0.031 -0.057 -0.004 -0.042 0.013 -0.056 0.035 -0.053 0.038 -0.103 0.113 -0.103 0.132 -0.06 0.029 -0.061 0.012 -0.054 -0.004 -0.043 -0.035 -0.044 -0.072 -0.053 -0.096 -0.064 -0.031 -0.025 0.029 -0.021 0.056 -0.017 0.056 0.043 0.071 0.037 0.055 -0.063 -0.002 -0.204 0 -0.235 0 -0.235 0 -0.211 0 -0.195 0 -0.075 -0.005 -0.076 -0.032 -0.073 -0.015 -0.038 0.002 -0.069 0.031 -0.09 0.005 -0.06 0.03 -0.049 -0.004 -0.001 0.165 -0.001 0.235 -0.001 0.249 0.054 -0.019 0.047 0.002 0.034 0.018 0.096 -0.014 0.053 0.007 0.05 0.006 0.047 0.001 0.029 0.02 0.039 -0.004 0.041 -0.022 0.05 0.014 0.053 0.035 0.034 0.052 0.031 0.065 0.031 0.034 -0.002 0.062 -0.001 0.049 -0.011 0.04 0.014 0.026 0.01 0.028 -0.003 0.016 -0.018 0.007 -0.039 0.005 -0.041 0.004 -0.029 -0.002 -0.023 -0.025 -0.022 -0.003 -0.031 0.004 -0.033 -0.015 -0.029 -0.031 -0.051 -0.032 -0.055 0.014 -0.038 0.016 -0.039 0.02 -0.035 0.021 -0.035 -0.005 -0.045 0.015 -0.038 0.023 -0.05 0.019 -0.055 0.009 -0.063 0.009 -0.06 0.004 -0.068 0.007 -0.004 0.131 -0.008 0.258 -0.005 0.171 0 0.157 0.026 0.057 0.121 0.121 0.095 0.064 0.08 0.071 0.08 0.03 0.033 0.027 0.022 0.044 0.011 0.046 0.009 0.04 -0.009 0.042 -0.02 0.04 0.009 0.042 0.029 0.033 0.009 0.042 0.02 0.04 0.011 0.04 0.024 0.029 0.031 0.02 0.04 0.033 0.004 0.031 -0.004 0.035 0 0.027 0.038 0.061 0.011 0.043 -0.018 0.051 -0.017 0.176 -0.044 0.2 -0.028 0.153 -0.045 0.249 -0.053 0.29 -0.064 0.353 -0.064 0.349 -0.062 0.338 -0.056 0.305 -0.061 0.337 -0.037 0.204 -0.018 0.035 -0.051 -0.074 -0.078 -0.07 -0.073 -0.042 -0.031 -0.055 -0.042 -0.112 -0.058 -0.038 -0.041 -0.03 -0.04 0.004 -0.042 0.031 -0.065 0.02 -0.044 -0.003 -0.177 -0.077 -0.029 -0.007 0.113 -0.177 0.203 -0.316 0.129 -0.201 0.143 -0.223 0.073 -0.114 0.01 -0.019 0 -0.029 -0.031 -0.043 -0.069 -0.018 -0.08 -0.033 -0.05 -0.054 -0.07 -0.023 -0.054 -0.039 -0.099 -0.038 -0.059 -0.035 -0.072 -0.013 -0.057 -0.064 -0.209 -0.123 -0.054 -0.012 -0.059 0.019 -0.086 0.02 -0.083 0.068 -0.104 0.022 -0.097 -0.001 -0.05 -0.04 -0.049 -0.015 -0.063 -0.055 -0.112 -0.042 -0.081 -0.029 -0.05 0.014 -0.065 0.061 -0.065 0.061 -0.052 0.038 -0.07 -0.002 -0.083 0.056 -0.082 0.02 -0.082 0.009 -0.095 0.02 -0.105 -0.034 -0.086 -0.03 -0.039 -0.013 -0.035 0.009 -0.054 0.031 -0.097 0.013 -0.076 0.003 -0.054 -0.014 -0.049 -0.054 -0.079 -0.028 -0.086 -0.034 -0.018 -0.07 0.012 -0.052 0.034 -0.075 -0.019 -0.078 -0.036 -0.123 -0.015 -0.05 -0.027 -0.043 -0.042 -0.015 -0.083 0.012 -0.091 -0.046 -0.056 -0.044 -0.029 -0.054 0.031 -0.102 -0.027 -0.087 -0.054 -0.048 -0.035 -0.085 -0.054 -0.068 -0.071 -0.035 -0.071 0.004 -0.056 -0.021 -0.064 -0.071 -0.06 -0.027 -0.068 -0.07 -0.126 -0.031 -0.066 -0.027 -0.038 -0.043 -0.051 -0.077 0.006 -0.042 -0.025 -0.042 -0.022 -0.075 -0.043 -0.111 -0.047 -0.063 -0.049 -0.048 -0.041 -0.04 -0.061 -0.06 -0.075 -0.035 -0.064 -0.037 -0.025 -0.054 -0.021 -0.044 -0.036 0.003 -0.051 -0.004 -0.056 -0.011 -0.06 -0.032 -0.05 -0.039 -0.084 -0.066 -0.046 -0.009 -0.041 0 -0.06 0.065 -0.179 -0.068 -0.153 -0.101 -0.159 -0.026 -0.103 -0.062 -0.095 -0.097 -0.051 -0.065 -0.042 -0.032 -0.203 -0.094 -0.04 -0.009 -0.077 0.044 -0.025 0.026 -0.005 0.075 -0.009 0.043 -0.067 0.026 -0.108 -0.006 -0.075 -0.027 -0.05 -0.004 -0.01 0.021 -0.028 0.009 -0.062 -0.006 -0.091 -0.021 -0.082 -0.028 -0.112 -0.059 -0.052 0.007 -0.127 -0.013 -0.104 -0.033 -0.026 -0.031 -0.045 -0.212 -0.014 -0.015 -0.045 -0.009 -0.075 -0.029 -0.047 -0.034 -0.025 -0.059 -0.03 -0.056 -0.127 0.012 -0.207 -0.073 -0.144 -0.07 -0.131 -0.078 -0.199 -0.153 -0.076 -0.038 -0.094 -0.047 -0.055 -0.075 -0.092 -0.076 -0.031 -0.021 -0.029 -0.069 -0.137 -0.1 0.068 -0.129 0.165 -0.097 0.216 0.075 0.026 -0.15 -0.078 -0.133 0.012 -0.251 0.025 -0.05 0.057 -0.067 0.074 -0.046 0.044 -0.013 0.074 0.023 0.047 -0.05 0.176 0.022 0.053 -0.021 0.036 -0.034 0.043 -0.026 0.055 -0.06 0.031 -0.07 0.026 -0.027 0.061 0.01 0.006 -0.03 0.031 -0.041 0.107 -0.092 -0.001 -0.04 -0.03 -0.088 0.007 -0.032 0.062 -0.011 0.073 -0.025 0.039 -0.084 0.048 -0.074 0.055 -0.108 0.061 -0.007 0.032 -0.126 0.082 -0.111 0.166 -0.328 -0.05 0.007 -0.04 0.044 -0.045 -0.005 -0.052 -0.026 0.015 -0.148 -0.03 -0.018 -0.08 0.114 -0.069 -0.116 -0.006 -0.071 0.029 -0.07 -0.004 -0.047 -0.112 0.035 0.005 -0.044 0.07 -0.045 0.032 -0.047 0.061 -0.051 0.025 -0.077 0.015 -0.119 0.027 -0.128 -0.02 -0.063 -0.033 -0.054 -0.027 -0.238 0.008 -0.139 -0.014 -0.109 -0.028 -0.092 -0.133 -0.121 0.21 -0.139 0.075 -0.105 -0.095 -0.215 -0.125 -0.181 -0.004 -0.109 0.033 0.014 0.042 -0.003 0.038 -0.229 -0.009 -0.071 -0.07 -0.115 -0.087 -0.003 -0.076 -0.144 -0.044 -0.032 -0.035 -0.091 -0.123 -0.177 -0.097 -0.092 0.073 -0.213 0.064 -0.041 0.021 -0.053 -0.025 -0.131 0.007 -0.031 0.015 -0.013 0.015 0.001 0.026 0.02 0.048 0.057 0.04 0.07 0.032 0.021 0.048 -0.023 0.188 -0.14 -0.012 -0.043 0.017 -0.087 0.063 -0.072 0.067 -0.024 0.02 -0.04 -0.016 -0.061 -0.07 -0.153 -0.063 -0.082 -0.04 -0.082 -0.021 -0.076 -0.071 -0.071 0.03 -0.067 0.055 -0.079 0.019 -0.014 0.03 0.022 0.083 0.143 0.131 0.093 0.138 0.15 0.056 0.104 0.045 0.019 0.039 0.037 -0.017 0.028 -0.043 0.029 -0.012 0.06 0.028 0.034 0.03 0.021 0.08 -0.014 0.044 -0.071 -0.03 -0.308 -0.047 -0.154 -0.054 -0.048 -0.048 -0.061 0.032 -0.046 0.086 -0.021 0.113 -0.054 0.412 -0.294 0.141 -0.277 0.108 -0.1 0.122 -0.065 0.149 0.015 0.116 -0.035 0.036 -0.088 -0.032 -0.119 -0.045 -0.072 0.043 -0.104 0.044 -0.158 -0.003 -0.133 0.057 -0.079 -0.02 -0.031 -0.084 0.064 -0.066 0.029 0.037 -0.053 0.117 -0.131 0.061 -0.2 0.047 -0.083 0.165 -0.116 0.033 -0.056 0.125 -0.087 0.201 -0.187 0.077 -0.052 0.39 0.121 0.124 -0.008 -0.022 0.022 -0.057 0.007 -0.083 0.033 -0.024 0.072 0.056 0.075 0.059 0.022 0.051 -0.048 0.05 -0.139 0.081 -0.153 0.019 -0.16 0.057 -0.055 0.084 -0.02 0.15 0.032 0.114 0.033 0.119 0.004 0.364 -0.024 0.592 -0.416 0.275 -0.09 0.172 -0.088 0.11 -0.171 0.029 -0.128 0.081 -0.05 0.085 0 0.039 -0.031 0.012 -0.04 0.205 -0.111 0.117 -0.014 0.103 0.002 0.232 0.097 0.107 0.171 0.018 0.118 -0.147 0.128 z M -78.114 -2.542 l -0.027 0.022 -0.052 -0.04 -0.018 -0.05 0.032 -0.037 0.041 0.012 0.019 0.031 z" vector-effect="non-scaling-stroke" fill="#000" fill-opacity="1" stroke="#FFF" stroke-width="0px" stroke-linejoin="round" stroke-linecap="round"/></svg>
