<svg xmlns="http://www.w3.org/2000/svg" xmlns:xlink="http://www.w3.org/1999/xlink" height="400" width="400" viewBox="43.22666015625 11.36845703125 1.30009765625002 0.999804687500003"><path d="M 44.476 12.082 l 0.05 0.138 0 0.104 -0.021 0.033 -0.045 -0.021 -0.083 -0.083 -0.157 -0.081 0.072 -0.007 0.042 0.008 0.045 -0.007 0.028 -0.046 0.006 -0.027 0.039 -0.022 z M 43.789 12.307 l 0.07 0.061 -0.195 -0.025 -0.031 -0.055 -0.002 -0.041 0.073 0.009 z M 43.466 11.901 l -0.019 0.013 -0.091 -0.057 -0.052 -0.013 -0.077 -0.092 0.029 -0.32 0.025 -0.041 0.018 -0.017 0.042 -0.006 0.051 0.04 -0.014 0.206 0.068 0.138 0.044 0.11 z" vector-effect="non-scaling-stroke" fill="#000" fill-opacity="1" stroke="#FFF" stroke-width="0px" stroke-linejoin="round" stroke-linecap="round"/></svg>
