<svg xmlns="http://www.w3.org/2000/svg" xmlns:xlink="http://www.w3.org/1999/xlink" height="400" width="400" viewBox="11.13017578125 -3.68730468749999 7.49199218749999 8.6916015625"><path d="M 11.13 3.916 l 0.06 -0.154 0.044 -0.071 0.054 -0.05 0.216 -0.121 0.033 0.005 0.149 0.157 0.048 0.013 0.053 -0.004 0.063 0.006 0.031 -0.031 0.005 -0.041 -0.045 -0.045 -0.007 -0.049 0.032 -0.053 0.018 -0.058 0.046 -0.069 0.005 -0.032 -0.049 -0.035 -0.101 -0.054 -0.069 -0.052 -0.026 -0.05 0.019 -0.064 0.055 -0.052 -0.003 -0.028 -0.049 -0.047 -0.036 -0.05 -0.037 -0.031 -0.101 -0.019 0.019 -0.067 0.037 -0.099 0.009 -0.076 -0.028 -0.198 0.003 -0.036 0.028 -0.018 0.06 0.022 0.061 0.03 0.166 -0.043 0.058 -0.007 0.048 0.038 0.066 0.03 0.382 -0.083 0.007 -0.084 0.022 -0.076 0.003 -0.057 -0.016 -0.037 -0.019 -0.028 -0.011 -0.057 0 -0.061 0.037 -0.029 0.122 -0.073 0.038 0.003 0.085 0.04 0.08 0.062 0.071 0.131 0.049 0.113 0.078 0.137 0.167 0.056 0.199 0.036 0.108 -0.009 0.154 -0.117 0.087 -0.091 0.028 -0.049 0.051 0.025 0.057 0.12 0.037 0.046 0.009 0.044 -0.026 0.055 0.025 0.036 0.107 0.025 0.094 -0.024 0.042 -0.049 0.07 -0.064 0.001 -0.054 -0.037 -0.035 0 -0.048 0.039 -0.038 0.038 -0.103 0.012 -0.075 0.037 -0.048 0.07 -0.033 0.025 -0.03 0.039 -0.179 -0.02 -0.065 0 -0.054 0.044 -0.068 0.008 -0.112 -0.019 -0.183 -0.013 -0.126 -0.013 -0.132 0.034 -0.173 0.036 -0.18 -0.006 -0.045 -0.049 -0.055 -0.061 -0.05 -0.157 -0.041 -0.058 -0.065 -0.046 -0.07 -0.033 -0.022 -0.171 -0.028 -0.038 -0.039 0.015 -0.113 0.015 -0.166 -0.006 -0.116 0.031 -0.093 0.034 -0.07 0.076 -0.074 0.04 -0.087 0.022 -0.022 0.143 -0.015 0.052 -0.036 0.041 -0.037 0.017 -0.05 0.049 -0.082 0.044 -0.056 0.005 -0.038 -0.009 -0.052 -0.043 -0.103 -0.052 -0.086 -0.031 -0.031 -0.063 -0.202 -0.059 -0.048 -0.115 -0.026 -0.215 -0.023 -0.13 0.036 -0.198 0.068 -0.151 0.047 -0.098 0.027 -0.058 -0.007 -0.026 -0.031 0.038 -0.026 0.019 -0.061 -0.025 -0.088 -0.038 -0.08 -0.022 -0.113 0.009 -0.14 0.037 -0.132 0.079 -0.171 0.005 -0.07 0.24 0.002 0.239 0.002 0.262 -0.001 0.253 -0.001 0.197 0.006 0.095 -0.044 0.09 0.067 0.044 0.015 0.015 -0.005 0.035 0.047 0.112 -0.005 0.018 0.011 0.01 0.057 0.104 -0.001 0.051 0.013 0.042 -0.001 0.06 -0.033 0.043 0.011 0.079 0.043 0.056 0.037 0.079 -0.012 0.183 0.006 0.141 0.035 0.14 0.098 0.094 0.057 0.084 0.084 0.031 -0.015 0.029 -0.023 0.017 -0.01 -0.001 -0.072 -0.047 -0.122 -0.018 -0.104 0.01 -0.085 0.036 -0.061 0.061 -0.037 0.006 -0.058 0.001 -0.008 0.068 -0.137 0.068 -0.136 0.082 -0.158 0.067 -0.131 -0.009 -0.065 0.007 -0.097 0.014 -0.108 -0.003 -0.064 0.02 -0.044 0.047 -0.161 0.027 -0.094 0.04 -0.042 0.063 -0.03 0.091 -0.001 0.238 -0.02 0.222 -0.042 0.074 -0.019 0.14 -0.067 0.054 -0.003 0.046 0.026 0.269 0.077 0.074 0.03 0.027 -0.005 0.041 0.007 0.063 0.001 0.062 -0.009 0.039 0.009 0.05 0.051 0.033 -0.006 0.043 -0.037 0.081 -0.038 0.156 -0.042 0.025 0.019 0.054 0.094 0.057 0.032 0.012 0.174 -0.075 0.217 -0.056 0.163 -0.147 0.269 -0.132 0.24 -0.139 0.402 0.001 0.294 -0.015 0.185 -0.046 0.113 -0.109 0.304 -0.017 0.261 0.039 0.32 -0.038 0.303 -0.115 0.287 -0.049 0.225 0.029 0.271 -0.21 0.226 -0.264 0.225 -0.171 0.065 -0.133 0.075 -0.095 0.086 -0.031 0.047 -0.069 0.104 -0.158 0.323 -0.082 0.141 -0.107 0.121 -0.16 0.147 -0.059 0.07 -0.024 0.101 0.01 0.186 0.016 0.566 -0.027 0.164 -0.044 0.27 -0.157 0.302 -0.118 0.168 -0.118 0.051 -0.154 0.045 -0.074 0.057 -0.045 0.084 -0.086 0.073 -0.127 0.063 -0.161 0.153 -0.194 0.245 -0.133 0.14 -0.071 0.036 -0.074 0.003 -0.076 -0.029 -0.064 -0.004 -0.032 0.013 -0.021 -0.011 -0.03 -0.023 0.001 -0.056 -0.009 -0.093 -0.037 -0.096 0.045 -0.077 0.04 -0.059 -0.007 -0.03 -0.04 -0.049 -0.045 -0.07 -0.042 0.005 -0.089 0.054 -0.093 0.042 -0.087 0.017 -0.068 0.044 -0.038 0.023 -0.059 0 -0.033 -0.026 -0.071 -0.025 -0.039 0.009 -0.022 0.012 -0.009 0.089 -0.008 0.075 -0.014 0.07 -0.026 0.033 -0.108 0.035 -0.073 0.048 -0.063 0.032 -0.039 -0.008 -0.079 -0.064 -0.078 -0.059 -0.043 -0.05 -0.024 -0.036 -0.016 -0.016 -0.049 -0.002 -0.015 0.033 -0.025 -0.016 -0.077 -0.067 -0.09 -0.107 -0.033 -0.016 -0.05 0.002 -0.079 0.039 -0.078 0.061 -0.14 0.056 -0.117 0.032 -0.011 0.039 -0.027 0.066 -0.039 0.041 -0.104 0.013 -0.037 0.059 -0.09 0.114 -0.059 0.052 -0.016 -0.022 -0.036 -0.028 -0.074 -0.089 -0.073 -0.11 -0.019 -0.05 -0.02 -0.029 -0.003 -0.111 -0.109 -0.132 -0.274 -0.234 -0.029 -0.07 z" vector-effect="non-scaling-stroke" fill="#000" fill-opacity="1" stroke="#FFF" stroke-width="0px" stroke-linejoin="round" stroke-linecap="round"/></svg>
