<svg xmlns="http://www.w3.org/2000/svg" xmlns:xlink="http://www.w3.org/1999/xlink" height="400" width="400" viewBox="-85.9080078125 -11.189453125 3.34443359375 3.11879882812501"><path d="M -82.564 -9.577 l -0.006 0.018 -0.017 0.019 -0.025 0.02 -0.033 0.013 -0.079 -0.04 -0.078 -0.046 -0.043 0.021 -0.016 0.059 -0.029 0.03 -0.036 0.012 -0.015 0.02 -0.003 0.2 0.002 0.189 0.059 0.004 0.098 0.066 0.042 0.039 0.013 0.036 -0.012 0.017 -0.072 0.041 -0.07 0.052 -0.035 0.065 0.061 0.105 0.013 0.071 -0.002 0.075 -0.017 0.036 -0.136 0.086 -0.03 0.03 0.004 0.022 0.075 0.059 0.036 0.057 0.03 0.069 0.004 0.06 -0.068 -0.111 -0.094 -0.106 -0.082 -0.065 -0.006 -0.152 -0.033 -0.083 -0.123 -0.076 -0.106 -0.053 -0.078 0.011 0.048 0.088 0.124 0.112 0.008 0.043 -0.002 0.058 -0.085 -0.009 -0.075 -0.024 -0.092 -0.007 -0.061 -0.034 -0.129 -0.134 0.092 -0.114 0.028 -0.075 -0.002 -0.156 -0.021 -0.076 -0.1 -0.115 -0.159 -0.126 -0.222 -0.103 -0.104 -0.083 -0.26 -0.064 -0.099 -0.042 -0.077 -0.078 -0.012 -0.056 0.027 -0.087 -0.072 -0.11 -0.31 -0.216 -0.173 -0.08 -0.037 -0.047 -0.028 -0.015 0.027 0.149 0.076 0.09 0.198 0.084 0.054 0.049 0.022 0.064 -0.115 0.122 -0.058 0.031 -0.017 0.066 -0.037 0.02 -0.04 -0.038 -0.161 -0.191 -0.31 -0.092 -0.056 -0.056 -0.115 -0.174 -0.053 -0.159 0.019 -0.106 0.127 -0.165 0.04 -0.072 -0.008 -0.044 0.004 -0.065 -0.048 -0.046 -0.118 -0.059 -0.075 -0.048 0.021 -0.024 0.135 -0.064 0.009 -0.058 -0.001 -0.019 0.022 -0.004 0.02 -0.015 0.012 -0.016 0.037 -0.056 0.032 -0.031 0.037 -0.005 0.045 0.023 0.17 0.06 0.189 0.067 0.27 0.095 0.112 -0.061 0.096 -0.046 0.067 0.007 0.145 0.054 0.087 0.017 0.054 -0.005 0.093 0.079 0.051 0.059 0.008 0.04 0.028 0.021 0.072 0.005 0.177 0.04 0.108 -0.008 0.098 -0.043 0.054 -0.051 0.017 -0.08 0.025 0.04 0.029 0.063 0.013 0.08 0.127 0.269 0.101 0.151 0.222 0.274 0.096 0.05 0.162 0.22 0.056 0.036 0.032 0.065 0.168 0.054 z" vector-effect="non-scaling-stroke" fill="#000" fill-opacity="1" stroke="#FFF" stroke-width="0px" stroke-linejoin="round" stroke-linecap="round"/></svg>
