<svg xmlns="http://www.w3.org/2000/svg" xmlns:xlink="http://www.w3.org/1999/xlink" height="400" width="400" viewBox="13.5171875 -46.534619140625 5.8837890625 4.101708984375"><path d="M 13.578 -45.517 l 0.037 0.04 0.263 0.048 0.057 -0.021 0.034 -0.033 0 -0.021 0.022 -0.006 0.093 0.032 0.076 -0.007 0.122 -0.001 0.087 0.005 0.057 -0.024 0.078 -0.089 0.029 -0.05 0.035 -0.012 0.023 0.006 0.017 0.041 0.041 0.039 0.084 0.063 0.059 0.03 0.054 0.011 0.053 -0.025 0.055 -0.007 0.156 0.049 0.132 0.009 0.097 -0.026 -0.013 -0.035 -0.035 -0.039 -0.008 -0.038 0.007 -0.033 0.067 -0.033 -0.003 -0.014 -0.081 -0.058 0.004 -0.015 0.177 -0.065 0.171 -0.036 0.027 -0.028 0.016 -0.042 0.008 -0.079 -0.009 -0.065 -0.069 -0.061 -0.004 -0.031 0.016 -0.032 0.027 -0.029 0.068 -0.013 0.08 -0.021 0.063 -0.024 0.086 -0.02 0.067 -0.028 0.066 -0.066 0.04 -0.011 0.121 0.009 0.026 -0.016 -0.017 -0.095 0.022 -0.024 0.043 -0.013 0.02 -0.013 0.106 0.01 0.089 0.025 0.054 0.015 0.178 0.069 0.123 0.077 0.068 0.086 0.093 0.066 0.117 0.047 0.093 0.064 0.068 0.08 0.096 0.045 0.123 0.01 0.078 0.028 0.033 0.045 0.067 0.041 0.101 0.037 0.157 0.02 0.3 0.005 0.027 0.001 0.068 0.011 0.079 -0.014 0.096 -0.029 0.031 -0.017 0.101 -0.094 0.056 0.008 0.111 -0.011 0.067 -0.021 0.005 0 -0.004 0.024 -0.008 0.042 -0.054 0.03 0.055 0.069 0.053 0.111 -0.029 0.055 0.036 0.043 0.101 0.031 0.009 0.012 -0.031 0.013 -0.026 0.036 -0.003 0.066 0.088 0.063 0.18 0.059 0.057 0.01 0.022 0.023 0.03 0.015 0.018 0.018 0.001 0.023 -0.013 0.016 -0.085 0.006 -0.097 0 -0.069 -0.028 -0.006 0.021 -0.001 0.024 -0.067 0.015 0.037 0.163 -0.015 0.047 -0.025 0.016 -0.023 -0.007 -0.028 -0.002 -0.014 0.015 0.012 0.035 -0.066 0.004 -0.105 -0.018 -0.048 -0.032 -0.008 -0.032 -0.001 -0.03 -0.033 -0.049 -0.083 -0.051 -0.174 -0.008 -0.064 -0.016 -0.066 -0.019 -0.073 -0.014 -0.067 0.001 -0.081 0.014 -0.141 -0.022 -0.048 0.03 -0.074 0.035 -0.062 -0.001 -0.123 -0.08 -0.037 -0.005 -0.107 0.041 -0.044 0.002 -0.033 -0.013 -0.145 -0.031 -0.065 -0.007 -0.048 0.015 -0.085 -0.016 -0.207 -0.105 -0.128 0.08 -0.26 -0.02 -0.077 0.055 -0.088 0.104 -0.072 0.05 -0.062 -0.018 -0.074 -0.046 -0.129 -0.117 -0.065 -0.021 -0.075 -0.005 -0.065 0.013 -0.035 0.024 -0.027 0.171 -0.024 0.151 -0.001 0.091 0.143 0.084 0.169 0.144 0.054 0.017 0.027 0.047 0.04 0.122 0.044 0.137 0.086 0.091 0.077 0.065 0.095 0.057 0.118 0.089 0.097 0.098 0.026 0.036 0.188 0.13 0.183 0.132 0.163 0.046 0.026 0.024 0.001 0.102 0.018 0.038 0.109 0.107 0.223 0.156 0.026 0.036 0.007 0.027 -0.014 0.02 -0.058 0.021 -0.048 -0.024 -0.207 -0.153 -0.2 -0.096 -0.226 -0.181 -0.303 -0.072 -0.206 -0.079 -0.125 0.012 -0.138 0.025 -0.085 0.001 -0.06 -0.014 -0.043 -0.049 0.007 -0.038 -0.008 -0.05 -0.121 -0.079 -0.165 -0.075 -0.156 -0.098 -0.314 -0.263 -0.063 -0.085 0.062 -0.016 0.047 0.001 0.053 -0.017 0.085 0 0.101 0.017 -0.09 -0.056 -0.112 -0.055 -0.288 -0.219 -0.086 -0.104 -0.01 -0.112 0.021 -0.153 -0.052 -0.11 -0.223 -0.142 -0.082 -0.075 -0.164 -0.044 -0.073 0.004 -0.044 0.055 -0.032 0.123 -0.146 0.162 -0.049 0.07 -0.076 0.092 -0.066 0.006 -0.039 -0.008 -0.118 -0.154 -0.113 -0.117 -0.016 -0.055 -0.01 -0.068 -0.086 -0.25 z M 16.651 -42.997 l 0.185 0.028 0.136 -0.013 0.123 0.017 0.076 0.032 0.018 0.016 -0.099 0.002 -0.112 -0.013 -0.127 0.032 -0.112 -0.017 -0.042 -0.021 -0.03 -0.026 z M 17.194 -43.126 l -0.07 0.01 -0.445 -0.008 -0.129 -0.021 -0.144 -0.053 -0.029 -0.016 0.145 -0.015 0.135 0.015 0.041 0.039 0.364 0.031 z M 16.785 -43.271 l -0.158 0.003 -0.137 -0.018 -0.067 -0.031 0.005 -0.026 0.021 -0.044 0.153 0.005 0.233 0.031 0.057 0.036 -0.018 0.017 z M 15.231 -44.062 l 0.016 0.035 -0.125 -0.066 -0.047 -0.045 -0.009 -0.02 z M 14.81 -44.977 l -0.123 0.021 -0.059 -0.038 -0.015 -0.031 -0.101 -0.01 -0.061 -0.044 -0.012 -0.019 0.087 -0.048 0.046 -0.078 0.059 0.047 0.071 0.088 0.038 0.025 z M 14.831 -44.759 l 0.025 0.044 -0.094 -0.04 -0.084 -0.015 -0.018 -0.03 0.012 -0.025 0.018 -0.024 0.064 0.003 0.01 0.023 z M 15.188 -44.336 l -0.026 0.027 -0.065 -0.049 -0.059 -0.035 -0.042 -0.041 -0.083 -0.052 -0.028 -0.059 -0.124 -0.12 -0.019 -0.033 0.062 0.049 0.052 0.03 0.043 0.007 0.108 0.077 0.107 0.098 0.127 0.086 -0.026 0.003 z M 15.189 -43.922 l 0.014 0.015 -0.001 0.01 -0.052 -0.014 -0.014 0.005 -0.245 -0.218 -0.026 -0.042 0.088 0.051 z M 15.371 -43.974 l 0.066 0.074 -0.063 -0.015 -0.066 -0.046 -0.039 -0.05 z M 14.488 -44.66 l -0.008 0.039 -0.061 -0.049 -0.031 -0.088 -0.076 -0.142 -0.01 -0.04 0.04 -0.04 -0.002 -0.04 -0.054 -0.125 0.045 -0.02 0.027 -0.002 0.011 0.086 0.025 0.05 0.074 0.061 -0.015 0.101 0.015 0.144 0.015 0.032 z M 17.608 -42.769 l 0.136 0.069 -0.4 -0.09 0.045 -0.008 0.042 -0.002 z M 18.436 -42.56 l 0.002 0.037 0.039 0.042 0.041 0.048 -0.184 -0.095 -0.172 -0.106 -0.337 -0.163 -0.239 -0.04 -0.327 -0.131 -0.213 -0.046 0.081 -0.011 0.093 0 0.504 0.175 -0.056 -0.046 0.073 -0.018 0.062 0.013 0.039 0.057 0.078 0.038 0.126 0.066 0.079 0.051 0.18 0.091 0.043 0.013 z" vector-effect="non-scaling-stroke" fill="#000" fill-opacity="1" stroke="#FFF" stroke-width="0px" stroke-linejoin="round" stroke-linecap="round"/></svg>
