<svg xmlns="http://www.w3.org/2000/svg" xmlns:xlink="http://www.w3.org/1999/xlink" height="400" width="400" viewBox="-84.88720703125 -23.1904296875 10.750390625 3.3349609375"><path d="M -81.837 -23.163 l 0.262 0.047 0.212 -0.013 0.101 -0.027 -0.009 0.028 0.093 0.069 0.034 0.005 0.137 -0.035 0.358 -0.013 0.037 0.019 0.063 0.067 0.091 0.042 0.094 0.032 0.099 0.008 0.099 -0.014 0.092 0.007 0.115 0.065 0.036 0.008 0.103 -0.018 -0.03 0.06 0.174 0.084 0.127 0.165 0.093 0.068 0.098 0.061 0.083 0.041 0.093 0.02 0.281 -0.008 0.066 0.005 0.059 0.024 0.057 0.009 0.033 -0.009 0.543 0.257 0.173 0.137 0.105 0.071 0.228 0.103 0.092 0.023 0.048 -0.014 -0.009 -0.023 -0.067 -0.057 -0.01 -0.021 0.086 0.018 0.155 0.116 0.043 0.043 0.077 0.04 0.078 0.029 -0.037 0.046 -0.063 0.004 -0.122 -0.019 0.097 0.075 0.017 0.054 0.045 0.005 0.067 -0.06 0.042 -0.05 0.171 0.13 0.092 0.059 -0.023 0.035 -0.008 0.034 0.102 -0.032 0.039 0.004 0.038 0.018 0.041 0.056 0.096 0.012 0.097 -0.002 0.196 0.046 0.186 0.094 0.175 0.019 0.176 0.003 0.089 0.05 0.038 0.067 -0.043 0.047 -0.024 0.049 0.066 0.06 -0.143 0.026 -0.02 0.036 0.007 0.039 0.028 0.022 0.082 -0.019 0.118 0.017 0.186 0.015 0.125 -0.012 0.254 0.041 0.077 0.022 0.15 0.077 0.07 0.051 0.149 0.138 0.129 0.054 0.112 0.013 0.039 -0.009 0.035 0.015 0.031 0.019 0.031 0.06 -0.017 0.063 -0.064 0.051 -0.035 0.037 -0.159 0.004 -0.223 0.017 -0.215 0.056 -0.105 0.044 -0.048 0.029 -0.113 0.027 -0.008 -0.023 0.002 -0.029 -0.03 -0.054 -0.026 0.049 -0.042 0.036 -0.071 0.031 -0.261 0.002 -0.105 -0.041 -0.108 -0.028 -0.393 -0.029 -0.094 0.003 -0.263 0.03 -0.264 0.017 -0.11 0.019 -0.109 0.029 -0.212 -0.001 -0.251 0.032 -0.252 0.006 0.161 -0.227 0.34 -0.218 0.064 -0.047 0.046 -0.06 0.011 -0.045 -0.015 -0.039 -0.081 -0.068 -0.017 -0.051 -0.024 -0.033 -0.118 -0.029 -0.119 -0.017 -0.126 -0.001 -0.264 -0.024 -0.14 -0.002 -0.119 -0.046 -0.198 -0.166 -0.092 -0.046 -0.048 -0.037 -0.037 -0.043 -0.046 -0.243 -0.039 -0.117 -0.06 -0.102 -0.091 -0.077 -0.095 -0.026 -0.366 0.066 -0.085 -0.01 -0.083 -0.023 -0.553 -0.157 -0.228 -0.087 -0.093 -0.043 -0.079 -0.061 -0.082 -0.1 -0.093 -0.09 0.001 0.036 -0.014 0.024 -0.463 0.011 -0.074 -0.021 -0.047 -0.024 -0.034 -0.036 -0.025 -0.073 -0.044 -0.061 -0.014 0.065 -0.023 0.06 -0.062 0.033 -0.071 0.005 -0.086 -0.08 -0.375 -0.016 -0.033 -0.013 -0.123 -0.077 -0.105 -0.097 0.105 -0.034 0.216 -0.045 0.047 -0.03 0.027 -0.038 -0.019 -0.057 -0.043 -0.041 -0.044 -0.024 -0.049 -0.015 -0.065 -0.007 -0.835 -0.01 -0.048 0.031 -0.075 0.063 -0.148 0.081 -0.098 0.084 -0.037 0.043 -0.046 0.031 -0.103 0.052 -0.088 0.08 -0.106 0.036 -0.058 -0.022 -0.057 0 -0.042 0.02 -0.044 0.009 -0.214 0.01 -0.032 0.02 -0.031 0.058 -0.035 0.112 -0.033 0.037 -0.107 0.014 -0.102 0.031 -0.208 0.107 -0.054 0.015 0.012 -0.078 -0.01 -0.076 -0.059 -0.003 -0.067 0.013 -0.056 0.021 -0.103 0.057 -0.052 0.014 -0.049 -0.029 0.01 -0.037 0.344 -0.137 0.039 -0.01 0.061 0.01 0.06 -0.005 0.047 -0.038 -0.057 -0.181 0.022 -0.123 0.08 -0.095 0.16 -0.144 0.077 -0.047 0.787 -0.302 0.081 -0.015 0.511 -0.061 0.078 -0.021 0.237 -0.089 0.249 -0.036 z M -77.669 -21.952 l -0.041 0.031 -0.045 -0.044 -0.029 -0.005 -0.04 -0.018 -0.077 -0.049 -0.019 -0.051 0.064 -0.004 0.08 0.009 0.141 0.029 -0.012 0.058 z M -78.027 -22.285 l -0.02 0.017 -0.054 -0.037 -0.078 -0.016 -0.046 -0.058 -0.044 -0.022 -0.004 -0.021 0.073 -0.014 0.05 0.006 0.056 0.044 0.032 0.081 z M -78.63 -22.552 l 0.137 0.021 0.048 -0.013 0.046 -0.004 0.048 0.009 0.067 0.083 -0.059 0.01 -0.047 0 -0.035 -0.015 -0.123 -0.004 -0.081 -0.024 -0.045 -0.021 -0.022 -0.025 z M -77.879 -22.128 l -0.033 0.003 -0.1 -0.042 -0.03 -0.035 0.035 -0.047 0.007 -0.051 0.014 -0.003 0.016 0.061 0.076 0.026 0.005 0.013 0.047 0.052 z M -82.562 -21.572 l -0.093 0.053 -0.198 0.075 -0.106 0.003 -0.108 -0.028 -0.074 -0.063 -0.042 -0.062 0.004 -0.03 0.067 0.049 0.058 0.024 0.048 -0.016 0.034 -0.027 -0.109 -0.199 0.005 -0.042 0.087 -0.109 0.235 0.033 0.041 0.019 0.033 0.069 0.052 0.054 0.062 0.145 z M -79.35 -22.664 l 0.002 0.026 -0.175 -0.073 -0.075 -0.077 -0.03 -0.018 0.049 -0.002 0.197 0.125 z" vector-effect="non-scaling-stroke" fill="#000" fill-opacity="1" stroke="#FFF" stroke-width="0px" stroke-linejoin="round" stroke-linecap="round"/></svg>
