<svg xmlns="http://www.w3.org/2000/svg" xmlns:xlink="http://www.w3.org/1999/xlink" height="400" width="400" viewBox="32.3009765625 -35.182666015625 1.74921875000001 0.613085937499996"><path d="M 32.713 -35.171 l 0.008 0.026 0.064 0.03 0.085 0.026 0.05 0.002 0.066 -0.029 0.092 -0.03 0.113 -0.027 0.057 0.016 0.077 0.003 0.058 -0.009 0.04 0.022 0.032 0.04 0.008 0.096 0.012 0.005 0.05 -0.038 0.089 0.016 0.061 0.005 0.05 -0.019 0.031 -0.002 0.035 -0.008 0.04 -0.019 0.034 -0.026 0.037 0.008 0.062 0.029 0.039 -0.008 0.019 0.02 0.027 0.057 -0.114 0.017 -0.114 0.006 -0.063 -0.007 -0.06 0.003 -0.185 0.163 -0.1 0.056 -0.118 0.033 -0.121 0.02 -0.061 0.002 -0.053 0.021 -0.037 0.038 -0.001 0.037 -0.016 0.03 -0.066 -0.006 -0.028 -0.06 -0.047 -0.026 -0.117 0.013 -0.057 -0.002 -0.187 -0.057 -0.057 -0.023 -0.035 -0.049 -0.097 -0.175 -0.016 -0.13 0.09 0.033 0.084 -0.04 0.081 -0.066 0.096 -0.027 z" vector-effect="non-scaling-stroke" fill="#000" fill-opacity="1" stroke="#FFF" stroke-width="0px" stroke-linejoin="round" stroke-linecap="round"/></svg>
