<svg xmlns="http://www.w3.org/2000/svg" xmlns:xlink="http://www.w3.org/1999/xlink" height="400" width="400" viewBox="12.08974609375 -51.03779296875 6.74248046874999 2.461572265625"><path d="M 18.832 -49.511 l -0.025 0.002 -0.057 0.015 -0.074 0.006 -0.08 -0.003 -0.062 0.027 -0.058 0.044 -0.06 0.03 -0.033 0.027 -0.018 0.028 -0.204 0.079 -0.028 0.033 -0.023 0.045 -0.01 0.06 -0.014 0.054 -0.035 0.029 -0.11 0.025 -0.027 0.013 -0.021 0.028 -0.062 0.043 -0.072 0.04 -0.133 0.046 -0.143 0.014 -0.186 -0.015 -0.108 -0.018 -0.053 0.02 -0.072 0.06 -0.078 0.104 -0.032 0.078 -0.025 -0.022 -0.045 -0.083 -0.05 -0.011 -0.069 -0.008 -0.052 -0.012 -0.112 -0.048 -0.057 -0.014 -0.066 -0.004 -0.063 0.028 -0.048 0.033 -0.148 0 -0.162 -0.015 -0.232 -0.11 -0.06 -0.001 -0.064 0.005 -0.101 -0.026 -0.196 -0.071 -0.092 -0.017 -0.058 0.01 -0.053 0.016 -0.038 0.002 -0.022 -0.023 -0.073 -0.029 -0.073 -0.003 -0.021 0.017 -0.025 0.156 -0.025 0.056 -0.101 -0.003 -0.036 0.027 -0.079 0.075 -0.015 0.073 -0.137 -0.014 -0.065 -0.012 -0.058 0.009 -0.063 0.04 -0.178 -0.002 -0.141 -0.024 -0.06 -0.09 -0.064 -0.036 -0.081 -0.032 -0.028 -0.007 -0.045 -0.049 -0.085 -0.061 -0.137 -0.083 -0.107 0.004 -0.04 -0.022 -0.017 -0.031 -0.045 -0.053 -0.05 -0.037 -0.061 -0.014 -0.087 -0.047 -0.117 -0.102 -0.107 -0.07 -0.103 0.001 -0.066 -0.037 -0.067 -0.048 -0.049 -0.047 -0.076 -0.114 -0.055 -0.065 -0.043 -0.04 -0.049 -0.033 -0.018 -0.026 0.06 -0.06 0.022 -0.03 0.026 -0.023 0.015 -0.024 0 -0.018 -0.054 -0.06 -0.073 -0.043 -0.108 -0.044 -0.069 -0.055 -0.025 -0.051 -0.008 -0.028 -0.047 -0.038 -0.038 -0.055 0 -0.033 0.009 -0.009 0.036 0 0.04 0.023 0.056 0.044 0.046 0.063 0.028 -0.024 0.053 -0.068 0.094 -0.077 0.096 -0.044 0.087 -0.004 0.071 -0.012 0.059 -0.022 0.103 0.009 0.074 0.016 0.024 -0.01 0.03 -0.04 0.019 -0.034 0.165 -0.02 0.057 -0.066 0.032 0 0.037 -0.01 0.035 -0.025 0.034 -0.01 0.027 0.012 0.035 0.008 0.036 -0.016 0.054 -0.076 0.03 -0.012 0.145 -0.012 0.197 -0.045 0.1 -0.04 0.098 -0.022 0.105 -0.038 0.167 -0.038 0.008 -0.015 -0.078 -0.039 -0.026 -0.024 -0.017 -0.025 0.027 -0.028 0.037 -0.008 0.048 0.012 0.14 0.016 0.038 0.016 0.014 0.039 0.036 0.036 0.029 0.004 -0.01 0.059 0.045 0.023 0.065 0.018 0.043 -0.004 0.031 -0.024 0.012 -0.017 0.086 -0.002 0.087 -0.025 0.007 -0.041 -0.005 -0.076 0.009 -0.011 0.132 0.021 0.133 0.034 0.018 0.076 0.036 0.037 0.042 0.034 0.04 0.015 0.069 0.002 0.18 0.045 0.087 0.009 0.089 0.031 0.075 0.032 0.055 0.007 0.025 0.035 0.033 0.024 0.059 -0.018 0.216 -0.026 0.078 0.034 0.053 0.036 0.007 0.012 -0.027 0.032 -0.013 0.025 -0.022 0.016 -0.074 0.017 -0.042 0.028 -0.03 0.031 0.02 0.03 0.061 0.022 0.043 0.005 0.016 0.022 0.137 0.097 0.109 0.126 0.042 0.02 0.04 0.005 0.046 -0.019 0.053 -0.041 0.063 -0.03 0.054 -0.015 0.094 -0.035 0.004 -0.023 -0.079 -0.085 -0.046 -0.069 0.011 -0.013 0.101 0.011 0.171 0.038 0.263 0.124 0.047 0 0.092 -0.009 0.1 -0.02 0.048 -0.023 0.018 0.009 0.015 0.068 -0.026 0.037 -0.12 0.036 0.007 0.018 0.031 0.023 0.054 0.016 0.066 0.044 0.045 0.05 0.04 0.023 0.044 0.011 0.109 -0.027 0.031 -0.021 0.014 -0.015 0.021 0.003 0.038 0.025 0.012 0.015 0.106 0.028 0.061 0.034 0.039 0.016 0.043 -0.016 0.168 0.027 0.046 0.023 0.015 0.038 -0.008 0.023 0.026 0.06 0.212 0.144 0.022 0.074 z" vector-effect="non-scaling-stroke" fill="#000" fill-opacity="1" stroke="#FFF" stroke-width="0px" stroke-linejoin="round" stroke-linecap="round"/></svg>
