<svg xmlns="http://www.w3.org/2000/svg" xmlns:xlink="http://www.w3.org/1999/xlink" height="400" width="400" viewBox="-8.60356445312499 -10.724072265625 6.09770507812499 6.37275390625"><path d="M -3.087 -5.128 l -0.027 0.04 -0.132 -0.025 0.031 -0.033 z M -7.991 -10.162 l 0.03 -0.001 0.077 -0.022 0.07 -0.051 0.065 -0.106 0.088 -0.085 0.099 0.006 0.029 -0.016 0.035 -0.003 0.041 0.056 0.042 0.043 0.03 0.001 0.022 0.081 0.181 0.034 0.077 0.022 0.065 0.059 0.023 0.002 0.028 -0.012 0.021 -0.021 0.004 -0.023 -0.028 -0.053 0.012 -0.048 0.029 -0.043 0.047 -0.003 0.07 -0.012 0.08 0 0.06 0.008 0.024 -0.043 -0.023 -0.12 0.006 -0.066 0.01 -0.056 0.022 -0.023 0.09 0.07 0.082 0.025 0.059 0.002 0.016 -0.013 -0.025 -0.076 0.007 -0.023 0.022 -0.013 0.039 -0.008 0.104 -0.031 0.011 0.006 0.02 0.12 -0.009 0.039 0.022 0.082 0.027 0.076 -0.002 0.031 -0.022 0.047 -0.026 0.043 0.003 0.018 0.042 0.029 0.08 0.03 0.083 0.007 0.046 -0.044 0.048 -0.036 0.033 -0.032 0.011 -0.048 0.052 -0.035 0.15 -0.044 0.138 -0.007 0.033 0.014 0.062 0.066 0.079 0.046 0.12 -0.006 0.087 0.027 0.075 0.051 0.051 0.113 0.055 0.082 0.024 0.116 0.087 0.061 0.068 0.028 0.093 0.085 0.096 0.043 0.099 -0.01 0.046 0.044 0.074 0.031 0.074 0.002 0.065 -0.098 0.086 -0.038 0.218 -0.078 0.086 -0.035 0.087 -0.022 0.209 -0.007 0.195 0.024 0.097 0.018 0.066 -0.013 0.063 0.046 0.065 0.097 0.053 0.031 0.054 0.034 0.04 0.077 0.047 0.076 0.026 0.034 0.058 0.075 0.05 0.001 0.049 -0.032 0.021 -0.024 0.01 0.05 -0.02 0.08 0.004 0.05 0.028 0.019 -0.015 0.064 -0.057 0.109 0 0.065 0.057 0.02 0.041 0.069 0.024 0.117 0.025 0.039 0.002 0.024 0.041 0.283 0.051 0.284 -0.032 0.037 -0.044 0.011 -0.029 0.013 -0.008 0.026 0.019 0.039 -0.012 0.036 -0.055 0.024 -0.121 0.09 -0.008 0.036 -0.032 0.077 -0.027 0.047 -0.039 0.087 -0.063 0.23 -0.023 0.191 -0.003 0.059 -0.024 0.041 -0.028 0.059 -0.131 0.164 -0.067 0.134 0.009 0.058 0.003 0.058 -0.02 0.042 0.004 0.113 0.016 0.095 0.023 0.093 0.095 0.263 0.049 0.159 0.031 0.129 0.027 0.086 0.025 0.035 0.011 0.033 0.141 0.024 0.028 0.019 0.039 0.168 -0.007 0.076 -0.028 0.029 0.001 0.064 -0.007 0.08 -0.02 0.031 -0.079 0.004 -0.054 0.03 -0.071 -0.012 -0.007 -0.02 -0.038 -0.007 -0.105 -0.045 0.017 -0.145 -0.049 -0.006 -0.038 0.019 -0.074 0.175 -0.036 0.03 -0.523 -0.09 -0.114 -0.072 -0.136 -0.017 -0.237 0.008 -0.196 0.022 -0.056 0.044 0.494 -0.026 0.053 0.005 0.025 0.027 -0.624 0.058 -0.238 0.034 -0.07 -0.009 -0.054 -0.056 -0.259 -0.007 -0.053 0.018 -0.032 0.041 0.102 -0.009 0.161 -0.002 0.043 0.031 -0.503 0.041 -0.349 0.079 -0.148 0.058 -0.487 0.191 -0.297 0.09 -0.078 0.033 -0.135 0.094 -0.173 0.059 -0.195 0.11 -0.119 0.025 -0.027 -0.035 -0.003 -0.186 -0.017 -0.249 0.006 -0.095 0.016 -0.09 0 -0.074 0.059 -0.028 0.016 -0.031 0.009 -0.097 0.055 -0.088 0.001 -0.153 0.016 -0.032 0.013 -0.041 -0.024 -0.101 -0.031 -0.19 -0.015 -0.012 -0.013 0.008 -0.031 0.003 -0.122 -0.066 -0.094 -0.011 -0.066 -0.056 -0.004 -0.064 -0.032 -0.037 -0.022 -0.074 -0.033 -0.085 -0.093 -0.051 -0.087 -0.012 -0.062 0.011 -0.073 -0.003 -0.083 -0.028 -0.058 -0.032 -0.054 -0.062 -0.051 -0.049 -0.04 0.006 -0.049 -0.012 -0.048 -0.022 -0.016 -0.017 0.202 -0.197 0.069 -0.096 0.007 -0.059 0.001 -0.06 0.022 -0.061 0.006 -0.093 -0.112 -0.338 -0.028 -0.105 -0.03 -0.031 -0.019 -0.011 0.056 -0.043 0.078 0.011 0.12 0.034 0.026 -0.033 0.091 -0.171 -0.002 -0.063 -0.009 -0.044 0.053 -0.117 0.042 -0.045 0.022 -0.049 -0.007 -0.066 -0.032 -0.025 -0.042 0.005 -0.05 -0.016 -0.077 -0.038 -0.039 -0.034 0.012 -0.154 0.007 -0.048 0.027 -0.028 0.042 -0.007 0.119 -0.005 0.096 0.018 0.084 0.01 0.045 0 0.036 0.046 0.048 0.047 0.043 0 0.015 -0.035 -0.01 -0.152 -0.029 -0.081 -0.064 -0.078 -0.167 -0.066 -0.004 -0.093 0.017 -0.1 0.036 -0.037 0.124 -0.064 -0.022 -0.034 -0.04 -0.037 -0.079 -0.037 0.018 -0.12 0.004 -0.107 -0.067 0.012 -0.068 0.006 -0.058 -0.033 -0.048 -0.065 -0.009 -0.179 0 -0.207 -0.009 -0.091 0.019 -0.049 0.059 -0.045 0.064 -0.058 z" vector-effect="non-scaling-stroke" fill="#000" fill-opacity="1" stroke="#FFF" stroke-width="0px" stroke-linejoin="round" stroke-linecap="round"/></svg>
