<svg xmlns="http://www.w3.org/2000/svg" xmlns:xlink="http://www.w3.org/1999/xlink" height="400" width="400" viewBox="12.213671875 -5.31210937499999 19.0491672306526 18.76591796875"><path d="M 30.577 8.22 l -0.25 0.038 -0.276 0.042 -0.285 0.043 -0.282 0.043 -0.268 0.041 -0.243 0.037 -0.074 0.021 0.036 0.105 -0.017 0.11 -0.048 0.085 -0.076 0.105 -0.035 0.042 -0.078 0.082 -0.065 0.058 -0.132 0.097 -0.084 0.055 0 0.05 0.14 0.235 0.064 0.169 0.026 0.152 -0.001 0.087 -0.005 0.18 -0.006 0.214 -0.01 0.084 0.038 0.153 -0.007 0.119 -0.095 0.133 -0.026 0.131 -0.048 0.176 -0.066 0.245 -0.047 0.129 0.026 0.084 0.024 0.056 0.025 0.075 0.051 0.114 0.059 0.067 0.033 0.029 0.195 0.143 0.081 0.069 0.123 0.137 0.091 0.091 0.127 0.021 0.153 0.035 0.084 0.026 0.058 -0.013 0.019 -0.032 -0.003 -0.069 -0.01 -0.051 0.016 -0.039 0.052 -0.026 0.132 -0.004 0.058 -0.034 0.046 -0.009 0 0.151 0 0.144 0 0.175 0 0.201 0 0.165 0 0.175 0 0.202 -0.001 0.023 -0.02 0.045 -0.053 0.016 -0.071 -0.039 -0.004 -0.041 -0.017 -0.074 -0.033 -0.038 -0.043 -0.012 -0.073 0.019 -0.1 0.055 -0.128 0.048 -0.052 0.028 -0.09 -0.003 -0.097 -0.026 -0.072 -0.062 -0.021 -0.092 -0.063 -0.095 -0.086 -0.138 -0.043 -0.056 -0.057 -0.064 -0.058 -0.007 -0.065 -0.018 -0.04 -0.094 -0.037 -0.119 -0.023 -0.046 -0.039 -0.059 -0.055 -0.036 -0.12 -0.047 -0.168 -0.066 -0.211 -0.083 -0.101 -0.004 -0.112 -0.014 -0.071 -0.04 -0.04 -0.032 -0.046 -0.116 -0.063 -0.135 -0.186 -0.161 -0.042 -0.178 -0.037 -0.026 -0.064 0.015 -0.049 0.022 -0.019 0.048 -0.05 0.161 -0.027 0.074 -0.019 0.021 -0.04 0.024 -0.066 0.022 -0.094 0.011 -0.133 -0.004 -0.167 -0.024 -0.09 -0.018 -0.243 -0.027 -0.07 -0.013 -0.099 -0.035 -0.072 -0.035 -0.236 -0.076 -0.107 0.009 -0.052 -0.054 -0.047 -0.026 -0.064 -0.05 -0.029 -0.07 -0.038 -0.149 0.009 -0.079 0.028 -0.089 -0.031 -0.025 -0.043 0 -0.061 0.031 -0.109 0.017 -0.199 0.039 -0.071 0.022 -0.078 0.017 -0.06 0.015 -0.15 0.086 -0.052 0.009 -0.089 -0.031 -0.043 -0.046 0.043 -0.052 0.018 -0.064 -0.031 -0.125 -0.046 -0.058 -0.133 -0.042 -0.051 -0.004 -0.021 -0.07 -0.037 -0.064 -0.076 -0.012 -0.036 -0.007 -0.038 0.02 -0.021 0.052 -0.006 0.04 -0.067 0.03 -0.138 -0.006 -0.136 -0.029 -0.096 -0.009 -0.064 0.007 -0.243 0.098 -0.08 0.013 -0.262 -0.008 -0.148 -0.021 -0.105 -0.004 -0.075 0.031 -0.093 0.073 -0.078 0.039 -0.036 -0.004 -0.022 -0.03 -0.03 -0.042 -0.009 -0.109 -0.039 -0.12 0.026 -0.063 0.077 -0.046 0.027 -0.093 -0.024 -0.14 -0.002 -0.098 0.021 -0.057 -0.028 -0.138 -0.077 -0.218 -0.109 -0.178 -0.141 -0.137 -0.092 -0.131 -0.043 -0.125 0.016 -0.3 0.042 -0.265 0.033 -0.21 -0.009 -0.352 -0.095 -0.229 -0.021 -0.246 0.054 -0.264 0.008 -0.181 -0.036 -0.092 -0.024 -0.014 -0.031 -0.009 -0.24 -0.009 -0.321 -0.012 -0.279 -0.004 -0.303 -0.004 -0.049 -0.033 -0.023 -0.062 0.001 -0.061 0.062 -0.187 -0.009 -0.015 -0.108 -0.004 -0.292 0.03 -0.193 0.03 -0.122 0.01 -0.215 0.051 -0.133 0.107 -0.044 0.135 0.004 0.111 -0.008 0.081 -0.061 0.085 -0.048 0.098 -0.002 0.051 -0.029 0.26 -0.198 0.035 -0.198 0 -0.046 -0.003 -0.245 -0.062 -0.091 0 -0.078 0.033 -0.15 0.032 -0.143 0.024 -0.144 0.077 -0.038 0.007 -0.096 -0.04 -0.134 0.004 -0.135 0.019 -0.064 0.008 -0.044 -0.023 -0.125 -0.194 -0.166 -0.259 -0.09 -0.162 -0.033 -0.042 -0.058 -0.056 -0.079 -0.106 -0.033 -0.1 0.014 -0.095 -0.046 -0.128 -0.106 -0.161 -0.07 -0.154 -0.034 -0.147 -0.008 -0.126 0.017 -0.105 -0.021 -0.077 -0.058 -0.05 -0.032 -0.063 -0.023 -0.026 -0.048 -0.059 -0.106 -0.066 -0.116 -0.035 -0.255 -0.001 -0.333 -0.001 -0.302 0.005 -0.336 0.006 -0.34 0.006 -0.092 0.009 -0.259 0.004 -0.208 -0.017 -0.077 -0.011 -0.135 -0.008 -0.214 -0.002 -0.116 0.007 -0.278 0 -0.025 0.002 -0.044 0.018 -0.118 -0.026 -0.116 0.009 -0.065 -0.029 -0.142 0.018 -0.069 0.024 -0.111 0.083 -0.166 0.043 -0.062 -0.004 -0.041 -0.014 -0.097 -0.091 -0.075 -0.088 -0.027 -0.049 0.042 -0.012 0.131 -0.019 0.099 -0.009 0.019 -0.023 0.015 -0.271 0.003 -0.276 -0.035 -0.036 -0.034 -0.022 -0.002 -0.019 0.051 -0.035 0.071 -0.04 0.023 -0.018 0.079 -0.073 0.155 -0.169 0.118 -0.041 0.11 -0.044 0.015 -0.016 0.015 -0.033 0.049 0.002 0.016 0.016 0.024 0.036 0.043 0.05 0.078 0.059 0.079 0.064 0.039 0.008 0.063 -0.032 0.073 -0.048 0.108 -0.035 0.026 -0.033 0.014 -0.07 0.008 -0.075 0.009 -0.089 0.022 -0.012 0.039 -0.009 0.071 0.025 0.033 0.026 0.059 0 0.038 -0.023 0.068 -0.044 0.087 -0.017 0.093 -0.042 0.089 -0.054 0.042 -0.005 0.045 0.07 0.04 0.049 0.007 0.03 -0.04 0.059 -0.045 0.077 0.037 0.096 0.009 0.093 -0.001 0.056 0.03 0.023 0.021 0.011 0.032 -0.013 0.064 0.004 0.076 0.029 0.074 -0.003 0.071 -0.036 0.133 -0.14 0.194 -0.245 0.161 -0.153 0.127 -0.063 0.086 -0.073 0.045 -0.084 0.074 -0.057 0.154 -0.045 0.118 -0.051 0.118 -0.168 0.157 -0.302 0.044 -0.27 0.027 -0.164 -0.016 -0.566 -0.01 -0.186 0.024 -0.101 0.059 -0.07 0.16 -0.147 0.107 -0.121 0.082 -0.141 0.158 -0.323 0.069 -0.104 0.031 -0.047 0.095 -0.086 0.133 -0.075 0.171 -0.065 0.264 -0.225 0.21 -0.226 -0.029 -0.271 0.049 -0.225 0.115 -0.287 0.038 -0.303 -0.039 -0.32 0.017 -0.261 0.109 -0.304 0.046 -0.113 0.015 -0.185 -0.001 -0.294 0.139 -0.402 0.132 -0.24 0.147 -0.269 0.056 -0.163 0.075 -0.217 -0.012 -0.174 -0.014 -0.2 0.037 -0.276 -0.014 -0.162 -0.052 -0.141 0.027 -0.089 0.106 -0.036 0.132 -0.141 0.237 -0.368 0.255 -0.179 0.178 -0.057 0.185 0.006 0.121 0.032 0.056 0.058 0.14 0.087 0.224 0.115 0.167 0.143 0.093 0.145 0.072 0.079 0.089 0.027 0.146 -0.012 0.163 0.034 0.17 0.081 0.104 0.03 0.039 -0.021 0.082 0.012 0.187 0.067 0.149 -0.037 0.221 0.027 0.514 0.119 0.028 -0.02 0.012 -0.005 0.044 -0.048 0.112 -0.238 0.095 -0.146 0.044 -0.055 0.109 -0.077 0.128 -0.02 0.123 0.007 0.103 0.034 0.094 0.039 0.104 0 0.106 -0.038 0.158 -0.07 0.167 -0.046 0.143 -0.05 0.236 -0.088 0.092 -0.04 0.117 -0.016 0.328 0.08 0.213 -0.053 0.087 0.016 0.184 -0.057 0.034 -0.038 0.117 -0.193 0.125 -0.056 0.189 0.028 0.106 0.03 0.354 0.083 0.459 0.086 0.135 0.013 0.054 0.01 0.048 -0.013 0.15 -0.109 0.051 -0.015 0.043 0.002 0.288 0.089 0.036 0.07 0.052 0.072 0.173 0.122 0.055 0.068 0.042 0.075 0.027 0.059 0.054 0.047 0.075 0.03 0.064 0.036 0.039 0.053 0.059 0.055 0.113 0.075 0.055 0.002 0.064 0.01 0.056 0.019 0.06 -0.006 0.097 -0.049 0.115 -0.082 0.087 -0.05 0.212 0.018 0.118 0.041 0.094 0.058 0.073 -0.004 0.16 -0.106 0.085 -0.113 0.082 -0.024 0.125 0.049 0.103 0.106 0.09 0.154 0.064 0.059 0.087 0.091 0.174 0.196 0.226 0.098 0.088 0.048 0.029 0.048 0.017 0.064 0.006 0.07 0.027 0.029 0.061 -0.01 0.052 -0.01 0.057 0.02 0.04 0.051 0.02 0.04 0.022 0.043 0.057 0.027 0.011 0.055 -0.039 0.067 -0.04 0.06 -0.049 0.119 -0.025 0.122 0.033 0.04 0.035 0.034 0.019 0.034 0.011 0.04 -0.004 0.047 -0.077 0.169 -0.04 0.148 -0.001 0.075 0.101 0.055 0.132 -0.003 0.042 0.034 0.042 0.054 0.037 0.027 0.055 -0.001 0.039 0.019 0.015 0.038 0.045 0.041 0.027 0.032 -0.004 0.006 -0.08 0.08 -0.197 0.141 -0.046 0.017 -0.068 0.056 -0.154 0.157 -0.04 0.026 -0.083 0.097 -0.061 0.047 -0.05 0.066 -0.038 0.085 -0.054 0.085 0.012 0.041 0.014 0.001 0.035 -0.004 0.019 0.002 0.009 0.019 -0.157 0.054 -0.081 0.083 -0.057 0.129 -0.136 0.11 -0.104 0.044 -0.011 0.026 -0.008 0.119 0.011 0.175 -0.049 0.08 -0.071 0.155 -0.037 0.097 -0.028 0.019 -0.032 0.049 -0.02 0.159 -0.013 0.053 -0.001 0.007 -0.04 0 -0.047 0.014 -0.101 0.046 -0.079 0.159 -0.058 0.114 -0.033 0.077 0.008 0.048 0.032 0.063 0.053 -0.01 0.033 -0.023 0.058 0.005 0.132 -0.104 0.001 -0.001 0.005 0.029 -0.04 0.156 -0.002 0.092 -0.016 0.104 -0.028 0.09 0.002 0.144 0.016 0.235 -0.003 0.031 -0.039 0.022 -0.07 0.058 -0.066 0.039 -0.05 0.01 -0.083 0.104 -0.047 0.064 -0.024 -0.042 -0.126 -0.038 -0.038 0.042 -0.045 0.19 -0.078 0.17 0.007 0.074 -0.037 0.071 -0.007 0.034 0.004 0.041 0.028 0.012 0.013 0.048 -0.06 0.084 -0.006 0.076 0.008 -0.002 0 0.001 0.034 0.109 0.003 0.079 0.028 0.047 0.093 0.038 0 0.038 0.002 0.041 0.048 0.051 0.088 0.104 0.071 0.098 0.002 0.085 -0.014 0.143 -0.002 0.06 -0.015 -0.002 -0.021 0.008 -0.018 0.023 -0.015 0.038 -0.004 0.083 0.009 0.126 -0.01 0.087 -0.028 0.047 -0.007 0.038 0.014 0.029 0 0.036 -0.014 0.043 -0.017 0.196 0.002 0.077 0.011 0.037 -0.01 0.039 -0.031 0.041 0.005 0.031 0.07 0.026 0.013 -0.009 0.073 -0.217 0.009 -0.047 0.017 -0.006 0.009 0.036 -0.053 0.336 0.001 0.074 -0.033 -0.007 -0.022 0.025 -0.023 0.057 -0.01 0.128 -0.002 0.312 -0.011 0.028 0.015 0.07 0.04 0.112 0.069 0.135 0.146 0.245 -0.001 0.014 -0.029 0.004 -0.009 0.027 0.008 0.084 -0.001 0.02 -0.01 0.032 -0.115 0.094 -0.025 0.023 -0.006 0.043 0.009 0.08 0.022 0.05 0.034 0.021 0.02 0.022 0.02 0.044 0.022 0.016 0.113 0.3 0.012 0.018 0.017 0.008 0.022 -0.002 0.008 0.023 -0.004 0.095 0.031 0.087 0.025 0.034 0.079 0.068 0.136 0.173 0.084 0.068 0.092 0.032 0.085 0.05 0.077 0.069 0.057 0.085 0.061 0.175 0.006 0.084 -0.009 0.029 0.017 0.083 0.044 0.098 0.012 0.08 0.017 0.024 0.073 0.03 0.029 0.026 0.046 0.068 0.026 0.024 0.031 0.012 0.033 0.031 0.035 0.051 0.014 0.066 z" vector-effect="non-scaling-stroke" fill="#000" fill-opacity="1" stroke="#FFF" stroke-width="0px" stroke-linejoin="round" stroke-linecap="round"/></svg>
