<svg xmlns="http://www.w3.org/2000/svg" xmlns:xlink="http://www.w3.org/1999/xlink" height="400" width="400" viewBox="8.12148437500002 -57.7369140625 7.015625 3.108056640625"><path d="M 12.569 -55.785 l 0.002 0.1 -0.026 0.029 -0.038 0.019 -0.1 0.02 -0.087 0.028 -0.077 0.05 -0.028 0.071 0.06 0.052 0.11 0.029 0.028 0.099 -0.091 0.049 -0.233 0.049 -0.024 0.118 0.008 0.093 -0.004 0.068 -0.018 0.094 -0.188 0.043 -0.121 -0.143 -0.001 -0.057 -0.036 -0.067 -0.007 -0.057 -0.043 -0.091 -0.178 -0.025 -0.069 -0.003 -0.097 0.017 -0.024 -0.007 -0.116 -0.124 0.019 -0.137 -0.062 -0.069 -0.008 -0.031 0.001 -0.035 -0.051 -0.029 -0.062 -0.015 -0.03 -0.077 0.071 -0.019 0.175 0.009 0.051 -0.005 0.047 -0.016 0.141 -0.127 -0.004 -0.028 0.015 -0.036 0.153 -0.013 0.068 0.049 -0.014 0.078 0.009 0.1 0.093 0.027 0.036 0.004 0.039 -0.074 0.027 -0.036 0.037 -0.02 0.012 -0.068 -0.022 -0.041 -0.046 -0.031 0.173 -0.084 0.179 -0.067 0.104 -0.003 0.105 0.016 0.098 0.022 0.053 0.019 0.03 0.031 -0.065 0.074 -0.018 0.041 z M 9.74 -54.826 l -0.015 0 -0.064 -0.009 -0.045 -0.021 -0.117 0.015 -0.157 0.034 -0.087 -0.002 -0.069 -0.037 -0.283 -0.052 -0.046 -0.004 -0.187 -0.002 0 0 -0.009 -0.083 -0.023 -0.06 -0.065 -0.089 0.097 -0.021 -0.019 -0.173 -0.035 -0.09 -0.271 -0.092 -0.213 -0.09 0.049 -0.301 0.021 -0.081 -0.081 -0.158 0.008 -0.181 0.034 -0.286 0.068 -0.011 0.05 0.001 0.192 0.051 0.08 0.005 0.055 0.046 0.064 0.019 0.046 -0.049 0.018 -0.083 0.152 -0.108 0.106 -0.04 0.073 -0.019 0.073 0.043 0.056 0.049 0.013 -0.107 0.045 -0.203 -0.144 -0.032 -0.118 0.028 -0.117 0.129 -0.104 0.162 -0.169 0.015 -0.135 0.046 -0.122 -0.048 -0.078 -0.042 -0.002 -0.061 0.018 -0.037 0.143 -0.132 0.192 -0.127 0.193 0.001 0.141 -0.041 0.084 -0.005 0.262 0.009 0.135 -0.028 0.121 -0.058 0.261 -0.246 0.147 -0.103 0.297 -0.036 0.274 -0.118 0.077 -0.002 -0.129 0.088 -0.021 0.034 -0.016 0.052 0.092 0.114 -0.02 0.069 0.007 0.136 -0.087 0.071 -0.098 0.151 -0.042 0.022 -0.009 0.176 0.01 0.042 -0.014 0.16 0.101 0.066 0.107 0.034 0.356 -0.001 0.037 0.029 0.043 0.05 -0.032 0.084 -0.038 0.064 -0.103 0.054 -0.132 0.04 -0.082 0.002 -0.112 -0.076 -0.053 0.025 -0.055 0.039 -0.092 0.208 -0.044 0.14 -0.024 0.011 -0.052 -0.021 -0.09 -0.002 -0.114 0.033 0.058 0.03 0.062 0.052 -0.025 0.026 -0.1 0.028 -0.089 0.057 -0.037 0.043 -0.112 0.051 -0.07 0.064 0.034 0.08 0.015 0.07 0.031 0.077 -0.028 0.062 -0.138 0.088 -0.051 0.077 0.119 -0.001 0.073 0.018 0.043 0.023 0.044 0.032 -0.027 0.04 z M 10.645 -55.61 l 0.042 0.052 0.051 0.111 0.081 0.124 -0.034 0.052 0.023 0.067 -0.023 0.07 -0.161 0.081 -0.181 0.004 -0.188 -0.039 -0.266 -0.075 -0.021 -0.042 -0.037 -0.023 -0.071 -0.128 0.002 -0.158 0.134 -0.02 0.292 -0.076 0.067 0.012 0.07 0.039 0.081 0.002 0.118 -0.055 z M 11.361 -54.892 l 0.177 0.062 0.12 -0.004 0.081 0.026 0.019 0.04 0.007 0.088 -0.086 0.026 -0.094 -0.009 -0.129 0.034 -0.422 -0.144 0.006 -0.12 0.017 -0.047 0.2 -0.011 z M 10.734 -54.751 l -0.044 0.006 -0.06 -0.081 -0.008 -0.025 0.071 -0.052 0.046 -0.059 0.118 -0.09 0.068 -0.106 0.026 0.002 -0.03 0.094 -0.156 0.262 z M 12.549 -54.966 l -0.038 0.015 -0.154 -0.011 -0.173 0.069 -0.066 -0.022 0.025 -0.044 0.018 -0.016 0.058 -0.019 0.039 -0.027 0.015 -0.043 0.036 0.023 0.107 0.01 0.052 0.014 0.044 0.02 z M 12.666 -55.597 l -0.094 0.043 -0.021 -0.002 -0.031 -0.058 0.05 -0.035 0.029 -0.03 0.021 0.001 0.028 0.033 z M 10.484 -54.848 l -0.067 0.01 -0.077 -0.022 -0.125 -0.082 -0.016 -0.022 0.066 0.014 0.081 0.043 0.067 0.009 0.091 0.036 z M 10.061 -54.886 l -0.104 0.014 -0.053 -0.024 -0.098 -0.009 -0.035 -0.154 0.01 -0.009 0.049 0.011 0.168 0.072 0.059 0.079 z M 10.607 -55.783 l -0.017 0.018 -0.063 -0.019 -0.007 -0.065 0.024 -0.058 -0.028 -0.052 0.031 -0.033 0.089 0.078 0.025 0.037 -0.034 0.044 z M 11.052 -57.253 l -0.041 0.023 -0.138 -0.033 0.061 -0.046 0.151 -0.021 0.089 0.007 -0.098 0.046 z M 15.088 -55.022 l -0.037 0.017 -0.165 -0.028 -0.201 -0.069 0.029 -0.136 0.052 -0.059 0.367 0.152 0.004 0.057 z" vector-effect="non-scaling-stroke" fill="#000" fill-opacity="1" stroke="#FFF" stroke-width="0px" stroke-linejoin="round" stroke-linecap="round"/></svg>
