<svg xmlns="http://www.w3.org/2000/svg" xmlns:xlink="http://www.w3.org/1999/xlink" height="400" width="400" viewBox="41.7646484375 -12.70859375 1.64511718750001 1.767578125"><path d="M 43.246 -11.5 l -0.087 0.134 -0.111 0.171 -0.126 0.195 -0.079 0.001 -0.061 -0.011 -0.042 -0.033 -0.086 -0.036 -0.097 -0.002 -0.093 0.034 -0.157 0.042 -0.142 0.014 -0.114 0.023 -0.095 0.027 -0.085 -0.015 -0.074 -0.025 -0.016 -0.207 -0.017 -0.225 0.002 -0.176 0.026 -0.097 0.023 -0.038 0.134 -0.134 0.046 -0.054 0.153 -0.222 0.131 -0.19 0.098 -0.142 0.03 -0.028 0.041 -0.027 0.029 0.008 0.191 0.137 0.034 -0.004 0.064 -0.043 0.058 -0.146 0.041 -0.053 0.017 0.002 0.122 -0.041 0.111 -0.046 0.014 0.048 0.168 0.197 0.055 0.097 0.056 0.177 -0.029 0.099 -0.044 0.064 -0.065 0.057 -0.224 0.14 -0.249 0.09 -0.159 0.179 -0.118 -0.012 0.018 0.068 0.044 0.008 0.069 -0.013 0.137 -0.052 0.122 -0.025 0.131 -0.002 0.119 0.022 z" vector-effect="non-scaling-stroke" fill="#000" fill-opacity="1" stroke="#FFF" stroke-width="0px" stroke-linejoin="round" stroke-linecap="round"/></svg>
