<svg xmlns="http://www.w3.org/2000/svg" xmlns:xlink="http://www.w3.org/1999/xlink" height="400" width="400" viewBox="-72.000390625 -19.91396484375 3.66123046875001 2.278369140625"><path d="M -71.768 -18.039 l 0.005 -0.165 0.027 -0.067 -0.025 -0.071 -0.111 -0.075 -0.068 -0.096 -0.06 -0.085 0.014 -0.012 0.12 -0.004 0.042 -0.031 0.081 -0.087 0.016 -0.07 -0.007 -0.053 -0.053 -0.064 -0.021 -0.067 0.065 -0.058 0.085 -0.085 0.012 -0.033 -0.002 -0.032 -0.099 -0.09 -0.007 -0.039 0.046 -0.098 -0.005 -0.065 -0.046 -0.202 -0.022 -0.03 0.044 -0.017 0.029 -0.06 0.039 -0.053 0.051 -0.029 0.058 -0.018 0.116 0.001 0.16 0.047 0.045 -0.001 0.154 -0.042 0.128 -0.023 0.12 0.027 0.049 0.036 0.099 0.058 0.05 0.018 0.157 -0.001 0.043 0.006 0.132 0.095 0.111 0.038 0.064 0.002 0.115 -0.037 0.057 0.001 0.066 0.082 0.013 0.116 0.055 0.106 0.084 0.068 0.414 -0.029 0.092 0.056 -0.032 0.046 -0.058 0.025 -0.197 -0.011 -0.086 0.006 -0.017 0.046 0 0.043 0.115 0.01 0.113 0.022 0.115 0.034 0.117 0.023 0.132 0.015 0.13 0.025 0.217 0.084 0.239 0.19 0.064 0.043 0.042 0.06 -0.02 0.073 -0.086 0.12 -0.048 0.039 -0.071 0.024 -0.048 0.049 -0.047 0.084 -0.029 0.007 -0.034 -0.003 -0.057 -0.048 -0.041 -0.073 -0.115 -0.069 -0.137 0.009 -0.202 -0.041 -0.122 0.02 -0.122 0.004 -0.125 -0.021 -0.126 -0.007 -0.126 0.026 -0.122 0.044 -0.045 0.028 -0.078 0.069 -0.042 0.025 -0.297 0.034 -0.085 -0.05 -0.079 -0.069 -0.114 -0.009 -0.165 0.053 -0.104 0.019 -0.042 0.023 -0.012 0.026 0 0.096 -0.023 0.058 -0.161 0.22 -0.091 0.155 -0.037 0.048 -0.043 0.01 -0.079 -0.089 -0.051 -0.032 -0.063 -0.016 -0.027 -0.048 0.001 -0.068 -0.017 -0.065 -0.039 -0.051 z" vector-effect="non-scaling-stroke" fill="#000" fill-opacity="1" stroke="#FFF" stroke-width="0px" stroke-linejoin="round" stroke-linecap="round"/></svg>
