<svg xmlns="http://www.w3.org/2000/svg" xmlns:xlink="http://www.w3.org/1999/xlink" height="400" width="400" viewBox="-91.654150390625 -1.45537109374999 16.404541015625 6.44599609375"><path d="M -75.284 0.107 l -0.056 0.036 -0.058 0.004 -0.078 0.011 -0.108 -0.034 -0.043 0 -0.006 0.035 0.071 0.042 0.07 0.048 0.025 0.073 0.041 0.087 0.099 0.098 0.062 0.049 0.004 0.035 -0.019 0.064 -0.005 0.053 0.034 0.245 -0.023 0.015 -0.037 0.001 -0.039 -0.001 -0.032 -0.027 -0.028 -0.016 -0.012 0.038 -0.029 0.109 -0.065 0.245 -0.057 0.215 -0.071 0.076 -0.103 0.121 -0.141 0.165 -0.204 0.24 -0.151 0.111 -0.119 0.087 -0.139 0.101 -0.18 0.13 -0.202 0.073 -0.281 0.102 -0.199 0.072 -0.146 0.05 -0.152 0.052 -0.202 0.069 -0.078 0.065 -0.129 0.16 -0.06 0.077 -0.055 0.066 -0.011 0.03 0.007 0.019 0.026 0.032 0.002 0.033 -0.036 0.021 -0.031 0.003 -0.014 -0.017 -0.01 -0.036 -0.033 -0.037 -0.039 -0.011 -0.022 0.009 -0.002 0.034 -0.051 0.164 -0.002 0.079 -0.021 0.031 0.002 0.071 -0.051 0.066 -0.022 0.059 -0.016 0.05 -0.041 0.035 -0.015 0.055 -0.038 0.116 -0.045 0.091 -0.031 0.078 -0.006 0.058 0.024 0.041 0.008 0.033 -0.022 0.059 -0.012 0.045 -0.057 0.03 -0.118 0.072 -0.046 0.049 -0.018 0.056 0.012 0.048 -0.005 0.04 -0.056 0.015 -0.02 0.035 -0.038 0.061 -0.043 0.021 -0.11 -0.032 -0.081 -0.001 -0.063 -0.03 -0.068 -0.088 -0.056 -0.074 -0.046 -0.096 -0.014 -0.131 -0.062 -0.039 -0.061 -0.046 -0.072 0.013 -0.086 0.009 -0.048 -0.03 -0.118 -0.056 -0.101 -0.063 -0.076 -0.031 -0.058 0.015 -0.035 0.038 -0.061 0.068 -0.09 0.047 -0.041 -0.002 -0.054 -0.031 -0.01 -0.036 0.045 -0.058 0.091 -0.127 -0.101 -0.003 -0.035 -0.04 -0.005 -0.046 -0.017 -0.05 0.02 -0.059 0.053 -0.031 0.079 0.025 0.055 0.002 0.036 -0.056 0.036 -0.025 0.036 -0.018 0.015 -0.028 -0.038 -0.09 -0.011 -0.049 0.012 -0.028 -0.002 -0.056 -0.002 -0.041 -0.023 -0.036 -0.002 -0.055 -0.02 -0.03 -0.007 -0.031 -0.002 -0.036 -0.025 -0.018 -0.026 -0.019 0.022 -0.013 0.143 -0.05 0.06 -0.05 0.074 -0.046 0.063 -0.07 0.042 -0.068 0.099 -0.313 0.093 -0.198 -0.016 -0.094 -0.077 -0.128 -0.017 -0.189 0.007 -0.057 -0.01 -0.043 -0.051 0.078 0.013 0.278 -0.045 0.125 -0.063 0.03 -0.041 -0.022 0.024 -0.203 -0.046 0.037 -0.074 0.138 -0.121 0.102 -0.007 0.034 -0.029 0.042 -0.094 -0.039 -0.072 -0.042 -0.235 -0.229 -0.154 -0.048 -0.093 -0.08 -0.019 -0.034 -0.011 -0.046 0.095 -0.048 0.097 -0.065 0.01 -0.142 -0.003 -0.112 -0.072 -0.191 0.034 -0.249 -0.019 -0.098 -0.082 -0.207 0.061 -0.104 0.218 -0.076 0.07 -0.051 0.049 -0.164 0.05 -0.098 0.097 0.04 0.076 -0.005 -0.102 -0.037 -0.084 -0.148 -0.014 -0.068 0.161 -0.202 0.084 -0.053 0.104 -0.107 0.087 -0.161 0.021 -0.255 -0.036 -0.182 -0.027 -0.192 0.052 -0.05 0.132 -0.026 0.108 -0.062 0.055 -0.058 0.128 0.009 0.148 -0.089 0.236 -0.045 0.329 -0.102 0.073 -0.09 -0.033 -0.159 0.031 0.021 0.092 0.076 0.055 0.075 0.094 0.047 0.076 0.038 0.199 0.153 0.131 0.078 0.144 0.07 0.207 0.073 0.127 -0.012 0.03 0.056 0.025 0.059 0.047 0.034 0.075 0.029 0.045 0.009 0.014 0.015 0.045 0.212 0.026 0.031 0.104 0.033 0.127 0.013 0.052 -0.007 0.112 0.059 0.082 0.028 0.091 0.021 0.062 0.006 0.028 -0.009 0.01 -0.021 0.05 0.004 0.075 0.027 0.108 0.006 0.067 -0.026 0.009 -0.043 0.005 -0.075 0.025 -0.026 0.077 -0.044 0.04 0.009 0.203 0.094 0.042 0.032 0.051 0.065 0.095 0.097 0.103 0.062 0.159 0.026 0.153 0.101 z M -80.132 2.973 l -0.019 0.039 -0.095 -0.003 -0.027 -0.012 0.001 -0.044 0.022 -0.14 0.026 -0.059 0.078 -0.057 0.065 -0.027 0.083 0.005 0.088 0.052 -0.104 0.094 -0.058 0.014 -0.022 0.012 z M -78.909 -1.253 l -0.056 0.007 -0.026 -0.048 0.068 -0.056 0.023 -0.011 z M -90.335 0.772 l -0.052 0.002 -0.155 -0.097 0.01 -0.095 0.062 -0.064 0.2 -0.033 0.084 0.06 -0.007 0.114 -0.068 0.083 -0.054 0.015 z M -89.419 0.911 l -0.118 0.041 -0.041 -0.019 -0.025 -0.02 -0.006 -0.025 0.065 -0.062 0.064 -0.033 0.057 -0.071 0.105 -0.042 0.031 0.01 0.02 0.015 0.008 0.024 -0.035 0.058 -0.063 0.04 z M -91.426 0.461 l -0.1 0.017 -0.084 -0.034 -0.036 -0.053 -0.008 -0.08 0.007 -0.026 0.187 -0.029 0.061 0.067 -0.001 0.098 z M -90.424 1.34 l -0.04 0.002 -0.055 -0.043 0.042 -0.078 0.045 0.019 0.033 0.022 0.02 0.03 z M -91.272 -0.025 l 0.062 0.064 0.034 0.184 0.201 0.194 0.025 0.108 -0.018 0.05 0.01 0.02 0.096 0.076 0.063 0.08 -0.106 0.188 -0.226 0.079 -0.24 -0.003 -0.048 -0.02 -0.065 -0.072 -0.012 -0.064 0.037 -0.061 0.124 -0.093 0.189 -0.083 0.024 -0.064 -0.076 -0.062 -0.052 -0.123 -0.12 -0.086 -0.06 -0.264 -0.04 -0.013 -0.081 0.036 -0.04 -0.032 -0.007 -0.017 0.088 -0.06 0.018 -0.043 0.13 -0.021 0.056 0.034 z M -90.574 0.334 l -0.047 0.03 -0.189 -0.035 -0.059 -0.058 0.047 -0.079 0.04 -0.032 0.113 0.029 0.114 0.089 z" vector-effect="non-scaling-stroke" fill="#000" fill-opacity="1" stroke="#FFF" stroke-width="0px" stroke-linejoin="round" stroke-linecap="round"/></svg>
