<svg xmlns="http://www.w3.org/2000/svg" xmlns:xlink="http://www.w3.org/1999/xlink" height="400" width="400" viewBox="24.70322265625 -31.65498046875 12.1681640625 9.660107421875"><path d="M 36.871 -21.997 l -0.328 0 -0.328 0 -0.328 0 -0.328 0 -0.328 0 -0.328 0 -0.328 0 -0.328 0 -0.328 0 -0.328 0 -0.328 0 -0.328 0 -0.328 0 -0.328 0 -0.328 0 -0.328 0 -0.187 0 0.032 -0.089 0.02 -0.063 -0.022 -0.044 -0.064 -0.011 -0.042 0.014 -0.098 0.186 -0.051 0.007 -0.117 0 -0.382 0 -0.382 0 -0.382 0 -0.382 0 -0.382 0 -0.382 0 -0.382 0 -0.382 0 -0.382 0 -0.382 0 -0.382 0 -0.382 0 -0.382 0 -0.382 0 -0.382 0 -0.382 0 0 -0.225 0 -0.225 0 -0.225 0 -0.225 0 -0.225 0 -0.225 0 -0.225 0 -0.225 0 -0.225 0 -0.225 0 -0.225 0 -0.225 0 -0.225 0 -0.225 0 -0.225 0 -0.225 0 -0.225 0 -0.225 0 -0.225 0 -0.225 0 -0.225 0 -0.225 0 -0.225 0 -0.225 0 -0.225 0 -0.225 0 -0.225 0 -0.225 0 -0.225 0 -0.225 0 -0.225 0 -0.225 -0.009 -0.042 -0.056 -0.152 -0.05 -0.194 -0.055 -0.238 -0.007 -0.077 -0.092 -0.246 -0.008 -0.07 0.023 -0.05 0.151 -0.207 0.046 -0.1 0.038 -0.121 0.013 -0.098 -0.044 -0.15 -0.052 -0.135 -0.018 -0.138 -0.007 -0.136 0.077 -0.093 0.093 -0.087 0.035 -0.053 0.055 -0.06 0.038 -0.028 0.075 0.121 0.157 0.021 0.511 -0.108 0.564 0.109 0.311 0.042 0.479 0.092 0.292 0.165 0.08 0.021 0.21 -0.003 0.138 0.098 0.547 0.047 0.292 0.108 0.166 0.086 0.099 0.026 0.088 -0.004 0.119 -0.032 0.15 -0.06 0.163 -0.084 0.338 -0.216 0.12 -0.038 0.078 0.01 0.095 -0.003 0.04 -0.058 0.05 -0.04 0.031 -0.046 0.051 -0.055 0.176 -0.015 0.353 -0.094 -0.039 0.044 -0.321 0.105 0.138 0.013 0.141 -0.036 0.16 -0.023 0.029 -0.045 0.021 -0.084 0.031 -0.012 0.111 0.016 0.33 0.129 0.082 0.002 0.233 -0.071 0.05 -0.015 0.075 0.039 0.172 0.161 -0.06 -0.003 -0.184 -0.138 -0.016 0.069 -0.105 0.121 0.131 0.052 0.106 0.02 0.057 0.068 0.036 0.06 0.105 -0.026 0.075 -0.082 -0.039 -0.046 -0.027 -0.047 0.034 -0.001 0.073 0.039 0.209 0.155 0.071 0.032 0.081 -0.005 0.17 -0.044 0.047 0.007 0.228 -0.057 0.027 0.042 0.038 0.042 0.184 -0.046 0.289 0.001 0.236 -0.051 0.274 -0.123 0.022 -0.019 0.014 0.03 0.033 0.084 0.083 0.213 0.072 0.167 0.089 0.232 0.028 0.089 0.012 0.061 0.129 0.255 0.076 0.209 0.056 0.17 0.079 0.248 0.034 0.087 -0.056 0.045 -0.112 0.162 -0.119 0.513 -0.171 0.401 -0.019 0.251 -0.027 0.09 -0.081 0.127 -0.098 0.125 -0.175 -0.065 -0.285 -0.219 -0.166 -0.208 -0.178 -0.134 -0.168 -0.178 -0.046 -0.128 0.002 -0.082 -0.074 -0.2 -0.054 -0.095 -0.205 -0.213 -0.059 -0.114 -0.045 -0.05 -0.045 -0.072 -0.074 -0.277 -0.081 -0.176 -0.093 0.049 0.016 0.074 -0.081 0.102 -0.049 0.119 0.037 0.097 0.168 0.147 0.034 0.064 0.039 0.14 -0.006 0.19 0.027 0.065 0.126 0.141 0.045 0.084 0.027 0.072 0.042 0.065 0.125 0.123 0.179 0.234 0.17 0.158 0.123 0.076 0.052 0.076 0.012 0.197 -0.009 0.094 0.108 0.177 0.04 0.089 0.104 0.073 0.048 0.083 0.044 0.135 0.066 0.4 0.09 0.098 0.28 0.526 0.236 0.333 0.114 0.249 0.174 0.303 0.341 0.665 0.203 0.205 0.081 0.115 0.147 0.089 0.159 0.128 -0.152 -0.013 -0.038 0.008 -0.053 0.022 -0.026 0.078 -0.011 0.064 0.018 0.337 0.042 0.171 0.133 0.325 0.1 0.097 0.048 0.063 0.068 0.046 0.316 0.111 0.185 0.235 0.415 0.297 0.041 0.082 z" vector-effect="non-scaling-stroke" fill="#000" fill-opacity="1" stroke="#FFF" stroke-width="0px" stroke-linejoin="round" stroke-linecap="round"/></svg>
