<svg xmlns="http://www.w3.org/2000/svg" xmlns:xlink="http://www.w3.org/1999/xlink" height="400" width="400" viewBox="-90.105908203125 -14.431103515625 2.390576171875 1.26708984375"><path d="M -89.363 -14.416 l 0.025 0.005 0.167 0.051 0.05 -0.01 0.063 0.041 0.03 0.032 0.027 0.044 0.132 0.089 0.022 0.039 0.099 0.052 0.04 0.04 0.042 0.017 0.082 0.015 0.071 0.021 0.008 0.015 0.007 0.06 0.015 0.05 0.034 0.003 0.041 -0.024 0.132 -0.067 0.125 -0.045 0.071 0.027 0.042 0.056 0.048 0.025 0.099 -0.015 0.09 0.005 0.071 0.049 0.016 0.028 -0.043 0.163 -0.016 0.07 -0.008 0.059 0.025 0.015 0.025 0.023 -0.005 0.032 -0.077 0.052 -0.024 0.013 0.018 0.101 -0.057 0.061 -0.053 0.044 -0.093 0.012 -0.157 0.005 -0.236 -0.05 -0.174 -0.068 -0.094 0 0.03 0.022 0.074 0.014 0.098 0.048 -0.028 0.013 -0.355 -0.099 -0.411 -0.195 -0.246 -0.031 -0.281 -0.051 -0.166 -0.123 -0.125 -0.053 -0.011 -0.046 0.001 -0.052 0.057 -0.069 0.105 -0.093 0.07 -0.048 0.033 -0.009 0.046 0.005 0.044 -0.027 0.038 -0.064 0.04 -0.041 0.101 -0.042 0.023 -0.017 -0.008 -0.036 -0.022 -0.07 0.003 -0.043 0.033 -0.02 0.04 -0.004 0.082 -0.017 0.036 0.003 z" vector-effect="non-scaling-stroke" fill="#000" fill-opacity="1" stroke="#FFF" stroke-width="0px" stroke-linejoin="round" stroke-linecap="round"/></svg>
