<svg xmlns="http://www.w3.org/2000/svg" xmlns:xlink="http://www.w3.org/1999/xlink" height="400" width="400" viewBox="8.43427734375001 -3.75830078125 2.90107421875001 2.79819335937501"><path d="M 8.736 -3.758 l 0.025 0.004 0.15 -0.004 0.041 0.053 -0.005 0.078 -0.154 0.227 -0.029 0.096 -0.059 0.081 -0.052 0.007 -0.177 -0.048 -0.03 -0.029 -0.011 -0.039 0.017 -0.09 0.013 -0.028 0.085 -0.017 0.027 -0.015 0.046 -0.098 0.015 -0.089 0.038 -0.067 z M 11.329 -2.167 l 0.001 0.232 0.001 0.196 0.001 0.212 0.001 0.221 0.001 0.187 0.001 0.121 -0.205 -0.001 -0.272 -0.001 -0.272 -0.001 -0.272 -0.001 -0.137 0 -0.15 0 -0.049 0.006 -0.033 0.031 -0.04 0.007 -0.046 -0.026 -0.056 -0.013 -0.015 -0.027 -0.028 -0.049 -0.056 -0.005 -0.028 0.005 -0.04 0.028 -0.045 0.015 0.009 -0.022 -0.09 -0.06 -0.065 -0.006 -0.059 -0.019 0.048 -0.157 0.06 -0.139 0.09 -0.105 0.048 -0.025 0.016 -0.052 0.071 -0.171 0.088 -0.139 -0.027 -0.141 0.021 -0.236 0.025 0.007 0.004 0.022 0.007 0.033 0.033 0.029 0.11 0.046 0.327 0 0.195 0 0.289 0 0.306 0 z" vector-effect="non-scaling-stroke" fill="#000" fill-opacity="1" stroke="#FFF" stroke-width="0px" stroke-linejoin="round" stroke-linecap="round"/></svg>
