<svg xmlns="http://www.w3.org/2000/svg" xmlns:xlink="http://www.w3.org/1999/xlink" height="400" width="400" viewBox="36.4267578125 -18.005078125 6.68994140625 5.62851562500001"><path d="M 36.524 -14.257 l -0.032 -0.287 -0.021 -0.192 -0.023 -0.204 -0.021 -0.192 0.095 -0.118 0.044 -0.112 0.113 -0.364 0.045 -0.073 0.089 -0.195 0.012 -0.056 0.088 -0.246 -0.008 -0.163 -0.018 -0.165 0.048 -0.098 0.043 -0.078 -0.003 -0.066 0.019 -0.154 0.014 -0.038 0.053 -0.002 0.108 0.02 0.079 -0.015 0.092 0 0.071 -0.005 0.042 -0.047 0.057 -0.179 0.037 -0.036 0.029 -0.011 0.081 -0.033 0.069 -0.052 0.056 -0.038 0.021 -0.008 0.06 -0.005 0.06 -0.022 0.028 -0.025 0.075 -0.02 0.074 0.011 0.05 -0.022 0.033 -0.014 0.037 -0.001 0.034 -0.021 0.014 -0.032 0.023 -0.02 0.058 -0.047 0.026 -0.034 0.012 -0.034 0.012 -0.027 0.025 -0.046 0.1 -0.115 0.087 -0.067 0.302 0.578 0.123 0.342 0.108 0.356 0.08 0.535 0.076 0.273 0.123 0.134 0.084 0.255 0.072 0.01 0.052 0.07 0.09 0.239 0.065 0.089 0.034 -0.076 -0.004 -0.044 -0.025 -0.074 0.023 -0.095 0.05 -0.057 0.115 0.077 0.063 0.059 0.017 0.117 0.026 0.065 0.12 0.138 0.101 0.04 0.131 0.01 0.11 0.03 0.088 0.051 0.165 0.14 0.377 0.123 0.303 0.376 0.179 0.261 0.587 0.395 0.101 0.19 0.053 0.185 0.124 -0.009 0.212 0.203 0.062 0.154 0.173 0.056 0.029 -0.091 0.084 0.075 0.034 0.116 -0.111 0.046 -0.122 0.041 -0.017 -0.002 -0.041 0.053 -0.058 0.146 -0.064 0.043 -0.034 0.004 -0.191 -0.137 -0.029 -0.008 -0.041 0.027 -0.03 0.028 -0.089 -0.104 -0.065 -0.092 -0.091 -0.109 -0.088 -0.049 -0.094 -0.062 -0.093 -0.144 -0.095 -0.158 -0.14 -0.129 -0.262 -0.187 -0.241 -0.236 -0.184 -0.247 -0.118 -0.129 -0.051 -0.033 -0.245 -0.081 -0.171 -0.113 -0.132 -0.093 -0.081 -0.025 -0.079 -0.003 -0.167 0.018 -0.139 -0.058 -0.058 0 -0.093 -0.017 -0.073 -0.021 -0.086 0.025 -0.176 0.042 -0.072 -0.009 -0.039 -0.058 -0.023 -0.044 -0.061 -0.046 -0.05 0 -0.028 0.041 -0.184 0.105 -0.308 0.058 -0.073 -0.004 -0.054 -0.042 -0.155 -0.179 -0.044 -0.029 -0.035 -0.003 -0.072 -0.021 -0.067 -0.034 -0.059 -0.073 -0.059 -0.042 -0.064 0.144 -0.112 0.251 -0.06 0.135 -0.077 0.173 -0.024 0.005 -0.04 -0.013 -0.154 -0.216 -0.096 -0.081 -0.072 0.008 -0.053 0.04 -0.033 0.072 -0.036 0.045 -0.039 0.017 -0.084 -0.009 -0.129 -0.034 -0.133 0.007 -0.137 0.049 z M 40.076 -16.082 l 0.034 0.097 -0.098 -0.037 -0.016 -0.02 0.043 -0.038 0.009 -0.024 z M 40.141 -15.696 l 0.041 0.053 0.029 -0.005 0.023 -0.018 0.016 -0.038 0.158 0.074 -0.009 0.049 -0.094 0.003 -0.109 -0.021 -0.101 0.007 -0.12 -0.022 -0.028 -0.084 0.076 0.041 0.04 -0.01 0.007 -0.011 -0.054 -0.057 -0.076 -0.011 0.005 -0.045 0.034 -0.018 0.021 -0.022 -0.044 -0.061 0.086 0.014 0.054 0.037 0.036 0.043 z" vector-effect="non-scaling-stroke" fill="#000" fill-opacity="1" stroke="#FFF" stroke-width="0px" stroke-linejoin="round" stroke-linecap="round"/></svg>
