<svg xmlns="http://www.w3.org/2000/svg" xmlns:xlink="http://www.w3.org/1999/xlink" height="400" width="400" viewBox="21.8544921875 -59.639013671875 6.29658203125001 2.113525390625"><path d="M 27.352 -57.528 l -0.025 0.003 -0.139 -0.013 -0.154 -0.04 -0.067 -0.03 -0.066 0 -0.08 0.02 -0.287 0.058 -0.071 -0.013 -0.164 -0.057 -0.083 -0.062 -0.185 -0.123 -0.015 -0.029 -0.024 -0.023 -0.197 -0.03 -0.073 -0.045 -0.061 -0.006 -0.089 -0.023 -0.231 -0.097 -0.057 -0.009 -0.014 0.016 0.004 0.023 -0.014 0.013 -0.03 0 -0.054 -0.036 -0.064 -0.031 -0.2 0.059 -0.072 0.016 -0.063 0.003 -0.317 0.077 -0.096 0.042 -0.04 -0.004 0.009 -0.039 0.132 -0.196 0.024 -0.156 0.048 -0.021 0.014 -0.022 -0.021 -0.05 -0.137 -0.032 -0.055 0.005 -0.05 0.053 -0.052 0.038 -0.121 0.023 -0.104 -0.041 -0.243 -0.054 -0.062 -0.072 -0.015 -0.073 -0.129 -0.07 -0.054 -0.083 0.021 -0.058 0.117 -0.038 0.033 -0.033 -0.147 0.005 -0.03 -0.008 -0.006 -0.03 -0.065 -0.101 0.058 -0.04 0.025 -0.039 -0.047 -0.033 0.012 -0.038 0.037 -0.038 -0.023 -0.088 0.146 -0.047 0.142 -0.033 0.301 -0.017 -0.03 -0.08 0.122 -0.004 0.205 -0.097 0.203 0.017 0.294 -0.066 0.566 0.001 0.077 -0.038 -0.013 -0.039 0.002 -0.041 0.106 0.011 0.178 -0.007 0.667 0.081 0.164 0 0.227 0.082 0.123 0.021 0.361 0 0.557 0.036 0.109 -0.056 0.011 -0.014 0.053 0.031 0.067 0.05 0.018 0.029 -0.023 0.017 -0.067 0.014 -0.015 0.015 -0.03 0.026 -0.078 0.005 -0.041 0.019 -0.048 0.085 -0.092 0.141 -0.089 0.07 -0.145 -0.025 -0.226 0.012 -0.191 0.041 -0.133 0.07 -0.008 0.079 0.19 0.158 0.08 0.196 0.087 0.05 0.102 0.099 0.047 0.086 0.024 0.033 0.127 0.17 0.019 -0.001 0.001 0.002 0.029 0.079 0.049 0.029 0.047 0.021 0.01 0.013 -0.002 0.014 -0.024 0.016 -0.211 0.042 -0.027 0.035 -0.023 0.039 -0.092 0.058 -0.028 0.054 -0.017 0.062 z M 22.617 -58.621 l 0.071 0.024 0.065 -0.008 0.066 -0.017 0.144 0.016 0.329 0.122 0.03 0.033 -0.196 0.015 -0.045 0.037 -0.047 0.026 -0.056 0.008 -0.095 0.053 -0.128 0.05 -0.027 0.03 -0.232 -0.006 -0.127 0.019 -0.102 0.056 -0.042 0.109 -0.075 0.085 -0.076 0.031 -0.079 0.005 -0.019 -0.032 0.008 -0.032 0.167 -0.12 0.035 -0.039 -0.083 -0.017 -0.07 -0.042 -0.152 -0.049 -0.028 -0.039 0.037 -0.003 0.033 -0.011 0.041 -0.033 0.019 -0.038 -0.122 -0.11 0.062 -0.017 0.077 0.004 0.079 0.032 0.087 -0.038 0.037 -0.006 0.061 0.013 0.062 -0.073 0.146 -0.024 0.073 -0.023 z M 22.924 -58.827 l -0.082 0.049 -0.049 -0.02 -0.026 -0.024 -0.106 0.112 -0.119 0.019 -0.07 -0.022 0.006 -0.042 -0.068 -0.11 -0.104 -0.032 -0.146 -0.003 -0.106 -0.045 0.406 -0.031 0.042 -0.052 0.083 -0.055 0.062 -0.006 0.053 0.013 0.01 0.042 0.013 0.017 0.184 0.024 0.072 0.071 0.027 0.086 z M 23.344 -58.55 l -0.083 0.01 -0.197 -0.071 0.046 -0.048 0.056 -0.019 0.167 0.03 0.024 0.073 z" vector-effect="non-scaling-stroke" fill="#000" fill-opacity="1" stroke="#FFF" stroke-width="0px" stroke-linejoin="round" stroke-linecap="round"/></svg>
