<svg xmlns="http://www.w3.org/2000/svg" xmlns:xlink="http://www.w3.org/1999/xlink" height="400" width="400" viewBox="30.7875 25.74296875 1.32539062499998 1.56699218750001"><path d="M 31.948 25.958 l 0.02 0.015 0.092 0.046 0.008 0.092 -0.009 0.105 -0.019 0.066 0.007 0.066 0.03 0.103 0.028 0.07 0.007 0.319 -0.031 -0.015 -0.057 -0.014 -0.03 0.006 -0.028 0.143 -0.021 0.213 0.012 0.132 -0.216 0.004 -0.273 -0.014 -0.196 -0.057 -0.211 -0.126 -0.125 -0.196 -0.055 -0.123 -0.077 -0.007 -0.012 -0.021 -0.007 -0.151 0.002 -0.158 0.014 -0.042 0.142 -0.195 0.088 -0.121 0.055 -0.117 0.119 -0.137 0.128 -0.088 0.047 -0.013 0.033 0.004 0.225 0.121 0.231 0.114 0.05 -0.013 z" vector-effect="non-scaling-stroke" fill="#000" fill-opacity="1" stroke="#FFF" stroke-width="0px" stroke-linejoin="round" stroke-linecap="round"/></svg>
