<svg xmlns="http://www.w3.org/2000/svg" xmlns:xlink="http://www.w3.org/1999/xlink" height="400" width="400" viewBox="32.99892578125 -14.852294921875 14.979296875 11.39619140625"><path d="M 35.268 -5.492 l -0.016 -0.019 -0.088 -0.07 -0.083 -0.092 -0.05 -0.102 -0.048 -0.083 -0.025 -0.187 -0.061 -0.115 -0.06 -0.14 -0.089 -0.268 -0.039 -0.092 -0.072 -0.062 -0.076 -0.058 -0.078 -0.119 -0.205 -0.104 -0.079 -0.082 -0.136 -0.141 -0.034 -0.071 -0.01 -0.071 -0.042 -0.067 -0.075 -0.075 -0.236 -0.161 -0.065 -0.019 -0.085 -0.017 -0.124 -0.016 -0.166 -0.037 -0.145 -0.063 -0.066 -0.045 -0.016 -0.031 0.014 -0.052 0.053 -0.089 0.1 -0.211 0.069 -0.145 0.047 -0.041 0.128 -0.01 0.136 0.004 0.1 0.011 0.14 0.001 0.168 -0.012 0.066 -0.049 0.053 -0.053 0.022 -0.037 0.007 -0.094 0 -0.075 -0.011 -0.289 -0.006 -0.177 -0.007 -0.202 0.001 -0.041 0.001 -0.052 0.041 -0.216 0.039 -0.124 0.026 -0.065 0.106 -0.206 0.02 -0.066 0.004 -0.061 -0.039 -0.277 0.068 -0.131 0.088 -0.129 0.077 -0.055 0.064 -0.037 0.03 0.016 0.073 0.06 0.096 0.059 0.045 -0.013 0.066 -0.051 0.049 -0.054 -0.007 -0.097 0.044 -0.2 -0.008 -0.115 0.047 -0.143 0.052 -0.201 0.023 -0.127 0.03 -0.068 0.14 -0.14 0.12 -0.199 0.077 -0.145 0.146 -0.237 0.074 -0.086 0.06 -0.037 0.09 -0.024 0.167 -0.021 0.12 -0.02 0.018 -0.031 0.01 -0.048 0.002 -0.106 0.023 -0.182 0.052 -0.178 0.061 -0.135 0.033 -0.061 0.039 -0.059 0.044 -0.1 0.056 -0.216 -0.003 -0.146 0.08 -0.268 0.018 -0.001 0.137 -0.049 0.133 -0.007 0.129 0.034 0.084 0.009 0.039 -0.017 0.036 -0.045 0.033 -0.072 0.053 -0.04 0.072 -0.008 0.096 0.081 0.154 0.216 0.04 0.013 0.024 -0.005 0.077 -0.173 0.06 -0.135 0.112 -0.251 0.064 -0.144 0.059 0.042 0.059 0.073 0.067 0.034 0.072 0.021 0.035 0.003 0.044 0.029 0.155 0.179 0.054 0.042 0.073 0.004 0.308 -0.058 0.184 -0.105 0.028 -0.041 0.05 0 0.061 0.046 0.023 0.044 0.039 0.058 0.072 0.009 0.176 -0.042 0.086 -0.025 0.073 0.021 0.093 0.017 0.058 0 0.139 0.058 0.167 -0.018 0.079 0.003 0.081 0.025 0.132 0.093 0.171 0.113 0.245 0.081 0.051 0.033 0.118 0.129 0.184 0.247 0.241 0.236 0.262 0.187 0.14 0.129 0.095 0.158 0.093 0.144 0.094 0.062 0.088 0.049 0.091 0.109 0.065 0.092 0.089 0.104 -0.098 0.142 -0.131 0.19 -0.153 0.222 -0.046 0.054 -0.134 0.134 -0.023 0.038 -0.026 0.097 -0.002 0.176 0.017 0.225 0.016 0.207 0.074 0.025 0.085 0.015 0.095 -0.027 0.114 -0.023 0.142 -0.014 0.157 -0.042 0.093 -0.034 0.097 0.002 0.086 0.036 0.042 0.033 0.061 0.011 0.079 -0.001 -0.017 0.039 -0.043 0.057 -0.053 0.057 -0.047 0.059 -0.104 0.166 -0.003 0.021 0.013 0.032 0.056 0.076 0.058 0.122 0.033 0.112 0.025 0.054 0.071 0.062 0.102 0.128 0.054 0.086 0.113 0.046 0.037 0.11 0.085 0.161 0.091 0.129 0.088 0.101 0.099 0.039 0.039 0.003 0.206 0.187 0.157 0.142 0.039 0.023 0.283 0.093 0.326 0.107 0.262 0.086 0.333 0.109 0.329 0.108 0.308 0.103 0.433 0.145 0.349 0.117 0.275 0.092 0.059 0.029 0.327 0 0.332 0 0.341 0 -0.247 0.238 -0.279 0.269 -0.293 0.283 -0.189 0.182 -0.299 0.289 -0.249 0.24 -0.256 0.263 -0.232 0.237 -0.301 0.329 -0.195 0.213 -0.306 0.334 -0.192 0.21 -0.029 0.012 -0.275 -0.016 -0.267 -0.015 -0.341 -0.02 -0.039 0 -0.099 0.02 -0.06 0.019 -0.246 0.056 -0.045 0.015 -0.204 0.09 -0.208 0.106 -0.11 0.081 -0.085 0.118 -0.036 0.084 -0.038 0.037 -0.065 0.032 -0.436 0.08 -0.127 0.011 -0.204 0.064 -0.109 0.107 -0.031 0.054 -0.146 -0.001 -0.256 0.016 -0.109 0.017 -0.054 0.003 -0.098 0 -0.08 -0.019 -0.053 -0.029 -0.066 -0.066 -0.148 -0.133 -0.107 -0.083 -0.237 0.095 -0.213 0.095 -0.302 0.135 -0.172 0.096 -0.052 0.097 -0.133 0.176 -0.119 0.109 -0.044 0.013 -0.269 -0.023 -0.097 -0.022 -0.161 -0.02 -0.215 -0.038 -0.145 -0.041 -0.156 -0.005 -0.226 -0.014 -0.139 -0.03 -0.141 -0.098 -0.182 -0.118 -0.187 -0.121 -0.193 -0.125 -0.228 -0.144 -0.249 -0.157 -0.057 -0.016 -0.025 -0.003 -0.271 -0.007 -0.281 -0.007 -0.19 -0.005 -0.06 -0.018 -0.043 -0.036 -0.059 -0.116 -0.074 -0.083 -0.083 -0.105 -0.007 -0.142 0.023 -0.155 0.021 -0.051 -0.012 -0.051 0.003 -0.07 -0.046 -0.065 -0.276 -0.075 -0.045 0.006 -0.046 0.028 -0.053 0.02 -0.038 -0.019 -0.023 -0.028 -0.001 -0.046 z" vector-effect="non-scaling-stroke" fill="#000" fill-opacity="1" stroke="#FFF" stroke-width="0px" stroke-linejoin="round" stroke-linecap="round"/></svg>
