<svg xmlns="http://www.w3.org/2000/svg" xmlns:xlink="http://www.w3.org/1999/xlink" height="400" width="400" viewBox="-7.422607421875 -62.3556640625 1.01655273437501 0.941357421874997"><path d="M -6.623 -61.806 l -0.02 0.038 -0.027 0 -0.094 -0.047 -0.075 -0.025 -0.025 -0.021 -0.021 -0.037 0.043 -0.005 0.051 0.008 0.129 0.034 0.036 0.035 z M -6.699 -61.445 l 0.02 0.03 -0.023 -0.003 -0.067 -0.035 -0.118 -0.083 -0.041 -0.068 -0.006 -0.031 0.029 0.004 0.024 0.028 0.112 0.018 0.029 0.014 0 0.034 0.038 0.04 z M -7.187 -62.139 l 0.09 0.039 0.032 0.027 -0.052 0.026 -0.063 0.007 -0.076 -0.006 -0.124 -0.029 -0.044 -0.065 0.086 0.002 0.101 -0.013 z M -6.631 -62.228 l -0.025 0.134 -0.041 -0.001 -0.072 -0.037 -0.055 -0.008 -0.017 0.02 0.003 0.024 0.028 0.015 0.087 0.09 0.008 0.026 -0.011 0.013 -0.085 -0.026 -0.204 -0.117 -0.159 -0.192 0.214 -0.031 0.155 0.05 z M -6.406 -62.259 l -0.048 0.072 -0.071 -0.011 -0.019 -0.008 -0.015 -0.019 0.007 -0.054 -0.003 -0.078 0.082 0.064 z" vector-effect="non-scaling-stroke" fill="#000" fill-opacity="1" stroke="#FFF" stroke-width="0px" stroke-linejoin="round" stroke-linecap="round"/></svg>
