<svg xmlns="http://www.w3.org/2000/svg" xmlns:xlink="http://www.w3.org/1999/xlink" height="400" width="400" viewBox="-61.14501953125 51.269921875 3.35322265625001 1.0380859375"><path d="M -58.85 51.27 l 0.153 0.059 0.191 -0.02 0.08 0.016 0.047 0.049 -0.028 0.045 -0.061 -0.007 -0.052 0.012 0.01 0.06 0.035 0.025 0.202 0.066 0.037 0.004 -0.007 -0.028 -0.035 -0.045 -0.013 -0.049 0.03 -0.04 0.053 -0.012 0.23 -0.02 0.054 0.019 0.114 0.114 -0.107 0.016 -0.045 0.049 0.094 0.021 0.075 0.032 -0.039 0.048 -0.007 0.025 -0.166 0.034 -0.147 0.022 -0.067 0.057 -0.118 0.041 -0.348 0.072 0.04 0.059 0.005 0.028 -0.015 0.076 -0.478 -0.091 -0.065 0.01 0.128 0.155 -0.095 0.029 -0.094 -0.019 -0.085 0.013 -0.054 0.112 -0.137 -0.072 -0.117 -0.102 0 -0.057 0.113 -0.107 -0.034 -0.045 0.262 -0.145 0.047 -0.043 0.082 -0.025 0.085 -0.008 0.036 -0.019 -0.006 -0.035 -0.034 -0.06 0.003 -0.098 0.21 -0.133 -0.031 -0.086 z M -60.286 51.462 l 0.145 0.019 0.133 -0.07 0.092 -0.022 0.075 0.015 0.053 0.043 0.077 -0.007 0.218 -0.044 0.028 0.015 0.077 -0.051 0.067 0.024 0.053 0.044 -0.026 0.051 -0.06 0.032 -0.038 0.045 -0.045 0.037 -0.077 0.034 -0.059 0.054 -0.142 0.127 -0.206 0.162 -0.068 0.015 -0.143 0.01 -0.061 -0.011 -0.053 0.004 -0.042 0.087 -0.065 0.066 -0.031 0.014 -0.068 0.006 -0.032 0.01 -0.024 0.024 -0.178 -0.006 -0.126 -0.041 -0.149 -0.09 0.199 -0.111 0.171 0.005 0.141 -0.074 0.115 -0.038 0.046 -0.038 0.05 -0.029 0 -0.038 -0.038 -0.017 -0.052 0.002 -0.051 0.017 -0.121 0.021 -0.082 -0.044 0.054 -0.016 0.061 0.001 0.186 -0.041 0.036 -0.017 -0.057 -0.058 -0.112 -0.035 -0.091 -0.06 -0.017 -0.022 0.004 -0.035 -0.05 -0.07 0.053 -0.004 0.07 0.045 z M -61.019 51.786 l 0.071 0.014 0.071 -0.005 -0.04 0.103 -0.031 0.049 -0.084 -0.004 -0.084 -0.067 -0.029 -0.036 0.093 -0.025 z M -58.439 52.011 l 0.006 0.088 -0.08 -0.028 -0.029 -0.043 0.044 -0.029 0.037 0.002 z M -60.112 51.396 l -0.137 0 -0.027 -0.033 0.001 -0.083 0.104 -0.007 0.102 0.034 -0.007 0.035 z M -59.683 52.232 l -0.064 0.019 -0.018 -0.009 -0.02 -0.037 -0.001 -0.049 -0.007 -0.022 0.04 0.007 0.072 0.039 z" vector-effect="non-scaling-stroke" fill="#000" fill-opacity="1" stroke="#FFF" stroke-width="0px" stroke-linejoin="round" stroke-linecap="round"/></svg>
