<svg xmlns="http://www.w3.org/2000/svg" xmlns:xlink="http://www.w3.org/1999/xlink" height="400" width="400" viewBox="-180.0 12.476953125 360.0 9.22890624999999"><path d="M 179.999 16.169 l -0.151 0.133 -0.054 0.069 -0.046 0.076 -0.129 0.081 -0.055 0.109 0.004 0.111 0.129 -0.116 0.144 -0.094 0.044 -0.019 0.045 0.001 -0.004 0.032 -0.021 0.032 -0.016 0.083 0.038 0.077 -0.107 -0.008 -0.106 0.007 -0.126 0.043 -0.124 0.019 -0.046 0 -0.044 -0.015 -0.029 -0.022 -0.023 -0.052 -0.023 -0.008 -0.098 0.002 -0.147 0.101 -0.049 0.087 -0.056 0.004 -0.067 -0.018 -0.081 0.066 -0.096 0.024 -0.042 -0.056 -0.027 -0.069 -0.034 -0.051 -0.106 -0.013 0.016 -0.062 0.028 -0.026 0.026 -0.037 0.016 -0.042 0.051 0.027 0.052 0.017 0.058 -0.031 0.061 -0.003 0.061 -0.091 0.095 -0.057 0.131 -0.045 0.133 -0.032 0.069 -0.007 0.066 -0.019 0.116 -0.086 0.077 -0.044 0.083 -0.027 0.08 -0.016 0.074 0.014 0.059 -0.007 0.152 -0.061 z M 178.28 17.372 l 0 0.044 0.029 0.019 0.029 0.003 0.072 0.085 0.112 0.073 0.068 0.056 0.004 0.048 -0.021 0.05 0.029 0.09 0.014 0.093 0.05 0.148 -0.07 0.028 -0.111 0.003 -0.026 0.027 -0.038 -0.015 -0.092 0.011 -0.088 0.049 -0.084 0.066 -0.096 0 -0.108 0.014 -0.108 -0.009 -0.076 -0.035 -0.134 -0.038 -0.179 -0.033 -0.074 -0.028 -0.062 -0.043 -0.058 -0.109 -0.009 -0.054 0.009 -0.051 0.052 -0.017 0.044 -0.026 0.006 -0.034 0.019 -0.024 0.025 -0.009 0.012 -0.016 -0.018 -0.055 -0.005 -0.05 0.104 -0.092 0.113 -0.079 0.2 -0.073 0.122 0.007 0.187 -0.056 0.06 -0.026 0.06 0.016 z M -179.975 16.925 l -0.025 0.038 0 -0.055 0 -0.049 0 -0.034 0 -0.039 0.106 -0.085 0.033 -0.012 0.039 0.077 -0.045 0.085 z M 180 16.963 l -0.074 0.037 -0.029 -0.036 0.034 -0.088 0.069 -0.09 -0.001 0.073 z M 178.488 18.974 l 0 0.043 -0.129 0.029 -0.043 -0.035 -0.028 -0.006 -0.077 0.063 -0.022 0.026 -0.007 0.019 -0.02 0.01 -0.141 0.03 -0.062 -0.03 0.042 -0.021 0.051 -0.041 0.052 0.006 0.053 -0.038 0.052 -0.058 0.074 -0.013 0.052 -0.023 0.086 0.016 z M -178.988 17.977 l -0.03 0.015 -0.021 -0.003 -0.025 -0.016 -0.015 -0.028 0.031 -0.024 0.048 0.027 z M -178.762 18.234 l -0.012 0.019 -0.054 -0.03 -0.021 -0.02 0.057 -0.016 0.028 0.005 z M -178.251 17.953 l -0.056 0.011 -0.05 -0.042 0.032 -0.045 0.045 0.011 0.026 0.044 z M -178.956 17.273 l -0.025 0.034 -0.022 -0.012 0.028 -0.057 0.004 -0.025 -0.043 -0.03 -0.003 -0.021 0.013 -0.013 0.052 0.034 0.032 0.026 0.006 0.015 -0.01 0.026 z M -178.535 19.166 l -0.011 0.009 -0.027 -0.01 -0.022 -0.014 -0.003 -0.014 0.009 -0.018 0.022 -0.01 0.011 0.004 -0.006 0.006 -0.013 0.006 0.002 0.018 0.017 0.011 0.017 0.003 z M -179.8 18.94 l 0.002 0.029 -0.015 -0.002 -0.018 -0.013 -0.009 0.006 -0.006 0.009 -0.003 0.021 -0.003 0.012 -0.014 -0.004 -0.002 -0.02 0.005 -0.014 0.007 -0.021 0.025 -0.019 z M 177.234 17.147 l -0.051 0.017 0.027 -0.08 0.029 -0.025 0.018 -0.005 0.03 -0.006 -0.012 0.056 z M 179.422 17.367 l -0.033 0.027 -0.016 -0.138 0.034 0.001 0.025 0.014 0.014 0.035 z M 179.349 18.102 l -0.009 0.008 -0.087 -0.08 0.003 -0.032 0.015 -0.028 0.035 -0.027 0.031 0.046 0.025 0.076 z M 178.828 17.729 l -0.051 0.018 -0.028 -0.061 0.039 -0.061 0.044 -0.006 0.021 0.062 z M -179.929 16.503 l -0.071 0.037 0 -0.051 0.056 -0.047 0.043 -0.01 -0.026 0.048 z M -179.956 16.149 l -0.044 0.019 0 -0.012 0 -0.003 0.031 -0.027 0.025 0 z M 180 16.54 l -0.013 0.001 -0.003 -0.019 0.015 -0.033 z M 177.121 12.505 l -0.039 0.01 -0.063 -0.008 -0.013 -0.016 0.02 -0.004 0.041 -0.011 0.05 0.005 0.009 0.011 z M 174.63 21.695 l -0.008 0.011 -0.029 -0.004 -0.006 -0.022 0.017 -0.013 0.024 0.008 z M -178.712 20.668 l 0.002 0.003 -0.005 0 -0.008 -0.004 -0.006 -0.007 -0.001 -0.007 0.003 -0.008 0.003 0 0.005 0.007 0.005 0.007 z" vector-effect="non-scaling-stroke" fill="#000" fill-opacity="1" stroke="#FFF" stroke-width="0px" stroke-linejoin="round" stroke-linecap="round"/></svg>
