<svg xmlns="http://www.w3.org/2000/svg" xmlns:xlink="http://www.w3.org/1999/xlink" height="400" width="400" viewBox="20.62216796875 -70.06484375 10.91435546875 10.248828125"><path d="M 24.155 -65.805 l -0.106 -0.185 -0.054 -0.071 -0.087 -0.088 -0.156 -0.043 -0.03 -0.024 -0.021 -0.037 -0.007 -0.052 -0.02 -0.076 0.008 -0.063 0.019 -0.037 0.067 -0.025 0.097 -0.071 0.02 -0.051 0.008 -0.079 0.045 -0.069 0.05 -0.035 -0.013 -0.028 -0.034 -0.04 -0.072 -0.056 -0.11 -0.069 -0.082 -0.066 -0.036 -0.061 -0.018 -0.055 0.003 -0.05 0.031 -0.034 0.104 -0.043 0.014 -0.018 -0.041 -0.094 -0.073 -0.017 -0.124 -0.009 -0.069 -0.001 -0.013 -0.01 -0.003 -0.019 0.014 -0.039 0.039 -0.044 0.033 -0.028 0.004 -0.024 -0.041 -0.082 -0.012 -0.1 0.014 -0.079 0.131 -0.058 0.006 -0.021 -0.165 -0.063 -0.119 -0.071 -0.037 -0.042 -0.136 -0.006 -0.085 -0.121 -0.122 -0.059 -0.121 -0.051 -0.072 -0.024 -0.42 -0.073 -0.167 -0.014 -0.198 -0.043 -0.147 -0.054 -0.126 -0.034 -0.108 -0.042 -0.151 -0.04 -0.043 -0.034 -0.163 -0.063 -0.076 -0.041 -0.265 -0.078 -0.01 -0.031 -0.002 -0.03 -0.012 -0.012 -0.273 -0.057 0.054 -0.033 0.213 -0.002 0.176 0.03 0.039 -0.013 0.023 -0.026 -0.075 -0.106 0.013 -0.028 0.078 -0.033 0.123 -0.026 0.194 -0.004 0.133 0.004 0.028 0.003 0.198 0.116 0.17 0.113 0.09 0.048 0.221 0.137 0.083 0.079 0.028 0.057 0.09 0 0.31 0.025 0.261 0.021 0.073 0.032 0.18 -0.006 0.138 -0.029 0.245 -0.036 0.066 -0.045 0.081 -0.048 0.143 0.007 0.157 0.038 0.178 0.049 0.158 0.023 0.213 0.036 0.099 0.046 0.139 0.013 0.146 -0.046 0.086 -0.126 0.076 -0.056 0.108 -0.041 0.124 -0.018 0.094 -0.007 0.071 -0.032 0.102 -0.071 0.02 -0.086 -0.02 -0.155 0.019 -0.051 0.083 -0.084 0.111 -0.222 0.05 -0.064 0.061 -0.039 0.084 -0.023 0.152 -0.067 0.217 -0.133 0.059 -0.011 0.156 -0.007 0.194 0.005 0.174 0.023 0.019 -0.002 0.078 -0.012 0.142 -0.041 0.244 -0.082 0.156 -0.023 0.142 0.003 0.157 0.09 0.222 0.1 0.143 0.049 0.389 0.091 0.341 0.06 0.192 0.198 -0.095 0.079 -0.047 0.027 -0.167 0.079 -0.179 0.111 -0.014 0.058 0.059 0.058 0.074 0.039 -0.067 0.012 -0.207 0.049 -0.126 0.033 -0.152 0.024 0.039 0.032 0.252 0.007 0.039 0.009 0.028 0.016 0.005 0.026 -0.026 0.042 -0.273 0.234 -0.009 0.049 0.089 0.137 0.125 0.162 0.378 0.072 0.281 0.056 0.18 0.133 0.297 0.175 0.158 0.065 0.009 0.02 -0.047 0.121 -0.191 0.121 -0.178 0.102 -0.185 0.123 -0.144 0.105 -0.156 0.126 -0.018 0.041 -0.003 0.038 0.027 0.043 0.2 0.154 0.078 0.078 0.093 0.085 0.08 0.092 0.046 0.083 0.08 0.081 0.05 0.041 0.083 0.058 0.1 0.086 0.033 0.068 0.151 0.236 0.015 0.06 -0.007 0.045 -0.066 0.011 -0.146 0.007 -0.159 0.029 -0.008 0.01 0.104 0.056 -0.091 0.095 -0.013 0.136 -0.098 0.072 -0.009 0.017 0.004 0.014 0.017 0.011 0.181 0.019 0.016 0.019 0.001 0.04 -0.016 0.037 -0.091 0.028 -0.098 0.041 -0.022 0.038 0.003 0.034 0.033 0.057 0.064 0.066 0.082 0.041 0.29 0.039 0.037 0.032 0.016 0.044 -0.006 0.043 -0.135 0.087 0.001 0.033 0.055 0.081 0.066 0.077 0.283 0.084 0.097 0.046 0.026 0.037 0.014 0.059 -0.002 0.064 -0.022 0.057 -0.089 0.073 -0.205 0.144 -0.206 0.056 -0.013 0.012 0.064 0.046 0.363 0.185 0.237 0.087 0.32 0.117 0.206 0.092 0.067 0.066 0.089 0.074 0.1 0.06 0.072 0.052 0.027 0.034 -0.003 0.036 -0.097 0.109 -0.055 0.084 -0.097 0.124 -0.099 0.086 -0.251 0.158 -0.37 0.196 -0.086 0.059 -0.173 0.103 -0.296 0.207 -0.077 0.046 -0.243 0.165 -0.111 0.053 -0.087 0.049 -0.241 0.156 -0.259 0.119 -0.254 0.11 -0.076 0.056 -0.095 0.043 -0.113 0.041 -0.048 0.023 -0.255 0.151 -0.354 0.21 -0.036 0.003 -0.092 0.034 -0.144 0.008 -0.063 0.026 -0.221 -0.074 -0.037 -0.005 -0.13 0.018 -0.124 0.054 -0.23 0.016 -0.114 0.017 -0.073 0.025 -0.015 -0.059 0.031 -0.074 0.051 -0.05 0.005 -0.032 -0.037 0.003 -0.074 0.073 -0.039 0.085 -0.079 0.043 -0.173 0.017 -0.169 -0.068 -0.08 0.001 0.05 0.049 0.034 0.054 -0.004 0.03 -0.09 -0.005 -0.1 0.032 -0.088 0.047 -0.043 0 -0.059 -0.066 -0.108 0.031 -0.092 0.041 -0.188 0.013 -0.112 0.054 -0.198 0.037 -0.109 -0.001 -0.248 0.044 -0.083 0.068 -0.072 0.025 -0.103 -0.021 -0.317 0.033 -0.303 0.044 -0.129 -0.002 -0.129 -0.018 -0.137 0.06 -0.145 0.081 -0.16 0.029 -0.057 -0.01 0.046 -0.042 0.106 -0.044 0.073 -0.06 0.01 -0.05 -0.05 -0.019 -0.068 -0.006 -0.086 -0.051 -0.082 -0.111 -0.045 -0.006 -0.023 0.029 -0.025 0.085 -0.026 0.025 -0.044 0.02 -0.052 0.02 -0.051 0.01 -0.183 -0.001 -0.024 -0.043 0 -0.018 0.033 -0.057 -0.028 -0.01 0.027 -0.044 0.043 0.002 0.051 -0.007 0.026 -0.023 -0.002 -0.027 -0.071 -0.007 -0.004 -0.019 0.064 -0.078 0.009 -0.021 -0.025 -0.004 -0.04 0.008 -0.263 -0.024 -0.324 -0.099 -0.08 -0.005 -0.049 -0.089 -0.078 0.011 -0.114 0.052 -0.085 -0.039 -0.092 -0.026 -0.025 -0.041 0.001 -0.06 -0.008 -0.071 -0.025 -0.083 -0.018 -0.117 0.017 -0.092 0.073 -0.068 0.028 -0.043 0.034 -0.111 0.008 -0.13 -0.019 -0.044 0.005 -0.029 0.058 0 -0.013 -0.025 -0.026 -0.014 -0.028 -0.029 0.024 -0.015 0.07 -0.001 0.006 -0.01 0.008 -0.014 -0.054 -0.075 -0.006 -0.036 -0.075 -0.109 -0.086 -0.103 -0.129 -0.075 0.046 -0.123 0.052 -0.111 -0.01 -0.054 -0.02 -0.065 -0.158 -0.071 -0.023 -0.101 -0.039 -0.108 0.015 -0.066 0.026 -0.051 0.052 -0.051 0.262 -0.159 0.016 -0.083 0.177 -0.006 -0.082 -0.074 -0.019 -0.042 -0.004 -0.049 0.255 -0.033 0.095 0.027 0.225 -0.034 0.199 -0.066 -0.004 -0.035 -0.031 -0.032 -0.042 -0.061 0.03 -0.017 0.073 0.012 -0.033 -0.03 0.006 -0.032 0.079 0.013 0.13 -0.089 0.005 -0.068 0.224 -0.035 0.258 -0.138 0.119 -0.043 0.115 -0.031 0.245 -0.138 0.105 -0.006 0.054 -0.093 0.208 -0.124 0.063 -0.016 0.097 -0.112 0.256 -0.129 0.162 -0.165 0.09 -0.059 0.028 -0.062 0.1 -0.005 0.09 -0.046 0.195 -0.032 0.192 0.009 0.08 0.022 0.074 -0.007 -0.007 -0.056 -0.053 -0.035 0.043 -0.033 0.102 -0.025 -0.01 -0.056 -0.022 -0.033 -0.084 -0.045 0.042 -0.1 0.01 -0.11 0.04 -0.127 -0.106 -0.067 -0.402 -0.114 -0.075 0.004 -0.089 -0.014 -0.093 -0.086 0.042 -0.075 0.005 -0.027 -0.036 0.001 -0.059 0.036 -0.128 0.042 -0.167 -0.032 z M 21.994 -60.337 l -0.073 0.004 -0.103 -0.05 -0.013 -0.019 0.04 -0.011 -0.027 -0.04 0.008 -0.018 0.08 0.031 0.043 0.037 -0.042 0.009 0.072 0.038 z M 21.218 -63.241 l 0.011 0.019 0.059 -0.005 0.079 -0.034 0.056 0.016 -0.006 0.049 -0.038 -0.002 -0.01 -0.008 -0.049 0.028 -0.009 0.017 -0.056 0.011 -0.104 -0.047 -0.065 -0.078 0.152 0 -0.015 0.019 z M 22.175 -60.371 l 0.127 0.023 0.053 -0.008 0.061 0.052 -0.103 0.033 -0.007 0.041 0.041 0.026 0.014 0.037 -0.102 0 -0.049 -0.031 -0.021 -0.04 -0.048 -0.028 -0.063 -0.021 0.031 -0.029 0.018 -0.041 z M 21.451 -60.53 l -0.014 0.047 -0.068 -0.005 -0.069 0.008 -0.056 -0.046 -0.03 -0.078 0.01 -0.017 0.043 -0.018 0.033 0.043 z M 21.833 -60.141 l -0.1 0.034 -0.038 -0.008 0.01 -0.058 0.059 -0.027 0.1 -0.003 z M 21.628 -60.108 l -0.088 0.01 -0.055 -0.029 0.021 -0.022 0.061 -0.024 0.066 0.003 0.014 0.028 z M 24.848 -64.991 l -0.149 0.033 -0.12 -0.021 -0.002 -0.064 0.075 -0.031 0.135 -0.012 0.185 0.031 0.027 0.017 -0.106 0.012 z" vector-effect="non-scaling-stroke" fill="#000" fill-opacity="1" stroke="#FFF" stroke-width="0px" stroke-linejoin="round" stroke-linecap="round"/></svg>
