<svg xmlns="http://www.w3.org/2000/svg" xmlns:xlink="http://www.w3.org/1999/xlink" height="400" width="400" viewBox="-151.51240234375 8.78154296875 15.218505859375 12.0943359375"><path d="M -151.467 16.658 l -0.018 0.008 -0.019 -0.018 -0.008 -0.028 0.007 -0.045 0.048 0.03 0.019 0.02 z M -149.814 17.545 l -0.031 0.026 -0.042 -0.018 -0.019 -0.025 -0.007 -0.027 0.01 -0.032 0.093 0.004 0.026 0.014 z M -151.41 16.878 l -0.04 0.002 -0.036 -0.016 0.009 -0.103 0.01 -0.021 0.056 0.035 0.047 0.09 z M -149.322 17.69 l 0.144 0.047 0.027 0.075 -0.031 0.05 -0.073 -0.012 -0.036 -0.027 -0.051 -0.09 -0.141 0.02 -0.097 -0.018 -0.054 -0.117 -0.002 -0.053 0.024 -0.033 0.103 -0.035 0.129 0.026 0.049 0.067 z M -139.024 9.695 l 0.15 0.052 0.047 -0.006 -0.048 0.051 -0.149 0.028 -0.049 0.025 -0.06 -0.016 -0.032 -0.059 z M -139.06 9.931 l -0.074 0.078 0 -0.083 0.027 -0.011 0.024 0 z M -138.651 10.515 l -0.037 0.017 -0.003 -0.107 0.047 0.02 0.018 0.017 -0.008 0.029 z M -140.073 8.91 l -0.098 0.024 -0.047 -0.004 -0.035 -0.082 0.013 -0.05 0.016 -0.016 0.167 0.02 0.014 0.037 -0.002 0.035 z M -140.076 9.426 l -0.022 0.018 -0.041 -0.06 -0.006 -0.025 0.073 -0.031 0.04 0.017 z M -140.809 17.857 l 0.005 0.019 -0.036 -0.003 -0.011 -0.007 0.001 -0.036 0.026 -0.043 0.021 -0.036 0.042 -0.034 0.075 -0.034 0.036 -0.014 0.012 0.008 -0.014 0.005 -0.124 0.071 -0.039 0.05 -0.017 0.035 0.003 0.011 z M -139.556 8.94 l -0.065 0.008 -0.011 -0.049 0.02 -0.026 0.028 -0.012 0.049 0.015 0.026 0.022 -0.002 0.019 z M -140.685 18.38 l 0.013 0.036 -0.024 -0.017 -0.077 -0.035 -0.008 -0.03 z M -140.83 18.189 l 0.007 0.028 -0.037 -0.018 -0.035 -0.051 -0.063 -0.063 -0.015 -0.026 0.048 0.025 0.032 0.037 z M -136.294 18.544 l -0.02 0.022 -0.002 -0.021 -0.028 -0.01 -0.039 -0.021 -0.053 -0.025 -0.029 -0.004 -0.014 -0.014 0.02 -0.008 0.033 0.011 0.046 0.022 0.053 0.023 z M -136.972 18.342 l 0 0.019 -0.096 -0.096 0.038 0.008 z M -138.506 20.857 l -0.029 0.019 0.011 -0.025 -0.022 -0.055 -0.022 -0.008 0.022 -0.016 0.031 0.042 z M -142.512 16.096 l -0.018 0.011 0.023 -0.079 0.026 -0.01 z M -143.441 16.62 l 0.054 0.049 -0.072 -0.033 -0.092 -0.014 0.035 -0.009 0.051 0.001 z M -143.571 16.635 l -0.04 0.006 -0.097 -0.06 0.037 0 0.055 0.037 z M -145.051 15.856 l -0.006 0.045 -0.019 -0.043 -0.062 -0.07 -0.023 -0.031 0.027 0.005 z M -145.487 16.33 l 0.004 0.017 -0.021 -0.001 -0.037 -0.051 -0.013 -0.044 -0.024 -0.05 -0.032 -0.036 -0.004 -0.033 -0.001 -0.053 0.037 0.081 0.035 0.065 0.025 0.053 z" vector-effect="non-scaling-stroke" fill="#000" fill-opacity="1" stroke="#FFF" stroke-width="0px" stroke-linejoin="round" stroke-linecap="round"/></svg>
