<svg xmlns="http://www.w3.org/2000/svg" xmlns:xlink="http://www.w3.org/1999/xlink" height="400" width="400" viewBox="51.65927734375 46.32685546875 18.89619140625 3.38300781249998"><path d="M 69.185 49.11 l 0.08 0.006 0.049 -0.009 0.221 -0.132 0.058 -0.003 -0.005 0.101 0.057 0.045 -0.072 0.012 -0.136 -0.005 -0.031 0.058 0.137 0.074 0.068 0.01 0.056 -0.001 0.104 -0.017 0.084 -0.027 0.13 -0.062 0.077 -0.024 0.147 -0.001 0.077 -0.058 0.035 -0.018 0.086 0.003 0.078 0.023 0.047 0.053 0.025 0.065 -0.019 0.064 -0.052 0.062 -0.095 0.038 0.022 0.045 -0.025 0.023 -0.048 0.001 -0.041 -0.01 -0.06 -0.053 -0.072 -0.029 -0.173 0.002 -0.078 0.004 -0.013 0.041 -0.041 0.031 -0.043 0.017 -0.058 -0.008 -0.011 0.017 0.031 0.043 0.076 0.054 0.13 0.038 0.076 0.008 0.011 -0.072 0.092 -0.008 0.082 0.021 0.059 0.053 -0.048 0.017 -0.043 0.028 -0.009 0.036 -0.083 0.039 -0.049 0.004 -0.156 -0.019 -0.093 -0.044 -0.022 -0.031 -0.057 -0.012 -0.065 0.04 -0.069 0.009 -0.135 -0.034 -0.125 -0.054 -0.078 -0.02 -0.121 -0.013 -0.067 0.123 -0.093 0.052 -0.12 0.005 -0.058 -0.01 -0.032 -0.048 0.008 -0.052 0.019 -0.049 0.038 -0.051 0.024 -0.055 -0.01 -0.052 -0.043 -0.038 0.023 -0.069 -0.043 -0.054 0.015 -0.04 0.07 -0.027 -0.03 -0.024 -0.037 -0.006 -0.027 -0.031 -0.021 -0.038 0.027 -0.071 0.04 -0.069 -0.005 -0.077 0.068 -0.073 0.058 -0.082 0.044 -0.033 0.055 -0.005 0.024 0.023 0.012 0.045 -0.021 0.029 0.051 0.013 0.013 0.095 -0.032 0.039 -0.005 0.038 -0.067 0.08 0.019 0.064 z M 69.282 49.059 l -0.062 0.008 -0.019 -0.033 0.002 -0.043 -0.034 -0.034 -0.019 -0.038 0.017 -0.036 0.099 -0.004 0.102 0.012 0.026 0.061 -0.074 0.083 z M 51.835 46.44 l -0.073 0.009 -0.065 -0.021 -0.037 -0.054 0.083 -0.047 0.042 0.032 0.031 0.036 z" vector-effect="non-scaling-stroke" fill="#000" fill-opacity="1" stroke="#FFF" stroke-width="0px" stroke-linejoin="round" stroke-linecap="round"/></svg>
