<svg xmlns="http://www.w3.org/2000/svg" xmlns:xlink="http://www.w3.org/1999/xlink" height="400" width="400" viewBox="-61.794091796875 -51.097119140625 117.633154296875 72.466162109375"><path d="M 9.48 -42.805 l -0.026 0.147 0.019 0.043 0.036 0.03 0.017 0.033 0.03 0.392 -0.006 0.031 -0.122 0.157 -0.028 0.046 -0.006 0.195 -0.021 0.052 -0.043 0.052 -0.077 0.167 -0.067 0.075 -0.183 -0.092 -0.108 -0.04 -0.053 -0.043 -0.035 -0.029 0.022 -0.039 0.049 -0.041 0.008 -0.032 -0.116 -0.036 -0.053 -0.024 0.001 -0.043 0.04 -0.066 -0.018 -0.055 -0.067 0.003 -0.052 -0.008 -0.007 -0.028 0.038 -0.036 0.049 -0.048 -0.002 -0.052 -0.059 -0.023 -0.054 -0.043 -0.022 -0.058 0.042 -0.04 0.068 -0.026 -0.05 -0.059 -0.033 -0.001 -0.027 -0.013 0.022 -0.028 0.053 -0.041 0.073 -0.123 0.102 -0.058 0.18 -0.037 0.049 -0.016 0.045 -0.043 0.05 -0.028 0.06 0.004 0.055 0.017 0.034 0.018 0.026 -0.019 0.025 -0.054 -0.015 -0.047 0.008 -0.13 0.032 -0.074 0.052 -0.004 0.048 0.04 -0.002 0.036 0.018 0.085 z M 7.616 -47.593 l -0.121 0.045 -0.028 0.04 -0.047 0.052 -0.077 0.022 -0.077 0.007 -0.063 -0.007 -0.036 -0.021 0.002 -0.02 -0.033 -0.017 -0.083 0 -0.085 0.036 -0.068 0.059 0.021 0.033 0.063 0.009 0.017 0.013 0 0.017 -0.022 0.02 -0.026 0.035 -0.131 0.104 -0.133 0.105 -0.021 0.032 -0.042 0.022 -0.169 0.056 -0.018 0.022 -0.01 0.094 -0.019 0.077 -0.125 0.072 -0.124 0.072 -0.031 0.044 -0.023 0.051 -0.039 0.058 -0.008 0.03 0.063 0.05 -0.007 0.041 -0.02 0.058 -0.06 0.041 -0.066 0.023 0.001 0.063 0.035 0.009 0.08 -0.005 0.113 -0.046 0.074 -0.059 -0.043 -0.056 -0.005 -0.011 0.01 -0.013 0.087 -0.061 0.107 -0.037 0.149 -0.007 0.18 0.022 0.018 0.009 -0.009 0.037 0.017 0.055 0.033 0.039 -0.045 0.11 0.034 0.034 0.052 0.041 0.039 0.038 0.056 0.035 0.05 0.058 0.017 0.033 -0.08 0.057 -0.136 0.054 -0.015 0.034 0.002 0.039 0.015 0.031 0.075 0.04 0.081 0.09 0.051 0.08 0.112 0.077 0.027 0.023 -0.007 0.019 -0.03 0.033 -0.038 0.109 -0.046 0.017 -0.051 0.007 -0.139 0.08 -0.062 -0.01 -0.088 0.001 -0.065 0.026 0.007 0.05 0.057 0.046 0.033 0.05 0.013 0.052 0.063 0.038 0.088 0.023 0.05 0.002 0.033 0.014 0.02 0.018 0.038 0.111 -0.023 0.028 -0.048 0.012 -0.028 0.046 -0.057 0.067 -0.032 0.054 0.036 0.047 0.015 0.035 -0.019 0.036 0.025 0.056 0.067 0.056 0.182 0.078 0.169 0.064 0.052 0.011 0.229 -0.041 0.038 0.004 0.028 0.049 0.012 0.033 -0.026 0.05 -0.062 0.068 -0.067 0.054 -0.041 0.046 0.008 0.042 0.003 0.056 -0.054 0.017 -0.002 -0.011 -0.022 -0.009 -0.019 0.006 -0.015 0.012 -0.002 0.021 -0.116 0.036 -0.08 0.037 -0.317 0.221 -0.148 0.065 -0.029 0.039 -0.03 0.073 -0.087 0.063 -0.076 0.03 -0.189 0.031 -0.189 0.066 -0.085 -0.029 -0.221 0.003 -0.138 -0.08 -0.265 -0.051 -0.086 -0.116 -0.121 -0.008 -0.079 0.004 -0.047 -0.018 -0.012 -0.04 -0.001 -0.038 -0.084 0.018 -0.064 0 -0.038 0.015 -0.03 0.018 -0.036 -0.011 -0.021 0.004 0.002 0.023 -0.077 0.006 -0.083 -0.014 -0.219 -0.06 -0.034 -0.009 -0.152 -0.023 -0.061 -0.024 -0.05 -0.059 -0.038 -0.019 -0.022 -0.011 -0.142 0.03 -0.049 0.047 -0.077 0.055 -0.526 0.268 -0.096 0.112 -0.111 0.166 -0.009 0.077 0.048 0.247 0.107 0.13 0.014 0.03 -0.059 0 -0.1 -0.016 -0.083 -0.02 -0.079 0.011 -0.076 0.027 -0.066 0.016 -0.048 0.005 -0.032 0.015 -0.015 0.031 -0.003 0.022 -0.084 -0.005 -0.194 -0.044 -0.174 -0.031 -0.102 0.035 -0.066 0.033 -0.046 -0.005 -0.035 -0.034 -0.024 -0.034 -0.068 -0.031 -0.154 -0.046 0.008 -0.022 0.026 -0.031 -0.001 -0.019 -0.03 -0.029 -0.142 -0.031 -0.067 -0.008 -0.042 0.021 -0.031 0.026 -0.079 -0.095 -0.056 -0.019 -0.085 -0.003 -0.097 -0.029 -0.101 -0.037 -0.246 -0.059 -0.068 -0.007 -0.027 0.009 -0.018 0.035 -0.01 0.1 -0.01 0.011 -0.114 0.003 -0.14 -0.014 -0.064 0.007 -0.057 0 -0.054 -0.026 -0.243 0.03 -0.04 -0.015 -0.059 -0.045 -0.065 -0.036 -0.051 -0.019 -0.043 -0.021 -0.039 -0.003 -0.06 0.021 -0.083 0.009 -0.069 -0.003 -0.037 0.003 -0.154 -0.111 -0.022 -0.03 -0.077 -0.008 -0.095 -0.001 -0.242 -0.072 -0.11 -0.038 -0.016 -0.023 0.002 -0.019 -0.019 0.004 -0.034 0.033 -0.018 0.027 -0.024 0.005 -0.035 -0.004 -0.032 -0.015 -0.02 -0.019 0.021 -0.034 0.037 -0.044 0.015 -0.048 -0.003 -0.043 -0.061 -0.028 -0.09 -0.012 -0.066 -0.003 -0.086 -0.025 -0.04 -0.018 -0.039 -0.048 -0.001 -0.035 0.163 -0.031 0.147 -0.126 0.139 -0.456 0.1 -0.54 0.075 -0.102 0.094 -0.028 -0.076 -0.074 -0.048 0.038 -0.02 0.04 -0.025 0.02 0.056 -0.495 0.04 -0.181 0.068 -0.19 0.139 0.075 0.115 0.076 0.06 0.066 0.076 0.221 0.057 0.046 0.085 0.047 -0.034 -0.051 -0.059 -0.039 -0.092 -0.294 -0.058 -0.083 -0.09 -0.07 -0.289 -0.148 -0.026 -0.029 -0.014 -0.056 0.096 0.002 0.083 0.027 -0.01 -0.032 -0.025 -0.033 -0.038 -0.12 -0.032 -0.279 0.004 -0.048 -0.014 -0.059 -0.093 -0.013 -0.074 -0.002 -0.08 -0.023 -0.394 -0.165 -0.135 -0.17 -0.138 -0.125 -0.033 -0.055 0.002 -0.055 0.071 -0.117 -0.063 -0.074 -0.062 -0.015 -0.054 -0.037 0.048 -0.061 0.04 -0.039 0.081 -0.011 0.106 0.013 0.1 0.035 0.079 0.009 -0.233 -0.095 -0.378 0.032 -0.081 -0.012 -0.069 -0.021 -0.027 -0.07 0.054 -0.031 0.049 -0.058 -0.055 -0.041 -0.071 -0.015 -0.112 0.001 -0.104 0.012 -0.026 -0.023 0.064 -0.065 -0.054 -0.024 -0.072 0.011 -0.105 0.013 -0.1 -0.02 -0.095 -0.073 -0.063 0.001 -0.043 0.009 -0.064 -0.028 -0.067 -0.007 -0.048 0.009 -0.064 -0.042 -0.393 -0.084 -0.17 -0.01 -0.156 0.038 -0.086 -0.013 -0.063 -0.055 -0.053 -0.092 -0.251 -0.071 0.05 -0.046 0.117 -0.011 0.135 -0.032 0.048 -0.041 -0.105 -0.048 -0.078 -0.012 -0.032 -0.017 -0.033 -0.043 0.046 -0.02 0.033 0.01 0.095 0.006 0.162 -0.011 -0.06 -0.043 -0.063 -0.01 -0.029 -0.011 -0.132 -0.005 -0.06 0.015 -0.135 -0.006 -0.029 -0.047 -0.014 -0.04 0.042 -0.09 0.19 -0.08 0.472 -0.088 0.203 0.013 0.141 -0.016 0.169 -0.055 0.075 -0.047 0.24 -0.028 0.228 0.05 0.21 0.19 0.101 0.064 0.246 -0.111 0.367 0.003 0.076 0.063 0.031 -0.053 0.067 -0.062 0.054 0.028 0.027 0.038 0.387 -0.011 0.061 -0.011 -0.104 -0.045 -0.085 -0.108 -0.018 -0.397 -0.107 -0.111 -0.123 -0.177 -0.057 -0.105 -0.005 -0.036 0.019 -0.052 0.151 0.003 0.117 0.013 0.223 -0.04 0.107 0.027 -0.006 0.082 0.033 0.103 0.037 0.05 0.056 0.057 0.179 -0.005 0.194 0.033 0.245 0.005 0.357 0.058 0.152 -0.033 0.147 -0.071 0.281 -0.047 0.022 -0.025 -0.162 0.01 -0.148 -0.045 -0.02 -0.049 0.017 -0.044 0.06 -0.101 0.429 -0.16 0.308 -0.047 0.321 -0.088 0.162 -0.09 0.107 -0.117 0.034 -0.026 0.044 -0.021 -0.041 -0.042 0.028 -0.445 0.03 -0.08 0.063 -0.066 0.095 -0.051 0.145 -0.055 0.533 -0.076 0.079 -0.031 0.011 0.048 0.039 0.061 0.027 0.033 -0.022 0.044 0.017 0.036 0.072 0.065 0.09 0.061 0.08 0.039 0.023 -0.004 0.06 -0.011 0.101 -0.04 0.084 -0.013 0.048 0.031 0.027 0.017 0.053 0.069 0.015 0.072 0.024 0.06 0.043 0.024 0.161 0.008 0.118 0.022 0.031 0.02 0.041 0.133 0.022 0.019 0.029 -0.016 0.029 -0.022 0.041 -0.003 0.07 0.008 0.092 0.003 0.094 0.015 0.13 0.075 -0.005 0.025 -0.025 0.043 -0.009 0.035 0.022 0.014 0.034 0.036 -0.008 0.041 -0.034 0.029 -0.013 0.024 0 0.016 0.012 0.013 0.027 0.011 0.193 0.015 0.176 -0.015 0.111 -0.042 0.019 -0.044 0.032 -0.05 0.066 -0.042 0.046 -0.014 0.042 0.017 -0.071 0.176 0.051 0.045 0.008 0.067 0.018 0.059 0.063 -0.001 0.076 0.011 0.054 0.022 0.063 0.035 0.091 0.032 0.064 0.011 0.023 0.027 0.052 0.031 0.081 0.065 0.073 0.044 0.035 0 0.068 -0.017 0.1 -0.011 0.079 0.001 0.034 0.033 0.078 0.015 0.028 0.012 0.031 0.023 0.052 0.009 0.063 -0.009 0.046 -0.031 0.061 -0.014 0.061 0.005 0.035 0.017 0.067 0.025 0.038 -0.005 0.076 0.015 0.076 0.048 0.032 0.048 0.008 0.027 0.033 0.029 0.128 0.13 0.041 0.006 0.044 -0.02 0.029 -0.028 0.042 -0.006 0.067 0.013 0.043 0.015 0.021 0.056 0.015 0.011 0.029 -0.012 0.052 -0.003 0.083 0.014 0.113 -0.016 0.091 -0.024 0.046 0.001 0.075 0.066 0.085 0.025 0.188 0.02 0.202 0.031 0.079 0.025 0.054 0.012 0.005 0.087 -0.016 0.013 -0.201 0.175 -0.085 0.063 -0.043 0.089 -0.03 0.137 -0.059 0.13 -0.089 0.123 -0.032 0.092 0.024 0.062 -0.015 0.097 -0.055 0.132 -0.009 0.1 0.036 0.067 z M -1.178 -45.904 l -0.035 0.087 -0.067 -0.081 -0.088 -0.071 -0.02 -0.065 0 -0.017 0.104 0.048 z M 45.18 12.977 l -0.063 0.008 -0.03 -0.026 -0.018 -0.063 0.019 -0.061 0.005 -0.049 -0.051 -0.085 0.05 -0.048 0.042 0.056 0.024 0.004 0.064 0.039 -0.019 0.072 0.004 0.024 -0.029 0.072 z M 55.797 21.339 l -0.141 0.03 -0.099 -0.011 -0.195 -0.085 -0.052 -0.056 -0.078 -0.159 0.017 -0.056 0.061 -0.098 0.139 -0.039 0.146 0.014 0.065 0.027 0.077 0.115 0.1 0.117 -0.017 0.139 z M -60.826 -14.494 l -0.01 0.057 -0.025 0.011 -0.037 -0.048 -0.164 0.007 -0.025 -0.042 -0.001 -0.02 0.079 -0.072 -0.093 -0.019 -0.037 -0.031 -0.079 -0.152 0.006 -0.044 0.033 -0.023 0.053 -0.003 0.1 0.049 0.075 0.07 0.025 0.001 0.008 0.02 -0.015 0.049 0.045 0.042 0.019 0.031 z M -61.327 -16.23 l -0.118 0.011 -0.077 -0.009 -0.018 -0.072 0.039 -0.061 -0.028 -0.074 0.018 -0.044 0.039 -0.029 0.065 0.038 0.01 0.055 0.041 0.05 0.183 0.107 z M -61.59 -16.007 l -0.081 0.045 -0.04 -0.014 -0.049 -0.086 -0.035 -0.239 0.027 -0.04 0.019 -0.015 0.107 0.029 0.044 0.034 0.045 0.021 -0.023 0.044 0.011 0.179 z M -61.23 -15.89 l -0.056 0.004 -0.025 -0.009 -0.008 -0.06 0.043 -0.041 0.025 -0.01 0.038 0.046 0.009 0.039 z M -54.616 -2.327 l 0.012 -0.009 0.036 -0.007 0.032 -0.001 0.05 -0.073 0.084 -0.045 0.145 -0.252 0.061 -0.104 0.007 -0.057 0.017 -0.119 -0.032 -0.145 0.015 -0.041 0.125 -0.175 0.054 -0.095 0.004 -0.082 0.015 -0.059 -0.015 -0.031 -0.028 -0.009 -0.048 -0.077 -0.031 -0.063 -0.085 -0.065 -0.058 -0.067 -0.095 -0.153 0.009 -0.086 -0.027 -0.031 -0.029 -0.032 0.002 -0.039 -0.02 -0.096 -0.025 -0.09 -0.009 -0.057 0.024 -0.098 -0.014 -0.109 -0.031 -0.057 -0.009 -0.087 0.006 -0.078 0.026 -0.044 -0.005 -0.055 0.121 -0.174 0.091 -0.101 0.084 -0.071 0.071 -0.053 0.096 -0.264 0.07 -0.093 0.073 -0.013 0.393 0.219 0.184 0.02 0.371 0.118 0.134 0.152 0.311 0.252 0.163 0.079 0.002 0.066 -0.036 0.105 0.105 -0.092 0.162 0.145 0.046 0.071 0.05 0.132 -0.017 0.085 -0.022 0.044 -0.001 0.034 0.048 -0.047 0.027 -0.037 0.008 -0.088 0.039 -0.109 0.053 -0.002 0.042 0.065 0.087 0.284 0.033 0.058 0.013 0.09 -0.005 0.04 0.006 0.037 -0.031 0.022 -0.084 0.047 -0.038 0.063 -0.022 0.06 -0.052 0.041 -0.049 0.052 -0.015 0.042 -0.046 0.033 -0.009 0.055 -0.117 0.195 -0.046 0.088 -0.067 0.093 -0.042 0.035 -0.057 0.055 -0.029 0.064 0 0.066 -0.04 0.079 -0.022 0.068 -0.037 0.04 -0.099 0.217 -0.005 0.075 -0.024 0.044 -0.07 0.103 -0.047 0.062 -0.083 0.046 -0.087 0.051 -0.033 0.055 -0.061 0.028 -0.045 0.002 -0.073 -0.02 -0.098 -0.01 -0.05 0.006 -0.022 -0.027 -0.033 -0.063 -0.049 -0.045 -0.032 0.016 -0.066 0.045 -0.077 0.026 -0.055 -0.009 -0.12 -0.031 -0.051 -0.016 -0.015 -0.026 -0.018 -0.02 -0.026 0.009 -0.035 0.033 -0.047 0.035 -0.07 0.046 -0.143 0.082 -0.04 0.029 -0.037 -0.016 -0.061 -0.016 -0.065 -0.001 -0.14 -0.053 -0.082 -0.038 -0.035 -0.048 -0.041 -0.021 z" vector-effect="non-scaling-stroke" fill="#000" fill-opacity="1" stroke="#FFF" stroke-width="0px" stroke-linejoin="round" stroke-linecap="round"/></svg>
