<svg xmlns="http://www.w3.org/2000/svg" xmlns:xlink="http://www.w3.org/1999/xlink" height="400" width="400" viewBox="8.703125 -2.302197265625 5.77744140625001 6.218505859375"><path d="M 13.294 -2.162 l -0.005 0.07 -0.079 0.171 -0.037 0.132 -0.009 0.14 0.022 0.113 0.038 0.08 0.025 0.088 -0.019 0.061 -0.038 0.026 0.026 0.031 0.058 0.007 0.098 -0.027 0.151 -0.047 0.198 -0.068 0.13 -0.036 0.215 0.023 0.115 0.026 0.059 0.048 0.063 0.202 0.031 0.031 0.052 0.086 0.043 0.103 0.009 0.052 -0.005 0.038 -0.044 0.056 -0.049 0.082 -0.017 0.05 -0.041 0.037 -0.052 0.036 -0.143 0.015 -0.022 0.022 -0.04 0.087 -0.076 0.074 -0.034 0.07 -0.031 0.093 0.006 0.116 -0.015 0.166 -0.015 0.113 0.038 0.039 0.171 0.028 0.033 0.022 0.046 0.07 0.058 0.065 0.157 0.041 0.061 0.05 0.049 0.055 0.006 0.045 -0.036 0.18 -0.034 0.173 0.013 0.132 0.013 0.126 0.019 0.183 -0.008 0.112 -0.044 0.068 0 0.054 0.02 0.065 -0.039 0.179 -0.025 0.03 -0.07 0.033 -0.037 0.048 -0.012 0.075 -0.038 0.103 -0.039 0.038 0 0.048 0.037 0.035 -0.001 0.054 -0.07 0.064 -0.042 0.049 -0.094 0.024 -0.107 -0.025 -0.025 -0.036 0.026 -0.055 -0.009 -0.044 -0.037 -0.046 -0.057 -0.12 -0.051 -0.025 -0.028 0.049 -0.087 0.091 -0.154 0.117 -0.108 0.009 -0.199 -0.036 -0.167 -0.056 -0.078 -0.137 -0.049 -0.113 -0.071 -0.131 -0.08 -0.062 -0.085 -0.04 -0.038 -0.003 -0.122 0.073 -0.037 0.029 0 0.061 0.011 0.057 0.019 0.028 0.016 0.037 -0.003 0.057 -0.022 0.076 -0.007 0.084 -0.382 0.083 -0.066 -0.03 -0.048 -0.038 -0.058 0.007 -0.166 0.043 -0.061 -0.03 -0.06 -0.022 -0.028 0.018 -0.003 0.036 0.028 0.198 -0.009 0.076 -0.037 0.099 -0.019 0.067 0.101 0.019 0.037 0.031 0.036 0.05 0.049 0.047 0.003 0.028 -0.055 0.052 -0.019 0.064 0.026 0.05 0.069 0.052 0.101 0.054 0.049 0.035 -0.005 0.032 -0.046 0.069 -0.018 0.058 -0.032 0.053 0.007 0.049 0.045 0.045 -0.005 0.041 -0.031 0.031 -0.063 -0.006 -0.053 0.004 -0.048 -0.013 -0.149 -0.157 -0.033 -0.005 -0.216 0.121 -0.054 0.05 -0.044 0.071 -0.06 0.154 -0.098 -0.09 -0.085 -0.164 -0.099 -0.101 -0.208 -0.163 -0.055 -0.12 -0.238 -0.265 -0.342 -0.265 -0.247 -0.23 -0.037 -0.051 0.042 0.006 0.238 0.115 0.033 -0.013 0.028 -0.026 -0.103 -0.06 -0.098 -0.047 -0.092 -0.029 -0.092 0.003 -0.052 -0.049 -0.034 -0.074 -0.017 -0.063 -0.041 -0.066 -0.131 -0.136 -0.032 -0.053 -0.072 -0.072 0.044 -0.009 0.14 0.069 0.012 -0.027 -0.012 -0.04 -0.141 -0.065 -0.077 -0.004 -0.018 -0.046 0.01 -0.053 -0.101 -0.199 -0.105 -0.149 -0.017 -0.07 0.283 0.323 0.038 0.006 0.05 -0.003 0.117 -0.036 -0.022 -0.043 -0.053 -0.046 -0.051 0.021 -0.067 0.004 -0.035 -0.019 -0.016 -0.033 0.067 -0.157 -0.029 0.008 -0.021 0.028 -0.037 0.013 -0.056 0.008 -0.139 -0.084 -0.123 -0.227 -0.033 -0.046 -0.033 -0.079 -0.032 -0.033 -0.141 -0.323 0.054 0.024 0.064 0.093 0.125 -0.02 0.049 -0.054 0.043 0.002 0.044 -0.012 0.055 -0.051 0.16 -0.222 0.042 -0.293 -0.014 -0.174 -0.023 -0.173 0.053 -0.055 0.021 0.036 0.01 0.061 0.025 0.045 0.057 0.041 0.106 0.011 0.164 0.064 0.058 0.041 0.016 -0.081 0.189 -0.069 -0.057 -0.025 -0.168 0.027 -0.23 -0.103 -0.076 -0.066 -0.071 -0.125 -0.074 -0.065 0.005 -0.059 0.165 -0.054 0.044 0.006 0.018 0.065 0.044 0.026 0.017 -0.009 0.007 -0.055 0.001 -0.148 -0.05 -0.212 0.015 -0.041 0.045 -0.015 0.04 -0.028 0.028 -0.005 0.056 0.005 0.028 0.049 0.015 0.027 0.056 0.013 0.046 0.026 0.04 -0.007 0.033 -0.031 0.049 -0.006 0.15 0 0.137 0 0.272 0.001 0.272 0.001 0.272 0.001 0.205 0.001 -0.001 -0.121 -0.001 -0.187 -0.001 -0.221 -0.001 -0.212 -0.001 -0.196 -0.001 -0.232 0.011 -0.066 0.013 -0.028 -0.005 -0.038 0.211 -0.002 0.381 0.017 0.166 -0.002 0.047 0.003 0.208 -0.012 0.168 0.015 0.072 0.016 0.064 0.008 0.202 0.01 0.263 -0.013 0.089 0.003 0.05 0.032 z" vector-effect="non-scaling-stroke" fill="#000" fill-opacity="1" stroke="#FFF" stroke-width="0px" stroke-linejoin="round" stroke-linecap="round"/></svg>
