<svg xmlns="http://www.w3.org/2000/svg" xmlns:xlink="http://www.w3.org/1999/xlink" height="400" width="400" viewBox="-16.8248046875 -13.812109375 2.99809570312499 0.747949218749994"><path d="M -16.562 -13.587 l 0.254 -0.01 0.307 0.004 0.334 0.004 0.158 0.002 0.083 -0.141 0.157 -0.062 0.161 -0.023 0.084 0.006 0.089 0.021 0.17 0.116 0.106 0.026 0.089 0.026 0.064 0.056 0.102 0.056 0.08 0.015 0.048 -0.009 0.079 -0.022 0.052 -0.017 0.17 -0.007 0.125 0.065 0.026 0.071 -0.021 0.073 -0.167 0.039 -0.232 0.061 -0.192 -0.033 -0.233 -0.083 -0.136 -0.059 -0.057 -0.024 -0.085 -0.038 -0.074 -0.041 -0.072 -0.026 -0.055 -0.017 -0.04 0.021 -0.021 0.05 -0.032 0.056 -0.042 0.033 -0.196 0.02 -0.175 0.021 -0.094 0.017 -0.063 0.013 -0.02 0.169 -0.199 -0.002 -0.195 -0.002 -0.203 0.003 -0.218 0.003 -0.056 0.034 -0.059 0.056 -0.006 -0.084 -0.055 -0.193 0.074 -0.084 0.081 -0.05 0.055 0.04 0.016 0.078 0.042 0.054 0.143 0.033 0.142 -0.024 0.087 0.011 -0.003 -0.043 0.029 -0.058 0.172 -0.025 0.182 -0.017 0.187 -0.035 0.146 0.001 0.044 -0.01 -0.011 -0.015 -0.131 -0.017 -0.28 0.04 -0.286 0.012 -0.216 0.105 -0.089 -0.01 -0.09 -0.105 z" vector-effect="non-scaling-stroke" fill="#000" fill-opacity="1" stroke="#FFF" stroke-width="0px" stroke-linejoin="round" stroke-linecap="round"/></svg>
