<svg xmlns="http://www.w3.org/2000/svg" xmlns:xlink="http://www.w3.org/1999/xlink" height="400" width="400" viewBox="39.9783203125 -43.569775390625 6.69423828124999 2.499560546875"><path d="M 43.439 -41.107 l 0.002 -0.019 -0.008 -0.03 -0.031 -0.021 -0.043 -0.014 -0.08 0.005 -0.074 -0.014 -0.053 -0.037 -0.012 -0.028 0.03 -0.023 -0.022 -0.019 -0.092 -0.046 -0.15 -0.114 -0.085 -0.026 -0.034 -0.071 -0.034 -0.015 -0.072 -0.007 -0.076 0.007 -0.016 0.008 -0.023 0.011 -0.059 0.089 -0.042 0.03 -0.102 -0.014 -0.084 -0.021 -0.069 -0.012 -0.133 -0.007 -0.152 -0.002 -0.102 0.063 -0.044 -0.008 -0.078 -0.031 -0.125 -0.026 -0.067 -0.02 0.192 -0.188 0.057 -0.112 0.002 -0.068 0.002 -0.085 -0.1 -0.177 -0.086 -0.251 -0.089 -0.261 -0.069 -0.078 -0.291 -0.09 -0.067 -0.103 -0.225 -0.133 -0.313 -0.058 -0.062 -0.025 -0.271 -0.167 -0.212 -0.107 0.045 -0.065 0.061 -0.068 0.066 -0.017 0.192 0.027 0.177 0.031 0.129 -0.022 0.154 0.054 0.14 0.062 0.141 0.044 0.275 0.041 0.103 0.057 0.12 0.057 0.469 0.029 0.038 -0.009 0.034 -0.008 0.157 -0.021 0.139 0.004 0.147 0.069 0.094 -0.004 0.1 -0.01 0.129 0.037 0.102 0.041 0.009 0.042 0.089 0.061 0.259 0.092 0.21 0.052 0.065 0.037 0.16 0.061 0.016 0.019 -0.003 0.025 -0.046 0.045 -0.012 0.041 0.021 0.023 0.066 0.022 0.131 0.005 0.047 -0.029 0.098 -0.021 0.097 -0.037 0.13 -0.05 0.176 -0.045 0.071 0 0.068 0.014 0.047 0.025 0.079 0.093 0.079 -0.13 0.021 -0.01 0.072 0.026 0.128 0.036 0.089 0.019 0.048 0.027 0.136 0.118 0.219 -0.006 0.093 0.018 0.05 0.02 0.022 0.023 -0.039 0.118 -0.054 0.123 0.004 0.03 0.088 0.046 0.119 0.049 0.064 0.039 0.044 0.035 0.094 0.027 0.111 0.017 0.053 0.002 0.055 0.03 0.144 0.056 0.018 0.014 -0.024 0.036 -0.057 0.065 -0.046 0.033 -0.051 0.005 -0.05 0.015 -0.018 0.035 -0.002 0.045 0.008 0.032 0.013 0.012 0.051 0.01 0.051 0.094 0.079 0.048 0.124 0.054 0.11 0.062 0.054 0.057 -0.01 0.041 -0.036 0.086 -0.092 0.071 -0.076 0.018 -0.027 -0.007 -0.05 -0.022 -0.101 -0.055 -0.109 -0.043 -0.084 0.014 -0.055 0.017 -0.109 -0.019 -0.129 -0.038 -0.067 -0.037 -0.03 -0.027 0.02 -0.049 -0.293 -0.088 -0.141 -0.024 -0.064 0.026 -0.216 0.132 -0.025 0.013 -0.165 0.018 0 0.011 0.038 0.028 -0.007 0.009 -0.277 0.003 -0.092 0.017 -0.246 -0.022 -0.081 0.01 -0.069 0.021 -0.168 0.024 -0.116 0.028 -0.148 0.014 -0.153 0.001 z" vector-effect="non-scaling-stroke" fill="#000" fill-opacity="1" stroke="#FFF" stroke-width="0px" stroke-linejoin="round" stroke-linecap="round"/></svg>
