<svg xmlns="http://www.w3.org/2000/svg" xmlns:xlink="http://www.w3.org/1999/xlink" height="400" width="400" viewBox="5.85751953125001 -55.058740234375 9.15908203124999 7.779931640625"><path d="M 9.183 -47.671 l -0.055 0 -0.246 0.014 -0.007 -0.006 -0.043 -0.041 -0.038 -0.013 -0.023 0.007 -0.015 0.012 -0.026 -0.002 -0.11 -0.066 -0.045 -0.01 -0.063 0.009 -0.074 0.036 -0.032 0.044 0.01 0.025 0.038 0.011 0.101 -0.007 0.015 0.007 0.003 0.014 -0.011 0.014 -0.082 0.011 -0.024 0.017 -0.024 0.004 -0.015 0.003 -0.087 -0.017 -0.13 0 -0.104 0.031 -0.167 0.012 -0.229 -0.006 -0.082 -0.023 -0.05 -0.014 -0.036 -0.067 0.009 -0.1 0.055 -0.132 0.015 -0.097 -0.024 -0.062 0.032 -0.092 0.089 -0.123 0.059 -0.13 0.03 -0.137 0.043 -0.089 0.085 -0.063 0.201 -0.175 0.016 -0.013 -0.005 -0.087 -0.054 -0.012 -0.079 -0.025 -0.202 -0.031 -0.188 -0.02 -0.085 -0.025 -0.075 -0.066 -0.046 -0.001 -0.091 0.024 -0.113 0.016 -0.083 -0.014 -0.052 0.003 -0.029 0.012 -0.015 -0.011 -0.021 -0.056 -0.043 -0.015 -0.067 -0.013 -0.042 0.006 -0.029 0.028 -0.044 0.02 -0.041 -0.006 -0.128 -0.13 -0.033 -0.029 -0.008 -0.027 -0.032 -0.048 -0.076 -0.048 -0.076 -0.015 -0.038 0.005 0.004 -0.06 0.03 -0.087 0.028 -0.045 0.038 -0.037 0.04 -0.026 0.009 -0.047 -0.006 -0.044 -0.046 -0.007 -0.116 -0.033 -0.069 -0.034 -0.051 -0.043 -0.067 -0.059 -0.028 -0.06 -0.001 -0.06 0.008 -0.027 0.005 -0.018 0.054 -0.093 0.189 -0.083 -0.021 -0.084 -0.003 -0.052 -0.046 -0.034 -0.092 -0.014 -0.024 -0.023 -0.01 -0.023 0.067 -0.051 -0.081 -0.041 -0.035 -0.042 -0.113 -0.053 -0.012 -0.018 0.054 -0.154 -0.042 -0.045 -0.052 -0.023 -0.06 -0.011 -0.028 -0.021 -0.01 -0.024 0.011 -0.015 0.071 0.004 0.022 -0.016 0.169 -0.091 0.007 -0.017 -0.024 -0.01 -0.031 -0.005 -0.008 -0.019 0.001 -0.025 0.09 -0.131 0.027 -0.056 0.006 -0.039 -0.006 -0.039 -0.052 -0.061 -0.05 -0.049 -0.002 -0.039 -0.037 -0.02 -0.104 -0.104 0 -0.04 0.059 -0.031 0.082 -0.02 0.027 -0.016 0.049 -0.01 0.131 0.03 0.059 0.026 0.017 -0.005 0.053 -0.028 0.093 0.004 0.224 -0.057 0.033 -0.027 0.025 -0.029 0.002 -0.013 -0.087 -0.056 -0.003 -0.021 0.012 -0.023 0.025 -0.018 0.051 -0.013 0.055 -0.025 0.122 -0.07 0.042 -0.06 0.013 -0.065 0.003 -0.049 -0.033 -0.039 -0.034 -0.025 -0.046 0.004 -0.09 -0.002 -0.084 -0.022 -0.046 -0.035 -0.011 -0.031 0.021 -0.019 0.006 -0.024 -0.013 -0.024 0.005 -0.02 0.038 -0.016 0.265 0.001 0.02 -0.018 0.018 -0.093 0.066 -0.142 0.062 -0.079 0.01 -0.033 -0.001 -0.188 0.008 -0.095 -0.045 -0.045 -0.099 -0.049 0.021 -0.102 0.033 -0.079 0.099 -0.098 0.079 -0.027 0.344 -0.016 0.38 0.007 0.158 0.147 -0.059 0.076 0.092 0.035 0.044 -0.013 0.034 -0.066 0.023 -0.073 0.032 -0.022 0.117 0.054 0.041 0.037 0.003 0.12 0.043 -0.163 -0.032 -0.114 0.022 -0.11 0.047 -0.057 0.043 -0.037 0.279 0.039 0.308 -0.02 0.116 0.042 0.263 0.213 0.088 0.035 0.111 0.011 -0.153 -0.046 -0.319 -0.259 -0.096 -0.032 -0.147 -0.01 -0.092 -0.025 -0.058 -0.039 -0.017 -0.035 0.003 -0.26 -0.055 -0.039 -0.071 -0.013 -0.044 0.018 -0.091 0 -0.019 -0.059 0.022 -0.044 0.183 -0.03 0.121 -0.04 0.005 -0.071 -0.076 -0.056 -0.091 -0.102 -0.107 -0.096 -0.012 -0.112 0 0 0.187 0.002 0.046 0.004 0.283 0.052 0.069 0.037 0.087 0.002 0.157 -0.034 0.117 -0.015 0.045 0.021 0.064 0.009 0.015 0 0.006 0.018 0.146 0.027 0.062 0.042 0.068 0.064 0.007 0.093 -0.087 0.067 -0.073 0.042 0.275 -0.016 0.027 0.038 0.042 0.041 0.148 -0.029 0.371 0.122 0.224 -0.059 0.057 -0.003 0.051 0.099 -0.056 0.099 -0.198 0.106 0.044 0.065 0.063 0.015 0.187 -0.014 0.295 0.065 0.062 -0.02 0.239 -0.149 0.096 -0.032 0.315 -0.023 0.057 -0.058 0.128 -0.058 0.082 -0.063 0.197 -0.12 0.204 0.022 0.119 0.023 0.131 0.012 0.119 0.128 0.301 0.142 0.276 -0.012 0.098 0.134 0.043 0.166 0.085 0.052 0.075 0.034 0.225 0.036 0.009 0.002 0.007 0.023 0.014 0.082 0.019 0.068 0.116 0.273 -0.002 0.067 -0.001 0.018 -0.042 0.093 -0.075 0.079 -0.1 0.044 -0.055 0.049 -0.01 0.055 0.125 0.096 0.26 0.137 0.105 0.117 -0.05 0.097 -0.015 0.071 0.019 0.046 0.042 0.037 0.064 0.028 0.025 0.043 -0.013 0.057 0.012 0.04 0.048 0.028 -0.004 0.011 -0.023 0.04 -0.032 0.073 -0.018 0.053 -0.073 0.072 0.022 0.062 0.057 0.073 0.044 0.036 0.014 0.035 -0.028 0.082 0.014 0.021 0.181 0.061 0.03 0.028 0.018 0.058 0.063 0.124 -0.053 0.158 -0.046 0.086 -0.103 0.137 -0.005 0.013 -0.012 0.017 -0.031 0.024 -0.043 0.004 -0.065 -0.018 -0.045 -0.023 0.01 -0.059 -0.029 -0.004 -0.036 -0.036 -0.014 -0.039 -0.038 -0.016 -0.14 -0.016 -0.048 -0.012 -0.037 0.008 -0.027 0.028 0.017 0.025 0.026 0.024 0.078 0.039 -0.008 0.015 -0.167 0.038 -0.105 0.038 -0.098 0.022 -0.1 0.04 -0.197 0.045 -0.145 0.012 -0.03 0.012 -0.054 0.076 -0.036 0.016 -0.035 -0.008 -0.027 -0.012 -0.034 0.01 -0.035 0.025 -0.037 0.01 -0.032 0 -0.057 0.066 -0.165 0.02 -0.019 0.034 -0.03 0.04 -0.024 0.01 -0.074 -0.016 -0.103 -0.009 -0.059 0.022 -0.071 0.012 -0.087 0.004 -0.096 0.044 -0.094 0.077 -0.053 0.068 -0.028 0.024 -0.046 -0.063 -0.056 -0.044 -0.04 -0.023 -0.036 0 -0.009 0.009 0 0.033 0.038 0.055 0.047 0.038 0.008 0.028 0.025 0.051 0.069 0.055 0.108 0.044 0.073 0.043 0.054 0.06 0 0.018 -0.015 0.024 -0.026 0.023 -0.022 0.03 -0.06 0.06 0.018 0.026 0.049 0.033 0.043 0.04 0.055 0.065 0.076 0.114 0.049 0.047 0.067 0.048 0.066 0.037 0.103 -0.001 0.107 0.07 0.117 0.102 0.087 0.047 0.061 0.014 0.05 0.037 0.045 0.053 0.017 0.031 0.04 0.022 0.107 -0.004 0.137 0.083 0.085 0.061 0.045 0.049 -0.012 0.019 -0.005 0.061 0.001 0.065 -0.013 0.034 -0.061 0.045 -0.032 0.01 -0.017 0.01 -0.189 -0.059 -0.015 0.01 -0.012 0.007 -0.05 0.17 -0.035 0.033 -0.052 0.03 -0.108 0.029 -0.075 0.012 -0.058 0.015 -0.185 0.071 -0.083 0.043 -0.054 0.054 0 0.031 0.09 0.091 0.104 0.094 0.001 0.083 -0.046 0.062 -0.011 0.024 0.03 0.009 0.057 0.003 0.048 0.011 0.021 0.044 -0.006 0.076 -0.016 0.071 -0.017 0.03 -0.046 0.002 -0.089 -0.031 -0.07 -0.036 -0.027 -0.022 -0.002 -0.026 0.015 -0.017 -0.025 -0.032 -0.086 -0.03 -0.092 0.013 -0.068 0.02 -0.044 -0.001 -0.047 -0.029 -0.073 -0.022 -0.095 -0.015 -0.059 -0.016 -0.012 0.009 0.007 0.062 -0.018 0.027 -0.469 0.036 -0.143 0.034 -0.104 0.044 -0.077 0.019 -0.019 0.027 -0.076 0.035 -0.086 0.011 -0.021 -0.012 -0.055 0.016 -0.094 0.016 -0.061 -0.005 -0.029 -0.029 -0.058 -0.044 -0.023 -0.03 0.002 -0.019 -0.131 -0.004 -0.083 -0.023 -0.176 0.005 -0.043 -0.01 -0.009 0.01 -0.026 0.124 -0.035 0.051 -0.056 0.053 -0.072 0.029 -0.058 0.005 0.003 -0.038 0.015 -0.046 -0.042 -0.011 -0.062 -0.005 -0.03 -0.014 0.008 -0.035 -0.014 -0.021 -0.026 -0.025 -0.063 -0.032 -0.132 -0.047 -0.09 -0.023 -0.034 0.025 -0.02 0.008 -0.051 -0.023 -0.13 -0.058 -0.141 -0.052 -0.142 -0.057 -0.099 -0.049 -0.019 0.01 z M 13.709 -54.383 l 0.025 0.067 -0.027 0.034 -0.112 -0.057 -0.113 0.001 -0.067 0.088 -0.05 0.004 -0.174 -0.08 -0.028 -0.039 -0.006 -0.032 0.025 -0.112 -0.005 -0.035 0.055 -0.039 0.008 -0.056 0.097 -0.059 0.086 -0.002 0.027 0.05 0.041 0.034 0.145 0.038 0.022 0.017 0.013 0.024 -0.067 0.047 -0.023 0.024 0.021 0.039 z M 14.211 -53.95 l -0.013 0.031 0.015 0.048 -0.042 -0.004 -0.124 0.011 -0.123 -0.016 -0.024 -0.06 0.02 -0.058 -0.049 -0.04 -0.045 -0.023 -0.007 -0.033 0.007 -0.034 0.211 0.093 z M 11.283 -54.418 l -0.154 0.002 -0.059 -0.04 -0.059 -0.01 0.032 -0.049 0.042 -0.018 0.149 0.032 0.047 0.063 z M 8.308 -54.787 l -0.023 0.02 0.011 -0.141 0.109 -0.15 0.046 0.003 -0.047 0.041 -0.014 0.028 -0.019 0.057 0.009 0.03 0.25 0.008 -0.029 0.026 -0.253 0.018 z M 8.588 -54.713 l -0.039 0.025 -0.095 -0.003 -0.053 -0.023 0.017 -0.025 0.05 -0.019 0.042 -0.003 0.063 0.012 z" vector-effect="non-scaling-stroke" fill="#000" fill-opacity="1" stroke="#FFF" stroke-width="0px" stroke-linejoin="round" stroke-linecap="round"/></svg>
