<svg xmlns="http://www.w3.org/2000/svg" xmlns:xlink="http://www.w3.org/1999/xlink" height="400" width="400" viewBox="-3.243896484375 -11.16689453125 4.43110351562501 6.40444335937499"><path d="M -0.069 -11.116 l 0.064 0.06 0.014 0.035 -0.023 0.13 -0.047 0.091 -0.03 0.085 0.004 0.042 0.029 0.042 0.097 0.067 0.05 0.043 0.059 0.066 0.068 0.064 0.116 0.084 0.049 0.015 -0.002 0.023 -0.016 0.032 -0.011 0.312 -0.009 0.08 -0.008 0.041 -0.011 0.116 -0.012 0.017 -0.022 -0.001 -0.02 0.004 -0.005 0.023 0.008 0.024 0.07 0.017 -0.015 0.018 -0.052 0.016 -0.024 0.035 0.01 0.04 -0.029 0.032 0.008 0.022 0.018 0.016 0.029 -0.006 0.082 -0.054 0.034 -0.006 0.042 0.011 0.078 0.082 0.003 0.04 -0.032 0.137 -0.031 0.106 -0.006 0.141 0.033 0.079 -0.004 0.043 -0.036 0.038 -0.081 0.054 0.006 0.037 0.037 0.069 0.068 0.077 0.133 0.096 0.07 0.125 0.002 0.051 -0.041 0.051 -0.048 0.044 -0.016 0.064 0.022 0.418 -0.105 0.181 -0.001 0.052 0.011 0.06 0.028 0.036 0.054 0.01 0.044 0.035 -0.015 0.127 -0.023 0.13 -0.004 0.063 -0.013 0.03 -0.041 0.024 -0.015 0.041 0.01 0.051 -0.008 0.037 0.022 0.048 0.048 0.06 0.077 0.15 0.029 0.012 0.013 0.031 -0.008 0.031 0.03 0.066 0.086 0.066 0.09 0.058 0.073 0.008 0.017 0.052 0.048 0.066 0.035 0.029 0.055 0.019 0.045 0.01 0.002 0.056 -0.082 0.038 -0.055 0.057 -0.042 0.088 -0.058 0.096 -0.201 0.05 -0.077 0 -0.412 0.002 -0.386 0.189 -0.222 0.067 -0.137 0.107 -0.184 0.076 -0.128 0.092 -0.267 0.044 -0.437 0.145 -0.137 0.057 -0.138 0.1 -0.225 0.118 -0.088 -0.002 -0.176 -0.11 -0.133 -0.055 -0.324 -0.084 -0.242 -0.033 -0.117 -0.036 -0.032 -0.006 0.027 -0.04 0.068 -0.002 0.071 0.012 0.054 -0.03 0.079 -0.004 0.02 -0.031 0.007 -0.08 -0.001 -0.064 0.028 -0.029 0.007 -0.076 -0.039 -0.168 -0.028 -0.019 -0.141 -0.024 -0.011 -0.033 -0.025 -0.035 -0.027 -0.086 -0.031 -0.129 -0.049 -0.159 -0.095 -0.263 -0.023 -0.093 -0.016 -0.095 -0.004 -0.113 0.02 -0.042 -0.003 -0.058 -0.009 -0.058 0.067 -0.134 0.131 -0.164 0.028 -0.059 0.024 -0.041 0.003 -0.059 0.023 -0.191 0.063 -0.23 0.039 -0.087 0.027 -0.047 0.032 -0.077 0.008 -0.036 0.121 -0.09 0.055 -0.024 0.012 -0.036 -0.019 -0.039 0.008 -0.026 0.029 -0.013 0.044 -0.011 0.032 -0.037 -0.051 -0.284 -0.041 -0.283 -0.002 -0.024 -0.025 -0.039 -0.024 -0.117 -0.041 -0.069 -0.057 -0.02 0 -0.065 0.057 -0.109 0.015 -0.064 -0.028 -0.019 -0.004 -0.05 0.02 -0.08 -0.01 -0.05 -0.01 -0.053 -0.06 -0.124 -0.015 -0.088 0.031 -0.051 -0.001 -0.112 -0.032 -0.173 -0.005 -0.109 0.022 -0.046 -0.011 -0.043 -0.043 -0.041 -0.003 -0.04 0.037 -0.039 -0.005 -0.031 -0.046 -0.022 -0.041 -0.053 -0.036 -0.084 0.008 -0.136 0.069 -0.25 0.009 -0.021 0.078 0.001 0 0.011 0.242 -0.002 0.277 -0.003 0.331 -0.003 0.301 -0.003 0.013 -0.011 0.05 -0.014 0.304 0.025 0.19 -0.013 0.081 0.008 0.059 0.017 0.131 -0.011 0.07 0.006 0.053 0.062 0.021 -0.001 0.029 -0.026 0.052 -0.03 0.054 -0.024 0.038 -0.049 0.023 -0.037 0.035 0.008 0.05 -0.002 0.033 -0.031 0.013 -0.048 z" vector-effect="non-scaling-stroke" fill="#000" fill-opacity="1" stroke="#FFF" stroke-width="0px" stroke-linejoin="round" stroke-linecap="round"/></svg>
