<svg xmlns="http://www.w3.org/2000/svg" xmlns:xlink="http://www.w3.org/1999/xlink" height="400" width="400" viewBox="19.646484375 -41.743798828125 8.58535156250002 6.809326171875"><path d="M 27.86 -36.554 l -0.022 0.016 -0.05 -0.046 -0.002 -0.024 0.051 -0.027 0.026 -0.006 0.007 0.019 -0.001 0.04 z M 20.612 -38.383 l 0.012 0.115 0.071 0.022 0.094 0.104 -0.008 0.053 -0.019 0.018 -0.155 -0.049 -0.037 0.022 -0.045 -0.009 -0.028 -0.058 0.003 -0.02 -0.025 -0.034 -0.021 -0.015 -0.061 0.046 -0.038 0.009 0 -0.042 0.056 -0.115 0.026 -0.019 0.046 0.038 0.038 -0.014 0.029 -0.062 0.002 -0.062 0.013 -0.018 z M 20.888 -37.805 l 0.105 0.097 -0.085 -0.024 -0.091 0.067 -0.115 -0.079 -0.069 -0.08 -0.016 -0.032 0.072 -0.075 0.067 0.077 0.081 0.012 z M 20.687 -38.609 l -0.039 0.008 -0.033 -0.005 -0.03 0.005 -0.029 0.019 0.003 -0.079 0.035 -0.098 0.042 -0.057 0.059 -0.027 0.025 0.045 -0.005 0.161 z M 20.759 -38.329 l -0.049 0.011 -0.063 -0.096 -0.023 -0.066 0.026 -0.004 0.025 0.008 0.026 0.025 0 0.025 0.011 0.027 0.028 0.033 z M 20.078 -39.433 l 0.022 0.056 -0.125 -0.035 -0.091 -0.05 -0.075 -0.124 -0.16 -0.141 -0.002 -0.041 0.061 -0.031 0.131 -0.022 0.053 0.023 0.034 0.024 0.011 0.027 -0.075 0.054 -0.016 0.025 0.057 0.049 -0.001 0.019 0.024 0.094 0.028 0.035 0.072 0.028 z M 23.415 -38.959 l 0.057 0.109 0.053 0.037 0.111 0.043 0.052 0.006 0.19 0.078 0.221 0.016 0.029 0.023 0.027 0.06 0.045 0.047 0.011 0.037 -0.024 0.041 0.033 0.125 0.056 0.119 0.084 0.058 0.104 0.017 0.099 -0.002 0.025 0.024 -0.01 0.104 -0.042 0.04 -0.034 0.01 -0.03 -0.011 -0.027 -0.024 -0.029 -0.012 -0.057 -0.002 -0.042 -0.042 -0.106 -0.057 -0.019 -0.034 -0.004 -0.053 -0.045 -0.039 -0.041 -0.074 -0.039 -0.02 -0.022 -0.037 -0.002 -0.016 -0.154 -0.011 -0.127 0 -0.108 -0.042 -0.033 -0.109 -0.064 -0.029 -0.048 -0.031 -0.04 -0.043 -0.101 -0.079 -0.112 -0.066 -0.108 -0.044 -0.115 -0.029 -0.093 0.034 -0.054 -0.008 -0.011 -0.023 0.116 -0.045 0.159 -0.087 0.112 -0.029 0.054 -0.004 z M 23.78 -39.114 l -0.045 0.034 -0.069 -0.015 -0.072 -0.113 z M 23.888 -39.158 l -0.047 0.012 0.047 -0.08 0.083 -0.041 -0.031 0.067 z M 24.675 -38.809 l -0.106 0.024 -0.028 -0.004 0.024 -0.031 0.002 -0.013 -0.105 -0.056 0.012 -0.073 0.012 -0.019 0.078 0.038 0.017 0.063 z M 24.774 -40.615 l -0.128 0.036 -0.13 -0.068 0.001 -0.04 0.069 -0.082 0.038 -0.024 0.096 0.007 0.054 0.056 0.013 0.026 -0.018 0.045 z M 23.551 -37.926 l -0.04 0.025 -0.045 -0.001 -0.032 -0.009 -0.016 -0.02 0.02 -0.009 0.023 -0.04 0.021 -0.011 0.032 0.005 0.019 0.016 z M 23.054 -36.19 l -0.012 0.043 -0.103 -0.03 -0.029 -0.045 -0.005 -0.099 0.027 -0.048 0.018 -0.015 0.047 0.056 0.099 0.082 z M 27.176 -35.465 l -0.038 0.056 -0.039 -0.047 0.017 -0.055 -0.045 -0.087 0.085 -0.129 0.002 -0.062 0.065 -0.032 -0.016 0.106 -0.05 0.085 0.052 0.071 0.025 0.08 z M 27.02 -36.959 l -0.1 0.014 0.018 -0.079 -0.049 -0.063 0.078 0.035 0.049 0.042 0.024 0.008 -0.006 0.026 z M 26.95 -36.727 l -0.031 0.001 0.037 -0.048 0.106 -0.066 0.154 -0.058 0.051 -0.006 0.087 0.036 -0.159 0.06 -0.042 0.032 -0.117 0.007 z M 25.546 -36.968 l -0.089 0.038 -0.061 -0.055 -0.034 -0.086 0.163 -0.126 0.039 0.011 0.024 0.033 -0.004 0.113 z M 25.279 -37.068 l -0.079 0.077 -0.066 -0.008 -0.028 -0.035 0.041 -0.072 0.089 -0.041 0.04 0.011 -0.004 0.054 z M 25.482 -36.393 l -0.046 0.053 -0.065 -0.019 0.027 -0.02 0.016 -0.026 0.002 -0.037 -0.018 -0.023 0.012 -0.008 0.058 0.039 z M 25.382 -36.674 l -0.017 0.016 -0.076 -0.063 -0.029 -0.037 0.036 -0.031 0.111 0.072 z M 26.824 -37.811 l 0.123 0.033 0.034 -0.004 0.058 0.012 0.015 0.061 -0.077 0.009 -0.133 0.056 -0.057 -0.012 -0.068 -0.048 -0.108 -0.005 -0.032 -0.013 0.058 -0.057 0.105 -0.029 z M 26.029 -37.529 l -0.047 0.004 0.014 -0.04 0.09 -0.069 0.125 -0.003 0.114 -0.035 0.026 -0.001 -0.054 0.055 -0.092 0.051 z M 25.859 -36.79 l -0.088 0.008 -0.028 -0.008 0.054 -0.017 0.038 -0.018 0.018 -0.022 0.09 -0.039 0.059 -0.051 0.064 0.035 -0.08 0.023 z M 26.461 -36.585 l -0.079 0.024 -0.05 0.05 -0.061 -0.036 0 -0.048 0.067 0.015 0.047 -0.027 -0.014 -0.031 0.051 0.014 z M 24.356 -37.577 l -0.067 0.049 -0.012 -0.073 0.043 -0.077 0.059 -0.005 0.022 0.034 z M 24.436 -37.344 l -0.057 0.03 0.019 -0.069 -0.028 -0.036 0.025 -0.031 0.036 -0.025 0.017 0.026 0.033 0.042 z M 24.536 -36.764 l 0.002 0.059 -0.007 0.021 -0.205 0.028 0.019 -0.067 0.012 -0.021 0.068 0.031 0.025 -0.016 0.01 -0.019 z M 24.943 -37.494 l -0.005 0.104 -0.026 -0.001 -0.015 -0.016 -0.001 -0.04 0.011 -0.063 z M 24.992 -37.76 l -0.029 0.067 -0.078 -0.078 -0.086 -0.054 -0.032 -0.047 -0.052 -0.028 -0.014 -0.063 0.063 -0.026 0.027 -0.003 0.065 0.076 0.101 0.009 -0.008 0.047 0.032 0.061 z M 25.256 -37.6 l -0.037 0.065 -0.062 -0.01 -0.104 -0.069 -0.036 -0.031 -0.02 -0.031 0.043 -0.004 0.052 0.033 0.134 0.017 z M 24.721 -36.921 l -0.018 0.004 -0.026 -0.042 -0.005 -0.039 0.01 -0.023 0.035 -0.002 0.047 0.075 z M 26.094 -38.218 l -0.096 0.057 -0.107 -0.082 -0.018 -0.026 0.078 -0.033 0.039 -0.051 -0.031 -0.063 -0.109 -0.092 -0.005 -0.066 0.166 -0.028 0.098 0.057 0.05 0.004 -0.019 0.055 0.008 0.018 0.007 0.166 -0.046 0.023 -0.008 0.045 z M 26.41 -39.329 l -0.017 0.059 0.138 0.098 0.047 0.062 0.017 0.061 -0.012 0.017 -0.052 -0.033 -0.043 -0.01 0.014 0.043 0.044 0.037 -0.078 0.021 -0.079 -0.001 -0.229 -0.052 -0.053 -0.055 0.137 -0.083 0.028 -0.033 -0.097 0.003 -0.104 0.099 -0.166 -0.043 -0.051 -0.04 -0.011 -0.021 0.065 -0.087 0.117 0.003 0.062 -0.02 0.076 -0.028 0.001 -0.042 0.182 -0.009 z M 25.686 -40.427 l -0.113 0.026 -0.125 -0.082 0.121 -0.033 0.056 0.024 0.04 0.028 z M 25.438 -39.983 l -0.038 0.034 -0.028 0.058 -0.015 0.083 -0.058 0.002 -0.035 -0.017 -0.012 -0.031 -0.002 -0.04 -0.026 0.002 -0.021 0.043 -0.018 0.019 -0.059 0.004 -0.064 -0.027 0.003 -0.057 -0.013 -0.067 0.006 -0.023 0.176 -0.006 0.052 0.049 0.062 -0.028 0.026 -0.031 0.075 -0.019 z M 25.403 -37.419 l -0.096 0.006 0.006 -0.076 0.035 -0.02 0.115 0.038 -0.006 0.024 z M 24.524 -37.125 l -0.037 0.015 -0.062 -0.022 0.016 -0.055 0.043 -0.023 0.045 0.018 0.007 0.025 z M 27.843 -35.929 l -0.072 0.021 -0.025 -0.003 -0.03 -0.046 0.042 -0.112 -0.039 -0.072 -0.002 -0.03 0.058 -0.042 0.041 -0.063 0.099 -0.068 0.257 -0.081 0.06 -0.007 -0.002 0.063 -0.086 0.16 -0.076 0.08 0.02 0.064 -0.122 0.018 z M 23.852 -35.535 l 0.068 0.007 0.093 -0.001 0.021 -0.006 0.059 -0.058 0.073 -0.001 0.032 0.058 -0.074 0.027 -0.015 0.015 0.014 0.012 0.055 0.024 0.077 -0.009 0.002 0.045 0.017 0.037 0.038 0.022 0.041 0.004 0.091 -0.007 0.09 -0.015 0.092 -0.029 0.094 -0.015 0.282 0.015 0.101 0.063 0.192 0.008 0.179 0.033 0.094 -0.022 0.161 -0.021 0.026 0.022 -0.021 0.142 0.01 0.041 0.046 0.02 0.046 -0.01 0.056 -0.047 0.135 -0.036 0.14 0 0.118 -0.095 0.035 -0.005 -0.022 0.047 -0.018 0.109 -0.025 0.064 -0.011 0.05 -0.079 0.026 -0.119 0.004 -0.217 -0.011 -0.219 0.018 -0.405 0.048 -0.406 0.025 -0.055 -0.016 -0.001 -0.064 -0.009 -0.044 -0.026 -0.031 -0.125 -0.026 -0.12 -0.045 -0.469 -0.062 -0.111 -0.024 -0.18 0.013 -0.066 -0.002 -0.045 -0.022 -0.031 -0.038 -0.014 -0.12 0.022 -0.119 0.039 -0.031 0.018 0.036 0.046 0.016 0.043 -0.036 0 -0.055 0.022 -0.051 0.034 0.021 0.023 0.078 z M 26.321 -41.717 l 0.09 0.02 0.052 0.033 0.033 0.03 0.05 0.026 0.037 0.006 0.028 0.089 0.015 0.11 -0.023 0.048 -0.066 0.011 -0.206 0.104 -0.005 0.096 0.003 0.046 0.004 0.033 0.021 0.028 0 0.04 -0.023 0.043 -0.09 0.071 -0.062 0.057 -0.07 0.077 -0.039 0.009 -0.031 0.014 -0.028 -0.042 -0.155 -0.075 -0.359 -0.044 -0.171 -0.055 -0.075 0.01 -0.146 -0.062 -0.1 0.027 -0.212 0.11 -0.114 -0.012 -0.122 -0.066 -0.079 -0.012 -0.093 0.035 -0.149 0.127 -0.152 0.062 -0.136 -0.024 -0.183 0.001 -0.02 0.071 0.035 0.049 0.1 0.084 -0.047 0.063 0.035 0.063 0.065 0.013 0.099 -0.004 0.182 0.082 0.08 0.086 0.051 0.094 -0.111 -0.067 -0.074 -0.065 -0.103 -0.024 -0.143 -0.055 -0.09 -0.009 -0.096 0.038 -0.007 0.043 0.103 0.081 0.094 0.05 0.05 0.041 0.033 0.09 -0.019 0.031 -0.035 0.028 -0.112 -0.057 -0.171 -0.202 -0.238 -0.04 -0.04 0.042 0.047 0.107 0.034 0.042 0.207 0.115 -0.017 0.024 -0.03 0.01 -0.232 -0.066 -0.067 -0.1 -0.016 -0.127 -0.214 -0.088 -0.202 -0.096 -0.045 -0.091 0.042 -0.034 0.029 -0.067 -0.111 0.012 -0.07 0.042 -0.112 0.041 -0.005 0.067 0.018 0.062 -0.037 0.09 -0.036 0.157 0.023 0.082 0.244 0.236 0.083 0.172 0.06 0.065 0.125 0.072 0.13 0.134 0.055 0.07 0.039 0.114 -0.109 0.071 -0.064 0.003 -0.035 -0.031 0.049 -0.078 -0.007 -0.047 -0.169 -0.073 -0.071 0.025 -0.082 0.048 0.047 0.089 0.053 0.058 0.027 0.081 0.101 -0.007 -0.136 0.09 -0.128 0.046 -0.126 0.003 -0.08 0.008 -0.028 0.023 0.065 0.017 0.053 0.002 0.087 0.049 0.246 0.058 0.117 0.074 0.115 0.007 0.116 0.136 0.201 0.036 0.114 0.137 0.152 0.027 0.131 0.05 0.038 0.048 0.019 0.087 0.008 0.184 0.028 0.137 0.001 0.043 -0.007 0.065 -0.036 0.032 -0.048 0.001 -0.094 -0.101 -0.145 -0.106 -0.152 -0.126 -0.043 -0.022 -0.035 -0.002 -0.082 0.043 -0.227 0.033 -0.106 0.046 -0.04 0.01 -0.011 0.024 0.05 0.025 0.061 0.058 0 0.079 0.05 0.096 0.065 0.025 0.085 -0.002 0.049 0.018 0.013 0.038 0.049 0.045 0.033 0.033 -0.001 0.024 -0.237 0.063 -0.05 0.029 -0.042 0.015 -0.062 -0.03 -0.004 -0.077 -0.081 -0.041 -0.075 -0.035 -0.089 -0.015 -0.076 -0.053 -0.05 0.043 0.04 0.149 0.086 0.102 0.144 0.275 0.065 0.162 0.013 0.079 -0.033 0.13 0.071 0.097 0.048 0.1 -0.053 -0.004 -0.046 -0.035 -0.078 -0.041 -0.151 -0.159 -0.052 -0.099 -0.063 -0.008 -0.109 0.014 -0.119 0.212 0 0.121 -0.062 -0.029 -0.053 -0.038 0.006 -0.133 -0.005 -0.056 -0.145 -0.181 -0.066 -0.02 -0.031 -0.061 -0.053 -0.065 -0.069 0.012 -0.056 0.026 -0.016 0.098 -0.006 0.088 -0.042 0.066 -0.154 -0.126 -0.155 -0.218 -0.004 -0.119 0.114 -0.109 -0.014 -0.078 -0.108 -0.154 -0.155 -0.099 -0.087 -0.029 -0.041 -0.105 -0.083 -0.054 -0.067 -0.025 -0.013 -0.037 0.02 -0.028 0.163 -0.108 0.096 -0.169 0.047 -0.008 0.098 0.04 0.11 -0.01 0.09 -0.099 0.076 -0.054 0.129 0.007 0.29 0.132 0.312 0.075 0.156 0.066 0.088 0.066 0.047 0.014 0.074 0.009 -0.003 -0.049 -0.024 -0.043 0.062 -0.024 0.167 0.001 0.03 -0.023 0.031 -0.037 -0.035 -0.042 -0.055 -0.02 -0.059 -0.006 -0.039 -0.013 -0.063 0.014 -0.098 -0.033 -0.051 -0.027 -0.03 -0.028 -0.171 -0.055 -0.162 -0.094 -0.036 0.053 -0.065 0.029 -0.093 0.004 -0.262 -0.06 -0.161 0.046 -0.088 0.012 -0.067 0.001 -0.082 0.02 -0.095 0.012 -0.082 -0.086 -0.035 -0.067 -0.024 -0.013 -0.001 0.063 -0.026 0.05 -0.121 0.028 -0.069 -0.039 -0.053 -0.119 -0.068 -0.151 -0.119 -0.122 -0.096 -0.032 -0.008 -0.067 0.009 -0.053 0.116 -0.013 0.181 0.056 0.037 -0.011 0.041 -0.026 -0.008 -0.057 -0.026 -0.051 -0.05 -0.002 -0.034 0.006 -0.111 -0.01 -0.143 0.028 -0.066 -0.027 -0.022 -0.032 -0.12 -0.08 -0.103 -0.108 -0.167 -0.072 -0.109 -0.219 -0.092 -0.095 -0.098 -0.068 0.021 -0.001 0.037 0.012 0.071 0.037 0.076 0.008 0.041 -0.025 0.024 -0.023 0.016 -0.037 0.006 -0.044 0.012 -0.014 0.058 0.005 0.018 -0.011 -0.001 -0.039 -0.037 -0.049 -0.033 -0.06 0 -0.029 0.027 -0.012 0.045 -0.026 0.024 -0.032 0.048 -0.016 0.071 -0.003 0.079 -0.014 0.051 -0.035 0.008 -0.034 0.032 -0.095 0.021 -0.046 0.034 -0.042 0.018 -0.057 0.036 -0.054 0.076 -0.022 0.069 -0.026 0.052 -0.069 0.029 -0.059 0 -0.036 -0.043 -0.059 -0.032 -0.058 0.008 -0.075 0.136 -0.006 0.048 -0.007 0.176 -0.004 0.08 -0.04 0.056 0.004 0.116 0.035 0.052 -0.027 0.152 -0.054 0.15 -0.157 0.064 -0.024 0.146 -0.01 0.046 -0.018 0.053 0.003 0.163 0.032 0.093 0.005 0.11 -0.022 0.121 -0.038 0.03 -0.134 0.029 -0.019 0.075 -0.005 0.057 0.001 0.11 0.011 0.13 0.004 0.084 -0.063 0.132 -0.005 0.061 -0.009 0.102 0.013 0.099 -0.001 0.127 -0.026 0.119 -0.043 0.093 0.004 0.038 -0.008 0.022 -0.009 0.023 -0.058 0.174 -0.004 0.059 0.006 0.097 0.002 0.101 -0.032 0.03 0.003 0.051 0.085 0.027 0.025 0.055 0.023 0.123 0.064 0.022 -0.017 0.051 -0.021 0.147 0.029 0.14 0.049 0.118 0.072 0.131 -0.021 0.145 -0.035 0.094 -0.01 0.102 -0.005 0.061 -0.015 0.138 0.019 0.143 -0.039 0.069 -0.035 0.02 -0.049 -0.012 -0.087 -0.032 -0.087 -0.034 -0.032 -0.011 -0.033 0.02 -0.031 0.022 -0.022 0.093 -0.018 z" vector-effect="non-scaling-stroke" fill="#000" fill-opacity="1" stroke="#FFF" stroke-width="0px" stroke-linejoin="round" stroke-linecap="round"/></svg>
