<svg xmlns="http://www.w3.org/2000/svg" xmlns:xlink="http://www.w3.org/1999/xlink" height="400" width="400" viewBox="-72.81806640625 -83.599609375 61.392529296875 23.784130859375"><path d="M -29.953 -83.565 l 0.961 0.06 0.508 0.07 0.107 -0.002 0.689 0.027 0.654 0.033 1.087 0.087 0.152 0.029 -0.117 0.023 -0.27 0.016 -1.389 0.029 -2.52 0.035 -1.442 0.069 -0.459 0.004 -0.04 0.102 0.196 0.006 0.321 -0.014 1.13 -0.102 0.422 -0.017 0.789 0.008 1.024 0.038 0.413 -0.013 0.736 0.01 0.861 -0.029 1.017 -0.063 0.278 0.141 0.375 0.141 0.297 -0.016 0.254 0.008 0.086 0.046 0.139 0.02 0.288 -0.011 0.882 0.041 0.605 0.073 0.228 0.034 0.109 0.048 0.062 0.039 -0.095 0.048 -0.378 0.085 -0.479 0.078 -0.646 0.06 -0.744 0.038 -5.717 0.126 -0.193 0.03 -0.115 0.076 0.076 0.099 0.267 0.016 0.624 -0.056 1.08 -0.053 0.794 0.003 1.897 0.045 0.56 0.118 0.296 0.182 0.657 -0.041 0.14 -0.031 0.103 -0.054 0.082 -0.058 0.062 -0.062 0.069 -0.042 0.076 -0.022 0.164 -0.019 0.377 -0.023 0.988 -0.022 0.238 0.006 0.171 0.085 0.037 0.05 0.012 0.065 -0.005 0.08 -0.023 0.095 -0.084 0.094 -0.273 0.164 -0.22 0.089 -0.237 0.064 -0.455 0.147 -0.157 0.039 -0.5 0.171 -0.124 0.079 -0.007 0.058 0.086 0.011 0.145 -0.055 0.054 -0.039 0.093 -0.041 0.736 -0.108 0.158 -0.03 0.482 -0.128 0.307 -0.048 0.253 -0.05 0.134 -0.036 0.74 -0.252 0.386 -0.076 0.405 0 0.072 0.128 0.486 0.02 0.211 -0.006 0.339 0.031 0.148 0.026 0.253 0.013 0.261 0.03 0.23 -0.033 0.067 -0.021 0.222 -0.093 0.3 -0.082 0.278 -0.103 0.092 -0.025 0.146 -0.023 0.152 -0.009 0.413 -0.048 0.105 -0.003 0.223 0.015 0.985 0.008 0.537 0.025 0.748 0.069 0.522 0.038 0.242 0.033 0.352 0.072 0.284 0.075 0.132 0.022 -0.005 0.024 -0.098 0.033 -0.703 0.115 -0.23 0.077 -0.665 0.145 -0.325 0.05 -0.353 0.019 -0.393 0.005 -0.255 0.021 -0.038 0.02 0.182 0.06 0.08 0.043 -0.012 0.038 -0.191 0.056 -0.072 0.013 -0.691 0.042 -0.348 0.071 -0.455 0.009 -0.321 -0.008 -0.442 0.076 0.173 0.062 0.158 0.027 0.492 0.057 0.005 0.033 -0.235 0.066 -0.321 0.077 -0.38 0.054 -0.143 0.008 -0.18 -0.013 -0.166 0.003 -0.366 0.025 -0.348 0.004 -0.622 -0.035 -0.336 -0.041 -0.177 -0.014 -0.223 0.004 -0.086 0.016 -0.352 0.097 -0.173 0.066 -0.111 0.067 -0.047 0.074 0.016 0.08 0.043 0.055 0.07 0.03 0.083 0.018 0.146 0.009 0.321 -0.009 0.126 0.005 0.038 0.016 0.069 0.051 -0.012 0.048 -0.058 0.068 -0.045 0.079 -0.032 0.09 0.017 0.049 0.13 0.011 0.061 -0.004 0.071 0.016 0.08 0.036 0.06 0.038 0.041 0.04 -0.021 0.033 -0.083 0.026 -0.187 0.029 -0.461 0.058 -0.047 0.018 -0.036 0.035 -0.026 0.053 -0.056 0.048 -0.086 0.043 -0.078 0.026 -0.149 0.011 -0.196 0.002 -0.22 0.025 -0.518 0.145 -0.008 0.016 0.194 0.047 -0.008 0.041 -0.239 0.175 -0.065 0.087 -0.052 0.119 -0.085 0.1 -0.119 0.082 -0.117 0.094 -0.115 0.107 0.018 0.082 0.151 0.057 0.199 -0.046 0.248 -0.15 0.269 -0.065 0.291 0.02 0.253 0.03 0.323 0.059 0.271 0.036 0.234 0.048 0.096 0.041 0.097 0.057 0.001 0.036 -0.171 0.019 -0.057 -0.006 -0.429 -0.094 -0.209 -0.023 -0.277 0.028 -0.242 0.043 0.217 0.172 0.232 0.079 0.423 0.036 0.221 0.038 0.161 0.048 0.126 0.024 0.169 -0.01 0.228 -0.048 0.318 -0.003 0.143 0.024 0.104 0.044 0.047 0.082 -0.01 0.121 -0.035 0.091 -0.059 0.061 -0.114 0.082 -0.095 0.015 -0.135 -0.004 -0.125 -0.017 -0.116 -0.029 -0.175 -0.023 -0.352 -0.025 -0.356 -0.053 -0.199 -0.013 -0.422 0.007 -0.455 0.034 -0.018 0.044 -0.655 0.155 -0.134 -0.002 -0.182 -0.053 -0.254 -0.051 -0.149 0 -0.22 0.064 -0.055 0.025 0.003 0.024 0.162 0.056 0.066 0.013 0.084 0.011 0.291 0.013 0.126 0.015 0.119 0.173 0.189 0.107 0.081 0.022 0.071 0.008 0.231 -0.004 0.298 -0.036 0.104 0.029 0.219 0.035 0.128 0.009 0.156 -0.001 0.176 0.013 0.241 0.098 -0.095 0.124 0.151 0.099 0.241 0.102 0.057 0.037 0.023 0.068 0.005 0.045 0.018 0.041 0.031 0.037 0.032 0.072 0.033 0.108 -0.009 0.088 -0.051 0.068 -0.1 0.05 -0.15 0.031 -0.122 -0.008 -0.095 -0.047 -0.133 -0.05 -0.172 -0.053 -0.286 -0.006 -0.421 0.157 -0.188 0.008 -0.153 0.016 -0.163 0.069 -0.24 0.041 -0.212 -0.016 -0.372 -0.08 0.135 0.053 0.193 0.062 0.12 0.032 0.089 0.007 0.097 -0.008 0.14 -0.026 0.317 -0.071 0.084 -0.011 0.071 0.005 0.058 0.021 0.067 0.061 0.075 0.101 -0.01 0.086 -0.095 0.071 -0.081 0.045 -0.067 0.02 0 0.016 0.177 0.018 0.25 -0.092 0.079 -0.115 0.115 -0.132 0.203 -0.044 0.229 0.044 0.185 0.123 0.262 0.227 0.11 0.024 0.14 0.055 0.062 0.067 -0.017 0.079 -0.03 0.058 -0.043 0.036 -0.054 0.023 -0.098 0.015 -0.179 0.012 -0.401 -0.024 -0.209 -0.001 0.026 0.078 -0.423 0.067 -0.476 0.026 -0.451 -0.053 -0.374 -0.081 0.123 -0.113 0.07 -0.125 -0.181 -0.083 -0.04 -0.002 0.062 0.128 -0.053 0.049 -0.204 0.06 -0.144 0.028 -0.013 0.016 0.071 0.014 0.046 0.027 0.022 0.04 -0.024 0.04 -0.071 0.041 -0.038 0.034 -0.006 0.028 0.065 0.034 0.136 0.039 0.147 0.019 0.689 0.009 0.276 0.021 0.655 0.093 0.029 0.029 -0.111 0.167 -0.061 0.16 -0.127 0.029 -0.689 0.007 -0.222 0.025 -0.325 0.074 -0.312 0.088 -0.162 0.001 -0.641 -0.077 -0.246 -0.051 -0.527 -0.145 -0.397 -0.221 -0.182 0.092 -0.111 0.044 -0.115 0.023 -0.111 0.004 -0.107 -0.016 -0.121 -0.035 -0.203 -0.081 -0.243 -0.08 -0.17 -0.038 -0.006 0.011 0.1 0.047 0.147 0.054 0.372 0.159 0.131 0.04 -0.013 0.029 -0.235 0.025 -0.285 0.055 -0.139 0.04 -0.215 0.098 -0.075 0.015 -0.322 0.025 -0.106 -0.006 -0.238 -0.054 -0.359 -0.035 -0.211 -0.031 -0.294 -0.057 0.101 0.062 0.566 0.095 0.062 0.031 -0.116 0.057 -0.071 0.021 -0.135 0.004 -0.199 -0.012 -0.203 0.002 -0.207 0.017 -0.089 0.021 0.029 0.026 0.049 0.024 0.07 0.021 0.065 0 0.158 -0.065 0.12 -0.005 0.317 0.016 0.32 -0.05 0.231 -0.022 0.173 -0.006 0.63 -0.077 0.131 -0.086 0.211 -0.035 0.47 -0.026 0.455 0.014 0.234 0.011 0.189 0.081 0.254 0.058 0.212 0.066 0.248 0.022 0.144 0.088 0.402 0.098 0.256 0.021 0.158 0.047 0.013 0.198 0.017 0.085 -0.068 0.236 -0.205 0.054 0.041 0.125 -0.054 0.101 -0.204 -0.038 -0.209 -0.066 -0.501 -0.103 -0.466 -0.066 -0.181 -0.06 -0.213 -0.046 -0.29 -0.189 -0.189 -0.234 -0.083 -0.116 -0.159 -0.006 -0.204 0.031 -0.178 0.033 -0.085 0.056 -0.605 0.077 -0.22 0.053 -0.125 -0.002 -0.452 0.08 0.181 0.038 0.084 0.005 0.183 -0.022 0.11 -0.028 0.412 -0.075 0.331 -0.013 0.12 -0.033 0.253 -0.046 0.171 -0.012 0.024 0.012 0.018 0.021 0.121 0.286 -0.051 0.076 -0.136 0.033 -0.291 0.054 -0.076 0.026 0.086 0.046 0.274 -0.043 0.177 -0.047 0.094 0.017 0.155 0.072 0.175 0.037 0.445 0.111 0.211 0.061 0.296 0.059 0.335 0.082 0.087 0.029 0.306 0.042 0.065 0.014 0.127 0.144 0.106 0.016 0.305 0.009 -0.054 0.056 -0.298 0.124 -0.154 0.04 -0.038 0.024 0.015 0.044 0.009 0.073 0.062 0.135 0.07 -0.125 0.049 -0.059 0.065 -0.018 0.064 -0.003 0.208 -0.056 0.209 0.03 0.054 0.141 0.027 0.131 -0.018 0.114 0.023 0.177 -0.008 0.06 0.049 0.052 0.051 0.214 0.051 0.064 -0.103 0.058 -0.318 0.025 -0.126 -0.028 -0.315 0.009 0 -0.051 -0.015 -0.058 -0.001 -0.041 -0.021 -0.037 -0.015 -0.211 -0.089 0.052 -0.005 0.043 -0.024 0.044 -0.055 0.228 -0.081 0.056 -0.252 -0.013 -0.248 0.008 -0.137 -0.008 -0.464 -0.104 -0.18 -0.094 -0.159 -0.142 -0.098 -0.132 -0.037 -0.123 -0.111 -0.1 -0.185 -0.077 -0.219 -0.063 -0.252 -0.048 -0.222 -0.062 -0.191 -0.076 -0.21 -0.059 -0.229 -0.042 -0.326 -0.018 -0.477 0.007 -0.322 -0.047 -0.077 0.004 -0.075 0.024 0.055 0.07 0.37 0.032 0.285 0.007 0.378 -0.005 0.231 0.018 0.085 0.04 0.058 0.072 0.032 0.103 -0.075 0.082 -0.272 0.091 -0.143 0.043 -0.418 0.082 -0.142 0.018 -0.349 0.006 -0.268 -0.008 -0.353 -0.041 -0.2 -0.008 -0.414 -0.005 -0.095 0.014 0.107 0.044 0.176 0.025 0.124 0.029 0.013 0.056 -0.045 0.083 -0.046 0.058 -0.076 0.043 -0.272 0.082 -0.113 0.026 -0.507 0.086 -0.035 0.017 0.119 -0.002 0.32 -0.031 0.092 0.001 0.526 0.075 0.419 -0.004 0.849 -0.069 0.07 0.001 0.056 0.011 0.056 0.026 0.057 0.041 -0.068 0.04 -0.194 0.038 -0.302 0.038 -0.131 0.025 -0.125 0.039 -0.233 0.093 -0.068 0.096 0.245 0.037 0.11 -0.046 0.13 -0.103 0.117 -0.06 0.276 -0.041 0.336 0.021 0.26 -0.024 0.531 -0.101 0.095 -0.006 0.781 0.058 0.708 0.114 0.374 0.042 0.494 0.025 0.889 -0.011 0.078 0.018 -0.029 0.04 -0.052 0.034 -0.148 0.048 -0.18 0.031 -0.111 0.009 -0.095 0.023 -0.213 0.022 -0.055 0.018 0.074 0.078 -0.035 0.012 -0.187 0.001 -0.316 0.051 -0.259 -0.004 -0.054 0.007 0.049 0.019 0.052 0.036 0.055 0.054 -0.03 0.039 -0.116 0.023 -0.088 0.008 -0.304 -0.032 -0.049 0.005 0.044 0.023 0.025 0.035 0.006 0.048 -0.075 0.04 -0.156 0.032 -0.29 0.089 -0.126 0.025 -0.266 0.021 -0.056 0.012 0.108 0.068 -0.012 0.027 -0.18 0.074 -0.272 0.046 -0.037 0.025 -0.025 0.067 -0.02 0.026 -0.072 0.038 -0.258 0.073 -0.183 0.036 -0.091 0.03 -0.112 0.049 -0.142 0.026 -0.171 0.003 -0.162 0.019 -0.266 0.053 -0.185 0.017 -0.585 0.091 -0.275 0.015 -0.238 0.032 -0.49 0.087 -0.233 0.028 -0.162 0.033 -0.177 0.009 -0.287 -0.022 -0.155 -0.001 -0.095 0.013 -0.087 0.027 -0.144 0.073 -0.123 0.006 -0.402 -0.058 0.008 0.026 0.106 0.063 -0.005 0.044 -0.239 0.045 -0.129 0.012 -0.19 -0.019 -0.251 -0.049 -0.323 -0.102 -0.395 -0.155 -0.19 -0.052 0.014 0.05 0.044 0.049 0.074 0.047 0.015 0.034 -0.044 0.021 -0.058 0.011 -0.072 0 -0.012 0.012 0.118 0.074 0.093 0.076 -0.009 0.072 -0.11 0.068 -0.095 0.04 -0.079 0.012 -0.469 0.17 -0.131 0.021 -0.059 0.021 -0.049 0.031 -0.137 0.141 -0.055 0.043 -0.11 0.056 -0.046 0.01 -0.013 0.023 0.02 0.036 -0.03 0.06 -0.08 0.084 -0.273 0.232 -0.22 0.216 -0.097 0.071 -0.071 0.03 -0.045 -0.011 -0.109 0.006 -0.053 0.038 -0.048 0.069 -0.052 0.052 -0.057 0.036 -0.442 0.156 -0.114 0.029 -0.102 -0.018 -0.121 0.007 -0.25 -0.082 -0.043 -0.03 -0.162 -0.067 0.005 0.035 0.027 0.019 0.023 0.028 0.057 0.035 0.125 0.184 -0.099 0.038 -0.089 0.043 -0.226 0.073 -0.245 0.122 -0.09 0.034 -0.02 -0.099 0.01 -0.03 -0.138 -0.048 0.004 0.035 -0.014 0.032 -0.1 0.129 -0.028 0.022 -0.049 -0.005 -0.108 0.024 -0.11 -0.011 -0.093 -0.059 -0.037 -0.03 -0.17 0.083 -0.083 -0.002 -0.014 0.07 -0.08 0.064 -0.106 0.028 -0.148 -0.002 -0.09 0.038 -0.201 -0.041 -0.046 -0.076 0.159 -0.104 0.045 -0.043 -0.029 -0.053 0.039 -0.068 0.303 -0.217 0.206 -0.11 -0.012 -0.02 -0.279 -0.024 -0.244 -0.038 -0.238 -0.013 -0.105 0.013 0.167 0.063 0.237 0.061 -0.117 0.058 -0.101 0.062 -0.104 0.169 -0.067 0.069 -0.258 -0.079 -0.122 -0.027 0.078 0.088 0.226 0.083 0.015 0.027 -0.002 0.099 -0.433 0.087 -0.452 0.013 -0.324 0.025 -0.548 0.03 -0.213 0 -0.018 0.034 0.536 0.154 0.078 0.028 -0.075 0.053 -0.111 0.033 -0.174 0.113 -0.091 0.039 -0.225 0.054 -0.414 -0.06 -0.213 0.027 -0.204 -0.019 -0.004 0.065 0.061 0.048 0.062 0.119 0.137 -0.009 0.174 -0.037 0.134 0.09 0.088 0.152 0.154 0.077 0.069 0.06 0.028 0.056 -0.096 0.056 -0.199 0.079 -0.221 0.015 0.012 0.063 -0.095 0.045 -0.203 -0.013 -0.095 -0.031 -0.098 -0.015 -0.403 -0.017 0.406 0.121 0.144 0.056 0.064 -0.033 0.141 -0.008 0.208 0.031 -0.035 0.204 0.091 0.165 0.011 0.037 -0.221 0.099 -0.004 0.093 -0.132 0.026 -0.142 -0.006 -0.007 0.102 -0.096 0.063 0.017 0.04 0.027 0.035 -0.088 0.065 -0.079 0.079 -0.113 0.069 -0.06 -0.007 -0.18 0.004 -0.217 -0.006 -0.175 -0.089 -0.073 -0.03 -0.082 -0.019 0.032 0.057 0.049 0.035 0.162 0.065 0.298 0.08 -0.009 0.057 -0.08 0.025 -0.186 0.154 -0.066 0.003 -0.083 0.04 -0.257 -0.013 -0.108 -0.016 -0.317 0.01 -0.108 -0.014 -0.093 0.006 0.086 0.044 0.182 0.039 0.207 0.039 0.314 0.03 -0.011 0.056 -0.079 0.046 0.045 0.069 -0.035 0.049 -0.015 0.059 -0.073 0.136 0.085 0.094 0.093 0.046 -0.011 0.06 0.044 0.096 -0.14 0.086 -0.116 -0.003 -0.165 0.019 -0.055 0.038 0.262 0.036 -0.024 0.064 -0.071 0.08 -0.075 0.174 -0.152 0.299 -0.071 0.297 -0.327 0.244 -0.116 0.007 -0.029 0.01 -0.159 -0.013 -0.25 -0.056 -0.194 -0.019 -0.131 -0.001 -0.017 0.028 0.108 0.045 0.166 0.019 0.132 0.03 0.237 0.028 0.083 0.054 0.056 0.058 -0.008 0.032 0 0.038 0.042 0.202 -0.112 0.07 -0.085 0.063 -0.297 -0.009 -0.052 -0.022 -0.287 -0.067 0.018 0.031 0.207 0.09 0.072 0.045 -0.048 0.009 -0.084 0.003 -0.117 0.03 -0.21 -0.016 0.012 -0.046 0.04 -0.047 -0.096 0.008 -0.107 0.024 -0.062 -0.009 -0.052 0.003 -0.029 -0.024 -0.041 -0.092 0.049 -0.046 0.174 -0.119 0.055 -0.064 -0.048 -0.029 -0.124 0.069 -0.128 0.109 -0.057 0.066 -0.08 0.013 -0.199 -0.033 -0.567 -0.153 0.017 -0.093 -0.005 -0.077 0.165 -0.01 0.12 -0.033 0.108 -0.041 0.121 -0.075 0.111 -0.123 -0.014 -0.009 -0.326 0.157 -0.201 0.053 -0.097 0.01 -0.048 -0.023 -0.161 -0.051 -0.105 -0.023 -0.239 -0.038 -0.042 -0.02 -0.07 -0.016 -0.095 -0.161 0.123 -0.195 0.085 -0.057 0.054 -0.066 0.03 -0.087 -0.021 -0.037 -0.072 0.013 -0.033 0.03 0.005 0.047 -0.041 0.032 -0.285 0.074 -0.286 0.06 -0.135 0.057 -0.088 0.045 -0.069 0.044 -0.105 -0.004 -0.145 0.009 -0.1 0.028 -0.145 -0.017 -0.095 -0.042 -0.114 -0.005 -0.128 0.02 -0.089 -0.002 0.007 0.029 0.059 0.071 -0.098 0.005 -0.186 0.003 -0.094 -0.02 -0.073 -0.027 -0.061 -0.038 0.037 -0.049 0.299 -0.09 0.136 -0.052 -0.088 -0.018 -0.287 0.016 -0.048 -0.013 -0.192 0.008 0.008 -0.134 -0.047 -0.033 -0.003 -0.016 -0.067 -0.037 -0.063 -0.009 -0.039 -0.013 -0.325 -0.03 -0.042 -0.075 -0.023 -0.077 -0.062 -0.095 -0.156 -0.025 -0.084 -0.041 0.067 -0.042 0.029 -0.054 -0.072 -0.024 -0.046 -0.038 0.007 -0.025 -0.058 -0.066 -0.017 -0.052 0.067 -0.048 0.184 -0.055 0.059 -0.022 0.031 -0.024 0.211 -0.04 -0.179 -0.029 -0.112 -0.004 -0.082 0.013 -0.076 0.054 -0.071 0.036 -0.275 0.012 -0.04 -0.018 -0.019 -0.076 0.016 -0.058 0.114 -0.082 -0.132 -0.041 -0.121 -0.013 -0.137 -0.038 -0.127 -0.04 -0.109 -0.047 -0.106 -0.055 -0.034 -0.007 0.038 -0.058 0.022 -0.047 0.003 -0.102 -0.043 -0.042 0.095 -0.087 0.128 -0.095 0.283 -0.141 -0.299 0.068 -0.246 0.148 -0.052 0.007 -0.018 -0.027 -0.093 -0.096 -0.07 -0.026 -0.031 -0.029 -0.14 -0.051 -0.061 -0.04 -0.086 -0.076 -0.123 -0.091 -0.175 -0.179 -0.281 -0.206 -0.069 -0.116 0.087 -0.147 -0.096 -0.101 0.267 -0.047 0.383 -0.053 0.198 -0.044 0.114 -0.013 0.243 -0.008 0.081 -0.044 -0.135 0.011 -0.091 -0.006 -0.006 -0.02 0.034 -0.036 0.022 -0.047 -0.046 0.008 -0.238 0.081 -0.351 0.064 -0.274 0.036 -0.044 -0.002 -0.096 0.022 -0.055 0.006 -0.043 -0.006 -0.097 -0.062 -0.026 -0.04 0.174 -0.109 0.13 -0.149 0.172 -0.097 0.122 -0.012 0.203 0.005 0.072 0.009 -0.023 -0.058 0.008 -0.028 0.165 -0.033 0.192 -0.015 0.137 0.011 0.086 0.068 0.111 0.125 0.149 0.042 -0.007 -0.06 -0.077 -0.077 -0.029 -0.119 -0.098 -0.05 -0.079 -0.025 -0.218 0.012 -0.131 -0.087 -0.03 -0.032 -0.003 -0.042 -0.131 -0.124 -0.042 -0.062 -0.069 -0.083 -0.037 -0.004 0.047 0.104 0.061 0.073 0.088 0.161 0.043 0.065 -0.059 0.051 -0.111 0.051 -0.098 0.03 -0.232 0.036 0.05 -0.079 0.032 -0.078 -0.116 0.028 -0.108 0.057 -0.037 0.078 -0.07 0.071 -0.206 0.175 -0.081 0.097 -0.077 0.048 -0.088 0.013 -0.076 -0.038 -0.065 -0.089 -0.03 -0.07 -0.004 -0.181 0.008 -0.084 -0.035 -0.114 -0.111 -0.265 -0.024 -0.094 -0.189 -0.05 -0.003 -0.016 -0.049 -0.054 -0.038 -0.054 0.031 -0.02 0.045 -0.014 0.282 -0.079 0.209 -0.089 0.25 -0.139 0.102 -0.043 0.366 -0.033 0.163 -0.005 -0.002 -0.025 -0.054 -0.01 -0.247 0.006 -0.33 0.056 -0.056 0.02 -0.144 0.087 -0.111 0.047 -0.313 0.108 -0.203 0 -0.21 -0.129 -0.234 0.025 -0.158 -0.009 -0.046 -0.019 -0.035 -0.177 0.127 -0.206 -0.137 -0.002 -0.028 -0.008 -0.073 -0.047 -0.047 -0.014 0.035 -0.025 0.339 -0.098 0.507 -0.192 0.218 -0.075 0.135 -0.032 0.102 -0.037 0.124 -0.081 0.041 -0.035 0.069 -0.028 0.146 -0.032 0.159 -0.048 0.258 -0.109 0.034 -0.04 -0.056 -0.009 -0.121 0.037 -0.246 0.1 -0.175 0.056 -0.598 0.251 -0.255 0.091 -0.139 0.058 -0.107 0.056 -0.114 0.04 -0.12 0.024 -0.257 0.018 -0.126 0.021 -0.076 -0.015 -0.033 -0.119 0.025 -0.071 -0.012 -0.07 0.064 -0.1 0.095 -0.071 0.04 -0.038 0.017 -0.026 0.196 -0.073 0.108 -0.032 0.076 -0.073 0.435 -0.026 0.112 0.003 0.06 -0.01 0.045 -0.021 -0.043 -0.016 -0.13 -0.012 -0.347 0.002 -0.32 -0.013 -0.146 -0.013 -0.071 0.007 -0.116 -0.021 -0.127 -0.041 -0.197 -0.149 0.079 -0.191 0.007 -0.091 0.251 -0.08 0.134 -0.027 0.19 -0.06 0.254 -0.102 0.303 -0.062 0.154 -0.012 0.128 0.009 0.475 0.089 0.244 0.017 0.214 -0.021 0.269 0.031 0.476 0.128 0.092 -0.019 -0.027 -0.031 -0.531 -0.135 0.003 -0.04 0.136 -0.011 0.145 -0.039 -0.082 -0.023 -0.353 0.02 -0.102 0.032 -0.342 0.017 -0.179 -0.027 -0.16 -0.014 -0.241 -0.058 -0.201 0.019 -0.127 0.023 -0.225 0.022 -0.081 0.015 -0.439 0.183 -0.185 0.038 -0.132 -0.013 0.092 -0.119 0.027 -0.047 0 -0.051 0.038 -0.07 0.225 -0.134 0.142 -0.146 0.06 -0.091 0.111 -0.01 0.151 0.013 0.454 0.059 0.378 0.07 0.279 0.019 0.183 0.002 0.079 -0.022 0.062 -0.039 0.024 -0.027 0.018 -0.055 0.021 -0.02 0.061 -0.024 0.125 -0.084 0.038 -0.06 -0.041 -0.035 -0.083 0.004 -0.163 0.023 -0.022 0.01 0.003 0.019 -0.157 0.092 -0.172 0.021 -0.395 0.031 -0.18 0.002 -0.32 -0.043 -0.048 -0.017 -0.033 -0.031 -0.392 0.007 -0.117 0.009 -0.093 -0.004 0.046 -0.055 0.124 -0.061 0.174 -0.198 0.146 -0.051 0.289 -0.047 0.302 0.008 0.522 0.153 0.158 0.013 0.144 -0.012 0.345 -0.051 0.063 -0.021 0.124 -0.063 0.145 -0.109 -0.007 -0.026 -0.223 0.061 -0.119 0.016 -0.101 0 0.093 -0.198 0.036 -0.152 0.035 -0.038 0.293 0.011 0.4 -0.021 0.095 -0.033 -0.002 -0.015 -0.16 -0.02 -0.077 -0.042 -0.134 0.013 -0.18 0.028 -0.226 -0.003 0.019 -0.065 0.166 -0.137 0.017 -0.062 0.065 -0.125 0.006 -0.064 0.084 -0.062 0.261 -0.044 0.11 -0.027 0.006 -0.029 -0.157 -0.111 0.04 -0.031 0.123 -0.028 0.046 -0.02 -0.031 -0.013 -0.113 -0.012 -0.174 0.024 -0.192 0.012 -0.17 -0.037 -0.133 -0.018 -0.084 0.006 -0.229 0.063 -0.08 0.002 -0.099 -0.017 -0.657 -0.054 -0.081 -0.019 -0.235 -0.094 -0.194 -0.062 -0.258 -0.068 -0.334 -0.051 -0.411 -0.035 -0.246 -0.033 -0.121 -0.047 -0.208 -0.103 -0.158 -0.086 -0.03 -0.042 0.093 -0.052 0.094 -0.038 0.178 -0.031 0.307 0.01 0.165 0.014 0.181 0.029 0.137 0.006 0.285 -0.008 0.289 0.019 0.172 0.021 0.225 0.043 0.621 0.184 0.259 0.064 0.113 0.008 0.465 0.068 0.075 -0.001 0.19 -0.032 0.019 -0.021 -0.064 -0.02 -0.205 -0.016 -0.241 -0.075 -0.15 -0.06 -0.017 -0.099 0.019 -0.055 0.038 -0.025 0.026 -0.085 -0.14 -0.05 -0.097 -0.016 -0.259 -0.073 -0.022 -0.018 0.124 -0.009 0.122 0.005 0.261 0.037 0.137 0.005 0.1 -0.015 0.011 -0.015 -0.159 -0.042 -0.199 -0.076 -0.415 -0.011 -0.269 0.008 -0.172 -0.026 -0.183 -0.042 -0.118 -0.011 -0.24 0.026 -0.122 0.003 -0.111 -0.009 -0.109 -0.133 0.029 -0.04 0.086 -0.017 0.065 -0.043 0.045 -0.045 0.142 -0.044 0.782 -0.098 0.197 -0.073 -0.009 -0.011 -0.133 0.013 -0.17 0.033 -0.114 0.007 -0.46 -0.042 -0.072 0.01 -0.186 0.061 -0.253 0.066 -0.117 -0.004 -0.156 -0.039 -0.025 -0.028 -0.011 -0.033 0.171 -0.046 0.055 -0.024 0.111 -0.065 -0.006 -0.032 -0.189 0.018 -0.025 -0.03 0.003 -0.051 -0.018 -0.065 -0.046 -0.064 -0.155 -0.098 -0.064 -0.025 -0.053 -0.036 -0.117 -0.133 0.034 -0.033 0.104 -0.025 0.02 -0.012 -0.248 0.021 -0.027 0.023 0.047 0.034 0.033 0.045 0.02 0.056 0.035 0.049 0.09 0.054 0.072 0.029 0.117 0.075 0.051 0.083 -0.015 0.044 -0.091 0.044 -0.147 0.048 -0.044 0.04 -0.02 0.04 -0.114 0.037 -0.07 -0.014 -0.056 -0.002 0.066 0.065 0.042 0.067 -0.051 0.067 -0.136 0.04 -0.074 0.001 -0.145 0.033 -0.371 0.017 -0.129 -0.008 -0.237 -0.033 -0.281 -0.018 -0.111 -0.045 -0.146 -0.082 -0.074 -0.073 -0.002 -0.065 0.04 -0.047 0.081 -0.03 0.097 -0.189 0.137 -0.153 0.345 -0.158 0.098 -0.057 0.032 -0.031 0 -0.023 -0.056 -0.015 -0.424 0.195 -0.261 0.021 -0.078 -0.044 0.024 -0.078 0.047 -0.018 0.211 0.007 0.082 -0.043 -0.132 -0.065 -0.141 -0.017 -0.033 -0.016 0.145 -0.05 0.335 0.004 0.076 -0.035 0.121 -0.038 0.135 -0.07 0.05 -0.059 0.011 -0.05 -0.029 -0.041 -0.003 -0.041 0.023 -0.041 -0.035 -0.045 -0.093 -0.049 -0.207 -0.048 -0.061 0.054 -0.064 0.022 -0.09 0.005 -0.083 -0.023 -0.087 -0.008 -0.086 -0.021 -0.089 -0.006 -0.035 -0.017 -0.022 -0.046 -0.002 -0.059 0.1 -0.027 0.14 -0.022 0.094 -0.041 0.062 -0.059 0.009 -0.065 -0.044 -0.07 -0.114 -0.063 -0.21 0.061 -0.083 0.015 -0.019 -0.044 -0.029 -0.033 -0.088 -0.044 -0.116 -0.032 -0.112 -0.021 -0.005 -0.033 0.027 -0.037 0.05 -0.043 0.065 -0.089 0.071 0.008 0.059 -0.008 -0.034 -0.074 -0.057 -0.062 -0.067 -0.035 -0.002 -0.015 -0.016 -0.018 -0.052 -0.043 -0.058 -0.032 -0.101 -0.09 -0.073 -0.034 -0.094 -0.018 -0.101 -0.001 -0.162 0.024 -0.299 0.027 -0.237 0.013 -0.039 -0.007 0.118 -0.034 0.175 -0.036 0.231 -0.024 0.067 -0.059 -0.025 -0.051 0.01 -0.049 -0.063 -0.051 0.062 -0.028 0.21 -0.029 0.095 -0.004 0.095 -0.036 -0.267 -0.088 -0.279 -0.057 -0.07 -0.023 -0.061 -0.038 -0.053 -0.053 -0.086 -0.053 -0.119 -0.054 -0.174 -0.052 -0.448 -0.095 -0.154 -0.065 -0.142 -0.1 -0.071 -0.043 -0.074 -0.031 -0.312 -0.074 -0.038 -0.033 0.322 -0.087 0.032 -0.035 -0.132 -0.105 -0.135 -0.077 -0.147 -0.027 -0.218 -0.014 -0.2 -0.034 -0.182 -0.054 -0.182 -0.04 -0.272 -0.038 -0.455 -0.097 -0.702 -0.104 -0.314 -0.061 -0.187 -0.022 -0.246 -0.006 -0.476 -0.057 -0.4 -0.018 -0.247 0.008 -0.081 -0.009 -0.182 -0.058 -0.285 -0.033 -0.148 0.013 -0.183 0.062 -0.221 0.061 -0.117 0.008 -0.175 -0.056 -0.088 -0.039 -0.084 -0.013 -0.08 0.013 -0.156 0.051 -0.149 0.037 -0.22 0.044 -0.176 0.021 -0.226 0.005 -0.057 0.016 -0.087 0.001 -0.117 -0.014 -0.11 -0.028 -0.102 -0.043 -0.09 -0.023 -0.078 -0.003 -0.18 0.022 -0.228 0.065 -0.104 0.016 -0.087 -0.007 -0.107 -0.02 -0.214 -0.052 -0.119 0.005 -0.086 0.018 0.024 0.043 0.201 0.102 0.179 0.073 -0.151 0.009 -1.323 -0.098 -0.169 -0.024 -0.243 -0.059 -0.202 -0.036 -0.344 -0.094 -0.265 -0.051 -0.088 -0.04 -0.023 -0.027 0.084 -0.037 0.535 -0.125 0.204 -0.025 0.415 -0.03 0.098 -0.019 0.033 -0.015 -0.109 -0.027 -0.544 0.01 -0.485 -0.018 -0.422 -0.05 -0.073 -0.017 -0.071 -0.03 -0.069 -0.044 0.016 -0.05 0.101 -0.055 0.059 -0.038 0.017 -0.02 -0.53 0.135 -0.217 0.047 -0.172 -0.014 -0.121 -0.022 -0.059 -0.025 0.002 -0.027 0.019 -0.02 0.037 -0.013 -0.28 -0.056 -0.126 -0.044 -0.013 -0.045 0.099 -0.047 0.097 -0.034 0.095 -0.021 0.259 -0.018 0.947 -0.035 0.678 0.034 0.231 -0.112 0.156 -0.036 0.456 -0.037 0.702 -0.005 0.496 0.02 0.232 0.026 0.316 0.058 0.018 -0.017 -0.076 -0.052 -0.005 -0.043 0.128 -0.075 0.059 -0.047 -0.04 -0.049 -0.139 -0.051 -0.246 -0.066 -0.132 -0.005 -0.147 0.016 -0.177 0.036 -0.367 0.092 -0.173 0.019 -0.289 0.005 -0.16 -0.012 -0.155 -0.014 -0.242 -0.049 -0.088 -0.009 -0.107 0.021 -0.125 0.052 -0.121 0.036 -0.116 0.021 -0.109 0.009 -0.152 -0.004 -0.625 -0.081 -0.141 -0.036 -0.008 -0.054 -0.192 -0.053 -0.217 -0.009 -0.027 -0.018 0.275 -0.081 0.205 -0.033 -0.033 -0.01 -0.298 -0.002 -0.201 0.043 -0.115 0.007 -0.265 0.001 -0.278 -0.022 -0.118 -0.019 -0.123 -0.043 -0.138 -0.024 -0.415 -0.037 -0.094 -0.02 -0.089 -0.033 -0.339 -0.095 -0.205 -0.07 -0.027 -0.039 0.237 -0.085 0.01 -0.02 -0.102 -0.037 -0.042 -0.027 0.035 -0.037 0.207 -0.082 0.077 -0.022 0.372 -0.048 0.372 -0.07 0.136 -0.016 0.121 -0.004 0.489 0.004 0.152 -0.017 0.129 -0.034 0.211 -0.035 0.441 -0.053 0.98 -0.08 0.064 -0.009 0.006 -0.015 -0.088 -0.041 -0.019 -0.02 0.201 -0.037 0.453 -0.058 0.31 -0.028 0.199 -0.002 0.161 -0.013 0.226 -0.037 0.128 -0.006 0.771 -0.014 0.341 0.02 0.167 0 0.107 -0.014 0.142 -0.041 0.266 -0.103 0.14 -0.064 0.132 -0.097 0.171 -0.152 0.128 -0.148 0.085 -0.144 0.066 -0.088 0.047 -0.031 0.16 -0.04 0.167 -0.031 0.287 -0.028 -0.026 -0.013 -0.122 -0.021 -0.113 -0.008 -0.105 0.005 -0.191 0.032 -0.247 0.022 -0.24 -0.003 -0.173 0.008 -0.158 0.03 -0.257 0.024 -0.171 -0.005 -0.31 -0.043 -0.156 -0.008 -0.396 0.004 -0.116 -0.016 -0.101 -0.031 -0.081 -0.043 -0.06 -0.056 0.008 -0.058 0.143 -0.104 0.055 -0.028 0.386 -0.117 0.238 -0.055 0.237 -0.041 0.172 -0.024 0.162 -0.011 0.156 -0.025 0.287 -0.081 0.296 -0.07 0.368 -0.13 0.178 -0.034 0.624 -0.056 0.17 -0.001 0.144 0.014 0.136 0.029 0.383 0.128 0.03 -0.004 -0.067 -0.049 -0.14 -0.145 0.023 -0.06 0.219 -0.064 0.09 -0.011 0.231 0.004 0.373 0.02 0.249 0.022 0.189 0.035 0.225 0.022 0.117 -0.001 0.083 -0.017 0.119 -0.055 0.155 -0.093 0.062 -0.115 -0.031 -0.136 -0.045 -0.1 -0.06 -0.063 0.033 -0.052 0.188 -0.063 0.172 -0.046 0.41 -0.065 0.333 -0.017 0.198 0.004 0.26 0.03 0.36 0.019 0.325 0.059 0.527 0.135 0.35 0.068 0.29 0.03 0.285 0.052 0.422 0.11 0.221 0.047 0.131 0.017 0.116 0.003 -0.043 -0.031 -0.202 -0.066 -0.309 -0.072 -0.685 -0.13 -0.377 -0.092 -0.338 -0.105 -0.249 -0.062 -0.451 -0.062 0.006 -0.025 0.544 -0.086 1 -0.075 1.128 -0.059 0.377 0.006 0.663 -0.025 0.062 -0.037 0.143 -0.017 0.618 -0.052 0.177 0.001 0.272 0.025 0.29 0.047 0.134 0.042 0.182 0.073 0.089 0.102 -0.013 0.324 0.005 0.061 0.035 0.024 0.126 -0.035 0.15 -0.065 0.135 -0.046 0.104 -0.071 0.073 -0.096 0.043 -0.071 -0.176 -0.081 -0.009 -0.132 0.088 -0.071 0.247 0 1.022 0.244 0.402 0.053 0.457 0.13 0.534 -0.014 0.493 0.016 0.218 -0.005 0.108 -0.02 -0.153 -0.054 -0.701 -0.149 -0.318 -0.117 -0.222 -0.145 -0.054 -0.077 0.17 -0.014 0.782 0.002 1.176 0.067 1.504 0.232 0.74 0.077 1.326 0.268 0.4 0.041 0.161 0.008 0.122 -0.033 0.075 -0.036 0.006 -0.048 -0.064 -0.06 -0.037 -0.069 -0.009 -0.079 0.09 -0.156 0.214 -0.051 0.094 -0.057 -0.088 -0.104 -0.251 -0.071 -0.975 -0.183 -0.004 -0.022 0.197 -0.024 0.292 -0.014 2.417 0.044 0.418 0.016 0.178 0.016 0.078 0.021 0.1 0.009 0.519 -0.025 -0.012 -0.045 -0.065 -0.029 -2.805 -0.078 -0.523 -0.027 -0.266 -0.002 -0.275 0.021 -0.57 0.01 -0.263 -0.004 -0.341 -0.093 0.309 -0.112 0.26 0.003 0.494 0.044 0.293 -0.061 0.465 -0.05 0.46 -0.018 1.003 -0.108 0.185 -0.009 0.234 0.006 0.516 0.027 0.205 0.027 0.235 0.057 0.136 0.018 0.162 0.003 0.222 0.026 0.321 -0.084 0.29 -0.09 0.333 -0.057 0.471 0.033 0.298 0.043 0.272 0.052 0.385 0.029 0.653 0.176 0.122 0 0.058 -0.015 0.062 -0.033 0.022 -0.049 0.08 -0.066 -0.058 -0.024 -0.547 -0.073 -0.103 -0.028 -0.105 -0.046 -0.002 -0.038 0.101 -0.03 0.107 -0.014 0.354 0.013 0.117 -0.01 0.11 -0.026 0.133 -0.048 0.105 -0.012 0.236 -0.001 0.364 0.031 0.319 0.003 0.115 -0.014 0.017 -0.03 0.028 -0.019 0.038 -0.008 1.155 -0.002 0.286 -0.007 0.224 -0.023 0.274 -0.003 0.239 0.014 0.296 0.029 0.295 -0.001 0.439 -0.047 0.414 -0.022 2.281 0.006 z M -52.731 -69.945 l 0.333 0.081 0.353 0.056 0.035 0.026 0.027 0.039 0.006 0.02 -0.008 0.019 -0.022 0.017 0.026 0.022 0.074 0.027 0.008 0.032 -0.088 0.055 -0.124 0.061 -0.658 0.125 -0.233 0.021 -0.575 0.086 -0.176 -0.004 -0.039 -0.004 -0.109 -0.038 -0.149 -0.035 -0.07 -0.027 -0.062 -0.039 0.025 -0.024 0.111 -0.01 0.158 0.001 0.231 -0.028 -0.064 -0.026 -0.061 -0.016 -0.042 -0.034 -0.096 0.007 -0.072 -0.019 -0.139 -0.012 -0.364 -0.012 -0.237 -0.033 -0.07 -0.02 -0.062 -0.035 -0.053 -0.049 0.078 -0.188 0.053 -0.048 0.123 -0.016 0.302 0.042 0.04 -0.018 -0.33 -0.069 -0.121 -0.041 -0.036 -0.033 -0.021 -0.048 0 -0.028 0.015 -0.028 0.029 -0.028 0.08 -0.038 0.334 -0.061 0.364 0.021 0.632 0.075 0.078 0.016 0.194 0.065 z M -51.014 -69.552 l -0.157 0.035 -0.032 -0.008 -0.032 -0.027 -0.081 -0.122 -0.024 -0.058 0.02 -0.072 -0.031 -0.051 0.141 -0.059 0.114 -0.01 0.154 0.015 0.261 0.06 -0.019 0.019 -0.056 0.031 -0.157 0.041 -0.056 0.092 -0.011 0.046 0.007 0.035 z M -53.535 -71.041 l -0.094 0.007 -0.269 -0.051 -0.044 -0.019 -0.017 -0.023 0.01 -0.028 0.086 -0.052 0.161 -0.076 0.117 -0.014 0.072 0.047 0.071 0.064 0.009 0.032 -0.005 0.038 -0.019 0.032 -0.032 0.027 z M -55.017 -72.791 l -0.141 0.068 -0.115 0.039 -0.25 0.116 -0.043 0.004 -0.068 -0.015 -0.052 -0.03 -0.094 -0.007 -0.033 -0.019 -0.013 -0.016 -0.042 -0.01 -0.067 -0.006 -0.107 0.012 -0.098 -0.012 -0.074 -0.051 0.137 -0.034 0.085 -0.029 0.327 -0.011 0.092 0.013 0.058 0 0.088 -0.008 0.193 -0.036 0.029 -0.017 0.173 0.021 z M -71.667 -77.325 l -0.356 0.009 -0.351 -0.039 -0.121 -0.03 0.005 -0.046 0.053 -0.016 0.19 -0.016 0.158 -0.004 0.106 0.007 0.25 0.028 0.181 0.028 0.119 0.009 -0.034 0.041 z M -44.865 -82.084 l -0.203 0.018 -0.423 -0.106 -0.67 -0.106 -0.591 -0.071 -0.556 -0.185 -0.044 -0.066 0.079 -0.058 0.485 -0.009 0.388 -0.026 0.988 0.115 0.494 0.097 0.168 0.079 -0.026 0.159 z M -25.432 -70.921 l 0.035 0.059 0.004 0.028 -0.008 0.023 -0.019 0.017 -0.047 0.015 0.088 0.039 0.028 0.026 0.005 0.021 -0.056 0.041 -0.398 0.054 -0.111 0.026 -0.138 0.064 -0.168 0.055 -0.056 0 -0.065 -0.057 -0.266 -0.042 -0.5 0.022 -0.585 0.053 -0.208 0.025 -0.105 -0.013 -0.032 -0.02 -0.002 -0.028 0.069 -0.08 0.028 -0.02 0.134 -0.027 0.091 -0.071 -0.03 -0.077 0.035 -0.107 0.092 -0.017 0.23 0.038 0.149 0.008 0.263 0.005 0.354 -0.013 0.284 -0.044 0.519 -0.124 0.092 0.002 0.066 0.044 0.049 0.022 0.154 0.034 z M -18.665 -81.846 l -0.103 0.032 -0.264 -0.013 -0.338 -0.09 -0.225 -0.074 -0.016 -0.087 0.116 -0.039 0.18 -0.006 0.248 0.074 0.254 0.1 z M -17.612 -79.826 l -0.423 0.115 -0.626 -0.009 -0.37 -0.053 -0.106 -0.079 0.141 -0.088 0.45 -0.071 0.564 -0.044 0.512 0.026 0.071 0.088 z M -18.997 -77.974 l -0.132 0.035 -0.088 -0.106 -0.079 -0.141 -0.018 -0.159 0.203 -0.079 0.106 -0.018 0.071 0.018 -0.018 0.071 0 0.141 0.071 0.097 z M -18.583 -76.042 l -0.115 0.026 -0.388 -0.415 0 -0.15 0.026 -0.115 0.176 -0.009 0.15 0.062 0.071 0.238 z M -18.001 -75.407 l 0.079 0.106 0.035 0.097 0.123 0.062 0.265 -0.009 0.106 0.115 -0.194 0.044 -0.767 -0.018 -0.317 0.009 -0.221 -0.071 0.009 -0.123 0.026 -0.123 0.221 -0.071 0.185 0.062 0.22 -0.044 z M -17.954 -77.642 l -0.194 0 -0.072 -0.026 0.046 -0.046 0.27 -0.148 0.09 -0.012 0.132 0.016 0.04 0.076 -0.088 0.076 z M -37.031 -65.532 l -0.156 0.001 -0.052 -0.079 0.016 -0.086 0.175 -0.027 0.094 0.059 -0.034 0.088 z M -46.267 -60.781 l -0.115 0.121 -0.115 -0.026 -0.057 -0.054 -0.113 -0.025 -0.122 0.008 -0.002 -0.021 0.396 -0.129 0.189 -0.035 -0.013 0.054 -0.036 0.048 z M -51.675 -70.855 l -0.134 0.003 -0.311 -0.018 -0.025 -0.012 -0.004 -0.022 0.041 -0.064 0.137 -0.008 0.163 0.035 0.176 0.05 0.024 0.023 z" vector-effect="non-scaling-stroke" fill="#000" fill-opacity="1" stroke="#FFF" stroke-width="0px" stroke-linejoin="round" stroke-linecap="round"/></svg>
