<svg xmlns="http://www.w3.org/2000/svg" xmlns:xlink="http://www.w3.org/1999/xlink" height="400" width="400" viewBox="-92.23515625 -17.81640625 4.0068359375 4.0798828125"><path d="M -92.235 -14.545 l 0.026 -0.026 0.022 -0.059 0.027 -0.061 -0.017 -0.07 -0.01 -0.057 0.031 -0.083 -0.003 -0.062 0.014 -0.038 0.046 -0.025 0.024 -0.047 -0.13 -0.163 0 -0.037 0.017 -0.046 0.105 -0.175 0.125 -0.208 0.138 -0.229 0.083 -0.138 0.303 0 0.2 0 0.254 0 0.276 0 0.181 0 0.075 -0.002 -0.013 -0.09 0.01 -0.099 0.033 -0.09 0 -0.04 -0.054 -0.049 -0.105 -0.028 -0.058 -0.043 0 -0.054 -0.026 -0.066 -0.051 -0.077 -0.105 -0.079 -0.16 -0.081 -0.136 -0.108 -0.112 -0.136 -0.095 -0.088 -0.073 -0.037 -0.017 -0.019 0.214 0.002 0.203 0.002 0.001 -0.195 0.001 -0.173 0.001 -0.196 0.367 0 0.438 0 0.455 0 0.357 0 0.21 0 -0.01 0.243 -0.011 0.281 -0.008 0.207 -0.011 0.276 -0.011 0.282 -0.015 0.384 -0.01 0.248 0.005 0.006 0.119 -0.012 0.176 0.011 0.043 -0.001 0.054 0.022 0.042 0.006 0.09 0.056 0.105 0.042 0.067 -0.085 -0.035 -0.051 -0.026 -0.026 0.004 -0.023 0.366 0.221 -0.043 0.034 -0.093 0.079 -0.169 0.135 -0.151 0.121 -0.145 0.109 -0.131 0.099 -0.015 0.01 -0.166 0.07 -0.028 0.032 -0.036 0.139 -0.016 0.035 0.03 0.077 0.03 0.119 -0.01 0.062 -0.115 0.077 -0.053 0.069 -0.023 0.045 -0.021 -0.012 -0.036 -0.003 -0.082 0.017 -0.04 0.004 -0.033 0.02 -0.003 0.043 0.022 0.07 0.008 0.036 -0.023 0.017 -0.101 0.042 -0.04 0.041 -0.038 0.064 -0.044 0.027 -0.046 -0.005 -0.033 0.009 -0.07 0.048 -0.105 0.093 -0.057 0.069 -0.001 0.052 0.011 0.046 -0.384 -0.164 -0.128 -0.028 -0.539 0.003 -0.231 -0.065 -0.264 -0.125 -0.178 -0.113 z" vector-effect="non-scaling-stroke" fill="#000" fill-opacity="1" stroke="#FFF" stroke-width="0px" stroke-linejoin="round" stroke-linecap="round"/></svg>
