<svg xmlns="http://www.w3.org/2000/svg" xmlns:xlink="http://www.w3.org/1999/xlink" height="400" width="400" viewBox="-16.71181640625 -12.679931640625 3.03828125000001 1.739794921875"><path d="M -16.712 -12.355 l 0.055 -0.01 0.136 0.016 0.105 -0.019 0.074 -0.032 0.101 -0.044 0.097 -0.014 0.305 0.02 0.265 -0.052 0.197 -0.099 0.182 -0.091 0.235 0.001 0.252 0.001 0.359 0.002 0.284 0.001 0.336 0.001 -0.003 0.081 0.059 0.114 -0.009 0.085 -0.026 0.081 -0.022 0.032 -0.03 0.018 -0.09 -0.001 -0.038 0.016 -0.06 0.032 -0.002 0.037 0.048 0.035 0.039 0.05 0.046 0.039 0.078 0.045 0.007 0.05 0.002 0.126 -0.004 0.098 -0.22 0.071 -0.169 0.013 -0.143 -0.008 -0.062 0.03 -0.125 0.074 -0.152 0.045 -0.078 0.003 -0.037 0.027 -0.059 0.076 -0.165 0.333 -0.055 0.08 -0.044 0.052 -0.051 -0.071 0.039 -0.131 -0.042 0.002 -0.084 0.106 -0.041 0.003 0.005 -0.125 -0.047 -0.005 -0.054 0.009 -0.076 -0.065 -0.007 -0.049 0.006 -0.068 0.046 -0.044 -0.006 -0.018 -0.044 -0.005 -0.05 0.012 -0.031 -0.021 0.05 -0.089 0.177 -0.074 0.089 -0.008 0.091 -0.017 -0.05 -0.064 -0.108 -0.025 -0.086 0.018 -0.043 0.046 -0.053 0.008 -0.089 -0.109 0.002 -0.055 0.033 -0.064 0.051 -0.029 0.205 0.001 0.078 -0.036 0.031 -0.007 0.03 -0.033 -0.006 -0.022 -0.033 -0.001 -0.077 0.043 -0.247 -0.016 -0.079 0.026 -0.137 0.099 -0.169 0.055 -0.122 -0.023 0.039 -0.133 -0.017 -0.018 -0.039 -0.022 -0.18 0.042 -0.136 -0.061 -0.054 -0.073 0.009 -0.092 0.064 -0.062 0.01 -0.031 -0.068 -0.006 -0.125 0.039 z M -16.115 -11.059 l -0.08 0.015 -0.036 -0.05 -0.005 -0.019 0.042 -0.017 0.019 -0.001 0.032 -0.036 0.039 -0.024 0.017 -0.008 0.02 0.002 0.015 0.08 -0.019 0.033 z M -15.896 -11.082 l -0.009 0.028 -0.059 -0.004 0.013 -0.028 -0.013 -0.008 0.017 -0.084 0.009 -0.013 0.029 0.031 0.004 0.013 z M -15.725 -11.215 l 0 0.041 -0.042 -0.008 -0.012 -0.012 0.025 -0.074 0.037 -0.033 0.046 0.005 0.014 0.01 -0.009 0.029 -0.02 0.024 z M -15.553 -11.537 l -0.009 0.023 -0.057 -0.02 0.083 -0.084 0.054 -0.015 -0.002 0.065 -0.042 0.014 z M -15.902 -11.466 l -0.047 0.031 -0.048 -0.015 -0.026 -0.028 0.004 -0.05 0.055 -0.071 0.049 0.009 z M -15.986 -11.882 l -0.052 0.122 -0.064 -0.013 -0.045 -0.073 -0.005 -0.031 0.131 -0.01 z" vector-effect="non-scaling-stroke" fill="#000" fill-opacity="1" stroke="#FFF" stroke-width="0px" stroke-linejoin="round" stroke-linecap="round"/></svg>
