<svg xmlns="http://www.w3.org/2000/svg" xmlns:xlink="http://www.w3.org/1999/xlink" height="400" width="400" viewBox="-15.051220703125 -12.67392578125 7.37001953124999 5.4580078125"><path d="M -10.283 -8.485 l -0.077 -0.01 -0.034 0.015 -0.102 0.119 -0.061 0.046 -0.046 -0.004 -0.049 -0.011 -0.034 0.009 -0.025 -0.014 0.01 -0.029 0.025 -0.036 0.049 -0.129 0.125 -0.13 0.003 -0.027 -0.051 -0.076 -0.054 -0.104 0 -0.111 -0.01 -0.08 -0.111 -0.023 -0.02 -0.014 -0.003 -0.027 0.029 -0.072 0.034 -0.067 0.005 -0.028 -0.008 -0.025 -0.068 -0.071 -0.106 -0.131 -0.098 -0.145 -0.084 -0.125 -0.068 -0.057 -0.065 -0.082 -0.025 -0.052 -0.068 -0.019 -0.198 0.001 -0.238 0.001 -0.201 0.001 -0.012 0.07 -0.22 0.047 -0.135 -0.054 -0.15 0.032 -0.073 0.036 -0.023 0.075 -0.033 0.082 -0.032 0.034 -0.014 0.037 -0.019 0.034 -0.029 0.039 -0.033 0.078 -0.071 0.111 -0.075 0.071 -0.128 0.039 -0.04 0.116 -0.029 0.043 -0.049 0.034 -0.053 0.022 -0.048 -0.013 -0.056 -0.009 -0.058 0.021 -0.01 -0.029 0.033 -0.092 -0.026 -0.048 -0.1 -0.096 -0.009 -0.046 -0.031 -0.06 -0.132 -0.123 -0.123 0.008 0.034 -0.103 -0.002 -0.137 -0.042 -0.075 0.011 -0.077 -0.023 0.005 -0.041 0.053 -0.066 -0.017 -0.135 -0.081 -0.067 -0.079 -0.008 -0.067 -0.015 -0.026 -0.041 0.014 -0.084 -0.001 -0.256 -0.12 -0.183 -0.302 -0.004 -0.068 0.026 -0.117 -0.006 -0.032 -0.084 0.078 -0.016 -0.052 -0.064 -0.121 -0.019 -0.07 -0.062 -0.031 -0.049 -0.006 -0.038 0.023 -0.05 0.142 -0.037 -0.001 -0.039 -0.03 0.008 -0.106 0.044 -0.052 0.055 -0.08 0.165 -0.333 0.059 -0.076 0.037 -0.027 0.078 -0.003 0.152 -0.045 0.125 -0.074 0.062 -0.03 0.143 0.008 0.169 -0.013 0.22 -0.071 0.004 -0.098 -0.002 -0.126 -0.007 -0.05 -0.078 -0.045 -0.046 -0.039 -0.039 -0.05 -0.048 -0.035 0.002 -0.037 0.06 -0.032 0.038 -0.016 0.09 0.001 0.03 -0.018 0.022 -0.032 0.026 -0.081 0.009 -0.085 -0.059 -0.114 0.003 -0.081 0.323 0.012 0.033 0.009 0.144 0.014 0.09 0 0.056 0.006 0.023 0.019 -0.005 0.034 -0.015 0.045 0.019 0.046 0.049 0.012 0.026 -0.014 0.025 -0.023 0.03 -0.018 0.043 0.012 0.091 0.068 0.084 0.019 0.092 0.037 0.087 0.02 0.077 -0.003 0.058 0.038 0.108 0.012 0.139 -0.049 0.11 -0.021 0.154 -0.005 0.08 0.016 0.234 -0.039 0.117 0.009 0.067 0.013 -0.029 0.027 -0.029 0.058 -0.027 0.072 -0.028 0.049 0.01 0.032 0.078 0.063 0.109 0.089 0.044 0.011 0.051 -0.021 0.08 -0.07 0.063 -0.076 0.061 -0.037 0.071 0.002 0.057 0.053 0.07 0.118 0.063 0.107 0.008 0.011 0.026 0.018 0.032 -0.001 0.034 -0.026 0.025 -0.016 0.029 -0.049 0.124 -0.148 0.093 -0.041 0.033 -0.011 0.065 -0.022 0.108 0.035 0.156 0.061 0.19 0.074 0.067 0.013 0.039 -0.013 0.056 -0.101 0.071 -0.039 0.101 -0.046 0.082 -0.024 0.047 -0.003 0.018 -0.027 0.009 -0.041 -0.009 -0.042 -0.053 -0.076 -0.002 -0.022 0.03 -0.015 0.065 -0.011 0.084 0.007 0.095 0.033 0.077 0.048 0.044 0.056 0.048 0.12 0.037 0.117 0.096 0.186 -0.002 0.115 -0.002 0.134 0.042 0.025 0.047 0.011 0.022 0.02 0.046 0.103 0.044 0.03 0.052 0.007 0.098 0.066 0.063 0.026 0.009 0.02 -0.002 0.027 -0.025 0.035 -0.038 0.024 -0.057 0.045 -0.047 0.059 -0.097 0.141 -0.003 0.026 0.021 0.019 0.04 0.004 0.043 -0.01 0.089 -0.052 0.07 0.018 0.067 0.039 0.025 0.041 0.006 0.054 -0.015 0.069 -0.002 0.077 0.023 0.132 0.035 0.132 0.035 0.048 0.224 0.116 0.022 0.043 0.011 0.049 -0.016 0.067 -0.023 0.037 -0.064 0.058 -0.059 0.045 -0.019 0.049 0.009 0.091 0 0.207 0.009 0.179 0.048 0.065 0.058 0.033 0.068 -0.006 0.067 -0.012 -0.004 0.107 -0.018 0.12 0.079 0.037 0.04 0.037 0.022 0.034 -0.124 0.064 -0.036 0.037 -0.017 0.1 0.004 0.093 0.167 0.066 0.064 0.078 0.029 0.081 0.01 0.152 -0.015 0.035 -0.043 0 -0.048 -0.047 -0.036 -0.046 -0.045 0 -0.084 -0.01 -0.096 -0.018 -0.119 0.005 -0.042 0.007 -0.027 0.028 -0.007 0.048 -0.012 0.154 0.039 0.034 0.077 0.038 0.05 0.016 0.042 -0.005 0.032 0.025 0.007 0.066 -0.022 0.049 -0.042 0.045 -0.053 0.117 0.009 0.044 0.002 0.063 -0.091 0.171 -0.026 0.033 -0.12 -0.034 -0.078 -0.011 -0.056 0.043 -0.036 -0.027 -0.042 -0.04 -0.014 -0.052 -0.028 -0.011 -0.052 0 -0.049 0.029 -0.021 0.054 -0.003 0.062 -0.008 0.048 -0.029 0.029 -0.059 0.075 -0.028 0.069 -0.034 0.06 -0.049 -0.003 -0.023 -0.008 -0.016 0.016 -0.076 0.033 -0.065 0.01 -0.017 -0.035 -0.038 -0.028 -0.042 -0.055 -0.048 -0.044 -0.092 -0.031 -0.036 0.014 -0.043 -0.004 -0.029 -0.017 0.004 -0.027 0.048 -0.067 0.027 -0.062 0.015 -0.068 0 -0.064 -0.026 -0.091 -0.041 -0.072 -0.01 -0.042 0.005 -0.059 -0.01 -0.055 -0.013 -0.029 -0.007 -0.055 -0.013 -0.05 -0.024 -0.019 -0.014 -0.084 0.004 -0.086 -0.036 -0.033 -0.056 -0.024 -0.033 -0.034 -0.02 -0.037 -0.02 -0.011 -0.017 0.002 -0.016 0.023 -0.019 0.005 -0.033 -0.081 -0.014 -0.003 -0.023 0.019 -0.26 0.089 -0.011 -0.035 -0.022 -0.041 -0.05 -0.014 -0.086 0.031 z" vector-effect="non-scaling-stroke" fill="#000" fill-opacity="1" stroke="#FFF" stroke-width="0px" stroke-linejoin="round" stroke-linecap="round"/></svg>
