<svg xmlns="http://www.w3.org/2000/svg" xmlns:xlink="http://www.w3.org/1999/xlink" height="400" width="400" viewBox="-61.3908203125 -8.54931640625 4.9080078125 7.34809570312501"><path d="M -60.742 -5.202 l -0.212 -0.235 -0.213 -0.237 -0.21 -0.233 -0.014 -0.032 0.088 -0.111 0.078 -0.08 0.065 -0.045 0.031 -0.04 -0.024 -0.171 0.001 -0.061 -0.031 -0.067 -0.022 -0.075 0.026 -0.063 0.032 -0.044 0.041 -0.017 0.098 -0.015 0.069 -0.006 0.024 -0.025 0.04 -0.029 0.052 -0.002 0.103 0.02 0.047 -0.038 0.085 -0.051 0.191 -0.088 0.043 -0.058 0.03 -0.089 -0.003 -0.042 -0.02 -0.016 -0.047 -0.015 -0.073 -0.002 -0.058 0.023 -0.06 -0.013 -0.05 -0.055 -0.003 -0.046 0.03 -0.064 -0.017 -0.042 -0.096 -0.135 0.001 -0.037 0.069 -0.061 0.039 -0.052 0.054 -0.124 0.043 -0.041 0.133 -0.014 0.034 -0.026 0.068 -0.065 0.101 -0.075 0.146 -0.06 0.042 -0.108 0.026 -0.03 0.116 -0.057 0.02 -0.03 -0.003 -0.027 -0.186 -0.243 0.037 0.017 0.144 0.159 0.08 0.034 0.017 0.001 0.001 -0.041 0.073 0.017 0.189 0.109 0.277 0.179 0.389 0.339 0.11 0.129 0.074 0.061 0.116 0.148 0.034 0.072 -0.003 0.288 -0.102 0.194 -0.025 0.146 -0.006 0.195 -0.059 0.112 0.079 -0.061 0.025 -0.176 0.067 -0.107 0.087 -0.117 0.117 -0.028 0.126 0.05 0.101 0.009 0.089 0.035 0.19 0.187 0.185 0.148 0.067 0.119 0.196 0.059 0.116 0.094 0.037 0.081 0.023 0.212 -0.038 0.32 0.01 0.016 -0.053 0.063 -0.01 0.04 -0.034 0.071 -0.027 0.039 0.039 0.089 0.044 0.004 0.017 0.011 0.011 0.017 -0.002 0.019 -0.017 0.017 -0.042 0.021 -0.04 0.051 0.004 0.056 -0.025 0.029 -0.081 0.016 -0.159 0 -0.078 0.004 -0.062 0.01 -0.041 0.037 -0.052 0.025 -0.041 0.006 -0.036 0.042 -0.036 0.06 0.012 0.041 0.037 0.055 0.022 0.056 -0.029 0.091 -0.032 0.07 -0.018 0.054 -0.025 0.103 -0.061 0.113 -0.044 0.065 0 0.07 0.022 0.1 0.125 0.145 0.041 0.069 0.034 0.111 0.112 0.088 0.071 0.071 -0.007 0.094 0.009 0.029 0.044 0.024 0.053 0.018 0.059 -0.001 0.053 -0.008 0.012 -0.013 0.122 -0.002 0.014 0.023 0.007 0.135 0.005 0.055 0.029 0.022 0.017 0.033 0.001 0.03 0.006 0.075 0.018 0.04 -0.003 0.081 0.012 0.03 0.034 0.02 0.042 0.058 0.016 0.007 0.008 0.02 0.036 0.082 0.019 0.025 0.013 0.004 0.005 0.029 0.026 0.077 0.018 0.019 0.034 0.056 0.014 0.061 0.045 0.069 0.046 0.049 0.021 0.05 0.059 0.112 0.057 0.078 0.077 0.02 0.065 0.011 0.04 0.03 0.04 0.033 -0.043 0.015 -0.038 0.02 -0.053 -0.015 -0.073 0.008 -0.076 0.022 -0.07 0.011 -0.133 -0.035 -0.041 -0.005 -0.028 -0.015 -0.055 -0.069 -0.026 -0.008 -0.071 0.032 -0.086 0.022 -0.042 -0.004 -0.049 0.023 -0.046 0.031 -0.088 0.135 -0.045 0.048 -0.049 0.022 -0.097 -0.001 -0.104 0.005 -0.078 0.033 -0.073 0.017 -0.036 0.002 -0.012 0.074 -0.017 0.034 -0.023 0.02 -0.057 0.006 -0.051 -0.003 -0.031 -0.031 -0.057 -0.015 -0.051 -0.011 -0.033 -0.018 -0.026 0.004 -0.022 0.031 -0.018 0.026 -0.015 0.048 -0.077 0.015 -0.033 0.028 0.019 0.091 -0.009 0.035 -0.016 0.028 -0.093 0.006 -0.08 -0.002 -0.046 0.034 -0.057 0.039 -0.035 0.007 -0.041 -0.002 -0.054 -0.045 -0.052 -0.056 -0.132 -0.039 -0.131 -0.032 -0.086 -0.089 -0.02 -0.044 -0.04 -0.019 -0.102 -0.105 -0.056 -0.068 -0.061 -0.018 -0.07 -0.028 0.003 -0.049 -0.005 -0.047 -0.03 -0.019 -0.042 -0.013 -0.015 -0.026 0.004 -0.062 0.008 -0.159 -0.012 -0.152 -0.094 -0.053 -0.041 -0.036 -0.071 -0.225 -0.034 -0.102 -0.002 -0.075 0.024 -0.225 0.027 -0.097 0.073 -0.195 0.042 -0.066 0.002 -0.049 -0.004 -0.064 -0.021 -0.125 0.123 -0.079 0.053 -0.033 0.009 -0.053 0.066 -0.067 0.029 -0.064 0.024 -0.05 -0.007 -0.026 -0.029 -0.015 -0.034 -0.048 -0.071 -0.137 -0.026 -0.028 -0.022 -0.039 0.011 -0.061 0.028 -0.066 -0.004 -0.028 -0.043 -0.036 -0.088 -0.059 -0.073 -0.004 -0.056 -0.021 -0.083 -0.003 -0.066 -0.007 -0.038 -0.022 0.008 -0.036 0.016 -0.028 0.056 -0.069 0.037 -0.074 0.005 -0.072 0.011 -0.095 0.016 -0.082 0.009 -0.093 -0.087 -0.061 -0.028 -0.05 -0.036 -0.045 -0.04 0 -0.06 -0.019 -0.094 0.059 -0.074 -0.011 -0.051 0.022 -0.117 -0.004 -0.075 -0.029 z" vector-effect="non-scaling-stroke" fill="#000" fill-opacity="1" stroke="#FFF" stroke-width="0px" stroke-linejoin="round" stroke-linecap="round"/></svg>
