<svg xmlns="http://www.w3.org/2000/svg" xmlns:xlink="http://www.w3.org/1999/xlink" height="400" width="400" viewBox="-74.478125 -20.09365234375 2.8328125 2.0544921875"><path d="M -71.779 -19.718 l 0.022 0.03 0.046 0.202 0.005 0.065 -0.046 0.098 0.007 0.039 0.099 0.09 0.002 0.032 -0.012 0.033 -0.085 0.085 -0.065 0.058 0.021 0.067 0.053 0.064 0.007 0.053 -0.016 0.07 -0.081 0.087 -0.042 0.031 -0.12 0.004 -0.014 0.012 0.06 0.085 0.068 0.096 0.111 0.075 0.025 0.071 -0.027 0.067 -0.005 0.165 -0.085 -0.08 -0.093 -0.067 -0.056 -0.026 -0.058 -0.017 -0.444 0.009 -0.05 0.012 -0.039 0.021 -0.041 0.011 -0.122 0.02 -0.121 0.004 -0.283 -0.054 -0.112 -0.028 -0.113 -0.018 -0.13 0.006 -0.129 0.016 -0.103 0.039 -0.077 0.068 -0.014 0.064 -0.046 0.016 -0.104 -0.101 -0.096 -0.072 -0.109 -0.054 -0.224 -0.077 -0.041 -0.047 -0.018 -0.057 0.091 -0.175 0.103 -0.032 0.057 -0.006 0.127 0.022 0.124 0.04 0.113 0.026 0.175 0.01 0.095 0.043 0.674 0.067 0.128 0.021 0.05 -0.007 0.043 -0.026 0.036 -0.047 0.042 -0.035 0.2 -0.008 0.042 -0.016 0.029 -0.049 -0.001 -0.051 -0.118 -0.069 -0.184 -0.151 -0.162 -0.177 0.07 -0.06 -0.027 -0.109 0.026 -0.101 0.039 -0.099 -0.16 -0.085 -0.189 -0.085 -0.263 -0.027 -0.081 -0.021 -0.042 -0.063 0.038 -0.085 0.085 -0.047 0.098 -0.029 0.1 -0.02 0.241 -0.024 0.24 0.027 0.207 0.088 0.21 0.069 0.266 0.023 0.12 0.025 z M -72.805 -18.778 l -0.018 0.071 -0.256 -0.084 -0.207 -0.106 0.009 -0.057 0.106 -0.013 0.101 0.035 0.15 0.071 z M -72.664 -20.038 l 0.041 0.023 -0.015 0.028 -0.101 -0.018 -0.104 -0.032 -0.034 0.008 -0.021 -0.004 -0.061 -0.031 0.054 -0.024 0.055 -0.008 0.06 0.002 z" vector-effect="non-scaling-stroke" fill="#000" fill-opacity="1" stroke="#FFF" stroke-width="0px" stroke-linejoin="round" stroke-linecap="round"/></svg>
