<svg xmlns="http://www.w3.org/2000/svg" xmlns:xlink="http://www.w3.org/1999/xlink" height="400" width="400" viewBox="-89.36259765625 -16.51396484375 6.205078125 3.534716796875"><path d="M -83.158 -14.993 l -0.258 -0.015 -0.121 0.031 -0.053 0.069 -0.046 0.031 -0.038 -0.007 -0.077 0.027 -0.116 0.062 -0.105 0.023 -0.094 -0.015 -0.027 0.015 -0.007 0.02 -0.014 0.02 -0.036 0.011 -0.042 -0.006 -0.047 -0.022 -0.025 0.009 -0.003 0.04 -0.025 0.011 -0.048 -0.019 -0.054 0.015 -0.06 0.048 -0.084 0.01 -0.108 -0.028 -0.084 -0.052 -0.059 -0.077 -0.071 -0.019 -0.125 0.057 -0.052 0.067 -0.011 0.041 0.012 0.037 -0.023 0.025 -0.058 0.012 -0.044 0.045 -0.03 0.079 -0.006 0.061 0.018 0.043 -0.029 0.031 -0.076 0.02 -0.09 0.068 -0.103 0.115 -0.103 0.08 -0.102 0.046 -0.049 0.051 0.003 0.056 -0.006 0.017 -0.019 0.007 -0.033 0.008 -0.197 -0.121 -0.057 -0.084 -0.049 0.013 -0.062 0.043 -0.087 0.095 -0.094 0.129 -0.045 0.014 -0.233 -0.019 -0.123 0.011 -0.025 0.017 -0.012 0.047 0.007 0.063 0.034 0.228 0.019 0.094 -0.019 0.029 -0.063 0.005 -0.081 0.013 -0.045 0.043 -0.011 0.044 -0.004 0.062 -0.026 0.064 -0.05 0.046 -0.05 0.016 -0.278 0.012 0.005 -0.105 -0.08 -0.043 -0.046 -0.088 -0.04 -0.059 0.013 -0.036 -0.004 -0.042 -0.113 -0.033 -0.106 0.026 -0.061 -0.017 -0.045 -0.023 0.077 -0.052 0.005 -0.032 -0.025 -0.023 -0.025 -0.015 0.008 -0.059 0.016 -0.07 0.043 -0.163 -0.016 -0.028 -0.071 -0.049 -0.09 -0.005 -0.099 0.015 -0.048 -0.025 -0.042 -0.056 -0.071 -0.027 -0.125 0.045 -0.132 0.067 -0.041 0.024 -0.034 -0.003 -0.015 -0.05 -0.007 -0.06 -0.008 -0.015 -0.071 -0.021 -0.082 -0.015 -0.042 -0.017 -0.04 -0.04 -0.099 -0.052 -0.022 -0.039 -0.132 -0.089 -0.027 -0.044 -0.03 -0.032 -0.063 -0.041 -0.05 0.01 -0.167 -0.051 -0.025 -0.005 0.023 -0.045 0.053 -0.069 0.115 -0.077 0.01 -0.062 -0.03 -0.119 -0.03 -0.077 0.016 -0.035 0.036 -0.139 0.028 -0.032 0.166 -0.07 0.015 -0.01 0.131 -0.099 0.145 -0.109 0.151 -0.121 0.169 -0.135 0.093 -0.079 0.043 -0.034 0.097 0.028 0.077 -0.064 0.044 -0.021 0.103 -0.076 0.032 -0.017 0.173 -0.031 0.084 0.001 0.073 0.077 0.058 0.042 0.109 -0.036 0.092 -0.008 0.379 0.072 0.15 -0.032 0.276 -0.007 0.124 0.018 0.175 -0.102 0.113 -0.021 0.132 -0.048 -0.018 -0.049 -0.032 -0.022 0.202 0.021 0.3 0.103 0.32 -0.019 0.115 -0.056 0.075 -0.016 0.328 0.106 0.086 0.082 0.067 0.008 0.052 -0.019 0.014 -0.017 -0.064 -0.018 -0.029 -0.025 0.258 0.05 0.486 0.386 0.01 0.031 -0.208 -0.114 -0.11 0.009 -0.029 0.018 0.006 0.062 0.01 0.029 0.047 0.003 0.035 -0.017 0.086 0.02 0.057 0.041 0.069 0.063 0.041 0.069 0.045 0.001 0.044 -0.042 0.083 -0.005 0.054 0.046 0.038 -0.003 -0.053 -0.072 -0.125 -0.071 0.03 -0.003 0.277 0.128 0.078 0.161 0.065 0.037 z M -86.42 -16.378 l -0.16 0.078 -0.05 -0.002 0.073 -0.06 0.119 -0.052 0.1 -0.025 0.082 0.011 z M -85.871 -16.462 l -0.076 0.058 -0.014 -0.026 0.037 -0.054 0.046 -0.031 0.044 0.003 -0.011 0.023 z" vector-effect="non-scaling-stroke" fill="#000" fill-opacity="1" stroke="#FFF" stroke-width="0px" stroke-linejoin="round" stroke-linecap="round"/></svg>
