<svg xmlns="http://www.w3.org/2000/svg" xmlns:xlink="http://www.w3.org/1999/xlink" height="400" width="400" viewBox="113.8388671875 -22.564990234375 0.496386718749989 0.369824218750011"><path d="M 114.015 -22.512 l 0.003 -0.003 0.032 -0.029 0.047 -0.008 0.025 -0.014 0.065 0 0.04 0.011 0.038 0.013 0.004 0.004 0.021 0.037 -0.007 0.042 0.041 0.02 0.01 0.041 -0.045 0.022 -0.003 0.048 -0.02 0.03 -0.129 -0.053 -0.106 -0.027 -0.096 0.011 -0.035 -0.031 -0.006 -0.032 0.11 -0.056 z M 114.232 -22.211 l -0.025 0.015 -0.068 -0.073 -0.004 -0.024 0.053 -0.004 0.059 0.033 -0.003 0.03 z M 113.998 -22.21 l -0.12 0 -0.026 -0.01 -0.013 -0.021 0.043 -0.039 0.162 -0.053 -0.041 0.056 z" vector-effect="non-scaling-stroke" fill="#000" fill-opacity="1" stroke="#FFF" stroke-width="0px" stroke-linejoin="round" stroke-linecap="round"/></svg>
