<svg xmlns="http://www.w3.org/2000/svg" xmlns:xlink="http://www.w3.org/1999/xlink" height="400" width="400" viewBox="16.09306640625 -48.553466796875 6.78359374999999 2.800439453125"><path d="M 22.132 -48.405 l 0.095 -0.008 0.004 0.001 0.023 0.005 0.016 0.046 0.003 0.003 0.023 0.031 0.022 0.041 0.033 0.031 0.074 0.013 0.096 0.038 0.062 0.071 0.094 0.03 0.007 0.001 0.018 -0.003 0.068 -0.003 0.013 0.014 0.054 0.035 0.021 0.031 -0.011 0.032 0.01 0.037 0.021 0.013 -0.025 0.025 -0.175 0.124 -0.068 0.033 -0.046 0.007 -0.071 -0.013 -0.074 0.01 -0.066 0.026 -0.061 0.008 -0.046 0.031 -0.06 0.067 -0.073 0.057 -0.074 0.035 -0.038 0.032 -0.004 0.109 -0.041 0.031 -0.055 0.032 -0.03 0.028 -0.084 0.166 -0.064 0.053 -0.06 0.041 -0.01 0.037 0.001 0.043 -0.068 0.085 -0.09 0.089 -0.017 0.036 0.02 0.049 -0.086 0.056 -0.05 0.027 -0.041 0.013 -0.026 0.035 -0.042 0.086 0.011 0.039 0.001 0.035 -0.073 0.021 -0.021 0.039 -0.018 0.048 -0.03 0.022 -0.082 0.04 -0.203 -0.017 -0.077 0.013 -0.023 0.029 -0.005 0.023 -0.025 0.022 -0.046 0.027 -0.047 0.012 -0.106 -0.033 -0.227 0.034 -0.039 0.024 -0.032 -0.017 -0.049 -0.016 -0.227 -0.02 -0.09 0.016 -0.12 -0.006 -0.111 -0.017 -0.083 0.014 -0.073 0.068 -0.036 0.023 -0.028 0.015 -0.063 0.021 -0.052 0.026 -0.07 0.018 -0.062 -0.003 -0.059 -0.029 -0.021 0.007 -0.019 0.027 -0.032 0.023 -0.088 0.028 -0.022 0 -0.005 0 -0.067 0.021 -0.111 0.011 -0.056 -0.008 -0.101 0.094 -0.031 0.017 -0.096 0.029 -0.079 0.014 -0.068 -0.011 -0.027 -0.001 -0.3 -0.005 -0.157 -0.02 -0.101 -0.037 -0.067 -0.041 -0.033 -0.045 -0.078 -0.028 -0.123 -0.01 -0.096 -0.045 -0.068 -0.08 -0.093 -0.064 -0.117 -0.047 -0.093 -0.066 -0.068 -0.086 -0.123 -0.077 -0.178 -0.069 -0.054 -0.015 -0.011 -0.022 -0.087 -0.085 -0.037 -0.031 0.003 -0.042 -0.017 -0.024 -0.032 -0.017 -0.017 -0.061 -0.01 -0.045 -0.025 -0.029 -0.191 -0.006 0.159 -0.109 0.079 -0.03 0.092 0.005 0.029 -0.01 0.008 -0.016 0.016 -0.035 0.008 -0.033 0.008 -0.031 -0.01 -0.018 -0.044 -0.006 -0.021 -0.078 0.023 -0.029 0.023 -0.02 -0.028 -0.094 0.008 -0.032 0.072 -0.005 0.06 -0.02 0.049 -0.023 0.014 -0.029 0.04 -0.059 -0.037 -0.073 -0.208 -0.047 -0.011 -0.018 0.048 -0.021 0.051 -0.029 0.03 -0.023 0.04 -0.003 0.057 0.012 0.1 0.053 0.038 0.008 0.037 -0.015 0.04 -0.003 0.111 0.002 0.093 -0.012 -0.021 -0.056 0 -0.041 -0.016 -0.033 0.01 -0.036 0.038 -0.028 0.011 -0.063 0.058 -0.042 0.027 -0.006 0.103 0.008 0.024 0.011 0.016 0.002 0.163 0.103 0.155 0.078 0.127 0.04 0.186 0.003 0.198 0.003 0.331 -0.014 0.248 -0.01 0.016 -0.019 0.037 -0.046 -0.03 -0.04 0.002 -0.047 0.042 -0.061 0.122 -0.051 0.351 -0.022 0.202 -0.038 0.03 -0.051 0.067 -0.051 0.061 -0.01 0.084 0.023 0.101 0.045 0.089 0.024 0.052 -0.015 0.178 -0.075 0.205 -0.074 0.141 -0.2 0.015 -0.032 0.153 -0.023 0.223 0.004 0.115 0.026 0.086 0.014 0.129 -0.005 0.186 -0.043 0.069 0.001 0.053 0.03 0.058 0.026 0.039 0.032 0.03 0.045 0.016 0.017 0.026 0.023 0.047 0.032 0.046 0.008 0.344 -0.055 z" vector-effect="non-scaling-stroke" fill="#000" fill-opacity="1" stroke="#FFF" stroke-width="0px" stroke-linejoin="round" stroke-linecap="round"/></svg>
