<svg xmlns="http://www.w3.org/2000/svg" xmlns:xlink="http://www.w3.org/1999/xlink" height="400" width="400" viewBox="-24.47568359375 -66.52607421875 10.919580078125 3.119384765625"><path d="M -15.543 -66.229 l 0.115 0.004 0.188 -0.034 0.079 -0.023 0.192 -0.078 0.114 -0.022 0.175 0.005 0.085 -0.005 0.002 0.008 -0.108 0.032 -0.087 0.011 -0.124 0.047 -0.118 0.106 -0.087 0.052 0.001 0.023 0.106 0.041 0.116 0.023 0.107 -0.021 0.047 0.008 0.042 0.031 0.024 0.03 0.005 0.03 -0.019 0.063 -0.064 0.063 -0.087 0.053 0.012 0.017 0.07 0.009 0.331 -0.034 0.034 0.003 0.019 0.017 0.004 0.032 0.018 0.029 0.033 0.026 -0.01 0.026 -0.145 0.083 0.171 -0.052 0.135 -0.015 0.231 0.026 0.095 0.03 0.055 0.053 0.08 -0.018 0.035 0.001 0.052 0.03 0.002 0.032 -0.038 0.046 -0.013 0.042 -0.04 0.017 -0.075 0.013 -0.022 0.014 0.033 0.032 0.049 0.032 0.069 0.001 0.012 0.015 0.002 0.018 -0.009 0.021 -0.023 0.014 -0.036 0.008 -0.047 0.023 0.174 0.05 0.022 0.018 0.002 0.027 -0.014 0.03 -0.03 0.032 -0.053 0.019 -0.125 0.003 -0.077 0.021 0.026 0.035 -0.002 0.044 -0.023 0.052 -0.099 0.079 -0.093 0.042 -0.091 0.027 -0.162 -0.01 -0.088 -0.021 0.01 0.068 -0.09 0.042 0.017 0.035 0.031 0.018 -0.016 0.045 -0.043 0.044 -0.072 0.048 -0.081 0.03 -0.161 0.036 -0.138 0.06 -0.094 0.024 -0.234 -0.001 -0.239 0.039 -0.338 0.082 -0.228 0.065 -0.176 0.074 -0.232 0.121 -0.172 0.051 -0.099 0.014 -0.193 0.011 -0.162 0.033 -0.538 0.062 -0.182 0.034 -0.024 0.031 -0.076 0.046 -0.005 0.017 0.033 0.013 0.006 0.017 -0.067 0.054 -0.133 0.039 -0.063 -0.001 -0.076 -0.034 -0.033 0.001 -0.013 0.005 -0.001 0.011 0.044 0.041 -0.081 0.019 -0.351 0.048 -0.597 -0.035 -0.236 -0.037 -0.292 -0.058 -0.174 -0.015 -0.246 -0.004 -0.202 -0.081 -0.094 -0.05 -0.008 -0.021 0.011 -0.024 0.021 -0.016 0.031 -0.009 0.067 -0.001 0.009 -0.007 -0.051 -0.04 -0.049 0.013 -0.13 0.057 -0.058 -0.002 -0.076 -0.028 -0.003 -0.028 -0.149 -0.011 -0.129 -0.034 -0.128 -0.05 -0.019 -0.019 0.062 -0.028 -0.012 -0.005 -0.046 -0.005 -0.094 0.009 -0.141 0.063 -0.061 0.014 -0.924 0.015 -0.234 0.006 -0.045 0.01 -0.041 -0.041 -0.036 -0.091 -0.014 -0.06 0.009 -0.029 0.032 -0.035 0.05 0.006 0.048 0.028 0.043 0.039 0.05 0.019 0.322 -0.048 0.131 -0.032 0.056 -0.031 0.066 -0.052 0.07 -0.027 0.033 -0.025 0.065 -0.079 0.045 -0.037 0.054 -0.027 0.063 -0.018 0.143 -0.013 -0.094 -0.019 -0.09 0 -0.305 0.084 -0.102 0 0.004 -0.013 0.043 -0.024 0.105 -0.041 -0.072 -0.003 -0.027 -0.019 -0.003 -0.039 0.053 -0.063 0.248 -0.083 0.086 -0.012 0.026 -0.016 -0.033 -0.013 -0.052 -0.008 -0.249 0.085 -0.182 0.029 -0.054 -0.006 -0.094 -0.033 -0.03 -0.015 -0.041 -0.038 0.005 -0.023 0.087 -0.067 -0.014 -0.013 -0.059 -0.007 -0.16 -0.061 -0.253 0.006 -0.627 -0.036 -0.129 0.015 -0.213 0.053 -0.129 0.017 -0.06 -0.011 -0.054 -0.028 -0.049 -0.038 -0.044 -0.047 0.019 -0.033 0.083 -0.019 0.061 -0.009 0.171 0.011 0.208 -0.033 0.133 -0.007 0.038 -0.005 0.078 -0.035 0.039 -0.009 0.06 0.012 0.029 0.024 0.209 -0.037 0.072 -0.019 0.008 -0.011 0.031 -0.013 0.104 0.02 0.084 0.001 0.105 -0.014 0.186 -0.006 0.416 -0.003 0.062 -0.03 0.029 -0.027 0.037 -0.068 -0.016 -0.014 -0.26 0.062 -0.059 -0.001 -0.301 -0.033 -0.109 -0.037 0.036 -0.03 0.159 -0.065 0.165 -0.052 0.242 -0.056 0.057 -0.022 0.006 -0.026 -0.161 -0.046 -0.306 0.013 -0.078 -0.055 -0.254 -0.032 -0.169 0.02 -0.09 -0.033 -0.22 0.046 -0.482 0.066 -0.192 0.046 -0.103 0.015 -0.119 -0.037 -0.205 -0.042 -0.231 -0.013 -0.021 -0.025 0.135 -0.076 0.092 -0.014 0.093 0.007 0.177 0.053 0.122 0.017 -0.153 -0.078 0.004 -0.03 -0.012 -0.045 -0.047 -0.019 -0.047 -0.05 0.019 -0.017 0.06 -0.006 0.123 0.017 0.293 0.086 0.144 -0.015 0.079 -0.032 0.108 -0.023 -0.031 -0.012 -0.253 -0.001 -0.135 -0.017 -0.069 -0.025 -0.059 -0.043 0.021 -0.02 0.07 -0.016 0.216 0.005 -0.143 -0.074 -0.099 -0.043 -0.011 -0.021 0.007 -0.026 0.013 -0.017 0.02 -0.009 0.248 0.043 0.054 0.002 -0.05 -0.028 -0.109 -0.041 -0.005 -0.015 0.046 -0.013 0.023 -0.023 0.002 -0.019 0.075 -0.017 0.076 -0.001 0.077 0.015 0.237 0.08 0.034 0.023 0.011 0.03 -0.012 0.037 0.01 0.015 0.093 -0.013 0.074 0.016 0.037 -0.004 0.092 -0.056 0.063 0.013 0.038 0.026 0.012 0.023 0.006 0.032 -0.016 0.067 0.004 0.009 0.064 -0.038 0.11 -0.003 0.014 -0.019 0.003 -0.071 -0.009 -0.06 -0.012 -0.012 -0.361 -0.083 -0.063 -0.019 -0.079 -0.041 0.016 -0.02 0.07 -0.018 0.106 -0.007 0.246 0.001 0.025 -0.009 -0.048 -0.021 -0.114 -0.014 -0.027 -0.012 -0.013 -0.024 -0.135 0.013 -0.151 0.001 -0.145 -0.015 -0.003 -0.019 0.057 -0.027 0.118 -0.045 0.055 -0.011 0.165 0.008 0.164 -0.013 0.133 0.015 0.106 0.045 0.15 0.078 0.203 0.05 0.019 0.016 0.108 0.041 0.215 0.11 0.218 0.064 0.01 0.016 -0.036 0.019 -0.084 0.023 0.019 0.013 0.11 0.016 0.079 0.043 0.005 0.019 -0.071 0.135 -0.038 0.029 -0.044 0.015 -0.202 -0.025 0.048 0.043 0.144 0.046 0.033 0.025 -0.021 0.025 0.016 0.006 0.053 -0.014 0.022 0.014 -0.009 0.042 -0.022 0.035 -0.036 0.028 0.01 0.012 0.056 -0.004 0.053 0.007 0.083 0.038 0.067 0.116 0.033 0.038 0.024 -0.033 0.03 -0.085 0.028 -0.043 0.026 -0.002 0.023 -0.014 0.019 -0.027 0.039 -0.094 0.135 -0.071 0.065 -0.022 0.061 -0.005 0.03 0.009 0.101 0.075 0.062 0.013 0.032 -0.004 0.043 -0.051 0.055 -0.097 0.013 -0.109 -0.03 -0.12 0.017 -0.086 0.064 -0.051 0.085 -0.016 0.105 0.02 0.077 0.031 0.151 0.119 0.122 0.062 0.105 0.067 0.054 0.022 0.104 0.011 0.028 -0.004 0.019 -0.015 0.009 -0.027 -0.022 -0.17 0.029 -0.053 0.044 -0.038 0.188 -0.022 0.102 -0.024 0.099 -0.039 0.082 -0.021 0.065 -0.003 0.068 0.015 0.071 0.033 0.111 0.064 0.14 0.107 0.178 0.08 0.093 0.127 0.02 0.021 0.022 0.002 0.024 -0.016 0.015 -0.023 0.004 -0.056 -0.05 -0.075 -0.166 -0.188 -0.003 -0.036 0.021 -0.029 0.117 -0.003 0.273 0.017 0.087 0.029 0.185 0.115 0.052 0.028 0.032 0.007 0.011 -0.014 0.072 -0.021 0.05 -0.026 0.083 -0.063 0.181 -0.114 0.038 -0.003 0.053 0.009 0.093 0.03 0.044 0.024 0.087 0.018 0.09 -0.006 0.124 -0.04 0.14 -0.024 0.048 -0.057 0.009 -0.026 -0.113 -0.168 0.047 -0.034 0.244 -0.042 0.213 -0.003 0.05 0.011 0.134 0.082 0.091 0.041 0.046 0.033 0.011 0.073 0.055 0.027 z" vector-effect="non-scaling-stroke" fill="#000" fill-opacity="1" stroke="#FFF" stroke-width="0px" stroke-linejoin="round" stroke-linecap="round"/></svg>
