<svg xmlns="http://www.w3.org/2000/svg" xmlns:xlink="http://www.w3.org/1999/xlink" height="400" width="400" viewBox="68.1650390625 -35.4958984375 29.178515625 28.7472167968751"><path d="M 68.165 -23.857 l 0.069 -0.043 0.048 -0.027 0.099 -0.023 0.107 -0.016 0.098 0.001 0.137 0.002 0.004 -0.301 0.012 -0.026 0.019 -0.015 0.022 -0.006 0.019 0.005 0.028 0.045 0.035 -0.002 0.037 -0.026 0.084 0.019 0.067 -0.013 0.068 0.018 0.116 0 0.208 -0.007 0.116 0.002 0.075 0.048 0.082 0.053 0.089 0.007 0.129 -0.006 0.087 -0.02 0.044 -0.049 0.033 -0.047 0.191 -0.069 0.2 -0.056 0.058 -0.006 0.018 0.033 -0.009 0.055 0.023 0.052 0.08 0.033 0.057 0.008 0.051 -0.007 0.038 -0.017 0.081 -0.082 0.042 -0.019 0.055 0.001 0.061 -0.039 0.001 -0.03 -0.039 -0.014 -0.033 -0.043 0.006 -0.035 -0.009 -0.049 0.007 -0.047 0.026 -0.035 0.046 -0.034 -0.027 -0.07 -0.07 -0.134 -0.073 -0.171 -0.077 -0.143 -0.098 -0.125 -0.05 -0.092 0.005 -0.203 -0.009 -0.041 -0.034 -0.025 -0.045 -0.014 -0.064 0.021 -0.057 0.004 -0.123 -0.004 -0.061 -0.021 -0.164 -0.204 -0.022 -0.08 -0.001 -0.082 0.055 -0.143 0.017 -0.133 0.008 -0.124 -0.009 -0.035 -0.033 -0.042 -0.055 -0.031 -0.148 -0.007 -0.175 -0.041 -0.135 -0.072 -0.094 -0.044 -0.026 -0.028 -0.011 -0.033 0.025 -0.15 0.042 -0.169 0.031 -0.052 0.054 -0.053 0.04 -0.036 0.063 -0.048 0.171 -0.161 0.154 -0.221 0.095 -0.154 0.049 -0.046 0.05 -0.039 0.074 -0.048 0.085 -0.043 0.085 0.002 0.081 0.039 0.06 0.046 0.02 0.102 0.042 0.066 0.046 0.04 0.061 0.019 0.077 -0.005 0.31 -0.117 0.105 -0.024 0.253 -0.015 0.174 -0.045 0.154 -0.047 0.019 -0.085 0.059 -0.13 0.18 -0.169 0.051 -0.075 0.055 -0.144 0.058 -0.131 0.05 -0.055 0.284 -0.144 0.278 -0.133 0.045 -0.06 0.18 -0.275 0.103 -0.187 0.027 -0.06 0.059 -0.162 0.064 -0.161 0.086 -0.037 0.191 -0.062 0.151 -0.06 0.077 -0.069 0.047 -0.06 -0.009 -0.06 -0.042 -0.071 0.009 -0.042 0.008 -0.041 0.11 -0.084 0.207 -0.249 0.124 -0.125 0.041 0 0.129 -0.066 0.123 -0.075 -0.007 -0.034 -0.015 -0.044 -0.071 -0.02 -0.022 -0.053 0.017 -0.076 0.059 -0.204 -0.012 -0.059 -0.072 -0.189 0.016 -0.052 0.03 -0.053 0.08 -0.071 0.104 -0.059 0.332 -0.141 0.067 -0.015 0.115 -0.036 0.071 -0.075 0.009 -0.064 -0.031 -0.04 -0.069 -0.053 -0.13 -0.048 -0.117 -0.042 -0.198 0.004 -0.103 -0.036 -0.028 -0.025 -0.014 -0.089 0.02 -0.15 -0.031 -0.013 -0.044 0.018 -0.105 -0.018 -0.129 0.002 -0.049 -0.042 0.025 -0.05 -0.007 -0.067 -0.019 -0.064 -0.02 -0.013 -0.062 -0.015 -0.096 -0.055 -0.077 -0.068 -0.045 -0.046 -0.014 -0.032 0.004 -0.021 0.056 -0.059 0.067 -0.083 0.025 -0.071 0.007 -0.052 -0.019 -0.038 -0.062 -0.047 -0.066 -0.041 -0.026 -0.035 -0.001 -0.053 0.025 -0.067 0.077 -0.05 0.137 -0.048 0.035 -0.06 -0.004 -0.044 -0.038 -0.013 -0.096 0 -0.163 -0.015 -0.028 -0.024 -0.018 -0.033 0 -0.032 0.034 -0.037 0.041 -0.047 -0.007 -0.045 -0.048 -0.051 -0.115 -0.037 -0.015 -0.053 0.018 -0.044 0.038 -0.063 0.033 -0.044 0.078 -0.124 0.095 -0.027 0.116 -0.04 0.128 -0.044 0.198 0.033 0.096 0.016 0.195 0.038 0.163 0.032 0.167 0.009 0.069 -0.002 0.077 0.038 0.188 0.065 0.153 0.034 0.104 0 0.153 -0.057 0.076 -0.052 0.103 -0.057 0.131 0.002 0.284 -0.088 0.053 0.015 0.084 0.005 0.102 -0.051 0.053 -0.061 0.008 -0.03 0.025 -0.022 0.109 -0.039 0.109 -0.053 0.03 -0.07 0.018 -0.048 0.12 -0.062 0.124 -0.064 0.13 -0.067 0.148 -0.076 0.125 -0.065 0.102 -0.053 0.003 0.003 0.008 0.008 0.041 0.024 0.043 0.012 0.051 -0.023 0.064 -0.019 0.033 0.01 0.005 0.03 -0.038 0.142 0.003 0.056 0.064 0.116 0.083 0.188 0.078 0.177 0.046 0.116 0.045 0.048 0.189 0.048 0.155 0.04 0.092 0.065 0.102 0.063 0.072 0.038 0.034 0.049 0.007 0.045 -0.006 0.03 -0.039 0.039 -0.179 0.101 -0.021 0.032 -0.005 0.042 0.035 0.126 0.022 0.079 0.006 0.158 0.012 0.151 0.063 0.069 0.052 0.044 0.032 0.04 0.064 0.055 0.054 0.041 0.046 0.024 0.023 0.054 -0.013 0.064 -0.019 0.056 0.006 0.03 0.037 0.021 0.057 0.055 0.007 0.081 -0.004 0.056 0.022 0.05 0.006 0.056 -0.017 0.139 0.003 0.056 0 0.006 -0.049 0.004 -0.043 0.021 -0.06 0.088 -0.069 0.023 -0.079 0.007 -0.081 -0.054 -0.067 -0.056 -0.018 -0.031 -0.017 -0.059 -0.036 -0.039 -0.069 0.018 -0.105 0.008 -0.114 0.013 -0.021 0.013 -0.002 0.025 0.028 0.053 0.024 0.069 0.014 0.097 0.031 0.064 0.01 0.02 0.182 0.193 0.048 0.039 0.01 0.026 -0.016 0.07 -0.033 0.082 0.006 0.065 0.06 0.072 0.049 0.05 -0.048 0.068 -0.028 0.078 0.032 0.035 -0.015 0.113 0.014 0.021 0.034 0.009 0.053 -0.008 0.055 -0.03 0.046 -0.006 0.028 0.009 0.037 -0.085 0.033 -0.012 0.063 0.024 0.125 0.161 0.106 0.136 0.031 0.026 0.019 0.016 0.105 0.071 0.072 0.045 0.099 -0.016 0.13 -0.003 0.077 0.044 0.045 0.03 0.002 0.004 0.006 0.001 0.157 0.107 0.068 -0.008 0.045 0.031 0.013 0.075 -0.021 0.078 0.005 0.037 0.07 0.007 0.149 0.052 0.131 0.046 0.068 0.015 0.073 0.034 0.065 0.054 0.127 0.07 0.112 0.053 0.025 0.073 -0.044 -0.016 -0.058 0.008 -0.059 0.032 -0.028 0.02 -0.136 0.125 -0.071 0.038 -0.064 0.056 -0.147 0.17 -0.085 0.158 -0.062 0.149 0.001 0.105 -0.023 0.123 -0.063 0.07 -0.039 0.024 -0.046 0.106 -0.033 0.124 0.019 0.04 0.079 0.054 0.077 0.053 0.098 0.057 0.094 0.054 0.061 0.007 0.017 -0.031 0.022 -0.029 0.069 0.016 0.084 0.053 0.055 0.042 0.025 0.014 0.145 0.071 0.121 0.059 0.152 0.075 0.037 0.046 0.033 0.049 0.072 0.065 0.175 0.114 0.15 0.082 0.122 0.067 0.095 0.047 0.044 -0.007 0.048 -0.025 0.042 -0.015 0.049 0.013 0.075 0.036 0.176 0.108 0.164 0.085 0.179 -0.015 0.047 0.014 0.033 0.077 0.023 0.078 0.199 0.051 0.131 0.023 0.15 0.042 0.076 0.031 0.08 -0.039 0.015 -0.035 0.063 -0.021 0.104 0.009 0.195 0.06 0.082 0.018 0.068 -0.057 0.128 -0.027 0.066 -0.03 0.139 0.064 0.251 0.08 0.129 0.05 0.031 0.049 0.014 0.046 -0.001 0.112 0.032 0.051 0.252 0.114 0.083 0.048 0.067 0.016 0.038 0.002 0.026 0.014 0.023 0.065 0.018 0.015 0.048 0.016 0.053 0.009 0.163 -0.056 0.112 -0.043 0.08 0.011 0.051 0.047 0.008 0.069 0.03 0.073 0.057 0.036 0.061 0.004 0.152 -0.049 0.122 0.038 0.112 0.014 0.125 0.024 0.048 0.018 0.129 0.06 0.158 0.061 0.061 -0.007 0.254 -0.113 0.021 0.014 0.052 0.108 0.077 0.039 0.121 0.034 0.126 -0.063 0.1 0.018 0.12 0.006 0.115 -0.03 0.1 -0.008 0.146 0.055 0.032 -0.013 0.028 -0.035 0.057 -0.156 0.05 -0.138 -0.004 -0.083 -0.046 -0.121 -0.118 -0.158 -0.009 -0.048 0.04 -0.275 0.044 -0.158 0.038 -0.075 0.041 -0.107 0.007 -0.049 -0.004 -0.045 -0.041 -0.027 -0.011 -0.034 0.01 -0.028 0.032 -0.016 0.134 -0.02 0.151 -0.043 0.06 -0.023 0.046 -0.023 0.046 -0.036 0.043 0.002 0.135 0.052 0.047 0.033 0.025 0.1 0.02 0.039 -0.019 0.101 -0.081 0.246 0.016 0.092 0.068 0.067 0.059 0.047 -0.01 0.019 -0.121 0.079 -0.022 0.043 0.027 0.041 0.048 0.035 0.022 0.033 0.022 0.104 0.062 0.029 0.122 0.067 0.107 0.049 0.184 -0.032 0.052 0.022 0.09 0.023 0.071 0.007 0.041 0.017 0.023 0.017 -0.003 0.021 0.004 0.022 0.101 0.006 0.053 0.012 0.179 -0.022 0.18 -0.031 0.083 -0.093 0.036 -0.007 0.104 -0.036 0.102 0.04 0.112 0.054 0.06 0.016 0.119 0.009 0.116 -0.006 0.278 -0.026 0.153 0.013 0.14 -0.077 0.029 0 0.062 0.06 0.154 0.005 0.082 -0.029 0.088 -0.022 0.057 -0.007 0.045 -0.001 0.055 0.006 0.051 -0.02 0.024 -0.04 -0.005 -0.06 -0.037 -0.066 -0.032 -0.038 -0.006 -0.021 0.01 -0.047 0.029 -0.067 0.052 -0.076 -0.038 -0.074 -0.054 -0.085 -0.04 -0.008 -0.1 0.02 -0.108 -0.004 -0.085 -0.051 -0.063 -0.064 -0.015 -0.054 0.018 -0.066 0.028 -0.06 0.006 -0.023 0.081 0 0.112 0.013 0.085 0.017 0.068 -0.001 0.124 -0.077 0.056 -0.005 0.065 -0.015 0.028 -0.015 0.02 0.011 0.071 0.009 0.074 -0.004 0.066 -0.021 0.066 -0.033 0.118 -0.07 0.023 -0.04 0 -0.037 -0.022 -0.024 -0.022 -0.012 0.009 -0.032 0.049 -0.054 0.18 -0.081 0.153 -0.1 0.084 -0.075 0.039 -0.09 0.049 -0.098 0.045 -0.039 0.109 -0.025 0.304 -0.036 0.096 -0.04 0.142 -0.073 0.071 -0.058 0.04 -0.047 0.004 -0.052 0.094 -0.016 0.082 -0.084 0.1 -0.085 0.175 -0.072 0.155 -0.096 0.054 0.015 0.056 0.045 0.03 0.05 0.006 0.025 0.198 0.032 0.031 -0.005 0.146 0.045 0.134 0.054 0.074 0.014 0.036 -0.002 0.031 -0.017 0.036 -0.048 0.037 -0.035 0.023 -0.014 -0.001 -0.055 0.195 -0.107 0.175 -0.077 0.15 -0.056 0.044 0.023 0.049 0.043 0.066 0.109 0.04 0.027 0.102 -0.015 0.019 0.012 -0.016 0.039 -0.069 0.049 -0.09 0.044 -0.058 0.036 0.019 0.119 -0.004 0.041 0.025 0.013 0.185 -0.118 0.089 -0.023 0.031 0.028 0.01 0.063 0.073 0.13 0.031 0.066 -0.185 0.157 -0.068 0.081 0.003 0.029 -0.004 0.028 -0.047 0.04 0.003 0.016 0.038 0.026 0.047 0.019 0.023 -0.001 0.039 -0.038 0.175 -0.054 0.05 0.01 0.123 0.083 0.057 0.005 0.148 0.025 0.095 -0.031 0.07 0.029 0.144 0.104 0.033 0.019 -0.012 0.063 -0.008 0.069 0.036 0.055 0.004 0.049 -0.008 0.045 -0.029 0.031 -0.08 0.017 -0.068 0.053 -0.108 0.077 -0.087 0.062 -0.063 0.054 -0.023 0.057 0.007 0.072 0.018 0.075 0.202 0.276 -0.002 0.048 -0.064 0.013 -0.085 -0.031 -0.073 -0.045 -0.082 -0.118 -0.066 -0.035 -0.066 -0.008 -0.392 0.061 -0.083 0.017 -0.129 0.044 -0.091 0.089 -0.066 0.081 -0.068 0.033 -0.099 0.063 -0.275 0.194 -0.159 0.084 -0.104 0.031 -0.073 0.044 -0.039 0.072 -0.03 0.052 -0.009 0.127 0.018 0.156 0.039 0.1 0.021 0.021 0.003 0.029 -0.039 0.054 -0.052 0.046 -0.025 0.028 -0.023 0.142 -0.046 0.07 -0.085 0.103 -0.075 0.078 -0.118 0.06 -0.045 0.049 -0.043 0.09 -0.025 0.076 -0.001 0.028 0.013 0.024 0.049 0.027 0.06 0.026 0.028 0.041 0.004 0.049 -0.044 0.118 -0.079 0.164 -0.091 0.13 -0.094 0.124 -0.022 0.04 -0.084 0.152 -0.073 0.209 -0.049 0.141 -0.043 0.096 -0.053 0.004 -0.064 -0.031 -0.155 -0.041 -0.1 -0.033 -0.072 -0.03 -0.05 0.001 -0.069 0.019 -0.07 0.013 -0.042 -0.015 -0.097 -0.087 -0.029 0.01 -0.019 0.042 0.065 0.248 0.042 0.092 -0.007 0.154 -0.017 0.189 -0.025 0.207 -0.017 0.048 -0.041 0.055 -0.054 0.015 -0.05 -0.022 -0.04 0.005 -0.013 0.035 0.012 0.089 -0.048 0.102 -0.036 0.088 0.009 0.085 0.017 0.086 0.057 0.187 0 0.068 -0.011 0.061 -0.03 0.025 -0.051 -0.004 -0.028 0.025 -0.021 0.038 -0.057 0.142 -0.055 0.015 -0.055 -0.021 -0.083 -0.095 -0.05 -0.028 -0.032 0.001 -0.014 0.025 -0.022 0.057 -0.022 0.038 -0.055 0.033 -0.014 -0.07 -0.029 -0.362 -0.022 -0.115 -0.018 -0.16 -0.027 -0.049 -0.034 -0.087 -0.037 -0.075 -0.032 -0.032 -0.02 -0.141 -0.007 -0.173 0 -0.081 -0.045 -0.169 -0.043 -0.191 -0.059 0.008 -0.035 -0.046 -0.025 0.001 -0.083 0.043 -0.066 -0.014 -0.049 0.006 0 0.088 0.008 0.094 -0.019 0.034 -0.129 0.11 -0.036 0.074 0.004 0.077 0.016 0.104 -0.023 0.053 -0.056 0.049 -0.075 0.025 -0.066 -0.012 -0.042 -0.042 -0.04 -0.108 -0.035 -0.059 -0.037 -0.014 -0.029 0.016 -0.004 0.068 0.002 0.056 -0.009 0.006 -0.021 -0.009 -0.024 -0.027 -0.061 -0.269 -0.088 -0.207 -0.005 -0.08 0.032 -0.102 0.04 -0.158 0.104 -0.098 0.014 -0.042 0.017 -0.033 0.026 -0.007 0.134 0.009 0.045 -0.016 0.04 -0.046 0.058 -0.037 0.058 -0.015 0.046 -0.006 0.074 0.035 0.031 -0.02 0.022 -0.065 0.032 -0.065 0.021 -0.031 0.049 -0.014 0.063 -0.003 0.021 -0.012 0.017 -0.022 0.016 -0.086 0.081 -0.192 0.029 -0.085 0.004 -0.015 -0.002 -0.095 0.023 -0.014 0.134 0.046 0.058 -0.001 0.032 -0.019 0.01 -0.035 -0.017 -0.041 -0.095 -0.071 -0.169 -0.096 -0.155 -0.059 -0.286 0.009 -0.284 0.019 -0.083 -0.009 -0.104 -0.026 -0.255 0.004 -0.308 0.015 -0.117 -0.008 -0.058 0.001 -0.116 0.009 -0.189 -0.027 -0.131 -0.035 -0.116 -0.038 -0.137 -0.035 -0.033 0 -0.019 -0.013 -0.013 -0.031 -0.005 -0.04 0.029 -0.184 -0.025 -0.279 0.023 -0.102 -0.113 -0.23 -0.039 -0.043 -0.052 -0.002 -0.033 0.03 -0.013 0.054 0.019 0.06 -0.042 0.067 -0.083 0.022 -0.097 -0.023 -0.08 -0.031 -0.103 -0.068 -0.078 -0.096 -0.006 -0.106 -0.035 -0.069 -0.048 -0.033 -0.035 -0.009 -0.031 0.007 -0.028 0.037 0.024 0.037 0.033 0.052 -0.011 0.035 -0.03 0.006 -0.044 -0.015 -0.068 0.008 -0.066 -0.027 -0.04 -0.002 -0.039 -0.01 -0.002 -0.061 -0.061 -0.078 -0.102 -0.087 -0.1 -0.054 -0.048 0.007 -0.024 0.059 0.006 0.022 0.035 0.011 0.05 0.034 0.011 0.036 -0.007 0.032 -0.062 0.057 -0.044 0.054 -0.099 0.079 -0.084 0.091 -0.022 0.069 -0.032 0.062 -0.013 0.068 0.022 0.047 0.041 0.03 0.105 0.022 0.11 0.092 0.089 0.124 0.05 0.037 0.091 0.042 0.176 0.005 0.026 0.034 0.025 0.091 0.034 0.032 0.089 0.043 0.008 0.031 -0.022 0.036 -0.04 0.029 -0.073 0.018 -0.07 0.007 -0.07 -0.012 -0.104 -0.007 -0.118 -0.001 -0.083 0.227 -0.06 0.08 -0.034 0 -0.091 -0.039 -0.039 0.006 -0.105 0.202 -0.015 0.049 -0.007 0.037 0.056 0.078 0.066 0.064 0.079 0.025 0.062 -0.019 0.05 0.026 0.059 0.065 0.102 0.043 0.144 0.021 0.081 0.051 0.01 0.044 -0.007 0.045 -0.013 0.117 -0.014 0.067 -0.077 0.176 -0.055 0.152 0.029 0.072 0.02 0.029 0.019 0.023 0.062 0.057 0.043 0.056 -0.037 0.144 0.02 0.038 0.083 0.025 0.089 0.019 0.031 0.024 -0.078 0.146 0.016 0.102 0.033 0.095 0.024 0.156 0.004 0.016 -0.006 0.039 0.051 0.121 0.079 0.236 0.006 0.088 -0.004 0.093 -0.024 0.156 -0.079 -0.001 0.07 0.104 0.022 0.075 0.01 0.105 -0.085 0.013 -0.06 -0.012 -0.05 -0.092 -0.023 0.083 -0.089 0.077 -0.032 -0.038 -0.018 -0.04 -0.004 -0.071 0.049 -0.272 -0.01 -0.031 -0.022 -0.02 -0.049 -0.011 -0.018 -0.055 -0.075 0.29 0.033 0.118 -0.015 0.054 -0.139 0.045 -0.141 -0.109 -0.018 -0.035 -0.008 0.061 -0.025 0.075 -0.132 -0.013 -0.065 -0.058 0.043 -0.099 0.082 -0.239 0.015 -0.107 -0.109 -0.078 -0.093 -0.048 -0.053 -0.109 0.02 0.119 0.049 0.042 0.072 0.03 0.076 0.061 -0.055 0.074 -0.053 0.046 -0.102 0.176 -0.125 0.098 -0.146 0.074 -0.478 0.109 -0.1 0.044 -0.147 0.135 -0.095 0.129 -0.017 0.13 0.054 0.141 0.044 0.221 0.036 0.045 -0.051 0.08 -0.089 0.085 -0.073 0.115 0.007 0.063 -0.019 0.043 -0.252 0.142 -0.053 0.083 -0.069 0.082 -0.083 -0.047 -0.048 0.001 0.067 0.065 -0.009 0.043 -0.023 0.025 -0.063 0.024 -0.363 0.104 -0.278 0.099 -0.078 -0.004 0.014 -0.03 0.049 -0.027 -0.005 -0.113 -0.051 -0.021 -0.044 -0.008 -0.211 0.138 -0.086 0.137 0.018 0.026 0.048 -0.006 0.142 -0.078 0.066 0.022 0.005 0.03 -0.216 0.118 -0.455 0.383 -0.021 0.075 -0.059 0.085 -0.081 0.08 -0.147 0.195 -0.281 0.289 -0.078 0.108 -0.45 0.223 -0.082 0.066 -0.184 0.217 -0.19 0.178 -0.221 0.147 -0.384 0.188 -0.234 0.178 -0.073 0.118 -0.005 0.042 0.025 0.058 0.043 0.053 0.01 0.042 -0.021 0.076 -0.012 0.042 -0.068 0.104 -0.117 0.075 -0.38 0.156 -0.05 -0.005 -0.31 -0.031 -0.116 0.028 -0.048 0.073 -0.106 0.302 -0.102 0.08 -0.037 0.073 -0.015 0.05 -0.061 -0.001 -0.053 -0.023 -0.039 0.016 -0.044 -0.101 -0.074 -0.021 -0.061 -0.007 -0.262 0.102 -0.091 0.082 -0.192 0.387 -0.048 0.25 0.045 0.276 0.067 0.22 0.013 0.1 -0.009 0.129 -0.034 0.063 -0.025 0.074 0.032 0.153 0.081 0.201 0.02 0.085 0.002 0.088 0.061 0.201 -0.041 -0.036 -0.032 -0.084 -0.077 -0.108 -0.094 0.108 0.052 0.078 0.176 0.092 0.052 0.075 -0.113 0.671 -0.086 0.238 -0.106 0.156 -0.056 0.06 -0.123 0.247 -0.087 0.299 -0.017 0.115 0.039 0.129 -0.044 0.076 -0.056 0.058 0.106 -0.026 0.036 0.07 0.013 0.072 0.002 0.428 -0.012 0.446 -0.081 0.018 -0.09 0.005 -0.079 -0.013 -0.057 -0.017 -0.141 0.024 -0.076 0.049 -0.061 0.082 0.004 0.14 -0.262 0.352 -0.056 0.117 -0.021 0.113 0.034 0.059 0.067 0.06 0.087 0.024 0.168 0.024 0.081 0.032 0.055 0.06 -0.199 -0.064 -0.233 -0.013 -0.558 0.164 -0.147 0.115 -0.082 0.099 -0.056 0.227 -0.01 0.152 -0.066 0.127 -0.29 0.195 -0.183 0.06 -0.07 0.052 -0.216 -0.067 -0.236 -0.171 -0.099 -0.091 -0.35 -0.44 -0.064 -0.056 -0.071 -0.188 -0.011 -0.07 -0.019 -0.028 -0.033 -0.019 -0.016 -0.029 -0.079 -0.215 -0.032 -0.224 -0.05 -0.251 0.042 0.017 0.058 0.083 0.029 0.12 0.003 0.167 0.044 0.019 0.039 -0.016 -0.112 -0.386 -0.098 -0.096 -0.026 -0.006 -0.027 -0.062 -0.003 -0.078 0.009 -0.037 -0.078 -0.126 -0.027 -0.075 -0.174 -0.382 -0.078 -0.273 -0.121 -0.304 -0.078 -0.107 -0.122 -0.235 -0.102 -0.109 -0.108 -0.146 -0.085 -0.065 -0.033 -0.034 -0.251 -0.507 -0.077 -0.28 -0.065 -0.132 -0.032 -0.1 -0.088 -0.43 -0.001 -0.077 -0.011 -0.084 -0.062 -0.182 -0.11 -0.197 -0.032 -0.123 0 -0.048 -0.07 -0.191 -0.015 -0.087 -0.047 -0.081 -0.055 -0.074 -0.057 -0.059 -0.134 -0.193 -0.048 -0.047 -0.091 -0.125 -0.065 -0.232 -0.083 -0.091 0.131 0 -0.08 -0.085 -0.038 -0.056 -0.042 -0.034 0.061 -0.086 -0.1 0.002 -0.053 -0.052 -0.072 -0.162 -0.132 -0.183 -0.022 -0.098 -0.116 -0.308 -0.098 -0.739 -0.09 -0.329 0.007 -0.094 -0.109 -0.285 -0.053 -0.191 -0.022 -0.162 -0.029 -0.106 -0.026 -0.21 -0.042 -0.067 -0.005 -0.04 0.028 -0.096 0.078 -0.148 0.029 -0.094 -0.033 -0.132 -0.071 0.139 -0.066 0.039 -0.032 -0.104 0 -0.139 -0.008 -0.033 0.017 -0.047 0.176 0.021 -0.199 -0.086 -0.024 -0.05 -0.008 -0.037 0.043 -0.069 -0.073 -0.058 -0.029 -0.179 -0.021 -0.041 -0.008 -0.033 0.041 -0.247 0.172 -0.485 0.013 -0.11 -0.015 -0.156 -0.038 -0.124 -0.016 -0.131 -0.01 -0.034 -0.062 -0.012 -0.059 -0.048 -0.069 -0.194 0.063 -0.064 0.048 -0.035 -0.066 0.015 -0.055 -0.006 0.104 -0.089 0.093 -0.069 0.212 -0.08 0.09 -0.051 -0.133 0.046 -0.139 0.017 -0.297 -0.009 0.049 -0.181 0.052 -0.06 0.056 -0.034 -0.083 0.01 -0.095 -0.015 0.031 -0.184 0.075 -0.04 0.081 -0.008 0.1 -0.026 -0.107 -0.03 -0.112 -0.015 -0.134 0.03 -0.123 -0.022 -0.15 0 0.06 0.025 0.064 0.056 -0.032 0.099 -0.03 0.062 -0.083 0.043 -0.067 0.065 -0.019 0.057 -0.038 0.04 0.066 0.028 0.068 0.02 0.039 0.046 0.046 0.067 -0.003 0.13 -0.177 0.307 -0.061 0.068 -0.444 0.185 -0.175 0.101 -0.372 0.131 -0.145 0.024 -0.16 -0.026 -0.234 -0.1 -0.358 -0.254 -0.093 -0.084 -0.286 -0.327 -0.206 -0.173 -0.157 -0.161 -0.194 -0.152 -0.183 -0.205 -0.039 -0.094 0.014 -0.095 0.068 -0.052 0.08 0.021 0.063 0.08 0.045 0.036 0.038 0.015 0.273 -0.123 0.106 0.005 0.072 -0.062 0.092 0.013 0.187 -0.096 0.078 -0.006 0.093 -0.019 0.15 -0.243 0.113 -0.155 0.073 -0.032 -0.004 -0.038 -0.02 -0.049 -0.055 0.012 -0.038 0.047 -0.028 0.057 -0.029 0.034 -0.088 -0.031 -0.059 0.005 -0.073 0.019 -0.268 0.091 -0.11 0.081 -0.075 0.016 -0.429 -0.089 -0.419 -0.205 -0.176 -0.136 -0.112 -0.174 -0.112 -0.207 0.036 -0.058 0.173 -0.125 0.15 -0.098 -0.134 0.044 -0.146 0.06 -0.072 0.042 -0.082 0.089 -0.108 0.02 -0.043 -0.132 z M 93.89 -6.831 l -0.061 0.082 -0.12 -0.252 -0.051 -0.015 -0.002 -0.12 0.028 -0.047 0.138 -0.053 0.037 0.03 0.071 0.233 z M 93.734 -7.356 l -0.095 0.095 -0.041 -0.057 0.017 -0.039 0.04 -0.022 0.038 -0.031 z M 93.141 -8.25 l 0.03 0.037 -0.055 -0.006 -0.051 -0.056 0.013 -0.053 0.019 -0.021 z M 93.443 -7.878 l -0.078 0.001 -0.023 -0.043 -0.033 -0.045 0.025 -0.043 0.041 -0.011 0.058 0.07 0.014 0.049 z M 93.537 -8.057 l -0.047 0.037 -0.012 -0.005 -0.006 -0.028 -0.002 -0.02 -0.008 -0.036 -0.005 -0.063 0.038 -0.053 0.038 0.011 -0.02 0.054 z M 92.788 -9.137 l -0.044 0.006 -0.027 -0.034 -0.003 -0.04 0.025 -0.026 0.024 -0.013 0.024 0.003 0.024 0.067 z M 92.503 -10.555 l -0.03 0.034 -0.103 -0.027 0.008 -0.103 -0.024 -0.101 0.018 -0.042 0.077 -0.072 0.063 -0.032 0.044 0.098 0.02 0.096 z M 92.693 -11.381 l -0.049 0.02 -0.049 -0.025 0.038 -0.04 0.006 -0.082 0.05 0.046 -0.003 0.052 z M 92.723 -11.536 l -0.022 0.024 -0.032 -0.026 -0.093 -0.179 -0.016 -0.115 -0.026 -0.04 0.033 -0.057 0.041 -0.019 0.024 -0.064 0.009 -0.098 0.036 -0.08 0.018 -0.022 0.075 -0.001 0.019 -0.01 -0.011 -0.077 -0.044 -0.033 -0.015 -0.021 0.002 -0.184 0.011 -0.074 0.027 -0.053 -0.019 -0.111 0.013 -0.041 0.054 -0.058 0.024 -0.124 -0.022 -0.037 0.051 -0.191 -0.003 -0.128 0.067 -0.128 0.105 -0.058 0.033 -0.002 0.004 0.109 0.01 0.036 -0.061 0.065 0.058 0.084 -0.008 0.031 -0.023 0.067 -0.038 0.066 -0.053 0.027 -0.041 0.087 -0.024 0.033 0.079 0.092 0.025 0.312 -0.058 0.085 -0.069 0.017 0.016 0.208 -0.012 0.046 -0.068 0.102 -0.013 0.045 -0.039 0.042 0.016 0.052 0.033 0.023 0.001 0.043 -0.031 0.11 -0.002 0.125 z M 93.017 -12.037 l 0.045 0.137 -0.08 -0.06 -0.026 -0.043 0.04 -0.029 z M 92.718 -12.865 l -0.032 0.065 -0.006 -0.139 0.015 -0.018 0.016 -0.005 0.02 0.013 z M 72.78 -11.202 l -0.007 0.006 -0.001 -0.018 0.009 -0.029 0.011 -0.019 0.003 0.002 -0.003 0.019 -0.005 0.026 z M 73.067 -8.269 l -0.014 0.012 -0.014 0.005 -0.01 -0.002 -0.005 -0.012 0.003 -0.009 0.013 0.01 0.017 -0.01 0.019 -0.032 0.004 -0.01 0.004 0.005 -0.004 0.018 z" vector-effect="non-scaling-stroke" fill="#000" fill-opacity="1" stroke="#FFF" stroke-width="0px" stroke-linejoin="round" stroke-linecap="round"/></svg>
