<svg xmlns="http://www.w3.org/2000/svg" xmlns:xlink="http://www.w3.org/1999/xlink" height="400" width="400" viewBox="96.82587890625 10.4306640625 8.89951171874998 1.76914062500001"><path d="M 105.725 10.493 l -0.029 0.071 -0.053 -0.039 -0.06 -0.013 0.012 -0.053 0.05 -0.007 0.024 -0.003 0.036 -0.019 z M 96.84 12.182 l 0.012 0.005 0.015 -0.005 0.006 0.006 -0.024 0.01 -0.015 -0.018 -0.007 -0.029 -0.002 -0.025 0.007 0 0 0.01 0.002 0.008 0.005 0.016 -0.004 0.011 z M 96.918 12.194 l -0.012 0.006 -0.01 -0.004 -0.003 -0.003 -0.001 -0.005 0.011 -0.001 0.009 -0.005 0.006 -0.008 0.002 -0.012 0.005 0.012 -0.001 0.011 z" vector-effect="non-scaling-stroke" fill="#000" fill-opacity="1" stroke="#FFF" stroke-width="0px" stroke-linejoin="round" stroke-linecap="round"/></svg>
