<svg xmlns="http://www.w3.org/2000/svg" xmlns:xlink="http://www.w3.org/1999/xlink" height="400" width="400" viewBox="95.206640625 -5.90703124999999 45.76953125 16.81669921875"><path d="M 97.482 -1.465 l 0.217 0.281 0.088 0.038 0.117 0.128 0.029 0.044 -0.03 0.09 -0.026 0.256 -0.056 0.064 -0.136 -0.032 -0.001 -0.045 -0.079 -0.193 -0.143 -0.108 -0.056 -0.006 -0.037 -0.11 -0.072 -0.13 -0.218 -0.238 0.165 0.002 0.08 -0.058 0.018 -0.046 0.013 -0.012 z M 99.164 1.778 l -0.092 0.006 -0.197 -0.12 -0.047 -0.054 -0.011 -0.072 -0.189 -0.277 -0.025 -0.063 0.074 -0.227 0.193 -0.055 0.064 0.038 0.022 0.102 0.11 0.184 0.036 0.099 0.027 0.044 0.012 0.034 -0.01 0.024 0.08 0.117 0.057 0.068 0.004 0.111 z M 116.641 8.614 l -0.127 0.207 0.045 0.033 0.027 0.032 -0.209 0.043 -0.087 -0.023 -0.05 0.006 -0.213 -0.039 -0.152 -0.048 -0.017 -0.038 0.012 -0.045 0.045 0.015 0.117 0.007 0.045 -0.02 0.001 -0.134 -0.017 -0.174 0.159 -0.142 0.084 -0.057 0.097 -0.034 0.245 0.079 0.041 0.021 0.031 0.032 0.015 0.051 z M 115.448 8.155 l 0.102 0.053 0.142 0.155 0.013 0.044 -0.043 0.041 -0.101 0.066 -0.226 0.102 -0.039 0.048 -0.048 0.094 -0.011 0.04 -0.016 0.022 -0.026 0.016 -0.049 0.014 -0.053 -0.02 0.048 -0.06 0.002 -0.072 -0.036 -0.067 -0.051 -0.056 -0.103 -0.077 -0.11 -0.068 -0.111 -0.035 -0.118 -0.016 -0.042 -0.033 -0.069 -0.085 -0.023 -0.046 -0.011 -0.048 0.008 -0.047 0.029 -0.003 0.116 0.011 0.213 0.055 0.105 0.004 0.06 -0.013 0.156 -0.109 0.037 0.002 0.149 0.048 z M 106.046 1.669 l 0.034 0.069 0.047 0.062 0.035 0.067 0.047 0.322 0.157 0.276 0.453 0.108 -0.074 0.045 -0.038 0.04 -0.028 0.046 -0.067 0.192 0.007 0.041 0.039 0.065 0.01 0.071 -0.057 0 -0.064 -0.016 -0.051 -0.027 -0.047 -0.035 -0.051 -0.028 -0.056 -0.018 -0.092 -0.055 -0.124 -0.039 -0.127 -0.03 -0.062 -0.081 -0.029 -0.1 0.031 -0.15 -0.031 -0.042 -0.045 -0.037 -0.056 -0.108 -0.021 -0.126 -0.081 -0.049 -0.106 -0.029 -0.046 -0.024 -0.21 0.046 -0.05 -0.011 -0.045 -0.035 -0.114 -0.037 0.004 -0.07 0.053 -0.056 0.125 -0.056 0.059 -0.047 0.012 -0.062 -0.022 -0.046 0.009 -0.048 0.04 -0.046 0.047 -0.036 0.126 -0.048 0.055 0.084 0.027 0.07 0.033 0.051 0.054 -0.072 -0.034 -0.125 0.096 -0.028 0.094 -0.001 0.071 0.034 0.046 0.054 z M 123.18 4.551 l 0.023 0.215 -0.007 0.056 -0.056 -0.083 -0.02 -0.017 -0.015 0.017 -0.02 0.009 -0.029 -0.001 -0.037 0.083 -0.003 0.079 -0.028 0.053 -0.015 0.175 0.009 0.047 0.044 -0.023 0.027 -0.006 0.098 0.068 0.052 0.049 -0.015 0.06 -0.067 0.06 -0.077 0.026 -0.058 -0.026 -0.017 0.012 -0.034 0.031 -0.026 0.041 0.007 0.042 -0.066 0.119 -0.038 0.033 -0.079 -0.036 -0.049 0.031 -0.039 -0.003 -0.06 -0.119 0.001 -0.056 0.056 -0.063 0 -0.045 0.028 -0.05 0.061 -0.069 0.035 -0.052 0.001 -0.033 0.026 -0.125 0.01 -0.052 0.018 -0.056 0.028 -0.113 0.004 -0.213 0.094 -0.176 0.091 -0.048 0.036 -0.008 -0.006 0.047 z M 122.645 5.269 l -0.026 0.066 -0.055 0.052 -0.044 0.004 -0.046 -0.011 -0.082 -0.045 -0.021 0.048 -0.064 -0.002 -0.024 -0.061 0.046 -0.182 0.067 -0.068 -0.006 -0.071 -0.056 -0.152 0.034 -0.079 0.155 -0.06 0.136 -0.073 0.042 -0.015 0.038 0.056 0.02 0.259 -0.146 0.205 z M 108.316 -3.69 l -0.136 0.037 -0.079 -0.051 0.086 -0.063 0.03 -0.004 0.02 -0.012 0.007 -0.026 -0.155 -0.042 -0.044 -0.037 -0.042 -0.094 0.001 -0.06 0.198 -0.158 0.046 -0.017 0.007 0.065 0.137 0.166 0.006 0.11 -0.005 0.04 z M 108.207 2.998 l -0.015 0.105 -0.025 0.04 -0.084 0.052 -0.028 0.032 -0.078 -0.005 -0.01 -0.055 -0.026 -0.037 -0.083 -0.043 -0.022 0.01 -0.015 0.064 -0.162 0.045 -0.045 0.004 0.022 -0.085 -0.042 -0.066 -0.003 -0.082 -0.008 -0.036 -0.02 -0.021 0.041 -0.057 -0.007 -0.063 0.043 -0.068 0.025 -0.165 0.171 -0.036 0.037 0.029 0.2 0.037 0.141 0.1 0.075 0.133 z M 135.383 0.651 l 0.213 0.039 0.078 -0.002 0.076 0.044 0.092 -0.021 0.052 0.014 0.175 0.152 0.086 0.101 0.128 0.086 0.093 0.029 -0.07 0.079 -0.141 0.042 -0.054 0.002 -0.108 -0.047 -0.088 0.009 -0.076 -0.059 -0.013 -0.091 -0.079 -0.205 -0.101 0.059 -0.122 -0.095 -0.033 -0.002 -0.008 0.016 -0.052 -0.032 -0.044 -0.064 z M 135.474 1.592 l 0.395 0.05 0.107 -0.006 0.225 0.019 0.188 0.067 0.329 0.012 0.098 0.02 0.076 0.046 -0.184 0.038 -0.087 0.035 -0.161 0.017 -0.135 -0.018 -0.098 0.021 -0.036 -0.034 -0.143 -0.035 -0.183 -0.072 -0.378 -0.084 -0.018 -0.052 z M 130.813 0.004 l 0.173 0.042 0.039 -0.007 0.251 0.11 0.04 0.054 -0.014 0.037 0.037 0.049 -0.082 0.075 -0.04 0.008 -0.04 -0.028 -0.08 -0.016 -0.092 0.031 -0.059 -0.023 -0.05 -0.069 -0.088 -0.042 -0.125 -0.146 -0.061 0.005 0.016 0.057 0.053 0.038 0.07 0.111 0.04 0.011 0.042 -0.004 0.056 0.046 -0.003 0.072 -0.146 0.028 -0.05 -0.052 -0.011 -0.095 -0.082 0.032 -0.032 0.033 -0.024 0.005 -0.054 -0.099 -0.156 -0.005 -0.104 -0.053 0.051 -0.055 0.007 -0.053 0.068 -0.029 0.068 0.026 0.069 -0.038 0.049 0.01 0.036 -0.025 0.138 -0.016 z M 128.454 -2.052 l -0.158 0.017 -0.036 -0.048 -0.042 -0.215 0.112 -0.172 0.142 -0.101 0.097 -0.026 0.033 -0.002 0.086 0.124 -0.065 0.249 -0.076 0.127 z M 128.153 1.661 l -0.061 0.041 -0.031 0.011 -0.147 -0.027 -0.173 0.006 -0.179 0.038 -0.104 -0.032 -0.065 -0.052 0.003 -0.055 0.062 -0.136 0.135 -0.103 0.055 -0.018 0.096 0.028 0.162 0.079 0.128 0.093 0.116 0.072 z M 126.055 2.451 l -0.017 0.018 -0.06 -0.054 -0.04 -0.153 -0.034 -0.041 -0.04 -0.145 0.01 -0.041 0.05 -0.061 0.04 0.001 0.03 0.036 -0.017 0.156 0.09 0.198 z M 126.024 1.79 l 0.308 0.033 -0.044 0.036 -0.332 0.058 -0.118 -0.01 -0.36 0.034 -0.047 -0.002 -0.007 -0.056 -0.039 -0.039 0.058 -0.034 0.076 -0.008 0.199 0.013 z M 124.97 1.705 l 0.093 0.036 0.033 0 0.031 -0.042 0.019 -0.007 0.042 0.02 0.01 0.067 0.061 -0.009 0.047 0.023 0.015 0.016 -0.006 0.067 -0.179 0.012 -0.128 0.054 -0.172 -0.049 -0.195 0.084 -0.119 0.029 -0.103 -0.002 -0.088 -0.146 0.051 -0.171 0.037 -0.028 0.065 -0.015 0.181 -0.008 z M 131.326 8 l -0.016 0.011 -0.124 -0.013 -0.071 0 0.01 -0.075 -0.037 -0.057 0.05 -0.083 0.001 -0.097 0.052 -0.013 0.007 -0.055 0.063 -0.146 0.037 -0.032 0.052 -0.013 0.062 -0.085 0.035 -0.025 0.036 -0.065 0.053 -0.03 -0.004 -0.055 0.03 -0.029 0.083 -0.023 0.057 0.027 0.035 0.057 -0.092 0.07 0.047 0.172 -0.067 0.187 -0.044 0.056 -0.082 0.048 -0.025 0.046 -0.096 0.092 -0.029 0.079 -0.004 0.033 z M 126.801 7.668 l 0.013 0.049 -0.002 0.021 -0.12 0.016 -0.116 0.054 -0.059 0.062 -0.046 0.08 -0.159 -0.033 -0.142 -0.005 -0.063 -0.028 -0.068 0.002 -0.088 0.025 -0.125 0.068 -0.028 0.005 0.01 -0.104 0.035 -0.064 0.132 -0.153 0.11 0.034 0.128 0.009 0.146 -0.03 0.104 -0.069 0.147 -0.036 0.117 0.09 z M 124.576 8.141 l 0.024 0.061 0.077 -0.034 0.075 -0.008 0.172 0.006 0.126 0.014 0.074 0.025 0.007 0.122 -0.035 0.026 -0.653 0.092 -0.064 -0.029 -0.025 -0.029 0.07 -0.09 -0.032 -0.043 0.037 -0.07 0.078 -0.048 z M 131.002 1.316 l -0.035 0.028 -0.121 -0.026 -0.063 -0.062 -0.043 -0.083 -0.027 -0.068 -0.008 -0.054 -0.036 -0.066 0.005 -0.024 0.224 -0.07 0.042 0.025 0.094 0.002 0.041 0.051 -0.028 0.22 z M 96.493 -5.229 l 0.123 0.009 0.227 -0.054 0.125 0.005 0.118 0.039 0.105 0.023 0.261 -0.029 0.049 0.008 0.047 0.022 0.04 0.035 0.119 0.13 0.202 0.16 0.058 0.102 0.033 0.115 0.021 0.027 0.228 0.221 0.025 0.092 -0.032 0.128 0.066 0.102 0.221 0.095 0.13 0.069 0.028 0.043 0.019 0.051 0.072 0.075 0.091 0.049 0.283 0.129 0.37 0.27 0.211 0.128 0.174 0.195 0.063 0.093 0.052 0.101 0.106 0.147 0.18 0.181 0.046 0.055 0.048 0.08 0.056 0.074 0.067 0.068 0.08 0.052 0.082 0.017 0.132 0.131 0.071 0.041 -0.011 -0.102 -0.06 -0.09 0.001 -0.054 0.01 -0.048 0.049 -0.041 0.059 -0.011 0.11 0.037 0.179 0.155 0.076 0.09 0.057 0.125 0.047 0.13 0.072 0.064 0.098 0.023 0.109 0.009 0.1 0.04 0.235 0.179 0.078 0.084 0.059 0.099 0.041 0.117 0.025 0.123 0.016 0.028 0.151 0.148 0.079 0.063 0.097 0.03 0.283 0.033 0.1 0.051 0.083 0.085 0.035 0.087 -0.059 0.077 -0.221 0.118 -0.236 0.081 0.23 -0.028 0.116 -0.034 0.107 -0.053 0.106 -0.068 0.168 -0.095 0.062 -0.019 0.073 0.007 0.067 0.027 0.1 0.093 0.094 0.098 0.07 0.115 0.044 0.127 -0.08 0.067 -0.117 0.049 -0.161 0.123 -0.017 0.049 0.033 0.031 -0.039 0.091 0.09 0.056 0.014 0.047 -0.078 0.068 0.007 0.042 0.094 0.179 0.045 0.041 0.144 0.091 0.219 0.092 0.121 0.042 0.137 0.033 0.059 -0.001 0.103 -0.015 0.021 0.036 0.044 0.176 0.021 0.112 0.031 0.238 0.04 0.099 -0.003 0.121 0.053 0.102 0.108 0.065 0.115 0.054 0.054 0.052 -0.001 0.079 -0.018 0.062 -0.039 0.049 -0.119 0.103 -0.021 0.044 -0.017 0.113 0.02 0.052 0.048 0.003 0.037 -0.027 0.143 -0.152 0.039 -0.027 0.054 -0.021 0.055 -0.013 0.261 -0.001 0.11 0.024 0.098 0.05 0.087 0.062 0.317 0.396 0.145 0.218 0.011 0.054 0.003 0.057 -0.025 0.044 -0.132 0.149 -0.016 0.041 -0.041 0.162 0.008 0.117 0.044 0.049 0.035 0.053 -0.003 0.048 -0.087 0.24 -0.009 0.041 0.055 0.391 0.004 0.106 -0.011 0.134 0.008 0.216 -0.071 0.667 -0.013 0.04 -0.054 0.102 -0.072 -0.001 -0.058 -0.018 -0.041 -0.039 -0.022 -0.048 -0.033 -0.04 -0.173 -0.123 -0.045 0.021 -0.176 0.153 -0.047 0.023 -0.059 -0.019 -0.092 -0.046 -0.291 -0.161 -0.018 0.051 -0.004 0.07 0.058 0.175 0.008 0.076 -0.053 0.015 -0.029 -0.003 -0.121 -0.101 -0.111 -0.112 -0.127 -0.152 -0.092 -0.072 -0.084 -0.081 -0.235 -0.306 -0.061 -0.047 -0.365 -0.216 -0.074 -0.051 -0.093 -0.09 -0.1 -0.079 -0.22 -0.125 -0.381 -0.319 -0.166 -0.183 -0.184 -0.295 -0.06 -0.075 -0.31 -0.221 -0.169 -0.134 -0.07 -0.077 -0.164 -0.268 -0.048 -0.09 -0.061 -0.08 -0.099 -0.065 -0.088 -0.076 -0.174 -0.243 -0.055 -0.097 -0.042 -0.105 0.007 -0.21 -0.369 -0.635 -0.093 -0.198 -0.086 -0.275 -0.019 -0.028 -0.201 -0.246 -0.071 -0.079 -0.086 -0.074 -0.071 -0.086 -0.139 -0.281 -0.051 -0.078 -0.072 -0.057 -0.263 -0.106 -0.098 -0.059 -0.077 -0.084 -0.047 -0.107 -0.052 -0.227 -0.124 -0.346 -0.139 -0.463 -0.094 -0.207 -0.107 -0.163 -0.031 -0.038 -0.478 -0.293 -0.081 -0.043 -0.087 -0.026 -0.124 -0.019 -0.094 -0.076 -0.039 -0.136 -0.021 -0.182 -0.024 -0.109 -0.026 -0.061 -0.2 -0.129 -0.078 -0.102 -0.065 -0.112 -0.06 -0.087 -0.219 -0.299 -0.075 -0.079 -0.093 -0.055 -0.276 -0.058 -0.081 -0.05 -0.134 -0.17 -0.081 -0.086 -0.242 -0.191 -0.409 -0.399 -0.084 -0.099 -0.063 -0.104 -0.051 -0.111 -0.175 -0.308 0.014 -0.062 0.026 -0.065 -0.004 -0.054 -0.019 -0.053 0.004 -0.048 0.052 -0.028 0.117 -0.036 0.121 0.004 0.112 0.016 0.108 0.03 0.104 0.065 0.186 0.163 0.106 0.057 0.118 0.027 z M 122.783 8.612 l -0.141 0.036 -0.088 0.034 -0.084 0.045 -0.053 0.009 -0.096 0.004 -0.136 -0.008 -0.092 0.014 -0.255 0.116 -0.1 0.01 -0.087 0.028 -0.03 -0.045 -0.037 -0.033 -0.085 -0.008 -0.085 0.003 -0.086 0.102 -0.137 -0.021 -0.053 0.009 -0.051 0.021 -0.051 0.009 -0.053 -0.007 -0.201 -0.079 -0.23 -0.047 -0.231 0.018 -0.199 -0.043 -0.109 0.033 -0.103 0.047 -0.03 -0.05 -0.038 -0.044 -0.033 -0.066 -0.001 -0.075 0.011 -0.052 0.029 -0.048 0.018 -0.05 0.009 -0.053 0.043 0.025 0.046 -0.01 0.135 -0.058 0.132 -0.088 0.123 -0.032 0.071 -0.009 0.061 0.017 0.062 -0.006 0.063 -0.019 0.099 0.067 0.042 0.014 0.135 0.005 0.123 0.039 0.109 0.058 0.158 0.054 0.095 0.073 0.073 0.027 0.054 0.007 0.05 -0.01 0.062 -0.049 0.073 -0.02 0.064 0.001 0.116 -0.013 0.049 -0.012 0.055 -0.027 0.054 0.017 0.047 0.025 0.196 0.128 0.06 0.003 0.11 -0.028 0.033 -0.034 0.017 -0.053 0.03 -0.044 0.042 -0.038 0.048 -0.029 0.146 -0.049 0.1 -0.049 0.069 -0.083 -0.161 -0.036 0.034 -0.059 0.053 -0.033 0.071 0.012 0.061 0.046 0.028 0.177 -0.05 0.025 -0.032 0.027 -0.021 0.035 -0.091 0.065 0.036 0.081 -0.027 0.033 z M 120.013 9.375 l 0.045 0.045 0.163 0.087 0.027 0.037 0.01 0.06 0.033 0.045 0.074 0.007 0.079 -0.009 0.06 0.028 0.052 0.045 0.077 0.087 0.068 0.097 0.084 0.054 0.048 0.08 -0.028 0.071 -0.106 0.098 -0.058 0.021 -0.079 0.008 -0.123 0.058 -0.045 -0.031 -0.139 -0.021 -0.111 -0.042 -0.093 -0.077 -0.054 -0.083 -0.068 -0.073 -0.118 -0.049 -0.212 -0.144 -0.131 -0.013 -0.054 0.011 -0.054 0.001 -0.277 -0.065 -0.043 -0.038 -0.034 -0.049 -0.031 -0.048 -0.019 -0.054 0.035 -0.047 0.037 -0.032 0.154 -0.056 0.11 -0.017 0.128 0.003 0.191 -0.017 0.18 0.028 0.056 -0.021 0.091 -0.058 0.032 0.02 z M 118.242 8.318 l 0.05 0.039 0.046 -0.004 0.095 -0.06 0.057 -0.022 0.062 -0.001 0.06 0.01 0.059 0.043 0.021 0.07 0.022 0.021 0.034 -0.084 0.046 -0.025 0.051 -0.013 0.08 0.005 0.062 0.04 0.056 0.119 -0.002 0.104 0.02 0.039 0.039 0.028 0.029 0.04 -0.025 0.042 -0.025 0.021 -0.073 0.019 -0.035 -0.008 -0.032 -0.028 -0.036 -0.01 -0.082 0.009 -0.075 0.023 0.01 0.038 0.062 0.017 0.019 0.018 -0.004 0.025 -0.024 0.005 -0.08 -0.033 -0.054 0.007 -0.195 0.045 -0.052 -0.001 -0.029 -0.042 0.002 -0.11 -0.021 -0.029 -0.145 0.133 -0.044 0.033 -0.058 0.015 -0.061 -0.005 -0.209 0.081 -0.066 -0.011 -0.064 0 -0.224 0.088 -0.12 0.024 -0.062 0.002 -0.061 -0.008 -0.055 0.008 -0.049 0.035 -0.1 0.03 -0.103 -0.023 -0.087 -0.03 -0.083 -0.04 -0.021 -0.051 0.004 -0.061 0.035 -0.083 -0.024 -0.146 0.018 -0.067 0.034 -0.066 0.051 -0.024 0.067 -0.005 0.111 -0.059 0.101 -0.077 0.059 0.007 0.133 0.054 0.078 0.006 0.133 -0.009 0.055 0.033 0.022 0.076 0.029 0.028 0.039 0.019 0.094 0.129 0.087 -0.007 0.076 0.024 0.135 -0.078 0.102 0.002 0.029 -0.06 -0.061 -0.064 -0.074 -0.052 -0.039 -0.011 -0.043 0.003 -0.039 -0.008 -0.164 -0.117 -0.048 -0.063 -0.028 -0.074 0.017 -0.055 0.113 -0.049 0.053 -0.012 0.196 0.033 0.033 0.028 0.052 0.117 z M 124.889 -0.995 l -0.191 0.17 -0.058 0.082 -0.051 0.088 -0.075 0.098 -0.087 0.087 -0.043 0.026 -0.106 0.047 -0.061 0.018 -0.115 0.006 -0.348 0.069 -0.114 0.008 -0.114 -0.003 -0.216 -0.017 -0.045 -0.009 -0.086 -0.089 -0.097 -0.07 -0.086 -0.008 -0.087 0.008 -0.629 0.005 -0.22 0.013 -0.219 0.031 -0.119 -0.014 -0.118 -0.035 -0.089 -0.012 -0.09 0.004 -0.413 0.053 -0.104 -0.005 -0.209 -0.068 -0.121 -0.014 -0.119 0.018 -0.111 0.061 -0.042 0.041 -0.115 0.14 -0.065 0.102 -0.049 0.127 -0.042 0.13 -0.023 0.106 -0.001 0.111 0.02 0.125 0.031 0.124 0.035 0.094 0.143 0.218 0.029 0.031 0.156 0.061 0.092 0.079 0.088 0.219 0.062 0.112 0.061 0.001 0.068 -0.008 0.119 0.014 0.118 0.029 0.115 -0.067 0.064 -0.127 0.064 -0.094 0.154 -0.18 0.088 -0.083 0.056 -0.027 0.057 0.012 0.048 0.048 0.057 0.038 0.115 0.02 0.117 -0.013 0.124 -0.058 0.044 -0.036 0.037 -0.046 0.105 -0.037 0.25 0 0.129 0.013 0.23 -0.015 -0.003 -0.033 -0.044 -0.035 -0.012 -0.028 0.043 -0.018 0.148 -0.041 0.151 -0.029 0.11 0.021 0.098 0.057 0.038 0.059 0.017 0.071 -0.038 0.183 -0.018 0.042 -0.078 0.022 -0.074 -0.024 -0.073 -0.095 -0.103 -0.035 -0.147 0.029 -0.05 0.027 -0.045 0.038 -0.083 0.098 -0.069 0.111 -0.149 0.173 -0.172 0.15 -0.083 0.057 -0.093 0.039 -0.299 0.099 -0.079 0.074 -0.061 0.096 -0.068 0.033 -0.078 0.01 -0.059 -0.018 -0.119 -0.054 -0.039 0.044 -0.007 0.068 0.059 0.024 0.094 0.075 0.073 0.106 0.047 0.023 0.104 0.034 0.044 0.033 0.079 0.091 0.124 0.211 0.042 0.114 0.069 0.093 0.209 0.158 0.012 0.045 -0.013 0.052 0.016 0.047 0.075 0.091 0.018 0.058 -0.082 0.074 -0.004 0.108 -0.05 0.145 -0.011 0.049 0.002 0.044 0.035 0.041 0.041 0.033 0.056 0.017 0.049 0.028 0.095 0.113 0.049 0.03 0.031 0.041 -0.003 0.061 0.043 0.036 0.04 0.064 0.061 0.016 0.028 -0.018 0.019 -0.027 0.05 0.01 0.029 0.045 0.017 0.057 0.005 0.063 -0.002 0.12 -0.025 0.043 -0.055 -0.002 -0.098 -0.049 -0.005 0.036 0.007 0.034 -0.05 0.011 -0.057 -0.005 -0.143 0.005 -0.264 0.074 -0.093 0.044 -0.06 0.08 -0.004 0.055 0.023 0.116 -0.035 0.041 -0.121 0.016 -0.169 -0.031 -0.102 -0.031 -0.057 -0.026 -0.074 -0.078 -0.028 -0.1 0.055 -0.298 0.016 -0.038 0.027 -0.034 0.028 -0.054 0.007 -0.064 -0.081 -0.078 -0.122 -0.031 -0.103 -0.065 -0.398 -0.364 -0.022 -0.035 -0.001 -0.06 0.016 -0.056 0.131 -0.199 0.016 -0.038 0.016 -0.157 -0.004 -0.129 -0.015 -0.129 -0.062 -0.081 -0.111 -0.025 -0.114 -0.004 -0.111 0.026 -0.11 0.065 -0.203 0.137 -0.08 0.08 -0.007 0.104 0.046 0.101 0.06 0.093 0.032 0.101 0.044 0.359 -0.001 0.041 -0.052 0.104 -0.021 0.233 0.022 0.329 0.036 0.202 -0.015 0.11 -0.095 0.236 -0.029 0.129 -0.002 0.053 0.112 0.246 0.026 0.097 0.014 0.101 -0.119 -0.049 -0.055 0.003 -0.056 0.015 -0.124 0.016 -0.125 0.002 -0.044 0.019 -0.089 0.066 -0.054 0.026 -0.047 0.005 -0.16 -0.082 -0.094 -0.089 -0.087 -0.097 -0.016 -0.111 0.03 -0.114 0.043 -0.121 0.086 -0.202 -0.004 -0.135 0.029 -0.111 0.049 -0.108 0.018 -0.1 0.012 -0.389 -0.012 -0.035 -0.118 -0.231 -0.014 -0.039 -0.001 -0.062 0.013 -0.06 0.003 -0.054 -0.027 -0.041 -0.048 -0.038 -0.058 -0.016 -0.122 0.016 -0.245 0.062 -0.072 -0.055 -0.054 -0.085 -0.035 -0.118 -0.02 -0.124 0.009 -0.116 0.036 -0.112 -0.029 -0.078 -0.045 -0.085 0 -0.044 0.026 -0.038 0.044 -0.032 0.054 -0.019 0.051 -0.034 0.134 -0.115 0.043 -0.101 0.003 -0.124 0.034 -0.118 0.069 -0.109 0.081 -0.101 0.026 -0.104 -0.04 -0.166 0.016 -0.075 -0.014 -0.089 -0.001 -0.088 0.05 -0.165 0.149 -0.337 0.145 -0.179 0.058 -0.047 0.075 0.083 0.058 0.098 0.001 -0.089 -0.015 -0.087 -0.058 -0.203 -0.05 -0.395 0.014 -0.037 0.051 0.006 0.052 -0.035 0.027 -0.062 -0.054 -0.147 -0.002 -0.052 0.104 -0.206 0.085 -0.075 0.037 -0.046 0.021 -0.126 0.044 -0.048 0.056 -0.034 0.073 -0.087 0.04 -0.11 0.024 -0.008 0.029 -0.004 0.044 0.096 0.05 0.039 0.101 0.031 0.086 -0.037 0.024 -0.048 0.032 -0.041 0.052 -0.043 0.044 -0.049 0.049 -0.114 0.064 -0.104 0.044 -0.036 0.053 -0.023 0.059 -0.014 0.057 -0.002 0.127 0.065 0.073 0.013 0.075 -0.005 0.047 0.011 0.036 0.029 0.033 0.059 0.041 0.051 0.037 0.025 0.041 0.012 0.276 -0.021 0.241 0.057 0.328 0.013 0.113 0.034 0.108 0.044 0.132 0.078 0.048 0.017 0.054 -0.004 0.068 -0.073 0.053 -0.016 0.054 -0.003 0.212 0.014 0.569 0.09 0.084 -0.012 0.343 -0.172 0.137 -0.163 0.123 -0.045 0.042 -0.074 0.025 -0.088 0.044 -0.024 0.103 -0.025 0.041 -0.026 0.073 -0.108 0.086 -0.096 0.042 -0.029 0.122 0.015 0.054 0.042 0.069 0.141 -0.012 0.024 -0.081 0.07 -0.023 0.029 -0.089 0.199 -0.061 0.098 z M 107.374 6.008 l 0.101 0.114 0.088 0.061 0.104 0.033 0.109 0.003 0.108 0.014 0.125 0.044 0.129 0.02 0.06 -0.008 0.057 -0.022 0.041 -0.002 0.035 0.021 0.089 0.097 0.097 0.088 0.022 0.045 0.066 0.213 0.074 0.061 0.102 0.018 0.12 0 0.119 0.009 0.276 0.05 0.109 -0.007 0.097 -0.05 0.086 0.032 0.234 0.06 0.115 0.013 0.131 -0.017 0.131 -0.004 0.063 0.017 0.06 0.026 0.052 0.009 0.054 0 0.095 -0.05 0.063 -0.092 0.051 -0.116 0.04 -0.12 0.027 -0.052 0.036 -0.046 0.047 -0.03 0.051 -0.018 0.138 0.011 0.028 0.029 0.154 0.204 0.027 0.018 0.161 0.013 0.044 -0.007 0.098 -0.041 0.056 -0.004 0.103 0.05 0.045 0.043 0.05 0.032 0.252 0.033 0.097 0.087 0.049 0.012 0.176 -0.011 0.121 0.009 0.106 0.023 0.048 0.124 0.039 0.127 0.023 0.043 0.103 0.044 0.042 0.039 -0.011 0.127 0.012 0.121 0.219 0.105 0.235 0.06 0.249 0.006 0.25 -0.021 0.129 -0.026 0.161 -0.045 0.033 0.001 0.312 0.138 0.027 0.021 0.035 0.103 -0.001 0.109 -0.058 0.259 -0.004 0.071 0.006 0.071 0.062 0.154 0.033 0.045 0.113 0.081 0.004 0.042 -0.015 0.042 -0.125 -0.029 -0.076 -0.035 -0.044 -0.058 -0.062 -0.033 -0.117 0.012 -0.219 -0.058 -0.248 -0.09 -0.439 -0.191 -0.12 0.002 -0.115 0.024 -0.121 0.049 -0.126 0.035 -0.093 0.013 -0.093 -0.01 -0.234 -0.046 -0.236 -0.03 -0.605 -0.019 -0.171 -0.043 -0.283 -0.022 -0.225 -0.038 -0.223 -0.053 -0.569 -0.259 -0.186 -0.062 -0.571 -0.124 -0.088 -0.01 -0.207 0.009 -0.13 -0.036 -0.115 -0.001 -0.171 0.04 -0.053 0.029 -0.066 0.061 -0.116 -0.003 -0.115 -0.012 -0.303 -0.058 -0.113 -0.036 -0.109 -0.053 -0.098 -0.069 -0.051 -0.025 -0.262 -0.07 -0.214 -0.024 -0.44 -0.032 -0.096 -0.021 -0.08 -0.026 -0.044 -0.057 0.006 -0.072 0.032 -0.063 0.043 -0.063 0.028 -0.06 -0.321 -0.126 -0.254 -0.069 -0.11 -0.013 -0.11 0 -0.124 0.014 -0.123 -0.007 -0.058 -0.021 -0.059 -0.007 -0.059 0.015 -0.047 -0.006 -0.012 -0.057 0.03 -0.049 0.062 -0.055 0.035 -0.01 0.016 0.086 0.018 0.017 0.055 0.019 0.024 -0.005 0.097 -0.111 0.027 -0.054 0.047 -0.147 0.051 0.028 0.051 -0.018 0.029 -0.023 0.081 -0.341 0.068 -0.099 0.093 -0.083 0.046 -0.02 0.091 0.051 0.184 0.019 0.109 0.033 0.11 0.004 0.107 0.017 0.149 0.06 0.053 -0.006 0.054 -0.019 0.08 -0.065 0.035 -0.104 0.116 0.053 0.17 0.021 z M 109.629 -2.028 l -0.09 0.131 0.01 0.048 0.022 0.042 0.065 0.03 0.018 0.162 0.082 0.092 0.082 0.084 0.06 0.041 0.066 0.06 0.047 0.055 0.049 0.047 0.074 0.046 0.2 0.194 0.084 0.057 0.062 0.057 0.044 0.02 0.109 -0.016 0.323 -0.139 0.058 -0.009 0.105 -0.024 0.185 0.007 0.196 0.047 0.063 0.001 0.061 -0.028 0.084 0.008 0.078 0.015 0.039 -0.012 0.114 -0.102 0.155 -0.03 0.05 -0.1 0.039 -0.095 0.018 -0.101 0.065 -0.041 0.091 -0.035 0.135 -0.044 0.467 -0.008 0.045 0.019 0.01 0.051 -0.01 0.039 0.018 0.023 0.062 0.002 0.058 0.024 0.233 0.081 0.099 0.025 0.055 -0.006 0.109 0.072 0.059 -0.025 0.079 -0.051 0.075 -0.069 0.067 -0.054 0.098 -0.021 0.126 0.003 0.149 -0.019 0.112 -0.029 0.125 0.048 0.033 -0.015 0.022 -0.047 0.065 -0.103 0.029 -0.069 0.025 -0.133 0.017 -0.032 0.048 -0.018 0.049 -0.025 0.013 -0.04 0.018 -0.046 -0.015 -0.039 -0.028 -0.033 -0.029 -0.111 0.01 -0.051 0.018 -0.038 0.05 -0.019 0.133 -0.081 0.117 -0.095 0.064 -0.047 0.028 -0.03 0.002 -0.044 -0.051 -0.046 -0.049 -0.022 -0.004 -0.053 0.002 -0.036 0.015 -0.034 -0.007 -0.033 0 -0.05 0.031 -0.054 0.072 -0.08 0.057 -0.051 0.063 0.032 0.074 -0.015 0.07 -0.026 0.039 -0.094 0.006 -0.045 -0.009 -0.035 0.025 -0.134 0.006 -0.019 0.046 -0.084 0.005 -0.057 -0.026 -0.131 0.016 -0.099 0.008 -0.206 0.028 -0.037 0.031 -0.106 0.051 -0.111 0.104 -0.061 0.054 -0.08 0.024 -0.015 0.035 -0.001 0.125 0.058 0.113 -0.065 0.102 -0.007 0.084 0.009 0.047 0.026 0.047 0.019 0.1 -0.063 0.038 0.011 0.036 0.021 0.05 -0.001 0.059 -0.016 0.146 0.015 0.257 0.003 0.177 0.038 0.173 0.106 0.086 0.021 0.037 0.001 -0.008 0.008 -0.069 0.029 -0.032 0.057 0.094 0.088 0.007 0.058 0.073 0.052 0.089 0.081 0.004 0.026 0.03 0.036 0.015 0.045 -0.063 0.044 -0.085 0.008 -0.063 -0.042 -0.058 -0.052 -0.015 0.065 -0.045 0.037 -0.163 -0.011 -0.116 0 -0.116 0.016 0.058 0.01 0.053 0.021 0.18 0.165 0.038 0.061 -0.063 0.122 0.031 0.05 0.07 0.029 0.085 0.061 0.06 0.006 0.043 0.034 0.002 0.059 0.025 0.054 -0.069 0.022 0.068 0.014 0.06 0.028 -0.033 0.028 -0.026 0.034 0.028 0.018 0.083 0.031 0.036 0.029 0.019 0.078 0.081 0.127 0.148 0.164 0.032 0.06 0 0.055 -0.025 0.047 -0.085 0.055 -0.068 0.073 -0.008 0.026 -0.092 0.034 0.042 0.025 0.033 0.034 0.064 0.102 0.152 0.165 0.076 0.062 0.315 0.224 0.167 0.097 0.214 0.223 0.111 0.052 0.021 0.062 -0.093 0.095 -0.135 0.048 -0.223 0.026 -0.223 -0.034 -0.115 -0.027 -0.101 -0.055 -0.079 -0.11 -0.105 -0.06 0.04 0.067 0.025 0.068 -0.013 0.074 -0.041 0.058 -0.071 0.043 -0.076 0.035 -0.032 0.024 -0.192 0.389 -0.031 0.105 -0.058 0.436 -0.001 0.123 0.086 0.231 0.008 0.121 0.017 0.052 -0.011 0.043 -0.041 0.026 -0.165 0.071 -0.116 0.058 -0.094 0.083 -0.076 0.104 -0.067 0.075 -0.089 0.036 -0.065 -0.005 -0.052 -0.034 -0.037 -0.067 -0.021 -0.073 -0.014 0.054 0.003 0.053 0.031 0.056 0.012 0.059 -0.018 0.061 -0.038 0.048 -0.104 0.053 -0.057 0.045 -0.009 0.079 -0.028 0.045 -0.04 0.035 -0.146 0.08 -0.033 0.032 -0.024 0.041 0.078 -0.006 0.071 0.006 0.005 0.079 0.022 0.059 -0.028 0.129 -0.11 0.087 0.055 0.018 0.05 0.029 0.11 0.021 0.037 0.092 -0.016 0.111 -0.02 0.1 -0.079 0.028 -0.049 -0.018 -0.049 0.002 -0.036 0.03 -0.01 0.051 0.068 -0.025 -0.004 0.129 -0.018 0.126 -0.023 0.069 -0.042 0.057 -0.063 0.018 -0.059 -0.042 -0.012 0.049 0.018 0.042 0.085 0.101 -0.052 0.022 -0.038 0.034 -0.017 0.05 -0.092 0.115 -0.041 0.085 -0.017 0.091 -0.043 0.072 -0.698 0.312 -0.565 0.263 -0.041 -0.018 -0.027 -0.04 -0.019 -0.408 -0.07 -0.209 -0.011 -0.118 -0.08 0.105 -0.049 -0.011 -0.053 -0.027 -0.04 -0.034 -0.003 -0.045 0.043 -0.13 -0.052 0.071 -0.056 0.055 -0.058 -0.007 -0.05 -0.027 -0.019 -0.042 -0.027 -0.006 -0.123 0.115 -0.163 0.062 -0.091 -0.001 -0.071 -0.035 0.004 -0.088 -0.007 -0.086 -0.02 -0.05 -0.044 -0.018 -0.04 0.006 -0.117 0.045 -0.042 -0.005 -0.024 0.023 -0.309 -0.313 -0.063 0.254 -0.213 0.135 -0.158 0.078 -0.156 -0.029 -0.159 -0.05 -0.158 0.06 -0.172 0.148 -0.047 0.023 -0.049 -0.001 -0.036 -0.019 0.012 -0.112 0.002 -0.112 -0.013 -0.25 -0.014 -0.049 -0.049 -0.069 -0.065 -0.05 -0.036 0.036 -0.033 0.05 -0.131 -0.002 -0.127 -0.04 -0.108 0.023 -0.215 0.099 -0.114 0.015 -0.061 -0.022 -0.039 -0.054 0.022 -0.049 0.047 -0.038 -0.088 0.03 -0.075 0.05 -0.033 0.032 -0.035 -0.016 -0.094 -0.113 -0.196 0.042 -0.027 0.013 -0.048 0.039 -0.046 -0.019 -0.023 -0.041 -0.008 -0.236 -0.1 -0.455 -0.028 -0.233 -0.022 -0.055 -0.115 -0.084 0.004 -0.12 0.06 -0.1 0.013 -0.117 -0.017 -0.127 -0.036 -0.124 -0.045 -0.094 -0.065 -0.08 -0.086 -0.09 -0.106 -0.067 -0.228 -0.075 -0.12 0.007 -0.045 -0.03 -0.03 -0.038 0.012 -0.075 0.041 -0.052 0.055 -0.013 0.006 -0.029 -0.116 -0.061 -0.096 -0.083 -0.03 -0.05 -0.009 -0.054 0.001 -0.126 0.028 -0.079 0.015 -0.043 0.03 -0.133 0.063 -0.041 -0.01 -0.025 -0.027 -0.018 -0.039 -0.044 -0.032 -0.05 -0.074 -0.085 -0.13 -0.103 -0.022 -0.177 -0.017 -0.261 0.011 -0.119 0.042 -0.222 0.072 -0.07 0.058 -0.019 0.043 -0.03 -0.035 -0.004 -0.031 0.011 -0.055 0.008 0.045 -0.199 0.02 -0.057 0.091 -0.111 0.106 -0.098 0.045 -0.116 0.06 -0.102 z M 127.733 -0.848 l 0.073 0.022 0.076 -0.006 0.038 -0.045 0.01 -0.058 0.038 -0.108 0.088 -0.073 0.062 -0.011 0.044 -0.031 -0.008 -0.08 0.004 -0.079 0.065 -0.084 0.202 -0.117 0.115 -0.042 0.149 -0.013 0.017 0.045 -0.017 0.064 0.029 0.096 -0.014 0.261 -0.034 0.037 -0.154 0.09 -0.169 0.072 -0.047 0.03 -0.042 0.072 0.003 0.071 0.137 0.095 0.213 0.089 0.044 0.042 0.029 0.07 0.008 0.078 0.052 0.037 0.072 0.018 0.048 0.037 0.036 0.052 -0.359 -0.122 -0.094 -0.054 -0.114 -0.006 -0.112 -0.016 -0.115 -0.047 -0.123 -0.011 -0.059 0.034 -0.023 0.066 -0.014 0.074 0.027 0.092 -0.002 0.056 -0.023 0.101 0.089 0.298 0.112 0.237 0.164 0.246 0.081 0.085 0.091 0.076 -0.147 -0.023 -0.045 -0.082 -0.187 -0.082 -0.036 -0.049 -0.122 -0.234 -0.036 -0.044 -0.113 -0.079 -0.049 -0.058 -0.017 -0.079 0.013 -0.083 -0.006 -0.115 0.004 -0.114 0.023 -0.139 -0.04 -0.049 -0.052 -0.046 -0.061 -0.107 -0.018 -0.121 0.005 -0.07 0.025 -0.062 0.034 -0.054 0.007 -0.052 -0.088 -0.076 -0.092 -0.216 -0.008 -0.112 0.117 -0.216 -0.002 -0.105 0.023 -0.062 0.013 -0.066 0.061 -0.144 0.1 -0.122 0.168 -0.171 0.064 -0.037 0.072 -0.024 0.006 0.042 -0.012 0.037 -0.125 0.174 -0.017 0.039 -0.003 0.073 0.06 0.043 0.064 0.088 0.013 0.118 0.002 0.125 -0.014 0.126 -0.024 0.042 -0.102 0.127 -0.233 0.149 -0.02 0.037 0.001 0.041 0.043 0.05 z M 129.755 2.866 l 0.23 0.111 0.119 0.016 0.2 -0.014 0.075 0.011 0.191 0.142 0.056 0.097 0.016 0.084 0.029 0.08 0.047 0.02 0.055 0.007 0.072 0.115 0.014 0.037 -0.055 0.287 -0.225 -0.109 -0.217 -0.124 -0.093 -0.046 -0.25 -0.105 -0.038 -0.036 -0.028 -0.047 -0.109 -0.064 -0.217 -0.01 -0.082 0.002 -0.033 0.01 0.009 0.035 0.001 0.071 -0.054 0.02 -0.135 -0.045 -0.121 -0.016 -0.104 -0.043 -0.14 -0.023 -0.015 -0.022 0.012 -0.033 -0.006 -0.031 -0.032 -0.012 -0.063 0.006 -0.061 0.031 -0.05 0.035 -0.074 0.096 -0.038 0.037 -0.122 0.016 -0.051 -0.009 -0.047 -0.024 -0.139 -0.175 -0.047 -0.038 -0.052 -0.031 -0.049 -0.014 -0.05 0.027 -0.026 0.054 -0.012 0.065 -0.014 0.037 -0.06 0.104 -0.05 0.062 -0.018 -0.01 0.025 -0.099 0 -0.056 -0.031 -0.059 -0.019 -0.06 0.235 -0.288 0.085 -0.069 0.371 -0.024 0.221 0.014 0.12 -0.007 0.08 -0.021 0.067 0.01 0.017 0.057 0.042 0.042 0.058 -0.004 0.105 -0.044 0.092 -0.069 0.056 -0.03 0.057 -0.005 0.059 0.005 0.058 0.016 z M 126.861 3.088 l 0.164 0.078 0.037 0.051 0.029 0.061 0.032 0.033 0.039 0.027 0.064 0.053 0.017 0.08 -0.015 0.162 -0.074 0.014 -0.07 0.024 -0.144 0.094 -0.071 0.018 -0.076 0.006 -0.054 0.025 -0.054 0.01 -0.14 -0.052 -0.136 -0.061 -0.197 -0.105 -0.036 -0.026 -0.032 -0.057 -0.09 -0.102 -0.023 -0.065 -0.008 -0.185 0.024 -0.042 0.038 -0.023 0.131 0.043 0.087 -0.045 0.249 -0.038 0.253 0.004 z M 124.922 8.942 l -0.007 0.089 0.022 0.022 0.036 0.011 0.127 -0.06 0.024 0.011 0.025 0.027 0 0.08 -0.049 0.067 -0.123 0.005 -0.017 0.019 -0.002 0.041 0.01 0.04 0.029 0.032 0.037 0.056 0.035 0.13 -0.07 0.053 -0.035 0.1 -0.121 0.094 -0.133 0.154 -0.107 0.079 -0.094 0.093 -0.081 0.063 -0.101 0.021 -0.151 0.013 -0.205 0.112 -0.113 0.049 -0.11 0.004 -0.103 -0.036 -0.039 -0.041 0.009 -0.055 0.034 -0.047 0.042 -0.039 0.026 -0.05 -0.117 -0.063 -0.01 -0.048 0.046 -0.129 0.03 -0.133 0.044 -0.09 0.167 -0.162 0.1 -0.08 0.059 -0.031 0.016 0.034 0.038 0.041 0.025 0.007 0.019 -0.009 0.148 0.014 0.037 -0.014 0.056 -0.064 0.037 -0.036 0.025 -0.076 0.006 -0.048 0.131 -0.035 0.07 -0.039 0.062 -0.055 0.182 -0.093 z M 134.747 5.707 l -0.008 0.039 -0.001 0.071 0.017 0.066 -0.043 0.067 0.04 0.1 0.006 0.05 -0.002 0.071 -0.011 0.032 -0.03 0.093 -0.03 0.033 -0.023 0.009 -0.024 0.028 -0.196 -0.03 -0.085 -0.064 -0.076 -0.07 -0.016 -0.029 -0.089 -0.081 -0.021 -0.027 -0.002 -0.043 0.072 -0.011 0.077 0.001 -0.003 -0.039 0.044 -0.138 -0.117 -0.089 -0.021 -0.037 0.042 -0.025 0.094 0.031 0.115 -0.155 0.034 -0.032 0.016 -0.087 0.064 -0.011 0.046 0.011 0.03 0.054 0.012 0.047 -0.012 0.042 0.055 0.022 z M 134.537 6.442 l -0.016 0.07 -0.016 0.079 -0.092 0.088 -0.057 0.135 -0.033 0.034 -0.123 0.06 -0.109 -0.075 -0.032 -0.064 0.048 -0.298 0.047 0.01 0.031 -0.002 0.01 -0.02 -0.07 -0.033 -0.013 -0.171 0.003 -0.065 0.053 -0.015 0.066 0.05 0.084 0.09 0.097 0.071 z M 138.535 8.274 l -0.239 0.132 -0.313 -0.023 -0.111 -0.002 -0.184 0.032 -0.037 -0.026 0.035 -0.124 0.147 -0.33 0.175 -0.291 0.074 -0.075 0.104 -0.071 0.11 -0.057 0.248 -0.059 0.226 0.011 0.032 0.024 0.097 0.097 0.063 0.076 0.026 0.108 -0.096 0.186 -0.107 0.177 -0.174 0.139 z M 140.973 2.61 l 0 0.004 0 0.067 0 0.122 0 0.203 0 0.203 0 0.203 0 0.203 0 0.203 0 0.203 0 0.203 0 0.203 0 0.203 0 0.203 0 0.203 0 0.203 0 0.203 0 0.203 0 0.203 0 0.203 0 0.203 0 0.087 -0.031 0.106 -0.069 0.159 -0.012 0.129 0.057 0.1 0.056 0.065 0 0.167 0 0.203 0 0.203 0 0.203 0 0.203 0 0.203 0 0.203 0 0.203 0 0.203 0 0.203 0 0.203 0 0.013 -0.052 -0.034 -0.138 -0.111 -0.125 -0.127 -0.08 -0.118 -0.091 -0.108 -0.388 -0.32 -0.099 -0.105 -0.02 -0.029 0.009 -0.027 0.045 -0.055 0.08 -0.16 -0.083 0.099 -0.099 0.078 -0.144 0.005 -0.141 0.019 -0.131 0.047 -0.133 0.016 -0.067 -0.023 -0.04 -0.059 -0.021 -0.06 -0.009 -0.064 -0.056 0.104 -0.11 0.057 -0.15 0.12 -0.043 -0.025 -0.026 -0.046 -0.009 -0.047 0.029 -0.05 0.02 -0.054 0.03 -0.128 0.067 -0.075 0.043 -0.146 0.028 -0.052 0.014 -0.052 -0.039 -0.059 -0.066 -0.02 -0.045 -0.036 -0.052 -0.099 -0.032 -0.034 -0.059 -0.041 -0.046 -0.047 0.05 -0.036 0.066 -0.014 0.054 0.002 0.099 0.022 0.045 0.001 0.114 -0.037 -0.064 0.011 -0.064 -0.001 -0.203 -0.064 -0.126 -0.067 -0.119 -0.133 -0.001 -0.026 0.084 -0.024 0.181 -0.028 -0.056 -0.068 -0.082 -0.059 -0.029 -0.105 -0.056 -0.065 -0.121 -0.107 -0.083 -0.11 -0.07 -0.225 -0.072 -0.17 0.018 -0.062 0.061 -0.044 -0.092 -0.005 -0.083 -0.032 0.044 -0.083 0.096 -0.049 -0.088 0.013 -0.086 0.024 -0.039 0.004 -0.04 -0.007 -0.021 -0.033 -0.003 -0.047 0.012 -0.083 -0.015 -0.081 -0.076 -0.038 -0.063 -0.058 -0.035 -0.021 -0.046 0.002 -0.045 -0.038 -0.036 -0.056 -0.452 -0.242 -0.027 -0.069 -0.042 0.03 -0.042 0.015 -0.052 -0.04 -0.054 -0.026 -0.06 0.004 -0.055 -0.021 -0.058 -0.012 -0.06 -0.002 -0.238 -0.074 -0.225 -0.117 -0.183 -0.051 -0.113 -0.066 -0.118 -0.054 -0.263 -0.052 -0.266 -0.035 -0.096 -0.001 -0.081 0.011 -0.078 -0.002 -0.441 -0.255 -0.075 -0.116 0.007 -0.068 0.02 -0.056 0.18 -0.016 -0.127 -0.016 -0.052 0.008 -0.104 0.046 -0.057 0.003 -0.08 -0.031 -0.076 -0.039 -0.125 0.036 -0.064 -0.059 -0.022 -0.062 -0.033 -0.028 -0.047 0.003 -0.063 0.022 -0.063 -0.004 -0.041 -0.042 -0.029 -0.055 -0.043 -0.04 -0.052 -0.03 -0.085 -0.072 -0.045 -0.098 0.005 -0.17 0.014 -0.061 0.084 -0.099 0.06 -0.094 -0.074 -0.01 -0.067 0.043 -0.028 0.044 -0.011 0.054 -0.008 0.179 -0.054 0.052 -0.081 -0.004 0.024 0.104 -0.033 0.099 -0.094 0.117 -0.008 0.053 0.015 0.057 -0.021 0.056 -0.152 0.163 -0.051 0.008 -0.113 -0.001 -0.117 0.026 -0.054 -0.038 -0.044 -0.05 -0.033 -0.058 -0.046 -0.121 -0.037 -0.125 0.116 -0.153 -0.04 -0.138 -0.078 -0.118 -0.198 -0.164 -0.205 -0.156 -0.093 -0.032 -0.153 -0.014 -0.048 -0.015 -0.048 -0.058 -0.035 -0.067 0.096 -0.029 0.164 -0.079 0.093 0.004 0.252 0.043 0.077 0.039 0.072 0.023 0.172 -0.131 0.137 -0.171 0.085 -0.037 0.072 -0.013 0.074 0.017 0.146 0.06 0.115 0.028 0.082 0.005 0.043 0.053 0.049 0.024 0.011 -0.081 0.042 -0.093 0.081 -0.029 0.043 -0.007 0.027 -0.024 -0.006 -0.086 -0.108 -0.011 0.059 -0.074 0.053 -0.036 0.018 -0.036 0.001 -0.045 -0.211 0.087 -0.223 0.036 -0.132 -0.01 -0.131 -0.001 -0.262 0.058 -0.1 -0.002 -0.232 -0.024 -0.128 -0.028 -0.099 0.022 -0.096 0.002 -0.1 -0.067 -0.085 -0.083 -0.042 -0.059 -0.056 -0.043 -0.025 -0.058 -0.062 -0.218 -0.006 -0.155 -0.101 -0.003 -0.098 -0.015 -0.438 -0.148 -0.053 0.036 -0.062 0.019 -0.061 0.007 -0.061 -0.008 -0.061 -0.023 0.005 -0.041 0.045 -0.1 0.044 -0.037 0.061 -0.028 0.039 -0.053 0.063 -0.159 0.005 -0.054 -0.007 -0.055 0.005 -0.042 0.039 -0.022 0.165 -0.052 0.343 -0.078 0.087 -0.047 0.071 -0.075 0.084 -0.045 0.038 -0.046 0.044 -0.037 0.265 -0.099 0.114 -0.008 0.117 0.011 0.231 0.058 0.221 0.094 0.191 0.124 0.204 0.09 0.251 0.015 0.127 -0.01 0.124 0.013 0.05 0.025 0.087 0.077 -0.025 0.051 -0.015 0.104 0.044 0.101 0.072 0.101 0.059 0.107 0.012 0.052 -0.022 0.111 -0.02 0.055 -0.072 0.092 -0.04 0.1 0.025 0.124 0.014 0.124 -0.003 0.114 0.013 0.112 0.039 0.114 0.167 0.312 0.098 0.211 0.031 -0.118 -0.008 -0.131 0.035 -0.047 0.049 -0.025 0.061 0.026 0.017 0.053 0.004 0.116 0.053 0.228 0.068 0.01 0.074 -0.035 0.012 0.07 -0.003 0.129 0.034 0.102 0.03 0.04 0.12 0.083 0.055 0.015 0.159 0.02 0.12 0.006 0.115 -0.03 0.074 -0.076 0.067 -0.083 0.231 -0.191 0.067 -0.091 0.065 -0.14 0.022 -0.03 0.23 -0.151 0.026 -0.054 0.033 -0.104 0.05 -0.1 0.038 -0.052 0.222 -0.049 0.231 -0.027 0.229 -0.093 0.099 -0.08 0.005 -0.052 -0.05 -0.092 -0.002 -0.04 0.053 -0.039 0.204 -0.117 0.236 -0.12 0.19 -0.083 0.105 0.001 0.097 0.073 0.103 0.059 0.539 0.175 0.086 0.054 0.075 0.072 0.108 0.05 0.12 0.024 0.109 0.047 0.104 0.06 0.229 0.113 0.308 0.136 0.079 0.008 0.286 -0.006 0.049 0.026 0.047 0.036 0.044 0.008 0.328 0.025 0.05 0.026 0.047 0.036 0.027 0.099 z M 138.895 8.389 l -0.05 0.013 -0.251 -0.03 -0.027 -0.041 -0.004 -0.021 0.058 -0.041 0.056 -0.069 0.086 -0.026 0.033 0 0.101 0.164 z M 101.708 -2.078 l 0.054 0.082 0.011 0.053 -0.039 0.061 -0.015 0.093 -0.117 0.073 -0.102 -0.017 -0.033 -0.026 -0.064 -0.142 0.006 -0.12 0.041 -0.046 0.094 0.007 0.096 -0.066 z M 102.427 -0.99 l -0.046 0.03 -0.056 -0.047 -0.046 -0.069 -0.024 -0.071 -0.021 -0.117 -0.006 -0.084 0.028 -0.049 0.02 0.002 0.082 0.05 0.054 0.085 0.03 0.027 0.006 0.078 -0.02 0.089 z M 102.492 -1.459 l 0.008 0.128 -0.074 -0.034 -0.058 -0.051 -0.093 -0.038 -0.113 -0.012 -0.083 -0.033 -0.058 -0.06 -0.003 -0.027 0.006 -0.022 0.018 -0.017 0.427 0.115 z M 103.028 -0.747 l -0.019 0.039 -0.037 -0.028 -0.195 -0.043 -0.066 -0.005 -0.169 -0.047 -0.051 -0.025 -0.037 -0.033 0.013 -0.061 0.025 -0.037 0.015 -0.102 0.043 -0.041 0.084 0.076 0.093 0.065 0.054 0.03 0.164 0.067 0.058 0.033 z M 103.166 -0.87 l -0.029 0.029 -0.05 -0.006 -0.053 -0.034 -0.069 -0.061 -0.078 -0.054 -0.098 -0.034 -0.062 -0.01 -0.025 -0.012 0.024 -0.105 0.065 -0.007 0.209 0.098 0.068 0.053 z M 103.284 -0.542 l -0.112 0.006 -0.033 -0.013 0.014 -0.094 0.034 -0.057 0.051 0.001 0.057 0.085 z M 103.45 -0.664 l -0.021 0.014 -0.085 -0.127 0.021 -0.073 0.02 -0.018 0.047 0.045 0.037 0.047 0.027 0.055 z M 104.025 -1.181 l 0.063 0.044 0.052 -0.029 -0.002 0.037 -0.01 0.036 -0.061 0.103 -0.103 -0.024 -0.024 -0.033 -0.008 -0.025 0.015 -0.016 0.008 -0.05 0.044 0 z M 104.585 -1.216 l 0.006 0.075 0.057 0.036 0.015 0.055 -0.01 0.088 -0.054 0.102 -0.024 0.027 -0.071 -0.021 -0.024 -0.034 -0.009 -0.027 0.01 -0.019 -0.052 -0.024 0.034 -0.039 -0.023 -0.055 -0.145 0.034 -0.042 0.001 -0.008 -0.063 0.006 -0.025 0.112 -0.079 0.067 -0.015 0.072 0.016 z M 104.779 0.176 l 0.029 0.017 0.036 -0.052 0.066 0.071 0.041 0.036 0.056 0.036 -0.055 0.002 -0.022 0.033 -0.014 0.006 -0.212 -0.115 -0.136 0.037 -0.093 -0.033 -0.026 -0.023 0.05 -0.063 0.046 -0.144 0.093 0.036 0.023 0.044 -0.006 0.013 0.061 0.027 z M 104.474 0.335 l 0.094 0.097 0.022 0.035 -0.046 0.054 -0.037 0.076 -0.021 0.016 -0.071 -0.029 -0.051 0.075 -0.033 -0.12 -0.073 -0.076 0.045 -0.078 0.016 -0.006 0.022 0.002 0.023 0.02 z M 103.737 0.348 l -0.13 0.035 -0.145 -0.025 0.018 -0.06 0.07 -0.07 0.062 0.003 0.113 0.046 0.04 0.041 z M 109.71 1.181 l -0.199 0.102 -0.047 -0.005 -0.036 -0.036 0.022 -0.197 0.026 -0.059 0.139 -0.006 0.085 0.028 0.044 0.032 0.017 0.066 -0.01 0.04 z M 113.845 7.105 l -0.019 0.015 -0.17 -0.008 -0.109 0.082 -0.076 0.025 -0.272 0 -0.032 -0.011 -0.024 0 -0.015 0.017 -0.087 -0.012 -0.277 -0.072 -0.038 -0.067 0.043 -0.071 0.099 -0.101 0.199 -0.02 0.907 -0.007 0.099 0.087 0.009 0.029 -0.198 0.06 z M 134.965 1.116 l -0.048 0.018 -0.056 -0.02 -0.053 -0.077 0.019 -0.059 0.061 -0.04 0.052 0.04 0.016 0.052 0.04 0.004 z M 127.25 0.495 l -0.063 0.026 -0.068 -0.001 -0.015 -0.107 0.022 -0.135 0.063 -0.023 0.1 0.029 -0.037 0.034 0.028 0.072 z M 127.567 0.319 l 0.115 0.149 -0.077 0.142 0.054 0.079 0.146 0.005 0.034 0.03 0.025 0.036 0.017 0.049 -0.038 0.039 -0.081 0.036 -0.094 -0.052 -0.025 -0.048 -0.019 -0.018 -0.126 0.036 -0.035 0.004 -0.024 -0.067 0.03 -0.096 -0.088 -0.043 -0.081 -0.099 -0.003 -0.04 0.032 -0.069 -0.004 -0.055 0.046 -0.004 0.084 0.075 0.037 -0.07 0.036 -0.029 z M 132.926 5.902 l -0.081 0.086 0.077 -0.203 0.016 -0.103 0.071 -0.061 0.106 -0.311 0.024 0.007 0.034 0.03 -0.053 0.228 -0.149 0.16 z M 132.807 5.851 l -0.061 0.096 -0.041 -0.034 -0.023 0 -0.014 -0.057 0.014 -0.117 -0.051 -0.132 0.068 0.002 0.019 0.039 0.021 0.013 0.067 0.127 z M 128.276 3.675 l -0.026 0.037 -0.058 0.024 -0.049 -0.003 0.016 -0.035 -0.012 -0.021 -0.036 0.009 -0.059 0.028 -0.074 0.056 -0.044 -0.028 -0.009 -0.044 0.003 -0.02 0.089 -0.079 0.103 -0.013 0.145 -0.075 0.065 0.004 -0.015 0.048 -0.023 0.034 -0.014 0.036 z M 126.817 -4.033 l -0.04 0.021 -0.065 -0.008 -0.007 -0.051 0.066 -0.091 0.043 -0.096 -0.046 -0.024 -0.045 -0.062 -0.002 -0.072 0.037 -0.132 0.055 0.011 0.053 0.057 0.022 0.107 0.034 0.081 -0.073 0.111 z M 125.658 -3.436 l -0.025 0.031 -0.122 -0.056 0.006 -0.088 -0.016 -0.044 -0.033 -0.046 -0.013 -0.045 0.014 -0.049 0.075 0.063 0.042 0.099 0.058 0.095 z M 130.862 8.319 l -0.087 0.031 0.058 -0.079 0.187 -0.179 0.067 0.033 0.089 0.006 -0.133 0.081 -0.136 0.034 z M 129.839 7.955 l -0.059 0.092 -0.066 -0.006 -0.122 -0.123 0.007 -0.086 0.01 -0.028 0.046 -0.009 0.158 0.025 0.031 0.07 z M 127.823 8.099 l 0.175 0.04 0.1 -0.004 0.02 0.036 -0.096 0.085 -0.203 -0.065 -0.035 -0.07 z M 130.353 1.691 l 0.012 0.059 0.06 0.055 -0.021 0.085 -0.024 0.013 0.013 0.039 0.025 0.03 -0.046 0.021 -0.034 -0.01 -0.055 0.028 -0.036 0.038 -0.115 0.016 -0.04 -0.036 -0.207 -0.042 -0.132 -0.092 -0.017 -0.028 0.256 -0.108 0.112 -0.028 0.094 0.002 0.118 -0.04 z M 102.367 5.479 l -0.081 0.005 -0.15 -0.123 -0.025 -0.038 0.043 -0.036 0.045 0.003 0.173 0.078 0.034 0.038 z M 100.425 3.183 l 0.04 0.146 -0.119 -0.099 0.002 -0.07 -0.016 -0.046 -0.072 -0.056 -0.056 -0.07 -0.025 -0.167 0.019 -0.035 0.047 -0.002 0.209 0.219 0.014 0.037 -0.005 0.078 -0.03 0.024 z M 100.204 2.741 l -0.071 0.08 -0.118 -0.002 -0.023 -0.05 0.005 -0.121 -0.029 -0.04 0.001 -0.016 0.019 -0.069 0.024 -0.015 0.19 0.169 z M 99.843 2.343 l 0.005 0.027 -0.163 -0.088 -0.078 -0.024 -0.07 -0.096 0.021 -0.046 0.003 -0.064 0.01 -0.025 0.05 -0.009 0.064 0.047 0.048 0.114 0.081 0.107 z M 98.459 0.53 l -0.06 0.046 -0.09 -0.045 0.03 -0.064 0.015 -0.089 0.054 -0.07 0.018 -0.083 -0.104 -0.226 0.052 -0.008 0.041 0.025 0.069 0.15 0.06 0.09 -0.024 0.122 z M 96.464 -2.36 l -0.063 0.009 -0.06 -0.021 -0.05 -0.058 -0.268 -0.166 -0.083 -0.003 -0.059 -0.042 -0.071 -0.015 -0.076 -0.111 -0.016 -0.059 0.055 -0.029 0.034 -0.061 0.09 0.027 0.102 0.108 0.104 0.04 0.028 0.02 0.05 0.06 0.237 0.146 0.026 0.05 0.016 0.05 z M 122.043 5.438 l -0.063 0.027 -0.12 -0.114 -0.051 -0.094 0.012 -0.053 0.036 -0.047 0.017 -0.012 -0.007 -0.049 0.047 -0.024 0.052 0.003 0.034 0.065 0.041 0.018 0.021 0.063 z M 123.212 1.171 l 0.022 0.062 -0.036 0.054 0.04 0.102 0.101 -0.135 0.096 -0.017 0.055 0.022 0.037 0.027 0.02 0.051 -0.035 0.11 -0.063 0.051 -0.082 0.008 -0.038 -0.064 -0.054 -0.006 -0.037 0.14 -0.017 0.021 -0.048 0.018 -0.043 -0.039 -0.007 -0.021 0.06 -0.063 -0.033 -0.188 -0.045 0.035 -0.121 0.171 -0.094 0.077 -0.032 -0.039 -0.048 -0.116 0.021 -0.149 0.076 -0.101 0.064 0.007 0.186 -0.032 z M 121.864 0.407 l 0.042 0.044 -0.026 0.051 -0.034 -0.013 -0.091 0.001 -0.034 0.004 -0.041 0.03 -0.026 0.001 0.017 -0.047 0.077 -0.072 0.048 0.011 z M 120.528 6.298 l -0.041 0.166 -0.019 -0.059 -0.007 -0.152 -0.025 -0.074 0.016 -0.085 -0.005 -0.219 0.031 -0.101 0.057 0.129 0.015 0.065 z M 115.377 6.971 l -0.081 0.017 -0.075 -0.035 0.002 -0.047 0.018 -0.044 0.113 -0.023 0.061 0.001 0.065 0.03 0.045 0.032 0.022 0.037 -0.122 0.002 z M 116.303 3.868 l -0.21 0.186 -0.035 -0.047 0.018 -0.189 -0.059 -0.118 0.004 -0.088 0.041 -0.154 0.054 -0.118 0.122 -0.079 0.03 -0.009 -0.008 0.144 0.024 0.054 0.009 0.046 -0.013 0.04 0.023 0.184 0.013 0.044 -0.029 0.058 z M 122.949 10.909 l -0.093 0 -0.03 -0.011 -0.008 -0.088 0.027 -0.049 0.216 -0.063 0.084 -0.058 0.12 -0.122 0.074 -0.032 0.019 -0.014 0.013 0.002 0.012 0.093 0.03 0.055 0.005 0.029 -0.107 0.047 -0.096 0.108 -0.21 0.07 z M 124.287 8.329 l -0.061 0.062 -0.041 0.107 -0.038 0.033 -0.081 0.02 -0.048 -0.108 -0.09 0.005 0.044 -0.095 0.042 -0.035 0.055 -0.001 0.027 0.038 0.015 0.008 0.129 -0.161 0.026 -0.002 0.021 0.007 0.017 0.02 z M 123.925 8.272 l -0.141 0.027 -0.086 0.125 -0.069 -0.002 -0.038 0.055 -0.009 0.024 0.005 0.022 -0.008 0.021 -0.027 0.022 -0.064 -0.034 -0.055 0.044 -0.023 0.011 -0.081 -0.051 -0.077 0.003 -0.023 -0.008 0.095 -0.092 0.13 -0.085 0.021 -0.031 -0.051 -0.009 -0.03 -0.013 -0.004 -0.02 0.082 -0.013 0.057 -0.002 0.043 0.026 0.027 0 0.175 -0.101 0.07 0.023 0.051 0.026 z M 123.317 8.355 l -0.02 0.044 -0.272 -0.003 0.008 -0.058 0.076 -0.063 0.025 -0.021 0.084 -0.018 0.119 0.034 z M 134.716 6.549 l -0.055 0.009 -0.027 -0.082 0.045 -0.021 0.049 0.05 z M 103.424 -1.048 l 0.006 0.055 -0.066 -0.013 -0.048 -0.064 0.04 -0.046 0.025 -0.016 0.025 0.061 z M 103.829 -0.801 l 0.005 0.029 -0.092 -0.058 -0.002 -0.042 0.012 -0.02 0.055 0.045 z M 104.239 -0.834 l -0.063 0.029 -0.079 -0.091 0.003 -0.021 0.007 -0.016 0.014 -0.01 0.048 0.047 0.057 0.017 z M 104.689 -0.06 l 0.009 0.025 -0.047 -0.028 -0.029 -0.017 -0.019 -0.016 -0.104 -0.137 0.045 0.009 0.116 0.12 z M 106.285 -3.157 l -0.002 0.069 -0.069 -0.04 -0.014 -0.076 0.023 -0.025 0.047 0.013 z M 105.76 -2.863 l -0.042 0.004 -0.012 -0.03 0.002 -0.051 -0.004 -0.041 -0.012 -0.03 0 -0.051 0.038 0.026 0.03 0.024 0.034 0.017 0.028 0.012 0.015 0.008 -0.027 0.073 z M 108.888 -2.905 l -0.049 0.052 -0.052 -0.033 0.081 -0.106 0.019 -0.007 z M 108.953 1.62 l -0.115 0.042 -0.034 -0.094 0.074 -0.028 0.08 0.024 z M 107.473 2.9 l -0.041 0.026 -0.024 -0.025 -0.007 -0.028 0.017 -0.035 0.055 -0.003 0.025 0.01 z M 106.886 3.005 l -0.017 0.02 -0.055 -0.011 -0.04 -0.028 -0.025 -0.026 -0.006 -0.028 0.054 -0.034 0.114 0.035 z M 114.413 7.133 l -0.015 0.04 -0.051 -0.01 -0.048 -0.066 0.023 -0.017 0.027 -0.007 0.035 0.007 z M 112.719 5.811 l -0.021 0.035 -0.096 -0.003 -0.016 -0.04 0.063 -0.073 0.042 -0.005 0.037 0.027 z M 105.253 6.64 l -0.062 0.022 -0.048 -0.019 -0.021 -0.028 0.071 -0.069 0.033 -0.017 0.035 -0.005 0.017 0.038 z M 97.334 -2.076 l -0.006 0.022 -0.103 -0.105 -0.117 -0.058 0.048 -0.015 0.096 0.016 0.039 0.015 0.037 0.052 z M 95.362 -5.812 l -0.02 0.028 -0.059 -0.014 -0.066 -0.091 0.024 -0.018 0.041 0.009 0.077 0.021 0.007 0.034 z M 123.598 1.704 l -0.069 0.007 -0.046 -0.029 0.004 -0.147 0.042 -0.032 0.02 0.005 0.013 0.044 0.021 0.039 0.034 0.037 z M 123.242 4.113 l -0.098 0.12 -0.068 -0.006 -0.081 -0.079 -0.024 -0.087 -0.002 -0.031 0.056 -0.049 0.187 0.017 0.035 0.043 z M 123.848 1.955 l 0.018 0.04 -0.063 -0.001 -0.026 -0.076 0.006 -0.04 z M 123.153 1.817 l -0.074 0.082 -0.008 -0.044 0.015 -0.04 0.021 -0.028 0.031 -0.014 z M 119.464 8.741 l -0.039 0.009 -0.039 -0.014 0.016 -0.089 -0.023 -0.061 0.041 -0.047 0.01 -0.084 0.016 -0.026 0.024 0.026 0.011 0.017 0.02 0.008 0.045 0.002 0.01 0.036 -0.002 0.035 -0.019 0.036 -0.054 0.039 -0.039 0.044 z M 119.074 8.239 l -0.044 0.001 -0.009 -0.04 0.016 -0.042 0.042 -0.018 0.019 -0.001 0.031 0.038 0.007 0.02 -0.028 0.026 z M 115.61 8.77 l -0.028 0.034 -0.081 -0.061 -0.02 -0.027 0.06 -0.04 0.021 -0.005 0.052 0.043 z M 117.649 -4.169 l 0.096 0.002 0.139 -0.019 0.033 0.096 0.005 0.036 -0.186 0.05 -0.112 -0.117 z M 117.658 -3.281 l -0.013 0.033 -0.085 -0.08 -0.023 -0.058 0.01 -0.046 0.089 -0.004 0.044 0.029 z M 124.051 5.974 l -0.009 0.048 -0.036 -0.055 -0.033 -0.027 0.004 -0.059 0.047 0.022 z M 123.627 5.272 l -0.004 0.101 -0.04 -0.006 -0.033 -0.036 -0.009 -0.033 0.002 -0.027 0.018 -0.021 z M 120.774 7.119 l -0.102 0.006 -0.032 -0.009 -0.007 -0.098 0.112 0.042 0.036 0.003 z M 117.556 8.367 l -0.023 0.001 -0.043 -0.019 0.016 -0.042 -0.024 -0.068 0.008 -0.056 0.056 -0.031 0.119 -0.004 0.004 0.041 z M 116.424 3.464 l -0.036 0.172 -0.061 -0.098 0.069 -0.116 0.032 -0.023 z M 127.373 -0.791 l -0.034 0.033 -0.032 -0.011 -0.02 -0.042 0.006 -0.031 0.027 -0.02 0.034 0.015 z M 134.374 2.124 l -0.029 0.015 -0.01 -0.044 0.016 -0.058 0.019 -0.009 0.021 0.003 0.028 0.021 z M 133.571 4.246 l 0.051 0.053 -0.119 -0.042 -0.17 -0.088 -0.012 -0.059 0.143 0.089 z M 130.905 0.777 l -0.025 0.051 -0.047 0.034 -0.43 0.061 0.037 -0.037 0.018 -0.036 0.027 -0.019 0.043 0.005 0.021 -0.011 0.021 -0.004 0.024 0.005 0.042 -0.015 0.088 0.011 0.09 -0.009 -0.006 -0.049 z M 130.627 0.529 l -0.058 0.001 -0.104 -0.043 0.06 -0.038 0.038 -0.008 0.033 -0.023 0.018 -0.001 0.041 0.019 0.027 0.033 z M 129.549 0.187 l -0.043 0.003 -0.036 -0.058 -0.099 -0.065 -0.061 -0.112 0.233 0.185 z M 127.453 0.006 l -0.005 0.031 -0.031 -0.043 -0.021 -0.01 0.023 -0.108 0.012 -0.018 0.018 0.074 z M 127.42 -0.642 l -0.036 0.011 -0.01 -0.004 -0.011 -0.04 0.02 -0.068 0.042 -0.001 0.018 0.011 0.003 0.05 z M 127.3 0.781 l -0.011 0.021 -0.104 -0.026 -0.028 -0.014 0.053 -0.142 0.049 0.004 0.043 0.135 z M 128.722 3.547 l -0.002 0.042 -0.007 0.013 -0.054 -0.015 -0.039 0.001 -0.034 -0.076 0.01 -0.017 0.072 0.022 0.027 0.008 z M 128.563 3.585 l -0.171 0.052 0.037 -0.097 0.023 -0.026 0.085 0.027 z M 126.719 -3.875 l 0.002 0.042 -0.061 -0.096 -0.024 -0.114 0.048 0.041 0.054 0.084 z M 126.852 -3.768 l -0.016 0.012 -0.036 -0.027 -0.022 -0.03 0.001 -0.03 0.026 -0.015 0.053 0.046 0.001 0.025 z M 125.407 -2.652 l -0.01 0.022 -0.037 -0.117 0.031 -0.059 0.044 0.021 0.011 0.021 -0.043 0.056 z M 131.982 7.202 l -0.012 0.049 -0.043 -0.026 -0.042 -0.058 -0.062 -0.008 -0.045 -0.015 -0.027 -0.027 0.171 -0.012 z M 128.67 7.183 l -0.045 0.025 -0.075 -0.052 -0.02 -0.022 0.048 -0.051 0.05 -0.014 0.031 0.022 0.015 0.022 -0.006 0.025 z M 127.419 7.623 l -0.064 0.023 0.02 -0.074 -0.004 -0.06 0.104 0.018 -0.001 0.047 -0.01 0.018 z M 123.416 10.303 l -0.09 0.035 0 -0.073 0.07 -0.093 0.063 -0.031 0.035 0.037 0.003 0.017 -0.092 0.033 z M 121.883 10.59 l -0.05 0.012 -0.107 -0.029 -0.021 -0.017 0.092 -0.048 0.071 -0.069 0.083 -0.006 0.049 0.014 -0.017 0.081 z M 134.82 6.434 l -0.024 0.008 0 -0.049 0.028 -0.043 0.029 -0.025 0.034 -0.001 z M 134.674 6.75 l -0.017 0.016 -0.026 -0.032 -0.002 -0.02 0.034 -0.055 0.034 -0.032 0.038 -0.002 -0.01 0.045 z M 127.988 2.937 l -0.05 0.083 -0.088 -0.004 -0.015 -0.012 0.104 -0.052 z M 127.606 3.315 l 0.023 0.044 -0.098 -0.028 -0.043 -0.043 0.043 -0.027 0.024 -0.007 z M 122.977 8.545 l -0.032 0.059 -0.058 -0.017 0.016 -0.057 0.029 -0.034 0.078 -0.049 0.079 -0.008 0.048 0.017 0.015 0.019 -0.123 0.019 z" vector-effect="non-scaling-stroke" fill="#000" fill-opacity="1" stroke="#FFF" stroke-width="0px" stroke-linejoin="round" stroke-linecap="round"/></svg>
