<svg xmlns="http://www.w3.org/2000/svg" xmlns:xlink="http://www.w3.org/1999/xlink" height="400" width="400" viewBox="44.0232421875 -39.7685546875 19.28193359375 14.666455078125"><path d="M 56.188 -26.921 l -0.093 0.12 -0.141 0.1 -0.06 -0.031 -0.046 0.001 -0.1 0.038 -0.073 0.007 -0.131 0.068 -0.119 0.034 -0.083 -0.003 -0.029 -0.007 -0.017 -0.047 0.001 -0.018 0.05 0.01 0.185 -0.062 0.231 -0.102 0.022 -0.045 -0.037 -0.074 0.01 -0.017 0.15 0.038 0.167 -0.074 0.14 -0.02 0.065 0.051 z M 53.914 -37.344 l 0.277 0.011 0.108 -0.021 0.159 -0.054 0.12 -0.033 0.061 -0.004 0.06 -0.025 0.046 -0.032 0.103 -0.221 0.051 -0.055 0.175 -0.125 0.149 -0.079 0.156 -0.07 0.198 -0.049 0.263 0.005 0.209 0.017 0.121 -0.001 0.058 0.005 0.043 -0.007 0.025 -0.014 0.027 -0.096 0.043 -0.031 0.074 -0.027 0.103 0 0.126 -0.007 0.105 0.007 0.132 0.037 0.172 0.003 0.115 -0.006 0.067 0.037 0.048 0.049 0.023 0.041 0.005 0.056 -0.001 0.043 0.018 0.017 0.07 0.026 0.097 0.019 0.19 0.023 0.178 0.044 0.092 0.03 0.128 0.047 0.153 0.117 0.057 0.019 0.069 0.012 0.049 -0.003 0.115 -0.05 0.1 0.037 0.051 -0.005 0.115 -0.027 0.122 0.034 0.304 0.129 0.033 -0.003 0.028 0.013 0.025 0.029 0.018 0.036 0.023 0.111 0.088 0.081 0.107 0.074 0.125 0.04 0.261 0.097 0.114 0.079 0.116 0.133 0.142 0.176 0.021 0.016 0.367 -0.005 0.412 0 0.05 0.07 -0.01 0.14 0.015 0.143 0.037 0.099 0 0.091 -0.03 0.046 -0.023 0.053 -0.007 0.023 0.053 0.033 0.046 0.076 0.007 0.106 -0.023 0.056 0.003 0.046 0.023 0.04 0.02 0.066 -0.003 0.04 -0.033 0.04 -0.02 0.05 -0.026 0.063 -0.01 0.05 -0.05 0.023 -0.04 0.017 0.007 0.063 0.02 0.053 0.023 0.063 -0.026 0.043 -0.017 0.05 -0.036 0.079 0.01 0.066 -0.04 0.056 -0.05 0.05 -0.033 0.04 -0.007 0.056 -0.036 0.02 -0.069 0.046 -0.043 0.033 -0.063 0.01 -0.013 0.026 0.01 0.026 0.026 0.017 0.041 0.057 0.086 0.099 -0.247 0.012 -0.072 0.088 -0.084 0.125 0.041 0.253 -0.041 0.13 0.025 0.073 0.063 0.051 0.081 0.028 0.152 0.002 0.1 0.02 0.01 0.034 -0.058 0.049 -0.092 0.092 -0.049 0.04 -0.158 0.186 0.001 0.079 0.015 0.064 0.068 0.2 0.066 0.194 0.119 0.351 -0.002 0.081 -0.037 0.181 -0.002 0.11 0.017 0.143 -0.013 0.074 0.029 0.165 0.033 0.012 0.257 0.032 0.236 0.029 0.314 0.039 0.095 0.097 0.059 0.213 -0.003 0.159 -0.027 0.081 -0.225 0.233 -0.228 0.236 -0.228 0.235 -0.261 0.27 0.191 0.195 0.118 0.121 0.166 0.17 0.021 0.041 -0.002 0.067 0.171 0.259 0.06 0.135 0.054 0.079 0.135 0.124 0.132 0.121 0.143 0.056 0.098 0.012 0.222 0.064 0.081 0.051 0.131 0.129 0.153 -0.018 0.032 0 0.009 0.009 0.004 0.042 -0.023 0.2 0.043 0.202 0.03 0.304 -0.011 0.052 -0.037 0.088 -0.002 0.057 -0.01 0.035 0.01 0.015 0.049 0.021 0.104 0.011 0.251 -0.034 0.029 0.009 0.06 0.036 0.045 0.056 0.004 0.027 -0.063 0.047 -0.011 0.08 0.019 0.119 -0.009 0.015 -0.055 0.027 -0.018 0.172 -0.01 0.016 -0.065 0.017 -0.306 -0.012 -0.035 0.005 -0.115 0.046 -0.197 0.033 -0.054 0.018 -0.073 0.052 -0.053 0.063 -0.01 0.058 -0.01 0.012 -0.113 -0.012 -0.037 0.051 -0.219 0.076 -0.027 0.017 -0.032 0.061 -0.029 0.169 -0.026 0.152 -0.017 0.022 -0.069 0.052 -0.007 0.018 0.01 0.059 -0.031 0.108 -0.025 0.298 -0.028 0.084 -0.055 0.007 -0.043 0.042 -0.078 0.052 -0.169 -0.04 -0.134 -0.042 -0.445 -0.098 -0.049 -0.048 -0.028 -0.084 -0.077 -0.024 -0.11 0.125 -0.375 -0.073 -0.128 0.022 -0.079 -0.039 -0.202 -0.002 -0.16 -0.078 -0.229 0.054 -0.181 0.01 -0.248 -0.137 -0.267 -0.038 -0.217 0.012 -0.111 -0.011 -0.181 -0.049 -0.086 -0.051 -0.141 0.039 -0.064 -0.072 -0.398 -0.067 -0.074 -0.127 -0.055 -0.118 -0.004 -0.122 -0.097 -0.213 -0.032 -0.309 -0.036 -0.121 -0.054 -0.105 -0.072 -0.089 -0.098 -0.095 -0.085 -0.038 -0.372 -0.073 -0.072 0.01 -0.166 0.048 -0.177 0.106 -0.291 0.06 -0.059 0.045 -0.073 0.102 -0.095 0.059 -0.13 -0.015 -0.14 0.061 -0.259 0.169 -0.137 0.052 -0.114 -0.004 -0.123 -0.08 -0.275 -0.107 -0.178 -0.036 -0.247 0.025 -0.117 -0.018 -0.199 -0.126 -0.052 -0.092 -0.113 -0.061 -0.359 -0.137 -0.291 -0.181 -0.053 -0.069 -0.036 -0.101 -0.127 -0.123 -0.284 -0.101 -0.161 -0.107 -0.189 -0.024 -0.176 0.003 -0.077 -0.019 -0.071 -0.046 -0.24 -0.221 -0.003 -0.087 -0.148 -0.216 -0.035 -0.077 -0.032 -0.214 -0.041 -0.056 -0.154 -0.088 -0.024 -0.058 0.033 -0.077 0 -0.058 -0.08 -0.055 -0.12 -0.029 -0.029 -0.066 0.022 -0.128 -0.018 -0.08 -0.106 -0.128 -0.157 -0.131 -0.157 -0.194 -0.061 -0.048 -0.04 -0.127 -0.057 -0.15 -0.088 -0.011 -0.428 0.18 -0.125 -0.102 -0.376 -0.176 -0.026 -0.027 -0.026 -0.04 0.047 -0.023 0.047 -0.01 0.094 0.031 0.057 -0.037 -0.023 -0.06 -0.094 -0.037 -0.128 0.003 0.035 0.056 -0.12 0.053 -0.026 0.07 0.017 0.086 0.01 0.121 -0.049 0.058 -0.038 0.027 -0.162 0.007 -0.075 0.053 -0.049 0.013 -0.068 -0.041 -0.044 -0.034 -0.036 -0.072 -0.011 -0.05 0.014 -0.028 -0.019 -0.042 -0.052 -0.055 -0.052 -0.03 -0.053 -0.006 -0.044 -0.034 -0.035 -0.062 -0.081 -0.041 -0.051 -0.008 -0.001 -0.191 -0.001 -0.167 -0.001 -0.166 -0.174 -0.007 -0.157 -0.006 0 -0.139 0 -0.259 0.074 -0.201 0.076 -0.193 -0.115 -0.142 -0.123 -0.152 -0.08 -0.063 -0.094 -0.189 -0.047 -0.084 -0.042 -0.032 -0.045 -0.019 -0.164 0.007 -0.153 -0.102 -0.179 -0.12 -0.219 -0.146 -0.193 -0.095 -0.079 -0.021 -0.185 -0.007 -0.02 -0.018 -0.013 -0.052 0 -0.058 0.06 -0.088 0.005 -0.055 -0.126 -0.186 -0.039 -0.054 -0.108 -0.022 0.021 -0.054 0 -0.036 -0.015 -0.028 -0.025 -0.014 -0.032 -0.001 -0.085 0.022 -0.065 -0.084 -0.2 -0.239 -0.064 -0.029 -0.012 -0.016 0.049 -0.073 0.083 -0.108 0.014 -0.063 -0.016 -0.069 -0.089 -0.13 0.022 -0.055 0.038 -0.064 0.003 -0.048 0.06 0.007 0.077 0.001 0.024 -0.039 -0.001 -0.136 0.018 -0.05 0.243 -0.23 0.121 -0.052 0.092 -0.047 0.021 -0.069 -0.019 -0.036 -0.018 -0.052 -0.006 -0.037 -0.101 -0.103 -0.035 -0.052 -0.004 -0.047 0.024 -0.084 0.042 -0.065 0.144 -0.038 0.082 -0.033 0.011 -0.029 -0.106 -0.047 -0.226 -0.015 -0.165 0.014 -0.053 -0.015 -0.078 -0.092 -0.083 -0.049 -0.078 -0.031 -0.076 0.006 -0.046 -0.013 -0.011 -0.039 -0.11 -0.301 -0.035 -0.041 -0.051 -0.01 -0.043 -0.002 -0.029 -0.021 -0.031 -0.042 -0.022 -0.054 -0.002 -0.071 0.005 -0.061 -0.015 -0.04 -0.038 -0.039 -0.054 -0.028 -0.047 -0.033 -0.082 -0.265 -0.033 -0.071 0 -0.007 0.002 -0.014 -0.008 -0.061 0.038 -0.053 -0.003 -0.021 -0.079 -0.067 -0.111 -0.067 -0.03 -0.012 -0.001 -0.071 0.004 -0.054 -0.01 -0.048 -0.021 -0.028 -0.001 -0.022 0.045 -0.052 -0.029 -0.034 -0.163 -0.085 -0.062 -0.043 -0.113 -0.008 -0.012 -0.028 0.018 -0.059 0.039 -0.072 0.061 -0.07 0.02 -0.037 0.024 -0.063 0.008 -0.045 0.069 -0.063 0 -0.016 -0.019 -0.023 -0.055 -0.013 -0.056 -0.005 -0.021 -0.012 -0.008 -0.034 0.007 -0.138 -0.018 -0.083 -0.023 -0.06 0.015 -0.135 -0.039 -0.027 -0.062 -0.071 -0.026 -0.06 0.014 -0.022 0.013 -0.04 0.009 -0.052 -0.003 -0.037 -0.057 -0.036 -0.042 -0.038 -0.005 -0.042 -0.017 -0.051 -0.024 -0.04 -0.011 -0.026 0.021 -0.016 0.08 -0.012 0.116 0.008 0.095 0.001 0.054 -0.026 0.067 -0.245 0.061 -0.065 0.07 -0.037 0.138 0.087 0.057 0.031 0.035 0.001 0.021 0.021 0.162 0.206 0.071 0.061 0.041 0.051 0.028 0.057 0.049 0.039 0.065 0.021 0.08 0.056 0.054 0.043 0.09 0.09 0.095 0.033 0.347 0.065 0.193 0.03 0.056 0.009 0.148 -0.044 0.173 0.006 0.064 0.002 0.228 -0.183 0.069 -0.061 0.136 -0.032 0.077 -0.073 0.123 -0.088 0.15 -0.083 0.138 -0.074 0.106 -0.045 0.191 -0.105 0.119 -0.036 0.104 0.001 0.155 0.123 0.131 0.112 0.04 0.049 -0.065 0.044 -0.121 0.043 -0.023 0.031 -0.008 0.04 0.005 0.038 0.016 0.031 0.149 0.073 0.017 0.04 0.001 0.04 -0.017 0.025 -0.033 0.015 -0.103 0.02 -0.088 0.024 -0.031 0.023 -0.027 0.028 0.004 0.031 0.027 0.035 0.181 0.095 0.021 0.035 0.036 0.047 0.044 0.029 0.076 0.008 0.036 0.019 0.175 0.175 0.043 0.012 0.205 -0.039 0.028 0.002 0.002 0.043 0.031 0.249 0.024 0.129 0.035 0.125 0.055 0.114 0.066 0.108 0.09 0.067 0.201 0.081 0.098 0.023 0.257 0.016 0.254 0.036 0.15 0.038 0.046 0.027 0.038 0.041 0.124 0.19 0.195 0.135 0.394 0.203 0.191 0.068 0.643 0.128 0.428 -0.007 1.184 -0.247 0.394 -0.062 0.148 0 -0.088 0.049 -0.148 0.028 0.089 0.035 0.137 0.006 0.064 -0.006 0.046 -0.031 0.008 -0.052 -0.007 -0.051 -0.065 -0.229 z" vector-effect="non-scaling-stroke" fill="#000" fill-opacity="1" stroke="#FFF" stroke-width="0px" stroke-linejoin="round" stroke-linecap="round"/></svg>
