<svg xmlns="http://www.w3.org/2000/svg" xmlns:xlink="http://www.w3.org/1999/xlink" height="400" width="400" viewBox="38.77353515625 -37.371875 9.77294921875 8.308203125"><path d="M 42.359 -37.109 l 0.097 -0.02 0.18 -0.121 0.106 -0.113 0.033 -0.01 0.095 0.037 0.067 0.01 0.156 -0.043 0.093 0.023 0.078 0.028 0.044 0.002 0.209 0.07 0.052 0.009 0.108 0.009 0.161 0.004 0.104 -0.046 0.073 -0.044 0.051 0.001 0.05 0.011 0.042 0.019 0.036 0.033 0.017 0.047 -0.007 0.151 0.016 0.04 0.028 0.029 0.036 0.005 0.044 -0.033 0.076 -0.048 0.094 -0.052 0.07 -0.048 0.04 -0.018 0.063 0.002 0.062 0.008 0.034 0.023 0 0.007 0.033 0.071 0.082 0.265 0.047 0.033 0.054 0.028 0.038 0.039 0.015 0.04 -0.005 0.061 0.002 0.071 0.022 0.054 0.031 0.042 0.029 0.021 0.043 0.002 0.051 0.01 0.035 0.041 0.11 0.301 0.011 0.039 0.046 0.013 0.076 -0.006 0.078 0.031 0.083 0.049 0.078 0.092 0.053 0.015 0.165 -0.014 0.226 0.015 0.106 0.047 -0.011 0.029 -0.082 0.033 -0.144 0.038 -0.042 0.065 -0.024 0.084 0.004 0.047 0.035 0.052 0.101 0.103 0.006 0.037 0.018 0.052 0.019 0.036 -0.021 0.069 -0.092 0.047 -0.121 0.052 -0.243 0.23 -0.018 0.05 0.001 0.136 -0.024 0.039 -0.077 -0.001 -0.06 -0.007 -0.003 0.048 -0.038 0.064 -0.022 0.055 0.089 0.13 0.016 0.069 -0.014 0.063 -0.083 0.108 -0.049 0.073 0.012 0.016 0.064 0.029 0.2 0.239 0.065 0.084 0.085 -0.022 0.032 0.001 0.025 0.014 0.015 0.028 0 0.036 -0.021 0.054 0.108 0.022 0.039 0.054 0.126 0.186 -0.005 0.055 -0.06 0.088 0 0.058 0.013 0.052 0.02 0.018 0.185 0.007 0.079 0.021 0.193 0.095 0.219 0.146 0.179 0.12 0.153 0.102 0.164 -0.007 0.045 0.019 0.042 0.032 0.047 0.084 0.094 0.189 0.08 0.063 0.123 0.152 0.115 0.142 -0.076 0.193 -0.074 0.201 0 0.259 0 0.139 0.157 0.006 0.174 0.007 0.001 0.166 0.001 0.167 0.001 0.191 0.051 0.008 0.081 0.041 0.035 0.062 0.044 0.034 0.053 0.006 0.052 0.03 0.052 0.055 0.019 0.042 -0.014 0.028 0.011 0.05 0.036 0.072 0.044 0.034 0.068 0.041 -0.092 0.024 -0.1 -0.018 -0.213 -0.084 -0.069 -0.002 -0.09 0.032 -0.004 0.029 -0.225 -0.094 -0.081 -0.019 -0.029 -0.002 -0.129 0.001 -0.183 0.017 -0.108 0.038 -0.075 0.041 -0.034 0.04 -0.012 0.021 -0.058 0.117 -0.068 0.15 -0.07 0.135 -0.137 0.19 -0.076 0.088 -0.162 0.163 -0.175 0.033 -0.407 -0.032 -0.451 -0.036 -0.449 -0.036 -0.334 -0.027 -0.026 -0.009 -0.33 -0.233 -0.261 -0.184 -0.326 -0.23 -0.333 -0.235 -0.338 -0.238 -0.245 -0.173 -0.298 -0.223 -0.271 -0.203 -0.214 -0.16 -0.275 -0.14 -0.215 -0.109 -0.313 -0.159 -0.25 -0.127 -0.214 -0.109 -0.329 -0.168 -0.11 -0.046 -0.342 -0.056 -0.324 -0.048 -0.335 -0.049 -0.223 -0.033 0.147 -0.119 -0.045 -0.107 -0.107 0.02 -0.099 0.026 -0.06 -0.167 0.076 -0.021 -0.07 -0.218 -0.073 -0.224 -0.07 -0.216 -0.071 -0.221 0.283 -0.142 0.212 -0.106 0.296 -0.148 0.286 -0.143 0.272 -0.136 0.3 -0.15 0.268 -0.134 0.246 -0.055 0.052 -0.042 0.112 -0.183 0.096 -0.157 0.004 -0.036 0 -0.222 0.017 -0.261 0.032 -0.139 0.055 -0.123 0.051 -0.09 0.005 -0.084 -0.007 -0.085 -0.052 -0.129 -0.055 -0.134 0.006 -0.13 0.01 -0.069 0.034 -0.111 0.058 -0.081 0.063 -0.05 0.233 -0.052 0.138 -0.031 0.185 -0.144 0.11 -0.085 0.153 -0.135 0.113 -0.099 0.009 -0.034 z" vector-effect="non-scaling-stroke" fill="#000" fill-opacity="1" stroke="#FFF" stroke-width="0px" stroke-linejoin="round" stroke-linecap="round"/></svg>
