<svg xmlns="http://www.w3.org/2000/svg" xmlns:xlink="http://www.w3.org/1999/xlink" height="400" width="400" viewBox="-10.390234375 -55.3658203125 4.36284179687499 3.89208984375"><path d="M -9.948 -53.913 l -0.004 0.029 -0.074 -0.036 -0.036 -0.039 -0.203 -0.018 0.085 -0.039 0.041 0.012 0.143 0.002 0.04 0.016 z M -7.219 -55.092 l -0.158 0.064 -0.025 0.024 -0.045 0.098 -0.005 0.028 -0.051 0.052 -0.048 0.057 -0.056 0.022 -0.084 0.018 -0.048 0.018 -0.06 -0.009 -0.076 0.001 -0.038 0.02 0.002 0.015 0.023 0.017 0.066 0.026 0.074 0.024 -0.008 0.021 -0.039 0.024 -0.251 0.059 -0.075 0.035 -0.026 0.023 0.027 0.039 0.2 0.118 0.034 0.013 0.03 0.069 0.176 0.029 0.072 0.043 0.062 0.01 0.135 -0.004 0.054 0.016 0.031 -0.012 0.018 -0.023 0.114 -0.058 0.038 -0.025 -0.023 -0.035 -0.025 -0.027 0.069 -0.054 0.084 -0.053 0.042 0.002 0.072 0.032 0.059 0.045 0.008 0.035 0.011 0.025 0.056 0.054 0.036 0.019 0.097 0.011 0.023 0.021 -0.017 0.079 0.014 0.026 0.102 0.001 0.108 -0.006 0.038 0.003 0.039 -0.016 0.06 -0.018 0.086 0.006 0.042 0.035 0.019 0.036 -0.074 0.014 -0.077 -0.007 -0.038 0.024 -0.002 0.046 0.026 0.059 0.051 0.042 0.041 0.095 0.034 0.105 0.053 0.063 0.011 0.079 -0.008 0.039 0.01 0.069 -0.023 0.024 0.017 0.065 0.062 0.135 0.027 0.075 0.018 0.164 -0.044 0.061 -0.059 0.058 -0.039 0.069 -0.03 0.075 -0.018 0.12 -0.128 0.141 -0.055 0.035 -0.063 0.022 0.138 0.099 -0.113 0.044 -0.123 0.014 -0.136 -0.025 -0.085 0.003 -0.077 0.032 -0.031 0.019 -0.024 -0.009 -0.051 -0.081 -0.037 0.084 -0.079 0.027 -0.134 -0.006 -0.225 0.022 -0.086 0.024 -0.036 0.037 -0.027 0.043 -0.035 0.025 -0.04 0.013 -0.173 0.032 -0.034 0.013 -0.08 0.07 -0.105 0.04 -0.087 0.012 -0.077 -0.04 -0.032 -0.024 -0.036 -0.012 -0.119 0.002 0.038 0.013 0.024 0.029 0.012 0.055 -0.014 0.054 -0.059 0.027 -0.07 0.005 -0.11 0.056 -0.146 0.015 -0.079 0.051 -0.483 0.087 -0.027 0.001 -0.067 -0.022 -0.072 -0.01 -0.072 0.007 -0.202 0.048 -0.098 -0.01 0.125 -0.12 0.168 -0.061 0.017 -0.017 -0.055 -0.008 -0.319 0.042 -0.111 0.036 -0.111 0.01 0.051 -0.055 0.143 -0.075 0.077 -0.035 0.047 -0.014 0.053 -0.044 0.151 -0.05 -0.485 0.103 -0.127 -0.013 -0.03 -0.029 -0.099 0.014 -0.038 -0.07 0.147 -0.106 0.086 -0.046 0.102 -0.025 0.098 -0.035 0.036 -0.043 -0.046 -0.014 -0.294 0.011 -0.141 -0.009 0.008 -0.034 0.026 -0.038 0.146 -0.065 0.079 -0.01 0.07 0.006 0.069 0.017 0.056 0.022 0.165 -0.012 -0.069 -0.041 -0.012 -0.084 -0.053 -0.028 0.068 -0.039 0.077 -0.024 0.129 -0.081 0.046 -0.012 0.255 -0.02 0.275 -0.042 0.273 -0.058 -0.14 -0.033 -0.067 -0.043 -0.108 0.087 -0.077 0.033 -0.219 0.018 -0.069 -0.01 -0.098 -0.027 -0.03 0.01 -0.028 0.021 -0.145 0.043 -0.152 0.01 0.177 -0.078 0.225 -0.133 0.05 -0.042 0.071 -0.073 -0.022 -0.033 -0.046 -0.019 0.163 -0.15 0.057 -0.027 0.104 -0.004 0.076 -0.024 0.034 0 0.03 -0.009 0.067 -0.045 -0.103 -0.029 -0.107 -0.015 -0.33 0.016 -0.043 -0.003 -0.041 -0.014 -0.027 -0.02 -0.02 -0.051 -0.024 -0.011 -0.075 0 -0.073 0.016 -0.051 -0.002 -0.05 -0.022 0.08 -0.052 -0.104 -0.012 -0.105 0.01 -0.087 -0.016 -0.003 -0.033 0.04 -0.033 -0.052 -0.031 -0.011 -0.039 0.055 -0.019 0.06 0.006 0.123 -0.029 0.158 -0.014 -0.135 -0.029 -0.054 -0.025 -0.003 -0.037 0.011 -0.032 0.157 -0.054 0.167 -0.024 -0.012 -0.036 0.012 -0.039 -0.169 -0.011 -0.167 0.027 0.018 -0.074 0.04 -0.067 0.008 -0.044 -0.008 -0.047 -0.078 0.02 -0.009 -0.066 -0.033 -0.046 -0.116 0.031 0.003 -0.06 0.033 -0.042 0.06 -0.018 0.06 0.008 0.111 -0.001 0.107 -0.032 0.155 -0.008 0.247 0.01 0.17 0.089 0.044 -0.016 0.068 -0.056 0.032 -0.006 0.256 0.025 0.159 0.032 0.042 -0.01 -0.023 -0.062 -0.055 -0.043 0.069 -0.057 0.083 -0.038 0.056 -0.019 0.129 -0.024 0.056 -0.022 0.037 -0.073 0.06 -0.061 -0.323 0.032 -0.307 -0.072 0.049 -0.051 0.065 -0.029 0.112 -0.022 0.011 -0.027 0.057 -0.022 0.094 -0.058 -0.034 -0.076 0.018 -0.055 0.067 -0.036 0.021 -0.052 0.03 -0.038 0.137 -0.014 0.132 -0.035 0.048 0.003 0.155 -0.008 0.053 0.014 -0.012 -0.063 0.095 -0.008 0.037 0.013 0.016 0.044 0.043 0.028 0.013 0.049 -0.029 0.038 -0.049 0.029 0.044 0.03 -0.069 0.054 0.074 -0.023 0.106 -0.053 -0.006 -0.043 -0.018 -0.054 -0.029 -0.049 0.014 -0.054 0.06 -0.034 0.157 -0.017 -0.064 -0.061 0.057 -0.006 0.062 0.013 0.091 0.048 0.095 0.038 0.099 0.03 -0.095 0.06 -0.116 0.041 z" vector-effect="non-scaling-stroke" fill="#000" fill-opacity="1" stroke="#FFF" stroke-width="0px" stroke-linejoin="round" stroke-linecap="round"/></svg>
