<svg xmlns="http://www.w3.org/2000/svg" xmlns:xlink="http://www.w3.org/1999/xlink" height="400" width="400" viewBox="34.2453125 -33.415673828125 1.6426649870949 3.938330078125"><path d="M 35.841 -33.416 l -0.025 0.054 -0.024 0.028 -0.008 0.043 0.015 0.035 0.009 0.048 0.018 0.013 0.006 0.031 -0.016 0.031 0.008 0.025 0.02 0.023 0.014 0.095 0.029 0.045 -0.046 0.068 -0.009 0.056 -0.046 0.085 -0.053 0.006 -0.123 0.047 -0.017 0.014 -0.022 0.027 -0.004 0.021 -0.018 0.224 -0.067 -0.006 -0.082 -0.049 -0.016 -0.042 -0.025 -0.014 -0.058 -0.005 -0.111 -0.021 -0.128 0.074 -0.054 0.122 -0.011 0.057 -0.044 0.12 0.015 0.074 0.007 0.096 0.011 0.078 -0.011 0.047 -0.025 0.025 0.007 0.018 0.022 0.007 0.07 -0.021 0.074 0.021 0.071 0.04 0.006 0.026 -0.05 0.016 -0.119 0.061 -0.084 0.071 -0.022 0.066 -0.056 0.14 0.008 0.029 0.027 0.017 0.193 -0.015 0.175 -0.057 0.132 -0.06 0.042 0.004 -0.028 0.154 0.001 0.001 -0.023 0.094 0.009 0.016 0.03 0.082 -0.056 0.15 -0.063 0.122 -0.022 0.058 -0.061 0.129 -0.063 0.15 -0.033 0.103 0.008 0.037 -0.016 0.189 0.009 0.054 -0.073 0.164 -0.015 0.081 -0.029 0.11 -0.05 0.232 -0.069 0.078 -0.034 -0.087 -0.079 -0.248 -0.056 -0.17 -0.076 -0.209 -0.129 -0.255 -0.012 -0.061 -0.028 -0.089 -0.089 -0.232 -0.072 -0.167 -0.083 -0.213 0.103 -0.085 0.002 -0.07 0.175 -0.163 -0.001 -0.016 -0.047 -0.043 0.007 -0.007 0.194 -0.303 0.125 -0.301 0.118 -0.418 0.084 -0.213 0.071 -0.141 0.032 -0.117 0.115 -0.008 0.086 0.012 0.102 0.004 0.082 -0.044 0.039 -0.131 0.047 -0.021 0.024 0.031 0.024 -0.034 0.107 -0.058 0.053 -0.037 z" vector-effect="non-scaling-stroke" fill="#000" fill-opacity="1" stroke="#FFF" stroke-width="0px" stroke-linejoin="round" stroke-linecap="round"/></svg>
