<svg xmlns="http://www.w3.org/2000/svg" xmlns:xlink="http://www.w3.org/1999/xlink" height="400" width="400" viewBox="6.62773437500002 -47.08212890625 11.85810546875 10.394287109375"><path d="M 7.021 -45.926 l 0.035 0.022 0.073 0.023 0.199 -0.032 0.124 -0.032 0.087 -0.034 0.054 0.006 0.195 0.05 0.064 -0.026 0.141 -0.068 0.021 -0.036 0.111 -0.109 0.002 -0.027 -0.046 -0.068 0.014 -0.015 0.136 -0.07 0.067 -0.062 0.072 -0.042 0.052 -0.001 0.014 0.014 0.006 0.029 -0.004 0.12 0.02 0.037 0.107 0.086 0.076 0.049 0.177 0.034 0.008 0.016 -0.049 0.065 0.107 0.077 0.019 0.057 0.049 0.032 0.07 -0.016 0.023 -0.03 -0.028 -0.053 -0.02 -0.055 0.004 -0.032 0.019 -0.037 0.049 -0.051 0.132 -0.117 0.048 -0.068 0.009 -0.104 0 -0.084 0.044 -0.02 0.095 0.015 0.028 -0.002 0.013 0.052 0.04 0.082 0.048 0.043 0.051 0.01 0.06 0 0.148 -0.05 0.097 -0.022 0.055 0.006 0.032 0.034 0.069 0.09 0.04 0.01 0.048 -0.01 0.017 -0.015 -0.015 -0.034 -0.02 -0.075 -0.028 -0.058 -0.036 -0.027 -0.007 -0.035 0.023 -0.064 0.026 -0.053 0.05 -0.014 0.058 -0.007 0.077 0.056 0.091 0.018 0.068 -0.003 0.012 -0.033 -0.004 -0.036 -0.04 -0.046 0.008 -0.07 0.047 -0.13 0.027 0.01 0.1 0.001 0.109 0.007 0.071 0.053 0.069 0.018 0.098 0.006 0.066 -0.008 0.032 -0.02 0.038 -0.062 0.07 -0.077 0.111 -0.04 0.189 -0.007 0.094 -0.014 0.098 0.001 0.074 0.012 0.076 -0.001 0.194 -0.054 0.2 -0.042 0.028 0.007 0.004 0.014 -0.036 0.033 -0.035 0.043 0.023 0.05 0.114 0.099 0.062 0.076 0.058 0.057 0.091 0.03 0.119 0.018 0.101 0.007 0.106 0.022 0.363 0.053 0.183 0.015 0.138 0.002 0.21 0.035 -0.02 0.057 -0.043 0.014 -0.074 0.033 -0.085 0.046 -0.079 0.052 -0.021 0.056 0.021 0.037 0.021 0.013 0.029 -0.011 0.042 0.007 0.053 0.02 0.088 0.02 0.002 0.019 -0.018 0.025 -0.069 0.044 -0.062 0.05 -0.006 0.03 0.007 0.022 0.021 0.013 0.091 -0.006 0.013 0.018 -0.044 0.128 0.014 0.022 0.08 0.02 0.058 0.031 0.109 0.081 0.044 0.066 -0.03 0.022 -0.069 0.011 -0.056 -0.006 0.063 -0.04 -0.155 -0.144 -0.07 0 -0.093 0.061 -0.259 -0.061 -0.05 0.025 -0.037 0.049 -0.09 0.06 -0.127 0.027 -0.142 0.067 -0.15 0.047 -0.114 0.036 -0.065 -0.006 0.104 -0.077 -0.044 -0.001 -0.138 0.054 -0.079 0.046 -0.025 0.077 -0.023 0.127 0.061 0.034 0.106 0.168 0.131 0.072 -0.025 0.069 -0.034 0.054 -0.079 0.047 -0.065 -0.035 -0.04 0.001 -0.031 0.11 0.057 0.293 0.091 0.206 0.091 0.09 0.204 0.14 0.216 0.074 0.388 0.235 0.213 0.074 0.056 0.04 0.129 0.181 0.111 0.21 0.12 0.329 0.086 0.162 0.172 0.183 0.358 0.262 0.325 0.192 0.303 0.119 0.236 0.021 0.559 -0.026 0.097 0.011 0.103 0.032 0.025 0.082 -0.038 0.056 -0.118 0.058 -0.12 0.08 -0.013 0.109 0.112 0.077 0.539 0.203 0.552 0.17 0.172 0.087 0.199 0.135 0.481 0.185 0.081 0.09 0.292 0.194 0.132 0.15 0.025 0.116 -0.063 0.118 -0.029 0.083 -0.05 0.082 -0.124 -0.031 -0.141 -0.084 -0.213 -0.343 -0.389 -0.035 -0.08 -0.025 -0.138 -0.059 -0.008 -0.039 -0.034 -0.049 -0.035 -0.016 -0.149 -0.011 -0.103 0.055 -0.121 0.132 -0.137 0.189 -0.14 0.278 -0.008 0.112 0.076 0.109 0.227 0.061 0.175 0.097 0.115 0.101 0.008 0.244 0.052 0.138 -0.076 0.079 -0.147 -0.02 -0.196 0.05 -0.139 0.09 -0.058 0.085 0.015 0.221 -0.029 0.084 -0.263 0.16 -0.138 0.163 -0.034 0.068 -0.053 0.077 -0.332 0.003 -0.079 -0.095 -0.003 -0.141 0.057 -0.087 0.122 -0.041 0.082 -0.181 -0.026 -0.13 0.048 -0.058 0.045 -0.041 0.093 -0.024 0.131 -0.023 0.013 -0.182 -0.103 -0.083 -0.036 -0.116 -0.048 -0.214 -0.169 -0.273 -0.091 -0.244 -0.071 -0.12 -0.108 -0.063 -0.194 0.001 -0.096 -0.018 -0.344 -0.169 -0.024 -0.026 0.002 -0.045 0.057 -0.068 -0.038 -0.092 -0.041 -0.087 -0.067 -0.074 -0.074 -0.038 -0.154 0.024 -0.054 0.018 -0.098 -0.006 -0.077 0.033 -0.043 0.001 0.121 -0.13 -0.032 -0.031 -0.119 -0.053 -0.162 -0.008 -0.045 -0.006 -0.026 0.033 -0.032 -0.018 0.003 -0.058 -0.188 -0.26 -0.126 -0.106 -0.064 -0.019 -0.115 0.022 -0.193 -0.046 -0.115 -0.01 -0.063 0.011 -0.095 0.034 -0.048 -0.022 -0.017 -0.035 -0.175 -0.108 -0.218 -0.061 -0.425 -0.343 -0.13 -0.128 -0.268 -0.141 -0.17 -0.206 -0.139 -0.075 -0.202 -0.06 -0.047 0.008 -0.061 0.023 -0.048 0.003 -0.038 -0.027 0.039 -0.027 0.043 -0.012 -0.017 -0.079 -0.23 -0.204 -0.135 -0.066 -0.038 -0.04 -0.028 -0.055 -0.029 -0.036 -0.064 -0.021 -0.054 0.004 -0.075 -0.014 0.002 -0.098 0.015 -0.075 -0.012 -0.064 -0.073 -0.167 -0.127 -0.142 -0.075 -0.339 -0.058 -0.095 -0.14 -0.072 -0.317 -0.081 -0.442 -0.218 -0.093 -0.004 -0.266 -0.085 -0.165 -0.015 -0.214 0.076 -0.26 0.21 -0.211 0.218 -0.077 0.042 -0.272 0.074 -0.24 0.035 -0.003 -0.056 -0.008 -0.042 0.041 -0.046 0.067 -0.054 0.062 -0.068 0.026 -0.05 -0.012 -0.033 -0.028 -0.049 -0.038 -0.004 -0.229 0.041 -0.052 -0.011 -0.169 -0.064 -0.182 -0.078 -0.067 -0.056 -0.025 -0.056 0.019 -0.036 -0.015 -0.035 -0.036 -0.047 0.032 -0.054 0.057 -0.067 0.028 -0.046 0.048 -0.012 0.023 -0.028 -0.038 -0.111 -0.02 -0.018 -0.033 -0.014 -0.05 -0.002 -0.088 -0.023 -0.063 -0.038 -0.013 -0.052 -0.033 -0.05 -0.057 -0.046 -0.007 -0.05 0.065 -0.026 0.088 -0.001 0.062 0.01 0.139 -0.08 0.051 -0.007 0.046 -0.017 0.038 -0.109 0.03 -0.033 0.007 -0.019 -0.027 -0.023 -0.112 -0.077 -0.051 -0.08 -0.081 -0.09 -0.075 -0.04 -0.015 -0.031 -0.002 -0.039 0.015 -0.034 0.136 -0.054 z M 12.439 -41.898 l -0.001 -0.008 -0.008 0.001 -0.003 0.005 0.003 0.003 z M 12.485 -43.901 l 0.029 -0.052 -0.011 -0.037 -0.063 0.007 -0.044 0.048 0.029 0.04 z M 10.395 -42.858 l 0.033 0.039 0.004 0.023 -0.022 0.026 0.009 0.058 -0.084 -0.048 -0.127 0.024 -0.078 -0.005 -0.021 -0.043 0.018 -0.025 0.121 -0.005 0.037 -0.012 0.073 0.006 z M 13.938 -40.706 l -0.045 0.009 -0.026 -0.012 -0.014 -0.015 0.018 -0.038 0.091 0.022 -0.001 0.021 z M 12.051 -36.757 l -0.048 0.011 -0.063 -0.034 -0.004 -0.048 0.012 -0.014 0.076 0.022 0.024 0.045 z M 15.577 -38.22 l -0.068 0.114 -0.033 0.044 -0.241 0.278 -0.028 0.064 -0.017 0.07 -0.025 0.061 -0.034 0.058 -0.032 0.073 0.006 0.083 0.011 0.041 0.029 0.027 0.048 0.025 0.037 0.039 -0.056 0.035 0.062 0.07 0.053 0.042 0.007 0.042 -0.001 0.042 -0.109 0.078 -0.043 0.043 -0.027 0.052 -0.012 0.054 0.012 0.049 -0.004 0.049 -0.11 -0.006 -0.113 -0.03 -0.114 0.013 -0.162 -0.056 -0.059 -0.01 -0.054 -0.022 -0.135 -0.174 -0.108 -0.074 -0.116 -0.057 -0.119 -0.003 -0.119 0.006 -0.105 -0.035 -0.213 -0.118 -0.226 -0.095 -0.096 -0.062 -0.044 -0.041 -0.051 -0.027 -0.13 -0.027 -0.116 -0.064 -0.053 -0.005 -0.114 0.008 -0.058 -0.004 -0.059 -0.023 -0.113 -0.075 -0.072 -0.104 -0.019 -0.046 0.051 -0.119 0.061 -0.114 0.054 -0.032 0.063 -0.023 0.038 -0.034 0.032 -0.041 0.116 0.119 0.052 0.029 0.053 -0.006 0.094 -0.043 0.008 -0.047 0.103 -0.059 0.131 -0.001 0.061 0.011 0.032 0.054 0.05 0.017 0.058 0.007 0.19 0.102 0.053 0.017 0.054 0.003 0.148 -0.043 0.113 -0.016 0.238 0.024 0.129 -0.026 0.09 -0.003 0.131 -0.04 0.1 -0.066 0.052 -0.016 0.056 -0.005 0.136 0.004 0.137 0.015 0.057 -0.015 0.048 -0.043 0.056 -0.019 0.061 0.013 0.158 -0.074 0.07 -0.005 0.066 0.028 z M 9.632 -40.882 l 0.05 0.064 0.112 0.262 0.011 0.057 -0.022 0.058 -0.029 0.041 -0.111 0.132 0.017 0.109 0.041 0.067 0.006 0.075 -0.021 0.093 -0.069 0.57 -0.033 0.101 -0.021 0.088 -0.076 0.026 -0.098 -0.028 -0.124 -0.049 -0.057 0.003 -0.058 0.017 -0.048 -0.014 -0.045 -0.028 -0.034 0.196 -0.056 0.08 -0.085 0.051 -0.08 0.003 -0.083 -0.017 -0.07 0 -0.053 -0.038 -0.042 -0.066 -0.067 -0.08 -0.068 -0.095 -0.007 -0.086 -0.012 -0.19 0.02 -0.041 0.028 -0.04 0.014 -0.085 -0.01 -0.074 0.02 -0.026 0.04 0.026 0.03 -0.01 -0.002 -0.038 0.009 -0.07 -0.052 -0.058 -0.088 -0.02 -0.008 -0.061 0.009 -0.059 0.046 -0.04 0.016 -0.053 0 -0.162 -0.062 -0.06 -0.024 -0.09 -0.032 -0.058 -0.058 -0.058 -0.065 -0.047 -0.04 -0.046 -0.009 -0.119 0.023 -0.1 0.02 -0.043 0.021 0.006 0.065 0.05 0.053 0.011 0.105 0.012 0.103 -0.016 0.127 -0.045 0.122 -0.055 0.177 -0.16 0.109 -0.033 0.056 -0.042 0.019 -0.057 0.046 -0.015 0.055 0.055 0.068 0.006 0.104 0.046 0.045 0.044 0.039 0.053 0.037 0.023 0.04 0.013 0.006 0.012 -0.031 0.012 -0.036 0.06 0.02 0.017 z M 8.479 -39.068 l -0.057 0.099 -0.061 -0.07 -0.002 -0.06 0.008 -0.017 0.074 0.025 z M 8.286 -41.04 l -0.033 0.046 -0.047 -0.003 0.018 -0.034 0.043 -0.068 0.053 -0.023 0.024 0.02 -0.025 0.039 z" vector-effect="non-scaling-stroke" fill="#000" fill-opacity="1" stroke="#FFF" stroke-width="0px" stroke-linejoin="round" stroke-linecap="round"/></svg>
