<svg xmlns="http://www.w3.org/2000/svg" xmlns:xlink="http://www.w3.org/1999/xlink" height="400" width="400" viewBox="-78.339501953125 -18.522216796875 2.1287109375 0.807275390625009"><path d="M -77.261 -18.457 l 0.122 0.036 0.126 0.019 0.054 0.001 0.051 0.011 0.115 0.086 0.093 0.047 0.351 0.105 0.117 0.182 0.022 0.057 -0.091 0.034 -0.114 0.012 -0.109 0.002 -0.101 -0.035 -0.044 -0.027 -0.105 -0.013 0.026 -0.024 -0.047 -0.011 -0.058 0.003 -0.043 0.07 -0.048 0.055 -0.092 -0.005 -0.035 -0.047 -0.048 0.021 -0.039 0.035 -0.047 0.13 -0.075 -0.065 -0.082 -0.054 -0.102 -0.022 -0.207 -0.004 -0.097 -0.018 -0.081 -0.11 -0.032 -0.032 -0.082 -0.029 -0.081 -0.126 -0.029 -0.017 -0.22 -0.027 -0.045 -0.069 0.014 -0.063 0.074 -0.077 0.036 -0.022 0.122 0.003 0.116 -0.023 0.051 -0.033 0.053 -0.022 0.422 0.055 0.097 0.001 z" vector-effect="non-scaling-stroke" fill="#000" fill-opacity="1" stroke="#FFF" stroke-width="0px" stroke-linejoin="round" stroke-linecap="round"/></svg>
