<svg xmlns="http://www.w3.org/2000/svg" xmlns:xlink="http://www.w3.org/1999/xlink" height="400" width="400" viewBox="123.67978515625 -45.509521484375 22.15322265625 21.24345703125"><path d="M 133.371 -36.204 l -0.046 0.037 -0.085 -0.012 -0.049 -0.054 0.016 -0.061 0.09 -0.047 0.086 0.094 z M 138.344 -37.822 l -0.095 0.003 -0.024 -0.01 0.058 -0.025 0.005 -0.042 0.034 -0.074 -0.001 -0.021 -0.075 -0.004 0.004 -0.084 0.056 -0.083 0.155 -0.13 0.042 -0.024 0.006 0.057 -0.047 0.135 -0.009 0.049 0.122 0.01 -0.078 0.162 z M 134.933 -34.288 l -0.108 0.085 -0.094 -0.006 -0.047 -0.038 -0.016 -0.047 0.089 -0.074 0.077 -0.104 0.07 -0.046 0.057 -0.026 0.044 0.001 -0.099 0.146 z M 130.623 -30.263 l -0.115 0.022 -0.063 -0.023 -0.058 -0.123 0.109 -0.077 0.146 0.077 0.03 0.022 z M 130.96 -30.397 l -0.088 0.011 -0.002 -0.058 0.07 -0.131 0.007 -0.096 0.065 -0.121 0.028 -0.027 0.021 -0.01 0.022 0.038 -0.025 0.148 -0.065 0.112 z M 130.083 -32.23 l -0.079 0.036 -0.01 -0.034 -0.033 -0.016 0.057 -0.048 -0.002 -0.022 -0.036 -0.033 0.042 -0.123 -0.012 -0.053 0.158 -0.02 0.029 0.05 0.003 0.151 z M 129.279 -34.123 l -0.065 0.041 -0.028 -0.062 0.028 -0.176 0.122 0.036 -0.002 0.054 z M 129.386 -34.354 l -0.02 0.048 -0.068 -0.034 -0.031 -0.031 0.063 -0.151 -0.007 -0.057 0.004 -0.028 0.125 -0.079 0.021 0.015 0.008 0.022 -0.011 0.034 0.006 0.075 -0.094 0.124 z M 128.665 -32.784 l 0.039 0.027 0.057 -0.015 0.045 -0.004 0.033 0.013 0.041 0.07 0.015 0.041 -0.073 0.006 -0.031 0.01 -0.04 0.051 -0.058 -0.019 -0.036 -0.024 -0.008 -0.034 z M 130.381 -32.424 l -0.088 0.004 -0.037 -0.012 -0.014 -0.032 0.124 -0.064 0.096 0.011 -0.043 0.058 z M 141.073 -45.333 l -0.039 0.064 -0.052 -0.094 -0.01 -0.102 0.03 0.001 0.055 0.015 0.013 0.05 z M 141.295 -45.119 l -0.069 0.007 -0.081 -0.042 -0.01 -0.052 0.058 -0.042 0.058 0.015 0.058 0.054 0.019 0.028 z M 139.481 -42.081 l -0.023 0.005 -0.024 -0.008 -0.023 -0.076 0.02 -0.04 0.064 -0.028 0.063 -0.008 -0.053 0.139 z M 134.352 -34.484 l -0.019 0.02 -0.018 -0.005 -0.063 0.046 -0.014 -0.044 -0.05 -0.029 -0.006 -0.023 0.144 -0.015 0.046 0.012 z M 139.456 -34.727 l -0.011 0.047 -0.053 -0.01 -0.025 -0.031 0.003 -0.055 0.056 0 z M 129.077 -32.84 l -0.025 0.011 -0.032 -0.09 -0.022 -0.032 0.038 -0.017 0.075 -0.163 0.014 0.065 0.029 0.064 0.029 0.01 -0.028 0.047 -0.042 0.017 z M 129.492 -33.223 l -0.07 0.047 -0.051 0 0.047 -0.055 0.006 -0.026 0.039 -0.074 0.076 -0.027 0.032 -0.003 -0.062 0.077 z M 129.796 -33.749 l -0.069 0.042 -0.052 -0.032 0.025 -0.089 0.017 -0.029 0.059 0.029 z M 132.578 -34.115 l -0.029 0.04 -0.088 -0.012 0.035 -0.035 0.027 -0.042 0.02 -0.009 0.017 0.046 z M 132.266 -33.945 l 0.049 0.037 0.116 -0.015 0.014 0.01 -0.034 0.033 -0.051 0.033 -0.093 -0.024 -0.058 -0.001 -0.008 -0.055 0.007 -0.02 z M 129.718 -31.657 l -0.031 0.017 0.02 -0.079 0.08 -0.069 0.006 0.045 z M 142.188 -26.617 l -0.018 0.001 -0.063 -0.106 0.018 -0.005 0.036 0.017 0.04 0.061 z M 143.824 -44.117 l 0.125 0.005 0.056 -0.005 0.096 0.015 0.38 0.152 0.115 0.019 0.119 0.002 0.083 -0.012 0.073 -0.042 0.23 -0.184 0.241 -0.168 0.027 0.006 0 0.046 -0.018 0.052 -0.107 0.154 -0.119 0.207 -0.025 0.105 0.039 0.102 0.074 0.084 0.059 0.115 0.068 0.16 0.095 0.02 0.052 0.002 0.095 -0.048 0.09 -0.061 0.078 -0.007 0.082 0.01 -0.107 0.042 -0.101 0.052 -0.087 0.099 -0.032 0.018 -0.1 -0.006 -0.057 0.004 -0.117 0.041 -0.103 0.047 -0.098 0.057 -0.107 0.031 -0.114 0.007 -0.176 0.047 -0.115 0.003 -0.215 -0.041 -0.104 0.011 -0.228 0.092 -0.207 0.133 -0.181 0.149 -0.151 0.18 -0.061 0.094 -0.037 0.105 -0.005 0.069 -0.013 0.067 -0.035 0.046 -0.042 0.038 -0.125 -0.022 -0.205 -0.096 -0.398 -0.14 -0.42 -0.214 -0.237 -0.107 -0.445 0.032 -0.421 0.205 -0.038 -0.017 -0.161 -0.14 -0.078 -0.056 -0.093 -0.016 -0.069 0.002 -0.067 0.01 -0.095 0.072 -0.035 0.052 -0.027 0.059 -0.008 0.042 0.011 0.041 0.09 0.093 0.111 0.069 0.05 0.013 0.107 -0.005 0.05 0.007 0.179 0.139 0.195 0.13 0.043 0.043 -0.072 0.045 -0.079 0.022 -0.092 -0.006 -0.091 -0.017 -0.157 -0.055 -0.067 0.047 -0.104 0.096 -0.058 0.105 -0.047 0.048 -0.115 0.063 -0.121 0.033 -0.063 -0.011 -0.049 -0.04 -0.027 -0.048 -0.014 -0.055 0.026 -0.119 0.063 -0.107 0.024 -0.11 -0.052 -0.154 -0.033 -0.032 -0.129 -0.09 -0.06 -0.088 -0.015 -0.11 0.008 -0.061 0.032 -0.134 0.031 -0.067 0.059 -0.022 0.064 -0.013 0.1 -0.048 0.109 -0.063 0.104 -0.071 0.104 -0.087 0.054 -0.096 -0.089 -0.117 -0.018 -0.07 0.013 -0.066 0.095 -0.035 0.098 0.026 0.196 0.097 0.038 0.01 0.135 0.004 0.184 0.021 0.107 -0.005 0.051 -0.015 0.078 -0.08 0.038 -0.102 -0.014 -0.131 -0.001 -0.13 0.049 -0.106 0.154 -0.17 0.044 -0.1 0.016 -0.244 0.055 -0.108 0.045 -0.111 0.021 -0.234 -0.063 -0.225 -0.063 -0.11 -0.073 -0.105 0.011 -0.1 0.059 -0.093 0.001 -0.028 0.014 -0.025 0.11 -0.018 0.051 -0.02 0.049 -0.045 0.059 -0.026 0.043 0.026 0.036 0.046 0.155 0.112 0.244 0.201 0.288 0.306 0.181 0.149 0.19 0.135 0.213 0.138 0.223 0.119 0.143 0.056 0.104 0.09 z M 131.175 -33.603 l 0.135 0.03 0.057 0.002 0.053 -0.014 0.08 -0.039 0.084 -0.029 0.06 0.015 0.053 0.035 0.028 0.049 -0.014 0.051 -0.095 0.11 -0.078 0.118 0.18 0.022 0.179 -0.002 -0.042 0.073 -0.007 0.064 0.055 0.03 0.047 0.041 -0.012 0.037 -0.027 0.036 0.098 0.055 -0.006 0.037 -0.025 0.038 -0.245 0.251 -0.072 0.127 -0.05 0.14 -0.046 0.102 -0.033 0.106 -0.025 0.115 -0.045 0.118 0.015 0.105 -0.015 0.108 -0.123 0.266 -0.088 -0.005 -0.11 -0.032 -0.069 0.005 -0.036 0.059 0.063 0.122 -0.196 0.144 -0.217 0.097 -0.002 -0.044 0.02 -0.035 0.031 -0.028 0.023 -0.034 0.031 -0.113 -0.016 -0.114 -0.065 -0.143 -0.005 -0.051 0.045 -0.021 0.03 -0.006 0.017 -0.02 0.001 -0.047 -0.021 -0.035 -0.062 -0.011 -0.059 -0.001 -0.042 0.053 -0.057 0.102 -0.028 0.103 0.012 0.057 0.025 0.051 0.079 0.085 -0.023 0.05 -0.033 0.039 -0.278 -0.088 -0.06 -0.006 -0.05 -0.019 -0.053 -0.117 0.113 -0.028 0.034 -0.014 0.012 -0.037 0.015 -0.114 -0.053 -0.095 -0.045 -0.034 -0.036 -0.039 0.023 -0.08 -0.015 -0.101 -0.001 -0.141 0.02 -0.024 0.105 -0.028 0.076 -0.075 0.067 -0.086 0.098 -0.151 0.08 -0.163 -0.077 -0.007 -0.065 -0.031 0.072 -0.077 -0.022 -0.097 -0.107 -0.12 -0.059 -0.141 -0.094 -0.062 -0.05 -0.023 -0.061 0.033 -0.05 0.04 0.046 0.092 -0.005 0.081 0.007 0.08 0.047 0.004 0.058 -0.02 0.046 0.014 0.027 0.042 0.007 0.054 -0.02 0.054 -0.043 0.027 -0.052 -0.002 -0.053 -0.029 -0.041 -0.042 -0.098 -0.023 -0.103 0.049 -0.098 0.1 -0.084 0.051 0.04 -0.074 0.019 -0.08 -0.041 -0.056 -0.096 -0.094 -0.022 -0.054 -0.005 -0.066 0.017 -0.065 0.099 0.074 0.051 0.093 0.072 0.041 0.091 0 -0.07 -0.136 -0.025 -0.034 -0.098 -0.061 -0.134 -0.103 -0.085 -0.05 0.03 -0.107 0.05 -0.021 0.042 0.005 0.142 0.038 0.013 -0.053 -0.021 -0.029 -0.011 -0.033 0.093 -0.046 0.153 -0.038 0.031 -0.018 0.027 -0.038 0.037 -0.02 0.107 0.001 0.09 -0.037 0.074 -0.1 0.018 -0.055 0.027 -0.046 0.186 -0.081 0.046 -0.012 0.124 0.01 0.113 0.046 0.056 0.096 0.049 0.103 z M 134.357 -34.256 l 0.138 0.042 0.142 -0.012 -0.002 0.183 0.02 0.061 0.04 0.055 -0.021 0.08 0.064 0.027 -0.19 0.091 -0.172 0.121 -0.071 0.082 -0.064 0.087 -0.037 0.092 -0.024 0.1 -0.058 -0.04 -0.165 -0.162 -0.105 -0.044 -0.168 -0.024 -0.054 0.005 -0.346 0.151 -0.046 0.11 -0.094 0.166 -0.045 0.055 -0.05 0.016 -0.035 0.029 -0.039 0.142 -0.107 0.087 -0.066 0.003 -0.112 -0.024 -0.05 0.013 0.067 -0.14 -0.107 -0.017 -0.107 0.003 -0.003 -0.091 -0.065 -0.052 0.048 -0.067 0.001 -0.055 0.028 -0.03 0.01 -0.044 -0.004 -0.038 -0.066 -0.012 -0.04 -0.027 0.008 -0.099 -0.038 -0.004 -0.094 0.017 -0.195 0.077 -0.053 0 0.082 -0.055 0.173 -0.075 0.078 -0.043 0.17 -0.12 0.107 -0.057 0.056 -0.101 0.017 -0.061 0.036 -0.054 0.032 -0.086 0.055 -0.029 0.096 -0.074 0.055 0.007 0.061 0.091 0.082 0.07 0.059 -0.006 0.106 -0.036 0.051 -0.008 0.122 0.004 0.11 -0.044 0.045 -0.052 0.017 -0.065 -0.041 -0.109 0.053 0.011 0.051 -0.004 0.119 -0.069 0.123 -0.041 0.128 -0.01 0.143 0.039 z M 141.229 -41.373 l 0.039 0.019 0.187 -0.051 -0.036 0.154 -0.02 0.155 0.014 0.257 0.017 0.116 0.032 0.112 0.079 0.08 0.104 0.057 0.151 0.182 0.081 0.224 0.057 0.109 0.043 0.114 0.013 0.052 0.001 0.052 -0.013 0.072 0.014 0.058 -0.016 0.182 -0.067 0.21 -0.009 0.107 -0.059 0.021 -0.036 0.05 -0.03 0.023 -0.034 0.018 -0.049 0.004 -0.035 0.02 -0.014 0.057 -0.022 0.053 -0.043 0.049 -0.033 0.054 -0.028 0.131 -0.01 0.134 -0.041 0.094 -0.099 0.024 -0.114 -0.002 -0.146 0.043 -0.031 0.025 -0.115 0.164 -0.033 0.096 -0.001 0.103 0.032 0.127 0.043 0.124 0.033 0.231 -0.035 0.353 -0.033 0.113 -0.073 0.076 -0.055 0.035 -0.048 0.043 -0.062 0.115 -0.103 0.229 -0.008 0.057 0 0.06 -0.028 0.078 -0.018 0.076 0.017 0.089 0.032 0.083 0.138 0.214 0.054 0.063 0.061 0.058 -0.235 0.064 -0.042 0.029 -0.139 0.122 -0.045 0.115 0.004 0.128 -0.024 0.046 -0.038 0.04 -0.04 0.026 -0.156 0.059 -0.1 0.058 -0.099 0.091 -0.039 0.048 -0.076 -0.015 -0.045 -0.042 0.044 -0.053 -0.014 -0.062 0.022 -0.16 -0.025 -0.064 0.08 -0.049 0.038 -0.078 0.083 -0.062 0.059 -0.055 0.011 -0.045 -0.053 -0.048 -0.056 -0.035 -0.078 0 -0.075 0.01 -0.048 0.046 -0.016 0.063 0.004 0.029 -0.006 0.026 -0.118 0.086 0.016 0.09 0.034 0.046 0.044 0.022 -0.013 0.031 -0.056 0.072 -0.039 0.007 -0.072 -0.101 -0.09 -0.055 -0.111 0 -0.114 0.02 -0.087 0.067 -0.029 0.056 -0.018 0.058 0.006 0.141 -0.036 0.117 -0.07 0.103 -0.033 0.038 -0.086 0.07 -0.059 0.009 -0.042 -0.032 -0.034 -0.048 0.043 -0.177 -0.002 -0.099 0.101 -0.05 -0.083 -0.07 -0.101 -0.028 -0.142 0.038 -0.04 0.042 -0.027 0.057 -0.076 0.072 -0.084 0.067 -0.095 0.115 -0.064 0.136 -0.21 -0.045 -0.115 -0.01 -0.116 0.003 -0.205 -0.017 -0.225 0.028 -0.256 0.054 0.015 -0.039 0.211 -0.082 0.008 -0.024 -0.02 -0.045 -0.053 -0.002 -0.126 0.016 -0.064 -0.007 -0.026 -0.048 -0.043 -0.021 -0.029 0.02 0.009 0.094 -0.031 0.013 -0.042 -0.024 0.013 -0.073 -0.028 -0.107 -0.003 -0.066 0.044 -0.057 -0.045 -0.024 -0.048 0.009 -0.061 0.027 -0.054 0.039 -0.113 0.195 -0.044 0.111 0.083 0.089 0.226 0.125 0.039 0.031 0.001 0.053 -0.027 0.056 -0.062 0.025 -0.248 0.042 -0.215 0.081 -0.062 0.082 -0.195 0.317 -0.156 0.217 -0.221 0.075 -0.242 -0.066 -0.059 -0.075 -0.047 -0.093 -0.09 -0.084 -0.081 -0.092 -0.047 -0.109 0.007 -0.176 -0.035 -0.106 0.032 -0.028 0.134 -0.064 0.044 -0.036 0.075 -0.084 0.027 -0.047 0.004 -0.071 -0.061 -0.037 -0.157 0.001 -0.157 0.022 -0.112 -0.031 -0.145 -0.085 -0.045 -0.018 -0.156 -0.005 -0.112 0.016 -0.11 0.031 -0.116 0.01 -0.039 0.016 -0.134 0.105 -0.106 0.066 -0.092 0.033 -0.198 0.009 -0.099 0.021 -0.104 0.035 -0.029 -0.003 -0.11 0.048 -0.126 0.041 -0.067 0.042 -0.123 -0.027 -0.244 0.074 -0.118 0.009 -0.122 -0.041 -0.113 -0.066 -0.109 0.028 -0.075 0.098 -0.036 0.195 -0.043 0.088 -0.013 0.105 -0.056 -0.017 -0.327 -0.19 -0.023 -0.007 -0.264 0.033 -0.068 0.016 -0.085 0.038 -0.09 0.017 -0.082 -0.028 -0.079 -0.045 -0.075 0.013 -0.078 0.032 -0.03 -0.286 0.015 -0.038 0.048 -0.05 0.052 -0.043 0.128 -0.015 0.13 0.014 0.093 -0.02 0.078 -0.057 0.083 -0.08 0.093 -0.065 0.126 -0.052 0.122 -0.059 0.107 -0.083 0.102 -0.091 0.093 -0.067 0.101 -0.056 0.154 -0.134 0.205 -0.151 0.079 -0.111 0.049 -0.031 0.176 -0.062 0.234 -0.048 0.11 0.002 0.109 0.098 0.059 -0.013 0.06 -0.025 0.121 -0.014 0.124 0.016 0.121 0 0.121 -0.012 0.233 -0.032 0.122 -0.039 0.12 -0.05 0.426 -0.035 0.292 -0.084 0.046 0.006 0.045 0.019 0.003 0.062 -0.037 0.068 0.036 0.041 0.059 0.025 0.275 0.008 0.078 0.015 0.115 -0.046 0.108 -0.057 0.113 -0.076 0.079 -0.085 -0.073 -0.106 -0.016 -0.116 0.061 -0.126 0.089 -0.106 0.106 -0.064 0.097 -0.074 0.197 -0.21 0.142 -0.17 0.051 -0.209 -0.03 -0.247 0.124 -0.184 0.119 -0.032 0.236 -0.084 0.124 -0.025 0.019 0.037 -0.004 0.048 -0.185 0.154 -0.106 0.063 -0.064 0.02 -0.058 0.028 -0.024 0.054 0.095 0.091 0.024 0.067 -0.006 0.065 0.004 0.058 0.107 0.063 0.123 0.021 0.051 -0.001 0.045 -0.017 0.14 -0.154 0.031 -0.027 0.399 -0.113 0.196 -0.086 0.108 -0.022 0.102 -0.045 0.228 -0.174 0.084 -0.08 0.077 -0.088 0.061 -0.103 0.048 -0.111 0.066 -0.069 0.362 -0.165 0.117 -0.09 0.037 -0.044 0.045 -0.126 0.031 -0.131 0.044 -0.103 0.059 -0.096 0.08 -0.098 0.089 -0.091 0.053 -0.093 0.077 -0.223 0.034 -0.124 0.026 -0.045 0.039 -0.038 0.034 -0.047 0.026 -0.053 0.012 -0.053 0.017 -0.161 -0.01 -0.125 -0.06 -0.106 -0.05 -0.03 -0.054 -0.002 -0.081 0.009 -0.069 -0.043 0.014 -0.038 0.07 -0.007 0.048 -0.02 0.034 -0.036 0.064 -0.115 0.039 -0.123 0.003 -0.055 -0.05 -0.099 -0.04 -0.12 -0.001 -0.065 0.044 -0.074 0.063 -0.06 0.056 -0.014 0.061 -0.004 0.055 -0.023 0.051 -0.034 0.029 -0.037 0.045 -0.102 0.017 -0.058 -0.028 -0.155 0.029 -0.042 0.042 -0.026 0.055 0.02 0.057 0.004 0.066 -0.006 0.063 0.016 0.012 0.04 0.04 0.262 0.023 0.035 0.046 0.027 0.052 -0.004 0.045 -0.041 0.03 -0.054 0.06 -0.011 0.183 0.058 0.065 -0.042 0.042 -0.064 0.037 -0.114 -0.018 -0.103 -0.044 -0.038 -0.045 0.007 -0.04 0.028 -0.045 0.015 -0.27 0.054 0.001 -0.115 0.058 -0.172 0.032 -0.054 0.045 -0.026 0.113 0.03 0.056 0.02 z M 124.293 -24.516 l -0.059 0.158 -0.049 0.023 -0.05 -0.013 -0.051 -0.088 0.036 -0.034 0.05 0.018 0.04 -0.007 0.091 -0.128 0.022 0.021 z M 123.889 -24.28 l -0.063 0.014 -0.076 -0.017 -0.069 -0.005 -0.001 -0.03 0.073 -0.031 0.001 -0.043 0.018 -0.023 0.163 0.052 -0.007 0.038 z M 125.444 -24.743 l -0.085 0.026 -0.09 -0.015 0.015 -0.139 0.031 0.02 0.02 0.048 0.067 0.028 z M 128.259 -26.653 l -0.096 0.046 -0.036 0.055 -0.089 0.019 -0.087 0.077 -0.084 0.014 0.002 0.062 0.036 0.052 -0.056 0.009 -0.059 0.064 -0.005 0.046 0.021 0.037 -0.003 0.019 -0.074 0.055 -0.076 0.002 -0.003 -0.06 0.005 -0.045 0.072 -0.109 0.002 -0.126 0.067 -0.015 0.025 -0.018 0.106 -0.09 0.02 -0.038 -0.055 -0.037 0.004 -0.044 0.012 -0.019 0.087 0.014 0.035 0.033 0.017 0.004 0.051 -0.024 0.024 -0.044 0.095 -0.085 0.038 -0.085 0.077 0.07 -0.021 0.091 z M 128.998 -27.721 l -0.042 0.018 -0.056 -0.025 -0.017 -0.115 0.025 -0.056 0.044 -0.012 0.038 0.099 0.027 0.041 z M 129.453 -28.209 l -0.086 0.081 -0.092 -0.073 -0.11 -0.049 0.052 -0.013 0.031 -0.02 0.003 -0.031 0.072 -0.046 0.142 -0.036 0.045 -0.002 0.051 -0.034 0.017 -0.03 0.021 -0.015 0.092 -0.042 0.025 0.048 -0.004 0.037 -0.069 0.021 -0.067 0.05 -0.062 0.062 -0.056 0.026 -0.018 0.018 z M 129.324 -28.105 l 0.007 0.023 -0.098 -0.02 -0.04 -0.091 0.065 0.016 0.02 0.031 z M 139.841 -33.056 l -0.017 0.011 -0.048 -0.033 -0.007 -0.029 0.008 -0.018 0.031 -0.004 0.065 0.036 z" vector-effect="non-scaling-stroke" fill="#000" fill-opacity="1" stroke="#FFF" stroke-width="0px" stroke-linejoin="round" stroke-linecap="round"/></svg>
