<svg xmlns="http://www.w3.org/2000/svg" xmlns:xlink="http://www.w3.org/1999/xlink" height="400" width="400" viewBox="34.95078125 -33.372216796875 4.34199218750001 4.18173828125"><path d="M 35.787 -32.735 l 0.107 0.021 0.062 0.047 0.103 0.133 0.16 0.039 0.065 0.038 0.088 0.071 0.107 0.026 0.339 0.044 0.271 -0.148 0.229 -0.125 0.26 -0.142 0.177 -0.097 0.302 -0.165 0.199 -0.104 0.261 -0.137 0.258 -0.136 0.071 0.221 0.07 0.216 0.073 0.224 0.07 0.218 -0.076 0.021 0.06 0.167 0.099 -0.026 0.107 -0.02 0.045 0.107 -0.147 0.119 -0.148 0.117 -0.035 0.013 -0.193 0.048 -0.394 0.099 -0.264 0.066 -0.338 0.085 -0.28 0.07 -0.278 0.07 -0.257 0.065 0.147 0.136 0.224 0.208 0.15 0.139 0.176 0.179 0.158 0.16 0.167 0.169 -0.117 0.057 -0.193 0.094 -0.02 0.017 -0.016 0.018 -0.08 0.169 -0.063 0.133 -0.021 0.017 -0.27 0.049 -0.272 0.049 -0.172 0.031 -0.051 0.034 -0.112 0.166 -0.116 0.171 -0.193 0.14 -0.214 0.155 -0.053 0.01 -0.155 -0.024 -0.265 -0.041 -0.256 -0.039 -0.175 -0.027 -0.213 -0.033 0.031 -0.131 -0.009 -0.071 0.05 -0.232 0.029 -0.11 0.015 -0.081 0.073 -0.164 -0.009 -0.054 0.016 -0.189 -0.008 -0.037 0.033 -0.103 0.063 -0.15 0.061 -0.129 0.022 -0.058 0.063 -0.122 0.056 -0.15 -0.03 -0.082 -0.009 -0.016 0.023 -0.094 -0.001 -0.001 0.028 -0.154 0.015 -0.083 0.034 -0.11 0.06 -0.093 -0.028 -0.219 0.003 -0.118 0.037 -0.135 -0.021 -0.158 0.018 -0.224 0.004 -0.021 0.022 -0.027 0.017 -0.014 0.123 -0.047 z" vector-effect="non-scaling-stroke" fill="#000" fill-opacity="1" stroke="#FFF" stroke-width="0px" stroke-linejoin="round" stroke-linecap="round"/></svg>
