<svg xmlns="http://www.w3.org/2000/svg" xmlns:xlink="http://www.w3.org/1999/xlink" height="400" width="400" viewBox="46.6091796875 -55.389599609375 40.713671875 14.78095703125"><path d="M 50.184 -44.855 l -0.036 0.028 -0.053 -0.004 -0.1 -0.106 0.028 -0.108 0.036 -0.022 0.05 -0.015 0.007 0.024 -0.071 0.048 -0.006 0.061 0.059 0.068 z M 50.312 -44.972 l -0.034 0.013 -0.021 -0.064 0.039 -0.054 0.055 -0.007 -0.019 0.085 z M 52.682 -45.412 l -0.018 0.01 -0.067 -0.027 -0.044 -0.046 0.055 -0.054 0.051 0.01 0.033 0.057 z M 70.947 -42.249 l -0.086 0.041 -0.096 0.013 -0.049 0.026 -0.053 0.061 -0.049 0.053 -0.029 0.019 -0.044 -0.003 -0.051 -0.041 -0.073 0.002 -0.087 0.051 -0.103 0.082 -0.13 0.125 -0.136 0.066 -0.172 0.057 -0.124 0.025 -0.099 0.043 -0.164 0.087 -0.033 0.051 -0.119 0.03 -0.096 0.035 -0.089 0.058 -0.021 0.103 -0.057 0.059 -0.136 0.081 -0.114 0.082 -0.074 0.08 -0.079 0.085 -0.025 0.047 -0.003 0.064 0.037 0.054 0.007 0.051 -0.028 0.037 -0.077 0.014 -0.081 -0.011 -0.123 -0.037 -0.132 -0.066 -0.048 -0.032 -0.065 -0.055 0.009 -0.051 0.033 -0.1 0.023 -0.068 -0.054 -0.033 -0.04 -0.035 -0.028 -0.034 -0.056 -0.067 -0.07 0.016 -0.061 0.016 -0.07 -0.023 -0.207 0.01 -0.156 0.008 -0.147 0.007 -0.186 0.009 -0.224 0.011 -0.064 -0.015 -0.04 -0.022 -0.041 -0.092 -0.023 -0.078 -0.044 -0.146 -0.029 -0.113 -0.035 -0.134 -0.023 -0.148 -0.016 -0.105 -0.17 -0.003 -0.136 -0.003 -0.184 -0.004 0.002 -0.084 0.002 -0.106 0.002 -0.12 0.034 -0.158 0.013 -0.132 0.016 -0.161 0.01 -0.107 0.011 -0.117 -0.095 0.036 -0.105 0.04 -0.098 0.038 -0.067 -0.095 -0.065 -0.092 -0.1 -0.141 -0.075 -0.105 -0.13 -0.061 -0.096 -0.046 -0.1 -0.077 -0.086 -0.079 -0.082 -0.075 -0.098 -0.066 -0.094 0.021 -0.106 0.041 -0.102 0.04 -0.108 0.042 -0.053 0.02 -0.125 -0.008 -0.109 -0.007 -0.196 -0.012 -0.165 -0.01 -0.168 -0.01 -0.235 -0.015 -0.238 -0.015 -0.159 0.019 -0.201 0.025 -0.212 0.026 -0.175 0.021 -0.221 0.027 -0.166 0.02 -0.082 -0.003 -0.103 -0.085 -0.164 -0.136 -0.1 -0.083 -0.098 -0.081 -0.141 -0.117 -0.114 -0.088 -0.111 -0.086 -0.064 -0.08 -0.032 -0.1 -0.057 -0.045 -0.129 -0.061 -0.138 -0.066 -0.138 -0.066 -0.138 -0.066 -0.138 -0.066 -0.138 -0.066 -0.138 -0.066 -0.138 -0.066 -0.138 -0.066 -0.138 -0.066 -0.138 -0.066 -0.138 -0.066 -0.138 -0.066 -0.138 -0.066 -0.138 -0.066 -0.138 -0.066 -0.105 -0.05 0.065 -0.071 0.103 -0.033 0.045 -0.199 0.191 -0.102 0.139 0.004 0.059 -0.11 -0.063 0.008 -0.061 0.068 -0.1 -0.018 -0.019 0.049 -0.211 -0.024 -0.036 0.036 0.025 0.047 -0.127 -0.001 -0.059 0.113 -0.014 0.132 -0.053 0.048 -0.03 -0.013 -0.106 0.012 -0.158 0.033 -0.166 0.035 -0.164 0.035 -0.294 0.062 -0.189 0.04 -0.148 0.034 -0.158 0.036 -0.207 0.047 -0.173 0.04 -0.203 0.046 -0.18 0.041 -0.151 0.034 -0.157 0.036 -0.125 0.028 0 0.23 0 0.23 0 0.23 0 0.23 0 0.23 0 0.23 0 0.23 0 0.229 0 0.23 0 0.23 0 0.23 0 0.23 0 0.23 0 0.23 0 0.23 0 0.23 -0.042 -0.002 -0.096 0.013 -0.16 0.032 -0.133 0.016 -0.058 -0.01 -0.053 -0.024 -0.046 -0.051 -0.069 -0.061 -0.07 -0.05 -0.087 -0.102 -0.06 -0.078 -0.15 -0.171 -0.021 -0.054 -0.028 -0.055 -0.05 -0.046 -0.176 -0.113 -0.205 -0.102 -0.201 -0.1 -0.057 -0.024 -0.094 -0.031 -0.116 -0.001 -0.079 0.006 -0.241 0.033 -0.185 0.039 -0.251 0.052 -0.194 0.058 -0.043 0.017 -0.142 0.07 -0.174 0.116 -0.203 0.164 -0.026 -0.106 -0.009 -0.162 0.004 -0.052 0.055 -0.137 0.056 -0.094 0.045 -0.097 0.02 -0.127 -0.042 -0.204 -0.047 -0.045 -0.056 -0.015 -0.06 -0.004 -0.11 0.008 -0.051 0.016 -0.089 -0.069 -0.108 -0.011 -0.057 0.019 -0.058 0.01 -0.063 -0.019 -0.054 -0.041 -0.033 -0.044 -0.026 -0.05 -0.085 -0.1 -0.084 -0.054 -0.102 -0.012 -0.166 0.003 -0.052 -0.007 -0.003 -0.057 0.021 -0.125 0 -0.065 -0.012 -0.062 -0.028 -0.051 -0.035 -0.044 -0.099 -0.072 -0.075 -0.101 -0.125 -0.208 -0.109 -0.234 -0.048 -0.035 -0.098 -0.037 -0.213 -0.03 -0.141 -0.031 -0.056 -0.03 -0.023 -0.051 0 -0.055 0.012 -0.065 0.033 -0.055 0.112 -0.042 0.243 -0.009 0.208 0.005 0.188 0.098 0.062 0.023 0.066 0.006 0.134 -0.031 0.066 -0.009 0.167 0.01 -0.05 -0.047 -0.063 -0.024 -0.065 0.002 -0.056 -0.019 -0.092 -0.09 -0.16 -0.103 -0.037 -0.042 -0.011 -0.068 0.031 -0.058 0.113 -0.06 0.096 -0.081 0.044 -0.108 0.039 -0.05 0.082 -0.078 0.124 0.015 0.193 -0.057 0.316 0.011 0.378 -0.016 0.104 0.006 0.241 0.055 0.139 0.024 0.168 0.012 0.121 -0.024 -0.115 -0.075 -0.248 -0.089 -0.064 -0.076 0.114 -0.207 0.154 -0.188 0.094 -0.224 -0.026 -0.222 -0.045 -0.061 0.015 -0.072 0.054 -0.061 0.038 -0.061 -0.033 -0.073 -0.068 -0.114 -0.035 -0.037 -0.119 -0.061 -0.238 -0.003 -0.194 -0.034 -0.063 0.027 -0.035 0.042 -0.045 0.027 -0.152 0.055 -0.05 0.011 -0.053 -0.011 -0.074 -0.062 -0.066 0.007 -0.201 -0.039 -0.094 -0.084 -0.035 -0.012 -0.324 -0.067 -0.113 -0.013 -0.258 0.069 -0.187 0.089 -0.053 0.013 -0.097 0.056 -0.054 0.009 -0.056 -0.01 -0.053 0.003 -0.113 0.085 -0.205 0.098 -0.102 0.062 -0.113 0.039 -0.126 0.024 -0.129 0.004 -0.047 0.022 -0.147 0.008 -0.09 0.018 -0.003 0.034 0.018 0.075 -0.076 -0.027 -0.08 0.051 0.027 0.049 -0.048 -0.012 -0.225 -0.093 -0.185 -0.066 -0.164 -0.058 -0.024 -0.011 -0.045 -0.029 -0.032 -0.044 -0.007 -0.049 0.016 -0.036 0.04 -0.023 0.047 -0.009 0.042 0.007 0.046 0.022 0.083 0.026 0.107 0.005 0.067 -0.02 0.009 -0.049 -0.128 -0.18 -0.117 -0.146 -0.114 -0.162 -0.048 -0.059 -0.139 -0.135 -0.137 -0.133 -0.109 -0.119 -0.057 -0.037 -0.175 -0.015 -0.334 -0.029 -0.118 -0.014 -0.095 0.035 -0.095 0.028 -0.09 -0.052 -0.071 -0.084 -0.038 -0.071 0.018 -0.072 0.008 -0.107 -0.054 -0.105 -0.06 -0.052 -0.151 -0.039 -0.192 -0.089 -0.052 -0.162 0.093 -0.232 0.15 -0.164 0.109 -0.069 0.052 -0.06 0.017 -0.052 -0.013 -0.05 -0.065 -0.053 -0.1 -0.051 -0.051 -0.063 0.021 -0.135 0.066 -0.195 0.102 -0.156 0.138 -0.086 0.119 -0.062 0.047 -0.058 0.002 -0.082 -0.003 -0.077 0.032 -0.056 0.05 -0.045 0.053 -0.04 0.074 -0.045 0.096 -0.011 0.106 0.036 0.144 0.096 0.211 0.189 0.121 0.124 0.043 0.038 0.11 0.074 0.099 0.03 0.166 -0.046 0.159 -0.054 0.051 -0.034 0.033 -0.051 -0.025 -0.087 -0.033 -0.057 -0.035 -0.072 -0.049 -0.125 -0.034 -0.197 -0.041 -0.062 0.03 -0.007 0.08 0.013 0.074 0.006 0.105 -0.043 0.145 -0.081 0.265 -0.126 0.056 -0.083 0.045 -0.092 0.073 -0.057 0.168 -0.019 0.156 -0.03 0.11 -0.065 0.173 -0.057 0.142 -0.035 0.062 -0.032 0.044 -0.048 0.163 -0.136 0.128 -0.084 0.112 -0.086 0.038 -0.054 0.088 0.01 0.135 0.038 0.146 0.034 0.106 0.053 0.021 0.054 0.01 0.043 0.043 0.022 0.051 0.004 0.077 -0.011 0.136 -0.002 0.166 -0.07 0.232 -0.118 0.212 -0.037 0.112 0.028 0.092 0.087 0.073 0.082 0.075 0.031 0.047 0.001 0.017 0.001 0.093 -0.019 0.007 0 0.085 0.003 0.082 0.028 0.136 0.003 0.189 -0.021 0.02 -0.009 0.091 0.011 0.111 0.038 0.086 0.045 0.153 0.148 0.088 0.038 0.18 0.053 0.085 0.046 0.098 0.074 0.051 0.045 0.107 0.082 0.124 0.134 0.022 0.106 0.028 0.09 0.046 0.043 0.038 0.005 0.041 -0.015 0.04 -0.041 0.014 -0.069 -0.012 -0.121 -0.032 -0.099 -0.041 -0.031 -0.02 -0.035 0.027 -0.044 0.069 -0.021 0.086 0.013 0.141 0.057 0.147 0.072 0.18 0.125 0.166 0.079 0.181 0.063 0.144 0.019 0.111 -0.019 0.132 -0.052 0.121 -0.06 0.055 -0.063 0.039 -0.068 0.182 -0.091 0.166 -0.083 0.075 0.015 0.053 0.024 0.17 -0.051 0.059 -0.014 0.162 -0.02 0.167 0.029 0.133 0.09 0.13 0.058 0.116 -0.007 0.096 -0.03 0.063 -0.056 0.048 -0.066 0.064 -0.042 0.01 -0.003 0.206 0.023 0.13 -0.003 0.014 -0.009 0.171 0.018 0.188 0.093 0.117 0.103 0.15 0.131 0.07 0.043 0.101 0.018 0.079 0.008 0.107 0.02 0.281 0.027 0.043 0.016 0.029 0.021 -0.026 0.072 0.025 0.018 0.228 -0.051 0.061 -0.038 0.075 -0.108 0.067 -0.109 0.05 -0.04 0.053 -0.011 0.054 0.016 0.075 0.064 0.101 0.066 0.137 0.025 0.084 0.01 0.129 0.005 0.304 -0.032 0.285 -0.079 0.163 -0.086 0.076 -0.129 0.047 -0.147 0.073 -0.093 -0.03 -0.095 -0.143 -0.09 -0.048 -0.027 -0.348 -0.05 -0.021 -0.036 -0.02 -0.008 -0.343 -0.08 -0.166 -0.034 -0.046 -0.053 -0.031 -0.069 -0.107 -0.062 -0.213 -0.056 -0.037 -0.043 0.035 -0.043 0.168 -0.048 0.192 -0.101 0.074 -0.021 0.171 -0.004 0.158 -0.083 0.109 -0.047 0.057 -0.056 -0.015 -0.058 -0.158 -0.175 -0.047 -0.106 0.028 -0.069 0.091 -0.075 0.051 -0.041 0.062 -0.073 0.041 -0.039 0.159 -0.017 0.194 -0.007 0.133 0.017 0.186 0.009 0.169 0.013 0.086 0.012 0.063 -0.022 0.046 -0.039 -0.002 -0.052 -0.066 -0.05 -0.248 -0.066 -0.106 -0.055 -0.084 0.006 -0.139 -0.017 -0.126 -0.036 -0.112 -0.012 -0.036 -0.05 0.023 -0.069 0.043 -0.04 0.083 -0.02 0.089 0.01 0.098 -0.029 0.028 -0.017 0.008 -0.022 -0.016 -0.031 -0.045 -0.026 -0.064 -0.007 -0.074 0.022 -0.088 0.014 -0.149 -0.032 -0.119 -0.039 0.006 -0.036 0.088 -0.053 0.04 -0.043 0 -0.06 0 -0.069 0.031 -0.081 0.087 -0.056 0.103 -0.03 0.264 0.054 0.331 0.048 0.057 -0.008 0.017 -0.026 0.038 -0.023 0.459 -0.011 0.089 -0.031 0.044 -0.025 0.441 -0.036 0.053 -0.034 0.065 -0.032 0.101 0.001 0.121 -0.013 0.168 -0.039 0.119 -0.021 0.02 -0.002 0.126 0.009 0.157 -0.031 0.033 -0.013 0.025 -0.023 0.137 -0.044 0.262 -0.037 0.064 0.022 0.125 0.01 0.159 -0.016 0.117 -0.028 0.069 0.028 0.093 0.029 0.069 -0.024 0.034 -0.077 0.045 -0.075 0.079 -0.035 0.062 -0.013 0.056 -0.029 0.043 -0.03 0.231 0.005 0.206 -0.075 0.04 0.034 0.268 -0.008 0.333 -0.048 0.199 -0.022 0.344 -0.05 0.159 -0.041 0.227 -0.026 0.209 -0.018 0.137 -0.071 0.11 -0.01 0.134 -0.006 0.082 -0.017 0.054 -0.026 0.035 -0.049 -0.019 -0.063 -0.019 -0.046 0.096 -0.026 0.137 -0.008 0.086 -0.01 0.188 -0.104 0.13 -0.05 0.134 -0.031 0.27 0.017 0.246 0.016 0.247 0.05 0.13 0.062 0.112 0.047 0.106 0.022 0.095 0.014 0.111 -0.021 0.078 -0.029 0.046 -0.041 0.069 -0.029 0.252 -0.023 0.052 0.044 0.12 0.133 0.082 0.177 0.134 0.235 0.059 0.116 -0.026 0.061 0.001 0.083 -0.008 0.091 -0.099 0.104 0.04 0.048 0.243 0.054 0.341 -0.02 0.21 -0.043 0.117 0.016 0.061 -0.026 0.04 -0.077 0.081 -0.017 0.083 0.054 0.06 0.091 0.058 0.058 -0.004 0.069 0.021 0.089 0.042 0.023 0.083 -0.034 0.056 -0.02 0.013 -0.027 -0.024 -0.033 -0.011 -0.034 0.018 -0.031 0.04 -0.013 0.119 0.01 0.173 0.017 0.205 0.127 0.111 0.023 0.047 0.002 0.104 -0.007 0.125 -0.036 0.084 -0.046 0.028 -0.022 0.048 0.004 0.046 0.021 0.003 0.046 -0.037 0.067 -0.125 0.061 -0.155 0.057 -0.094 0.104 -0.02 0.109 0.041 0.055 0.035 0.037 0.01 0.052 0.035 0.007 0.063 -0.021 0.173 -0.107 0.088 -0.027 0.128 -0.017 0.21 0.008 0.141 0.035 0.067 0.049 0.074 0.04 0.051 -0.017 0.027 -0.046 0.001 -0.053 0.021 -0.044 0.229 -0.107 0.153 -0.071 0.053 -0.008 0.102 0.015 0.063 -0.007 0.168 -0.067 0.157 -0.076 0.015 -0.052 0.006 -0.047 0.039 -0.021 0.22 -0.016 0.036 -0.009 0.188 -0.053 0.26 -0.091 0.126 -0.053 0.23 -0.024 0.043 -0.015 0.076 -0.036 0.144 -0.05 0.078 -0.006 -0.048 0.121 -0.086 0.139 -0.048 0.037 -0.233 -0.006 0 0.038 0.037 0.058 0.026 0.033 0.028 0.029 0.063 0.051 0.245 0.12 0.312 0.153 0.337 0.171 0.235 0.12 0.095 0.062 0.061 0.048 0.174 0.174 0.165 0.165 0.277 0.291 0.246 0.281 0.271 0.31 0.157 0.179 0.32 0.375 0.085 0.115 0.162 0.218 0.143 0.205 0.127 0.181 0.08 0.016 0.006 -0.049 0.014 -0.033 0.041 -0.018 0.093 -0.053 0.05 -0.013 0.075 0.006 0.078 -0.027 0.029 -0.051 -0.019 -0.095 -0.012 -0.044 0.027 -0.047 0.043 -0.018 0.06 -0.015 0.055 -0.008 0.045 -0.053 0.085 -0.016 0.078 0.01 0.064 0.002 0.057 0.039 0.032 0.053 0.061 0.004 0.1 -0.005 0.014 0.044 -0.029 0.074 -0.035 0.057 -0.006 0.046 0.053 0.022 0.195 -0.02 0.069 0.01 0.022 0.047 0.028 0.039 0.014 0.047 -0.02 0.053 0.034 0.031 0.168 0.001 0.118 -0.025 0.182 -0.002 0.164 0.056 0.114 -0.009 0.114 -0.022 0.168 0.014 0.118 -0.044 0.081 -0.055 0.026 -0.043 0.042 -0.024 0.158 0 0.1 -0.004 0.074 -0.063 0.067 -0.029 0.113 -0.005 0.084 0 0.224 0.059 0.136 0.049 0.142 0.069 0.085 0.043 0.057 0.098 0.097 0.072 0.077 0.084 0.019 0.083 0.063 0.149 0.065 0.049 0.078 0 0.098 0.02 0.108 0.016 0.232 0.111 0.085 0.003 0.065 0.027 0.01 0.051 -0.025 0.059 0.026 0.057 0.076 0.073 0.06 0.071 0.074 0.086 0.022 0.049 0.059 0.016 0.08 -0.024 0.127 0.019 0.382 0.049 0.053 0.006 0.041 0.051 0.055 -0.004 0.063 -0.002 0.088 0.006 0.061 -0.047 0.05 -0.041 0.126 -0.051 0.104 -0.069 0.088 -0.061 0.065 -0.008 0.053 0.029 0.002 0.053 -0.065 0.039 -0.051 0.047 0.012 0.047 0.088 0.004 0.098 0.071 0.141 0.166 0.048 0.035 0.07 0.033 0.077 0.015 0.086 0.024 0.063 0.069 0.026 0.062 -0.093 -0.02 -0.181 -0.004 -0.111 0.012 -0.052 0.007 -0.078 0.041 -0.055 0.041 -0.025 0.069 0.029 0.079 -0.04 0.164 -0.054 0.062 -0.114 0.107 -0.066 0.023 -0.111 0.019 -0.107 0.032 -0.209 0.031 -0.226 0.016 -0.08 0.023 -0.057 0.073 -0.041 0.061 -0.025 0.047 -0.064 0.152 -0.036 0.136 0.036 0.169 0.027 0.188 -0.002 0.065 0.055 0.096 0.028 0.059 -0.013 0.084 -0.079 0.066 -0.048 0.088 -0.045 0.037 -0.129 0.017 -0.122 0.01 -0.123 0.075 -0.098 0.052 -0.154 0.066 -0.072 0.012 -0.04 -0.034 -0.026 -0.075 -0.053 -0.033 -0.074 -0.003 -0.06 -0.001 -0.194 -0.02 -0.124 0.001 -0.093 0.016 -0.106 0.008 -0.183 -0.027 -0.119 -0.023 -0.08 -0.022 -0.191 -0.065 -0.25 -0.078 -0.103 -0.023 -0.061 0.023 -0.009 0.044 -0.016 0.108 -0.029 0.067 -0.175 0.342 -0.108 0.238 -0.137 0.228 -0.043 0.153 -0.082 0.194 -0.082 0.14 -0.033 0.077 -0.003 0.031 0.014 0.044 0.125 0.048 0.131 0.029 0.029 0.018 0.014 0.05 -0.005 0.081 -0.024 0.077 -0.038 0.061 -0.038 0.03 -0.043 0.002 -0.082 -0.039 -0.073 -0.043 -0.057 -0.013 -0.144 0.024 -0.133 0.033 -0.044 0.001 -0.077 -0.021 -0.078 -0.044 -0.031 -0.085 -0.067 -0.039 -0.09 0.039 -0.267 0.065 -0.294 0.077 -0.187 0.04 -0.073 -0.006 -0.145 0.009 -0.126 0.022 -0.094 0.03 -0.187 0.041 -0.169 0.028 -0.109 0.062 -0.078 0.06 0.003 0.023 0.057 0.036 0.065 0.028 0.131 -0.007 0.127 -0.004 0.106 0.038 0.095 0.024 0.026 0.031 -0.026 0.031 -0.055 0.007 -0.019 0.021 0.01 0.029 -0.036 0.075 -0.019 0.114 0.019 0.112 0.01 0.103 -0.006 0.052 -0.004 0.074 0.041 0.05 0.036 0.095 0.064 0.06 0.097 0.207 0.057 0.121 0.053 0.137 -0.038 0.074 0.002 0.043 0.062 0.036 0.027 0.07 0.029 0.043 -0.008 0.043 -0.027 0.016 -0.134 -0.026 -0.11 0.042 -0.117 0.043 -0.016 0.023 -0.003 0.025 0.012 0.022 0.067 0.038 0.093 0.024 -0.005 0.038 -0.115 0.018 -0.174 0.058 -0.048 0.063 -0.037 0.069 -0.003 0.04 0.017 0.107 0.026 0.119 0.049 0.125 0.004 0.039 -0.026 0.028 -0.024 0.018 -0.138 -0.113 -0.15 -0.11 -0.118 -0.025 -0.205 -0.018 -0.108 -0.001 -0.062 -0.026 -0.06 -0.064 -0.072 -0.058 -0.092 -0.061 -0.038 -0.093 -0.038 -0.017 -0.067 0.012 -0.112 -0.003 -0.063 -0.008 -0.094 -0.016 -0.149 -0.038 -0.118 -0.036 -0.148 -0.007 -0.086 0.007 -0.267 0.007 -0.221 -0.038 -0.179 -0.007 -0.11 0.002 -0.053 -0.005 -0.091 0 -0.133 -0.008 -0.178 -0.058 -0.069 -0.003 -0.044 0.002 -0.298 0.043 -0.137 0.01 -0.291 -0.005 -0.286 -0.005 -0.092 -0.009 -0.051 0.005 -0.108 0.102 -0.046 0.016 -0.269 -0.022 -0.319 -0.067 -0.23 -0.074 -0.195 -0.078 -0.258 -0.123 -0.155 -0.061 -0.022 0.035 -0.041 0.011 -0.06 0.005 -0.137 -0.006 -0.063 0.062 -0.167 0.045 -0.107 0.04 -0.056 0.045 -0.106 0.3 -0.028 0.11 0.071 0.184 -0.081 -0.011 -0.096 -0.047 -0.033 -0.037 -0.092 -0.023 -0.336 -0.034 -0.063 -0.042 -0.039 -0.034 -0.087 -0.023 -0.123 -0.017 -0.267 -0.08 -0.114 -0.003 -0.345 -0.061 -0.056 0.001 -0.026 0.003 -0.134 0.04 -0.087 0.012 -0.092 -0.016 -0.165 0.05 -0.089 0.066 -0.074 0.081 -0.071 0.051 -0.021 0.076 -0.05 0.04 -0.059 0.079 0 0.046 z M 60.783 -46.086 l 0.08 -0.004 0.114 -0.08 0.24 -0.067 0.083 -0.148 -0.017 -0.063 0.086 -0.08 0.081 -0.057 0.078 -0.093 -0.214 0.029 -0.018 0.037 -0.094 0.033 0.063 0.065 -0.001 0.013 -0.008 0.007 -0.122 0.043 -0.241 -0.024 -0.116 -0.108 0.035 -0.166 -0.231 -0.037 -0.055 0.007 0.001 0.027 0.22 0.097 0 0.015 -0.005 0.012 -0.161 0.064 -0.109 -0.059 -0.011 -0.001 -0.006 0.005 -0.033 0.11 -0.01 0.004 -0.009 -0.005 -0.033 -0.108 -0.081 -0.083 -0.285 0.128 -0.013 0.134 0.145 0.081 0.215 -0.046 0.231 0.11 0.143 -0.081 0.102 0.173 -0.072 0.083 z M 59.729 -46.083 l 0.085 -0.041 -0.029 -0.16 -0.054 -0.037 -0.227 0.003 0.088 0.11 z" vector-effect="non-scaling-stroke" fill="#000" fill-opacity="1" stroke="#FFF" stroke-width="0px" stroke-linejoin="round" stroke-linecap="round"/></svg>
