<svg xmlns="http://www.w3.org/2000/svg" xmlns:xlink="http://www.w3.org/1999/xlink" height="400" width="400" viewBox="33.9736328125 -5.49228515624999 7.91035156250001 10.18466796875"><path d="M 40.994 2.158 l -0.037 0.009 0.019 -0.058 0.11 -0.073 0.045 0.017 0.009 0.017 -0.002 0.015 -0.019 0.015 z M 33.974 -0.213 l 0.063 -0.081 0.043 -0.088 0.031 -0.123 0.049 -0.1 0.112 -0.081 0.02 -0.045 0.118 -0.136 0.071 -0.175 0.054 -0.059 0.067 -0.055 0.047 -0.029 0.078 -0.029 0.061 -0.016 0.011 -0.014 0.005 -0.028 -0.02 -0.108 0.026 -0.036 0.041 -0.072 0.047 -0.067 0.043 -0.043 0.024 -0.044 0.011 -0.076 0.002 -0.054 -0.001 -0.088 -0.013 -0.2 -0.05 -0.168 -0.031 -0.188 0.023 -0.062 -0.04 -0.11 -0.02 -0.006 -0.032 -0.024 -0.041 -0.104 -0.031 -0.095 -0.019 -0.024 -0.134 -0.083 -0.067 -0.195 -0.075 -0.044 -0.041 -0.194 -0.008 -0.055 0.042 -0.194 -0.004 -0.044 -0.045 -0.041 -0.126 -0.042 -0.102 -0.08 0.013 -0.028 0.008 -0.029 -0.054 -0.019 -0.156 -0.331 0.201 -0.199 0.203 -0.202 0.26 -0.255 0.238 -0.234 0.206 -0.202 0.184 -0.18 -0.004 0.034 0.001 0.046 0.023 0.028 0.038 0.019 0.053 -0.02 0.046 -0.028 0.045 -0.006 0.276 0.075 0.046 0.065 -0.003 0.07 0.012 0.051 -0.021 0.051 -0.023 0.155 0.007 0.142 0.083 0.105 0.074 0.083 0.059 0.116 0.043 0.036 0.06 0.018 0.19 0.005 0.281 0.007 0.271 0.007 0.025 0.003 0.057 0.016 0.249 0.157 0.228 0.144 0.193 0.125 0.187 0.121 0.182 0.118 0.141 0.098 0.139 0.03 0.226 0.014 0.156 0.005 0.145 0.041 0.215 0.038 0.161 0.02 0.097 0.022 0.269 0.023 0.044 -0.013 0.119 -0.109 0.133 -0.176 0.052 -0.097 0.172 -0.096 0.302 -0.135 0.213 -0.095 0.237 -0.095 0.107 0.083 0.148 0.133 0.066 0.066 0.053 0.029 0.08 0.019 0.098 0 0.054 -0.003 0.109 -0.017 0.256 -0.016 0.146 0.001 -0.123 0.176 -0.147 0.211 -0.272 0.389 -0.207 0.205 -0.156 0.155 -0.014 0.028 0.001 0.172 0.002 0.421 0.003 0.843 0.003 0.843 0.003 0.843 0.002 0.421 0 0.142 0.137 0.177 0.134 0.173 0.177 0.229 0.095 0.123 0.016 0.041 -0.005 0.082 -0.146 0.172 -0.119 0.078 -0.161 0.037 -0.048 -0.007 -0.063 -0.025 -0.025 0.041 -0.019 0.064 -0.036 -0.013 -0.027 -0.019 0.016 0.114 0.017 0.056 -0.024 0.076 -0.078 0.066 -0.007 0.056 -0.169 0.147 -0.24 0.016 -0.126 0.073 -0.056 0.06 -0.043 0.131 0.015 0.2 -0.067 0.154 -0.013 0.077 -0.124 0.1 -0.055 0.092 -0.041 0.093 -0.035 0.041 -0.042 0.209 -0.058 0.127 -0.016 0.042 -0.014 0.038 -0.045 0.075 -0.029 0.051 -0.021 0.034 -0.146 0.326 -0.114 0.147 -0.089 -0.017 -0.059 0.057 -0.006 0.027 -0.032 -0.015 -0.075 -0.054 -0.154 -0.111 -0.154 -0.111 -0.154 -0.111 -0.154 -0.11 -0.154 -0.111 -0.154 -0.111 -0.154 -0.111 -0.154 -0.111 -0.09 -0.065 -0.04 -0.038 -0.031 -0.076 -0.015 -0.019 -0.041 -0.024 -0.048 -0.005 -0.014 -0.014 0 -0.037 0.017 -0.053 0.056 -0.101 0.006 -0.06 -0.011 -0.068 -0.018 -0.108 -0.015 -0.025 -0.102 -0.057 -0.213 -0.119 -0.213 -0.119 -0.213 -0.119 -0.213 -0.119 -0.213 -0.119 -0.213 -0.119 -0.213 -0.119 -0.213 -0.119 -0.213 -0.119 -0.213 -0.119 -0.213 -0.119 -0.213 -0.119 -0.213 -0.119 -0.213 -0.119 -0.213 -0.119 -0.213 -0.119 -0.076 -0.042 0.007 -0.009 0.007 -0.036 0.051 -0.023 0.023 -0.035 0.019 -0.061 -0.057 -0.081 -0.037 -0.073 -0.008 -0.08 0.019 -0.065 0.096 -0.109 0.042 -0.029 0.058 0.004 0.053 0.014 0.047 -0.001 0.049 0.043 0.032 -0.007 0.019 -0.031 -0.017 -0.095 0.02 -0.016 0.099 -0.024 0.127 -0.005 0.095 -0.029 0.015 -0.021 -0.096 -0.184 -0.179 0.052 -0.119 0.052 -0.05 0.047 -0.017 0.07 -0.019 0.024 -0.024 0.019 -0.025 -0.006 -0.059 -0.091 -0.108 -0.096 -0.01 -0.03 0.018 -0.042 -0.01 -0.012 -0.056 0.001 -0.03 -0.018 -0.026 -0.038 -0.021 -0.049 -0.008 -0.064 0.001 -0.125 z" vector-effect="non-scaling-stroke" fill="#000" fill-opacity="1" stroke="#FFF" stroke-width="0px" stroke-linejoin="round" stroke-linecap="round"/></svg>
