<svg xmlns="http://www.w3.org/2000/svg" xmlns:xlink="http://www.w3.org/1999/xlink" height="400" width="400" viewBox="-174.5408203125 -3.92353515625 349.3197265625 15.38037109375"><path d="M 172.97 -3.129 l -0.063 0.033 -0.019 -0.005 0.075 -0.048 0 0.006 z M 172.844 -3.051 l -0.074 0.039 -0.02 -0.021 0.027 -0.001 0.05 -0.037 0.06 -0.003 -0.007 0.02 z M 173.019 -1.846 l 0.005 0.023 -0.057 -0.063 -0.034 -0.041 0.002 -0.018 0.015 0.011 0.019 0.02 0.012 0.016 z M 173.029 -1.717 l -0.036 0.004 0.027 -0.014 0.007 -0.02 -0.004 -0.062 0.014 0.005 0.005 0.026 0.003 0.037 z M 173.033 -1.013 l 0.054 0.04 -0.007 0.027 -0.018 0.031 -0.07 0.08 -0.021 -0.007 0.069 -0.072 0.026 -0.048 -0.039 -0.036 -0.016 0.008 -0.006 0 -0.014 -0.034 0.014 0 z M 174.509 0.802 l -0.032 0.027 -0.012 -0.025 0.016 -0.031 -0.027 -0.127 -0.045 -0.017 -0.027 -0.038 0.013 0 0.045 0.035 0.036 0.016 0.021 0.083 z M 174.773 1.212 l 0.006 0.051 -0.023 -0.007 -0.008 -0.02 -0.007 -0.052 -0.024 -0.051 0.027 0.014 0.022 0.04 z M 173.038 -1.342 l -0.027 0.004 0.017 -0.02 0.115 -0.023 0.01 -0.006 0.019 0.012 0 0.012 -0.008 0.006 -0.057 0 -0.045 0.011 z M 169.551 0.874 l -0.009 0.002 -0.019 -0.01 0.003 -0.013 0.013 -0.006 0.017 0.01 z M -172.215 4.511 l 0.006 0.007 0.014 -0.002 0.013 -0.001 -0.008 0.007 -0.026 0.003 -0.013 -0.017 0.016 -0.013 0.014 -0.002 0.001 0.004 -0.001 0.004 -0.007 0 -0.011 0.003 z M -171.085 3.135 l -0.005 0.008 -0.007 -0.006 0.005 -0.012 0.004 -0.01 0.007 0.005 z M -171.233 4.463 l -0.01 0.005 -0.012 -0.002 -0.007 -0.007 0 -0.011 0.01 -0.008 0.013 0.003 0.008 0.01 z M -174.513 4.675 l 0.012 0.013 0 0.006 -0.006 -0.001 -0.017 -0.004 -0.005 -0.008 0.013 0.005 0.005 -0.001 -0.012 -0.012 -0.01 -0.009 -0.008 -0.004 0 -0.004 0.009 0.002 z M -154.956 4.088 l -0.003 0.006 -0.012 -0.008 -0.024 -0.015 -0.02 -0.016 0 -0.007 0.028 -0.009 0.036 -0.008 0.008 0.011 -0.007 0.014 z M -151.783 11.441 l -0.008 0.016 -0.016 -0.006 -0.009 -0.02 -0.003 -0.022 0.006 -0.017 0.01 0.001 0.012 0.022 z M -155.864 5.627 l -0.023 0.005 -0.027 0 -0.014 -0.013 -0.001 -0.011 0.009 0 0.009 0.002 0.039 0.002 0.01 0.008 z M -157.342 -1.856 l 0.166 0.116 -0.07 0.008 -0.174 -0.056 -0.159 -0.115 0.047 -0.025 0.023 0.041 0.072 0.038 0.043 -0.08 0.028 -0.018 -0.127 -0.083 0.05 0.004 0.12 0.056 z M -159.339 -3.924 l 0.08 0.084 -0.015 0.043 -0.058 -0.004 -0.026 -0.015 0.045 -0.007 0.007 -0.016 -0.021 -0.025 -0.027 -0.017 -0.019 0 -0.005 0.034 -0.031 -0.027 0.018 -0.026 0.022 -0.017 z M -171.698 2.766 l 0.033 0.019 0.025 0.026 0.012 0.036 -0.001 0.009 -0.019 0 -0.023 -0.011 -0.017 -0.015 -0.009 -0.004 -0.002 -0.003 0.02 0.002 0.023 0.015 0.017 0.007 -0.001 -0.017 -0.02 -0.031 -0.012 -0.011 -0.015 -0.009 -0.018 -0.006 -0.012 0.005 -0.007 0.003 -0.003 -0.007 0.002 -0.006 0.006 -0.006 z" vector-effect="non-scaling-stroke" fill="#000" fill-opacity="1" stroke="#FFF" stroke-width="0px" stroke-linejoin="round" stroke-linecap="round"/></svg>
