<svg xmlns="http://www.w3.org/2000/svg" xmlns:xlink="http://www.w3.org/1999/xlink" height="400" width="400" viewBox="20.0294921875 -43.261083984375 1.72343749999999 1.407275390625"><path d="M 20.344 -42.828 l 0.125 -0.03 0.018 -0.021 -0.028 -0.046 0.017 -0.028 0.149 -0.081 0.025 -0.037 0.009 -0.029 -0.02 -0.031 -0.028 -0.048 0.013 -0.02 0.077 -0.028 0.063 -0.032 0.037 -0.002 0.023 0.023 0 0.024 0.021 0.041 0.046 0.022 0.077 0.036 0.089 0.024 0.07 0.049 0.096 0.087 0.014 0.043 0.086 0.039 0.08 0.043 -0.012 0.08 0.272 0.07 0.061 0 0.029 0.012 -0.001 0.018 -0.021 0.056 -0.112 0.172 -0.009 0.036 -0.08 0.037 -0.011 0.022 0.023 0.048 0.021 0.033 -0.002 0 -0.171 0.028 -0.058 0.033 -0.034 0.057 -0.011 0.03 -0.03 0.001 -0.05 -0.029 -0.064 -0.046 -0.083 0.004 -0.282 0.1 -0.028 0.053 -0.006 0.114 -0.019 0.031 -0.03 0.02 -0.116 -0.012 -0.012 -0.007 0.015 -0.044 -0.006 -0.096 -0.053 -0.158 -0.037 -0.052 -0.077 -0.052 -0.06 -0.034 -0.108 -0.03 -0.055 -0.087 -0.082 -0.099 -0.04 -0.023 0.006 -0.01 0.019 -0.074 -0.024 -0.054 -0.036 -0.046 0.025 -0.028 0.076 0 0.063 0.005 0.023 -0.044 z" vector-effect="non-scaling-stroke" fill="#000" fill-opacity="1" stroke="#FFF" stroke-width="0px" stroke-linejoin="round" stroke-linecap="round"/></svg>
