<svg xmlns="http://www.w3.org/2000/svg" xmlns:xlink="http://www.w3.org/1999/xlink" height="400" width="400" viewBox="46.5314453125 -30.097314453125 1.91103515624999 1.56416015625"><path d="M 48.275 -29.624 l -0.057 0.022 -0.039 -0.009 -0.037 -0.054 -0.061 -0.134 0.033 -0.05 -0.001 -0.021 0.007 -0.016 0.019 -0.01 0.02 -0.063 0.026 -0.019 0.043 0.043 0.121 0.154 -0.001 0.063 -0.007 0.025 z M 48.442 -28.543 l -0.174 0.002 -0.219 0.003 -0.178 0.002 -0.201 0.002 -0.088 -0.095 -0.03 -0.104 -0.032 -0.106 -0.088 -0.152 -0.294 -0.037 -0.157 -0.019 -0.257 -0.029 -0.193 -0.022 0.162 -0.163 0.076 -0.088 0.137 -0.19 0.07 -0.135 0.068 -0.15 0.058 -0.117 0.012 -0.021 0.034 -0.04 0.075 -0.041 0.108 -0.038 0.183 -0.017 0.129 -0.001 0.029 0.002 0.081 0.019 0.225 0.094 -0.005 0.037 0.032 0.11 0.072 0.12 0.059 0.097 0.007 0.046 -0.054 -0.007 -0.041 -0.018 -0.079 -0.019 -0.152 0.129 -0.092 0.07 -0.003 0.024 0.123 0.027 0.09 -0.001 0.063 -0.019 0.053 0.03 0.035 0.08 0.014 0.065 0.083 0.231 0.069 0.078 0.086 0.138 0.032 0.071 0.018 0.06 z" vector-effect="non-scaling-stroke" fill="#000" fill-opacity="1" stroke="#FFF" stroke-width="0px" stroke-linejoin="round" stroke-linecap="round"/></svg>
