<svg xmlns="http://www.w3.org/2000/svg" xmlns:xlink="http://www.w3.org/1999/xlink" height="400" width="400" viewBox="69.2291015625 -43.240380859375 11.01708984375 4.03286132812499"><path d="M 70.958 -40.239 l 0.033 -0.016 0.104 -0.016 0.21 -0.016 0.071 0.012 0.081 0.033 0.063 0.033 0.06 -0.001 0.049 -0.007 0.021 0.009 0.016 0.029 0.026 0.026 0.08 -0.036 0.073 -0.046 0.057 -0.007 0.053 -0.018 0.015 -0.031 0.042 -0.051 0.119 -0.098 0.062 -0.016 0.04 0 0.002 0.016 0.019 0.014 0.104 0.023 0.032 -0.026 0.017 -0.036 -0.036 -0.057 -0.001 -0.024 0.014 -0.022 0.019 -0.013 0.165 0.054 0.037 -0.001 0.075 -0.03 0.069 -0.053 0.025 -0.042 0.339 -0.136 0.024 -0.025 -0.005 -0.018 -0.142 -0.032 -0.064 0.018 -0.059 0 -0.036 -0.02 -0.173 -0.008 -0.038 -0.014 -0.114 -0.098 -0.079 -0.037 -0.063 -0.025 -0.069 0.004 -0.082 0.026 -0.026 -0.012 -0.007 -0.041 0 -0.052 -0.017 -0.055 -0.049 -0.013 -0.063 0.022 -0.094 -0.022 -0.08 -0.008 -0.021 -0.116 -0.032 -0.05 -0.033 -0.052 -0.035 -0.015 -0.057 -0.026 -0.003 -0.062 -0.012 -0.017 -0.02 -0.008 -0.027 0.007 -0.035 0.031 0.017 0.068 -0.013 0.068 -0.021 0.034 -0.04 0.025 -0.046 0.001 -0.079 -0.034 -0.012 0.206 -0.015 0.013 -0.094 -0.029 -0.075 0.013 -0.113 -0.013 -0.085 -0.034 -0.063 -0.009 -0.102 -0.029 -0.078 -0.038 -0.048 -0.138 -0.046 -0.049 -0.043 -0.011 -0.175 0.048 -0.064 -0.037 -0.118 -0.047 -0.089 -0.018 -0.024 -0.026 0.004 -0.031 0.274 -0.154 0.108 -0.106 0.068 -0.045 0.097 -0.03 0.076 -0.017 0.039 -0.097 0.015 -0.011 0.054 -0.007 0.122 -0.04 0.196 -0.085 0.004 -0.023 -0.02 -0.02 -0.083 -0.044 -0.094 -0.035 -0.057 0.018 -0.032 0.018 -0.054 -0.045 0 -0.046 0.059 -0.079 0.05 -0.04 0.021 -0.076 0.071 -0.051 0.074 -0.081 0.089 -0.066 0.165 -0.05 0.092 0.016 0.087 -0.012 0.134 -0.04 0.026 -0.003 0.056 -0.001 0.345 0.061 0.114 0.003 0.267 0.08 0.123 0.017 0.087 0.023 0.039 0.034 0.063 0.042 0.336 0.034 0.092 0.023 0.033 0.037 0.096 0.047 0.081 0.011 -0.071 -0.184 0.028 -0.11 0.106 -0.3 0.056 -0.045 0.107 -0.04 0.167 -0.045 0.063 -0.062 0.137 0.006 0.06 -0.005 0.041 -0.011 0.022 -0.035 0.155 0.061 0.258 0.123 0.195 0.078 0.23 0.074 0.319 0.067 0.269 0.022 0.046 -0.016 0.108 -0.102 0.051 -0.005 0.092 0.009 0.286 0.005 0.291 0.005 0.137 -0.01 0.298 -0.043 0.044 -0.002 0.069 0.003 0.178 0.058 0.133 0.008 0.091 0 0.053 0.005 0.11 -0.002 0.179 0.007 0.221 0.038 0.267 -0.007 0.086 -0.007 0.148 0.007 0.118 0.036 0.149 0.038 0.094 0.016 0.063 0.008 0.112 0.003 0.067 -0.012 0.038 0.017 0.038 0.093 0.092 0.061 0.072 0.058 0.06 0.064 0.062 0.026 0.108 0.001 0.205 0.018 0.118 0.025 0.15 0.11 0.138 0.113 0.02 0.06 0.017 0.07 -0.011 0.016 -0.019 0.011 -0.307 0.017 -0.069 0.019 -0.074 0.097 -0.262 0.078 -0.15 0.04 -0.061 -0.002 -0.145 0.064 -0.406 0.159 -0.199 0.1 -0.1 0.042 -0.08 0.046 -0.014 0.046 -0.003 0.044 -0.223 0.206 -0.167 0.025 -0.141 -0.005 -0.096 0.031 -0.138 0.032 -0.298 -0.022 -0.102 0.004 -0.195 -0.028 -0.079 0.015 -0.084 0.042 -0.116 0.164 -0.047 0.038 -0.021 0.037 -0.018 0.08 -0.044 0.084 -0.057 0.067 -0.041 0.062 -0.084 0.06 -0.078 0.038 -0.06 -0.079 -0.052 0.022 -0.049 0.032 -0.094 -0.011 -0.058 0.016 -0.132 0.068 -0.195 -0.003 -0.021 -0.023 -0.039 -0.187 -0.034 -0.089 -0.028 -0.02 -0.035 -0.002 -0.28 0.147 -0.13 0.026 -0.107 0.005 -0.139 -0.044 -0.03 0.011 -0.024 0.024 -0.01 0.03 0.041 0.084 -0.011 0.016 -0.063 -0.001 -0.088 0.019 -0.067 0.038 -0.201 0.135 -0.169 0.045 -0.158 0.018 -0.065 0.015 -0.029 0.016 -0.053 0.064 -0.054 0.101 -0.028 0.049 -0.021 0.029 0.004 0.037 0.043 0.048 0.032 0.108 -0.008 0.028 -0.034 0.045 -0.05 0.044 -0.107 0.027 -0.084 0.013 -0.056 -0.009 -0.105 -0.003 -0.083 0.018 -0.051 0.03 -0.101 0.038 -0.126 0.013 -0.16 0.005 -0.077 -0.003 -0.233 -0.026 -0.077 0.009 -0.073 0.02 -0.133 0.021 -0.071 0.063 -0.037 0.058 -0.02 0.008 -0.083 -0.053 -0.063 -0.05 -0.041 -0.042 -0.052 0.001 -0.185 0.075 -0.027 -0.002 -0.053 -0.029 0.01 -0.071 -0.003 -0.045 -0.06 -0.024 -0.126 -0.006 -0.043 -0.026 0.003 -0.038 0.012 -0.037 -0.014 -0.028 -0.033 -0.021 -0.066 0.006 -0.076 0.029 -0.056 0.033 -0.07 0.015 -0.085 0.006 -0.053 0.02 -0.06 0.082 -0.206 0.017 -0.066 -0.019 -0.054 -0.058 -0.071 -0.093 -0.04 -0.011 -0.067 -0.011 -0.109 0.005 -0.147 0.039 -0.036 -0.032 -0.038 -0.009 -0.034 0.027 -0.035 -0.003 -0.146 0.008 -0.184 -0.004 -0.105 -0.018 -0.068 0.001 -0.136 0.042 -0.072 0 -0.094 0.008 -0.017 -0.141 -0.051 -0.095 0.016 -0.066 0.034 -0.091 0.028 -0.051 0.058 0.021 0.067 0.037 0.044 -0.01 0.012 -0.031 -0.017 -0.04 -0.002 -0.03 0.025 -0.04 0.037 -0.037 0.235 -0.061 0.202 -0.044 0.105 0.029 0.203 0.068 0.104 0.035 0.072 0.021 0.064 0.099 0.042 -0.005 0.042 -0.02 0.025 -0.024 0.02 -0.084 0.094 -0.048 0.208 -0.056 0.015 -0.033 z M 71.206 -39.893 l 0.009 -0.014 -0.036 -0.073 0.049 -0.068 -0.098 -0.012 -0.05 -0.02 -0.056 -0.069 -0.019 -0.003 -0.029 0.019 -0.016 0.045 0.014 0.049 0.04 0.033 0.027 0.011 0.004 0.002 -0.001 0.016 -0.032 0.081 0.053 0.01 0.092 0.001 z M 71.78 -39.95 l 0.01 -0.045 -0.025 0.002 -0.029 0.012 -0.055 0.012 -0.012 0.023 0.037 0.029 0.047 0.01 z M 70.702 -39.825 l -0.003 -0.021 -0.034 -0.01 -0.097 -0.011 -0.069 -0.016 -0.015 0 0.006 0.02 0.029 0.035 0.041 0.037 0.053 0.004 z" vector-effect="non-scaling-stroke" fill="#000" fill-opacity="1" stroke="#FFF" stroke-width="0px" stroke-linejoin="round" stroke-linecap="round"/></svg>
