<svg xmlns="http://www.w3.org/2000/svg" xmlns:xlink="http://www.w3.org/1999/xlink" height="400" width="400" viewBox="100.11494140625 -22.495263671875 7.53818359374998 8.57407226562499"><path d="M 102.127 -22.379 l 0.056 0.095 0.118 0.106 0.141 0.151 0.045 0.069 0.095 0.053 0.027 0.053 0.022 0.08 0.01 0.06 0.021 0.035 0.033 0.014 0.043 -0.016 0.033 -0.032 0.027 -0.088 0.018 -0.009 0.029 0.073 0.031 0.012 0.042 0.009 0.032 0.032 0.01 0.055 -0.011 0.056 -0.039 0.063 -0.022 0.066 -0.015 0.102 -0.021 0.072 0.033 0.063 0.221 0.311 0.106 0.051 0.253 0.061 0.091 0.042 0.08 0.041 0.079 -0.02 0.076 -0.093 0.092 -0.052 0.17 -0.08 0.049 -0.004 0.094 0.032 0.154 0.093 0.112 0.087 0.069 0.046 0.053 0.041 -0.008 0.046 -0.042 0.045 -0.054 0.025 -0.071 0.044 -0.04 0.044 0.024 0.017 0.104 0.011 0.123 0.039 0.038 0.046 0.005 0.04 0.015 0.064 0.022 0.019 0.114 -0.012 0.035 0.014 0.041 0.033 0.041 0.086 -0.001 0.065 -0.082 0.071 -0.031 0.043 -0.013 0.068 -0.059 0.081 -0.155 0.136 -0.042 0.008 -0.286 -0.075 -0.133 0.005 -0.064 0.002 -0.031 0.003 -0.019 0.029 0.038 0.082 0.011 0.082 -0.035 0.062 -0.096 0.054 -0.036 0.026 -0.005 0.035 0.027 0.036 0.088 0.038 0.102 0.035 0.337 0.212 0.072 0.05 0.095 0.073 0.103 0.057 0.277 0.075 0.122 0.049 0.031 0.028 -0.001 0.034 -0.032 0.044 -0.026 0.077 -0.001 0.046 0.029 0.045 0.049 0.067 0.11 0.103 0.06 0.046 0.067 0.01 0.058 0.025 0.06 0.077 0.07 0.094 0.009 0.065 0.03 0.084 0.064 0.097 0.088 0.093 0.123 0.116 0.071 0.082 0.033 0.032 0.263 0.198 0.064 0.073 0.093 0.141 0.039 0.021 0.037 0.028 0.024 0.077 0.008 0.056 0.012 0.17 0.047 0.051 0.044 0.062 0.019 0.045 0.04 0.034 0.043 0.006 0.052 -0.038 0.041 -0.036 0.019 0.011 0.042 0.119 0.038 0.043 0.071 0.041 0.068 0.032 0.148 0.144 0.079 0.052 0.054 0.017 0.046 0.024 0.014 0.045 -0.018 0.046 -0.031 0.03 -0.172 0.083 -0.023 0.036 0.024 0.055 0.043 0.069 0.047 0.059 0.059 0.058 0.121 0.095 0.105 0.074 0.057 0.082 0.031 0.055 -0.019 0.065 -0.044 0.071 -0.034 0.061 -0.059 0.036 -0.016 0.042 0.024 0.064 0.02 0.044 -0.011 0.054 0.006 0.112 -0.054 0.04 -0.05 0.102 -0.035 0.008 -0.087 -0.037 -0.03 0.02 -0.056 0.074 -0.097 0.081 -0.047 0.001 -0.032 -0.01 -0.038 0.035 -0.054 0.064 -0.025 -0.002 -0.093 0.015 -0.036 -0.02 -0.045 -0.053 -0.073 -0.054 -0.066 -0.038 -0.036 -0.026 -0.033 -0.044 -0.03 -0.029 -0.054 0.063 -0.092 0.06 -0.087 -0.011 -0.043 -0.01 -0.035 0.088 -0.025 0.016 -0.157 0.015 -0.029 0.014 0.025 0.08 0.093 0.136 0.028 0.078 -0.058 0.128 -0.162 -0.003 -0.073 -0.052 -0.067 -0.072 -0.024 -0.036 -0.208 -0.071 -0.139 0.049 -0.042 -0.002 -0.065 -0.052 -0.039 -0.039 -0.039 -0.059 -0.021 -0.06 -0.002 -0.027 0.06 -0.022 0.099 -0.049 0.08 -0.055 0.053 -0.058 0.022 -0.061 0.003 -0.071 0.023 -0.182 0.024 -0.089 -0.013 -0.109 -0.043 -0.086 0 -0.129 0.015 -0.063 0.007 -0.041 0.061 -0.052 0.042 -0.075 0.023 -0.098 0.002 -0.071 -0.019 -0.043 -0.06 -0.041 -0.1 -0.039 -0.063 -0.049 -0.026 -0.06 0.002 -0.052 0.031 -0.045 -0.076 -0.05 -0.182 -0.056 -0.102 -0.067 -0.021 -0.078 -0.076 -0.102 -0.131 -0.126 -0.069 -0.181 -0.007 -0.237 0.015 -0.193 0.057 -0.223 -0.076 -0.161 -0.084 -0.085 -0.117 -0.063 -0.111 -0.09 -0.105 -0.117 -0.126 -0.173 -0.147 -0.228 -0.099 -0.102 -0.051 0.024 -0.107 -0.021 -0.163 -0.066 -0.142 -0.036 -0.121 -0.005 -0.079 0.015 -0.037 0.035 -0.003 0.035 0.031 0.034 -0.016 0.027 -0.063 0.019 -0.051 0.038 -0.057 0.083 -0.04 0.11 -0.06 0.042 -0.093 0.009 -0.091 0.031 -0.09 0.053 -0.042 0.04 0.005 0.028 -0.019 0.006 -0.044 -0.015 -0.021 -0.036 0.002 -0.057 -0.046 -0.038 -0.094 -0.02 -0.107 -0.061 -0.12 -0.103 -0.083 -0.055 -0.047 -0.007 -0.067 0.041 -0.087 0.088 -0.072 0.035 -0.057 -0.018 -0.044 0.031 -0.031 0.081 -0.057 0.063 -0.124 0.069 -0.009 0.008 -0.141 0.094 -0.114 0.094 -0.132 0.126 -0.062 0.019 -0.059 -0.03 -0.09 -0.031 -0.047 -0.043 0.091 -0.213 0.114 -0.236 0.031 -0.109 0.005 -0.08 -0.011 -0.065 -0.045 -0.068 -0.042 -0.052 -0.004 -0.035 0.013 -0.037 0.046 -0.055 0.059 -0.085 0.055 -0.174 0.066 -0.184 -0.006 -0.112 -0.053 -0.123 -0.029 -0.116 0.023 -0.159 -0.009 -0.062 -0.057 -0.031 -0.188 -0.032 -0.06 0.005 -0.048 0.02 -0.051 0.043 -0.063 0.027 -0.118 0.015 -0.112 -0.054 -0.093 -0.091 -0.022 -0.112 0.069 -0.133 0.048 -0.107 0.029 -0.092 -0.003 -0.044 -0.02 -0.046 -0.028 -0.006 -0.06 -0.057 -0.058 -0.1 -0.055 -0.046 -0.052 0.009 -0.048 0.038 -0.044 0.067 -0.034 0.027 -0.025 -0.012 0.008 -0.059 0.007 -0.056 0.054 -0.217 0.065 -0.141 0.077 -0.065 0.081 -0.028 0.086 0.01 0.072 -0.012 0.058 -0.034 -0.005 -0.02 -0.068 -0.005 -0.027 -0.038 0.014 -0.07 0.03 -0.046 0.047 -0.021 0.046 -0.071 0.044 -0.121 0.054 -0.061 0.063 -0.002 0.108 -0.052 0.153 -0.102 0.058 -0.099 0.058 0.045 -0.021 0.115 0.03 0.024 0.014 0.041 -0.008 0.064 0.013 0.054 0.023 0.026 0.034 0.013 0.162 -0.047 0.099 -0.003 0.042 0.031 0.038 0.019 0.047 0.015 0.036 0.019 0.023 -0.006 0.055 -0.048 0.017 -0.008 0.001 -0.023 -0.039 -0.043 -0.04 -0.036 0.001 -0.08 0.019 -0.139 0.004 -0.072 -0.003 -0.172 -0.007 -0.049 -0.037 -0.056 -0.097 -0.107 -0.027 -0.066 -0.016 -0.066 0.002 -0.042 -0.025 -0.047 -0.013 -0.044 0.043 -0.023 0.052 -0.051 0.026 -0.078 0.025 -0.057 0.036 -0.024 0.031 -0.009 0.021 0.005 0.082 0.102 0.104 -0.051 0.079 0 0.067 0.027 z" vector-effect="non-scaling-stroke" fill="#000" fill-opacity="1" stroke="#FFF" stroke-width="0px" stroke-linejoin="round" stroke-linecap="round"/></svg>
