<svg xmlns="http://www.w3.org/2000/svg" xmlns:xlink="http://www.w3.org/1999/xlink" height="400" width="400" viewBox="21.01494140625 -58.063427734375 7.18710937500001 2.3958984375"><path d="M 26.594 -55.668 l -0.051 -0.005 -0.142 -0.031 -0.12 -0.047 -0.072 -0.062 -0.124 -0.085 -0.081 -0.043 -0.128 -0.054 -0.213 -0.11 -0.077 -0.025 -0.379 -0.048 -0.137 -0.022 -0.126 -0.125 -0.041 -0.073 -0.062 -0.013 -0.068 0.015 -0.074 0.015 -0.171 0.085 -0.055 0.012 -0.106 0.001 -0.247 0.019 -0.112 -0.031 -0.196 -0.034 -0.106 -0.005 -0.094 0.001 -0.417 -0.033 -0.076 0.036 -0.077 0.007 -0.075 -0.056 -0.093 -0.016 -0.102 0.019 -0.186 0.002 -0.221 -0.018 -0.281 -0.014 -0.042 0.006 -0.312 0.075 -0.077 0.011 -0.339 0.126 -0.269 0.118 -0.031 -0.189 0.017 -0.378 0.04 -0.187 0.186 -0.109 0.093 -0.085 0.054 -0.113 0.016 -0.105 0.038 -0.087 0.27 -0.249 0.214 -0.027 0.289 -0.069 0.323 -0.057 0.062 0.073 0.032 0.056 0.389 0.203 0.099 0.068 0.15 0.234 0.36 0.119 0.283 -0.037 0.123 -0.058 0.227 -0.106 0.101 -0.078 0.021 -0.075 -0.04 -0.32 -0.061 -0.139 0.021 -0.086 0.04 0.004 0.096 -0.042 0.317 -0.077 0.063 -0.003 0.072 -0.016 0.2 -0.059 0.064 0.031 0.054 0.036 0.03 0 0.014 -0.013 -0.004 -0.023 0.014 -0.016 0.057 0.009 0.231 0.097 0.089 0.023 0.061 0.006 0.073 0.045 0.197 0.03 0.024 0.023 0.015 0.029 0.185 0.123 0.083 0.062 0.164 0.057 0.071 0.013 0.287 -0.058 0.08 -0.02 0.066 0 0.067 0.03 0.154 0.04 0.139 0.013 0.025 -0.003 0.118 0.004 0.041 0.016 0.028 0.078 0.134 0.062 0.124 0.051 0.032 0.024 0.01 0.046 -0.008 0.053 -0.016 0.028 -0.052 0.032 -0.045 0.08 -0.006 0.077 -0.072 0.132 0.016 0.002 0.15 -0.024 0.043 0.014 0.033 0.029 0.011 0.083 0.049 0.037 0.05 0.058 0.016 0.045 0.096 0.054 0.008 0.035 0.058 0.124 0.022 0.071 0.01 0.055 -0.029 0.07 -0.025 0.047 -0.03 -0.003 -0.086 0.012 -0.136 0.057 -0.202 0.135 -0.052 0.03 -0.053 0.103 -0.013 0.01 -0.118 -0.005 -0.032 -0.002 -0.118 0.002 -0.257 -0.027 -0.1 0.018 -0.131 0.104 -0.051 0.015 -0.152 0.014 z" vector-effect="non-scaling-stroke" fill="#000" fill-opacity="1" stroke="#FFF" stroke-width="0px" stroke-linejoin="round" stroke-linecap="round"/></svg>
