<svg xmlns="http://www.w3.org/2000/svg" xmlns:xlink="http://www.w3.org/1999/xlink" height="400" width="400" viewBox="35.10859375 -34.6787109375 1.47636718749999 1.60302734375"><path d="M 35.976 -34.629 l 0.175 0.001 0.113 -0.004 0.033 -0.046 0.088 0.021 0.049 0.044 -0.044 0.047 -0.062 0.054 0.004 0.014 0.047 0.004 0.079 0.029 0.049 0.034 0.081 0.211 -0.05 0.087 -0.078 0.077 -0.035 0.007 -0.068 0.039 -0.057 0.053 -0.02 0.033 0.004 0.031 0.081 0.039 0.002 0.016 -0.017 0.012 -0.065 -0.009 -0.084 -0.004 -0.05 0 -0.058 0.008 -0.073 0.048 -0.033 0.031 -0.018 0.02 -0.026 0.065 0.029 0.044 0.055 0.025 0.008 0.013 -0.012 0.023 -0.055 0.028 -0.041 0.034 -0.012 0.035 -0.046 0.034 -0.028 0.016 -0.053 0.046 -0.053 0.037 -0.107 0.058 -0.024 0.034 -0.024 -0.031 -0.047 0.021 -0.039 0.131 -0.082 0.044 -0.102 -0.004 -0.086 -0.012 -0.115 0.008 0.046 -0.076 0.048 -0.099 0.048 -0.134 0.084 -0.111 0.175 -0.376 0.101 -0.152 0.036 -0.216 0.156 -0.189 0.117 -0.056 0.057 -0.054 z" vector-effect="non-scaling-stroke" fill="#000" fill-opacity="1" stroke="#FFF" stroke-width="0px" stroke-linejoin="round" stroke-linecap="round"/></svg>
