<svg xmlns="http://www.w3.org/2000/svg" xmlns:xlink="http://www.w3.org/1999/xlink" height="400" width="400" viewBox="27.0517578125 28.58173828125 2.33896484375001 2.060546875"><path d="M 28.737 30.102 l -0.09 0.025 -0.013 0.002 -0.058 -0.006 -0.077 0.006 -0.061 0.014 -0.047 0.005 -0.077 0.071 -0.139 0.191 -0.037 0.04 -0.01 0.075 -0.032 0.059 -0.04 0.046 -0.039 0.011 -0.116 -0.018 -0.149 -0.024 -0.087 -0.058 -0.077 -0.076 -0.041 -0.055 -0.042 -0.03 -0.015 -0.017 -0.061 -0.025 -0.023 -0.013 -0.02 -0.009 -0.024 -0.037 -0.014 -0.032 0.006 -0.089 -0.043 -0.053 -0.073 -0.09 -0.046 -0.074 -0.063 -0.101 -0.039 -0.087 -0.04 -0.09 0.005 -0.038 0.038 -0.026 0.112 -0.045 0.087 -0.035 0.062 -0.064 0.068 -0.095 0.033 -0.057 0.033 -0.026 0.036 -0.04 0.063 -0.09 0.07 -0.1 0.075 -0.107 0.095 -0.031 0.129 -0.036 0.125 -0.093 0.148 -0.079 0.239 -0.085 0.112 -0.022 0.042 -0.012 0.027 0.016 0.029 0.049 0.041 0.041 0.094 0.071 0.04 0.017 0.097 0.105 0.104 0.072 0.12 0.083 0.082 0.041 0.042 0.012 0.035 0.074 0.035 0.055 0.02 0.051 -0.004 0.05 -0.038 0.122 -0.055 0.125 -0.044 0.052 -0.054 0.033 -0.053 0.049 -0.02 0.1 -0.024 0.118 -0.069 0.049 -0.054 0.032 -0.074 0.039 z" vector-effect="non-scaling-stroke" fill="#000" fill-opacity="1" stroke="#FFF" stroke-width="0px" stroke-linejoin="round" stroke-linecap="round"/></svg>
