<svg xmlns="http://www.w3.org/2000/svg" xmlns:xlink="http://www.w3.org/1999/xlink" height="400" width="400" viewBox="-11.50751953125 -8.53769531249999 4.10761718749998 4.18637695312499"><path d="M -11.508 -6.907 l 0.053 -0.045 0.078 -0.143 0.109 -0.138 0.102 -0.082 0.081 -0.084 0.085 -0.064 0.122 -0.075 0.187 -0.198 0.044 -0.023 0.03 -0.137 0.047 -0.175 0.054 -0.054 0.127 -0.032 0.03 -0.03 0.045 -0.123 0.029 -0.143 0.003 -0.031 0.05 -0.004 0.086 -0.031 0.05 0.014 0.022 0.041 0.011 0.035 0.26 -0.089 0.023 -0.019 0.014 0.003 0.033 0.081 0.019 -0.005 0.016 -0.023 0.017 -0.002 0.02 0.011 0.02 0.037 0.033 0.034 0.056 0.024 0.036 0.033 -0.004 0.086 0.014 0.084 0.024 0.019 0.013 0.05 0.007 0.055 0.013 0.029 0.01 0.055 -0.005 0.059 0.01 0.042 0.041 0.072 0.026 0.091 0 0.064 -0.015 0.068 -0.027 0.062 -0.048 0.067 -0.004 0.027 0.029 0.017 0.043 0.004 0.036 -0.014 0.092 0.031 0.048 0.044 0.042 0.055 0.038 0.028 0.017 0.035 0.065 -0.01 0.076 -0.033 0.016 -0.016 0.023 0.008 0.049 0.003 0.034 -0.06 0.028 -0.069 0.059 -0.075 0.029 -0.029 0.008 -0.048 0.003 -0.062 0.021 -0.054 0.049 -0.029 0.052 0 0.028 0.011 0.014 0.052 0.042 0.04 0.036 0.027 0.019 0.011 0.03 0.031 0.028 0.105 0.112 0.338 -0.006 0.093 -0.022 0.061 -0.001 0.06 -0.007 0.059 -0.069 0.096 -0.202 0.197 0.016 0.017 0.048 0.022 0.049 0.012 0.04 -0.006 0.051 0.049 0.054 0.062 0.058 0.032 0.083 0.028 0.073 0.003 0.062 -0.011 0.087 0.012 0.093 0.051 0.033 0.085 0.022 0.074 0.032 0.037 0.004 0.064 0.066 0.056 0.094 0.011 0.122 0.066 0.031 -0.003 0.013 -0.008 0.015 0.012 0.031 0.19 0.024 0.101 -0.013 0.041 -0.016 0.032 -0.001 0.153 -0.055 0.088 -0.009 0.097 -0.016 0.031 -0.059 0.028 0 0.074 -0.016 0.09 -0.006 0.095 0.017 0.249 0.003 0.186 0.027 0.035 -0.115 -0.015 -0.338 -0.142 -0.261 -0.081 -0.873 -0.465 -0.243 -0.186 -0.28 -0.278 -0.622 -0.559 -0.142 -0.09 -0.179 -0.044 -0.111 -0.048 -0.078 -0.052 -0.063 -0.155 -0.156 -0.092 -0.287 -0.131 z" vector-effect="non-scaling-stroke" fill="#000" fill-opacity="1" stroke="#FFF" stroke-width="0px" stroke-linejoin="round" stroke-linecap="round"/></svg>
