<svg xmlns="http://www.w3.org/2000/svg" xmlns:xlink="http://www.w3.org/1999/xlink" height="400" width="400" viewBox="9.31025390625001 -33.18193359375 15.840234375 13.685302734375"><path d="M 9.519 -30.229 l 0.119 -0.053 0.169 -0.06 0.088 -0.045 0.038 -0.038 0.127 -0.155 0.066 -0.086 0.09 -0.117 0.04 -0.082 0.001 -0.076 -0.014 -0.091 -0.071 -0.219 -0.058 -0.213 0.045 -0.082 0.036 -0.039 0.079 -0.1 0.031 -0.02 0.17 -0.031 0.068 -0.067 0.052 -0.083 0.013 -0.044 0.074 -0.046 0.089 -0.046 0.055 -0.059 0.179 -0.092 0.163 -0.084 0.19 -0.088 0.147 -0.068 0.031 -0.06 -0.002 -0.052 -0.08 -0.118 0 -0.139 0.005 -0.116 0.008 -0.068 0.035 -0.19 0.002 -0.026 0.153 0.063 0.156 0.025 0.466 0.235 0.147 0.029 0.326 0.028 0.385 -0.096 0.145 -0.017 0.253 0.09 0.111 0.025 0.188 0.007 0.32 0.082 0.081 0.029 0.187 0.131 0.09 0.039 0.663 0.12 0.09 0.079 0.092 0.152 0.004 0.188 0.051 0.137 0.082 0.177 0.099 0.126 0.11 0.105 0.126 0.065 0.291 0.097 0.328 0.037 0.331 0.013 0.568 0.133 0.481 0.154 0.119 0.076 0.241 0.075 0.479 0.362 0.267 0.125 0.187 0.024 0.168 -0.022 0.298 -0.126 0.123 -0.075 0.3 -0.312 0.098 -0.163 0.039 -0.115 -0.01 -0.117 -0.037 -0.105 -0.084 -0.11 -0.059 -0.145 -0.035 -0.262 0.047 -0.182 0.058 -0.109 0.091 -0.111 0.249 -0.212 0.25 -0.149 0.441 -0.195 0.256 -0.002 0.106 -0.021 0.211 -0.138 0.085 -0.005 0.118 0.034 0.348 -0.01 0.153 0.038 0.183 0.086 0.231 0.053 0.163 0.053 0.174 0.068 0.039 0.171 -0.019 0.051 -0.004 0.066 0.18 0.118 0.511 0.055 0.101 0.031 0.141 0.09 0.091 0.028 0.35 0.013 0.204 -0.019 0.195 0.032 0.072 0.031 0.074 0.07 0.09 0.171 0.035 0.057 -0.038 0.028 -0.055 0.06 -0.035 0.053 -0.093 0.087 -0.077 0.093 0.007 0.136 0.018 0.138 0.052 0.135 0.044 0.15 -0.013 0.098 -0.038 0.121 -0.046 0.1 -0.151 0.207 -0.023 0.05 0.008 0.07 0.092 0.246 0.007 0.077 0.055 0.238 0.05 0.194 0.056 0.152 0.009 0.042 0 0.225 0 0.225 0 0.225 0 0.225 0 0.225 0 0.225 0 0.225 0 0.225 0 0.225 0 0.225 0 0.225 0 0.225 0 0.225 0 0.225 0 0.225 0 0.225 0 0.225 0 0.225 0 0.225 0 0.225 0 0.225 0 0.225 0 0.225 0 0.225 0 0.225 0 0.225 0 0.225 0 0.225 0 0.225 0 0.225 0 0.225 0 0.225 0 0.498 0 0.498 0 0.498 0 0.498 -0.003 0.002 -0.003 0.002 -0.003 0.002 -0.003 0.002 -0.247 0 -0.247 0 -0.247 0 -0.247 0 0 0.125 0 0.125 0 0.125 0 0.125 -0.479 -0.237 -0.479 -0.237 -0.479 -0.237 -0.479 -0.237 -0.479 -0.237 -0.479 -0.237 -0.479 -0.237 -0.479 -0.237 -0.479 -0.237 -0.479 -0.237 -0.479 -0.237 -0.479 -0.237 -0.479 -0.237 -0.479 -0.237 -0.479 -0.237 -0.479 -0.237 -0.331 -0.163 -0.357 0.159 -0.28 0.125 -0.368 0.165 0 0 -0.423 0.214 -0.325 0.164 -0.015 -0.001 -0.015 -0.004 -0.338 -0.278 -0.264 -0.217 -0.117 -0.061 -0.498 -0.111 -0.495 -0.11 -0.521 -0.116 -0.095 -0.177 -0.106 -0.198 -0.143 -0.247 -0.087 -0.151 -0.029 -0.024 -0.399 -0.12 -0.422 -0.117 -0.247 0.071 -0.043 -0.005 -0.07 -0.045 -0.07 -0.061 -0.037 -0.085 -0.099 -0.114 -0.091 -0.261 -0.009 -0.208 -0.018 -0.074 -0.22 -0.292 -0.2 -0.266 -0.133 -0.177 -0.026 -0.08 0.016 -0.098 0.054 -0.088 0.194 -0.104 0.174 -0.114 0.024 -0.079 0.011 -0.217 -0.057 -0.068 -0.042 -0.129 -0.043 -0.175 -0.005 -0.112 0.078 -0.222 0.091 -0.233 -0.058 -0.258 -0.043 -0.517 0.027 -0.407 -0.022 -0.148 -0.015 -0.062 -0.059 -0.192 -0.073 -0.198 -0.033 -0.069 -0.094 -0.16 -0.155 -0.198 -0.081 -0.122 0.111 -0.064 z" vector-effect="non-scaling-stroke" fill="#000" fill-opacity="1" stroke="#FFF" stroke-width="0px" stroke-linejoin="round" stroke-linecap="round"/></svg>
