<svg xmlns="http://www.w3.org/2000/svg" xmlns:xlink="http://www.w3.org/1999/xlink" height="400" width="400" viewBox="20.8998046875 -56.411181640625 5.87587890624999 2.51821289062499"><path d="M 20.958 -55.279 l -0.058 -0.008 0.114 -0.115 0.044 -0.075 0.03 -0.106 0.027 -0.033 0.001 0.048 -0.012 0.08 -0.072 0.137 z M 22.766 -54.357 l -0.042 -0.049 -0.044 -0.087 0.005 -0.07 0.025 -0.07 0.122 -0.206 -0.007 -0.033 -0.088 -0.058 -0.109 -0.042 -0.06 -0.088 -0.221 -0.005 -0.208 0.005 -0.066 -0.004 -0.198 -0.037 -0.191 -0.06 -0.128 -0.035 -0.108 -0.039 -0.058 -0.041 -0.092 0.011 -0.062 0 0.001 -0.007 -0.035 -0.073 0.037 -0.111 -0.067 -0.163 -0.109 -0.196 -0.008 -0.21 -0.008 -0.047 0.269 -0.118 0.339 -0.126 0.077 -0.011 0.312 -0.075 0.042 -0.006 0.281 0.014 0.221 0.018 0.186 -0.002 0.102 -0.019 0.093 0.016 0.075 0.056 0.077 -0.007 0.076 -0.036 0.417 0.033 0.094 -0.001 0.106 0.005 0.196 0.034 0.112 0.031 0.247 -0.019 0.106 -0.001 0.055 -0.012 0.171 -0.085 0.074 -0.015 0.068 -0.015 0.062 0.013 0.041 0.073 0.126 0.125 0.137 0.022 0.379 0.048 0.077 0.025 0.213 0.11 0.128 0.054 0.081 0.043 0.124 0.085 0.072 0.062 0.12 0.047 0.142 0.031 0.051 0.005 -0.003 0.045 -0.024 0.076 -0.047 0.098 -0.05 0.076 -0.012 0.029 0.038 0.024 0.186 0.012 0.079 0.013 0.016 0.02 -0.041 0.026 -0.059 0.022 -0.027 0.021 -0.047 0.074 -0.309 -0.009 -0.041 0.015 -0.02 0.034 -0.015 0.04 -0.041 0.047 -0.082 0.041 -0.129 0.015 -0.105 0.028 -0.078 0.086 -0.058 0.115 0.001 0.082 0.008 0.046 -0.007 0.026 -0.04 0.028 -0.065 0.075 -0.053 0.083 -0.02 0.045 0.01 0.021 0.059 0.001 0.086 0.017 0.046 0.033 0.017 0.038 0 0.041 -0.016 0.023 -0.069 0.017 -0.108 0.001 -0.063 -0.02 -0.013 -0.016 0.03 -0.04 -0.022 -0.05 -0.045 -0.028 -0.091 0.042 -0.087 0 -0.104 0.037 -0.068 0.059 -0.065 0.022 -0.177 -0.012 -0.044 0.026 -0.036 0.121 -0.021 0.024 -0.147 -0.005 -0.142 0.048 -0.161 0.039 -0.081 -0.027 -0.045 -0.03 -0.087 0.005 -0.095 0.013 -0.064 -0.007 -0.072 0.003 -0.139 0.023 -0.175 -0.008 -0.074 -0.02 -0.007 -0.019 0.005 -0.047 -0.002 -0.073 -0.028 -0.064 -0.083 -0.057 -0.088 -0.04 -0.112 -0.041 -0.083 -0.018 -0.045 -0.005 -0.01 -0.024 -0.016 -0.02 -0.039 -0.018 -0.083 -0.024 -0.07 -0.005 z" vector-effect="non-scaling-stroke" fill="#000" fill-opacity="1" stroke="#FFF" stroke-width="0px" stroke-linejoin="round" stroke-linecap="round"/></svg>
