<svg xmlns="http://www.w3.org/2000/svg" xmlns:xlink="http://www.w3.org/1999/xlink" height="400" width="400" viewBox="5.72500000000002 -50.1671875 0.768749999999983 0.721728515625003"><path d="M 6.117 -50.121 l -0.008 0.027 0.001 0.06 0.028 0.06 0.067 0.059 0.051 0.043 0.069 0.034 0.116 0.033 0.046 0.007 0.006 0.044 -0.009 0.047 -0.04 0.026 -0.038 0.037 -0.028 0.045 -0.03 0.087 -0.004 0.06 -0.067 -0.025 -0.035 -0.017 -0.061 -0.005 -0.061 0.014 -0.046 0.031 -0.063 0.009 -0.052 -0.009 -0.031 -0.023 -0.028 -0.012 -0.078 -0.015 -0.034 -0.033 0.026 -0.016 0.022 -0.025 0.019 -0.035 0.024 -0.032 -0.077 -0.087 -0.016 -0.027 -0.063 -0.049 0.001 -0.025 0.015 -0.024 -0.006 -0.018 0.009 -0.044 0.044 -0.042 0.029 -0.051 0.05 -0.07 0.109 -0.084 0.079 0.013 0.034 0 0.021 0.031 z" vector-effect="non-scaling-stroke" fill="#000" fill-opacity="1" stroke="#FFF" stroke-width="0px" stroke-linejoin="round" stroke-linecap="round"/></svg>
