<svg xmlns="http://www.w3.org/2000/svg" xmlns:xlink="http://www.w3.org/1999/xlink" height="400" width="400" viewBox="43.25712890625 12.07958984375 7.2255859375 13.49091796875"><path d="M 49.538 12.432 l 0.046 0.105 0.054 0.1 0.167 0.243 0.071 0.093 0.061 0.099 0.03 0.198 0.106 0.308 0.1 0.462 0.031 0.474 0.031 0.218 0.078 0.205 0.128 0.213 0.041 0.236 -0.078 0.243 -0.113 0.229 -0.029 0.043 -0.053 0.059 -0.024 -0.003 -0.091 -0.059 -0.074 -0.097 -0.094 -0.228 -0.034 -0.116 -0.039 -0.018 -0.11 0.01 -0.079 0.072 -0.014 0.045 0.017 0.129 0.03 0.116 0.013 0.117 0.002 0.148 0.029 0.045 0.044 0.038 0.045 0.097 0.008 0.231 -0.028 0.117 -0.077 0.1 0.005 0.055 0.029 0.057 -0.027 0.034 -0.103 0.043 -0.042 0.038 -0.056 0.102 -0.09 0.208 -0.012 0.106 0.057 0.323 -0.016 0.229 -0.115 0.438 -0.066 0.208 -0.094 0.248 -0.143 0.327 -0.142 0.411 -0.121 0.423 -0.089 0.254 -0.101 0.25 -0.138 0.442 -0.118 0.449 -0.175 0.494 -0.241 0.551 -0.026 0.072 -0.05 0.281 -0.054 0.244 -0.065 0.242 -0.135 0.4 -0.015 0.123 -0.031 0.118 -0.13 0.251 -0.055 0.093 -0.039 0.099 -0.022 0.126 -0.039 0.121 -0.096 0.223 -0.142 0.192 -0.097 0.07 -0.21 0.101 -0.106 0.021 -0.236 0.002 -0.228 0.058 -0.238 0.111 -0.229 0.127 -0.088 0.06 -0.097 0.034 -0.302 0.007 -0.091 -0.027 -0.302 -0.209 -0.117 -0.034 -0.222 -0.029 -0.067 -0.018 -0.061 -0.027 -0.09 -0.109 -0.178 -0.092 -0.043 -0.029 -0.027 -0.064 -0.018 -0.069 -0.046 -0.077 -0.034 -0.146 -0.058 -0.102 -0.164 -0.18 -0.017 -0.058 -0.013 -0.192 0.005 -0.13 -0.016 -0.237 0.019 -0.112 0.058 -0.101 -0.024 -0.109 -0.061 -0.114 -0.023 -0.118 -0.045 -0.108 -0.172 -0.194 -0.04 -0.096 -0.028 -0.099 -0.065 -0.308 -0.008 -0.107 0.009 -0.227 0.024 -0.117 0.042 -0.081 0.01 -0.061 0.027 -0.052 0.041 -0.042 0.027 -0.05 0.064 -0.29 0.081 -0.064 0.121 -0.037 0.097 -0.076 0.055 -0.102 0.055 -0.211 0.152 -0.21 0.054 -0.11 0.122 -0.166 0.108 -0.234 0.033 -0.11 0.024 -0.113 0.028 -0.248 0.021 -0.123 -0.004 -0.122 -0.062 -0.126 -0.148 -0.228 -0.005 -0.043 0.012 -0.169 -0.013 -0.123 -0.054 -0.122 -0.07 -0.115 -0.069 -0.215 -0.033 -0.355 0.007 -0.129 -0.02 -0.114 -0.05 -0.109 0.036 -0.19 0.442 -0.689 0.014 -0.081 -0.018 -0.21 0.009 -0.122 0.015 -0.045 0.034 -0.026 0.076 -0.013 0.357 -0.03 0.046 -0.021 0.089 -0.058 0.123 -0.112 0.056 -0.032 0.048 0.012 0.031 0.048 0.04 0.026 0.144 -0.051 0.055 -0.002 0.056 0.008 0.026 -0.047 0.016 -0.063 0.021 -0.044 0.039 -0.025 0.186 -0.014 0.118 -0.018 0.153 -0.044 0.033 0.009 0.124 0.158 0.037 0.014 0.048 0.006 0.042 -0.029 -0.1 -0.083 -0.015 -0.047 0.005 -0.053 0.054 -0.114 0.09 -0.087 0.2 -0.132 0.207 -0.152 0.06 -0.011 0.051 0.024 0.039 0.179 -0.005 0.03 0.033 0.004 0.039 -0.022 0.034 -0.072 0.002 -0.06 -0.028 -0.058 -0.014 -0.049 -0.001 -0.045 0.105 -0.106 0.083 -0.101 0.038 -0.121 0.033 -0.056 0.087 -0.063 0.026 0.01 0.02 0.051 0.011 0.054 -0.022 0.054 -0.032 0.053 -0.013 0.071 0.049 0.014 0.046 -0.017 0.068 -0.128 0.077 -0.121 0.046 -0.063 0.058 -0.044 0.096 0.009 0.094 0.027 -0.153 -0.128 -0.038 -0.175 0.182 -0.303 0.002 -0.063 0.026 -0.019 0.012 -0.024 -0.094 -0.102 -0.018 -0.051 0.012 -0.077 0.045 -0.068 0.041 -0.048 0.058 -0.018 0.046 0.026 0.101 0.084 0.068 0.013 0.082 -0.081 0.067 -0.101 0.101 -0.069 0.115 -0.043 0.175 -0.158 0.114 -0.332 0.009 -0.097 -0.025 -0.117 -0.04 -0.112 -0.067 -0.139 0.018 -0.031 0.096 0.018 0.032 -0.019 0.104 -0.123 0.171 -0.236 0.056 0.001 0.049 0.044 0.018 0.065 0.034 0.048 0.116 0.112 z M 48.342 13.364 l 0.001 0.037 -0.132 -0.015 -0.021 -0.125 0.064 -0.004 0.014 -0.051 0.039 -0.006 0.042 0.111 z M 49.936 16.903 l -0.112 0.184 0.032 -0.153 0.13 -0.221 0.037 -0.017 z" vector-effect="non-scaling-stroke" fill="#000" fill-opacity="1" stroke="#FFF" stroke-width="0px" stroke-linejoin="round" stroke-linecap="round"/></svg>
