<svg xmlns="http://www.w3.org/2000/svg" xmlns:xlink="http://www.w3.org/1999/xlink" height="400" width="400" viewBox="99.6462890625 -7.35166015624999 19.62001953125 6.489697265625"><path d="M 100.119 -6.442 l 0.019 -0.047 0.023 -0.153 0.016 -0.03 0.04 -0.015 0.045 0.004 0.084 0.133 0.218 0.082 0.066 0.02 0.086 -0.033 0.039 0.021 0.039 0.034 0.023 0.095 0.057 0.086 0.115 -0.012 0.041 0.012 0.024 0.003 0.022 0.077 0.011 0.132 -0.011 0.077 -0.083 0.11 -0.011 0.075 0.044 0.047 0.057 0.05 0.032 0.038 0.034 -0.006 0.043 -0.026 0.039 -0.065 0.027 -0.056 0.147 -0.062 0.152 -0.056 0.021 0.006 0.025 0.025 0.049 0.081 0.028 0.017 0.041 0.008 0.071 -0.009 0.083 -0.046 0.044 -0.086 0.019 -0.068 0.119 -0.117 0.013 -0.088 0.033 -0.058 0.173 0.039 0.066 0.031 0.194 0.309 0.256 0.218 0.108 0.081 0.084 0.039 0.115 0.117 0.1 0.146 0.219 0.412 0.038 0.181 0.015 0.276 -0.048 0.416 -0.058 0.208 0.011 0.098 0.08 0.15 -0.024 0.142 0.016 0.118 -0.006 0.327 0.046 0.097 0.052 0.062 0.275 0.194 0.02 0.072 0.135 0.247 0.251 0.538 0.07 0.242 -0.008 0.065 -0.03 0.027 -0.074 0.024 -0.061 -0.047 -0.021 -0.034 0.006 -0.042 -0.024 -0.041 -0.06 -0.05 -0.035 -0.044 0.01 0.074 0 0.095 -0.076 0.008 -0.098 -0.03 -0.122 0.027 -0.145 0.117 -0.07 0.003 -0.053 -0.1 -0.027 -0.068 -0.043 -0.048 -0.46 -0.246 -0.17 -0.063 -0.179 -0.187 -0.403 -0.206 -0.256 -0.201 -0.109 -0.124 -0.262 -0.11 -0.113 -0.13 -0.055 -0.025 -0.056 -0.046 0.059 -0.126 -0.024 -0.131 -0.03 -0.111 -0.184 -0.219 -0.091 -0.153 -0.174 -0.152 -0.069 -0.088 -0.066 -0.102 0.042 -0.036 0.038 -0.022 -0.035 -0.074 -0.099 -0.129 -0.046 -0.148 0 -0.279 -0.141 -0.392 -0.121 -0.543 0.021 -0.19 -0.031 -0.206 -0.08 -0.198 -0.105 -0.142 z M 117.574 -4.171 l -0.037 -0.001 -0.086 -0.021 -0.173 -0.106 -0.177 -0.038 -0.257 -0.003 -0.146 -0.015 -0.059 0.016 -0.05 0.001 -0.036 -0.021 -0.038 -0.011 -0.1 0.063 -0.047 -0.019 -0.047 -0.026 -0.084 -0.009 -0.102 0.007 -0.113 0.065 -0.125 -0.058 -0.035 0.001 -0.024 0.015 -0.054 0.08 -0.104 0.061 -0.051 0.111 -0.031 0.106 -0.028 0.037 -0.008 0.206 -0.016 0.099 0.026 0.131 -0.005 0.057 -0.046 0.084 -0.006 0.019 -0.025 0.134 0.009 0.035 -0.006 0.045 -0.039 0.094 -0.07 0.026 -0.074 0.015 -0.063 -0.032 -0.057 0.051 -0.072 0.08 -0.031 0.054 0 0.05 0.007 0.033 -0.015 0.034 -0.002 0.036 0.004 0.053 0.049 0.022 0.051 0.046 -0.002 0.044 -0.028 0.03 -0.064 0.047 -0.117 0.095 -0.133 0.081 -0.05 0.019 -0.018 0.038 -0.01 0.051 0.029 0.111 0.028 0.033 0.015 0.039 -0.018 0.046 -0.013 0.04 -0.049 0.025 -0.048 0.018 -0.017 0.032 -0.025 0.133 -0.029 0.069 -0.065 0.103 -0.022 0.047 -0.033 0.015 -0.125 -0.048 -0.112 0.029 -0.149 0.019 -0.126 -0.003 -0.098 0.021 -0.067 0.054 -0.075 0.069 -0.079 0.051 -0.059 0.025 -0.109 -0.072 -0.055 0.006 -0.099 -0.025 -0.233 -0.081 -0.058 -0.024 -0.062 -0.002 -0.018 -0.023 0.01 -0.039 -0.01 -0.051 -0.045 -0.019 -0.467 0.008 -0.135 0.044 -0.091 0.035 -0.065 0.041 -0.018 0.101 -0.039 0.095 -0.05 0.1 -0.155 0.03 -0.114 0.102 -0.039 0.012 -0.078 -0.015 -0.084 -0.008 -0.061 0.028 -0.063 -0.001 -0.196 -0.047 -0.185 -0.007 -0.105 0.024 -0.058 0.009 -0.323 0.139 -0.109 0.016 -0.044 -0.02 -0.062 -0.057 -0.084 -0.057 -0.2 -0.194 -0.074 -0.046 -0.049 -0.047 -0.047 -0.055 -0.066 -0.06 -0.06 -0.041 -0.082 -0.084 -0.082 -0.092 -0.018 -0.162 -0.065 -0.03 -0.022 -0.042 -0.01 -0.048 0.09 -0.131 0.065 0.139 0.025 0.031 0.145 0.093 0.12 0.047 0.129 0.019 0.132 0.004 0.052 -0.006 0.051 -0.019 0.05 0.02 0.276 0.152 0.107 0.027 0.113 -0.012 0.045 0.015 0.158 0.116 0.047 0.014 0.078 -0.009 -0.1 -0.053 -0.065 -0.038 -0.029 -0.071 0.018 -0.076 0.064 -0.05 0.044 -0.055 0.016 -0.164 0.028 -0.083 0.053 -0.079 0.017 -0.076 -0.059 -0.058 -0.013 -0.1 0.013 -0.082 0.034 -0.056 0.054 0.037 0.055 0.034 0.055 -0.003 0.038 -0.014 0.007 -0.043 -0.01 -0.074 0.003 -0.136 0.069 -0.109 0.111 -0.075 0.104 -0.036 0.391 -0.061 0.618 -0.156 0.183 -0.06 0.067 -0.031 0.057 -0.043 0.096 -0.138 0.18 -0.218 0.126 -0.179 0.266 -0.261 0.212 -0.242 0.029 -0.046 0.035 -0.132 0.003 -0.062 -0.006 -0.063 0.028 -0.029 0.041 -0.018 0.01 0 0.031 0.027 0.074 0.038 0.055 0.049 0.037 0.064 0.027 0.06 0.002 0.051 0.033 0.041 0.094 0.007 0.03 0.052 0.065 0.09 0.06 0.065 0.037 0.025 0.046 -0.014 0.071 -0.059 0.051 -0.072 0.034 -0.098 -0.027 -0.014 0.048 -0.074 0.009 -0.039 -0.022 -0.036 -0.028 -0.035 -0.011 -0.089 -0.019 -0.113 -0.013 -0.052 0.037 -0.037 0.08 -0.047 0.08 -0.054 0.082 -0.043 0.002 0.079 -0.002 0.13 0.025 0.109 0.055 0.192 0.064 0.026 0.076 0.017 0.044 -0.005 0.029 -0.013 0.008 -0.015 -0.047 -0.076 -0.013 -0.178 -0.039 -0.117 -0.059 -0.116 -0.028 -0.033 0.235 -0.033 0.053 -0.036 0.092 -0.08 0.035 -0.045 0.028 -0.101 -0.115 -0.06 -0.045 -0.076 -0.003 -0.083 0.137 -0.154 0.047 -0.037 0.021 0.055 0.061 0.014 0.056 0.002 0.056 -0.003 0.08 -0.077 0.041 -0.111 0.141 -0.157 0.05 -0.121 0.028 -0.126 0.356 -0.392 0.044 -0.061 0.212 -0.394 0.026 -0.013 0.057 0.038 0.017 0.125 -0.008 0.055 -0.034 0.081 -0.02 0.085 0.024 -0.002 0.101 -0.052 0.105 -0.138 0.059 -0.119 0.051 -0.052 0.101 0.029 0.023 0.021 -0.007 0.086 0.01 0.05 0.039 0.107 0.086 0.065 0.119 0.041 0.11 0.059 0.036 0.039 0.024 0.047 0.024 0.077 0.002 0.078 -0.08 0.076 0.034 0.123 -0.005 0.072 -0.027 0.061 -0.116 0.056 0.317 -0.056 0.078 -0.032 0.108 -0.081 0.058 0.07 0.054 0.121 -0.044 0.03 -0.137 0.045 -0.007 0.018 0.046 0.063 0.058 -0.006 0.113 -0.042 0.104 -0.066 0.051 0.001 0.053 0.014 0.103 0.043 0.058 0.035 0.049 0.044 0.032 0.092 0.119 0.034 0.244 0.13 0.045 0.011 0.047 0.003 0.128 -0.016 0.045 0.018 0.032 0.047 0.011 0.058 -0.004 0.062 -0.013 0.047 -0.03 0.039 -0.087 0.059 -0.22 0.078 -0.24 0.059 -0.121 -0.004 -0.17 -0.05 -0.062 0.006 -0.059 0.023 -0.075 0.16 0.139 0.16 0.238 0.167 0.033 0.042 -0.009 0.051 -0.038 0.03 -0.05 0.017 -0.134 0.027 -0.135 0.02 -0.111 0.028 -0.109 0.037 -0.113 -0.013 -0.155 -0.075 -0.045 -0.005 -0.047 0.038 -0.046 0.104 z M 104.222 -2.732 l -0.048 0.01 -0.026 -0.007 -0.018 -0.039 0.041 -0.09 0.015 -0.015 0.038 0.098 z M 100.289 -5.295 l -0.025 0.028 -0.073 -0.016 0.013 -0.164 0.042 -0.021 0.065 0.03 0.029 0.028 z M 99.848 -6.466 l 0.071 0.107 -0.035 0.048 -0.018 0.014 -0.043 -0.016 -0.041 0.041 -0.039 0.008 -0.039 -0.074 -0.048 -0.03 -0.01 -0.051 0.064 -0.009 0.039 0.018 0.072 -0.035 z M 117.142 -7.168 l -0.061 0.053 -0.021 -0.064 0.004 -0.082 0.083 -0.076 0.117 -0.015 0.017 0.061 -0.014 0.07 -0.027 0.036 z M 101.319 -2.988 l -0.05 0.018 -0.003 -0.026 0.009 -0.036 0.037 -0.035 0.017 0.02 z M 111.389 -2.415 l -0.031 0.013 -0.047 -0.035 -0.011 -0.304 0.033 -0.027 0.022 0.004 0.023 0.055 -0.002 0.133 0.004 0.117 z M 117.885 -4.186 l -0.139 0.019 -0.096 -0.002 0.018 -0.035 -0.005 -0.046 0.046 -0.012 0.053 0.01 z" vector-effect="non-scaling-stroke" fill="#000" fill-opacity="1" stroke="#FFF" stroke-width="0px" stroke-linejoin="round" stroke-linecap="round"/></svg>
