<svg xmlns="http://www.w3.org/2000/svg" xmlns:xlink="http://www.w3.org/1999/xlink" height="400" width="400" viewBox="32.67041015625 9.39501953125 3.22236328125001 7.73603515625001"><path d="M 34.719 12.111 l -0.035 0.008 -0.022 -0.018 0.005 -0.053 0.012 -0.039 0.035 -0.006 0.024 0.01 0.017 0.018 0 0.028 -0.01 0.029 z M 34.642 12.014 l -0.02 0.053 -0.041 -0.001 -0.039 -0.047 0.012 -0.036 0.037 -0.011 0.033 0.014 z M 33.202 14.013 l -0.054 -0.072 -0.044 0.018 -0.061 0.051 -0.033 0.014 -0.017 -0.002 -0.011 -0.013 -0.014 -0.033 -0.047 -0.093 -0.053 -0.067 -0.056 -0.026 -0.046 -0.031 0.02 -0.03 0.021 -0.021 -0.009 -0.022 -0.026 -0.032 -0.1 -0.046 -0.002 -0.02 0.088 -0.04 0.056 -0.048 0.038 -0.046 0.048 -0.1 0.039 -0.1 0.029 -0.032 0.01 -0.066 -0.007 -0.075 0.019 -0.095 0.01 -0.09 -0.029 -0.035 -0.025 -0.06 0.03 -0.103 0.046 -0.071 0.222 -0.074 0.154 -0.067 0.033 -0.029 0.053 -0.057 0.029 -0.056 -0.021 -0.017 -0.121 -0.001 -0.03 -0.021 -0.088 -0.196 0.049 -0.224 0.004 -0.088 -0.001 -0.109 -0.016 -0.08 -0.038 -0.033 -0.024 -0.043 0.006 -0.117 0.036 -0.014 0.077 -0.155 0.034 -0.091 -0.041 -0.073 -0.045 -0.104 -0.021 -0.066 -0.011 -0.022 0.031 -0.041 0.052 -0.04 0.058 -0.011 0.062 -0.019 0.194 -0.193 0.002 -0.037 -0.035 -0.065 -0.072 -0.097 -0.016 -0.04 -0.009 -0.117 -0.029 -0.035 -0.107 -0.079 -0.082 -0.083 0.026 -0.084 0.014 -0.092 -0.041 -0.05 -0.06 -0.052 -0.037 -0.077 -0.017 -0.057 -0.048 -0.023 -0.044 -0.001 -0.032 0.036 -0.035 -0.003 -0.042 -0.012 -0.014 -0.049 -0.002 -0.053 -0.029 -0.036 -0.028 -0.05 -0.003 -0.027 0.017 -0.008 0.037 -0.005 0.156 0.101 0.095 0.005 0.106 0.019 0.09 0.089 0.047 0.012 0.06 -0.012 0.17 -0.009 0.069 0.013 0.088 0.052 0.035 0.007 0.055 0.002 0.01 -0.014 -0.038 0.054 -0.011 0.038 0.002 0.051 0.012 0.041 0.023 0.031 0.043 0.15 0.031 0.074 0.041 0.059 0.098 0.099 0.048 0.063 0.045 0.081 0.012 0.047 -0.022 0.014 -0.01 0.023 0.002 0.032 -0.011 0.027 -0.023 0.022 -0.005 0.023 0.013 0.024 0.032 0.46 0.01 0.026 -0.004 0.031 -0.017 0.037 0.007 0.06 0.031 0.084 0.027 0.114 0.033 0.228 -0.005 0.026 -0.096 0.109 -0.03 0.052 0.002 0.04 -0.03 0.045 -0.063 0.051 -0.041 0.072 -0.027 0.16 0.005 0.041 0.037 0.103 0.033 0.032 0.043 0.008 0.03 0.032 0.017 0.056 -0.001 0.162 0.018 0.042 0.022 0.029 0.026 0.017 0.01 0.026 -0.006 0.035 0.009 0.034 0.024 0.032 0.02 0.065 0.01 0.023 0.014 0.214 -0.006 0.107 -0.02 0.043 -0.006 0.038 0.008 0.033 0.089 0.15 0.048 0.042 0.04 -0.004 0.049 0.032 0.059 0.069 0.016 0.082 -0.026 0.095 -0.025 0.062 -0.024 0.03 -0.008 0.046 0.008 0.063 0.021 0.058 0.033 0.053 0.037 0.036 0.041 0.019 0.023 0.022 0.005 0.025 0.023 0.006 0.04 -0.013 0.05 -0.038 0.005 -0.02 -0.008 -0.019 0.008 -0.028 0.025 -0.037 0.008 -0.038 -0.009 -0.039 0.008 -0.021 0.025 -0.002 0.024 0.009 0.024 0.021 0.012 0.029 0.005 0.064 0.011 0.014 0.055 0.009 0.034 0.019 0.082 0.112 0.063 0.064 0.043 0.049 0.021 0.001 0.016 -0.012 0.01 -0.026 -0.024 -0.088 -0.082 -0.189 0.002 -0.024 -0.083 -0.239 -0.041 -0.082 -0.026 -0.013 -0.142 -0.013 -0.021 -0.016 -0.009 -0.086 0.002 -0.093 0.046 0.029 0.107 0.092 0.234 0.253 0.128 0.162 0.113 0.142 0.202 0.264 0.157 0.205 0.02 0.193 0.026 0.028 -0.053 0.143 -0.035 0.231 0.025 0.153 -0.01 0.261 -0.029 0.278 -0.036 0.1 -0.046 0.037 -0.11 0.03 -0.241 0.035 -0.036 0.033 -0.031 0.054 -0.049 0.128 -0.058 0.129 -0.018 0.055 0.011 0.013 0.051 0.066 0.051 0.169 0.009 0.289 -0.018 0.021 -0.071 0.013 -0.077 -0.004 -0.032 -0.016 -0.028 -0.032 -0.021 -0.062 0.05 -0.043 0.018 -0.075 -0.032 -0.065 -0.065 -0.014 -0.082 -0.059 -0.175 -0.193 -0.146 -0.136 -0.085 -0.112 -0.087 -0.045 -0.025 -0.028 -0.021 -0.048 0 -0.068 0.008 -0.051 -0.027 -0.057 -0.088 -0.088 -0.04 -0.049 -0.002 -0.058 0.037 -0.056 0.075 -0.068 0.057 -0.138 0.02 -0.09 0.106 -0.18 0.015 -0.156 0.002 -0.125 -0.006 -0.094 -0.027 -0.192 -0.019 -0.133 -0.13 -0.173 -0.042 -0.016 -0.124 0.015 -0.107 0.026 -0.052 0.036 -0.08 0.002 -0.208 0.03 -0.065 0.013 -0.038 0.031 -0.022 0.007 -0.131 -0.134 -0.115 -0.145 -0.146 -0.246 z M 34.953 11.548 l 0.006 0.03 0 0 0 -0.001 z" vector-effect="non-scaling-stroke" fill="#000" fill-opacity="1" stroke="#FFF" stroke-width="0px" stroke-linejoin="round" stroke-linecap="round"/></svg>
