<svg xmlns="http://www.w3.org/2000/svg" xmlns:xlink="http://www.w3.org/1999/xlink" height="400" width="400" viewBox="-12.280615234375 -24.99560546875 16.515283203125 14.85234375"><path d="M -11.389 -12.404 l 0.007 -0.075 -0.066 -0.053 -0.002 -0.026 0.006 -0.07 0.03 -0.148 -0.003 -0.056 0.027 -0.11 -0.044 -0.05 -0.01 -0.037 -0.049 -0.059 -0.056 -0.083 -0.013 -0.067 -0.02 -0.053 -0.054 -0.08 -0.04 -0.013 -0.084 -0.012 -0.014 0.027 -0.031 0.04 -0.028 0.011 -0.046 -0.049 -0.017 -0.042 0.001 -0.038 -0.063 -0.066 -0.097 -0.122 0.01 -0.101 0.06 -0.054 0.018 -0.041 0.005 -0.046 -0.027 -0.055 -0.032 -0.044 0.009 -0.097 -0.008 -0.135 -0.049 -0.068 -0.045 -0.049 -0.062 -0.053 -0.053 -0.082 0.022 -0.113 0.02 -0.077 -0.094 -0.161 0.176 0.064 0.023 -0.021 0.06 -0.039 0.081 -0.082 0.068 -0.108 0.031 -0.134 0.013 -0.115 0.03 -0.098 0.038 -0.083 0.084 -0.087 0.079 -0.061 0.094 -0.064 0.047 0.011 0.09 0.089 0.196 0.178 0.162 0.136 0.059 0.072 0.053 0.001 0.081 -0.131 0.083 -0.113 0.035 -0.028 0.11 -0.012 0.093 -0.005 0.081 0.002 0.15 0.022 0.068 0.02 0.064 0.012 0.188 0.01 0.186 -0.028 0.177 -0.036 0.131 -0.021 0.007 -0.053 -0.007 -0.063 0.021 -0.048 0.041 -0.045 0.035 -0.01 0.015 0.152 0.042 0.023 0.117 0.007 0.19 0 0.204 0 0.204 0 0.204 0 0.204 0 0.204 0 0.204 0 0.204 0 0.204 0 0.204 0 0.204 0 0.204 0 0.204 0 0.204 0 0.204 0 0.204 0 0.204 0 0.211 0 0.057 -0.293 0.052 -0.269 0.044 -0.225 -0.15 -0.159 -0.119 -0.127 -0.028 -0.241 -0.029 -0.249 -0.028 -0.249 -0.029 -0.249 -0.028 -0.249 -0.028 -0.249 -0.028 -0.249 -0.028 -0.249 -0.029 -0.249 -0.028 -0.249 -0.029 -0.249 -0.028 -0.249 -0.028 -0.249 -0.028 -0.249 -0.028 -0.249 -0.029 -0.249 -0.028 -0.249 -0.029 -0.249 -0.028 -0.249 -0.028 -0.249 -0.028 -0.249 -0.028 -0.249 -0.029 -0.249 -0.028 -0.249 -0.029 -0.249 -0.028 -0.249 -0.028 -0.249 -0.028 -0.249 -0.028 -0.249 -0.029 -0.249 -0.028 -0.249 -0.029 -0.249 -0.028 -0.249 -0.027 -0.228 0.307 0 0.327 0 0.319 0 0.468 0 0.35 0 0.306 0.191 0.277 0.181 0.328 0.214 0.327 0.214 0.327 0.214 0.327 0.214 0.327 0.214 0.328 0.214 0.327 0.214 0.327 0.214 0.327 0.214 0.327 0.214 0.327 0.214 0.327 0.214 0.328 0.214 0.327 0.214 0.327 0.214 0.328 0.214 0.146 0.096 0.014 0.04 0.014 0.081 -0.009 0.091 0.002 0.074 0.043 0.05 0.081 0.054 0.32 0.158 0.025 0.031 0.011 0.066 0.038 0.08 0.068 0.047 0.079 0.035 0.096 0.024 0.291 0.025 0.062 0.038 0.125 0.146 0.068 0.029 0.194 0.042 0.14 0.023 0.058 0.013 0.127 0.039 0.138 0.066 0.073 0.06 0 0.019 -0.001 0.052 -0.001 0.158 0.025 0.087 0.029 0.063 -0.001 0.038 -0.035 0.027 -0.027 0.033 -0.015 0.044 -0.039 0.056 -0.032 0.062 0.014 0.047 0.054 0.03 0.082 0.06 0.067 0.025 0.033 0.002 0.044 -0.002 0.038 -0.008 0.245 -0.045 0.227 -0.042 0.317 -0.059 0.001 0.175 0.001 0.264 0.001 0.294 0.001 0.271 0.001 0.309 0.001 0.248 0.001 0.294 0.001 0.292 -0.032 0.034 -0.012 0.165 -0.009 0.216 -0.061 0.224 -0.106 0.165 -0.039 0.157 -0.029 0.09 -0.04 0.049 -0.009 0.059 -0.021 0.083 -0.034 0.054 -0.026 0.028 -0.107 0.032 -0.189 0.159 -0.016 0.127 -0.215 -0.035 -0.229 -0.036 -0.031 0.002 -0.019 0.017 -0.009 0.067 -0.311 0.011 -0.269 0.009 -0.333 0.011 -0.229 0.008 -0.29 0.015 -0.269 0.014 -0.179 0.146 -0.161 0.139 -0.013 0.005 -0.229 0.027 -0.286 -0.024 -0.147 -0.001 -0.058 0.017 -0.011 0.052 -0.21 -0.073 -0.243 -0.075 -0.17 0.047 -0.027 -0.016 -0.022 -0.031 -0.082 -0.018 -0.13 0.008 -0.094 0.022 -0.148 0.11 -0.111 0.096 -0.03 0.022 -0.155 0.058 -0.289 0.135 -0.164 0.099 -0.038 0.018 -0.073 0.022 -0.112 0.005 -0.093 0.025 -0.084 0.262 -0.056 0.026 -0.344 -0.106 -0.07 0.016 -0.06 0.031 -0.192 0.154 -0.095 0.123 -0.052 0.164 0.007 0.05 0.001 0.057 -0.034 0.031 -0.046 0.011 -0.041 -0.002 -0.16 -0.034 -0.05 0.015 -0.022 0.081 0.003 0.177 -0.035 0.12 -0.095 0.037 -0.073 0.047 -0.058 0.014 -0.048 -0.011 -0.278 -0.179 -0.094 -0.029 -0.104 0.02 -0.1 0.076 -0.045 0.05 -0.063 0.059 -0.07 0.078 0.018 0.067 0.05 0.077 0.035 0.096 -0.002 0.086 -0.254 0.121 0.021 0.042 0.038 0.049 0 0.089 -0.007 0.155 -0.051 0.056 -0.066 0.055 -0.041 0.071 -0.04 0.035 -0.072 0.044 -0.099 0.044 -0.171 0.039 -0.137 0.026 -0.052 0.025 -0.073 0.052 -0.058 0.062 -0.014 0.067 0.011 0.077 0.02 0.063 0.026 0.043 0.015 0.054 -0.021 0.147 -0.05 0.17 -0.048 0.076 -0.077 0.042 -0.066 0.046 0.022 0.111 0.011 0.16 -0.019 0.127 -0.003 0.079 -0.028 0.082 -0.017 0.057 -0.033 -0.014 -0.138 0.007 -0.15 0.044 -0.052 0.035 -0.011 0.048 -0.033 0.032 -0.048 0.036 -0.046 0.044 -0.083 -0.007 -0.08 -0.03 -0.042 -0.029 -0.003 -0.018 0.026 -0.043 0.022 -0.047 0.002 -0.031 -0.027 -0.076 -0.022 -0.082 0.009 -0.039 -0.02 -0.12 -0.011 -0.006 -0.104 0.031 -0.039 0.008 -0.022 0.013 -0.007 0.023 0.025 0.076 -0.016 0.013 -0.059 -0.002 -0.082 -0.025 -0.09 -0.07 -0.022 0.023 -0.01 0.056 -0.006 0.066 0.023 0.12 -0.024 0.043 -0.06 -0.008 -0.08 0 -0.07 0.012 -0.047 0.003 -0.029 0.043 -0.012 0.048 0.028 0.053 -0.004 0.023 -0.021 0.021 -0.028 0.012 -0.023 -0.002 -0.065 -0.059 -0.077 -0.022 -0.181 -0.034 -0.022 -0.081 -0.03 -0.001 -0.042 -0.043 -0.041 -0.056 -0.035 0.003 -0.029 0.016 -0.099 -0.006 -0.088 0.085 -0.065 0.106 -0.07 0.051 -0.077 0.022 -0.03 0.001 0.016 -0.067 -0.011 -0.049 -0.022 -0.043 -0.224 -0.116 -0.035 -0.048 -0.035 -0.132 -0.023 -0.132 0.002 -0.077 0.015 -0.069 -0.006 -0.054 -0.025 -0.041 -0.067 -0.039 -0.07 -0.018 -0.089 0.052 -0.043 0.01 -0.04 -0.004 -0.021 -0.019 0.003 -0.026 0.097 -0.141 0.047 -0.059 0.057 -0.045 0.038 -0.024 0.025 -0.035 0.002 -0.027 -0.009 -0.02 -0.063 -0.026 -0.098 -0.066 -0.052 -0.007 -0.044 -0.03 -0.046 -0.103 -0.022 -0.02 -0.047 -0.011 -0.042 -0.025 0.002 -0.134 0.002 -0.115 -0.096 -0.186 -0.037 -0.117 -0.048 -0.12 -0.044 -0.056 -0.077 -0.048 -0.095 -0.033 -0.084 -0.007 -0.065 0.011 -0.03 0.015 0.002 0.022 0.053 0.076 0.009 0.042 -0.009 0.041 -0.018 0.027 -0.047 0.003 -0.082 0.024 -0.101 0.046 -0.071 0.039 -0.056 0.101 -0.039 0.013 -0.067 -0.013 -0.19 -0.074 -0.156 -0.061 -0.108 -0.035 -0.065 0.022 -0.033 0.011 -0.093 0.041 -0.124 0.148 -0.029 0.049 -0.025 0.016 -0.034 0.026 -0.032 0.001 -0.026 -0.018 -0.008 -0.011 -0.063 -0.107 -0.07 -0.118 -0.057 -0.053 -0.071 -0.002 -0.061 0.037 -0.063 0.076 -0.08 0.07 -0.051 0.021 -0.044 -0.011 -0.109 -0.089 -0.078 -0.063 -0.01 -0.032 0.028 -0.049 0.027 -0.072 0.029 -0.058 z" vector-effect="non-scaling-stroke" fill="#000" fill-opacity="1" stroke="#FFF" stroke-width="0px" stroke-linejoin="round" stroke-linecap="round"/></svg>
