<svg xmlns="http://www.w3.org/2000/svg" xmlns:xlink="http://www.w3.org/1999/xlink" height="400" width="400" viewBox="166.8447265625 -11.16865234375 4.912109375 5.36884765625"><path d="M 169.635 -5.83 l -0.02 0.03 -0.025 -0.002 0.022 -0.023 0.015 -0.031 0.024 -0.089 0.049 -0.032 0.034 -0.037 -0.008 0.038 -0.054 0.04 z M 168.83 -7.309 l -0.015 0.015 -0.096 -0.009 -0.044 -0.019 0.004 -0.014 0.076 0.014 z M 171.577 -7.048 l 0.037 0.022 0.074 -0.002 0.068 0.055 -0.026 -0.003 -0.037 -0.024 -0.034 -0.01 -0.045 0.003 -0.021 -0.009 z M 171.102 -7.138 l 0.125 0.051 0.167 -0.024 -0.027 0.015 -0.062 0.014 -0.041 0.012 -0.028 0 -0.033 -0.005 -0.107 -0.036 -0.06 -0.047 0.015 -0.016 z M 166.89 -11.153 l -0.026 0.007 -0.02 -0.007 0.014 -0.013 0.029 -0.002 0.011 0.004 z" vector-effect="non-scaling-stroke" fill="#000" fill-opacity="1" stroke="#FFF" stroke-width="0px" stroke-linejoin="round" stroke-linecap="round"/></svg>
