<svg xmlns="http://www.w3.org/2000/svg" xmlns:xlink="http://www.w3.org/1999/xlink" height="400" width="400" viewBox="-17.06396484375 -27.2859375 12.241357421875 12.540576171875"><path d="M -16.373 -19.706 l -0.064 0.097 -0.028 -0.037 -0.011 -0.064 0.057 -0.092 0.027 -0.047 0.05 -0.017 z M -12.281 -14.809 l -0.022 -0.008 -0.106 -0.072 -0.051 -0.086 -0.084 -0.064 -0.116 -0.043 -0.076 -0.049 -0.035 -0.055 -0.043 -0.037 -0.045 -0.019 -0.004 -0.02 0.011 -0.027 -0.011 -0.051 -0.068 -0.113 -0.063 -0.052 -0.054 0.008 -0.031 -0.014 -0.019 -0.025 -0.007 -0.037 -0.037 -0.032 -0.064 -0.014 -0.052 -0.083 -0.039 -0.153 -0.051 -0.12 -0.062 -0.086 -0.044 -0.032 -0.033 -0.006 -0.011 -0.013 -0.009 -0.025 -0.049 -0.009 -0.068 0.026 -0.061 -0.009 -0.03 -0.042 -0.042 -0.004 -0.053 0.034 -0.059 -0.01 -0.064 -0.055 -0.036 -0.054 -0.007 -0.054 -0.111 -0.108 -0.214 -0.161 -0.234 -0.076 -0.253 0.01 -0.142 -0.008 -0.031 -0.025 -0.031 0.002 -0.031 0.029 -0.033 0.006 -0.035 -0.016 -0.022 0.012 -0.009 0.041 -0.089 0.021 -0.169 0.001 -0.137 0.025 -0.104 0.05 -0.147 0.021 -0.191 -0.007 -0.115 -0.018 -0.039 -0.03 -0.055 -0.007 -0.071 0.016 -0.063 0.08 -0.056 0.144 -0.046 0.082 -0.037 0.02 -0.039 0.107 -0.022 0.18 -0.033 0.079 0 -0.448 0.054 -0.167 0.018 -0.147 0.117 -0.325 0.139 -0.266 0.129 -0.353 0.049 -0.342 -0.016 -0.335 -0.038 -0.298 -0.065 -0.197 -0.063 -0.285 -0.093 -0.15 -0.17 -0.131 -0.038 -0.077 0.04 -0.029 0.104 -0.02 0.066 -0.102 -0.14 0.04 0.161 -0.314 0.05 -0.214 -0.008 -0.14 0.031 -0.087 -0.123 -0.188 -0.096 -0.236 -0.049 -0.037 -0.051 -0.02 -0.004 0.056 -0.028 0.05 -0.06 -0.03 -0.106 -0.172 -0.148 -0.28 -0.052 -0.029 -0.043 0.038 -0.027 0.037 -0.05 0.234 -0.016 -0.093 0.022 -0.109 0.036 -0.134 0.041 -0.187 0.128 0 0.229 0 0.229 0 0.229 0 0.229 0 0.229 0 0.229 0 0.229 0 0.229 0 0.229 0 0.229 0 0.229 0 0.229 0 0.229 0 0.229 0 0.229 0 0.229 0 0.151 0 -0.009 -0.133 -0.007 -0.105 -0.01 -0.142 -0.009 -0.141 -0.009 -0.141 -0.009 -0.132 -0.009 -0.132 -0.008 -0.123 -0.008 -0.113 -0.013 -0.065 -0.049 -0.129 -0.011 -0.064 0.013 -0.067 0.032 -0.064 0.089 -0.116 0.135 -0.089 0.156 -0.103 0.119 -0.079 0.061 -0.019 0.186 -0.027 0.147 -0.059 0.143 -0.058 0.06 -0.032 0.007 -0.109 0 -0.121 0 -0.136 0 -0.136 0 -0.136 0 -0.136 0 -0.136 0 -0.136 0 -0.136 0 -0.136 0 -0.136 0 -0.136 0 -0.136 0 -0.136 0 -0.136 0 -0.136 0 -0.136 0 -0.136 0 -0.119 0.15 0 0.186 0 0.186 0 0.186 0 0.186 0 0.186 0 0.186 0 0.186 0 0.186 0 0.186 0 0.186 0 0.186 0 0.186 0 0.186 0 0.186 0 0.186 0 0.186 0 0.203 0 0 -0.114 0 -0.164 0 -0.225 0 -0.225 0 -0.198 0 -0.198 0 -0.167 0.188 0.111 0.188 0.111 0.188 0.111 0.188 0.111 0.188 0.111 0.188 0.111 0.188 0.111 0.188 0.111 0.188 0.111 0.188 0.111 0.188 0.111 0.188 0.111 0.188 0.111 0.188 0.111 0.188 0.111 0.188 0.111 0.158 0.093 0.242 0.149 0.225 0.139 0.227 0.14 -0.35 0 -0.468 0 -0.319 0 -0.327 0 -0.307 0 0.027 0.228 0.028 0.249 0.029 0.249 0.028 0.249 0.029 0.249 0.028 0.249 0.028 0.249 0.028 0.249 0.028 0.249 0.029 0.249 0.028 0.249 0.029 0.249 0.028 0.249 0.028 0.249 0.028 0.249 0.028 0.249 0.029 0.249 0.028 0.249 0.029 0.249 0.028 0.249 0.028 0.249 0.028 0.249 0.028 0.249 0.029 0.249 0.028 0.249 0.029 0.249 0.028 0.249 0.028 0.249 0.028 0.249 0.028 0.249 0.029 0.249 0.028 0.249 0.029 0.249 0.028 0.241 0.119 0.127 0.15 0.159 -0.044 0.225 -0.052 0.269 -0.057 0.293 -0.211 0 -0.204 0 -0.204 0 -0.204 0 -0.204 0 -0.204 0 -0.204 0 -0.204 0 -0.204 0 -0.204 0 -0.204 0 -0.204 0 -0.204 0 -0.204 0 -0.204 0 -0.204 0 -0.204 0 -0.19 0 -0.117 -0.007 -0.042 -0.023 -0.015 -0.152 -0.035 0.01 -0.041 0.045 -0.021 0.048 0.007 0.063 -0.007 0.053 -0.131 0.021 -0.177 0.036 -0.186 0.028 -0.188 -0.01 -0.064 -0.012 -0.068 -0.02 -0.15 -0.022 -0.081 -0.002 -0.093 0.005 -0.11 0.012 -0.035 0.028 -0.083 0.113 -0.081 0.131 -0.053 -0.001 -0.059 -0.072 -0.162 -0.136 -0.196 -0.178 -0.09 -0.089 -0.047 -0.011 -0.094 0.064 -0.079 0.061 -0.084 0.087 -0.038 0.083 -0.03 0.098 -0.013 0.115 -0.031 0.134 -0.068 0.108 -0.081 0.082 -0.06 0.039 -0.023 0.021 z" vector-effect="non-scaling-stroke" fill="#000" fill-opacity="1" stroke="#FFF" stroke-width="0px" stroke-linejoin="round" stroke-linecap="round"/></svg>
