<svg xmlns="http://www.w3.org/2000/svg" xmlns:xlink="http://www.w3.org/1999/xlink" height="400" width="400" viewBox="-118.4013671875 -32.71533203125 31.705078125 18.169921875"><path d="M -117.128 -32.533 l 0.286 -0.021 0.286 -0.021 0.286 -0.021 0.286 -0.021 0.286 -0.021 0.286 -0.021 0.286 -0.021 0.286 -0.021 0.114 -0.011 -0.063 0.151 -0.048 0.056 0.474 0.148 0.474 0.148 0.474 0.148 0.474 0.148 0.474 0.148 0.474 0.148 0.474 0.148 0.474 0.148 0.353 -0.001 0.353 -0.001 0.353 -0.001 0.353 -0.001 0.353 -0.001 0.353 -0.001 0.353 -0.001 0.353 -0.001 0.001 -0.112 0.001 -0.112 0.001 -0.112 0.001 -0.112 0.22 0.001 0.22 0.001 0.22 0.001 0.22 0.001 0.22 0.001 0.22 0.001 0.22 0.001 0.22 0.001 0.008 0.002 0.009 0.004 0.089 0.085 0.091 0.134 0.108 0.094 0.124 0.053 0.211 0.157 0.299 0.26 0.238 0.173 0.178 0.087 0.119 0.075 0.061 0.063 0.082 0.136 0.155 0.313 0 0.144 0.059 0.136 0.118 0.177 0.103 0.104 0.088 0.031 0.097 0.063 0.105 0.094 0.121 0.063 0.137 0.032 0.189 0.084 0.241 0.136 0.165 0.07 0.089 0.003 0.078 -0.044 0.067 -0.09 0.066 -0.058 0.065 -0.026 0.026 -0.042 -0.012 -0.057 0.044 -0.129 0.1 -0.2 0.119 -0.108 0.139 -0.017 0.091 -0.038 0.043 -0.058 0.074 -0.006 0.106 0.046 0.172 0.03 0.239 0.013 0.141 -0.004 0.043 -0.022 0.022 0.001 0.002 0.025 0.035 0.01 0.069 -0.004 0.06 0.034 0.077 0.108 0.265 0.174 0 0 0.022 0.06 0.092 0.086 0.17 0.132 0.096 0.114 0.022 0.096 0.087 0.151 0.151 0.207 0.067 0.112 -0.016 0.016 0.012 0.058 0.04 0.1 0.075 0.085 0.109 0.07 0.111 0.125 0.112 0.181 0.135 0.137 0.159 0.094 0.09 0.088 0.021 0.081 -0.002 0.069 -0.024 0.058 0.01 0.055 0.045 0.052 0.015 0.064 -0.017 0.088 0.001 0.025 0 0 0.013 0.02 0.141 0.152 0.073 0.123 0.058 0.196 0 0.002 0.064 0.117 0.092 0.048 0.142 0.018 0.108 0.041 0.074 0.064 0.093 0.039 0.112 0.013 0.108 0.042 0.103 0.071 0.192 0.047 0.281 0.022 0.214 0.058 0.147 0.093 0.065 0.019 0.017 0.001 0.008 -0.014 0.011 -0.026 0.057 -0.03 0.136 -0.02 -0.018 0.207 -0.06 0.169 -0.199 0.352 -0.083 0.219 -0.161 0.625 -0.049 0.409 -0.012 0.193 -0.014 0.027 0.015 0.028 -0.038 0.426 0.021 0.364 -0.013 0.056 -0.058 0.11 -0.041 0.152 0.016 0.067 -0.001 0.047 0.06 0.231 0.019 0.173 0.179 0.297 0.1 0.104 0.124 0.09 0.046 0.051 -0.022 0.126 -0.051 0.064 -0.022 0.101 -0.025 -0.084 0.01 -0.109 0.04 -0.058 0.001 -0.043 -0.073 -0.046 -0.134 -0.15 -0.163 -0.265 0.116 0.423 0.04 0.068 0.031 0.028 0.052 0.03 0.013 0.046 0 0.034 0.143 0.294 0.162 0.304 0.009 0.083 0.065 0.102 0.413 0.427 0.253 0.319 0.088 0.303 0.053 0.094 0.026 0.129 0.166 0.145 0.051 0.093 0.089 0.052 0.072 0.157 0.135 0.092 -0.032 0.002 -0.118 -0.046 0.008 0.031 0.099 0.065 0.194 0.064 0.048 0 -0.077 -0.033 -0.065 -0.045 0.023 -0.007 0.136 0.056 0.38 0.018 0.167 0.13 0.217 0.056 0.117 0.166 0.135 0.174 0.086 0.008 0.067 0.001 0.203 -0.029 0.316 -0.109 0.109 -0.053 0.212 -0.073 0.324 -0.013 0.101 0.02 0.243 -0.045 0.116 -0.055 0.04 -0.05 0.019 -0.037 0.225 -0.053 0.044 -0.01 0.228 -0.01 0.11 -0.02 0.129 -0.011 0.093 0.078 0 0.038 -0.062 0.036 0.029 0.035 0.111 0.058 0.203 0.023 0.066 -0.009 0.094 -0.085 0.165 -0.083 -0.004 -0.096 -0.03 -0.053 -0.048 -0.003 -0.011 -0.03 0.034 -0.071 -0.009 -0.024 -0.102 0.068 -0.024 0 0.011 -0.032 0.021 -0.025 0.301 -0.148 0.077 -0.061 0.104 -0.053 0.216 -0.201 0.046 -0.378 0.043 -0.066 0.143 -0.116 0.015 -0.035 0.009 -0.079 -0.004 -0.198 0.008 -0.156 -0.006 -0.176 0.026 -0.157 0.023 -0.044 0.082 -0.252 0.17 -0.111 0.295 -0.132 0.068 -0.022 0.941 -0.14 0.132 -0.034 0.162 -0.091 0.118 -0.031 0.216 0.002 0.066 -0.012 0.013 -0.013 0 -0.012 0.04 -0.012 0.125 0.012 0.233 0.055 0.085 0.014 0.208 0.063 0.23 0.025 0.033 -0.011 0.03 -0.019 0.023 -0.037 -0.024 -0.032 -0.022 0.002 -0.039 0.017 -0.046 0.002 -0.091 -0.027 0.018 -0.022 0.093 0.002 0.059 -0.011 0.088 -0.039 0.094 0.029 0.123 0.129 0.088 0.041 0.007 0.187 0.013 0.034 0.032 0.05 -0.044 0.145 -0.049 0.12 -0.062 0.099 -0.133 0.155 -0.162 0.124 -0.2 0.276 -0.046 0.129 0.001 0.104 0.034 0.1 -0.01 0.037 -0.024 0.037 -0.041 -0.003 -0.079 0.048 -0.102 0.142 -0.002 0.043 0.045 0.04 0.058 -0.019 0.076 -0.002 0.042 -0.012 0.045 0.003 -0.01 0.082 -0.048 0.058 -0.03 0.018 -0.054 0.01 -0.061 0.033 -0.031 0.03 0.003 0.094 0.034 0.007 0.071 -0.07 0.041 0.003 0.008 0.03 -0.092 0.241 -0.059 0.248 -0.081 0.144 -0.028 0.209 -0.042 0.089 -0.049 0.088 -0.029 -0.005 -0.078 -0.167 -0.079 -0.043 -0.017 -0.041 0.045 -0.202 -0.021 -0.112 -0.042 0.004 -0.053 0.061 -0.07 0.053 0.001 0.077 -0.08 0.128 -0.02 0.042 -0.077 -0.01 -0.089 0.006 -0.062 0.031 -0.063 0.155 -0.157 0.219 -0.063 0.106 -0.051 0.037 -0.04 0.014 -0.045 -0.025 -0.108 -0.06 -0.083 0.029 -0.029 0.069 0.001 0.087 -0.21 0 -0.357 0 -0.455 0 -0.438 0 -0.367 0 -0.001 0.196 -0.001 0.173 -0.001 0.195 -0.203 -0.002 -0.214 -0.002 0.017 0.019 0.073 0.037 0.095 0.088 0.112 0.136 0.136 0.108 0.16 0.081 0.105 0.079 0.051 0.077 0.026 0.066 0 0.054 0.058 0.043 0.105 0.028 0.054 0.049 0 0.04 -0.033 0.09 -0.01 0.099 0.013 0.09 -0.075 0.002 -0.181 0 -0.276 0 -0.254 0 -0.2 0 -0.303 0 -0.083 0.138 -0.138 0.229 -0.125 0.208 -0.105 0.175 -0.017 0.046 0 0.037 0.13 0.163 -0.024 0.047 -0.046 0.025 -0.014 0.038 0.003 0.062 -0.031 0.083 0.01 0.057 0.017 0.07 -0.027 0.061 -0.022 0.059 -0.026 0.026 -0.029 -0.022 -0.266 -0.272 -0.278 -0.299 -0.109 -0.098 -0.106 -0.074 -0.142 -0.138 -0.374 -0.302 -0.193 -0.138 -0.182 -0.165 -0.163 -0.092 -0.161 -0.06 -0.071 -0.034 -0.063 -0.045 -0.035 -0.003 -0.017 0.061 0.056 0.031 0.067 0.026 0.053 0.002 0.056 0.022 0.165 0.084 0.027 0.043 -0.469 -0.168 -0.191 -0.015 -0.021 -0.026 0.095 -0.088 -0.03 -0.032 -0.034 -0.004 -0.102 0.061 -0.038 0.004 -0.007 -0.04 0.005 -0.038 -0.066 -0.055 -0.042 0.002 -0.034 0.038 -0.089 0.073 0.003 0.029 0.175 0.031 0.06 0.017 -0.014 0.019 -0.15 0 -0.185 0.033 -0.33 0.202 -0.307 0.087 -0.442 0.195 -0.195 0.01 -0.102 0.031 -0.297 -0.075 -0.377 -0.183 -0.57 -0.058 -0.384 -0.239 -0.381 -0.099 -0.242 -0.23 -0.146 -0.01 -0.094 -0.037 -0.346 -0.083 -0.343 -0.055 -0.334 -0.201 -0.219 -0.064 -0.189 -0.08 -0.416 -0.136 -0.154 -0.076 -0.146 -0.117 -0.238 -0.121 -0.102 -0.101 -0.113 -0.036 -0.162 -0.19 -0.085 -0.08 -0.072 -0.038 -0.077 -0.013 -0.221 0.015 -0.33 -0.084 -0.153 -0.021 -0.319 -0.124 -0.423 -0.139 -0.139 -0.159 -0.119 -0.149 -0.214 -0.196 -0.133 -0.083 -0.231 -0.099 -0.128 -0.08 -0.198 -0.062 -0.335 -0.156 -0.107 -0.134 -0.062 -0.119 -0.179 -0.144 -0.196 -0.27 -0.05 -0.099 -0.038 -0.152 -0.046 -0.088 -0.054 -0.069 0.027 -0.05 0.1 -0.062 0.166 -0.014 0.117 -0.067 0.015 -0.055 -0.008 -0.034 -0.075 -0.084 -0.093 -0.022 -0.072 -0.001 -0.018 -0.032 0.054 -0.035 0.062 -0.082 0.092 -0.1 0.065 -0.093 0.012 -0.131 -0.008 -0.131 0.025 -0.11 -0.223 -0.127 -0.026 -0.054 -0.07 -0.146 -0.122 -0.17 0.004 -0.339 -0.146 -0.301 -0.152 -0.15 -0.078 -0.052 -0.213 -0.232 -0.168 -0.135 -0.164 -0.254 -0.162 -0.161 -0.207 -0.271 -0.149 -0.135 -0.68 -0.456 0.038 0 0.199 0.112 0.034 -0.009 0.005 -0.055 -0.023 -0.065 -0.037 -0.016 -0.053 0.015 -0.072 -0.013 -0.036 -0.021 -0.107 -0.014 -0.134 -0.076 -0.058 -0.079 -0.006 -0.09 -0.193 -0.191 -0.073 -0.107 0.037 0.008 0.051 0.043 0.052 0.012 0.06 0 0.044 -0.017 -0.016 -0.032 -0.041 -0.026 -0.281 -0.101 -0.093 -0.071 -0.23 -0.118 -0.055 -0.041 -0.036 -0.114 -0.056 -0.005 -0.05 0.032 -0.136 0.031 -0.035 -0.036 -0.005 -0.035 0.096 -0.037 0.088 -0.108 -0.002 -0.037 -0.049 0.043 -0.073 0.048 -0.076 0.027 -0.112 0.023 -0.057 -0.016 -0.05 -0.024 -0.081 -0.094 -0.041 -0.305 0.071 -0.106 0.083 -0.105 0.071 -0.062 0.041 0.047 0.042 0.006 -0.03 -0.053 -0.07 -0.05 -0.025 -0.049 -0.003 -0.045 -0.033 -0.084 -0.207 -0.176 -0.193 0.014 -0.079 -0.006 -0.074 -0.067 -0.063 -0.113 -0.031 -0.095 -0.004 -0.05 -0.018 -0.051 -0.333 -0.083 -0.1 -0.071 -0.1 -0.089 -0.042 -0.073 -0.041 -0.055 -0.032 -0.094 -0.023 -0.11 0.037 -0.142 0.048 -0.069 -0.229 -0.051 -0.09 -0.002 -0.072 0.029 -0.065 -0.037 -0.135 -0.041 -0.161 -0.148 -0.189 -0.269 -0.208 -0.087 -0.067 -0.093 -0.085 -0.084 -0.075 -0.104 -0.012 -0.045 -0.022 -0.025 -0.104 -0.073 -0.117 -0.123 -0.03 -0.099 -0.031 -0.152 -0.078 -0.053 -0.077 -0.025 -0.015 -0.072 0.005 -0.04 -0.026 -0.076 -0.158 -0.183 -0.08 -0.151 -0.044 -0.047 -0.041 -0.069 -0.021 -0.14 -0.066 -0.174 -0.127 -0.21 -0.106 -0.141 -0.053 -0.142 0.023 -0.145 -0.018 -0.089 -0.014 -0.021 0.011 -0.029 0.035 0.016 0.03 -0.026 -0.004 -0.092 -0.037 -0.028 -0.103 -0.029 -0.045 -0.02 -0.249 -0.038 -0.143 -0.052 -0.01 -0.122 -0.067 -0.056 -0.059 -0.034 -0.188 -0.072 -0.03 0.037 -0.025 0.068 -0.078 0.015 -0.068 0.003 -0.115 -0.047 -0.285 -0.179 -0.06 -0.029 -0.089 -0.015 -0.044 -0.029 -0.192 -0.094 0.039 0.05 0.056 0.052 0.05 0.151 -0.058 0.109 -0.034 0.382 0.037 0.076 0.084 0.122 0.058 0.194 0.018 0.144 0.052 0.114 -0.016 0.269 0.02 0.082 0.079 0.134 0.147 0.126 0.031 0.066 0.193 0.096 0.117 0.125 0.233 0.17 0.073 0.072 0.21 0.265 0.007 0.079 0.039 0.097 0.118 -0.02 0.053 0.074 -0.006 0.034 0.014 0.026 0.062 -0.006 0.053 0.02 0.112 0.287 0.06 0.039 0.077 0.017 0.086 0.032 0.006 0.074 -0.003 0.059 0.073 0.085 -0.012 0.115 0.059 0.097 -0.009 0.094 0.024 0.075 0.181 0.169 0.223 0.134 0.047 0.176 0.091 0.161 0.093 0.041 0.094 0.067 -0.012 0.069 0.006 0.043 0.126 0.127 0.021 0.162 0.109 0.106 0.031 0.008 0.024 -0.017 -0.079 -0.106 -0.038 -0.069 -0.005 -0.109 0.027 -0.015 0.226 0.172 0.024 0.128 0.076 0.073 0.006 0.098 0.046 0.058 0.014 0.085 0.072 0.14 0.002 0.194 0.039 0.142 0.142 0.217 0.115 0.046 0.021 0.107 0.12 0.276 0.138 0.15 0.069 0.127 0.01 0.079 -0.052 0.117 -0.006 0.082 0.075 0.248 0.112 0.127 0.125 0.031 0.022 0.018 -0.01 0.034 0.042 0.03 0.047 -0.039 0.023 -0.055 -0.024 -0.064 -0.004 -0.047 0.021 -0.033 0.041 -0.005 0.24 0.17 0.04 0.065 0.089 0.076 0.082 0.094 0.035 0.074 0.065 0.061 0.034 0.142 0.167 0.064 0.089 0.118 0.006 0.075 -0.043 0.191 -0.038 0.055 -0.135 0.081 -0.098 0.097 -0.095 0.06 -0.1 0.036 -0.083 -0.008 -0.08 -0.111 -0.095 -0.336 -0.063 -0.071 -0.045 -0.105 -0.074 -0.087 -0.267 -0.132 -0.135 -0.14 -0.131 -0.093 -0.141 -0.135 -0.383 -0.224 -0.159 -0.114 -0.105 -0.113 -0.067 0.002 -0.052 0.012 -0.02 -0.031 -0.003 -0.058 -0.023 -0.038 -0.224 -0.17 -0.046 -0.094 -0.009 -0.109 0.051 -0.281 0.022 -0.164 -0.014 -0.085 -0.023 -0.012 -0.021 -0.046 -0.005 -0.135 -0.054 -0.147 -0.203 -0.301 -0.149 -0.06 -0.132 -0.043 -0.362 -0.267 -0.098 -0.133 -0.024 -0.076 -0.013 -0.154 -0.05 0.089 -0.067 0.066 -0.154 -0.005 -0.173 0.075 -0.103 -0.07 -0.055 -0.079 -0.084 -0.096 -0.095 -0.019 -0.061 -0.002 -0.114 -0.118 -0.092 -0.038 -0.132 -0.015 -0.112 -0.06 -0.034 -0.065 -0.019 -0.093 -0.042 -0.055 -0.176 -0.108 -0.143 -0.12 -0.135 -0.077 -0.04 -0.063 -0.003 -0.043 0.213 0.012 0.254 0.046 0.122 -0.013 0.076 -0.044 0.072 -0.032 0.012 0.034 -0.013 0.063 0.07 0.058 0.095 0.047 0.068 -0.004 -0.066 -0.051 -0.04 -0.104 0.018 -0.037 -0.001 -0.052 -0.094 0.012 -0.013 -0.026 0.081 -0.079 0.093 -0.208 0.044 -0.205 -0.097 -0.179 -0.164 -0.125 -0.355 -0.365 -0.212 -0.187 -0.061 -0.07 -0.056 -0.033 -0.173 -0.043 -0.145 -0.105 -0.254 -0.148 -0.109 -0.076 -0.075 -0.179 -0.06 -0.024 0.019 -0.124 -0.026 -0.219 -0.043 -0.056 -0.138 -0.055 -0.033 -0.149 -0.007 -0.142 -0.027 -0.099 -0.234 -0.166 -0.013 -0.08 0 -0.076 -0.024 -0.075 -0.125 -0.158 -0.151 -0.138 -0.053 -0.066 -0.006 -0.134 -0.054 -0.036 0.02 -0.009 0.05 0.003 0.028 -0.018 0.003 -0.093 -0.227 -0.146 -0.066 -0.201 -0.121 -0.106 -0.028 -0.039 z M -86.94 -20.303 l -0.052 0.031 -0.028 -0.11 0.041 -0.107 0.05 -0.062 0.099 -0.007 0.065 -0.02 0.008 0.027 -0.054 0.083 z M -106.502 -21.611 l -0.029 0.082 -0.076 -0.033 -0.027 -0.052 -0.005 -0.085 0.042 -0.014 0.061 0.036 0.013 0.024 z M -110.914 -18.741 l -0.06 0.021 -0.089 -0.061 0.024 -0.048 0.051 -0.033 0.047 0.061 z M -110.567 -25.003 l 0.029 0.112 -0.051 -0.017 -0.067 -0.061 -0.046 -0.078 0.004 -0.035 0.009 -0.006 0.095 0.046 z M -113.156 -29.052 l -0.007 0.017 -0.102 -0.062 -0.232 -0.211 -0.084 -0.106 -0.014 -0.049 0.007 -0.11 0.079 0.013 0.092 0.074 0.04 0.068 0.002 0.079 0.172 0.037 0.024 0.17 z M -115.171 -28.069 l -0.014 0.032 -0.169 -0.067 0.093 -0.117 -0.014 -0.122 0.04 -0.026 0.037 0.04 0.048 0.156 z M -112.203 -29.005 l -0.075 0.236 -0.077 -0.004 -0.159 -0.074 -0.017 -0.046 0.061 -0.274 0.046 -0.036 0.138 -0.037 0.022 0.034 0.015 0.081 z M -118.243 -28.942 l -0.043 0.038 -0.115 -0.209 -0.001 -0.05 0.034 -0.025 0.056 0.005 0 0.052 0.047 0.044 0.018 0.043 z M -86.714 -21.239 l 0.018 0.048 -0.017 -0.006 -0.023 -0.037 -0.017 -0.046 0.014 -0.001 0.012 0.016 z M -91.684 -18.677 l -0.112 0.023 -0.02 -0.022 0.227 -0.102 0.039 0.004 0.014 0.014 -0.118 0.049 z M -109.805 -24.151 l -0.022 0.004 -0.051 -0.053 -0.023 -0.13 0.01 -0.014 0.097 0.161 -0.002 0.02 z M -114.694 -31.706 l -0.033 0.004 -0.062 -0.046 0.005 -0.042 0.013 -0.004 0.062 0.037 0.021 0.033 z M -111.1 -26.021 l 0.013 0.036 -0.007 0.01 -0.041 -0.025 -0.069 0.149 -0.02 0.014 0.042 -0.205 0.044 -0.029 0.048 -0.006 z M -111.699 -24.394 l -0.013 0.047 -0.301 -0.187 0.072 -0.018 0.084 0.013 z M -112.057 -24.546 l -0.02 0.011 -0.086 -0.116 -0.013 -0.079 -0.035 -0.034 -0.086 -0.027 0.074 -0.161 0.063 -0.335 0.028 0.061 -0.067 0.339 0.003 0.044 0.031 0.041 0.034 0.07 0.004 0.076 0.059 0.07 z" vector-effect="non-scaling-stroke" fill="#000" fill-opacity="1" stroke="#FFF" stroke-width="0px" stroke-linejoin="round" stroke-linecap="round"/></svg>
