<svg xmlns="http://www.w3.org/2000/svg" xmlns:xlink="http://www.w3.org/1999/xlink" height="400" width="400" viewBox="138.0619140625 -9.59331054687499 24.93154296875 4.31606445312499"><path d="M 162.983 -5.326 l 0.01 0.048 -0.064 -0.024 -0.009 -0.017 0.037 -0.017 z M 138.143 -9.501 l -0.076 0.082 -0.005 -0.027 0.023 -0.049 0.032 -0.056 0.03 -0.033 0.039 -0.01 0.028 0.046 -0.031 0.04 z M 151.648 -7.346 l -0.008 0.013 -0.061 -0.005 -0.009 -0.007 0.005 -0.006 0.029 -0.006 0.004 -0.018 -0.015 -0.004 0.013 -0.009 0.024 -0.002 0.014 0.011 0.007 0.016 z M 151.881 -7.432 l -0.017 0.005 -0.008 -0.005 0.004 -0.026 0.005 -0.009 0.017 -0.001 0.029 0.007 0.002 0.006 z M 158.315 -6.814 l -0.058 0.023 -0.073 -0.01 -0.023 -0.082 -0.033 -0.022 0.007 -0.04 0.051 -0.033 0.108 0.027 0.04 0.058 -0.026 0.039 z" vector-effect="non-scaling-stroke" fill="#000" fill-opacity="1" stroke="#FFF" stroke-width="0px" stroke-linejoin="round" stroke-linecap="round"/></svg>
