<svg xmlns="http://www.w3.org/2000/svg" xmlns:xlink="http://www.w3.org/1999/xlink" height="400" width="400" viewBox="26.6189453125 -48.477734375 3.51210937499999 3.027294921875"><path d="M 26.619 -48.26 l 0.021 -0.034 0.207 -0.093 0.054 0.015 0.108 0.004 0.22 -0.003 0.108 -0.061 0.067 0.017 0.055 -0.027 0.091 -0.035 0.013 0.007 0.012 0.006 0.141 0.015 0.106 0.033 0.071 0.051 0.073 0.032 0.075 0.012 0.042 0.025 0.008 0.039 0.07 0.019 0.132 -0.001 0.056 0.026 -0.02 0.052 0.014 0.017 0.047 -0.018 0.036 0.015 0.019 0.038 0.021 0.018 0.067 -0.06 0.071 0.006 0.172 0.025 0.092 0.124 0.057 0.045 0.05 0.018 0.064 -0.019 0.056 -0.023 0.032 0.011 0.069 0.082 0.016 0.107 0 0.043 -0.025 0.073 -0.035 0.078 -0.028 0.05 0.012 0.041 0.025 0.034 0.041 0.011 0.133 0.069 0.05 0.048 0.072 0.035 0.055 0.002 0.029 0.02 0.01 0.024 -0.008 0.061 -0.031 0.058 0.004 0.037 0.048 0.044 0.005 0.051 0.003 0.033 0.026 0.025 0.122 0.056 0.158 0.054 0.04 0.046 0.024 0.059 -0.008 0.099 -0.01 0.086 0.207 0.116 -0.024 0.022 -0.032 0.024 -0.198 0.018 -0.04 0.01 -0.086 -0.087 -0.045 -0.011 -0.042 0.032 -0.05 0.018 -0.06 -0.009 -0.064 -0.027 -0.032 -0.019 -0.026 -0.002 -0.04 0.019 -0.053 -0.008 -0.035 -0.022 -0.05 0.074 -0.031 0.016 -0.019 -0.002 -0.004 -0.126 -0.015 -0.019 -0.04 -0.003 -0.096 0.03 -0.092 0.039 -0.031 0.034 0.003 0.062 0.013 0.074 0.063 0.112 -0.034 0.049 -0.024 0.078 -0.098 0.071 -0.111 0.042 -0.009 0.085 -0.062 0.058 -0.105 0.058 -0.071 0.07 0.018 0.048 0.004 0.045 -0.012 0.031 -0.003 0.024 -0.028 0.011 -0.161 0.009 -0.046 0.015 -0.052 0.033 -0.05 -0.063 -0.051 -0.055 -0.037 -0.03 0.016 -0.014 0.041 -0.016 0.029 -0.019 -0.004 -0.066 -0.021 -0.076 -0.019 -0.037 -0.002 -0.058 -0.014 -0.09 0.019 -0.166 0.08 -0.209 0.045 -0.104 -0.022 -0.057 0.017 -0.133 -0.035 -0.066 -0.055 -0.086 -0.078 -0.186 -0.098 -0.065 -0.12 -0.071 -0.051 -0.054 -0.034 -0.059 -0.072 -0.059 -0.082 -0.054 -0.098 -0.135 -0.051 -0.061 -0.016 -0.016 -0.112 -0.087 -0.059 -0.078 -0.03 -0.064 -0.017 -0.06 -0.079 -0.118 -0.072 -0.088 -0.068 -0.063 -0.031 -0.045 -0.08 -0.056 -0.114 -0.045 -0.074 -0.008 z" vector-effect="non-scaling-stroke" fill="#000" fill-opacity="1" stroke="#FFF" stroke-width="0px" stroke-linejoin="round" stroke-linecap="round"/></svg>
