<svg xmlns="http://www.w3.org/2000/svg" xmlns:xlink="http://www.w3.org/1999/xlink" height="400" width="400" viewBox="87.7431640625 -52.11728515625 32.1546875 10.52177734375"><path d="M 87.814 -49.162 l 0.004 0 0.117 -0.002 0.053 -0.022 0.04 -0.033 0.087 -0.037 0.019 -0.042 0.001 -0.083 0.057 -0.07 0.145 -0.021 0.056 -0.01 0.059 0.01 0.092 -0.01 0.089 -0.004 0.05 0.022 0.065 0.018 0.084 -0.002 0.029 -0.033 0.004 -0.046 0.036 -0.012 0.045 0.032 0.025 0.024 0.038 0.011 0.101 -0.029 0.071 -0.031 0.023 -0.063 0.041 -0.031 0.055 0.016 0.096 0 0.079 -0.049 0.104 -0.039 0.075 -0.018 0.015 -0.033 -0.035 -0.073 0.01 -0.08 0.1 -0.045 0.134 -0.005 0.099 -0.031 0.028 -0.085 0.049 -0.024 0.05 -0.01 0.121 -0.013 0.087 -0.034 0.054 -0.016 0.152 -0.046 0.138 -0.009 0.059 -0.037 0.046 -0.047 0.077 -0.018 0.079 -0.04 0.104 -0.051 0.041 -0.007 0.171 -0.03 0.067 -0.011 0.04 -0.007 0.074 0.002 0.031 -0.054 0.075 -0.04 0.075 -0.014 0.037 -0.04 0.072 -0.05 0.098 -0.028 0.152 -0.004 0.147 0.006 0.088 -0.009 0.073 -0.075 0.014 -0.037 0.017 -0.038 0.059 -0.014 0.072 0.061 0.06 0.038 0.092 0.04 0.048 0.037 0.055 0.005 0.057 -0.028 0.041 -0.068 0.077 -0.01 0.085 0.011 0.022 0.033 0.007 0.032 0.039 0.058 0.093 0.051 0.119 -0.003 0.048 -0.009 0.116 0.007 0.114 0.011 0.125 0.012 0.036 0.002 0.133 0.006 0.194 0.009 0.086 -0.004 0.175 0.016 0.036 0.045 0.032 0.106 0.028 0.101 0.008 0.082 0.046 0.042 0.058 0.014 0.038 0.033 0.068 0.045 0.05 0.064 0.061 -0.004 0.043 -0.015 0.093 -0.005 0.119 0.004 0.083 0.035 0.031 0.047 0.067 0.026 0.055 -0.008 0.163 0 0.056 0.003 0.056 0.026 0.081 0.004 0.045 -0.033 0.141 -0.022 0.082 -0.046 0.063 0 0.047 0.022 0.036 0.031 0.054 -0.014 0.029 -0.025 0.047 0 0.046 0.016 0.118 0.028 0.085 0.053 0.066 0.005 0.085 -0.015 0.039 -0.007 0.037 0.026 0.055 0.014 0.042 -0.019 0.071 -0.014 0.274 0.029 0.063 0.053 0.049 0.025 0.039 0.043 0.072 0.031 0.151 -0.011 0.059 -0.032 0.122 -0.07 0.049 -0.068 0.062 -0.022 0.07 -0.011 0.065 0 0.068 -0.002 0.083 -0.05 0.067 -0.017 0.1 -0.064 0.019 -0.029 0.048 -0.074 0.03 -0.047 0.05 -0.075 0.027 -0.121 0.015 -0.064 -0.013 -0.046 -0.059 -0.024 -0.075 -0.011 -0.066 -0.035 -0.049 -0.041 -0.029 -0.057 -0.039 -0.067 0.002 -0.049 -0.011 -0.038 -0.033 -0.032 -0.064 -0.056 -0.031 -0.042 0.01 -0.066 0.075 -0.114 0.007 -0.053 0.009 -0.033 -0.004 -0.03 0.024 -0.068 0.042 -0.029 0.048 -0.073 0.066 -0.034 0.082 -0.002 0.035 -0.02 0.018 -0.073 0.039 -0.056 0.026 -0.04 0.05 -0.043 0.288 -0.084 0.12 -0.104 0.042 -0.052 0.046 -0.113 0.045 -0.047 0.065 0.016 0.076 0.066 0.057 0.001 0.085 0.036 0.231 0.075 0.125 0.024 0.081 0.007 0.106 0.021 0.069 0.044 0.134 0.072 0.113 0.018 0.196 0.007 0.239 0.004 0.067 0.013 0.175 0.052 0.193 0.057 0.182 0.051 0.138 0.04 0.081 0.039 0.077 0.022 0.083 -0.019 0.107 0.004 0.25 0.046 0.158 0.039 0.132 0.029 0.044 0.04 0.004 0.053 -0.018 0.045 0.01 0.109 0.043 0.057 0.016 0.076 0.016 0.073 -0.011 0.072 0.02 0.038 0.042 0.023 0.04 0.05 -0.013 0.053 -0.018 0.031 0.003 0.05 0.048 0.041 0.07 0.008 0.063 0.01 0.077 0.064 0.137 0.074 0.082 0.021 0.094 0.033 0.18 0.033 0.122 0.01 0.072 0.026 0.071 0.064 0.117 0.013 0.075 0.022 0.137 0.026 0.09 -0.015 0.079 -0.022 0.054 0.004 0.102 0.015 0.12 0.003 0.101 -0.015 0.08 -0.045 0.094 -0.061 0.112 -0.031 0.13 -0.011 0.089 -0.025 0.292 -0.041 0.118 -0.007 0.091 -0.04 0.081 -0.031 0.117 -0.013 0.158 0.032 0.151 0.027 0.183 0.009 0.121 0.037 0.086 0.035 0.135 0.028 0.151 -0.013 0.206 -0.011 0.137 0.016 0.143 0.064 0.088 0.052 0.099 0.11 0.103 0.053 0.09 0.044 0.114 0.003 0.284 0.004 0.156 0.023 0.13 0.012 0.031 0.023 -0.013 0.076 0.004 0.108 -0.002 0.05 0.029 0.038 0.044 0.007 0.024 0.053 0.064 0.031 0.115 0.038 0.194 0.128 0.116 0.055 0.091 0.019 0.119 -0.013 0.187 0 0.317 0 0.217 0.039 0.075 0.026 0.222 0.031 0.244 0.034 0.205 0.035 0.121 -0.045 0.106 -0.004 0.102 0.033 0.101 0.049 0.079 -0.005 0.118 -0.023 0.376 -0.138 0.132 -0.052 0.093 0.013 0.083 -0.018 0.063 -0.015 0.161 -0.021 0.098 -0.006 0.101 -0.012 0.145 -0.008 0.296 -0.09 0.12 -0.018 0.202 0.025 0.109 -0.016 0.108 -0.046 0.141 -0.047 0.037 -0.076 0.072 -0.105 0.155 -0.077 0.126 -0.067 0.129 -0.065 0.158 -0.054 0.149 -0.04 0.19 -0.104 0.151 -0.053 0.075 -0.017 0.089 0.019 0.168 0.014 0.121 -0.004 0.068 0.012 0.136 0.051 0.124 0.044 0.095 0.079 0.176 0.111 0.091 0.037 0.064 0.015 0.159 0.01 0.13 0.005 0.077 -0.025 0.131 -0.046 0.209 -0.059 0.082 0.002 0.134 0.031 0.2 0.058 0.08 0.043 0.052 0.053 -0.094 0.139 -0.188 0.279 -0.159 0.236 -0.084 0.133 -0.061 0.101 -0.064 0.096 -0.009 0.058 -0.072 0.093 -0.133 0.112 -0.029 0.122 0.005 0.109 -0.011 0.098 -0.146 0.062 -0.114 0.055 0.033 0.186 0.059 0.07 0.095 0.076 0.1 0.061 0.087 0.051 0.096 -0.024 0.081 -0.078 0.156 -0.069 0.086 -0.002 0.061 0.016 0.135 0.004 0.138 -0.025 0.109 -0.005 0.141 0.017 0.05 0.017 0.118 0.03 0.127 0.066 0.089 0.074 0.065 0.014 0.033 -0.024 0.071 -0.066 0.1 -0.063 0.121 -0.104 0.092 -0.08 0.072 -0.012 0.139 0 0.063 -0.019 0.105 -0.01 0.093 0.029 0.259 0.016 0.069 0.041 0.123 0.121 0.069 0.065 0.12 0.033 0.073 0.022 0.064 0.018 0.064 0.031 0.015 0.038 0.026 0.058 0.039 0.033 0.073 0.033 0.056 0.02 0.018 0.042 0.017 0.021 0.051 0.029 0.15 0.125 0.073 0.033 0.111 0.072 0.046 0.06 0.003 0.063 0.029 0.048 0.074 0.072 0.035 0.049 -0.014 0.066 0.012 0.059 -0.029 0.061 -0.12 0.045 -0.041 0.021 -0.086 0.002 -0.146 -0.023 -0.142 0.013 -0.17 -0.025 -0.134 -0.054 -0.071 -0.043 -0.113 -0.025 -0.054 0.013 -0.067 0.055 -0.074 -0.01 -0.068 0.01 -0.176 -0.011 -0.096 -0.014 -0.152 0.038 -0.086 0.012 -0.161 0.047 -0.097 0.082 -0.072 0.02 -0.07 -0.004 -0.051 -0.03 -0.074 -0.036 -0.109 0.002 -0.033 0.015 -0.013 0.033 -0.036 0.101 0.001 0.045 -0.024 0.029 -0.064 0.01 -0.113 -0.003 -0.177 -0.007 -0.12 -0.026 -0.072 0.011 -0.098 0.055 -0.07 0.009 -0.057 0.023 -0.046 0.081 -0.072 0.05 -0.087 0.062 -0.093 0.134 -0.052 0.076 0.016 0.041 0.012 0.05 -0.043 0.057 -0.088 0.053 -0.07 0.01 -0.105 0.051 -0.145 0.091 -0.108 0.077 -0.142 0.019 -0.1 0.02 -0.222 0.024 -0.055 0.006 -0.243 0.012 -0.18 -0.041 -0.094 0.006 -0.084 0.023 -0.043 0.025 -0.015 0.048 -0.015 0.045 -0.068 0.069 -0.138 0.092 -0.114 0.061 -0.087 0.079 -0.05 0.029 -0.099 0.03 -0.054 0.016 -0.125 0.07 -0.1 0.062 -0.066 0.018 -0.079 -0.017 -0.052 -0.005 -0.155 -0.024 -0.105 -0.003 -0.147 -0.016 -0.343 -0.073 -0.11 -0.034 -0.097 -0.093 -0.088 -0.047 -0.119 -0.005 -0.179 0 -0.08 -0.019 -0.135 0.018 -0.147 0.095 -0.07 0.07 -0.06 0.072 -0.074 0.154 -0.033 0.103 -0.025 0.058 -0.079 0.092 -0.009 0.052 0.027 0.045 0.057 0.051 0.033 0.08 0.083 0.085 0.081 0.066 0.153 0.106 0.043 0.056 0.051 0.064 0.011 0.063 -0.01 0.041 -0.055 0.031 -0.107 0.016 -0.051 0.043 -0.079 0.058 -0.093 0.067 -0.044 0.004 -0.052 0.018 -0.264 0.083 -0.1 0.023 -0.079 0.027 -0.094 0.085 -0.074 0.063 -0.091 0.083 -0.04 0.037 -0.081 0.083 -0.107 0.095 -0.059 0.051 -0.032 0.031 -0.029 0.04 -0.112 0.031 -0.092 0.033 -0.139 0.049 -0.199 0.054 -0.161 0.052 -0.103 0.043 -0.152 0.055 -0.103 0.018 -0.208 -0.002 -0.257 0.014 -0.187 0.01 -0.141 -0.013 -0.213 -0.007 -0.163 -0.011 -0.109 0.02 -0.256 0.021 -0.057 0.005 -0.456 0.052 -0.202 0.028 -0.185 0.013 -0.136 0.02 -0.077 0.025 -0.114 0.036 -0.06 0.016 -0.202 0.071 -0.45 0.147 -0.301 0.119 -0.049 0.02 -0.203 0.084 -0.117 0.033 -0.082 0.075 -0.065 0.047 -0.069 0.02 -0.122 -0.048 -0.087 0.003 -0.275 -0.018 0 -0.218 -0.193 0.031 -0.308 0.049 -0.286 0.046 -0.261 -0.105 -0.202 -0.081 -0.175 -0.069 -0.266 -0.046 -0.232 -0.04 -0.419 -0.066 -0.184 -0.058 -0.093 -0.076 -0.166 -0.173 -0.054 -0.034 -0.081 -0.023 -0.084 -0.015 -0.182 0.001 -0.222 -0.013 -0.319 -0.036 -0.254 -0.029 -0.433 -0.054 -0.103 -0.007 -0.226 0.048 -0.29 0.061 -0.521 -0.048 -0.231 -0.023 -0.468 -0.046 -0.529 -0.052 -0.513 -0.054 -0.373 0.03 -0.208 0.016 -0.24 0.023 -0.033 -0.026 -0.01 -0.103 -0.043 -0.079 -0.131 -0.086 -0.088 -0.082 -0.168 -0.11 -0.053 -0.069 -0.018 -0.108 -0.155 -0.28 -0.096 -0.19 -0.024 -0.039 -0.042 -0.062 -0.054 -0.032 -0.115 -0.02 -0.031 -0.033 0 -0.066 0.018 -0.091 0.023 -0.066 -0.017 -0.017 -0.3 0.019 -0.184 -0.044 -0.154 -0.048 -0.218 -0.122 -0.13 -0.047 -0.165 -0.126 -0.241 -0.03 -0.09 -0.049 -0.113 -0.108 -0.099 -0.069 -0.14 -0.044 -0.222 -0.039 -0.378 -0.037 -0.128 -0.016 -0.209 0.025 -0.155 0.002 -0.251 -0.026 -0.143 -0.033 -0.177 -0.001 -0.115 0 -0.153 -0.008 -0.074 -0.022 -0.069 -0.027 -0.129 0.007 -0.09 -0.026 -0.084 -0.049 -0.088 -0.023 -0.096 0.002 -0.04 0.022 -0.037 -0.002 -0.024 -0.067 -0.09 -0.108 -0.014 -0.048 -0.055 -0.056 -0.033 -0.051 0.009 -0.07 0.039 -0.136 0.086 -0.123 0.057 -0.032 0.035 -0.036 0.073 -0.063 0.042 -0.051 -0.005 -0.069 -0.049 -0.072 -0.036 -0.093 0.007 -0.054 0.053 -0.064 0.062 -0.141 -0.005 -0.037 -0.025 -0.03 -0.006 -0.065 -0.012 -0.088 -0.075 -0.134 -0.041 -0.071 -0.071 -0.031 -0.083 -0.019 -0.072 -0.096 -0.09 -0.114 -0.057 -0.071 -0.02 -0.044 -0.009 -0.079 -0.042 -0.096 -0.045 -0.053 -0.033 -0.04 -0.017 -0.058 -0.017 -0.021 -0.122 -0.026 -0.088 -0.043 -0.037 -0.058 -0.013 -0.047 -0.026 -0.027 -0.069 -0.009 -0.048 0.042 -0.079 0.021 -0.053 -0.004 -0.053 -0.025 -0.032 -0.027 -0.055 -0.03 -0.078 -0.095 -0.082 -0.025 -0.149 0.004 -0.134 0.044 -0.081 -0.007 -0.068 -0.015 -0.077 -0.047 -0.053 -0.039 -0.079 -0.013 -0.156 -0.069 -0.106 -0.05 -0.009 -0.097 -0.05 -0.067 -0.103 -0.019 -0.104 -0.069 -0.152 -0.037 -0.096 -0.029 -0.083 -0.017 -0.012 -0.026 0.005 -0.022 0.038 -0.037 0.04 -0.035 0.01 -0.032 -0.032 -0.028 -0.086 -0.03 -0.11 -0.026 -0.023 -0.044 -0.066 -0.046 0.012 -0.037 0.052 -0.027 0.053 -0.02 0.012 -0.035 -0.038 -0.032 -0.018 -0.048 0.009 -0.036 z" vector-effect="non-scaling-stroke" fill="#000" fill-opacity="1" stroke="#FFF" stroke-width="0px" stroke-linejoin="round" stroke-linecap="round"/></svg>
