<svg xmlns="http://www.w3.org/2000/svg" xmlns:xlink="http://www.w3.org/1999/xlink" height="400" width="400" viewBox="18.436328125 -43.542333984375 1.91132812499998 1.6732421875"><path d="M 19.194 -43.533 l -0.003 0.012 0.005 0.036 0.022 0.035 0.079 0.036 0.116 0.071 0.137 0.131 0.063 0.039 0.057 0.009 0.11 0.054 0.077 0.013 0.086 0.015 0.224 0.113 0.101 0.033 0.071 0.043 0.008 0.04 -0.003 0.025 -0.129 0.029 -0.023 0.044 -0.063 -0.005 -0.076 0 -0.025 0.028 0.036 0.046 0.024 0.054 -0.019 0.074 -0.006 0.01 -0.018 -0.003 -0.107 0.043 -0.079 0.02 -0.071 0.01 -0.034 -0.021 -0.017 -0.028 0.003 -0.082 -0.013 -0.028 -0.024 -0.013 -0.049 0.019 -0.057 0.063 -0.053 0.073 -0.079 0.077 -0.066 0.073 -0.041 0.054 -0.065 0.023 -0.118 -0.013 -0.077 0 0.118 0.119 0.125 0.049 0.02 0.04 -0.009 0.045 0.009 0.026 -0.016 0.079 -0.003 0.05 -0.156 -0.08 -0.064 -0.112 -0.228 -0.189 -0.261 -0.129 -0.014 -0.02 0.014 -0.025 0.013 -0.02 -0.054 -0.001 -0.038 0.016 -0.036 -0.004 -0.041 -0.048 -0.039 -0.042 -0.002 -0.037 0.018 -0.005 0.026 -0.015 0.055 -0.041 0.011 -0.021 -0.003 -0.033 -0.077 -0.103 -0.011 -0.067 -0.011 -0.124 0.016 -0.029 0.028 -0.014 0.135 -0.016 -0.002 -0.097 0.008 -0.029 0.027 -0.04 0.017 -0.037 0.075 -0.053 0.102 -0.063 0.045 -0.002 0.039 0.009 0.044 0.054 0.048 -0.007 0.01 -0.065 -0.063 -0.085 -0.034 -0.054 0.01 -0.03 0.024 -0.016 0.054 0.01 0.052 0.015 0.033 -0.01 0.052 -0.008 z" vector-effect="non-scaling-stroke" fill="#000" fill-opacity="1" stroke="#FFF" stroke-width="0px" stroke-linejoin="round" stroke-linecap="round"/></svg>
