<svg xmlns="http://www.w3.org/2000/svg" xmlns:xlink="http://www.w3.org/1999/xlink" height="400" width="400" viewBox="-17.003076171875 -35.9298828125 15.937548828125 14.5091796875"><path d="M -2.22 -35.104 l 0.029 0.074 0.059 0.059 0.211 0.135 0.125 0.084 0.003 0.029 -0.04 0.069 -0.017 0.047 0.033 0.05 0.077 0.061 0.006 0.029 -0.019 0.034 -0.04 0.065 0.085 0.192 0.014 0.186 -0.022 0.132 0.001 0.076 0.011 0.065 0.072 0.15 -0.048 0.248 0.054 0.135 0.074 0.11 0.041 0.196 0.06 0.093 0.098 0.081 0.056 0.028 0.108 0.067 0.077 0.056 0.046 0.084 -0.097 0.069 -0.078 0.062 -0.022 0.066 0.036 0.107 0 0.057 -0.049 0.018 -0.202 -0.006 -0.158 -0.005 -0.182 -0.005 -0.256 -0.01 -0.158 -0.006 -0.217 -0.009 -0.075 0.004 -0.199 0.03 -0.141 0.021 -0.024 0.006 -0.044 0.026 -0.03 0.079 -0.027 0.09 -0.029 0.04 -0.422 0.13 -0.165 0.018 -0.096 -0.013 -0.068 0.011 -0.059 0.028 -0.02 0.042 -0.003 0.053 0.012 0.054 0.041 0.075 0.007 0.075 -0.026 0.053 -0.006 0.053 -0.012 0.058 0.022 0.031 0.041 0.005 0.041 0.026 0.058 0.024 0.048 0.046 -0.002 0.065 -0.04 0.037 -0.035 0.02 -0.158 0.017 -0.125 0.014 -0.163 0.104 -0.174 0.111 -0.206 0.073 -0.09 0.021 -0.159 0.052 -0.19 0.087 -0.094 0.139 -0.118 0.16 -0.114 0.108 -0.155 0.102 -0.145 0.039 -0.182 0.049 -0.229 0.038 -0.162 0.012 -0.048 0.008 -0.143 0.002 -0.07 -0.008 -0.052 -0.004 -0.021 0.011 -0.007 0.025 -0.003 0.058 -0.01 0.066 -0.045 0.056 -0.032 0.025 -0.038 0.01 -0.12 -0.015 -0.1 -0.018 -0.239 -0.024 -0.048 0.006 -0.018 0.007 -0.075 0.038 -0.115 0.08 -0.078 0.07 -0.058 0.033 -0.139 0.017 -0.061 0.026 -0.259 0.175 -0.055 0.042 -0.266 0.152 -0.075 0.05 -0.059 0.05 -0.159 0.112 -0.102 0.049 -0.019 0.029 -0.005 0.069 0 0.152 0 0.146 0 0.212 0 0.212 0 0.244 -0.134 0 0 0.001 0.004 0.042 0.029 0.083 0.01 0.07 -0.015 0.044 -0.014 0.056 0.006 0.053 0.022 0.058 0.021 0.06 0 0.04 -0.041 0.03 -0.094 0.017 -0.113 0.014 -0.083 0 -0.124 -0.01 -0.077 0.002 -0.067 0 -0.06 0.01 -0.074 0.038 -0.083 0.06 -0.104 0.08 -0.062 0.05 -0.083 0.011 -0.082 0 -0.081 -0.04 -0.052 -0.021 -0.034 0.002 -0.056 0.028 -0.066 0.02 -0.062 0 -0.103 -0.04 -0.124 -0.06 -0.072 -0.03 -0.103 -0.01 -0.104 -0.02 -0.072 0.01 -0.093 0 -0.124 0.04 -0.104 0.029 -0.113 0.03 -0.129 0.027 0.031 0.09 0.044 0.049 0 0.061 -0.021 0.051 -0.062 0.05 -0.071 0.063 -0.041 0.05 -0.042 0.069 -0.031 0.04 -0.053 0.065 -0.047 0.082 -0.015 0.051 -0.019 0.059 -0.037 0.018 -0.126 0.016 -0.08 0.021 -0.07 0.02 -0.026 0.035 -0.004 0.006 -0.02 0.07 0 0.05 -0.02 0.04 -0.03 0.1 -0.04 0.091 -0.03 0.12 -0.03 0.1 -0.04 0.16 -0.04 0.149 -0.05 0.141 -0.04 0.09 -0.03 0.05 -0.07 0.061 -0.06 0.039 -0.07 0.051 -0.08 0.05 -0.11 0.06 -0.09 0.051 -0.037 0.023 -0.043 0.027 -0.07 0.069 -0.06 0.101 -0.04 0.08 -0.07 0.13 -0.05 0.07 -0.03 0.039 -0.08 0.04 -0.09 0.03 -0.1 0.04 -0.08 0.04 -0.11 0.04 -0.07 0.04 -0.05 0.06 -0.04 0.07 -0.05 0.101 -0.04 0.109 -0.02 0.07 -0.06 0.24 -0.02 0.14 -0.02 0.09 -0.03 0.11 -0.02 0.17 0 0.14 -0.02 0.08 -0.01 0.061 -0.05 0.069 -0.04 0.05 -0.07 0.07 -0.06 0.04 -0.02 0.04 -0.06 0.05 -0.06 0.08 -0.05 0.05 0.01 0.04 0.01 0.07 -0.03 0.07 -0.03 0.08 -0.08 0.1 -0.09 0.05 -0.13 0.01 -0.18 0 -0.14 -0.01 -0.17 0 -0.15 -0.02 -0.14 -0.021 -0.17 -0.01 -0.12 0 -0.15 0.02 -0.39 0 -0.15 0.011 -0.22 0.04 -0.052 0.01 0 0 0.072 -0.479 0.138 -0.26 0.109 -0.115 0.17 -0.059 0.156 -0.261 0.054 -0.24 0.102 -0.111 0.032 -0.087 -0.041 -0.066 0.097 -0.13 0.117 -0.198 0.054 -0.127 0.137 -0.197 0.017 -0.043 -0.012 -0.049 -0.054 0.042 -0.057 0.073 -0.068 0.057 0.028 -0.071 0.054 -0.104 0.122 -0.108 0.191 -0.12 0.398 -0.406 0.15 -0.07 0.135 -0.171 0.048 -0.152 0.013 -0.349 0.048 -0.184 0.088 -0.144 0.105 -0.261 0.08 -0.117 0.052 -0.238 0.057 -0.091 0.101 -0.043 0.144 -0.119 0.216 -0.073 0.256 -0.154 0.12 -0.092 0.08 -0.138 0.086 -0.274 0.154 -0.288 0.079 -0.217 0.001 -0.004 0.135 -0.114 0.092 -0.144 0.155 -0.064 0.325 -0.031 0.483 -0.12 0.433 -0.181 0.123 -0.072 0.131 -0.144 0.218 -0.188 0.407 -0.225 0.187 -0.126 0.286 -0.315 0.19 -0.261 0.158 -0.168 0.109 -0.149 0.076 -0.151 0.043 -0.243 -0.029 -0.095 -0.12 -0.156 -0.081 -0.041 -0.022 -0.073 0.043 -0.129 -0.001 -0.222 0.025 -0.355 0.134 -0.286 0.327 -0.375 0.061 -0.154 0.037 -0.245 0.003 -0.087 0.41 -0.348 0.24 -0.267 0.083 -0.065 0.212 -0.122 0.739 -0.266 0.418 -0.19 0.244 -0.139 0.145 -0.164 0.403 -0.643 0.396 -0.905 0.033 -0.105 0.177 -0.03 0.125 -0.013 0.101 -0.033 0.125 -0.068 0.12 0.027 -0.06 0.046 0 0.111 0.085 0.13 0.147 0.147 0.268 0.186 0.209 0.075 0.298 0.045 0.348 -0.082 0.194 -0.002 0.095 -0.035 0.103 0.052 0.196 0.017 0.189 -0.027 0.143 -0.078 0.091 -0.09 0.014 0.044 0.004 0.048 0.028 0.028 0.056 0.114 0.03 0.045 0.109 -0.007 0.095 0.023 0.213 -0.011 z" vector-effect="non-scaling-stroke" fill="#000" fill-opacity="1" stroke="#FFF" stroke-width="0px" stroke-linejoin="round" stroke-linecap="round"/></svg>
