<svg xmlns="http://www.w3.org/2000/svg" xmlns:xlink="http://www.w3.org/1999/xlink" height="400" width="400" viewBox="30.22177734375 10.46435546875 10.62275390625 16.397265625"><path d="M 31.288 22.402 l 0.142 -0.103 0.142 -0.145 0.166 -0.17 0.148 -0.152 0.13 -0.133 0.178 -0.183 0.176 -0.181 0.041 -0.023 0.017 -0.015 -0.076 -0.161 0.123 -0.186 0.007 -0.121 -0.005 -0.116 0.015 -0.053 0.037 -0.047 0.143 -0.097 0.108 -0.155 0.089 -0.144 0.123 -0.232 0.012 -0.055 0.002 -0.056 -0.034 -0.078 -0.082 -0.127 -0.06 -0.11 -0.053 -0.169 0.053 -0.147 0.019 -0.089 0 -0.048 -0.024 -0.046 -0.06 -0.034 -0.05 -0.022 -0.017 -0.061 0 -0.072 0.023 -0.04 0.133 -0.065 0.03 -0.035 0.016 -0.039 0.001 -0.056 0.041 -0.14 0.051 -0.133 0.003 -0.047 -0.018 -0.041 -0.014 -0.075 -0.009 -0.113 -0.001 -0.317 0.026 -0.328 -0.011 -0.186 -0.085 -0.214 -0.008 -0.154 0.062 -0.108 0.01 -0.064 -0.045 -0.008 -0.093 -0.007 -0.068 -0.02 -0.106 -0.088 -0.184 -0.074 -0.209 -0.067 -0.303 -0.02 -0.252 -0.215 -0.198 -0.034 -0.064 -0.027 -0.19 -0.129 -0.297 -0.012 -0.309 -0.012 -0.192 -0.004 -0.028 -0.017 -0.011 -0.177 -0.002 -0.158 -0.016 -0.137 -0.029 -0.156 -0.045 -0.061 -0.054 -0.106 -0.027 -0.116 -0.003 -0.056 0.01 -0.02 0.214 -0.083 0.092 -0.041 0.136 -0.047 0.242 -0.066 0.216 -0.059 0.198 -0.057 0.209 -0.061 0.085 -0.04 0.106 -0.041 0.253 -0.082 0.072 -0.028 0.145 -0.046 0.073 -0.018 0.28 -0.093 0.321 -0.107 0.113 -0.038 0.215 -0.072 0.042 0.03 0.146 0.246 0.115 0.145 0.131 0.134 0.022 -0.007 0.038 -0.031 0.065 -0.013 0.208 -0.03 0.08 -0.002 0.052 -0.036 0.107 -0.026 0.124 -0.015 0.042 0.016 0.13 0.173 0.019 0.133 0.027 0.192 0.006 0.094 -0.002 0.125 -0.015 0.156 -0.106 0.18 -0.02 0.09 -0.057 0.138 -0.075 0.068 -0.037 0.056 0.002 0.058 0.04 0.049 0.088 0.088 0.027 0.057 -0.008 0.051 0 0.068 0.021 0.048 0.025 0.028 0.087 0.045 0.085 0.112 0.146 0.136 0.175 0.193 0.082 0.059 0.065 0.014 0.032 0.065 -0.018 0.075 -0.05 0.043 0.021 0.062 0.028 0.032 0.032 0.016 0.077 0.004 0.071 -0.013 0.018 -0.021 -0.009 -0.289 -0.051 -0.169 -0.051 -0.066 -0.011 -0.013 0.018 -0.055 0.058 -0.129 0.049 -0.128 0.031 -0.054 0.036 -0.033 0.241 -0.035 0.11 -0.03 0.046 -0.037 0.036 -0.1 0.029 -0.278 0.01 -0.261 -0.025 -0.153 0.035 -0.231 0.053 -0.143 -0.026 -0.028 -0.02 -0.193 -0.157 -0.205 -0.202 -0.264 -0.113 -0.142 -0.128 -0.162 -0.234 -0.253 -0.107 -0.092 -0.046 -0.029 0.001 -0.062 -0.016 -0.094 -0.034 -0.034 -0.012 -0.075 0.011 -0.115 -0.01 -0.098 -0.03 -0.081 0.002 -0.092 0.035 -0.104 -0.016 -0.124 -0.097 -0.221 0.009 -0.02 0.008 -0.038 0.003 -0.085 -0.004 -0.055 -0.01 -0.024 0.026 -0.043 0.062 -0.063 0.044 -0.036 0.025 -0.01 0.034 -0.062 0.043 -0.114 0.023 -0.136 0.002 -0.157 0 0 0.223 -0.003 0.236 0.008 0.033 0.006 0.053 0.015 0.06 -0.002 0.067 -0.02 0.074 -0.05 0.081 -0.079 0.126 0.002 0.171 0.083 0.093 0.072 0.016 0.061 0.114 0.036 0.213 0.01 0.155 -0.032 0.097 -0.074 0.102 -0.039 0.106 -0.004 0.08 0.025 0.055 0.055 0.104 0.039 0.154 0.024 0.169 -0.035 0.183 -0.094 0.104 -0.099 0.026 -0.103 0.03 -0.062 0.035 -0.022 0.097 -0.013 0.159 -0.003 0.139 0.032 0.177 0.102 0.112 -0.068 0.191 -0.116 0.193 -0.062 0.183 0 0.151 -0.044 0.118 -0.088 0.124 -0.056 0.131 -0.024 0.123 -0.042 0.172 -0.092 0.178 -0.133 0.181 -0.136 0.116 -0.087 0.053 0.103 0.095 0.094 -0.057 0.055 -0.068 0.049 0.111 0.066 -0.081 0.099 -0.01 0.069 0.021 0.027 0.018 0.04 -0.053 0.113 -0.07 0.087 -0.018 0.066 0.062 0.117 -0.032 0.208 0.06 0.187 0.017 0.096 0.021 0.064 -0.03 0.115 0.008 0.193 0.014 0.08 -0.036 0.099 0.061 0.034 0.033 0.109 -0.009 0.123 -0.019 0.066 -0.106 0.08 -0.013 0.031 0.002 0.047 0.132 0.002 0.004 0.073 -0.009 0.058 0.005 0.108 -0.018 0.07 0.031 0.08 -0.038 0.089 0.013 0.069 0.002 0.089 0.031 0.225 0.005 0.278 0.007 0.045 0.047 0.031 0.066 0.016 -0.003 0.076 -0.073 0.099 -0.004 0.062 0.011 0.087 0.081 -0.118 0.048 0.001 0.043 0.046 -0.006 0.068 0.015 0.033 -0.006 0.066 0.024 0.084 -0.009 0.073 -0.059 0.051 -0.075 0.087 -0.013 0.082 0.007 0.054 -0.052 0.017 -0.024 0.033 0.035 0.077 -0.002 0.068 -0.092 0.212 -0.245 0.291 -0.106 0.103 -0.099 0.112 0 0.046 -0.01 0.04 -0.116 0.16 -0.124 0.026 -0.069 0.043 0.054 0.141 -0.08 0.033 -0.139 0.111 -0.383 0.213 -0.061 0.049 -0.097 0.131 -0.128 0.032 -0.071 0.037 -0.127 0.014 -0.044 -0.009 -0.043 0.005 -0.037 0.028 -0.253 0.092 -0.236 0.073 -0.058 0.033 -0.039 0.045 -0.209 0.072 -0.327 0.178 -0.268 0.169 -0.194 0.169 -0.051 0.026 -0.06 0.058 -0.02 0.087 -0.02 0.049 -0.143 0.178 -0.216 0.211 -0.042 0.058 -0.086 0.117 -0.008 0.077 -0.076 0.023 -0.064 -0.074 -0.027 0.142 -0.052 0.01 -0.058 -0.029 -0.145 0.07 -0.126 0.081 -0.202 0.171 -0.286 0.33 -0.417 0.319 -0.057 0.009 -0.038 -0.001 -0.131 -0.111 -0.072 -0.008 0.064 0.066 0.042 0.055 -0.011 0.108 0.005 0.161 -0.052 0.314 0.007 0.069 0.06 0.089 0.112 0.109 0.105 0.135 0.135 0.389 0.01 0.2 0.14 0.256 0.005 0.111 0.056 0.276 -0.004 0.223 -0.01 0.137 0.067 0.058 0.025 -0.052 -0.007 -0.086 0.018 -0.139 0.037 -0.062 0.037 0.009 0.011 0.065 0.025 0.058 0.01 0.054 0.002 0.074 -0.052 0.281 0.016 0.114 0.07 0.191 -0.081 0.222 -0.117 0.523 -0.007 0.09 0.028 0.039 0.063 0.013 0.023 -0.067 0.037 0 0.02 0.039 -0.052 0.241 -0.052 0.106 -0.183 0.259 -0.099 0.111 -0.164 0.109 -0.385 0.171 -0.771 0.247 -0.306 0.121 -0.183 0.072 -0.386 0.229 -0.169 0.154 -0.07 0.177 -0.067 0.081 -0.065 0.102 0.057 0.088 0.056 0.067 0.066 0.045 0.034 0.038 0.045 0.027 0.045 -0.138 0.022 -0.043 0.038 -0.003 -0.021 0.169 -0.044 0.578 -0.003 0.019 -0.11 0.002 -0.188 0.005 -0.111 0.003 -0.124 0.003 -0.154 -0.028 -0.087 0.006 -0.007 -0.319 -0.028 -0.07 -0.03 -0.103 -0.007 -0.066 0.019 -0.066 0.009 -0.105 -0.008 -0.092 -0.092 -0.046 -0.02 -0.015 -0.02 -0.072 -0.008 -0.111 0.064 -0.142 -0.005 -0.272 0.008 -0.096 -0.001 -0.19 -0.001 -0.23 -0.001 -0.206 0.003 -0.178 -0.019 -0.084 -0.016 -0.046 -0.043 -0.094 -0.05 -0.196 -0.059 -0.148 -0.076 -0.098 -0.024 -0.051 -0.024 -0.069 -0.071 -0.121 -0.058 -0.071 -0.016 -0.057 0.002 -0.146 -0.065 -0.263 -0.047 -0.192 -0.071 -0.208 -0.048 -0.139 -0.007 -0.024 z" vector-effect="non-scaling-stroke" fill="#000" fill-opacity="1" stroke="#FFF" stroke-width="0px" stroke-linejoin="round" stroke-linecap="round"/></svg>
