<svg xmlns="http://www.w3.org/2000/svg" xmlns:xlink="http://www.w3.org/1999/xlink" height="400" width="400" viewBox="92.17958984375 -28.517041015625 8.96767578124997 18.641650390625"><path d="M 100.122 -20.317 l -0.119 -0.063 -0.049 -0.036 -0.064 -0.009 -0.065 0.04 -0.052 0.043 -0.053 0.016 -0.081 0.005 -0.107 -0.022 -0.073 -0.02 -0.011 0.011 0.04 0.091 0.014 0.073 -0.016 0.038 -0.034 0.032 -0.052 0.025 -0.061 0.015 -0.054 -0.002 -0.087 -0.035 -0.066 -0.001 -0.057 0.017 -0.034 0.026 -0.019 0.032 -0.033 0.18 -0.029 0.056 -0.041 0.032 -0.041 0.003 -0.056 -0.009 -0.059 0.007 -0.267 0.07 -0.039 0.007 -0.084 0.005 -0.078 0.002 -0.055 -0.003 -0.128 -0.071 -0.062 -0.008 -0.034 0.02 -0.024 0.096 -0.075 0.061 -0.1 0.133 -0.023 0.194 0.01 0.135 -0.09 0.134 -0.008 0.065 0.048 0.311 -0.008 0.033 -0.018 0.016 -0.056 0.011 -0.094 0.033 -0.062 0.031 -0.03 0.004 -0.088 -0.023 -0.023 0 0.007 0.024 0.07 0.135 0.073 0.064 0.075 -0.007 0.033 0.013 -0.01 0.032 0.029 0.084 0.068 0.136 0.02 0.102 -0.041 0.102 0.008 0.036 0.023 0.021 0.064 0.095 0.136 0.148 0.134 0.16 0.112 0.133 0.082 0.092 0.182 0.172 0.032 0.081 0.007 0.163 0.045 0.094 0.042 0.067 0.029 0.056 0.067 0.184 0.029 0.025 0.146 -0.112 0.034 0.023 0.019 0.042 0 0.054 -0.023 0.061 -0.048 0.056 -0.226 0.13 -0.018 0.112 -0.016 0.17 -0.004 0.209 0.011 0.156 -0.008 0.036 -0.02 0.017 -0.085 -0.007 -0.123 0.079 -0.043 0.007 -0.054 0.03 -0.041 0.037 -0.013 0.057 0.024 0.171 0.044 0.161 0.086 0.118 0.068 0.094 0.095 0.13 0.075 0.113 0.151 0.124 0.212 0.186 0.081 0.103 0.072 0.124 0.051 0.106 0.019 0.141 0.016 0.079 0.004 0.264 -0.039 0.06 -0.03 0.069 0.017 0.073 0.05 0.069 0 0.079 0.046 0.142 0.078 0.087 0.075 0.059 0.033 0.046 -0.011 0.074 0.022 0.079 0.016 0.086 0.03 0.119 0.06 0.101 0.092 0.308 -0.002 0.032 -0.04 0.063 -0.058 0.056 -0.037 0.018 -0.035 0.058 -0.084 0.165 -0.169 0.284 -0.165 0.185 -0.138 0.132 -0.1 0.08 -0.03 0.048 0 0.037 0.018 0.067 -0.007 0.126 -0.021 0.08 -0.028 0.085 -0.016 0.076 -0.045 0.011 -0.095 0.144 -0.041 -0.072 -0.024 -0.075 0.026 -0.171 -0.058 -0.323 0.036 -0.043 0.035 -0.022 0.063 -0.124 0.077 -0.123 0.007 -0.146 0.062 -0.107 -0.015 -0.09 0.003 -0.105 0.013 -0.086 -0.005 -0.07 0.049 -0.073 0.085 -0.055 -0.036 -0.02 -0.035 -0.04 -0.111 0.061 -0.057 -0.02 -0.011 -0.063 0.014 -0.068 0.006 -0.041 0.045 -0.046 -0.003 -0.09 -0.022 -0.08 0.032 -0.099 -0.066 0 -0.03 -0.02 0.019 -0.055 0.06 -0.048 -0.054 -0.092 0.04 -0.099 -0.001 -0.122 -0.028 -0.108 0.001 -0.078 -0.042 -0.138 -0.019 -0.176 -0.089 -0.131 -0.066 -0.191 -0.176 -0.25 0.003 -0.107 -0.009 -0.094 -0.039 -0.046 -0.051 0.333 -0.039 -0.065 -0.012 -0.185 -0.026 -0.088 0.028 -0.175 -0.102 -0.174 -0.022 -0.126 -0.067 -0.191 0.02 -0.043 0.089 0.043 -0.082 -0.111 -0.067 0.025 -0.057 -0.12 -0.012 -0.326 -0.056 -0.122 0.03 -0.124 -0.064 -0.445 -0.126 -0.144 0.025 -0.124 0.031 -0.11 -0.007 -0.204 0.031 -0.063 0.061 -0.048 -0.058 0.017 -0.049 0.014 -0.115 0.012 -0.129 0.002 -0.045 -0.149 -0.064 -0.071 -0.056 -0.149 -0.033 -0.169 0.022 -0.033 -0.1 -0.069 -0.026 -0.042 -0.104 -0.11 -0.119 -0.084 0.026 0.059 0.032 0.037 -0.059 0.102 0.058 0.172 -0.051 0.11 -0.047 0.143 -0.045 0.068 -0.143 0.146 -0.116 0.05 -0.075 0.009 -0.067 -0.016 -0.082 -0.075 -0.02 -0.063 -0.013 -0.106 -0.029 -0.015 -0.031 0.012 0.049 0.137 -0.001 0.064 0.088 0.123 -0.031 0.034 -0.158 0.068 -0.054 -0.011 -0.038 0.013 -0.011 0.055 -0.02 0.031 -0.249 0.085 -0.052 0.096 -0.032 0.097 -0.124 0.139 -0.166 0.115 -0.041 -0.007 -0.047 -0.027 0.006 -0.124 0.057 -0.105 -0.018 -0.112 -0.014 0.064 -0.107 0.156 -0.049 0.051 -0.099 -0.013 -0.136 0.021 -0.051 -0.161 0.001 -0.059 -0.01 -0.05 0.016 -0.053 -0.005 -0.042 -0.033 0.08 -0.012 0.07 -0.05 0.062 -0.137 0.067 -0.005 -0.084 -0.005 -0.076 0.029 -0.068 -0.004 -0.109 0.043 -0.157 -0.003 -0.054 -0.013 -0.059 -0.024 0.086 -0.014 0.089 -0.028 0.027 -0.05 0.02 -0.092 0.103 -0.054 0.092 -0.143 0.087 -0.075 -0.009 -0.01 -0.11 0.057 -0.391 0.056 -0.055 0.026 -0.068 0.047 -0.228 0.052 -0.086 0.021 -0.181 0.021 -0.031 0.07 -0.142 0.025 -0.261 -0.029 -0.13 -0.066 -0.126 -0.064 -0.377 -0.165 -0.306 -0.014 -0.102 -0.081 -0.123 0.075 -0.009 -0.154 -0.108 -0.021 -0.044 -0.031 -0.253 0.006 -0.141 -0.022 0.019 -0.021 0.087 -0.061 0.036 0.027 0.151 -0.007 0.037 -0.032 0.059 -0.129 -0.061 -0.095 -0.066 -0.107 -0.162 -0.105 -0.181 0.037 -0.028 0.048 -0.004 0.149 0.135 0.097 0.028 0.061 -0.033 0.076 -0.057 0.036 -0.112 -0.037 -0.041 -0.073 -0.022 -0.048 -0.03 -0.07 -0.075 -0.009 -0.038 -0.021 -0.049 -0.071 -0.035 -0.057 -0.044 0.048 -0.078 0.047 -0.058 -0.125 0.003 -0.143 -0.1 -0.029 -0.029 -0.047 -0.02 -0.112 -0.012 -0.093 0.029 0.042 0.142 -0.008 0.047 -0.061 -0.007 -0.128 -0.217 0.038 -0.055 0.055 -0.052 -0.027 -0.007 -0.053 0.003 0.052 -0.192 -0.031 -0.029 -0.017 0.06 -0.028 0.058 -0.109 0.136 -0.054 -0.025 -0.037 -0.034 0.052 -0.071 0.028 -0.019 0.019 -0.039 -0.04 -0.075 -0.064 -0.054 -0.051 -0.094 -0.027 -0.001 0.024 0.111 -0.01 0.158 -0.115 -0.174 -0.23 -0.248 -0.054 -0.074 -0.012 -0.073 -0.026 -0.067 -0.018 -0.073 -0.004 -0.057 -0.05 -0.051 -0.023 -0.09 -0.012 -0.091 0.029 -0.065 0.071 -0.07 0.051 -0.012 0.042 0.031 0.099 0.046 0.067 0.043 0.029 0.056 0.031 -0.007 0.032 -0.036 -0.006 -0.045 -0.032 -0.117 -0.009 -0.142 -0.001 -0.331 -0.008 -0.038 0.055 -0.033 0.022 -0.038 0.022 -0.057 0.014 -0.025 0.032 -0.001 0.05 0.028 0.083 0.095 0.055 0.021 0.055 -0.015 0.057 -0.142 0.021 -0.038 0.028 -0.025 0.051 0.004 0.03 -0.025 0.011 -0.061 0 -0.068 -0.057 -0.187 -0.017 -0.086 -0.009 -0.085 0.036 -0.088 0.048 -0.102 -0.012 -0.089 0.013 -0.035 0.04 -0.005 0.05 0.022 0.054 -0.015 0.041 -0.055 0.017 -0.048 0.025 -0.207 0.017 -0.189 0.007 -0.154 -0.042 -0.092 -0.065 -0.248 0.019 -0.042 0.029 -0.01 0.097 0.087 0.042 0.015 0.07 -0.013 0.069 -0.019 0.05 -0.001 0.072 0.03 0.1 0.033 0.155 0.041 0.064 0.031 0.053 -0.004 0.043 -0.096 0.049 -0.141 0.073 -0.209 0.084 -0.152 0.022 -0.04 0.094 -0.124 0.091 -0.13 0.079 -0.164 0.044 -0.118 -0.004 -0.049 -0.028 -0.041 -0.06 -0.026 -0.049 -0.027 -0.013 -0.024 0.001 -0.028 0.025 -0.076 0.043 -0.09 0.045 -0.049 0.118 -0.06 0.075 -0.078 0.085 -0.103 0.046 -0.07 0.023 -0.142 0.025 -0.028 0.052 -0.046 0.039 -0.054 -0.003 -0.029 -0.021 -0.021 -0.039 -0.1 -0.018 -0.156 0.009 -0.127 0.03 -0.052 0.039 -0.072 0.073 -0.044 0.104 -0.031 0.159 -0.084 0.275 -0.194 0.099 -0.063 0.068 -0.033 0.066 -0.081 0.091 -0.089 0.129 -0.044 0.083 -0.017 0.392 -0.061 0.066 0.008 0.066 0.035 0.082 0.118 0.073 0.045 0.085 0.031 0.064 -0.013 0.002 -0.048 -0.202 -0.276 -0.018 -0.075 -0.007 -0.072 0.023 -0.057 0.063 -0.054 0.087 -0.062 0.108 -0.077 0.068 -0.053 0.08 -0.017 0.029 -0.031 0.008 -0.045 -0.004 -0.049 -0.036 -0.055 0.008 -0.069 0.012 -0.063 0.034 -0.037 0.075 -0.099 0.046 -0.072 0.024 -0.031 0.036 -0.054 0.061 -0.007 0.06 0.017 0.036 0.031 0.035 0.062 0.039 0.051 0.047 0 0.048 -0.007 0.023 0.007 0.046 0.043 0.088 0.102 0.039 0.026 0.037 0.044 0.019 0.087 0.012 0.088 0.111 0.304 0.033 0.064 0.025 0.049 0.052 0.012 0.042 -0.049 0.017 -0.052 0.044 -0.018 0.052 0.01 0.095 0.049 0.051 0.026 0.026 0.151 0.006 0.177 -0.008 0.055 0.042 0.146 0.013 0.168 0.009 0.092 0.001 0.088 -0.008 0.115 -0.022 0.154 -0.038 0.131 0.014 0.109 -0.022 0.05 -0.091 0.025 -0.008 0.042 0.027 0.069 0.064 0.086 0.002 0.054 -0.031 0.037 -0.067 0.003 -0.093 0.034 -0.064 0.111 -0.068 0.091 -0.037 0.018 -0.124 -0.026 -0.03 0.023 -0.043 0.155 -0.036 0.067 -0.053 0.056 -0.049 0.033 -0.044 0.023 -0.098 -0.016 -0.052 0.094 -0.052 0.124 -0.004 0.064 0.027 0.1 -0.014 0.028 -0.053 0.022 -0.087 0.045 -0.054 0.144 0.002 0.14 0.032 0.048 0.06 0.021 0.043 0.043 0.004 0.067 0.038 0.084 -0.018 0.098 -0.122 0.142 -0.004 0.077 0.065 0.024 0.056 -0.011 0.07 -0.034 0.082 -0.054 0.179 -0.079 0.196 -0.045 0.155 -0.008 0.132 0.003 0.065 0.017 0.019 0.029 0.181 -0.046 0.038 -0.003 0.033 -0.002 -0.001 0.031 -0.132 0.127 -0.025 0.059 0.004 0.063 0.054 0.059 0.053 0.045 0.045 0.113 -0.034 0.104 0.022 0.038 0.039 0.042 0.024 0.06 0.003 0.073 -0.022 0.116 0.191 0.061 0.165 0.027 0.121 0.007 0.077 0.027 0.046 0.023 0.033 0.042 0.01 0.045 -0.04 0.032 -0.082 0.102 -0.047 0.136 0.005 0.102 -0.005 0.088 -0.095 0.128 -0.038 0.088 -0.033 0.09 0.001 0.039 0.02 0.027 0.04 0.016 0.07 0.01 0.086 -0.01 0.204 0.022 0.233 0.039 0.092 0.022 0.03 0.04 -0.007 0.087 -0.015 0.081 0.015 0.062 0.038 0.057 0.063 0.019 0.054 0.022 0.01 0.044 -0.017 0.059 0.028 0.047 0.031 0.031 0.067 0.018 0.136 -0.038 0.095 0.017 0.086 0.026 0.073 -0.014 0.073 -0.033 0.158 -0.15 0.184 -0.081 0.06 -0.019 0.041 0.01 0.01 0.011 -0.003 0.03 0.019 0.123 -0.008 0.014 -0.058 0.099 -0.153 0.102 -0.108 0.052 -0.063 0.002 -0.054 0.061 -0.044 0.121 -0.046 0.071 -0.047 0.021 -0.03 0.046 -0.014 0.07 0.027 0.038 0.068 0.005 0.005 0.02 -0.058 0.034 -0.072 0.012 -0.086 -0.01 -0.081 0.028 -0.077 0.065 -0.065 0.141 -0.054 0.217 z M 98.21 -10.953 l 0.084 0.173 -0.009 0.027 -0.013 0.013 -0.02 -0.005 -0.034 -0.093 -0.063 -0.06 -0.075 0.011 0.062 -0.077 0.025 -0.017 z M 98.183 -9.933 l -0.048 0.058 -0.016 -0.002 0.022 -0.097 0.08 -0.071 0.071 -0.006 -0.008 0.044 -0.052 0.054 z M 98.222 -11.478 l -0.005 0.022 -0.007 -0.001 -0.022 -0.016 0.014 -0.095 0.038 -0.078 0.039 -0.114 0.021 -0.025 0.008 0.06 -0.024 0.129 -0.021 0.07 z M 98.516 -11.905 l -0.042 0.006 -0.02 -0.162 0.012 -0.023 0.059 0.079 0.084 0.049 -0.033 0.032 z M 98.554 -11.745 l -0.025 0.206 -0.064 -0.029 -0.03 0 -0.038 -0.116 0.003 -0.031 -0.023 -0.077 0.147 -0.013 z M 98.414 -12.598 l 0.022 0.027 0.032 -0.001 -0.009 0.098 -0.079 0.12 -0.046 0.017 -0.021 0 0.018 -0.175 -0.029 -0.1 0.01 -0.067 0.084 0.031 z M 98.137 -12.15 l -0.012 0.006 -0.017 -0.003 -0.033 -0.016 -0.038 -0.068 0.02 -0.048 0.014 -0.012 0.033 0.004 0.018 0.009 0.006 0.017 -0.01 0.038 0.002 0.032 z M 94.477 -15.946 l -0.065 0.098 -0.024 -0.146 0.106 -0.081 0.052 -0.077 0.055 -0.053 0.017 0.064 -0.053 0.122 z M 97.575 -16.253 l -0.038 0.013 -0.057 -0.066 -0.011 -0.155 0.047 -0.036 0.026 -0.008 0.037 0.019 0.014 0.025 0.006 0.031 -0.01 0.032 z M 93.691 -18.684 l -0.017 0.009 -0.104 -0.084 -0.082 -0.108 0.131 -0.021 0.126 0.023 0.001 0.057 -0.027 0.092 z M 93.492 -19.893 l 0.021 0.138 -0.069 -0.052 -0.025 -0.071 -0.007 -0.073 z M 93.715 -19.558 l 0.115 0.083 0.045 -0.006 0.071 0.052 0.002 0.02 -0.013 0.043 -0.032 0.033 -0.087 0.033 -0.059 -0.027 -0.024 -0.091 -0.07 -0.043 -0.018 -0.036 0.044 -0.049 z M 98.542 -10.962 l -0.023 0.002 -0.021 -0.005 -0.021 -0.015 0.049 -0.107 z M 98.075 -11.692 l 0.008 0.056 -0.063 -0.059 -0.011 -0.164 0.049 0.104 0.021 0.023 z M 98.066 -12.39 l -0.006 0.036 -0.058 0.075 -0.051 -0.043 -0.013 -0.024 0.052 -0.048 0.055 0.007 0.015 -0.011 z M 98.315 -13.099 l -0.006 0.164 -0.05 -0.079 -0.008 -0.09 0.004 -0.084 0.011 -0.014 0.003 0.013 0.03 0.038 z M 94.805 -15.819 l -0.021 0.025 -0.041 -0.018 -0.01 -0.011 0.095 -0.11 0.01 0.041 z M 93.01 -19.924 l 0.013 0.095 -0.048 -0.039 -0.063 -0.132 0.002 -0.087 0.045 0.04 z" vector-effect="non-scaling-stroke" fill="#000" fill-opacity="1" stroke="#FFF" stroke-width="0px" stroke-linejoin="round" stroke-linecap="round"/></svg>
