<svg xmlns="http://www.w3.org/2000/svg" xmlns:xlink="http://www.w3.org/1999/xlink" height="400" width="400" viewBox="32.7126953125 -35.662060546875 1.84335937500001 0.661718749999999"><path d="M 34.004 -35.065 l -0.039 0.008 -0.062 -0.029 -0.037 -0.008 -0.034 0.026 -0.04 0.019 -0.035 0.008 -0.031 0.002 -0.05 0.019 -0.061 -0.005 -0.089 -0.016 -0.05 0.038 -0.012 -0.005 -0.008 -0.096 -0.032 -0.04 -0.04 -0.022 -0.058 0.009 -0.077 -0.003 -0.057 -0.016 -0.113 0.027 -0.092 0.03 -0.066 0.029 -0.05 -0.002 -0.085 -0.026 -0.064 -0.03 -0.008 -0.026 0.06 0.011 0.108 -0.021 0.046 -0.098 0.015 -0.112 0.182 0.032 0.184 0.017 0.151 0.006 0.149 -0.018 0.456 -0.12 0.129 -0.072 0.08 -0.024 0.139 -0.059 0.145 -0.033 -0.093 0.069 -0.521 0.301 -0.034 0.09 0.023 0.062 z" vector-effect="non-scaling-stroke" fill="#000" fill-opacity="1" stroke="#FFF" stroke-width="0px" stroke-linejoin="round" stroke-linecap="round"/></svg>
