<svg xmlns="http://www.w3.org/2000/svg" xmlns:xlink="http://www.w3.org/1999/xlink" height="400" width="400" viewBox="145.1521484375 -18.806787109375 0.683300781249955 4.69545898437499"><path d="M 145.708 -18.763 l -0.03 0.037 -0.026 -0.027 -0.007 -0.054 0.045 0.005 0.017 0.011 z M 145.712 -16.339 l -0.022 0.007 -0.032 -0.004 -0.022 -0.016 -0.005 -0.026 0.064 -0.002 0.024 0.02 z M 145.265 -14.158 l -0.05 0.047 -0.036 -0.01 -0.022 -0.016 -0.005 -0.027 0.08 -0.026 0.033 0.009 z M 145.778 -18.079 l -0.048 0.022 0.06 -0.098 0.018 -0.017 0.028 0.036 z M 145.752 -15.133 l -0.003 0.026 -0.051 -0.006 -0.014 -0.012 0.029 -0.09 0.073 -0.042 0.036 -0.008 -0.033 0.043 -0.006 0.048 z M 145.662 -14.971 l -0.041 0.051 -0.029 -0.079 -0.005 -0.032 0.038 -0.029 0.023 0.001 z" vector-effect="non-scaling-stroke" fill="#000" fill-opacity="1" stroke="#FFF" stroke-width="0px" stroke-linejoin="round" stroke-linecap="round"/></svg>
