<svg xmlns="http://www.w3.org/2000/svg" xmlns:xlink="http://www.w3.org/1999/xlink" height="400" width="400" viewBox="11.7216796875 16.96767578125 13.537109375 11.97109375"><path d="M 23.381 17.641 l 0.214 -0.041 0.204 -0.039 0.238 -0.039 0.19 -0.031 0.048 -0.008 0.458 0.037 0.2 0.026 0.069 0.025 0.09 0.066 0.167 0.159 -0.043 -0.006 -0.307 0.034 -0.117 0.043 -0.262 0.188 -0.056 -0.024 -0.063 -0.039 -0.053 -0.011 -0.115 0.045 -0.115 0.054 -0.127 0.077 -0.104 0.075 -0.034 0.04 -0.164 0.155 -0.053 0.025 -0.047 0.011 -0.019 -0.007 -0.02 -0.067 -0.1 -0.155 -0.161 -0.204 -0.047 -0.02 -0.032 -0.008 -0.119 0.01 -0.347 0.058 -0.293 0.049 -0.449 0.083 -0.482 0.067 -0.297 0.041 -0.258 0.012 0 0.202 0.001 0.408 0.001 0.408 0.001 0.408 0.001 0.408 0.001 0.408 0.001 0.408 0.001 0.408 0.001 0.408 0 0.178 -0.008 0.038 -0.148 0 -0.335 0 -0.282 0 -0.228 0 0 0.242 0 0.287 0 0.287 0 0.287 0 0.287 0 0.287 0 0.287 0 0.287 0 0.287 0 0.216 0 0.025 0 0.42 0 0.445 0 0.445 0 0.445 0 0.445 0 0.445 0 0.445 0 0.445 0 0.141 -0.103 -0.002 -0.206 0.054 -0.132 0.071 -0.057 0.087 -0.076 0.053 -0.095 0.019 -0.042 0.044 0.011 0.07 -0.036 0.054 -0.084 0.037 -0.136 -0.011 -0.187 -0.059 -0.238 -0.014 -0.29 0.031 -0.208 -0.015 -0.127 -0.06 -0.134 -0.034 -0.142 -0.009 -0.083 -0.025 -0.169 -0.045 -0.032 -0.077 -0.02 -0.058 -0.048 -0.062 -0.005 -0.05 0.038 -0.038 0.005 -0.061 -0.027 -0.084 -0.047 -0.041 -0.066 0.002 -0.041 -0.032 -0.016 -0.066 -0.039 -0.05 -0.093 -0.051 -0.123 0.039 -0.058 0.058 -0.034 0.091 -0.031 0.046 -0.016 0.076 -0.007 0.054 -0.032 0.057 -0.033 0.023 -0.034 -0.011 -0.063 0.023 -0.139 0.085 -0.04 0.045 -0.113 -0.081 -0.328 -0.305 -0.116 -0.079 -0.172 -0.187 -0.378 -0.579 -0.054 -0.112 -0.072 -0.28 -0.083 -0.208 -0.009 -0.12 0.04 -0.068 -0.024 -0.092 -0.042 -0.082 -0.129 -0.108 -0.037 -0.36 -0.086 -0.233 0.018 -0.192 -0.041 -0.175 -0.004 -0.112 0.019 -0.213 -0.069 -0.245 -0.14 -0.24 -0.126 -0.346 -0.018 -0.152 0.013 -0.408 -0.024 -0.166 0.001 -0.196 -0.05 -0.203 -0.021 -0.111 0.035 -0.087 0.021 0.028 0.036 0.013 0.024 -0.116 0.006 -0.103 -0.063 -0.253 -0.141 -0.259 -0.349 -0.422 -0.085 -0.161 -0.049 -0.133 -0.389 -0.557 -0.166 -0.393 -0.116 -0.339 -0.126 -0.156 -0.584 -1.101 -0.129 -0.176 -0.233 -0.21 -0.054 -0.07 -0.09 -0.2 -0.175 -0.269 -0.042 -0.251 -0.012 -0.284 0.021 -0.218 0.159 -0.023 0.111 -0.058 0.1 -0.004 0.099 0.045 0.105 0.003 0.041 -0.008 0.189 0.007 0.108 -0.052 0.129 -0.052 0.074 -0.046 0.104 -0.047 0.138 -0.048 0.078 0.004 0.096 0.018 0.128 0.018 0.072 0.032 0.086 0.101 0.133 0.092 0.098 0.055 0.112 0.072 0.034 0.028 0.049 0.015 0.03 0.005 0.208 -0.011 0.189 -0.01 0.203 0 0.383 0.001 0.383 0.001 0.383 0 0.383 0.001 0.383 0.001 0.383 0.001 0.383 0.001 0.383 0.001 0.157 0 0.273 0.003 0.288 0.003 0.032 0.006 0.032 0.019 0.026 0.018 0.102 0.127 0.13 0.133 0.108 0.063 0.129 0.037 0.121 0.014 0.113 -0.009 0.188 0.017 0.262 0.043 0.272 0.013 0.283 -0.018 0.199 0.024 0.115 0.065 0.117 0.044 0.12 0.023 0.163 -0.014 0.205 -0.05 0.174 0.007 0.081 0.037 0.048 0.001 0.302 -0.053 0.242 -0.043 0.363 -0.068 0.3 -0.056 0.444 -0.083 z" vector-effect="non-scaling-stroke" fill="#000" fill-opacity="1" stroke="#FFF" stroke-width="0px" stroke-linejoin="round" stroke-linecap="round"/></svg>
