<svg xmlns="http://www.w3.org/2000/svg" xmlns:xlink="http://www.w3.org/1999/xlink" height="400" width="400" viewBox="80.05166015625 -30.3875 8.10986328125 4.02719726562487"><path d="M 88.11 -27.871 l 0.041 0.027 0.004 0.045 -0.007 0.049 -0.041 0.107 -0.038 0.075 -0.044 0.158 -0.04 0.275 0.009 0.048 0.118 0.158 0.046 0.121 0.004 0.083 -0.05 0.138 -0.057 0.156 -0.028 0.035 -0.032 0.013 -0.146 -0.055 -0.1 0.008 -0.115 0.03 -0.12 -0.006 -0.1 -0.018 -0.126 0.063 -0.121 -0.034 -0.077 -0.039 -0.052 -0.108 -0.021 -0.014 -0.254 0.113 -0.061 0.007 -0.158 -0.061 -0.129 -0.06 -0.048 -0.018 -0.125 -0.024 -0.112 -0.014 -0.122 -0.038 -0.152 0.049 -0.061 -0.004 -0.057 -0.036 -0.03 -0.073 -0.008 -0.069 -0.051 -0.047 -0.08 -0.011 -0.112 0.043 -0.163 0.056 -0.053 -0.009 -0.048 -0.016 -0.018 -0.015 -0.023 -0.065 -0.026 -0.014 -0.038 -0.002 -0.067 -0.016 -0.083 -0.048 -0.252 -0.114 -0.032 -0.051 0.001 -0.112 -0.014 -0.046 -0.031 -0.049 -0.129 -0.05 -0.251 -0.08 -0.139 -0.064 -0.066 0.03 -0.128 0.027 -0.068 0.057 -0.082 -0.018 -0.195 -0.06 -0.104 -0.009 -0.063 0.021 -0.015 0.035 -0.08 0.039 -0.076 -0.031 -0.15 -0.042 -0.131 -0.023 -0.199 -0.051 -0.023 -0.078 -0.033 -0.077 -0.047 -0.014 -0.179 0.015 -0.164 -0.085 -0.176 -0.108 -0.075 -0.036 -0.049 -0.013 -0.042 0.015 -0.048 0.025 -0.044 0.007 -0.095 -0.047 -0.122 -0.067 -0.15 -0.082 -0.175 -0.114 -0.072 -0.065 -0.033 -0.049 -0.037 -0.046 -0.152 -0.075 -0.121 -0.059 -0.145 -0.071 -0.025 -0.014 -0.055 -0.042 -0.084 -0.053 -0.069 -0.016 -0.022 0.029 -0.017 0.031 -0.061 -0.007 -0.094 -0.054 -0.098 -0.057 -0.077 -0.053 -0.079 -0.054 -0.019 -0.04 0.033 -0.124 0.046 -0.106 0.039 -0.024 0.063 -0.07 0.023 -0.123 -0.001 -0.105 0.062 -0.149 0.085 -0.158 0.147 -0.17 0.064 -0.056 0.071 -0.038 0.136 -0.125 0.028 -0.02 0.059 -0.032 0.058 -0.008 0.044 0.016 0.045 0.066 0.055 0.062 0.067 -0.003 0.078 -0.053 0.162 -0.244 0.225 -0.05 0.213 0.025 0.188 0.036 0.056 0.082 0.036 0.086 0.024 0.044 0.062 0.051 0.266 0.122 0.154 0.11 0.213 0.148 0.16 0.065 0.142 0.005 0.08 0.058 0.12 0.115 0.101 0.133 0.127 0.123 0.088 -0.004 0.119 -0.04 0.146 -0.052 0.086 0.026 0.079 0.034 0.026 0.064 0.048 0.12 0.053 0.125 0.083 0.044 0.099 0.064 0.055 0.051 0.185 0.093 0.026 0.038 0.038 0.026 0.045 0.016 0.037 0.019 0.058 0.007 0.214 -0.056 0.057 0.007 0.033 0.01 0.001 0.02 -0.039 0.088 -0.033 0.112 0.034 0.056 0.09 0.023 0.199 0.017 0.268 -0.001 0.081 0.057 0.081 0.085 0.081 0.146 0.032 0.061 0.04 0.018 0.07 -0.024 0.011 -0.06 0.003 -0.089 0.058 -0.031 0.037 0.023 0.044 0.07 0.111 0.063 0.08 0.031 0.076 -0.011 0.032 -0.024 0.038 -0.122 0.06 -0.018 0.076 0.008 0.029 0.024 0.031 0.049 0.092 0.023 0.091 0.031 0.086 0.04 0.121 0.09 0.149 0.016 0.173 -0.002 0.091 0.002 0.067 0.007 0.06 -0.006 0.178 -0.065 0.073 -0.005 0.09 0.007 z" vector-effect="non-scaling-stroke" fill="#000" fill-opacity="1" stroke="#FFF" stroke-width="0px" stroke-linejoin="round" stroke-linecap="round"/></svg>
