<svg xmlns="http://www.w3.org/2000/svg" xmlns:xlink="http://www.w3.org/1999/xlink" height="400" width="400" viewBox="-68.37109375 -53.62548828125 75.568359375 41.593408203125"><path d="M 5.994 -50.75 l -0.101 -0.002 -0.095 -0.002 -0.05 -0.005 -0.053 -0.015 0 0 -0.024 -0.031 -0.03 -0.038 0.008 -0.023 0.089 -0.065 0.013 -0.018 -0.009 -0.01 0.009 -0.029 0.068 -0.098 0.009 -0.039 -0.031 -0.027 -0.044 -0.016 -0.144 -0.029 -0.068 -0.041 -0.032 -0.036 -0.032 -0.01 -0.047 0.012 -0.119 0.013 -0.097 -0.019 -0.114 -0.068 -0.026 -0.06 -0.014 -0.046 -0.029 -0.016 -0.038 0.024 -0.049 0.038 -0.096 0.004 -0.027 -0.009 -0.005 -0.021 -0.005 -0.02 -0.026 -0.025 -0.029 -0.014 -0.122 0.069 -0.045 0 -0.057 -0.027 -0.028 -0.026 -0.063 0.015 -0.056 0.032 0.019 0.06 -0.03 0.011 -0.069 -0.006 -0.078 -0.025 -0.087 -0.015 -0.132 -0.042 -0.185 0.034 -0.128 -0.041 -0.107 -0.004 -0.066 -0.032 -0.072 -0.055 0.051 -0.036 0.049 -0.012 0.195 -0.007 0.142 0.022 0.255 0.118 0.064 -0.001 0.068 -0.015 -0.035 -0.032 -0.064 -0.015 -0.095 -0.032 -0.076 -0.045 0.178 -0.014 -0.025 -0.023 -0.023 -0.039 -0.188 -0.138 0.032 -0.037 0.047 -0.08 0.059 -0.066 0.047 -0.018 0.077 -0.047 0.167 -0.138 0.107 -0.112 0.079 -0.133 0.116 -0.367 0.034 -0.062 0.056 -0.069 0.07 0.013 0.049 0.02 0.173 -0.052 0.297 -0.136 0.088 -0.118 0.086 -0.055 0.342 -0.106 0.189 -0.032 0.291 -0.008 0.21 -0.019 0.253 -0.007 0.096 0.066 0.056 0.048 0.09 0.027 0.139 0.018 -0.008 0.095 0.001 0.188 -0.01 0.033 -0.062 0.079 -0.066 0.142 -0.018 0.093 -0.02 0.018 -0.265 -0.001 -0.038 0.016 -0.005 0.02 0.013 0.024 -0.006 0.024 -0.021 0.019 0.011 0.031 0.046 0.035 0.084 0.022 0.09 0.002 0.046 -0.004 0.034 0.025 0.033 0.039 -0.003 0.049 -0.013 0.065 -0.042 0.06 -0.122 0.07 -0.055 0.025 -0.051 0.013 -0.025 0.018 -0.012 0.023 0.003 0.021 0.087 0.056 -0.002 0.013 -0.025 0.029 -0.033 0.027 -0.224 0.057 -0.093 -0.004 -0.053 0.028 -0.017 0.005 -0.059 -0.026 -0.131 -0.03 -0.049 0.01 -0.027 0.016 -0.082 0.02 -0.059 0.031 0 0.04 0.104 0.104 0.037 0.02 0.002 0.039 0.05 0.049 0.052 0.061 0.006 0.039 -0.006 0.039 -0.027 0.056 -0.09 0.131 -0.001 0.025 0.008 0.019 0.031 0.005 0.024 0.01 -0.007 0.017 -0.169 0.091 -0.022 0.016 -0.071 -0.004 -0.011 0.015 0.01 0.024 0.028 0.021 0.06 0.011 0.052 0.023 0.042 0.045 z M 5.867 -52.563 l -0.032 -0.046 -0.182 -0.02 -0.034 -0.029 -0.006 -0.026 0.005 -0.073 0.007 -0.024 0.042 -0.035 -0.01 -0.034 -0.11 0.006 -0.092 -0.012 -0.035 -0.017 -0.007 -0.028 -0.015 -0.139 -0.021 -0.023 -0.108 0.037 -0.117 0.061 -0.084 0.043 0.026 0.037 0.024 0.05 0.047 0.05 0.083 0.055 -0.006 0.061 -0.104 0.043 -0.072 0.003 -0.006 0.058 0.01 0.045 -0.001 0.069 -0.007 0.021 -0.026 0.026 -0.022 0.04 0.026 0.02 0.276 0.053 0.179 0.04 0.3 -0.176 0.075 -0.058 z M 4.226 -51.386 l -0.015 0.038 -0.039 0.042 -0.133 0.06 -0.138 0.039 -0.071 -0.005 -0.049 -0.021 -0.026 -0.022 -0.074 -0.021 -0.102 -0.01 -0.063 0.023 -0.045 0.021 -0.039 -0.004 -0.03 -0.018 -0.023 -0.027 -0.03 -0.087 0.076 -0.016 0.164 -0.006 0.127 0.03 0.167 0.015 0.128 -0.041 0.1 0.035 z M 6.333 -53.511 l -0.14 0.034 -0.034 -0.007 0.008 -0.01 0.123 -0.021 z M 5.929 -53.459 l -0.197 0.016 -0.067 -0.012 -0.011 -0.012 0.054 -0.007 0.168 -0.002 0.052 0.01 z M 5.109 -53.308 l -0.185 0.073 -0.016 -0.012 0.119 -0.064 z M 5.326 -53.386 l -0.093 0.008 -0.042 -0.014 0.225 -0.04 0.142 -0.012 0.025 0.005 z M 4.886 -53.071 l -0.099 0.071 -0.06 -0.02 -0.018 -0.016 0.031 -0.055 0.147 -0.092 z M 3.949 -51.739 l 0.098 0.055 0.021 0.017 0.008 0.019 -0.124 0.022 -0.132 -0.067 -0.087 0.016 -0.033 -0.032 0 -0.02 0.091 -0.017 z M 6.735 -53.583 l -0.093 0.003 0.026 -0.026 0.086 -0.02 0.046 0 z M -68.206 -12.145 l -0.049 0.112 -0.028 -0.05 -0.005 -0.089 -0.02 -0.035 -0.041 -0.021 -0.023 -0.029 0.002 -0.044 0.15 0.071 z M -62.938 -17.496 l -0.024 0.021 -0.021 -0.002 -0.014 -0.02 -0.002 -0.034 0.02 0.009 0.008 0.005 0.006 0.007 z M -63.233 -17.623 l -0.009 0.004 -0.013 -0.009 0.002 -0.017 0.01 -0.007 0.008 0.005 0.007 0.013 z M 5.801 -52.466 l -0.06 0.037 -0.12 0.053 -0.073 0.052 -0.049 0.023 -0.075 0.004 -0.182 -0.036 -0.058 -0.025 -0.015 -0.02 0.208 -0.112 0.162 -0.067 0.119 -0.03 0.077 0.005 0.062 0.018 0.032 0.029 0.005 0.033 z" vector-effect="non-scaling-stroke" fill="#000" fill-opacity="1" stroke="#FFF" stroke-width="0px" stroke-linejoin="round" stroke-linecap="round"/></svg>
