<svg xmlns="http://www.w3.org/2000/svg" xmlns:xlink="http://www.w3.org/1999/xlink" height="400" width="400" viewBox="-176.84765625 8.54648437500001 355.38388671875 44.023828125"><path d="M 173.115 41.279 l 0.116 0.005 0.107 -0.073 0.109 -0.06 0.115 -0.049 0.175 -0.113 0.046 -0.017 0.114 -0.022 0.05 -0.027 0.055 -0.006 -0.05 0.067 -0.063 0.022 -0.01 0.024 0.035 0.039 -0.055 0.054 0.002 0.068 -0.065 0.08 0.099 -0.033 0.036 -0.052 -0.019 -0.029 0.043 -0.058 0.066 -0.028 -0.026 -0.044 0.002 -0.035 0.081 0.013 0.041 -0.001 0.032 -0.014 0.059 -0.005 0.012 0.039 0.079 -0.005 -0.029 0.049 -0.06 0.057 -0.014 0.035 -0.096 0.057 -0.065 0.025 0.1 0.006 0.146 -0.077 0.087 -0.068 -0.003 0.085 -0.07 0.076 -0.06 0.048 -0.068 0.015 -0.067 0.039 -0.033 0.064 0.004 0.042 0.019 0.033 0.069 0.057 -0.077 0.109 0.086 -0.014 0.047 0.021 0.066 0.063 -0.04 0.072 -0.028 0.037 -0.168 0.153 -0.073 0.078 -0.086 0.05 0.001 0.081 -0.049 0.059 -0.251 0.203 -0.044 0.044 -0.198 0.323 -0.126 0.136 -0.072 0.046 -0.076 0.037 -0.183 0.064 -0.081 0.074 -0.089 0.061 -0.095 0.014 0.003 0.027 0.061 0.015 0.047 0.04 -0.035 0.045 -0.067 0.028 -0.07 0.008 -0.036 0.029 0.167 -0.02 0.047 0.024 0.009 0.049 0.017 0.045 0.04 0.059 0.14 0.038 0.126 0.018 0.025 0.027 0.019 0.094 -0.023 0.046 -0.028 0.03 -0.042 0.011 -0.103 0.006 -0.103 -0.021 -0.068 -0.057 -0.195 0.018 -0.052 0.012 -0.027 -0.01 0.108 -0.06 -0.057 -0.034 -0.047 -0.013 -0.051 0.02 -0.034 0.031 -0.01 0.052 -0.035 0.03 -0.054 0.008 -0.076 -0.043 -0.075 -0.061 -0.11 -0.062 0.017 0.038 0.085 0.094 0.043 0.062 -0.099 0.05 -0.103 0.039 -0.087 0.023 -0.082 0.035 -0.096 0.055 -0.053 0.02 -0.141 0.001 -0.075 0.017 -0.025 0.073 -0.053 0.046 -0.124 0.009 0.045 0.015 0.028 0.023 -0.082 0.219 -0.018 0.091 -0.015 0.156 -0.052 0.144 -0.147 -0.001 0.024 0.026 0.111 0.041 -0.021 0.062 -0.123 0.112 -0.051 0.065 -0.05 0.158 -0.075 0.145 -0.115 0.165 -0.001 0.03 0.04 0.042 0.049 0.036 0.003 0.051 -0.015 0.027 -0.054 0.007 -0.048 0.018 -0.255 0.045 -0.084 0.051 -0.069 0.091 -0.081 0.078 -0.268 0.174 -0.158 0.145 -0.032 0.042 -0.042 0.03 -0.344 0.069 -0.244 0.01 -0.133 -0.018 -0.128 -0.035 -0.071 -0.012 -0.135 0.021 -0.059 0.023 -0.106 -0.023 -0.084 0.017 -0.025 -0.017 -0.032 -0.043 0.017 -0.057 -0.023 -0.042 -0.054 -0.028 -0.036 -0.033 -0.041 -0.024 -0.112 -0.009 -0.177 0.015 -0.058 -0.002 -0.12 -0.139 -0.04 -0.034 -0.143 -0.044 -0.049 0.006 -0.076 0.074 -0.045 0.013 -0.269 0.008 -0.27 -0.024 -0.099 -0.028 -0.019 -0.064 0.205 -0.176 -0.06 0.024 -0.126 0.072 -0.08 -0.011 0.077 -0.078 0.007 -0.035 -0.016 -0.039 -0.105 0.066 -0.12 0.008 -0.016 -0.061 0.011 -0.071 0.025 -0.02 0.323 -0.037 0.117 -0.024 0.051 -0.038 -0.193 -0.013 -0.012 -0.053 0.028 -0.043 0.165 -0.071 -0.122 0.018 -0.135 -0.006 0.009 -0.075 0.035 -0.059 0.142 -0.002 -0.044 -0.04 -0.006 -0.056 0.039 -0.004 0.144 0.076 0.104 0.028 -0.044 -0.057 0.006 -0.036 0.028 -0.016 0.085 -0.012 -0.023 -0.01 -0.079 -0.014 -0.095 -0.043 -0.01 -0.046 0.003 -0.053 0.102 -0.073 0.06 0.043 0.071 -0.012 -0.054 -0.034 -0.033 -0.051 0.023 -0.034 0.216 -0.136 0.055 0.13 0.013 -0.043 0.003 -0.041 -0.026 -0.036 0.004 -0.036 0.025 -0.031 0.093 -0.031 0.121 -0.1 0.089 -0.046 0.072 0.03 0.05 0.04 -0.007 -0.04 -0.035 -0.033 -0.01 -0.091 0.162 -0.142 0.178 -0.135 0.17 -0.142 0.091 -0.051 0.194 -0.058 0.124 0.024 0.032 -0.004 0.184 -0.102 0.076 -0.026 0.069 0.036 0.043 0.013 -0.043 -0.093 0.034 -0.043 0.154 -0.075 0.192 -0.078 0.146 -0.032 0.108 -0.053 0.065 -0.001 -0.01 -0.04 0.011 -0.038 0.056 0.003 0.017 -0.015 -0.049 -0.021 0.159 -0.077 0.086 -0.084 0.045 -0.017 0.041 -0.025 0.051 -0.058 0.06 -0.019 0.056 0.009 0.04 0.029 -0.022 -0.048 -0.071 -0.027 0.077 -0.041 0.079 -0.029 0.077 0.021 0.076 0.033 -0.076 -0.051 -0.012 -0.032 0.092 -0.037 0.05 -0.011 0.07 0.069 -0.01 -0.054 0.016 -0.048 0.099 -0.079 0.13 -0.13 0.042 0.045 0.006 0.055 -0.006 0.066 0.027 -0.023 0.009 -0.06 -0.02 -0.106 0.162 -0.196 0.032 -0.022 0.036 -0.013 0.056 -0.005 -0.017 -0.03 -0.044 -0.029 0.044 -0.099 0.026 -0.113 0.038 -0.109 0.06 -0.107 0.066 -0.178 0.05 -0.037 0.136 -0.013 0.059 -0.025 0.099 -0.064 0.117 -0.117 0.063 -0.094 0.083 -0.243 0.046 -0.254 0.133 -0.189 0.195 -0.137 0.172 -0.104 0.071 -0.022 0.119 -0.007 0.113 0.029 -0.211 0.025 -0.021 0.062 -0.007 0.062 0.025 0.056 0.038 0.05 0.102 0.047 0.12 0.028 0.054 0.105 0.01 0.125 0.017 0.107 z M 173.915 40.864 l -0.134 0.058 0.005 -0.04 0.026 -0.088 0.061 -0.044 0.03 -0.003 0.061 -0.033 -0.006 0.074 z M 166.746 45.656 l -0.005 0.049 -0.012 0.025 -0.035 0 -0.052 -0.005 -0.051 -0.023 -0.033 0.006 -0.027 -0.008 0.035 -0.055 0.119 -0.029 0.046 0.024 z M 166.979 45.18 l 0.043 0.12 -0.092 -0.023 -0.038 -0.036 0.07 -0.06 z M 168.145 46.862 l 0 0.04 -0.104 -0.014 0.002 0.045 0.082 0.024 0.03 0.032 0.085 -0.009 0.019 0.048 -0.02 0.043 -0.057 0.032 -0.169 0.016 -0.109 0.062 -0.095 -0.009 -0.026 0.006 -0.109 0.067 -0.121 0.021 -0.033 -0.005 0.017 -0.06 0.09 -0.057 0.002 -0.054 0.023 -0.044 0.087 -0.031 0.001 -0.057 0.059 -0.05 -0.036 -0.109 0.019 -0.098 0.172 -0.005 z M 175.543 36.279 l 0.008 0.055 -0.077 -0.019 -0.03 -0.041 -0.086 -0.043 -0.013 -0.013 -0.01 -0.083 0.045 -0.04 0.008 -0.017 0.02 -0.007 0.035 0.044 0.068 0.062 z M 173.269 34.935 l 0.015 0.046 0.055 -0.033 0.041 -0.051 0.067 -0.052 -0.009 0.084 0.034 0.018 0.221 0.059 0.046 0.049 0.047 0.014 0.027 -0.027 0.031 -0.015 0.08 0.031 0.18 0.086 0.015 0.029 -0.009 0.044 0.009 0.046 0.024 0.037 0.06 0.009 0.08 -0.055 0.037 -0.007 0.053 0.078 0.02 0.044 -0.008 -0.001 0.034 0.044 0.046 0.043 0.079 0.128 -0.012 0.045 -0.023 0.04 0.072 0.118 -0.047 0.008 -0.142 -0.02 0.005 0.024 0.083 0.087 0.07 0.123 0.056 0.074 0.197 0.229 -0.03 0.081 0.005 0.054 -0.025 0.046 0.067 0.121 -0.042 0.038 -0.028 0.124 -0.031 0.022 0.004 0.045 0.079 0.012 0.048 0.019 0.042 0.037 0.026 -0.044 0.035 -0.012 0.095 0.059 0.198 0.059 0.054 0.022 0.027 0.048 0.02 0.115 0.039 0.051 0.076 0.01 0.082 -0.015 0.026 -0.042 -0.016 -0.113 -0.059 -0.181 0 -0.059 0.008 -0.059 -0.014 -0.058 -0.029 -0.055 -0.032 -0.042 -0.041 -0.036 0.014 -0.056 0.061 -0.025 0.037 0.047 0.03 0.057 0.153 0.168 0.091 -0.012 0.008 0.069 0.062 0.071 0.034 0.083 0.045 0.247 0.069 0.232 0.124 0.101 0.014 0.048 -0.076 -0.025 -0.023 0.015 0.008 0.024 0.071 0.044 0.083 0.022 0.052 -0.003 0.049 0.016 0.323 0.151 0.155 0.059 0.392 0.096 0.112 0.008 0.062 -0.003 0.117 -0.033 0.105 -0.06 0.091 -0.09 0.078 -0.102 0.085 -0.05 0.097 -0.039 0.049 -0.036 0.051 -0.026 0.263 0.012 0.089 0.052 0.115 0.041 0.06 0.032 -0.02 0.066 -0.069 0.097 -0.053 0.106 -0.047 0.241 -0.032 0.243 -0.048 0.107 -0.087 0.083 -0.096 0.06 -0.109 0.028 -0.044 0.138 -0.022 0.162 0.006 0.041 0.035 0.032 0.014 0.048 -0.057 0.097 -0.033 -0.014 -0.047 -0.081 -0.043 -0.034 -0.13 -0.025 -0.133 -0.012 -0.115 0.007 -0.111 0.035 -0.168 0.07 -0.052 0.036 -0.046 0.045 -0.077 0.101 -0.018 0.123 0.004 0.065 0.027 0.05 0.143 0.068 -0.142 0.238 -0.126 0.247 -0.071 0.071 -0.082 0.065 -0.077 0.149 -0.135 0.128 -0.091 0.098 -0.071 0.101 -0.062 0.108 -0.133 0.152 -0.059 0.101 -0.077 0.084 -0.143 0.107 -0.152 0.092 -0.24 0.127 -0.067 0.042 -0.071 0.031 -0.088 -0.036 -0.018 -0.039 -0.02 -0.086 -0.019 -0.032 -0.112 -0.026 -0.148 0.042 -0.025 -0.009 -0.006 -0.02 0 -0.126 0.025 -0.036 -0.035 -0.02 -0.034 0.008 -0.012 0.032 0.021 0.028 -0.084 0.035 -0.087 0.001 -0.027 -0.014 -0.008 -0.023 0.021 -0.038 0.028 -0.034 0.163 -0.159 0.169 -0.211 0.146 -0.226 0.038 -0.116 0.054 -0.216 -0.044 -0.09 -0.054 -0.084 -0.147 -0.163 -0.196 -0.092 -0.126 -0.013 -0.12 -0.034 -0.113 -0.078 -0.103 -0.092 -0.203 -0.075 -0.214 -0.059 -0.122 -0.083 -0.029 -0.05 -0.019 -0.057 0.003 -0.053 0.015 -0.054 0.024 -0.042 0.038 -0.03 0.227 -0.108 0.24 -0.06 0.044 0.001 0.042 -0.01 0.06 -0.037 0.108 -0.084 0.031 -0.057 0.021 -0.18 0.034 -0.177 0.062 -0.203 0.094 -0.126 0.031 -0.077 -0.038 -0.127 0.035 -0.047 0.043 -0.028 0.048 -0.016 -0.082 -0.119 -0.097 -0.18 -0.02 -0.056 0.015 -0.055 0.024 -0.054 -0.06 -0.014 -0.035 -0.052 -0.087 -0.175 0.024 -0.028 0.05 0.019 0.075 0.126 0.012 -0.065 0.057 -0.04 0.06 -0.021 0.065 -0.004 -0.147 -0.141 -0.049 0.006 -0.065 0.022 -0.067 0.014 -0.065 -0.012 -0.061 -0.031 -0.031 -0.059 -0.038 -0.114 -0.024 -0.042 -0.193 -0.234 0.057 -0.007 0.156 0.117 0.03 -0.037 0.023 -0.054 -0.007 -0.06 -0.037 -0.045 -0.055 -0.03 -0.001 -0.053 0.042 -0.049 -0.003 -0.034 -0.089 -0.07 -0.036 -0.007 -0.016 0.033 0.025 0.048 -0.024 0.005 -0.217 -0.127 -0.067 -0.102 -0.055 -0.112 -0.006 0.046 0.008 0.064 0.086 0.128 0.139 0.143 0.024 0.038 -0.021 0.049 -0.048 0.014 -0.043 -0.031 -0.064 -0.123 -0.046 -0.061 -0.533 -0.633 0.068 -0.084 0.106 -0.07 0.025 -0.031 0.016 -0.038 -0.045 -0.007 -0.04 0.017 -0.046 0.032 -0.042 0.037 -0.053 0.082 -0.025 0.019 -0.062 -0.057 -0.024 -0.035 0.001 -0.042 -0.017 -0.027 -0.046 -0.008 -0.068 -0.083 -0.043 -0.042 0.072 -0.082 0.002 -0.108 -0.073 -0.113 -0.088 -0.103 -0.169 -0.168 -0.155 -0.177 0.168 -0.022 0.17 -0.004 -0.08 0.106 0.036 0.061 0.055 0.052 0.117 0.159 0.01 0.046 0.059 0.046 z M 169.178 52.497 l 0.055 0.051 -0.106 0.022 -0.052 -0.018 -0.036 -0.023 -0.018 -0.033 0.057 0.003 0.05 -0.014 z M 166.221 50.762 l 0.022 0.084 -0.055 0 -0.115 -0.023 -0.036 -0.036 -0.024 -0.009 -0.042 0.042 -0.067 0.002 -0.015 -0.014 0.026 -0.045 0.158 -0.084 0.029 -0.106 -0.002 -0.034 0.124 -0.008 0.029 0.013 0.013 0.015 -0.008 0.019 -0.05 0.035 -0.002 0.04 0.013 0.042 -0.041 0.02 0.021 0.036 z M -176.178 43.74 l -0.036 0.026 -0.061 -0.001 -0.107 0.102 0.006 -0.076 -0.032 -0.03 -0.092 0.007 -0.017 0.017 0.062 0.02 0.014 0.011 -0.059 0.044 0.061 0.095 0.054 -0.003 0.052 0.074 0 0.023 -0.119 0.028 -0.063 0.04 -0.056 -0.002 -0.026 -0.008 -0.031 -0.071 -0.002 -0.03 0.069 -0.052 0.039 -0.053 -0.031 -0.049 -0.079 -0.032 -0.173 0.014 -0.04 -0.011 0.087 -0.066 0.094 0.007 0.101 -0.048 z M -176.176 44.322 l -0.044 0.009 0.006 -0.057 -0.015 -0.037 0.075 -0.012 0.032 0.044 z M -172.479 8.581 l -0.005 0.002 -0.005 -0.011 -0.006 -0.012 -0.005 -0.011 0.002 -0.001 0.01 0.01 0.006 0.011 z M -171.186 9.355 l -0.002 0.003 -0.004 -0.006 -0.007 -0.008 -0.004 -0.011 0.003 -0.001 0.007 0.006 0.005 0.008 z" vector-effect="non-scaling-stroke" fill="#000" fill-opacity="1" stroke="#FFF" stroke-width="0px" stroke-linejoin="round" stroke-linecap="round"/></svg>
