<svg xmlns="http://www.w3.org/2000/svg" xmlns:xlink="http://www.w3.org/1999/xlink" height="400" width="400" viewBox="159.92822265625 19.1146484375 8.21083984375002 3.54648437499999"><path d="M 164.202 20.246 l 0.113 0.063 0.121 -0.027 0.152 0.099 0.388 0.3 0.136 0.063 0.08 0.024 0.061 0.049 0.054 0.069 0.074 0.049 0.032 0.046 0.008 0.061 0.027 0.038 0.135 0.099 0.08 0.087 0.112 0.045 0.048 0.052 0.063 0.025 0.064 0.053 0.108 0.042 0.246 0.153 0.19 0.146 0.095 0.09 0.102 0.08 0.13 0.064 0.122 0.073 0.062 0.171 -0.034 0.061 -0.07 0.03 -0.065 0.002 -0.061 0.021 -0.204 -0.111 -0.048 -0.016 -0.054 0.007 -0.03 -0.025 -0.021 -0.035 -0.124 -0.041 -0.116 -0.066 -0.033 -0.045 -0.019 -0.056 -0.028 -0.032 -0.163 -0.049 -0.11 -0.054 -0.08 -0.076 -0.124 -0.053 -0.193 -0.109 -0.099 -0.035 -0.087 -0.055 -0.232 -0.199 -0.083 -0.037 -0.072 -0.088 -0.2 -0.209 -0.096 -0.086 -0.105 -0.077 -0.08 -0.09 -0.062 -0.107 -0.143 -0.153 -0.018 -0.065 0.006 -0.067 -0.034 -0.043 -0.059 -0.026 -0.028 -0.045 0.003 -0.061 0.019 -0.031 z M 167.544 22.623 l -0.032 0.038 -0.039 -0.008 -0.03 -0.014 -0.022 -0.021 0.021 -0.077 0.086 0.038 z M 159.952 19.312 l -0.015 0.021 -0.008 -0.159 0.032 -0.06 0.015 0.124 z M 168.011 21.43 l 0.047 0.018 0.081 -0.003 -0.018 0.171 -0.114 0.027 -0.04 -0.002 -0.025 -0.036 -0.065 -0.024 0.003 -0.058 -0.064 -0.131 0.111 -0.02 0.063 -0.035 -0.004 0.032 0.01 0.037 z M 166.547 20.699 l -0.053 0.01 0.064 -0.092 0.002 -0.056 0.026 -0.111 -0.003 -0.037 0.042 0.005 0.046 0.032 -0.053 0.027 -0.018 0.048 0.002 0.06 0.02 0.011 -0.034 0.066 z M 167.401 21.161 l -0.055 0.008 -0.073 -0.072 -0.139 -0.036 -0.061 -0.063 -0.04 -0.075 0.079 -0.018 0.078 -0.101 -0.053 -0.037 -0.091 -0.007 0.011 -0.039 0.148 -0.047 0.065 0.027 0.029 0.032 -0.004 0.159 0.067 0.051 0.07 0.113 0 0.032 z" vector-effect="non-scaling-stroke" fill="#000" fill-opacity="1" stroke="#FFF" stroke-width="0px" stroke-linejoin="round" stroke-linecap="round"/></svg>
