<svg xmlns="http://www.w3.org/2000/svg" xmlns:xlink="http://www.w3.org/1999/xlink" height="400" width="400" viewBox="-87.670166015625 -15.008056640625 4.51264648437501 4.272705078125"><path d="M -83.158 -14.993 l -0.028 0.037 -0.031 0.024 -0.064 0.12 -0.022 0.011 -0.004 -0.088 -0.038 -0.012 -0.045 0.031 -0.025 0.045 0.039 0.059 0.034 0.001 0.042 0.016 0.111 0.409 -0.024 0.073 -0.069 0.114 -0.066 0.097 -0.066 0.06 -0.081 0.258 -0.074 0.419 0.053 0.376 -0.027 0.348 0.023 0.082 0.007 0.102 -0.054 0.018 -0.031 -0.003 -0.031 -0.063 0.004 -0.055 0.032 -0.065 0.013 -0.088 -0.015 -0.046 -0.032 0.1 -0.056 0.045 -0.037 0.015 -0.036 0.051 0.038 0.095 0.049 0.07 0.016 0.05 -0.018 0.06 -0.011 0.203 -0.017 -0.006 -0.018 -0.027 -0.052 -0.002 -0.006 0.082 0.004 0.046 -0.044 0.035 -0.016 0.035 0.036 0.025 0.04 0.015 0.049 -0.003 0.04 0.101 0.013 0.082 -0.093 0.076 -0.032 0.063 -0.053 0.076 -0.03 0.075 -0.009 0.054 0.036 0.17 0.064 0.12 0.054 0.076 0.072 0.017 -0.017 0.08 -0.054 0.051 -0.098 0.043 -0.108 0.008 -0.177 -0.04 -0.072 -0.005 -0.028 -0.021 -0.008 -0.04 -0.051 -0.059 -0.093 -0.079 -0.054 0.005 -0.087 -0.017 -0.145 -0.054 -0.067 -0.007 -0.096 0.046 -0.112 0.061 -0.27 -0.095 -0.189 -0.067 -0.17 -0.06 -0.045 -0.023 -0.037 0.005 -0.032 0.031 -0.037 0.056 -0.012 0.016 -0.02 0.015 -0.022 0.004 -0.001 -0.026 -0.083 -0.11 -0.133 -0.133 -0.508 -0.407 -0.187 -0.243 -0.1 -0.175 -0.095 -0.091 -0.274 -0.186 -0.063 -0.074 -0.272 -0.249 -0.207 -0.146 -0.003 -0.062 0.085 -0.078 0.042 0.004 0.045 0.056 0.074 0.063 0.035 0 0.051 -0.029 0.001 -0.029 0.278 -0.012 0.05 -0.016 0.05 -0.046 0.026 -0.064 0.004 -0.062 0.011 -0.044 0.045 -0.043 0.081 -0.013 0.063 -0.005 0.019 -0.029 -0.019 -0.094 -0.034 -0.228 -0.007 -0.063 0.012 -0.047 0.025 -0.017 0.123 -0.011 0.233 0.019 0.045 -0.014 0.094 -0.129 0.087 -0.095 0.062 -0.043 0.049 -0.013 0.057 0.084 0.197 0.121 0.033 -0.008 0.019 -0.007 0.006 -0.017 -0.003 -0.056 0.049 -0.051 0.102 -0.046 0.103 -0.08 0.103 -0.115 0.09 -0.068 0.076 -0.02 0.029 -0.031 -0.018 -0.043 0.006 -0.061 0.03 -0.079 0.044 -0.045 0.058 -0.012 0.023 -0.025 -0.012 -0.037 0.011 -0.041 0.052 -0.067 0.125 -0.057 0.071 0.019 0.059 0.077 0.084 0.052 0.108 0.028 0.084 -0.01 0.06 -0.048 0.054 -0.015 0.048 0.019 0.025 -0.011 0.003 -0.04 0.025 -0.009 0.047 0.022 0.042 0.006 0.036 -0.011 0.014 -0.02 0.007 -0.02 0.027 -0.015 0.094 0.015 0.105 -0.023 0.116 -0.062 0.077 -0.027 0.038 0.007 0.046 -0.031 0.053 -0.069 0.121 -0.031 z" vector-effect="non-scaling-stroke" fill="#000" fill-opacity="1" stroke="#FFF" stroke-width="0px" stroke-linejoin="round" stroke-linecap="round"/></svg>
