<svg xmlns="http://www.w3.org/2000/svg" xmlns:xlink="http://www.w3.org/1999/xlink" height="400" width="400" viewBox="2.68603515625 -13.8728515625 11.94111328125 9.59545898437501"><path d="M 7.301 -4.418 l -0.097 0.031 -0.063 -0.007 0.087 -0.132 0.044 0.028 0.057 0.012 z M 13.606 -13.705 l 0.157 0.215 0.169 0.231 0.132 0.18 0.096 0.466 0.01 0.089 0.007 0.04 0.007 0.037 0.013 0.063 0.075 0.027 0.143 0.012 0.104 0.046 0.062 0.076 0.006 0.013 0.033 0.058 0.007 0.042 -0.009 0.122 -0.021 0.157 -0.036 0.101 0.02 0.138 -0.006 0.059 -0.016 0.04 -0.064 0.046 -0.087 0.045 -0.207 0.133 -0.059 0.02 -0.087 0.004 -0.075 0.033 -0.089 0.072 -0.192 0.267 -0.165 0.268 -0.057 0.222 -0.064 0.212 -0.145 0.135 -0.02 0.076 -0.006 0.044 -0.005 0.102 -0.018 0.169 -0.022 0.081 -0.023 0.024 -0.156 0.051 -0.09 0.062 -0.054 0.123 -0.02 0.133 -0.032 0.151 -0.018 0.133 -0.024 0.069 -0.051 0.072 -0.08 0.078 -0.069 0.044 -0.179 0.029 -0.092 0.176 -0.078 0.137 -0.002 0.055 -0.075 0.285 -0.131 0.215 -0.009 0.076 -0.001 0.062 -0.164 0.189 -0.043 0.056 -0.042 0.073 0.041 0.07 0.046 0.064 0.007 0.022 -0.074 0.06 -0.129 0.105 -0.077 0.063 -0.017 0.034 -0.011 0.157 -0.023 0.042 -0.052 0.058 -0.076 0.063 -0.077 0.049 -0.087 0.034 -0.084 0.013 -0.047 -0.02 -0.027 -0.048 -0.047 -0.192 -0.024 -0.041 -0.054 -0.037 -0.108 -0.105 -0.109 -0.106 -0.131 -0.075 -0.028 0.005 -0.022 0.02 -0.037 0.107 -0.037 0.039 -0.069 0.014 -0.12 0.001 -0.088 -0.015 -0.02 -0.021 -0.018 -0.046 -0.024 -0.037 -0.105 0.075 -0.165 0.118 -0.054 0.019 -0.041 0.024 -0.054 0.11 -0.066 0.118 -0.086 0.062 -0.084 0.052 -0.048 0.045 -0.069 0.054 -0.135 0.133 -0.179 0.177 -0.063 0.091 -0.062 0.137 -0.036 0.151 -0.04 0.166 -0.058 0.266 -0.085 0.151 -0.075 0.12 -0.055 0.094 -0.029 0.078 -0.012 -0.003 -0.029 0.033 -0.083 -0.022 -0.038 -0.068 -0.052 -0.011 -0.089 -0.099 -0.019 0.017 0.094 0.251 -0.035 0.098 -0.265 0.002 -0.228 0.033 -0.157 -0.003 -0.079 -0.036 -0.035 -0.094 -0.013 0.01 -0.008 0.051 -0.05 0.04 -0.175 0.008 -0.078 -0.064 -0.063 -0.072 -0.067 -0.032 0.01 0.03 0.077 0.07 -0.009 0.101 -0.141 0.117 -0.09 0.007 -0.055 -0.05 -0.029 -0.082 -0.014 -0.122 -0.037 -0.079 -0.02 0 0.018 0.073 0.006 0.059 0.001 0.123 0.067 0.096 -0.103 0.03 -0.042 0.001 -0.082 0.002 -0.016 -0.036 -0.016 -0.079 -0.022 -0.021 -0.025 0.135 -0.055 0.009 -0.038 -0.001 -0.162 0.029 -0.036 -0.006 -0.008 -0.025 0.019 -0.037 -0.004 -0.06 -0.056 0.047 -0.009 0.093 -0.032 0.015 -0.097 -0.013 -0.106 -0.048 -0.064 -0.049 -0.108 -0.068 -0.211 -0.191 -0.034 -0.086 -0.06 -0.106 -0.045 -0.107 -0.065 -0.183 0.02 -0.013 0.049 0.016 0.024 -0.027 -0.088 -0.02 -0.018 -0.021 -0.006 -0.064 0.004 -0.078 0.071 -0.028 0.062 -0.013 0.031 -0.048 0.018 -0.048 -0.164 0.072 -0.153 -0.082 -0.033 -0.05 0.017 -0.038 0.073 -0.006 0.105 0.003 0.063 -0.037 -0.039 -0.013 -0.068 0.001 -0.025 -0.025 0.002 -0.06 -0.022 0.013 -0.029 0.053 -0.103 0.039 -0.06 -0.039 -0.006 -0.087 -0.013 -0.039 -0.051 -0.03 -0.181 -0.229 -0.227 -0.191 -0.202 -0.131 -0.305 -0.063 -0.639 0.002 -0.036 -0.018 0.039 -0.03 0.056 -0.02 0.206 -0.106 -0.035 -0.014 -0.214 0.067 -0.073 0.006 -0.095 0.128 -0.563 0.021 -0.066 0.006 0.002 -0.058 0.028 -0.168 0.018 -0.066 0.021 -0.05 -0.022 -0.06 -0.021 -0.081 -0.01 -0.127 0.026 -0.04 0.009 -0.048 -0.006 -0.075 0 -0.252 0.015 -0.027 0.018 -0.021 0.001 -0.033 -0.034 -0.065 -0.032 -0.074 0.001 -0.107 -0.013 -0.104 -0.022 -0.047 0.016 -0.176 0.009 -0.223 -0.008 -0.099 0.021 -0.07 0.011 -0.172 -0.002 -0.169 0.042 -0.266 0.123 -0.013 0.147 -0.022 0.066 -0.104 0.038 -0.132 -0.012 -0.131 0.029 -0.043 0.059 -0.071 0.106 -0.101 -0.004 -0.111 0.029 -0.034 0.05 -0.026 0.072 -0.013 0.08 -0.055 0.045 -0.097 0.044 -0.156 -0.069 -0.108 0.001 -0.024 0.026 -0.058 0.042 -0.058 0.034 -0.019 0.078 0.015 0.013 -0.005 0.012 -0.018 0.051 -0.172 -0.005 -0.046 -0.073 -0.115 -0.012 -0.082 -0.011 -0.121 -0.018 -0.108 -0.021 -0.041 -0.039 -0.034 -0.017 -0.022 -0.151 -0.219 0.003 -0.104 0.063 -0.133 0.042 -0.064 0.058 -0.036 0.012 -0.031 -0.017 -0.037 -0.029 -0.028 -0.007 -0.06 0.008 -0.04 0.021 -0.043 -0.008 -0.091 0.002 -0.14 0.01 -0.204 0.003 -0.125 0.123 -0.092 0.179 -0.153 0.091 -0.16 0.049 -0.121 0.06 -0.402 0.043 -0.024 0.051 -0.019 0.179 -0.146 0.138 -0.054 0.105 -0.031 0.158 -0.027 0.098 0.011 0.179 0.006 0.141 -0.015 0.12 -0.08 0.054 -0.022 0.076 -0.014 0.346 0.107 0.346 0.102 0.063 -0.009 0.053 0.014 0.087 0.055 0.128 0.118 0.076 0.076 0.037 0.045 0.178 0.257 0.066 0.064 0.067 0.035 0.068 0.013 0.052 -0.005 0.049 -0.029 0.067 -0.057 0.102 -0.026 0.083 0.005 0.431 -0.231 0.042 -0.003 0.125 0.018 0.139 0.032 0.361 0.231 0.295 0.152 0.207 0.051 0.244 0.036 0.414 0.011 0.313 -0.325 0.116 -0.071 0.14 -0.064 0.045 -0.011 0.246 -0.049 0.483 -0.041 0.453 0.018 0.089 0.013 0.192 0.043 0.297 0.106 0.128 0.101 0.201 0.017 0.144 -0.02 0.047 -0.101 0.145 -0.132 0.105 -0.054 0.112 -0.069 0.177 -0.085 0.145 -0.039 0.13 -0.098 0.103 -0.031 z" vector-effect="non-scaling-stroke" fill="#000" fill-opacity="1" stroke="#FFF" stroke-width="0px" stroke-linejoin="round" stroke-linecap="round"/></svg>
