<svg xmlns="http://www.w3.org/2000/svg" xmlns:xlink="http://www.w3.org/1999/xlink" height="400" width="400" viewBox="0.163867187500017 -23.51787109375 15.79931640625 11.82158203125"><path d="M 13.606 -13.705 l -0.179 0.003 -0.103 0.031 -0.13 0.098 -0.145 0.039 -0.177 0.085 -0.112 0.069 -0.105 0.054 -0.145 0.132 -0.047 0.101 -0.144 0.02 -0.201 -0.017 -0.128 -0.101 -0.297 -0.106 -0.192 -0.043 -0.089 -0.013 -0.453 -0.018 -0.483 0.041 -0.246 0.049 -0.045 0.011 -0.14 0.064 -0.116 0.071 -0.313 0.325 -0.414 -0.011 -0.244 -0.036 -0.207 -0.051 -0.295 -0.152 -0.361 -0.231 -0.139 -0.032 -0.125 -0.018 -0.042 0.003 -0.431 0.231 -0.083 -0.005 -0.102 0.026 -0.067 0.057 -0.049 0.029 -0.052 0.005 -0.068 -0.013 -0.067 -0.035 -0.066 -0.064 -0.178 -0.257 -0.037 -0.045 -0.076 -0.076 -0.128 -0.118 -0.087 -0.055 -0.053 -0.014 -0.063 0.009 -0.346 -0.102 -0.346 -0.107 -0.076 0.014 -0.054 0.022 -0.12 0.08 -0.141 0.015 -0.179 -0.006 -0.098 -0.011 -0.158 0.027 -0.105 0.031 -0.138 0.054 -0.179 0.146 -0.051 0.019 -0.043 0.024 -0.06 0.402 -0.049 0.121 -0.091 0.16 -0.179 0.153 -0.123 0.092 -0.003 0.125 -0.01 0.204 -0.002 0.14 0.008 0.091 -0.021 0.043 -0.008 0.04 0.007 0.06 0.029 0.028 0.017 0.037 -0.012 0.031 -0.058 0.036 -0.064 -0.091 -0.082 -0.065 -0.09 -0.029 -0.061 -0.047 -0.032 -0.065 -0.118 -0.126 -0.271 -0.25 -0.028 -0.006 -0.045 -0.01 -0.077 0.03 -0.047 0.041 -0.033 0.016 -0.05 0.002 -0.129 0.032 -0.103 0.041 -0.003 0.033 0.049 0.189 -0.024 0.102 -0.046 -0.049 -0.149 -0.19 -0.103 -0.142 -0.018 -0.031 -0.015 -0.049 0.01 -0.021 0.041 -0.015 0.094 -0.019 0.018 -0.015 0.005 -0.039 -0.015 -0.072 -0.052 -0.098 -0.055 -0.065 -0.031 -0.013 -0.056 -0.002 -0.061 0.009 -0.115 0.08 -0.051 0.015 -0.119 -0.007 -0.106 -0.016 -0.064 -0.041 -0.192 -0.158 -0.212 -0.167 -0.089 -0.024 -0.021 -0.017 -0.014 -0.128 0.004 -0.154 0.012 -0.04 0.088 0.024 0.094 0.011 0.03 -0.028 -0.075 -0.055 -0.108 -0.056 -0.04 -0.084 -0.031 -0.029 -0.049 -0.03 -0.056 -0.015 -0.056 -0.024 -0.038 -0.024 -0.063 -0.011 -0.066 -0.018 -0.096 -0.136 -0.093 -0.132 -0.055 -0.104 -0.019 -0.063 0.028 -0.107 -0.028 -0.042 -0.104 -0.108 -0.087 -0.101 0.021 -0.156 0.018 -0.13 0.001 -0.082 0.014 -0.046 0.011 -0.052 0.058 -0.017 0.147 0.001 0.286 0.024 0.229 -0.027 0.013 -0.005 0.161 -0.139 0.179 -0.146 0.269 -0.014 0.29 -0.015 0.229 -0.008 0.333 -0.011 0.269 -0.009 0.311 -0.011 0.009 -0.067 0.019 -0.017 0.031 -0.002 0.229 0.036 0.215 0.035 0.016 -0.127 0.189 -0.159 0.107 -0.032 0.026 -0.028 0.034 -0.054 0.021 -0.083 0.009 -0.059 0.04 -0.049 0.029 -0.09 0.039 -0.157 0.106 -0.165 0.061 -0.224 0.009 -0.216 0.012 -0.165 0.032 -0.034 -0.001 -0.292 -0.001 -0.294 -0.001 -0.248 -0.001 -0.309 -0.001 -0.271 -0.001 -0.294 -0.001 -0.264 -0.001 -0.175 0.218 -0.042 0.226 -0.043 0.33 -0.063 0.357 -0.068 0.39 -0.075 0.088 -0.045 0.294 -0.253 0.133 -0.114 0.264 -0.227 0.204 -0.175 0.259 -0.222 0.274 -0.224 0.218 -0.179 0.343 -0.202 0.518 -0.305 0.518 -0.305 0.518 -0.305 0.518 -0.305 0.518 -0.305 0.518 -0.305 0.518 -0.305 0.518 -0.305 0.521 0.116 0.495 0.11 0.498 0.111 0.117 0.061 0.264 0.217 0.338 0.278 0.015 0.004 0.015 0.001 0.325 -0.164 0.423 -0.214 0 0 0.11 0.578 0.083 0.496 0.006 0.316 0.004 0.082 0.034 0.056 0.078 0.056 0.314 0.457 -0.067 0.079 0.047 0.142 0.081 0.061 0.261 0.273 0.034 0.054 -0.014 0.043 -0.183 0.321 -0.031 0.079 -0.036 0.409 -0.026 0.288 -0.035 0.396 -0.042 0.474 -0.034 0.4 -0.045 0.529 -0.042 0.5 -0.262 0.275 -0.465 0.487 -0.379 0.396 -0.19 0.265 -0.371 0.519 -0.165 0.335 -0.129 0.175 -0.065 0.075 0.058 0.246 z" vector-effect="non-scaling-stroke" fill="#000" fill-opacity="1" stroke="#FFF" stroke-width="0px" stroke-linejoin="round" stroke-linecap="round"/></svg>
