<svg xmlns="http://www.w3.org/2000/svg" xmlns:xlink="http://www.w3.org/1999/xlink" height="400" width="400" viewBox="124.3486328125 -42.99814453125 6.33867187500005 5.2791015625"><path d="M 128.375 -38.623 l -0.035 0.016 -0.06 0.084 -0.056 0.107 -0.054 0.058 -0.062 0.032 -0.067 0.019 -0.134 0.008 -0.121 -0.007 -0.039 -0.012 -0.166 0.007 -0.047 0.008 -0.239 -0.008 -0.125 0.009 -0.079 0.021 -0.081 0.043 -0.07 0.065 -0.061 0.07 -0.125 0.127 -0.088 0.062 0 0.089 -0.002 0.027 -0.031 0.019 -0.011 -0.008 -0.05 -0.007 -0.203 -0.082 -0.167 0.05 -0.042 0.065 -0.044 0.021 -0.066 -0.127 -0.109 -0.004 -0.173 -0.112 -0.074 0.023 -0.019 0.045 -0.095 0.103 -0.132 0.085 -0.043 0.011 -0.049 -0.006 0.007 -0.023 -0.054 -0.095 -0.209 -0.039 -0.075 -0.041 -0.038 -0.009 0.204 -0.106 0.054 -0.019 -0.04 -0.025 -0.044 -0.012 -0.168 0.016 -0.088 -0.035 -0.128 0.011 -0.089 -0.028 0.184 -0.104 0.008 -0.062 -0.002 -0.047 0.093 -0.138 0.094 -0.077 0.242 -0.109 0.106 -0.015 0.076 0.004 0.063 -0.01 -0.066 -0.042 -0.064 -0.019 -0.125 0.004 -0.13 -0.063 -0.012 -0.066 0.252 -0.417 0.004 -0.038 -0.04 -0.101 -0.013 -0.099 -0.181 -0.057 -0.08 -0.007 -0.232 -0.111 -0.093 -0.056 -0.036 0.017 -0.007 0.089 -0.033 0.02 -0.061 0.017 -0.031 -0.102 -0.05 -0.074 -0.154 -0.075 -0.055 -0.041 0.026 -0.089 -0.013 -0.008 0.025 -0.1 0.094 -0.077 0.231 -0.138 0.06 -0.065 0.117 -0.076 0.053 0.002 0.055 -0.007 0.017 -0.033 0.013 -0.026 0.047 -0.024 0.113 -0.042 0.129 -0.055 0.102 -0.015 0.126 -0.083 0.051 -0.036 0.051 0 0.014 -0.017 0.029 -0.043 0.04 -0.028 0.056 -0.005 0.091 -0.02 0.114 -0.012 0.078 -0.069 0.026 -0.05 0.051 -0.055 0.109 -0.06 0.075 -0.088 0.083 -0.096 0.04 -0.031 0.039 -0.006 0.023 -0.036 0.027 -0.102 0.038 -0.099 0.023 -0.047 0.096 -0.051 0.025 -0.025 0.021 -0.008 0.045 0.007 0.06 -0.03 0.056 -0.033 0.051 0.012 0.052 0.027 0.054 0.055 0.024 0.044 0.043 0.036 0.008 0.053 0.043 0.023 0.091 0.012 0.15 0.036 0.097 0.002 0.055 0.027 0.116 0.015 0.231 -0.021 0.094 0.012 0.04 0.033 0.058 0.026 0.038 0.002 0.051 -0.045 0.055 -0.074 0.036 -0.056 -0.002 -0.045 -0.031 -0.048 -0.076 -0.045 -0.05 -0.069 -0.048 -0.071 -0.028 -0.023 -0.023 -0.035 -0.004 -0.053 0.017 -0.036 0.115 -0.024 0.148 -0.014 0.119 0.015 0.2 -0.01 0.122 -0.02 0.091 0.003 0.084 0 0.037 -0.031 0.117 -0.074 0.056 -0.026 0.062 -0.05 0.01 -0.052 0.012 -0.042 0.035 -0.045 0.061 -0.056 0.052 -0.026 0.058 0.003 0.061 0.026 0.039 0.026 0.044 -0.007 0.036 -0.044 0.024 -0.008 0.07 -0.004 0.022 -0.027 0.027 -0.129 0.027 -0.102 0.006 -0.071 0.062 -0.118 0.02 -0.071 0.037 -0.033 0.043 0.002 0.036 0.021 0.045 0.012 0.06 -0.012 0.042 0.018 0.026 0.038 0.089 0.026 0.008 0.019 -0.002 0.128 0.049 0.06 0.065 0.054 0.09 0.049 0.048 0.011 0.029 0.035 0.027 0.061 0.064 0.059 0.034 0.043 0.006 0.045 0.029 0.025 -0.051 0.028 -0.067 -0.017 -0.112 -0.01 -0.143 0.088 -0.079 0.031 -0.056 0.086 -0.112 0.051 -0.061 0.055 -0.079 0.094 -0.052 0.091 -0.12 0.093 -0.07 0.117 -0.004 0.101 0.077 0.103 0.007 0.088 -0.054 0.18 0.03 0.191 -0.033 0.075 -0.368 0.131 -0.096 0.065 -0.135 0.17 -0.165 0.063 -0.102 0.069 -0.142 0.041 -0.091 0.12 -0.1 0.068 -0.118 0.041 -0.088 0.053 -0.198 0.003 -0.14 0.037 -0.1 0.1 -0.299 0.114 -0.041 0.086 0.02 0.133 0.002 0.102 -0.026 0.084 -0.065 -0.024 -0.035 0.027 -0.039 0.077 0.011 0.088 0.102 0.028 0.084 0.036 0.118 0.018 0.087 0.041 0.186 0.186 0.151 0.082 0.039 0.03 0.087 0.041 0.08 0.064 z M 124.905 -39.536 l -0.056 0.029 -0.003 -0.051 0.043 -0.043 0.045 -0.006 z" vector-effect="non-scaling-stroke" fill="#000" fill-opacity="1" stroke="#FFF" stroke-width="0px" stroke-linejoin="round" stroke-linecap="round"/></svg>
