<svg xmlns="http://www.w3.org/2000/svg" xmlns:xlink="http://www.w3.org/1999/xlink" height="400" width="400" viewBox="20.4486328125 -42.358154296875 2.55703124999999 1.508251953125"><path d="M 21.563 -42.248 l 0.056 0.005 0.121 -0.026 0.075 -0.035 0.038 -0.005 0.051 -0.014 0.073 0.002 0.075 0.015 0.095 -0.02 0.093 -0.033 0.037 0.008 0.04 0.028 0.027 0.008 0.154 0.149 0.084 0.06 0.1 0.046 0.114 0.033 0.041 0.032 0.072 0.158 0.035 0.06 0.048 0.018 0.012 0.017 0.002 0.023 -0.054 0.111 -0.022 0.25 -0.014 0.02 -0.057 -0.001 -0.075 0.005 -0.029 0.019 -0.03 0.134 -0.121 0.038 -0.11 0.022 -0.093 -0.005 -0.163 -0.032 -0.053 -0.003 -0.046 0.018 -0.146 0.01 -0.064 0.024 -0.15 0.157 -0.152 0.054 -0.052 0.027 -0.116 -0.035 -0.056 -0.004 -0.08 0.04 -0.176 0.004 -0.048 0.007 -0.136 0.006 -0.006 -0.022 -0.025 -0.032 -0.063 -0.015 -0.129 0.013 -0.032 -0.023 -0.053 -0.133 -0.042 -0.021 -0.047 -0.045 -0.079 -0.145 -0.002 -0.063 0.005 -0.055 -0.044 -0.13 0.027 -0.033 0.041 -0.021 0 -0.052 -0.011 -0.079 0.048 -0.156 0.013 -0.011 0.012 0.007 0.116 0.012 0.03 -0.02 0.019 -0.031 0.006 -0.114 0.028 -0.053 0.282 -0.1 0.083 -0.004 0.064 0.046 0.05 0.029 0.03 -0.001 0.011 -0.03 0.034 -0.057 0.058 -0.033 0.171 -0.028 z" vector-effect="non-scaling-stroke" fill="#000" fill-opacity="1" stroke="#FFF" stroke-width="0px" stroke-linejoin="round" stroke-linecap="round"/></svg>
