<svg xmlns="http://www.w3.org/2000/svg" xmlns:xlink="http://www.w3.org/1999/xlink" height="400" width="400" viewBox="-9.098876953125 -80.47783203125 42.728173828125 22.456884765625"><path d="M 20.622 -69.037 l -0.13 0.004 -0.375 0.012 0.166 0.087 0.055 0.035 0.011 0.051 -0.029 0.095 -0.079 0.081 -0.093 0.066 -0.179 0.065 0.271 0.065 -0.184 0.087 -0.086 0.034 -0.1 -0.006 -0.179 -0.03 -0.432 -0.073 -0.206 -0.027 -0.184 -0.008 -0.098 0.001 -0.391 -0.062 -0.076 0.007 -0.14 0.027 -0.016 0.061 0.009 0.151 0.021 0.116 -0.052 0.067 -0.052 0.046 -0.157 0.123 -0.352 -0.084 -0.24 -0.055 -0.154 0.074 -0.387 0.135 -0.198 0.267 -0.011 0.009 -0.117 0.068 -0.15 0.031 -0.114 0.015 -0.066 0.079 0.154 0.114 0.079 0.06 0.074 0.097 -0.014 0.062 -0.017 0.038 -0.166 0.079 -0.354 0.208 -0.327 0.217 -0.134 0.062 0.061 0.184 -0.109 0.054 -0.222 0.061 -0.113 0.024 -0.122 0.014 -0.375 0.024 0.067 0.197 0.025 0.087 -0.001 0.052 -0.039 0.05 -0.046 0.096 -0.07 0.345 -0.053 0.037 -0.074 0.094 -0.237 0.225 -0.19 0.149 -0.275 0.215 0.223 0.068 0.204 0.05 0.042 0.076 0.028 0.127 -0.007 0.087 -0.078 0.078 -0.061 0.055 -0.042 0.027 -0.29 -0.027 -0.371 -0.034 -0.096 0 -0.216 0.025 -0.195 0.05 -0.103 0.043 -0.028 0.017 -0.13 0.097 -0.231 0.172 -0.127 0.075 0.037 0.104 -0.212 0.201 0.139 0.203 0.006 0.007 0.074 0.082 -0.077 0.053 -0.032 0.028 0.011 0.094 0.02 0.105 -0.018 0.061 -0.007 0.068 0.189 0.306 -0.002 0.072 -0.009 0.046 -0.058 0.191 -0.078 0.256 0.137 0.067 0.195 0.08 0.109 0.032 0.161 0.096 0.123 0.093 -0.017 0.062 -0.035 0.068 -0.052 0.048 -0.049 0.066 -0.022 0.048 -0.023 0.013 -0.215 0.005 -0.114 0.018 -0.06 0.021 0.021 0.111 0.131 0.202 0.108 0.144 0.035 0.095 -0.036 0.096 -0.037 0.049 -0.001 0.066 -0.029 0.132 -0.084 0.067 -0.11 0.073 -0.123 0.054 -0.097 0.015 -0.084 0.006 -0.056 0.028 -0.051 0.081 -0.047 0.085 -0.154 0.105 0.004 0.037 0.058 0.124 0.055 0.142 -0.046 0.132 -0.04 0.139 -0.069 0.093 -0.099 0.033 -0.073 -0.017 -0.082 -0.127 -0.002 -0.029 -0.021 -0.039 -0.234 -0.039 -0.041 0.001 -0.092 -0.023 -0.054 -0.006 -0.111 -0.013 -0.092 -0.112 -0.098 -0.093 -0.014 -0.039 0.003 -0.174 -0.03 -0.078 -0.009 -0.085 -0.061 0.069 0.036 0.109 -0.076 0.046 -0.096 0.022 0.009 0.064 0.039 0.012 0.008 0.066 -0.023 0.098 -0.188 0.218 -0.038 0.023 -0.026 0.029 -0.096 -0.02 -0.124 0.061 -0.117 0.01 -0.042 -0.069 -0.165 -0.091 -0.078 0.005 0.07 0.045 0.069 0.058 -0.039 0.039 -0.038 0.025 -0.067 0.013 -0.241 0.076 0.086 0.051 -0.073 0.058 -0.084 0.009 -0.045 0.027 -0.016 0.037 -0.25 0.105 -0.407 0.269 -0.209 0.076 -0.146 0.079 -0.129 -0.002 -0.162 0.067 -0.41 0.059 -0.272 -0.027 -0.189 0.023 -0.101 -0.046 -0.013 -0.032 0.005 -0.018 0.017 -0.022 -0.035 -0.008 -0.074 -0.004 -0.032 0.022 -0.004 0.051 -0.035 0.013 -0.141 -0.029 -0.035 -0.026 0.051 -0.053 0.087 -0.048 -0.016 -0.01 -0.017 -0.029 -0.042 -0.004 -0.126 0.007 -0.102 -0.009 -0.334 -0.107 -0.078 -0.057 -0.27 -0.091 -0.121 -0.097 -0.069 -0.106 0.005 -0.096 0.033 -0.153 0.057 -0.038 0.242 0.053 0.245 0.089 0.038 -0.004 0.077 -0.07 0.149 -0.056 -0.042 -0.016 -0.222 0.065 -0.082 -0.036 -0.128 -0.073 0 -0.037 0.06 -0.037 0.02 -0.051 -0.031 -0.048 0.015 -0.065 0.099 -0.069 0.148 -0.07 0.107 -0.067 0.11 -0.042 -0.011 -0.014 -0.125 0.026 -0.12 0.045 -0.141 0.075 -0.172 0.061 -0.127 0.024 -0.061 0.02 -0.093 0.019 -0.096 0.087 -0.105 0.037 -0.189 0.004 -0.042 -0.064 0.053 -0.227 0.057 -0.111 0.063 -0.078 0.099 -0.013 0.069 -0.057 0.057 0 0.05 0.026 0.193 0.026 0.095 -0.073 0.124 -0.011 0.226 -0.074 -0.005 -0.013 -0.153 0.016 -0.093 0.002 -0.133 0.019 -0.071 -0.013 -0.033 -0.055 0.053 -0.05 0.213 -0.119 0.073 -0.052 0.042 -0.049 -0.007 -0.033 0.035 -0.068 0.208 -0.119 0.169 -0.055 0.056 0.047 -0.047 0.147 0 0.061 0.134 -0.214 0.059 -0.051 0.067 -0.036 0.163 -0.024 0.046 -0.034 -0.189 0.011 -0.459 0.082 -0.194 0.073 -0.052 0.056 -0.134 0.085 -0.063 0.055 -0.028 0.081 -0.076 0.044 -0.102 0.016 -0.142 0.102 -0.063 0.082 -0.141 0.065 -0.09 0.05 -0.029 0.018 -0.048 0.05 -0.04 0.003 -0.035 -0.029 -0.006 -0.064 0.014 -0.102 0.068 -0.073 0.032 -0.072 -0.045 -0.067 0.031 -0.042 0.06 0.001 0.111 0.019 0.118 -0.003 0.194 -0.053 -0.031 -0.031 -0.084 -0.004 -0.156 0.004 -0.132 -0.052 -0.102 -0.103 -0.046 -0.137 0.031 -0.039 0.378 -0.14 0.102 -0.063 -0.059 -0.006 -0.142 0.077 -0.203 0.048 -0.128 -0.066 -0.067 -0.072 -0.038 -0.151 0.014 -0.078 -0.016 -0.102 0.087 -0.033 0.097 0.018 0.096 0.007 0.217 -0.009 0.479 -0.061 0.309 0.036 0.125 -0.003 0.192 -0.053 0.168 -0.005 0.126 0.04 0.069 0.046 0.008 0.062 0.058 0.041 0.039 -0.013 -0.031 -0.049 -0.007 -0.076 0.505 -0.086 0.059 -0.033 -0.201 -0.012 -0.057 -0.078 0.106 -0.119 -0.01 -0.015 -0.111 0.063 -0.055 0.088 0.022 0.07 -0.022 0.033 -0.102 0.015 -0.231 0.005 -0.148 -0.03 -0.137 -0.016 -0.047 -0.023 0.016 -0.05 -0.026 -0.01 -0.057 0.045 -0.05 0.09 -0.109 0.021 -0.301 -0.033 -0.436 0.02 -0.196 0.045 -0.127 -0.006 -0.218 -0.079 -0.085 -0.063 -0.032 -0.127 0.013 -0.056 0.17 -0.024 0.086 0.002 0.08 -0.03 -0.071 -0.02 -0.1 -0.038 -0.068 -0.077 -0.103 -0.025 -0.069 -0.065 -0.017 -0.099 0.02 -0.069 0.055 -0.022 0.132 0.015 0.348 -0.012 0.328 0.07 0.223 0.04 0.451 -0.02 0.264 -0.062 -0.048 -0.017 -0.286 0.036 -0.265 -0.001 -0.467 -0.07 -0.191 -0.023 -0.206 0.01 -0.107 -0.021 -0.063 -0.07 0.047 -0.133 0.098 -0.029 0.053 0.035 0.064 0.002 0.065 -0.056 0.062 -0.032 0.049 -0.072 0.185 -0.068 0.078 -0.006 0.112 -0.031 0.071 0.009 0.046 0.031 0.058 0.026 0.125 -0.003 0.371 -0.054 0.04 -0.016 0.072 -0.045 -0.235 0.02 -0.195 0.032 -0.126 0.009 -0.018 -0.04 0.046 -0.035 0.073 -0.037 0.035 -0.064 0.08 -0.027 0.087 0.001 0.179 -0.012 0.126 -0.017 0.217 0.011 0.323 0.024 0.208 0.059 0.078 -0.005 0.083 -0.016 0.038 -0.022 -0.163 -0.025 -0.009 -0.035 0.02 -0.027 0.266 -0.049 0.291 -0.011 -0.05 -0.039 -0.637 0.059 -0.166 -0.041 -0.131 0 -0.086 0.023 -0.245 0.028 -0.045 -0.02 0.047 -0.069 0.147 -0.113 0.012 -0.028 0.068 -0.027 0.381 -0.066 0.183 -0.076 0.082 -0.01 0.082 0.005 0.124 -0.009 0.24 0.022 0.111 0.095 0.099 0.03 0.313 0.119 -0.014 -0.034 -0.271 -0.162 -0.103 -0.04 -0.077 -0.079 0.026 -0.075 0.087 -0.05 0.309 -0.027 0.055 -0.029 0.005 -0.05 -0.047 -0.034 -0.114 0.002 -0.094 -0.021 -0.026 -0.054 0.037 -0.036 0.178 -0.066 0.097 -0.021 0.169 -0.023 0.293 0.052 0.022 0.027 -0.082 0.066 0.008 0.037 0.072 0.004 0.168 -0.111 0.197 -0.015 0.082 -0.024 0.095 -0.015 0.135 0.1 0.059 0.032 0.045 0.013 0.043 0.084 0.042 0.004 0.06 -0.042 0.108 -0.022 0.151 -0.015 0.251 0.022 0.114 -0.016 0.056 0.002 -0.053 -0.075 -0.033 -0.022 0.052 -0.067 0.054 -0.026 0.173 -0.047 0.165 -0.021 0.108 -0.045 0.145 -0.041 -0.023 -0.033 -0.04 -0.038 -0.094 -0.002 -0.038 -0.021 0.119 -0.049 0.163 -0.055 -0.028 -0.022 -0.123 -0.024 -0.093 0.018 -0.138 0.042 -0.161 0.067 0.052 0.02 0.081 0.056 -0.112 0.075 -0.596 0.199 -0.284 0.058 -0.131 -0.009 -0.031 -0.054 -0.06 -0.04 -0.065 -0.083 -0.11 0.002 -0.063 0.018 -0.027 -0.027 0.047 -0.089 0.093 -0.07 0.156 -0.053 0.075 -0.064 0.071 -0.101 0.226 -0.096 0.329 -0.239 0.268 -0.076 0.098 -0.083 0.158 -0.037 0.135 -0.065 0.106 -0.006 0.192 -0.058 0.109 -0.07 -0.071 -0.004 -0.169 0.045 -0.096 0.018 0.007 -0.075 0.046 -0.077 0.139 -0.07 0.67 -0.203 0.067 0.034 0.08 0.059 0.202 -0.013 0.23 -0.115 0.177 -0.125 -0.096 0.022 -0.104 0.051 -0.204 0.071 -0.094 0.011 -0.054 -0.009 -0.03 -0.047 -0.071 -0.015 -0.064 0.011 -0.066 -0.034 -0.012 -0.083 0.084 -0.124 0.067 -0.082 0.072 -0.062 0.283 -0.176 0.061 -0.096 0.128 -0.051 0.166 0.011 0.05 -0.015 -0.057 -0.063 -0.181 -0.05 -0.011 -0.031 0.603 -0.082 0.287 0.003 0.085 -0.041 0.156 -0.026 0.118 -0.05 -0.061 -0.022 -0.292 0.046 -0.182 0.022 -0.083 -0.001 -0.064 0.016 -0.233 0.006 -0.051 -0.2 0.037 -0.109 0.087 0.002 0.02 -0.104 0.1 -0.061 0.139 -0.014 0.07 -0.026 0.101 -0.053 0.167 0.012 0.171 -0.012 -0.042 -0.025 -0.213 -0.032 -0.053 -0.055 0.075 -0.031 0.082 -0.023 0.072 -0.004 0.142 -0.108 0.086 -0.046 0.097 0.008 0.135 -0.048 0.132 0.016 0.128 -0.031 0.175 -0.021 0.64 -0.008 0.019 -0.044 -0.135 -0.01 -0.476 -0.011 -0.243 0.001 -0.102 0.011 -0.038 -0.015 0.007 -0.026 0.088 -0.042 0.042 -0.046 0.176 -0.113 0.207 -0.075 0.159 0.019 0.169 0.072 0.12 0.009 0.056 0.023 0.088 0.099 0.042 0.003 -0.019 -0.095 0.116 -0.078 -0.03 -0.021 -0.174 0.028 -0.133 -0.029 -0.105 -0.058 -0.03 -0.053 0.065 -0.053 0.062 -0.026 -0.042 -0.031 -0.263 0.083 -0.186 0.019 -0.073 -0.012 0.04 -0.075 -0.022 -0.059 0.25 -0.146 0.086 -0.017 0.14 0.012 0.126 0.041 0.106 -0.007 0.115 -0.022 -0.016 -0.04 -0.249 -0.016 -0.064 -0.033 0.023 -0.032 0.171 -0.034 0.17 -0.062 0.195 -0.018 0.157 -0.047 0.03 0.011 0.026 0.018 0.056 0.173 0.14 0.141 0.052 0.005 -0.054 -0.12 0.05 -0.034 0.063 -0.026 0.02 -0.03 -0.073 -0.01 -0.059 -0.043 -0.085 -0.137 0.029 -0.035 0.184 -0.073 0.231 -0.017 0.246 0.051 0.086 0.001 0.143 -0.014 0.242 -0.042 0.142 -0.016 0.074 0 0.018 -0.021 -0.069 -0.014 -0.022 -0.013 -0.054 -0.008 -0.224 0.023 -0.617 -0.007 -0.06 -0.024 -0.011 -0.042 0.066 -0.06 0.072 -0.033 0.233 -0.06 0.246 -0.008 0.26 -0.106 0.099 -0.079 0.056 -0.122 0.158 -0.099 0.397 -0.056 0.016 -0.025 -0.042 -0.051 0.003 -0.093 0.109 -0.108 0.072 -0.037 0.033 -0.004 0.086 0.035 0.104 0.075 0.163 0.043 0.213 0.007 0.057 -0.021 -0.166 -0.043 -0.126 -0.056 -0.01 -0.056 0.06 -0.03 0.093 0.003 0.116 -0.006 0.108 -0.038 0.016 -0.027 0.004 -0.036 0.027 -0.037 0.159 -0.087 0.49 -0.057 0.035 0.023 -0.026 0.169 -0.056 0.109 0.002 0.08 0.095 -0.08 0.128 -0.218 0.096 -0.102 0.108 -0.059 0.077 -0.013 0.077 -0.03 0.101 -0.018 0.031 0.023 0.032 0.054 -0.054 0.191 0.005 0.06 -0.061 0.081 -0.233 0.18 0.011 0.023 0.053 -0.009 0.09 -0.03 0.289 -0.171 0.253 0.022 0.003 -0.014 -0.081 -0.05 -0.099 -0.048 -0.03 -0.06 0.013 -0.159 0.076 -0.063 0.218 0.007 0.131 -0.009 0.061 0.029 0.131 -0.002 0.091 -0.114 0.179 -0.01 0.157 0.075 0.189 0.051 0.152 0.073 0.043 -0.02 -0.082 -0.17 -0.09 -0.062 -0.195 -0.032 -0.207 -0.076 -0.054 -0.034 0.009 -0.025 0.183 -0.024 0.242 0.028 0.215 -0.063 0.059 0.017 0.165 -0.033 0.103 0.045 0.063 -0.013 0.036 -0.06 0.263 -0.037 0.167 0.034 0.09 0.035 0.042 0.068 0.064 0.135 0.13 0.073 0.081 0.036 0.096 0.01 0.046 -0.036 -0.09 -0.044 -0.024 -0.041 0.043 -0.102 0.05 -0.04 0.282 -0.152 0.236 -0.079 0.141 -0.007 0.247 -0.177 0.07 -0.032 0.064 -0.007 -0.017 -0.043 -0.135 -0.027 -0.005 -0.054 0.178 -0.065 0.216 -0.109 0.107 -0.007 0.067 0.03 0.211 0.049 0.129 0.057 0.093 0.029 0.061 -0.006 0.05 -0.043 0.06 -0.02 0.134 0.011 0.08 0.027 0.062 0.004 0.056 0.017 0.013 0.036 -0.116 0.04 -0.197 0.105 -0.195 0.12 -0.064 0.063 -0.063 0.165 -0.152 0.106 -0.012 0.074 0.061 0.035 0.168 -0.027 0.207 -0.099 0.052 -0.105 0.518 -0.285 0.243 -0.157 0.276 -0.13 0.154 -0.027 0.073 0.086 -0.058 0.113 -0.117 0.072 0.086 0.033 -0.017 0.085 -0.027 0.047 -0.017 0.05 0.001 0.044 0.081 -0.012 0.323 -0.09 0.082 -0.097 0.076 -0.073 0.036 -0.063 0.126 -0.06 0.237 0 0.009 -0.023 -0.287 -0.083 -0.034 -0.037 0.096 -0.05 0.265 -0.095 0.136 0.01 0.082 0.021 0.327 0.016 0.251 0.068 -0.01 0.106 -0.056 0.044 -0.055 0.027 -0.321 0.08 -0.053 0.04 0.101 0.014 0.217 -0.04 0.056 0.036 -0.069 0.091 -0.012 0.137 -0.025 0.08 0 0.073 0.027 0.039 0.087 -0.155 0.03 -0.04 0.127 -0.058 0.047 -0.117 0.125 -0.141 0.14 -0.082 0.082 -0.022 0.271 0.003 0.116 0.031 0.103 0.068 0.077 0.027 0.241 0.029 0.083 0.036 0.016 0.022 0.059 0.004 0.163 -0.052 0.106 -0.009 0.173 0.081 -0.035 0.06 0.01 0.019 0.209 -0.004 0.174 0.023 0.33 0.123 0.034 0.057 -0.017 0.069 -0.475 0.077 -0.206 0.073 -0.337 0.028 -1.145 -0.049 0.023 0.053 0.797 0.116 0.046 0.033 -0.025 0.07 0 0.056 0.015 0.038 0.059 0.036 0.097 0.017 0.198 -0.009 0.098 0.019 0.067 -0.028 0.025 -0.095 0.058 -0.021 0.111 0.028 0.048 0.102 0.031 0.011 0.056 -0.073 0.11 0.005 0.12 -0.006 0.155 0.012 0.054 0.132 -0.002 0.046 -0.026 0.045 -0.036 0.023 -0.072 0.01 -0.173 -0.004 -0.236 -0.052 -0.152 -0.049 -0.047 -0.002 -0.02 0.006 0.037 0.049 -0.01 0.038 -0.023 0.041 -0.032 0.037 -0.045 0.031 -0.093 0.04 -0.161 0.032 -0.444 0.062 -0.035 0.028 -0.143 0.174 -0.039 0.025 -0.052 0.022 -0.153 0.028 -0.074 -0.039 -0.059 -0.058 0.014 -0.058 0.179 -0.111 0.167 -0.079 0.047 -0.027 0.095 -0.079 -0.192 -0.198 -0.341 -0.06 -0.389 -0.091 -0.143 -0.049 -0.222 -0.1 -0.157 -0.09 -0.142 -0.003 -0.156 0.023 -0.244 0.082 -0.142 0.041 -0.078 0.012 -0.019 0.002 -0.174 -0.023 -0.194 -0.005 -0.156 0.007 -0.059 0.011 -0.217 0.133 -0.152 0.067 -0.084 0.023 -0.061 0.039 -0.05 0.064 -0.111 0.222 -0.083 0.084 -0.019 0.051 0.02 0.155 -0.02 0.086 -0.102 0.071 -0.071 0.032 -0.094 0.007 -0.124 0.018 -0.108 0.041 -0.076 0.056 -0.086 0.126 -0.146 0.046 -0.139 -0.013 -0.099 -0.046 -0.213 -0.036 -0.158 -0.023 -0.178 -0.049 -0.157 -0.038 -0.143 -0.007 -0.081 0.048 -0.066 0.045 -0.245 0.036 -0.138 0.029 -0.18 0.006 -0.073 -0.032 -0.261 -0.021 -0.31 -0.025 -0.09 0 -0.028 -0.057 -0.083 -0.079 -0.221 -0.137 -0.09 -0.048 -0.17 -0.113 -0.198 -0.116 -0.028 -0.003 -0.133 -0.004 -0.194 0.004 -0.123 0.026 -0.078 0.033 -0.013 0.028 0.075 0.106 -0.023 0.026 -0.039 0.013 -0.176 -0.03 -0.213 0.002 z M 4.959 -61.085 l -0.089 0.013 -0.071 -0.011 0.025 -0.096 0.037 -0.016 0.054 -0.006 0.058 0.051 z M 5.086 -60.308 l 0.003 0.119 -0.092 -0.009 -0.041 -0.046 -0.012 -0.029 0.007 -0.069 -0.021 -0.071 0.027 -0.035 0.033 -0.005 0.06 0.063 z M 29.956 -69.797 l -0.19 0.029 -0.022 -0.024 0.042 -0.037 0.05 -0.077 0.078 0.003 0.079 0.029 0.062 0.035 z M 11.968 -65.627 l -0.066 0.031 -0.124 -0.009 -0.013 -0.026 0.035 -0.053 0.075 -0.022 0.097 0.004 0.031 0.022 z M 8.471 -63.667 l -0.115 0.002 -0.069 -0.022 0.164 -0.045 0.258 -0.042 0.025 -0.027 0.031 -0.003 0.045 0.033 0.006 0.045 -0.028 0.023 z M 8.103 -63.338 l -0.098 0.001 -0.116 -0.015 -0.073 -0.033 -0.011 -0.029 0.134 -0.036 0.135 -0.021 0.063 0.039 0.005 0.065 z M 23.441 -70.816 l -0.02 0.031 -0.034 0.031 -0.082 0.032 -0.237 0.128 -0.139 0.021 -0.044 0.02 -0.056 0.012 -0.173 -0.017 -0.051 0.026 -0.048 0.017 -0.125 0.007 -0.074 -0.006 -0.19 -0.047 -0.113 -0.051 -0.061 -0.044 0.175 0.001 0.063 -0.011 0.118 0.009 0.071 -0.045 0.15 0.005 0.287 -0.031 0.105 0.017 0.241 -0.104 0.075 0.003 0.115 -0.03 z M 25.586 -71.142 l 0.267 0.038 0.092 -0.001 0.133 0.071 0.069 -0.006 -0.013 0.044 -0.134 0.021 -0.208 0.013 -0.031 0.009 -0.178 -0.007 -0.1 -0.059 -0.167 -0.015 0 -0.019 0.108 -0.044 z M 23.615 -70.549 l 0.019 0.047 0.007 0.039 -0.093 0.056 -0.215 0.073 0.012 0.02 -0.074 0.019 -0.112 0.014 -0.059 -0.013 0.008 -0.063 -0.018 -0.019 -0.085 0.025 -0.088 -0.032 0 -0.032 0.023 -0.028 0.081 -0.042 0.136 -0.029 0.09 0.011 0.299 -0.112 0.032 0.023 z M 24.018 -70.567 l -0.19 0.04 -0.111 -0.034 -0.046 -0.035 -0.007 -0.078 0.026 -0.048 0.089 -0.025 0.058 0.018 0.016 0.015 0.104 0.015 0.122 0.049 z M 13.873 -68.265 l 0.059 0.017 0.155 -0.005 0.031 0.006 -0.022 0.028 -0.067 0.031 -0.142 0.019 -0.064 0.047 -0.046 0.016 -0.122 0 -0.072 0.011 -0.089 0.042 -0.071 -0.031 -0.02 0.022 -0.013 0.039 -0.039 0.012 -0.123 0.014 -0.03 -0.092 0.056 -0.033 0.044 -0.04 0.068 -0.006 0.061 0.003 0.109 -0.086 0.15 -0.024 0.096 -0.003 z M 12.972 -67.874 l -0.148 0.053 0.054 -0.097 0.08 -0.098 0.11 -0.056 0.055 0.022 -0.025 0.047 0 0.046 -0.024 0.022 z M 15.207 -68.943 l 0.13 0.101 0.059 0.059 -0.048 0.111 -0.126 0.056 -0.195 0.01 -0.137 -0.005 -0.086 -0.027 -0.011 -0.03 -0.05 -0.009 -0.131 0.039 -0.091 0.005 -0.116 -0.03 -0.031 -0.048 0.123 -0.06 0.057 -0.047 0.137 0.004 0.034 0.015 0.077 0.009 0.047 -0.057 -0.011 -0.039 0.034 -0.027 0.165 0.02 0 -0.106 0.064 -0.007 0.026 0.004 0.047 0.022 z M 19.767 -70.217 l 0.051 0.012 0.05 -0.007 0.042 0.01 0.084 0.053 0.09 0.021 0.004 0.027 -0.083 0.026 -0.109 0.008 -0.116 -0.009 -0.034 -0.033 -0.036 -0.055 -0.097 -0.054 -0.014 -0.047 0.085 -0.007 z M 20.779 -70.09 l -0.054 0.023 -0.083 0.009 -0.045 -0.014 -0.063 -0.009 -0.07 0.004 -0.059 -0.043 0.007 -0.036 0.081 -0.048 0.162 -0.028 0.131 0.011 0.033 0.014 z M 19.255 -70.066 l 0.089 0.054 0.079 -0.005 0.024 -0.021 0.054 -0.01 0.108 0.029 -0.016 0.049 -0.15 0.062 -0.108 0.088 -0.138 0.02 -0.066 -0.011 -0.123 0.051 -0.099 0.053 -0.102 0.067 -0.006 0.034 -0.016 0.026 -0.375 0.026 -0.136 0.017 -0.144 -0.022 -0.068 -0.044 0.022 -0.024 0.144 -0.01 0.005 -0.041 0.036 -0.025 0.047 -0.014 0.034 -0.052 0.057 -0.014 0.106 0.013 0.072 -0.038 0.04 -0.006 0.05 0.031 0.024 -0.043 -0.024 -0.039 0.012 -0.027 0.137 -0.069 0.059 -0.05 0.085 -0.032 0.082 0.005 0.024 -0.048 -0.024 -0.049 0.009 -0.032 0.073 -0.078 0.08 -0.003 0.037 0.069 z M 12.51 -65.902 l -0.08 0.003 0.001 -0.041 0.046 -0.037 0.073 -0.025 0.094 -0.007 0.105 -0.003 0.032 0.02 -0.06 0.028 z M 12.42 -66.043 l -0.093 0.007 0.015 -0.044 0.075 -0.042 0.029 -0.029 0.015 -0.034 0.066 -0.026 0.093 0.033 0.002 0.055 -0.046 0.051 z M 11.231 -64.866 l -0.052 0.028 -0.117 -0.022 -0.23 0.017 -0.093 -0.027 0.074 -0.053 0.208 -0.055 0.112 0.003 0.114 0.068 z M 17.503 -69.596 l 0.12 0.057 0.054 -0.017 0.106 -0.006 0.079 0.02 0.065 0.036 0.077 0.002 0.048 0.047 0.025 0.062 -0.056 0.046 -0.079 0.021 -0.021 0.054 0.03 0.076 -0.177 0.026 -0.205 0.012 -0.08 -0.036 -0.164 0.067 -0.163 0.104 -0.078 0.012 -0.005 -0.033 -0.117 -0.023 -0.15 -0.001 0.005 -0.024 0.027 -0.017 0.129 -0.026 0.026 -0.053 -0.023 -0.094 0.023 -0.046 0.005 -0.032 0.081 -0.037 0.278 0.017 0.034 -0.035 -0.021 -0.022 -0.144 -0.039 0.022 -0.026 0.104 -0.023 0.098 -0.003 0.029 -0.04 0.005 -0.017 z M 15.76 -68.561 l 0.012 0.007 0.136 -0.096 0.151 -0.03 0.009 -0.033 0.058 -0.032 -0.007 -0.053 0.03 -0.043 0.077 -0.011 0.048 -0.015 0.053 -0.008 0.096 0.035 0.054 0.039 0.068 0.086 -0.028 0.084 -0.181 0.065 -0.144 0.029 -0.146 0.075 -0.073 0.061 -0.063 0.013 -0.04 -0.005 -0.035 -0.015 -0.074 0 -0.081 0.053 -0.245 0.043 -0.096 -0.012 -0.004 -0.053 -0.057 0.004 -0.092 0.063 -0.09 0.021 -0.06 0.006 -0.111 -0.024 -0.298 0.108 -0.279 0.02 -0.092 -0.013 0 -0.066 0.181 -0.085 0.148 -0.059 0.509 -0.041 0.317 -0.174 0.077 -0.19 0.075 -0.068 -0.035 -0.039 -0.085 -0.007 -0.005 -0.059 0.045 -0.065 0.167 -0.089 0.092 -0.038 0.151 -0.107 0.073 -0.024 0.083 0 0.081 0.028 -0.015 0.058 -0.122 0.104 -0.181 0.088 0.022 0.063 0.072 0.052 0.018 0.089 0.004 0.086 -0.137 0.116 z M -8.954 -70.839 l -0.092 0.006 -0.053 -0.022 0.134 -0.061 0.444 -0.115 0.177 -0.109 0.342 -0.038 0.023 0.061 -0.023 0.076 -0.3 0.06 -0.333 0.041 z M 19.219 -74.391 l -0.121 0.039 -0.181 -0.058 -0.12 -0.075 0.064 -0.028 0.322 -0.004 0.079 0.039 0.013 0.022 z M 26.876 -78.649 l -0.146 0.002 -0.27 -0.074 -0.052 -0.064 0.048 -0.026 0.13 -0.001 0.203 0.087 0.219 0.026 z M 32.526 -80.119 l -0.948 0.038 -0.096 -0.026 1.537 -0.11 0.079 -0.011 0.285 -0.014 0.245 0.025 -0.073 0.019 z M 21.608 -78.596 l 0.137 0.024 0.298 -0.005 0.164 0.169 0.092 0.179 0.15 0.013 0.285 -0.025 0.254 -0.012 0.13 0.013 0.232 0.052 0.1 0.037 -0.087 0.029 -0.213 0.032 -0.035 0.097 0.214 0.034 0.353 0.082 0.199 0.011 0.355 -0.034 0.333 0.064 0.33 0.078 -0.772 0.098 -0.068 0.028 -0.107 0.073 -0.114 0.06 -0.105 0.035 -0.231 0.061 -0.124 0.021 -0.279 -0.005 -0.105 0.024 -0.097 0.049 -0.098 0.036 -0.248 0.009 -0.127 -0.049 0.042 -0.015 0.018 -0.029 -0.044 -0.069 0.236 -0.071 0.054 -0.039 -0.047 -0.014 -0.065 0.004 -0.172 -0.022 -0.051 0.001 -0.143 0.041 -0.198 0.028 -0.201 0.007 -0.806 0.053 -0.122 -0.019 -0.055 -0.106 0.328 -0.054 0.05 -0.091 0.083 -0.061 0.097 -0.04 0.178 -0.104 0.045 -0.007 -0.443 -0.082 -0.175 -0.053 -0.191 -0.107 -0.058 -0.086 -0.258 -0.073 0.032 -0.094 -0.188 0.007 -0.145 -0.066 0.135 -0.037 0.684 -0.042 0.408 -0.041 z M 20.898 -80.25 l 0.101 0.011 0.551 -0.004 0.106 0.024 0.042 0.059 0.084 0.02 0.117 0.006 0.292 0.073 0.1 0.01 0.087 -0.04 0.066 -0.101 0.004 -0.118 -0.028 -0.057 0.033 -0.037 0.098 -0.014 0.123 0.004 0.121 -0.02 0.104 -0.036 0.111 -0.005 0.243 0.027 0.064 0.021 -0.065 0.044 -0.025 0.063 -0.11 0.131 0.239 0.008 0.335 -0.028 0.085 -0.038 0.18 -0.06 0.19 0.009 0.091 -0.008 0.046 -0.026 0.017 -0.031 0.105 0.005 0.144 0.06 0.067 0.009 0.123 -0.015 0.05 0.001 0.121 0.024 0.564 0.044 0.196 0.023 0.084 0.022 0.085 0.013 0.6 0 0.424 0.015 0.156 0.035 0.131 0.066 0.05 0.153 -0.119 0.041 -0.859 0.188 -0.215 0.06 -0.104 0.056 -0.176 0.122 -0.085 0.037 -0.402 0.058 -0.094 0.006 -0.302 -0.028 -0.092 0.003 -0.367 0.063 -0.127 0.038 -0.124 0.048 -0.185 0.021 -0.189 -0.011 -0.855 -0.025 -0.115 -0.034 -0.093 -0.065 0.17 -0.083 -0.954 0.031 -1.05 -0.017 -0.056 -0.012 -0.045 -0.032 -0.361 -0.022 -0.271 -0.026 -0.228 -0.044 -0.226 -0.057 0.072 -0.027 0.074 -0.016 0.194 -0.007 0.172 0.008 0.306 0 0.071 -0.058 0.122 -0.017 0.097 -0.041 -0.323 -0.026 -0.337 -0.004 -0.225 0.034 -0.261 0.016 -0.238 0.002 -0.458 -0.01 -0.217 -0.024 -0.297 -0.064 -0.103 -0.035 -0.04 -0.028 -0.029 -0.042 0.339 -0.037 0.132 -0.03 0.129 -0.04 -0.512 -0.023 -0.214 -0.034 -0.213 -0.05 0.173 -0.028 0.69 -0.022 0.183 0.019 0.181 0.036 0.2 0.022 0.194 -0.047 -0.182 -0.022 -0.163 -0.078 -0.034 -0.039 0.021 -0.03 0.085 -0.004 0.064 0.013 0.241 0.073 0.183 0.023 0.051 -0.068 0.008 -0.032 -0.033 -0.027 -0.086 -0.049 -0.077 -0.06 0.119 -0.015 0.118 0.007 0.253 0.041 0.255 0.029 0.117 0.029 0.218 0.073 z M 16.787 -79.907 l 0.052 0.002 0.05 -0.011 0.037 -0.028 0.041 -0.015 0.253 0.018 0.359 0.056 0.107 0.028 0.15 0.057 0.122 0.096 -0.096 0.069 -0.127 0.065 -0.045 0.036 0.046 0.052 -0.019 0.051 -0.046 0.045 0.192 -0.051 0.411 -0.164 0.061 -0.01 0.064 0.006 0.184 0.034 0.167 0.083 0.037 0.028 0.03 0.034 0.017 0.042 -0.009 0.048 -0.016 0.033 -0.087 0.022 -0.042 0.02 0.094 0.001 0.108 0.026 0.099 0.055 0.11 0.022 0.401 -0.019 0.261 0.029 0.143 0.091 0.22 -0.021 0.001 -0.048 0.048 -0.021 0.296 0.016 0.153 0.023 0.156 0.048 -0.267 0.078 0.22 0.075 0.369 0.054 0.223 0.057 0.04 0.024 0.036 0.032 -0.145 0.041 -0.148 0.023 -0.371 0.004 -0.338 0.029 -0.618 0.021 -0.092 0.013 -0.022 0.012 -0.036 0.036 -0.238 0.082 -0.23 0.1 -0.095 0.06 -0.072 0.085 -0.026 0.052 0.051 0.05 -0.014 0.051 -0.173 0.04 -0.11 0.002 -0.138 -0.008 -0.135 0.023 -0.009 0.034 0.008 0.049 -0.035 0.148 -0.042 0.112 -0.063 0.104 -0.071 0.056 -0.091 0.016 -0.29 0.01 -0.224 0.097 -0.181 0.174 -0.094 0.068 -0.196 0.108 0.035 0.038 0.061 0.041 -0.107 0.074 -0.165 0.083 0.003 0.032 0.056 0.059 0.027 0.061 -0.128 0.053 -0.235 0.027 -0.239 -0.03 -0.116 -0.035 -0.108 -0.057 -0.114 -0.037 -0.119 -0.022 -0.458 -0.126 -0.423 -0.199 -0.386 -0.077 -0.252 -0.037 -0.121 -0.035 -0.118 -0.048 -0.102 -0.053 -0.095 -0.068 -0.046 -0.042 -0.008 -0.063 0.03 -0.037 0.045 -0.019 0.306 -0.016 0.11 0.009 0.108 0.033 0.099 0.013 0.226 -0.164 1.285 -0.094 0.413 -0.016 0.414 0.001 -0.065 -0.044 -0.055 -0.056 -0.061 -0.014 -0.313 0.031 -0.48 0.033 -0.234 0 -0.241 -0.022 -0.241 0.012 -0.248 0.048 -0.25 0.03 -0.243 0.012 -0.514 -0.005 -0.127 -0.025 -0.171 -0.058 -0.042 -0.029 -0.035 -0.036 -0.034 -0.109 0.037 -0.029 0.052 -0.017 0.054 -0.01 0.113 -0.001 0.111 0.019 0.259 0.062 -0.059 -0.066 0.747 -0.08 0.347 -0.07 0.178 -0.012 0.179 0.005 -0.039 -0.037 -0.002 -0.034 0.127 -0.028 0.092 -0.012 0.275 -0.014 0.627 0.002 0.226 -0.019 0.169 -0.048 -0.18 0.017 -0.181 0.003 -0.085 -0.01 -0.191 -0.042 -0.087 -0.055 0.248 -0.109 0.086 -0.051 -0.252 0.007 -0.084 0.018 -0.289 0.1 -0.213 0.045 -0.263 0.022 -0.263 -0.002 -0.057 -0.014 -0.081 -0.067 -0.025 -0.035 0.011 -0.019 0.083 -0.055 0.043 -0.058 -0.007 -0.05 -0.061 -0.01 -0.097 0.049 -0.088 0.068 -0.121 0.034 -0.125 -0.009 -0.053 -0.026 -0.046 -0.04 -0.049 -0.015 -0.054 0 -0.112 0.016 -0.11 0.03 0.038 0.045 0.01 0.05 -0.048 0.04 -0.036 0.048 0.114 0.031 0.093 0.047 -0.139 0.022 -0.136 0.032 -0.125 0.05 -0.128 0.039 -0.203 0.004 -0.253 0.022 -0.505 0.008 -0.237 -0.064 -0.043 -0.03 -0.047 -0.02 -0.158 -0.033 -0.23 -0.098 -0.177 -0.112 -0.12 -0.011 -0.177 -0.037 -0.096 -0.032 -0.092 -0.042 -0.028 -0.05 0.009 -0.045 0.106 -0.02 -0.25 -0.051 -0.246 -0.067 0.091 -0.023 0.091 -0.01 0.727 0.078 0.049 -0.01 0.08 -0.039 -0.028 -0.013 -0.122 -0.009 -0.166 0 -0.042 -0.008 -0.064 -0.042 -0.056 -0.052 -0.024 -0.035 -0.009 -0.04 0.123 -0.061 0.068 -0.054 -0.106 -0.025 -0.299 0.002 -0.1 0.008 0.037 0.078 -0.095 0.054 -0.182 0.042 -0.131 -0.021 -0.101 -0.103 -0.132 -0.072 -0.05 -0.045 -0.038 -0.065 -0.054 -0.047 -0.097 -0.057 -0.013 -0.035 0.012 -0.026 0.074 -0.059 -0.056 -0.049 -0.068 -0.043 -0.004 -0.025 0.064 -0.03 0.058 -0.01 0.062 0.002 0.184 0.036 0.101 0.043 0.035 -0.003 0.065 -0.064 0.093 -0.015 0.359 -0.021 0.399 0.083 0.103 0.018 0.083 0.006 -0.043 -0.037 -0.026 -0.048 0.061 -0.018 0.322 0.043 0.151 -0.003 0.354 -0.056 0.585 -0.029 0.221 0.044 0.012 0.024 -0.005 0.032 -0.014 0.01 -0.129 0.037 -0.738 0.03 -0.484 0.116 0.66 -0.019 0.119 0.013 0.05 0.094 0.048 0.01 0.17 0.014 0.115 0.028 0.117 0.053 0.124 0.036 0.072 -0.004 0.026 -0.039 -0.029 -0.046 -0.015 -0.053 0.009 -0.057 0.02 -0.047 0.139 -0.033 0.201 -0.107 0.214 -0.073 0.238 0.032 0.221 0.091 0.199 0.13 0.193 0.139 0.216 0.172 0.104 0.061 0.094 0.014 0.436 0.179 0.049 0.005 -0.09 -0.136 -0.226 -0.23 -0.152 -0.177 -0.034 -0.068 -0.025 -0.095 0.01 -0.027 0.019 -0.025 0.111 -0.102 0.144 -0.049 -0.044 -0.07 0.037 -0.053 0.152 -0.042 0.141 -0.003 0.137 0.032 z M 11.25 -78.611 l 0.011 0.069 0.163 -0.007 0.192 0.073 0.209 0.039 0.059 0.027 0.045 0.034 0.127 0.069 0.06 0.073 -0.151 0.008 -0.208 -0.104 -0.17 -0.059 -0.214 -0.051 -0.173 -0.002 -0.078 -0.022 -0.281 -0.181 -0.052 -0.042 -0.16 -0.067 -0.071 -0.084 0.001 -0.065 0.215 0.015 0.188 0.041 0.163 0.093 0.029 0.029 -0.075 0.038 0.077 0.045 z M 18.742 -80.301 l -0.217 0.055 -0.363 -0.043 0.043 -0.044 0.086 -0.027 0.228 0.01 z M 29.047 -78.912 l 0.298 0.006 0.3 -0.016 0.052 0.017 -0.386 0.053 -0.429 -0.028 -0.387 -0.007 -0.457 0.058 -0.149 -0.023 0.232 -0.056 0.253 -0.019 0.041 -0.034 0.096 -0.006 0.334 -0.004 z" vector-effect="non-scaling-stroke" fill="#000" fill-opacity="1" stroke="#FFF" stroke-width="0px" stroke-linejoin="round" stroke-linecap="round"/></svg>
