<svg xmlns="http://www.w3.org/2000/svg" xmlns:xlink="http://www.w3.org/1999/xlink" height="400" width="400" viewBox="51.97763671875 -26.35634765625 7.85986328125 9.707958984375"><path d="M 58.722 -20.219 l -0.063 0.015 -0.018 -0.007 0 -0.127 0.147 -0.159 0.096 -0.184 0.066 0.164 -0.116 0.092 -0.063 0.157 z M 53.086 -16.648 l -0.061 -0.132 -0.061 -0.132 -0.061 -0.132 -0.061 -0.132 -0.042 -0.092 -0.071 -0.032 -0.043 -0.098 -0.044 -0.1 -0.044 -0.1 -0.044 -0.1 -0.044 -0.1 -0.044 -0.1 -0.044 -0.1 -0.044 -0.1 -0.044 -0.1 -0.044 -0.1 -0.044 -0.1 -0.044 -0.1 -0.044 -0.1 -0.044 -0.1 -0.044 -0.1 -0.044 -0.1 -0.044 -0.1 0.141 -0.047 0.172 -0.057 0.172 -0.057 0.172 -0.057 0.172 -0.057 0.172 -0.057 0.172 -0.057 0.172 -0.057 0.172 -0.057 0.172 -0.057 0.172 -0.057 0.172 -0.057 0.172 -0.057 0.172 -0.057 0.172 -0.057 0.172 -0.057 0.172 -0.057 0.106 -0.035 0.044 -0.133 0.037 -0.111 0.037 -0.111 0.037 -0.111 0.037 -0.111 0.037 -0.111 0.037 -0.111 0.037 -0.111 0.037 -0.111 0.037 -0.111 0.037 -0.111 0.037 -0.111 0.037 -0.111 0.037 -0.111 0.037 -0.111 0.037 -0.111 0.037 -0.111 0.034 -0.101 -0.063 -0.098 -0.085 -0.131 -0.089 -0.137 -0.084 -0.129 -0.061 -0.094 -0.073 -0.113 0.008 -0.146 -0.002 -0.073 0.008 -0.112 0.07 -0.155 0.083 -0.198 0.061 -0.131 0.052 -0.114 0.042 -0.092 0.023 -0.094 -0.012 -0.066 -0.028 -0.024 -0.023 -0.031 0.079 -0.05 0.149 -0.033 0.083 0.007 0.115 -0.024 0.091 -0.022 0.007 -0.03 -0.026 -0.05 -0.038 -0.073 -0.129 -0.008 -0.039 -0.02 0.045 -0.107 -0.002 -0.034 -0.017 -0.04 -0.019 -0.067 0.009 -0.087 0.026 -0.059 0 -0.047 -0.013 -0.098 0.004 -0.087 0.027 -0.043 0.048 -0.04 0.045 -0.02 0.047 0.002 0.037 0.017 0.016 0.046 -0.01 0.031 -0.027 0.004 -0.009 0.013 0.038 0.061 0.055 0.059 0.043 -0.01 0.048 -0.047 0.05 -0.038 0.063 -0.033 0.046 -0.065 0.039 -0.042 0.035 -0.006 0.102 0.263 0.151 0.246 0.133 0.136 0.138 0.184 0.211 0.169 0.097 0.058 0.392 0.119 0.214 0.045 0.295 0.043 0.204 0.093 0.069 0.006 0.107 -0.027 0.078 0.002 0.195 0.126 0.057 0.12 0.081 0.063 0.072 0.099 0.046 0.104 0.165 0.159 0.116 0.179 0.118 0.133 0.106 0.082 0.16 0.032 0.128 0.037 0.014 0.088 -0.013 0.115 -0.024 0.085 -0.119 0.166 -0.028 0.102 -0.135 0.169 -0.146 0.283 -0.067 0.063 -0.236 0.146 -0.173 0.176 -0.205 0.306 -0.156 0.303 -0.06 0.097 -0.125 0.02 -0.083 -0.009 -0.057 -0.029 0.023 -0.083 0.013 -0.092 -0.076 0.01 -0.067 0.019 -0.156 0.227 -0.085 0.099 -0.018 0.126 -0.042 0.163 -0.061 0.15 -0.027 0.126 0.001 0.071 0.046 0.175 0.003 0.179 0.026 0.107 0.021 0.129 -0.073 0.04 -0.063 0.019 -0.248 0.014 -0.251 0.041 -0.219 0.075 -0.131 0.074 -0.171 0.166 -0.104 0.421 -0.167 0.178 -0.113 0.037 -0.273 0.016 -0.384 0.049 -0.135 0.043 -0.224 0.258 -0.017 0.081 0.043 0.058 0.014 0.065 -0.02 0.061 -0.101 0.163 -0.11 0.119 -0.292 0.074 -0.107 -0.044 -0.098 -0.022 -0.19 -0.002 -0.309 0.028 -0.114 0.088 -0.179 0.062 -0.166 0.096 -0.312 0.037 z M 56.298 -25.651 l -0.019 0.023 -0.029 0.002 -0.066 -0.02 -0.039 -0.046 0.007 -0.056 0.002 -0.102 0.018 -0.097 -0.005 -0.102 -0.051 -0.021 -0.036 0.006 0.084 -0.144 0.033 -0.022 0.031 0.009 0.077 -0.015 0.041 -0.078 0.032 -0.043 0.034 0.005 0.017 0.024 -0.012 0.119 -0.001 0.099 -0.043 0.304 -0.044 0.053 -0.022 0.043 z M 56.282 -25.236 l -0.042 0.027 -0.03 -0.004 0.006 -0.053 0.018 -0.037 0.043 0.003 0.01 0.022 z" vector-effect="non-scaling-stroke" fill="#000" fill-opacity="1" stroke="#FFF" stroke-width="0px" stroke-linejoin="round" stroke-linecap="round"/></svg>
