<svg xmlns="http://www.w3.org/2000/svg" xmlns:xlink="http://www.w3.org/1999/xlink" height="400" width="400" viewBox="60.843359375 -37.036669921875 16.2052734375 13.28330078125"><path d="M 76.767 -35.662 l 0.046 0.09 0.069 0.136 0.046 0.089 0.051 0.1 0.026 0.05 0.044 0.086 -0.018 0.048 -0.03 0.07 -0.109 0.053 -0.109 0.039 -0.025 0.022 -0.008 0.03 -0.053 0.061 -0.102 0.051 -0.084 -0.005 -0.053 -0.015 -0.284 0.088 -0.131 -0.002 -0.103 0.057 -0.076 0.052 -0.153 0.057 -0.104 0 -0.153 -0.034 -0.188 -0.065 -0.077 -0.038 -0.069 0.002 -0.167 -0.009 -0.163 -0.032 -0.195 -0.038 -0.096 -0.016 -0.198 -0.033 -0.128 0.044 -0.116 0.04 -0.095 0.027 -0.078 0.124 -0.033 0.044 -0.038 0.063 -0.018 0.044 0.015 0.053 0.115 0.037 0.048 0.051 0.007 0.045 -0.041 0.047 -0.034 0.037 0 0.032 0.018 0.033 0.028 0.024 0.163 0.015 0.096 0 0.038 0.013 0.004 0.044 -0.035 0.06 -0.137 0.048 -0.077 0.05 -0.025 0.067 0.001 0.053 0.026 0.035 0.066 0.041 0.062 0.047 0.019 0.038 -0.007 0.052 -0.025 0.071 -0.067 0.083 -0.056 0.059 -0.004 0.021 0.014 0.032 0.045 0.046 0.077 0.068 0.096 0.055 0.062 0.015 0.02 0.013 0.019 0.064 0.007 0.067 -0.025 0.05 0.049 0.042 0.129 -0.002 0.105 0.018 0.044 -0.018 0.031 0.013 -0.02 0.15 0.014 0.089 0.028 0.025 0.103 0.036 0.198 -0.004 0.117 0.042 0.13 0.048 0.069 0.053 0.031 0.04 -0.009 0.064 -0.071 0.075 -0.115 0.036 -0.067 0.015 -0.332 0.141 -0.104 0.059 -0.08 0.071 -0.03 0.053 -0.016 0.052 0.072 0.189 0.012 0.059 -0.059 0.204 -0.017 0.076 0.022 0.053 0.071 0.02 0.015 0.044 0.007 0.034 -0.123 0.075 -0.129 0.066 -0.041 0 -0.124 0.125 -0.207 0.249 -0.11 0.084 -0.008 0.041 -0.009 0.042 0.042 0.071 0.009 0.06 -0.047 0.06 -0.077 0.069 -0.151 0.06 -0.191 0.062 -0.086 0.037 -0.064 0.161 -0.059 0.162 -0.027 0.06 -0.103 0.187 -0.18 0.275 -0.045 0.06 -0.278 0.133 -0.284 0.144 -0.05 0.055 -0.058 0.131 -0.055 0.144 -0.051 0.075 -0.18 0.169 -0.059 0.13 -0.019 0.085 -0.154 0.047 -0.174 0.045 -0.253 0.015 -0.105 0.024 -0.31 0.117 -0.077 0.005 -0.061 -0.019 -0.046 -0.04 -0.042 -0.066 -0.02 -0.102 -0.06 -0.046 -0.081 -0.039 -0.085 -0.002 -0.085 0.043 -0.074 0.048 -0.05 0.039 -0.049 0.046 -0.095 0.154 -0.154 0.221 -0.171 0.161 -0.063 0.048 -0.04 0.036 -0.054 0.053 -0.031 0.052 -0.042 0.169 -0.025 0.15 0.011 0.033 0.026 0.028 0.094 0.044 0.135 0.072 0.175 0.041 0.148 0.007 0.055 0.031 0.033 0.042 0.009 0.035 -0.008 0.124 -0.017 0.133 -0.055 0.143 0.001 0.082 0.022 0.08 0.164 0.204 0.061 0.021 0.123 0.004 0.057 -0.004 0.064 -0.021 0.045 0.014 0.034 0.025 0.009 0.041 -0.005 0.203 0.05 0.092 0.098 0.125 0.077 0.143 0.073 0.171 0.07 0.134 0.027 0.07 -0.046 0.034 -0.026 0.035 -0.007 0.047 0.009 0.049 -0.006 0.035 0.033 0.043 0.039 0.014 -0.001 0.03 -0.061 0.039 -0.055 -0.001 -0.042 0.019 -0.081 0.082 -0.038 0.017 -0.051 0.007 -0.057 -0.008 -0.08 -0.033 -0.023 -0.052 0.009 -0.055 -0.018 -0.033 -0.058 0.006 -0.2 0.056 -0.191 0.069 -0.033 0.047 -0.044 0.049 -0.087 0.02 -0.129 0.006 -0.089 -0.007 -0.082 -0.053 -0.075 -0.048 -0.116 -0.002 -0.208 0.007 -0.116 0 -0.068 -0.018 -0.067 0.013 -0.084 -0.019 -0.037 0.026 -0.035 0.002 -0.028 -0.045 -0.019 -0.005 -0.022 0.006 -0.019 0.015 -0.012 0.026 -0.004 0.301 -0.137 -0.002 -0.098 -0.001 -0.107 0.016 -0.099 0.023 -0.048 0.027 -0.069 0.043 -0.016 0.06 -0.033 0.044 -0.048 -0.065 -0.031 -0.03 -0.036 0.022 -0.05 -0.003 -0.091 -0.074 -0.041 0.075 -0.151 0.017 -0.019 -0.056 -0.004 -0.053 -0.083 0.038 -0.059 -0.058 -0.027 -0.078 -0.023 -0.022 -0.026 -0.025 -0.062 -0.027 -0.056 -0.083 -0.005 -0.088 -0.016 -0.105 -0.117 -0.388 -0.071 -0.036 -0.398 -0.069 -0.021 -0.068 0.028 -0.182 -0.011 -0.115 -0.129 -0.152 -0.036 -0.106 -0.105 -0.091 -0.104 -0.026 -0.105 0.012 -0.057 0.036 -0.031 0.061 0.225 -0.014 0.051 0.022 0.061 0.04 -0.065 -0.002 -0.075 -0.019 -0.094 0.001 -0.351 0.045 -0.204 0.064 -0.273 -0.019 -0.345 0.063 -0.285 0.004 -0.118 0.123 -0.065 -0.022 -0.05 -0.03 -0.392 -0.097 -0.027 -0.04 -0.066 -0.029 -0.072 0.052 -0.052 0.009 -0.215 -0.043 -0.164 0.033 -0.061 0.056 -0.004 0.087 -0.206 -0.017 -0.116 -0.027 -0.155 0.03 -0.35 -0.04 -0.092 0.01 -0.128 0.057 -0.054 0.045 -0.076 0.018 -0.067 -0.062 -0.05 -0.027 -0.046 0.018 -0.063 0.051 -0.182 0.024 -0.164 -0.007 -0.177 -0.048 0.021 -0.016 0.028 -0.084 0.025 -0.298 0.031 -0.108 -0.01 -0.059 0.007 -0.018 0.069 -0.052 0.017 -0.022 0.026 -0.152 0.029 -0.169 0.032 -0.061 0.027 -0.017 0.219 -0.076 0.037 -0.051 0.113 0.012 0.01 -0.012 0.01 -0.058 0.053 -0.063 0.073 -0.052 0.054 -0.018 0.197 -0.033 0.115 -0.046 0.035 -0.005 0.306 0.012 0.065 -0.017 0.01 -0.016 0.018 -0.172 0.055 -0.027 0.009 -0.015 -0.019 -0.119 0.011 -0.08 0.063 -0.047 -0.004 -0.027 -0.045 -0.056 -0.06 -0.036 -0.029 -0.009 -0.251 0.034 -0.104 -0.011 -0.049 -0.021 -0.01 -0.015 0.01 -0.035 0.002 -0.057 0.037 -0.088 0.011 -0.052 -0.03 -0.304 -0.043 -0.202 0.023 -0.2 -0.004 -0.042 -0.009 -0.009 -0.032 0 -0.153 0.018 -0.131 -0.129 -0.081 -0.051 -0.222 -0.064 -0.098 -0.012 -0.143 -0.056 -0.132 -0.121 -0.135 -0.124 -0.054 -0.079 -0.06 -0.135 -0.171 -0.259 0.002 -0.067 -0.021 -0.041 -0.166 -0.17 -0.118 -0.121 -0.191 -0.195 0.381 0.109 0.297 0.084 0.479 0.135 0.372 0.105 0.103 0.017 1.091 -0.09 0.403 0.068 0.128 0.038 0.019 -0.022 0.054 -0.046 0.094 -0.047 0.128 -0.037 0.127 -0.02 0.182 -0.003 0.124 0.003 0.092 0.011 0.177 -0.007 0.085 -0.018 0.291 -0.074 0.195 -0.05 0.295 -0.078 0.215 -0.057 0.054 -0.03 0.056 -0.054 0.026 -0.049 -0.066 -0.075 -0.009 -0.066 0.043 -0.084 0.024 -0.128 -0.004 -0.182 -0.014 -0.105 0.06 -0.195 0.05 -0.109 0.1 -0.052 0.069 -0.032 0.029 -0.023 0.028 -0.026 0.107 -0.148 0.098 -0.069 0.095 -0.042 0.103 0.005 0.088 0.057 0.171 0.025 0.166 -0.017 0.144 -0.043 0.065 -0.035 0.076 -0.031 -0.004 -0.035 -0.086 -0.031 -0.05 -0.043 -0.019 -0.053 0.049 -0.032 0.113 -0.009 0.277 -0.13 0.113 -0.085 0.031 -0.04 0.053 -0.004 0.106 0.04 0.123 0.013 0.077 -0.04 0.077 -0.009 0.076 0.043 0.04 0.052 0.069 0.062 0.087 0.012 0.104 -0.033 0.11 -0.071 0.104 -0.1 0.092 -0.099 -0.023 -0.313 -0.015 -0.184 0.049 -0.097 0.07 -0.06 0.046 -0.092 -0.001 -0.082 0.049 -0.069 0.048 -0.187 0.066 -0.044 0.136 -0.031 0.216 -0.018 0.17 -0.086 0.171 -0.091 0.023 -0.08 -0.064 -0.086 -0.086 -0.166 -0.078 -0.099 -0.189 -0.178 0.022 -0.11 0.105 -0.045 0.259 0.076 0.072 0.015 0.09 0.011 0.238 -0.002 0.194 -0.03 0.203 -0.068 0.04 -0.071 -0.002 -0.084 0.003 -0.069 0.003 -0.096 -0.073 -0.062 -0.044 -0.055 -0.013 -0.044 0.051 -0.024 0.049 -0.045 0.048 -0.082 0.113 -0.098 0.068 -0.088 0.064 -0.042 0.097 -0.057 0.062 -0.084 0.028 -0.05 0.056 -0.049 0.019 -0.032 -0.015 -0.029 -0.028 -0.036 -0.032 -0.041 0 -0.04 0.026 -0.042 0.029 -0.038 -0.013 -0.053 -0.015 -0.086 -0.053 -0.051 -0.035 -0.117 -0.056 -0.119 -0.03 -0.046 -0.055 -0.058 -0.123 -0.062 -0.035 -0.041 0.048 -0.08 0.08 -0.049 0.151 -0.122 0.083 -0.084 0.075 -0.059 0.096 0.01 0.056 -0.005 0.05 -0.054 0.098 -0.048 0.175 -0.1 0.061 -0.067 0.093 -0.034 0.077 -0.008 0.104 -0.023 0.1 -0.036 0.092 -0.028 0.143 -0.005 0.228 -0.017 0.123 -0.017 0.294 -0.013 0.321 -0.006 0.037 -0.001 0.139 0.036 0.094 0.03 0.037 -0.003 0.156 -0.071 0.236 -0.087 0.11 -0.038 0.059 -0.015 0.092 0.001 0.074 0.023 0.075 0.034 0.048 0.027 0.06 -0.016 0.105 -0.019 0.091 0.014 0.201 0.06 0.03 0.03 0.047 0.145 0.036 0.013 0.113 -0.034 0.093 0.017 0.105 0.047 0.068 0.045 0.045 0.049 0.048 0.079 0.019 0.063 0.023 0.076 -0.006 0.214 -0.035 0.035 -0.029 0.045 0.007 0.04 0.033 0.031 0.065 0.021 0.06 0.013 0.032 0.034 0.045 0.12 0.03 0.018 0.074 0 0.134 -0.026 0.116 -0.041 0.049 -0.009 0.012 0.114 0.068 0.044 0.096 0.051 z" vector-effect="non-scaling-stroke" fill="#000" fill-opacity="1" stroke="#FFF" stroke-width="0px" stroke-linejoin="round" stroke-linecap="round"/></svg>
