<svg xmlns="http://www.w3.org/2000/svg" xmlns:xlink="http://www.w3.org/1999/xlink" height="400" width="400" viewBox="34.19814453125 -32.534423828125 1.37392578124999 1.326123046875"><path d="M 34.477 -31.585 l 0.047 0.043 0.001 0.016 -0.175 0.163 -0.002 0.07 -0.103 0.085 -0.033 -0.084 -0.014 -0.03 0.189 -0.161 z M 35.551 -32.396 l 0.021 0.158 -0.037 0.135 -0.003 0.118 0.028 0.219 -0.06 0.093 -0.034 0.11 -0.015 0.083 -0.042 -0.004 -0.132 0.06 -0.175 0.057 -0.193 0.015 -0.027 -0.017 -0.008 -0.029 0.056 -0.14 0.022 -0.066 0.084 -0.071 0.119 -0.061 0.05 -0.016 -0.006 -0.026 -0.071 -0.04 -0.074 -0.021 -0.07 0.021 -0.022 -0.007 -0.007 -0.018 0.025 -0.025 0.011 -0.047 -0.011 -0.078 -0.007 -0.096 -0.015 -0.074 0.044 -0.12 0.011 -0.057 0.054 -0.122 0.128 -0.074 0.111 0.021 0.058 0.005 0.025 0.014 0.016 0.042 0.082 0.049 z" vector-effect="non-scaling-stroke" fill="#000" fill-opacity="1" stroke="#FFF" stroke-width="0px" stroke-linejoin="round" stroke-linecap="round"/></svg>
