<svg xmlns="http://www.w3.org/2000/svg" xmlns:xlink="http://www.w3.org/1999/xlink" height="400" width="400" viewBox="-83.02734375 -9.5978515625 5.83134765625 2.37778320312501"><path d="M -77.374 -8.658 l -0.019 0.014 -0.055 0.079 -0.03 0.067 0.071 0.071 0.021 0.076 0.04 0.082 0.063 0.082 0.07 0.153 0.016 0.061 -0.02 0.04 -0.067 0.024 -0.063 0.072 -0.017 0.087 0.012 0.043 -0.188 0.14 -0.048 0.023 -0.032 -0.021 -0.04 -0.07 -0.048 -0.057 -0.026 -0.02 -0.015 -0.001 -0.015 0.013 -0.007 0.031 0.025 0.131 -0.021 0.053 -0.064 0.041 -0.073 0.213 -0.029 -0.027 -0.24 -0.287 -0.208 -0.356 -0.043 -0.161 0.054 -0.01 0.052 0.004 0.028 -0.025 0.032 -0.047 -0.026 -0.109 0.101 -0.083 0.038 -0.056 0.028 0.006 0.066 0.095 0.096 0.054 0.118 0.079 0.073 0.018 -0.092 -0.083 -0.16 -0.109 -0.045 -0.072 -0.042 -0.1 -0.062 0.043 -0.029 0.036 -0.032 0.021 -0.028 -0.025 -0.005 -0.032 -0.094 -0.006 -0.024 -0.029 -0.025 -0.016 0.011 0.062 0.019 0.038 -0.01 0.046 -0.031 0.003 -0.026 -0.048 -0.033 -0.043 -0.045 -0.181 -0.107 -0.086 -0.049 -0.028 -0.04 -0.011 -0.059 -0.058 -0.079 -0.031 -0.107 -0.09 -0.131 -0.065 -0.16 -0.023 -0.195 0.014 -0.066 0.036 -0.045 0.046 -0.021 0.021 -0.115 0.052 -0.044 0.076 -0.027 0.064 -0.057 0.072 0.065 0.044 -0.375 0.246 -0.074 0.036 -0.169 0.025 -0.039 0.026 -0.051 0.049 -0.007 0.074 0.008 0.063 0.049 0.048 0.044 0.031 0.105 0.146 0.186 0.185 0.035 0.067 0.029 0.1 -0.056 0.047 -0.043 0.02 -0.177 0.008 -0.061 0.04 -0.025 0.061 -0.066 0.05 -0.228 0.049 -0.179 0.006 -0.056 -0.057 -0.013 -0.16 -0.12 -0.274 -0.029 -0.189 -0.03 0.023 -0.064 0.022 -0.022 0.047 -0.016 0.139 -0.024 0.047 -0.049 -0.005 -0.101 -0.05 -0.135 -0.046 -0.172 -0.295 -0.019 -0.055 -0.033 -0.066 -0.133 -0.028 -0.113 -0.05 -0.123 -0.008 -0.063 0.028 -0.064 -0.036 -0.011 -0.081 -0.129 0.036 -0.166 -0.013 -0.149 -0.035 -0.102 0.018 -0.085 0.057 0.012 0.147 -0.025 0.029 -0.004 -0.06 -0.03 -0.069 -0.036 -0.057 -0.075 -0.059 -0.004 -0.022 0.03 -0.03 0.136 -0.086 0.017 -0.036 0.002 -0.075 -0.013 -0.071 -0.061 -0.105 0.035 -0.065 0.07 -0.052 0.072 -0.041 0.012 -0.017 -0.013 -0.036 -0.042 -0.039 -0.098 -0.066 -0.059 -0.004 -0.002 -0.189 0.003 -0.2 0.015 -0.02 0.036 -0.012 0.029 -0.03 0.016 -0.059 0.043 -0.021 0.078 0.046 0.079 0.04 0.033 -0.013 0.025 -0.02 0.017 -0.019 0.006 -0.018 0.063 0.053 0.13 0.095 0.008 0.047 -0.012 0.045 0.036 0.128 0.067 0.019 0.068 -0.025 0.017 0.024 -0.013 0.024 -0.035 0.026 -0.009 0.11 0.111 0.051 0.055 0.045 0.184 -0.021 0.068 0.012 0.046 -0.013 -0.051 -0.088 -0.069 -0.065 0.006 -0.029 0.052 0.022 0.04 0.045 0.09 0.055 0.167 0.192 0.191 0.046 0.151 -0.006 0.141 -0.026 0.224 -0.075 0.162 -0.135 0.13 -0.06 0.42 -0.128 0.149 -0.134 0.063 -0.018 0.06 -0.017 0.132 -0.101 0.071 -0.079 0.075 -0.04 0.222 0.029 0.144 0.037 0.099 -0.005 0.096 0.026 0.042 0.057 0.043 0.025 0.235 -0.006 0.193 0.028 0.422 0.17 0.252 0.168 0.134 0.179 z M -78.898 -8.274 l -0.02 0.042 -0.047 -0.094 0.008 -0.024 -0.003 -0.085 0.045 -0.022 0.033 -0.002 0.027 0.012 0.017 0.1 -0.014 0.045 z M -81.603 -7.333 l -0.055 0.005 -0.112 -0.043 -0.082 -0.083 -0.007 -0.027 0.002 -0.027 0.045 -0.085 0.06 -0.029 0.024 0 0.057 0.098 -0.039 0.038 0.016 0.061 0.081 0.045 z M -82.233 -9.381 l -0.011 0.047 -0.077 -0.084 0.046 -0.014 0.016 0.002 z M -79.065 -8.254 l -0.045 0.044 -0.017 -0.042 0.031 -0.044 0.011 0 z" vector-effect="non-scaling-stroke" fill="#000" fill-opacity="1" stroke="#FFF" stroke-width="0px" stroke-linejoin="round" stroke-linecap="round"/></svg>
