<svg xmlns="http://www.w3.org/2000/svg" xmlns:xlink="http://www.w3.org/1999/xlink" height="400" width="400" viewBox="140.8623046875 1.35322265625001 15.0953125 10.27734375"><path d="M 152.966 4.756 l -0.074 0.076 -0.046 -0.071 -0.059 -0.062 -0.047 -0.064 -0.059 -0.137 -0.003 -0.069 0.016 -0.073 0.003 -0.074 -0.029 -0.15 -0.07 -0.137 -0.243 -0.327 -0.076 -0.086 -0.087 -0.077 -0.056 -0.019 -0.113 -0.018 -0.05 -0.015 -0.093 -0.053 -0.087 -0.062 -0.215 -0.184 -0.113 -0.052 -0.06 -0.064 -0.338 -0.208 -0.099 -0.049 -0.12 0 -0.102 -0.041 0.08 -0.026 0.017 -0.069 -0.018 -0.071 0.17 0.115 0.179 0.101 0.052 0.081 0.088 0.005 0.161 0.067 0.11 0.061 0.104 0.07 0.117 0.1 0.226 0.079 0.032 0.029 0.114 0.13 0.15 0.111 0.051 0.061 0.636 0.524 0.107 0.147 0.008 0.1 -0.021 0.039 -0.067 0.085 0.001 0.1 -0.022 0.09 z M 151.916 4.297 l 0.052 0.02 0.15 -0.105 0.08 0.073 0.102 0.036 0.106 0.02 -0.042 0.15 0.012 0.069 0.027 0.069 -0.004 0.102 -0.049 0.091 -0.094 0.133 -0.042 0.025 -0.049 0.014 -0.153 0.011 -0.03 0.071 0.01 0.075 0.083 0.098 0.066 0.11 -0.066 0.101 -0.109 0.071 -0.103 0.036 -0.171 -0.021 -0.18 0.009 -0.034 0.039 -0.001 0.064 -0.025 0.049 -0.033 0.044 -0.091 0.092 -0.102 0.081 -0.139 0.077 -0.047 0.018 -0.123 0.012 -0.111 0.044 -0.049 0.043 -0.054 0.035 -0.118 0.038 -0.115 0.076 -0.045 0.013 -0.238 0.013 -0.34 0.004 -0.101 0.008 -0.098 -0.01 -0.054 -0.029 -0.115 -0.136 -0.101 -0.047 -0.11 0.001 -0.146 0.048 -0.028 -0.011 -0.292 -0.201 -0.088 -0.049 -0.094 -0.037 -0.115 -0.025 -0.109 -0.04 -0.064 -0.096 0.008 -0.125 0.087 -0.073 0.133 0.036 0.051 0 0.05 -0.021 0.058 0.007 0.059 0.018 0.216 -0.027 0.125 0.038 0.121 0.05 0.114 0.011 0.117 -0.011 0.156 -0.057 0.049 0.008 0.15 0.001 0.131 -0.076 0.049 -0.308 0.033 -0.105 0.045 -0.023 0.032 0.006 0.048 0.052 -0.062 0.065 -0.027 0.05 -0.009 0.123 0.034 0.119 0.077 0.095 0.116 0.012 0.106 -0.063 0.115 -0.013 0.106 0.061 0.109 -0.01 0.05 -0.04 0.058 -0.017 0.058 -0.007 0.053 -0.023 0.069 -0.103 0.047 -0.116 0.069 -0.092 0.189 -0.153 0.054 -0.019 0.059 -0.01 0.133 0.007 0.099 -0.054 0.008 -0.122 -0.014 -0.124 -0.113 -0.292 -0.008 -0.046 0.016 -0.052 0.033 -0.047 0.111 -0.001 0.116 0.017 0.045 0.044 z M 140.976 9.119 l 0 -0.013 0 -0.203 0 -0.203 0 -0.203 0 -0.203 0 -0.203 0 -0.203 0 -0.203 0 -0.203 0 -0.203 0 -0.203 0 -0.167 -0.056 -0.065 -0.057 -0.1 0.012 -0.129 0.069 -0.159 0.031 -0.106 0 -0.087 0 -0.203 0 -0.203 0 -0.203 0 -0.203 0 -0.203 0 -0.203 0 -0.203 0 -0.203 0 -0.203 0 -0.203 0 -0.203 0 -0.203 0 -0.203 0 -0.203 0 -0.203 0 -0.203 0 -0.203 0 -0.122 0 -0.067 0 -0.004 0.03 0 0.101 0.001 0.081 0.017 0.501 0.217 0.15 0.087 0.051 0.02 0.05 0.001 0.048 0.01 0.226 0.12 0.337 0.121 0.356 0.116 0.11 0.024 0.114 0.01 0.248 0.04 0.131 0.036 0.192 0.142 0.097 0.044 0.091 0.08 0.128 0.086 0.051 0.022 0.056 0.01 0.126 0.003 0.126 -0.016 0.052 0.007 0.051 0.016 0.047 0.03 0.024 0.058 0.078 0.08 0.111 0.036 0.106 0.072 0.095 0.087 0.07 0.087 0.079 0.074 0.12 0.031 0.127 0.005 0.432 0.438 0.021 0.068 0.005 0.287 -0.048 0.225 0.108 0.069 0.147 0.026 0.206 0.048 0.198 0.071 0.631 0.303 0.087 0.026 0.127 0.01 0.128 -0.004 0.046 0.015 0.096 0.055 0.048 0.036 0.086 0.098 0.077 0.106 0.033 0.03 0.039 0.024 0.022 0.058 0.03 0.178 -0.009 0.111 -0.035 0.041 -0.101 0.02 -0.354 0.019 -0.237 -0.021 -0.166 0.112 -0.004 0.049 0.012 0.046 0.144 0.238 0.085 0.211 0.07 0.086 0.105 0.07 0.094 0.082 0.086 0.095 0.179 0.165 0.098 0.061 0.114 0.038 0.191 0.128 0.025 0.057 0.054 0.178 0.024 0.121 0.004 0.05 0.013 0.045 0.168 0.11 0.037 0.031 0.075 0.244 0.057 0.113 0.096 0.04 0.112 -0.003 0.306 -0.073 0.044 -0.002 0.057 0.017 0.049 0.04 0.016 0.11 -0.048 0.115 -0.013 0.111 0.06 0.091 0.156 0.071 0.057 0.019 0.28 0.023 0.11 0.019 0.108 0.031 0.038 0.027 -0.026 0.049 -0.056 0.024 -0.064 0.01 -0.103 0.035 0.002 0.063 0.058 0.066 0.053 0.079 0.045 0.029 0.048 0.019 0.121 0.027 0.118 0.037 0.078 0.037 0.08 0.027 0.175 0.017 0.128 0.05 0.183 -0.021 -0.158 0.082 -0.054 0.02 -0.191 -0.031 -0.036 0.032 0.079 0.087 0.117 0.058 0.042 0.034 -0.029 0.04 -0.136 0.079 -0.057 0.012 -0.106 0.006 -0.178 -0.034 -0.126 -0.044 -0.035 -0.059 -0.033 -0.035 -0.113 -0.084 -0.081 -0.046 -0.103 -0.016 -0.107 0.001 -0.192 -0.049 -0.416 -0.035 -0.099 -0.021 -0.125 -0.067 -0.059 -0.01 -0.063 0.021 -0.161 0.013 -0.047 -0.006 -0.115 -0.057 -0.118 -0.021 -0.049 0.017 -0.05 0.004 -0.161 -0.041 -0.121 -0.017 -0.1 -0.057 -0.054 -0.053 -0.061 -0.047 -0.057 -0.122 -0.088 -0.116 -0.109 -0.095 -0.234 -0.154 -0.047 -0.038 -0.092 -0.141 0.005 -0.093 0.033 -0.094 -0.05 0.032 -0.057 -0.004 -0.16 -0.062 -0.066 -0.074 -0.107 -0.201 -0.068 -0.106 -0.159 -0.188 -0.046 -0.112 -0.067 -0.098 -0.041 -0.036 -0.034 -0.042 -0.03 -0.054 -0.045 -0.038 -0.222 -0.084 -0.039 -0.026 -0.043 -0.014 -0.165 -0.009 -0.096 -0.014 -0.18 -0.068 -0.093 -0.021 -0.112 -0.013 -0.108 -0.026 -0.053 -0.025 -0.036 -0.043 -0.021 -0.102 -0.091 0.011 -0.089 -0.018 -0.086 -0.036 -0.088 -0.022 -0.06 0.031 -0.018 0.081 -0.028 0.004 -0.052 -0.017 -0.026 0.01 -0.056 0.038 -0.045 0.051 -0.083 -0.008 -0.169 -0.051 -0.075 -0.032 -0.064 -0.058 -0.055 -0.066 -0.056 -0.052 -0.068 -0.038 0.087 0.089 0.2 0.394 -0.05 0.008 -0.052 -0.01 0.047 0.076 -0.055 0.011 -0.054 -0.001 -0.114 -0.033 -0.113 -0.011 -0.033 0.016 0.024 0.028 0.04 0.084 0.032 0.088 -0.164 0.039 -0.168 0.024 -0.187 0.047 -0.189 0.003 -0.097 -0.027 -0.1 -0.015 -0.094 0.015 -0.091 0.034 -0.077 -0.005 -0.048 -0.062 -0.023 -0.047 -0.029 -0.041 -0.072 0.006 -0.069 0.022 0.118 0.003 0.035 0.052 0.03 0.063 0.084 0.057 0.101 -0.034 0.222 0.009 0.216 0.099 0.051 0.011 0.047 0.019 0.111 0.098 0.084 0.089 0.071 0.101 0.015 0.04 -0.005 0.106 -0.021 0.053 -0.139 0.075 -0.149 0.057 -0.219 0.11 -0.212 0.125 -0.111 -0.025 -0.1 -0.066 -0.039 -0.018 -0.104 -0.036 -0.063 -0.013 -0.251 0.028 -0.252 0.014 -0.106 -0.001 -0.103 -0.021 -0.113 -0.039 -0.112 0.017 -0.077 0.046 -0.084 0.007 z M 148.026 5.826 l -0.04 0.008 -0.017 -0.045 -0.093 -0.039 -0.093 -0.122 0.001 -0.105 0.012 -0.03 0.052 -0.002 0.208 0.121 0.021 0.039 -0.016 0.114 z M 146.019 4.726 l -0.067 0.03 -0.048 -0.023 -0.02 -0.066 0.017 -0.063 0.059 -0.05 0.037 -0.015 0.042 0.034 0.016 0.067 z M 152.671 3.133 l -0.024 0.088 -0.061 -0.051 -0.042 -0.074 0.027 -0.033 0.069 -0.02 z M 152.099 2.947 l -0.011 0.05 -0.031 -0.003 -0.086 -0.099 -0.017 -0.026 0.02 -0.025 0.1 0.073 z M 149.765 1.553 l -0.002 0.036 -0.072 -0.018 -0.02 0.005 -0.125 -0.105 0.002 -0.064 0.033 -0.054 0.052 0.009 0.092 0.069 z M 151.081 10.02 l 0.042 0 0.071 -0.075 0.061 -0.023 0.041 0.034 -0.066 0.238 -0.055 -0.036 -0.216 -0.066 -0.007 -0.094 -0.056 -0.03 -0.035 -0.092 -0.072 -0.102 -0.014 -0.065 0.041 0.027 0.046 0.067 0.189 0.137 -0.007 0.044 z M 150.345 9.494 l -0.014 0.025 -0.058 -0.018 -0.163 -0.138 0.025 -0.102 0.073 -0.053 0.112 0.058 0.037 0.085 0.011 0.047 z M 151.107 8.733 l 0.017 0.071 -0.078 -0.077 0.035 -0.087 0.006 -0.047 -0.004 -0.026 -0.078 -0.045 0.041 -0.073 0.044 -0.025 0.027 -0.007 -0.001 0.103 0.022 0.046 z M 154.281 11.361 l -0.015 0.054 -0.036 -0.018 -0.108 0.028 -0.057 -0.006 -0.033 -0.049 -0.008 -0.023 0.094 0.018 -0.016 -0.054 0.136 0.027 z M 143.587 8.482 l -0.044 0.003 -0.176 -0.068 -0.045 -0.049 0.206 0.011 0.053 0.012 0.011 0.069 z M 147.176 5.432 l -0.056 0.005 -0.091 -0.095 -0.023 -0.035 0.009 -0.05 0.116 -0.067 0.075 0.061 0.016 0.13 z M 147.068 1.96 l 0.333 0.065 0.022 -0.001 -0.004 -0.023 0.006 -0.007 0.02 0.017 -0.006 0.047 -0.053 0.012 -0.049 -0.005 -0.035 0.024 -0.095 0.092 -0.064 -0.015 -0.078 0.021 -0.137 0.002 -0.179 -0.04 -0.049 0.034 -0.064 -0.009 -0.063 0.037 -0.026 -0.002 -0.015 -0.054 0.001 -0.028 0.075 -0.024 -0.011 -0.086 0.06 -0.043 0.104 0.004 0.097 -0.029 z M 150.437 2.662 l -0.199 0.014 -0.072 -0.015 -0.064 -0.058 -0.058 -0.09 -0.058 -0.021 -0.024 -0.018 0.141 -0.069 0.125 -0.021 0.202 0.086 0.021 0.043 0.002 0.028 -0.005 0.091 z M 150.528 9.347 l 0.141 0.082 0.077 -0.024 0.042 0.013 0.09 0.095 0.005 0.069 0.015 0.059 -0.005 0.026 -0.05 0.035 0.004 -0.04 -0.038 -0.008 -0.132 0.002 -0.102 -0.025 -0.14 -0.007 0.059 -0.063 0.013 -0.026 -0.074 -0.101 -0.003 -0.048 0.006 -0.027 0.062 -0.014 z M 152.631 8.959 l 0.058 0.015 0.121 -0.007 0.04 0.057 0.055 0.02 0.048 0.026 0.042 0.038 0 0.023 -0.01 0.02 -0.026 0.018 0.008 0.04 -0.044 -0.006 -0.055 0.021 -0.108 -0.047 -0.039 -0.011 -0.012 -0.04 -0.07 -0.068 -0.123 -0.049 0.062 -0.04 z M 153.536 11.476 l 0.167 0.052 0.057 0.058 -0.06 0.026 -0.146 0.018 -0.034 -0.035 -0.14 -0.036 -0.022 -0.065 -0.07 0.022 0.036 -0.046 -0.088 -0.051 -0.027 -0.068 -0.003 -0.028 0.103 0.032 z M 143.59 8.633 l 0.018 0.044 -0.145 -0.06 -0.139 -0.1 -0.07 -0.027 -0.047 -0.066 0.086 0.049 0.15 0.046 z M 147.877 2.283 l -0.032 0.053 -0.076 -0.004 -0.033 -0.016 0.055 -0.01 0.022 -0.043 0.024 -0.015 z M 151.957 2.83 l -0.024 0 -0.004 -0.08 0.017 -0.042 0.056 0.029 0.009 0.071 z M 150.899 10.565 l -0.014 0.078 -0.082 -0.023 -0.017 -0.017 0.014 -0.049 0.073 -0.002 z M 153.659 4.099 l -0.009 0.024 -0.059 -0.027 0.048 -0.051 0.023 -0.004 z M 155.958 6.687 l -0.024 0.094 -0.018 0.016 -0.023 -0.035 -0.087 0.034 -0.042 0.039 -0.044 0.028 -0.102 -0.007 -0.096 -0.026 -0.094 -0.048 -0.083 -0.061 -0.083 -0.096 -0.052 -0.099 0.026 -0.115 -0.032 -0.104 -0.158 -0.074 -0.034 -0.024 -0.07 -0.104 -0.07 -0.045 -0.088 -0.091 -0.023 -0.039 -0.038 -0.115 -0.012 -0.069 0.032 -0.202 -0.012 -0.101 0.043 0.01 0.046 0.04 0.052 0.027 0.127 0.019 0.097 0.08 0.093 0.157 0.011 0.051 0.03 0.037 0.096 0.067 0.05 0.043 0.094 0.171 0.052 0.036 0.062 0.015 0.057 0.025 0.096 0.075 0.088 0.085 0.06 0.089 0.045 0.095 z M 154.647 5.433 l -0.02 0.008 -0.043 -0.126 -0.008 -0.094 -0.013 -0.069 -0.023 -0.041 0.066 -0.076 0.027 -0.021 0.049 0.04 0.007 0.089 0.038 0.075 -0.029 0.165 z" vector-effect="non-scaling-stroke" fill="#000" fill-opacity="1" stroke="#FFF" stroke-width="0px" stroke-linejoin="round" stroke-linecap="round"/></svg>
