<svg xmlns="http://www.w3.org/2000/svg" xmlns:xlink="http://www.w3.org/1999/xlink" height="400" width="400" viewBox="-62.6509765625 19.28623046875 8.4091796875 8.267578125"><path d="M -58.16 20.165 l 0.022 0.073 0.013 0.056 0.033 0.04 0.033 0.053 0.033 0.03 0.023 0.05 -0.007 0.056 0.013 0.073 0.017 0.063 0.017 0.017 0.047 0.017 0.024 0.057 -0.017 0.029 0.007 0.033 0.017 0.032 -0.016 0.031 0.008 0.024 0.032 0.021 0.03 0.079 0.003 0.136 -0.033 0.073 -0.026 0.06 -0.007 0.036 0.02 0.053 -0.033 0.063 -0.04 0.076 0.01 0.053 0.007 0.05 0.003 0.053 0.01 0.05 -0.013 0.053 -0.013 0.046 -0.007 0.053 0.017 0.06 -0.03 0.056 -0.017 0.04 -0.007 0.04 0.03 0.063 0.076 0.026 0.06 0.007 0.056 -0.033 0.043 -0.01 0.079 0.03 0.073 0.053 0.093 0.007 0.083 0.01 0.063 0.017 0.093 -0.02 0.096 0.02 0.112 0.03 0.093 0.026 0.093 -0.007 0.069 -0.003 0.073 -0.03 0.069 0.003 0.053 -0.053 0.03 -0.046 0.026 -0.033 0.076 -0.026 0.053 0.017 0.043 0.086 0.076 0.05 0.03 0.036 0.056 0.017 0.122 0.003 0.076 -0.003 0.086 0.026 0.056 0 0.05 0.046 0.046 0.056 0.007 0.103 0.043 0.079 0.056 0.03 0.03 0.05 -0.01 0.069 -0.026 0.069 0.003 0.076 0.03 0.069 0 0.069 0.02 0.069 0.04 0.06 0.013 0.096 -0.007 0.069 0.026 0.04 0.01 0.056 -0.017 0.046 -0.007 0.063 0.003 0.056 0.02 0.046 0.06 0.059 0.017 0.106 0 0.073 0.026 0.086 0.05 0.04 0.079 0.013 0.093 0.013 0.112 -0.02 0.099 -0.023 0.056 -0.023 0.109 -0.063 0.096 -0.036 0.05 -0.023 0.046 -0.017 0.096 0.04 0.089 0.05 0.069 0.069 0.129 0.076 -0.025 0.019 -0.051 0.062 0.001 0.073 0.036 0.105 -0.032 0.222 -0.1 0.339 -0.041 0.198 0.018 0.056 -0.037 0.099 -0.137 0.213 -0.005 0.143 -0.016 0.43 -0.046 0.303 -0.077 0.224 -0.07 0.119 -0.063 0.015 -0.046 0.036 -0.028 0.057 -0.051 0.047 -0.075 0.038 -0.041 0.042 -0.006 0.045 -0.072 0.029 -0.138 0.013 -0.081 0.036 -0.024 0.059 -0.046 0.047 -0.068 0.035 -0.032 0.058 0.003 0.08 -0.039 0.069 -0.082 0.058 -0.075 0.002 -0.069 -0.054 -0.092 -0.036 -0.116 -0.018 -0.097 0.014 -0.078 0.045 -0.069 0.072 -0.06 0.099 -0.067 0.016 -0.073 -0.066 -0.093 -0.02 -0.112 0.026 -0.089 -0.009 -0.067 -0.044 -0.102 -0.005 -0.138 0.034 -0.279 -0.04 -0.421 -0.114 -0.356 -0.043 -0.437 0.041 -0.037 -0.118 0.023 -0.064 0.071 -0.048 0.044 -0.054 0.018 -0.061 0.049 -0.046 0.08 -0.032 0.034 -0.032 -0.012 -0.033 0.017 -0.029 0.046 -0.025 0.026 -0.04 0.006 -0.054 0.017 -0.027 0.031 -0.02 0.003 -0.037 -0.017 -0.116 0.002 -0.095 0.022 -0.074 0.027 -0.045 0.019 -0.011 0.018 -0.027 0.007 -0.045 0.029 -0.042 0.139 -0.086 0.052 -0.046 0.004 -0.042 0.021 -0.057 0.083 -0.123 0.025 -0.058 0.002 -0.029 0.029 -0.03 0.1 -0.068 0.054 -0.065 0.009 -0.06 -0.024 -0.069 -0.057 -0.077 -0.178 -0.192 -0.138 -0.087 -0.177 -0.072 -0.116 -0.023 -0.056 0.025 -0.057 -0.02 -0.057 -0.065 -0.097 -0.051 -0.204 -0.056 -0.463 -0.224 -0.186 -0.108 -0.062 -0.067 -0.173 -0.12 -0.284 -0.173 -0.218 -0.084 -0.152 0.005 -0.243 -0.05 -0.334 -0.105 -0.193 -0.102 -0.052 -0.099 -0.124 -0.099 -0.196 -0.1 -0.102 -0.066 -0.008 -0.032 -0.058 -0.041 -0.108 -0.051 -0.119 -0.087 -0.129 -0.123 -0.139 -0.19 -0.148 -0.257 -0.158 -0.173 -0.169 -0.09 -0.084 -0.059 0 -0.029 -0.025 -0.028 0.022 -0.05 0.062 -0.195 0.089 -0.283 0.092 -0.294 0.109 -0.346 0 -0.245 0 -0.258 0.155 -0.213 0.11 -0.151 0.095 -0.144 0.096 -0.246 0.064 -0.164 0.245 -0.039 0.416 -0.085 0.207 -0.042 0.437 -0.09 0.444 -0.091 0.467 -0.006 0.45 -0.006 0.349 0.204 0.267 0.156 0.294 0.172 0.02 0.037 0.02 0.144 z" vector-effect="non-scaling-stroke" fill="#000" fill-opacity="1" stroke="#FFF" stroke-width="0px" stroke-linejoin="round" stroke-linecap="round"/></svg>
