<svg xmlns="http://www.w3.org/2000/svg" xmlns:xlink="http://www.w3.org/1999/xlink" height="400" width="400" viewBox="-81.33662109375 0.041748046875 12.6513671875 18.303857421875"><path d="M -69.966 4.236 l -0.006 0.065 -0.032 0.026 -0.049 0.006 -0.075 -0.046 -0.055 0.012 -0.055 0.003 -0.078 -0.054 -0.027 -0.053 -0.061 -0.044 -0.126 0.017 -0.104 0.001 -0.087 -0.01 -0.078 0.014 -0.067 0.056 -0.05 0.066 -0.058 0.055 -0.171 0.037 -0.091 0.001 -0.082 0.036 -0.121 0.013 -0.083 0.032 -0.147 0.018 -0.176 0.017 -0.098 0.049 -0.039 0.021 -0.1 0.068 -0.174 0.107 -0.096 0.037 -0.116 0.115 -0.139 0.108 -0.09 0.058 -0.133 0.027 -0.055 0.029 -0.02 0.035 0.012 0.041 -0.022 0.104 -0.041 0.193 -0.011 0.094 -0.01 0.045 -0.088 0.155 -0.095 0.144 -0.046 0.095 -0.026 0.07 0.029 0.058 0.039 0.104 0.032 0.084 0.009 0.057 -0.011 0.065 -0.04 0.059 -0.063 0.039 -0.085 0.011 -0.174 0.105 -0.195 0.154 -0.064 0.072 -0.018 0.068 -0.028 0.106 0.012 0.055 0.035 0.038 0.035 0.09 0.003 0.046 -0.029 0.026 -0.055 0.006 -0.049 0.009 -0.038 0.023 -0.038 -0.006 -0.035 0.012 0 0.038 0.012 0.044 -0.006 0.046 -0.023 0.029 -0.02 0.02 0.02 0.029 0.035 0.026 0.052 0.044 0.073 0.084 0.055 0.015 0.046 0.029 0.006 0.046 -0.017 0.046 -0.041 0.02 -0.003 0.041 0.055 0.049 0.038 0.035 0.038 0.052 0.035 0.073 0 0.046 0.038 0.058 0.023 0.049 0 0.046 0.061 0.046 0.052 0.035 0.038 0.032 0.038 0.02 0.009 0.035 -0.005 0.053 0.054 0.087 0.099 0.065 0.081 0.095 0.052 0.069 0.096 0.11 0.004 0.127 -0.119 0.146 -0.12 0.146 0.196 -0.004 0.2 0.003 0.209 0.042 0.141 0.04 0.086 0.018 0.061 0.046 0.029 0.073 0.023 0.059 0.006 0.086 0.087 0.07 -0.006 0.066 -0.002 0.094 0.039 0.001 0.256 0 0.279 0 0.269 -0.017 0.101 -0.023 0.123 -0.114 0.074 -0.034 0.071 -0.053 0.086 -0.097 0.068 -0.044 0.058 -0.054 0.086 -0.054 0.036 -0.04 0.029 -0.015 0.067 -0.026 -0.029 0.052 -0.022 0.054 -0.007 0.077 0.032 0.084 -0.027 0.063 -0.043 0.056 -0.001 0.148 -0.001 0.21 -0.001 0.18 -0.001 0.225 -0.001 0.255 -0.001 0.169 0.046 -0.033 0.063 -0.03 0.082 0.078 0.059 0.034 0.05 0.008 0.052 -0.002 0.07 -0.017 0.154 -0.065 0.106 -0.053 0.121 0.004 0.166 0.021 0.095 -0.002 0.125 0.217 0.092 0.159 0.104 0.181 0.084 0.146 0.128 0.221 0.11 0.191 0.117 0.204 0.133 0.232 -0.043 0.059 -0.035 0.047 0.004 0.079 -0.053 0.042 -0.056 0.026 -0.066 0.067 -0.045 0.058 -0.002 0.083 0.008 0.42 -0.011 0.114 -0.034 0.098 -0.035 0.05 -0.021 0.039 0.051 0.097 0.049 0.196 0.037 0.039 0.046 0.08 0.021 0.075 -0.009 0.029 -0.091 0.036 -0.033 0.031 -0.009 0.112 -0.04 0.04 -0.067 0.053 -0.043 0.061 -0.037 0.042 -0.036 0.025 -0.017 0.074 -0.024 0.075 -0.083 0.049 -0.014 0.092 -0.001 0.075 0.044 0.076 0.144 0.16 0.015 0.038 -0.082 0.096 -0.048 0.067 -0.063 0.11 -0.041 -0.018 -0.043 -0.017 -0.093 -0.101 -0.084 -0.029 -0.062 -0.079 -0.055 0.005 -0.019 0.018 -0.038 0.012 -0.034 0.011 -0.011 0.015 -0.011 0.02 -0.059 0.031 -0.024 0.024 0.009 0.029 0.06 0.106 0.051 0.105 0.021 0.055 -0.02 -0.002 -0.048 -0.032 -0.054 -0.026 -0.036 0.012 -0.023 0.034 -0.023 0.026 -0.015 0.028 -0.004 0.038 0.005 0.035 0.005 0.021 0.017 0.014 0.033 0.018 0.038 0.02 0.028 0.02 0.02 0.014 0.017 0.007 0.013 0 0.011 -0.004 0.001 -0.012 -0.009 -0.02 -0.01 -0.024 -0.002 -0.02 0.008 -0.013 0.012 -0.008 0.022 0.009 0.03 0.027 0.034 0.032 0.031 0.02 0.026 0.016 0.023 0.021 0.041 0.024 0.069 0.024 0.069 0.021 0.041 0.017 0.008 0.03 -0.01 0.052 -0.038 0.05 0.004 0.021 0.047 0.005 0.036 0.013 0.034 0.023 0.042 0.02 0.055 0.008 0.047 0.003 0.044 -0.004 0.042 -0.018 0.003 -0.01 0.087 -0.004 0.066 0.022 -0.025 0.012 -0.039 0.029 0.001 0.037 0.004 0.046 -0.013 0.053 -0.046 0.066 0.022 0.037 0.027 0.004 0.012 0.007 -0.001 0.01 0.018 0.1 -0.034 0.032 -0.078 0.039 -0.067 0.055 -0.067 0.092 -0.114 0.14 -0.04 0.039 -0.017 0.048 -0.065 0.016 -0.122 0.095 -0.021 0.048 0.02 0.046 0.062 0.038 0.042 0.056 0.011 0.071 0 0.045 0 0.001 -0.075 0.067 -0.098 0.077 -0.121 0.015 -0.046 0.039 0.011 0.081 0.039 0.115 0 0.09 -0.037 0.103 -0.087 0.113 -0.133 0.077 -0.125 0.042 -0.098 0 -0.095 0.008 -0.041 0.012 -0.073 -0.068 -0.326 -0.225 -0.124 -0.121 -0.115 -0.056 -0.28 -0.193 -0.028 -0.062 -0.034 -0.199 -0.036 -0.056 -0.096 -0.072 -0.242 -0.096 -0.094 -0.048 -0.099 -0.087 -0.144 -0.062 -0.157 -0.126 -0.094 -0.101 -0.105 -0.067 -0.326 -0.094 -0.164 -0.094 -0.306 -0.132 -0.136 -0.084 -0.328 -0.103 -0.097 -0.049 -0.322 -0.24 -0.226 -0.079 -0.182 -0.135 -0.549 -0.287 -0.086 -0.092 -0.084 -0.142 -0.122 -0.085 -0.137 -0.194 -0.204 -0.114 -0.196 -0.151 -0.072 -0.138 -0.13 -0.175 -0.039 -0.094 -0.114 -0.094 -0.008 -0.185 -0.079 -0.085 0.057 -0.042 0.06 -0.019 0.075 -0.288 -0.04 -0.144 -0.204 -0.261 -0.075 -0.126 -0.053 -0.161 -0.082 -0.095 -0.121 -0.201 -0.074 -0.178 -0.162 -0.129 -0.044 -0.046 -0.025 -0.066 -0.09 -0.046 -0.005 -0.137 -0.063 -0.26 -0.09 -0.131 -0.323 -0.245 -0.005 -0.094 -0.026 -0.171 -0.072 -0.185 -0.359 -0.576 -0.09 -0.172 -0.09 -0.279 -0.081 -0.158 -0.089 -0.281 -0.134 -0.214 -0.084 -0.186 -0.09 -0.231 -0.008 -0.123 -0.163 -0.212 -0.087 -0.194 -0.152 -0.163 -0.148 -0.124 -0.064 -0.088 -0.212 -0.417 -0.029 -0.123 -0.144 -0.229 -0.143 -0.165 -0.09 -0.133 -0.115 -0.119 -0.701 -0.367 -0.247 -0.153 -0.084 -0.073 -0.038 -0.114 0.016 -0.067 0.072 -0.063 0.1 0.049 0.061 -0.02 0.048 -0.082 0.001 -0.124 -0.061 -0.16 -0.225 -0.308 0.017 -0.065 0.042 -0.074 -0.087 -0.148 -0.094 -0.119 -0.047 -0.091 0.053 -0.347 0.051 -0.088 0.34 -0.353 0.093 -0.151 0.146 -0.093 0.149 -0.142 0.179 -0.108 0.026 0.019 0.025 0.018 0.002 0.036 0.007 0.031 0.02 0.03 0.002 0.055 0.023 0.036 0.002 0.041 0.002 0.056 -0.012 0.028 0.011 0.049 0.038 0.09 -0.015 0.028 -0.036 0.018 -0.036 0.025 -0.036 0.056 -0.055 -0.002 -0.079 -0.025 -0.053 0.031 -0.02 0.059 0.017 0.05 0.005 0.046 0.035 0.04 0.101 0.003 -0.091 0.127 -0.045 0.058 0.01 0.036 0.054 0.031 0.041 0.002 0.09 -0.047 0.061 -0.068 0.035 -0.038 0.058 -0.015 0.076 0.031 0.101 0.063 0.118 0.056 0.048 0.03 0.086 -0.009 0.072 -0.013 0.061 0.046 0.062 0.039 0.014 0.131 0.046 0.096 0.056 0.074 0.068 0.088 0.063 0.03 0.081 0.001 0.11 0.032 0.043 -0.021 0.038 -0.061 0.02 -0.035 0.056 -0.015 0.005 -0.04 -0.012 -0.048 0.018 -0.056 0.046 -0.049 0.118 -0.072 0.057 -0.03 0.012 -0.045 0.022 -0.059 -0.008 -0.033 -0.024 -0.041 0.006 -0.058 0.031 -0.078 0.045 -0.091 0.038 -0.116 0.015 -0.055 0.041 -0.035 0.016 -0.05 0.022 -0.059 0.051 -0.066 -0.002 -0.071 0.021 -0.031 0.002 -0.079 0.051 -0.164 0.002 -0.034 0.022 -0.009 0.039 0.011 0.033 0.037 0.01 0.036 0.014 0.017 0.031 -0.003 0.036 -0.021 -0.002 -0.033 -0.026 -0.032 -0.007 -0.019 0.011 -0.03 0.055 -0.066 0.06 -0.077 0.129 -0.16 0.078 -0.065 0.202 -0.069 0.152 -0.052 0.146 -0.05 0.199 -0.072 0.281 -0.102 0.202 -0.073 0.18 -0.13 0.139 -0.101 0.119 -0.087 0.151 -0.111 0.204 -0.24 0.141 -0.165 0.103 -0.121 0.071 -0.076 0.057 -0.215 0.065 -0.245 0.029 -0.109 0.012 -0.038 0.028 0.016 0.032 0.027 0.039 0.001 0.037 -0.001 0.023 -0.015 -0.034 -0.245 0.005 -0.053 0.019 -0.064 -0.004 -0.035 -0.062 -0.049 -0.099 -0.098 -0.041 -0.087 -0.025 -0.073 -0.07 -0.048 -0.071 -0.042 0.006 -0.035 0.043 0 0.108 0.034 0.078 -0.011 0.058 -0.004 0.056 -0.036 0.06 -0.065 0.041 0 0.046 0.009 0.084 0.066 0.05 0.039 0.06 0.032 0.056 0.011 0.051 0.004 0.036 -0.003 0.021 0.044 0.025 0.054 0.064 0.037 0.075 0.035 0.061 0.06 0.041 0.04 0.049 0.048 0.047 0.063 0.043 0.111 0.022 0.075 0.025 0.042 -0.006 0.042 0.051 0.077 0.038 0.043 0.066 0.027 0.126 0.031 0.068 0.07 0.06 0.027 0.064 0.071 0.056 0.021 0.071 -0.004 0.071 0.035 0.054 0.068 0.035 0.085 0.054 0.048 0.027 0.087 -0.031 0.102 0.029 0.054 0.056 0.044 0.091 0.046 0.083 -0.012 0.042 0.015 0.027 0.043 0.015 0.05 0.036 0.123 0.019 0.078 -0.034 0.075 -0.012 0.052 0.018 0.07 0.086 0.034 0.079 0.028 0.049 0.054 0.054 0.014 0.076 -0.003 0.097 -0.013 0.054 -0.031 0.035 -0.009 0.039 0.013 0.086 0.03 0.105 0.034 0.095 -0.02 0.082 -0.009 0.082 -0.02 0.083 -0.056 0.07 0.002 0.052 -0.038 0.065 -0.061 0.065 -0.061 0.05 -0.014 0.081 0.029 0.112 0.042 0.063 0.055 0.049 0.015 0.05 0.04 0.097 0.001 0.104 -0.022 0.083 -0.068 0.086 -0.02 0.059 -0.019 0.054 0.012 0.209 0.123 0.057 0.064 0.072 0.013 0.059 0.035 0.099 0.038 0.054 0.039 0.07 0.023 0.05 0.054 0.08 0.033 0.069 0.018 0.031 0.043 0 0.029 -0.01 0.019 -0.073 0.114 -0.143 0.223 -0.129 0.201 -0.203 0.316 -0.113 0.177 0.029 0.007 0.177 0.077 0.044 0.003 0.065 -0.02 0.042 -0.031 0.04 -0.004 0.041 0.03 0.058 0.038 0.042 0.112 0.031 0.055 0.073 0.042 0.078 0.07 z" vector-effect="non-scaling-stroke" fill="#000" fill-opacity="1" stroke="#FFF" stroke-width="0px" stroke-linejoin="round" stroke-linecap="round"/></svg>
