<svg xmlns="http://www.w3.org/2000/svg" xmlns:xlink="http://www.w3.org/1999/xlink" height="400" width="400" viewBox="116.96953125 -20.841259765625 9.62382812500005 15.7810546875"><path d="M 121.102 -18.615 l 0.153 0.052 0.338 0.187 0.124 0.046 0.129 0.035 0.102 0.01 0.091 -0.043 0.038 -0.044 0.07 -0.115 0.075 -0.014 0.044 0.042 0.034 0.056 0.015 0.082 -0.021 0.086 -0.071 0.077 -0.043 0.093 -0.029 0.308 0.001 0.092 0.023 0.089 0.062 0.141 0.032 0.04 0.093 0.05 0.025 0.038 0.005 0.068 0.015 0.06 0.06 0.023 0.051 0.03 -0.019 0.067 -0.032 0.068 -0.042 0.167 -0.2 0.387 -0.012 0.084 -0.079 0.167 -0.16 0.027 -0.186 0.08 -0.104 0.063 -0.09 0.081 -0.034 0.106 0.029 0.049 0.019 0.052 -0.002 0.056 -0.028 0.047 -0.089 0.114 -0.038 0.093 -0.04 0.042 -0.02 0.051 0.007 0.058 0.036 0.05 0.109 0.217 0.117 0.21 0.025 0.024 0.01 0.028 -0.069 0.056 0.001 0.101 0.021 0.1 0.103 0.247 0.015 0.066 0.034 0.054 0.053 0.051 0.058 0.043 0.168 0.073 0.065 0.014 0.067 0.003 0.017 -0.049 0.059 -0.017 -0.013 -0.049 -0.072 -0.067 -0.003 -0.036 0.038 -0.027 0.045 -0.016 0.101 -0.073 0.107 -0.058 0.136 0.005 0.134 0.033 0.095 0.034 0.078 0.063 0.08 0.108 0.056 0.12 0 0.057 -0.014 0.057 0.003 0.057 0.042 0.039 0.129 0.003 0.066 -0.089 0.008 -0.1 -0.046 -0.039 0.021 -0.049 0.04 -0.037 0.057 0.033 0.055 0.062 0.2 0.068 0.051 0.001 0.042 0.013 0.09 0.047 0.042 0.037 -0.051 0.078 -0.199 0.017 -0.058 0.059 0.058 0.118 0.096 0.096 0.061 0.078 0.054 0.084 -0.003 0.078 -0.031 0.081 0.088 -0.006 0.082 0.017 0.114 0.068 0.035 0.007 0.038 -0.011 -0.005 0.245 -0.078 0.224 -0.098 -0.028 -0.084 -0.095 0.017 -0.115 0.054 -0.111 -0.031 -0.024 -0.054 0.009 -0.062 0.025 -0.066 0.009 -0.109 -0.015 -0.224 -0.121 -0.091 -0.011 -0.021 -0.055 0.005 -0.117 -0.09 -0.138 -0.014 -0.049 -0.028 -0.039 -0.267 -0.15 -0.033 -0.025 -0.082 -0.12 -0.186 -0.171 -0.052 -0.017 -0.057 -0.005 -0.018 0.043 0.026 0.067 0.01 0.057 -0.004 0.06 0.008 0.046 0.088 0.095 0.013 0.045 0.058 0.122 0.007 0.142 -0.075 0.059 -0.085 -0.066 -0.003 -0.054 -0.015 -0.05 -0.091 -0.129 -0.03 -0.028 -0.171 -0.128 -0.133 -0.14 -0.295 -0.149 -0.035 -0.008 -0.051 0.011 -0.048 0.019 -0.142 0.074 -0.05 0.051 -0.004 0.079 -0.102 0.063 -0.141 0.009 -0.108 -0.039 -0.089 -0.079 -0.074 -0.004 -0.092 -0.123 -0.112 -0.016 -0.092 0.096 -0.02 -0.191 -0.001 -0.193 0.026 -0.056 0.046 -0.047 0.234 -0.202 0.029 -0.065 -0.01 -0.087 -0.053 -0.071 -0.084 -0.043 -0.097 -0.018 -0.07 -0.04 -0.055 -0.065 -0.037 0.115 0.036 0.171 0.006 0.112 -0.033 0.042 -0.06 0.001 -0.057 -0.013 -0.043 -0.04 -0.031 -0.115 -0.081 -0.076 -0.033 -0.109 -0.037 -0.015 -0.076 0.008 -0.056 -0.051 -0.038 -0.127 -0.008 -0.136 -0.032 -0.115 -0.046 -0.111 -0.027 -0.091 -0.041 -0.407 -0.01 -0.037 -0.022 -0.031 -0.051 -0.046 -0.039 -0.056 -0.007 -0.047 0.011 -0.2 0.018 -0.048 0.041 -0.023 0.055 0.039 0.044 0.049 0.055 0.023 0.048 0.031 0.091 0.118 0.036 0.019 0.112 -0.004 0.066 -0.015 0.032 -0.043 0.02 -0.051 0 -0.061 -0.064 -0.179 -0.02 -0.129 -0.001 -0.116 0.017 -0.116 0.088 -0.194 0.011 -0.134 -0.008 -0.18 0.015 -0.107 -0.003 -0.061 -0.052 -0.097 -0.014 -0.103 0.147 -0.524 0.046 -0.101 0.033 -0.105 0.015 -0.139 0.11 -0.038 0.104 -0.057 0.054 0.004 0.057 0.014 0.126 -0.029 z M 117.311 -8.44 l -0.093 0.072 0.01 -0.089 0.027 -0.084 0.094 -0.173 0.068 -0.053 0.112 -0.136 0.063 -0.066 0.152 -0.13 0.14 -0.142 0.047 -0.011 0.051 -0.002 0.041 -0.016 0.091 -0.077 0.229 -0.256 0.189 -0.191 0.194 -0.241 0.093 -0.07 0.025 -0.026 0.179 -0.222 0.056 -0.032 0.063 -0.023 0.043 -0.03 0.038 -0.038 0.063 -0.097 0.026 -0.113 -0.016 -0.064 -0.036 -0.094 0.045 -0.128 0.035 -0.059 0.125 -0.261 0.036 -0.053 0.052 0.033 0.007 0.047 -0.026 0.11 -0.002 0.055 0.029 0.056 -0.035 0.092 0.089 0.246 0.068 0.156 0.003 0.051 -0.092 0.093 -0.055 0.028 -0.118 0.025 -0.053 0.027 -0.085 0.076 -0.053 0.1 -0.013 0.051 -0.027 0.04 -0.243 0.068 -0.114 0.044 -0.053 0.033 -0.027 0.054 0.019 0.095 -0.204 0.344 -0.065 0.09 -0.07 0.077 -0.085 0.055 -0.12 0.033 -0.095 0.067 -0.065 0.118 -0.08 0.106 -0.101 0.079 -0.109 0.07 -0.1 0.051 -0.108 0.036 -0.033 0.046 -0.023 0.057 -0.047 0.027 -0.057 0.016 z M 122.496 -11.615 l 0.117 0.051 0.114 -0.044 0.112 0.012 0.093 0.066 -0.03 0.042 -0.006 0.046 0.208 -0.1 0.056 0.006 -0.002 0.093 -0.012 0.079 -0.025 0.077 -0.044 0.09 -0.059 0.08 -0.078 0.058 -0.092 0.036 -0.044 0.032 -0.013 0.049 0.002 0.061 -0.021 0.056 -0.097 0.023 -0.151 0.109 -0.324 0.069 -0.089 0.047 -0.057 0.061 -0.063 0.056 -0.034 0.014 -0.016 -0.027 -0.004 -0.023 0.046 -0.145 -0.008 -0.06 -0.022 -0.058 0.014 -0.114 0.056 -0.107 0.03 -0.118 0.009 -0.228 0.044 -0.317 -0.002 -0.038 -0.034 -0.043 -0.126 -0.035 -0.05 -0.033 0.025 -0.063 0.048 -0.043 0.066 0.002 0.058 0.04 0.204 0.083 0.108 0.07 z M 123.131 -9.064 l -0.066 0.011 -0.07 -0.005 -0.047 -0.049 -0.081 -0.212 -0.094 -0.052 -0.108 -0.039 -0.054 -0.033 -0.048 -0.04 -0.152 -0.211 -0.011 -0.129 0.026 -0.073 0.046 -0.065 0.052 -0.018 0.125 -0.002 0.065 -0.009 0.143 -0.097 0.01 -0.038 0.001 -0.159 -0.014 -0.111 -0.035 -0.109 0.039 -0.05 0.05 -0.049 0.053 -0.096 0.01 -0.067 0.001 -0.07 0.014 -0.05 0.041 -0.025 0.197 -0.077 0.035 -0.005 0.254 0.071 0.052 0.107 0.005 0.035 -0.04 0.119 -0.035 0.08 -0.086 0.123 -0.063 0.134 -0.047 0.201 -0.03 0.065 -0.08 0.126 -0.025 0.069 0.001 0.15 -0.013 0.055 0 0.053 0.159 0.249 0.013 0.04 -0.001 0.045 -0.027 0.056 -0.065 0.096 -0.036 0.033 z M 124.575 -11.343 l 0.07 0.035 0.08 -0.014 0.097 -0.079 0.109 0.029 0.064 0.117 0.033 0.044 0.018 0.076 -0.005 0.183 -0.027 0.166 0.021 0.034 0.05 0.03 0.044 0.037 0.037 0.047 0.024 0.053 0.009 0.128 0.063 0.108 0.008 0.042 -0.015 0.044 -0.105 -0.009 -0.008 0.037 0.003 0.046 -0.037 -0.029 -0.061 -0.105 -0.056 -0.044 0.017 0.171 0.019 0.082 0.003 0.082 -0.097 -0.063 -0.116 -0.039 -0.032 -0.033 0.011 -0.106 -0.002 -0.053 -0.052 -0.112 0.061 -0.242 -0.001 -0.05 -0.01 -0.05 -0.048 -0.098 -0.076 -0.082 -0.047 0 -0.113 0.058 -0.057 -0.019 -0.034 -0.227 -0.046 -0.22 -0.035 -0.056 -0.023 -0.059 0.022 -0.049 0.043 0.02 0.062 0.058 0.075 0.033 0.037 0.029 z M 125.24 -12.528 l 0.071 0.082 0.017 0.059 -0.007 0.065 0.032 0.029 0.057 0.008 0.072 0.033 0.054 0.061 -0.032 0.056 0.01 0.081 -0.057 0.102 0.008 0.181 0.033 0.058 0.003 0.058 -0.008 0.061 0.014 0.05 0.087 0.166 0.016 0.055 -0.027 0.044 -0.009 0.041 0.054 0.004 0.077 0.069 0.045 0.091 -0.013 0.024 -0.061 -0.071 -0.046 -0.011 -0.196 0.019 -0.12 -0.03 -0.078 -0.003 -0.078 -0.122 -0.068 -0.02 -0.054 -0.054 -0.089 -0.138 -0.028 -0.079 0.062 -0.08 0.019 -0.064 -0.003 -0.063 -0.059 0.01 -0.051 -0.021 -0.063 -0.077 -0.025 -0.044 -0.046 -0.037 -0.073 -0.088 -0.105 -0.034 -0.043 -0.024 -0.083 -0.074 -0.061 -0.091 -0.059 -0.16 -0.031 -0.166 0.271 0.043 0.274 -0.008 0.31 -0.038 z M 120.704 -13.479 l 0.051 0.008 0.16 -0.03 0.065 0.015 0.044 0.057 0.055 0.018 0.043 0.029 0.08 -0.051 0.082 0.058 0.072 0.109 0.085 0.077 0.081 0.057 0.016 0.042 -0.049 0.069 -0.015 0.088 0.005 0.094 0.061 0.199 -0.021 0.054 -0.061 0.076 -0.046 0.085 0.006 0.034 -0.018 0.028 -0.006 0.06 -0.037 -0.013 -0.034 0.009 -0.033 0.027 -0.052 0.058 -0.081 -0.018 -0.038 -0.017 -0.009 -0.05 -0.024 -0.035 -0.035 -0.021 -0.086 -0.087 -0.04 -0.065 -0.001 -0.069 -0.022 -0.065 -0.045 -0.058 -0.059 -0.044 -0.02 -0.043 -0.008 -0.05 -0.005 -0.129 -0.083 -0.161 -0.029 -0.039 -0.078 -0.04 -0.065 -0.051 -0.028 -0.051 -0.025 -0.082 -0.017 -0.012 -0.051 0.004 -0.049 -0.011 0.014 -0.061 0.049 -0.044 0.067 -0.005 0.185 0.025 z M 126.006 -9.321 l 0.082 0.06 0.106 -0.016 -0.001 0.152 0.017 0.044 0.096 0.129 0.015 0.107 -0.057 0.101 -0.043 0.048 -0.079 0.069 -0.002 0.032 0.033 0.036 0.109 0.021 0.083 0.055 0.014 0.157 0.079 0.124 -0.002 0.054 -0.031 0.221 0.01 0.095 0.059 0.076 0.05 0.032 0.026 0.048 0.023 0.13 -0.004 0.222 -0.008 0.077 -0.035 0.072 -0.108 0.163 -0.145 0.13 -0.077 -0.009 -0.025 0.038 0.048 0.119 -0.019 0.25 -0.032 0.174 -0.047 -0.088 -0.033 -0.092 -0.03 -0.244 -0.037 -0.11 -0.058 -0.1 -0.023 -0.09 -0.06 -0.084 -0.077 -0.216 -0.051 0.011 -0.084 0.059 -0.019 0.041 -0.01 0.062 -0.02 0.056 -0.099 0.088 -0.077 0.105 -0.064 0.115 -0.02 0.106 0.052 0.083 0.054 0.033 0.078 0.074 0.024 0.034 0.082 0.241 -0.003 0.246 -0.06 0.108 -0.152 0.206 -0.109 0.065 -0.059 -0.033 -0.047 -0.125 -0.008 -0.051 0.032 -0.117 0.004 -0.108 -0.037 -0.036 -0.041 0.007 -0.017 0.016 -0.098 0.141 -0.041 0.036 -0.06 0.005 -0.048 -0.01 -0.291 -0.123 -0.238 -0.122 -0.186 -0.114 -0.135 -0.171 -0.028 -0.128 -0.002 -0.134 -0.06 -0.196 -0.007 -0.067 0.004 -0.064 0.06 -0.12 0.072 -0.061 0.041 -0.044 0.033 -0.049 0.022 -0.065 -0.006 -0.064 -0.024 -0.04 -0.114 -0.141 -0.1 -0.087 -0.204 -0.078 -0.047 -0.043 -0.052 -0.032 -0.057 -0.014 -0.056 0 -0.06 0.024 -0.016 0.052 0.004 0.046 -0.005 0.045 -0.085 0.258 -0.109 -0.057 -0.104 -0.065 -0.028 -0.046 -0.012 -0.055 -0.018 -0.037 -0.025 -0.034 -0.048 0.086 -0.059 0.068 -0.073 0.016 -0.074 0.001 -0.024 -0.029 -0.027 -0.164 -0.078 -0.052 -0.098 0.011 -0.118 0.09 -0.024 0.034 -0.026 0.078 -0.129 0.221 -0.068 0.17 -0.075 0.166 -0.034 0.055 -0.044 0.036 -0.071 -0.015 -0.063 -0.04 -0.06 -0.107 0.02 -0.124 0.067 -0.079 0.056 -0.085 0.068 -0.296 0.005 -0.105 0.012 -0.045 0.112 -0.135 0.094 -0.083 0.05 -0.017 0.203 -0.047 0.083 -0.04 0.131 -0.001 0.107 -0.023 0.085 -0.064 0.006 -0.066 -0.004 -0.069 0.019 -0.042 0.033 -0.036 0.045 -0.047 0.051 -0.035 0.146 -0.025 0.048 -0.029 0.039 -0.045 0.054 -0.088 0.064 0.022 0.065 0.034 0.116 0.027 0.103 0.073 0.066 0.115 0.011 0.057 0.017 0.187 -0.024 0.044 -0.1 0.087 0.046 0.009 0.132 -0.079 0.066 -0.031 0.163 -0.042 0.038 -0.028 0.028 -0.042 0.057 -0.115 0.042 -0.122 0.033 -0.051 0.047 -0.04 0.046 -0.006 0.171 0.084 0.109 -0.04 0.031 -0.127 0.025 -0.184 0.019 -0.05 0.063 -0.048 0.075 0.016 0.103 0.066 0.095 0.022 0.035 -0.053 0.033 -0.105 0.038 0.001 0.128 0.035 0.123 -0.023 0.035 -0.126 -0.023 -0.135 -0.096 -0.393 0.057 -0.088 0.05 -0.002 0.122 0.105 0.234 0.141 0.078 0.086 z M 123.37 -9.45 l -0.039 0.027 -0.016 -0.066 0.011 -0.089 0.077 -0.311 -0.017 -0.078 0.128 -0.173 0.079 -0.163 0.119 -0.171 0.015 -0.089 0.105 -0.169 0.098 -0.233 -0.005 -0.077 0.025 -0.038 0.014 -0.058 0.003 -0.049 0.072 -0.087 0.019 0.056 -0.021 0.111 0.003 0.053 0.013 0.025 0.001 0.103 -0.026 0.158 0.024 0.182 -0.046 0.185 -0.053 0.083 -0.078 0.059 -0.085 0.037 -0.088 0.092 -0.057 0.108 -0.009 0.098 -0.14 0.332 z M 121.922 -18.895 l -0.063 0.072 -0.033 -0.02 0.036 -0.07 -0.001 -0.024 0.029 -0.055 0.054 -0.019 0.045 0.054 z M 121.521 -19.362 l 0.01 0.091 -0.059 -0.002 -0.089 -0.055 -0.008 -0.028 0.001 -0.023 0.016 -0.02 z M 121.96 -20.366 l -0.019 0.012 -0.027 -0.006 0.027 -0.094 0.05 -0.026 0.04 0.01 z M 121.878 -20.782 l -0.049 0.082 -0.039 -0.001 0.006 -0.045 0.051 -0.095 0.019 0.002 z M 121.159 -6.076 l 0.054 0.072 0.069 -0.019 0.109 0.02 0.023 0.038 -0.004 0.025 -0.117 0.07 -0.076 -0.073 -0.135 0.05 -0.064 -0.03 -0.088 0.027 -0.054 -0.056 0.022 -0.054 0.139 -0.089 z M 117.08 -7.883 l -0.052 0.076 -0.059 -0.087 0.006 -0.122 0.018 -0.034 0.083 -0.019 z M 119.916 -10.486 l -0.123 0.031 -0.029 -0.096 0.088 -0.089 0.098 0.035 0.058 0.035 -0.027 0.031 z M 120.1 -12.168 l 0.055 0.015 0.039 -0.015 0.034 -0.053 0.032 0.078 0.081 0.064 -0.027 0.065 -0.071 0.008 -0.07 -0.015 -0.074 0.026 -0.09 -0.015 -0.054 -0.061 -0.061 -0.11 -0.03 -0.02 0.004 -0.045 0.022 -0.029 -0.012 -0.007 0.006 -0.02 0.011 -0.014 0.02 -0.006 0.047 0.049 0.114 0.073 z M 120.039 -11.703 l -0.075 0.034 -0.019 -0.021 -0.013 -0.05 0.001 -0.034 -0.072 -0.179 0.055 -0.027 0.041 0.021 0.041 0.028 0.038 0.015 0.035 0.057 -0.008 0.039 0.011 0.038 z M 122.65 -10.473 l -0.028 0.014 -0.025 -0.002 -0.059 0.036 -0.022 -0.068 0.021 -0.115 0.088 -0.087 0.023 -0.027 0.024 -0.016 0.029 -0.002 0.028 0.034 0.008 0.052 -0.056 0.156 z M 124.594 -9.787 l -0.01 0.037 -0.079 -0.003 -0.028 0.006 -0.074 0.094 -0.044 0.024 -0.237 0.031 -0.187 -0.025 -0.064 -0.052 -0.042 -0.085 -0.013 -0.056 0.047 -0.061 0.045 -0.041 0.151 -0.081 0.034 -0.061 0.079 -0.074 0.163 -0.025 0.016 0.019 0.022 0.012 0.033 0.003 0.08 0.061 0.091 0.039 -0.022 0.148 0.027 0.05 z M 120.25 -5.257 l -0.027 0.06 -0.032 0.028 -0.042 -0.016 -0.032 -0.031 -0.018 0.046 -0.087 0.018 -0.055 0.072 -0.081 0.019 -0.056 -0.009 0.006 -0.064 0.155 -0.095 0.097 -0.035 0.086 -0.069 0.043 -0.008 0.021 0.056 z M 122.093 -6.428 l -0.101 0.014 -0.032 -0.001 -0.079 -0.102 -0.007 -0.045 -0.064 -0.051 0.023 -0.05 0.083 -0.012 0.143 -0.065 0.23 0.102 0.035 0.037 -0.072 0.022 -0.051 0.097 z M 126.059 -9.766 l -0.013 0.005 -0.056 -0.078 0.007 -0.089 0.075 -0.132 0.056 0.116 -0.001 0.052 -0.008 0.026 0.052 0.065 -0.036 0.032 z M 125.69 -9.914 l -0.018 0.028 -0.024 -0.058 -0.058 -0.054 -0.056 -0.092 -0.04 -0.029 0.027 -0.073 0.003 -0.118 0.056 -0.054 0.026 -0.016 0.042 -0.057 0.019 -0.003 0.018 0.048 -0.038 0.147 0.057 0.174 -0.019 0.109 0.008 0.024 z M 120.271 -13.751 l 0.002 0.068 -0.169 -0.099 -0.005 -0.035 0.004 -0.026 0.017 -0.016 0.091 0.037 z M 121.915 -13.54 l 0.062 0.003 0.019 -0.009 0.119 0.084 -0.007 0.042 0.015 0.056 -0.068 0.096 -0.012 0.032 -0.038 0.031 -0.129 -0.077 -0.047 -0.047 -0.014 -0.096 0.051 -0.142 z M 122.094 -12.355 l -0.08 0.249 -0.054 -0.086 0.022 -0.054 -0.046 -0.045 -0.012 -0.041 0.018 -0.054 0.048 -0.05 0.012 -0.163 0.102 -0.052 0.041 -0.002 -0.015 0.04 0.001 0.075 z M 122.654 -12.309 l -0.051 0.023 -0.104 -0.098 -0.06 -0.046 -0.016 -0.026 0.049 -0.037 0.132 0 0.07 0.067 0.01 0.042 z M 123.282 -12.853 l 0.085 0.153 -0.093 -0.104 -0.108 -0.071 -0.112 -0.118 -0.081 -0.041 -0.024 -0.024 0.008 -0.048 0.06 -0.009 0.026 0.003 0.163 0.208 z M 123.775 -12.454 l 0.004 0.088 -0.038 -0.032 -0.121 -0.172 -0.033 -0.063 0.034 -0.042 0.087 0.064 z M 123.717 -12.287 l 0.192 0.118 0.132 0.202 0.015 0.155 -0.01 0.059 -0.063 -0.066 -0.135 -0.095 -0.094 -0.021 -0.029 -0.017 0.011 -0.051 -0.061 -0.047 -0.007 -0.019 -0.056 -0.021 -0.081 -0.106 -0.057 -0.02 -0.055 0.022 -0.126 0.158 -0.135 0.111 -0.002 -0.042 0.055 -0.139 0.035 -0.221 0.022 -0.067 -0.027 -0.099 -0.003 -0.089 0.101 0.041 0.126 0.041 0.096 0.056 0.016 0.038 z M 124.354 -13.632 l -0.027 0.065 -0.033 -0.023 -0.046 0.004 -0.073 0.055 -0.118 -0.074 -0.018 -0.058 0.085 -0.127 -0.001 -0.189 0.031 -0.046 0.033 -0.033 0.039 -0.018 0.083 0.131 0.028 0.016 0.08 0.06 -0.021 0.121 0.008 0.071 z M 122.175 -14.049 l -0.003 0.041 -0.216 -0.148 -0.01 -0.025 0 -0.024 0.013 -0.024 z M 122.033 -15.005 l 0.018 0.035 -0.02 -0.002 -0.014 0.006 -0.047 0.072 0.051 0.134 -0.032 0.097 -0.057 0.006 -0.022 -0.01 0.012 -0.048 0.012 -0.022 -0.012 -0.063 -0.034 -0.04 -0.027 -0.077 -0.042 -0.046 0.02 -0.075 0.132 -0.008 z M 124.316 -10.606 l -0.028 0.005 0.046 -0.105 0.036 0.015 0.011 0.012 -0.001 0.047 z M 125.281 -9.982 l 0.007 0.049 -0.129 -0.13 -0.026 -0.092 0.043 0.004 0.055 0.035 z M 122.937 -7.409 l 0.011 0.023 -0.004 0.025 -0.104 0.046 -0.035 -0.001 -0.008 -0.077 0.026 -0.035 0.049 0.031 0.044 -0.036 z M 125.785 -6.963 l -0.016 0.057 -0.061 -0.134 -0.025 -0.033 0.031 -0.112 0.069 0.055 z M 124.608 -11.492 l -0.125 0.006 -0.055 -0.046 -0.068 -0.134 0.077 -0.029 0.074 0.008 0.054 0.047 0.057 0.09 z M 124.807 -9.143 l -0.029 0.06 -0.112 -0.049 -0.027 -0.043 0.014 -0.051 0.055 -0.017 0.029 0 0.053 0.053 z M 121.252 -19.082 l -0.006 0.067 -0.051 -0.035 -0.011 -0.051 0.005 -0.038 0.023 -0.045 0.032 0.041 z M 119.861 -11.525 l 0.021 0.053 -0.028 0.079 -0.024 0.017 -0.032 -0.033 -0.069 -0.023 -0.004 -0.043 0.036 0.001 0.065 -0.042 z M 123.757 -11.283 l 0.059 0.133 -0.079 -0.001 -0.029 -0.097 0.034 -0.031 z M 122.311 -12.529 l -0.031 0.031 -0.019 -0.005 -0.013 -0.054 0.03 -0.036 0.009 0.004 z M 125.971 -9.594 l -0.018 0.026 -0.03 -0.054 0.026 -0.118 0.019 -0.02 0.025 0.075 z M 124.854 -11.595 l -0.018 0.051 -0.029 -0.014 -0.026 -0.023 -0.037 -0.078 -0.013 -0.057 0.058 0.032 0.033 0.056 z M 117.355 -8.215 l -0.068 0.024 -0.015 -0.063 0.009 -0.061 0.049 0.006 0.024 0.019 z M 123.698 -9.237 l 0.009 0.104 -0.092 0.03 -0.074 -0.026 -0.047 -0.062 0 -0.023 0.042 0.002 0.091 -0.055 0.029 -0.01 z" vector-effect="non-scaling-stroke" fill="#000" fill-opacity="1" stroke="#FFF" stroke-width="0px" stroke-linejoin="round" stroke-linecap="round"/></svg>
