<svg xmlns="http://www.w3.org/2000/svg" xmlns:xlink="http://www.w3.org/1999/xlink" height="400" width="400" viewBox="14.12861328125 -54.83818359375 9.97714843750001 5.817431640625"><path d="M 23.605 -51.518 l 0.054 0.069 0.021 0.054 -0.022 0.042 0.007 0.042 0.048 0.045 0.151 0.139 0.075 0.134 0.048 0.052 0.11 0.068 0.01 0.028 -0.044 0.025 -0.036 0.003 -0.029 0.007 -0.019 0.024 0.029 0.025 0.039 0.037 0.048 0.106 -0.005 0.087 -0.037 0.022 -0.048 0.051 -0.032 0.047 -0.261 0.033 -0.063 0.05 -0.143 0.097 -0.098 0.056 -0.144 0.101 -0.228 0.174 -0.084 0.073 -0.062 0.06 -0.185 0.16 -0.057 0.067 0.011 0.055 0.059 0.13 0.012 0.059 -0.01 0.054 -0.02 0.048 0.003 0.022 0.054 0.035 0.087 0.055 0.005 0.019 -0.012 0.024 -0.03 0.018 -0.108 -0.019 -0.121 -0.037 -0.041 0.004 -0.066 -0.009 -0.271 -0.072 -0.182 -0.056 -0.018 -0.037 -0.034 -0.053 -0.078 -0.044 -0.178 -0.038 -0.072 -0.03 -0.289 -0.017 -0.125 -0.001 -0.089 0.012 -0.057 -0.001 -0.078 0.078 -0.054 0.023 -0.079 0.002 -0.069 -0.014 -0.071 -0.041 -0.113 -0.022 -0.082 0.01 -0.06 -0.009 -0.052 -0.002 -0.018 0.008 -0.042 -0.001 -0.06 0.02 -0.066 0.028 -0.073 0.021 -0.056 0.046 -0.05 0.089 -0.142 -0.04 -0.047 0.017 -0.067 0.012 -0.046 -0.012 0.011 -0.031 0.021 -0.035 -0.001 -0.049 -0.013 -0.054 -0.044 -0.017 -0.066 -0.006 -0.034 -0.011 -0.004 -0.018 -0.034 -0.023 -0.058 -0.058 -0.055 -0.072 -0.038 -0.021 -0.055 0.034 -0.084 0.039 -0.052 0.013 -0.101 0.111 -0.181 0.004 -0.011 -0.052 -0.019 -0.05 -0.106 -0.012 -0.003 -0.029 -0.022 -0.074 -0.212 -0.144 -0.026 -0.06 0.008 -0.023 -0.015 -0.038 -0.046 -0.023 -0.168 -0.027 -0.043 0.016 -0.039 -0.016 -0.061 -0.034 -0.106 -0.028 -0.012 -0.015 -0.038 -0.025 -0.021 -0.003 -0.014 0.015 -0.031 0.021 -0.109 0.027 -0.044 -0.011 -0.04 -0.023 -0.045 -0.05 -0.066 -0.044 -0.054 -0.016 -0.031 -0.023 -0.007 -0.018 0.12 -0.036 0.026 -0.037 -0.015 -0.068 -0.018 -0.009 -0.048 0.023 -0.1 0.02 -0.092 0.009 -0.047 0 -0.263 -0.124 -0.171 -0.038 -0.101 -0.011 -0.011 0.013 0.046 0.069 0.079 0.085 -0.004 0.023 -0.094 0.035 -0.054 0.015 -0.063 0.03 -0.053 0.041 -0.046 0.019 -0.04 -0.005 -0.042 -0.02 -0.109 -0.126 -0.137 -0.097 -0.016 -0.022 -0.043 -0.005 -0.061 -0.022 -0.02 -0.03 0.03 -0.031 0.042 -0.028 0.074 -0.017 0.022 -0.016 0.013 -0.025 0.027 -0.032 -0.007 -0.012 -0.053 -0.036 -0.078 -0.034 -0.216 0.026 -0.059 0.018 -0.033 -0.024 -0.025 -0.035 -0.055 -0.007 -0.075 -0.032 -0.089 -0.031 -0.087 -0.009 -0.18 -0.045 -0.069 -0.002 -0.04 -0.015 -0.042 -0.034 -0.036 -0.037 -0.018 -0.076 -0.133 -0.034 -0.132 -0.021 -0.009 0.011 0.005 0.076 -0.007 0.041 -0.087 0.025 -0.086 0.002 0.005 -0.013 0.103 -0.137 0.046 -0.086 0.053 -0.158 -0.063 -0.124 -0.018 -0.058 -0.03 -0.028 -0.181 -0.061 -0.014 -0.021 0.028 -0.082 -0.014 -0.035 -0.044 -0.036 -0.057 -0.073 -0.022 -0.062 0.073 -0.072 0.018 -0.053 0.032 -0.073 0.023 -0.04 0.004 -0.011 -0.048 -0.028 -0.012 -0.04 0.013 -0.057 -0.025 -0.043 -0.064 -0.028 -0.042 -0.037 -0.019 -0.046 0.015 -0.071 0.05 -0.097 -0.105 -0.117 -0.26 -0.137 -0.125 -0.096 0.01 -0.055 0.055 -0.049 0.1 -0.044 0.075 -0.079 0.042 -0.093 0.001 -0.018 0.002 -0.067 -0.116 -0.273 -0.019 -0.068 -0.014 -0.082 -0.007 -0.023 0.229 0.058 0.096 0.033 -0.012 -0.037 -0.019 -0.031 0.013 -0.046 -0.007 -0.07 -0.208 -0.036 -0.137 -0.012 -0.015 -0.048 0.013 -0.031 0.038 0.018 0.135 0.007 0.332 -0.094 0.573 -0.122 0.612 -0.114 0.143 -0.012 0.144 -0.024 0.053 -0.043 0.053 -0.029 0.083 -0.075 0.184 -0.117 0.326 -0.043 0.122 -0.055 0.255 -0.078 0.581 -0.087 0.243 -0.019 0.238 -0.002 0.212 0.069 0.224 0.085 0.04 0.051 -0.121 -0.032 -0.177 -0.076 -0.065 -0.003 0.151 0.232 0.083 0.082 0.167 0.061 0.14 0.021 0.431 -0.037 0.153 -0.049 0.044 -0.025 0.04 0.012 0.28 0.013 0.284 0.013 0.457 0.014 0.476 0.015 0.494 0.015 0.534 0.017 0.563 0.01 0.034 -0.007 0.058 -0.039 0.07 0.005 0.083 0.024 0.039 0.018 0.016 0.02 0.01 0.024 0.045 0.005 0.083 0.018 0.112 0.041 0.088 0.04 0.083 0.057 0.028 0.064 0.002 0.073 -0.005 0.047 0.007 0.019 0.114 0.341 0.19 0.328 0.07 0.159 0.028 0.085 0.022 0.123 0.007 0.086 -0.001 0.048 -0.014 0.067 -0.057 0.039 -0.365 0.113 -0.069 0.035 -0.108 0.088 -0.099 0.09 -0.023 0.031 -0.006 0.02 0.022 0.03 0.13 0.048 0.131 0.039 0.043 0.029 0.097 0.037 0.035 0.033 0.019 0.029 -0.001 0.067 -0.044 0.093 0.018 0.07 -0.044 0.047 -0.037 0.052 -0.005 0.091 z" vector-effect="non-scaling-stroke" fill="#000" fill-opacity="1" stroke="#FFF" stroke-width="0px" stroke-linejoin="round" stroke-linecap="round"/></svg>
