<svg xmlns="http://www.w3.org/2000/svg" xmlns:xlink="http://www.w3.org/1999/xlink" height="400" width="400" viewBox="-31.282958984375 -42.13740234375 25.070458984375 9.489111328125"><path d="M -17.191 -32.869 l 0.136 0.053 0.125 -0.026 0.155 0.068 0.081 0.016 -0.072 0.048 -0.072 0.061 -0.181 -0.015 -0.153 -0.059 -0.055 -0.045 -0.015 -0.041 z M -8.777 -41.941 l 0.094 -0.067 0.093 -0.044 0.052 -0.017 0.216 -0.046 0.056 -0.022 0.053 0.004 0.009 0.022 0.031 0.042 0.034 0.029 0.009 0.022 -0.083 0.091 -0.011 0.031 0.044 0.059 0.008 0.017 0.021 0.008 0.058 -0.002 0.103 -0.038 0.07 -0.032 0.024 0.013 0.203 -0.018 0.048 0.015 0.032 0.016 0.1 0.022 0.109 0.002 0.135 -0.031 0.059 -0.031 0.011 -0.034 0.003 -0.026 0.017 -0.016 0.031 -0.009 0.048 0.017 0.069 0.014 0.165 0.005 0.032 -0.019 0.056 0.006 0.074 0.024 0.085 -0.008 0.043 0.029 0.018 0.039 0.005 0.085 -0.006 0.085 0.017 0.032 0.058 0.008 0.093 -0.001 0.084 0.023 0.065 0.04 0.021 0.041 0.009 0.028 -0.032 0.016 -0.045 0.061 -0.114 0.08 -0.163 0.072 -0.124 0.089 -0.086 0.107 -0.107 0.045 -0.033 0.024 -0.013 0.029 0.071 0.131 0.022 0.101 0.018 0.123 -0.011 0.035 -0.006 0.136 -0.016 0.04 0.004 0.032 0.026 0.035 0.012 0.033 -0.049 0.042 -0.09 0.049 -0.066 0.043 -0.018 0.04 0.005 0.025 0.111 0.086 0.02 0.035 -0.015 0.085 -0.064 0.139 -0.061 0.084 -0.011 0.008 -0.07 0.024 -0.336 0.001 -0.082 0.019 0.011 0.017 0.079 0.109 0.082 0.058 0.027 0.013 0.03 0.127 0.133 0.203 0.129 0.028 0.045 0.051 -0.008 0.071 -0.04 0.078 -0.079 0.08 -0.094 0.056 -0.062 0.056 -0.005 0.065 -0.02 0.083 -0.03 0.065 -0.007 0.044 0.237 0.276 0.132 -0.013 0.017 0.007 -0.024 0.066 -0.042 0.077 -0.05 0.015 -0.113 0.024 -0.107 0.1 -0.087 0.12 -0.065 0.058 -0.06 0.143 0.007 0.062 0.029 0.096 0.061 0.249 -0.087 0.011 -0.341 0.163 -0.106 0 -0.197 -0.072 -0.348 -0.023 -0.113 -0.021 -0.141 0.047 -0.109 -0.001 -0.087 0.06 -0.062 -0.016 0.072 -0.134 0.112 -0.265 -0.004 -0.162 0.027 -0.14 -0.031 -0.139 -0.056 -0.087 0.077 -0.225 -0.009 -0.116 -0.07 -0.147 0.213 0.022 -0.066 -0.058 -0.065 -0.036 -0.063 0.008 -0.053 -0.002 -0.181 0.057 -0.091 0.017 -0.027 -0.01 0.01 -0.091 -0.047 -0.118 0.073 -0.031 0.085 -0.009 0.072 -0.05 0.044 -0.056 -0.023 -0.1 0.062 -0.095 0.146 -0.08 -0.076 0.012 -0.087 0.05 -0.137 0.181 -0.045 0.092 -0.117 0.03 -0.104 0.015 -0.053 -0.01 -0.064 -0.023 -0.006 -0.068 0.005 -0.054 0.043 -0.108 0.017 -0.152 0.062 -0.136 -0.004 -0.036 -0.018 -0.054 0.055 -0.053 0.068 -0.035 0.103 -0.117 0.144 -0.278 0.166 -0.295 -0.013 -0.036 -0.035 -0.028 0.014 -0.08 0.1 -0.347 0.041 -0.045 0.047 -0.102 0.011 -0.164 0.018 -0.113 -0.004 -0.057 -0.015 -0.068 -0.064 -0.13 -0.067 -0.275 -0.005 -0.092 0.055 -0.046 -0.091 -0.007 -0.041 -0.059 0.009 -0.067 z M -25.027 -36.96 l -0.004 0.018 -0.057 -0.007 -0.072 0.006 -0.038 -0.053 0.035 -0.022 0.081 -0.005 0.039 0.024 z M -31.137 -39.407 l -0.044 0.048 -0.076 -0.017 -0.025 -0.018 0.022 -0.103 0.061 -0.024 0.061 0.041 z M -27.075 -38.643 l -0.02 0.009 -0.208 -0.027 -0.059 -0.037 -0.024 -0.068 0.035 -0.023 0.091 -0.014 0.133 0.013 0.085 0.049 0 0.062 z M -27.778 -38.556 l -0.047 0.012 -0.266 -0.077 -0.095 -0.035 -0.123 -0.089 0.348 0.108 z M -28.641 -38.525 l -0.103 0.003 -0.098 -0.076 0.144 -0.04 0.042 0.024 0.031 0.028 0.018 0.036 z M -28.147 -38.453 l 0.082 0.04 -0.125 0.009 -0.041 0.019 -0.101 -0.028 -0.122 0.004 -0.077 -0.054 -0.018 -0.056 0.039 -0.034 0.108 0 z M -25.649 -37.841 l 0.063 0.007 0.319 -0.015 0.085 0.011 -0.009 0.074 -0.06 0.029 -0.188 0.02 -0.295 -0.048 -0.099 -0.063 -0.014 -0.046 0.002 -0.022 0.062 -0.017 z" vector-effect="non-scaling-stroke" fill="#000" fill-opacity="1" stroke="#FFF" stroke-width="0px" stroke-linejoin="round" stroke-linecap="round"/></svg>
