<svg xmlns="http://www.w3.org/2000/svg" xmlns:xlink="http://www.w3.org/1999/xlink" height="400" width="400" viewBox="-67.937060546875 -18.52216796875 2.64218749999999 0.574902343749997"><path d="M -66.129 -18.445 l 0.031 0.02 0.03 -0.003 -0.024 -0.041 0.022 0 0.192 0.025 0.123 0.042 0.127 0.02 0.008 0.139 -0.098 0.056 -0.064 0.058 -0.052 0.071 -0.137 0.083 -0.165 0.025 -0.11 0.002 -0.041 -0.003 -0.04 -0.014 -0.083 0.014 -0.102 -0.036 -0.088 0.009 -0.174 -0.009 -0.065 0.031 -0.062 0.007 -0.061 -0.006 -0.052 -0.014 -0.129 0.001 -0.054 -0.027 0.023 -0.158 0.002 -0.072 -0.032 -0.059 -0.035 -0.037 -0.025 -0.044 0.051 -0.029 0.042 -0.042 0.013 -0.063 0.046 -0.016 0.053 -0.007 0.247 0.03 0.624 0.017 0.035 0.005 z M -65.426 -18.106 l -0.078 0.006 -0.051 -0.008 -0.017 -0.03 0.095 -0.028 0.111 0.004 0.064 0.017 0.008 0.011 z M -67.872 -18.06 l -0.009 0.001 -0.009 -0.001 -0.004 -0.003 -0.006 -0.009 -0.028 -0.015 -0.007 -0.014 0.006 -0.015 0.012 -0.006 0.058 -0.002 0.006 0.001 0.012 0.01 0 0.007 -0.006 0.007 -0.01 0.017 -0.004 0.004 -0.003 0.005 -0.001 0.008 z" vector-effect="non-scaling-stroke" fill="#000" fill-opacity="1" stroke="#FFF" stroke-width="0px" stroke-linejoin="round" stroke-linecap="round"/></svg>
