<svg xmlns="http://www.w3.org/2000/svg" xmlns:xlink="http://www.w3.org/1999/xlink" height="400" width="400" viewBox="50.75458984375 -26.153271484375 0.854296874999989 1.588623046875"><path d="M 51.268 -24.607 l -0.09 0.021 -0.085 0.022 -0.071 -0.001 -0.057 -0.009 -0.038 -0.021 -0.073 -0.085 -0.051 -0.11 0.032 -0.061 0.011 -0.038 -0.069 -0.289 -0.023 -0.222 0.008 -0.045 0.04 -0.052 0.066 -0.116 0.035 -0.111 0.099 -0.257 0.105 -0.099 0.154 -0.073 0.127 0.142 0.154 0.109 0.029 0.121 -0.045 0.099 -0.042 0.157 0.025 0.072 0.009 0.063 0.042 0.105 0.041 0.137 0.007 0.095 -0.022 0.088 -0.054 0.074 -0.105 0.223 -0.031 0.023 z" vector-effect="non-scaling-stroke" fill="#000" fill-opacity="1" stroke="#FFF" stroke-width="0px" stroke-linejoin="round" stroke-linecap="round"/></svg>
