<svg xmlns="http://www.w3.org/2000/svg" xmlns:xlink="http://www.w3.org/1999/xlink" height="400" width="400" viewBox="20.241796875 -48.2634765625 9.46406250000001 4.59267578125"><path d="M 28.213 -45.45 l 0.105 0.103 0.134 0.055 0.309 0.058 0.028 -0.007 0.003 -0.011 -0.022 -0.015 -0.003 -0.019 0.015 -0.024 0.043 -0.001 0.07 0.021 0.133 -0.031 0.196 -0.082 0.18 -0.017 0.164 0.049 0.084 0.057 0.054 0.054 -0.017 0.067 -0.01 0.042 -0.043 0.172 -0.03 0.064 -0.048 0.072 -0.509 0.086 0.033 -0.041 -0.012 -0.072 -0.021 -0.055 0.048 -0.049 -0.115 -0.018 -0.05 0.027 -0.039 0.047 0.035 0.109 -0.056 0.06 -0.021 0.034 -0.003 0.079 -0.033 0.034 -0.007 0.037 0.081 -0.01 -0.036 0.069 -0.153 0.132 -0.054 0.079 0.013 0.312 -0.068 0.186 -0.005 0.055 -0.162 0.002 -0.048 -0.004 -0.153 -0.028 -0.172 -0.05 -0.101 -0.096 -0.065 -0.069 -0.146 0.031 -0.028 -0.008 -0.04 -0.033 -0.11 -0.022 -0.136 0 -0.305 -0.126 -0.034 -0.021 -0.239 0.021 -0.358 0.062 -0.273 0.077 -0.282 0.137 -0.115 0.104 -0.133 0.055 -0.189 0.041 -0.337 -0.016 -0.351 -0.052 -0.378 -0.056 -0.204 0.031 -0.276 -0.023 -0.416 -0.067 -0.31 -0.02 -0.306 0.039 -0.051 -0.03 -0.011 -0.034 0.012 -0.049 0.043 -0.039 0.074 -0.03 0.039 -0.03 0.004 -0.031 -0.083 -0.049 -0.17 -0.068 -0.07 -0.043 -0.017 -0.01 -0.005 -0.038 -0.035 -0.03 -0.066 -0.022 -0.051 -0.04 -0.036 -0.057 0.008 -0.054 0.052 -0.051 0.066 -0.022 0.081 0.007 0.034 -0.014 -0.013 -0.036 -0.079 -0.045 -0.144 -0.055 -0.147 0.03 -0.15 0.115 -0.108 0.019 -0.066 -0.078 -0.118 -0.046 -0.169 -0.015 -0.104 -0.03 -0.039 -0.045 -0.074 -0.035 -0.163 -0.037 -0.002 -0.035 0.026 -0.008 0.058 -0.003 0.078 -0.007 0.012 -0.02 0.001 -0.018 -0.061 -0.023 -0.062 -0.016 -0.032 -0.016 -0.021 -0.017 -0.004 -0.018 0.018 -0.012 0.025 -0.001 0.025 -0.011 0.014 -0.042 0.033 -0.035 0.024 -0.012 -0.002 -0.026 -0.025 -0.024 -0.034 -0.021 -0.05 -0.013 -0.155 -0.036 -0.079 -0.05 -0.048 -0.002 -0.076 -0.028 -0.082 -0.044 -0.071 -0.062 -0.077 -0.04 -0.02 -0.017 -0.002 -0.016 0.014 -0.017 0 -0.019 -0.02 -0.061 0.013 -0.065 -0.004 -0.06 -0.001 -0.027 -0.015 -0.008 -0.013 0.009 -0.019 0.012 -0.019 0.002 -0.057 -0.044 -0.072 -0.09 -0.049 -0.03 -0.095 -0.041 -0.079 -0.035 -0.057 -0.075 -0.06 -0.058 0.039 -0.024 0.227 -0.034 0.106 0.033 0.047 -0.012 0.046 -0.027 0.025 -0.022 0.005 -0.023 0.023 -0.029 0.077 -0.013 0.203 0.017 0.082 -0.04 0.03 -0.022 0.018 -0.048 0.021 -0.039 0.073 -0.021 -0.001 -0.035 -0.011 -0.039 0.042 -0.086 0.026 -0.035 0.041 -0.013 0.05 -0.027 0.086 -0.056 -0.02 -0.049 0.017 -0.036 0.09 -0.089 0.068 -0.085 -0.001 -0.043 0.01 -0.037 0.06 -0.041 0.064 -0.053 0.084 -0.166 0.03 -0.028 0.055 -0.032 0.041 -0.031 0.004 -0.109 0.038 -0.032 0.074 -0.035 0.073 -0.057 0.06 -0.067 0.046 -0.031 0.061 -0.008 0.066 -0.026 0.074 -0.01 0.071 0.013 0.046 -0.007 0.068 -0.033 0.175 -0.124 0.025 -0.025 0.036 -0.017 0.142 -0.042 0.036 -0.043 0.049 -0.038 0.063 0.003 0.206 0.095 0.221 -0.006 0.04 0.004 0.013 0.002 0.027 0.008 0.293 0.047 0.046 -0.005 0.012 -0.004 0.118 0.039 0.104 -0.005 0.099 -0.027 0.103 -0.009 0.095 0.016 0.072 0.055 0.187 0.116 0.055 0.043 0.086 -0.006 0.095 -0.022 0.096 -0.077 0.295 -0.088 0.225 -0.022 0.219 -0.035 0.254 -0.025 0.074 -0.072 0.041 -0.049 0.029 -0.091 0.137 -0.026 0.13 -0.019 0.046 -0.011 0.095 -0.004 0.074 0.008 0.114 0.045 0.08 0.056 0.031 0.045 0.068 0.063 0.072 0.088 0.079 0.118 0.017 0.06 0.03 0.064 0.059 0.078 0.112 0.087 0.016 0.016 0.051 0.061 0.098 0.135 0.082 0.054 0.072 0.059 0.034 0.059 0.051 0.054 0.12 0.071 0.098 0.065 0.078 0.186 0.055 0.086 0.035 0.066 -0.017 0.133 0.022 0.057 -0.045 0.104 -0.08 0.209 -0.019 0.166 0.014 0.09 0.002 0.058 0.019 0.037 0.021 0.076 0.004 0.066 -0.029 0.019 -0.041 0.016 -0.016 0.014 0.037 0.03 0.051 0.055 z" vector-effect="non-scaling-stroke" fill="#000" fill-opacity="1" stroke="#FFF" stroke-width="0px" stroke-linejoin="round" stroke-linecap="round"/></svg>
