<svg xmlns="http://www.w3.org/2000/svg" xmlns:xlink="http://www.w3.org/1999/xlink" height="400" width="400" viewBox="-180.0 -81.85419921875 360.0 40.654931640625"><path d="M 145.882 -43.46 l 0.014 0.005 0.018 -0.001 0.017 -0.002 0.01 0.012 0.002 0.019 -0.012 0.001 -0.024 0.003 -0.013 0.002 -0.007 -0.013 -0.005 -0.011 -0.012 -0.007 0 -0.007 z M 146.359 -43.625 l -0.026 0.005 -0.044 -0.005 -0.014 -0.004 0.01 -0.009 0.026 -0.013 0.023 0.004 0.017 0.003 z M 146.046 -43.409 l -0.013 0.002 -0.004 -0.013 0.021 -0.013 0.04 -0.015 0.012 0.009 -0.014 0.011 -0.016 0.008 z M 137.179 -55.1 l -0.123 0.174 -0.086 0.003 -0.067 -0.037 -0.138 0.015 -0.05 -0.01 0.081 -0.053 0.2 -0.083 0.082 0.001 0.079 -0.016 z M 150.59 -59.019 l -0.079 0.011 -0.039 -0.027 -0.002 -0.019 0.122 -0.043 0.074 -0.063 0.046 0.038 0.015 0.027 z M 120.261 -73.09 l -0.253 0.045 -0.216 -0.001 -0.152 -0.079 0.121 -0.031 0.203 -0.012 0.114 0.011 0.158 0.049 z M 124.543 -73.85 l -0.061 0.002 -0.115 -0.027 -0.031 -0.036 0.001 -0.018 0.093 -0.015 0.118 0.009 0.089 0.033 0.016 0.012 z M 106.27 -78.206 l -0.119 0.008 -0.127 -0.021 0.035 -0.045 0.292 -0.008 0.106 -0.067 0.184 0.004 0.051 0.02 0.028 0.022 -0.001 0.029 -0.04 0 -0.174 0.003 -0.032 0.017 z M 107.415 -77.243 l -0.113 0.001 -0.033 -0.048 0.097 -0.058 0.12 0 0.107 0.017 0.036 0.01 0.035 0.02 0.015 0.032 z M 97.588 -76.599 l -0.053 0.015 -0.105 -0.006 -0.089 -0.038 -0.031 -0.061 0.071 -0.017 z M 96.854 -76.199 l -0.056 0.011 -0.043 -0.007 -0.015 -0.011 0.001 -0.051 0.093 -0.066 0.002 -0.021 0.043 -0.01 0.112 0.012 0.055 0.028 0.008 0.013 -0.079 0.066 z M 100.136 -79.614 l -0.221 0.013 0.027 -0.07 0.013 -0.019 0.113 -0.011 0.073 0.017 0.159 0.013 z M 76.756 -73.446 l -0.097 0.006 -0.425 -0.037 -0.151 -0.047 0.056 -0.031 0.111 -0.001 z M 82.71 -74.091 l -0.097 0.034 -0.135 -0.019 -0.097 -0.023 -0.052 -0.032 0.053 -0.018 0.143 -0.012 0.085 0.013 0.078 0.037 z M 84.759 -74.459 l -0.049 0.06 -0.282 -0.031 -0.039 -0.024 0.151 -0.036 0.14 -0.022 0.193 -0.003 z M 86.653 -74.981 l 0.084 0.018 0.263 -0.029 0.052 0.009 0.072 0.043 -0.113 0.078 -0.085 0.031 -0.235 -0.018 -0.301 -0.003 -0.132 -0.043 0.072 -0.045 0.174 -0.027 0.101 -0.027 z M 59.313 -81.305 l -0.216 0.013 -0.378 -0.021 -0.109 -0.024 0.024 -0.023 0.246 -0.031 0.194 -0.006 0.206 0.032 0.094 0.041 z M -179.799 -68.94 l 0.203 0.034 0.081 -0.011 0.044 0.005 0.115 0.059 0.077 0.028 0.405 0.071 0.185 0.079 0.151 0.09 -0.075 -0.017 -0.138 -0.057 0.015 0.067 0.044 0.047 0.219 0.044 0.229 0.035 0.147 0.042 0.049 0.036 0.03 0.066 -0.037 0.058 0.133 -0.022 0.126 -0.051 -0.065 -0.04 -0.423 -0.14 -0.089 -0.047 0.123 0.024 0.567 0.179 0.156 0.068 -0.066 0.013 -0.046 0.04 0.05 0.017 0.068 -0.013 0.113 -0.008 0.11 0.023 0.126 0.048 0.265 0.056 1.562 0.441 0.035 0.076 0.044 0.036 0.026 0.045 0.007 0.074 -0.142 0.089 0.22 -0.008 0.032 -0.012 0.057 -0.036 0.063 -0.024 0.085 0.03 0.068 0.059 -0.02 0.08 -0.06 0.065 -0.008 0.11 0.053 0.093 0.056 0.039 0.045 0.045 0.012 0.132 -0.099 0.059 -0.055 0.102 0.061 0.01 0.19 0.01 0.062 0.018 0.109 0.047 0.026 0.046 0.024 0.062 0.035 0.058 0.025 0.028 0.028 -0.004 0.109 -0.08 0.051 -0.024 0.121 -0.021 0.067 0.091 -0.047 0.153 0.04 0 0.031 -0.016 0.039 -0.041 0.056 -0.024 0.068 -0.056 0.058 -0.069 -0.069 -0.054 -0.078 -0.033 -0.181 -0.019 -0.094 -0.04 -0.035 -0.051 0.092 -0.021 0.079 -0.037 0.055 -0.089 -0.013 -0.049 -0.022 -0.048 -0.045 -0.067 -0.068 -0.039 -0.129 -0.02 -0.058 -0.038 -0.089 0.002 -0.088 -0.011 -0.036 -0.014 0.004 -0.028 0.102 -0.013 0.564 -0.003 0.204 -0.038 0.093 0.012 0.093 0.028 0.336 0.036 -0.01 0.017 -0.057 0.017 -0.099 0.08 -0.02 0.046 -0.004 0.058 0.088 0.011 0.084 -0.025 -0.041 -0.047 -0.012 -0.057 0.035 -0.025 0.046 -0.005 0.088 0.043 0.096 0.014 0.322 0.017 0.091 -0.006 0.029 -0.022 -0.063 -0.025 -0.419 -0.056 -0.006 -0.031 0.386 0.038 0.174 0.035 0.173 0.026 0.242 -0.008 0.236 0.042 0.226 0.113 0.209 0.142 0.211 0.084 0.223 0.063 0.371 0.173 0.046 0.014 0.036 0.023 -0.07 0.029 -0.062 0.042 0.121 -0.029 0.122 -0.02 0.06 0.004 0.054 0.022 0.035 0.035 0.02 0.035 -0.052 0.032 0.355 0.006 0.111 0.02 0.049 0.085 -0.103 0.059 -0.06 -0.007 -0.058 -0.025 -0.054 -0.002 -0.156 0.025 -0.242 0.08 -0.14 0.063 -0.022 0.042 0.022 0.113 -0.02 0.054 -0.105 0.035 -0.231 -0.021 -0.105 -0.022 -0.118 -0.03 -0.113 -0.042 -0.145 -0.067 -0.045 -0.006 -0.03 0.016 0.049 0.042 0.098 0.053 0.169 0.07 0.08 0.078 -0.052 0.039 -0.064 0.009 -0.046 -0.001 -0.148 -0.024 -0.102 -0.006 -0.324 0.023 -0.117 0.015 -0.04 -0.012 -0.01 -0.034 -0.174 -0.025 -0.102 -0.004 -0.048 -0.012 -0.04 -0.035 -0.113 -0.052 -0.172 -0.02 -0.111 -0.002 -0.064 0.011 0.227 0.069 0.203 0.116 -0.038 0.021 -0.026 0.025 0.112 0.002 0.073 -0.008 0.021 0.031 -0.058 0.122 -0.039 0.027 -0.353 0.027 0.089 0.02 0.091 0.006 0.103 -0.005 0.093 0.021 0.062 0.077 0.01 0.081 -0.091 0.046 -0.094 0.037 -0.194 0.057 -0.2 0.025 -0.105 -0.006 -0.102 0.013 -0.067 0.029 -0.02 0.03 0.088 -0.02 0.101 0.011 0.096 0.036 -0.01 0.029 -0.091 0.032 -0.021 0.024 0.035 0.041 -0.012 0.035 0.047 0.019 0.107 0.007 0.131 0.025 0.129 0.034 0.051 0.029 0.043 0.041 0.015 0.043 -0.023 0.018 -0.293 0.007 -0.044 -0.005 -0.017 -0.048 -0.036 -0.039 -0.112 -0.027 -0.046 0.019 0.033 0.138 -0.044 0.042 -0.049 0.03 -0.148 0.018 -0.118 -0.01 -0.1 -0.065 0 -0.056 0.066 -0.032 0 -0.045 -0.018 -0.052 -0.068 0.061 -0.079 0.05 -0.129 0.063 -0.062 0.008 -0.064 -0.007 -0.168 -0.045 -0.104 -0.039 -0.203 -0.129 -0.113 -0.06 -0.253 -0.08 -0.26 -0.058 -0.206 -0.038 -0.11 0.004 -0.11 0.015 -0.139 -0.008 -0.047 -0.014 -0.041 -0.032 -0.037 -0.019 -0.195 -0.079 -0.138 -0.065 -0.006 -0.043 0.029 -0.051 -0.026 -0.127 -0.067 -0.12 -0.17 -0.119 -0.454 -0.077 -0.375 -0.054 -0.134 -0.012 -0.119 0.012 -0.314 0.098 -0.21 0.014 -0.612 0.005 -0.102 -0.011 -0.092 -0.042 -0.021 -0.056 0.027 -0.104 -0.003 -0.044 -0.024 -0.015 -0.032 0.001 -0.121 -0.041 -0.112 -0.069 -0.088 -0.072 -0.06 -0.096 0.081 -0.005 0.112 0.024 0.016 -0.024 0.037 -0.087 0.078 -0.042 0.03 -0.032 0.052 -0.118 0.008 -0.085 -0.089 0.046 -0.137 0.118 -0.068 0.035 -0.047 0.016 -0.047 0.007 -0.111 -0.024 -0.079 -0.028 -0.002 -0.114 -0.037 -0.029 -0.035 0.022 -0.014 0.041 -0.1 0.007 -0.047 0.018 0.024 0.068 -0.011 0.057 -0.095 0.022 -0.194 0.013 -0.067 -0.056 -0.058 0.078 -0.043 0.088 -0.006 0.117 0.061 0.097 0.088 0.046 0.192 0.07 0.083 0.049 0.022 0.063 -0.008 0.058 -0.1 0.071 -0.068 0.059 -0.116 0.142 -0.069 0.057 -0.295 0.12 0 -0.245 0 -0.245 0 -0.245 0 -0.245 0 -0.245 0 -0.245 0 -0.245 0 -0.245 0 -0.245 0 -0.245 0 -0.245 0 -0.245 0 -0.245 0 -0.245 0 -0.245 0 -0.245 z M 130.687 -42.303 l -0.029 -0.025 -0.006 -0.045 -0.034 -0.043 -0.064 -0.059 -0.027 -0.061 0.058 -0.032 -0.008 -0.056 -0.056 -0.051 -0.081 -0.011 -0.019 -0.014 0.005 -0.027 0.028 -0.028 0.04 -0.024 0.084 -0.033 0.145 -0.024 0.081 -0.021 0.065 -0.006 0.074 0.012 0.063 -0.031 0.063 -0.019 0.015 -0.054 0.003 -0.082 0.023 -0.024 0.027 -0.035 0.04 -0.045 0.036 -0.116 0.027 -0.08 0.018 -0.04 0.004 -0.055 -0.018 -0.036 -0.035 -0.021 -0.027 -0.015 -0.002 -0.062 0.004 -0.084 -0.009 -0.054 0.039 -0.298 0.042 -0.069 -0.129 -0.398 -0.039 -0.126 -0.026 -0.064 -0.057 -0.094 -0.036 -0.047 0.014 -0.044 0.051 -0.045 0.049 -0.021 0.146 -0.01 0.04 -0.016 0.179 -0.048 0.041 -0.029 0.091 -0.071 0.035 -0.053 0.04 -0.069 0.088 -0.037 0.053 -0.063 0.057 -0.022 0.057 0.053 0.068 0.03 0.046 0.009 -0.019 0.021 0.012 0.087 -0.002 0.052 0.094 0.106 -0.024 0.117 -0.015 0.109 0.1 0.069 0.073 0.044 -0.003 0.024 0.037 0.037 0.09 0.04 0.094 -0.083 0.154 -0.099 0.129 -0.231 0.067 -0.109 0 -0.014 0.029 0.005 0.05 0.015 0.047 0.016 0.076 -0.045 0.102 -0.056 -0.017 -0.09 0.017 -0.101 0.073 -0.173 0.081 -0.05 0.043 -0.008 0.046 -0.019 0.081 -0.032 0.029 -0.047 -0.017 -0.054 0.027 -0.053 0.009 -0.053 0.028 -0.068 0.038 -0.019 0.057 -0.023 0.04 -0.035 0.038 -0.054 0.025 -0.061 -0.01 -0.07 0.05 -0.046 0.083 -0.038 0.029 -0.023 0.013 -0.061 0.005 -0.027 0.022 -0.031 -0.016 -0.064 -0.02 -0.069 0.091 -0.115 0.065 -0.099 0.016 -0.145 0.007 -0.024 0.025 -0.069 0.015 -0.027 0.05 -0.091 0.065 -0.059 -0.013 -0.066 -0.026 -0.065 0.005 -0.043 0.058 -0.05 0.035 -0.025 0.031 -0.036 0.049 -0.016 0.043 -0.009 0.101 -0.009 0.058 -0.038 0.054 -0.039 0.1 -0.101 0.032 -0.06 0.024 -0.031 -0.054 -0.086 -0.048 -0.073 -0.059 -0.101 -0.025 -0.047 0.039 -0.06 0.042 -0.037 0.022 -0.033 0.012 -0.057 -0.016 -0.043 -0.102 -0.068 -0.107 -0.034 -0.121 -0.014 -0.042 -0.005 -0.087 0.014 -0.364 0.086 -0.17 0.066 -0.099 0.075 -0.105 0.036 -0.167 -0.004 -0.157 -0.004 -0.124 0.041 -0.143 0.085 -0.104 0.039 -0.066 -0.007 -0.07 0.057 -0.075 0.122 -0.086 0.054 -0.096 -0.015 -0.23 0.012 -0.365 0.037 -0.229 -0.002 -0.092 -0.041 -0.145 -0.005 -0.197 0.03 -0.119 0.006 -0.041 -0.018 -0.029 -0.05 -0.017 -0.083 -0.067 -0.087 -0.116 -0.09 -0.021 -0.108 0.075 -0.127 0.017 -0.087 -0.041 -0.047 -0.017 -0.042 -0.088 -0.053 -0.062 -0.091 -0.045 -0.028 0.013 -0.078 0.052 -0.093 -0.064 -0.088 -0.198 -0.005 -0.159 -0.025 -0.159 -0.081 -0.245 -0.227 -0.121 -0.08 -0.08 -0.008 -0.058 -0.037 -0.036 -0.065 -0.057 -0.001 -0.056 0 -0.035 0.027 -0.04 0.008 -0.061 -0.025 -0.063 -0.003 -0.065 0.019 -0.055 -0.013 -0.045 -0.045 -0.082 -0.03 -0.119 -0.015 -0.049 -0.031 0.021 -0.047 -0.022 -0.035 -0.065 -0.023 -0.177 0.006 -0.29 0.035 -0.238 -0.009 -0.185 -0.054 -0.103 -0.049 -0.021 -0.045 -0.053 -0.043 -0.086 -0.042 -0.048 -0.072 -0.011 -0.102 0.021 -0.097 0.078 -0.137 -0.195 -0.09 -0.058 -0.052 0.014 -0.043 -0.01 -0.034 -0.035 -0.025 0.002 -0.041 0.039 -0.056 0 -0.071 -0.04 -0.087 -0.109 -0.121 -0.178 -0.156 -0.096 -0.114 -0.013 -0.072 -0.024 -0.058 -0.033 -0.031 -0.021 -0.054 0.014 -0.059 -0.02 -0.038 -0.026 -0.036 0.004 -0.058 -0.031 -0.039 -0.065 -0.021 -0.021 -0.044 0.012 -0.093 -0.047 -0.078 -0.143 -0.145 -0.042 -0.105 -0.012 -0.095 -0.061 -0.047 -0.003 -0.042 -0.008 -0.072 -0.037 -0.02 -0.022 -0.025 0.017 -0.03 -0.029 -0.038 -0.075 -0.045 -0.035 -0.039 -0.008 -0.035 -0.038 -0.027 -0.111 -0.027 -0.03 -0.037 0.007 -0.033 0.024 -0.03 0.013 -0.019 -0.004 -0.024 -0.008 -0.024 -0.044 -0.028 -0.063 -0.033 -0.07 -0.071 -0.089 -0.019 -0.055 0 -0.047 -0.04 0.015 -0.025 -0.004 -0.047 -0.043 -0.039 -0.053 -0.015 -0.05 0.01 -0.124 -0.036 -0.197 -0.082 -0.151 -0.038 -0.104 0.006 -0.064 0.025 -0.025 0.043 -0.07 -0.004 -0.172 -0.077 -0.174 -0.019 -0.097 -0.041 -0.078 -0.07 -0.071 -0.029 -0.066 0.011 -0.16 -0.047 -0.254 -0.105 -0.133 -0.036 -0.048 0.02 -0.025 0 -0.045 -0.003 -0.065 -0.001 -0.114 -0.025 -0.155 0.011 -0.196 0.047 -0.213 0.029 -0.229 0.012 -0.136 -0.006 -0.042 -0.023 -0.249 0.034 -0.345 0.068 -0.338 0.067 -0.42 0.032 -0.281 0.113 -0.283 0.204 -0.203 0.128 -0.124 0.053 -0.05 0.069 0.023 0.085 0.105 0.03 0.187 -0.025 0.161 0.012 0.135 0.048 0.043 0.073 -0.049 0.098 0.015 0.096 0.079 0.094 0.005 0.109 -0.068 0.123 -0.171 0.125 -0.274 0.126 -0.17 0.122 -0.1 0.179 -0.154 0.155 -0.057 0.088 -0.011 0.072 -0.061 0.078 -0.112 0.083 -0.061 0.084 -0.011 0.084 -0.056 0.076 -0.102 0.069 -0.063 0.073 -0.025 0.077 -0.039 0.052 -0.053 0.027 0.028 0.026 0.11 0.026 0.045 0.075 -0.02 0.124 -0.066 0.089 -0.112 0.053 -0.168 0.035 -0.224 0.016 -0.304 0.118 -0.265 0.152 -0.313 0.179 -0.061 0 -0.114 -0.022 -0.221 -0.074 -0.232 -0.015 -0.224 -0.068 -0.133 -0.045 -0.206 -0.086 -0.052 -0.053 -0.08 -0.043 -0.2 -0.058 -0.134 -0.031 -0.082 -0.002 -0.209 0.059 -0.131 0.046 -0.077 0.025 -0.13 -0.005 -0.159 -0.01 -0.064 -0.015 -0.091 -0.037 -0.176 -0.111 -0.095 -0.079 -0.124 -0.044 -0.136 -0.051 -0.068 -0.012 -0.121 0.004 -0.168 -0.014 -0.089 -0.019 -0.075 0.017 -0.151 0.053 -0.19 0.104 -0.149 0.04 -0.158 0.054 -0.129 0.065 -0.126 0.067 -0.155 0.077 -0.072 0.105 -0.037 0.076 -0.141 0.047 -0.108 0.046 -0.109 0.016 -0.202 -0.025 -0.12 0.018 -0.296 0.09 -0.145 0.008 -0.101 0.012 -0.098 0.006 -0.161 0.021 -0.063 0.015 -0.083 0.018 -0.093 -0.013 -0.132 0.052 -0.376 0.138 -0.118 0.023 -0.079 0.005 -0.101 -0.049 -0.102 -0.033 -0.106 0.004 -0.121 0.045 -0.205 -0.035 -0.244 -0.034 -0.222 -0.031 -0.075 -0.026 -0.217 -0.039 -0.317 0 -0.187 0 -0.119 0.013 -0.091 -0.019 -0.116 -0.055 -0.194 -0.128 -0.115 -0.038 -0.064 -0.031 -0.024 -0.053 -0.044 -0.007 -0.029 -0.038 0.002 -0.05 -0.004 -0.108 0.013 -0.076 -0.031 -0.023 -0.13 -0.012 -0.156 -0.023 -0.284 -0.004 -0.114 -0.003 -0.09 -0.044 -0.103 -0.053 -0.099 -0.11 -0.088 -0.052 -0.143 -0.064 -0.137 -0.016 -0.206 0.011 -0.151 0.013 -0.135 -0.028 -0.086 -0.035 -0.121 -0.037 -0.183 -0.009 -0.151 -0.027 -0.158 -0.032 -0.117 0.013 -0.081 0.031 -0.091 0.04 -0.118 0.007 -0.292 0.041 -0.089 0.025 -0.13 0.011 -0.112 0.031 -0.094 0.061 -0.08 0.045 -0.101 0.015 -0.12 -0.003 -0.102 -0.015 -0.054 -0.004 -0.079 0.022 -0.09 0.015 -0.137 -0.026 -0.075 -0.022 -0.117 -0.013 -0.071 -0.064 -0.072 -0.026 -0.122 -0.01 -0.18 -0.033 -0.094 -0.033 -0.082 -0.021 -0.137 -0.074 -0.077 -0.064 -0.063 -0.01 -0.07 -0.008 -0.048 -0.041 -0.003 -0.05 0.018 -0.031 0.013 -0.053 -0.04 -0.05 -0.042 -0.023 -0.02 -0.038 0.011 -0.072 -0.016 -0.073 -0.016 -0.076 -0.043 -0.057 -0.01 -0.109 0.018 -0.045 -0.004 -0.053 -0.044 -0.04 -0.132 -0.029 -0.158 -0.039 -0.25 -0.046 -0.107 -0.004 -0.083 0.019 -0.077 -0.022 -0.081 -0.039 -0.138 -0.04 -0.182 -0.051 -0.193 -0.057 -0.175 -0.052 -0.067 -0.013 -0.239 -0.004 -0.196 -0.007 -0.113 -0.018 -0.134 -0.072 -0.069 -0.044 -0.106 -0.021 -0.081 -0.007 -0.125 -0.024 -0.231 -0.075 -0.085 -0.036 -0.057 -0.001 -0.076 -0.066 -0.065 -0.016 -0.045 0.047 -0.046 0.113 -0.042 0.052 -0.12 0.104 -0.288 0.084 -0.05 0.043 -0.026 0.04 -0.039 0.056 -0.018 0.073 -0.035 0.02 -0.082 0.002 -0.066 0.034 -0.048 0.073 -0.042 0.029 -0.024 0.068 0.004 0.03 -0.009 0.033 -0.007 0.053 -0.075 0.114 -0.01 0.066 0.031 0.042 0.064 0.056 0.033 0.032 0.011 0.038 -0.002 0.049 0.039 0.067 0.029 0.057 0.049 0.041 0.066 0.035 0.075 0.011 0.059 0.024 0.013 0.046 -0.015 0.064 -0.027 0.121 -0.05 0.075 -0.03 0.047 -0.048 0.074 -0.019 0.029 -0.1 0.064 -0.067 0.017 -0.083 0.05 -0.068 0.002 -0.065 0 -0.07 0.011 -0.062 0.022 -0.049 0.068 -0.122 0.07 -0.059 0.032 -0.151 0.011 -0.072 -0.031 -0.039 -0.043 -0.049 -0.025 -0.063 -0.053 -0.274 -0.029 -0.071 0.014 -0.042 0.019 -0.055 -0.014 -0.037 -0.026 -0.039 0.007 -0.085 0.015 -0.066 -0.005 -0.085 -0.053 -0.118 -0.028 -0.046 -0.016 -0.047 0 -0.029 0.025 -0.054 0.014 -0.036 -0.031 -0.047 -0.022 -0.063 0 -0.082 0.046 -0.141 0.022 -0.045 0.033 -0.081 -0.004 -0.056 -0.026 -0.056 -0.003 -0.163 0 -0.055 0.008 -0.067 -0.026 -0.031 -0.047 -0.083 -0.035 -0.119 -0.004 -0.093 0.005 -0.043 0.015 -0.061 0.004 -0.05 -0.064 -0.068 -0.045 -0.038 -0.033 -0.058 -0.014 -0.046 -0.042 -0.008 -0.082 -0.028 -0.101 -0.032 -0.106 -0.036 -0.045 -0.175 -0.016 -0.086 0.004 -0.194 -0.009 -0.133 -0.006 -0.036 -0.002 -0.125 -0.012 -0.114 -0.011 -0.116 -0.007 -0.048 0.009 -0.119 0.003 -0.093 -0.051 -0.039 -0.058 -0.007 -0.032 -0.022 -0.033 -0.085 -0.011 -0.077 0.01 -0.041 0.068 -0.057 0.028 -0.055 -0.005 -0.048 -0.037 -0.092 -0.04 -0.06 -0.038 -0.072 -0.061 -0.059 0.014 -0.017 0.038 -0.014 0.037 -0.073 0.075 -0.088 0.009 -0.147 -0.006 -0.152 0.004 -0.098 0.028 -0.072 0.05 -0.037 0.04 -0.075 0.014 -0.075 0.04 -0.031 0.054 -0.074 -0.002 -0.04 0.007 -0.067 0.011 -0.171 0.03 -0.041 0.007 -0.104 0.051 -0.079 0.04 -0.077 0.018 -0.046 0.047 -0.059 0.037 -0.138 0.009 -0.152 0.046 -0.054 0.016 -0.087 0.034 -0.121 0.013 -0.05 0.01 -0.049 0.024 -0.028 0.085 -0.099 0.031 -0.134 0.005 -0.1 0.045 -0.01 0.08 0.035 0.073 -0.015 0.033 -0.075 0.018 -0.104 0.039 -0.079 0.049 -0.096 0 -0.055 -0.016 -0.041 0.031 -0.023 0.063 -0.071 0.031 -0.101 0.029 -0.038 -0.011 -0.025 -0.024 -0.045 -0.032 -0.036 0.012 -0.004 0.046 -0.029 0.033 -0.084 0.002 -0.065 -0.018 -0.05 -0.022 -0.089 0.004 -0.092 0.01 -0.059 -0.01 -0.056 0.01 -0.145 0.021 -0.057 0.07 -0.001 0.083 -0.019 0.042 -0.087 0.037 -0.04 0.033 -0.053 0.022 -0.117 0.002 -0.004 0 -0.052 -0.004 -0.094 0.019 -0.092 0.015 -0.061 0.01 -0.04 0.031 -0.059 0.015 -0.094 -0.009 -0.026 -0.062 -0.063 -0.069 -0.086 -0.024 -0.077 -0.015 -0.07 -0.033 -0.048 -0.035 -0.141 -0.166 -0.098 -0.071 -0.088 -0.004 -0.012 -0.047 0.051 -0.047 0.065 -0.039 -0.002 -0.053 -0.053 -0.029 -0.065 0.008 -0.088 0.061 -0.104 0.069 -0.126 0.051 -0.05 0.041 -0.061 0.047 -0.088 -0.006 -0.063 0.002 -0.055 0.004 -0.041 -0.051 -0.053 -0.006 -0.382 -0.049 -0.127 -0.019 -0.08 0.024 -0.059 -0.016 -0.022 -0.049 -0.074 -0.086 -0.06 -0.071 -0.076 -0.073 -0.026 -0.057 0.025 -0.059 -0.01 -0.051 -0.065 -0.027 -0.085 -0.003 -0.232 -0.111 -0.108 -0.016 -0.098 -0.02 -0.078 0 -0.065 -0.049 -0.063 -0.149 -0.019 -0.083 -0.077 -0.084 -0.097 -0.072 -0.057 -0.098 -0.085 -0.043 -0.142 -0.069 -0.136 -0.049 -0.224 -0.059 -0.084 0 -0.113 0.005 -0.067 0.029 -0.074 0.063 -0.1 0.004 -0.158 0 -0.042 0.024 -0.026 0.043 -0.081 0.055 -0.118 0.044 -0.168 -0.014 -0.114 0.022 -0.114 0.009 -0.164 -0.056 -0.182 0.002 -0.118 0.025 -0.168 -0.001 -0.034 -0.031 0.02 -0.053 -0.014 -0.047 -0.028 -0.039 -0.022 -0.047 -0.069 -0.01 -0.195 0.02 -0.053 -0.022 0.006 -0.046 0.035 -0.057 0.029 -0.074 -0.014 -0.044 -0.1 0.005 -0.061 -0.004 -0.032 -0.053 -0.057 -0.039 -0.064 -0.002 -0.078 -0.01 -0.085 0.016 -0.045 0.053 -0.055 0.008 -0.06 0.015 -0.043 0.018 -0.027 0.047 0.012 0.044 0.019 0.095 -0.029 0.051 -0.078 0.027 -0.075 -0.006 -0.05 0.013 -0.093 0.053 -0.041 0.018 -0.014 0.033 -0.006 0.049 -0.08 -0.016 -0.127 -0.181 -0.143 -0.205 -0.162 -0.218 -0.085 -0.115 -0.32 -0.375 -0.157 -0.179 -0.271 -0.31 -0.246 -0.281 -0.277 -0.291 -0.165 -0.165 -0.174 -0.174 -0.061 -0.048 -0.095 -0.062 -0.235 -0.12 -0.337 -0.171 -0.312 -0.153 -0.245 -0.12 -0.063 -0.051 -0.028 -0.029 -0.026 -0.033 -0.037 -0.058 0 -0.038 0.233 0.006 0.048 -0.037 0.086 -0.139 0.048 -0.121 -0.078 0.006 -0.144 0.05 -0.076 0.036 -0.043 0.015 -0.23 0.024 -0.126 0.053 -0.26 0.091 -0.188 0.053 -0.036 0.009 -0.22 0.016 -0.039 0.021 -0.006 0.047 -0.015 0.052 -0.157 0.076 -0.168 0.067 -0.063 0.007 -0.102 -0.015 -0.053 0.008 -0.153 0.071 -0.229 0.107 -0.021 0.044 -0.001 0.053 -0.027 0.046 -0.051 0.017 -0.074 -0.04 -0.067 -0.049 -0.141 -0.035 -0.21 -0.008 -0.128 0.017 -0.088 0.027 -0.173 0.107 -0.063 0.021 -0.035 -0.007 -0.01 -0.052 -0.035 -0.037 -0.041 -0.055 0.02 -0.109 0.094 -0.104 0.155 -0.057 0.125 -0.061 0.037 -0.067 -0.003 -0.046 -0.046 -0.021 -0.048 -0.004 -0.028 0.022 -0.084 0.046 -0.125 0.036 -0.104 0.007 -0.047 -0.002 -0.111 -0.023 -0.205 -0.127 -0.173 -0.017 -0.119 -0.01 -0.04 0.013 -0.018 0.031 0.011 0.034 0.024 0.033 -0.013 0.027 -0.056 0.02 -0.083 0.034 -0.042 -0.023 -0.021 -0.089 0.004 -0.069 -0.058 -0.058 -0.06 -0.091 -0.083 -0.054 -0.081 0.017 -0.04 0.077 -0.061 0.026 -0.117 -0.016 -0.21 0.043 -0.341 0.02 -0.243 -0.054 -0.04 -0.048 0.099 -0.104 0.008 -0.091 -0.001 -0.083 0.026 -0.061 -0.059 -0.116 -0.134 -0.235 -0.082 -0.177 -0.12 -0.133 -0.052 -0.044 -0.252 0.023 -0.069 0.029 -0.046 0.041 -0.078 0.029 -0.111 0.021 -0.095 -0.014 -0.106 -0.022 -0.112 -0.047 -0.13 -0.062 -0.247 -0.05 -0.246 -0.016 -0.27 -0.017 -0.134 0.031 -0.13 0.05 -0.188 0.104 -0.086 0.01 -0.137 0.008 -0.096 0.026 0.019 0.046 0.019 0.063 -0.035 0.049 -0.054 0.026 -0.082 0.017 -0.134 0.006 -0.11 0.01 -0.137 0.071 -0.209 0.018 -0.227 0.026 -0.159 0.041 -0.344 0.05 -0.199 0.022 -0.333 0.048 -0.268 0.008 -0.04 -0.034 -0.206 0.075 -0.231 -0.005 -0.043 0.03 -0.056 0.029 -0.062 0.013 -0.079 0.035 -0.045 0.075 -0.034 0.077 -0.069 0.024 -0.093 -0.029 -0.069 -0.028 -0.117 0.028 -0.159 0.016 -0.125 -0.01 -0.064 -0.022 -0.262 0.037 -0.137 0.044 -0.025 0.023 -0.033 0.013 -0.157 0.031 -0.126 -0.009 -0.02 0.002 -0.119 0.021 -0.168 0.039 -0.121 0.013 -0.101 -0.001 -0.065 0.032 -0.053 0.034 -0.441 0.036 -0.044 0.025 -0.089 0.031 -0.459 0.011 -0.038 0.023 -0.017 0.026 -0.057 0.008 -0.331 -0.048 -0.264 -0.054 -0.103 0.03 -0.087 0.056 -0.031 0.081 0 0.069 0 0.06 -0.04 0.043 -0.088 0.053 -0.006 0.036 0.119 0.039 0.149 0.032 0.088 -0.014 0.074 -0.022 0.064 0.007 0.045 0.026 0.016 0.031 -0.008 0.022 -0.028 0.017 -0.098 0.029 -0.089 -0.01 -0.083 0.02 -0.043 0.04 -0.023 0.069 0.036 0.05 0.112 0.012 0.126 0.036 0.139 0.017 0.084 -0.006 0.106 0.055 0.248 0.066 0.066 0.05 0.002 0.052 -0.046 0.039 -0.063 0.022 -0.086 -0.012 -0.169 -0.013 -0.186 -0.009 -0.133 -0.017 -0.194 0.007 -0.159 0.017 -0.041 0.039 -0.062 0.073 -0.051 0.041 -0.091 0.075 -0.028 0.069 0.047 0.106 0.158 0.175 0.015 0.058 -0.057 0.056 -0.109 0.047 -0.158 0.083 -0.171 0.004 -0.074 0.021 -0.192 0.101 -0.168 0.048 -0.035 0.043 0.037 0.043 0.213 0.056 0.107 0.062 0.031 0.069 0.046 0.053 0.166 0.034 0.343 0.08 0.02 0.008 0.021 0.036 0.348 0.05 0.048 0.027 0.143 0.09 0.03 0.095 -0.073 0.093 -0.047 0.147 -0.076 0.129 -0.163 0.086 -0.285 0.079 -0.304 0.032 -0.129 -0.005 -0.084 -0.01 -0.137 -0.025 -0.101 -0.066 -0.075 -0.064 -0.054 -0.016 -0.053 0.011 -0.05 0.04 -0.067 0.109 -0.075 0.108 -0.061 0.038 -0.228 0.051 -0.025 -0.018 0.026 -0.072 -0.029 -0.021 -0.043 -0.016 -0.281 -0.027 -0.107 -0.02 -0.079 -0.008 -0.101 -0.018 -0.07 -0.043 -0.15 -0.131 -0.117 -0.103 -0.188 -0.093 -0.171 -0.018 -0.014 0.009 -0.13 0.003 -0.206 -0.023 -0.01 0.003 -0.064 0.042 -0.048 0.066 -0.063 0.056 -0.096 0.03 -0.116 0.007 -0.13 -0.058 -0.133 -0.09 -0.167 -0.029 -0.162 0.02 -0.059 0.014 -0.17 0.051 -0.053 -0.024 -0.075 -0.015 -0.166 0.083 -0.182 0.091 -0.039 0.068 -0.055 0.063 -0.121 0.06 -0.132 0.052 -0.111 0.019 -0.144 -0.019 -0.181 -0.063 -0.166 -0.079 -0.18 -0.125 -0.147 -0.072 -0.141 -0.057 -0.086 -0.013 -0.069 0.021 -0.027 0.044 0.02 0.035 0.041 0.031 0.032 0.099 0.012 0.121 -0.014 0.069 -0.04 0.041 -0.041 0.015 -0.038 -0.005 -0.046 -0.043 -0.028 -0.09 -0.022 -0.106 -0.124 -0.134 -0.107 -0.082 -0.051 -0.045 -0.098 -0.074 -0.085 -0.046 -0.18 -0.053 -0.088 -0.038 -0.153 -0.148 -0.086 -0.045 -0.111 -0.038 -0.091 -0.011 -0.02 0.009 -0.189 0.021 -0.136 -0.003 -0.082 -0.028 -0.085 -0.003 -0.007 0 -0.093 0.019 -0.017 -0.001 -0.047 -0.001 -0.075 -0.031 -0.073 -0.082 -0.092 -0.087 -0.112 -0.028 -0.212 0.037 -0.232 0.118 -0.166 0.07 -0.136 0.002 -0.077 0.011 -0.051 -0.004 -0.043 -0.022 -0.01 -0.043 -0.021 -0.054 -0.106 -0.053 -0.146 -0.034 -0.135 -0.038 -0.088 -0.01 -0.038 0.054 -0.112 0.086 -0.128 0.084 -0.163 0.136 -0.044 0.048 -0.062 0.032 -0.142 0.035 -0.173 0.057 -0.11 0.065 -0.156 0.03 -0.168 0.019 -0.073 0.057 -0.045 0.092 -0.056 0.083 -0.265 0.126 -0.145 0.081 -0.105 0.043 -0.074 -0.006 -0.08 -0.013 -0.03 0.007 0.041 0.062 0.034 0.197 0.049 0.125 0.035 0.072 0.033 0.057 0.025 0.087 -0.033 0.051 -0.051 0.034 -0.159 0.054 -0.166 0.046 -0.099 -0.03 -0.11 -0.074 -0.043 -0.038 -0.121 -0.124 -0.211 -0.189 -0.144 -0.096 -0.106 -0.036 -0.096 0.011 -0.074 0.045 -0.053 0.04 -0.05 0.045 -0.032 0.056 0.003 0.077 -0.002 0.082 -0.047 0.058 -0.119 0.062 -0.138 0.086 -0.102 0.156 -0.066 0.195 -0.021 0.135 0.051 0.063 0.1 0.051 0.065 0.053 0.013 0.05 -0.017 0.052 -0.052 0.06 -0.109 0.069 -0.15 0.164 -0.093 0.232 0.052 0.162 0.192 0.089 0.151 0.039 0.06 0.052 0.054 0.105 -0.008 0.107 -0.018 0.072 0.038 0.071 0.071 0.084 0.09 0.052 0.095 -0.028 0.095 -0.035 0.118 0.014 0.334 0.029 0.175 0.015 0.057 0.037 0.109 0.119 0.137 0.133 0.139 0.135 0.048 0.059 0.114 0.162 0.117 0.146 0.128 0.18 -0.009 0.049 -0.067 0.02 -0.107 -0.005 -0.083 -0.026 -0.046 -0.022 -0.042 -0.007 -0.047 0.009 -0.04 0.023 -0.016 0.036 0.007 0.049 0.032 0.044 0.045 0.029 0.024 0.011 0.164 0.058 0.185 0.066 0.225 0.093 0.048 0.012 0.014 0.046 -0.12 0.01 -0.015 0.053 -0.031 0.039 -0.27 0.089 -0.067 0 -0.059 0.015 0.004 0.057 0.016 0.053 0.046 0.056 -0.02 0.024 -0.04 0.008 -0.052 -0.017 -0.048 -0.029 -0.052 -0.007 -0.05 0.007 -0.229 0.157 -0.098 0.041 -0.106 0.016 -0.223 0.058 -0.066 -0.003 -0.063 -0.02 -0.051 0.029 -0.017 0.073 -0.059 -0.05 -0.066 -0.04 -0.029 -0.013 -0.016 0.008 0.061 0.078 0.005 0.071 -0.015 0.039 -0.026 0.036 -0.034 0.022 -0.041 0.012 -0.022 0.126 -0.04 0.077 -0.055 0.068 -0.075 0.125 -0.06 0.055 -0.047 0.064 -0.031 0.089 -0.045 -0.021 -0.036 -0.038 -0.019 0.05 -0.026 0.043 -0.116 0.064 -0.086 0.062 -0.039 0.096 -0.009 0.057 0.014 0.052 0.032 0.031 0.163 0.033 0.108 0.044 0.099 0.082 0.107 0.069 0.077 0.089 0.054 0.11 0.068 0.213 0.034 0.225 0.1 -0.28 0.084 -0.05 -0.019 0.079 -0.06 0.121 -0.059 0.175 -0.019 0.128 0.022 0.111 0.001 0.052 -0.05 0.184 0.026 0.035 0.04 0.033 0.106 0.064 0.074 0.093 0.019 0.13 0.042 0.036 0.053 0.031 0.258 0.26 0.148 0.173 0.074 0.101 0.081 0.127 0.043 0.029 0.05 0.019 0.096 0.061 -0.054 0.065 -0.088 0.116 -0.039 0.061 -0.093 0.057 -0.156 0.06 -0.086 0.026 -0.092 0.125 -0.103 0.121 -0.07 0.013 -0.199 -0.019 -0.071 -0.011 -0.203 -0.053 -0.057 -0.033 -0.056 -0.141 -0.063 -0.06 -0.079 -0.039 -0.054 -0.033 -0.022 -0.034 -0.057 -0.049 -0.105 -0.073 -0.076 -0.069 -0.059 -0.019 -0.074 0.024 -0.045 0.007 -0.019 -0.012 -0.014 -0.058 -0.108 -0.021 -0.018 -0.014 -0.144 -0.056 -0.055 -0.03 -0.053 -0.002 -0.111 -0.017 -0.094 -0.027 -0.044 -0.035 -0.064 -0.039 -0.119 -0.049 -0.088 -0.046 -0.004 -0.03 0.054 -0.123 0.039 -0.118 -0.022 -0.023 -0.05 -0.02 -0.093 -0.018 -0.219 0.006 -0.136 -0.118 -0.048 -0.027 -0.089 -0.019 -0.128 -0.036 -0.072 -0.026 -0.021 0.01 -0.079 0.13 -0.079 -0.093 -0.047 -0.025 -0.068 -0.014 -0.071 0 -0.176 0.045 -0.13 0.05 -0.097 0.037 -0.098 0.021 -0.047 0.029 -0.131 -0.005 -0.066 -0.022 -0.021 -0.023 0.012 -0.041 0.046 -0.045 0.003 -0.025 -0.016 -0.019 -0.16 -0.061 -0.065 -0.037 -0.21 -0.052 -0.259 -0.092 -0.089 -0.061 -0.009 -0.042 -0.102 -0.041 -0.129 -0.037 -0.1 0.01 -0.094 0.004 -0.147 -0.069 -0.139 -0.004 -0.157 0.021 -0.034 0.008 -0.038 0.009 -0.469 -0.029 -0.12 -0.057 -0.103 -0.057 -0.275 -0.041 -0.141 -0.044 -0.14 -0.062 -0.154 -0.054 -0.129 0.022 -0.177 -0.031 -0.192 -0.027 -0.066 0.017 -0.061 0.068 -0.045 0.065 -0.105 -0.053 -0.357 -0.255 -0.187 -0.169 -0.612 -0.391 -0.081 -0.03 -0.324 -0.056 -0.131 -0.045 -0.33 -0.279 -0.147 0.037 -0.132 -0.009 -0.077 -0.024 -0.084 -0.04 -0.059 -0.053 -0.068 -0.117 -0.079 -0.067 -0.26 -0.098 -0.294 -0.057 -0.023 -0.025 -0.008 -0.034 0.254 -0.066 0.068 -0.038 -0.13 -0.05 -0.049 -0.008 -0.041 -0.024 0.073 -0.038 0.072 -0.017 0.112 0.043 0.126 0.081 0.11 0.031 0.051 -0.039 0.383 -0.066 0.026 -0.053 -0.001 -0.059 -0.037 0.002 -0.024 -0.013 0.002 -0.065 0.057 -0.089 0.172 -0.146 0.092 -0.202 0.081 -0.046 0.06 0.031 -0.004 0.047 0.01 0.035 0.053 -0.068 0.051 -0.092 0.128 -0.001 0.089 0.015 0.092 -0.01 -0.177 -0.151 -0.238 -0.152 -0.1 0.011 -0.064 -0.024 -0.104 -0.126 -0.043 -0.104 0.101 0.002 0.101 0.016 0.192 -0.073 0.071 -0.011 0.113 0.023 0.158 0.015 -0.013 -0.069 -0.049 -0.081 0.192 -0.06 0.17 -0.033 0.326 -0.117 0.144 -0.021 0.018 -0.027 0.004 -0.035 -0.049 -0.094 -0.049 -0.069 -0.172 -0.003 -0.095 0.097 -0.26 0.032 -0.116 -0.006 0.092 -0.062 0.092 -0.024 0.026 -0.026 -0.185 0.023 -0.092 0.064 -0.27 0.084 -0.008 -0.044 -0.004 -0.04 0.02 -0.038 0.044 -0.024 0.015 -0.022 0 -0.018 -0.04 -0.011 -0.033 -0.009 -0.007 -0.024 0.011 -0.022 0.031 -0.031 0.013 -0.035 0.002 -0.071 0.029 -0.08 0.081 -0.051 0.142 -0.012 0.13 -0.044 0.078 -0.048 0.103 -0.123 0.078 -0.018 0.158 0.007 0.101 0.011 0.233 0.004 0.267 -0.007 0.077 -0.004 0.043 -0.043 -0.003 -0.077 0.038 -0.071 0.071 -0.133 0.076 -0.07 -0.003 -0.031 -0.04 -0.013 -0.052 -0.006 -0.019 -0.014 0.002 -0.029 0.04 -0.029 -0.007 -0.059 -0.025 -0.065 -0.022 -0.059 -0.07 -0.029 -0.121 -0.019 0.026 -0.071 0.034 -0.077 0.051 -0.043 0.037 -0.026 0.111 0.014 0.08 -0.014 0.019 -0.015 -0.014 -0.029 -0.125 -0.027 -0.11 -0.036 -0.048 -0.045 -0.019 -0.048 0.073 -0.029 0.13 -0.027 0.087 -0.066 0.094 -0.07 0.039 -0.051 0.02 -0.056 -0.002 -0.062 -0.068 -0.063 0 -0.066 0.037 -0.046 -0.014 -0.034 -0.05 -0.02 -0.072 0.006 -0.082 0.023 -0.096 -0.004 -0.154 -0.079 -0.164 -0.077 -0.094 -0.003 -0.066 -0.011 -0.057 -0.04 -0.034 -0.051 -0.037 -0.023 -0.06 0.014 -0.087 0.023 -0.109 -0.006 -0.142 -0.06 -0.129 -0.069 -0.096 -0.002 -0.101 -0.009 -0.193 -0.088 -0.05 0.001 -0.031 0.026 -0.015 0.071 -0.016 0.015 -0.034 0.012 -0.066 0.008 -0.097 -0.044 -0.246 -0.145 -0.099 -0.106 -0.023 -0.077 -0.081 -0.049 -0.079 -0.071 -0.08 -0.006 -0.088 0.023 -0.084 0.034 -0.04 0.009 -0.143 0.012 -0.229 0.048 -0.063 0.046 -0.077 0.037 -0.06 -0.026 -0.06 -0.046 -0.131 -0.016 -0.063 0.016 -0.063 -0.031 -0.054 -0.056 -0.073 -0.041 -0.109 -0.011 -0.118 -0.017 -0.094 0.031 -0.122 0.06 -0.083 -0.023 -0.046 -0.071 -0.057 -0.02 -0.077 -0.08 -0.02 -0.071 0.02 -0.031 0.029 -0.04 0 -0.046 -0.023 -0.04 -0.034 -0.031 -0.037 -0.105 -0.031 -0.046 -0.006 -0.037 0.026 -0.034 -0.023 -0.023 -0.043 -0.003 -0.071 0.003 -0.04 -0.017 -0.043 -0.06 -0.023 -0.06 -0.029 -0.023 -0.074 0.002 -0.122 0.013 -0.108 0.02 -0.048 -0.003 -0.096 -0.031 -0.126 -0.034 -0.257 -0.007 -0.02 -0.012 0.015 -0.021 0.052 -0.035 -0.006 -0.029 -0.045 -0.023 -0.023 -0.057 0.003 -0.064 -0.008 -0.07 -0.054 -0.054 -0.031 -0.037 0.006 -0.034 0.118 -0.013 0.14 -0.024 0.023 -0.025 -0.005 -0.039 -0.285 -0.199 -0.098 -0.176 -0.093 -0.096 -0.103 -0.064 -0.084 -0.029 -0.122 0.012 -0.162 -0.001 -0.165 -0.02 -0.139 0.013 -0.249 0.084 -0.093 0.004 -0.161 -0.026 -0.138 -0.029 -0.072 0.001 -0.044 0.012 -0.028 0.023 -0.08 0.158 -0.066 0.031 -0.095 0.032 -0.081 0.006 -0.068 -0.002 -0.098 -0.024 -0.093 -0.029 -0.019 -0.002 -0.005 -0.025 -0.068 -0.095 -0.041 -0.042 -0.048 -0.023 -0.024 -0.027 -0.001 -0.114 0.009 -0.106 0.03 -0.014 -0.09 -0.087 -0.007 -0.066 0.044 -0.033 0.001 -0.028 -0.03 -0.039 -0.092 -0.064 -0.09 -0.072 -0.058 -0.056 -0.036 -0.027 0.044 -0.044 0.062 -0.078 0.024 -0.046 0.029 -0.011 0.145 -0.006 0.105 0.002 0.079 0.017 0.03 0.037 0.072 0.041 0.206 0.017 0.087 -0.002 0.109 -0.037 0.176 -0.082 0.043 -0.06 0.109 -0.042 0.066 -0.017 0.06 -0.007 0.006 -0.035 -0.004 -0.048 -0.021 -0.029 -0.216 -0.099 -0.027 -0.032 -0.017 -0.038 0.026 -0.036 -0.001 -0.04 -0.25 -0.088 -0.208 -0.016 -0.171 0.005 -0.067 -0.019 0.029 -0.045 0.042 -0.08 0.013 -0.066 -0.012 -0.03 -0.034 -0.025 -0.164 -0.055 -0.225 -0.085 -0.104 -0.096 -0.054 -0.1 -0.061 -0.061 -0.11 -0.039 0.007 -0.025 0.073 -0.094 -0.003 -0.014 -0.031 -0.023 -0.137 -0.047 -0.185 -0.087 -0.008 -0.023 0.013 -0.055 0.025 -0.054 0.037 -0.026 0.111 -0.11 0 -0.037 -0.019 -0.05 -0.081 -0.086 -0.063 -0.055 -0.004 -0.028 0.01 -0.023 0.041 -0.03 0.039 -0.037 0.008 -0.128 -0.002 -0.045 -0.025 -0.026 -0.026 -0.011 -0.055 0.006 -0.079 -0.021 -0.059 -0.033 -0.037 -0.011 -0.039 -0.034 -0.111 -0.069 -0.019 -0.018 -0.223 -0.058 -0.191 0.009 -0.106 -0.009 -0.055 0.013 -0.058 0.037 -0.08 0.025 -0.06 0.001 -0.054 0.019 -0.148 0.067 -0.069 -0.04 -0.06 -0.06 0.02 -0.05 0.025 -0.046 -0.002 -0.031 -0.021 -0.027 -0.092 -0.029 -0.196 -0.053 -0.056 -0.001 -0.084 0.02 -0.153 0.06 -0.054 -0.013 -0.05 -0.047 -0.054 -0.059 -0.073 -0.03 -0.157 0.003 -0.015 0.002 -0.076 0.034 -0.032 -0.003 -0.136 -0.087 0.025 -0.047 0.029 -0.07 -0.01 -0.055 -0.022 -0.071 -0.058 -0.124 -0.008 -0.035 -0.096 -0.054 -0.016 -0.045 -0.05 -0.058 -0.049 -0.037 -0.011 -0.083 -0.033 -0.029 -0.043 -0.014 -0.15 0.024 -0.016 -0.002 0.072 -0.132 0.006 -0.077 0.045 -0.08 0.052 -0.032 0.016 -0.028 0.008 -0.053 -0.01 -0.046 -0.032 -0.024 -0.124 -0.051 -0.134 -0.062 -0.028 -0.078 -0.041 -0.016 -0.118 -0.004 0.002 -0.022 0.017 -0.062 0.028 -0.054 0.092 -0.058 0.023 -0.039 0.027 -0.035 0.211 -0.042 0.024 -0.016 0.002 -0.014 -0.01 -0.013 -0.047 -0.021 -0.049 -0.029 -0.029 -0.079 -0.001 -0.002 0.035 -0.003 0.124 0.028 0.079 0.053 -0.006 0.017 0.036 0.025 0.081 0.028 0.11 0.008 0.067 -0.055 -0.02 -0.06 -0.052 -0.07 -0.124 -0.088 -0.108 -0.041 -0.151 0.009 -0.123 -0.01 -0.023 -0.04 -0.007 -0.043 0.021 -0.049 0.165 -0.124 0.05 -0.017 0.022 -0.038 -0.007 -0.086 -0.065 -0.341 -0.065 -0.068 -0.014 -0.002 0.089 -0.07 0.092 -0.141 0.048 -0.085 0.041 -0.019 0.078 -0.005 0.03 -0.026 0.015 -0.015 0.067 -0.014 0.023 -0.017 -0.018 -0.029 -0.067 -0.05 -0.053 -0.031 0.051 -0.07 -0.018 -0.093 -0.032 -0.078 0.044 -0.057 0.073 -0.005 0.081 0.062 0.122 0.032 0.089 -0.042 0.03 -0.08 0.064 -0.035 0.086 0.031 0.144 0.011 0.119 -0.005 0.08 -0.017 0.034 -0.026 0.032 -0.047 0.066 -0.059 0.068 -0.039 0.522 0.044 0.453 0.082 0.034 -0.031 0.016 -0.053 -0.113 -0.045 -0.083 -0.024 -0.104 -0.094 -0.151 -0.074 -0.152 -0.007 -0.199 0.026 -0.301 -0.016 -0.256 -0.14 -0.17 -0.044 -0.121 -0.108 -0.031 -0.057 0.131 0.049 0.018 -0.051 0.01 -0.068 -0.073 -0.042 -0.065 -0.025 -0.333 0.106 -0.382 0.035 0.354 -0.21 0.255 -0.151 0.048 -0.023 0.113 -0.041 0.095 -0.043 0.076 -0.056 0.254 -0.11 0.259 -0.119 0.241 -0.156 0.087 -0.049 0.111 -0.053 0.243 -0.165 0.077 -0.046 0.296 -0.207 0.173 -0.103 0.086 -0.059 0.37 -0.196 0.251 -0.158 0.099 -0.086 0.097 -0.124 0.055 -0.084 0.097 -0.109 0.003 -0.036 -0.027 -0.034 -0.072 -0.052 -0.1 -0.06 -0.089 -0.074 -0.067 -0.066 -0.206 -0.092 -0.32 -0.117 -0.237 -0.087 -0.363 -0.185 -0.064 -0.046 0.013 -0.012 0.206 -0.056 0.205 -0.144 0.089 -0.073 0.022 -0.057 0.002 -0.064 -0.014 -0.059 -0.026 -0.037 -0.097 -0.046 -0.283 -0.084 -0.066 -0.077 -0.055 -0.081 -0.001 -0.033 0.135 -0.087 0.006 -0.043 -0.016 -0.044 -0.037 -0.032 -0.29 -0.039 -0.082 -0.041 -0.064 -0.066 -0.033 -0.057 -0.003 -0.034 0.022 -0.038 0.098 -0.041 0.091 -0.028 0.016 -0.037 -0.001 -0.04 -0.016 -0.019 -0.181 -0.019 -0.017 -0.011 -0.004 -0.014 0.009 -0.017 0.098 -0.072 0.013 -0.136 0.091 -0.095 -0.104 -0.056 0.008 -0.01 0.159 -0.029 0.146 -0.007 0.066 -0.011 0.007 -0.045 -0.015 -0.06 -0.151 -0.236 -0.033 -0.068 -0.1 -0.086 -0.083 -0.058 -0.05 -0.041 -0.08 -0.081 -0.046 -0.083 -0.08 -0.092 -0.093 -0.085 -0.078 -0.078 -0.2 -0.154 -0.027 -0.043 0.003 -0.038 0.018 -0.041 0.156 -0.126 0.144 -0.105 0.185 -0.123 0.178 -0.102 0.191 -0.121 0.047 -0.121 -0.009 -0.02 -0.158 -0.065 -0.297 -0.175 -0.18 -0.133 -0.281 -0.056 -0.378 -0.072 -0.125 -0.162 -0.089 -0.137 0.009 -0.049 0.273 -0.234 0.026 -0.042 -0.005 -0.026 -0.028 -0.016 -0.039 -0.009 -0.252 -0.007 -0.039 -0.032 0.152 -0.024 0.126 -0.033 0.207 -0.049 0.067 -0.012 0.153 -0.028 0.052 -0.022 0.039 -0.025 0.143 -0.174 0.035 -0.028 0.444 -0.062 0.161 -0.032 0.093 -0.04 0.045 -0.031 0.032 -0.037 0.023 -0.041 0.01 -0.038 -0.037 -0.049 0.02 -0.006 0.047 0.002 0.152 0.049 0.236 0.052 0.173 0.004 0.072 -0.01 0.036 -0.023 0.026 -0.045 0.002 -0.046 -0.054 -0.132 0.18 0.014 0.403 0.08 0.094 -0.007 0.119 -0.024 0.122 -0.095 0.091 -0.016 0.119 0.022 0.033 -0.025 -0.061 -0.079 0.015 -0.04 0.407 0.085 0.174 0.062 0.376 0.055 0.066 0.03 0.005 0.052 -0.018 0.044 -0.08 0.024 -0.161 -0.004 -0.578 -0.068 -0.085 0.041 0.07 0.036 0.169 0.042 0.047 0.075 0.259 -0.01 0.247 0.029 0.116 -0.009 0.021 0.025 -0.079 0.062 0.037 0.016 0.277 -0.06 0.129 -0.017 0.069 0.016 0.009 0.05 -0.046 0.063 -0.005 0.048 -0.085 0.116 -0.131 0.035 -0.055 0.048 0.192 -0.029 0.102 -0.032 0.191 -0.159 0.057 -0.021 0.545 -0.003 0.123 0.01 0.511 0.075 0.146 0.007 0.166 -0.01 0.057 -0.035 0.057 -0.01 0.568 0.084 0.76 0.188 1.112 0.311 0.627 0.277 0.073 0.06 0.227 0.034 0.049 -0.023 0.126 0.02 0.737 0.253 0.254 0.013 -0.034 -0.054 -0.043 -0.05 0.063 0.011 0.086 0.036 0.14 0.099 0.171 0.073 0.174 0.11 0.145 0.042 0.131 0.016 0.11 0.031 0.2 0.03 0.095 0.269 0.073 0.058 0 0.119 0.128 0.048 0.097 0.009 -0.004 0.088 -0.079 0.207 -0.087 0.088 -0.667 0.38 -0.418 0.147 -0.814 0.168 -0.635 0.063 -0.256 0.005 -0.497 -0.031 -0.272 -0.034 -0.333 -0.095 -0.311 -0.048 -0.214 -0.021 -0.396 -0.009 -0.86 -0.094 -0.15 -0.033 -0.539 -0.182 -0.214 0.052 -0.128 0.009 -0.087 -0.063 0.035 -0.017 0.021 -0.021 -0.305 -0.052 -0.252 -0.003 -0.134 -0.044 -0.164 -0.034 -0.072 0.02 -0.041 0 -0.332 -0.079 -0.148 -0.064 -0.154 -0.113 0.038 -0.04 0.045 -0.026 -0.531 -0.066 -0.505 -0.009 0.088 0.032 0.219 0.017 0.139 0.045 0.16 0.064 -0.037 0.088 0.223 0.087 0.171 0.083 0.005 0.026 0.066 0.017 0.252 0.024 0.044 0.076 -0.042 0.03 0.034 0.042 0.188 0.047 0.112 0.013 0.138 0.029 -0.063 0.058 -0.116 0.038 -0.116 0.017 0.055 0.014 0.151 -0.005 0.546 0.096 0.287 0.097 0.292 0.177 0.095 0.087 0.007 0.048 -0.016 0.048 -0.042 0.052 -0.019 0.052 -0.1 0.154 -0.072 0.053 -0.138 0.061 0.129 0.118 0.135 0.11 0.132 0.182 0.024 0.073 0.005 0.113 0.12 0.044 -0.047 0.017 -0.047 0.032 0.011 0.147 0.166 0.12 0.249 0.078 0.148 0.016 0.215 -0.032 0.155 0.043 0.344 0.146 0.155 0.155 0.063 0.032 0.349 0.058 0.261 0.036 0.398 0.093 0.069 0.003 0.193 -0.08 0.333 -0.056 0.103 -0.077 -0.009 -0.065 -0.085 -0.116 -0.023 -0.113 -0.11 -0.046 -0.103 -0.031 -0.311 0.023 -0.14 -0.004 -0.106 -0.031 -0.143 -0.081 -0.271 -0.196 -0.145 -0.065 -0.046 -0.04 -0.05 -0.056 0.006 -0.091 0.118 0.003 0.133 -0.052 0.097 -0.185 0.167 -0.024 0.091 0.002 0.387 0.086 0.481 0.229 0.106 0.024 0.113 0.003 0.184 -0.006 0.03 0.03 0.099 0.036 0.072 0.005 0.44 0.073 0.514 0.143 0.191 -0.006 0.075 -0.079 0.016 -0.034 0.209 -0.08 0.146 -0.013 0.204 0.029 0.037 -0.024 -0.07 -0.118 -0.094 -0.102 -0.139 -0.065 -0.246 -0.192 -0.098 -0.095 -0.049 -0.098 0.032 -0.087 0.035 -0.063 0.511 -0.154 0.185 -0.092 0.179 -0.12 0.083 -0.024 0.302 -0.033 0.4 -0.102 0.305 -0.136 0.303 -0.207 0.127 -0.054 0.103 0.005 0.137 0.032 0.151 0.06 0.204 0.011 0.199 -0.01 0.227 0.005 0.318 0.094 0.052 0.03 0.05 0.04 -0.103 0.078 -0.008 0.05 0.082 -0.023 0.113 -0.012 0.107 0.016 0.1 0.044 0.073 0.049 0.088 0.041 0.028 -0.056 0.013 -0.048 -0.048 -0.122 0.124 -0.172 0.096 -0.075 0.172 -0.19 -0.052 -0.123 -0.008 -0.143 -0.025 -0.066 -0.112 -0.095 -0.217 -0.068 -0.219 -0.021 -0.073 -0.066 0.013 -0.075 0.061 -0.11 0.18 -0.231 0.189 -0.325 0.006 -0.076 -0.018 -0.041 0.013 -0.042 -0.022 -0.099 -0.036 -0.073 -0.765 -0.281 -0.046 -0.027 -0.025 -0.038 0.08 -0.008 0.059 0.002 0.576 0.131 0.127 0.007 0.903 -0.036 0.441 0.032 0.373 0.067 0.266 0.188 0.271 0.173 0.254 0.148 0.007 0.122 -0.262 0.025 -0.255 0.006 -0.646 0.061 -0.155 0.069 -0.435 0.211 -0.037 0.064 0.037 0.062 0.199 0.066 0.423 0.099 0.19 0.196 0.133 0.098 0.101 0.038 0.098 0.01 0.214 0.001 0.151 0.024 0.044 0.019 0.06 -0.019 0.138 -0.007 0.806 -0.104 0.159 -0.046 0.053 -0.069 0.059 -0.231 0.071 -0.08 0.069 -0.099 -0.026 -0.061 -0.008 -0.069 0.404 -0.066 0.375 -0.045 0.179 0.014 0.045 -0.05 -0.115 -0.096 -0.067 -0.047 0.059 -0.022 0.086 0.026 0.113 0.016 0.201 -0.017 0.776 -0.195 0.302 -0.11 0.181 -0.043 0.285 -0.099 0.139 -0.032 0.24 -0.013 0.258 -0.039 0.281 -0.074 0.378 -0.062 0.061 -0.003 0.073 0.009 0.157 0.073 -0.058 0.041 -0.044 0.044 0.076 0.023 0.063 0.011 0.074 -0.012 0.078 -0.03 0.195 -0.045 0.053 -0.057 -0.075 -0.022 -0.098 -0.086 -0.115 -0.018 -0.091 0.002 0.34 -0.123 0.729 -0.181 0.389 -0.083 0.384 -0.007 0.305 0.011 -0.115 0.028 -0.502 0.038 -0.077 0.019 0.001 0.023 0.121 0.013 0.051 0.027 -0.041 0.032 -0.038 0.01 -0.057 0.093 -0.075 0.075 0.159 0.097 0.013 0.101 -0.101 0.053 -0.139 -0.02 -0.123 0.035 -0.224 0.024 -0.049 0.032 -0.033 0.044 0.143 0.011 0.112 -0.003 0.399 0.028 0.054 0.004 0.131 -0.032 0.134 -0.007 0.161 -0.009 0.082 -0.019 0.085 0.021 0.157 0.089 0.143 -0.018 0.062 -0.172 0.228 -0.106 0.267 -0.088 0.257 -0.008 0.249 -0.061 0.119 -0.012 0.232 0.025 0.345 0.005 0.289 0.052 0.217 0.013 0.317 -0.087 0.729 -0.248 0.064 0.056 0.117 -0.082 0.565 -0.088 0.138 -0.002 0.003 0.033 0.05 0.076 0.11 0.047 0.15 0.111 -0.072 0.03 -0.076 0.017 -0.11 0.075 -0.013 0.172 0.212 0.044 0.294 0.049 0.121 0 0.102 -0.029 0.031 -0.016 0.039 -0.026 0.025 -0.049 0.019 -0.039 -0.076 -0.094 0.031 -0.101 0.264 0.007 0.329 -0.029 0.149 -0.058 0.177 -0.108 0.118 -0.092 -0.075 -0.159 -0.194 0.035 -0.327 -0.347 -0.167 -0.134 0.106 -0.062 0.282 -0.04 0.254 -0.129 0.096 -0.026 0.107 -0.004 0.755 0.088 0.861 0.02 0.73 0.068 0.829 0.141 0.402 0.099 0.336 0.11 -0.032 0.078 0.135 -0.022 0.295 0.068 0.201 0.028 0.208 0.041 0.077 0.055 0.272 0.041 0.281 0.075 0.05 0.013 0.34 0.056 0.246 0.018 0.147 0.12 0.49 0.175 0.091 0.066 0.426 0.11 0.214 0.089 0.133 -0.034 0.325 -0.219 0.195 -0.251 0.116 -0.133 -0.216 -0.006 -0.162 0.039 -0.103 -0.01 -0.117 -0.04 -0.188 -0.1 -0.238 -0.169 -0.044 -0.185 -0.067 -0.059 -0.232 -0.05 -0.15 -0.054 -0.56 -0.109 -0.1 0.038 -0.03 0.059 -0.037 0.043 -0.056 -0.055 -0.036 -0.05 -0.001 -0.081 0.029 -0.102 0.094 -0.172 0.143 0.009 0.075 -0.025 0.095 -0.077 -0.042 -0.064 -0.051 -0.048 0.01 -0.075 0.09 -0.205 0.038 -0.239 -0.073 -0.06 -0.068 -0.039 -0.321 0.04 -0.12 -0.021 -0.027 -0.046 -0.009 -0.036 0.093 -0.062 0.088 -0.101 -0.154 0.022 -0.053 -0.04 0.128 -0.058 0.15 -0.142 0.357 -0.065 0.268 -0.064 0.418 -0.136 0.31 -0.134 0.2 -0.17 0.138 -0.16 0.222 -0.379 0.209 -0.278 0.352 -0.286 0.22 -0.026 0.083 0.004 0.015 0.021 -0.05 0.025 -0.014 0.034 0.093 0.013 0.149 0.002 0.285 -0.019 0.483 0.011 0.845 -0.023 0.117 0.012 0.313 0.082 0.171 -0.009 0.345 0.039 0.187 0.046 0.178 0.053 -0.025 0.208 -0.034 0.14 -0.129 0.264 -0.05 0.067 -0.199 0.191 -0.096 0.126 -0.15 0.086 -0.218 0.061 -0.028 0.037 -0.017 0.054 0.212 0.151 0.502 0.156 0.123 0.188 0.027 0.14 -0.032 0.366 -0.047 0.054 -0.091 0.058 -0.092 0.071 0.06 0.102 0.07 0.379 0.016 0.309 -0.058 0.106 -0.03 0.224 0 0.074 0.049 0.112 0.102 0.094 0.134 0.06 0.379 0.108 0.357 0.132 0.025 0.042 0.018 0.051 -0.126 0.051 -0.199 0.136 -0.127 0.113 -0.01 0.09 0.044 0.118 -0.021 0.108 -0.085 0.098 -0.118 0.071 -0.354 0.109 -0.747 0.579 -0.179 0.068 -0.303 -0.022 0.084 0.083 0.102 0.119 -0.012 0.077 -0.198 -0.004 -0.276 0.082 -0.126 0.056 -0.215 0.029 -0.163 -0.029 -0.179 -0.054 0.026 -0.045 0.034 -0.021 0.125 -0.033 0.123 -0.044 -0.06 -0.009 -0.052 0 -0.135 0.056 -0.161 0.012 -0.19 -0.069 -0.145 -0.076 -0.071 -0.015 -0.137 0.031 -0.523 -0.014 -0.139 0.013 -0.065 0.028 0.038 0.022 0.04 0.043 0.053 0.083 0.05 0.062 0.218 0.068 0.289 0.026 0.281 0.083 0.357 0.059 0.806 -0.024 0.213 0.007 0.208 0.026 0.351 0.087 0.151 -0.007 0.254 -0.079 0.062 -0.174 0.033 -0.054 0.924 -0.246 0.172 -0.054 0.279 -0.134 0.091 -0.09 0.103 -0.243 0.088 -0.086 0.602 -0.281 0.093 -0.072 0.018 -0.131 -0.009 -0.088 -0.036 -0.088 -0.11 -0.145 -0.121 -0.085 -0.12 -0.118 0.09 -0.238 0.099 -0.092 0.545 -0.11 0.465 -0.039 0.518 -0.075 0.208 -0.016 0.143 0.013 0.147 0.081 0.129 0.121 0.377 0.181 0.127 0.127 0.023 0.154 -0.013 0.375 -0.074 0.163 0.151 0.043 0.071 0.037 0.184 0.055 0.096 0.054 0.096 0.019 0.214 0.011 0.604 -0.019 0.333 -0.011 -0.035 -0.024 -0.049 -0.018 -0.28 -0.008 -0.398 -0.039 -0.573 -0.074 -0.068 -0.158 0.016 -0.098 0.129 -0.183 0.092 -0.032 0.111 -0.012 0.127 -0.025 -0.036 -0.118 -0.052 -0.105 -0.122 -0.148 -0.135 -0.273 -0.184 -0.002 -0.138 -0.054 -0.683 -0.159 -0.644 -0.118 -0.44 -0.017 -0.141 0.013 -0.367 0.122 -0.239 0.026 -0.452 -0.054 -0.385 0.03 -0.141 -0.029 -0.06 -0.055 0.115 -0.22 -0.058 -0.086 -0.169 -0.113 -0.103 -0.09 0.018 -0.096 0.252 -0.373 0.107 -0.097 0.269 -0.173 0.137 -0.133 -0.032 -0.075 -0.579 -0.415 -0.155 -0.148 -0.069 -0.047 -0.142 -0.056 -0.215 -0.065 -0.064 -0.06 0.586 -0.4 0.268 -0.07 0.372 -0.043 0.178 -0.039 0.315 -0.08 0.188 -0.067 0.061 -0.054 0.037 -0.064 0.007 -0.158 -0.037 -0.128 -0.052 -0.071 -0.111 -0.091 -0.11 -0.102 0.078 -0.027 0.077 -0.015 0.21 0.001 0.217 0.056 0.106 0.112 0.129 0.104 0 0.069 -0.012 0.055 0.053 0.075 0.047 0.032 0.05 0.054 -0.047 0.043 -0.05 0.021 -0.094 0.062 -0.156 0.188 -0.121 0.024 -0.026 0.146 0.256 0.159 -0.035 0.12 -0.051 0.04 -0.137 0.065 0.018 0.052 0.034 0.037 0.402 0.076 0.377 0.047 0.632 0.017 0.187 0.074 0.066 -0.053 0.594 0.013 0.479 0.182 0.252 0.056 0.205 0.019 0.416 -0.022 0.073 -0.016 0.068 -0.052 -0.195 0.005 -0.085 0.024 -0.08 -0.002 -0.136 -0.018 -0.096 -0.031 -0.105 -0.062 -0.174 -0.179 -0.304 -0.058 -0.202 0.023 -0.226 -0.011 -0.367 -0.098 -0.242 -0.037 -0.438 -0.106 -0.121 -0.043 -0.096 -0.087 -0.112 -0.146 -0.071 -0.081 0.092 -0.016 0.298 -0.079 0.45 -0.027 0.19 0.029 0.489 0.162 0.227 0.006 0.409 -0.071 0.046 -0.045 -0.092 -0.092 -0.124 -0.047 -0.236 -0.022 -0.288 0.043 -0.082 -0.036 0.029 -0.049 0.032 -0.036 0.154 -0.009 0.108 -0.028 0.235 -0.1 0.257 -0.049 0.257 -0.018 0.939 0.014 0.532 0.158 0.52 0.07 0.225 0.055 0.063 0.009 0.052 0.035 0.041 0.084 0.655 0.224 0.15 0.03 0.418 0.009 0.467 -0.052 0.211 -0.006 0.228 0.015 0.121 0.028 0.127 0.052 -0.068 0.066 -0.06 0.04 -0.129 0.111 -0.059 0.031 -0.425 0.127 -0.17 0.033 -0.046 0.167 -0.023 0.037 -0.015 0.058 0.077 0.118 0.02 0.072 -0.065 0.101 -0.108 0.109 0.019 0.087 0.039 0.116 0.015 -0.035 -0.004 -0.053 0.027 -0.061 0.193 -0.146 0.141 -0.2 0.145 -0.052 0.131 -0.013 0.141 0.059 0.041 0.08 0.007 0.121 -0.028 0.114 -0.11 0.173 -0.177 0.121 -0.06 0.069 0.085 0.064 0.089 0.05 0.104 0.016 0.12 -0.005 0.029 -0.017 0.022 -0.048 -0.038 -0.064 -0.02 -0.056 0.22 -0.045 0.204 -0.024 0.163 -0.073 0.041 -0.048 0.035 -0.08 -0.085 -0.126 -0.072 -0.094 -0.245 -0.223 -0.183 -0.115 0.115 -0.172 0.192 -0.192 0.073 -0.047 0.019 -0.029 0.021 -0.051 -0.018 -0.055 -0.019 -0.034 -0.194 -0.144 -0.14 -0.047 -0.445 -0.028 -0.11 -0.022 -0.326 -0.147 -0.038 -0.033 -0.071 -0.106 -0.026 -0.026 -0.09 -0.028 -0.301 -0.061 -0.207 -0.025 -0.304 -0.007 -0.185 -0.031 -0.271 -0.099 -0.029 -0.032 -0.078 -0.128 -0.063 -0.064 0.019 -0.047 0.098 -0.102 0.068 -0.088 -0.084 -0.076 -0.119 -0.024 -0.129 -0.037 -0.054 -0.069 -0.031 -0.076 -0.006 -0.058 -0.021 -0.067 0.06 -0.057 0.138 -0.06 -0.034 -0.041 0.021 -0.053 0.886 -0.072 0.348 -0.018 1.728 -0.008 0.122 -0.02 0.75 -0.036 0.321 -0.041 0.34 0.043 0.123 -0.002 0.248 -0.013 0.163 -0.087 0.368 -0.035 0.612 -0.037 0.302 0.007 0.068 0.026 0.068 0.037 -0.332 0.107 -0.332 0.097 -0.272 0.041 -0.267 0.086 -0.027 0.034 -0.008 0.021 0.01 0.067 0.016 0.045 0.28 0.054 0.21 0.077 0.206 0.055 0.163 0.034 0.038 -0.019 -0.593 -0.181 -0.151 -0.04 -0.061 -0.043 0.029 -0.066 0.06 -0.029 0.093 -0.033 0.063 -0.016 0.221 -0.034 0.744 -0.046 0.174 -0.09 0.075 -0.051 0.202 -0.055 -0.068 -0.022 -0.166 -0.014 -0.128 -0.033 -0.513 -0.317 -0.126 -0.048 -0.393 -0.036 -0.176 -0.037 0.182 -0.107 0.213 -0.027 0.143 0.006 0.126 0.03 0.233 0.089 0.332 -0.039 -0.124 -0.04 -0.212 -0.046 -0.194 -0.073 -0.274 -0.063 -0.31 -0.043 -0.325 -0.017 0.09 -0.095 0.178 0.012 0.061 -0.029 0.082 -0.059 0.45 0.134 0.211 -0.035 0.179 -0.061 0.378 -0.162 0.048 -0.072 -0.18 -0.039 -0.147 -0.02 -0.202 0.004 -0.017 -0.045 0.084 -0.057 0.165 -0.022 0.501 0.062 0.832 -0.161 0.229 -0.079 0.577 -0.101 0.285 0.012 0.59 -0.133 0.82 -0.058 0.475 0 0.366 -0.074 0.562 -0.026 0.195 -0.029 0.947 -0.075 0.525 -0.059 0.081 -0.046 -0.469 0.038 -0.113 -0.035 -0.099 0.023 -0.069 0.032 -0.228 -0.058 -0.062 0.014 -0.048 0.032 -0.082 0.01 -0.096 -0.007 -0.032 -0.07 0.113 -0.096 0.133 0.049 0.154 -0.073 0.1 -0.002 0.289 0.047 0.194 -0.047 0.259 -0.022 0.286 0.021 0.118 -0.005 0.069 -0.044 0.463 0.038 0.321 -0.026 0.219 0.002 0.341 0.024 0.156 0.031 -0.089 0.072 -0.333 0.117 0.091 0.02 0.191 -0.054 0.574 -0.08 0.092 0.016 -0.063 0.068 -0.041 0.03 0.382 -0.04 0.326 -0.088 0.145 -0.015 0.149 0.053 0.138 -0.049 0.032 -0.049 0.249 -0.011 0.102 -0.045 0.175 -0.033 0.147 -0.014 0.32 -0.062 0.109 0.019 0.213 0.016 0.203 0.03 0.375 0.068 0.053 0.027 0.048 0.004 0.107 0.049 -0.081 0.072 -0.087 0.104 -0.16 0.049 0.099 0.005 0.069 -0.013 0.128 -0.069 0.114 -0.05 -0.026 -0.206 -0.209 -0.104 -0.156 -0.035 -0.367 -0.109 -0.124 -0.046 -0.164 -0.05 0.064 -0.029 0.707 0.038 0.359 -0.018 0.387 0.011 0.521 -0.046 0.217 0.048 0.25 -0.002 0.287 0.04 0.086 -0.046 -0.471 -0.05 -0.21 0.005 -0.075 -0.026 0.078 -0.058 0.093 -0.089 -0.091 -0.077 -0.088 -0.041 -0.015 -0.078 0.084 -0.09 0.196 -0.038 0.107 -0.073 0.225 -0.097 1.092 -0.31 0.521 -0.118 0.2 -0.015 0.229 0.009 0.454 -0.098 0.17 0 0.629 0.078 0.151 0.057 0.344 0.046 0.401 0.024 0.184 0.036 0.089 0.041 0.076 0.057 -0.325 0.039 -0.35 0.114 -0.473 0.063 -0.588 0.042 -0.121 0.031 1.118 0.009 0.326 -0.008 0.066 0.099 0.11 0.004 0.323 -0.048 0.193 -0.003 0.366 0.034 0.079 -0.018 0.158 -0.003 0.337 0.043 0.151 0.064 -0.24 0.105 -0.249 0.092 -0.302 0.157 -0.093 -0.013 -0.161 -0.003 0.029 0.077 0.27 -0.002 0.142 0.035 0.332 -0.044 0.467 0.014 0.098 -0.012 0.18 -0.047 0.048 -0.091 0.078 -0.058 0.154 -0.019 0.17 0.018 0.286 -0.001 0.731 -0.029 0.612 0.037 0.49 -0.047 0.643 0.035 0.278 0.036 0.208 0.064 0.186 0.019 0.153 0.05 0.155 0.073 -0.077 0.06 -0.074 0.04 0.2 -0.044 0.154 -0.011 0.116 0.026 0.206 0.025 0.065 0.165 0.058 0.032 0.056 0.057 -0.077 0.052 -0.066 0.024 0.163 -0.005 0.228 -0.056 0.047 -0.019 0.056 -0.042 -0.084 -0.041 -0.078 -0.025 0.098 -0.018 0.187 0.006 0.093 0.073 0.062 0.067 0.136 0.22 0.293 -0.03 0.014 0.065 -0.122 0.151 -0.129 0.112 -0.052 0.024 -0.082 0.004 0.031 -0.058 -0.048 -0.035 -0.077 -0.021 -0.265 -0.021 -0.497 -0.137 -0.133 -0.015 -0.031 0.006 -0.013 0.013 0.277 0.093 0.226 0.166 0.206 -0.049 0.081 0.009 0.113 0.077 0.203 0.032 0.167 0.051 -0.113 0.158 -0.689 0.278 -0.733 0.162 -0.324 0.113 -0.569 0.082 -0.406 0.11 -0.519 0.082 -0.148 0.087 -0.386 0.057 0.026 0.029 0.045 0.032 -0.047 0.052 -0.054 0.04 -0.299 0.08 -0.436 0.056 -0.875 0.338 -0.434 0.069 -0.494 0.004 -0.104 0.032 -0.373 0.213 -0.115 0.046 -0.491 0.023 -0.512 0.349 -0.284 0.118 -0.249 0.064 0.259 -0.013 0.305 -0.047 0.358 -0.113 0.093 -0.052 0.049 -0.059 0.106 -0.046 0.163 -0.033 0.631 -0.038 0.26 0.014 0.382 -0.01 0.251 -0.062 0.15 -0.022 0.134 -0.008 0.066 -0.044 0.224 -0.009 0.515 -0.059 0.076 -0.021 0.165 -0.088 0.306 0.033 0.218 -0.018 0.573 -0.156 0.345 -0.06 0.095 -0.042 -0.069 -0.029 -0.077 -0.02 -0.334 0.054 -0.297 0.017 -0.338 -0.014 -0.046 -0.021 -0.041 -0.056 0.108 -0.081 0.095 -0.049 0.215 -0.064 0.178 -0.023 0.659 0.07 0.136 0.009 0.075 -0.113 0.211 0.005 0.209 0.019 -0.091 0.024 -0.232 0.036 0.071 0.084 0.101 0.057 0.403 0.082 0.344 0.036 0.253 -0.002 0.395 -0.035 0.061 -0.025 0.084 -0.065 -0.104 -0.126 0.099 0.016 0.098 0.032 0.149 0.076 0.145 0.13 0.089 0.06 -0.052 0.065 -0.208 0.123 0.12 0.068 0.214 0.045 -0.003 0.201 -0.013 0.097 -0.105 0.106 -0.122 0.045 -0.12 0.067 0.03 0.061 0.028 0.039 0.126 0.073 0.352 0.023 0.047 -0.02 -0.082 -0.023 -0.239 -0.034 -0.093 -0.028 -0.083 -0.067 0.096 -0.072 0.106 -0.054 0.125 -0.122 0.039 -0.088 -0.023 -0.09 0.08 -0.041 0.126 -0.044 0.064 -0.009 0.057 -0.019 -0.091 -0.022 -0.084 -0.011 -0.172 -0.055 -0.029 -0.071 0.347 -0.028 0.204 -0.051 0.755 -0.023 0.522 -0.095 1.158 0.027 0.813 0.077 1.142 0.009 0.421 0.052 0.04 0.02 0.025 0.037 -0.182 0.017 -0.297 0 -0.08 0.097 0.054 0.121 0.53 0.129 0.465 0.053 0.325 0.085 0.171 0.008 0.676 -0.01 0.399 0.044 0.357 -0.034 0.394 0.001 0.138 0.009 0.144 0.064 0.23 0.017 0.277 0.003 0.155 -0.013 0.06 -0.016 -0.021 -0.025 -0.229 -0.039 0.025 -0.046 0.088 -0.011 0.384 0.063 0.161 0.01 0.141 -0.047 0.103 -0.084 0.057 -0.059 0.06 -0.029 0.051 -0.004 0.05 -0.016 -0.121 -0.068 -0.117 -0.086 -0.029 -0.055 -0.033 -0.028 -0.018 -0.102 0.111 -0.104 0.075 -0.029 0.306 0.04 0.137 -0.063 0.085 -0.023 0.369 -0.043 0.153 0.004 0.255 0.04 0.821 0.191 -0.019 0.073 0.196 -0.021 0.093 -0.03 0.22 -0.019 0.147 -0.031 0.042 0.012 0.049 0.03 -0.036 0.043 -0.051 0.044 0.035 0.026 0.043 0.005 0.217 0.054 0.286 -0.099 0.117 -0.094 0.076 -0.019 0.709 0.066 0.215 0.036 0.042 0.02 0.029 0.035 0.116 0.038 0.14 0.022 -0.017 0.03 -0.006 0.033 0.329 0.005 0.143 0.029 0.158 0.043 -0.017 0.051 0.042 0.029 0.146 0.003 0.041 -0.005 -0.047 0.067 -0.2 0.073 -0.118 0.029 -0.136 0.048 0.075 0.009 0.343 0.013 0.212 0.097 0.021 0.071 -0.133 0.028 -0.302 0.091 -0.182 0.036 -0.125 0.003 -0.09 0.012 0.131 0.039 0.567 0.01 0.165 0.048 0.13 0.122 -0.001 0.149 -0.127 0.074 -0.349 0.013 -0.46 -0.166 -0.278 -0.064 -0.394 -0.124 -0.077 0.021 0.115 0.105 0.185 0.058 0.332 0.162 0.553 0.333 0.129 -0.027 0.076 -0.042 0.038 -0.054 -0.033 -0.075 0.089 0.036 0.082 0.067 0.169 0.111 -0.227 -0.006 -0.285 0.037 -0.106 0.044 0.079 0.062 0.212 0.009 0.09 0.084 0.165 0.104 0.372 0.285 0.264 0.054 0.255 0.118 0.256 0.055 0.131 0.004 0.089 -0.074 0.075 0.026 0.066 0.132 0.124 0.057 0.136 0.004 0.111 -0.023 0.164 -0.063 0.13 -0.073 0.207 -0.2 0.137 -0.101 0.129 -0.041 -0.045 -0.049 0.013 -0.057 0.095 -0.134 0.129 -0.159 0.098 -0.083 0.237 -0.169 0.092 -0.031 0.062 0.054 0.053 0.073 0.035 0.031 0.036 0.012 0.292 0.148 0.295 0.116 0.263 0.057 0.414 0.055 0.6 -0.008 0.111 -0.074 0.208 -0.054 0.337 -0.028 0.2 -0.067 0.326 -0.02 0.206 0.011 0.316 0.049 0.71 0.155 0.2 0.056 0.102 0.06 0.233 0.091 0.147 0.044 0.142 0.031 0.052 -0.009 -0.018 -0.026 -0.072 -0.025 -0.058 -0.033 0.169 -0.034 0.02 -0.025 0.058 -0.022 0.223 -0.018 -0.217 -0.033 -0.075 -0.005 -0.104 -0.021 0.009 -0.046 0.068 -0.034 0.053 -0.062 0.07 -0.04 0.116 -0.03 0.084 -0.006 0.207 0.04 0.145 -0.072 0.11 0.006 0.225 0.073 0.204 0.111 0.111 0 0.312 -0.045 0.352 -0.002 -0.045 -0.066 -0.244 -0.143 0.028 -0.185 -0.171 -0.042 -0.193 -0.025 0.281 -0.047 0.207 -0.15 0.167 -0.014 0.174 -0.029 -0.053 -0.018 -0.517 -0.016 -0.112 0.018 -0.075 0.044 -0.254 0 -0.031 -0.101 -0.004 -0.065 0.333 -0.137 0.128 -0.03 0.849 0.003 0.254 -0.026 0.374 -0.068 -0.096 -0.043 -0.01 -0.087 -0.321 -0.126 0.024 -0.029 0.032 -0.018 0.1 -0.001 0.502 0.033 0.209 0.069 0.543 0.068 1.454 0.023 0.165 0.025 0.623 0.03 0.265 0.033 0.631 0.04 0.286 0.028 0.228 0.045 0.369 0.026 0.17 0.029 -0.018 0.093 -0.768 -0.012 -0.254 -0.031 -0.315 -0.004 -0.121 0.014 -0.189 0.077 -0.227 0.04 -0.192 0.007 0.126 0.066 0.176 0.018 0.568 -0.085 1.555 -0.043 0.238 0.007 -0.025 0.059 -0.208 0.113 -0.198 0.088 -0.288 0.091 -0.107 0 0.224 -0.192 -0.093 -0.009 -0.086 0.004 -0.252 -0.08 -0.041 -0.004 -0.049 0.02 0 0.029 -0.046 0.111 0.093 0.046 0 0.079 -0.35 0.051 -0.136 -0.004 -0.145 -0.033 -0.062 0.001 -0.017 0.025 0.031 0.046 -0.004 0.024 -0.056 0.037 -0.028 0.04 0.086 0.046 0.113 0.012 0.616 -0.051 0.268 -0.062 0.295 -0.114 0.527 -0.275 0.232 -0.095 0.135 -0.036 0.172 -0.013 0.968 0.029 0.563 0.06 0.537 0.088 0.265 0.073 0.197 0.099 0.035 0.042 0.019 0.055 -0.136 0.053 -0.601 0.017 -0.231 0.03 -0.083 0.033 -0.01 0.019 -0.032 0.029 0.045 0.024 0.27 0.003 0.26 0.024 0.359 0.063 0.056 0.021 0.114 0.059 0.034 0.01 0.539 -0.009 0.035 0.021 0.033 0.044 -0.143 0.069 -0.14 0.047 -0.287 0.112 0.145 -0.041 0.579 -0.096 0.146 -0.018 0.178 0.007 0.437 0.087 0.177 0.069 0.333 0.195 -0.093 0.021 -0.238 0.02 0.747 0.148 0.29 -0.001 0.662 -0.043 0.333 -0.001 0.62 -0.094 0.616 -0.06 0.566 -0.004 0.299 -0.057 0.789 0.002 0.763 0.019 0.59 0.035 0.665 0.104 0.649 0.144 0.377 0.141 0.077 0.045 0.107 0.099 0.047 0.082 0.048 0.114 -0.023 0.088 -0.094 0.063 -0.058 0.077 0.008 0.091 -0.11 0.12 0.103 0.085 0.287 0.055 0.62 0.075 0.171 0.049 0.018 0.148 0.053 0.124 0.054 0.236 0.105 0.059 0.169 0.057 0.031 0.077 -0.212 0.251 -0.132 0.046 -0.141 0.069 0.248 -0.024 0.126 -0.091 0.135 -0.169 0.13 -0.027 0.07 -0.055 0 -0.159 -0.086 -0.138 0 -0.098 0.057 -0.079 0.408 -0.166 0.221 -0.066 0.21 -0.037 0.569 -0.034 0.257 -0.032 0.297 0.021 0.207 -0.009 0.241 -0.033 0.214 0.016 0.354 0.11 1.247 0.025 0.22 0.038 0.84 0.046 0.064 0 0.189 -0.055 0.555 -0.186 0.229 0.012 0.093 0.029 0.098 0.074 0.102 0.048 0.08 0.13 0.073 0.176 0.12 0.032 0.165 0.011 0.359 0.065 0.364 0.084 0.104 0.16 0.195 0.134 0.456 -0.013 0.472 -0.027 0.458 -0.22 0.001 -0.089 -0.113 -0.129 -0.17 -0.125 -0.132 -0.195 -0.421 -0.043 0.04 -0.057 0.158 -0.068 0.144 -0.106 0.022 -0.081 -0.039 -0.17 0.381 0.012 0.379 0.02 0.724 0.076 0.589 0.032 0.31 0.049 0.187 0.055 0.221 0.041 0.076 -0.1 0.085 -0.023 0.295 0.056 0.215 0.017 0.371 -0.008 0.466 0.026 0.51 -0.004 0.456 -0.044 0.17 0.009 0.186 0.035 0.303 0.092 0.514 0.123 0.47 0.034 0.539 0.116 0.509 0.043 0.406 0.066 0.059 0.025 0.018 0.036 0.026 0.03 0.322 0.036 0.596 0.247 0.132 0.029 0 3.916 -0.173 0.033 -0.176 0.113 -0.203 0.099 -0.298 0.04 -0.452 0.15 -0.179 0.028 -0.234 -0.069 -0.537 -0.045 -0.167 -0.061 -0.245 -0.153 -0.085 -0.022 -0.073 -0.06 -0.298 -0.068 -0.256 0.044 -0.212 -0.034 -0.072 0.024 0.111 0.022 0.193 0.018 0.295 -0.009 0.097 0.016 0.086 0.053 0.099 0.085 -0.075 0.057 -0.079 0.018 -0.238 -0.063 -0.274 0.009 -0.127 -0.015 -0.368 -0.106 -0.28 0.117 -0.385 0.06 -0.299 0.007 -0.549 0.093 0.15 0.002 0.398 -0.065 0.234 0 0.347 -0.036 0.181 -0.043 0.087 -0.04 0.111 -0.04 0.113 0.02 0.078 0.042 0.054 0.059 0.05 0.079 -0.068 0.041 -0.064 0.022 -0.079 0.056 0.367 -0.097 0.223 0.058 0.112 -0.009 0.207 -0.085 0.338 -0.055 0.04 0.011 0.04 0.027 -0.057 0.164 0.023 0.128 0.255 0.14 0.266 0.082 0.091 0.003 0.086 -0.016 0.033 -0.074 0.066 -0.055 0.083 0.05 0.068 0.054 0.096 0.133 -0.002 0.039 -0.023 0.078 0.085 0.036 0.114 0.01 0.042 0.123 0.039 0.175 -0.05 0.016 -0.055 0 -0.186 0.045 0.026 0.031 0.188 0.017 0.053 0.035 -0.038 0.082 0.01 0.038 0.065 0.008 0.043 -0.048 -0.011 -0.068 0.018 -0.03 0.126 0.14 0.003 0.055 0.107 0.063 0.304 0.092 0.056 0.043 0.017 0.069 -0.076 0.02 -0.069 0.05 0.043 0.068 0.079 0.056 0.13 0.021 0.06 0.089 0 0.086 -0.093 0.074 -0.189 0.103 -0.112 0.041 -0.043 0.073 -0.013 0.076 -0.076 -0.003 -0.081 -0.032 -0.945 -0.192 -0.356 -0.036 -0.312 -0.005 -0.059 -0.012 0.003 -0.045 0.02 -0.041 0.044 -0.052 -0.021 -0.044 -0.041 -0.003 -0.04 0.034 -0.086 0 -0.081 -0.039 -0.068 0.012 -0.033 0.055 -0.027 0.029 0.001 0.035 0.043 0.032 0.182 0.035 -0.03 0.031 -0.252 0.025 -0.205 0.03 -0.266 0.095 -0.108 0.065 -0.715 0.162 -0.172 0.056 -0.076 0.007 -0.098 0.019 -0.075 0.068 -0.395 0.096 -0.083 -0.009 -0.104 0.08 -0.096 0.044 -0.229 0.006 -0.146 0.022 -0.317 0.116 -0.199 -0.037 -0.233 0.159 -0.259 0.15 -0.077 0 -0.198 -0.063 -0.05 0.033 0.031 0.061 0.07 0.064 -0.04 0.019 -0.079 -0.018 -0.058 -0.004 -0.041 0.019 0.007 0.046 -0.112 0.059 -0.088 0.005 -0.101 0.019 -0.034 0.051 0.03 0.055 -0.179 0.064 -0.146 0.082 -0.07 0.015 -0.08 0.037 -0.087 0.027 -0.101 -0.006 -0.24 0.117 -0.54 0.203 -0.15 0.026 -0.191 0.062 -0.018 0.041 -0.001 0.051 -0.076 0.083 -0.089 0.212 -0.027 0.038 -0.046 0.044 -0.197 -0.021 -0.171 -0.081 -0.055 -0.037 -0.03 -0.044 -0.011 -0.07 -0.033 -0.032 -0.04 -0.015 -0.196 -0.173 -0.343 -0.119 -0.049 -0.039 -0.438 0.032 -0.118 0.001 -0.208 -0.029 -0.325 0.018 -0.392 0.065 -0.12 0.04 -0.399 0.063 -0.263 0.099 -0.512 0.36 -0.121 0.075 -0.059 0.016 -0.087 0.007 -0.038 -0.073 -0.013 -0.057 0.032 -0.109 0.061 -0.09 0.063 -0.168 0.016 -0.068 0.044 -0.071 -0.172 0.004 -0.238 0.123 -0.359 0.12 -0.167 0.031 -0.131 0.07 -0.093 0.01 -0.108 0.026 -0.011 0.153 -0.055 0.085 -0.065 0.017 -0.099 0.003 -0.075 -0.033 -0.11 -0.123 -0.144 -0.064 -0.085 -0.011 -0.063 0.015 -0.125 0.084 -0.138 0.076 0.022 -0.087 -0.117 -0.033 -0.105 -0.02 -0.133 -0.004 -0.036 0.013 -0.054 0.05 -0.116 0.064 -0.081 0.027 -0.084 0.052 -0.045 0.054 -0.044 0.076 -0.052 0.185 0.004 0.217 -0.188 0.171 -0.075 -0.017 -0.035 0.011 -0.035 0.023 0.064 0.094 -0.034 0.034 -0.035 0.023 -0.087 0.025 -0.204 0.139 -0.19 0.091 -0.311 0.261 -0.092 0.175 -0.089 0.196 0.042 0.096 0.038 0.063 0.058 0.044 0.1 0.046 0.214 0.051 -0.019 0.033 -0.001 0.028 0.076 -0.049 0.055 -0.138 0.132 -0.044 0.064 0.002 0.427 0.109 0.081 0.047 -0.012 0.104 -0.026 0.049 -0.079 0.073 -0.152 0.087 -0.178 0.12 -0.017 0.074 -0.001 0.04 0.047 0.141 0.007 0.079 -0.024 0.148 0.012 0.064 0.047 0.055 0.072 0.034 0.124 -0.019 0.119 0.016 0.091 0.037 -0.013 0.123 0.051 0.117 0.042 0.215 -0.074 0.059 -0.072 0.037 -0.142 0.092 -0.076 0.011 -0.131 -0.032 -0.212 -0.167 0.085 -0.099 0.18 -0.069 0.082 -0.05 0.063 -0.073 -0.094 0.014 -0.067 0.032 -0.206 -0.014 -0.082 0.035 -0.1 0.056 0.04 0.138 -0.067 0.025 -0.127 0.048 -0.188 0.059 -0.061 0.039 -0.161 0.249 -0.148 0.186 -0.052 0.159 0.005 0.138 0.056 0.153 0.039 0.066 0.172 0.141 0.084 0.112 0.025 0.134 -0.139 0.063 -0.241 0.156 -0.101 0.017 -0.331 -0.004 -0.164 -0.078 -0.194 0.02 -0.163 0.037 -0.255 0.11 -0.228 0.143 -0.214 0.099 -0.064 0.058 -0.088 0.122 -0.078 0.225 0.027 0.111 0.043 0.052 0.042 0.069 -0.057 0.104 -0.001 0.067 0.104 0.106 0.023 0.145 -0.078 0.004 -0.176 -0.105 -0.186 -0.008 -0.45 0.121 -0.184 0.07 -0.207 0.139 -0.062 -0.026 -0.044 -0.079 -0.075 -0.035 -0.093 0.018 -0.04 0.075 0.128 0.035 0.049 0.049 -0.075 0.185 -0.053 0.062 0.02 0.166 -0.007 0.077 -0.03 0.078 -0.132 0.214 -0.228 0.281 -0.28 0.204 -0.194 0.071 -0.098 0.055 -0.041 0.071 -0.288 0.196 -0.355 0.206 -0.1 0.037 -0.023 -0.078 -0.011 -0.077 -0.043 -0.103 -0.127 -0.085 -0.022 -0.069 -0.021 -0.095 -0.011 -0.438 -0.113 -0.454 -0.013 -0.143 -0.136 -0.117 -0.074 -0.121 -0.044 -0.119 -0.012 -0.14 -0.149 -0.738 -0.045 -0.184 -0.198 -0.593 -0.086 -0.343 -0.056 -0.335 -0.009 -0.149 0.089 -0.445 0.073 -0.279 0.266 -0.623 0.043 -0.057 0.042 -0.03 0.462 -0.24 0.199 -0.131 0.12 -0.138 0.128 -0.176 -0.013 -0.095 -0.015 -0.055 -0.048 -0.061 -0.108 -0.071 0.038 -0.032 0.042 -0.024 0.114 -0.027 0.231 0.053 0.234 -0.022 0.216 -0.221 0.308 0.034 0.236 -0.039 0.065 0.016 0.046 -0.074 0.128 -0.079 0.238 -0.119 0.35 -0.143 0.174 -0.096 0.098 -0.091 0.144 -0.085 0.139 -0.108 0.256 -0.323 0.503 -0.267 0.197 -0.153 0.164 -0.054 0.144 -0.025 0.364 -0.219 0.23 -0.182 0.304 -0.125 0.092 -0.08 0.158 -0.188 0.065 -0.046 0.198 -0.07 0.447 -0.123 0.26 -0.123 0.379 -0.018 0.114 -0.049 0.119 -0.027 0.125 -0.04 -0.156 -0.109 0.036 -0.059 0.03 -0.027 0.274 -0.129 0.112 -0.103 -0.013 -0.044 -0.019 -0.032 -0.168 -0.042 0.033 -0.097 0.046 -0.082 0.137 -0.071 0.048 -0.163 0.006 -0.171 0.133 -0.247 0.08 -0.054 0.311 -0.124 0.072 -0.003 0.217 0.042 0.236 0.02 0.084 0.038 0.018 -0.032 -0.012 -0.042 0.067 -0.015 0.137 0.016 -0.021 -0.047 -0.353 -0.023 -0.252 -0.054 -0.225 -0.104 -0.149 -0.029 -0.163 0.008 -0.924 0.146 -0.045 0.04 -0.043 0.056 0.058 0.082 -0.044 0.036 -0.045 0.023 -0.05 0.054 -0.045 0.107 0.013 0.103 -0.113 0.159 -0.008 0.1 0.198 0.055 0.05 0.037 -0.06 0.055 -0.059 0.033 -0.054 0.041 -0.038 0.017 -0.053 0.01 -0.072 -0.054 -0.066 -0.107 -0.104 -0.006 -0.034 0.016 -0.019 0.043 -0.091 0.003 -0.101 -0.02 -0.114 0.008 -0.204 0.121 -1.151 0.578 -0.122 0.07 -0.148 0.139 -0.285 0.013 -0.114 0.031 -0.081 0.042 -0.114 0.029 0.004 -0.052 0.024 -0.039 0.025 -0.102 0.153 -0.194 -0.098 -0.019 -0.097 -0.003 -0.18 0.04 -0.121 0.064 -0.093 -0.013 0.044 -0.057 0.115 -0.115 -0.035 -0.106 -0.031 -0.057 0.048 -0.032 0.232 -0.214 0.084 -0.11 0.071 -0.146 0.004 -0.045 -0.012 -0.056 -0.072 -0.009 -0.055 0.001 -0.46 0.144 -0.17 0.039 -0.056 -0.062 -0.073 -0.027 -0.128 -0.106 -0.106 -0.015 -0.113 0.007 -0.252 0.072 -0.277 0.039 -0.213 -0.015 -0.182 0.061 -0.081 0.011 -0.271 -0.042 -0.33 -0.004 -0.099 0.052 -0.287 0.071 -0.192 0.11 -0.101 0.036 -0.11 0.049 -0.051 0.208 -0.147 0.066 -0.138 0.051 -0.288 0.159 -0.203 0.218 -0.137 0.095 -0.288 0.133 -0.457 0.173 -0.393 0.282 -0.137 0.211 -0.051 0.007 -0.097 0.043 -0.026 0.103 0.002 0.072 -0.06 0.058 -0.059 0.072 0.063 0.045 0.059 0.008 0.085 -0.006 0.225 -0.059 0.389 0.09 0.195 0.089 -0.014 0.09 0.007 0.08 -0.144 -0.005 -0.193 0.008 -0.12 0.046 -0.246 -0.075 -0.082 0.029 -0.129 0.079 -0.236 0.033 -0.119 -0.039 -0.196 -0.111 -0.334 0.01 -0.088 0.123 -0.077 -0.003 -0.118 0.013 -0.196 0.143 -0.064 0.013 -0.242 -0.028 -0.175 -0.072 -0.081 -0.004 -0.154 0.034 -0.077 0.087 -0.383 0.044 -0.378 -0.008 -0.206 -0.207 0.384 -0.081 0.229 0.017 0.257 -0.013 0.271 -0.064 -0.091 -0.054 -0.065 -0.013 -0.162 0.006 -0.144 -0.039 -0.312 -0.201 -0.137 -0.037 -0.178 -0.022 -0.137 -0.002 -0.051 0.014 -0.071 0.048 -0.049 0.048 -0.04 0.015 -0.094 -0.008 -0.114 -0.037 -0.132 0.012 0.056 -0.031 0.127 -0.031 -0.21 -0.034 -0.132 -0.048 -0.123 -0.012 -0.56 -0.119 -0.218 0.009 -0.134 0.033 -0.225 0.098 0.063 0.072 0.048 0.032 0.03 0.039 -0.072 0.008 -0.208 0.006 -0.128 -0.057 -0.088 0.084 0.035 0.075 0.146 -0.026 0.075 0.031 -0.051 0.086 -0.187 0.025 -0.235 -0.004 -0.234 -0.152 -0.383 0.026 -0.187 0.097 -0.173 0.022 -0.474 -0.097 -0.236 -0.007 -0.267 -0.084 -0.093 0.027 -0.171 0.209 -0.224 0.051 -0.118 -0.028 -0.103 -0.132 -0.073 -0.043 -0.202 -0.04 -1.071 0.037 -0.36 -0.032 -0.255 -0.003 -0.345 0.068 -0.332 -0.026 -0.612 0.13 -0.25 0.087 -0.305 0.153 -0.271 0.254 -0.152 0.096 -0.256 0.121 -0.359 0.111 -0.197 0.113 -0.105 0.091 -0.19 0.347 -0.048 0.052 -0.445 0.126 -0.141 0.138 -0.058 0.035 -0.184 0.058 -0.113 0.097 -0.063 0.029 -0.262 0.068 -0.216 0.173 -0.304 0.123 -0.444 0.337 -0.038 0.04 -0.039 0.09 -0.067 0.066 -0.382 0.294 -0.119 0.027 -0.189 0.137 -0.194 0.082 -0.178 0.097 -0.219 0.101 -0.333 0.117 -0.109 0.067 -0.176 0.158 -0.424 0.192 -0.21 0.047 -0.278 0.17 -0.028 0.04 -0.023 0.062 0.046 0.109 0.068 0.024 0.112 0.015 0.414 0.109 0.386 -0.03 0.342 0 0.134 -0.011 0.083 0.003 0.026 0.06 -0.003 0.109 -0.05 0.099 -0.041 0.293 -0.046 0.129 0.036 0.127 0.084 0.022 0.084 -0.057 0.132 -0.009 0.137 0.026 0.103 -0.204 -0.086 -0.032 -0.076 -0.072 0.045 -0.054 0.236 -0.1 0.147 -0.009 0.141 0.008 -0.153 0.127 -0.062 0.026 -0.048 0.007 -0.064 0.023 0.137 0.073 0.146 0.057 0.212 0.024 -0.049 0.043 -0.141 0.038 -0.128 0.159 -0.203 0.075 -0.092 0.052 0.032 0.033 0.075 0.007 0.41 -0.021 0.212 -0.043 0.302 -0.123 0.126 -0.183 0.115 -0.05 0.034 0 0.04 0.013 0.001 0.128 -0.162 0.145 -0.115 0.082 -0.042 0.068 0.071 0.001 0.13 -0.014 0.06 -0.033 0.15 -0.175 0.039 -0.125 0.022 -0.174 -0.017 -0.104 0.011 -0.075 -0.059 -0.076 0.038 -0.022 0.409 0.102 0.215 0.025 0.388 -0.084 0.088 0.021 0.063 0.051 0.32 0.154 0.063 0.051 0.105 0.188 0.341 0.216 0.318 0.102 0.009 0.04 0.203 0.12 0.156 0.042 0.028 0.109 -0.074 0.087 -0.147 0.082 -0.294 -0.076 -0.048 0.004 0.035 0.048 0.212 0.142 0.169 0.057 0.01 0.188 -0.021 0.102 -0.113 0.114 0.037 0.067 0.16 0.097 0.079 0.037 0.076 0.056 -0.1 0.121 -0.019 0.137 -0.108 0.06 -0.129 0.133 -0.197 0.108 -0.094 0.206 -0.151 0.182 -0.017 0.181 -0.025 0.065 -0.125 0.187 -0.045 0.254 0.059 0.415 0.029 0.024 0.06 0.024 -0.011 0.029 -0.029 0.02 -0.122 0.122 0.002 0.086 0.047 0.064 0.006 0.166 -0.086 0.265 -0.032 0.042 -0.035 0.069 -0.016 0.062 -0.023 0.039 -0.017 0.066 0.025 0.059 0.045 0.031 -0.154 0.191 -0.054 0.249 -0.057 0.101 -0.115 0.099 -0.238 0.143 -0.084 0.091 -0.156 0.115 -0.148 0.088 -0.206 0.252 -0.166 0.252 -0.415 0.326 -0.057 0.081 -0.029 0.086 -0.109 0.145 -0.055 0.202 -0.127 0.08 -0.104 0.212 -0.337 0.322 -0.084 0.11 -0.26 0.178 -0.278 0.246 -0.343 0.222 -0.066 0.091 -0.133 0.102 -0.144 0.156 -0.209 0.155 -0.042 0.105 -0.066 0.073 -0.155 0.049 -0.112 0.066 -0.341 0.402 -0.044 0.073 -0.006 0.064 -0.223 0.15 -0.129 0.159 -0.214 0.099 -0.225 0.136 -0.535 0.248 -0.146 0.095 -0.301 0.118 -0.123 0.002 -0.257 0.064 -0.17 0.067 -0.101 -0.026 -0.063 -0.085 -0.073 0.003 -0.06 0.012 -0.155 -0.082 -0.133 0.004 -0.095 -0.038 -0.178 0.026 0.031 -0.355 -0.025 -0.075 -0.076 0.068 -0.204 0.126 -0.081 0.024 -0.081 0 0.032 -0.076 0.115 -0.109 -0.037 -0.016 -0.037 -0.006 -0.144 0.047 -0.073 0.053 -0.206 0.206 -0.123 0.174 -0.101 0.05 -0.047 0.075 -0.087 0.071 -0.133 -0.019 -0.079 0.011 -0.19 -0.039 -0.047 0.017 0.125 0.133 -0.104 0.197 z M 47.442 -80.854 l 0.458 0.041 0.344 -0.011 0.102 0.004 0.1 0.013 0.102 0.027 0.139 0.061 -0.003 0.085 -0.058 0.004 -0.581 -0.039 -0.267 -0.088 -0.072 -0.009 -0.105 0.023 -0.088 0.054 -0.098 0.013 -0.11 0.068 -0.106 -0.009 -0.053 0.006 -0.134 0.047 -0.333 0.001 -0.054 0.021 -0.11 0.065 -0.136 0.019 -0.237 0.01 -0.082 -0.037 -0.036 -0.057 -0.055 -0.029 -0.328 0.033 -0.252 -0.023 -0.24 -0.038 -0.244 -0.013 0.22 -0.041 1.203 -0.083 0.472 -0.02 0.221 -0.059 0.332 -0.039 z M 50.278 -80.927 l 0.153 0.016 0.37 -0.003 0.117 0.024 0.537 0.146 0.136 0.004 0.113 0.053 -0.557 0.084 -0.185 0.063 -0.681 0.013 -0.434 0.03 -0.096 0.026 0.044 0.047 -0.208 0.049 -0.69 0.007 -0.085 0.015 -0.134 0.054 0.012 0.01 0.233 0.013 0.038 0.011 0.031 0.023 0.02 0.035 -0.033 0.045 -0.086 0.007 -0.095 -0.006 -0.216 -0.034 -0.027 0.012 -0.022 0.025 -0.066 0.048 -0.081 0.014 -0.219 -0.037 -0.071 0.01 -0.07 0.023 -0.086 0.011 -0.203 0.007 -0.105 -0.03 0.091 -0.039 0.254 -0.061 -0.085 -0.027 -0.251 -0.006 -0.198 0.015 -0.101 0.042 -0.094 0.008 -0.258 -0.003 -0.145 -0.054 -0.108 -0.02 -0.094 -0.043 0.758 -0.144 0.253 -0.056 0.24 -0.029 0.312 -0.015 0.098 -0.018 0.096 -0.007 0.062 0.011 0.16 0.05 0.463 -0.007 0.097 -0.043 0.007 -0.097 -0.045 -0.056 0.097 -0.109 0.263 -0.044 0.617 -0.059 z M 67.765 -76.238 l -0.4 0.076 -0.238 0.053 -0.234 0.036 -0.236 0.025 -0.375 0.063 -0.663 0.079 -0.418 0.065 -0.457 0.051 -0.482 0.069 -0.483 0.047 -0.12 0.004 -0.343 0.066 -0.271 0.027 -0.98 0.148 -0.45 0.108 -0.13 0.009 -0.131 -0.004 -0.107 0.034 -0.102 0.058 -0.212 0.059 -0.106 0.053 -0.11 0.042 -0.064 0.014 -0.122 -0.004 -0.058 0.005 -0.199 0.047 -0.036 0.037 0.214 0.025 0.046 0.042 -0.062 0.029 -0.138 0.038 -0.078 0.04 -0.142 0.041 -0.098 0.011 -0.235 -0.001 -0.013 0.05 0.037 0.031 -0.019 0.027 -0.079 0.027 -0.078 -0.004 -0.356 -0.079 -0.058 0.027 -0.025 0.055 -0.011 0.059 -0.045 0.044 -0.061 0.022 -0.112 0.023 -0.394 -0.036 -0.033 0.035 0.06 0.042 0.084 0.094 0.019 0.039 -0.047 0.062 -0.176 0.099 -0.674 0.115 0.011 0.04 0.075 0.076 0.019 0.047 -0.027 0.045 -0.089 0.036 -0.099 0.001 -0.054 -0.007 -0.155 -0.05 -0.135 -0.012 -0.022 0.023 0.173 0.069 0.078 0.088 -0.083 0.048 -0.325 0.106 -0.171 0.138 -0.33 0.062 -0.204 0.007 -0.202 -0.017 -0.194 -0.032 -0.485 -0.011 -0.269 -0.035 -0.273 -0.062 -0.238 0.004 -0.203 0.031 -0.266 0.068 -0.168 -0.13 0.073 -0.061 -0.366 -0.155 -0.076 -0.069 0.088 -0.034 0.112 -0.022 0.211 -0.063 0.212 -0.05 0.219 -0.016 0.037 -0.008 0.091 -0.074 0.098 -0.062 0.089 -0.033 0.103 -0.058 0.318 -0.233 0.075 -0.017 0.662 -0.045 0.059 -0.015 -0.19 -0.046 -0.196 0.001 -0.09 -0.015 -0.051 -0.034 -0.028 -0.037 0.077 -0.029 0.254 -0.14 0.304 -0.101 0.281 -0.06 -0.07 -0.016 -0.088 -0.041 -0.342 0.01 -0.135 -0.055 -0.042 -0.032 -0.011 -0.034 0.111 -0.043 0.115 -0.026 0.127 0.008 0.126 0.022 0.1 0.026 0.096 0.042 0.085 -0.002 0.306 -0.147 -0.047 -0.033 -0.02 -0.051 0.035 -0.023 0.145 -0.024 0.098 -0.009 0.214 0.011 0.305 0.032 0.025 -0.015 0.077 -0.098 0.075 -0.052 0.31 -0.086 -0.021 -0.026 -0.014 -0.044 0.36 -0.057 0.234 -0.057 0.229 -0.078 0.113 -0.017 0.116 -0.002 0.236 -0.033 0.435 -0.039 0.254 -0.038 0.082 -0.083 0.161 -0.03 0.327 -0.012 0.124 0.005 0.071 0.035 0.141 -0.002 0.056 -0.018 0.056 -0.031 -0.017 -0.049 -0.003 -0.064 0.123 -0.041 0.045 -0.008 0.368 -0.016 0.218 0.007 0.45 0.049 0.234 0.011 0.311 -0.015 0.189 0.009 0.555 -0.073 0.937 -0.069 0.244 -0.048 0.242 -0.058 0.123 -0.012 0.124 -0.003 0.113 -0.018 0.219 -0.05 0.108 -0.011 0.118 -0.001 0.108 -0.034 0.096 -0.075 0.104 -0.058 0.282 -0.075 0.484 -0.103 0.435 -0.04 0.271 -0.044 0.117 -0.004 0.365 0.021 0.468 0.057 0.213 0.063 0.174 0.081 0.038 0.029 0.03 0.053 -0.051 0.048 -0.033 0.049 0.042 0.038 -0.341 0.124 -0.336 0.136 -0.057 0.029 z M 55.32 -73.308 l 0.467 0.04 0.35 0.012 0.213 0.031 0.079 0.024 -0.032 0.062 -0.063 0.025 -0.146 0.081 -0.022 0.05 0.026 0.078 -0.022 0.057 -0.049 0.042 -0.038 0.017 -0.264 0 -0.096 0.023 -0.005 0.045 -0.017 0.05 -0.085 0.073 -0.175 0.024 -0.038 0.026 0.014 0.048 -0.061 0.036 0.004 0.056 0.031 0.031 0.009 0.064 0.119 0.093 -0.023 0.038 -0.092 0.075 -0.028 0.092 -0.077 0.08 0.173 0.066 0.076 0.086 0.067 0.093 0.206 0.182 0.224 0.162 0.411 0.238 0.44 0.18 0.171 0.051 0.418 0.084 0.073 0.026 0.069 0.037 -0.178 0.068 -0.183 0.025 -0.017 0.031 -0.101 0.016 -0.497 -0.057 -0.027 -0.009 -0.053 -0.042 -0.059 -0.031 -0.124 -0.005 -0.126 0.019 0.075 0.038 0.082 0.012 0.144 0.071 -0.062 0.027 -0.065 0.003 -0.292 -0.095 -0.028 0.012 -0.028 0.028 -0.146 -0.031 -0.034 0.023 -0.11 0.011 -0.09 -0.026 0 -0.033 -0.019 -0.017 -0.45 0.026 -0.185 -0.001 -0.185 -0.011 -0.222 -0.064 -0.037 0.029 -0.007 0.033 -0.084 -0.013 -0.185 -0.051 -0.133 -0.02 -0.477 -0.05 -0.339 -0.059 0.084 -0.027 0.146 -0.014 0.002 -0.036 -0.023 -0.05 -0.005 -0.052 0.083 -0.035 0.187 0.017 -0.023 -0.056 0.088 -0.011 0.172 0.032 0.062 -0.02 -0.27 -0.071 -0.295 -0.1 0.031 -0.036 -0.107 -0.01 -0.105 0.002 -0.091 -0.059 0.013 -0.078 0.079 -0.053 -0.048 -0.012 -0.455 0.047 -0.23 -0.011 -0.26 -0.031 -0.239 0.047 -0.242 0.016 -0.125 -0.017 -0.121 -0.034 -0.101 -0.046 -0.079 -0.077 -0.073 -0.129 -0.01 -0.049 0.015 -0.109 0.039 -0.045 0.1 -0.091 0.071 -0.028 0.152 -0.043 0.08 -0.011 0.183 0.022 0.183 0.001 0.08 -0.024 0.074 -0.043 0.055 -0.056 0.124 -0.032 0.036 -0.017 0.04 -0.036 0.044 -0.054 0.008 -0.046 0.035 -0.046 0.115 -0.067 -0.04 -0.041 0.016 -0.028 0.078 -0.05 -0.233 -0.013 -0.078 -0.022 -0.076 -0.033 0.022 -0.031 0.029 -0.023 0.233 -0.084 0.101 -0.025 0.111 -0.014 0.111 0 0.119 0.009 0.116 -0.013 -0.123 -0.056 -0.01 -0.038 -0.048 -0.093 0.009 -0.044 0.053 -0.035 0.106 -0.042 0.155 -0.014 0.121 -0.022 0.12 -0.033 0.112 -0.006 0.225 0.023 0.111 -0.005 0.125 -0.018 0.348 -0.071 0.128 -0.018 0.137 0.004 0.181 0.026 z M 96.527 -81.076 l 0.037 0.046 0.13 0.036 0.062 0.036 0.659 0.116 0.289 0.015 0.129 0.028 0.038 0.035 -0.013 0.065 -0.109 -0.001 -0.082 0.021 -0.444 0.026 -0.108 0.038 -0.088 0.079 0.047 0.016 0.042 0.023 0.135 0.134 0.037 0.02 0.13 0.019 -0.119 0.05 -0.123 0.032 -1.319 0.064 -0.894 0.027 -0.3 0.028 -0.096 -0.003 -0.237 0.05 -0.456 0.066 -0.218 0 -0.652 -0.092 -0.801 -0.077 -0.109 -0.044 -0.201 -0.026 -0.254 -0.021 -0.114 -0.089 0.164 -0.06 0.209 -0.059 0.35 -0.022 0.331 -0.034 0.249 -0.085 0.154 -0.084 0.281 -0.088 -0.49 0.023 -0.18 -0.012 0.018 -0.029 0.1 -0.062 0.054 -0.021 0.174 -0.033 0.126 -0.063 0.294 -0.043 0.139 -0.008 0.139 0.001 0.252 -0.02 0.251 -0.031 0.235 -0.018 0.236 -0.007 0.226 -0.025 0.223 -0.049 0.099 -0.083 0.641 -0.009 0.101 0.02 0.082 0.049 0.091 0.019 0.112 0.009 0.284 0.085 z M 97.675 -80.158 l 0.229 0.063 0.114 0.072 -0.111 0.019 -0.099 0.047 -0.048 0.06 -0.133 0.045 -0.036 0.075 0.06 0.014 0.073 -0.021 0.146 -0.071 0.194 -0.048 0.209 0.027 0.08 -0.01 0.146 -0.069 -0.027 -0.056 0.06 -0.034 0.065 -0.009 0.269 0.007 0.429 0.029 0.076 0.03 0.102 0.016 0.063 0.029 0.19 0.021 0.092 0.022 0.128 0.049 0.115 0.072 -0.145 0.039 -0.077 0.069 -0.034 0.016 -0.024 0.025 -0.011 0.061 -0.022 0.053 -0.028 0.023 -0.015 0.028 0.015 0.078 -0.041 0.062 -0.143 0.047 -0.15 0.002 -0.221 -0.032 -0.063 0.001 -0.063 0.012 0.276 0.066 0.2 0.097 0.233 0.023 0.064 0.012 0.085 0.089 0.03 0.045 -0.388 0.109 -0.101 0.019 -0.62 0.016 -0.408 0.03 -0.129 -0.007 -0.228 -0.026 -0.149 0.011 -0.217 -0.017 -0.133 0.001 -0.307 -0.041 -0.315 -0.066 -0.062 -0.03 -0.063 -0.021 -0.378 -0.018 -0.083 -0.013 -0.551 0.014 -0.094 -0.011 -0.172 -0.086 -0.094 -0.001 -0.304 0.05 -0.113 -0.003 -0.229 -0.034 -0.139 -0.041 -0.021 -0.013 -0.012 -0.052 -0.138 -0.026 -0.168 -0.089 -0.095 -0.095 -0.46 -0.049 -0.28 -0.011 -0.206 0.004 -0.201 -0.037 0.334 -0.136 0.443 -0.07 0.191 -0.054 0.219 -0.074 0.09 -0.112 0.372 -0.069 0.096 -0.024 0.132 -0.054 0.041 -0.008 0.294 0.066 0.057 -0.012 0.053 -0.031 0.107 -0.033 0.36 -0.004 0.305 0.013 0.115 -0.013 0.139 0.006 0.704 -0.049 0.466 -0.015 z M 102.885 -79.254 l -0.097 0.078 -0.042 0.07 -0.298 0.229 -0.036 0.041 0.175 -0.036 0.16 -0.078 0.097 -0.065 0.106 -0.041 0.125 -0.001 0.123 -0.015 0.234 -0.055 0.239 -0.024 0.128 0.001 0.125 0.026 0.078 0.061 0.087 0.049 0.313 0.036 0.045 0.013 0.028 0.041 -0.025 0.043 0.181 0.045 0.248 -0.02 0.134 0.012 0.131 0.024 0.059 0.039 0.051 0.047 0.054 0.067 0.033 0.072 -0.03 0.094 -0.48 0.147 -0.091 0.013 -0.222 -0.009 -0.222 0.014 -0.578 0.077 -0.716 0.002 -0.206 0.068 -0.062 -0.002 -0.061 -0.012 -0.056 -0.023 -0.437 0.019 -0.488 0.011 -0.488 0.002 -0.164 0.049 -0.499 0.095 -0.459 0.073 -0.237 0.018 -0.345 -0.019 -0.109 -0.025 -0.105 -0.037 0.152 -0.046 0.107 -0.095 0.132 -0.055 0.341 -0.105 0.039 -0.041 0.066 -0.09 0.039 -0.033 0.052 -0.032 0.042 -0.038 0.005 -0.058 0.021 -0.048 0.132 -0.074 0.099 -0.035 0.104 -0.01 0.256 0.014 0.08 -0.005 -0.058 -0.024 -0.042 -0.085 0.008 -0.028 0.037 -0.054 0.064 -0.026 0.065 -0.017 0.037 -0.073 -0.016 -0.027 0.097 -0.034 0.047 -0.048 0.114 -0.028 0.233 -0.022 0.012 -0.058 0.035 -0.038 0.053 -0.011 0.118 -0.011 0.063 0.002 0.088 0.059 0.093 0.048 0.123 0.011 0.123 -0.004 -0.074 -0.057 0.003 -0.061 0.044 -0.04 0.057 -0.017 0.122 -0.003 0.385 0.041 0.252 0.061 0.056 0.032 -0.046 0.017 -0.113 0.011 z M 140.049 -75.829 l 0.103 0.019 0.122 -0.013 0.115 0.027 0.107 0.106 0.05 0.027 0.055 0.019 0.055 0.01 0.159 0.003 0.073 -0.021 0.055 -0.048 -0.004 -0.049 -0.014 -0.049 -0.001 -0.068 0.025 -0.06 0.035 -0.037 0.047 -0.024 0.267 -0.075 0.186 -0.073 0.257 0.029 0.259 0.065 0.459 0.14 0.209 0.04 0.257 0.037 0.258 0.013 0.126 -0.009 0.249 -0.038 0.126 -0.003 1.569 0.278 0.054 0.022 0.05 0.034 -0.337 0.041 -0.22 0.074 -0.076 0.05 0.088 0.041 0.069 0.056 -0.476 0.167 -0.192 0.043 -0.196 0.015 -0.394 -0.039 -0.23 0.001 -0.226 -0.034 -0.248 -0.101 -0.102 -0.05 -0.091 -0.07 -0.03 -0.111 0.035 -0.096 0.133 -0.027 0.118 -0.061 0.016 -0.027 -0.061 -0.053 -0.39 -0.008 -0.244 0.029 -0.222 0.031 0.065 0.203 0.048 0.065 0.066 0.047 0.352 0.213 0.08 0.03 0.233 0.041 0.198 0.092 -0.35 0.103 -0.152 0.03 -0.153 0.017 -0.094 -0.008 -0.091 -0.021 -0.103 -0.05 -0.084 -0.051 -0.113 -0.04 -0.239 0.009 -0.218 0.035 -0.22 0.024 -0.65 0.041 -0.197 0.026 -0.196 0.009 -0.257 -0.048 -0.253 -0.069 -0.077 0 -0.075 0.018 -0.058 0.042 -0.036 0.066 -0.082 0.089 -0.104 0.062 -0.11 0.027 -0.116 0.003 -0.117 -0.017 -0.116 -0.027 -0.773 -0.097 -0.091 -0.03 -0.086 -0.044 -0.232 -0.138 -0.115 -0.032 -0.121 -0.014 -0.229 -0.07 -0.212 -0.111 -0.044 -0.035 -0.015 -0.055 0.035 -0.04 0.184 0.019 0.124 -0.002 -0.075 -0.206 0.054 -0.195 0.09 -0.032 0.348 0.022 -0.113 -0.064 -0.092 -0.086 0.059 -0.046 0.065 -0.033 0.149 -0.027 0.203 -0.012 0.062 -0.019 0.057 -0.033 0.112 -0.034 0.223 -0.015 0.383 -0.07 0.106 0.003 0.098 0.037 0.092 0.052 0.102 0.028 0.317 0.067 0.215 0.06 z M 146.795 -75.371 l 0.265 0.006 0.383 -0.074 0.053 -0.003 0.935 0.027 0.076 0.026 0.01 0.051 -0.03 0.027 -0.014 0.037 0.115 0.036 0.302 0.008 0.191 -0.034 0.562 0.017 0.459 0.025 0.177 0.055 0.137 0.03 0.113 0.034 0.082 -0.02 0.077 -0.035 0.067 -0.007 0.065 0.006 -0.176 0.212 -0.066 0.026 -0.249 0.052 -0.493 0.071 -0.241 0.023 -0.547 0 -0.753 -0.028 -0.204 -0.025 -0.121 -0.032 -0.231 -0.075 -0.114 -0.027 -0.37 -0.025 -0.113 -0.014 -0.219 -0.064 -0.222 -0.052 -0.555 -0.084 0.038 -0.097 0.071 -0.098 0.085 -0.087 0.096 -0.077 0.099 -0.024 0.213 0.071 -0.003 0.082 z M 178.862 -70.826 l -0.069 0.004 -0.144 -0.179 -0.02 -0.047 0.056 -0.058 0.145 -0.072 0.062 -0.053 0.344 -0.093 0.313 -0.123 0.168 -0.019 0.171 -0.057 0.114 -0.014 0 0.545 -0.119 0.017 -0.234 0.077 -0.495 0.019 z M 142.761 -54.394 l 0.215 0.253 0.01 0.055 -0.019 0.057 -0.041 0.073 -0.015 0.077 0.025 0.067 -0.018 0.017 0.178 0.306 0.128 0.193 0.036 0.079 0.028 0.083 0.037 0.171 0.008 0.263 -0.009 0.086 -0.029 0.084 -0.031 0.05 -0.063 0.036 -0.029 0.094 -0.017 0.266 0.035 0.139 0.06 0.097 0.044 0.104 0.005 0.112 0.021 0.049 0.097 0.063 0.038 0.049 0.012 0.07 0.006 0.103 0.016 0.022 0.045 0.031 0.202 0.74 0.08 0.224 0.232 0.387 0.093 0.234 0.058 0.112 0.04 0.118 0.032 0.121 0.069 0.131 0.091 0.129 0.175 0.115 0.079 0.065 0.021 0.052 0.007 0.179 -0.041 -0.038 -0.052 -0.136 -0.085 -0.079 -0.125 -0.093 -0.128 -0.083 -0.158 -0.139 -0.077 -0.041 -0.081 -0.027 -0.149 -0.032 -0.087 -0.003 -0.35 0.021 -0.146 0.028 -0.131 0.064 -0.078 0.093 -0.055 0.188 -0.321 0.671 -0.077 0.175 -0.028 0.187 0.011 0.147 0.022 0.054 0.091 0.147 0.075 0.085 0.055 0.036 0.063 0.024 0.042 0.03 0.035 0.039 0.065 0.1 0.084 0.222 0.089 0.157 0.04 0.049 0.101 -0.013 0.066 0.002 0.063 0.014 0.038 0.04 0.055 0.177 0.038 0.169 0.002 0.045 -0.072 0.131 -0.018 0.056 -0.008 0.059 -0.019 0.046 -0.032 0.041 -0.013 -0.193 -0.048 -0.136 -0.018 -0.118 -0.07 -0.083 -0.234 -0.034 -0.219 -0.013 -0.034 -0.015 -0.048 -0.05 -0.055 -0.04 -0.056 -0.005 -0.058 0.015 -0.099 0.057 -0.072 0.09 -0.056 0.096 -0.046 0.101 -0.095 0.269 -0.059 0.09 -0.073 0.082 -0.062 -0.045 -0.054 -0.052 -0.032 -0.075 -0.014 -0.082 -0.086 -0.28 0.036 -0.243 0.145 -0.336 0.028 -0.11 -0.022 -0.104 -0.033 -0.103 -0.022 -0.196 0.002 -0.044 0.052 -0.113 0.06 -0.108 0.073 -0.094 0.033 -0.111 -0.046 -0.277 -0.107 -0.187 -0.131 -0.178 -0.024 -0.047 -0.007 -0.048 0.113 -0.222 0.041 -0.106 0.046 -0.234 0.042 -0.128 0.034 -0.129 0.011 -0.648 -0.01 -0.095 -0.072 -0.203 -0.005 -0.115 0.034 -0.146 0.047 -0.114 0.061 -0.108 -0.001 -0.224 -0.116 -0.207 -0.085 -0.091 -0.133 -0.11 -0.101 -0.06 -0.05 -0.046 0.05 -0.015 0.036 -0.037 -0.087 -0.058 -0.053 -0.087 -0.008 -0.34 0.022 -0.086 0.065 -0.096 0.056 -0.101 0.052 -0.238 0.018 -0.245 -0.035 -0.1 -0.015 -0.201 0.029 -0.05 0.112 -0.067 0.178 -0.039 0.038 0.012 0.139 0.079 0.052 0.003 0.054 -0.008 0.102 -0.037 0.057 -0.089 -0.074 -0.051 0.043 -0.065 0.127 -0.022 0.009 -0.056 -0.046 -0.007 0.04 -0.079 0.023 -0.08 -0.036 -0.073 -0.204 -0.18 -0.132 -0.132 0.217 0.002 0.064 -0.025 0.051 -0.055 0.027 -0.058 z M -178.876 -71.577 l 0.438 0.036 0.085 0.012 0.139 0.048 0.081 0.016 0.077 0.028 0.082 0.047 0.158 0.051 0.233 0.058 0.052 0.019 0.034 0.044 -0.025 0.052 -0.298 0.099 -0.241 0.026 -0.465 0.027 -0.629 0.075 -0.259 0.021 -0.091 -0.004 -0.227 -0.048 -0.266 -0.021 0 -0.191 0 -0.215 0 -0.138 0.155 -0.013 0.154 -0.027 0.145 -0.004 0.144 0.016 0.146 -0.005 0.145 -0.025 0.118 0.003 z M 35.816 -65.182 l 0.032 0.039 0.01 0.065 -0.031 0.041 0.015 0.035 -0.064 0.025 -0.099 -0.081 -0.059 -0.001 -0.063 -0.035 -0.03 -0.057 0.057 -0.016 0.023 0.01 0.12 -0.04 z M 42.714 -66.702 l -0.038 0.014 -0.198 -0.047 -0.017 -0.035 0.008 -0.015 0.079 -0.01 0.084 0.013 0.059 0.047 z M 52.903 -71.365 l 0.091 0.074 0.08 0.053 0.067 -0.004 0.051 0.027 0.013 0.056 -0.134 0.095 -0.023 0.034 0.058 0.032 0.015 0.017 -0.098 0.013 -0.018 -0.043 -0.055 -0.042 -0.114 -0.032 -0.046 -0.029 -0.051 -0.066 -0.192 -0.07 -0.121 0.011 -0.136 -0.031 -0.04 -0.015 -0.01 -0.04 0.057 -0.032 0.216 -0.028 0.105 0.002 0.112 0.028 -0.009 -0.035 0.012 -0.014 0.045 0.004 z M 168.039 -54.565 l 0.042 0.052 -0.404 -0.185 -0.189 -0.097 -0.047 -0.061 0.07 -0.001 0.081 0.059 0.118 0.028 0.172 0.08 z M 160.719 -70.823 l -0.068 0.017 -0.147 -0.014 -0.068 -0.031 0.004 -0.072 0.008 -0.011 0.117 0.01 0.079 0.04 z M 161.467 -68.901 l -0.045 0.001 0.034 -0.066 0.005 -0.03 -0.097 -0.049 -0.182 -0.037 -0.046 -0.029 -0.011 -0.087 0.039 -0.137 -0.082 -0.072 0.028 -0.064 0.213 -0.071 0.086 -0.055 0.095 -0.044 0.016 0.005 0.097 0.042 -0.008 0.092 -0.069 0.064 -0.166 0.023 -0.024 0.044 0.022 0.077 0.005 0.098 0.017 0.088 0.1 0.09 0.022 0.046 -0.01 0.042 z M 152.886 -76.122 l -0.1 0.036 -0.228 -0.058 0.084 -0.031 0.157 -0.02 0.036 0.01 0.029 0.022 z M 149.15 -76.66 l -0.752 0.012 0.05 -0.029 0.271 -0.07 0.687 -0.035 -0.138 0.035 -0.064 0.07 z M 137.96 -71.508 l -0.248 0.084 -0.099 -0.011 -0.101 -0.041 -0.054 -0.009 -0.055 0.006 -0.059 0.017 -0.079 0.005 -0.187 -0.046 -0.015 -0.028 0.018 -0.013 0.048 -0.013 0.039 -0.001 0.114 -0.023 0.535 -0.008 0.041 0.005 0.076 0.04 z M 107.696 -78.131 l -0.089 0.048 -0.125 0.025 -0.138 -0.041 -0.342 0.003 -0.586 -0.044 0.168 -0.028 0.925 -0.022 0.065 0.004 z M 112.478 -76.621 l 0.154 0.068 0.028 0.043 -0.047 0.01 -0.028 0.016 -0.012 0.031 -0.043 0.002 -0.137 -0.034 -0.098 -0.054 -0.143 -0.011 -0.151 -0.054 -0.034 -0.023 0.042 -0.007 0.27 0.015 0.113 -0.025 z M 96.532 -76.278 l 0.082 0.014 -0.024 0.043 -0.103 -0.013 -0.136 0.022 0.003 0.035 -0.053 0.056 -0.192 -0.034 -0.264 -0.005 -0.166 -0.033 -0.367 -0.021 0.011 -0.047 0.058 -0.027 0.215 0.039 0.192 -0.044 0.365 0.022 0.12 -0.033 z M 96.285 -77.027 l -0.032 0.019 -0.044 0.015 -0.118 -0.01 -0.237 0.028 -0.089 -0.016 -0.085 -0.031 -0.317 0.01 -0.094 -0.007 0.15 -0.038 0.433 -0.041 0.674 -0.108 0.033 0.051 -0.001 0.024 -0.137 0.058 z M 89.514 -77.189 l -0.215 0.005 -0.12 -0.026 -0.038 -0.017 0.059 -0.045 0.081 -0.029 0.335 -0.01 0.063 0.031 -0.014 0.026 z M 74.661 -72.873 l -0.022 0.01 -0.05 -0.017 -0.153 -0.027 -0.254 -0.068 -0.08 -0.046 0.042 -0.053 0.056 -0.035 0.21 -0.021 0.191 0.009 0.125 0.014 0.236 0.046 -0.219 0.03 -0.095 0.064 0.013 0.04 0.037 0.022 z M 75.504 -73.457 l -0.159 0.024 0.031 -0.045 0.195 -0.063 0.36 -0.033 0.109 0.014 0.012 0.011 -0.151 0.068 -0.074 0.022 z M 83.549 -74.072 l -0.053 0.023 -0.046 -0.003 -0.039 0.012 -0.252 -0.036 -0.341 -0.016 0.085 -0.037 0.247 -0.023 0.364 0.029 0.105 0.033 z M 67.345 -69.53 l -0.081 0.087 -0.166 -0.005 -0.051 -0.02 -0.021 -0.016 0.19 -0.092 0.113 0.003 z M 66.561 -70.542 l 0.008 0.04 -0.053 -0.013 -0.067 -0.046 -0.041 -0.055 -0.013 -0.112 0.023 -0.03 0.022 -0.016 0.023 0.003 -0.005 0.071 z M 70.021 -66.502 l -0.176 0.012 -0.193 -0.076 -0.182 -0.151 0.033 -0.035 0.114 0.012 0.184 0.003 0.117 0.025 0.159 0.016 -0.019 0.069 0 0.028 0.053 0.03 -0.051 0.052 z M 50.052 -80.074 l -0.081 0.014 -0.383 -0.075 -0.032 -0.023 0.328 -0.071 0.367 0.011 0.059 0.034 0.009 0.013 -0.247 0.063 z M 51.409 -79.944 l 0.026 0.012 -0.004 0.011 -0.355 -0.011 -0.622 0.008 -0.363 -0.056 0.381 -0.055 0.203 -0.013 0.261 -0.046 0.318 0.046 -0.017 0.038 0.005 0.019 0.084 0.019 z M 50.754 -81.047 l -0.138 0.006 -0.098 -0.004 -0.106 -0.039 -0.034 -0.018 -0.009 -0.02 0.096 -0.004 0.041 -0.018 0.016 -0.014 0.07 -0.011 0.124 -0.001 0.163 0.02 0.068 0.043 -0.157 0.036 z M 55.48 -80.274 l -0.285 0.047 -0.147 -0.002 -0.069 -0.028 0.112 -0.039 0.148 -0.03 0.113 0.008 0.082 0.015 z M 54.415 -80.473 l -0.139 0.051 -0.464 -0.055 0.038 -0.028 0.05 -0.012 0.001 -0.027 -0.043 -0.021 0.018 -0.042 0.3 0.031 0.029 0.013 0.202 0.022 0.03 0.041 z M 59.689 -79.956 l -0.358 0.033 -0.128 -0.01 -0.033 -0.015 -0.069 -0.016 -0.181 -0.02 0.027 -0.058 0.055 -0.012 0.543 -0.065 0.257 0.036 0.109 0.088 z M 58.622 -81.042 l 0.139 0.051 0.054 0.057 0.087 0.036 0.028 0.066 -0.071 0.052 -0.218 0.011 -0.356 0.003 -0.348 -0.028 -0.188 -0.096 -0.345 -0.026 -0.194 -0.102 0.199 -0.03 0.246 0.015 0.393 -0.087 0.053 0.004 0.088 0.02 0.318 0.033 z M 47.983 -45.488 l -0.015 0.018 -0.047 -0.092 -0.003 -0.056 0.03 -0.029 0.04 0.093 z M 50.265 -69.186 l 0.018 0.097 -0.062 0.04 -0.056 0.011 -0.024 -0.061 -0.047 -0.027 -0.173 0.072 -0.081 0.079 -0.214 0.114 -0.446 0.081 -0.27 0.035 -0.243 0.01 -0.228 -0.072 -0.123 -0.138 -0.021 -0.042 -0.016 -0.056 0.001 -0.056 0.016 -0.087 0.024 -0.085 0.094 -0.076 0.217 -0.09 0.214 -0.059 0.108 -0.015 0.272 -0.002 0.771 0.202 0.171 0.052 z M 63.374 -80.7 l -0.186 0.002 -0.185 -0.015 -0.242 -0.05 -0.24 -0.059 0.072 -0.031 0.227 -0.041 0.296 -0.073 0.499 -0.014 0.241 0 0.24 -0.017 0.07 -0.037 0.045 -0.071 0.045 -0.038 0.054 -0.031 0.265 -0.023 0.227 0.001 0.226 0.028 0.144 0.025 0.138 0.048 0.072 0.04 -0.022 0.049 0.012 0.04 0.065 0.037 -0.44 0.112 -0.449 0.063 z M 57.956 -80.123 l -0.156 0.019 -0.408 -0.035 -0.06 -0.019 -0.051 -0.036 -0.067 -0.134 -0.002 -0.04 -0.025 -0.028 -0.103 -0.049 -0.072 -0.023 0.064 -0.026 0.447 0.019 0.958 0.011 0.491 0.049 0.144 0.027 0.14 0.045 -0.858 0.024 -0.114 0.021 0.002 0.05 -0.03 0.046 -0.092 0.005 z M 62.168 -80.835 l 0.06 0.04 -0.036 0.064 -0.077 0.047 -0.039 0.067 -0.307 0.016 -0.088 0.015 -0.084 0.051 -0.312 0.03 -0.234 0.086 -0.329 -0.016 -0.444 -0.06 -0.378 0.048 -0.25 0.015 -0.303 -0.074 -0.042 -0.017 -0.016 -0.051 0.018 -0.045 0.08 -0.095 0.109 -0.054 0.054 -0.017 0.043 -0.033 0.124 -0.02 0.379 -0.012 0.14 0.011 0.043 0.036 0.204 -0.003 0.339 -0.022 0.493 -0.036 0.284 -0.03 0.253 0.007 0.252 0.019 z M 61.141 -80.95 l -0.314 0.021 -0.506 -0.026 -0.263 -0.029 0.02 -0.015 0.069 -0.017 0.439 -0.071 0.871 -0.016 0.11 0.054 -0.095 0.039 z M 53.521 -80.185 l -0.665 0.012 -0.22 -0.006 -0.029 -0.012 -0.057 -0.011 -0.207 -0.011 -0.13 -0.05 0.057 -0.013 0.306 -0.021 0.104 -0.022 0.035 -0.029 0.138 -0.055 0.332 -0.01 0.144 0.01 0.017 0.036 0.14 0.043 0.366 0.055 -0.074 0.04 -0.125 0.006 z M 57.079 -80.351 l 0.044 0.034 -0.004 0.123 -0.046 0.055 0.007 0.045 -0.093 0.023 -0.786 -0.005 -0.389 -0.011 -0.088 -0.018 0.218 -0.059 0.07 -0.041 -0.022 -0.116 0.035 -0.021 0.631 0.011 0.052 -0.033 0.237 -0.003 z M 57.81 -81.546 l 0.052 0.04 0.154 0.023 0.419 0.02 0.128 0.046 -0.192 0.031 -0.513 0.019 0.053 0.065 0.103 0.048 -0.102 0.057 -0.143 0.028 -0.319 0.034 -0.292 -0.043 -0.338 -0.059 -0.153 0.04 -0.157 0.023 -0.149 -0.003 -0.172 -0.045 -0.475 0.035 -0.144 -0.04 -0.107 -0.083 0.316 -0.018 0.375 0.026 0.248 -0.084 0.314 -0.036 0.254 -0.087 0.118 -0.031 0.274 0.006 0.091 -0.008 0.26 -0.022 z M 54.719 -81.116 l 0.752 0.096 0.699 -0.009 0.302 0.031 0.437 0.085 0.658 0.093 0.126 0.027 -0.114 0.037 -0.766 0.092 -0.499 0.031 -0.432 0.004 -0.171 -0.009 -0.172 -0.066 -0.423 -0.049 -0.449 0.013 -0.045 -0.027 -0.091 -0.018 -0.157 -0.004 -0.309 -0.027 -0.021 -0.058 0.195 -0.03 0.127 -0.002 0.05 -0.083 0.217 -0.127 z M 63.651 -81.609 l -0.122 0.013 -0.644 -0.012 -0.312 -0.024 -0.042 -0.014 -0.016 -0.012 -0.409 -0.02 0.178 -0.027 0.511 -0.012 0.915 0.032 0.058 0.023 0.015 0.014 z M 58.295 -81.715 l -0.331 0.02 -0.044 -0.015 -0.011 -0.011 0.036 -0.026 0.04 -0.049 0.15 -0.031 1.127 -0.026 0.147 0.029 -0.052 0.044 0 0.022 z M 92.683 -79.685 l -0.243 0.01 -0.287 -0.009 -0.47 -0.106 -0.307 -0.045 -0.25 -0.069 -0.056 -0.077 0.159 -0.049 0.197 -0.019 0.326 -0.003 0.421 0.007 0.419 0.049 0.889 0.055 0.322 0.037 -0.2 0.088 -0.221 0.033 -0.227 0.046 -0.229 0.033 z M 91.567 -81.141 l -0.344 0.077 -1.247 -0.049 -0.056 -0.036 -0.018 -0.022 0.169 -0.043 1.039 0.015 0.369 0.015 z M 141.01 -73.999 l -0.503 0.081 -0.098 -0.003 -0.226 -0.083 -0.082 -0.18 0.092 -0.052 0.107 -0.021 0.107 -0.009 0.442 -0.007 0.095 0.009 0.094 0.022 0.041 0.033 0.018 0.042 -0.051 0.117 z M 142.185 -73.896 l 0.25 0.044 0.204 0.048 0.705 0.234 0.067 0.048 0.053 0.062 0.027 0.212 -0.04 0.015 -0.258 0.011 -0.352 -0.024 -0.255 -0.008 -0.245 0 -0.216 -0.029 -0.53 -0.029 -0.414 -0.078 -0.429 -0.057 -0.091 -0.006 -0.27 0.017 -0.366 0.074 -0.102 0.006 -0.14 0 -0.1 -0.071 0.235 -0.023 0.235 -0.009 0.225 -0.025 0.213 -0.082 0.104 -0.065 0.186 -0.148 0.1 -0.054 0.101 -0.034 0.105 -0.011 0.122 0.005 0.37 -0.032 0.25 -0.011 z M 135.949 -75.41 l -0.203 0.028 -0.294 -0.008 0.021 -0.074 0.05 -0.033 0.069 -0.081 -0.031 -0.06 0.017 -0.073 0.035 -0.056 0.085 -0.079 0.09 0.047 0.061 0.069 0.056 0.035 0.223 0.069 0.042 0.02 -0.186 0.084 -0.018 0.036 0.055 0.048 z M 136.197 -73.914 l -0.076 0.029 -0.07 -0.044 -0.337 -0.13 -0.081 -0.062 -0.185 -0.058 -0.046 -0.022 -0.015 -0.052 0.241 0.033 0.408 0.13 0.222 0.105 z M 137.941 -55.093 l 0.091 0.039 0.141 -0.007 0.034 0.027 -0.11 0.043 -0.08 0.09 -0.025 0.08 -0.032 0.032 -0.089 0.039 -0.08 0.053 -0.069 0.034 -0.06 0.01 -0.136 -0.173 -0.063 -0.048 -0.187 0.081 -0.043 0.002 0.042 -0.1 0.109 -0.11 0.051 -0.015 0.108 -0.147 0.034 -0.034 0.333 0.087 z M 169.201 -69.58 l -0.285 0.009 -0.568 -0.093 -0.204 -0.049 -0.152 -0.063 -0.171 -0.044 -0.032 -0.017 0.025 -0.036 0.051 -0.028 0.195 -0.074 0.137 -0.033 0.162 -0.007 1.017 0.133 0.046 0.027 0.013 0.024 -0.015 0.053 -0.086 0.01 -0.033 0.035 -0.036 0.106 -0.018 0.028 z M 163.635 -58.603 l -0.164 0.094 -0.024 -0.015 -0.015 -0.021 -0.005 -0.033 0.15 -0.062 0.15 -0.158 0.058 -0.131 -0.018 -0.043 -0.006 -0.043 0.441 -0.081 0.315 -0.131 0.055 0.006 0.057 0.109 0.032 0.141 -0.046 0.085 -0.337 0.048 -0.319 0.094 z M 166.65 -54.839 l -0.005 0.145 -0.124 -0.074 -0.058 -0.059 -0.082 -0.011 -0.057 -0.026 -0.095 -0.072 -0.11 -0.094 -0.037 -0.046 -0.016 -0.059 -0.074 -0.055 -0.241 -0.104 0.079 -0.012 0.101 -0.045 0.281 0.027 0.064 0.012 -0.046 0.07 0.018 0.077 0.156 0.16 0.075 0.056 0.098 0.042 z M 154.81 -49.312 l -0.096 0.044 -0.104 -0.026 0.002 -0.087 0.212 -0.266 0.075 0.017 -0.016 0.064 -0.081 0.098 0.028 0.12 z M 156.405 -50.658 l -0.04 0.024 -0.04 -0.005 -0.129 -0.063 -0.028 -0.03 0.045 -0.053 0.163 -0.077 0.079 0.003 0.032 0.017 -0.004 0.092 z M 155.921 -50.302 l -0.129 0.1 -0.185 0.025 -0.091 0.032 -0.067 0.068 -0.052 0.037 -0.108 -0.02 -0.046 -0.033 0 -0.118 -0.048 -0.052 0.023 -0.033 0.108 0.005 0.107 -0.076 0.246 -0.032 0.093 -0.082 0.112 -0.202 0.117 -0.073 0.095 -0.015 0.026 0.101 -0.022 0.112 -0.056 0.108 z M 154.081 -48.79 l -0.038 0.052 -0.042 -0.017 -0.008 -0.017 0.099 -0.06 0.035 -0.072 0.073 0 0.029 0.013 -0.024 0.035 z M 155.645 -50.822 l -0.091 0.011 -0.041 -0.027 -0.029 -0.032 -0.016 -0.044 0.101 -0.021 0.071 0.024 0.014 0.065 z M 153.101 -47.763 l -0.047 0.057 -0.05 -0.007 -0.02 -0.014 0.065 -0.069 0.03 -0.012 z M 152.002 -46.897 l -0.186 0.11 -0.062 -0.001 -0.031 -0.04 -0.008 -0.024 0.149 -0.016 0.175 -0.146 0.126 -0.095 0.069 -0.033 0.054 0.001 z M 149.688 -45.642 l -0.149 0.051 -0.092 -0.002 0.219 -0.246 0.13 -0.036 0.166 -0.146 0.346 -0.178 0.04 -0.013 0.204 0.005 -0.319 0.196 -0.04 0.079 -0.138 0.084 -0.103 0.027 -0.071 0.039 z M 148.6 -45.318 l -0.185 0.07 -0.152 0.03 -0.257 0.147 -0.092 0.08 -0.13 0.032 -0.126 -0.019 -0.036 0.032 -0.012 0.058 -0.046 0.051 -0.253 0.158 -0.103 0.124 -0.109 0.022 -0.201 0.127 0.036 -0.109 0.041 -0.053 0.167 -0.098 0.014 -0.103 0.092 -0.09 0.184 -0.089 0.127 -0.117 0.1 -0.031 0.112 -0.098 0.116 -0.035 -0.013 -0.075 0.051 -0.083 0.041 0.006 0.092 0.116 0.074 0.004 0.194 -0.024 0.288 -0.202 0.094 -0.036 0.066 -0.006 0.04 0.016 0.014 0.024 -0.001 0.03 -0.022 0.042 0.034 0.051 -0.046 0.039 z M 146.714 -43.744 l -0.031 0.027 -0.074 -0.024 0.005 -0.057 0.008 -0.016 0.203 -0.048 0.059 0.031 0.015 0.025 z M 146.208 -44.498 l 0.148 0.073 0.212 -0.016 -0.052 0.066 -0.08 -0.001 -0.14 0.095 -0.123 0.012 -0.061 0.023 -0.198 0.142 -0.027 0.056 -0.12 0.107 -0.18 0.096 -0.031 0.181 -0.117 -0.072 -0.013 -0.073 0.036 -0.061 0.205 -0.128 0.082 -0.072 0.025 -0.057 0.079 -0.064 0.038 -0.056 0.05 -0.024 0.172 -0.227 z M 113.387 -74.4 l -0.034 0.047 -0.054 0.036 -0.04 0.044 -0.069 0.033 -0.213 0.042 -0.166 0.094 -0.029 0.008 -0.587 -0.051 -0.091 -0.017 -0.193 -0.056 -0.269 -0.054 -0.14 -0.08 0.067 -0.015 0.067 -0.006 0.242 0.01 0.069 -0.025 0.034 -0.068 0.007 -0.04 0.018 -0.031 0.077 -0.022 0.867 0.069 0.334 0.039 z M 76.249 -79.651 l 0.124 0.036 0.095 -0.028 0.893 0.086 0.189 0.032 0.04 0.023 -0.779 0.012 -0.161 -0.004 -0.013 -0.051 -0.179 -0.001 -0.304 -0.033 -0.082 -0.047 -0.02 -0.019 0.097 -0.02 z M 80.027 -80.848 l -0.928 0.036 -0.092 -0.023 -0.029 -0.013 0.132 -0.075 0.108 -0.037 0.589 -0.015 0.473 0.026 0.148 0.022 -0.055 0.045 -0.029 0.015 z M 70.674 -73.095 l -0.294 0.047 -0.082 0.004 -0.18 -0.012 -0.078 0.019 -0.121 -0.047 0.01 -0.042 0.055 -0.043 0.033 -0.055 -0.023 -0.135 0.154 -0.085 0.2 -0.033 0.59 -0.037 0.083 0.01 0.118 0.026 0.09 0.03 0.12 0.076 0.094 0.03 0.145 0.059 0.041 0.058 -0.004 0.051 -0.271 0.012 -0.469 0.043 z M 77.633 -72.291 l -0.487 0.009 -0.24 -0.016 -0.035 -0.019 0.032 -0.049 0.246 -0.074 0.111 -0.047 0.117 -0.079 0.201 -0.066 0.17 0 0.531 0.078 0.074 0.049 0.012 0.022 -0.211 0.065 -0.147 0.025 -0.226 0.084 z M 79.501 -72.722 l -0.071 0.011 -0.55 -0.041 -0.19 -0.052 -0.057 -0.047 0.024 -0.042 0.507 -0.202 0.192 0.056 0.056 0.056 0.129 0.064 -0.003 0.149 z M 82.172 -75.419 l 0.036 0.032 0.013 0.036 -0.042 0.012 -0.129 -0.002 -0.072 0.094 -0.073 -0.016 -0.045 -0.054 -0.163 0.036 -0.043 -0.008 -0.075 -0.042 -0.047 -0.009 -0.032 -0.028 0.212 -0.083 0.13 0.044 0.084 -0.003 -0.017 -0.05 0.003 -0.038 0.109 -0.016 0.144 -0.002 z M 60.45 -69.935 l 0.03 0.049 -0.003 0.092 -0.037 0.068 -0.113 0.011 -0.111 0.028 -0.19 -0.029 -0.107 0.02 -0.107 0.001 -0.088 -0.011 -0.088 -0.015 -0.059 -0.018 0.003 -0.052 -0.079 -0.075 -0.121 -0.024 -0.113 -0.008 -0.124 -0.023 -0.062 0.011 -0.079 0.027 -0.051 -0.009 -0.273 -0.158 -0.046 -0.037 -0.029 -0.041 -0.037 -0.026 -0.095 -0.111 0.047 -0.051 0.095 -0.033 0.063 -0.009 0.116 -0.073 0.211 -0.032 0.043 0.005 0.04 0.023 0.222 0.075 0.116 0.051 0.103 0.062 0.107 0.052 0.32 0.089 0.216 0.085 0.22 0.06 z M 20.958 -55.279 l -0.098 0.095 -0.265 0.201 0.083 0.027 0.096 0.009 0.113 0.038 0.108 0.007 0.193 -0.033 0.034 -0.173 0.013 -0.156 0.062 0 0.092 -0.011 0.058 0.041 0.108 0.039 0.128 0.035 0.191 0.06 0.198 0.037 0.066 0.004 0.208 -0.005 0.221 0.005 0.06 0.088 0.109 0.042 0.088 0.058 0.007 0.033 -0.122 0.206 -0.025 0.07 -0.005 0.07 0.044 0.087 0.042 0.049 -0.034 0.007 -0.563 -0.01 -0.534 -0.017 -0.494 -0.015 -0.476 -0.015 -0.457 -0.014 -0.284 -0.013 -0.28 -0.013 -0.04 -0.012 0.154 -0.086 0.1 -0.089 0.085 -0.116 0.009 -0.08 0.021 -0.091 0.133 -0.035 0.289 0.005 0.124 -0.044 0.159 -0.108 0.167 -0.129 0.054 -0.055 z M 33.594 -46.096 l 0.06 -0.05 0.006 -0.073 0.147 0.011 0.22 0.102 0.102 0.017 0.096 -0.011 0.13 0.039 0.096 0.096 0.073 -0.011 0.164 0 0.107 0.085 0.006 0.102 0.147 0.062 0.055 -0.005 0.021 0.032 0.237 0.254 0.114 0.093 0.084 0.037 0.1 0.005 0.193 -0.078 0.083 -0.012 0.179 0.03 0.064 -0.052 0.093 -0.029 0.12 -0.004 0.137 0.023 0.148 0.04 -0.061 0.09 -0.063 0.071 -0.022 0.079 -0.035 0.088 -0.163 0.039 -0.175 -0.005 -0.185 0.025 -0.067 -0.034 -0.044 -0.031 -0.082 -0.031 -0.108 -0.017 -0.097 0.021 -0.115 0.12 -0.203 0.082 -0.067 0.094 -0.2 -0.021 -0.171 0.016 -0.247 0.085 -0.188 0.183 -0.207 0.115 -0.164 0.036 -0.154 -0.011 -0.1 -0.034 -0.205 -0.12 0.012 -0.043 0.029 -0.022 0.039 -0.062 0.082 -0.227 -0.011 -0.074 -0.046 -0.116 -0.163 -0.09 -0.131 0.017 -0.075 -0.024 -0.268 -0.153 -0.146 -0.011 -0.161 0.031 -0.059 -0.022 -0.044 -0.053 0.32 -0.189 0.314 -0.156 0.138 -0.016 0.186 -0.073 0.199 -0.109 -0.028 -0.086 z" vector-effect="non-scaling-stroke" fill="#000" fill-opacity="1" stroke="#FFF" stroke-width="0px" stroke-linejoin="round" stroke-linecap="round"/></svg>
