<svg xmlns="http://www.w3.org/2000/svg" xmlns:xlink="http://www.w3.org/1999/xlink" height="400" width="400" viewBox="28.8576171875 1.06308593750001 2.01894531249999 1.74550781249999"><path d="M 29.577 1.388 l 0.033 -0.001 0.216 -0.052 0.021 0.016 0.035 0.1 0.018 0.015 0.03 0.004 0.06 -0.023 0.111 -0.078 0.048 -0.048 0.057 -0.067 0.073 -0.075 0.041 -0.066 0.04 -0.038 0.052 -0.012 0.058 0.003 0.04 0.001 -0.033 0.016 -0.007 0.048 0.038 0.077 0.124 0.159 0.079 0.029 0.051 0.062 0.05 0.104 0.015 0.131 -0.021 0.157 0.012 0.117 0.046 0.077 0.012 0.099 -0.022 0.122 -0.026 0.073 -0.031 0.024 -0.035 0.009 -0.048 -0.008 -0.058 0.01 -0.063 0.023 -0.04 0.003 -0.025 -0.004 -0.047 -0.02 -0.074 -0.063 -0.138 0.035 -0.037 -0.001 -0.05 0.03 -0.041 0.037 -0.025 0.003 -0.025 -0.005 -0.118 -0.074 -0.043 0.002 -0.018 0.209 -0.02 0.116 -0.024 0.052 -0.085 0.05 -0.085 0.028 -0.047 -0.002 -0.188 0.016 -0.073 0 -0.04 -0.017 -0.053 -0.118 -0.1 -0.053 -0.096 -0.025 -0.039 0.007 -0.035 0.062 -0.014 0.056 -0.093 -0.038 -0.028 -0.047 -0.003 -0.079 -0.034 -0.109 0 -0.001 0.052 -0.013 0.084 -0.073 0.053 -0.005 0.029 -0.01 0.035 -0.042 0.037 -0.026 0.091 -0.115 0.016 -0.032 0.027 -0.035 0.055 -0.037 0.02 -0.042 -0.069 -0.156 -0.039 -0.124 -0.028 -0.05 0.047 -0.064 0.083 -0.104 0.05 -0.01 0.066 -0.039 0.07 -0.058 z" vector-effect="non-scaling-stroke" fill="#000" fill-opacity="1" stroke="#FFF" stroke-width="0px" stroke-linejoin="round" stroke-linecap="round"/></svg>
