<svg xmlns="http://www.w3.org/2000/svg" xmlns:xlink="http://www.w3.org/1999/xlink" height="400" width="400" viewBox="-38.017431640625 53.98408203125 11.757568359375 4.50820312499999"><path d="M -26.264 58.435 l 0.004 0.057 -0.155 -0.052 -0.036 -0.025 0.05 -0.032 0.098 -0.001 0.024 0.02 z M -37.103 54.066 l 0.097 0.049 0.077 -0.033 0.08 0.004 0.044 0.016 0.045 0.006 0.056 0 0.097 0.082 -0.041 0.072 0.106 -0.014 0.092 0.06 0.042 -0.005 0.021 -0.024 0.059 -0.028 0.041 0.037 0.05 0.072 0.063 0.022 0.056 0.076 0.044 0.096 0.04 0.014 0.068 0 0.069 -0.013 -0.026 0.083 0.008 0.073 0.115 0.053 -0.068 0.029 -0.072 0.042 -0.147 0.033 -0.038 -0.014 -0.128 -0.073 -0.06 -0.086 -0.134 -0.123 -0.026 -0.036 -0.034 -0.023 -0.122 -0.015 -0.107 -0.029 -0.089 -0.062 -0.028 -0.038 -0.034 -0.027 -0.121 0.001 -0.076 -0.029 -0.075 -0.04 -0.34 -0.116 -0.133 0.012 -0.061 -0.033 0.003 -0.058 0.07 -0.035 -0.294 -0.013 -0.105 -0.021 0.072 -0.012 0.41 -0.002 0.154 -0.01 0.013 0.025 0.136 0.051 z" vector-effect="non-scaling-stroke" fill="#000" fill-opacity="1" stroke="#FFF" stroke-width="0px" stroke-linejoin="round" stroke-linecap="round"/></svg>
