<svg xmlns="http://www.w3.org/2000/svg" xmlns:xlink="http://www.w3.org/1999/xlink" height="400" width="400" viewBox="24.14736328125 -12.223095703125 11.12099609375 8.732373046875"><path d="M 33.976 -4.22 l -0.234 0.235 -0.173 0.174 -0.029 0.025 -0.05 0.032 -0.165 0.001 -0.17 -0.02 -0.157 -0.105 -0.159 0.082 -0.101 0.026 -0.06 0.01 -0.142 0.013 -0.199 0.044 -0.09 0.055 -0.049 0.044 -0.04 0.08 -0.02 0.008 -0.037 -0.009 -0.051 -0.032 -0.106 -0.046 -0.054 -0.102 -0.05 -0.061 -0.041 -0.032 -0.169 0.101 -0.082 0.024 -0.067 -0.003 -0.123 -0.057 -0.135 -0.048 -0.07 0 -0.104 0.061 -0.119 0.091 -0.061 0.09 -0.03 0.053 -0.022 -0.043 -0.02 -0.04 -0.04 -0.051 -0.057 -0.02 -0.052 0.01 -0.061 0.01 -0.027 -0.029 -0.006 -0.07 -0.017 -0.064 -0.029 -0.048 -0.088 -0.048 -0.226 -0.098 -0.174 -0.196 -0.087 -0.091 -0.064 -0.059 -0.09 -0.154 -0.103 -0.106 -0.125 -0.049 -0.082 0.024 -0.085 0.113 -0.16 0.106 -0.073 0.004 -0.094 -0.058 -0.118 -0.041 -0.212 -0.018 -0.087 0.05 -0.115 0.082 -0.097 0.049 -0.06 0.006 -0.056 -0.019 -0.064 -0.01 -0.055 -0.002 -0.113 -0.075 -0.059 -0.055 -0.039 -0.053 -0.064 -0.036 -0.075 -0.03 -0.054 -0.047 -0.027 -0.059 -0.042 -0.075 -0.055 -0.068 -0.173 -0.122 -0.052 -0.072 -0.036 -0.07 -0.071 -0.077 -0.076 -0.103 -0.024 -0.151 -0.003 -0.122 -0.016 -0.056 -0.032 -0.056 -0.037 -0.048 -0.061 -0.054 -0.141 -0.078 -0.146 -0.091 -0.07 -0.053 -0.133 -0.019 -0.079 -0.052 -0.067 -0.114 -0.027 -0.091 -0.067 -0.071 -0.029 -0.051 -0.016 -0.059 0.053 -0.18 -0.077 -0.064 -0.115 -0.083 -0.082 -0.09 -0.05 -0.083 -0.148 -0.11 -0.322 -0.164 -0.186 -0.105 -0.102 -0.094 -0.089 -0.092 -0.009 -0.038 0.057 -0.092 0.009 -0.076 -0.047 -0.083 -0.193 -0.157 -0.154 -0.173 -0.117 -0.054 -0.281 -0.048 -0.081 -0.019 -0.084 -0.033 -0.083 -0.078 -0.028 -0.092 0.041 -0.147 -0.026 -0.045 -0.047 -0.012 0.013 -0.031 0.053 -0.072 0.087 -0.046 0.232 -0.073 0.013 -0.028 0.005 -0.092 0.019 -0.045 0.08 -0.127 0.011 -0.051 0.004 -0.108 0.011 -0.051 0.023 -0.036 0.064 -0.063 0.022 -0.038 0.01 -0.083 -0.007 -0.164 0.032 -0.065 0.146 -0.149 0.039 -0.066 0.013 -0.06 -0.001 -0.061 0.009 -0.06 0.043 -0.058 0.037 -0.018 0.108 -0.018 0.073 0.011 0.513 -0.102 0.06 0.014 0.027 0.06 -0.002 0.096 0.009 0.047 0.028 0.033 0.081 0.046 0.056 0.077 0.03 0.028 0.083 0.053 0.382 0.44 0.107 0.042 0.104 -0.015 0.207 -0.091 0.104 -0.023 0.726 0.026 0.081 -0.014 0.005 0.002 0.11 0.221 0.053 0.05 0.796 0.003 -0.015 -0.063 0.01 -0.07 0.093 -0.09 0.047 -0.045 0 0 0.02 -0.016 0.123 -0.065 0.12 -0.043 0.231 -0.051 0.084 -0.08 0.046 -0.073 0.002 -0.144 0.03 -0.024 0.055 -0.033 0.267 -0.128 0.045 -0.027 0.472 0.298 0.265 0.236 0.016 0.011 0.014 0.004 0.014 -0.008 0.012 -0.011 0.019 -0.007 0.013 -0.003 0.113 -0.003 0.214 -0.012 0.07 -0.028 0.43 -0.422 0.109 -0.135 0.028 -0.027 0.062 -0.096 0.066 -0.165 0.013 -0.019 0.471 -0.395 0.017 -0.031 0.005 -0.025 -0.071 -0.133 -0.015 -0.068 -0.003 -0.104 0.014 -0.162 -0.005 -0.102 -0.002 -0.012 -0.005 -0.016 -0.003 -0.006 -0.263 -0.291 0.664 -0.003 0.002 -0.024 -0.001 -0.013 -0.002 -0.012 -0.013 -0.035 -0.007 -0.046 0 -0.013 0.001 -0.013 0.004 -0.024 0 -0.013 -0.001 -0.006 -0.001 -0.006 0 -0.005 0.003 -0.004 0.477 0.006 -0.006 0.082 -0.058 0.193 0.001 0.116 -0.014 0.132 -0.003 0.011 -0.013 0.029 -0.011 0.016 -0.013 0.016 -0.004 0.006 -0.004 0.01 0 0.015 0.099 0.741 -0.004 0.019 -0.004 0.012 -0.026 0.046 -0.007 0.015 -0.001 0.012 0.011 0.008 0.22 0.08 0.011 0.005 0.008 0.007 0.079 0.095 0.433 0.352 0.015 0.018 0.045 0.11 0.005 0.017 0.002 0.026 -0.001 0.021 -0.011 0.066 0.004 0.03 0.007 0.02 0.006 0.023 0 0.007 -0.001 0.006 -0.003 0.011 -0.064 0.128 -0.021 0.091 -0.006 0.076 0.004 0.044 0.007 0.028 0.003 0.007 0.003 0.005 0.003 0.003 0.003 0.001 0.186 0.001 0.001 0 -0.001 0.041 0.007 0.202 0.006 0.177 0.011 0.289 0 0.075 -0.007 0.094 -0.022 0.037 -0.053 0.053 -0.066 0.049 -0.168 0.012 -0.14 -0.001 -0.1 -0.011 -0.136 -0.004 -0.128 0.01 -0.047 0.041 -0.069 0.145 -0.1 0.211 -0.053 0.089 -0.014 0.052 0.016 0.031 0.066 0.045 0.145 0.063 0.166 0.037 0.124 0.016 0.085 0.017 0.065 0.019 0.236 0.161 0.075 0.075 0.042 0.067 0.01 0.071 0.034 0.071 0.136 0.141 0.079 0.082 0.205 0.104 0.078 0.119 0.076 0.058 0.072 0.062 0.039 0.092 0.089 0.268 0.06 0.14 0.061 0.115 0.025 0.187 0.048 0.083 0.05 0.102 0.083 0.092 0.088 0.07 0.016 0.019 -0.184 0.18 -0.206 0.202 -0.238 0.234 -0.26 0.255 -0.203 0.202 z" vector-effect="non-scaling-stroke" fill="#000" fill-opacity="1" stroke="#FFF" stroke-width="0px" stroke-linejoin="round" stroke-linecap="round"/></svg>
