<svg xmlns="http://www.w3.org/2000/svg" xmlns:xlink="http://www.w3.org/1999/xlink" height="400" width="400" viewBox="34.6162109375 -32.12451171875 21.0248046875 15.752734375"><path d="M 36.902 -25.383 l -0.026 0 -0.07 -0.068 -0.041 -0.05 -0.042 -0.033 -0.192 -0.068 -0.026 -0.044 0.029 -0.044 0.021 0.043 0.035 0.026 0.159 0.061 0.177 0.133 0.03 0.011 z M 41.988 -16.716 l 0.077 0.006 -0.032 -0.032 -0.007 -0.016 0.034 -0.046 0.11 0.095 -0.003 0.112 -0.009 0.026 -0.03 -0.024 -0.019 -0.024 -0.006 -0.025 -0.031 -0.028 -0.108 0.018 -0.067 -0.031 -0.096 -0.094 -0.025 -0.068 0.04 -0.013 0.042 -0.033 0.027 -0.054 -0.025 -0.056 0.057 0.009 0.031 0.057 0.006 0.13 0.009 0.028 -0.016 0.03 z M 51.978 -18.996 l -0.235 0.032 -0.228 0.031 -0.257 0.035 -0.308 0.042 -0.242 0.033 -0.353 0.048 -0.316 0.043 -0.297 0.04 -0.297 0.04 -0.253 0.034 -0.15 0.04 -0.177 0.087 -0.272 0.133 -0.277 0.135 -0.144 0.07 -0.15 0.18 -0.076 0.091 -0.138 0.165 -0.104 0.124 -0.124 0.148 -0.054 0.132 -0.084 0.204 -0.072 0.051 -0.118 0.066 -0.108 0.047 -0.168 -0.007 -0.096 -0.126 -0.101 -0.133 -0.051 -0.053 -0.046 -0.003 -0.169 0.017 -0.203 0.02 -0.24 -0.022 -0.276 -0.025 -0.259 -0.024 -0.129 -0.018 -0.17 -0.086 -0.044 -0.017 -0.045 -0.004 -0.202 -0.002 -0.2 -0.002 -0.2 0.027 -0.192 -0.01 -0.199 0.016 -0.07 0.033 -0.078 -0.002 -0.049 0.029 -0.043 0.014 -0.051 -0.025 -0.062 0.005 -0.091 -0.021 -0.06 -0.056 -0.056 -0.05 -0.058 -0.027 -0.065 -0.017 -0.056 0 -0.072 0.03 -0.044 0.029 -0.111 0.097 -0.005 0.035 0.051 0.058 -0.016 0.027 -0.065 0.034 -0.02 0.092 -0.01 0.051 -0.01 0.12 0.029 0.095 0.039 0.035 0.002 0.041 -0.021 0.082 -0.06 0.025 -0.044 0.078 -0.027 0.036 -0.047 0.041 -0.187 0.137 -0.009 -0.08 -0.059 -0.118 -0.004 -0.083 -0.028 -0.084 -0.051 -0.064 -0.095 -0.067 -0.009 -0.091 -0.069 -0.09 -0.092 -0.073 -0.051 -0.134 -0.038 -0.178 -0.242 -0.234 -0.302 -0.216 -0.092 -0.122 -0.15 -0.248 -0.076 -0.196 -0.202 -0.226 -0.009 -0.087 -0.03 -0.106 -0.047 -0.118 -0.028 -0.093 -0.203 -0.408 -0.065 -0.065 -0.056 -0.091 -0.015 -0.071 -0.018 -0.039 -0.143 -0.067 -0.134 -0.171 -0.402 -0.272 -0.197 -0.027 -0.156 -0.097 -0.115 -0.127 -0.122 -0.219 -0.215 -0.237 -0.183 -0.336 0.057 -0.122 -0.004 -0.086 -0.056 -0.145 -0.061 -0.112 -0.042 -0.106 0.033 -0.152 0.013 -0.17 0.036 -0.09 0.026 -0.099 -0.034 -0.199 -0.061 -0.107 0.006 -0.071 -0.069 -0.035 -0.056 -0.077 0.058 0 -0.106 -0.107 -0.039 -0.06 -0.04 -0.146 -0.051 -0.111 -0.164 -0.252 -0.078 -0.154 -0.175 -0.199 -0.19 -0.147 -0.121 -0.067 -0.058 -0.061 -0.099 -0.002 -0.108 -0.087 -0.075 -0.003 -0.095 -0.014 -0.112 -0.167 -0.092 -0.157 -0.158 -0.204 0.04 -0.053 0.046 -0.087 -0.023 -0.113 -0.025 -0.077 -0.07 -0.14 -0.228 -0.35 -0.061 -0.051 -0.097 -0.059 -0.06 -0.152 -0.027 -0.136 -0.156 -0.066 -0.269 -0.49 -0.156 -0.171 -0.062 -0.115 -0.18 -0.189 -0.089 -0.188 -0.182 -0.174 -0.158 -0.301 -0.243 -0.301 -0.102 -0.052 -0.251 -0.022 -0.105 -0.022 -0.097 0.066 -0.009 -0.084 0.067 -0.116 0.097 -0.243 0.019 -0.213 0.152 -0.633 0.213 0.033 0.175 0.027 0.256 0.039 0.265 0.041 0.155 0.024 0.053 -0.01 0.214 -0.155 0.193 -0.14 0.116 -0.171 0.112 -0.166 0.051 -0.034 0.172 -0.031 0.272 -0.049 0.27 -0.049 0.021 -0.017 0.063 -0.133 0.08 -0.169 0.016 -0.018 0.02 -0.017 0.193 -0.094 0.117 -0.057 -0.167 -0.169 -0.158 -0.16 -0.176 -0.179 -0.15 -0.139 -0.224 -0.208 -0.147 -0.136 0.257 -0.065 0.278 -0.07 0.28 -0.07 0.338 -0.085 0.264 -0.066 0.394 -0.099 0.193 -0.048 0.035 -0.013 0.148 -0.117 0.223 0.033 0.335 0.049 0.324 0.048 0.342 0.056 0.11 0.046 0.329 0.168 0.214 0.109 0.25 0.127 0.313 0.159 0.215 0.109 0.275 0.14 0.214 0.16 0.271 0.203 0.298 0.223 0.245 0.173 0.338 0.238 0.333 0.235 0.326 0.23 0.261 0.184 0.33 0.233 0.026 0.009 0.334 0.027 0.449 0.036 0.451 0.036 0.407 0.032 0.175 -0.033 0.193 0.022 0.257 0.029 0.157 0.019 0.294 0.037 0.088 0.152 0.032 0.106 0.03 0.104 0.088 0.095 0.201 -0.002 0.178 -0.002 0.219 -0.003 0.174 -0.002 0.056 0.094 0.025 0.094 0.103 0.222 0.147 0.173 0.035 0.063 0.024 0.095 -0.026 0.035 -0.01 0.041 0.109 0.095 0.18 0.08 0.071 0.02 0.08 0.035 -0.062 0.055 0.106 0.127 0.124 0.13 0.132 0.029 0.179 0.196 0.27 0.127 0.164 0.166 -0.015 0.003 -0.048 -0.017 -0.06 -0.023 -0.018 0.021 0.003 0.07 0.016 0.082 0.083 0.071 0.074 0.051 0.029 0.096 -0.058 0.208 -0.02 0 -0.039 -0.018 -0.042 -0.004 -0.022 0.012 0.049 0.15 0.049 0.115 0.059 0.091 0.049 0.133 0.042 0.057 0.174 0.141 0.053 0.118 0.049 0.22 0.109 0.123 0.059 0.094 0.079 0.08 0.051 0.11 0.073 0.085 0.038 0.021 0.057 0.009 0.071 0.001 0.085 -0.022 0.09 -0.021 0.071 0.043 0.073 -0.006 0.007 0.04 -0.048 0.054 -0.06 0.137 0.085 0.022 0.082 0.011 0.058 0.022 0.034 0 0 0.028 0.004 0.13 0.02 0.049 0.037 0.044 0.055 0.065 0.055 0.066 0.055 0.066 0.055 0.065 0.055 0.065 0.055 0.066 0.055 0.066 0.055 0.065 0.055 0.066 0.055 0.065 0.055 0.066 0.055 0.065 0.055 0.065 0.055 0.066 0.055 0.066 0.055 0.065 0.046 0.054 0.084 0.01 0.027 0.003 0.076 0.009 0.118 0.014 0.153 0.019 0.18 0.022 0.202 0.025 0.216 0.026 0.223 0.027 0.222 0.027 0.216 0.026 0.202 0.025 0.181 0.022 0.153 0.019 0.118 0.014 0.076 0.009 0.027 0.003 0.079 0.01 0.015 -0.002 0.066 -0.08 0.073 0.113 0.061 0.094 0.084 0.129 0.089 0.137 0.085 0.131 0.063 0.098 -0.034 0.101 -0.037 0.111 -0.037 0.111 -0.037 0.111 -0.037 0.111 -0.037 0.111 -0.037 0.111 -0.037 0.111 -0.037 0.111 -0.037 0.111 -0.037 0.111 -0.037 0.111 -0.037 0.111 -0.037 0.111 -0.037 0.111 -0.037 0.111 -0.037 0.111 -0.044 0.133 -0.106 0.035 -0.172 0.057 -0.172 0.057 -0.172 0.057 -0.172 0.057 -0.172 0.057 -0.172 0.057 -0.172 0.057 -0.172 0.057 -0.172 0.057 -0.172 0.057 -0.172 0.057 -0.172 0.057 -0.172 0.057 -0.172 0.057 -0.172 0.057 -0.172 0.057 z M 36.596 -25.713 l -0.009 0.014 -0.042 -0.035 0.003 -0.077 0.036 -0.044 -0.003 0.06 0.016 0.061 z" vector-effect="non-scaling-stroke" fill="#000" fill-opacity="1" stroke="#FFF" stroke-width="0px" stroke-linejoin="round" stroke-linecap="round"/></svg>
