<svg xmlns="http://www.w3.org/2000/svg" xmlns:xlink="http://www.w3.org/1999/xlink" height="400" width="400" viewBox="-17.53564453125 -16.67890625 6.15322265625002 4.35087890625"><path d="M -12.281 -14.809 l 0.094 0.161 -0.02 0.077 -0.022 0.113 0.053 0.082 0.062 0.053 0.045 0.049 0.049 0.068 0.008 0.135 -0.009 0.097 0.032 0.044 0.027 0.055 -0.005 0.046 -0.018 0.041 -0.06 0.054 -0.01 0.101 0.097 0.122 0.063 0.066 -0.001 0.038 0.017 0.042 0.046 0.049 0.028 -0.011 0.031 -0.04 0.014 -0.027 0.084 0.012 0.04 0.013 0.054 0.08 0.02 0.053 0.013 0.067 0.056 0.083 0.049 0.059 0.01 0.037 0.044 0.05 -0.027 0.11 0.003 0.056 -0.03 0.148 -0.006 0.07 0.002 0.026 0.066 0.053 -0.007 0.075 -0.067 -0.013 -0.117 -0.009 -0.234 0.039 -0.08 -0.016 -0.154 0.005 -0.11 0.021 -0.139 0.049 -0.108 -0.012 -0.058 -0.038 -0.077 0.003 -0.087 -0.02 -0.092 -0.037 -0.084 -0.019 -0.091 -0.068 -0.043 -0.012 -0.03 0.018 -0.025 0.023 -0.026 0.014 -0.049 -0.012 -0.019 -0.046 0.015 -0.045 0.005 -0.034 -0.023 -0.019 -0.056 -0.006 -0.09 0 -0.144 -0.014 -0.033 -0.009 -0.323 -0.012 -0.336 -0.001 -0.284 -0.001 -0.359 -0.002 -0.252 -0.001 -0.235 -0.001 -0.182 0.091 -0.197 0.099 -0.265 0.052 -0.305 -0.02 -0.097 0.014 -0.101 0.044 -0.074 0.032 -0.105 0.019 -0.136 -0.016 -0.055 0.01 -0.034 -0.045 -0.039 -0.073 0.025 -0.053 0.083 -0.034 0.124 -0.045 0.065 0.023 0.038 0.001 0.007 -0.029 -0.012 -0.015 -0.094 -0.039 -0.049 -0.051 -0.04 0.03 -0.035 0.063 -0.029 0.019 -0.042 0.018 -0.024 -0.043 -0.01 -0.042 0.019 -0.032 -0.01 -0.181 0.012 -0.096 -0.006 -0.084 0.059 -0.056 0.056 -0.034 0.218 -0.003 0.203 -0.003 0.195 0.002 0.199 0.002 0.02 -0.169 0.063 -0.013 0.094 -0.017 0.175 -0.021 0.196 -0.02 0.042 -0.033 0.032 -0.056 0.021 -0.05 0.04 -0.021 0.055 0.017 0.072 0.026 0.074 0.041 0.085 0.038 0.057 0.024 0.136 0.059 0.233 0.083 0.192 0.033 0.232 -0.061 0.167 -0.039 0.021 -0.073 -0.026 -0.071 -0.125 -0.065 -0.17 0.007 -0.052 0.017 -0.079 0.022 -0.048 0.009 -0.08 -0.015 -0.102 -0.056 -0.064 -0.056 -0.089 -0.026 -0.106 -0.026 -0.17 -0.116 -0.089 -0.021 -0.084 -0.006 -0.161 0.023 -0.157 0.062 -0.083 0.141 -0.158 -0.002 -0.334 -0.004 -0.307 -0.004 -0.254 0.01 -0.025 -0.102 -0.06 -0.081 -0.098 -0.069 -0.022 -0.065 0.033 -0.056 0.094 -0.046 0.021 -0.033 -0.049 0.005 -0.075 0.03 -0.05 0.002 -0.006 -0.089 -0.083 -0.115 -0.093 -0.195 -0.106 -0.08 -0.089 -0.158 -0.093 -0.06 -0.085 -0.028 -0.073 0.006 -0.027 0.072 -0.091 -0.104 0.124 -0.037 0.265 -0.13 0.304 -0.372 0.273 -0.44 0.035 -0.104 0.033 -0.079 0.022 -0.18 0.039 -0.107 0.037 -0.02 0.046 -0.082 0.056 -0.144 0.063 -0.08 0.071 -0.016 0.055 0.007 0.039 0.03 0.115 0.018 0.191 0.007 0.147 -0.021 0.104 -0.05 0.137 -0.025 0.169 -0.001 0.089 -0.021 0.009 -0.041 0.022 -0.012 0.035 0.016 0.033 -0.006 0.031 -0.029 0.031 -0.002 0.031 0.025 0.142 0.008 0.253 -0.01 0.234 0.076 0.214 0.161 0.111 0.108 0.007 0.054 0.036 0.054 0.064 0.055 0.059 0.01 0.053 -0.034 0.042 0.004 0.03 0.042 0.061 0.009 0.068 -0.026 0.049 0.009 0.009 0.025 0.011 0.013 0.033 0.006 0.044 0.032 0.062 0.086 0.051 0.12 0.039 0.153 0.052 0.083 0.064 0.014 0.037 0.032 0.007 0.037 0.019 0.025 0.031 0.014 0.054 -0.008 0.063 0.052 0.068 0.113 0.011 0.051 -0.011 0.027 0.004 0.02 0.045 0.019 0.043 0.037 0.035 0.055 0.076 0.049 0.116 0.043 0.084 0.064 0.051 0.086 0.106 0.072 z" vector-effect="non-scaling-stroke" fill="#000" fill-opacity="1" stroke="#FFF" stroke-width="0px" stroke-linejoin="round" stroke-linecap="round"/></svg>
