<svg xmlns="http://www.w3.org/2000/svg" xmlns:xlink="http://www.w3.org/1999/xlink" height="400" width="400" viewBox="18.8390625 -46.169189453125 4.13779296875001 3.92705078125"><path d="M 21.36 -44.827 l 0.163 0.037 0.074 0.035 0.039 0.045 0.104 0.03 0.169 0.015 0.118 0.046 0.066 0.078 0.108 -0.019 0.15 -0.115 0.147 -0.03 0.144 0.055 0.079 0.045 0.013 0.036 -0.034 0.014 -0.081 -0.007 -0.066 0.022 -0.052 0.051 -0.008 0.054 0.036 0.057 0.051 0.04 0.066 0.022 0.035 0.03 0.005 0.038 0.017 0.01 -0.038 0.018 -0.041 0.026 -0.023 0.046 -0.006 0.073 -0.128 0.057 -0.048 0.011 -0.022 0.038 -0.034 0.107 0.004 0.081 0.017 0.041 0.008 0.033 0.042 0.041 0.038 0.063 0.025 0.083 0.055 0.064 0.142 0.063 0.071 0.037 0.052 0.053 0.04 0.048 0.117 0.064 -0.009 0.046 -0.026 0.045 -0.027 0.021 -0.058 0.058 -0.057 0.033 -0.094 0.102 -0.148 0.005 -0.035 0.008 -0.056 0.028 -0.028 0.051 0.026 0.041 -0.002 0.041 -0.027 0.08 0.036 0.086 0.052 0.039 0.008 0.023 -0.009 0.04 -0.078 0.082 -0.024 0.03 -0.078 0.015 -0.027 -0.008 -0.04 -0.028 -0.037 -0.008 -0.093 0.033 -0.095 0.02 -0.075 -0.015 -0.073 -0.002 -0.051 0.014 -0.038 0.005 -0.075 0.035 -0.121 0.026 -0.056 -0.005 -0.021 -0.033 -0.023 -0.048 0.011 -0.022 0.08 -0.037 0.009 -0.036 0.112 -0.172 0.021 -0.056 0.001 -0.018 -0.029 -0.012 -0.061 0 -0.272 -0.07 0.012 -0.08 -0.08 -0.043 -0.086 -0.039 -0.014 -0.043 -0.096 -0.087 -0.07 -0.049 -0.089 -0.024 -0.077 -0.036 -0.046 -0.022 -0.021 -0.041 0 -0.024 -0.023 -0.023 -0.037 0.002 -0.063 0.032 -0.077 0.028 -0.013 0.02 0.028 0.048 0.02 0.031 -0.009 0.029 -0.025 0.037 -0.149 0.081 -0.017 0.028 0.028 0.046 -0.018 0.021 -0.125 0.03 0.003 -0.025 -0.008 -0.04 -0.071 -0.043 -0.101 -0.033 -0.224 -0.113 -0.086 -0.015 -0.077 -0.013 -0.11 -0.054 -0.057 -0.009 -0.063 -0.039 -0.137 -0.131 -0.116 -0.071 -0.079 -0.036 -0.022 -0.035 -0.005 -0.036 0.003 -0.012 0.06 -0.051 0.046 -0.007 0.06 -0.002 0.039 0.026 0.052 0.006 0.029 -0.033 0.015 -0.048 -0.007 -0.061 -0.124 -0.141 -0.107 -0.099 -0.012 -0.022 0.023 -0.018 0.037 -0.01 0.04 0.008 0.104 0.007 0.1 -0.009 0.034 -0.024 0 -0.032 -0.037 -0.03 -0.117 -0.081 -0.091 -0.071 -0.107 -0.055 -0.08 -0.022 -0.024 -0.028 -0.01 -0.03 0.009 -0.055 0.005 -0.069 0.019 -0.044 0.072 -0.082 0.069 -0.087 0.043 -0.084 0.022 -0.078 -0.008 -0.022 -0.036 -0.017 -0.076 -0.017 -0.105 0.015 -0.089 0.028 -0.035 0.002 -0.012 -0.035 0.014 -0.015 0.028 0.002 0.023 0.007 0.025 -0.016 0.015 -0.047 -0.037 -0.163 0.067 -0.015 0.001 -0.024 0.006 -0.021 0.069 0.028 0.097 0 0.085 -0.006 0.013 -0.016 -0.001 -0.023 -0.018 -0.018 -0.03 -0.015 -0.022 -0.023 -0.057 -0.01 -0.18 -0.059 -0.088 -0.063 0.003 -0.066 0.026 -0.036 0.031 -0.013 -0.009 -0.012 -0.101 -0.031 -0.036 -0.043 0.029 -0.055 -0.053 -0.111 -0.055 -0.069 0.054 -0.03 0.008 -0.042 0.004 -0.024 0.022 0 0.088 -0.028 0.032 -0.023 0.019 -0.027 0.021 -0.007 0.059 0.029 0.062 0.003 0.07 -0.018 0.052 -0.026 0.063 -0.021 0.028 -0.015 0.036 -0.023 0.073 -0.068 0.083 -0.014 0.111 0.017 0.12 0.006 0.09 -0.016 0.227 0.02 0.049 0.016 0.032 0.017 0.06 0.058 0.057 0.075 0.079 0.035 0.095 0.041 0.049 0.03 0.072 0.09 0.057 0.044 0.019 -0.002 0.019 -0.012 0.013 -0.009 0.015 0.008 0.001 0.027 0.004 0.06 -0.013 0.065 0.02 0.061 0 0.019 -0.014 0.017 0.002 0.016 0.02 0.017 0.077 0.04 0.071 0.062 0.082 0.044 0.076 0.028 0.048 0.002 0.079 0.05 0.155 0.036 0.05 0.013 0.034 0.021 0.025 0.024 0.002 0.026 -0.024 0.012 -0.033 0.035 -0.014 0.042 -0.025 0.011 -0.025 0.001 -0.018 0.012 0.004 0.018 0.021 0.017 0.032 0.016 0.062 0.016 0.061 0.023 -0.001 0.018 -0.012 0.02 -0.078 0.007 -0.058 0.003 -0.026 0.008 z" vector-effect="non-scaling-stroke" fill="#000" fill-opacity="1" stroke="#FFF" stroke-width="0px" stroke-linejoin="round" stroke-linecap="round"/></svg>
