<svg xmlns="http://www.w3.org/2000/svg" xmlns:xlink="http://www.w3.org/1999/xlink" height="400" width="400" viewBox="-13.29267578125 -9.996533203125 3.00947265624998 3.08999023437501"><path d="M -10.283 -8.485 l -0.003 0.031 -0.029 0.143 -0.045 0.123 -0.03 0.03 -0.127 0.032 -0.054 0.054 -0.047 0.175 -0.03 0.137 -0.044 0.023 -0.187 0.198 -0.122 0.075 -0.085 0.064 -0.081 0.084 -0.102 0.082 -0.109 0.138 -0.078 0.143 -0.053 0.045 -0.04 -0.04 -0.186 -0.142 -0.196 -0.095 -0.417 -0.158 -0.139 -0.044 0.005 -0.056 0.048 -0.103 -0.078 -0.121 0.03 -0.088 -0.03 0 -0.06 0.053 -0.127 -0.015 -0.084 -0.075 -0.069 -0.028 -0.03 -0.038 -0.044 -0.199 -0.032 -0.09 -0.064 -0.056 -0.128 -0.014 -0.053 -0.121 -0.071 -0.094 0.012 -0.058 0.058 0.003 0.045 0.042 0.073 0.018 0.091 -0.102 0.081 -0.055 0.019 -0.048 -0.01 -0.026 -0.049 0.041 -0.135 -0.011 -0.033 0.037 -0.06 0.012 -0.047 -0.119 0.002 -0.07 0.019 -0.077 0.136 -0.013 0.012 -0.025 -0.094 -0.017 -0.118 -0.09 -0.021 -0.062 0.058 -0.021 0.056 0.009 0.048 0.013 0.053 -0.022 0.049 -0.034 0.029 -0.043 0.04 -0.116 0.128 -0.039 0.075 -0.071 0.071 -0.111 0.033 -0.078 0.029 -0.039 0.019 -0.034 0.014 -0.037 0.032 -0.034 0.033 -0.082 0.023 -0.075 0.073 -0.036 0.15 -0.032 0.135 0.054 0.22 -0.047 0.012 -0.07 0.201 -0.001 0.238 -0.001 0.198 -0.001 0.068 0.019 0.025 0.052 0.065 0.082 0.068 0.057 0.084 0.125 0.098 0.145 0.106 0.131 0.068 0.071 0.008 0.025 -0.005 0.028 -0.034 0.067 -0.029 0.072 0.003 0.027 0.02 0.014 0.111 0.023 0.01 0.08 0 0.111 0.054 0.104 0.051 0.076 -0.003 0.027 -0.125 0.13 -0.049 0.129 -0.025 0.036 -0.01 0.029 0.025 0.014 0.034 -0.009 0.049 0.011 0.046 0.004 0.061 -0.046 0.102 -0.119 0.034 -0.015 z M -12.526 -7.436 l -0.015 0.026 -0.067 -0.064 -0.344 -0.096 0.097 -0.051 0.239 -0.015 0.071 0.03 0.032 0.025 0.012 0.047 z" vector-effect="non-scaling-stroke" fill="#000" fill-opacity="1" stroke="#FFF" stroke-width="0px" stroke-linejoin="round" stroke-linecap="round"/></svg>
