<svg xmlns="http://www.w3.org/2000/svg" xmlns:xlink="http://www.w3.org/1999/xlink" height="400" width="400" viewBox="16.8626953125 -49.597705078125 5.67597656249998 1.83427734375"><path d="M 22.539 -49.073 l -0.015 0.041 -0.041 0.048 -0.051 0.05 -0.043 0.06 -0.057 0.128 -0.037 0.059 -0.152 0.117 -0.011 0.163 -0.021 0.012 -0.344 0.055 -0.046 -0.008 -0.047 -0.032 -0.026 -0.023 -0.016 -0.017 -0.03 -0.045 -0.039 -0.032 -0.058 -0.026 -0.053 -0.03 -0.069 -0.001 -0.186 0.043 -0.129 0.005 -0.086 -0.014 -0.115 -0.026 -0.223 -0.004 -0.153 0.023 -0.015 0.032 -0.141 0.2 -0.205 0.074 -0.178 0.075 -0.052 0.015 -0.089 -0.024 -0.101 -0.045 -0.084 -0.023 -0.061 0.01 -0.067 0.051 -0.03 0.051 -0.202 0.038 -0.351 0.022 -0.122 0.051 -0.042 0.061 -0.002 0.047 0.03 0.04 -0.037 0.046 -0.016 0.019 -0.248 0.01 -0.331 0.014 -0.198 -0.003 -0.186 -0.003 -0.127 -0.04 -0.155 -0.078 -0.163 -0.103 -0.016 -0.002 -0.024 -0.011 -0.103 -0.008 -0.027 0.006 -0.061 -0.034 -0.018 -0.044 -0.095 -0.115 -0.107 -0.189 -0.003 -0.054 0.042 -0.062 0.039 -0.047 0.005 -0.038 0.004 -0.01 0.032 -0.078 0.078 -0.104 0.072 -0.06 0.053 -0.02 0.108 0.018 0.186 0.015 0.143 -0.014 0.133 -0.046 0.072 -0.04 0.062 -0.043 0.021 -0.028 0.027 -0.013 0.11 -0.025 0.035 -0.029 0.014 -0.054 0.01 -0.06 0.023 -0.045 0.028 -0.033 0.204 -0.079 0.018 -0.028 0.033 -0.027 0.06 -0.03 0.058 -0.044 0.062 -0.027 0.08 0.003 0.074 -0.006 0.057 -0.015 0.025 -0.002 0.106 0.012 0.019 0.05 0.011 0.052 0.181 -0.004 0.101 -0.111 0.052 -0.013 0.084 -0.039 0.055 -0.034 0.038 0.021 0.055 0.072 0.058 0.058 0.034 0.023 0.004 0.018 0.034 0.011 0.066 0.006 0.044 0.017 0.013 0.054 0.001 0.049 -0.021 0.035 -0.011 0.031 0.046 0.012 0.067 -0.012 0.047 -0.017 0.142 0.04 0.05 -0.089 0.056 -0.046 0.073 -0.021 0.066 -0.028 0.06 -0.02 0.042 0.001 0.018 -0.008 0.052 0.002 0.06 0.009 0.082 -0.01 0.113 0.022 0.071 0.041 0.069 0.014 0.079 -0.002 0.054 -0.023 0.078 -0.078 0.057 0.001 0.089 -0.012 0.125 0.001 0.289 0.017 0.072 0.03 0.178 0.038 0.078 0.044 0.034 0.053 0.018 0.037 0.182 0.056 0.271 0.072 z" vector-effect="non-scaling-stroke" fill="#000" fill-opacity="1" stroke="#FFF" stroke-width="0px" stroke-linejoin="round" stroke-linecap="round"/></svg>
