<svg xmlns="http://www.w3.org/2000/svg" xmlns:xlink="http://www.w3.org/1999/xlink" height="400" width="400" viewBox="13.37822265625 -46.86328125 3.13798828124999 1.43491210937501"><path d="M 16.516 -46.5 l -0.089 -0.025 -0.106 -0.01 -0.02 0.013 -0.043 0.013 -0.022 0.024 0.017 0.095 -0.026 0.016 -0.121 -0.009 -0.04 0.011 -0.066 0.066 -0.067 0.028 -0.086 0.02 -0.063 0.024 -0.08 0.021 -0.068 0.013 -0.027 0.029 -0.016 0.032 0.004 0.031 0.069 0.061 0.009 0.065 -0.008 0.079 -0.016 0.042 -0.027 0.028 -0.171 0.036 -0.177 0.065 -0.004 0.015 0.081 0.058 0.003 0.014 -0.067 0.033 -0.007 0.033 0.008 0.038 0.035 0.039 0.013 0.035 -0.097 0.026 -0.132 -0.009 -0.156 -0.049 -0.055 0.007 -0.053 0.025 -0.054 -0.011 -0.059 -0.03 -0.084 -0.063 -0.041 -0.039 -0.017 -0.041 -0.023 -0.006 -0.035 0.012 -0.029 0.05 -0.078 0.089 -0.057 0.024 -0.087 -0.005 -0.122 0.001 -0.076 0.007 -0.093 -0.032 -0.022 0.006 0 0.021 -0.034 0.033 -0.057 0.021 -0.263 -0.048 -0.037 -0.04 0.059 -0.019 0.083 -0.052 0.056 0.006 0.069 -0.011 0.03 -0.022 -0.044 -0.066 -0.109 -0.081 -0.058 -0.031 -0.08 -0.02 -0.014 -0.022 0.044 -0.128 -0.013 -0.018 -0.091 0.006 -0.021 -0.013 -0.007 -0.022 0.006 -0.03 0.062 -0.05 0.069 -0.044 0.018 -0.025 -0.002 -0.019 -0.088 -0.02 -0.053 -0.02 -0.042 -0.007 -0.029 0.011 -0.021 -0.013 -0.021 -0.037 0.021 -0.056 0.079 -0.052 0.085 -0.046 0.074 -0.033 0.043 -0.014 0.02 -0.057 0.044 0.006 0.087 0.003 0.097 0.013 0.091 0.016 0.08 0.02 0.168 0.021 0.153 0.013 0.046 0.012 0.038 -0.001 0.046 0.017 0.027 -0.013 0.02 -0.023 0.083 -0.027 0.077 -0.036 0.054 -0.045 0.03 -0.036 0.053 -0.025 0.056 -0.007 0.051 -0.013 0.216 -0.017 0.222 0.013 0.106 -0.025 0.087 -0.044 0.128 -0.012 0.007 -0.001 0.191 0.034 0.015 -0.02 0.008 -0.009 -0.004 -0.096 0.06 -0.043 0.056 -0.018 0.191 0.006 0.025 0.029 0.01 0.045 0.017 0.061 0.032 0.017 0.017 0.024 -0.003 0.042 0.037 0.031 0.087 0.085 z" vector-effect="non-scaling-stroke" fill="#000" fill-opacity="1" stroke="#FFF" stroke-width="0px" stroke-linejoin="round" stroke-linecap="round"/></svg>
