<svg xmlns="http://www.w3.org/2000/svg" xmlns:xlink="http://www.w3.org/1999/xlink" height="400" width="400" viewBox="155.6775390625 6.60888671875 11.25166015625 5.22333984375001"><path d="M 159.688 8.508 l -0.048 0.014 -0.071 -0.037 -0.031 -0.033 0.015 -0.052 0.041 -0.02 0.047 0.035 0.005 0.036 z M 166.929 11.665 l -0.088 0.016 -0.035 -0.004 -0.058 -0.087 0.043 -0.02 0.065 0.008 0.02 0.051 z M 166.133 10.758 l -0.08 0.017 -0.025 -0.005 -0.06 0.009 -0.064 0.072 -0.047 -0.01 -0.037 0.003 -0.028 -0.059 -0.001 -0.029 0.046 0.005 0.024 -0.058 0.049 -0.029 0.115 -0.013 0.102 0.019 0.036 0.013 -0.032 0.052 z M 160.576 11.798 l -0.07 0.034 -0.063 -0.017 -0.049 -0.026 -0.039 -0.077 -0.085 -0.048 -0.121 -0.02 -0.05 -0.033 -0.013 -0.016 -0.084 -0.015 -0.024 -0.042 0.007 -0.043 0.014 -0.023 0.077 0.021 0.371 0.203 0.088 0.063 z M 161.548 9.626 l 0.011 0.107 -0.005 0.037 -0.076 -0.079 -0.035 0.028 -0.033 -0.037 0.002 -0.081 0.005 -0.087 -0.015 -0.066 -0.038 -0.095 0.043 0.015 z M 159.189 9.124 l -0.013 0.002 -0.047 -0.012 -0.057 -0.004 -0.035 -0.035 0.041 -0.05 0.052 -0.032 0.024 0.008 0.022 0.021 0.052 0.008 0.006 0.064 z M 160.168 8.996 l 0.058 0.014 0.028 -0.002 0.066 0.054 0.088 0.079 -0.036 0.041 -0.071 -0.021 -0.024 0.008 -0.008 -0.005 -0.015 -0.04 -0.078 -0.039 -0.07 -0.003 -0.009 -0.047 z M 157.763 8.242 l 0.063 0.082 0.072 0.182 -0.013 0.063 -0.052 0.004 -0.014 0.039 -0.07 -0.088 -0.093 -0.024 -0.068 -0.054 -0.023 -0.108 -0.007 -0.068 -0.054 -0.012 -0.153 0.017 -0.049 0.058 -0.07 -0.018 -0.015 -0.052 0.011 -0.051 0.093 -0.05 0.019 -0.065 0.093 -0.112 0.057 -0.019 0.108 0.04 0.013 0.159 0.039 0.052 z M 158.201 8.822 l -0.022 0.004 -0.023 -0.04 0.055 -0.108 0.026 0.087 0.017 0.033 z M 158.108 8.684 l -0.098 0.079 -0.072 -0.027 -0.058 -0.068 0.019 -0.082 0.011 -0.022 0.029 -0.005 0.029 -0.017 0.031 -0.036 0.107 0.029 0.027 0.02 -0.064 0.05 0.021 0.016 0.014 0.024 z M 157.389 8.713 l 0 0.015 -0.055 -0.028 -0.122 -0.135 0.021 -0.045 0.111 -0.088 0.034 -0.012 0.031 0.054 -0.027 0.08 -0.036 0.02 -0.015 0.075 z M 156.688 7.923 l -0.019 0.014 -0.033 -0.054 -0.024 -0.017 0.001 -0.06 -0.101 -0.098 -0.008 -0.068 0.058 -0.066 0.079 0.039 0.078 0.083 0.091 0.027 -0.019 0.055 -0.082 0.099 z M 156.604 8.172 l -0.012 0.025 -0.052 -0.123 0.003 -0.062 0.009 -0.04 0.019 -0.012 0.042 0.137 z M 157.172 8.108 l -0.022 0.015 -0.109 -0.006 -0.083 -0.103 0.001 -0.076 0.065 -0.07 0.079 -0.012 0.043 0.027 0.04 0.059 0.014 0.075 -0.009 0.066 z M 155.84 7.097 l -0.1 0.024 -0.062 -0.032 0.027 -0.076 0.034 -0.04 0.126 0.07 z M 157.645 8.759 l -0.002 0.035 -0.057 -0.011 -0.128 -0.053 -0.004 -0.024 0.073 -0.009 0.053 0.007 0.044 0.031 z M 159.75 9.273 l 0.22 0.161 0.095 -0.015 0.289 0.003 0.171 0.115 0.1 0.053 0.056 0.103 0.07 0.023 0.043 0.052 0.025 0.095 -0.017 0.016 -0.089 0.036 -0.064 0.015 -0.168 -0.034 -0.161 -0.073 -0.319 -0.009 -0.149 -0.021 -0.051 -0.028 -0.047 -0.037 -0.075 -0.089 -0.059 -0.105 -0.01 -0.061 -0.005 -0.117 0.018 -0.043 0.061 -0.043 z M 159.879 8.534 l 0.002 0.023 -0.134 -0.084 -0.102 -0.102 -0.29 -0.111 -0.062 -0.057 -0.052 -0.007 -0.149 -0.093 -0.146 -0.063 -0.089 -0.081 -0.023 -0.033 -0.054 -0.02 -0.092 -0.089 -0.089 -0.059 -0.032 -0.108 -0.087 -0.074 -0.021 -0.032 0.277 0.06 0.128 0.118 0.11 0.067 0.038 0.048 0.099 0.066 0.089 0.006 0.089 0.067 0.081 0.018 0.064 0.035 0.412 0.298 -0.049 0.079 0.055 0.057 z M 157.487 7.33 l 0.032 0.035 -0.077 0.06 -0.102 -0.033 -0.022 -0.034 -0.003 -0.018 -0.071 0.012 -0.142 -0.029 -0.197 -0.143 -0.208 -0.27 -0.201 -0.149 -0.038 -0.046 -0.005 -0.077 0.027 -0.029 0.125 0.032 0.161 0.123 0.265 0.128 0.072 0.065 0.046 0.157 0.045 0.047 0.143 0.12 0.075 0.028 0.04 0.005 z M 160.749 8.314 l 0.248 0.298 -0.01 0.053 -0.034 0.034 -0.01 0.1 0.031 0.038 0.068 0.018 0.115 0.107 0.046 0.131 0.004 0.04 0.048 0.059 0.002 0.125 0.109 0.173 0.01 0.083 -0.01 0.038 -0.046 -0.022 -0.131 -0.197 -0.15 -0.085 -0.017 -0.037 -0.151 -0.115 -0.101 -0.193 -0.109 -0.343 0.051 -0.081 -0.124 -0.167 0.006 -0.045 0.052 0.01 0.036 -0.002 0.017 -0.02 z M 161.715 10.387 l 0.126 0.059 0.073 -0.01 0.108 0.04 0.083 -0.023 0.051 0.052 0.13 0.204 0.001 0.066 0.085 0.047 -0.072 0.009 -0.1 -0.024 -0.078 0.017 -0.081 -0.04 -0.137 -0.021 -0.119 -0.047 -0.249 -0.15 0.001 -0.075 -0.04 -0.037 -0.012 -0.093 -0.089 -0.029 -0.104 -0.005 -0.008 -0.044 0.019 -0.078 0.078 0.001 0.093 0.032 0.178 0.114 0.044 0.019 z" vector-effect="non-scaling-stroke" fill="#000" fill-opacity="1" stroke="#FFF" stroke-width="0px" stroke-linejoin="round" stroke-linecap="round"/></svg>
