<svg xmlns="http://www.w3.org/2000/svg" xmlns:xlink="http://www.w3.org/1999/xlink" height="400" width="400" viewBox="42.6564453125 -11.4998046875 6.28212890624999 3.50273437499999"><path d="M 48.939 -11.258 l 0 0.276 0 0.268 0 0.281 0 0.46 0 0.166 0 0.244 0 0.112 -0.145 0.219 -0.177 0.268 -0.188 0.285 -0.156 0.236 -0.146 0.221 -0.149 0.225 -0.341 0 -0.332 0 -0.327 0 -0.059 -0.029 -0.275 -0.092 -0.349 -0.117 -0.433 -0.145 -0.308 -0.103 -0.329 -0.108 -0.333 -0.109 -0.262 -0.086 -0.326 -0.107 -0.283 -0.093 -0.039 -0.023 -0.157 -0.142 -0.206 -0.187 -0.039 -0.003 -0.099 -0.039 -0.088 -0.101 -0.091 -0.129 -0.085 -0.161 -0.037 -0.11 -0.113 -0.046 -0.054 -0.086 -0.102 -0.128 -0.071 -0.062 -0.025 -0.054 -0.033 -0.112 -0.058 -0.122 -0.056 -0.076 -0.013 -0.032 0.003 -0.021 0.104 -0.166 0.047 -0.059 0.053 -0.057 0.043 -0.057 0.017 -0.039 0.126 -0.195 0.111 -0.171 0.087 -0.134 0.195 0.153 0.19 0.311 0.222 0.251 0.305 0.233 0.121 0.079 0.107 0.042 0.556 -0.006 0.395 -0.213 0.358 -0.154 0.121 -0.032 0.208 0.042 0.229 0.013 0.206 0.047 0.105 -0.012 0.408 -0.179 0.257 -0.175 0.175 -0.074 0.069 -0.001 0.239 0.063 0.307 -0.027 0.42 -0.151 0.134 -0.03 0.102 -0.002 0.229 0.068 z" vector-effect="non-scaling-stroke" fill="#000" fill-opacity="1" stroke="#FFF" stroke-width="0px" stroke-linejoin="round" stroke-linecap="round"/></svg>
