<svg xmlns="http://www.w3.org/2000/svg" xmlns:xlink="http://www.w3.org/1999/xlink" height="400" width="400" viewBox="40.964453125 -11.98369140625 10.42578125 13.67900390625"><path d="M 41.533 1.695 l 0.005 -0.082 -0.016 -0.041 -0.095 -0.123 -0.177 -0.229 -0.134 -0.173 -0.137 -0.177 0 -0.142 -0.002 -0.421 -0.003 -0.843 -0.003 -0.843 -0.003 -0.843 -0.002 -0.421 -0.001 -0.172 0.014 -0.028 0.156 -0.155 0.207 -0.205 0.272 -0.389 0.147 -0.211 0.123 -0.176 0.031 -0.054 0.109 -0.107 0.204 -0.064 0.127 -0.011 0.436 -0.08 0.065 -0.032 0.038 -0.037 0.036 -0.084 0.085 -0.118 0.11 -0.081 0.208 -0.106 0.204 -0.09 0.045 -0.015 0.246 -0.056 0.06 -0.019 0.099 -0.02 0.039 0 0.341 0.02 0.267 0.015 0.275 0.016 0.029 -0.012 0.192 -0.21 0.306 -0.334 0.195 -0.213 0.301 -0.329 0.232 -0.237 0.256 -0.263 0.249 -0.24 0.299 -0.289 0.189 -0.182 0.293 -0.283 0.279 -0.269 0.247 -0.238 0.149 -0.225 0.146 -0.221 0.156 -0.236 0.188 -0.285 0.177 -0.268 0.145 -0.219 0 -0.112 0 -0.244 0 -0.166 0 -0.46 0 -0.281 0 -0.268 0 -0.276 0.124 -0.012 0.326 -0.072 0.254 -0.108 0.468 -0.078 0.356 -0.198 0.062 -0.096 0.108 -0.121 0.156 -0.04 0.399 0.142 0.064 0.011 -0.023 0.086 -0.014 0.087 -0.082 0.153 -0.052 0.169 0.038 0.259 0.018 0.42 -0.009 0.061 -0.026 0.06 -0.011 0.047 -0.043 0.017 -0.019 0.027 0.031 0.011 0.125 -0.046 -0.003 -0.05 0.007 -0.025 0.103 0.056 0.073 0.023 0.021 0.053 -0.006 0.036 -0.116 -0.017 -0.059 -0.028 -0.173 0.046 -0.106 0.05 -0.032 0.082 -0.025 0.329 -0.041 0.214 -0.008 0.282 -0.14 0.187 -0.047 0.132 -0.208 0.264 -0.109 0.226 -0.035 0.11 -0.183 0.31 -0.251 0.237 -0.091 0.303 -0.09 0.19 -0.101 0.173 -0.221 0.306 -0.114 0.213 -0.142 0.369 -0.043 0.234 -0.4 0.679 -0.415 0.542 -0.259 0.456 -0.464 0.529 -0.633 0.683 -0.828 0.81 -0.225 0.165 -0.906 0.5 -0.588 0.419 -0.3 0.285 -0.315 0.248 -0.25 0.236 -0.756 0.797 -0.078 0.075 -0.073 0.071 -0.095 0.135 -0.066 0.054 -0.18 0.228 -0.113 0.118 -0.126 0.117 -0.054 0.083 -0.038 0.095 -0.042 0.053 -0.114 0.227 -0.1 0.148 z" vector-effect="non-scaling-stroke" fill="#000" fill-opacity="1" stroke="#FFF" stroke-width="0px" stroke-linejoin="round" stroke-linecap="round"/></svg>
