<svg xmlns="http://www.w3.org/2000/svg" xmlns:xlink="http://www.w3.org/1999/xlink" height="400" width="400" viewBox="126.00751953125 -38.6234375 4.9267578125 5.421923828125"><path d="M 126.634 -37.782 l 0.031 -0.019 0.002 -0.027 0 -0.089 0.088 -0.062 0.125 -0.127 0.061 -0.07 0.07 -0.065 0.081 -0.043 0.079 -0.021 0.125 -0.009 0.239 0.008 0.047 -0.008 0.166 -0.007 0.039 0.012 0.121 0.007 0.134 -0.008 0.067 -0.019 0.062 -0.032 0.054 -0.058 0.056 -0.107 0.06 -0.084 0.035 -0.016 0.244 0.447 0.234 0.289 0.199 0.209 0.284 0.403 0.083 0.216 0.008 0.133 0.047 0.184 -0.04 0.105 0.012 0.166 -0.018 0.085 -0.035 0.063 -0.001 0.121 0.011 0.065 0.001 0.085 0.022 0.033 0.033 0.012 0.051 -0.031 0.063 -0.013 -0.011 0.103 -0.076 0.26 -0.066 0.19 -0.09 0.165 -0.115 0.151 -0.137 0.059 -0.097 0.021 -0.184 0.008 -0.153 -0.026 -0.132 0.019 -0.053 0.032 -0.039 0.054 0.029 0.084 -0.004 0.062 -0.056 -0.005 -0.112 -0.036 -0.124 -0.005 -0.058 -0.018 -0.058 -0.088 -0.059 0.003 -0.104 0.052 -0.158 0.012 -0.056 0.028 -0.02 0.037 0.023 0.046 0.08 0.061 -0.027 0.062 -0.083 0.031 -0.067 -0.076 -0.042 -0.074 -0.047 -0.004 -0.073 0.021 -0.015 0.08 0.034 0.055 0.056 0.063 -0.078 0.073 -0.021 0.052 -0.056 0.037 -0.151 -0.083 0.021 -0.059 0.066 -0.057 0.008 -0.059 -0.022 -0.035 -0.216 0.148 -0.133 0.168 -0.071 -0.012 -0.03 -0.043 -0.042 -0.018 -0.144 0.108 -0.026 0.086 -0.053 0.003 -0.023 -0.036 -0.002 -0.078 -0.025 -0.066 -0.149 -0.096 -0.068 -0.084 0.037 -0.047 0.125 0.025 0.099 -0.003 -0.02 -0.04 -0.032 -0.019 0.066 -0.022 0.055 -0.046 -0.045 -0.012 -0.069 0.026 -0.058 -0.013 -0.023 -0.109 -0.07 -0.112 -0.036 -0.109 0.069 -0.063 0.035 -0.098 0.065 -0.141 0.032 -0.046 0.089 -0.033 0.032 -0.037 -0.049 -0.019 -0.078 -0.017 0.002 -0.041 0.053 -0.022 0.06 -0.045 0.116 -0.055 0.036 -0.103 -0.033 -0.026 -0.072 -0.025 0.016 -0.052 0.03 -0.04 -0.011 -0.024 -0.085 -0.067 -0.057 -0.061 0.017 -0.07 -0.013 -0.105 0.008 -0.088 -0.004 -0.048 -0.042 -0.108 -0.019 -0.108 -0.055 0.016 -0.044 0.027 -0.158 -0.038 -0.05 -0.002 -0.02 -0.08 0.057 -0.099 0.134 -0.087 0.077 -0.011 0.058 -0.038 0.091 -0.012 0.109 0.059 0.098 0.012 0.054 0.102 0.033 0.022 0.007 -0.038 0.079 -0.044 0.019 -0.033 -0.017 -0.018 -0.091 -0.018 -0.082 -0.127 -0.011 -0.055 -0.03 -0.035 0.044 -0.101 -0.094 -0.116 -0.046 -0.036 0.007 -0.104 -0.049 -0.066 -0.027 -0.036 -0.017 -0.063 0.014 -0.028 0.043 -0.011 z M 128.741 -34.799 l -0.094 0.062 -0.127 -0.083 -0.03 -0.046 0.097 -0.067 0.082 -0.077 0.054 -0.005 z M 128.066 -34.806 l -0.011 0.098 -0.071 0.005 -0.042 -0.063 -0.045 0.031 -0.023 0.001 -0.035 -0.078 -0.006 -0.061 0.083 -0.046 0.05 0.028 0.072 0.014 z M 126.234 -34.371 l -0.064 0.015 -0.036 -0.034 -0.025 -0.009 0.014 -0.045 0.104 -0.089 0.02 -0.031 0.096 0.018 0.036 0.047 -0.044 0.072 z M 126.521 -37.737 l -0.005 0.132 -0.055 -0.006 -0.038 -0.013 -0.016 -0.026 -0.038 -0.123 0.042 -0.051 0.082 0.04 z M 126.753 -34.344 l 0.017 0.048 -0.081 -0.009 -0.043 -0.046 0.006 -0.039 0.048 -0.006 z M 127.799 -34.615 l -0.011 0.031 -0.05 -0.047 0.05 -0.051 z M 126.418 -36.493 l -0.014 0.065 -0.066 -0.043 -0.019 -0.142 0.068 0.041 z M 126.172 -34.731 l -0.013 0.024 -0.044 -0.007 -0.045 -0.069 -0.019 -0.054 -0.045 -0.03 0.071 -0.047 0.09 0.085 z M 130.916 -37.478 l -0.045 0.03 -0.054 -0.03 -0.007 -0.031 0.028 -0.027 0.065 -0.017 0.031 0.024 z M 126.327 -33.224 l -0.045 0.022 -0.042 -0.013 -0.011 -0.01 -0.05 -0.057 -0.013 -0.029 0.034 -0.056 0.138 -0.092 0.358 -0.089 0.064 -0.004 0.141 0.038 0.03 0.071 -0.026 0.061 -0.033 0.041 -0.164 0.069 -0.127 0.033 z" vector-effect="non-scaling-stroke" fill="#000" fill-opacity="1" stroke="#FFF" stroke-width="0px" stroke-linejoin="round" stroke-linecap="round"/></svg>
