<svg xmlns="http://www.w3.org/2000/svg" xmlns:xlink="http://www.w3.org/1999/xlink" height="400" width="400" viewBox="16.44755859375 22.1462890625 21.44013671875 24.8166015625"><path d="M 29.365 22.194 l 0.013 -0.001 0.286 -0.046 0.239 0.038 0.288 0.107 0.27 0.038 0.251 -0.031 0.204 -0.007 0.157 0.017 0.124 0.037 0.091 0.057 0.005 0.053 0.007 0.024 0.048 0.139 0.071 0.208 0.047 0.192 0.065 0.263 -0.002 0.146 0.016 0.057 0.058 0.071 0.071 0.121 0.024 0.069 0.024 0.051 0.076 0.098 0.059 0.148 0.05 0.196 0.043 0.094 0.016 0.046 0.019 0.084 -0.003 0.178 0.001 0.206 0.001 0.23 0.001 0.19 -0.008 0.096 0.005 0.272 -0.064 0.142 0.008 0.111 0.02 0.072 -0.027 0.011 -0.05 0.013 -0.231 -0.114 -0.225 -0.121 -0.033 -0.004 -0.047 0.013 -0.128 0.088 -0.119 0.137 -0.055 0.117 -0.088 0.121 -0.142 0.195 -0.014 0.042 -0.002 0.158 0.007 0.151 0.012 0.021 0.077 0.007 0.055 0.123 0.125 0.196 0.211 0.126 0.196 0.057 0.273 0.014 0.216 -0.004 -0.012 -0.132 0.021 -0.213 0.028 -0.143 0.03 -0.006 0.057 0.014 0.031 0.015 0.087 -0.006 0.154 0.028 0.124 -0.003 0.111 -0.003 0.188 -0.005 0.11 -0.002 -0.037 0.231 -0.143 0.361 -0.049 0.166 -0.122 0.592 -0.16 0.299 -0.089 0.123 -0.258 0.218 -0.072 0.044 -0.064 0.028 -0.113 0.025 -0.443 0.441 -0.165 0.213 -0.147 0.31 -0.146 0.17 -0.214 0.363 -0.191 0.28 -0.184 0.256 -0.317 0.352 -0.141 0.102 -0.095 0.047 -0.252 0.204 -0.355 0.328 -0.272 0.291 -0.407 0.33 -0.235 0.145 -0.353 0.285 -0.099 0.042 -0.398 0.265 -0.286 0.161 -0.464 0.186 -0.184 0.052 -0.44 -0.048 -0.184 0.026 -0.153 0.112 -0.014 0.162 -0.064 0.024 -0.097 -0.007 -0.308 -0.067 -0.167 0.013 -0.097 0.086 -0.078 0.109 -0.232 0.006 -0.412 -0.113 -0.485 -0.069 -0.112 -0.008 -0.235 0.084 -0.082 0.012 -0.343 -0.018 -0.19 -0.053 -0.182 0 -0.139 0.044 -0.169 0.015 -0.457 0.304 -0.236 0 -0.203 0.035 -0.101 -0.001 -0.189 -0.042 -0.07 0.003 -0.107 0.019 -0.108 0.053 -0.245 0.023 -0.095 0.046 -0.414 0.277 -0.094 -0.011 -0.076 -0.018 -0.215 -0.003 -0.243 -0.148 -0.093 0.009 0.025 -0.044 0.008 -0.078 -0.051 -0.055 -0.035 -0.025 -0.096 0.005 -0.051 -0.067 -0.146 -0.006 -0.051 0.017 -0.07 0.003 -0.006 -0.068 0.006 -0.043 -0.004 -0.065 -0.018 -0.08 -0.057 -0.026 -0.043 -0.011 -0.104 0.005 -0.071 0.009 -0.033 0.023 -0.038 0.059 0 0.179 -0.051 -0.051 -0.058 -0.107 -0.019 -0.114 0.021 -0.135 0.111 -0.051 -0.009 -0.091 -0.023 -0.079 -0.124 -0.203 -0.048 -0.093 -0.105 -0.063 -0.082 -0.151 -0.082 -0.055 -0.034 -0.106 -0.08 -0.085 -0.027 -0.134 0.044 -0.077 0.07 -0.042 0.071 0.067 0.088 -0.026 0.126 -0.097 0.074 -0.147 0.005 -0.235 -0.019 -0.147 -0.1 -0.38 -0.047 -0.087 -0.225 -0.272 -0.261 -0.364 -0.33 -0.574 -0.158 -0.345 -0.239 -0.696 -0.211 -0.394 -0.259 -0.368 -0.033 -0.024 0.04 -0.045 0.139 -0.085 0.063 -0.023 0.034 0.011 0.033 -0.023 0.032 -0.057 0.007 -0.054 0.016 -0.076 0.031 -0.046 0.034 -0.091 0.058 -0.058 0.123 -0.039 0.093 0.051 0.039 0.05 0.016 0.066 0.041 0.032 0.066 -0.002 0.047 0.041 0.027 0.084 -0.005 0.061 -0.038 0.038 0.005 0.05 0.048 0.062 0.02 0.058 0.032 0.077 0.169 0.045 0.083 0.025 0.142 0.009 0.134 0.034 0.127 0.06 0.208 0.015 0.29 -0.031 0.238 0.014 0.187 0.059 0.136 0.011 0.084 -0.037 0.036 -0.054 -0.011 -0.07 0.042 -0.044 0.095 -0.019 0.076 -0.053 0.057 -0.087 0.132 -0.071 0.206 -0.054 0.103 0.002 0 -0.141 0 -0.445 0 -0.445 0 -0.445 0 -0.445 0 -0.445 0 -0.445 0 -0.445 0 -0.42 0.048 0.03 0.317 0.223 0.085 0.117 0.042 0.074 0.136 0.27 0.101 0.242 0.082 0.182 0.006 0.083 0.012 0.082 0.012 0.04 -0.008 0.044 -0.058 0.099 -0.059 0.076 -0.071 0.104 -0.007 0.137 0.021 0.161 0.044 0.08 0.055 0.026 0.131 -0.04 0.083 0.012 0.117 0.031 0.384 -0.019 0.046 0.01 0.145 0.012 0.048 -0.013 0.043 -0.034 0.05 -0.097 0.045 -0.032 0.081 -0.016 0.096 -0.026 0.08 -0.056 0.127 -0.191 0.253 -0.17 0.078 -0.041 0.049 -0.046 0.043 -0.062 0.089 -0.214 0.067 -0.178 0.023 -0.084 0.06 -0.137 0.072 -0.088 0.071 -0.046 0.035 -0.012 0.091 -0.024 0.117 -0.022 0.123 0.025 0.132 0.053 0.149 0.09 0.153 0.111 0.07 0.056 0.076 0.025 0.135 0.009 0.088 -0.002 0.138 0.11 0.07 0.007 0.156 0.033 0.192 0.034 0.121 -0.004 0.13 -0.059 0.094 -0.003 0.121 0.005 0.133 -0.016 0.097 -0.025 0.075 -0.052 0.066 -0.057 0.075 -0.168 0.043 -0.136 0.067 -0.156 0.083 -0.211 0.029 -0.147 0.03 -0.041 0.12 -0.045 0.099 -0.031 0.266 -0.058 0.055 -0.031 0.05 -0.069 0.116 -0.118 0.143 -0.098 0.074 -0.056 0.136 -0.477 0.016 -0.059 0.099 -0.127 0.061 -0.054 0.039 -0.001 0.056 -0.033 0.072 -0.066 0.086 -0.041 0.1 -0.015 0.064 -0.044 0.029 -0.072 0.051 -0.035 0.073 0.002 0.042 -0.023 0.01 -0.048 0.044 -0.041 0.078 -0.034 0.041 -0.04 0.004 -0.047 0.093 -0.113 0.182 -0.18 0.172 -0.1 0.161 -0.02 0.153 -0.038 0.144 -0.055 0.106 -0.086 0.068 -0.117 0.116 -0.065 z M 28.737 30.102 l 0.164 -0.063 0.074 -0.039 0.054 -0.032 0.069 -0.049 0.024 -0.118 0.02 -0.1 0.053 -0.049 0.054 -0.033 0.044 -0.052 0.055 -0.125 0.038 -0.122 0.004 -0.05 -0.02 -0.051 -0.035 -0.055 -0.035 -0.074 -0.042 -0.012 -0.082 -0.041 -0.12 -0.083 -0.104 -0.072 -0.097 -0.105 -0.04 -0.017 -0.094 -0.071 -0.041 -0.041 -0.029 -0.049 -0.027 -0.016 -0.042 0.012 -0.112 0.022 -0.239 0.085 -0.148 0.079 -0.125 0.093 -0.129 0.036 -0.095 0.031 -0.075 0.107 -0.07 0.1 -0.063 0.09 -0.036 0.04 -0.033 0.026 -0.033 0.057 -0.068 0.095 -0.062 0.064 -0.087 0.035 -0.112 0.045 -0.038 0.026 -0.005 0.038 0.04 0.09 0.039 0.087 0.063 0.101 0.046 0.074 0.073 0.09 0.043 0.053 -0.006 0.089 0.014 0.032 0.024 0.037 0.02 0.009 0.023 0.013 0.061 0.025 0.015 0.017 0.042 0.03 0.041 0.055 0.077 0.076 0.087 0.058 0.149 0.024 0.116 0.018 0.039 -0.011 0.04 -0.046 0.032 -0.059 0.01 -0.075 0.037 -0.04 0.139 -0.191 0.077 -0.071 0.047 -0.005 0.061 -0.014 0.077 -0.006 0.058 0.006 0.013 -0.002 z M 37.857 46.944 l -0.043 0.019 -0.202 -0.016 -0.022 -0.038 0.06 -0.059 0.035 -0.025 0.105 0.013 0.083 0.048 0.015 0.016 z" vector-effect="non-scaling-stroke" fill="#000" fill-opacity="1" stroke="#FFF" stroke-width="0px" stroke-linejoin="round" stroke-linecap="round"/></svg>
