<svg xmlns="http://www.w3.org/2000/svg" xmlns:xlink="http://www.w3.org/1999/xlink" height="400" width="400" viewBox="-18.160546875 -43.76455078125 22.4826171875 16.1181640625"><path d="M 1.594 -38.672 l -0.023 0.013 -0.066 -0.012 -0.099 0 -0.004 -0.04 0.015 -0.028 0.019 -0.029 0.061 0.056 0.096 0.01 z M 3.145 -39.79 l 0.096 0.033 0.101 -0.03 0.054 0.009 0.053 0.016 0.013 0.063 -0.047 0.071 -0.066 0.071 -0.056 0.079 -0.048 0.09 -0.09 0.053 -0.082 0.032 -0.173 -0.067 -0.1 -0.017 -0.03 -0.025 -0.024 -0.1 -0.045 -0.032 -0.067 -0.014 -0.058 0.026 -0.076 0.053 -0.041 -0.053 -0.064 -0.01 -0.024 -0.032 0.001 -0.041 0.414 -0.242 0.12 -0.053 0.254 -0.062 0.039 0.009 -0.033 0.037 0.003 0.017 0.032 0.018 -0.008 0.028 -0.032 0.025 z M 4.294 -39.842 l -0.018 0.012 -0.308 -0.116 -0.1 -0.013 -0.025 -0.018 0.003 -0.06 0.008 -0.027 0.206 -0.012 0.167 0.043 0.089 0.115 0.007 0.02 z M 1.445 -38.919 l -0.036 0.061 -0.152 -0.022 -0.034 -0.025 0.033 -0.07 0.044 -0.008 0.003 -0.049 0.046 -0.05 0.216 -0.04 0.049 0.034 0.01 0.049 -0.129 0.106 z M -1.794 -43.407 l 0.001 0.035 0.039 0.048 0.04 0.018 0.086 0.025 0.066 0.003 0.09 0.012 0.061 0.028 0.003 0.043 -0.015 0.048 -0.037 0.044 -0.021 0.034 0.02 0.019 0.032 0.015 0.035 0.004 0.024 -0.005 0.018 -0.027 0.034 -0.033 0.019 -0.004 -0.002 0.019 0.016 0.023 0.11 0.038 0.242 0.072 0.095 0.001 0.077 0.008 0.022 0.03 0.154 0.111 0.037 -0.003 0.069 0.003 0.083 -0.009 0.06 -0.021 0.039 0.003 0.043 0.021 0.051 0.019 0.065 0.036 0.059 0.045 0.04 0.015 0.243 -0.03 0.054 0.026 0.057 0 0.064 -0.007 0.14 0.014 0.114 -0.003 0.01 -0.011 0.01 -0.1 0.018 -0.035 0.027 -0.009 0.068 0.007 0.246 0.059 0.101 0.037 0.097 0.029 0.085 0.003 0.056 0.019 0.079 0.095 -0.013 0.048 0.007 0.018 0.008 0.033 -0.002 0.037 0.021 0.024 0.037 0.003 0.048 -0.007 0.052 -0.014 0.092 -0.041 0.028 -0.007 0.154 0.046 0.068 0.031 0.024 0.034 0.035 0.034 0.046 0.005 0.066 -0.033 0.102 -0.035 0.174 0.031 0.194 0.044 0.084 0.005 0.003 -0.022 0.015 -0.031 0.032 -0.015 0.048 -0.005 0.066 -0.016 0.076 -0.027 0.079 -0.011 0.083 0.02 0.1 0.016 0.059 0 0.028 0.063 0.048 0.024 0.019 0.055 -0.088 0.029 -0.052 0.004 -0.016 0.094 0.025 0.026 0.049 0.025 0.013 0.029 0.01 0.138 -0.101 0.083 -0.142 0.094 -0.694 0.301 -0.165 0.146 -0.063 0.033 -0.516 0.092 -0.361 0.098 -0.173 0.035 -0.216 0.17 -0.102 0.069 0.081 0.019 0.095 0.081 -0.032 0.036 -0.139 0.056 -0.061 0.017 -0.033 -0.009 -0.031 0.008 -0.232 0.295 -0.205 0.212 -0.115 0.093 -0.118 0.138 -0.252 0.356 -0.002 0.103 0.124 0.354 0.071 0.093 0.1 0.078 0.189 0.067 0.047 0.065 -0.065 0.062 -0.189 0.111 -0.329 0.15 -0.14 0.118 -0.03 0.114 -0.096 0.051 -0.036 0.16 -0.058 0.106 -0.011 0.036 -0.062 0.08 -0.008 0.058 0.102 0.081 -0.05 0.035 -0.05 0.015 -0.116 0.009 -0.389 0.01 -0.313 0.174 -0.157 0.154 -0.142 0.287 -0.172 0.169 -0.076 0.031 -0.118 -0.074 -0.147 -0.011 -0.143 0.025 -0.075 0.059 -0.117 0.033 -0.114 -0.028 -0.247 -0.015 -0.11 0.003 -0.172 0.048 -0.148 -0.032 -0.249 -0.016 -0.539 0.038 -0.068 0.018 -0.067 0.071 -0.172 0.123 -0.261 0.004 -0.236 0.078 -0.059 0.05 -0.099 0.138 -0.031 0.101 -0.021 0.001 -0.026 -0.025 -0.036 0.008 -0.019 0.077 -0.089 0.035 -0.074 0.013 -0.183 -0.062 -0.152 -0.093 -0.08 -0.007 -0.13 -0.145 -0.056 -0.093 -0.04 -0.1 0.008 -0.038 -0.011 -0.032 -0.115 -0.04 -0.028 -0.092 0.084 -0.119 0.069 -0.051 0.043 -0.015 -0.104 0.005 -0.075 0.077 -0.096 -0.123 -0.392 -0.24 0.025 -0.055 -0.004 -0.03 -0.066 0.064 -0.045 0.017 -0.2 -0.01 -0.231 0.029 -0.061 -0.249 -0.029 -0.096 -0.007 -0.062 0.06 -0.143 0.065 -0.058 0.087 -0.12 0.107 -0.1 0.113 -0.024 0.05 -0.015 0.042 -0.077 0.024 -0.066 -0.017 -0.007 -0.132 0.013 -0.237 -0.276 0.007 -0.044 0.03 -0.065 0.02 -0.083 0.005 -0.065 0.062 -0.056 0.094 -0.056 0.079 -0.08 0.04 -0.078 0.008 -0.071 -0.045 -0.051 -0.129 -0.028 -0.133 -0.203 -0.03 -0.127 -0.027 -0.013 -0.082 -0.058 -0.079 -0.109 -0.011 -0.017 0.082 -0.019 0.336 -0.001 0.07 -0.024 0.011 -0.008 0.061 -0.084 0.064 -0.139 0.015 -0.085 -0.02 -0.035 -0.111 -0.086 -0.005 -0.025 0.018 -0.04 0.066 -0.043 0.09 -0.049 0.049 -0.042 -0.012 -0.033 -0.026 -0.035 -0.004 -0.032 0.016 -0.04 0.006 -0.136 0.011 -0.035 -0.018 -0.123 -0.022 -0.101 -0.071 -0.131 0.013 -0.029 0.033 -0.024 0.107 -0.045 0.086 -0.107 0.124 -0.089 0.163 -0.072 0.114 -0.08 0.045 -0.061 0.032 -0.016 -0.009 -0.028 -0.021 -0.041 -0.065 -0.04 -0.084 -0.023 -0.093 0.001 -0.058 -0.008 -0.017 -0.032 0.006 -0.085 -0.005 -0.085 -0.018 -0.039 -0.043 -0.029 -0.085 0.008 -0.074 -0.024 -0.056 -0.006 -0.032 0.019 -0.165 -0.005 -0.069 -0.014 -0.048 -0.017 -0.031 0.009 -0.017 0.016 -0.003 0.026 -0.011 0.034 -0.059 0.031 -0.135 0.031 -0.109 -0.002 -0.1 -0.022 -0.032 -0.016 -0.048 -0.015 -0.203 0.018 -0.024 -0.013 -0.07 0.032 -0.103 0.038 -0.058 0.002 -0.021 -0.008 -0.008 -0.017 -0.044 -0.059 0.011 -0.031 0.083 -0.091 -0.009 -0.022 -0.034 -0.029 -0.031 -0.042 -0.009 -0.022 -0.053 -0.004 -0.056 0.022 -0.216 0.046 -0.052 0.017 -0.093 0.044 -0.094 0.067 -0.075 0.014 -0.026 -0.02 -0.009 -0.158 0.115 -0.105 0.082 -0.064 -0.038 -0.013 -0.087 0.002 0.006 -0.049 0.041 -0.024 0.039 -0.054 -0.046 -0.023 -0.036 -0.035 0.002 -0.092 0.01 -0.038 -0.012 -0.04 -0.176 0.055 -0.045 -0.008 -0.002 -0.069 0.098 -0.104 0.01 -0.032 -0.114 -0.015 -0.086 -0.051 -0.052 -0.046 -0.056 -0.066 0 -0.059 0.058 -0.138 0.083 -0.04 0.071 -0.025 0.151 -0.095 0.208 0.018 0.129 -0.02 0.115 -0.049 0.066 -0.011 0.107 -0.043 -0.003 -0.058 -0.037 -0.043 0.032 -0.04 0.12 -0.049 0.132 -0.065 0.152 -0.013 0.155 -0.058 0.104 0.037 0.091 -0.013 0.104 0.044 0.137 0.101 0.201 0.041 0.16 -0.032 0.283 -0.007 0.142 0.013 0.252 -0.025 0.144 0.009 0.233 -0.05 0.181 0.063 0.35 0.029 0.21 0.051 0.582 0.086 0.21 0.001 0.297 -0.048 0.126 -0.036 0.115 0.022 0.169 -0.042 0.081 0.008 0.106 0.059 0.372 0.08 0.098 -0.068 0.073 -0.015 0.268 0.042 0.27 0.085 0.14 0.006 0.205 -0.023 0.163 -0.056 z M -16.334 -28.38 l -0.084 0.229 -0.078 0.09 -0.047 0.03 -0.115 0.025 -0.137 -0.142 -0.071 -0.144 -0.039 -0.046 0.062 -0.037 0.091 0.006 0.195 -0.031 0.039 -0.012 0.198 -0.146 0.195 -0.018 0.004 0.048 z M -13.716 -28.911 l -0.068 0.066 -0.076 -0.024 0.036 -0.144 0.035 -0.043 0.138 -0.063 0.115 -0.025 0.034 -0.067 0.038 -0.026 0.041 0.04 -0.031 0.046 -0.024 0.145 -0.077 0.046 z M -14.197 -28.169 l -0.136 0.113 -0.136 -0.026 -0.023 -0.019 0.136 -0.029 0.124 -0.086 0.079 -0.191 0.124 -0.211 0.025 -0.089 0.049 -0.035 0.068 -0.003 0.029 0.007 0.03 0.047 0 0.106 -0.035 0.176 -0.065 0.156 z M -15.401 -28.147 l -0.006 0.077 0.024 0.078 -0.006 0.118 -0.048 0.064 -0.123 0.064 -0.096 -0.011 -0.055 -0.026 -0.097 -0.103 -0.002 -0.107 0.089 -0.07 0.038 -0.09 0.23 0.017 0.02 -0.017 0.017 -0.005 z M -17.185 -28.022 l -0.041 0.008 -0.049 -0.025 -0.051 -0.079 0.035 -0.059 0.032 -0.027 0.044 0.004 0.085 0.043 0.026 0.045 0.003 0.028 z M -17.888 -27.81 l -0.097 0.163 -0.122 -0.061 -0.029 -0.02 -0.025 -0.034 0.117 -0.007 0.119 -0.082 z M -17.834 -28.493 l -0.025 0.008 -0.023 -0.079 -0.119 -0.194 0.072 -0.086 0.131 -0.002 0.053 0.06 0.018 0.062 -0.025 0.036 0.007 0.073 -0.014 0.047 z" vector-effect="non-scaling-stroke" fill="#000" fill-opacity="1" stroke="#FFF" stroke-width="0px" stroke-linejoin="round" stroke-linecap="round"/></svg>
