<svg xmlns="http://www.w3.org/2000/svg" xmlns:xlink="http://www.w3.org/1999/xlink" height="400" width="400" viewBox="79.7078125 -9.8126953125 2.16914062500001 3.863330078125"><path d="M 79.97 -9.631 l -0.063 0.011 -0.049 -0.067 -0.012 -0.028 0.013 -0.02 0.014 -0.01 0.016 0.003 0.023 0.062 z M 79.875 -9.051 l 0.029 0.076 -0.083 -0.052 -0.054 -0.043 -0.019 -0.035 0.112 0.039 z M 79.982 -9.813 l 0.096 0.005 0.103 -0.003 0.072 0.014 0.123 0.154 0.335 0.276 0.182 0.28 0.017 0.061 0.025 0.053 0.044 0.015 0.037 0.024 0.182 0.271 0.021 0.054 -0.003 0.059 0.011 0.044 0.048 0.022 0.059 0.012 0.039 0.041 0.049 0.216 0 0.067 0.014 0.029 0.229 0.336 0.013 0.041 -0.002 0.031 0.007 0.026 0.044 0.059 0.069 0.16 0.035 0.036 0.042 0.14 0.003 0.268 -0.016 0.119 -0.043 0.145 -0.051 0.142 -0.055 0.102 -0.075 0.087 -0.257 0.184 -0.074 0.037 -0.335 0.115 -0.247 0.109 -0.228 0.03 -0.228 -0.06 -0.172 -0.143 -0.088 -0.211 -0.06 -0.22 -0.088 -0.245 -0.067 -0.756 -0.032 -0.211 -0.052 -0.269 0.005 -0.117 0.037 -0.112 0 0.245 0.034 0.03 0.025 -0.032 0.023 -0.254 0.019 -0.108 0.091 -0.28 0.002 -0.05 -0.016 -0.105 0.001 -0.053 0.136 -0.196 0.035 -0.114 0.019 -0.117 -0.007 -0.126 -0.025 -0.125 0.11 0.04 0.06 0.043 0.062 0.029 0.05 -0.015 0.06 0 -0.043 -0.068 -0.128 -0.063 -0.212 -0.039 -0.066 -0.049 -0.025 -0.043 0.013 -0.05 z" vector-effect="non-scaling-stroke" fill="#000" fill-opacity="1" stroke="#FFF" stroke-width="0px" stroke-linejoin="round" stroke-linecap="round"/></svg>
