<svg xmlns="http://www.w3.org/2000/svg" xmlns:xlink="http://www.w3.org/1999/xlink" height="400" width="400" viewBox="-61.353515625 -13.358740234375 0.2294921875 0.664013671874997"><path d="M -61.175 -13.158 l -0.029 0.016 -0.073 -0.067 0.009 -0.078 0.044 -0.043 0.042 -0.025 0.043 -0.003 0.015 0.065 -0.01 0.091 z M -61.226 -12.995 l -0.016 0.011 0.008 0 -0.008 0.007 -0.005 -0.007 -0.008 -0.005 -0.01 -0.002 -0.012 0 0 -0.007 0.015 0.005 0.023 -0.004 0 -0.008 -0.007 -0.007 -0.003 -0.005 0.008 -0.008 0.028 -0.018 0.012 -0.009 0.001 0.004 0 0.004 0.001 0.003 0.004 0.003 -0.014 0.014 z M -61.334 -12.695 l -0.01 0 -0.009 -0.003 0.002 -0.003 0.011 -0.002 0.005 -0.007 -0.002 -0.009 0 -0.01 0.009 -0.006 0.007 -0.001 0.003 0.004 0.002 0.009 -0.005 0.007 -0.006 0.006 -0.003 0.009 z" vector-effect="non-scaling-stroke" fill="#000" fill-opacity="1" stroke="#FFF" stroke-width="0px" stroke-linejoin="round" stroke-linecap="round"/></svg>
