<svg xmlns="http://www.w3.org/2000/svg" xmlns:xlink="http://www.w3.org/1999/xlink" height="400" width="400" viewBox="21.82529296875 -22.20244140625 16.7841796875 13.53681640625"><path d="M 34.078 -9.462 l -0.001 0 -0.186 -0.001 -0.003 -0.001 -0.003 -0.003 -0.003 -0.005 -0.003 -0.007 -0.007 -0.028 -0.004 -0.044 0.006 -0.076 0.021 -0.091 0.064 -0.128 0.003 -0.011 0.001 -0.006 0 -0.007 -0.006 -0.023 -0.007 -0.02 -0.004 -0.03 0.011 -0.066 0.001 -0.021 -0.002 -0.026 -0.005 -0.017 -0.045 -0.11 -0.015 -0.018 -0.433 -0.352 -0.079 -0.095 -0.008 -0.007 -0.011 -0.005 -0.22 -0.08 -0.011 -0.008 0.001 -0.012 0.007 -0.015 0.026 -0.046 0.004 -0.012 0.004 -0.019 -0.099 -0.741 0 -0.015 0.004 -0.01 0.004 -0.006 0.013 -0.016 0.011 -0.016 0.013 -0.029 0.003 -0.011 0.014 -0.132 -0.001 -0.116 0.058 -0.193 0.006 -0.082 -0.477 -0.006 -0.003 0.004 0 0.005 0.001 0.006 0.001 0.006 0 0.013 -0.004 0.024 -0.001 0.013 0 0.013 0.007 0.046 0.013 0.035 0.002 0.012 0.001 0.013 -0.002 0.024 -0.664 0.003 0.263 0.291 0.003 0.006 0.005 0.016 0.002 0.012 0.005 0.102 -0.014 0.162 0.003 0.104 0.015 0.068 0.071 0.133 -0.005 0.025 -0.017 0.031 -0.471 0.395 -0.013 0.019 -0.066 0.165 -0.062 0.096 -0.028 0.027 -0.109 0.135 -0.43 0.422 -0.07 0.028 -0.214 0.012 -0.113 0.003 -0.013 0.003 -0.019 0.007 -0.012 0.011 -0.014 0.008 -0.014 -0.004 -0.016 -0.011 -0.265 -0.236 -0.472 -0.298 -0.045 0.027 -0.267 0.128 -0.055 0.033 -0.03 0.024 -0.002 0.144 -0.046 0.073 -0.084 0.08 -0.231 0.051 -0.12 0.043 -0.123 0.065 -0.02 0.016 0 0 -0.047 0.045 -0.093 0.09 -0.01 0.07 0.015 0.063 -0.796 -0.003 -0.053 -0.05 -0.11 -0.221 -0.005 -0.002 -0.081 0.014 -0.726 -0.026 -0.104 0.023 -0.207 0.091 -0.104 0.015 -0.107 -0.042 -0.382 -0.44 -0.083 -0.053 -0.03 -0.028 -0.056 -0.077 -0.081 -0.046 -0.028 -0.033 -0.009 -0.047 0.002 -0.096 -0.027 -0.06 -0.06 -0.014 -0.513 0.102 -0.073 -0.011 -0.108 0.018 -0.037 0.018 -0.043 0.058 -0.009 0.06 0.001 0.061 -0.013 0.06 -0.039 0.066 -0.146 0.149 -0.032 0.065 0.007 0.164 -0.01 0.083 -0.022 0.038 -0.064 0.063 -0.023 0.036 -0.011 0.051 -0.004 0.108 -0.011 0.051 -0.08 0.127 -0.019 0.045 -0.005 0.092 -0.013 0.028 -0.232 0.073 -0.087 0.046 -0.053 0.072 -0.013 0.031 -0.099 -0.026 -0.126 -0.018 -0.243 -0.023 -0.096 -0.033 -0.046 -0.05 0.015 -0.127 -0.024 -0.027 -0.039 -0.023 -0.026 -0.055 0.005 -0.066 0.128 -0.147 0.027 -0.079 0.02 -0.273 0.013 -0.096 -0.01 -0.113 -0.101 -0.207 -0.088 -0.144 -0.144 -0.214 -0.056 -0.07 -0.292 -0.294 -0.034 -0.044 -0.071 -0.124 0.035 -0.109 0.043 -0.163 0.005 -0.075 -0.02 -0.078 -0.074 -0.058 -0.066 -0.007 -0.029 -0.03 -0.057 -0.043 -0.056 -0.033 -0.05 -0.064 -0.035 -0.09 0.025 -0.321 -0.017 -0.043 -0.075 -0.012 -0.017 -0.023 0.003 -0.061 -0.04 -0.183 -0.045 -0.151 0.024 -0.083 -0.062 -0.114 -0.119 -0.049 -0.112 0.015 -0.121 0.023 -0.073 -0.006 -0.05 -0.021 -0.035 -0.042 -0.018 -0.049 0.017 -0.074 0.066 -0.136 0.083 -0.112 0.168 -0.102 0.045 -0.054 0.025 -0.06 0.004 -0.069 -0.011 -0.073 -0.019 -0.066 -0.049 -0.088 -0.045 -0.104 -0.001 -0.069 0.022 -0.05 0.045 -0.06 0.089 -0.068 0.021 -0.014 0.056 -0.037 0.049 -0.027 0.122 -0.072 0.029 -0.034 -0.01 -0.041 -0.03 -0.034 -0.049 -0.047 -0.01 -0.058 -0.014 -0.099 -0.025 -0.063 -0.018 -0.046 0.035 -0.035 0.052 -0.048 0.064 -0.029 0.1 -0.025 0.039 -0.034 0.012 -0.066 -0.003 -0.063 0.036 -0.047 0.048 -0.1 0.039 -0.046 0.065 -0.052 0.065 -0.065 0.029 -0.076 0.008 -0.073 -0.036 -0.222 0.075 -0.093 0.096 -0.077 0.138 0.005 0.215 -0.017 0.146 -0.032 0.104 0.001 0.238 0.041 0.019 -0.01 0.006 -0.008 0.013 -0.059 0 -0.148 0 -0.446 0 -0.446 0 -0.446 0 -0.446 0 -0.446 0 -0.446 0 -0.446 0 -0.446 0 -0.125 0 -0.125 0 -0.125 0 -0.125 0.247 0 0.247 0 0.247 0 0.247 0 0.003 -0.002 0.003 -0.002 0.003 -0.002 0.003 -0.002 0 -0.498 0 -0.498 0 -0.498 0 -0.498 0.382 0 0.382 0 0.382 0 0.382 0 0.382 0 0.382 0 0.382 0 0.382 0 0.382 0 0.382 0 0.382 0 0.382 0 0.382 0 0.382 0 0.382 0 0.382 0 0.117 0 0.051 -0.007 0.098 -0.186 0.042 -0.014 0.064 0.011 0.022 0.044 -0.02 0.063 -0.032 0.089 0.187 0 0.328 0 0.328 0 0.328 0 0.328 0 0.328 0 0.328 0 0.328 0 0.328 0 0.328 0 0.328 0 0.328 0 0.328 0 0.328 0 0.328 0 0.328 0 0.328 0 0.011 0.228 0.044 0.182 0.154 0.26 0.131 0.14 0.047 0.077 0.005 0.036 -0.006 0.033 -0.04 -0.038 -0.067 -0.026 -0.009 0.122 0.016 0.087 0.016 0.163 0.055 0.175 -0.04 0.162 0.005 0.274 0.069 0.329 -0.014 0.21 0.113 0.49 0.11 0.272 0.06 0.067 0.068 0.036 0.13 0.023 0.192 0.138 0.152 0.146 0.054 0.076 0.074 0.084 0.05 -0.015 0.031 -0.022 0.05 0.068 0.241 0.146 0.035 0.068 -0.087 0.067 -0.1 0.115 -0.025 0.046 -0.012 0.027 -0.012 0.034 -0.026 0.034 -0.058 0.047 -0.023 0.02 -0.014 0.032 -0.034 0.021 -0.037 0.001 -0.033 0.014 -0.05 0.022 -0.074 -0.011 -0.075 0.02 -0.028 0.025 -0.06 0.022 -0.06 0.005 -0.021 0.008 -0.056 0.038 -0.069 0.052 -0.081 0.033 -0.029 0.011 -0.037 0.036 -0.057 0.179 -0.042 0.047 -0.071 0.005 -0.092 0 -0.079 0.015 -0.108 -0.02 -0.053 0.002 -0.014 0.038 -0.019 0.154 0.003 0.066 -0.043 0.078 -0.048 0.098 0.018 0.165 0.008 0.163 -0.088 0.246 -0.012 0.056 -0.089 0.195 -0.045 0.073 -0.113 0.364 -0.044 0.112 -0.095 0.118 0.021 0.192 0.023 0.204 0.021 0.192 0.032 0.287 -0.08 0.268 0.003 0.146 -0.056 0.216 -0.044 0.1 -0.039 0.059 -0.033 0.061 -0.061 0.135 -0.052 0.178 -0.023 0.182 -0.002 0.106 -0.01 0.048 -0.018 0.031 -0.12 0.02 -0.167 0.021 -0.09 0.024 -0.06 0.037 -0.074 0.086 -0.146 0.237 -0.077 0.145 -0.12 0.199 -0.14 0.14 -0.03 0.068 -0.023 0.127 -0.052 0.201 -0.047 0.143 0.008 0.115 -0.044 0.2 0.007 0.097 -0.049 0.054 -0.066 0.051 -0.045 0.013 -0.096 -0.059 -0.073 -0.06 -0.03 -0.016 -0.064 0.037 -0.077 0.055 -0.088 0.129 -0.068 0.131 0.039 0.277 -0.004 0.061 -0.02 0.066 -0.106 0.206 -0.026 0.065 -0.039 0.124 -0.041 0.216 z" vector-effect="non-scaling-stroke" fill="#000" fill-opacity="1" stroke="#FFF" stroke-width="0px" stroke-linejoin="round" stroke-linecap="round"/></svg>
