<svg xmlns="http://www.w3.org/2000/svg" xmlns:xlink="http://www.w3.org/1999/xlink" height="400" width="400" viewBox="-58.0544921875 -5.99345703124999 4.06401367187499 4.15122070312499"><path d="M -54.156 -5.359 l -0.084 0.071 -0.091 0.101 -0.121 0.174 0.005 0.055 -0.026 0.044 -0.006 0.078 0.009 0.087 0.031 0.057 0.014 0.109 -0.024 0.098 0.009 0.057 0.025 0.09 0.02 0.096 -0.002 0.039 0.029 0.032 0.027 0.031 -0.009 0.086 0.095 0.153 0.058 0.067 0.085 0.065 0.031 0.063 0.048 0.077 0.028 0.009 0.015 0.031 -0.015 0.059 -0.004 0.082 -0.054 0.095 -0.125 0.175 -0.015 0.041 0.032 0.145 -0.017 0.119 -0.007 0.057 -0.061 0.104 -0.145 0.252 -0.084 0.045 -0.05 0.073 -0.032 0.001 -0.036 0.007 -0.012 0.009 -0.046 -0.001 -0.036 -0.032 -0.006 -0.038 -0.019 -0.044 -0.045 -0.013 -0.085 0.015 -0.024 -0.011 -0.05 -0.047 -0.042 -0.051 -0.01 -0.049 -0.027 0.005 -0.065 0.045 -0.044 0.009 -0.035 -0.012 -0.039 0.003 -0.098 0.048 -0.058 0.011 -0.041 0.048 -0.274 0.022 -0.072 0.013 -0.163 -0.083 -0.042 -0.027 -0.022 -0.004 -0.018 0.004 -0.018 0.018 -0.027 0.105 -0.025 0.028 -0.043 0.023 -0.042 0.042 -0.008 0.04 0.064 0.022 0.054 0.079 0.058 0.063 0.047 0.056 -0.006 0.063 -0.008 0.089 -0.034 0.03 -0.057 0.015 -0.207 -0.043 -0.159 -0.039 -0.067 -0.008 -0.03 -0.01 -0.04 -0.033 -0.04 -0.03 -0.065 -0.011 -0.077 -0.02 -0.057 -0.078 -0.059 -0.112 -0.021 -0.05 -0.046 -0.049 -0.045 -0.069 -0.014 -0.061 -0.034 -0.056 -0.018 -0.019 -0.026 -0.077 -0.005 -0.029 -0.013 -0.004 -0.019 -0.025 -0.036 -0.082 -0.008 -0.02 -0.016 -0.007 -0.042 -0.058 -0.034 -0.02 -0.012 -0.03 0.003 -0.081 -0.018 -0.04 -0.006 -0.075 -0.001 -0.03 -0.017 -0.033 -0.029 -0.022 -0.005 -0.055 -0.007 -0.135 -0.014 -0.023 -0.122 0.002 -0.012 0.013 -0.053 0.008 -0.059 0.001 -0.053 -0.018 -0.044 -0.024 -0.009 -0.029 0.007 -0.094 -0.071 -0.071 -0.112 -0.088 -0.034 -0.111 -0.041 -0.069 -0.125 -0.145 -0.022 -0.1 0 -0.07 0.044 -0.065 0.061 -0.113 0.025 -0.103 0.018 -0.054 0.032 -0.07 0.029 -0.091 -0.022 -0.056 -0.037 -0.055 -0.012 -0.041 0.036 -0.06 0.036 -0.042 0.041 -0.006 0.052 -0.025 0.041 -0.037 0.062 -0.01 0.078 -0.004 0.159 0 0.081 -0.016 0.025 -0.029 -0.004 -0.056 0.04 -0.051 0.042 -0.021 0.017 -0.017 0.002 -0.019 -0.011 -0.017 -0.017 -0.011 -0.044 -0.004 -0.039 -0.089 0.027 -0.039 0.034 -0.071 0.01 -0.04 0.053 -0.063 0.013 0.02 0.041 -0.115 0.005 -0.093 0.031 -0.092 0.048 -0.109 0.087 -0.054 0.504 0.055 0.23 0.052 0.296 0.09 0.042 0.096 0.002 -0.096 -0.014 -0.097 0.082 -0.069 0.18 -0.024 0.269 0.033 0.231 -0.041 0.315 0.005 0.478 0.078 0.214 0.054 0.088 0.048 0.017 0.087 -0.009 0.112 -0.035 0.107 z" vector-effect="non-scaling-stroke" fill="#000" fill-opacity="1" stroke="#FFF" stroke-width="0px" stroke-linejoin="round" stroke-linecap="round"/></svg>
