<svg xmlns="http://www.w3.org/2000/svg" xmlns:xlink="http://www.w3.org/1999/xlink" height="400" width="400" viewBox="11.14716796875 -69.036865234375 13.00830078125 13.690478515625"><path d="M 19.076 -57.836 l -0.083 0.024 -0.049 0.071 -0.067 0.012 -0.064 0.023 -0.023 0.223 0.117 0.085 -0.064 0.012 -0.059 0.025 -0.042 0.038 -0.043 0.081 -0.161 0.046 -0.061 0.034 -0.09 0.075 -0.047 0.109 -0.091 0.047 -0.103 0.011 0.06 -0.09 0.079 -0.073 -0.076 -0.05 -0.046 -0.078 -0.059 -0.06 0.047 -0.067 -0.023 -0.11 0.008 -0.107 0.068 -0.054 0.078 -0.044 0.122 -0.102 0.132 -0.074 0.184 -0.033 0.083 0.031 0.036 -0.067 0.059 -0.015 0.056 0.015 z M 16.529 -56.291 l -0.051 0.05 -0.046 -0.004 -0.03 -0.067 -0.007 -0.173 0.018 -0.085 0.218 -0.308 0.097 -0.025 0.137 -0.189 0.037 -0.084 0.059 -0.076 0.035 -0.068 0.029 -0.027 0.064 0.013 0.028 0.012 -0.067 0.039 0.008 0.051 -0.005 0.021 -0.17 0.223 -0.045 0.145 -0.06 0.035 z M 11.388 -59.037 l 0.082 0.127 0.073 0.017 0.099 -0.033 0.069 -0.093 0.04 -0.139 0.046 -0.132 -0.055 -0.142 -0.058 -0.124 -0.004 -0.037 0.154 -0.105 0.047 -0.085 0.051 -0.081 0.056 -0.028 0.084 -0.006 0.097 -0.015 0.123 -0.054 0.11 -0.073 0.084 -0.067 0.029 -0.132 0.001 -0.066 0.037 -0.049 0.036 -0.096 -0.035 -0.095 -0.108 -0.144 -0.131 -0.202 -0.021 -0.111 0.06 -0.021 0.114 -0.018 0.215 -0.005 0.023 -0.013 0.022 -0.048 0.049 -0.066 0.052 -0.048 0.035 -0.068 0.017 -0.062 -0.123 -0.093 -0.161 -0.096 -0.109 -0.032 -0.195 -0.08 -0.137 -0.067 0.078 -0.256 0.058 -0.191 0.009 -0.046 0.002 -0.072 -0.189 -0.306 0.007 -0.068 0.018 -0.061 -0.02 -0.105 -0.011 -0.094 0.032 -0.028 0.077 -0.053 -0.074 -0.082 -0.006 -0.007 -0.139 -0.203 0.212 -0.201 -0.037 -0.104 0.127 -0.075 0.231 -0.172 0.13 -0.097 0.028 -0.017 0.103 -0.043 0.195 -0.05 0.216 -0.025 0.096 0 0.371 0.034 0.29 0.027 0.042 -0.027 0.061 -0.055 0.078 -0.078 0.007 -0.087 -0.028 -0.127 -0.042 -0.076 -0.204 -0.05 -0.223 -0.068 0.275 -0.215 0.19 -0.149 0.237 -0.225 0.074 -0.094 0.053 -0.037 0.07 -0.345 0.046 -0.096 0.039 -0.05 0.001 -0.052 -0.025 -0.087 -0.067 -0.197 0.375 -0.024 0.122 -0.014 0.113 -0.024 0.222 -0.061 0.109 -0.054 -0.061 -0.184 0.134 -0.062 0.327 -0.217 0.354 -0.208 0.166 -0.079 0.017 -0.038 0.014 -0.062 -0.074 -0.097 -0.079 -0.06 -0.154 -0.114 0.066 -0.079 0.114 -0.015 0.15 -0.031 0.117 -0.068 0.011 -0.009 0.198 -0.267 0.387 -0.135 0.154 -0.074 0.24 0.055 0.352 0.084 0.157 -0.123 0.052 -0.046 0.052 -0.067 -0.021 -0.116 -0.009 -0.151 0.016 -0.061 0.14 -0.027 0.076 -0.007 0.391 0.062 0.098 -0.001 0.184 0.008 0.206 0.027 0.432 0.073 0.179 0.03 0.1 0.006 0.086 -0.034 0.184 -0.087 -0.271 -0.065 0.179 -0.065 0.093 -0.066 0.079 -0.081 0.029 -0.095 -0.011 -0.051 -0.055 -0.035 -0.166 -0.087 0.375 -0.012 0.13 -0.004 0.273 0.057 0.012 0.012 0.002 0.03 0.01 0.031 0.265 0.078 0.076 0.041 0.163 0.063 0.043 0.034 0.151 0.04 0.108 0.042 0.126 0.034 0.147 0.054 0.198 0.043 0.167 0.014 0.42 0.073 0.072 0.024 0.121 0.051 0.122 0.059 0.085 0.121 0.136 0.006 0.037 0.042 0.119 0.071 0.165 0.063 -0.006 0.021 -0.131 0.058 -0.014 0.079 0.012 0.1 0.041 0.082 -0.004 0.024 -0.033 0.028 -0.039 0.044 -0.014 0.039 0.003 0.019 0.013 0.01 0.069 0.001 0.124 0.009 0.073 0.017 0.041 0.094 -0.014 0.018 -0.104 0.043 -0.031 0.034 -0.003 0.05 0.018 0.055 0.036 0.061 0.082 0.066 0.11 0.069 0.072 0.056 0.034 0.04 0.013 0.028 -0.05 0.035 -0.045 0.069 -0.008 0.079 -0.02 0.051 -0.097 0.071 -0.067 0.025 -0.019 0.037 -0.008 0.063 0.02 0.076 0.007 0.052 0.021 0.037 0.03 0.024 0.156 0.043 0.087 0.088 0.054 0.071 0.106 0.185 -0.265 0.023 -0.199 -0.046 -0.099 0.023 -0.174 0.001 -0.197 0.018 -0.067 0.036 -0.052 0.015 -0.183 -0.051 -0.173 -0.084 -0.126 0.064 -0.082 0.012 -0.073 -0.058 -0.064 -0.009 -0.035 0.019 -0.03 0.052 -0.048 0.041 -0.013 0.026 -0.008 0.103 -0.013 0.024 -0.168 -0.013 0.01 0.027 0.037 0.014 0.015 0.017 -0.061 0.023 -0.167 -0.002 -0.017 0.024 0.047 0.038 -0.037 0.033 -0.034 0.013 -0.199 0.021 -0.115 -0.005 -0.033 0.022 -0.009 0.028 0.022 0.027 0.051 0.015 0.017 0.017 -0.004 0.038 -0.042 0.007 -0.12 -0.066 -0.037 0.003 0.027 0.034 0.069 0.038 0.04 0.038 0.035 0.046 -0.007 0.035 -0.149 0.113 -0.131 0.071 -0.098 0.064 -0.058 0.068 0.067 0.034 0.074 0.05 0.052 0.095 0.062 0.085 0.126 0.081 -0.025 0.047 -0.029 0.037 -0.209 0.08 -0.237 0.121 -0.256 0.31 -0.085 0.042 -0.224 0.053 -0.082 0.051 -0.167 0.06 -0.291 0.052 -0.132 0.072 -0.06 0.075 -0.066 0.005 -0.066 -0.029 -0.088 -0.022 -0.011 0.049 0.004 0.036 -0.14 -0.053 -0.066 0.049 -0.052 0.081 -0.202 0.11 -0.218 -0.02 -0.024 0.019 0.058 0.014 0.009 0.018 -0.04 0.009 -0.06 -0.001 -0.092 0.022 -0.061 -0.002 -0.029 0.052 -0.047 0.063 -0.123 0.026 -0.063 0.005 -0.031 0.036 0.189 0.008 -0.015 0.03 -0.004 0.03 -0.02 0.032 -0.215 0.047 -0.033 0.037 -0.045 0.023 -0.096 -0.001 0.004 -0.021 0.016 -0.024 -0.142 0.002 -0.044 -0.053 -0.027 0.014 0.016 0.043 0.037 0.044 0.042 0.065 -0.034 0.041 -0.038 0.02 0.027 0.019 0.076 0.014 0.031 0.026 -0.09 0.022 -0.113 0.076 -0.117 0.002 -0.071 0.05 -0.076 0 -0.062 -0.031 -0.099 -0.026 -0.032 0.046 -0.005 0.036 0.056 0.092 0.106 0.071 0.098 0.031 -0.071 0.021 -0.053 0.046 -0.064 0.144 -0.035 0.057 -0.038 0.1 0.024 0.084 0.019 0.041 0.048 0.056 -0.131 -0.007 -0.138 -0.033 0.019 0.068 -0.085 0.081 0.016 0.071 0.018 0.046 -0.026 0.077 0.04 0.024 0.022 0.046 -0.036 0.034 0.016 0.029 0.006 0.103 0.027 0.161 -0.01 0.034 0.076 0.14 -0.018 0.049 -0.01 0.062 0.109 0.06 0.097 -0.001 0.098 -0.001 0.038 0.015 0.038 0.042 0.03 0.05 0.081 -0.004 0.129 -0.041 0.084 -0.01 0.056 0.078 0.151 0.104 0.088 0.046 0.15 0.024 0.158 0.084 -0.022 0.101 0.066 0.034 0.186 0.04 0.066 0.054 0.032 0.046 0.049 0.038 0.057 0.115 -0.02 0.071 -0.075 0.024 -0.177 0.076 -0.079 0.056 -0.062 0.035 -0.176 0.075 -0.064 0.014 -0.062 0.039 -0.06 0.017 -0.053 -0.01 -0.199 0.071 0.016 0.03 0.153 0.013 0.078 -0.015 0.06 -0.036 0.066 -0.008 0.06 0.007 0.063 -0.028 0.05 -0.011 0.051 0.013 0.057 0.067 -0.119 0.035 -0.084 0.002 -0.041 0.111 -0.051 0.048 -0.037 0.023 -0.187 0.047 -0.124 0.06 -0.146 0.048 -0.064 -0.01 -0.096 0.049 -0.213 0.058 -0.109 0.078 -0.245 0.07 -0.125 0.057 -0.339 0.003 -0.324 -0.012 -0.102 0.027 0.104 0.008 0.073 0.026 0.087 -0.011 0.205 0.013 0.105 0.014 0.135 0.093 -0.1 0.033 -0.172 0.025 0.065 0.131 0.053 0.089 -0.07 0.053 -0.005 0.243 -0.098 0.005 -0.042 0.101 0.031 0.051 -0.002 0.119 0.02 0.073 0.048 0.068 -0.021 0.071 -0.155 0.165 0.004 0.077 0.028 0.046 0.021 0.074 -0.07 0.141 -0.05 0.118 -0.059 0.099 -0.132 0.119 -0.066 0.089 -0.154 0.278 -0.076 0.055 -0.094 0.042 -0.104 -0.039 -0.096 -0.021 -0.117 0.003 -0.183 0.032 -0.275 -0.021 -0.269 0.01 -0.068 0.028 0.041 0.101 -0.099 0.013 -0.097 -0.029 -0.085 0.034 -0.071 0.038 -0.14 0.089 -0.047 0.055 -0.012 0.103 0.074 0.093 0.065 0.109 -0.168 0.131 -0.094 0.004 -0.274 -0.036 -0.485 0.082 -0.436 -0.065 0.055 -0.07 -0.002 -0.052 0.025 -0.079 0.015 -0.081 -0.004 -0.054 -0.032 -0.058 -0.107 -0.076 -0.242 -0.256 -0.072 -0.108 -0.05 -0.045 0.036 -0.002 0.199 0.058 0.046 -0.007 0.049 -0.022 -0.059 -0.083 -0.051 -0.038 -0.035 -0.056 0.117 -0.015 0.084 0.003 0.062 -0.063 -0.036 -0.102 -0.091 -0.031 -0.076 -0.014 -0.145 -0.16 -0.151 -0.083 -0.27 -0.321 -0.099 -0.22 -0.092 0.021 -0.045 -0.096 -0.032 -0.091 -0.006 -0.067 -0.144 -0.038 -0.006 -0.047 -0.026 -0.209 -0.154 -0.028 -0.1 -0.117 -0.018 -0.222 -0.102 -0.04 -0.082 0.011 0.004 -0.055 0.02 -0.052 -0.048 -0.204 -0.016 -0.186 -0.039 -0.056 -0.022 -0.066 0.02 -0.057 0.029 -0.033 0.1 -0.009 z M 19.156 -57.923 l -0.018 0.062 -0.052 -0.005 -0.047 -0.046 0.096 -0.07 0.146 0.004 0.05 0.015 z M 18.416 -59.029 l -0.044 0.01 -0.022 -0.003 0.027 -0.046 0.02 -0.02 0.067 -0.019 0.021 0.003 z M 18.595 -59.47 l -0.025 0.033 -0.025 -0.041 0.01 -0.008 0.017 -0.04 0.049 -0.022 0.078 0.013 0 0.01 -0.074 0.032 z" vector-effect="non-scaling-stroke" fill="#000" fill-opacity="1" stroke="#FFF" stroke-width="0px" stroke-linejoin="round" stroke-linecap="round"/></svg>
