<svg xmlns="http://www.w3.org/2000/svg" xmlns:xlink="http://www.w3.org/1999/xlink" height="400" width="400" viewBox="5.97001953125002 -47.775634765625 4.48457031249998 1.94560546875"><path d="M 9.554 -47.511 l 0.071 0.044 -0.017 0.075 -0.082 0.121 -0.043 0.098 -0.005 0.075 0.008 0.035 0.015 0 0.078 0.005 0.04 0 0.125 0.02 0.1 0.03 0.019 0.031 0.013 0.038 0.119 0.052 0.137 0.034 0.046 -0.011 0.17 -0.122 0.066 0.02 0.04 0.065 -0.002 0.034 -0.047 0.13 -0.008 0.07 0.04 0.046 0.004 0.036 -0.012 0.033 -0.068 0.003 -0.091 -0.018 -0.077 -0.056 -0.058 0.007 -0.05 0.014 -0.026 0.053 -0.023 0.064 0.007 0.035 0.036 0.027 0.028 0.058 0.02 0.075 0.015 0.034 -0.017 0.015 -0.048 0.01 -0.04 -0.01 -0.069 -0.09 -0.032 -0.034 -0.055 -0.006 -0.097 0.022 -0.148 0.05 -0.06 0 -0.051 -0.01 -0.048 -0.043 -0.04 -0.082 -0.013 -0.052 -0.028 0.002 -0.095 -0.015 -0.044 0.02 0 0.084 -0.009 0.104 -0.048 0.068 -0.132 0.117 -0.049 0.051 -0.019 0.037 -0.004 0.032 0.02 0.055 0.028 0.053 -0.023 0.03 -0.07 0.016 -0.049 -0.032 -0.019 -0.057 -0.107 -0.077 0.049 -0.065 -0.008 -0.016 -0.177 -0.034 -0.076 -0.049 -0.107 -0.086 -0.02 -0.037 0.004 -0.12 -0.006 -0.029 -0.014 -0.014 -0.052 0.001 -0.072 0.042 -0.067 0.062 -0.136 0.07 -0.014 0.015 0.046 0.068 -0.002 0.027 -0.111 0.109 -0.021 0.036 -0.141 0.068 -0.064 0.026 -0.195 -0.05 -0.054 -0.006 -0.087 0.034 -0.124 0.032 -0.199 0.032 -0.073 -0.023 -0.035 -0.022 -0.017 -0.033 -0.05 -0.058 -0.056 -0.035 -0.039 -0.038 -0.052 -0.041 -0.034 -0.034 0.045 -0.11 -0.033 -0.039 -0.017 -0.055 0.009 -0.037 -0.018 -0.009 -0.18 -0.022 -0.149 0.007 -0.107 0.037 -0.087 0.061 -0.01 0.013 0.005 0.011 0.043 0.056 -0.074 0.059 -0.113 0.046 -0.08 0.005 -0.035 -0.009 -0.001 -0.063 0.066 -0.023 0.06 -0.041 0.02 -0.058 0.007 -0.041 -0.063 -0.05 0.008 -0.03 0.039 -0.058 0.023 -0.051 0.031 -0.044 0.124 -0.072 0.125 -0.072 0.019 -0.077 0.01 -0.094 0.018 -0.022 0.169 -0.056 0.042 -0.022 0.021 -0.032 0.133 -0.105 0.131 -0.104 0.026 -0.035 0.022 -0.02 0 -0.017 -0.017 -0.013 -0.063 -0.009 -0.021 -0.033 0.068 -0.059 0.085 -0.036 0.083 0 0.033 0.017 -0.002 0.02 0.036 0.021 0.063 0.007 0.077 -0.007 0.077 -0.022 0.047 -0.052 0.028 -0.04 0.121 -0.045 0.082 0.023 0.229 0.006 0.167 -0.012 0.104 -0.031 0.13 0 0.087 0.017 0.015 -0.003 0.024 -0.004 0.024 -0.017 0.082 -0.011 0.011 -0.014 -0.003 -0.014 -0.015 -0.007 -0.101 0.007 -0.038 -0.011 -0.01 -0.025 0.032 -0.044 0.074 -0.036 0.063 -0.009 0.045 0.01 0.11 0.066 0.026 0.002 0.015 -0.012 0.023 -0.007 0.038 0.013 0.043 0.041 0.007 0.006 0.246 -0.014 0.055 0 0.067 0.073 0.202 0.084 z" vector-effect="non-scaling-stroke" fill="#000" fill-opacity="1" stroke="#FFF" stroke-width="0px" stroke-linejoin="round" stroke-linecap="round"/></svg>
