<svg xmlns="http://www.w3.org/2000/svg" xmlns:xlink="http://www.w3.org/1999/xlink" height="400" width="400" viewBox="35.764453125 -37.297265625 6.59462890624999 4.97998046875"><path d="M 35.893 -35.917 l 0.075 0.006 0.16 0.079 0.026 -0.002 0.048 -0.104 0.047 -0.035 0.099 -0.031 0.028 -0.168 0.046 -0.032 0.056 -0.017 0.085 -0.003 0.074 -0.01 0.005 -0.03 -0.104 -0.194 0.009 -0.049 0.05 -0.195 0.032 -0.076 0.03 -0.025 0.118 0.01 0.165 0.034 0.044 0.056 0.081 0.05 0.121 -0.003 0.14 0.009 0.109 0.003 0.087 -0.035 0.197 -0.065 0.098 -0.022 0.089 -0.029 0.285 -0.107 0.114 0.008 0.078 0.014 0.06 0.017 0.134 0.073 0.111 0.074 0.078 0.022 0.14 -0.002 0.202 0.014 0.248 -0.001 0.145 -0.021 0.185 -0.036 0.33 -0.087 0.434 -0.183 0.255 -0.089 0.11 -0.01 0.143 -0.001 0.143 0.023 0.162 0.017 0.075 -0.001 0.176 -0.018 0.228 -0.037 0.143 -0.03 0.173 -0.05 0.108 -0.083 0.035 -0.009 0.045 0.015 0.021 0.006 0.044 0.047 0.046 0.121 0 0.014 -0.009 0.034 -0.113 0.099 -0.153 0.135 -0.11 0.085 -0.185 0.144 -0.138 0.031 -0.233 0.052 -0.063 0.05 -0.058 0.081 -0.034 0.111 -0.01 0.069 -0.006 0.13 0.055 0.134 0.052 0.129 0.007 0.085 -0.005 0.084 -0.051 0.09 -0.055 0.123 -0.032 0.139 -0.017 0.261 0 0.222 -0.004 0.036 -0.096 0.157 -0.112 0.183 -0.052 0.042 -0.246 0.055 -0.268 0.134 -0.3 0.15 -0.272 0.136 -0.286 0.143 -0.296 0.148 -0.212 0.106 -0.283 0.142 -0.258 0.136 -0.261 0.137 -0.199 0.104 -0.302 0.165 -0.177 0.097 -0.26 0.142 -0.229 0.125 -0.271 0.148 -0.339 -0.044 -0.107 -0.026 -0.088 -0.071 -0.065 -0.038 -0.16 -0.039 -0.103 -0.133 -0.062 -0.047 -0.107 -0.021 0.046 -0.085 0.009 -0.056 0.046 -0.068 -0.029 -0.045 -0.014 -0.095 -0.02 -0.023 -0.008 -0.025 0.016 -0.031 -0.006 -0.031 -0.018 -0.013 -0.009 -0.048 -0.015 -0.035 0.008 -0.043 0.024 -0.028 0.025 -0.054 0.028 -0.016 0.046 -0.034 0.012 -0.035 0.041 -0.034 0.055 -0.028 0.012 -0.023 -0.008 -0.013 -0.055 -0.025 -0.029 -0.044 0.026 -0.065 0.018 -0.02 0.033 -0.031 0.073 -0.048 0.058 -0.008 0.05 0 0.084 0.004 0.065 0.009 0.017 -0.012 -0.002 -0.016 -0.081 -0.039 -0.004 -0.031 0.02 -0.033 0.057 -0.053 0.068 -0.039 0.035 -0.007 0.078 -0.077 0.05 -0.087 -0.081 -0.211 -0.049 -0.034 -0.079 -0.029 -0.047 -0.004 -0.004 -0.014 0.062 -0.054 0.044 -0.047 -0.049 -0.044 -0.088 -0.021 -0.033 0.046 -0.113 0.004 -0.175 -0.001 -0.077 -0.223 -0.011 -0.097 0.002 -0.112 0.053 -0.164 -0.025 -0.076 -0.002 -0.051 -0.014 -0.07 -0.138 -0.151 0.075 -0.278 z" vector-effect="non-scaling-stroke" fill="#000" fill-opacity="1" stroke="#FFF" stroke-width="0px" stroke-linejoin="round" stroke-linecap="round"/></svg>
