<svg xmlns="http://www.w3.org/2000/svg" xmlns:xlink="http://www.w3.org/1999/xlink" height="400" width="400" viewBox="118.2873046875 -25.276904296875 3.64169921874998 3.35190429687501"><path d="M 121.009 -22.62 l -0.062 0.117 -0.05 0.124 -0.02 0.117 0.001 0.121 -0.014 0.109 -0.024 0.108 -0.097 -0.031 -0.053 -0.077 -0.012 -0.127 -0.07 -0.153 -0.026 -0.044 -0.101 -0.085 -0.092 -0.043 -0.071 -0.063 0.009 0.005 -0.053 -0.085 -0.04 -0.09 -0.083 -0.257 -0.029 -0.062 -0.038 -0.057 -0.011 -0.056 0.013 -0.062 0.036 -0.093 0.022 -0.094 -0.018 -0.128 0.007 -0.126 0.027 -0.056 0.471 -0.769 0.128 -0.164 0.079 -0.08 0.066 -0.091 0.063 -0.115 0.077 -0.105 0.055 -0.032 0.27 -0.094 0.084 -0.09 0.067 -0.028 0.077 0.002 0.049 0.043 0.044 0.051 0.046 0.027 0.12 0.05 0.052 0.048 0.024 0.083 -0.073 0.078 -0.036 0.071 -0.007 0.078 0.013 0.106 0.002 0.106 -0.091 0.249 -0.098 0.155 -0.026 0.077 -0.03 0.192 -0.057 0.193 -0.049 0.244 -0.08 0.252 -0.045 0.105 -0.056 0.101 -0.135 0.19 z M 118.407 -24.522 l 0.044 0.067 -0.018 0.041 -0.138 -0.022 -0.008 -0.04 0.052 0.007 z" vector-effect="non-scaling-stroke" fill="#000" fill-opacity="1" stroke="#FFF" stroke-width="0px" stroke-linejoin="round" stroke-linecap="round"/></svg>
