<svg xmlns="http://www.w3.org/2000/svg" xmlns:xlink="http://www.w3.org/1999/xlink" height="400" width="400" viewBox="67.349609375 -41.035107421875 7.76914062500001 4.35107421875"><path d="M 67.759 -37.172 l 0.039 -0.073 0.016 -0.242 0.049 -0.084 0.147 -0.15 0.077 -0.115 0.086 -0.093 0.063 -0.031 0.058 -0.073 0.047 -0.084 0.013 -0.053 -0.004 -0.042 -0.017 -0.027 -0.082 -0.057 -0.107 -0.089 -0.057 -0.09 -0.031 -0.115 -0.008 -0.08 0.101 -0.221 -0.016 -0.037 -0.029 -0.034 -0.059 -0.022 -0.085 -0.009 -0.084 0.01 -0.107 0.001 -0.074 -0.012 -0.018 -0.014 -0.009 -0.101 -0.019 -0.022 -0.032 -0.019 -0.216 -0.046 -0.043 -0.02 -0.008 -0.025 0.077 -0.223 0.033 -0.017 0.032 -0.036 0.051 -0.039 0.177 -0.064 0.19 0.028 0.169 0.03 0.168 0.016 0.058 0.011 0.096 0.009 0.064 -0.008 0.044 -0.026 0.079 -0.072 0.024 -0.108 0.029 -0.096 0.048 -0.007 0.048 0.01 0.023 -0.019 0.01 -0.026 0.01 -0.022 0.02 -0.005 0.035 0.025 0.02 -0.007 0.017 -0.017 -0.005 -0.02 -0.039 -0.033 -0.035 -0.053 0.003 -0.018 0.012 -0.019 0.104 -0.018 0.047 -0.003 0.016 -0.019 -0.006 -0.03 -0.039 -0.017 -0.142 0.009 -0.145 -0.002 -0.017 -0.018 0.008 -0.02 0.022 -0.016 0.299 -0.04 0.159 0.014 0.118 0.021 0.047 -0.01 -0.055 -0.09 0.075 -0.008 0.01 -0.031 -0.098 -0.239 0.054 -0.021 0.054 -0.047 -0.005 -0.089 0.048 -0.043 0.057 -0.03 0.084 0.03 0.13 0.088 0.042 0.017 0.042 0.005 0.06 -0.027 0.232 -0.087 0.131 -0.049 0.156 -0.071 0.027 -0.028 0.054 -0.108 0.029 -0.007 0.04 0.012 0.137 0.112 0.079 0.072 0 0.025 -0.023 0.019 0.004 0.018 0.112 0.039 0 0.018 -0.025 0.034 -0.014 0.019 -0.014 0.008 -0.15 0.098 -0.166 0.109 -0.005 0.014 -0.007 0.027 0.002 0.028 0.027 0.023 0.072 0.016 0.064 0.021 0.032 0.057 0.037 0.053 0.05 0.013 0.246 -0.033 0.059 -0.004 0.003 0.018 -0.015 0.033 -0.208 0.056 -0.094 0.048 -0.02 0.084 -0.025 0.024 -0.042 0.02 -0.042 0.005 -0.064 -0.099 -0.072 -0.021 -0.104 -0.035 -0.203 -0.068 -0.105 -0.029 -0.202 0.044 -0.235 0.061 -0.037 0.037 -0.025 0.04 0.002 0.03 0.017 0.04 -0.012 0.031 -0.044 0.01 -0.067 -0.037 -0.058 -0.021 -0.028 0.051 -0.034 0.091 -0.016 0.066 0.051 0.095 0.017 0.141 0.094 -0.008 0.072 0 0.136 -0.042 0.068 -0.001 0.105 0.018 0.184 0.004 0.146 -0.008 0.035 0.003 0.034 -0.027 0.038 0.009 0.036 0.032 0.147 -0.039 0.109 -0.005 0.067 0.011 0.04 0.011 0.071 0.093 0.054 0.058 0.066 0.019 0.206 -0.017 0.06 -0.082 0.053 -0.02 0.085 -0.006 0.07 -0.015 0.056 -0.033 0.076 -0.029 0.066 -0.006 0.033 0.021 0.014 0.028 -0.012 0.037 -0.003 0.038 0.043 0.026 0.126 0.006 0.06 0.024 0.003 0.045 -0.01 0.071 0.053 0.029 0.027 0.002 0.185 -0.075 0.052 -0.001 0.041 0.042 0.063 0.05 0.083 0.053 0.02 -0.008 0.037 -0.058 0.071 -0.063 0.133 -0.021 0.073 -0.02 0.077 -0.009 0.233 0.026 0.077 0.003 0.16 -0.005 0.126 -0.013 0.101 -0.038 0.051 -0.03 0.083 -0.018 0.105 0.003 0.056 0.009 0.005 0.052 -0.013 0.099 -0.016 0.069 0.083 0.125 0.053 0.06 0.052 0.042 0.01 0.033 -0.011 0.027 -0.065 0.027 -0.023 0.028 -0.011 0.032 0.021 0.037 0.037 0.118 0.048 0.092 0.067 0.044 0.101 0.029 0.056 -0.006 0.04 -0.069 0.066 -0.053 0.056 0.004 0.09 -0.002 0.237 0.06 0.231 0.09 0.067 0.05 0.024 0.056 -0.064 0.13 0.003 0.083 0.015 0.088 0.053 0.066 0.048 0.112 0.009 0.093 0.021 0.028 0.017 0.032 -0.026 0.085 -0.018 0.086 0.022 0.029 0.071 0.042 0.111 0.079 0.021 0.066 -0.04 0.042 -0.071 0.05 -0.09 0.044 -0.027 0.018 -0.016 -0.01 -0.045 -0.044 -0.1 -0.071 -0.071 -0.037 -0.135 0.012 -0.079 -0.013 -0.096 -0.023 -0.089 0.003 -0.056 0.043 -0.036 0.043 -0.089 0.013 -0.129 0.033 -0.199 0.051 -0.096 -0.008 -0.026 -0.022 0.021 -0.03 0.068 -0.038 0.017 -0.046 -0.013 -0.043 -0.063 -0.012 -0.025 -0.007 -0.028 -0.009 -0.123 -0.026 -0.098 0.009 -0.172 0.054 -0.316 0.141 -0.138 0.095 -0.1 0.144 -0.299 0.046 -0.205 0.082 -0.212 0.134 -0.14 0.072 -0.068 0.01 -0.068 -0.013 -0.068 -0.036 -0.067 -0.112 -0.059 -0.17 -0.039 -0.112 0.022 -0.144 0.025 -0.164 0.025 -0.167 0.041 -0.193 0.034 -0.069 0.002 -0.046 -0.03 -0.023 -0.064 0.001 -0.098 0.026 -0.07 0.004 -0.041 -0.017 0.004 -0.09 0.05 -0.162 -0.077 -0.137 -0.204 -0.111 -0.173 -0.039 -0.143 0.034 -0.12 0.088 -0.097 0.142 -0.101 0.117 -0.104 0.091 -0.075 0.044 -0.024 0.017 -0.015 0.038 0.056 0.121 -0.004 0.101 -0.063 0.082 -0.069 0.039 -0.075 -0.004 -0.06 -0.019 -0.044 -0.034 -0.12 -0.009 -0.195 0.016 -0.134 0.041 -0.072 0.066 -0.021 0.087 0.03 0.108 -0.015 0.083 -0.061 0.058 -0.05 0.033 -0.039 0.009 -0.085 -0.05 -0.13 -0.108 -0.09 -0.059 -0.049 -0.009 -0.027 0.006 -0.03 0.011 -0.017 0.014 -0.015 0.032 -0.042 0.013 -0.059 -0.01 -0.054 0.01 -0.032 0.034 -0.091 0.041 -0.16 0.046 -0.087 0.049 -0.015 0.052 -0.024 0.023 -0.049 -0.008 -0.144 0.072 -0.11 -0.022 -0.124 -0.092 -0.068 -0.076 z M 70.653 -40.937 l -0.03 0.002 -0.054 -0.047 -0.019 -0.033 0.022 -0.01 0.046 0.023 0.031 0.041 z M 70.702 -39.825 l -0.09 0.039 -0.053 -0.004 -0.041 -0.037 -0.029 -0.035 -0.006 -0.02 0.015 0 0.069 0.016 0.097 0.011 0.034 0.01 z" vector-effect="non-scaling-stroke" fill="#000" fill-opacity="1" stroke="#FFF" stroke-width="0px" stroke-linejoin="round" stroke-linecap="round"/></svg>
