<svg xmlns="http://www.w3.org/2000/svg" xmlns:xlink="http://www.w3.org/1999/xlink" height="400" width="400" viewBox="29.60009765625 0.994921875000003 10.8634765625 10.7212890625"><path d="M 39.496 6.175 l 0.077 0.213 -0.01 0.04 -0.054 0.024 -0.028 0.002 -0.034 -0.034 -0.024 -0.072 -0.041 0.017 -0.07 -0.086 -0.069 -0.004 -0.061 -0.102 0.024 -0.089 -0.014 -0.152 0.075 -0.078 0.042 -0.131 0.048 0.09 0.011 0.14 0.065 0.164 0.055 0.051 z M 39.865 4.906 l 0.006 0.05 -0.015 0.047 0.003 0.151 -0.006 0.1 -0.057 0.139 -0.047 0.049 -0.042 -0.014 -0.034 -0.023 -0.027 -0.038 0.054 -0.255 -0.028 -0.187 0.107 0.018 z M 32.92 9.407 l -0.057 -0.027 -0.107 -0.059 -0.148 -0.052 -0.121 -0.058 -0.054 -0.056 -0.114 -0.021 -0.098 -0.009 -0.091 -0.052 -0.094 -0.006 -0.093 -0.013 -0.021 -0.035 -0.003 -0.077 -0.033 -0.02 -0.068 -0.02 -0.073 0.001 -0.045 0.011 -0.026 -0.006 -0.061 -0.046 -0.057 -0.058 -0.021 -0.092 -0.086 -0.059 -0.099 -0.047 -0.165 0.003 -0.002 -0.008 -0.032 -0.051 -0.014 -0.05 0.005 -0.05 -0.041 -0.066 -0.087 -0.082 -0.051 -0.065 -0.014 -0.048 -0.002 -0.029 0.014 -0.023 -0.005 -0.018 -0.032 -0.022 -0.013 -0.023 -0.007 -0.037 -0.081 -0.127 -0.1 -0.209 -0.08 -0.091 -0.041 -0.068 -0.015 -0.078 0.01 -0.088 -0.022 -0.099 -0.055 -0.111 -0.009 -0.05 0.008 -0.008 0.023 -0.003 0.018 -0.038 0.002 -0.073 -0.035 -0.07 -0.073 -0.067 -0.057 -0.077 -0.041 -0.088 -0.057 -0.075 -0.117 -0.106 -0.016 -0.027 -0.029 -0.018 -0.043 -0.008 -0.071 0.012 -0.058 0.031 -0.015 -0.002 -0.006 -0.019 -0.123 -0.109 -0.072 -0.082 -0.026 -0.044 -0.005 -0.048 0.011 -0.101 0.019 -0.065 0.027 -0.03 0.023 -0.011 0.019 0.007 0.039 -0.017 0.06 -0.041 0.032 -0.04 0.003 -0.038 -0.028 -0.089 -0.058 -0.141 -0.053 -0.103 -0.054 -0.061 -0.006 -0.061 0.022 -0.051 0.014 -0.091 0.012 -0.007 0.002 -0.088 0.014 -0.017 -0.004 -0.043 -0.021 -0.068 -0.043 -0.057 -0.065 -0.045 -0.047 -0.026 -0.029 -0.006 -0.008 -0.011 0.014 -0.016 -0.007 -0.092 0.034 -0.299 0.006 -0.035 0.071 0.001 0.052 -0.038 0.178 -0.111 0.2 -0.222 0.04 -0.092 0.081 -0.142 0.08 -0.071 0.031 -0.049 0.021 -0.077 0.025 -0.065 0.105 -0.096 0.102 -0.074 -0.007 -0.03 -0.014 -0.022 0.015 -0.019 0.056 -0.038 0.108 -0.035 0.021 -0.074 0 -0.084 -0.018 -0.047 0.003 -0.054 -0.017 -0.03 -0.071 -0.008 -0.105 -0.042 -0.089 -0.018 -0.059 -0.024 -0.022 -0.019 -0.009 -0.05 0.017 -0.055 0.009 -0.016 0.023 -0.059 -0.039 -0.035 -0.01 -0.017 0.018 -0.028 0.092 -0.187 0.02 -0.026 0.04 -0.003 0.063 -0.023 0.058 -0.01 0.048 0.008 0.035 -0.009 0.031 -0.024 0.026 -0.073 0.022 -0.122 -0.012 -0.099 -0.046 -0.077 -0.012 -0.117 0.021 -0.157 -0.015 -0.131 -0.05 -0.104 -0.051 -0.062 -0.079 -0.029 -0.124 -0.159 -0.038 -0.077 0.007 -0.048 0.033 -0.016 0.01 -0.005 0.079 0.007 0.074 -0.018 0.069 -0.044 0.067 -0.013 0.014 0.004 0.021 0.003 0.105 0 0.178 0 0.178 0 0.178 0 0.178 0 0.12 0 0.002 0.008 0.022 0.012 0.025 -0.009 0.02 0.004 0.012 0.027 0.004 0.048 -0.039 0.267 -0.015 0.06 -0.047 0.073 -0.099 0.44 0 0.084 0.012 0.063 0 0.197 0.027 0.051 0.037 0.029 0.028 0.042 0.015 0.041 0.005 0.026 -0.051 0.064 0.007 0.037 0.027 0.031 0.045 0.024 -0.033 0.072 0.002 0.057 0.017 0.041 0.017 0.007 0.029 -0.093 0.037 -0.005 0.013 -0.02 0.02 -0.007 0.053 0.078 0.033 0.005 -0.025 -0.08 -0.01 -0.069 0.017 -0.062 0.045 -0.03 0.1 0.021 0.02 -0.012 -0.01 -0.039 -0.044 -0.092 0.018 -0.017 0.059 -0.011 0.037 -0.056 0.03 -0.027 0.043 -0.001 0.036 0.021 0.037 0.09 0.035 0.029 0.048 0.022 0.081 0.009 0.014 0.009 0 0.032 0.013 0.014 0.095 -0.069 0.028 0.017 0.014 0.035 0.017 0.011 0.049 0.012 0.059 0.001 0.013 0.029 -0.01 0.103 0.048 0.11 -0.014 0.04 -0.083 0.07 0.009 0.043 -0.013 0.075 0.02 -0.013 0.112 -0.11 0.071 -0.013 -0.015 -0.03 -0.063 -0.154 0.008 -0.18 0.016 -0.035 0.037 -0.029 0.054 -0.019 0.068 0.009 0.143 0.079 0.205 0.042 0.022 -0.009 0.005 -0.02 -0.01 -0.043 0.078 -0.03 0.083 -0.072 0.173 -0.12 0.042 -0.046 0.001 -0.035 -0.015 -0.034 -0.042 -0.012 -0.168 0.056 -0.067 -0.006 -0.241 -0.038 -0.05 -0.028 0.006 -0.024 0.068 -0.048 0.074 0.009 0.038 -0.035 0.112 -0.001 -0.003 -0.017 -0.03 -0.027 -0.013 -0.025 -0.027 -0.013 -0.153 0.007 0.033 -0.057 0.035 -0.034 0.036 -0.018 0.087 0.01 0.058 -0.023 0.046 -0.038 0.009 -0.07 0.074 -0.052 -0.008 -0.034 -0.021 -0.033 0.022 -0.065 0.018 -0.018 0.045 -0.008 0.06 0.005 0.099 0.027 0.032 0.001 -0.006 -0.019 -0.094 -0.07 -0.006 -0.019 0.013 -0.016 0 -0.027 0.015 -0.021 0.098 -0.003 0.01 -0.019 -0.045 -0.043 -0.004 -0.031 0.029 -0.059 0.124 -0.146 0.076 0.042 0.213 0.119 0.213 0.119 0.213 0.119 0.213 0.119 0.213 0.119 0.213 0.119 0.213 0.119 0.213 0.119 0.213 0.119 0.213 0.119 0.213 0.119 0.213 0.119 0.213 0.119 0.213 0.119 0.213 0.119 0.213 0.119 0.102 0.057 0.015 0.025 0.018 0.108 0.011 0.068 -0.006 0.06 -0.056 0.101 -0.017 0.053 0 0.037 0.014 0.014 0.048 0.005 0.041 0.024 0.015 0.019 0.031 0.076 0.04 0.038 0.09 0.065 0.154 0.111 0.154 0.111 0.154 0.111 0.154 0.111 0.154 0.11 0.154 0.111 0.154 0.111 0.154 0.111 0.075 0.054 0.032 0.015 -0.02 0.084 -0.079 0.204 -0.004 0.085 -0.031 0.1 -0.03 0.066 -0.08 0.287 -0.067 0.107 -0.092 0.252 -0.015 0.192 0.051 0.135 0.019 0.126 0.107 0.124 0.086 0.044 0.058 0.057 0.103 0.129 0.059 0.13 0.185 0.064 0.074 0.145 -0.027 0.1 -0.086 0.083 -0.08 0.134 -0.065 0.176 -0.001 0.27 0.043 -0.041 0.098 0.066 0.013 0.199 -0.101 0.231 -0.031 0.108 -0.005 0.093 0.073 0.277 0.111 0.141 -0.008 0.044 -0.029 0.037 0.19 0.25 -0.016 0.217 0.071 0.169 0.031 0.146 0.047 0.112 0.009 0.077 -0.059 0.086 0.139 0.021 0.081 0.07 0.038 0.067 0.1 -0.003 0.054 0.046 0.078 0.038 0.173 0.113 0.047 0.057 0.017 0.033 0.011 0.021 -0.116 0.087 -0.181 0.136 -0.178 0.133 -0.172 0.092 -0.123 0.042 -0.131 0.024 -0.124 0.056 -0.118 0.088 -0.151 0.044 -0.183 0 -0.193 0.062 -0.191 0.116 -0.112 0.068 -0.177 -0.102 -0.139 -0.032 -0.159 0.003 -0.097 0.013 -0.035 0.022 -0.03 0.062 -0.026 0.103 -0.104 0.099 -0.183 0.094 -0.169 0.035 -0.154 -0.024 -0.104 -0.039 -0.055 -0.055 -0.08 -0.025 -0.106 0.004 -0.102 0.039 -0.097 0.074 -0.155 0.032 -0.213 -0.01 -0.114 -0.036 -0.016 -0.061 -0.093 -0.072 -0.171 -0.083 -0.126 -0.002 -0.081 0.079 -0.074 0.05 -0.067 0.02 -0.06 0.002 -0.053 -0.015 -0.033 -0.006 -0.236 -0.008 -0.223 0.003 -0.006 -0.03 -0.016 -0.084 -0.046 -0.07 -0.04 -0.042 -0.05 -0.011 -0.027 0.001 -0.022 -0.032 -0.026 -0.071 -0.038 -0.061 -0.05 -0.05 -0.03 -0.047 -0.01 -0.043 0.008 -0.047 0.047 -0.117 0.015 -0.08 -0.005 -0.082 -0.025 -0.084 -0.053 -0.1 0.006 -0.029 -0.018 -0.069 -0.002 -0.048 0.01 -0.06 -0.01 -0.079 -0.046 -0.168 0 -0.043 -0.048 -0.081 -0.148 -0.192 -0.007 -0.025 -0.232 -0.194 -0.093 -0.042 -0.033 0.036 -0.012 0.034 0.01 0.062 -0.006 0.031 -0.01 0.014 -0.055 -0.002 -0.035 -0.007 -0.088 -0.052 -0.069 -0.013 -0.17 0.009 -0.06 0.012 -0.047 -0.012 -0.09 -0.089 -0.106 -0.019 -0.095 -0.005 -0.156 -0.101 -0.037 0.005 z M 39.711 7.977 l -0.054 0.013 -0.021 -0.013 -0.033 -0.042 0.058 -0.036 0.056 -0.069 0.13 -0.101 0.044 -0.067 0.016 -0.014 -0.009 0.079 -0.073 0.173 -0.063 0.011 z M 32.054 2.328 l -0.017 0.023 -0.071 0.015 -0.049 0.007 -0.018 0.071 -0.052 0.012 -0.006 -0.073 -0.06 -0.06 0.008 -0.087 0.027 -0.042 0.022 0.024 0.035 0.049 0.024 0.02 0.075 -0.019 0.07 -0.023 0.016 0.023 z M 33.175 2.159 l -0.05 -0.001 -0.066 -0.023 -0.07 -0.03 -0.09 -0.02 -0.047 -0.024 -0.004 -0.082 -0.017 -0.041 0.054 -0.033 0.064 -0.003 0.023 0.072 0.056 0 0.07 -0.008 0.023 0.046 0.02 0.058 0.042 0.047 z" vector-effect="non-scaling-stroke" fill="#000" fill-opacity="1" stroke="#FFF" stroke-width="0px" stroke-linejoin="round" stroke-linecap="round"/></svg>
