<svg xmlns="http://www.w3.org/2000/svg" xmlns:xlink="http://www.w3.org/1999/xlink" height="400" width="400" viewBox="97.37392578125 -20.4244140625 8.26708984375 14.787646484375"><path d="M 102.606 -11.677 l -0.017 0.104 -0.057 -0.043 0.014 -0.053 0.022 -0.024 z M 102.427 -11.989 l 0.003 0.024 -0.052 -0.018 -0.018 0.009 -0.058 -0.006 -0.029 -0.139 0.004 -0.033 0.041 0.01 0.059 0.069 0.03 0.048 z M 98.409 -7.902 l -0.011 0.074 -0.041 -0.001 -0.042 0.047 -0.019 0.006 -0.034 -0.15 0.039 -0.21 0.021 -0.03 0.029 0.056 0.084 0.025 -0.036 0.121 z M 100.122 -20.317 l -0.008 0.059 0.025 0.012 0.034 -0.027 0.044 -0.067 0.048 -0.038 0.052 -0.009 0.055 0.046 0.058 0.1 0.06 0.057 0.028 0.006 0.02 0.046 0.003 0.044 -0.029 0.092 -0.048 0.107 -0.069 0.133 0.022 0.112 0.093 0.091 0.112 0.054 0.118 -0.015 0.063 -0.027 0.051 -0.043 0.048 -0.02 0.06 -0.005 0.188 0.032 0.057 0.031 0.009 0.062 -0.023 0.159 0.029 0.116 0.053 0.123 0.006 0.112 -0.066 0.184 -0.055 0.174 -0.059 0.085 -0.046 0.055 -0.013 0.037 0.004 0.035 0.042 0.052 0.045 0.068 0.011 0.065 -0.005 0.08 -0.031 0.109 -0.114 0.236 -0.091 0.213 0.047 0.043 0.09 0.031 0.059 0.03 0.062 -0.019 0.132 -0.126 0.114 -0.094 0.141 -0.094 0.009 -0.008 0.124 -0.069 0.057 -0.063 0.031 -0.081 0.044 -0.031 0.057 0.018 0.072 -0.035 0.087 -0.088 0.067 -0.041 0.047 0.007 0.083 0.055 0.12 0.103 0.107 0.061 0.094 0.02 0.046 0.038 -0.002 0.057 0.021 0.036 0.044 0.015 0.019 -0.006 -0.005 -0.028 0.042 -0.04 0.09 -0.053 0.091 -0.031 0.093 -0.009 0.06 -0.042 0.04 -0.11 0.057 -0.083 0.051 -0.038 0.063 -0.019 0.016 -0.027 -0.031 -0.034 0.003 -0.035 0.037 -0.035 0.079 -0.015 0.121 0.005 0.142 0.036 0.163 0.066 0.107 0.021 0.051 -0.024 0.099 0.102 0.147 0.228 0.126 0.173 0.105 0.117 0.111 0.09 0.117 0.063 0.084 0.085 0.076 0.161 -0.057 0.223 -0.015 0.193 0.007 0.237 0.069 0.181 0.131 0.126 0.076 0.102 0.021 0.078 0.102 0.067 0.182 0.056 0.076 0.05 -0.031 0.045 -0.002 0.052 0.026 0.06 0.063 0.049 0.1 0.039 0.06 0.041 0.019 0.043 -0.002 0.071 -0.023 0.098 -0.042 0.075 -0.061 0.052 -0.007 0.041 -0.015 0.063 0 0.129 0.043 0.086 0.013 0.109 -0.024 0.089 -0.023 0.182 -0.003 0.071 -0.022 0.061 -0.053 0.058 -0.08 0.055 -0.099 0.049 -0.06 0.022 -0.014 0.01 -0.043 0.055 -0.052 0.054 -0.04 0 -0.03 -0.027 -0.021 -0.035 -0.013 -0.077 -0.091 -0.038 -0.1 -0.024 -0.203 0.038 -0.164 0.02 -0.184 -0.026 -0.173 0.033 -0.072 0.005 -0.083 -0.005 -0.08 0.001 -0.076 -0.012 -0.142 -0.047 -0.054 0.004 -0.114 0.039 -0.119 0.027 -0.114 0.019 -0.168 0.08 -0.122 0.116 -0.036 0.082 -0.06 0.082 -0.084 0.131 -0.108 0.125 -0.076 0.057 0.021 0.034 -0.019 0.041 -0.118 0.018 -0.092 0.007 -0.017 0.02 0.011 0.252 0.032 0.095 0.06 0.115 0.039 0.063 0.029 0.187 0.009 0.158 0.13 0.1 0.074 0.076 0.052 0.067 -0.018 0.043 -0.031 0.128 0.03 0.166 0.181 0.358 0.016 0.025 -0.022 0.003 -0.029 -0.069 -0.092 -0.116 -0.029 -0.124 -0.108 -0.136 -0.061 -0.054 -0.019 0.045 -0.035 0.049 -0.106 -0.07 -0.091 -0.073 -0.084 -0.142 -0.011 0.033 -0.019 0.03 -0.095 -0.111 -0.1 -0.089 -0.09 -0.032 -0.055 -0.03 -0.053 -0.047 -0.112 -0.049 -0.279 0.07 -0.355 -0.055 -0.137 0.052 -0.056 -0.033 -0.034 -0.061 0.033 -0.104 0.008 -0.217 0.042 -0.152 -0.02 -0.116 0.021 -0.055 0.016 -0.074 -0.056 -0.03 -0.25 -0.059 -0.053 -0.047 -0.067 0.054 -0.301 0.03 -0.113 0.045 -0.105 0.086 -0.027 0.11 0.061 0.072 0.039 0.126 -0.108 0.274 -0.018 0.081 0.042 0.335 -0.017 0.184 -0.059 0.123 -0.093 0.111 -0.038 0.188 -0.073 0.087 -0.098 0.199 -0.066 0.248 -0.047 0.115 -0.027 0.211 -0.202 0.32 -0.047 0.181 -0.072 0.068 0.025 0.054 0.004 0.09 -0.025 0.241 -0.009 0.2 0.031 0.107 0.097 0.213 -0.023 0.062 -0.011 0.088 0.082 0.04 0.058 0.012 0.33 -0.1 0.112 0.026 0.042 0.094 0.027 0.082 0.056 0.442 0.029 0.082 0.067 0.078 0.073 0.083 0.025 -0.015 0.005 -0.031 0.005 -0.035 0.065 0.084 0.051 0.156 0.174 0.826 0.05 0.105 0.042 0.11 -0.106 -0.054 -0.029 -0.184 -0.03 -0.077 -0.037 -0.011 -0.059 0.001 -0.004 -0.033 0.044 -0.06 -0.007 -0.072 -0.061 -0.059 -0.098 0.047 0.003 0.129 0.044 0.099 0.167 0.22 0.052 0.092 0.066 0.026 0.096 -0.015 0.115 0.094 0.091 0.087 0.225 0.134 0.137 -0.014 0.148 -0.033 0.099 0.009 0.097 0.034 0.116 0.111 0.185 0.279 0.302 0.232 -0.033 0.058 -0.013 0.088 -0.119 0.117 -0.019 0.068 -0.044 0.086 -0.083 0.046 -0.071 0.009 -0.041 -0.008 -0.028 -0.017 -0.049 -0.081 -0.025 -0.025 -0.021 -0.006 -0.152 0.056 -0.147 0.062 -0.027 0.056 -0.039 0.065 -0.043 0.026 -0.034 0.006 -0.032 -0.038 -0.057 -0.05 -0.044 -0.047 0.011 -0.075 0.083 -0.11 0.011 -0.077 -0.011 -0.132 -0.022 -0.077 -0.024 -0.003 -0.041 -0.012 -0.115 0.012 -0.057 -0.086 -0.023 -0.095 -0.039 -0.034 -0.039 -0.021 -0.086 0.033 -0.066 -0.02 -0.218 -0.082 -0.084 -0.133 -0.045 -0.004 -0.04 0.015 -0.016 0.03 -0.023 0.153 -0.019 0.047 -0.25 -0.308 -0.173 -0.127 0.024 -0.23 -0.053 -0.045 -0.065 -0.004 -0.049 -0.063 0.044 -0.137 -0.068 0.026 -0.094 -0.005 -0.077 -0.038 -0.058 -0.189 -0.037 -0.058 -0.08 -0.099 -0.106 0 -0.035 -0.048 0.008 -0.122 -0.077 -0.075 -0.101 -0.061 -0.084 -0.036 -0.085 -0.197 -0.067 -0.048 -0.057 -0.039 -0.079 0.026 -0.026 0.071 -0.053 0.069 -0.06 -0.009 -0.055 -0.039 -0.067 -0.197 -0.011 -0.121 0.015 -0.224 0.084 -0.201 0.045 -0.322 0.072 -0.202 0.05 -0.069 0.069 -0.276 0.141 -0.353 0.016 -0.076 0.028 -0.085 0.021 -0.08 0.007 -0.126 -0.018 -0.067 0 -0.037 0.03 -0.048 0.1 -0.08 0.138 -0.132 0.165 -0.185 0.169 -0.284 0.084 -0.165 0.035 -0.058 0.037 -0.018 0.058 -0.056 0.04 -0.063 0.002 -0.032 -0.092 -0.308 -0.06 -0.101 -0.03 -0.119 -0.016 -0.086 -0.022 -0.079 0.011 -0.074 -0.033 -0.046 -0.075 -0.059 -0.078 -0.087 -0.046 -0.142 0 -0.079 -0.05 -0.069 -0.017 -0.073 0.03 -0.069 0.039 -0.06 -0.004 -0.264 -0.016 -0.079 -0.019 -0.141 -0.051 -0.106 -0.072 -0.124 -0.081 -0.103 -0.212 -0.186 -0.151 -0.124 -0.075 -0.113 -0.095 -0.13 -0.068 -0.094 -0.086 -0.118 -0.044 -0.161 -0.024 -0.171 0.013 -0.057 0.041 -0.037 0.054 -0.03 0.043 -0.007 0.123 -0.079 0.085 0.007 0.02 -0.017 0.008 -0.036 -0.011 -0.156 0.004 -0.209 0.016 -0.17 0.018 -0.112 0.226 -0.13 0.048 -0.056 0.023 -0.061 0 -0.054 -0.019 -0.042 -0.034 -0.023 -0.146 0.112 -0.029 -0.025 -0.067 -0.184 -0.029 -0.056 -0.042 -0.067 -0.045 -0.094 -0.007 -0.163 -0.032 -0.081 -0.182 -0.172 -0.082 -0.092 -0.112 -0.133 -0.134 -0.16 -0.136 -0.148 -0.064 -0.095 -0.023 -0.021 -0.008 -0.036 0.041 -0.102 -0.02 -0.102 -0.068 -0.136 -0.029 -0.084 0.01 -0.032 -0.033 -0.013 -0.075 0.007 -0.073 -0.064 -0.07 -0.135 -0.007 -0.024 0.023 0 0.088 0.023 0.03 -0.004 0.062 -0.031 0.094 -0.033 0.056 -0.011 0.018 -0.016 0.008 -0.033 -0.048 -0.311 0.008 -0.065 0.09 -0.134 -0.01 -0.135 0.023 -0.194 0.1 -0.133 0.075 -0.061 0.024 -0.096 0.034 -0.02 0.062 0.008 0.128 0.071 0.055 0.003 0.078 -0.002 0.084 -0.005 0.039 -0.007 0.267 -0.07 0.059 -0.007 0.056 0.009 0.041 -0.003 0.041 -0.032 0.029 -0.056 0.033 -0.18 0.019 -0.032 0.034 -0.026 0.057 -0.017 0.066 0.001 0.087 0.035 0.054 0.002 0.061 -0.015 0.052 -0.025 0.034 -0.032 0.016 -0.038 -0.014 -0.073 -0.04 -0.091 0.011 -0.011 0.073 0.02 0.107 0.022 0.081 -0.005 0.053 -0.016 0.052 -0.043 0.065 -0.04 0.064 0.009 0.049 0.036 z M 100.074 -9.697 l -0.01 0.017 -0.039 -0.032 -0.028 -0.036 -0.015 -0.046 0.06 0.002 0.03 0.043 z M 100.071 -9.586 l 0.005 0.057 -0.022 0.068 -0.091 0.04 -0.031 -0.054 0.008 -0.084 0.014 -0.021 0.089 0.004 z M 99.663 -6.522 l -0.019 0.006 -0.037 -0.081 0.047 -0.117 0.047 0.144 z M 98.592 -7.934 l -0.012 0.017 -0.051 -0.192 0.075 0.051 z M 98.308 -9.051 l -0.057 0.011 0.008 -0.055 0.015 -0.034 0.028 -0.009 0.011 0.059 z M 99.078 -7.592 l 0.026 0.121 -0.037 -0.025 -0.03 -0.053 0 -0.077 0.007 -0.011 z" vector-effect="non-scaling-stroke" fill="#000" fill-opacity="1" stroke="#FFF" stroke-width="0px" stroke-linejoin="round" stroke-linecap="round"/></svg>
