<svg xmlns="http://www.w3.org/2000/svg" xmlns:xlink="http://www.w3.org/1999/xlink" height="400" width="400" viewBox="124.036328125 8.13994140625 3.259765625 1.37197265625001"><path d="M 125.646 8.14 l -0.067 0.172 -0.072 -0.037 0.077 -0.096 0.037 -0.029 z M 125.068 9.512 l -0.035 -0.13 -0.037 -0.056 -0.029 -0.032 -0.01 -0.04 0.002 -0.041 0.017 -0.019 0.123 -0.005 0.049 -0.067 0 -0.08 -0.025 -0.027 -0.024 -0.011 -0.127 0.06 -0.036 -0.011 -0.022 -0.022 0.007 -0.089 0.105 -0.083 0.089 -0.151 0.062 -0.06 0.145 -0.057 0.059 -0.016 0.422 -0.083 0.101 -0.006 0.268 0.002 0.358 -0.018 0.089 -0.011 0.115 -0.037 0.111 -0.045 0.059 -0.036 0.062 -0.026 0.092 0.033 0.156 0.025 0.042 0.022 0.039 0.03 -0.182 0.159 -0.199 0.132 -0.123 0.04 -0.127 0.027 -0.097 0.051 -0.082 0.08 -0.104 0.045 -0.118 0.015 -0.1 0.024 -0.091 0.047 -0.127 0.08 -0.051 0.008 -0.054 -0.002 -0.105 0.031 -0.327 0.115 -0.198 0.128 z M 124.036 9.342 l 0.162 -0.085 0.246 -0.066 -0.006 0.048 -0.025 0.076 -0.037 0.036 -0.056 0.064 -0.037 0.014 -0.148 -0.014 -0.019 0.009 -0.025 -0.007 -0.038 -0.041 z" vector-effect="non-scaling-stroke" fill="#000" fill-opacity="1" stroke="#FFF" stroke-width="0px" stroke-linejoin="round" stroke-linecap="round"/></svg>
