<svg xmlns="http://www.w3.org/2000/svg" xmlns:xlink="http://www.w3.org/1999/xlink" height="400" width="400" viewBox="-0.0901855468749773 -11.115625 1.86811523437498 5.02622070312501"><path d="M 0.9 -10.993 l -0.026 0.108 -0.053 0.133 -0.034 0.042 -0.024 0.324 0.017 0.027 0.012 0.008 0.166 0.11 0.218 0.144 0.154 0.101 0.013 0.034 0.002 0.213 0.002 0.183 0.032 0.105 0.007 0.101 0.039 0.077 0.142 0.148 0.034 0.087 0.004 0.279 0.003 0.212 0.018 0.288 0 0.241 0 0.304 0 0.357 0 0.372 -0.094 0.005 0.051 0.115 0.009 0.105 0.012 0.034 -0.025 0.051 0.021 0.077 0.041 0.029 0.104 0.155 0.035 0.132 -0.167 0.044 0.012 0.034 -0.312 0.07 -0.123 0.057 -0.002 -0.056 -0.045 -0.01 -0.055 -0.019 -0.035 -0.029 -0.048 -0.066 -0.017 -0.052 -0.073 -0.008 -0.09 -0.058 -0.086 -0.066 -0.03 -0.066 0.008 -0.031 -0.013 -0.031 -0.029 -0.012 -0.077 -0.15 -0.048 -0.06 -0.022 -0.048 0.008 -0.037 -0.01 -0.051 0.015 -0.041 0.041 -0.024 0.013 -0.03 0.004 -0.063 0.023 -0.13 0.015 -0.127 -0.044 -0.035 -0.054 -0.01 -0.028 -0.036 -0.011 -0.06 0.001 -0.052 0.105 -0.181 -0.022 -0.418 0.016 -0.064 0.048 -0.044 0.041 -0.051 -0.002 -0.051 -0.07 -0.125 -0.133 -0.096 -0.068 -0.077 -0.037 -0.069 -0.006 -0.037 0.081 -0.054 0.036 -0.038 0.004 -0.043 -0.033 -0.079 0.006 -0.141 0.031 -0.106 0.032 -0.137 -0.003 -0.04 -0.078 -0.082 -0.042 -0.011 -0.034 0.006 -0.082 0.054 -0.029 0.006 -0.018 -0.016 -0.008 -0.022 0.029 -0.032 -0.01 -0.04 0.024 -0.035 0.052 -0.016 0.015 -0.018 -0.07 -0.017 -0.008 -0.024 0.005 -0.023 0.02 -0.004 0.022 0.001 0.012 -0.017 0.011 -0.116 0.008 -0.041 0.009 -0.08 0.011 -0.312 0.016 -0.032 0.002 -0.023 -0.049 -0.015 -0.116 -0.084 -0.068 -0.064 -0.059 -0.066 -0.05 -0.043 -0.097 -0.067 -0.029 -0.042 -0.004 -0.042 0.03 -0.085 0.047 -0.091 0.023 -0.13 -0.014 -0.035 -0.064 -0.06 0.228 0.046 0.325 0.078 0.007 0.014 0.002 0.023 0.056 0 0.094 -0.028 z" vector-effect="non-scaling-stroke" fill="#000" fill-opacity="1" stroke="#FFF" stroke-width="0px" stroke-linejoin="round" stroke-linecap="round"/></svg>
