<svg xmlns="http://www.w3.org/2000/svg" xmlns:xlink="http://www.w3.org/1999/xlink" height="400" width="400" viewBox="-175.362353515625 18.56533203125 1.44047851562499 2.88525390625"><path d="M -175.162 21.169 l 0.014 0 0.016 -0.03 0.054 -0.011 -0.006 0.032 -0.073 0.103 -0.046 -0.04 -0.133 -0.066 -0.027 -0.051 0.044 -0.039 -0.005 0.031 0.022 0.014 0.075 0.005 0.067 0.028 -0.042 0.009 z M -173.954 18.639 l -0.038 0.059 -0.018 -0.001 -0.044 -0.034 -0.016 -0.023 0.067 -0.07 0.034 -0.005 0.046 0.023 -0.002 0.02 z M -174.913 21.3 l -0.006 0.15 -0.049 -0.069 -0.005 -0.032 0.049 -0.046 z" vector-effect="non-scaling-stroke" fill="#000" fill-opacity="1" stroke="#FFF" stroke-width="0px" stroke-linejoin="round" stroke-linecap="round"/></svg>
