<svg xmlns="http://www.w3.org/2000/svg" xmlns:xlink="http://www.w3.org/1999/xlink" height="400" width="400" viewBox="-61.906103515625 -11.325390625 1.380615234375 1.2607421875"><path d="M -60.756 -11.179 l -0.054 0.01 0.006 -0.04 0.095 -0.069 0.146 -0.046 0.037 -0.002 -0.021 0.062 z M -61.012 -10.134 l -0.162 0.056 -0.422 0.013 -0.175 -0.02 -0.134 0.016 0.245 -0.123 0.029 -0.052 0.104 -0.01 0.03 -0.015 0.035 -0.27 -0.014 -0.064 -0.021 -0.035 -0.042 -0.026 -0.094 -0.035 -0.016 -0.019 0.059 -0.03 0.127 -0.017 0.095 -0.032 0.196 -0.006 0.095 -0.029 0.161 -0.008 -0.079 0.124 -0.037 0.046 0.014 0.112 -0.018 0.076 0.021 0.096 0.048 0.063 -0.031 0.062 -0.004 0.094 z" vector-effect="non-scaling-stroke" fill="#000" fill-opacity="1" stroke="#FFF" stroke-width="0px" stroke-linejoin="round" stroke-linecap="round"/></svg>
