<svg xmlns="http://www.w3.org/2000/svg" xmlns:xlink="http://www.w3.org/1999/xlink" height="400" width="400" viewBox="7.49560546875 -37.340380859375 4.04033203125002 7.110986328125"><path d="M 11.505 -33.182 l -0.002 0.026 -0.035 0.19 -0.008 0.068 -0.005 0.116 0 0.139 0.08 0.118 0.002 0.052 -0.031 0.06 -0.147 0.068 -0.19 0.088 -0.163 0.084 -0.179 0.092 -0.055 0.059 -0.089 0.046 -0.074 0.046 -0.013 0.044 -0.052 0.083 -0.068 0.067 -0.17 0.031 -0.031 0.02 -0.079 0.1 -0.036 0.039 -0.045 0.082 0.058 0.213 0.071 0.219 0.014 0.091 -0.001 0.076 -0.04 0.082 -0.09 0.117 -0.066 0.086 -0.127 0.155 -0.038 0.038 -0.088 0.045 -0.169 0.06 -0.119 0.053 -0.061 -0.236 -0.052 -0.201 -0.043 -0.166 -0.075 -0.292 -0.064 -0.248 -0.064 -0.248 -0.058 -0.225 -0.058 -0.226 -0.025 -0.033 -0.175 -0.107 -0.161 -0.098 -0.168 -0.112 -0.182 -0.121 -0.029 -0.153 -0.093 -0.23 -0.098 -0.129 -0.037 -0.034 -0.198 -0.083 -0.115 -0.061 -0.031 -0.035 -0.022 -0.094 -0.082 -0.186 -0.093 -0.169 -0.034 -0.115 -0.005 -0.144 0.018 -0.104 0.041 -0.044 0.194 -0.129 0.09 -0.156 0.111 -0.058 0.096 -0.044 0.078 -0.051 0.069 -0.082 0.053 -0.088 0.009 -0.095 0.022 -0.151 0.035 -0.105 0.082 -0.119 -0.034 -0.096 -0.043 -0.104 0.013 -0.179 -0.011 -0.073 -0.035 -0.064 -0.036 -0.083 -0.001 -0.069 0.035 -0.18 0.026 -0.138 0.042 -0.179 -0.015 -0.05 -0.031 -0.037 -0.094 -0.04 -0.001 -0.024 0.023 -0.026 0.139 -0.087 0.075 -0.128 0.063 -0.027 0.095 -0.046 -0.004 -0.05 -0.021 -0.053 0.247 -0.06 0.235 -0.158 0.083 -0.039 0.546 -0.146 0.071 0.01 0.08 0.021 -0.023 0.054 -0.032 0.043 0.046 0.076 0.066 -0.046 -0.017 -0.031 -0.004 -0.041 0.113 -0.004 0.099 0.006 0.109 0.045 -0.008 0.172 0.145 0.169 -0.041 0.084 0.119 0.05 0.106 -0.06 0.053 -0.088 0.195 -0.051 0.185 -0.129 0.103 -0.013 0.023 0.106 0.05 0.093 -0.07 0.033 -0.089 0.098 -0.169 0.25 -0.156 0.073 -0.117 0.096 -0.038 0.068 -0.011 0.08 0.029 0.143 0.085 0.145 0.098 0.088 0.095 0.027 0.221 0.138 -0.004 0.082 0.031 0.098 0.012 0.119 0.077 0.095 -0.164 0.207 -0.09 0.149 -0.175 0.206 -0.156 0.134 -0.334 0.199 -0.082 0.066 -0.054 0.068 -0.025 0.071 0.009 0.084 0.11 0.206 0.146 0.122 0.149 0.066 0.259 -0.027 -0.009 0.079 0.018 0.095 0.105 -0.004 0.07 -0.015 0.06 -0.093 0.127 0.063 0.066 0.194 0.107 0.06 0.013 0.023 -0.038 0.015 -0.029 0.022 0.032 0.016 0.104 0.024 0.063 -0.015 z M 11.278 -34.754 l -0.154 0.072 0.029 -0.063 0.102 -0.076 0.026 0.018 z M 10.958 -33.722 l -0.026 0.005 -0.048 0.027 -0.026 0.003 -0.073 -0.031 -0.028 0 -0.035 -0.021 0.012 -0.117 0.011 -0.033 0.177 -0.004 0.096 0.07 0.016 0.018 0.004 0.02 -0.045 0.039 z" vector-effect="non-scaling-stroke" fill="#000" fill-opacity="1" stroke="#FFF" stroke-width="0px" stroke-linejoin="round" stroke-linecap="round"/></svg>
