<svg xmlns="http://www.w3.org/2000/svg" xmlns:xlink="http://www.w3.org/1999/xlink" height="400" width="400" viewBox="25.6689453125 -42.09326171875 19.1482421875 6.26181640625001"><path d="M 25.97 -40.136 l -0.23 0.031 -0.071 -0.03 0.072 -0.06 0.134 -0.037 0.044 -0.004 0.059 0.06 z M 41.51 -41.517 l 0.067 0.02 0.125 0.026 0.078 0.031 0.044 0.008 0.102 -0.063 0.152 0.002 0.133 0.007 0.069 0.012 0.084 0.021 0.102 0.014 0.042 -0.03 0.059 -0.089 0.023 -0.011 0.016 -0.008 0.076 -0.007 0.072 0.007 0.034 0.015 0.034 0.071 0.085 0.026 0.15 0.114 0.092 0.046 0.022 0.019 -0.03 0.023 0.012 0.028 0.053 0.037 0.074 0.014 0.08 -0.005 0.043 0.014 0.031 0.021 0.008 0.03 -0.002 0.019 0.016 0.042 0.062 0.06 0.074 0.037 0.04 0.039 0.065 0.135 0.026 0.075 -0.01 0.072 -0.045 0.074 -0.099 0.092 0.024 0.038 0.022 0.051 -0.007 0.037 0.07 0.117 0.032 0.073 -0.027 0.017 -0.017 0.023 0.125 0.056 0.15 0.047 0.063 0.009 0.173 -0.022 0.111 -0.005 0.11 0.045 0.161 0.108 0.173 0.141 0.034 0.043 0.015 0.019 0.034 0.034 -0.035 -0.001 -0.057 -0.031 -0.138 -0.087 -0.07 0.037 -0.061 0.065 -0.067 0.245 -0.054 0.026 -0.095 -0.001 -0.116 -0.008 -0.08 0.012 -0.021 0.016 0.011 0.026 0.024 0.04 0.017 0.051 0.005 0.042 0.042 0.038 0.057 0.036 0.003 0.037 -0.009 0.052 -0.013 0.04 -0.014 0.022 0.026 0.06 0.062 0.071 0.039 0.027 -0.015 0.135 0.023 0.06 0.018 0.083 -0.007 0.138 0.008 0.034 0.021 0.012 0.056 0.005 0.055 0.013 0.019 0.023 0 0.016 -0.069 0.063 -0.008 0.045 -0.024 0.063 -0.02 0.037 -0.061 0.07 -0.039 0.072 -0.018 0.059 0.012 0.028 0.113 0.008 0.062 0.043 0.163 0.085 0.029 0.034 -0.045 0.052 0.001 0.022 0.021 0.028 0.01 0.048 -0.004 0.054 0.001 0.071 0.03 0.012 0.111 0.067 0.079 0.067 0.003 0.021 -0.038 0.053 0.008 0.061 -0.002 0.014 -0.034 -0.023 -0.062 -0.008 -0.063 -0.002 -0.04 0.018 -0.07 0.048 -0.094 0.052 -0.076 0.048 -0.044 0.033 -0.036 -0.005 -0.028 -0.029 -0.016 -0.04 0.007 -0.151 -0.017 -0.047 -0.036 -0.033 -0.042 -0.019 -0.05 -0.011 -0.051 -0.001 -0.073 0.044 -0.104 0.046 -0.161 -0.004 -0.108 -0.009 -0.052 -0.009 -0.209 -0.07 -0.044 -0.002 -0.078 -0.028 -0.093 -0.023 -0.156 0.043 -0.067 -0.01 -0.095 -0.037 -0.033 0.01 -0.106 0.113 -0.18 0.121 -0.097 0.02 -0.046 -0.121 -0.044 -0.047 -0.021 -0.006 -0.045 -0.015 -0.035 0.009 -0.108 0.083 -0.173 0.05 -0.143 0.03 -0.228 0.037 -0.176 0.018 -0.075 0.001 -0.162 -0.017 -0.143 -0.023 -0.143 0.001 -0.11 0.01 -0.255 0.089 -0.434 0.183 -0.33 0.087 -0.185 0.036 -0.145 0.021 -0.248 0.001 -0.202 -0.014 -0.14 0.002 -0.078 -0.022 -0.111 -0.074 -0.134 -0.073 -0.06 -0.017 -0.078 -0.014 -0.114 -0.008 -0.285 0.107 -0.089 0.029 -0.098 0.022 -0.197 0.065 -0.087 0.035 -0.109 -0.003 -0.14 -0.009 -0.121 0.003 -0.081 -0.05 -0.044 -0.056 -0.165 -0.034 -0.118 -0.01 -0.03 0.025 -0.032 0.076 -0.05 0.195 -0.009 0.049 0.104 0.194 -0.005 0.03 -0.074 0.01 -0.085 0.003 -0.056 0.017 -0.046 0.032 -0.028 0.168 -0.099 0.031 -0.047 0.035 -0.048 0.104 -0.026 0.002 -0.16 -0.079 -0.075 -0.006 0.064 -0.082 -0.07 -0.161 -0.076 -0.151 0.072 -0.096 0.149 -0.116 0.157 -0.136 0 -0.084 -0.008 -0.064 -0.045 -0.044 -0.086 -0.059 -0.144 0.063 -0.103 0.07 -0.067 0.014 -0.073 0.04 -0.036 0.072 -0.088 0.056 -0.144 0.022 -0.217 -0.06 -0.233 -0.091 -0.132 -0.074 -0.108 -0.018 -0.102 0.032 -0.302 0.18 -0.276 0.263 -0.069 0.046 -0.26 0.113 -0.172 0.038 -0.081 -0.009 -0.342 0.05 -0.17 0.007 -0.135 0.06 -0.261 -0.065 -0.156 -0.083 -0.094 -0.084 -0.153 -0.181 -0.109 -0.086 -0.244 -0.077 -0.425 -0.188 -0.112 -0.021 -0.29 -0.027 -0.306 -0.017 -0.062 0.069 -0.024 0.271 -0.052 0.075 -0.022 0.141 -0.037 0.041 -0.059 0.027 -0.092 -0.044 -0.064 -0.02 -0.148 0.058 -0.294 0.081 -0.1 0.011 -0.341 -0.102 -0.125 -0.066 -0.08 -0.073 -0.027 -0.123 -0.051 -0.07 -0.007 -0.048 -0.02 -0.055 -0.069 -0.022 -0.074 0.042 -0.079 -0.002 -0.099 -0.026 -0.234 -0.103 -0.18 -0.008 -0.108 0.126 -0.084 0.04 -0.092 0.012 -0.005 -0.036 0.07 -0.081 -0.28 0.015 -0.148 0.062 -0.115 -0.01 -0.087 -0.028 0.013 -0.034 0.088 -0.013 0.076 -0.028 0.304 -0.023 0.071 -0.023 0.078 -0.088 0.141 -0.076 0.018 -0.033 -0.109 0 -0.465 0.022 -0.319 -0.012 -0.038 0.038 -0.048 0.005 -0.013 -0.103 0.05 -0.048 0.068 0.004 0.167 -0.041 -0.015 -0.085 -0.12 -0.058 -0.024 -0.034 -0.087 -0.008 -0.07 -0.04 -0.015 -0.102 -0.056 -0.112 -0.08 -0.054 0.01 -0.03 0.147 -0.038 0.03 -0.157 -0.022 -0.096 -0.074 -0.008 -0.215 -0.076 -0.065 0.008 -0.071 -0.084 -0.125 -0.06 -0.062 0.022 -0.039 0.027 -0.058 -0.013 -0.097 -0.052 -0.095 -0.028 -0.042 -0.035 0.053 -0.093 0.073 0.002 0.013 -0.073 -0.057 -0.121 0.006 -0.062 0.063 -0.017 0.072 0.012 0.073 0.072 0.024 0.07 -0.015 0.068 0.046 0.066 0.033 0.017 0.022 -0.07 0.031 -0.013 0.043 0.03 0.092 0.015 0.237 -0.043 0.046 -0.036 -0.174 0.004 -0.064 -0.034 -0.069 -0.076 -0.042 -0.069 -0.008 -0.034 -0.024 -0.049 0.026 -0.026 0.119 -0.04 0.104 -0.111 -0.044 -0.032 -0.05 -0.015 -0.054 0.011 -0.051 -0.038 -0.007 -0.053 0.041 -0.043 0.004 -0.059 -0.134 -0.145 -0.037 -0.032 0.029 -0.047 0.103 -0.079 0.098 -0.098 -0.012 -0.032 -0.072 -0.013 -0.343 0.042 -0.133 0.037 -0.238 0.017 -0.017 -0.053 0.005 -0.048 0.053 -0.088 -0.005 -0.216 0.032 -0.117 0.132 -0.035 0.162 -0.172 0.263 -0.203 0.274 0.004 0.11 -0.056 0.163 -0.003 0.03 0.041 0.018 0.039 0.143 0.056 0.252 -0.009 0.061 -0.022 0.059 -0.031 -0.117 -0.1 0.037 -0.028 0.106 -0.003 0.115 0.023 0.005 0.023 -0.03 0.031 -0.035 0.055 0.034 0.011 0.326 -0.033 0.341 0.027 0.109 -0.014 0.268 0.001 0.048 -0.034 -0.081 -0.043 -0.079 -0.015 -0.053 -0.021 -0.053 -0.031 0.17 -0.097 0.096 -0.019 0.454 -0.059 0.337 -0.03 0.004 -0.022 -0.049 0 -0.436 -0.049 -0.105 -0.038 -0.146 -0.091 -0.032 -0.026 -0.037 -0.044 0.022 -0.094 0.027 -0.076 0.054 -0.044 0.174 -0.007 0.597 0.077 0.426 -0.046 0.465 0.112 0.445 -0.023 0.092 -0.05 0.111 -0.162 0.628 -0.269 0.22 -0.14 0.236 -0.077 0.404 -0.085 0.338 -0.113 0.097 -0.013 0.812 0.054 0.558 0.007 0.256 -0.106 0.148 0.036 -0.014 0.038 -0.027 0.033 0.008 0.066 0.087 0.097 0.089 0.066 0.26 0.094 0.362 -0.08 0.058 0.009 0.074 0.022 0.127 0.256 0.099 0.09 0.127 0.062 0.104 0.012 0.077 -0.064 0.06 -0.026 0.131 -0.011 0.214 0.088 0.074 0.091 0.365 0.07 0.335 0.035 0.144 0.077 0.471 0.077 0.176 -0.012 0.295 -0.081 0.574 -0.089 0.382 0.124 0.103 0.016 0.089 -0.011 0.128 0.034 0.137 -0.018 0.422 -0.146 0.132 -0.083 0.14 -0.021 0.124 -0.05 0.331 -0.162 z M 28.014 -41.969 l -0.027 0.114 0.063 0.126 0.148 0.175 0.149 0.088 0.6 0.218 0.11 0.019 -0.025 0.089 -0.036 0.079 -0.04 0.053 -0.176 0.034 -0.485 -0.097 -0.123 -0.009 -0.087 0.019 -0.16 0.071 -0.178 -0.023 -0.248 0.04 -0.069 0.133 -0.172 0.153 -0.283 0.123 -0.203 0.066 -0.304 0.237 -0.138 0.138 -0.058 0.027 -0.069 0.021 0.023 -0.066 0.034 -0.061 -0.008 -0.046 0.001 -0.067 0.101 -0.076 0.092 -0.055 0.273 -0.099 0.072 -0.082 -0.214 0.002 -0.217 0.018 -0.137 -0.012 -0.119 0.007 -0.038 -0.072 -0.029 -0.043 0.031 -0.014 0.039 -0.009 0.07 -0.077 0.062 -0.057 0.09 -0.071 0.023 -0.043 0 -0.04 -0.021 -0.028 -0.004 -0.033 -0.003 -0.046 0.005 -0.096 0.206 -0.104 0.066 -0.011 0.023 -0.048 -0.015 -0.11 -0.028 -0.089 -0.037 -0.006 -0.05 -0.026 -0.033 -0.03 -0.052 -0.033 -0.09 -0.02 -0.003 -0.028 0.009 -0.028 0.033 -0.029 0.151 -0.025 0.018 -0.02 0.02 -0.05 0.03 -0.051 0.036 -0.017 0.064 0.002 0.121 -0.012 0.084 -0.017 0.084 -0.035 0.043 -0.032 0.182 -0.018 0.051 -0.016 0.051 0.014 0.068 0.054 0.112 0.078 0.06 0.026 0.045 -0.012 0.081 -0.028 0.078 0 0.063 0.005 0.03 -0.025 0.047 -0.005 z" vector-effect="non-scaling-stroke" fill="#000" fill-opacity="1" stroke="#FFF" stroke-width="0px" stroke-linejoin="round" stroke-linecap="round"/></svg>
