<svg xmlns="http://www.w3.org/2000/svg" xmlns:xlink="http://www.w3.org/1999/xlink" height="400" width="400" viewBox="52.49384765625 -42.778466796875 14.13544921875 7.607666015625"><path d="M 53.11 -38.803 l -0.009 0.047 -0.054 -0.141 -0.027 -0.156 0.035 -0.044 0.039 0.002 -0.037 0.056 z M 55.977 -41.322 l 0.265 0.011 0.238 0.01 0.294 0.013 0.087 0.012 0.105 0.011 0.052 0.002 0.046 -0.044 0.031 -0.024 0.024 -0.019 -0.005 -0.021 -0.037 -0.018 -0.058 -0.061 -0.033 -0.219 -0.021 -0.187 0.07 -0.058 0.055 -0.029 -0.035 0.171 0.008 0.049 0.054 -0.006 0.058 -0.003 0.073 0.082 0.098 0.079 0.084 -0.005 0.097 -0.016 0.158 -0.042 0.133 -0.064 0.047 -0.073 -0.02 -0.065 -0.145 -0.075 -0.018 -0.098 -0.051 -0.055 -0.019 -0.04 0.014 -0.045 -0.009 -0.013 0.068 -0.002 0.128 -0.025 0.042 -0.041 0.067 -0.104 0.022 -0.085 0.038 -0.039 0.045 -0.029 0.047 0.001 0.09 0.025 0.068 0.014 0.049 0.019 0.044 0.03 0.043 0.052 0.007 0.034 0.02 0.02 0.034 0 0.026 0 0.017 -0.008 0.011 -0.017 -0.009 -0.023 -0.059 -0.067 -0.129 -0.121 -0.085 -0.049 -0.042 -0.027 -0.01 -0.025 0.055 -0.038 0.053 -0.022 0.093 0.016 0.124 0.009 0.055 -0.019 0.057 -0.097 0.141 0.102 0.147 0.115 0.054 0.021 0.105 0.012 0.087 0.004 0.036 0.012 0.04 0.03 0.077 0.126 0.078 0.033 0.097 0.024 0.312 -0.002 0.096 0.006 0.078 0.059 0.049 0.024 0.021 0.021 -0.005 0.026 -0.019 0.033 -0.002 0.064 -0.005 0.049 -0.025 0.023 -0.008 0.022 0.021 0.019 0.144 0.047 0.049 0.05 0.037 0.023 0.009 0.031 -0.024 0.021 -0.068 -0.01 -0.033 0.033 0 0.059 0.048 0.056 0.014 0.051 -0.032 0.049 -0.037 0.069 -0.001 0.049 0.022 0.028 0.11 0.05 0.255 0.127 0.059 0.005 0.241 -0.03 0.112 -0.003 0.066 0.02 0.187 0.018 0.059 0.02 0.063 0.001 0.087 -0.006 0.059 -0.057 0.03 -0.013 0.026 -0.009 0.053 -0.001 0.148 0.036 0.155 0.076 0.103 0.07 0.051 0.063 0.064 0.137 0.077 0.21 0.093 0.142 0.11 0.074 0.077 0.135 0.067 0.296 0.042 0.061 0.042 0.032 0.125 0.086 0.256 0.142 0.151 0.084 0.234 0.134 0.214 0.122 0.215 0.189 0.043 0.028 0.189 0.102 0.21 0.105 0.147 -0.024 0.222 0.161 0.09 0.06 0.038 0.02 0.161 0.064 0.256 0.133 0.323 0.191 0.213 0.11 0.058 0.013 0.058 -0.001 0.062 -0.024 0.067 -0.019 0.114 0.025 0.124 0.044 0.078 0.033 0.091 0.049 0.072 0.046 0.054 0.021 0.185 0.04 0.032 0.024 0.02 0.027 0.003 0.028 -0.104 0.146 -0.014 0.187 -0.001 0.14 0.012 0.11 -0.05 0.004 -0.122 -0.023 -0.242 -0.047 -0.208 -0.093 -0.136 -0.061 -0.021 0.008 -0.061 0.042 -0.042 0.051 -0.033 0.099 -0.053 0.117 -0.251 0.004 -0.214 0.009 -0.138 0.044 -0.135 0.061 -0.034 0.073 -0.029 0.094 -0.079 0.215 -0.072 0.196 -0.037 0.127 -0.055 0.087 -0.153 0.115 -0.174 0.077 -0.092 0.036 -0.041 0.045 -0.009 0.043 -0.033 0.013 -0.072 -0.008 -0.076 0.007 -0.166 0.045 -0.18 0.055 -0.215 0.055 -0.123 0 -0.049 0.012 -0.021 0.027 0.021 0.052 0.021 0.038 0.019 0.05 -0.05 0.041 -0.035 0.069 -0.028 0.122 -0.076 0.037 -0.122 0.06 -0.135 0.078 -0.035 0.016 -0.078 0.022 -0.077 -0.007 -0.07 -0.011 -0.076 0.02 -0.079 0.06 -0.037 -0.018 -0.018 -0.061 -0.04 -0.04 -0.123 -0.09 -0.106 -0.064 -0.046 -0.004 -0.097 0.016 -0.121 0.012 -0.099 -0.013 -0.078 -0.026 -0.121 -0.088 -0.044 -0.047 -0.033 -0.036 -0.083 0.01 -0.023 -0.04 -0.003 -0.046 0.023 -0.056 -0.007 -0.106 -0.046 -0.076 -0.053 -0.033 0.007 -0.023 0.023 -0.053 0.03 -0.046 0 -0.091 -0.037 -0.099 -0.015 -0.143 0.01 -0.14 -0.05 -0.07 -0.412 0 -0.367 0.005 -0.021 -0.016 -0.142 -0.176 -0.116 -0.133 -0.114 -0.079 -0.261 -0.097 -0.125 -0.04 -0.107 -0.074 -0.088 -0.081 -0.023 -0.111 -0.018 -0.036 -0.025 -0.029 -0.028 -0.013 -0.033 0.003 -0.304 -0.129 -0.122 -0.034 -0.115 0.027 -0.051 0.005 -0.1 -0.037 -0.115 0.05 -0.049 0.003 -0.069 -0.012 -0.057 -0.019 -0.153 -0.117 -0.128 -0.047 -0.092 -0.03 -0.178 -0.044 -0.19 -0.023 -0.097 -0.019 -0.07 -0.026 -0.018 -0.017 0.001 -0.043 -0.005 -0.056 -0.023 -0.041 -0.048 -0.049 -0.067 -0.037 -0.115 0.006 -0.172 -0.003 -0.132 -0.037 -0.105 -0.007 -0.126 0.007 -0.103 0 -0.074 0.027 -0.043 0.031 -0.027 0.096 -0.025 0.014 -0.043 0.007 -0.058 -0.005 -0.121 0.001 -0.209 -0.017 -0.263 -0.005 -0.198 0.049 -0.156 0.07 -0.149 0.079 -0.175 0.125 -0.051 0.055 -0.103 0.221 -0.046 0.032 -0.06 0.025 -0.061 0.004 -0.12 0.033 -0.159 0.054 -0.108 0.021 -0.277 -0.011 -0.016 -0.07 -0.05 -0.256 -0.024 -0.258 0.002 -0.119 0.029 -0.239 -0.002 -0.12 -0.012 -0.109 0.012 -0.107 0.022 -0.12 0.012 -0.122 -0.017 -0.085 -0.054 -0.069 -0.091 -0.085 -0.014 -0.05 -0.005 -0.056 -0.087 -0.006 -0.078 -0.058 -0.064 -0.032 -0.139 -0.035 -0.07 -0.002 -0.063 0.026 -0.047 0.052 -0.033 -0.082 0.001 -0.085 0.111 -0.176 0.069 0.051 0.085 0.021 0.108 0.003 0.106 -0.014 -0.021 -0.06 -0.049 -0.034 -0.061 -0.027 -0.022 -0.08 0.008 -0.083 0.029 -0.078 -0.033 -0.031 -0.05 -0.019 -0.116 0.002 -0.15 -0.021 -0.151 -0.009 -0.035 0.092 0.083 0.121 -0.071 -0.059 -0.067 -0.079 -0.094 -0.142 -0.06 -0.166 -0.011 -0.179 0.051 -0.148 0.065 -0.139 0.039 -0.178 0.054 -0.175 0.054 0.078 0.062 0.07 0.086 0.065 0.047 0.015 0.141 0.027 0.091 -0.01 0.097 -0.038 0.095 0.013 0.079 0.072 0.07 0.081 0.106 0.017 0.219 -0.058 0.104 -0.013 0.09 0.027 0.047 0.005 0.047 -0.004 -0.041 -0.072 -0.017 -0.07 0.055 -0.037 0.173 0.039 0.11 -0.026 0.028 -0.015 0.025 -0.018 0.013 -0.06 -0.005 -0.062 -0.014 -0.058 -0.032 -0.051 -0.079 -0.071 -0.308 -0.17 -0.104 -0.068 -0.086 -0.088 -0.055 -0.124 -0.045 -0.129 -0.041 -0.096 -0.107 -0.223 -0.042 -0.026 -0.052 -0.012 -0.127 -0.007 -0.129 0.016 -0.211 0.038 -0.121 -0.012 -0.056 0.024 -0.138 0.094 -0.065 0.08 -0.09 0.184 0.069 0.059 -0.001 0.039 -0.052 0.272 0.032 0.132 -0.011 0.01 -0.025 -0.031 -0.078 -0.135 -0.138 -0.164 -0.116 -0.251 0.203 -0.164 0.174 -0.116 0.142 -0.07 0.043 -0.017 0.194 -0.058 0.251 -0.052 0.185 -0.039 0.241 -0.033 0.079 -0.006 0.116 0.001 0.094 0.031 0.057 0.024 0.201 0.1 0.205 0.102 0.176 0.113 0.05 0.046 0.028 0.055 0.021 0.054 0.15 0.171 0.06 0.078 0.087 0.102 0.07 0.05 0.069 0.061 0.046 0.051 0.053 0.024 0.058 0.01 0.133 -0.016 0.16 -0.032 0.096 -0.013 z" vector-effect="non-scaling-stroke" fill="#000" fill-opacity="1" stroke="#FFF" stroke-width="0px" stroke-linejoin="round" stroke-linecap="round"/></svg>
