<svg xmlns="http://www.w3.org/2000/svg" xmlns:xlink="http://www.w3.org/1999/xlink" height="400" width="400" viewBox="29.5619140625 -4.22021484375 5.41630859374999 5.69013671875001"><path d="M 31.781 1.002 l -0.12 0 -0.178 0 -0.178 0 -0.178 0 -0.178 0 -0.105 0 -0.021 -0.003 -0.014 -0.004 -0.067 0.013 -0.069 0.044 -0.074 0.018 -0.079 -0.007 -0.01 0.005 -0.04 -0.001 -0.058 -0.003 -0.052 0.012 -0.04 0.038 -0.041 0.066 -0.073 0.075 -0.057 0.067 -0.048 0.048 -0.111 0.078 -0.06 0.023 -0.03 -0.004 -0.018 -0.015 -0.035 -0.1 -0.021 -0.016 -0.216 0.052 -0.033 0.001 0.003 -0.031 -0.016 -0.235 -0.002 -0.144 0.028 -0.09 0.016 -0.104 0.002 -0.092 0.04 -0.156 -0.005 -0.029 0.225 -0.204 0.019 -0.13 -0.104 -0.051 -0.1 -0.001 0.001 -0.007 0.013 -0.053 0.02 -0.159 0.032 -0.049 0.028 -0.019 0.037 -0.097 0.071 -0.155 0.049 -0.08 -0.011 -0.175 0.008 -0.119 0.011 -0.026 0.104 -0.044 0.136 -0.11 0.057 -0.129 0.081 -0.083 0.157 -0.054 0.017 0.009 0.008 0.018 -0.011 0.008 0 0.03 0.012 0.052 -0.003 0.071 0.007 0.009 0.032 0.019 0.029 -0.007 0.025 -0.013 0.125 -0.15 0.008 -0.032 0.058 -0.086 0.108 -0.139 0.076 -0.079 0.045 -0.019 0.026 -0.017 0.089 -0.024 0.037 -0.018 0.102 -0.082 0.037 -0.055 0.017 -0.06 0.021 -0.031 0.025 -0.002 0.019 -0.02 0.012 -0.039 -0.012 -0.305 -0.003 -0.06 0.012 -0.02 0.076 -0.105 0.003 -0.015 -0.044 0.013 -0.087 0.097 -0.041 0.065 -0.04 0.066 -0.027 -0.032 -0.045 -0.041 -0.015 -0.038 -0.039 -0.019 -0.055 0.001 -0.037 -0.027 -0.042 -0.054 -0.042 -0.034 -0.132 0.003 -0.101 -0.055 0.001 -0.075 0.04 -0.148 0.077 -0.169 0.004 -0.047 -0.011 -0.04 -0.019 -0.034 -0.035 -0.034 -0.033 -0.04 0.025 -0.122 0.049 -0.119 0.04 -0.06 0.039 -0.067 -0.011 -0.055 -0.057 -0.027 0.03 -0.053 0.061 -0.09 0.119 -0.091 0.104 -0.061 0.07 0 0.135 0.048 0.123 0.057 0.067 0.003 0.082 -0.024 0.169 -0.101 0.041 0.032 0.05 0.061 0.054 0.102 0.106 0.046 0.051 0.032 0.037 0.009 0.02 -0.008 0.04 -0.08 0.049 -0.044 0.09 -0.055 0.199 -0.044 0.142 -0.013 0.06 -0.01 0.101 -0.026 0.159 -0.082 0.157 0.105 0.17 0.02 0.165 -0.001 0.05 -0.032 0.029 -0.025 0.173 -0.174 0.234 -0.235 0.156 0.331 0.054 0.019 -0.008 0.029 -0.013 0.028 0.102 0.08 0.126 0.042 0.045 0.041 0.004 0.044 -0.042 0.194 0.008 0.055 0.041 0.194 0.075 0.044 0.067 0.195 0.134 0.083 0.019 0.024 0.031 0.095 0.041 0.104 0.032 0.024 0.02 0.006 0.04 0.11 -0.023 0.062 0.031 0.188 0.05 0.168 0.013 0.2 0.001 0.088 -0.002 0.054 -0.011 0.076 -0.024 0.044 -0.043 0.043 -0.047 0.067 -0.041 0.072 -0.026 0.036 0.02 0.108 -0.005 0.028 -0.011 0.014 -0.061 0.016 -0.078 0.029 -0.047 0.029 -0.067 0.055 -0.054 0.059 -0.071 0.175 -0.118 0.136 -0.02 0.045 -0.112 0.081 -0.049 0.1 -0.031 0.123 -0.043 0.088 -0.063 0.081 -0.029 -0.004 -0.084 0.032 -0.116 -0.022 -0.016 -0.023 -0.015 -0.078 -0.033 -0.008 -0.041 0.016 -0.06 0.078 -0.048 0.016 -0.049 -0.011 -0.036 -0.026 -0.006 -0.026 0.044 -0.023 -0.001 -0.022 -0.023 -0.019 -0.108 -0.015 -0.022 -0.019 0.036 -0.084 -0.004 -0.019 -0.052 0.021 -0.039 -0.011 -0.028 0.011 -0.058 0.023 0.014 0.04 -0.064 0.136 -0.061 0.013 -0.007 0.046 -0.049 0.047 -0.063 0.039 -0.043 0.012 -0.02 -0.017 -0.017 -0.056 -0.026 0 -0.073 0.05 -0.045 0.01 -0.043 0 -0.021 -0.009 0.005 -0.02 0.035 -0.042 -0.031 -0.01 -0.034 -0.063 -0.032 0.018 -0.028 0.042 -0.023 0.094 -0.031 0.029 -0.047 0.017 -0.037 -0.003 -0.011 -0.037 -0.024 0.003 -0.03 0.023 -0.033 0.052 -0.064 -0.006 -0.029 0.026 -0.049 -0.014 -0.05 0.048 -0.104 0.017 -0.023 0.034 -0.082 0.041 -0.017 0.026 0.007 0.022 0.035 0.031 0.025 0.043 -0.007 0.066 -0.127 0.16 -0.049 0.088 -0.095 0.222 0.009 0.047 0.024 0.05 0.012 0.048 z M 33.372 -0.216 l -0.055 0.032 0.008 0.043 0.014 0.062 -0.066 -0.04 -0.009 -0.023 -0.08 -0.006 -0.004 -0.025 0.038 -0.014 0.003 -0.043 0.003 -0.043 0.094 -0.021 0.071 0.026 z M 32.298 0.392 l -0.026 0.081 -0.14 0.053 0.012 -0.038 0.022 -0.045 0.039 -0.045 0.003 -0.035 -0.078 -0.026 -0.026 -0.014 -0.023 -0.032 -0.016 -0.036 0.021 -0.023 0.061 0.001 0.035 0.003 -0.003 0.075 0.014 0.022 0.075 -0.042 0.05 0.047 z" vector-effect="non-scaling-stroke" fill="#000" fill-opacity="1" stroke="#FFF" stroke-width="0px" stroke-linejoin="round" stroke-linecap="round"/></svg>
