<svg xmlns="http://www.w3.org/2000/svg" xmlns:xlink="http://www.w3.org/1999/xlink" height="400" width="400" viewBox="22.1318359375 -52.353564453125 17.996484375 7.11943359375"><path d="M 38.214 -47.091 l -0.036 0.011 -0.35 -0.016 -0.068 0.005 -0.218 0.016 -0.204 0.158 -0.121 0 -0.171 0.041 -0.116 0.051 -0.137 0.111 -0.106 -0.05 -0.13 0.001 -0.127 0.03 -0.153 0.074 -0.085 0.013 -0.17 -0.021 -0.198 0.042 -0.427 0.243 -0.144 0.177 -0.052 0.035 -0.072 0.043 -0.077 0.022 -0.041 -0.002 0.203 -0.126 0.062 -0.047 0.011 -0.035 0.001 -0.056 -0.062 -0.07 -0.166 0.173 -0.095 0.025 -0.12 0.052 -0.006 0.116 0.014 0.086 0.049 0.109 0.095 0.145 -0.055 0.005 -0.147 -0.062 -0.006 -0.102 -0.107 -0.085 -0.164 0 -0.073 0.011 -0.096 -0.096 -0.13 -0.039 -0.096 0.011 -0.102 -0.017 -0.22 -0.102 -0.147 -0.011 -0.006 0.073 -0.06 0.05 -0.095 0.017 -0.069 0.021 -0.166 -0.068 -0.061 -0.05 -0.26 0.052 -0.145 -0.008 -0.32 0.048 -0.147 -0.047 -0.294 -0.131 -0.111 -0.026 -0.094 0.006 -0.051 -0.043 0.063 -0.021 0.073 -0.003 0.076 -0.016 0.021 -0.023 -0.005 -0.043 -0.153 -0.032 -0.142 -0.009 -0.09 -0.038 -0.069 -0.044 0.161 -0.001 0.162 0.033 0.254 0.012 0.23 0.034 0.058 -0.043 0.134 -0.074 0.025 -0.024 -0.224 0.051 -0.227 -0.032 -0.083 -0.045 -0.07 -0.066 -0.029 -0.076 0.019 -0.07 -0.025 -0.127 -0.075 -0.113 -0.027 -0.062 -0.079 -0.056 0.078 0.126 0.029 0.084 0.047 0.077 -0.011 0.204 -0.029 0.072 -0.093 0.018 -0.123 -0.011 -0.125 -0.022 0.031 -0.113 -0.067 0.039 -0.094 0.11 -0.083 0.016 -0.183 -0.012 -0.341 0.072 -0.023 0.079 -0.051 0.107 -0.049 0.062 -0.016 0.038 -0.145 0.161 -0.019 0.015 -0.274 0.223 -0.035 0.017 -0.178 0.052 -0.105 0.046 -0.08 0.02 -0.136 -0.023 -0.057 0.032 -0.027 0.04 0 0.083 0.069 0.059 0.057 0.197 -0.021 0.083 -0.054 -0.054 -0.084 -0.057 -0.164 -0.049 -0.18 0.017 -0.196 0.082 -0.133 0.031 -0.07 -0.021 -0.043 0.001 -0.015 0.024 0.003 0.019 0.022 0.015 -0.003 0.011 -0.028 0.007 -0.309 -0.058 -0.134 -0.055 -0.105 -0.103 0.052 -0.033 0.046 -0.015 0.161 -0.009 0.028 -0.011 0.003 -0.024 0.012 -0.031 -0.004 -0.045 -0.018 -0.048 0.071 -0.07 0.105 -0.058 0.062 -0.058 0.009 -0.085 0.111 -0.042 0.098 -0.071 0.024 -0.078 0.034 -0.049 -0.063 -0.112 -0.013 -0.074 -0.003 -0.062 0.031 -0.034 0.092 -0.039 0.096 -0.03 0.04 0.003 0.015 0.019 0.004 0.126 0.019 0.002 0.031 -0.016 0.05 -0.074 0.035 0.022 0.053 0.008 0.04 -0.019 0.026 0.002 0.032 0.019 0.064 0.027 0.06 0.009 0.05 -0.018 0.042 -0.032 0.045 0.011 0.086 0.087 0.04 -0.01 0.198 -0.018 0.032 -0.024 0.024 -0.022 -0.207 -0.116 0.01 -0.086 0.008 -0.099 -0.024 -0.059 -0.04 -0.046 -0.158 -0.054 -0.122 -0.056 -0.026 -0.025 -0.003 -0.033 -0.005 -0.051 -0.048 -0.044 -0.004 -0.037 0.031 -0.058 0.008 -0.061 -0.01 -0.024 -0.029 -0.02 -0.055 -0.002 -0.072 -0.035 -0.05 -0.048 -0.133 -0.069 -0.041 -0.011 -0.025 -0.034 -0.012 -0.041 0.028 -0.05 0.035 -0.078 0.025 -0.073 0 -0.043 -0.016 -0.107 -0.069 -0.082 -0.032 -0.011 -0.056 0.023 -0.064 0.019 -0.05 -0.018 -0.057 -0.045 -0.092 -0.124 -0.172 -0.025 -0.071 -0.006 -0.067 0.06 -0.021 -0.018 -0.019 -0.038 -0.036 -0.015 -0.047 0.018 -0.014 -0.017 0.02 -0.052 -0.056 -0.026 -0.132 0.001 -0.07 -0.019 -0.008 -0.039 -0.042 -0.025 -0.075 -0.012 -0.073 -0.032 -0.071 -0.051 -0.106 -0.033 -0.141 -0.015 -0.012 -0.006 -0.013 -0.007 -0.091 0.035 -0.055 0.027 -0.067 -0.017 -0.108 0.061 -0.22 0.003 -0.108 -0.004 -0.054 -0.015 -0.207 0.093 -0.021 0.034 -0.046 0.011 -0.13 0.019 -0.137 0.026 -0.029 0.091 -0.041 0.049 -0.074 0.072 -0.254 0.025 -0.219 0.035 -0.225 0.022 -0.295 0.088 -0.096 0.077 -0.095 0.022 -0.086 0.006 -0.055 -0.043 -0.187 -0.116 -0.072 -0.055 -0.095 -0.016 -0.103 0.009 -0.099 0.027 -0.104 0.005 -0.118 -0.039 -0.012 0.004 -0.046 0.005 -0.293 -0.047 -0.027 -0.008 -0.013 -0.002 -0.04 -0.004 -0.221 0.006 -0.206 -0.095 -0.063 -0.003 -0.049 0.038 -0.036 0.043 -0.142 0.042 -0.036 0.017 -0.021 -0.013 -0.01 -0.037 0.011 -0.032 -0.021 -0.031 -0.054 -0.035 -0.013 -0.014 -0.068 0.003 -0.018 0.003 -0.007 -0.001 -0.094 -0.03 -0.062 -0.071 -0.096 -0.038 -0.074 -0.013 -0.033 -0.031 -0.022 -0.041 -0.023 -0.031 -0.003 -0.003 -0.016 -0.046 -0.023 -0.005 -0.004 -0.001 -0.095 0.008 0.011 -0.163 0.152 -0.117 0.037 -0.059 0.057 -0.128 0.043 -0.06 0.051 -0.05 0.041 -0.048 0.015 -0.041 0.041 -0.004 0.121 0.037 0.108 0.019 0.03 -0.018 0.012 -0.024 -0.005 -0.019 -0.087 -0.055 -0.054 -0.035 -0.003 -0.022 0.02 -0.048 0.01 -0.054 -0.012 -0.059 -0.059 -0.13 -0.011 -0.055 0.057 -0.067 0.185 -0.16 0.062 -0.06 0.084 -0.073 0.228 -0.174 0.144 -0.101 0.098 -0.056 0.143 -0.097 0.063 -0.05 0.261 -0.033 0.032 -0.047 0.048 -0.051 0.037 -0.022 0.005 -0.087 -0.048 -0.106 -0.039 -0.037 -0.029 -0.025 0.019 -0.024 0.029 -0.007 0.036 -0.003 0.044 -0.025 -0.01 -0.028 -0.11 -0.068 -0.048 -0.052 -0.075 -0.134 -0.151 -0.139 -0.048 -0.045 -0.007 -0.042 0.022 -0.042 -0.021 -0.054 -0.054 -0.069 0.008 -0.007 -0.005 -0.085 0.038 -0.018 0.06 -0.012 0.085 0.004 0.073 0.013 0.087 0.039 0.027 -0.006 0.149 -0.073 0.153 -0.11 0.044 -0.064 0.038 -0.029 0.133 -0.016 0.116 -0.006 0.074 0.001 0.181 -0.011 0.107 -0.012 0.093 -0.019 0.2 -0.007 0.313 0.013 0.205 0.001 0.14 0.01 0.342 0.058 0.127 0.011 0.059 0.031 0.113 0.012 0.207 0.031 0.179 0.017 0.121 -0.007 0.068 0.009 0.128 0.138 0.026 0.016 0.051 0.003 0.105 -0.012 0.149 0.004 0.088 0.029 -0.013 0.082 0.023 0.012 0.041 -0.005 0.048 -0.047 0.04 -0.048 0.03 -0.015 0.152 0.033 0.07 -0.005 0.064 -0.037 0.039 -0.006 0.108 0.026 0.133 0.018 0.107 0.001 0.067 0.02 0.049 0.086 0.042 0.018 0.041 0.005 0.062 -0.077 0.056 -0.03 0.078 -0.022 0.05 -0.01 0.035 -0.027 0.048 -0.027 0.041 -0.002 0.034 0.01 0.039 0.037 0.056 0.084 0.068 0.084 0.048 0.03 0.123 -0.026 0.083 -0.026 0.153 -0.005 0.203 -0.018 0.155 -0.024 0.097 0.004 0.059 0.027 0.089 0.052 0.024 0.074 0.116 0.051 0.095 0.009 0.032 -0.053 0.056 -0.037 -0.021 -0.051 -0.009 -0.065 -0.042 -0.06 -0.028 -0.065 0.051 -0.093 0.056 -0.081 0.028 -0.044 0.088 -0.081 0.09 -0.058 0.135 -0.093 0.099 -0.031 0.089 0.014 0.05 0.013 0.128 -0.055 0.228 -0.003 0.19 0.007 0.019 0.002 0.093 0.029 0.098 0.024 0.068 0.002 0.081 -0.006 0.095 -0.032 0.066 -0.031 0.08 -0.158 0.028 -0.023 0.044 -0.012 0.072 -0.001 0.138 0.029 0.161 0.026 0.093 -0.004 0.249 -0.084 0.139 -0.013 0.165 0.02 0.162 0.001 0.122 -0.012 0.084 0.029 0.103 0.064 0.093 0.096 0.098 0.176 0.285 0.199 0.005 0.039 -0.023 0.025 -0.14 0.024 -0.118 0.013 -0.006 0.034 0.031 0.037 0.054 0.054 0.008 0.07 -0.003 0.064 0.023 0.057 0.045 0.023 0.006 0.029 -0.052 0.035 -0.015 0.021 0.02 0.012 0.257 0.007 0.126 0.034 0.096 0.031 0.048 0.003 0.108 -0.02 0.122 -0.013 0.074 -0.002 0.029 0.023 0.023 0.06 0.043 0.06 0.04 0.017 0.071 -0.003 0.043 0.003 0.023 0.023 -0.026 0.034 0.006 0.037 0.031 0.046 0.037 0.105 0.034 0.031 0.023 0.04 0 0.046 -0.029 0.04 -0.02 0.031 0.02 0.071 0.077 0.08 0.057 0.02 0.046 0.071 0.083 0.023 0.122 -0.06 0.094 -0.031 0.118 0.017 0.109 0.011 0.073 0.041 0.054 0.056 0.063 0.031 0.063 -0.016 0.131 0.016 0.06 0.046 0.06 0.026 0.077 -0.037 0.063 -0.046 0.229 -0.048 0.143 -0.012 0.04 -0.009 0.084 -0.034 0.088 -0.023 0.08 0.006 0.079 0.071 0.081 0.049 0.023 0.077 0.099 0.106 0.246 0.145 0.097 0.044 0.066 -0.008 0.034 -0.012 0.016 -0.015 0.015 -0.071 0.031 -0.026 0.05 -0.001 0.193 0.088 0.101 0.009 0.096 0.002 0.129 0.069 0.142 0.06 0.109 0.006 0.087 -0.023 0.06 -0.014 0.037 0.023 0.034 0.051 0.057 0.04 0.066 0.011 0.094 0.003 0.164 0.077 0.154 0.079 0.096 0.004 0.082 -0.023 0.072 -0.006 0.05 0.02 0.014 0.034 -0.037 0.046 0 0.066 0.068 0.063 0.002 0.062 -0.02 0.056 -0.039 0.051 -0.094 0.07 -0.087 0.066 -0.13 0.027 -0.073 0.029 0.019 0.048 0.048 0.045 0.11 0.036 0.125 0.027 0.014 0.029 -0.019 0.015 -0.08 0.014 -0.111 -0.014 -0.037 0.026 -0.051 0.043 -0.034 0.077 -0.026 0.071 0.121 0.019 0.07 0.029 0.022 0.059 0.025 0.065 0.007 0.059 -0.04 0.029 -0.002 0.029 0.019 0.014 0.052 0.006 0.04 0.013 0.003 0.031 -0.076 0.07 -0.071 0.133 -0.038 0.071 0.003 0.077 -0.043 0.043 -0.077 0.004 -0.267 0.007 -0.233 -0.004 -0.101 -0.011 -0.158 -0.007 -0.078 0.018 -0.103 0.123 -0.078 0.048 -0.13 0.044 -0.142 0.012 -0.081 0.051 -0.029 0.08 -0.002 0.071 -0.013 0.035 -0.031 0.031 -0.011 0.022 0.007 0.024 0.033 0.009 0.04 0.011 0 0.018 -0.015 0.022 -0.044 0.024 -0.02 0.038 0.004 0.04 z M 32.012 -46.204 l 0.138 0.049 -0.141 -0.013 -0.309 -0.046 -0.136 -0.044 -0.035 -0.049 -0.02 -0.067 0.076 0.07 0.054 0.031 z" vector-effect="non-scaling-stroke" fill="#000" fill-opacity="1" stroke="#FFF" stroke-width="0px" stroke-linejoin="round" stroke-linecap="round"/></svg>
