<svg xmlns="http://www.w3.org/2000/svg" xmlns:xlink="http://www.w3.org/1999/xlink" height="400" width="400" viewBox="-178.19453125 -71.407666015625 357.97451171875 52.44375"><path d="M -132.747 -56.526 l -0.011 0.015 -0.127 -0.001 -0.046 -0.012 -0.017 -0.043 0.012 -0.04 0.03 -0.031 0.036 -0.059 0.028 -0.098 0.187 0.11 0.057 0.049 0.031 0.06 -0.066 0.022 -0.08 0.011 z M -132.78 -56.247 l -0.051 0.003 -0.06 -0.015 -0.144 -0.081 -0.003 -0.024 0.021 -0.027 0.082 -0.05 0.033 -0.012 0.196 0.005 0.063 0.013 0.014 0.023 -0.003 0.024 -0.021 0.024 -0.005 0.025 0.011 0.026 -0.023 0.026 z M -134.313 -58.229 l -0.007 0.025 -0.136 -0.002 -0.138 -0.037 -0.068 -0.048 0.014 -0.021 0.128 -0.02 0.121 0.045 z M -145.119 -60.337 l -0.032 0.024 -0.087 -0.009 -0.047 -0.015 0.156 -0.064 0.026 0.013 z M -144.566 -59.818 l -0.048 0.006 0.072 -0.066 0.097 -0.072 0.091 -0.046 0.118 -0.019 -0.013 0.033 -0.154 0.061 z M -148.022 -60.065 l -0.052 0.031 -0.198 -0.019 0.041 -0.06 0.151 -0.038 0.165 0.059 z M -152.021 -60.362 l -0.048 0.004 0.065 -0.049 0.045 -0.096 0.06 0.013 0.012 0.018 -0.1 0.099 z M -160.329 -55.338 l -0.014 0.079 -0.137 -0.05 -0.037 -0.025 0.025 -0.019 0.131 -0.005 z M -159.362 -54.972 l -0.032 0.005 -0.027 -0.011 -0.037 -0.057 -0.003 -0.024 0.071 0.018 0.027 0.041 z M -159.515 -55.152 l -0.005 0.08 -0.015 0.013 -0.027 -0.021 -0.056 0.024 -0.031 -0.017 0.013 -0.028 -0.004 -0.022 0.042 -0.002 0.01 -0.04 -0.007 -0.017 0.021 -0.036 0.03 -0.008 z M -166.21 -53.723 l -0.014 0.003 -0.026 -0.025 -0.001 -0.023 0.016 -0.016 0.047 -0.038 0.033 -0.014 0.041 -0.007 0.011 0.01 -0.036 0.045 -0.045 0.031 z M -176.009 -51.812 l -0.084 0.022 -0.111 -0.044 0.011 -0.051 0.122 0.043 z M -166.11 -66.227 l -0.039 0.006 0.002 -0.015 0.114 -0.041 0.21 -0.05 -0.008 0.011 -0.112 0.039 z M -171.463 -63.64 l 0.015 0.024 0.104 -0.004 0.146 0.01 0.162 0.024 0.16 -0.008 0.202 -0.075 0.121 -0.02 0.121 -0.01 0.131 0.018 0.128 0.04 0.049 0.023 0.039 0.041 0.026 0.049 0.039 0.035 0.24 0.044 0.153 0.017 0.037 0.024 0.033 0.033 0.127 0.025 0.133 -0.009 0.074 0.009 0.225 0.001 0.28 0.037 -0.045 0.097 -0.091 0.043 -0.257 -0.014 -0.256 0.014 -0.106 0.05 -0.088 0.063 -0.012 0.061 -0.052 0.028 -0.054 0.012 -0.043 -0.034 -0.058 -0.104 -0.041 -0.029 -0.045 -0.018 -0.125 -0.033 -0.127 -0.021 -0.074 -0.002 -0.054 -0.036 -0.03 -0.052 -0.051 -0.027 -0.101 -0.038 -0.103 -0.03 -0.321 -0.065 -0.106 -0.009 -0.107 0.007 -0.115 0.03 -0.111 0.044 -0.114 0.033 -0.118 0.007 -0.113 -0.019 -0.106 -0.043 -0.053 -0.03 -0.028 -0.053 0.001 -0.053 0.014 -0.051 0.057 -0.123 0.1 -0.024 z M -166.135 -60.384 l 0.092 0.05 0.049 0.003 0.154 -0.015 0.056 0.011 0.055 0.021 0.034 0.033 0.006 0.057 -0.025 0.051 0.007 0.072 -0.005 0.031 0.082 0.041 0.026 0.056 0.013 0.06 -0.177 0.02 -0.177 0.003 -0.153 0.04 -0.031 0.03 0.025 0.044 -0.042 0.011 -0.039 -0.01 -0.074 -0.041 -0.081 -0.02 -0.285 -0.03 -0.357 -0.119 -0.154 -0.025 -0.156 -0.087 -0.141 -0.111 0.092 -0.018 0.093 -0.009 0.415 0.017 0.052 -0.079 0.053 -0.02 0.132 -0.023 0.123 -0.044 0.055 0.001 0.056 0.017 0.117 -0.026 0.062 -0.006 z M -152.898 -57.824 l 0.007 0.055 0.041 -0.007 0.154 -0.057 0.08 -0.017 0.104 -0.003 0.083 0.026 0.017 0.02 -0.007 0.024 -0.066 0.048 0.003 0.031 0.071 0.057 0.175 0.031 0.021 0.017 -0.001 0.021 -0.12 0.095 -0.044 0.022 -0.031 0.005 -0.219 -0.017 -0.2 -0.031 -0.081 -0.005 -0.029 0.01 -0.057 0.029 0.041 0.009 0.175 0.007 0.062 0.043 0.027 0.031 0.013 0.034 -0.035 0.014 -0.075 0.01 -0.09 0 -0.111 0.039 -0.061 0.044 -0.223 0.011 -0.169 0.059 -0.06 0.029 -0.021 0.035 -0.064 0.025 -0.144 0.025 0.086 0.023 0.013 0.019 0.002 0.027 -0.012 0.023 -0.114 0.102 -0.215 0.084 -0.055 -0.004 -0.023 -0.01 -0.019 -0.016 -0.001 -0.016 0.278 -0.169 -0.011 -0.008 -0.076 -0.006 -0.12 -0.046 -0.084 0.03 -0.019 -0.001 0.023 -0.04 0.055 -0.047 -0.01 -0.013 -0.03 -0.012 -0.07 -0.007 -0.109 -0.002 -0.081 0.011 -0.052 0.025 -0.004 0.01 0.112 -0.003 0.03 0.013 0.03 0.024 0.018 0.027 0.006 0.031 -0.023 0.042 -0.053 0.052 -0.078 -0.009 -0.16 -0.116 -0.071 -0.169 -0.137 -0.129 -0.006 -0.031 0.039 -0.08 0.138 -0.113 0.148 -0.031 0.106 -0.048 0.102 -0.014 0.063 0.001 0.086 0.021 0.035 0.043 -0.021 0.02 0.008 0.011 0.061 0.026 0.065 0.091 0.076 0.081 0.051 0.033 0.067 0.02 -0.069 -0.062 -0.041 -0.076 -0.021 -0.152 -0.02 -0.04 0.039 -0.011 0.109 0.006 -0.003 -0.023 -0.115 -0.051 -0.071 -0.042 -0.027 -0.034 0.002 -0.029 0.063 -0.043 0.036 -0.012 0.037 -0.005 0.073 0.009 0.033 0.013 0.094 0.097 0.044 0.03 0.037 0 0.034 -0.016 0.031 -0.032 0.032 -0.019 0.033 -0.006 0.105 0.014 0.035 -0.005 0.017 -0.024 -0.001 -0.043 0.026 -0.016 0.006 -0.032 -0.057 -0.047 0.065 -0.014 0.217 0.036 0.093 0.039 z M -130.025 -55.888 l -0.05 0.052 -0.037 0.056 -0.025 0.06 -0.009 0.065 0.006 0.069 0.02 0.061 0.061 0.112 0.02 0.069 0.003 0.046 -0.135 0.161 -0.047 0.077 0.004 0.034 -0.098 0.08 -0.181 0.112 -0.082 0.065 -0.04 -0.021 -0.234 -0.017 -0.085 -0.143 -0.045 -0.111 -0.068 -0.096 0.002 -0.022 0.062 -0.064 0.234 -0.053 0.002 -0.021 -0.087 -0.014 -0.021 -0.023 -0.024 -0.104 0.006 -0.092 -0.006 -0.061 -0.039 -0.124 -0.058 -0.076 -0.151 -0.148 -0.013 -0.037 0.066 -0.047 0.041 -0.044 -0.255 0.076 -0.348 0.08 -0.149 0.056 -0.031 0.022 -0.011 0.019 0.027 0.053 -0.004 0.017 -0.03 0.031 -0.036 0.088 -0.076 0.093 -0.038 0.019 -0.136 -0.035 -0.036 -0.03 -0.068 -0.121 0.016 -0.032 0.05 -0.027 0.067 -0.059 0.085 -0.091 0.162 -0.23 0.106 -0.001 0.187 -0.046 -0.293 -0.023 -0.044 -0.012 -0.039 -0.031 -0.035 -0.051 -0.06 -0.056 -0.111 -0.02 -0.049 -0.021 -0.074 -0.068 -0.049 -0.031 -0.027 -0.038 -0.005 -0.045 -0.021 -0.023 -0.077 -0.008 -0.042 -0.016 -0.011 -0.117 -0.152 -0.03 -0.062 -0.026 -0.1 -0.073 -0.028 -0.035 -0.009 -0.03 0.025 -0.081 -0.01 -0.015 -0.089 0.008 -0.552 -0.125 0.029 -0.165 -0.102 -0.217 -0.11 -0.088 0.022 -0.034 0.024 -0.018 0.049 0 0.212 0.064 0.2 0.076 0.026 -0.011 -0.319 -0.161 -0.08 -0.048 -0.02 -0.058 -0.001 -0.031 0.025 -0.016 0.299 0.014 0.018 -0.012 -0.303 -0.047 -0.062 0 -0.066 0.067 -0.032 0.016 -0.065 -0.003 -0.022 -0.01 -0.077 -0.082 -0.073 -0.057 -0.137 -0.079 -0.026 -0.056 -0.007 -0.083 0.018 -0.078 0.112 -0.179 0.045 -0.031 0.012 -0.019 -0.034 0.003 -0.033 0.017 -0.092 0.083 -0.095 0.136 -0.078 0.046 -0.049 -0.011 -0.074 -0.055 -0.154 -0.068 -0.178 -0.018 -0.113 -0.069 -0.166 -0.192 -0.022 -0.096 -0.021 -0.023 -0.09 -0.031 -0.055 -0.046 -0.086 -0.234 -0.113 -0.162 -0.028 -0.086 0.01 -0.085 -0.015 -0.009 -0.039 0.066 -0.01 0.035 -0.071 0.01 0.067 0.067 0.017 0.034 -0.034 -0.003 -0.069 0.008 0.116 0.115 0.052 0.178 0.077 0.132 0.05 0.107 0.023 0.081 0.033 0.078 0.09 0.171 0.012 0.034 -0.011 0.028 -0.03 0.033 -0.051 0.012 -0.161 -0.023 -0.061 -0.042 -0.087 -0.078 -0.122 -0.036 -0.302 0.018 -0.024 -0.006 0.001 -0.064 0.035 -0.113 -0.028 -0.046 -0.156 -0.166 0.002 -0.033 0.217 -0.076 -0.105 -0.006 -0.085 0.03 -0.033 -0.019 -0.051 -0.107 -0.033 -0.04 -0.016 -0.009 -0.009 0.101 0.036 0.053 0.005 0.031 -0.006 0.043 -0.023 0.031 -0.04 0.019 -0.04 0.005 -0.073 -0.021 -0.081 -0.04 -0.071 -0.019 -0.026 -0.016 -0.034 -0.045 -0.055 -0.034 -0.265 -0.043 -0.158 -0.051 -0.013 0.013 0.049 0.054 0.005 0.032 -0.04 0.01 -0.071 0.051 0.021 0.007 0.075 -0.017 0.084 0.002 0.139 0.031 0.126 0.041 0.046 0.023 0.019 0.034 0.016 0.012 0.123 0.04 0.006 0.021 -0.08 0.062 0.164 -0.007 0.095 0.022 0.122 0.096 0.041 0.054 0.006 0.069 -0.025 0.02 -0.048 0.014 -0.333 0.022 -0.12 0.083 -0.025 0.001 -0.092 -0.022 -0.166 -0.066 -0.207 -0.063 -0.472 -0.186 -0.013 -0.009 -0.008 -0.036 -0.032 -0.018 -0.064 -0.016 -0.089 -0.047 -0.114 -0.078 -0.07 -0.061 -0.027 -0.044 -0.066 -0.05 -0.214 -0.105 -0.112 -0.04 -0.099 -0.023 -0.086 -0.005 -0.023 -0.014 0.04 -0.023 0.006 -0.014 -0.189 -0.022 -0.18 -0.049 -0.457 -0.139 -0.236 -0.087 -0.138 -0.042 -0.059 -0.023 -0.026 -0.019 0.033 -0.02 0.092 -0.021 0.063 -0.023 0.099 -0.088 0.007 -0.028 -0.053 -0.064 -0.024 -0.058 0.001 -0.032 0.012 -0.032 0.015 -0.021 0.042 -0.02 0.029 -0.01 0.036 0.007 0.116 0.08 0.016 0.029 -0.005 0.109 0.033 0.128 0.01 -0.009 0.011 -0.042 0.007 -0.081 0.013 -0.039 0.025 -0.038 0.042 -0.02 0.131 0.012 0.06 -0.007 -0.254 -0.058 -0.16 -0.108 -0.029 -0.011 -0.088 -0.005 -0.093 0.044 -0.239 0.143 -0.067 0.025 -0.3 0.079 -0.203 0.016 -0.229 -0.012 -0.195 -0.026 -0.489 -0.125 -0.076 -0.029 0.114 -0.077 0.005 -0.024 -0.04 -0.079 -0.033 -0.022 -0.047 -0.012 -0.013 0.009 0 0.023 0.012 0.043 -0.037 0.023 -0.083 0.025 -0.14 0.025 -0.434 -0.064 -0.444 -0.053 -0.397 -0.011 -0.56 0.042 -0.299 0.042 -0.174 0.004 -0.168 -0.008 -0.014 -0.029 0.077 -0.017 -0.004 -0.021 -0.097 -0.066 -0.147 -0.04 -0.197 -0.014 -0.113 -0.019 -0.029 -0.025 -0.07 -0.023 -0.111 -0.022 -0.049 -0.04 0.039 -0.124 0.038 -0.074 0.038 -0.051 0.095 -0.084 -0.033 0.006 -0.139 0.062 -0.121 0.064 -0.112 0.083 -0.067 0.038 -0.086 0.035 -0.133 -0.008 -0.181 -0.052 -0.155 -0.027 -0.129 -0.002 -0.051 -0.009 0.088 -0.046 0.051 -0.037 0.07 -0.06 0.015 -0.029 -0.474 -0.01 -0.017 -0.032 -0.001 -0.023 -0.015 -0.019 -0.069 -0.014 -0.096 0.011 -0.156 0.037 -0.067 -0.028 0.024 -0.016 0.051 -0.012 0.104 -0.054 -0.14 -0.028 -0.072 -0.032 -0.035 -0.026 0.002 -0.095 0.037 -0.061 0.314 -0.059 -0.099 -0.023 -0.198 0.008 -0.133 0.05 -0.158 0.073 -0.106 0.027 -0.054 -0.018 -0.072 -0.006 -0.089 0.006 -0.06 0.019 -0.031 0.031 -0.035 0.021 -0.04 0.011 -0.029 -0.004 -0.043 -0.032 -0.09 -0.02 -0.044 -0.025 -0.025 0.015 -0.031 0.046 -0.032 0.023 -0.152 0.024 -0.083 -0.004 -0.1 -0.058 -0.014 -0.02 0.034 -0.05 0.219 -0.2 -0.022 0.001 -0.071 0.031 -0.142 0.08 -0.063 0.024 -0.108 0.003 -0.051 -0.009 -0.061 0.006 -0.072 0.021 -0.047 0.023 -0.022 0.025 0.015 0.004 0.108 -0.029 0.062 -0.008 0.017 0.014 -0.084 0.09 -0.051 0.086 -0.049 0.022 -0.078 -0.004 -0.085 0.008 -0.001 0.024 0.159 0.069 0.057 0.01 0.073 0.025 0.011 0.024 -0.027 0.066 -0.021 0.026 -0.033 0.014 -0.129 -0.002 -0.042 0.007 -0.087 0.041 -0.044 0.034 0.016 0.003 0.075 -0.028 0.109 -0.015 0.143 -0.002 0.107 -0.015 0.07 -0.028 0.069 0.008 0.067 0.044 0.02 0.038 -0.027 0.033 -0.055 0.024 -0.083 0.014 -0.052 0.021 -0.022 0.028 -0.012 0.042 -0.003 0.055 0.021 0.1 -0.016 0.014 -0.031 0.007 -0.046 0.001 -0.042 0.023 -0.098 0.133 -0.034 0.014 -0.041 -0.014 -0.036 0.002 -0.032 0.017 -0.07 0.013 -0.107 0.009 -0.092 -0.003 -0.162 -0.029 -0.066 -0.02 -0.051 -0.033 -0.145 0.035 -0.038 -0.015 -0.09 -0.092 -0.02 0.006 -0.017 0.099 -0.027 0.035 -0.089 0.072 -0.049 0.124 -0.015 0.004 -0.017 -0.018 -0.055 -0.111 -0.029 -0.024 -0.081 0.064 -0.009 0.023 0.021 0.082 -0.019 0.012 -0.164 -0.044 -0.04 -0.002 -0.011 0.007 0.056 0.064 -0.006 0.023 -0.232 0.123 -0.06 -0.004 -0.038 -0.012 -0.042 0.002 -0.147 0.046 -0.041 -0.002 -0.056 -0.027 -0.026 0.001 -0.014 0.028 -0.002 0.055 -0.055 0.053 -0.175 0.085 -0.047 0.039 -0.035 0.054 -0.026 0.005 -0.103 -0.034 -0.119 -0.022 -0.016 0.011 0.036 0.033 -0.008 0.02 -0.052 0.008 -0.065 -0.003 -0.079 -0.013 -0.111 0.015 -0.142 0.043 -0.119 -0.001 -0.166 -0.071 -0.046 -0.005 -0.015 -0.02 0.032 -0.058 0.047 -0.044 0.035 -0.02 0.157 -0.056 0.18 -0.021 0.113 -0.034 0.138 -0.069 0.073 -0.052 0.143 -0.134 -0.011 -0.01 -0.032 -0.007 -0.314 0.127 -0.046 0.012 -0.063 -0.001 -0.251 -0.049 -0.053 -0.021 -0.036 -0.061 0.07 -0.139 0.049 -0.067 0.123 -0.104 0.16 -0.111 0.055 -0.072 0.083 -0.192 -0.005 -0.087 -0.037 -0.106 -0.001 -0.063 0.035 -0.02 0.368 -0.098 0.174 -0.074 0.338 -0.109 0.092 0.001 0.068 0.037 0.079 0.03 0.09 0.022 0.115 -0.002 0.141 -0.027 0.224 0.01 0.46 0.072 0.098 0.004 0.004 -0.009 -0.071 -0.05 -0.317 -0.029 -0.133 -0.029 -0.375 -0.128 -0.086 -0.049 0.035 -0.023 0.092 -0.019 0.031 -0.018 0.013 -0.032 0.053 -0.044 0.092 -0.056 0.141 -0.054 0.267 -0.08 -0.104 -0.003 -0.192 0.015 -0.07 0.015 -0.128 0.057 -0.05 0.04 -0.072 0.079 -0.03 0.015 -0.133 0.011 -0.363 0.008 -0.061 -0.04 -0.034 -0.007 -0.045 0.006 -0.333 0.103 -0.119 0.053 -0.085 0.06 -0.132 0.044 -0.178 0.028 -0.133 0.034 -0.14 0.069 -0.048 0.053 -0.003 0.025 0.034 0.078 -0.035 0.015 -0.081 0.006 -0.13 0.052 -0.274 0.154 -0.036 0.056 0.002 0.019 0.045 0.044 -0.031 0.028 -0.077 0.045 -0.172 0.071 -0.113 0.027 -0.073 0.001 -0.071 -0.01 -0.125 -0.046 -0.102 -0.003 -0.006 0.006 0.138 0.049 0.141 0.063 0.088 0.052 0.035 0.042 0.002 0.043 -0.032 0.044 -0.099 0.076 -0.097 0.023 -0.249 0.023 -0.08 0.018 -0.025 0.014 0.171 0.032 0.015 0.017 -0.024 0.064 -0.045 0.021 -0.143 0.038 -0.128 0.011 -0.019 -0.007 0.024 -0.05 -0.007 -0.012 -0.048 -0.01 -0.068 0.019 -0.17 0.074 -0.018 0.012 0.061 0.02 -0.013 0.017 -0.092 0.053 -0.038 0.035 -0.062 0.036 -0.274 0.11 0.021 0.027 -0.071 0.096 -0.04 0.085 0.048 0.036 0.23 0.042 0.112 0.01 0.132 0.029 0.238 0.079 0.079 0.051 0.012 0.024 -0.007 0.026 -0.029 0.036 -0.075 0.067 -0.18 0.1 -0.081 0.028 -0.123 0.022 -0.04 0.016 -0.158 0.095 -0.043 0.051 0.007 0.045 -0.03 0.031 -0.203 0.061 0.007 0.011 0.074 0.005 -0.027 0.054 -0.012 0.075 -0.035 0.013 -0.127 -0.001 -0.161 0.029 -0.011 0.008 -0.003 0.054 -0.422 0.04 -0.092 0.103 -0.048 0.031 -0.165 0.075 -0.101 0.03 -0.116 0.018 -0.061 0.025 -0.006 0.033 -0.033 0.028 -0.1 0.046 -0.049 0.058 -0.036 0.009 -0.187 0.014 -0.037 0.018 -0.018 0.079 -0.035 0.002 -0.066 -0.018 -0.086 0.014 -0.194 0.089 -0.043 0.032 0.005 0.017 0.03 0.017 0.046 0.053 -0.003 0.036 -0.075 0.1 -0.026 0.015 -0.091 0.025 -0.037 0.055 -0.084 -0.006 -0.067 0.01 -0.044 0.037 -0.048 0.021 -0.052 0.006 -0.065 0.029 -0.078 0.053 -0.072 0.034 -0.067 0.015 -0.065 0.004 -0.063 -0.007 -0.057 0.006 -0.05 0.019 -0.049 0.031 -0.039 0.087 -0.05 0.039 -0.031 0.007 -0.064 -0.006 -0.097 -0.018 -0.098 0.006 -0.159 0.053 -0.05 0.04 0.1 0.009 0.05 0.011 -0.001 0.011 -0.052 0.011 -0.089 -0.001 -0.053 0.009 -0.065 0.023 -0.163 0.025 -0.062 0.018 -0.123 0.1 -0.015 0.023 0.016 0.005 0.069 -0.011 0.081 0.017 0.042 0.021 0.027 0.026 0.026 0.05 0.016 0.007 -0.156 0.085 -0.044 0.036 -0.029 0.013 -0.019 -0.01 -0.019 -0.094 -0.012 -0.016 -0.037 -0.002 -0.036 0.03 -0.078 0.112 -0.085 0.056 -0.64 0.144 -0.094 0.033 -0.018 0.062 -0.026 0.053 -0.042 0.042 -0.05 0.027 -0.011 -0.019 0.005 -0.15 -0.013 -0.03 -0.065 -0.019 -0.028 0.003 -0.039 0.008 -0.064 0.032 -0.039 0.008 -0.049 -0.003 -0.083 0.032 -0.198 0.102 -0.129 0.025 -0.034 0.021 -0.055 0.056 -0.037 0.021 -0.054 0.002 -0.072 -0.017 -0.058 0.012 -0.044 0.041 -0.044 0.016 -0.126 -0.03 -0.055 0.021 -0.072 0.053 -0.075 0.035 -0.079 0.017 -0.204 0.018 -0.082 -0.011 -0.017 -0.015 0.004 -0.067 0.033 -0.048 0.03 -0.023 0.041 -0.02 0.059 -0.002 0.111 0.015 -0.013 -0.016 -0.04 -0.019 -0.102 -0.033 -0.101 -0.017 -0.058 0.011 -0.082 0.026 -0.056 0.029 -0.029 0.033 -0.037 0.109 -0.021 0.03 -0.239 0.193 -0.094 0.059 -0.093 -0.004 -0.045 0.022 -0.063 0.048 -0.058 0.023 -0.053 -0.002 -0.042 -0.009 -0.03 -0.016 0.005 -0.015 0.04 -0.014 -0.014 -0.039 -0.068 -0.063 -0.047 -0.034 -0.088 -0.004 -0.014 0.029 0.03 0.147 -0.005 0.033 -0.055 0.042 -0.145 0.047 -0.045 -0.005 -0.131 -0.092 -0.124 -0.018 -0.008 0.03 0.028 0.061 -0.031 0.057 -0.089 0.053 -0.068 0.026 -0.047 -0.002 -0.003 -0.037 0.042 -0.073 0.011 -0.061 -0.02 -0.049 0.002 -0.037 0.025 -0.026 0.164 -0.072 0.069 -0.011 0.037 0.018 0.046 0.003 0.055 -0.012 0.035 -0.023 0.014 -0.034 0.071 -0.044 0.127 -0.054 0.146 -0.099 0.164 -0.145 0.192 -0.125 0.221 -0.105 0.239 -0.083 0.482 -0.114 0.037 0.007 -0.044 0.037 0.03 0.023 0.047 0.003 0.177 -0.018 0.07 -0.024 0.021 0.023 -0.025 0.029 -0.106 0.03 0.003 0.025 0.154 0.115 0.048 0.017 0.04 -0.002 0.017 -0.015 -0.013 -0.083 0.052 -0.016 0.107 -0.004 0.069 0.011 0.032 0.026 0.061 0.021 0.09 0.017 0.056 -0.005 0.022 -0.027 -0.038 -0.032 -0.171 -0.071 -0.048 -0.03 -0.012 -0.041 0.024 -0.053 0.054 -0.078 0.083 -0.104 0.075 -0.073 0.153 -0.082 0.103 -0.041 0.261 -0.125 0.502 -0.127 0.124 -0.081 0.169 -0.09 0.072 -0.022 0 0.035 0.023 0.031 0.113 0.021 0.073 0.007 0.034 -0.006 0.009 -0.033 -0.015 -0.06 -0.004 -0.056 0.008 -0.053 0.016 -0.042 0.075 -0.075 0.112 -0.085 0.153 -0.099 0.096 -0.045 0.091 -0.024 0.088 -0.043 0.151 -0.102 0.049 -0.017 0.109 -0.02 0.04 0.009 0.023 0.026 0.028 0.016 0.11 0.014 0.073 -0.023 -0.012 -0.012 -0.06 -0.008 -0.038 -0.015 -0.036 -0.061 -0.073 -0.037 -0.017 -0.041 0.013 -0.064 0.063 -0.151 0.01 -0.156 0.056 -0.089 0.112 -0.032 0.249 -0.022 -0.146 -0.04 -0.054 0 -0.095 -0.019 -0.036 -0.097 0.001 -0.071 0.063 -0.082 0.232 -0.138 0.254 -0.095 -0.034 -0.008 -0.031 -0.028 0.117 -0.191 0.114 -0.171 -0.154 0.145 -0.179 0.111 -0.524 0.129 -0.356 0.108 -0.169 0.026 -0.112 -0.028 -0.087 -0.104 -0.05 -0.037 -0.064 -0.068 0.027 -0.088 0.051 -0.061 0.111 -0.01 0.125 0.029 0.109 0.002 -0.14 -0.06 -0.202 -0.052 -0.092 0.017 -0.07 0.085 -0.094 0.058 -0.082 -0.021 -0.049 -0.024 0.034 0.071 -0.062 0.109 -0.024 0.075 0.089 0.198 -0.017 0.079 -0.162 0.036 -0.132 -0.065 -0.276 -0.252 -0.096 -0.072 -0.216 -0.118 -0.071 0.017 -0.091 0.058 -0.088 0.016 -0.232 -0.086 -0.108 -0.066 -0.102 -0.08 -0.157 0.044 -0.137 0.052 -0.16 0.083 -0.107 -0.001 -0.292 0.071 -0.031 0.002 -0.041 0.039 -0.04 0.017 -0.033 0.074 -0.394 0.058 -0.389 -0.032 0.136 -0.041 0.152 -0.032 0.132 -0.077 -0.056 -0.103 -0.01 -0.053 0.002 -0.066 0.144 -0.093 -0.15 0 -0.096 0.033 -0.09 -0.07 -0.042 -0.138 0.103 -0.081 0.048 -0.063 0.041 -0.086 0.003 -0.074 -0.08 -0.125 -0.229 -0.266 -0.104 -0.198 -0.179 -0.106 0.134 -0.173 0.149 -0.157 0.192 -0.07 -0.015 -0.011 -0.106 0 -0.07 0.009 -0.062 0.051 -0.065 0.039 -0.204 0.201 -0.131 0.098 -0.085 0.028 0.137 0.038 0.021 0.032 0.026 0.073 -0.035 0.088 -0.035 0.049 -0.162 -0.004 -0.145 0.071 -0.342 0.077 -0.461 0.044 -0.227 -0.005 -0.236 -0.09 0.002 -0.052 0.01 -0.045 -0.339 -0.155 -0.192 -0.154 -0.138 -0.003 -0.12 -0.041 -0.141 -0.064 0.012 -0.052 0.022 -0.036 -0.087 -0.025 -0.111 0.002 -0.129 -0.018 0.338 -0.199 0.116 -0.133 0.095 -0.019 0.123 0.021 0.169 0.052 0.143 0.023 0.052 0.025 0.053 0.047 -0.056 0.078 -0.051 0.055 0.063 -0.015 0.178 -0.085 0.132 -0.075 0.063 0.008 0.041 0.013 0.074 0.077 0.091 0.078 0.201 -0.075 0.108 -0.093 -0.091 -0.041 -0.111 -0.024 -0.283 -0.032 0.069 -0.027 0.182 0.003 0.069 -0.025 -0.072 -0.035 -0.09 -0.031 -0.246 0.105 -0.447 -0.005 -0.312 -0.061 -0.312 0.011 -0.049 -0.012 -0.061 -0.033 0.176 -0.078 0.124 -0.043 0.007 -0.025 -0.072 -0.003 -0.136 0.021 -0.061 -0.036 0.01 -0.062 -0.022 0.006 -0.054 0.034 -0.076 -0.017 -0.065 -0.028 0.034 -0.03 0.067 -0.041 -0.03 -0.006 -0.06 0.009 -0.058 0.054 0.013 0.044 -0.001 0.062 -0.1 0.011 -0.085 -0.007 -0.062 -0.063 -0.064 -0.135 -0.173 -0.036 -0.042 -0.068 0.109 -0.087 -0.048 -0.045 -0.116 -0.015 -0.133 0.044 -0.059 -0.039 -0.011 -0.043 -0.005 -0.062 0.037 -0.006 0.031 0.012 0.266 -0.034 0.026 -0.017 -0.211 -0.052 -0.059 -0.055 0.087 -0.031 0.158 -0.003 0.221 -0.032 -0.093 -0.058 -0.019 -0.032 -0.019 -0.052 0.037 -0.089 0.26 -0.203 0.253 -0.17 0.079 -0.039 0.116 -0.021 0.108 0.016 0.113 0.036 0.021 -0.016 -0.038 -0.015 -0.048 -0.069 0.156 -0.027 0.092 -0.078 0.007 -0.023 -0.1 0.033 -0.104 0.054 -0.026 -0.054 -0.027 -0.124 0.046 -0.117 0.036 -0.053 0.087 -0.05 0.249 -0.02 0.044 0.01 0.009 -0.024 -0.15 -0.074 0.062 -0.058 0.054 -0.03 0.301 -0.047 0.165 0.015 0.207 0.054 0.12 0.068 -0.017 0.035 -0.03 0.02 -0.062 0.023 -0.023 0.017 0.011 0.014 0.088 -0.04 0.145 -0.049 0.081 0.021 0.064 0.039 0.071 -0.001 0.226 -0.033 0.115 -0.035 0.14 -0.092 0.186 -0.059 0.262 -0.187 0.077 -0.077 0.09 -0.012 0.081 0.007 0.056 0.063 0.082 0.018 0.469 -0.015 0.239 -0.029 0.166 -0.061 0.173 -0.103 0.1 -0.069 0.048 -0.09 -0.062 -0.116 -0.063 -0.096 -0.084 -0.22 -0.233 -0.145 -0.166 -0.043 -0.105 0.006 0.076 -0.093 0.222 0.01 0.144 -0.018 0.117 -0.045 0.038 -0.034 0.058 -0.069 -0.02 -0.074 -0.031 -0.04 -0.081 -0.044 -0.096 -0.064 -0.067 -0.021 -0.057 0.001 -0.279 0.129 -0.168 0.002 -0.125 -0.024 -0.109 0.074 -0.304 0.065 -0.162 0.065 -0.301 0.162 -0.075 0.073 -0.096 0.003 -0.069 -0.142 -0.327 -0.136 -0.099 0.046 0.055 0.043 0.074 0.03 0.122 0.013 -0.053 0.041 -0.04 0.055 -0.123 -0.051 -0.219 -0.075 -0.227 -0.038 -0.591 0.004 -0.388 0.077 -0.036 -0.016 -0.037 -0.006 -0.065 0.018 -0.028 0.031 -0.042 0.02 -0.079 0.007 -0.159 -0.012 -0.308 -0.048 -0.697 -0.07 -0.182 -0.043 -0.156 -0.102 0.003 -0.069 0.069 -0.029 -0.007 -0.1 -0.136 -0.026 -0.276 -0.143 -0.101 -0.061 0.022 -0.007 0.05 0.017 0.094 0.012 0.232 -0.02 0.079 -0.093 0.172 -0.026 0.158 0.013 -0.036 -0.025 -0.04 -0.02 -0.412 -0.047 -0.056 0.014 -0.739 -0.084 -0.583 -0.146 -0.048 -0.028 -0.053 -0.062 0.079 -0.061 0.079 -0.029 0.004 0.034 0.013 0.033 0.334 -0.077 0.175 -0.101 0.331 -0.018 0.077 -0.028 0.103 -0.054 0.147 -0.093 0.208 -0.049 0.141 -0.044 0.184 -0.026 0.157 0.043 0.048 0.006 0.285 0.009 0.094 -0.019 0.04 -0.014 0.03 -0.022 -0.28 -0.078 0.028 -0.043 0.036 -0.031 0.327 -0.091 0.251 -0.03 0.134 0.002 0.39 -0.117 0.214 -0.033 0.402 -0.022 0.331 -0.006 0.089 0.042 -0.177 -0.009 -0.078 0.008 0.056 0.014 0.063 0.03 -0.018 0.038 -0.109 0.114 0.009 0.091 -0.071 0.03 -0.069 0.042 0.338 0.132 0.524 0.008 0.285 -0.024 0.165 0.039 0.135 0.009 0.373 -0.02 0.281 0.028 0.117 -0.011 0.259 -0.197 0.101 -0.031 0.11 0.034 0.144 0.028 0.092 -0.02 0.075 0.051 -0.035 -0.106 -0.051 -0.04 -0.424 -0.073 -0.284 0.036 -0.089 -0.041 0.029 -0.081 -0.304 -0.2 -0.127 -0.041 -0.15 -0.002 -0.076 -0.069 -0.064 -0.089 0.129 -0.036 0.117 -0.017 0.108 0.029 0.122 0.117 0.114 0.017 -0.033 0.117 0.141 0.108 0.319 0.1 0.255 -0.037 0.18 0.001 0.108 0.021 0.264 0.09 0.134 0.011 0.419 -0.047 0.004 -0.088 -0.035 -0.064 -0.098 -0.04 -0.283 0.008 -0.22 -0.066 -0.187 0.018 -0.347 0.101 -0.174 -0.04 -0.109 -0.054 -0.176 -0.055 -0.022 -0.104 0.147 -0.119 0.109 -0.057 -0.098 -0.041 -0.246 -0.029 -0.426 0.03 -0.02 -0.04 0.002 -0.044 -0.174 0.085 -0.178 -0.018 -0.24 0.009 -0.53 -0.075 -0.189 -0.093 -0.079 -0.075 -0.143 -0.207 -0.183 -0.129 -1.261 -0.439 -0.574 -0.11 -0.276 -0.122 -0.173 -0.03 -0.165 -0.012 -0.212 -0.039 0.142 -0.048 0.098 -0.016 -0.102 0.051 0.077 0.013 0.123 -0.029 0.067 -0.035 0.098 -0.148 0.101 -0.224 -0.027 -0.088 0.7 0.018 0.466 -0.015 0.154 -0.02 0.587 -0.034 0.152 -0.025 0.282 -0.075 0.332 -0.133 0.285 -0.175 0.045 -0.047 0.018 0.012 0.026 -0.007 0.03 -0.066 0.037 -0.156 0.141 -0.147 0.602 -0.336 0.279 -0.133 0.093 -0.06 0.097 -0.044 0.068 0.042 0.033 0.013 0.019 0.02 -0.057 0.009 -0.094 0.043 -0.13 0.029 -0.031 0.015 0.076 -0.003 0.229 -0.031 0.129 -0.038 0.643 -0.07 0.349 -0.116 0.014 -0.026 0.517 -0.145 0.072 0.006 0.082 0.017 -0.143 0.096 0.101 0.025 -0.09 0.114 0.188 0.002 0.042 0.053 0.01 -0.045 -0.002 -0.065 0.015 -0.064 0.028 -0.044 0.132 0.02 0.297 -0.047 -0.359 -0.006 -0.216 -0.104 -0.12 -0.001 0.401 -0.152 0.366 -0.092 0.083 0.002 0.04 0.017 0.009 0.028 -0.079 0.018 -0.078 0.033 0.036 0.029 0.053 0.004 0.176 -0.024 0.079 -0.03 0.375 0.003 0.11 -0.021 0.026 -0.021 0.486 -0.004 0.089 -0.015 0.304 -0.081 0.281 -0.098 0.129 -0.054 0.222 -0.137 0.19 -0.089 0.313 -0.089 0.075 0.011 -0.101 0.018 -0.071 0.038 0.097 0.05 0.659 0.103 0.166 0.006 0.066 0.062 -0.055 0.06 -0.17 0.066 -0.342 0.068 0.105 0.026 0.068 0.06 0.101 0.007 0.164 -0.023 0.129 -0.037 0.266 -0.121 0.084 -0.067 0.063 -0.017 0.223 0.016 0.126 0.035 0.144 0.061 -0.053 0.059 -0.059 0.033 0.187 0.046 0.206 0.01 0.197 0.037 0.277 -0.076 0.217 -0.016 0.204 0.003 0.265 -0.042 0.448 0.057 0.114 -0.015 0.18 0.01 0.191 0.034 0.067 0.036 -0.204 0.077 -0.033 0.08 0.071 0.033 0.13 0.006 0.016 0.046 0.08 0.012 0.404 -0.004 -0.031 0.022 -0.02 0.027 -0.125 0.059 0.72 0.033 0.097 -0.033 0.149 -0.013 0.316 -0.045 0.119 0.02 0.14 0.046 0.13 0.01 0.121 -0.009 0.282 -0.066 0.326 -0.003 0.133 0.021 0.141 -0.009 0.425 0.076 0.156 0.009 0.209 0.098 0.108 0.003 0.122 -0.042 0.106 0.001 0.104 0.04 0.17 0.012 0.079 0.063 0.085 0.023 0.642 0.047 0.318 -0.021 0.464 0.006 0.224 0.03 0.235 -0.004 0.383 0.109 0.203 0.017 0.039 0.025 0.578 0.027 0.202 -0.057 0.353 -0.015 0.318 -0.048 0.18 0 0.209 0.012 0.081 -0.006 0.058 -0.021 0.51 0.082 0.286 0.094 0.125 0.07 0.598 0.1 0.173 0.056 0.118 0.061 0.069 0.007 0.049 -0.018 0.209 0.005 0.079 0.009 0 0.292 0 0.292 0 0.292 0 0.292 0 0.292 0 0.292 0 0.292 0 0.292 0 0.292 0 0.292 0 0.292 0 0.292 0 0.292 0 0.292 0 0.292 0 0.292 0 0.292 0 0.292 0 0.292 0 0.292 0 0.292 0 0.292 0 0.292 0 0.292 0 0.292 0 0.292 0 0.292 0 0.292 0 0.292 0 0.292 0 0.292 0 0.292 0.239 0.041 0.237 0.041 0.073 -0.081 0.256 0.062 0.224 0.054 0.143 -0.07 0.154 -0.075 0.208 -0.005 0.233 -0.006 0.156 -0.004 0 0.064 -0.058 0.107 -0.048 0.089 0.142 0.09 0.175 0.048 0.163 0.044 0.073 0.123 0.179 0.095 0.136 0.072 0.13 0.069 0.186 0.099 0.131 0.069 0.174 0.092 0.103 0.055 0.05 0.107 0.06 0.128 -0.037 0.076 0.082 0.012 0.161 -0.085 0.151 -0.053 0.187 -0.065 0.126 -0.044 0.235 -0.002 0.112 -0.128 0 -0.179 0.119 0.003 0.07 -0.024 0.031 -0.053 -0.075 -0.072 0.225 -0.034 0.162 -0.024 0.232 -0.066 0.227 -0.065 0.108 0.05 0.107 0.048 0.21 0.116 0.014 0.028 -0.014 0.055 -0.02 0.055 0.128 0.153 0.037 0.017 0.105 0.021 0.125 0.051 0.055 0.044 0.181 0.07 0.031 0.029 0.017 0.047 0.03 0.04 0.034 0.029 0.033 0.041 0.078 0.049 0.149 0.054 0.103 0.038 0.145 0.053 0.147 0.108 0.128 0.094 0.145 0.093 -0.021 0.074 0.147 0.114 0.155 0.145 0.119 0.129 0.085 0.072 0.101 0.104 0.124 0.128 0.141 0.145 0.108 0.093 0.141 0.13 0.069 0.078 -0.047 0.053 -0.059 0.066 0.181 0.031 0.125 0.022 -0.031 0.073 -0.041 0.097 0.142 0.038 0.096 0.026 -0.02 0.051 0.053 0.057 0.009 0.095 0.173 -0.006 0.076 -0.003 0.103 0.042 0.136 0.056 0.136 0.052 0.117 0.044 0.153 0.026 0.189 0.038 0.093 0.077 0.172 0.033 0.064 0.108 0.198 0.04 0.117 -0.026 0.042 0.044 0.033 0.051 0.009 0.064 z M -163.476 -54.981 l 0.097 0.165 0.042 0.032 0.062 0.018 0.087 0.018 0.052 0.024 0.046 0.037 0.006 0.017 -0.275 -0.067 -0.173 0.097 -0.052 0.013 -0.49 0.005 -0.098 0.018 -0.063 0.032 -0.112 0.089 -0.057 0.035 -0.06 0.021 -0.127 0.023 -0.153 -0.003 -0.08 -0.012 -0.043 -0.042 -0.038 -0.083 0 -0.023 0.016 -0.04 0.136 -0.055 0.045 -0.029 0.176 -0.189 0.051 -0.026 0.054 -0.006 0.151 0.013 0.129 -0.055 0.277 -0.084 0.061 -0.01 0.2 -0.002 0.054 0.013 0.042 0.024 z M -133.305 -55.544 l 0.022 0.028 0.002 0.018 -0.145 0.066 -0.003 0.014 -0.034 0.041 -0.03 0.015 -0.054 0.044 -0.103 0.048 0.015 -0.144 -0.102 -0.084 0.103 -0.042 0.068 0.012 0.112 0.005 0.109 -0.037 z M -131.34 -55.08 l 0.102 0.13 0.005 0.046 -0.098 0.016 -0.077 -0.007 -0.04 -0.015 -0.01 -0.021 0.025 -0.066 -0.05 -0.039 -0.058 -0.013 -0.052 0.023 -0.003 -0.065 0.039 -0.047 -0.022 -0.063 -0.001 -0.048 0.013 -0.015 0.053 0.001 0.108 0.049 z M -132.112 -56.109 l -0.021 0.166 -0.04 -0.009 -0.038 0 -0.077 0.024 -0.081 -0.01 -0.038 -0.018 -0.014 -0.021 0.015 -0.049 -0.045 -0.027 -0.152 -0.01 -0.057 -0.012 -0.031 -0.052 -0.008 -0.068 0.024 -0.025 0.076 -0.018 0.06 -0.083 0.033 -0.011 0.126 -0.164 0.063 0.011 0.111 0.1 0.139 0.144 z M -130.979 -55.489 l -0.035 0.11 -0.069 0.113 -0.105 0.06 -0.074 -0.013 -0.054 -0.049 -0.051 0.003 -0.054 -0.01 -0.03 -0.04 0.029 -0.052 -0.025 -0.04 -0.027 0.035 -0.047 0.032 -0.119 0.042 -0.082 0.081 -0.039 0.053 -0.048 -0.057 -0.031 -0.136 -0.004 -0.058 0.087 -0.087 0.112 -0.082 0.023 -0.246 0.356 -0.124 0.033 0.006 0.116 0.092 0.123 0.129 0.032 0.058 0.001 0.102 z M -133.366 -57.004 l 0.067 0.031 0.036 -0.033 0.068 0.002 0.125 0.029 0.075 0.044 0.042 0.05 0.004 0.03 -0.013 0.068 0.009 0.069 -0.005 0.036 -0.017 0.03 -0.028 0.024 -0.031 0.003 -0.097 -0.063 -0.112 -0.113 -0.085 -0.034 -0.003 0.012 0.023 0.032 0.069 0.061 0.012 0.036 0.049 0.044 0.022 0.034 0.012 0.044 0 0.039 -0.013 0.033 -0.023 0.021 -0.032 0.009 -0.17 -0.009 -0.101 0.022 -0.119 -0.012 -0.029 -0.02 -0.018 -0.033 -0.009 -0.079 -0.03 -0.114 0.007 -0.088 -0.077 -0.079 -0.066 -0.048 -0.094 -0.043 -0.062 -0.042 0.017 -0.034 0.096 -0.025 0.158 0.006 z M -132.862 -54.894 l 0.025 0.013 0.025 -0.009 0.041 -0.036 0.072 0.007 0.052 0.012 0.032 0.015 -0.017 0.052 -0.013 0.084 -0.03 0.03 -0.029 0.042 -0.101 -0.025 -0.082 -0.054 -0.119 -0.092 -0.066 -0.067 -0.005 -0.028 -0.042 -0.02 -0.082 -0.115 -0.047 -0.091 -0.074 -0.01 -0.093 -0.025 -0.036 -0.05 0.025 -0.043 0.132 -0.022 0.199 0.112 0.03 0.048 0.071 0.056 0.014 0.078 0.036 0.03 z M -146.394 -60.45 l 0.022 0.027 0.192 -0.007 0.055 0.005 0.022 0.013 -0.026 0.019 -0.074 0.025 -0.217 0.043 -0.176 0.057 -0.023 -0.005 -0.032 -0.062 -0.033 -0.025 -0.02 -0.035 0 -0.013 0.032 -0.024 0.064 -0.035 0.046 -0.013 z M -147.736 -59.813 l -0.11 0.014 -0.026 -0.03 0.058 -0.074 0.046 -0.042 0.034 -0.01 0.127 -0.083 0.141 -0.06 0.129 -0.088 0.131 -0.126 0.024 -0.047 0.061 -0.005 0.1 0.031 0.062 0.043 -0.029 0.035 -0.332 0.179 -0.028 0.023 -0.03 0.061 -0.027 0.021 -0.044 0.01 -0.032 0.027 -0.02 0.044 -0.041 0.023 -0.062 0.002 -0.043 0.012 -0.024 0.022 z M -147.658 -60.45 l 0 0.026 -0.031 0.025 0.03 0.046 -0.052 0.08 -0.02 0.051 -0.028 0.032 -0.028 0.012 -0.028 -0.007 -0.006 -0.018 0.016 -0.028 -0.066 0.001 -0.02 -0.07 0.037 -0.022 0.013 -0.03 0.004 -0.02 0.043 -0.089 0.015 -0.006 0.005 0.021 0.014 0.006 0.023 -0.009 0.034 -0.039 0.014 -0.005 z M -147.931 -60.826 l -0.127 0.008 -0.058 -0.013 -0.008 -0.014 0.024 -0.05 -0.002 -0.021 0.064 -0.008 0.073 0.024 0.021 0.025 z M -153.007 -57.125 l -0.127 0.032 -0.023 -0.001 -0.079 0.065 -0.06 0.028 -0.079 -0.051 0.02 -0.08 0.069 -0.053 0.35 0.018 0.027 0.015 0.001 0.013 -0.026 0.01 z M -152.486 -58.485 l -0.029 0.006 -0.073 -0.031 -0.048 -0.032 0.032 -0.025 0.142 -0.052 0.068 -0.001 0.028 0.008 0.011 0.016 -0.005 0.024 -0.031 0.03 z M -153.241 -57.85 l -0.028 0.028 -0.026 -0.007 -0.056 -0.032 -0.114 -0.047 -0.052 -0.033 -0.003 -0.014 0.039 -0.015 0.134 0.038 0.057 0.035 z M -155.566 -55.821 l -0.039 0.032 -0.076 -0.002 -0.043 -0.01 -0.014 -0.028 0.117 -0.083 0.027 -0.011 0.021 0.003 0.009 0.034 z M -154.683 -56.436 l -0.068 0.024 -0.023 -0.008 -0.003 -0.02 0.016 -0.031 0.032 -0.031 0.106 -0.059 0.106 -0.039 0.054 0.002 0.019 0.025 -0.066 0.052 z M -154.209 -56.515 l -0.049 0.002 -0.074 -0.026 0.01 -0.032 0.105 -0.038 0.106 0.006 0.008 0.021 -0.005 0.024 -0.009 0.014 -0.034 0.014 z M -160.685 -55.315 l 0.015 0.001 0.031 -0.008 0.065 -0.056 0.021 -0.002 0 0.017 -0.031 0.056 0.052 0.074 0.049 0.036 -0.005 0.013 -0.122 0.026 -0.093 -0.019 -0.049 0.006 -0.044 0.026 -0.03 -0.029 -0.021 -0.137 0.007 -0.024 0.05 -0.048 0.065 -0.022 0.028 0.006 0.023 0.019 0.006 0.02 z M -162.298 -54.847 l -0.024 0.005 -0.069 -0.031 -0.025 -0.023 -0.018 -0.036 0.14 -0.051 0.029 -0.001 0.026 0.029 0.005 0.023 -0.039 0.065 z M -162.554 -54.401 l -0.087 0.022 -0.092 -0.023 -0.079 -0.042 -0.009 -0.05 0.175 0.032 0.037 0.015 z M -159.873 -55.129 l -0.061 0.022 -0.019 0.028 -0.046 0.012 -0.039 0.023 -0.131 0.103 -0.057 0.019 0.063 -0.088 0.01 -0.028 0.001 -0.019 -0.02 -0.066 0.038 0.003 0.032 -0.014 0.063 -0.059 0.057 -0.005 0.061 -0.07 0.033 -0.005 0.016 0.009 -0.027 0.042 0.059 0.039 -0.015 0.038 z M -165.842 -54.071 l -0.038 0.018 -0.03 0.004 -0.023 -0.01 -0.104 0.012 -0.02 -0.007 -0.046 -0.06 -0.003 -0.031 0.018 -0.024 0.046 -0.022 0.075 -0.02 0.074 0.004 0.128 0.055 0.06 0.032 0.011 0.02 -0.045 0.019 z M -165.561 -54.137 l -0.044 0.008 -0.011 -0.01 -0.005 -0.044 -0.034 -0.07 0.064 -0.025 0.04 -0.006 0.017 0.011 0.046 0.052 0.046 0.014 0.034 0.011 -0.06 0.016 z M -160.919 -58.577 l -0.073 0.016 -0.078 -0.008 -0.061 -0.099 0.047 -0.003 0.098 -0.065 0.218 -0.053 0.053 -0.006 z M -172.742 -60.457 l 0.216 0.066 0.139 -0.007 0.11 0.055 0.045 0.045 -0.165 -0.032 -0.239 0.002 -0.323 -0.134 -0.116 -0.03 0.026 -0.075 0.124 -0.039 0.064 0.101 z M -170.161 -57.184 l -0.103 0.047 -0.094 -0.017 -0.028 -0.034 -0.001 -0.014 0.27 -0.039 z M -169.692 -52.847 l -0.016 0.04 -0.015 0.015 -0.155 -0.021 -0.103 0.008 -0.011 -0.024 0.009 -0.021 0.162 -0.032 0.066 0 0.044 0.017 z M -170.733 -52.581 l -0.064 0.032 -0.019 -0.012 -0.011 -0.039 0.036 -0.031 0.109 -0.066 0.074 0.012 0.023 0.017 -0.002 0.025 -0.027 0.033 -0.035 0.017 -0.043 0 z M -172.465 -52.272 l -0.074 0.015 -0.081 -0.015 0.038 -0.053 0.039 -0.028 0.073 -0.034 0.087 0.015 0.069 0.043 z M -169.755 -56.635 l 0.131 0.02 0.073 -0.013 0.065 0.01 0.011 0.024 -0.113 0.052 -0.046 -0.003 -0.134 -0.062 z M -176.287 -51.792 l -0.063 0.059 -0.046 -0.027 -0.018 -0.081 0.035 -0.021 0.098 0.058 z M -176.022 -52.002 l -0.024 0.029 -0.098 -0.031 -0.035 -0.026 -0.007 -0.026 0.029 -0.043 0.078 -0.001 0.046 0.018 0.043 0.033 0.013 0.021 z M -177.148 -51.717 l -0.029 0.013 -0.053 0.01 -0.152 -0.011 -0.092 0.004 -0.103 0.007 -0.077 0.018 -0.015 -0.025 0.003 -0.02 0.333 -0.055 0.077 -0.029 0.048 -0.036 0.043 -0.068 0.035 -0.02 0.021 0.001 0.047 0.027 -0.017 0.035 -0.042 0.031 -0.014 0.029 z M 178.575 -51.916 l -0.064 0.017 -0.034 -0.043 -0.003 -0.025 0.034 -0.027 0.061 0.017 0.037 0.025 z M 179.452 -51.373 l -0.173 0 -0.352 -0.163 -0.179 -0.052 -0.099 -0.057 0.044 -0.012 0.216 0.04 0.176 0.088 0.097 0.058 0.113 0.049 0.121 0.02 z M 173.723 -52.36 l -0.065 0.003 -0.042 -0.035 -0.214 -0.014 0.022 -0.033 0.092 -0.014 0.141 -0.053 0.118 0.009 -0.031 0.048 z M -134.97 -57.351 l 0.085 0.11 0.062 0.085 0.055 0.102 0.092 0.212 0.043 0.08 0.013 0.044 0.01 0.115 -0.014 0.025 -0.027 0.023 -0.005 0.033 0.025 0.088 0.002 0.133 -0.024 0.075 -0.028 0.011 -0.068 -0.025 -0.056 -0.04 -0.042 -0.042 -0.102 -0.133 -0.03 -0.062 -0.002 -0.045 0.016 -0.033 0.033 -0.02 0.058 -0.054 -0.008 -0.009 -0.044 0.012 -0.09 0.007 -0.079 -0.043 -0.062 -0.023 0.012 -0.077 -0.017 -0.022 -0.122 0.024 -0.046 -0.022 -0.01 -0.029 0.002 -0.043 0.023 -0.038 0.116 -0.096 -0.012 -0.018 -0.056 -0.004 -0.074 -0.033 -0.034 -0.107 -0.08 -0.061 -0.047 0.006 -0.107 0.172 -0.053 0.038 -0.15 0.024 0.031 -0.048 0.014 -0.043 -0.053 -0.13 -0.002 -0.05 0.036 -0.037 0.106 -0.015 0.056 -0.022 0.044 -0.036 0.011 -0.035 0.082 -0.092 0.039 -0.018 0.102 0.001 0.216 0.101 0.065 0.015 z M -134.68 -58.162 l 0.254 0.023 0.186 -0.005 0.17 0.149 0.105 0.121 0.061 0.085 0.035 0.082 0.047 0.079 -0.004 0.011 -0.098 -0.053 -0.071 -0.108 -0.036 -0.042 -0.036 -0.019 -0.037 -0.04 -0.073 -0.103 -0.003 -0.029 -0.032 -0.027 -0.037 -0.011 -0.042 0.004 -0.015 0.01 0.006 0.071 0.033 0.079 0.183 0.172 0.123 0.098 0.024 0.033 0.016 0.09 -0.053 0.041 0.065 0.083 -0.002 0.016 -0.014 0.016 -0.175 0.037 -0.16 0.153 -0.175 0.09 -0.081 0.014 -0.039 -0.015 -0.037 -0.034 -0.022 -0.046 -0.006 -0.058 0.044 -0.036 0.087 -0.188 0.002 -0.062 -0.108 -0.086 -0.065 -0.07 -0.035 -0.098 -0.059 -0.259 -0.027 -0.083 -0.039 -0.069 -0.05 -0.055 -0.038 -0.061 -0.025 -0.066 0.01 -0.026 0.087 0.034 0.104 0.095 z M -135.73 -58.244 l 0.143 0.097 0.001 0.022 -0.029 0.067 -0.078 0.019 0.022 0.027 0.058 0.02 0.041 -0.017 0.151 -0.094 0.046 -0.02 0.028 -0.002 0.184 0.028 0.161 0.045 0.047 0.036 0.027 0.063 -0.043 0.136 -0.132 0.024 -0.062 -0.002 -0.066 -0.02 -0.107 0.047 0.089 0.036 0.271 0.008 0.082 0.076 0.024 0.059 -0.058 0.108 -0.153 -0.03 -0.135 -0.063 -0.278 -0.089 -0.066 -0.004 -0.044 0.016 -0.012 0.054 0.003 0.117 -0.074 0.06 -0.219 -0.027 -0.086 -0.088 -0.08 -0.14 -0.302 -0.165 -0.082 -0.033 -0.109 -0.099 0.044 -0.078 0.013 -0.045 0.058 -0.012 0.085 -0.035 0.048 -0.076 0.076 0.061 0.102 0.059 0.001 -0.055 0.048 -0.044 0.1 0.002 0.047 -0.009 0.066 -0.041 0.095 -0.021 z M -133.566 -56.339 l 0.19 0.021 0.174 -0.002 0.059 0.041 0.039 0.043 0.023 0.041 0.006 0.038 -0.005 0.027 -0.021 0.029 0.005 0.01 0.339 0.095 0.16 0.1 0.064 0.053 0.037 0.044 0.067 0.111 0.141 0.129 0.074 0.039 0.042 0.038 -0.024 0.001 -0.1 -0.028 -0.215 -0.086 -0.018 0.003 -0.019 0.047 -0.033 0.041 -0.05 0.029 0.04 0.009 0.174 -0.019 0.146 0.084 0.057 0.015 0.055 0.061 0.002 0.023 -0.032 0.045 -0.024 0.018 0.008 0.012 0.041 0.006 0.161 -0.013 0.029 0.022 -0.024 0.175 0.023 0.064 0 0.029 -0.019 0.039 -0.001 0.033 0.015 0.034 0.002 0.03 -0.041 0.079 -0.043 0.013 -0.07 0.001 -0.055 -0.022 -0.077 -0.067 -0.075 -0.105 -0.029 -0.015 -0.098 -0.016 -0.018 -0.012 -0.063 -0.002 -0.044 -0.043 0.005 -0.057 -0.038 -0.058 0.005 -0.026 -0.043 -0.011 -0.036 0.016 0.019 0.057 -0.021 0.044 -0.078 -0.018 -0.13 -0.14 -0.148 -0.112 -0.058 -0.027 0.016 -0.033 0.073 -0.017 0.059 0.001 0.012 -0.019 -0.124 -0.109 0.004 -0.031 0.045 -0.055 -0.056 -0.023 -0.154 0.017 -0.054 -0.011 -0.045 -0.044 -0.026 -0.038 -0.134 -0.007 -0.051 0.005 -0.087 -0.058 -0.04 -0.036 0.016 -0.019 0.08 -0.033 0.047 0.005 0.09 0.035 0.035 -0.001 0.09 -0.046 0.014 -0.042 0.067 -0.034 -0.011 -0.036 -0.037 -0.062 -0.082 -0.017 -0.167 0.037 -0.146 0.056 -0.058 -0.022 -0.013 -0.035 0.156 -0.094 0.068 -0.052 -0.013 -0.031 -0.05 -0.04 -0.004 -0.1 z M -133.99 -56.845 l 0.065 0.069 0.094 -0.006 0.053 0.052 0.04 0.078 -0.029 0.05 -0.042 -0.011 -0.046 0.029 -0.028 0.097 0.013 0.097 -0.014 0.097 -0.054 0.098 -0.011 0.066 -0.021 0.02 -0.023 0.007 -0.03 -0.018 -0.043 -0.014 -0.055 0.056 -0.067 0 -0.055 -0.126 0.05 -0.21 0.111 -0.043 -0.066 -0.057 -0.14 -0.067 0.012 -0.037 -0.106 -0.107 -0.006 -0.025 0.017 -0.089 0.099 -0.079 0.131 -0.014 0.091 0.034 0.051 0.029 z M -152.417 -58.36 l 0.036 0.008 0.038 -0.06 0.027 -0.002 0.118 0.05 0.073 -0.011 0.047 0.062 0.042 0.006 0.039 -0.008 0.023 0.004 -0.008 0.066 -0.086 0.066 -0.04 0.017 -0.056 -0.017 -0.021 -0.006 -0.037 -0.029 -0.028 -0.037 -0.017 -0.001 -0.066 0.044 0.002 0.022 0.027 0.032 -0.004 0.02 -0.072 0.01 -0.07 -0.005 -0.086 0.028 -0.021 -0.018 -0.013 -0.05 -0.027 0.006 -0.041 0.061 -0.044 0.038 -0.081 0.032 -0.018 0.015 -0.059 0.002 -0.088 0.02 -0.054 -0.003 -0.323 -0.066 -0.076 -0.024 0.266 -0.151 0.14 -0.058 0.081 0.003 0.081 0.018 0.043 -0.003 0.003 -0.067 -0.075 -0.05 0.003 -0.021 0.166 -0.034 0.062 0.005 0.069 0.018 0.065 0.028 z M -167.964 -53.345 l -0.306 0.107 -0.099 0.078 -0.076 0.075 -0.06 0.041 -0.043 0.007 -0.048 0.02 -0.101 0.053 -0.042 0.007 -0.325 0.123 -0.023 0.002 0.016 -0.032 0.099 -0.046 0.065 -0.042 0.073 -0.069 0.04 -0.025 0.013 -0.034 0.005 -0.069 0.018 -0.026 0.07 -0.052 0.051 -0.029 0.067 -0.01 0.136 0.009 0.056 -0.027 0.017 -0.02 -0.034 -0.018 -0.008 -0.032 0.009 -0.055 0.039 -0.049 0.07 -0.043 0.095 -0.033 0.12 -0.024 0.088 -0.001 0.158 0.05 0.023 0.023 -0.038 0.05 -0.022 0.047 z M -166.615 -53.901 l 0.043 0.047 0.075 -0.03 0.055 -0.041 0.043 -0.053 0.028 -0.021 0.037 0.028 0.105 0.038 -0.088 0.059 -0.17 0.088 -0.057 0.059 -0.004 0.025 0.165 -0.02 0.046 0.003 0.029 0.02 -0.045 0.024 -0.09 0.022 -0.078 0.042 -0.18 0.073 -0.068 0.061 -0.081 0.023 -0.11 0.006 -0.193 0.04 -0.117 0.037 -0.03 0.02 -0.037 0.01 -0.044 -0.001 -0.048 0.016 -0.051 0.034 -0.043 0.016 -0.07 0.004 -0.036 0.013 -0.041 -0.001 -0.111 -0.04 -0.028 -0.024 0.099 -0.047 0.071 -0.016 0.109 -0.007 0.107 -0.044 0.219 -0.058 0.068 -0.031 0.044 -0.109 0.05 -0.019 0.027 -0.044 0.122 0.001 0.056 0.049 0.02 0.007 0.01 -0.005 0.005 -0.039 0.062 -0.028 -0.036 -0.02 -0.112 -0.025 -0.083 -0.012 -0.054 0.001 -0.044 -0.014 -0.034 -0.03 -0.016 -0.03 0.003 -0.029 0.028 -0.033 0.052 -0.037 0.06 -0.021 0.129 -0.015 0.115 -0.024 0.061 -0.004 0.046 0.01 z M -173.553 -52.136 l 0.196 0.041 0.244 -0.005 0.089 0.01 0.001 0.011 -0.156 0.017 -0.053 -0.005 -0.136 0.022 -0.093 0.004 -0.212 -0.021 -0.163 0.014 -0.043 -0.005 -0.051 -0.019 -0.059 -0.031 -0.003 -0.02 0.054 -0.008 0.145 0.027 0.015 -0.014 0.122 -0.025 z M -174.677 -52.035 l -0.536 0.041 -0.082 -0.028 0.081 -0.016 0.096 -0.009 0.202 -0.047 0.248 -0.041 0.194 -0.049 0.168 -0.032 0.047 -0.053 -0.148 -0.027 -0.029 -0.021 0.07 -0.025 0.059 -0.036 0.138 -0.042 0.123 0.053 0.027 0.035 -0.012 0.042 -0.025 0.044 -0.108 0.023 -0.016 0.023 0.059 0.065 -0.223 0.057 z M -176.593 -51.867 l 0.005 0.033 0.115 -0.004 0.036 0.017 0 0.066 -0.015 0.019 -0.017 0.005 -0.041 -0.014 -0.047 0.034 -0.213 0.082 -0.066 -0.046 -0.125 0.072 0.087 -0.187 0.101 -0.028 0.037 -0.021 -0.009 -0.055 0.047 -0.091 0.102 0.004 0.047 0.038 -0.002 0.024 z M -177.879 -51.65 l -0.022 0.033 -0.024 -0.001 -0.134 -0.055 -0.02 -0.019 0.078 -0.026 0.023 -0.02 -0.009 -0.026 -0.059 -0.037 -0.108 -0.047 -0.041 -0.034 0.026 -0.021 0.052 -0.013 0.163 -0.003 0.088 0.058 0.066 0.02 0.155 0.014 -0.08 0.025 -0.046 0.024 -0.056 0.092 z M 179.728 -51.905 l -0.083 0.025 -0.096 -0.014 -0.052 -0.039 0.006 -0.047 0.123 -0.051 0.153 0.064 z M 177.415 -51.883 l -0.087 0.042 -0.068 -0.043 -0.01 -0.019 0.13 -0.073 0.098 -0.016 0.042 -0.027 0.043 -0.092 0.073 -0.003 0.033 0.011 -0.017 0.043 -0.057 0.066 -0.002 0.046 z M 172.812 -53.013 l 0.172 0.033 0.118 -0.015 0.15 0.053 0.184 0.091 -0.041 0.017 -0.046 0.01 -0.046 -0.001 -0.144 0.015 -0.078 -0.004 -0.145 0.062 -0.16 -0.045 -0.054 -0.089 -0.127 -0.022 -0.1 -0.03 0.183 -0.07 z M -155.581 -19.012 l -0.044 0.048 -0.055 -0.004 -0.201 -0.103 -0.024 -0.055 0.015 -0.257 -0.075 -0.208 -0.083 -0.159 0.06 -0.082 0.08 -0.063 0.089 -0.119 -0.072 -0.153 0.019 -0.092 0.043 -0.016 0.21 0.112 0.423 0.169 0.113 0.119 0.02 0.127 0.077 0.016 0.036 0.087 0.111 0.076 0.037 0.044 -0.046 0.07 -0.203 0.135 -0.256 0.059 -0.226 0.151 z M -157.214 -21.215 l 0.211 0.027 0.05 -0.012 0.035 0.022 0.175 0.014 0.03 0.008 -0.036 0.052 -0.112 0.047 -0.161 -0.041 -0.269 -0.015 0.011 -0.04 0.026 -0.028 0.004 -0.049 z M -156.487 -20.933 l 0.026 0.018 0.106 -0.027 0.077 -0.01 0.129 0.066 0.045 0.045 0.085 0.048 0.029 0.035 -0.024 0.042 -0.094 0.07 -0.128 0.016 -0.075 0.03 -0.099 -0.006 -0.029 -0.013 -0.011 -0.088 -0.031 -0.095 -0.064 0.011 -0.072 -0.032 -0.074 -0.08 -0.008 -0.048 0.041 -0.075 0.071 -0.01 0.053 0.042 z M -157.799 -21.457 l 0.034 0.006 0.044 -0.007 0.015 0.08 0.051 0.044 0.019 0.026 -0.055 0.028 -0.108 0.011 -0.051 -0.022 -0.052 -0.05 -0.057 0.014 -0.01 -0.04 -0.01 -0.012 -0.039 0.011 0.036 0.052 -0.098 0.004 -0.031 -0.006 -0.027 -0.059 -0.101 -0.112 0 -0.044 -0.034 -0.052 0.15 -0.015 0.103 -0.092 0.058 -0.01 0.111 0.148 -0.003 0.041 0.025 0.04 z M -159.373 -21.932 l -0.088 0.056 -0.051 -0.024 -0.097 -0.009 -0.038 -0.042 -0.102 -0.038 -0.041 -0.052 0.063 -0.098 0.147 -0.083 0.227 0.004 0.047 0.066 0.004 0.049 -0.029 0.055 -0.014 0.077 z M -160.18 -21.841 l -0.02 0.044 -0.034 -0.007 -0.009 -0.039 0.023 -0.054 0.057 -0.047 0.063 -0.071 0.052 0.011 -0.028 0.047 -0.003 0.051 -0.073 0.029 z M -156.85 -20.773 l -0.059 0.028 -0.065 -0.013 -0.015 -0.068 -0.062 -0.087 0.109 -0.018 0.061 0.025 0.032 0.027 0.039 0.047 z M -74.709 -45.004 l 0.046 0 0.233 0 0.416 0 0.416 0 0.416 0 0.416 0 0.416 0 0.416 0 0.416 0 0.098 -0.193 0.092 -0.09 0.126 0.03 0.067 -0.002 0.074 -0.046 0.06 -0.028 0.04 0.004 0.034 0.042 0.028 0.028 0.033 -0.008 0.028 -0.04 -0.001 -0.055 0.039 -0.039 0.046 -0.006 0.042 0.001 0.021 -0.019 -0.002 -0.027 -0.015 -0.044 0.005 -0.052 0.106 -0.093 0.13 -0.063 0.046 -0.031 0.013 -0.064 0.074 -0.066 0.037 -0.038 0.009 -0.033 -0.019 -0.041 0.002 -0.078 0.026 -0.093 0.031 -0.101 0.069 -0.091 0.113 -0.099 0.029 -0.13 0.031 -0.138 0.136 -0.134 0.154 -0.152 0.088 -0.086 0.158 -0.157 0.113 -0.112 0.057 -0.051 0.059 -0.061 0.097 0.018 0.096 0.018 -0.014 0.088 0.016 0.065 0.045 0.037 0.066 0.025 0.05 0.008 0.059 0 0.16 -0.05 0.188 -0.032 0.103 -0.03 0.019 -0.028 0.047 -0.01 0.075 0.009 0.139 0.071 0.162 0.107 0.128 0.085 0.004 0.147 0.002 0.156 0.003 0.164 0.002 0.117 0.003 0.161 0.003 0.128 0.003 0.167 0.002 0.089 0.018 0.026 -0.011 0.035 -0.005 0.018 0.001 0.014 0.007 0.018 -0.001 0.025 -0.016 0.022 -0.008 0.026 -0.001 0.014 -0.062 0.016 0.084 0.069 0.153 0.068 0.113 0.013 0.063 -0.018 0 -0.001 0.017 0.005 0.019 0.038 -0.011 0.035 -0.031 0.016 -0.033 0.013 -0.006 0.027 0.016 0.028 0.023 0.025 0.026 0.043 -0.011 0.038 -0.023 0.032 -0.011 0.033 0.02 0.028 0.053 0.038 0.033 0.036 0.052 0.02 0.025 -0.014 0.02 -0.019 0.021 -0.014 0.036 0.008 0.042 0.011 0.046 0.013 -0.006 0.03 0.028 0.051 0.022 0.099 -0.033 0.045 0.007 0.059 0.093 0.017 0.023 0.018 0.004 0.022 -0.204 0.152 -0.173 -0.021 -0.094 0.04 -0.098 0.012 -0.043 0.068 -0.054 0.014 -0.074 -0.004 -0.064 -0.019 -0.049 0.009 -0.068 0.123 -0.056 -0.011 -0.022 0.044 -0.029 0.019 -0.043 0.017 -0.037 -0.054 -0.024 -0.052 -0.035 -0.011 -0.046 -0.013 -0.048 0 -0.032 0.007 -0.039 0.033 -0.057 0.029 -0.043 -0.024 -0.034 -0.039 -0.029 0.062 -0.042 0.065 0.007 0.076 -0.018 0.045 -0.04 -0.012 -0.04 -0.04 -0.111 -0.032 -0.089 0.003 0.018 -0.042 0.084 -0.061 -0.026 -0.012 -0.041 0.008 -0.018 -0.008 0.029 -0.055 0.003 -0.061 -0.037 0.021 -0.047 0.064 -0.114 0.051 0.005 0.086 -0.107 0.176 -0.005 0.075 -0.069 0.06 -0.089 0.051 -0.118 -0.014 -0.09 0.045 -0.046 0.051 -0.04 0.008 -0.021 -0.065 -0.015 -0.02 -0.033 0.096 -0.034 0.006 -0.013 -0.068 -0.016 -0.045 -0.046 0.039 -0.031 0.103 -0.032 -0.009 -0.01 -0.038 -0.023 -0.012 -0.008 0.044 0.012 0.062 -0.017 0.033 -0.032 -0.018 -0.032 -0.03 -0.053 0.023 -0.049 0.009 0 -0.03 0.009 -0.037 -0.097 0.02 -0.116 0.068 -0.09 0.094 0.031 0.016 0.035 0.03 -0.157 0.146 -0.161 0.131 -0.122 0.214 -0.049 0.025 -0.042 0.039 -0.045 0.129 -0.051 0.115 0.029 0.051 0.019 0.053 0.046 0.052 0.039 0.005 0.042 -0.009 0.031 0.002 0.02 0.022 -0.009 0.026 -0.048 0.007 -0.09 0.046 -0.079 0.018 -0.04 0.056 -0.06 0.065 -0.116 0.101 0.049 0.031 0.179 0.035 0.08 0.036 0.121 0.188 -0.028 0.019 -0.011 0.035 0.107 0.048 0.034 0.135 0.088 0.046 0.131 0.028 0.16 -0.041 0.134 -0.056 -0.005 -0.046 -0.084 -0.107 -0.02 -0.05 -0.062 -0.033 -0.024 0.028 -0.04 -0.036 -0.005 -0.02 0.038 -0.01 0.044 0.004 0.051 0.019 0.131 0.117 0.036 0.153 0.008 0.097 -0.015 0.033 -0.038 -0.007 -0.073 0.007 -0.345 0.05 -0.077 0.044 -0.176 0.048 -0.011 -0.024 0.013 -0.05 -0.011 -0.102 -0.035 -0.005 -0.273 0.166 -0.106 0.01 -0.089 0.049 -0.02 -0.027 -0.016 -0.125 0.056 -0.105 -0.03 0.002 -0.093 0.063 -0.04 -0.039 -0.02 -0.042 -0.029 -0.024 -0.031 -0.009 0.026 0.093 -0.063 0.069 -0.017 0.18 -0.079 0.075 -0.246 0.048 -0.161 -0.01 -0.144 0.015 -0.191 0.034 -0.106 -0.021 -0.108 0.036 -0.368 0.01 -0.078 -0.019 -0.099 0.069 -0.159 0.041 -0.401 0.154 -0.088 0.056 -0.108 0.087 -0.072 0.047 -0.059 0.015 -0.037 0.039 -0.04 0.026 0.039 -0.087 0.042 -0.074 0.035 -0.143 -0.01 -0.115 -0.043 -0.047 -0.045 -0.032 0.052 0.114 0.008 0.14 -0.018 0.082 -0.098 0.158 -0.042 0.037 -0.049 0.032 -0.037 0.014 -0.034 0.025 -0.04 0.04 -0.037 0.079 0.023 0.072 0.192 0.026 0.051 -0.022 0.026 0.052 0.015 0.072 -0.014 0.078 -0.032 0.079 -0.024 0.098 -0.021 0.15 -0.031 0.135 -0.004 -0.041 0.019 -0.164 -0.031 0.017 -0.022 0.038 -0.058 0.212 -0.08 0.113 -0.074 0.078 -0.076 -0.013 0.017 0.062 -0.021 0.032 -0.018 0.067 -0.046 0.045 -0.043 -0.004 -0.062 0.031 -0.024 0.024 -0.002 0.045 -0.041 0.04 -0.149 0.206 -0.129 0.061 -0.031 -0.009 0.034 -0.097 0.023 -0.098 -0.078 -0.043 -0.075 -0.023 -0.086 0.003 -0.095 -0.076 -0.122 -0.056 -0.171 -0.15 0.005 -0.042 -0.004 -0.07 0.052 -0.111 0.05 -0.077 0.069 -0.04 0.199 -0.041 0.05 -0.061 0.03 -0.052 -0.099 0.089 -0.148 0.03 -0.08 0.033 -0.064 0.051 -0.038 0.064 -0.085 0.077 0.006 0.051 0.014 0.036 -0.007 0.076 0.054 0.074 0.107 0.121 0.02 0.189 0.082 0.126 0.125 0.147 0.096 0.042 0.005 0.055 -0.044 0.09 -0.059 0.041 0.076 -0.008 0.038 0.021 0.037 0.075 -0.003 0.077 -0.013 0.043 -0.023 0.017 0.001 -0.044 -0.016 -0.015 -0.027 0.019 -0.017 0.022 -0.007 0.086 -0.019 0.043 -0.065 0.013 -0.066 0.113 -0.062 0.064 -0.243 0.434 0.009 0.073 -0.044 0.023 -0.067 0.019 -0.068 0.043 -0.045 0.048 -0.042 0.129 -0.08 0.145 -0.05 -0.06 -0.013 -0.052 0.022 -0.135 0.087 -0.221 0.096 -0.137 0.073 -0.065 0.06 -0.133 -0.076 -0.02 -0.116 0.002 0.022 -0.061 0.034 -0.054 -0.06 -0.054 -0.036 -0.007 -0.037 -0.022 0.043 -0.045 0.021 -0.047 -0.013 -0.058 0.018 -0.043 -0.03 0.007 -0.048 0.046 -0.03 0.018 -0.018 -0.041 -0.021 0.009 -0.014 0.028 -0.031 0.015 -0.065 -0.038 -0.095 -0.044 -0.053 -0.075 -0.03 -0.058 0.031 -0.105 0.066 -0.019 0.085 0.017 0.112 0 -0.016 -0.023 -0.04 0.004 -0.118 -0.085 -0.038 -0.052 -0.065 -0.014 -0.03 0.05 -0.033 0.013 0.041 -0.109 0.053 -0.004 0.079 -0.03 -0.023 -0.063 -0.05 -0.027 -0.09 0.034 0.001 -0.044 0.017 -0.057 0.068 0 0.059 0.018 0.05 -0.091 0.002 -0.041 -0.084 0.059 -0.019 -0.128 0.083 -0.123 0.079 -0.054 0.098 0.002 0.1 -0.009 -0.063 -0.023 -0.064 -0.012 0.048 -0.049 0.041 -0.009 0.041 -0.043 -0.097 0.006 0.011 -0.08 -0.047 0.016 -0.057 0.008 -0.022 0.034 0.004 0.057 -0.017 0.037 -0.044 0.03 -0.074 0.023 -0.007 -0.04 -0.025 -0.018 -0.009 0.086 -0.02 0.029 -0.054 -0.081 -0.016 0.016 0.002 0.023 -0.014 0.04 -0.047 0.021 0.003 0.051 -0.018 0.028 -0.15 -0.044 -0.004 0.015 0.085 0.096 0.062 0.033 0.008 0.052 -0.053 0.043 -0.073 -0.037 -0.012 0.003 0.04 0.064 0.025 0.056 -0.026 0.047 0.004 0.058 -0.006 0.052 -0.016 0.046 0.036 0.21 0.043 0.057 0.042 0.055 0.022 0.051 -0.045 0.007 -0.071 -0.042 -0.063 -0.032 -0.074 -0.103 -0.012 -0.041 -0.018 -0.032 0.009 0.074 0.027 0.083 0.233 0.186 0.043 0.071 0.033 0.056 -0.008 0.054 -0.061 -0.038 -0.052 -0.048 -0.139 -0.055 -0.176 -0.035 -0.099 -0.127 0 0.053 -0.022 0.045 -0.06 -0.055 -0.038 -0.047 -0.013 -0.051 -0.076 0.004 -0.079 0.045 -0.077 -0.011 -0.009 -0.087 0.021 -0.046 0.086 -0.109 0.081 -0.056 0.036 -0.072 -0.012 -0.112 -0.015 0.113 -0.046 0.056 -0.073 0.043 -0.096 0.077 -0.023 0.071 -0.03 0.133 0.04 0.045 0.041 0.012 0.122 -0.03 0.063 0.013 0.14 0.16 0.261 0.063 0.095 0.039 0.078 0.083 0.117 0.048 0.091 0.07 0.002 0.045 -0.031 0.054 -0.012 0.073 -0.039 0.046 -0.092 0.005 -0.056 -0.012 -0.3 -0.256 -0.036 -0.024 -0.111 -0.134 -0.131 -0.072 -0.04 0.002 0.186 0.133 0.076 0.093 0.134 0.13 0.096 0.055 0.07 0.086 0.065 0.04 0.179 0.057 -0.062 0.041 0.099 0.035 0.014 0.065 -0.009 0.074 -0.138 -0.029 -0.004 0.054 0.012 0.032 -0.061 0.026 -0.084 -0.036 -0.219 -0.196 0.002 0.026 0.018 0.03 0.127 0.126 0.114 0.076 0.096 0.034 0.074 0.063 0.026 0.038 0.017 0.058 -0.055 0.04 -0.063 0.022 -0.061 -0.039 -0.045 -0.042 -0.095 -0.071 -0.029 -0.079 -0.073 0.004 -0.303 -0.1 -0.244 -0.012 0.024 0.02 0.031 0.013 0.194 0.025 0.077 0.046 0.16 0.041 0.094 0.011 0.038 0.126 0.129 0.086 0.017 0.064 0.088 0.007 0.155 -0.063 0.1 0.022 0.145 0.018 0.033 0.051 0.025 0.096 0.051 0.108 0.133 0.428 0.199 0.35 0.025 0.06 -0.046 -0.053 -0.148 -0.232 -0.082 -0.167 -0.084 -0.295 -0.024 -0.066 -0.029 -0.026 -0.019 0.021 -0.008 0.038 0.014 0.029 -0.033 0.097 0.014 0.045 0.054 0.046 0.058 0.115 0.047 0.155 -0.063 -0.063 -0.067 -0.033 -0.105 -0.026 -0.093 -0.045 0.007 0.064 -0.009 0.069 -0.072 -0.021 -0.049 -0.023 0.043 0.074 -0.094 -0.022 -0.063 0.005 -0.041 0.066 -0.054 0.04 -0.081 0.013 -0.12 -0.06 -0.039 -0.073 -0.016 -0.081 -0.006 0.096 0.021 0.1 -0.007 0.076 0.115 0.014 0.108 -0.012 0.145 0.003 0.095 -0.014 0.057 -0.024 0.137 0.021 0.01 0.092 -0.016 0.091 -0.008 0.097 0.038 -0.001 0.045 -0.031 0.022 -0.174 0.125 -0.064 0.042 0.004 0.04 0.056 0.013 0.057 0.014 0.078 -0.029 0.119 -0.192 0.139 -0.138 0.128 -0.07 0.026 -0.101 -0.015 -0.115 -0.032 -0.056 -0.006 -0.043 0.011 -0.026 -0.039 -0.017 -0.072 -0.045 -0.024 -0.034 0.003 -0.023 0.076 -0.107 0.022 -0.146 -0.032 -0.153 -0.064 0.066 0.069 0.379 0.129 0.043 0.024 0.04 0.035 -0.053 0.055 -0.042 0.062 -0.006 0.049 -0.015 0.031 -0.151 0.083 -0.082 -0.015 -0.209 -0.15 0.095 0.129 0.076 0.055 0.154 0.029 0.288 -0.048 0.095 0.053 -0.078 0.094 -0.077 0.066 -0.101 0.007 -0.089 0.018 -0.026 0.045 -0.063 0.003 -0.099 0.003 -0.154 0.004 -0.084 -0.011 -0.118 0.092 -0.044 0.013 -0.062 -0.017 -0.026 -0.074 -0.028 -0.036 -0.001 0.139 0.011 0.037 0.022 0.028 -0.138 0.075 -0.132 0.094 -0.047 0.026 -0.054 0.047 -0.11 0.136 -0.027 0.099 -0.04 0.11 -0.005 -0.05 0.007 -0.084 -0.027 -0.096 -0.017 0.176 -0.043 0.082 -0.393 -0.006 -0.172 0.044 -0.264 0.149 -0.079 0.065 -0.218 0.253 -0.056 0.162 -0.045 -0.068 0.011 -0.051 0.001 -0.042 -0.055 0.089 0.052 0.13 -0.047 0.05 -0.144 0.093 -0.079 0.015 -0.088 0.026 -0.028 0.092 -0.12 0.084 -0.07 0.037 -0.128 -0.023 0.039 0.081 -0.047 0.062 -0.081 0.047 -0.101 0.031 -0.058 -0.004 -0.049 0.016 -0.039 0.039 -0.094 0.037 -0.098 -0.021 -0.111 -0.012 -0.062 0.022 0.104 0.036 0.056 0.053 -0.011 0.071 -0.028 0.027 -0.066 0.037 -0.029 -0.006 -0.018 -0.033 -0.021 -0.07 -0.031 0.015 -0.005 0.032 -0.026 0.012 -0.093 -0.111 0.005 0.085 0.033 0.065 0.031 0.033 0.032 0.019 0.008 0.03 -0.064 0.074 -0.033 0.016 -0.058 0.012 -0.033 0.045 0.01 0.039 -0.051 0.085 -0.122 0.053 -0.037 -0.002 -0.03 0.015 0.018 0.038 0.03 0.027 -0.001 0.025 -0.032 0.035 -0.064 0.01 -0.036 0.04 0.011 0.037 0.021 0.021 -0.004 0.036 -0.072 0.036 -0.017 0.035 0.036 0.01 0.028 -0.01 0.02 0.008 -0.043 0.059 -0.039 0.036 -0.037 0.065 -0.086 0.018 0.003 0.021 0.049 0.019 0.041 0.05 -0.076 0.092 -0.048 -0.008 -0.029 -0.02 -0.019 0.073 0.007 0.039 -0.018 0.079 -0.029 0.095 -0.02 0.039 0.004 0.073 0.012 0.07 0.047 0.091 0.071 0.371 0.049 0.129 0.088 0.347 0.145 0.337 0.205 0.407 0.336 0.493 0.04 0.07 -0.044 0.06 -0.013 0.062 -0.004 0.093 0.012 0.091 0.04 0.111 0.076 0.169 -0.043 -0.034 -0.11 -0.243 -0.013 -0.143 0.016 -0.203 -0.026 0.005 -0.021 0.066 -0.012 0.077 -0.028 0.03 -0.038 -0.118 0.003 -0.053 0.041 -0.062 -0.012 -0.022 -0.066 -0.032 -0.014 -0.05 0.009 -0.05 -0.038 -0.026 -0.029 0.001 0.02 0.122 0.031 0.075 0.039 0.18 0.062 0.109 0.036 0.091 0.424 0.974 0.1 0.124 0.037 0.089 0.039 0.186 0.009 0.239 -0.069 0.437 -0.016 0.298 -0.01 -0.009 -0.007 -0.031 -0.016 -0.004 -0.06 0.137 -0.082 0.123 -0.027 0.191 -0.039 0.096 -0.118 0.101 -0.073 -0.003 -0.179 0.076 -0.126 -0.02 -0.15 0.043 -0.099 -0.005 -0.057 -0.09 0.009 -0.04 0.023 -0.041 0.038 -0.009 0.132 0.095 0.025 -0.04 -0.04 -0.047 -0.076 -0.026 -0.056 -0.029 -0.114 -0.216 -0.118 -0.148 -0.02 -0.099 -0.203 -0.06 -0.147 -0.092 -0.096 -0.163 -0.055 -0.289 -0.065 -0.032 -0.027 -0.022 0.063 -0.107 0.067 -0.09 -0.053 0.022 -0.039 0.033 -0.05 0.079 -0.036 0.012 -0.033 -0.012 -0.038 -0.152 0.011 -0.187 0.054 -0.07 -0.082 -0.002 -0.085 0.027 0.013 0.062 -0.012 0.034 -0.062 -0.009 -0.047 -0.022 -0.064 -0.065 -0.087 -0.124 -0.179 -0.341 -0.035 -0.048 -0.059 -0.05 0.028 -0.016 0.051 -0.009 0.115 -0.154 0.09 -0.093 0.03 -0.064 -0.005 -0.027 -0.04 -0.04 -0.052 0.035 -0.022 -0.01 -0.059 -0.081 -0.056 -0.023 -0.039 0.017 0.041 0.066 0.037 0.025 -0.014 0.096 -0.015 0.031 -0.035 0.028 -0.054 -0.015 -0.028 0.024 -0.032 -0.025 -0.032 -0.042 -0.036 -0.069 0.095 -0.391 0.088 -0.249 0.01 -0.284 0.007 -0.042 -0.007 -0.075 -0.118 -0.164 -0.521 -0.4 -0.404 -0.474 -0.35 -0.178 -0.265 0.039 -0.046 0.036 -0.02 0.047 0.017 0.053 -0.024 0.022 -0.071 -0.003 -0.096 0.012 -0.251 0.125 -0.088 -0.005 -0.08 0.032 -0.06 0.024 -0.157 0.013 -0.133 0.028 -0.057 -0.015 -0.037 -0.072 0 -0.075 0.03 0.057 0.047 0.045 0.022 -0.018 0.008 -0.04 -0.047 -0.078 -0.151 -0.1 -0.171 -0.146 0.052 0.005 0.013 -0.031 -0.053 -0.041 0.022 -0.047 0.037 -0.05 -0.072 0.007 -0.065 0.035 -0.002 0.043 -0.013 0.034 -0.035 -0.005 -0.065 -0.042 -0.319 -0.118 -0.279 -0.067 0.214 -0.03 0.116 0.023 -0.014 -0.036 -0.028 -0.023 -0.092 -0.029 -0.117 0.011 -0.074 -0.014 -0.075 0.029 -0.083 0.042 -0.074 0.022 -0.288 0.031 -0.234 0.033 0.037 -0.035 0.04 -0.022 0.138 -0.034 0.021 -0.071 -0.032 -0.068 -0.036 0.016 -0.038 0.053 -0.047 -0.039 -0.052 0 -0.014 0.085 -0.066 0.057 -0.03 0.057 -0.195 0.045 -0.025 -0.015 0.057 -0.055 -0.005 -0.03 -0.065 0.026 -0.109 0.103 -0.384 0.034 0.021 -0.023 0.081 -0.005 0.114 -0.033 -0.023 -0.055 -0.044 -0.061 -0.04 -0.007 -0.027 -0.035 0.001 -0.112 -0.026 -0.065 -0.062 -0.067 -0.021 0.013 -0.046 0.115 -0.038 0.151 -0.019 0.049 -0.114 0.003 -0.101 -0.01 -0.342 0.018 -0.128 -0.051 -0.053 -0.01 -0.032 0.001 -0.149 0.047 -0.17 0.036 -0.04 -0.011 -0.057 -0.002 -0.123 0.122 -0.145 0.057 -0.366 -0.103 -0.091 -0.083 -0.081 -0.018 -0.099 -0.01 -0.107 0.102 -0.081 0.137 0.128 0.075 0.11 0.036 0.181 -0.03 0.1 -0.067 0.082 0.002 0.039 -0.014 0.036 -0.035 0.07 0.027 0.002 0.027 -0.05 0.039 -0.063 0.033 -0.038 0.038 0.071 0.077 0.112 0.026 0.042 -0.011 0.026 -0.087 0.069 -0.056 0.094 0.012 -0.013 0.035 0.013 0.033 0.043 0.057 -0.005 0.081 0.008 0.02 -0.101 0.036 -0.075 0.012 -0.06 0.047 0.032 0.027 -0.061 0.024 -0.041 -0.01 -0.021 0.009 -0.006 0.029 -0.032 0.027 0.046 0.081 0.094 0.053 0.067 0.066 0.268 0.087 0.065 -0.002 0.064 0.087 0.052 0.03 0.05 0.015 -0.006 0.06 -0.088 0.044 -0.024 0.053 -0.022 0.03 -0.04 -0.037 -0.041 -0.027 -0.094 0.082 -0.046 0.017 0.023 -0.089 -0.036 -0.035 -0.054 -0.089 -0.079 -0.055 -0.055 -0.018 -0.043 -0.035 -0.052 -0.014 -0.045 0.004 -0.075 -0.02 -0.005 -0.047 -0.021 -0.035 -0.059 -0.042 -0.282 -0.079 -0.002 0.033 0.02 0.025 0.04 0.016 0.048 0.032 0 0.095 -0.021 0.04 -0.009 0.057 -0.019 0.058 -0.034 0.046 -0.077 0.031 -0.034 -0.026 -0.055 -0.125 -0.078 -0.039 -0.123 -0.005 -0.084 0.028 -0.091 0.121 -0.074 0.02 -0.252 -0.063 -0.287 -0.095 0.007 -0.032 0.045 -0.01 0.087 0.013 -0.005 -0.033 -0.089 -0.107 -0.016 -0.048 0.011 -0.059 -0.029 0.001 -0.053 0.049 -0.183 -0.042 -0.051 -0.05 -0.108 -0.141 -0.152 -0.005 -0.069 -0.085 -0.124 0.036 -0.063 0.04 -0.055 0.061 0.022 0.032 0.055 0.05 -0.025 0.024 -0.177 0.036 -0.41 -0.04 -0.12 -0.038 -0.161 -0.079 -0.223 -0.065 -0.108 -0.01 -0.105 0.013 -0.306 0.007 -0.071 0.017 -0.061 0.028 -0.039 -0.03 -0.018 -0.054 0.036 -0.009 0.04 -0.032 0.036 -0.063 0.004 -0.038 -0.025 -0.025 -0.047 -0.002 -0.105 0.165 0.06 0.092 -0.004 0.033 -0.209 0.019 -0.475 0.186 -0.185 0.1 0.009 -0.034 0.224 -0.13 -0.079 -0.02 -0.127 0.032 -0.046 -0.013 0.054 -0.107 -0.018 -0.095 -0.09 -0.003 -0.058 0.076 -0.04 -0.003 -0.052 -0.032 -0.041 0.01 0.03 0.171 0.057 0.071 0.048 0.09 -0.13 0.111 -0.121 0.092 -0.013 0.089 -0.121 0.115 -0.114 0.065 -0.268 0.154 -0.077 0.033 -0.121 0.071 -0.167 0.054 -0.16 0.085 -0.054 0.013 0.102 -0.072 0.121 -0.071 -0.104 0.01 -0.16 -0.033 -0.098 -0.002 -0.001 0.026 -0.075 0.037 -0.077 -0.054 -0.034 -0.036 -0.016 -0.031 -0.033 -0.008 -0.032 0.015 0.115 0.22 0.049 0.01 0.054 0.022 -0.068 0.051 -0.073 0.039 -0.115 0.026 -0.097 -0.08 -0.021 0.101 -0.012 0.101 -0.033 0.026 -0.052 0.037 -0.028 -0.028 -0.013 -0.039 -0.033 0.035 -0.049 0.026 -0.081 0.005 -0.06 0.014 0.001 0.042 0.014 0.042 0.107 -0.033 -0.039 0.108 -0.098 0.106 -0.08 0.025 -0.123 -0.016 -0.03 0.011 -0.027 0.022 0.143 0.167 -0.092 0.251 -0.059 0.091 -0.041 0.012 -0.044 0.003 -0.158 -0.081 -0.086 -0.063 0.076 0.17 0.207 0.05 0.011 0.064 -0.001 0.055 -0.041 0.065 -0.038 0.086 0.028 0.06 0.033 0.148 0.028 0.068 0.031 0.206 0.033 0.089 0.188 0.329 0.064 0.003 0.01 0.036 -0.006 0.068 -0.136 0.02 -0.057 0.03 -0.011 0.026 -0.008 0.014 -0.017 -0.001 -0.065 -0.019 -0.147 -0.093 -0.214 -0.058 -0.281 -0.022 -0.192 -0.047 -0.103 -0.071 -0.108 -0.042 -0.112 -0.013 -0.093 -0.039 -0.074 -0.064 -0.108 -0.041 -0.142 -0.018 -0.092 -0.048 -0.064 -0.117 0 -0.002 -0.058 -0.196 -0.073 -0.123 -0.141 -0.152 -0.013 -0.02 0 0 -0.001 -0.025 0.017 -0.088 -0.015 -0.064 -0.045 -0.052 -0.01 -0.055 0.024 -0.058 0.002 -0.069 -0.021 -0.081 -0.09 -0.088 -0.159 -0.094 -0.135 -0.137 -0.112 -0.181 -0.111 -0.125 -0.109 -0.07 -0.075 -0.085 -0.04 -0.1 -0.012 -0.058 0.016 -0.016 -0.067 -0.112 -0.151 -0.207 -0.087 -0.151 -0.022 -0.096 -0.096 -0.114 -0.17 -0.132 -0.092 -0.086 -0.022 -0.06 0 0 -0.265 -0.174 -0.077 -0.108 -0.06 -0.034 -0.069 0.004 -0.035 -0.01 -0.002 -0.025 -0.022 -0.001 -0.043 0.022 -0.141 0.004 -0.239 -0.013 -0.172 -0.03 -0.106 -0.046 -0.074 0.006 -0.043 0.058 -0.091 0.038 -0.139 0.017 -0.119 0.108 -0.1 0.2 -0.044 0.129 0.012 0.057 -0.026 0.042 -0.065 0.026 -0.066 0.058 -0.067 0.09 -0.078 0.044 -0.089 -0.003 -0.165 -0.07 -0.241 -0.136 -0.189 -0.084 -0.137 -0.032 -0.121 -0.063 -0.105 -0.094 -0.097 -0.063 -0.088 -0.031 -0.103 -0.104 -0.118 -0.177 -0.059 -0.136 0 -0.144 -0.155 -0.313 -0.082 -0.136 -0.061 -0.063 -0.119 -0.075 -0.178 -0.087 -0.238 -0.173 -0.299 -0.26 -0.211 -0.157 -0.124 -0.053 -0.108 -0.094 -0.091 -0.134 -0.089 -0.085 -0.009 -0.004 -0.008 -0.002 -0.22 -0.001 -0.22 -0.001 -0.22 -0.001 -0.22 -0.001 -0.22 -0.001 -0.22 -0.001 -0.22 -0.001 -0.22 -0.001 -0.001 0.112 -0.001 0.112 -0.001 0.112 -0.001 0.112 -0.353 0.001 -0.353 0.001 -0.353 0.001 -0.353 0.001 -0.353 0.001 -0.353 0.001 -0.353 0.001 -0.353 0.001 -0.474 -0.148 -0.474 -0.148 -0.474 -0.148 -0.474 -0.148 -0.474 -0.148 -0.474 -0.148 -0.474 -0.148 -0.474 -0.148 0.048 -0.056 0.063 -0.151 -0.114 0.011 -0.286 0.021 -0.286 0.021 -0.286 0.021 -0.286 0.021 -0.286 0.021 -0.286 0.021 -0.286 0.021 -0.286 0.021 -0.002 -0.006 -0.007 -0.109 -0.046 -0.039 -0.06 0.024 -0.027 -0.142 0.015 -0.067 -0.007 -0.065 -0.056 -0.161 -0.149 -0.195 -0.321 -0.243 -0.164 -0.081 -0.128 -0.103 -0.081 -0.029 -0.102 -0.008 -0.03 0.046 -0.116 -0.032 0.017 -0.114 -0.113 -0.159 -0.093 -0.018 -0.233 0.011 -0.312 -0.088 -0.092 -0.052 -0.032 -0.093 -0.146 -0.081 -0.192 -0.079 -0.107 0.018 -0.14 -0.012 -0.2 -0.057 -0.117 -0.007 -0.227 0.017 -0.085 -0.012 -0.079 -0.072 -0.085 -0.036 0.018 -0.089 -0.011 -0.08 0.013 -0.063 -0.038 -0.137 0.029 -0.127 -0.025 -0.046 -0.048 -0.035 -0.15 -0.052 -0.027 -0.065 0.025 -0.09 -0.039 -0.06 -0.123 -0.056 -0.115 -0.126 -0.146 -0.069 -0.06 -0.116 -0.09 -0.072 -0.031 -0.064 -0.199 -0.227 -0.213 -0.177 -0.033 -0.102 -0.008 -0.139 0.083 -0.085 0.045 -0.075 -0.005 -0.069 -0.013 -0.05 -0.073 -0.088 -0.284 -0.052 -0.231 -0.217 -0.014 -0.166 -0.091 -0.169 -0.001 -0.11 -0.014 -0.119 0.069 -0.026 0.062 0.009 -0.006 0.047 0.021 0.085 0.072 0.064 0.069 0.028 0.063 0.062 0.047 0.019 0.049 0.005 -0.026 -0.04 -0.028 -0.026 -0.034 -0.083 -0.064 -0.106 -0.074 -0.058 -0.037 -0.106 -0.032 -0.025 -0.02 -0.039 0.071 -0.047 0.097 -0.033 0.13 -0.009 0.37 0.016 0.079 -0.027 0.065 0.009 0.048 -0.004 -0.1 -0.028 -0.056 0.009 -0.066 -0.006 -0.132 0.005 -0.053 -0.012 -0.059 -0.033 -0.038 -0.003 -0.122 0.058 -0.055 -0.007 -0.129 -0.063 -0.056 -0.009 -0.091 0.036 -0.011 0.155 0.028 0.115 -0.054 0.012 -0.063 -0.048 -0.097 -0.028 -0.08 -0.043 -0.113 -0.08 -0.059 -0.029 -0.067 0.067 -0.003 -0.031 0.033 -0.078 -0.009 -0.13 0.101 0.104 -0.031 -0.073 -0.078 -0.081 -0.06 -0.028 -0.075 -0.144 -0.169 -0.087 -0.135 -0.14 -0.276 -0.232 -0.018 -0.204 -0.101 -0.257 0.043 -0.147 -0.006 -0.104 -0.049 -0.157 -0.052 -0.085 -0.224 -0.234 -0.216 -0.157 -0.033 -0.119 -0.015 -0.12 0.047 -0.107 0.041 -0.112 0.03 -0.03 0.012 0.012 -0.008 0.024 0.031 0.007 0.012 -0.05 0.018 -0.026 -0.032 -0.003 0.003 -0.016 0.019 -0.031 0.067 -0.148 -0.007 -0.186 0.072 -0.228 -0.003 -0.075 -0.046 -0.162 -0.046 -0.097 -0.081 -0.069 0.036 -0.101 -0.003 -0.096 -0.144 -0.138 -0.055 -0.181 -0.01 -0.077 0.014 -0.203 -0.038 -0.087 -0.096 -0.143 0.041 -0.124 0.044 -0.075 0.108 -0.329 0.026 -0.027 0.045 0.001 0.079 -0.056 -0.036 -0.013 -0.055 0.027 0.049 -0.13 0.055 -0.112 0.036 -0.04 0.018 -0.364 0.031 -0.278 0.052 -0.092 -0.018 -0.095 0.021 -0.128 -0.015 -0.129 0.111 -0.623 -0.015 -0.075 0.034 -0.101 -0.032 -0.266 0.014 -0.298 -0.028 -0.038 -0.014 -0.041 0.026 -0.006 0.051 0.043 0.238 0 0.152 -0.04 0.055 0.013 0.064 0.054 0.081 0.011 0.101 -0.01 -0.031 -0.014 -0.047 -0.004 -0.106 -0.05 -0.06 -0.05 -0.185 0.003 -0.038 -0.032 -0.207 0.032 -0.064 -0.033 -0.113 0.021 0.028 -0.093 -0.005 -0.118 0.006 -0.115 0.028 0.084 0.07 0.089 0.034 -0.101 0.023 -0.127 -0.069 -0.049 -0.114 -0.036 -0.041 -0.118 0.27 -0.1 -0.143 -0.021 -0.056 -0.045 -0.069 -0.006 -0.005 0.035 -0.022 0.046 -0.024 -0.061 -0.007 -0.071 -0.028 -0.122 -0.11 -0.196 -0.067 -0.254 -0.084 -0.126 -0.161 -0.12 -0.042 -0.07 -0.039 -0.178 0.022 -0.134 -0.03 -0.094 0.077 0.005 0.204 0.074 0.254 0.058 0.077 0.042 0.123 0.032 0.681 0.049 0.045 -0.005 0.088 -0.03 0.037 0.004 0.1 0.069 0.05 0.008 0.065 -0.004 0.048 -0.013 0.082 -0.048 0.011 0.018 -0.002 0.044 0.029 0.063 0.06 0.081 0.023 0.051 -0.122 0.143 -0.023 0.003 -0.004 -0.048 -0.016 -0.01 -0.229 0.241 -0.08 0.114 -0.008 0.052 0.003 0.03 0.032 0.007 0.073 -0.012 0.109 -0.047 0.005 -0.01 -0.101 0.017 -0.049 0.001 0.007 -0.054 0.012 -0.026 0.066 -0.08 0.07 -0.048 0.099 -0.051 0.057 -0.042 0.039 -0.062 0.11 -0.073 0.02 -0.02 -0.005 -0.06 0.007 -0.011 0.053 0.008 0.022 0.104 -0.013 0.046 -0.094 0.057 -0.012 0.02 0.017 0.077 -0.015 0.007 -0.036 -0.009 -0.011 0.005 0.09 0.084 0.028 0.065 0.004 0.058 -0.024 0.112 -0.026 0.019 -0.045 -0.007 -0.059 -0.035 -0.013 0.011 -0.047 0.087 -0.016 -0.008 -0.029 -0.103 -0.016 -0.008 -0.091 0.047 -0.037 0.045 -0.031 0.072 -0.04 0.034 0.113 0.007 0.102 -0.015 0.082 0.034 0.028 0.001 0.075 -0.033 0.023 -0.023 0.062 -0.109 0.031 -0.019 0.046 -0.001 0.045 -0.016 0.066 -0.059 0.003 -0.024 -0.024 -0.133 0.007 -0.076 -0.012 -0.024 -0.03 -0.025 0.004 -0.024 0.023 -0.04 0.002 -0.036 -0.02 -0.032 0.009 -0.036 0.063 -0.078 0.012 -0.034 0.076 -0.078 -0.019 -0.031 -0.056 -0.038 -0.035 -0.034 -0.036 -0.053 -0.027 -0.018 -0.009 0.008 0.038 0.086 -0.008 0.006 -0.099 -0.046 -0.023 -0.029 -0.012 -0.04 0.009 -0.03 0.053 -0.029 0.064 -0.011 -0.005 -0.025 -0.08 -0.08 -0.053 -0.037 -0.041 -0.018 -0.055 -0.005 -0.025 -0.013 -0.006 -0.019 0.012 -0.025 0.029 -0.008 0.085 0.01 0.046 -0.018 -0.004 -0.032 -0.014 -0.018 0.002 -0.114 -0.032 -0.093 -0.017 -0.016 -0.018 -0.002 -0.019 0.012 -0.054 0.003 -0.033 -0.03 -0.037 -0.059 -0.066 -0.14 0.102 0 0.426 0 0.426 0 0.426 0 0.426 0 0.426 0 0.426 0 0.426 0 0.426 0 0.426 0 0.426 0 0.426 0 0.426 0 0.426 0 0.426 0 0.426 0 0.426 0 0.426 0 0.426 0 0.426 0 0.426 0 0.426 0 0.426 0 0.426 0 0.426 0 0.426 0 0.426 0 0.426 0 0.426 0 0.426 0 0.426 0 0.426 0 0.426 0 0.426 0 0.426 0 0.426 0 0.426 0 0.426 0 0.426 0 0.426 0 0.426 0 0.426 0 0.426 0 0.426 0 0.426 0 0.426 0 0.426 0 0.426 0 0.426 0 0.426 0 0.426 0 0.426 0 0.426 0 0.426 0 0.426 0 0.426 0 0.426 0 0.426 0 0.426 0 0.426 0 0.426 0 0.426 0 0.426 0 0.426 0 0.426 0 0.236 0.001 0.004 -0.211 0.003 -0.167 0.216 0.02 0.065 0.03 0.02 0.014 -0.006 0.046 0.018 0.139 0.039 0.116 0.091 0.14 0 0 0.007 0.054 0.03 0.034 0.054 0.032 0.207 0.039 0.359 0.045 0.204 0.052 0.048 0.058 0.096 0.023 0.143 -0.011 0.101 -0.024 0.086 -0.055 0.12 -0.012 0.103 0.004 0.104 0.005 0.055 0.008 0.16 0.044 0.104 0.036 0.149 0.067 0.083 0.03 0.04 0.069 0.046 0.089 0.066 0 0.05 -0.052 0.127 -0.009 0.167 0.037 0.147 0.104 0.211 0.093 0.129 0.046 0.131 0 0.167 -0.046 0.177 -0.089 0.127 -0.015 0.076 0.009 0.043 0.069 0.053 0.026 0.137 -0.008 0.287 0.013 0.228 -0.019 0.052 0.04 0.046 0.063 0.093 0.02 0.126 -0.02 0.198 0.014 -0.027 0.01 -0.029 -0.002 -0.038 0.015 -0.047 0.032 -0.109 0.046 -0.171 0.06 -0.197 0.055 -0.4 0.099 -0.249 0.102 -0.11 0.062 -0.429 0.309 -0.259 0.165 -0.419 0.231 -0.04 0.029 -0.003 0.028 0.034 0.026 0.085 0.037 0.067 0.005 0.085 -0.008 0.337 -0.064 0.142 -0.045 0.139 -0.075 0.014 -0.002 0.058 0.014 0.018 0.007 0.181 -0.086 0.059 -0.011 0.047 0.002 0.058 0.034 0.014 0.021 -0.019 0.04 -0.052 0.058 -0.025 0.049 0.001 0.04 -0.023 0.043 -0.057 0.058 0.021 0.016 0.153 -0.042 0.022 -0.016 0.003 -0.01 -0.009 -0.012 0.018 -0.005 0.12 0.058 0.08 0.032 0.067 0.015 0.127 -0.018 0.188 -0.052 0.16 -0.063 0.133 -0.075 0.165 -0.046 0.198 -0.017 0.142 -0.027 0.086 -0.036 0.115 -0.07 0.065 -0.021 0.081 -0.006 0.061 -0.027 0.041 -0.048 0.077 -0.055 0.114 -0.061 0.065 -0.025 0.016 0.012 0.006 0.022 -0.004 0.032 0.028 0.026 0.061 0.02 0.028 0.026 -0.005 0.032 0.016 0.028 0.038 0.023 0.01 0.05 -0.018 0.077 -0.002 0.05 0.013 0.023 0.014 0.013 0.022 -0.012 0.027 -0.027 0.01 -0.017 0.007 -0.017 0.167 -0.077 0.033 -0.004 0.055 0.02 0.252 0.028 0.1 0.02 0.105 0.044 0.035 0.017 0.128 0.143 0.058 0.056 0.036 0.015 0.02 0.022 0.017 0.051 0.02 0.015 0.187 0.011 0.085 -0.009 0.052 -0.021 0.057 0.013 0.063 0.047 0.062 0.013 0.061 -0.021 0.057 0.001 0.054 0.022 0.025 0.016 0.016 -0.001 0.106 -0.071 0.128 -0.063 0.171 -0.069 0.099 -0.031 0.027 0.008 0.158 -0.023 0.142 -0.002 0.188 0.014 0.175 -0.016 0.161 -0.046 0.142 -0.026 0.124 -0.005 0.047 0.013 -0.03 0.031 -0.016 0.053 -0.002 0.076 -0.011 0.048 -0.019 0.02 -0.002 0.019 0.014 0.018 0.12 0.012 0.063 0.025 0.072 0.001 0.081 -0.022 0.062 0.008 0.043 0.039 0.063 0.007 0.061 -0.028 0.043 -0.026 0.037 -0.012 0.029 -0.002 0.031 0.013 0.021 0.022 0.052 0.062 0.026 0.042 0.016 0.062 0.011 0.021 -0.001 0.036 -0.035 0.025 -0.009 0.019 0.021 0.019 0.118 0.005 0.054 0.019 0.02 0.022 -0.014 0.024 0.008 0.025 0.029 0.027 0.095 0.041 0.023 0.019 -0.007 0.02 -0.028 0.013 -0.05 0.006 -0.362 -0.038 -0.106 -0.006 -0.016 0.014 -0.01 0.002 -0.017 -0.004 -0.031 -0.001 -0.016 -0.009 -0.013 -0.026 -0.032 -0.016 -0.05 -0.007 -0.043 0.019 -0.05 0.076 0.008 0.014 -0.008 0.049 0.013 0.013 -0.001 0.011 -0.014 0.009 -0.03 -0.001 -0.045 -0.012 -0.17 -0.115 -0.129 -0.057 -0.159 -0.042 -0.126 -0.02 -0.093 0.001 -0.076 0.029 -0.06 0.058 -0.093 0.033 -0.126 0.008 -0.069 0.015 -0.011 0.023 -0.046 0 -0.08 -0.022 -0.083 -0.006 -0.086 0.01 -0.063 0.023 -0.066 0.071 -0.013 0.035 -0.048 0.03 -0.128 0.048 -0.006 0.018 -0.067 0.054 -0.021 0.03 0 0.029 -0.022 -0.002 -0.045 -0.033 -0.002 -0.044 0.042 -0.055 0.037 -0.027 0.033 0.002 0.02 -0.024 0.008 -0.051 -0.012 -0.025 -0.064 0.01 -0.033 0.02 -0.042 0.004 -0.051 -0.012 -0.045 0.028 -0.039 0.067 -0.046 0.044 -0.054 0.021 -0.036 -0.023 -0.019 -0.067 0 -0.052 0.022 -0.063 -0.011 -0.012 -0.023 0.02 -0.034 0.053 -0.046 0.115 -0.029 0.037 -0.04 0.016 -0.063 0.069 -0.086 0.123 -0.097 0.119 -0.108 0.116 -0.065 0.062 -0.022 0.009 -0.009 0.021 -0.006 0.074 -0.019 0.05 -0.056 0.04 -0.147 0.05 -0.023 0.034 -0.003 0.028 -0.095 0.117 -0.046 0.071 -0.03 0.074 0.01 0.047 0.05 0.019 0.04 -0.007 0.031 -0.034 0.047 -0.031 0.064 -0.028 0.047 -0.04 0.064 -0.098 0.072 -0.057 0.038 -0.003 0.011 0.002 0.075 -0.026 0.061 0.008 0.036 0.039 0.037 0.026 0.008 0.025 -0.019 0.055 -0.034 0.058 -0.05 0.061 -0.046 0.092 -0.041 0.123 -0.009 0.093 0.024 0.063 -0.022 0.056 -0.069 0.049 -0.055 0.066 -0.042 0.082 -0.024 0.069 -0.006 0.056 0.006 0.042 0.025 0.057 -0.002 0.029 -0.074 0.125 -0.027 0.061 -0.005 0.048 -0.018 0.047 -0.057 0.096 -0.018 0.053 -0.003 0.049 0.013 0.08 -0.007 0.027 0.003 0.021 0.014 0.014 0 0.025 -0.014 0.037 0.006 0.029 0.026 0.02 0.017 0.039 0.007 0.057 0.019 0.048 0.032 0.039 0.006 0.056 -0.02 0.073 -0.01 0.137 -0.001 0.202 0.015 0.13 0.031 0.058 0.034 0.042 0.038 0.027 0.044 0.084 0.049 0.141 0.045 0.093 0.042 0.045 0.038 0.025 0.03 0.015 0.022 0.002 0.013 0.022 0.056 0.013 0.103 0.006 0.095 -0.009 0.086 -0.023 0.274 -0.119 0.107 -0.065 0.059 -0.058 0.057 -0.076 0.055 -0.095 0.113 -0.141 0.055 -0.086 0.053 -0.108 0.04 -0.114 0.027 -0.119 0.013 -0.123 -0.002 -0.127 -0.027 -0.128 -0.052 -0.129 -0.028 -0.066 -0.011 -0.018 -0.095 -0.165 -0.107 -0.23 0.002 -0.02 0.1 -0.137 0.003 -0.018 -0.011 -0.111 -0.021 -0.056 -0.051 -0.075 0.002 -0.019 0.104 -0.096 0.063 -0.073 0.057 -0.088 0.037 -0.103 0.017 -0.118 -0.001 -0.078 -0.018 -0.039 0.002 -0.03 0.022 -0.021 0.111 -0.028 0.037 -0.046 0.008 -0.082 0.023 -0.04 0.038 0.001 0.035 -0.017 0.032 -0.034 0.042 -0.01 0.053 0.015 0.074 -0.051 0.095 -0.116 0.073 -0.065 0.051 -0.014 0.01 0.011 -0.032 0.035 -0.01 0.038 0.012 0.041 -0.01 0.04 -0.024 0.055 0.015 0.017 -0.041 0.088 -0.002 0.044 0.025 0.034 0.029 -0.012 0.034 -0.057 0.01 -0.03 -0.014 -0.004 0.005 -0.024 0.024 -0.045 0.021 -0.021 0.019 0.002 0.005 0.024 -0.008 0.046 -0.054 0.109 -0.011 0.033 0.012 0.009 0.065 -0.068 0.054 -0.109 0.041 -0.083 0.007 -0.046 -0.012 -0.117 0.003 -0.048 0.016 -0.033 0.056 -0.038 0.097 -0.042 0.096 -0.022 0.094 -0.003 0.066 -0.011 0.037 -0.02 -0.013 -0.016 -0.064 -0.012 -0.048 -0.026 -0.033 -0.04 -0.011 -0.046 0.011 -0.052 0.04 -0.051 0.07 -0.05 0.022 -0.037 -0.026 -0.024 0.03 -0.008 0.086 0.007 0.06 -0.006 0.034 -0.02 0.009 0.002 0.072 0.019 0.128 0.062 0.122 0.036 0.115 0.01 0.084 0.022 0.053 0.033 0.038 0.037 0.023 0.041 0.055 0.023 0.086 0.005 0.068 0.018 0.05 0.03 0.275 0.077 0.115 0.041 0.063 0.04 0.018 0.025 -0.005 0.025 0.006 0.027 0.047 0.052 0.018 0.005 0.011 0.025 0.004 0.046 0.014 0.031 0.024 0.016 -0.014 0.006 -0.085 -0.027 -0.048 0.008 -0.022 0.034 -0.003 0.033 0.015 0.031 0.108 0.092 0.028 0.084 0.005 0.102 -0.014 0.04 -0.011 0.087 -0.009 0.135 -0.002 0.046 -0.036 0.045 -0.097 0.065 -0.001 -0.012 -0.023 -0.003 -0.025 0.01 -0.035 0.056 -0.03 0.102 -0.036 0.055 -0.043 0.009 -0.026 0.015 -0.009 0.021 -0.046 0.014 -0.084 0.007 -0.057 0.031 -0.043 0.087 0.002 0.042 -0.02 0.052 0.001 0.044 0.023 0.037 0.068 0.037 0.113 0.037 0.067 0.006 0.046 -0.015 0.048 -0.061 0.047 -0.024 0.057 -0.01 0.022 -0.028 0.094 -0.121 0 -0.027 -0.034 -0.01 0.005 -0.007 0.044 -0.005 0.039 -0.016 0.033 -0.028 0.057 -0.021 0.14 -0.031 0.075 -0.036 0.047 -0.006 0.069 0.019 0.09 0.044 0.072 0.065 0.053 0.085 0.067 0.22 0.081 0.355 0.055 0.199 0.029 0.042 0.015 0.021 -0.071 0.278 -0.057 0.115 -0.1 0.067 0.006 -0.016 0.009 -0.02 -0.003 -0.067 -0.017 -0.026 -0.037 -0.01 -0.046 0.007 -0.055 0.025 -0.017 0.026 0.021 0.026 -0.012 0.024 -0.045 0.021 -0.029 0.049 -0.013 0.077 -0.019 0.048 -0.024 0.019 -0.091 0.028 -0.047 0.024 -0.041 0.036 -0.037 0.059 -0.033 0.081 -0.013 0.063 0.012 0.034 -0.028 0.022 -0.051 0.041 -0.01 0.015 0.003 0.024 -0.011 0.012 -0.025 0 -0.019 0.012 -0.046 0.043 -0.079 0.114 -0.015 0.024 0.013 0.018 0.091 0.011 0.062 0.021 0.048 0.031 0.173 0.061 0.053 0.038 0.053 0.021 0.052 0.004 0.036 -0.012 0.019 -0.028 0.025 -0.002 0.03 0.024 0.098 0.026 0.003 0.008 -0.271 0.046 -0.057 0.021 0.068 0.015 0.068 -0.004 0.069 -0.022 0.079 0.001 0.07 0.01 0.022 -0.009 0.009 -0.004 0.118 0.06 0.044 0.009 0.046 -0.007 0.048 -0.023 0.104 -0.029 0.161 -0.036 0.155 -0.015 0.149 0.007 0.094 -0.01 0.086 -0.038 0.19 -0.123 0.218 -0.099 0.359 -0.123 0.535 -0.148 0.083 -0.034 0.084 -0.034 0.043 -0.019 0.049 -0.018 0.372 -0.154 0.192 -0.091 0.096 -0.066 0.101 -0.055 0.106 -0.044 0.084 -0.056 0.062 -0.069 0.069 -0.051 0.075 -0.033 0.04 -0.035 0.006 -0.037 -0.014 -0.05 -0.033 -0.063 -0.005 -0.049 0.024 -0.036 0.005 -0.024 -0.013 -0.013 -0.158 -0.036 0.007 -0.172 -0.002 -0.005 0.008 -0.002 0.364 -0.076 0.232 -0.026 0.283 -0.007 0.337 0.038 0.131 0.034 0.083 0.044 0.096 0.012 0.108 -0.02 0.15 -0.007 0.192 0.007 0.103 0.01 0.013 0.014 0.013 -0.004 0.013 -0.022 0.051 -0.024 0.144 -0.036 0.019 0.007 0.029 -0.018 0.04 -0.044 0.073 -0.049 0.107 -0.053 0.097 -0.028 0.086 -0.002 0.058 -0.013 0.029 -0.024 0.009 -0.021 -0.011 -0.018 0.005 -0.02 0.005 -0.01 -0.004 -0.008 -0.01 -0.017 -0.008 -0.088 -0.017 -0.041 -0.023 -0.03 -0.03 -0.02 0.004 -0.021 0.052 -0.025 -0.004 0.024 0.014 0.007 0.024 -0.011 0.056 -0.052 0.006 -0.02 0.038 -0.02 0.028 -0.031 -0.031 -0.005 -0.074 0.009 -0.017 -0.01 0.038 -0.042 -0.007 -0.024 -0.012 -0.01 -0.024 -0.004 -0.083 0.037 -0.025 0.003 -0.004 -0.02 -0.043 -0.043 0.115 -0.077 0.406 -0.214 0.041 -0.033 0.015 -0.029 -0.011 -0.025 -0.011 -0.006 0.006 -0.006 0.391 -0.275 0.222 -0.127 0.183 -0.071 0.14 -0.034 0.094 0.005 z M -72.51 -40.986 l -0.071 0.065 0.064 0.007 0.055 -0.019 0.052 -0.038 0.122 -0.052 0.104 -0.023 0.033 -0.005 0.049 0.036 0.098 -0.029 0.101 -0.016 -0.436 0.167 -0.089 0.019 -0.127 0.05 -0.121 0.035 -0.087 0.013 -0.431 0.124 -0.034 0.003 -0.037 -0.012 -0.355 0.064 -0.146 0.007 -0.133 0.022 0.098 -0.051 0.002 -0.019 -0.023 -0.015 -0.053 0.004 -0.054 0.053 -0.086 0.018 -0.017 -0.057 0.029 -0.044 0.039 -0.042 0.085 -0.066 0.122 -0.042 0.062 -0.036 0.043 0.032 0.009 -0.043 0.033 -0.025 0.036 -0.013 0.086 0 0.047 -0.007 0.034 -0.014 0.035 -0.003 0.095 0.02 0.092 -0.006 0.075 -0.027 0.077 -0.009 0.205 -0.006 0.204 -0.02 0.081 -0.035 0.171 -0.099 0.098 -0.027 -0.153 0.115 z M -68.187 -44.332 l -0.058 0.019 -0.064 -0.008 0.001 0.053 -0.007 0.019 -0.071 -0.027 -0.026 -0.017 0.002 -0.07 0.062 -0.066 0.048 -0.026 0.061 0.018 0.047 0.074 z M -74.188 -40.523 l -0.048 0.004 0.048 -0.096 0.088 -0.044 0.032 0.009 0.001 0.034 -0.012 0.029 -0.059 0.045 z M -70.51 -41.376 l -0.275 0.049 -0.044 -0.032 0.069 -0.015 0.087 -0.075 0.058 -0.009 0.091 0.042 z M -71.241 -41.492 l -0.05 0.027 -0.055 -0.005 0.028 -0.037 0.011 -0.054 0.027 -0.06 0.016 -0.018 0.032 -0.016 z M -69.978 -41.266 l -0.077 0.016 -0.178 -0.037 0.146 -0.031 0.024 -0.011 0.019 -0.046 0.002 -0.023 0.056 0.099 z M -75.636 -35.856 l -0.015 0.02 -0.066 -0.111 0.068 0.036 0.012 0.03 z M -75.544 -35.24 l -0.134 0.027 -0.012 -0.009 0.154 -0.057 0.048 -0.201 0.007 -0.093 -0.023 -0.163 0.001 -0.034 0.025 0.053 0.022 0.152 -0.008 0.116 -0.045 0.168 z M -75.782 -35.19 l -0.182 0.071 -0.021 -0.004 0.119 -0.051 z M -76.504 -34.643 l -0.025 0.011 0.092 -0.125 0.181 -0.158 0.049 -0.024 -0.15 0.135 z M -82.037 -26.454 l -0.036 0.026 -0.072 -0.019 -0.039 -0.034 -0.017 -0.067 0.063 0.071 0.023 0.016 z M -82.084 -26.552 l -0.001 0.059 -0.05 -0.098 -0.034 -0.109 0.048 0.035 z M -80.382 -25.142 l -0.199 0.188 0.022 -0.047 0.077 -0.101 0.025 -0.047 0.052 -0.03 0.049 -0.054 0.004 -0.063 0.071 -0.044 0.023 -0.006 z M -91.794 -29.501 l -0.037 0.014 -0.165 -0.087 -0.01 -0.037 0.082 -0.034 0.05 0.003 0.079 0.044 0.029 0.012 0.013 0.018 -0.008 0.028 z M -97.014 -27.902 l -0.022 0.002 0.048 -0.082 0.009 -0.033 0.079 -0.104 0.042 -0.015 0.018 0.044 -0.082 0.073 z M -96.764 -28.153 l -0.037 0.004 0.046 -0.054 0.074 -0.027 0.162 -0.104 0.066 -0.007 0.034 -0.036 0.015 -0.005 -0.01 0.044 -0.131 0.062 z M -97.354 -27.3 l -0.031 0.058 0.009 -0.086 0.081 -0.195 0.165 -0.256 0.069 -0.043 -0.19 0.281 z M -95.04 -29.146 l -0.05 0.01 0.218 -0.154 0.046 -0.051 0.058 0.002 -0.097 0.086 z M -97.171 -26.159 l -0.014 0.046 -0.083 -0.217 -0.135 -0.491 -0.005 -0.28 0.021 -0.096 0.035 0.395 0.149 0.502 z M -120.307 -34.025 l -0.053 0.003 -0.082 -0.011 0.029 -0.023 0.045 -0.017 0.014 0.013 z M -119.438 -33.217 l -0.044 0.002 -0.061 -0.009 -0.032 -0.054 0.05 -0.004 0.046 0.007 0.037 0.042 z M -118.35 -32.828 l -0.058 0.009 -0.065 -0.02 -0.056 -0.097 -0.061 -0.076 0.033 -0.021 0.05 0.073 0.124 0.11 z M -120.044 -33.919 l -0.07 0.014 -0.053 -0.013 -0.085 -0.096 0.18 -0.013 0.077 0.042 0.01 0.012 z M -119.882 -34.08 l 0.204 0.051 0.11 -0.025 0.02 0.025 -0.013 0.022 -0.247 0.039 -0.076 -0.027 -0.007 -0.037 -0.026 -0.036 z M -118.348 -33.386 l 0.05 0.074 -0.073 -0.009 -0.076 0.004 -0.023 -0.04 -0.023 -0.056 -0.015 -0.014 -0.052 -0.005 -0.004 -0.005 -0.006 -0.027 0.015 -0.013 0.163 0.062 z M -122.782 -48.673 l 0.013 0.022 -0.04 0.021 -0.029 0.003 -0.046 -0.034 -0.02 -0.004 0.016 0.052 -0.006 0.018 -0.093 -0.032 -0.017 -0.025 0.026 -0.027 0.059 -0.028 0.02 -0.003 z M -123.013 -48.501 l 0.026 0.033 -0.108 -0.021 -0.046 -0.019 -0.013 -0.018 -0.016 -0.06 0.007 -0.02 0.048 -0.007 0.09 0.075 z M -122.573 -48.157 l 0.049 0.131 0.021 -0.055 0.136 0.095 0 0.047 -0.017 0.016 -0.028 0.005 -0.026 -0.014 -0.024 -0.033 -0.031 -0.017 -0.065 -0.011 -0.034 -0.037 -0.012 -0.025 -0.003 -0.074 -0.016 -0.023 -0.035 -0.005 -0.033 -0.017 -0.051 -0.051 -0.007 -0.014 0.024 -0.042 0.056 -0.07 0.04 -0.033 0.025 0.004 0.031 0.021 0.037 0.038 -0.007 0.027 -0.15 0.053 -0.005 0.012 0.073 0.015 0.027 0.013 z M -71.365 -41.485 l -0.028 0.019 -0.01 -0.048 0.019 -0.056 0.02 -0.001 0.01 0.03 z M -74.133 -39.681 l -0.117 0.151 -0.003 -0.029 0.146 -0.188 z M -75.333 -37.888 l -0.045 0.016 0.153 -0.2 0.089 -0.168 0.04 -0.058 -0.038 0.118 -0.067 0.108 z M -76.546 -34.655 l -0.022 0.002 -0.039 -0.011 -0.054 -0.021 -0.012 -0.015 0.052 0.006 z M -81.335 -24.65 l -0.03 0.021 -0.014 -0.006 0 -0.03 -0.043 -0.066 0.002 -0.017 0.098 0.065 0.002 0.017 z M -80.829 -24.804 l -0.019 0 0.009 -0.014 0.039 -0.028 0.014 0.011 -0.002 0.014 z M -80.638 -24.903 l -0.027 0.005 0.039 -0.043 0.011 0.003 z M -81.044 -24.717 l -0.046 0.024 -0.047 -0.017 0.052 -0.024 0.155 -0.025 -0.058 0.032 z M -81.419 -30.971 l -0.044 0.244 -0.019 -0.086 -0.002 -0.084 0.034 -0.05 z M -81.567 -24.6 l -0.065 0.01 0.052 -0.039 0.017 -0.06 0.031 0.047 -0.001 0.028 z M -80.187 -27.278 l 0.016 0.074 -0.092 -0.171 -0.114 -0.268 -0.061 -0.207 0.041 0.056 0.04 0.116 z M -81.784 -24.545 l -0.025 0.002 -0.002 -0.015 0.044 -0.019 0.029 0.001 -0.001 0.021 z M -88.889 -29.713 l -0.054 0.052 0.002 -0.02 0.04 -0.052 0.029 -0.02 z M -88.558 -30.216 l -0.013 0.011 -0.089 -0.021 -0.054 -0.019 -0.01 -0.019 0.149 0.035 z M -88.071 -30.252 l -0.088 0.021 -0.13 -0.002 -0.027 -0.008 0.052 -0.014 0.155 -0.019 z M -89.224 -30.084 l 0.004 0.046 -0.049 -0.023 -0.073 -0.002 0.032 -0.016 0.022 -0.015 0.011 -0.017 0.092 -0.058 -0.026 0.042 z M -88.827 -29.808 l -0.028 0.032 0.028 -0.152 -0.039 -0.128 0.041 0.056 0.013 0.067 z M -84.908 -29.643 l -0.1 0.036 -0.108 -0.026 0.067 -0.005 0.049 0.011 0.124 -0.051 0.065 -0.039 0.075 -0.015 z M -122.853 -47.205 l -0.01 0.02 -0.014 -0.001 -0.031 -0.04 -0.004 -0.028 0.027 -0.02 0.036 0.058 z M -122.394 -47.395 l -0.005 0.023 -0.038 0.018 -0.02 -0.005 -0.001 -0.027 -0.01 -0.004 -0.041 0.032 0.003 -0.064 0.02 -0.067 0.018 -0.001 0.027 0.044 z M -122.497 -47.595 l -0.005 0.019 -0.055 -0.023 -0.018 -0.021 0.002 -0.047 0.014 -0.031 0.01 -0.006 0.033 0.013 0.009 0.008 z M -122.821 -48.431 l -0.016 0.01 -0.053 -0.013 -0.032 -0.022 -0.011 -0.028 0.02 -0.053 0.027 -0.014 0.017 0.003 0.007 0.047 0.047 0.05 z M -68.623 -44.196 l -0.038 0.02 -0.041 -0.006 -0.001 -0.049 0.012 -0.017 0.014 -0.007 0.021 0.014 z M -90.41 -47.044 l -0.017 0.018 -0.033 0.016 -0.012 -0.007 0.008 -0.031 0.017 -0.018 0.025 -0.005 0.012 0.007 z M -88.911 -47.936 l -0.044 0.01 -0.005 0.017 0.036 0.005 -0.007 0.008 -0.04 0.015 -0.112 0.031 -0.075 0.01 -0.038 -0.011 -0.004 -0.02 0.03 -0.03 0 -0.015 -0.031 0 0.007 -0.012 0.046 -0.024 0.391 -0.151 0.167 -0.055 0.089 -0.017 0.014 0.008 -0.096 0.057 -0.016 0.023 0.004 0.015 -0.032 0.03 z M -87.79 -47.411 l -0.23 0.019 -0.006 0.006 0.044 0.018 0.008 0.013 -0.041 0.034 -0.206 0.11 -0.019 0.032 0.004 0.019 -0.121 0.086 -0.044 0.054 -0.037 0.009 -0.03 -0.037 0 -0.03 0.03 -0.022 0.029 -0.032 0.004 -0.044 -0.011 -0.016 -0.037 0.04 0.021 0.008 0.006 0.007 -0.007 0.014 -0.14 -0.021 -0.042 -0.031 0.007 -0.043 0.047 -0.055 0.168 -0.117 0.074 -0.032 0.21 -0.051 0.116 -0.012 0.116 0 0.084 0.017 0.052 0.034 z M -84.169 -46.324 l 0.031 0.018 0.018 0.021 0.004 0.024 -0.005 0.015 -0.014 0.005 -0.05 -0.039 -0.011 -0.024 0.007 -0.02 z M -84.133 -46.341 l -0.031 -0.005 -0.026 -0.015 -0.021 -0.024 -0.026 -0.06 -0.039 -0.043 0.059 -0.049 0.035 -0.006 0.038 0.011 0.005 0.028 -0.028 0.046 0.002 0.047 0.031 0.048 z M -78.99 -42.992 l -0.022 -0.011 -0.007 -0.022 0.005 -0.027 0.026 -0.012 0.072 0.01 0.002 0.011 -0.016 0.02 -0.031 0.034 z M -84.429 -45.807 l 0.012 -0.008 0.036 0.027 0.006 0.022 -0.015 0.019 -0.022 0.01 -0.029 0.002 -0.046 -0.019 -0.076 -0.05 0.006 -0.017 z M -83.529 -46.024 l 0.026 0.01 0.01 0.022 -0.024 0.033 -0.07 0.017 -0.142 -0.002 -0.092 -0.013 -0.042 -0.023 -0.009 -0.012 0.004 -0.026 0.021 -0.002 0.03 0.014 0.045 -0.006 0.06 -0.026 0.032 -0.02 0.003 -0.013 -0.019 -0.025 0.016 -0.011 0.076 0.01 0.028 0.017 z M -90.547 -46.919 l -0.033 0.006 -0.072 -0.009 0.001 -0.015 0.075 -0.02 0.033 -0.006 0.008 0.008 z M -85.492 -45.76 l -0.009 0.01 0.009 0.087 -0.017 0.038 -0.043 0.022 -0.034 0.005 -0.026 -0.012 0.004 -0.047 0.035 -0.082 0.034 -0.038 z M -86.052 -45.156 l 0.054 0.006 0.019 0.019 0.004 0.029 -0.012 0.014 -0.028 -0.001 -0.022 -0.014 -0.022 -0.044 z M -86.926 -45.415 l 0.048 0.001 0.017 0.006 0.005 0.014 -0.005 0.042 -0.03 0.01 -0.055 -0.003 -0.02 -0.023 0.029 -0.057 z M -87.049 -45.303 l 0.044 0.007 0.019 0.021 -0.006 0.034 -0.018 0.013 -0.031 -0.008 -0.012 0.019 0.007 0.046 -0.01 0.021 -0.027 -0.003 -0.002 0.009 0.024 0.021 0.003 0.022 -0.019 0.024 -0.018 0.011 -0.018 -0.002 -0.027 0.028 -0.037 0.057 -0.013 0.033 0.012 0.009 -0.009 0.019 -0.092 0.087 -0.036 0.008 -0.039 -0.012 -0.027 -0.025 -0.016 -0.039 -0.005 -0.03 0.007 -0.021 0.081 -0.077 0.036 -0.05 0.021 -0.056 0.038 -0.036 0.055 -0.016 0.044 -0.035 0.034 -0.055 z M -90.653 -46.828 l -0.024 0.015 -0.003 0.015 -0.03 0.014 -0.057 0.014 -0.024 -0.003 0.01 -0.019 0.03 -0.023 0.133 -0.056 0.023 0.001 0.007 0.013 z" vector-effect="non-scaling-stroke" fill="#000" fill-opacity="1" stroke="#FFF" stroke-width="0px" stroke-linejoin="round" stroke-linecap="round"/></svg>
