<svg xmlns="http://www.w3.org/2000/svg" xmlns:xlink="http://www.w3.org/1999/xlink" height="400" width="400" viewBox="51.568359375 -26.0681640625 4.81962890625002 3.4466796875"><path d="M 56.298 -25.651 l 0.066 0.081 0.009 0.551 0.015 0.039 -0.035 0.006 -0.039 0.042 -0.046 0.065 -0.063 0.033 -0.05 0.038 -0.048 0.047 -0.043 0.01 -0.055 -0.059 -0.038 -0.061 0.009 -0.013 0.027 -0.004 0.01 -0.031 -0.016 -0.046 -0.037 -0.017 -0.047 -0.002 -0.045 0.02 -0.048 0.04 -0.027 0.043 -0.004 0.087 0.013 0.098 0 0.047 -0.026 0.059 -0.009 0.087 0.019 0.067 0.017 0.04 0.002 0.034 -0.045 0.107 0.039 0.02 0.129 0.008 0.038 0.073 0.026 0.05 -0.007 0.03 -0.091 0.022 -0.115 0.024 -0.083 -0.007 -0.149 0.033 -0.079 0.05 0.023 0.031 0.028 0.024 0.012 0.066 -0.023 0.094 -0.042 0.092 -0.052 0.114 -0.061 0.131 -0.083 0.198 -0.07 0.155 -0.008 0.112 0.002 0.073 -0.008 0.146 -0.066 0.08 -0.015 0.002 -0.079 -0.01 -0.027 -0.003 -0.076 -0.009 -0.118 -0.014 -0.153 -0.019 -0.181 -0.022 -0.202 -0.025 -0.216 -0.026 -0.222 -0.027 -0.223 -0.027 -0.216 -0.026 -0.202 -0.025 -0.18 -0.022 -0.153 -0.019 -0.118 -0.014 -0.076 -0.009 -0.027 -0.003 -0.084 -0.01 -0.046 -0.054 -0.055 -0.065 -0.055 -0.066 -0.055 -0.066 -0.055 -0.065 -0.055 -0.065 -0.055 -0.066 -0.055 -0.065 -0.055 -0.066 -0.055 -0.065 -0.055 -0.066 -0.055 -0.066 -0.055 -0.065 -0.055 -0.065 -0.055 -0.066 -0.055 -0.066 -0.055 -0.065 -0.037 -0.044 -0.02 -0.049 -0.004 -0.13 0 -0.028 0.037 -0.052 0.018 0.037 0.041 0.051 0.07 -0.012 0.033 0.008 0.024 0.18 0.051 0.064 0.063 0.026 0.213 0.014 0.132 -0.024 0.261 -0.117 0.137 -0.042 0.378 0.007 0.303 0.049 0.472 0.029 0.092 -0.008 0.255 -0.094 0.156 -0.083 0.093 -0.024 0.061 -0.08 0.04 -0.104 0.036 -0.068 0.046 -0.033 0.044 -0.058 0.035 -0.094 0.088 -0.095 0.351 -0.231 0.205 -0.195 0.018 -0.063 0.112 -0.095 0.089 -0.104 0.418 -0.296 0.084 -0.122 0.049 -0.137 0.006 -0.01 0.036 -0.006 0.051 0.021 0.005 0.102 -0.018 0.097 -0.002 0.102 -0.007 0.056 0.039 0.046 0.066 0.02 0.029 -0.002 z M 56.282 -25.236 l 0.006 -0.043 -0.01 -0.022 -0.043 -0.003 -0.018 0.037 -0.006 0.053 0.03 0.004 z M 53.332 -24.259 l -0.074 0.006 -0.067 -0.038 0.142 -0.051 0.038 -0.023 0.042 -0.047 0.033 0.04 -0.036 0.063 -0.026 0.027 z M 52.617 -24.289 l -0.017 0.007 -0.018 -0.054 0.001 -0.017 0.046 -0.024 0.028 0.044 z M 53.928 -24.177 l 0 0.034 -0.102 -0.01 -0.027 0.018 -0.083 -0.01 -0.081 -0.024 0.055 -0.041 0.144 -0.048 0.06 0.044 z M 54.465 -24.443 l -0.009 0.019 -0.028 -0.002 -0.071 -0.018 -0.023 -0.028 0.044 -0.034 0.019 -0.002 0.028 0.035 z" vector-effect="non-scaling-stroke" fill="#000" fill-opacity="1" stroke="#FFF" stroke-width="0px" stroke-linejoin="round" stroke-linecap="round"/></svg>
