<svg xmlns="http://www.w3.org/2000/svg" xmlns:xlink="http://www.w3.org/1999/xlink" height="400" width="400" viewBox="-8.14482421874999 -60.831884765625 9.89140624999999 10.810498046875"><path d="M -2.668 -51.623 l -0.074 0.042 -0.236 0.042 -0.102 0.043 -0.178 0.097 -0.034 0.008 -0.269 -0.023 -0.2 -0.126 -0.128 -0.052 -0.053 -0.006 -0.055 0.015 -0.117 0.016 -0.119 -0.003 0.061 -0.058 0.083 -0.033 -0.185 -0.023 -0.051 -0.018 -0.059 -0.041 -0.145 -0.007 -0.069 0.01 -0.117 0.054 -0.185 0.057 -0.222 -0.08 -0.044 -0.035 0.001 -0.067 -0.033 -0.053 -0.062 -0.019 0.079 -0.069 0.095 -0.046 0.21 -0.046 0.317 -0.109 0.178 -0.046 0.165 -0.08 0.068 -0.049 0.05 -0.067 0.049 -0.082 0.07 -0.067 -0.068 -0.016 -0.03 -0.05 0.008 -0.051 0.031 -0.045 -0.028 -0.057 -0.05 -0.059 0.003 -0.046 0.013 -0.049 -0.128 0.003 -0.127 0.015 -0.115 0.035 -0.112 0.048 -0.099 0.009 0.002 -0.038 0.043 -0.047 0.113 -0.067 0.121 -0.056 0.043 -0.042 0.034 -0.049 0.06 -0.039 0.158 -0.074 0.302 -0.084 0.045 -0.005 0.118 0.01 0.116 -0.013 0.102 -0.03 0.102 -0.006 0.229 0.087 -0.068 -0.134 0.101 -0.032 0.146 0.121 0.054 0.013 0.115 -0.018 -0.044 -0.021 -0.052 -0.001 -0.068 -0.018 -0.057 -0.039 -0.095 -0.124 0.005 -0.073 0.064 -0.076 0.071 -0.07 -0.059 -0.014 -0.047 -0.027 -0.014 -0.07 0.019 -0.062 0.127 -0.055 0.037 -0.083 0.016 -0.091 -0.021 -0.042 -0.126 0.007 -0.061 0.017 -0.055 0.027 -0.056 -0.002 -0.156 -0.101 -0.089 -0.077 -0.159 -0.162 -0.023 -0.097 0.127 -0.209 0.197 -0.133 0.232 -0.046 -0.045 -0.009 -0.353 -0.002 -0.116 0.016 -0.108 0.055 -0.061 0.017 -0.064 0.006 -0.058 0.027 -0.057 0.038 -0.059 0.024 -0.118 -0.006 -0.057 0.008 -0.041 -0.022 -0.034 -0.036 -0.045 -0.01 -0.05 0.011 -0.106 0.049 -0.108 0.029 -0.13 -0.031 -0.171 -0.057 -0.034 0.021 -0.038 0.053 -0.022 0.083 -0.121 -0.072 -0.103 -0.096 -0.035 -0.06 -0.003 -0.068 0.056 -0.026 0.061 0.024 0.091 -0.161 0.18 -0.21 0.064 -0.062 0.044 -0.08 -0.008 -0.053 -0.04 -0.044 -0.168 -0.101 0.002 -0.082 0.018 -0.093 0.046 -0.056 0.019 -0.011 0.223 0.001 -0.087 -0.029 -0.173 -0.084 0.003 -0.03 0.041 -0.077 -0.019 0.008 -0.037 0.036 -0.071 0.087 -0.043 0.02 -0.122 0.021 -0.022 0.043 -0.02 0.011 -0.061 0.005 -0.019 0.04 -0.014 0.003 -0.017 -0.043 -0.002 -0.071 0.024 -0.065 0.047 -0.051 0.179 -0.116 -0.087 0.036 -0.198 0.108 -0.101 0.071 -0.027 0.024 -0.008 0.02 0.001 0.023 0.045 0.124 -0.013 0.058 -0.171 0.381 -0.032 0.038 -0.03 0.02 -0.028 0.005 -0.084 -0.007 -0.038 -0.029 0 -0.032 0.016 -0.048 0.071 -0.181 0.031 -0.05 0.046 -0.047 0.101 -0.082 -0.002 -0.005 -0.067 0.016 -0.029 -0.005 -0.02 -0.016 0.013 -0.242 0.054 -0.08 0.02 -0.116 0.047 -0.099 0.054 -0.072 0.041 -0.092 0.063 -0.041 0.017 -0.063 0.07 -0.068 0.054 -0.071 -0.029 0.007 -0.347 0.185 -0.088 0.034 -0.12 -0.009 -0.092 -0.021 -0.072 -0.044 -0.032 -0.084 -0.089 -0.002 -0.076 -0.015 0.001 -0.011 0.098 -0.046 0.157 -0.016 0.147 -0.073 -0.131 -0.05 0.011 -0.016 0.114 -0.042 0.145 -0.142 0.029 -0.13 -0.069 -0.061 -0.025 -0.04 -0.139 -0.045 -0.023 -0.057 0.016 -0.032 0.045 -0.031 0.068 -0.024 0.107 -0.023 -0.097 -0.025 -0.036 -0.029 -0.027 -0.043 -0.003 -0.025 0.05 -0.11 0.029 -0.045 0.057 -0.058 0.259 0.003 0.03 -0.026 0.029 -0.001 0.133 0.023 -0.02 -0.025 -0.217 -0.137 -0.019 -0.026 0.062 -0.074 0.004 -0.033 -0.009 -0.035 0.018 -0.027 0.069 -0.013 0.21 0.001 0.052 -0.013 -0.024 -0.036 -0.049 -0.047 -0.01 -0.039 0.011 -0.035 0.003 -0.07 0.01 -0.031 0.05 -0.046 0.041 -0.014 0.051 -0.008 0.115 0.015 0.044 0.019 0.05 0.044 0.037 -0.004 0.143 -0.048 0.043 -0.007 0.059 0.056 0.245 -0.044 0.329 -0.02 0.198 -0.029 0.208 -0.011 0.194 -0.033 0.206 0.015 0.007 0.019 -0.011 0.027 -0.053 0.073 0.009 0.082 -0.012 0.025 -0.024 0.031 -0.076 0.057 -0.199 0.082 -0.364 0.188 -0.215 0.093 -0.03 0.045 -0.016 0.062 0.129 0.012 0.05 0.021 -0.031 0.032 -0.19 0.11 -0.056 0.099 0.146 -0.004 0.12 -0.019 0.24 -0.062 0.225 -0.046 0.108 -0.002 0.211 0.037 0.048 0.001 0.089 -0.017 0.09 -0.003 0.612 0.011 0.17 -0.022 0.113 0.026 0.094 0.064 0.089 0.119 -0.003 0.02 -0.054 0.054 -0.1 0.068 -0.086 0.093 -0.025 0.05 -0.017 0.055 -0.027 0.051 -0.171 0.239 -0.166 0.133 -0.074 0.094 -0.092 0.075 -0.088 0.047 -0.094 0.031 -0.272 0.034 -0.076 0.024 -0.091 0.041 -0.096 0.02 0.112 -0.003 0.111 -0.023 0.202 -0.008 0.232 0.079 -0.022 0.065 -0.093 0.051 -0.212 0.008 -0.198 0.114 -0.09 0.035 -0.094 0.017 -0.118 -0.005 -0.215 -0.031 -0.094 -0.032 0.085 0.052 0.096 0.027 0.559 0.064 0.034 -0.007 0.178 -0.068 0.238 -0.001 0.452 0.124 0.13 0.095 0.187 0.136 0.102 0.053 0.073 0.048 0.045 0.072 0.088 0.239 0.1 0.233 0.131 0.253 0.059 0.07 0.078 0.049 0.395 0.113 0.088 0.038 0.153 0.109 0.148 0.116 0.138 0.089 0.148 0.072 -0.072 0.037 -0.049 0.059 0.037 0.08 0.06 0.076 0.119 0.122 0.105 0.134 -0.039 -0.02 -0.041 -0.011 -0.056 0.003 -0.054 -0.006 -0.1 -0.042 -0.096 -0.051 -0.191 0.021 -0.106 -0.009 -0.092 0.001 0.175 0.03 0.191 0.002 0.422 0.224 0.143 0.133 0.085 0.176 -0.058 0.079 -0.09 0.051 -0.084 0.058 -0.079 0.066 0.234 0.097 0.05 -0.003 0.052 -0.014 0.05 -0.033 0.084 -0.08 0.043 -0.029 0.146 -0.01 0.122 0.006 0.122 0.018 0.107 -0.006 0.216 0.034 0.111 0.031 0.275 0.14 0.059 0.076 0.027 0.099 0.003 0.11 -0.046 0.1 -0.053 0.09 -0.033 0.117 -0.023 0.042 -0.032 0.033 -0.146 0.092 -0.097 0.038 -0.041 -0.017 -0.044 0.002 -0.005 0.022 0.046 0.047 0.001 0.057 -0.086 0.042 -0.087 0.018 -0.146 -0.022 -0.203 0.078 0.146 0.04 0.029 0.043 -0.037 0.075 -0.092 0.034 -0.102 0.015 -0.104 0.004 -0.086 0.018 -0.083 0.035 0.104 -0.019 0.072 0.017 0.045 0.063 0.041 0.018 0.203 0.027 0.126 0 0.242 -0.015 0.116 0 0.042 0.011 0.001 0.052 -0.018 0.129 -0.032 0.027 -0.321 0.108 -0.066 0.076 -0.018 0.046 -0.188 -0.008 -0.088 0.048 -0.152 0.032 -0.118 0.034 -0.115 0.043 -0.095 0.013 -0.409 -0.051 -0.247 0.004 -0.334 0.045 -0.086 -0.007 -0.129 -0.043 -0.132 -0.029 -0.152 -0.013 -0.131 -0.04 0.082 0.076 -0.182 0.073 -0.084 0.015 -0.087 -0.002 -0.178 0.02 -0.165 -0.01 0.025 0.052 0.044 0.045 -0.036 0.02 -0.038 0.005 -0.314 -0.034 -0.045 0.006 -0.039 0.032 -0.114 -0.017 -0.111 -0.053 -0.118 -0.036 -0.124 -0.017 -0.099 0.006 -0.405 0.084 -0.081 0.084 -0.04 0.12 -0.058 0.106 -0.095 0.082 -0.114 0.011 -0.107 -0.057 -0.203 -0.063 -0.069 -0.042 -0.022 -0.002 -0.023 0.015 -0.08 0.019 -0.083 0.001 -0.127 0.017 -0.221 0.051 -0.089 0.035 -0.192 0.095 -0.039 0.026 -0.07 0.096 -0.107 0.017 -0.098 -0.062 -0.111 -0.021 -0.117 0.021 -0.071 0.033 -0.033 -0.027 -0.001 -0.055 0.086 -0.065 0.228 -0.049 0.2 -0.128 0.098 -0.078 0.039 -0.044 0.048 -0.028 0.063 -0.011 0.032 -0.048 0.278 -0.194 0.023 -0.045 0.014 -0.08 0.023 -0.077 0.227 -0.05 0.108 -0.161 0.03 -0.013 0.316 -0.03 0.234 0.002 0.233 0.032 0.119 0.003 0.12 -0.011 0.094 -0.044 0.161 -0.157 0.09 -0.069 0.104 -0.062 0.097 -0.071 0.157 -0.132 -0.106 0.046 z M -4.197 -53.321 l 0.042 0.019 0.106 -0.003 -0.035 0.041 -0.116 0.046 -0.078 0.046 -0.094 0.038 -0.046 -0.044 -0.053 0.002 -0.081 -0.084 -0.015 -0.126 0.106 -0.033 0.147 0.002 z M -2.549 -59.231 l -0.113 0.001 0.058 -0.059 0.068 -0.015 0.129 0.007 -0.023 0.027 z M -1.043 -60.514 l -0.025 0.012 -0.098 -0.102 0.072 -0.116 0.088 0.004 0.014 0.03 -0.009 0.028 -0.045 0.002 -0.004 0.009 0.014 0.054 0.001 0.063 z M -1.308 -60.538 l 0.021 0.07 0.052 -0.018 0.078 0.068 0.04 0 0.066 -0.027 -0.013 0.063 -0.068 0.175 -0.019 0.03 -0.013 0.053 -0.014 0.01 -0.02 0.107 -0.046 0.035 -0.038 0.084 -0.016 0.008 -0.056 -0.032 0.056 -0.129 0.023 -0.075 -0.015 -0.039 -0.032 -0.035 -0.086 -0.001 -0.072 0.016 -0.015 -0.021 -0.002 -0.028 -0.017 -0.009 -0.096 0.002 -0.028 -0.008 -0.019 -0.025 -0.004 -0.02 0.087 -0.016 0.082 0.006 0.12 -0.04 -0.075 -0.136 -0.099 -0.013 -0.023 -0.013 0.019 -0.023 0.054 -0.012 0.084 -0.069 0.05 -0.011 0.062 0.002 z M -0.774 -60.812 l 0 0.011 -0.052 0.084 0.001 0.032 -0.084 -0.003 -0.013 -0.01 -0.016 -0.048 0.011 -0.052 0.012 -0.013 0.024 -0.005 0.026 0.01 0.042 -0.026 0.022 0.001 z M -3.165 -58.794 l -0.057 0.013 -0.057 -0.001 -0.088 -0.058 -0.034 -0.042 0.006 -0.028 0.037 -0.009 0.085 0.014 0.044 0.048 0.006 0.031 0.01 0.012 0.053 0.012 z M -2.929 -58.742 l -0.01 0.003 -0.036 -0.018 -0.06 -0.066 0.094 -0.013 0.045 0.008 -0.017 0.028 z M -3.057 -59.03 l -0.013 0.025 0.076 -0.001 0.11 0.021 0.067 0.003 0.055 0.026 -0.031 0.049 -0.033 0.014 -0.038 0.003 -0.131 -0.049 -0.172 0.02 -0.034 -0.006 -0.023 -0.013 -0.009 -0.017 0 -0.034 -0.009 -0.01 -0.062 0.032 -0.027 -0.004 -0.015 -0.015 -0.007 -0.032 0.007 -0.046 0.036 -0.066 0.062 -0.013 0.092 0.008 0.105 0.037 0.032 0.023 -0.001 0.018 z M -2.729 -59.187 l -0.086 0.025 -0.037 -0.021 -0.01 -0.064 -0.102 -0.028 -0.05 -0.017 -0.039 -0.032 0.01 -0.01 0.067 -0.013 0.114 0.059 0.047 0.048 0.084 0.014 0.011 0.007 z M -6.608 -56.585 l -0.057 0.006 -0.004 -0.014 0.099 -0.068 0.064 -0.011 0.022 0.007 -0.046 0.039 z M -5.105 -55.449 l -0.126 0.001 -0.046 -0.009 -0.054 -0.024 -0.061 -0.137 0.022 -0.049 0.025 -0.024 0.028 -0.018 0.067 -0.008 0.066 0.026 0.025 0.024 0.055 0.093 0.01 0.08 z M -5.778 -56.344 l -0.398 0.056 -0.137 -0.005 -0.012 -0.027 0.027 -0.018 0.114 -0.018 0.046 -0.134 -0.172 -0.062 -0.009 -0.017 0.013 -0.029 0.02 -0.013 0.104 -0.031 0.044 -0.007 0.036 0.004 0.073 0.036 0.083 0.075 0.111 0.012 0.075 0.032 z M -6.129 -55.931 l 0.036 0.128 0.035 0.08 0.002 0.027 -0.033 0.038 -0.165 0.05 -0.052 0 -0.002 -0.012 0.037 -0.051 -0.032 -0.058 0.016 -0.044 -0.015 -0.008 -0.032 0.006 -0.118 0.07 -0.039 0.007 -0.004 -0.014 0.029 -0.057 0.004 -0.039 0.018 -0.024 0.032 -0.022 0.038 -0.017 0.031 -0.002 0.033 0.017 0.096 -0.048 z M -5.97 -55.815 l -0.021 0.011 -0.051 -0.003 -0.019 -0.016 -0.01 -0.025 -0.001 -0.045 0.031 -0.033 0.13 -0.049 -0.059 -0.017 -0.002 -0.012 0.034 -0.041 0.139 -0.064 0.037 -0.012 0.037 0.002 -0.072 0.113 z M -6.199 -58.363 l -0.127 0.174 -0.05 0.004 -0.044 0.044 -0.135 0.048 0.118 0.001 0.033 0.016 0.001 0.035 -0.023 0.02 -0.153 0.08 -0.105 0.03 -0.113 0.083 -0.057 0.001 -0.057 0.053 -0.047 0.023 -0.026 0 -0.03 -0.012 -0.07 -0.052 0.127 -0.051 0.012 -0.029 0.087 -0.03 -0.007 -0.009 -0.138 -0.042 -0.055 -0.028 0.005 -0.015 0.067 -0.033 -0.032 -0.004 -0.021 -0.018 -0.039 -0.007 -0.012 -0.016 -0.007 -0.043 0.01 -0.044 0.04 -0.019 0.017 -0.021 0.016 -0.006 0.063 0.011 0.063 0.035 0.074 -0.014 0.086 0.007 0.002 -0.008 -0.063 -0.086 0.011 -0.018 0.034 -0.02 0.198 -0.062 0.247 -0.103 0.06 -0.016 0.018 0.014 0.025 0.054 z M -6.279 -56.965 l -0.03 0.013 -0.037 -0.002 -0.037 -0.017 -0.049 -0.047 0.11 -0.033 0.044 0.019 0.017 0.022 0.001 0.024 z M -6.145 -57.505 l -0.001 0.044 -0.018 0.052 0.023 0.055 0.005 0.039 0.042 0.013 0.026 0.018 0.187 0.02 0.174 -0.006 0.034 0.016 0.004 0.026 -0.028 0.028 -0.099 0.052 -0.118 0.084 -0.035 0.017 -0.038 0.001 -0.027 -0.008 -0.02 -0.149 -0.128 0.019 -0.103 -0.002 -0.057 -0.018 -0.04 -0.035 -0.08 -0.09 -0.233 -0.035 -0.066 -0.05 -0.02 -0.03 0.008 -0.017 0.049 -0.037 0.061 0.013 0.038 -0.008 0.023 -0.016 0 -0.014 -0.032 -0.032 -0.002 -0.01 0.238 -0.041 0.021 -0.063 0.052 -0.005 0.059 0.021 0.081 0.066 z M -7.206 -57.683 l 0.113 0.056 -0.09 0.093 -0.138 0 -0.194 -0.068 -0.001 -0.014 0.016 -0.02 0.029 -0.016 0.03 -0.004 0.048 0.011 0.067 -0.018 0.054 0.006 z M -7.25 -57.115 l -0.042 0.006 -0.055 -0.005 -0.034 -0.016 -0.034 -0.061 -0.006 -0.037 0.015 -0.069 -0.004 -0.083 0.114 -0.003 0.029 0.012 0.02 0.245 z M -7.417 -56.965 l -0.088 0.014 -0.033 -0.008 -0.006 -0.013 0.02 -0.034 0.067 -0.012 0.049 0.019 0.008 0.017 z M -6.218 -54.089 l -0.086 -0.006 -0.06 0.018 -0.039 0.016 -0.038 -0.003 -0.108 0.006 -0.102 -0.001 -0.014 -0.026 0.017 -0.079 -0.023 -0.021 -0.097 -0.011 -0.036 -0.019 -0.056 -0.054 -0.011 -0.025 -0.008 -0.035 -0.059 -0.045 -0.072 -0.032 -0.042 -0.002 -0.084 0.053 -0.069 0.054 0.025 0.027 0.023 0.035 -0.038 0.025 -0.114 0.058 -0.018 0.023 -0.031 0.012 -0.054 -0.016 -0.135 0.004 -0.062 -0.01 -0.072 -0.043 -0.176 -0.029 -0.03 -0.069 -0.034 -0.013 -0.2 -0.118 -0.027 -0.039 0.026 -0.023 0.075 -0.035 0.251 -0.059 0.039 -0.024 0.008 -0.021 -0.074 -0.024 -0.066 -0.026 -0.023 -0.017 -0.002 -0.015 0.038 -0.02 0.076 -0.001 0.06 0.009 0.048 -0.018 0.084 -0.018 0.056 -0.022 0.048 -0.057 0.051 -0.052 0.005 -0.028 0.045 -0.098 0.025 -0.024 0.158 -0.064 0.04 0.035 0.078 0.009 0.07 -0.032 0.084 -0.102 0.058 -0.006 0.064 0.008 0.126 -0.013 0.224 -0.048 0.1 -0.001 0.141 0.025 0.105 -0.001 0.093 0.073 0.05 0.115 0.117 0.113 0.152 0.099 0.006 0.06 -0.054 0.032 -0.114 0.04 0 0.043 0.075 -0.022 0.065 -0.01 0.156 0.01 0.055 0.044 0.038 0.066 0.02 0.054 -0.013 0.059 -0.042 -0.019 -0.043 -0.052 -0.047 -0.024 -0.055 -0.013 0.025 0.072 -0.01 0.096 0.024 0.009 0.074 0.002 -0.049 0.098 -0.101 0.027 -0.118 0.01 -0.028 0.035 -0.021 0.045 -0.062 0.067 -0.081 0.038 -0.1 -0.008 z M -1.066 -50.69 l -0.084 0.035 -0.026 0.04 -0.02 0.016 -0.055 0.01 -0.055 0 -0.209 -0.081 -0.048 0.004 0.048 -0.037 0.13 -0.03 0.073 -0.04 0.169 0.039 z" vector-effect="non-scaling-stroke" fill="#000" fill-opacity="1" stroke="#FFF" stroke-width="0px" stroke-linejoin="round" stroke-linecap="round"/></svg>
