<svg xmlns="http://www.w3.org/2000/svg" xmlns:xlink="http://www.w3.org/1999/xlink" height="400" width="400" viewBox="-58.438134765625 30.10107421875 5.26960284219074 4.83173828125001"><path d="M -53.371 33.742 l -0.049 0.037 -0.053 0.07 -0.062 0.168 -0.208 0.232 -0.042 0.131 -0.225 0.137 -0.158 0.154 -0.104 -0.004 -0.093 0.066 -0.537 0.2 -0.193 -0.038 -0.143 0.001 -0.133 -0.088 -0.303 -0.032 -0.19 0.035 -0.255 0.097 -0.077 -0.001 -0.055 -0.005 -0.138 -0.04 -0.075 -0.086 -0.392 -0.099 -0.316 -0.224 -0.373 -0.004 -0.286 0.029 -0.044 -0.03 -0.029 -0.058 -0.059 -0.083 -0.246 -0.198 -0.193 -0.197 -0.038 -0.193 0.027 -0.21 0.058 -0.249 -0.01 -0.078 0.071 -0.044 0.071 -0.009 0.068 -0.064 0.061 -0.097 0.01 -0.074 -0.047 -0.136 -0.033 -0.191 -0.039 -0.095 0.078 -0.15 0.003 -0.073 -0.045 -0.064 -0.012 -0.066 0.021 -0.067 -0.004 -0.065 -0.029 -0.062 0.022 -0.052 0.072 -0.041 0.054 -0.063 0.035 -0.084 0.018 -0.064 0.001 -0.044 -0.022 -0.042 -0.044 -0.039 0.02 -0.078 0.085 -0.117 0.055 -0.104 0.025 -0.091 -0.002 -0.073 -0.028 -0.056 0.012 -0.038 0.052 -0.02 0.023 -0.059 -0.008 -0.147 -0.054 -0.121 0.041 -0.096 0.119 -0.111 0.062 -0.089 0.005 -0.068 0.037 -0.039 0.057 0.073 0.168 0.019 0.169 0.003 0.028 -0.019 0.066 -0.12 0.088 -0.034 0.095 -0.009 0.105 0.006 0.111 0.08 0.314 0.261 0.231 0.181 0.07 0.085 0.061 0.064 0.046 0.06 -0.019 0.155 0.003 0.068 0.011 0.02 0.053 0.002 0.078 -0.011 0.066 -0.033 0.051 -0.05 0.05 -0.041 0.041 -0.022 0.015 -0.033 0.023 -0.034 0.024 -0.007 0.046 0.025 0.108 0.088 0.083 0.082 0.021 0.047 0.032 0.049 0.034 0.042 0.024 0.041 0.081 0.054 0.082 0.034 0.055 -0.035 0.14 0.112 0.308 0.094 0.057 0.057 0.053 0.081 0.108 0.122 0.149 0.11 0.12 0.046 0.115 0.027 0.065 0.024 0.044 0.042 0.07 0.045 0.044 0.017 0.015 0.041 0.045 0.089 0.048 0.112 0.052 0.104 0.112 0.1 0.127 0.078 0.131 0.044 0.063 0.046 -0.009 0.007 -0.039 0.028 -0.048 0.026 -0.036 0.028 -0.011 0.032 0 0.041 -0.01 0.048 -0.031 0.043 -0.052 0.028 -0.067 0.005 -0.073 0.066 -0.053 0.054 -0.025 0.057 0.004 0.055 0.016 0.051 0.018 0.057 0.009 0.069 0.004 0.066 0.006 0.049 0.01 0.032 0.013 0.025 0.011 0.008 -0.004 0.075 0.006 0.033 0.013 0.022 0.055 0.033 0.066 0.027 z" vector-effect="non-scaling-stroke" fill="#000" fill-opacity="1" stroke="#FFF" stroke-width="0px" stroke-linejoin="round" stroke-linecap="round"/></svg>
