<svg xmlns="http://www.w3.org/2000/svg" xmlns:xlink="http://www.w3.org/1999/xlink" height="400" width="400" viewBox="55.97568359375 -45.55537109375 17.16123046875 8.383154296875"><path d="M 70.947 -42.249 l 0.032 -0.018 0.057 -0.018 0.094 0.035 0.083 0.044 0.02 0.02 -0.004 0.023 -0.196 0.085 -0.122 0.04 -0.054 0.007 -0.015 0.011 -0.039 0.097 -0.076 0.017 -0.097 0.03 -0.068 0.045 -0.108 0.106 -0.274 0.154 -0.004 0.031 0.024 0.026 0.089 0.018 0.118 0.047 0.064 0.037 0.175 -0.048 0.043 0.011 0.046 0.049 0.048 0.138 0.078 0.038 0.102 0.029 0.063 0.009 0.085 0.034 0.113 0.013 0.075 -0.013 0.094 0.029 0.015 -0.013 0.012 -0.206 0.079 0.034 0.046 -0.001 0.04 -0.025 0.021 -0.034 0.013 -0.068 -0.017 -0.068 0.035 -0.031 0.027 -0.007 0.02 0.008 0.012 0.017 0.003 0.062 0.057 0.026 0.035 0.015 0.033 0.052 0.032 0.05 0.021 0.116 0.08 0.008 0.094 0.022 0.063 -0.022 0.049 0.013 0.017 0.055 0 0.052 0.007 0.041 0.026 0.012 0.082 -0.026 0.069 -0.004 0.063 0.025 0.079 0.037 0.114 0.098 0.038 0.014 0.173 0.008 0.036 0.02 0.059 0 0.064 -0.018 0.142 0.032 0.005 0.018 -0.024 0.025 -0.339 0.136 -0.025 0.042 -0.069 0.053 -0.075 0.03 -0.037 0.001 -0.165 -0.054 -0.019 0.013 -0.014 0.022 0.001 0.024 0.036 0.057 -0.017 0.036 -0.032 0.026 -0.104 -0.023 -0.019 -0.014 -0.002 -0.016 -0.04 0 -0.062 0.016 -0.119 0.098 -0.042 0.051 -0.015 0.031 -0.053 0.018 -0.057 0.007 -0.073 0.046 -0.08 0.036 -0.026 -0.026 -0.016 -0.029 -0.021 -0.009 -0.049 0.007 -0.06 0.001 -0.063 -0.033 -0.081 -0.033 -0.071 -0.012 -0.21 0.016 -0.104 0.016 -0.033 0.016 -0.059 0.004 -0.246 0.033 -0.05 -0.013 -0.037 -0.053 -0.032 -0.057 -0.064 -0.021 -0.072 -0.016 -0.027 -0.023 -0.002 -0.028 0.007 -0.027 0.005 -0.014 0.166 -0.109 0.15 -0.098 0.014 -0.008 0.014 -0.019 0.025 -0.034 0 -0.018 -0.112 -0.039 -0.004 -0.018 0.023 -0.019 0 -0.025 -0.079 -0.072 -0.137 -0.112 -0.04 -0.012 -0.029 0.007 -0.054 0.108 -0.027 0.028 -0.156 0.071 -0.131 0.049 -0.232 0.087 -0.06 0.027 -0.042 -0.005 -0.042 -0.017 -0.13 -0.088 -0.084 -0.03 -0.057 0.03 -0.048 0.043 0.005 0.089 -0.054 0.047 -0.054 0.021 0.098 0.239 -0.01 0.031 -0.075 0.008 0.055 0.09 -0.047 0.01 -0.118 -0.021 -0.159 -0.014 -0.299 0.04 -0.022 0.016 -0.008 0.02 0.017 0.018 0.145 0.002 0.142 -0.009 0.039 0.017 0.006 0.03 -0.016 0.019 -0.047 0.003 -0.104 0.018 -0.012 0.019 -0.003 0.018 0.035 0.053 0.039 0.033 0.005 0.02 -0.017 0.017 -0.02 0.007 -0.035 -0.025 -0.02 0.005 -0.01 0.022 -0.01 0.026 -0.023 0.019 -0.048 -0.01 -0.048 0.007 -0.029 0.096 -0.024 0.108 -0.079 0.072 -0.044 0.026 -0.064 0.008 -0.096 -0.009 -0.058 -0.011 -0.168 -0.016 -0.169 -0.03 -0.19 -0.028 -0.177 0.064 -0.051 0.039 -0.032 0.036 -0.033 0.017 -0.077 0.223 0.008 0.025 0.043 0.02 0.216 0.046 0.032 0.019 0.019 0.022 0.009 0.101 0.018 0.014 0.074 0.012 0.107 -0.001 0.084 -0.01 0.085 0.009 0.059 0.022 0.029 0.034 0.016 0.037 -0.101 0.221 0.008 0.08 0.031 0.115 0.057 0.09 0.107 0.089 0.082 0.057 0.017 0.027 0.004 0.042 -0.013 0.053 -0.047 0.084 -0.058 0.073 -0.063 0.031 -0.086 0.093 -0.077 0.115 -0.147 0.15 -0.049 0.084 -0.016 0.242 -0.039 0.073 -0.006 -0.028 -0.053 -0.027 -0.093 0.005 -0.061 -0.013 -0.029 -0.031 -0.076 0.009 -0.122 0.048 -0.124 -0.026 -0.127 -0.1 -0.241 -0.036 -0.305 0.023 -0.012 -0.11 0.001 -0.14 0.014 -0.187 0.104 -0.146 -0.003 -0.028 -0.02 -0.027 -0.032 -0.024 -0.185 -0.04 -0.054 -0.021 -0.072 -0.046 -0.091 -0.049 -0.078 -0.033 -0.124 -0.044 -0.114 -0.025 -0.067 0.019 -0.062 0.024 -0.058 0.001 -0.058 -0.013 -0.213 -0.11 -0.323 -0.191 -0.256 -0.133 -0.161 -0.064 -0.038 -0.02 -0.09 -0.06 -0.222 -0.161 -0.147 0.024 -0.21 -0.105 -0.189 -0.102 -0.043 -0.028 -0.215 -0.189 -0.214 -0.122 -0.234 -0.134 -0.151 -0.084 -0.256 -0.142 -0.125 -0.086 -0.042 -0.032 -0.042 -0.061 -0.067 -0.296 -0.077 -0.135 -0.11 -0.074 -0.093 -0.142 -0.077 -0.21 -0.064 -0.137 -0.051 -0.063 -0.103 -0.07 -0.155 -0.076 -0.148 -0.036 -0.053 0.001 -0.026 0.009 -0.03 0.013 -0.059 0.057 -0.087 0.006 -0.063 -0.001 -0.059 -0.02 -0.187 -0.018 -0.066 -0.02 -0.112 0.003 -0.241 0.03 -0.059 -0.005 -0.255 -0.127 -0.11 -0.05 -0.022 -0.028 0.001 -0.049 0.037 -0.069 0.032 -0.049 -0.014 -0.051 -0.048 -0.056 0 -0.059 0.033 -0.033 0.068 0.01 0.024 -0.021 -0.009 -0.031 -0.037 -0.023 -0.049 -0.05 -0.144 -0.047 -0.021 -0.019 0.008 -0.022 0.025 -0.023 0.005 -0.049 0.002 -0.064 0.019 -0.033 0.005 -0.026 -0.021 -0.021 -0.049 -0.024 -0.078 -0.059 -0.096 -0.006 -0.312 0.002 -0.097 -0.024 -0.078 -0.033 -0.077 -0.126 -0.04 -0.03 -0.036 -0.012 -0.087 -0.004 -0.105 -0.012 -0.054 -0.021 -0.147 -0.115 -0.141 -0.102 -0.057 0.097 -0.055 0.019 -0.124 -0.009 -0.093 -0.016 -0.053 0.022 -0.055 0.038 0.01 0.025 0.042 0.027 0.085 0.049 0.129 0.121 0.059 0.067 0.009 0.023 -0.011 0.017 -0.017 0.008 -0.026 0 -0.034 0 -0.02 -0.02 -0.007 -0.034 -0.043 -0.052 -0.044 -0.03 -0.049 -0.019 -0.068 -0.014 -0.09 -0.025 -0.047 -0.001 -0.045 0.029 -0.038 0.039 -0.022 0.085 -0.067 0.104 -0.042 0.041 -0.128 0.025 -0.068 0.002 -0.068 -0.098 -0.158 -0.074 -0.12 0.032 -0.09 0.118 -0.089 0.217 -0.005 0.024 -0.055 0.029 -0.07 0.058 0.021 0.187 0.033 0.219 0.058 0.061 0.037 0.018 0.005 0.021 -0.024 0.019 -0.031 0.024 -0.046 0.044 -0.052 -0.002 -0.105 -0.011 -0.087 -0.012 -0.294 -0.013 -0.238 -0.01 -0.265 -0.011 0 -0.23 0 -0.23 0 -0.23 0 -0.23 0 -0.23 0 -0.23 0 -0.23 0 -0.23 0 -0.229 0 -0.23 0 -0.23 0 -0.23 0 -0.23 0 -0.23 0 -0.23 0 -0.23 0.125 -0.028 0.157 -0.036 0.151 -0.034 0.18 -0.041 0.203 -0.046 0.173 -0.04 0.207 -0.047 0.158 -0.036 0.148 -0.034 0.189 -0.04 0.294 -0.062 0.164 -0.035 0.166 -0.035 0.158 -0.033 0.106 -0.012 0.03 0.013 -0.012 0.01 -0.025 0.124 -0.132 0.117 -0.045 0.16 -0.06 0.069 -0.091 0.215 0.1 0.244 -0.084 0.079 -0.002 0.064 0.025 0.029 0.104 0.007 0.119 -0.08 0.041 -0.065 0.038 -0.203 0.062 -0.046 -0.057 -0.097 0.021 -0.075 -0.041 -0.018 0.135 -0.122 -0.053 -0.134 0.043 -0.196 0.03 -0.032 0.105 0.05 0.138 0.066 0.138 0.066 0.138 0.066 0.138 0.066 0.138 0.066 0.138 0.066 0.138 0.066 0.138 0.066 0.138 0.066 0.138 0.066 0.138 0.066 0.138 0.066 0.138 0.066 0.138 0.066 0.138 0.066 0.129 0.061 0.057 0.045 0.032 0.1 0.064 0.08 0.111 0.086 0.114 0.088 0.141 0.117 0.098 0.081 0.1 0.083 0.164 0.136 0.103 0.085 0.082 0.003 0.166 -0.02 0.221 -0.027 0.175 -0.021 0.212 -0.026 0.201 -0.025 0.159 -0.019 0.238 0.015 0.235 0.015 0.168 0.01 0.165 0.01 0.196 0.012 0.109 0.007 0.125 0.008 0.053 -0.02 0.108 -0.042 0.102 -0.04 0.106 -0.041 0.094 -0.021 0.098 0.066 0.082 0.075 0.086 0.079 0.1 0.077 0.096 0.046 0.13 0.061 0.075 0.105 0.1 0.141 0.065 0.092 0.067 0.095 0.098 -0.038 0.105 -0.04 0.095 -0.036 -0.011 0.117 -0.01 0.107 -0.016 0.161 -0.013 0.132 -0.034 0.158 -0.002 0.12 -0.002 0.106 -0.002 0.084 0.184 0.004 0.136 0.003 0.17 0.003 0.016 0.105 0.023 0.148 0.035 0.134 0.029 0.113 0.044 0.146 0.023 0.078 0.041 0.092 0.04 0.022 0.064 0.015 0.224 -0.011 0.186 -0.009 0.147 -0.007 0.156 -0.008 0.207 -0.01 0.07 0.023 0.061 -0.016 0.07 -0.016 0.056 0.067 0.028 0.034 0.04 0.035 0.054 0.033 -0.023 0.068 -0.033 0.1 -0.009 0.051 0.065 0.055 0.048 0.032 0.132 0.066 0.123 0.037 0.081 0.011 0.077 -0.014 0.028 -0.037 -0.007 -0.051 -0.037 -0.054 0.003 -0.064 0.025 -0.047 0.079 -0.085 0.074 -0.08 0.114 -0.082 0.136 -0.081 0.057 -0.059 0.021 -0.103 0.089 -0.058 0.096 -0.035 0.119 -0.03 0.033 -0.051 0.164 -0.087 0.099 -0.043 0.124 -0.025 0.172 -0.057 0.136 -0.066 0.13 -0.125 0.103 -0.082 0.087 -0.051 0.073 -0.002 0.051 0.041 0.044 0.003 0.029 -0.019 0.049 -0.053 0.053 -0.061 0.049 -0.026 0.096 -0.013 z M 70.653 -40.937 l -0.003 -0.024 -0.031 -0.041 -0.046 -0.023 -0.022 0.01 0.019 0.033 0.054 0.047 z M 71.206 -39.893 l -0.05 0.009 -0.092 -0.001 -0.053 -0.01 0.032 -0.081 0.001 -0.016 -0.004 -0.002 -0.027 -0.011 -0.04 -0.033 -0.014 -0.049 0.016 -0.045 0.029 -0.019 0.019 0.003 0.056 0.069 0.05 0.02 0.098 0.012 -0.049 0.068 0.036 0.073 z M 71.78 -39.95 l -0.027 0.043 -0.047 -0.01 -0.037 -0.029 0.012 -0.023 0.055 -0.012 0.029 -0.012 0.025 -0.002 z" vector-effect="non-scaling-stroke" fill="#000" fill-opacity="1" stroke="#FFF" stroke-width="0px" stroke-linejoin="round" stroke-linecap="round"/></svg>
