<svg xmlns="http://www.w3.org/2000/svg" xmlns:xlink="http://www.w3.org/1999/xlink" height="400" width="400" viewBox="166.52607421875 13.70947265625 3.37021484375003 6.53232421875001"><path d="M 166.746 14.827 l 0.064 0.331 0.075 -0.001 0.038 -0.018 0.044 -0.077 0.02 -0.122 0.039 -0.017 0.049 0.013 -0.021 0.039 0.014 0.097 0.038 0.054 0.025 0.01 0.05 0.254 0.019 0.053 -0.001 0.043 -0.106 0.095 -0.157 -0.003 -0.111 0.057 -0.067 -0.004 0.001 -0.064 -0.06 -0.051 -0.068 -0.11 0.017 -0.195 -0.121 -0.361 -0.001 -0.09 0.041 -0.118 0.04 -0.005 0.055 0.099 z M 167.413 16.096 l 0.046 0.022 0.025 0 0.015 0.049 0.143 0.097 0.039 -0.003 0.033 0.053 0.062 0.027 0.017 0.054 0.044 0.055 -0.077 0.067 -0.148 -0.018 -0.085 0.076 -0.077 -0.019 -0.013 -0.04 0.011 -0.013 -0.046 -0.101 -0.021 -0.155 -0.031 -0.091 -0.034 -0.039 -0.07 0.034 -0.028 0.006 -0.067 -0.075 0.032 -0.152 0.017 -0.043 0.054 -0.008 0.082 0.04 z M 168.447 16.779 l 0.03 0.015 -0.016 0.041 -0.137 -0.047 -0.11 0.018 -0.031 -0.002 -0.033 -0.038 -0.024 -0.076 0.011 -0.053 0.046 -0.037 0.017 -0.006 0.035 0.046 0.032 0.031 0.031 0.013 0.07 0.075 z M 168.297 16.337 l -0.114 0.01 -0.161 -0.031 -0.065 -0.043 -0.028 -0.044 0.056 -0.032 0.08 -0.015 0.1 -0.1 0.034 0.038 0.037 0.112 0.04 0.034 0.022 0.034 z M 168.446 17.542 l 0.1 0.142 0.04 0.011 -0.06 0.102 -0.125 0.009 -0.148 -0.026 0.054 -0.035 -0.028 -0.04 -0.045 -0.008 -0.051 0.019 -0.024 -0.006 0.033 -0.066 0.082 -0.093 0.024 -0.007 0.022 -0.001 0.021 0.008 z M 167.911 15.436 l -0.067 0.046 -0.124 -0.004 -0.046 -0.026 0.152 -0.14 0.176 -0.029 z M 168.213 15.97 l -0.017 0.001 -0.017 -0.046 -0.056 -0.245 0.037 -0.219 0.024 0.046 0.084 0.384 -0.011 0.063 z M 168.189 15.329 l -0.017 0.062 -0.041 -0.072 -0.026 -0.302 0.011 -0.028 0.021 -0.002 0.05 0.21 z M 167.219 15.724 l -0.018 0.026 -0.106 -0.065 0.024 -0.063 0.115 0.022 z M 167.585 14.261 l -0.042 0.051 -0.113 -0.017 -0.027 -0.013 0.007 -0.084 0.028 -0.029 0.067 -0.026 0.092 0.042 z M 167.489 13.907 l -0.015 0.01 -0.023 -0.008 -0.059 -0.121 0.015 -0.04 0.074 -0.039 0.066 0.067 0.006 0.037 0 0.032 -0.01 0.027 -0.044 0.011 z M 169.896 20.187 l -0.035 0.055 -0.054 -0.001 -0.07 -0.039 0.013 -0.049 0.079 -0.009 0.023 0.003 z M 169.491 19.54 l -0.053 0.109 -0.091 -0.025 -0.085 -0.079 -0.044 -0.069 0.03 -0.132 0.044 -0.023 0.046 0.008 0.023 0.129 z M 169.334 18.94 l -0.046 0.048 -0.04 -0.005 -0.261 -0.112 0.011 -0.046 -0.011 -0.118 0.029 -0.064 0.072 -0.026 0.056 0.014 0.034 0.094 0.078 0.038 -0.055 0.032 0.095 0.071 z" vector-effect="non-scaling-stroke" fill="#000" fill-opacity="1" stroke="#FFF" stroke-width="0px" stroke-linejoin="round" stroke-linecap="round"/></svg>
