<svg xmlns="http://www.w3.org/2000/svg" xmlns:xlink="http://www.w3.org/1999/xlink" height="400" width="400" viewBox="-73.3662109375 -12.177880859375 13.5373046875 11.489892578125"><path d="M -60.821 -9.138 l -0.12 0.033 0.002 -0.027 0.032 -0.046 0.062 -0.013 0.023 -0.016 0.04 -0.011 0.023 0.002 0.023 0.013 -0.055 0.026 z M -63.849 -11.131 l 0.032 0.131 -0.01 0.025 -0.091 0.088 -0.076 0.006 -0.061 -0.003 -0.046 -0.017 -0.06 -0.057 -0.058 0.017 -0.144 -0.02 -0.04 -0.02 0.054 -0.07 0.099 -0.028 0.036 -0.006 0.029 0.043 0.072 0.037 0.084 0.004 0.021 -0.067 0.114 -0.099 z M -65.213 -10.906 l -0.054 0.022 -0.099 -0.022 -0.049 -0.031 0.031 -0.036 0.081 0 0.076 0.044 z M -60.998 -8.867 l -0.062 0.02 -0.009 -0.1 0.019 -0.027 0.106 -0.081 0.029 -0.015 0.021 0.017 -0.005 0.021 0.051 0.036 -0.012 0.046 -0.055 0.05 z M -60.018 -8.549 l 0.186 0.243 0.003 0.027 -0.02 0.03 -0.116 0.057 -0.026 0.03 -0.042 0.108 -0.146 0.06 -0.101 0.075 -0.068 0.065 -0.034 0.026 -0.133 0.014 -0.043 0.041 -0.054 0.124 -0.039 0.052 -0.069 0.061 -0.001 0.037 0.096 0.135 0.017 0.042 -0.03 0.064 0.003 0.046 0.05 0.055 0.06 0.013 0.058 -0.023 0.073 0.002 0.047 0.015 0.02 0.016 0.003 0.042 -0.03 0.089 -0.043 0.058 -0.191 0.088 -0.085 0.051 -0.047 0.038 -0.103 -0.02 -0.052 0.002 -0.04 0.029 -0.024 0.025 -0.069 0.006 -0.098 0.015 -0.041 0.017 -0.032 0.044 -0.026 0.063 0.022 0.075 0.031 0.067 -0.001 0.061 0.024 0.171 -0.031 0.04 -0.065 0.045 -0.078 0.08 -0.088 0.111 0.014 0.032 0.21 0.233 0.213 0.237 0.212 0.235 0.03 0.01 0.04 0.027 0.037 0.082 0.031 0.087 0.001 0.045 -0.024 0.057 -0.052 0.065 -0.063 0.053 -0.092 0.045 -0.073 0.042 -0.06 0.112 -0.036 0.039 -0.033 0.016 -0.066 0.015 -0.107 -0.003 -0.071 -0.009 -0.087 0.084 -0.112 0.031 -0.075 0.114 -0.267 0.091 -0.261 0.071 -0.072 0.028 -0.258 -0.058 -0.062 0.018 -0.071 0.054 -0.066 0.042 -0.056 0.003 -0.047 0.022 -0.028 0.078 -0.025 0.267 -0.092 0.079 -0.112 0 -0.077 -0.093 -0.091 -0.07 -0.158 -0.166 -0.044 -0.022 -0.041 0.001 -0.147 0.049 -0.07 -0.021 -0.056 -0.026 -0.094 0.008 -0.168 0.002 -0.107 0.002 -0.052 -0.045 -0.048 -0.093 -0.033 -0.033 -0.038 -0.027 -0.063 -0.013 -0.27 0 -0.051 0 -0.037 -0.018 -0.052 -0.079 -0.057 -0.037 -0.066 -0.002 -0.029 0.044 0.115 0.143 0.034 0.077 0.101 0.112 0.293 0.237 0.054 0.075 -0.006 0.096 -0.002 0.147 0.01 0.139 0.075 0.2 0.106 0.203 0.029 0.13 -0.02 0.096 -0.02 0.051 0.002 0.023 0.022 0.021 0.101 0.029 0.212 0.018 0.128 0 0.195 0.022 0.014 0.071 -0.019 0.118 -0.039 0.067 -0.031 0.02 -0.106 0.016 -0.112 0.072 -0.162 0.071 -0.093 0.01 -0.039 0.014 -0.033 0.021 -0.027 0.027 -0.032 0.134 -0.048 0.151 -0.09 0.09 -0.099 0.074 -0.101 0.008 -0.081 -0.006 -0.04 0.022 -0.058 0.061 -0.083 0.076 -0.064 0.041 -0.086 -0.004 -0.092 0.037 -0.116 0.061 -0.077 0.05 -0.066 0.086 -0.094 0.09 -0.097 0.063 -0.046 0.078 -0.066 0.099 -0.083 0.003 -0.007 -0.06 0.04 -0.096 -0.043 -0.083 -0.079 -0.044 -0.037 -0.013 -0.037 0.005 -0.093 0.041 -0.115 0.074 -0.07 0.053 -0.064 0.024 -0.131 0.022 -0.11 0.011 -0.045 -0.015 -0.082 -0.054 -0.19 -0.17 -0.257 -0.231 -0.019 -0.067 0.011 -0.068 -0.047 -0.1 -0.027 -0.106 -0.023 -0.037 -0.007 -0.079 -0.056 -0.143 -0.046 -0.117 -0.042 -0.06 0.018 -0.051 -0.018 -0.051 -0.034 -0.041 -0.05 -0.133 0.018 -0.057 -0.013 -0.057 -0.042 -0.039 -0.06 -0.042 -0.079 -0.088 -0.095 -0.084 -0.049 -0.033 -0.033 -0.013 -0.029 -0.079 -0.022 -0.024 -0.049 -0.007 -0.099 -0.033 -0.093 0.04 -0.002 -0.062 0.026 -0.038 0.32 -0.294 0.161 -0.135 0.017 -0.02 0.014 -0.031 0.011 -0.042 -0.037 -0.048 -0.151 -0.227 -0.052 -0.043 -0.051 -0.035 -0.059 -0.095 -0.071 -0.222 -0.051 -0.112 -0.015 -0.086 0.003 -0.097 -0.019 -0.074 -0.041 -0.052 0 -0.159 0.041 -0.265 0.01 -0.202 -0.021 -0.138 0.036 -0.105 0.094 -0.072 0.052 -0.111 0.011 -0.151 0.056 -0.124 0.101 -0.097 0.035 -0.096 -0.032 -0.094 -0.01 -0.06 -0.086 -0.062 -0.159 -0.043 -0.132 -0.005 -0.08 0.048 -0.204 0.044 -0.329 0.041 -0.265 0 -0.201 -0.041 -0.153 0.014 -0.105 0.069 -0.074 0.016 -0.043 -0.038 -0.046 -0.01 -0.07 0.024 -0.012 -0.011 -0.156 -0.187 -0.144 -0.173 -0.165 -0.206 -0.191 -0.238 -0.034 -0.016 -0.059 0.002 -0.078 0.004 -0.121 -0.025 -0.083 -0.035 -0.065 -0.033 -0.12 -0.042 -0.082 -0.007 -0.074 0.012 -0.203 0.083 -0.115 0.008 -0.089 0.002 -0.239 -0.041 -0.164 -0.007 -0.19 0.027 -0.081 0.015 -0.114 -0.042 -0.078 -0.064 -0.072 -0.153 -0.051 -0.121 -0.089 -0.024 -0.098 -0.021 -0.048 -0.04 -0.029 -0.069 -0.007 -0.089 0.01 -0.145 0.009 -0.052 0.014 -0.156 0.054 -0.082 0.034 -0.04 -0.007 -0.065 -0.026 -0.134 -0.026 -0.095 -0.109 -0.108 -0.14 -0.138 -0.06 -0.221 -0.071 -0.261 -0.056 -0.026 -0.052 0.013 -0.056 -0.013 -0.049 -0.105 -0.049 -0.02 -0.078 0.037 -0.056 0.029 -0.144 0.026 -0.029 -0.026 0.01 -0.033 0.061 -0.095 0.071 -0.122 0.083 -0.111 0.077 -0.114 0.058 -0.121 0.039 -0.241 0.027 -0.166 0.071 -0.296 0.13 -0.236 0.049 -0.109 0.118 -0.141 0.054 -0.077 0.072 -0.06 0.198 -0.082 0.236 -0.406 0.054 -0.064 0.239 -0.06 0.183 -0.047 0.136 -0.049 0.045 -0.026 0.036 -0.012 -0.03 0.047 -0.065 0.06 -0.074 0.036 -0.38 0.091 -0.039 0.019 -0.049 0.038 0 0.087 0.01 0.068 0.112 0.224 0.044 0.055 0.15 0.122 -0.034 0.017 -0.055 0.002 0.04 0.159 0.092 0.109 0.004 0.069 -0.071 0.214 -0.129 0.128 -0.091 0.149 -0.071 0.059 -0.157 0.292 0.12 0.174 0.017 0.088 0.103 0.126 0.067 0.041 0.045 0.051 -0.021 0.086 0.041 0.116 0.053 0.061 0.067 0.025 0.083 0 0.239 -0.077 0.057 -0.035 0.036 -0.062 0.12 -0.126 0.007 -0.163 0.026 -0.195 -0.029 -0.127 -0.125 -0.181 -0.055 -0.129 -0.124 -0.12 -0.076 -0.205 -0.031 -0.064 -0.024 -0.089 -0.027 -0.157 0.083 -0.057 -0.008 -0.129 0.205 -0.035 0.444 -0.209 0.275 -0.053 0.313 -0.112 0.073 -0.055 0.063 -0.092 0.049 -0.011 0.163 0.086 0.081 -0.03 0.032 -0.067 -0.044 -0.131 -0.094 0 -0.282 0.048 -0.028 -0.056 0 -0.049 -0.067 -0.156 0.041 -0.117 0.042 -0.095 0.081 -0.038 0.118 -0.041 0.09 0.063 0.054 0.06 0.029 0.059 0.02 0.159 0.048 0.161 0.05 0.112 0.08 0.084 0.062 -0.006 0.044 -0.014 0.293 -0.019 0.178 0.057 0.227 0.029 0.212 0.122 0.218 0.148 0.055 0.108 0.018 0.104 0.053 0.069 -0.053 0.071 0.028 0.119 0.062 0.12 0.094 0.076 0.268 0.021 0.29 -0.052 0.448 -0.047 0.144 -0.04 0.742 -0.022 0.141 0.058 0.014 0.058 0.002 0.044 0.239 0.215 0.196 0.029 0.167 0.069 0.172 0.037 0.188 0.052 0.106 -0.007 0.079 -0.018 0.094 -0.003 0.662 -0.36 0.355 0.009 0.055 -0.023 0.047 -0.031 -0.131 -0.055 -0.295 -0.021 -0.09 0.037 -0.051 -0.093 0.096 0.002 0.329 -0.031 0.377 0.021 0.307 -0.066 0.154 -0.011 0.089 0.013 0.244 -0.043 0.46 0.05 0.363 -0.041 -0.042 0.06 -0.119 0.036 -0.192 0.011 -0.147 0.087 -0.314 -0.016 -0.22 0.031 0.071 0.024 0 0.089 0.03 0.018 0.032 0.001 0.075 0.066 0.02 0.043 0.024 0.091 -0.033 0.098 -0.046 0.044 0.089 -0.015 0.051 -0.046 -0.007 -0.046 0.007 -0.054 0.05 0.017 0.035 0.024 0.114 0.258 0.081 0.135 0.021 -0.005 0.019 -0.005 0.024 -0.026 0.036 -0.064 0.031 0.04 0.018 0.015 0.019 0.005 -0.017 -0.058 0.023 -0.074 -0.008 -0.026 0.036 -0.006 0.043 0.01 0.061 0.02 0.108 0.085 0.071 0.088 0.006 0.049 0.026 0.028 0.047 0.029 0.023 0.045 0.004 -0.071 -0.027 -0.052 -0.007 -0.059 0.141 -0.003 0.037 -0.078 0.077 0.047 0.203 0.214 0.075 0.035 0.221 0.041 0.139 0.103 0.082 0.093 -0.048 0.097 -0.13 0.048 -0.052 0.061 -0.03 0.059 0 0.06 -0.039 0.069 -0.006 0.024 -0.024 0.098 -0.054 0.118 -0.071 0.125 -0.371 0.003 0.092 0.051 0.084 0.037 0.139 0.098 0.11 -0.077 0.158 -0.006 0.171 -0.086 0.064 -0.013 0.319 0.045 0.077 -0.063 0.064 -0.019 0.173 0.012 z" vector-effect="non-scaling-stroke" fill="#000" fill-opacity="1" stroke="#FFF" stroke-width="0px" stroke-linejoin="round" stroke-linecap="round"/></svg>
