<svg xmlns="http://www.w3.org/2000/svg" xmlns:xlink="http://www.w3.org/1999/xlink" height="400" width="400" viewBox="102.12744140625 -23.34521484375 7.31748046875003 14.761962890625"><path d="M 104.064 -10.391 l 0.019 0.05 -0.007 0.116 -0.039 0.114 0.012 0.05 -0.03 0.032 -0.066 -0.214 -0.084 -0.092 -0.018 -0.036 0.049 0.003 0.087 -0.058 0.042 -0.001 z M 107.973 -21.508 l -0.047 0.009 -0.117 0.002 -0.102 0.091 -0.071 0.038 -0.11 0.032 -0.117 0.051 -0.034 0.091 -0.003 0.066 -0.019 0.073 -0.19 0.106 -0.053 -0.011 -0.037 -0.04 -0.056 0.008 -0.038 0.02 -0.045 -0.003 -0.05 0.024 -0.066 -0.008 -0.06 -0.034 -0.035 -0.009 -0.042 0 -0.008 0.04 0.062 0.154 0.016 0.071 -0.203 0.208 0.022 0.134 -0.055 0.103 -0.122 0.083 -0.23 0.214 -0.104 0.005 -0.078 0.048 -0.17 0.352 -0.002 0.12 -0.027 0.088 0.006 0.085 -0.075 0.166 -0.077 0.071 -0.017 0.091 0.11 0.187 0.012 0.033 0.064 0.1 0.031 0.072 0.049 0.072 0.177 0.186 0.079 0.057 0.095 0.039 0.172 0.168 0.087 0.107 -0.04 0.073 0.02 0.154 -0.123 -0.045 0.015 0.018 0.146 0.084 0.219 0.296 0.19 0.146 0.194 0.166 0.06 0.158 0.175 0.104 0.194 0.151 -0.008 0.034 0.053 0.041 0.131 0.08 0.079 0.085 0.031 0.081 0.048 0.013 0.054 -0.02 0.054 -0.008 0.039 0.006 0.059 0.088 0.082 0.079 0.039 0.073 0.032 -0.01 0.027 0.011 0.007 0.061 0.012 0.04 0.109 0.117 0.052 0.11 0.13 0.178 0.096 0.101 0.069 0.057 0.079 0.049 0.077 0.197 0.042 0.179 0.083 0.199 0.062 0.087 0.002 0.164 0.05 0.168 0.054 0.114 0.016 0.116 0.017 0.058 0.021 0.043 0.059 0.197 -0.015 0.091 -0.041 -0.09 0.005 0.264 0.036 0.14 -0.016 0.171 0.038 0.06 0.067 0.194 0.047 0.07 -0.004 0.237 0.025 0.119 -0.063 -0.071 -0.046 -0.081 -0.062 0.043 -0.055 0.063 0.086 0.255 -0.098 -0.024 0.009 0.342 0.041 0.08 0.003 0.038 -0.012 0.046 -0.027 -0.05 -0.006 -0.052 -0.015 0.011 0.001 0.027 -0.033 0.06 -0.01 0.075 0.035 0.064 0.006 0.049 -0.025 0.06 -0.041 0.064 -0.093 0.008 -0.021 0.124 -0.032 0.132 -0.166 0.021 -0.121 0.116 -0.149 0.043 -0.133 0.115 -0.147 0.106 -0.096 0.014 -0.081 0.023 -0.094 0.177 -0.156 0.02 -0.281 0.145 -0.094 0.07 -0.086 0.027 -0.123 0.06 -0.026 -0.021 -0.041 -0.052 -0.106 -0.027 -0.052 -0.058 -0.015 -0.075 -0.014 -0.03 -0.023 0.042 -0.018 0.178 -0.019 0.04 -0.045 0.018 -0.089 -0.05 -0.085 -0.102 -0.121 0.071 0.037 0.009 0.055 -0.006 0.043 0.018 0.036 0.068 -0.001 0.037 -0.019 0.043 -0.114 0.007 -0.152 -0.015 -0.028 0.006 0.138 0.067 0.127 0.038 0.056 0.042 0 0.035 -0.071 0.056 -0.055 0.069 -0.001 0.043 -0.001 0.048 -0.061 0.041 -0.038 -0.008 -0.108 -0.072 -0.313 -0.282 0.047 0.08 0.324 0.321 0.057 0.106 0.008 0.075 -0.033 0.038 -0.055 0.044 -0.106 0.003 -0.174 -0.119 -0.278 -0.286 -0.095 -0.039 0.282 0.327 0.046 0.079 0.048 0.092 -0.014 0.055 -0.024 0.051 -0.667 0.304 -0.1 0.131 -0.079 0.161 -0.131 0.09 -0.077 0.082 -0.222 0.046 -0.121 -0.014 0.126 -0.149 -0.078 -0.055 -0.004 -0.384 0.031 -0.421 0.058 -0.21 0.084 -0.052 0.105 -0.032 0.002 -0.044 -0.01 -0.05 -0.057 -0.072 -0.062 -0.033 -0.093 -0.014 -0.071 -0.088 -0.054 0.004 -0.084 0.029 -0.051 -0.038 -0.019 -0.059 -0.078 -0.073 -0.09 -0.071 0.041 -0.011 0.047 -0.041 0.05 -0.053 0.125 -0.007 0.126 0.002 0.035 -0.014 0.051 -0.056 0.083 -0.072 0.063 -0.04 0.015 -0.032 -0.025 -0.076 -0.014 -0.077 0.023 -0.025 0.114 0.014 0.125 0.036 0.03 0.016 0.072 -0.095 0.019 -0.012 0.047 0 0.124 -0.017 0.121 -0.025 0.057 0.004 0.056 0.064 0.043 0.063 0.022 0.005 0.063 -0.027 0.052 0.033 0.109 0.055 0.065 0.002 -0.032 -0.127 0.036 -0.09 -0.007 -0.025 -0.061 -0.042 -0.208 -0.166 -0.036 -0.049 0.005 -0.078 -0.007 -0.115 -0.019 -0.072 0.003 -0.042 0.013 -0.034 0.038 -0.013 0.037 -0.005 0.03 -0.03 0.05 -0.076 0.097 0.007 0.136 0.043 0.101 0.027 0.059 -0.005 0.013 -0.011 -0.002 -0.041 0.007 -0.173 -0.004 -0.037 0.086 -0.017 0.131 -0.004 0.069 -0.01 0.065 -0.073 0.166 -0.025 0.12 -0.098 0.108 -0.101 0.053 -0.027 0.068 -0.018 0.05 0.003 0.063 0.059 0.053 -0.035 0.06 -0.069 0.032 -0.067 0.017 -0.108 -0.012 -0.166 -0.032 -0.13 -0.03 -0.097 -0.006 -0.097 0.07 -0.195 0.06 -0.212 -0.012 -0.084 -0.065 -0.133 -0.066 -0.161 -0.073 -0.177 -0.027 -0.026 -0.02 -0.049 -0.011 -0.058 0.029 -0.181 0.004 -0.061 0.084 -0.083 0.045 -0.095 0.042 -0.104 -0.016 -0.055 -0.006 -0.112 0.011 -0.054 -0.02 -0.044 -0.024 -0.064 0.016 -0.042 0.059 -0.036 0.034 -0.061 0.044 -0.071 0.019 -0.065 -0.031 -0.055 -0.057 -0.082 -0.105 -0.074 -0.121 -0.095 -0.059 -0.058 -0.047 -0.059 -0.043 -0.069 -0.024 -0.055 0.023 -0.036 0.172 -0.083 0.031 -0.03 0.018 -0.046 -0.014 -0.045 -0.046 -0.024 -0.054 -0.017 -0.079 -0.052 -0.148 -0.144 -0.068 -0.032 -0.071 -0.041 -0.038 -0.043 -0.042 -0.119 -0.019 -0.011 -0.041 0.036 -0.052 0.038 -0.043 -0.006 -0.04 -0.034 -0.019 -0.045 -0.044 -0.062 -0.047 -0.051 -0.012 -0.17 -0.008 -0.056 -0.024 -0.077 -0.037 -0.028 -0.039 -0.021 -0.093 -0.141 -0.064 -0.073 -0.263 -0.198 -0.033 -0.032 -0.071 -0.082 -0.123 -0.116 -0.088 -0.093 -0.064 -0.097 -0.03 -0.084 -0.009 -0.065 -0.07 -0.094 -0.06 -0.077 -0.058 -0.025 -0.067 -0.01 -0.06 -0.046 -0.11 -0.103 -0.049 -0.067 -0.029 -0.045 0.001 -0.046 0.026 -0.077 0.032 -0.044 0.001 -0.034 -0.031 -0.028 -0.122 -0.049 -0.277 -0.075 -0.103 -0.057 -0.095 -0.073 -0.072 -0.05 -0.337 -0.212 -0.102 -0.035 -0.088 -0.038 -0.027 -0.036 0.005 -0.035 0.036 -0.026 0.096 -0.054 0.035 -0.062 -0.011 -0.082 -0.038 -0.082 0.019 -0.029 0.031 -0.003 0.064 -0.002 0.133 -0.005 0.286 0.075 0.042 -0.008 0.155 -0.136 0.059 -0.081 0.013 -0.068 0.031 -0.043 0.082 -0.071 0.001 -0.065 -0.041 -0.086 -0.041 -0.033 -0.035 -0.014 -0.114 0.012 -0.022 -0.019 -0.015 -0.064 -0.005 -0.04 -0.038 -0.046 -0.123 -0.039 -0.104 -0.011 -0.024 -0.017 0.04 -0.044 0.071 -0.044 0.054 -0.025 0.042 -0.045 0.008 -0.046 -0.053 -0.041 -0.069 -0.046 -0.112 -0.087 -0.154 -0.093 -0.094 -0.032 -0.049 0.004 -0.17 0.08 -0.092 0.052 -0.076 0.093 -0.079 0.02 -0.08 -0.041 -0.091 -0.042 -0.253 -0.061 -0.106 -0.051 -0.221 -0.311 -0.033 -0.063 0.021 -0.072 0.015 -0.102 0.022 -0.066 0.039 -0.063 0.011 -0.056 -0.01 -0.055 -0.032 -0.032 -0.042 -0.009 -0.031 -0.012 -0.029 -0.073 -0.018 0.009 -0.027 0.088 -0.033 0.032 -0.043 0.016 -0.033 -0.014 -0.021 -0.035 -0.01 -0.06 -0.022 -0.08 -0.027 -0.053 -0.095 -0.053 -0.045 -0.069 -0.141 -0.151 -0.118 -0.106 -0.056 -0.095 0.049 -0.035 0.061 -0.051 0.065 -0.08 0.074 -0.101 0.031 -0.061 0.021 -0.025 0.043 -0.018 0.046 0.01 0.081 0.041 0.122 0.052 0.109 0.061 0.044 0.062 0.061 0.059 0.047 0.018 0.023 -0.005 0.071 -0.045 0.06 -0.045 0.001 -0.051 0.056 -0.046 0.073 -0.075 0.034 -0.051 0.026 -0.005 0.029 0.015 0.115 0.157 0.022 0.009 0.032 -0.024 0.045 -0.123 0.05 -0.048 0.017 0.012 0.278 0.232 0.026 -0.002 0.03 -0.01 0.019 -0.036 0.022 -0.08 0.041 -0.086 0.089 -0.048 0.069 -0.009 0.026 0.041 0.06 0.056 0.073 0.008 0.155 -0.1 0.051 -0.016 0.054 0.002 0.056 -0.004 0.053 -0.038 0.056 -0.051 0.019 -0.1 0.012 -0.089 0.038 -0.036 0.045 -0.024 0.086 -0.034 0.193 -0.087 0.05 -0.041 0.037 -0.023 0.075 0.038 0.09 0.072 0.054 0.054 0.036 0.059 0.017 0.049 0.143 0.043 0.091 0.061 0.061 0.047 0.06 -0.002 0.06 -0.013 0.039 -0.037 0.067 -0.001 0.08 0.005 0.036 0.015 0.065 0.086 0.03 0.012 0.059 -0.006 0.113 -0.03 0.091 -0.014 0.082 0.034 0.156 0.095 -0.044 0.068 -0.035 0.073 -0.068 0.052 -0.051 0.013 -0.032 0.072 -0.014 0.106 0.017 0.054 0.04 0.017 0.043 0.036 0.018 0.047 0.006 0.105 -0.002 0.118 0.006 0.039 0.034 -0.007 0.032 -0.014 0.065 0.018 0.08 0.031 0.051 0.031 0.046 -0.004 0.035 0.031 0.013 0.059 0.042 0.041 0.117 0.077 0.094 0.006 0.079 0.102 0.082 -0.033 0.038 0.044 0.17 -0.016 0.118 -0.041 0.043 0.01 0.106 0.085 z M 106.617 -8.683 l -0.028 0.002 -0.021 -0.02 0.091 -0.065 -0.009 0.043 0.003 0.022 z M 107.168 -10.397 l -0.084 0.061 -0.006 -0.051 0.073 -0.033 0.026 -0.026 0.018 0 z M 106.866 -20.816 l -0.012 0.019 -0.051 -0.047 -0.034 -0.02 0.026 -0.064 0.06 0.07 z M 107.603 -21.217 l -0.144 0.125 -0.055 -0.002 0.049 -0.142 0.024 -0.034 0.086 0.049 z M 107.521 -20.927 l -0.056 0.026 -0.066 -0.003 0.079 -0.049 0.04 -0.06 0.032 -0.021 0 0.053 z M 107.031 -20.747 l -0.041 0.004 -0.079 -0.081 0.043 -0.043 0.09 0.03 0.021 0.02 0 0.018 -0.022 0.039 z" vector-effect="non-scaling-stroke" fill="#000" fill-opacity="1" stroke="#FFF" stroke-width="0px" stroke-linejoin="round" stroke-linecap="round"/></svg>
