<svg xmlns="http://www.w3.org/2000/svg" xmlns:xlink="http://www.w3.org/1999/xlink" height="400" width="400" viewBox="-17.098779296875 -27.6564453125 8.41665039062499 6.85029296875"><path d="M -17.003 -21.421 l 0 0 0.052 -0.01 0.22 -0.04 0.15 -0.011 0.39 0 0.15 -0.02 0.12 0 0.17 0.01 0.14 0.021 0.15 0.02 0.17 0 0.14 0.01 0.18 0 0.13 -0.01 0.09 -0.05 0.08 -0.1 0.03 -0.08 0.03 -0.07 -0.01 -0.07 -0.01 -0.04 0.05 -0.05 0.06 -0.08 0.06 -0.05 0.02 -0.04 0.06 -0.04 0.07 -0.07 0.04 -0.05 0.05 -0.069 0.01 -0.061 0.02 -0.08 0 -0.14 0.02 -0.17 0.03 -0.11 0.02 -0.09 0.02 -0.14 0.06 -0.24 0.02 -0.07 0.04 -0.109 0.05 -0.101 0.04 -0.07 0.05 -0.06 0.07 -0.04 0.11 -0.04 0.08 -0.04 0.1 -0.04 0.09 -0.03 0.08 -0.04 0.03 -0.039 0.05 -0.07 0.07 -0.13 0.04 -0.08 0.06 -0.101 0.07 -0.069 0.043 -0.027 0.037 -0.023 0.09 -0.051 0.11 -0.06 0.08 -0.05 0.07 -0.051 0.06 -0.039 0.07 -0.061 0.03 -0.05 0.04 -0.09 0.05 -0.141 0.04 -0.149 0.04 -0.16 0.03 -0.1 0.03 -0.12 0.04 -0.091 0.03 -0.1 0.02 -0.04 0 -0.05 0.02 -0.07 0.004 -0.006 0.026 -0.035 0.07 -0.02 0.08 -0.021 0.126 -0.016 0.037 -0.018 0.019 -0.059 0.015 -0.051 0.047 -0.082 0.053 -0.065 0.031 -0.04 0.042 -0.069 0.041 -0.05 0.071 -0.063 0.062 -0.05 0.021 -0.051 0 -0.061 -0.044 -0.049 -0.031 -0.09 0.129 -0.027 0.113 -0.03 0.104 -0.029 0.124 -0.04 0.093 0 0.072 -0.01 0.104 0.02 0.103 0.01 0.072 0.03 0.124 0.06 0.103 0.04 0.062 0 0.066 -0.02 0.056 -0.028 0.034 -0.002 0.052 0.021 0.081 0.04 0.082 0 0.083 -0.011 0.062 -0.05 0.104 -0.08 0.083 -0.06 0.074 -0.038 0.06 -0.01 0.067 0 0.077 -0.002 0.124 0.01 0.083 0 0.113 -0.014 0.094 -0.017 0.041 -0.03 0 -0.04 -0.021 -0.06 -0.022 -0.058 -0.006 -0.053 0.014 -0.056 0.015 -0.044 -0.01 -0.07 -0.029 -0.083 -0.004 -0.042 0 -0.001 0.134 0 0 0.166 0 0.204 0 0.167 0 0.198 0 0.198 0 0.225 0 0.225 0 0.164 0 0.114 -0.203 0 -0.186 0 -0.186 0 -0.186 0 -0.186 0 -0.186 0 -0.186 0 -0.186 0 -0.186 0 -0.186 0 -0.186 0 -0.186 0 -0.186 0 -0.186 0 -0.186 0 -0.186 0 -0.186 0 -0.15 0 0 0.119 0 0.136 0 0.136 0 0.136 0 0.136 0 0.136 0 0.136 0 0.136 0 0.136 0 0.136 0 0.136 0 0.136 0 0.136 0 0.136 0 0.136 0 0.136 0 0.136 0 0.121 -0.007 0.109 -0.06 0.032 -0.143 0.058 -0.147 0.059 -0.186 0.027 -0.061 0.019 -0.119 0.079 -0.156 0.103 -0.135 0.089 -0.089 0.116 -0.032 0.064 -0.013 0.067 0.011 0.064 0.049 0.129 0.013 0.065 0.008 0.113 0.008 0.123 0.009 0.132 0.009 0.132 0.009 0.141 0.009 0.141 0.01 0.142 0.007 0.105 0.009 0.133 -0.151 0 -0.229 0 -0.229 0 -0.229 0 -0.229 0 -0.229 0 -0.229 0 -0.229 0 -0.229 0 -0.229 0 -0.229 0 -0.229 0 -0.229 0 -0.229 0 -0.229 0 -0.229 0 -0.229 0 -0.128 0 -0.041 0.187 -0.036 0.134 -0.022 0.109 0.016 0.093 -0.051 -0.051 0.089 -0.52 z" vector-effect="non-scaling-stroke" fill="#000" fill-opacity="1" stroke="#FFF" stroke-width="0px" stroke-linejoin="round" stroke-linecap="round"/></svg>
