<svg xmlns="http://www.w3.org/2000/svg" xmlns:xlink="http://www.w3.org/1999/xlink" height="400" width="400" viewBox="42.5490234375 -18.996142578125 11.962109375 6.67714843750001"><path d="M 53.086 -16.648 l -0.504 0.178 -0.133 0.079 -0.121 0.098 -0.09 0.122 -0.063 0.215 0.048 0.196 -0.005 0.105 -0.13 0.07 -0.121 0.05 -0.135 0.076 -0.082 0.019 -0.067 0.061 -0.078 0.042 -0.281 0.111 -0.307 0.085 -0.488 0.103 -0.188 0.111 -0.172 0.076 -0.261 0.023 -0.358 0.106 -0.199 0.085 -0.247 0.138 -0.055 0.044 -0.043 0.101 -0.076 0.088 -0.149 0.144 -0.112 0.074 -0.075 0.004 -0.145 0.04 -0.171 0.008 -0.288 -0.05 -0.074 0.035 -0.061 0.056 -0.222 0.098 -0.226 0.197 -0.165 0.052 -0.267 0.062 -0.187 0.082 -0.125 0.033 -0.162 0.017 -0.299 -0.008 -0.283 0.03 -0.262 0.056 -0.123 0.105 -0.14 0.166 -0.23 0.069 -0.054 0.06 -0.071 0.123 -0.149 0.032 -0.135 0.02 -0.138 -0.053 -0.259 0.148 -0.098 0.025 -0.149 0.006 -0.106 0.031 -0.076 -0.009 -0.094 -0.058 -0.201 -0.07 -0.147 0.046 -0.012 -0.14 -0.243 -0.428 0.051 -0.373 0 -0.053 -0.048 -0.166 -0.145 -0.152 0.004 -0.193 -0.049 -0.138 -0.039 -0.142 0.012 -0.038 0.002 -0.034 -0.074 -0.218 -0.025 -0.044 -0.009 -0.046 0.024 -0.035 -0.001 -0.041 -0.039 -0.067 -0.041 -0.127 -0.198 -0.1 0.04 -0.094 0.039 0.033 0.052 0.028 0.011 -0.061 0.001 -0.045 -0.083 -0.283 0.122 -0.377 -0.04 -0.34 0.187 -0.137 0.047 -0.041 0.027 -0.036 0.044 -0.078 0.06 -0.025 0.021 -0.082 -0.002 -0.041 -0.039 -0.035 -0.029 -0.095 0.01 -0.12 0.01 -0.051 0.02 -0.092 0.065 -0.034 0.016 -0.027 -0.051 -0.058 0.005 -0.035 0.111 -0.097 0.044 -0.029 0.072 -0.03 0.056 0 0.065 0.017 0.058 0.027 0.056 0.05 0.06 0.056 0.091 0.021 0.062 -0.005 0.051 0.025 0.043 -0.014 0.049 -0.029 0.078 0.002 0.07 -0.033 0.199 -0.016 0.192 0.01 0.2 -0.027 0.2 0.002 0.202 0.002 0.045 0.004 0.044 0.017 0.17 0.086 0.129 0.018 0.259 0.024 0.276 0.025 0.24 0.022 0.203 -0.02 0.169 -0.017 0.046 0.003 0.051 0.053 0.101 0.133 0.096 0.126 0.168 0.007 0.108 -0.047 0.118 -0.066 0.072 -0.051 0.084 -0.204 0.054 -0.132 0.124 -0.148 0.104 -0.124 0.138 -0.165 0.076 -0.091 0.15 -0.18 0.144 -0.07 0.277 -0.135 0.272 -0.133 0.177 -0.087 0.15 -0.04 0.253 -0.034 0.297 -0.04 0.297 -0.04 0.316 -0.043 0.353 -0.048 0.242 -0.033 0.308 -0.042 0.257 -0.035 0.228 -0.031 0.235 -0.032 0.044 0.1 0.044 0.1 0.044 0.1 0.044 0.1 0.044 0.1 0.044 0.1 0.044 0.1 0.044 0.1 0.044 0.1 0.044 0.1 0.044 0.1 0.044 0.1 0.044 0.1 0.044 0.1 0.044 0.1 0.044 0.1 0.043 0.098 0.071 0.032 0.042 0.092 0.061 0.132 0.061 0.132 0.061 0.132 z M 42.59 -15.303 l -0.032 0.022 -0.01 -0.039 0.021 -0.087 0.033 -0.025 0.022 0.065 -0.014 0.036 z M 42.756 -13.704 l -0.066 0.031 0.045 -0.079 0.046 -0.016 0.013 0.003 z M 42.787 -13.971 l -0.013 0.021 -0.018 -0.005 -0.062 -0.053 0.068 -0.06 0.036 0.055 z M 53.763 -12.637 l 0.062 0.012 0.094 -0.035 0.269 -0.005 0.324 0.111 -0.061 0.029 -0.036 0.04 -0.142 0.037 -0.142 0.086 -0.411 0.042 -0.121 -0.023 -0.099 -0.083 -0.184 -0.108 0.073 -0.069 0.015 -0.031 0.027 -0.03 0.104 -0.052 0.104 0.008 z" vector-effect="non-scaling-stroke" fill="#000" fill-opacity="1" stroke="#FFF" stroke-width="0px" stroke-linejoin="round" stroke-linecap="round"/></svg>
