<svg xmlns="http://www.w3.org/2000/svg" xmlns:xlink="http://www.w3.org/1999/xlink" height="400" width="400" viewBox="21.97890625 8.22014109794627 11.6826171875 9.82136280830373"><path d="M 30.396 15.643 l -0.145 0 -0.256 0.001 -0.265 0.001 -0.242 0.052 -0.199 0.08 -0.237 0.125 -0.078 0.049 -0.06 0.038 -0.037 0.048 -0.019 0.106 0 0.164 -0.024 0.118 -0.072 0.108 0 0 0 0 -0.079 -0.024 -0.058 -0.013 -0.045 0.011 -0.019 0.016 -0.008 0.015 -0.022 0.009 -0.033 -0.005 -0.056 0.018 -0.048 0.027 -0.02 -0.012 -0.022 -0.013 -0.036 -0.011 -0.024 -0.006 0.008 0.025 -0.015 0.033 -0.038 0.029 -0.04 0.017 -0.031 0.008 0.005 0.023 -0.012 0.029 -0.032 0.029 -0.03 0.019 -0.033 0.035 -0.031 0.028 -0.033 0.007 -0.034 -0.005 -0.033 -0.022 -0.025 -0.015 -0.018 -0.013 -0.022 0.004 -0.019 0.02 -0.032 0.018 -0.032 0.008 -0.004 0.017 0.028 0.033 0.014 0.033 -0.031 0.016 -0.047 0.006 -0.035 0.005 -0.013 0.012 0.011 0.019 -0.013 0.039 -0.018 0.044 0.002 0.025 -0.019 0.009 -0.028 -0.007 -0.032 0.005 -0.059 0.079 -0.078 0.094 -0.041 0.053 -0.059 0.089 -0.028 0.071 0.029 0.019 -0.001 0.025 -0.017 0.024 -0.016 0.022 -0.019 0.013 -0.026 0.018 -0.037 0.029 -0.084 0.079 -0.065 0.082 -0.011 0.036 -0.001 0.04 -0.03 0.026 -0.025 0.03 -0.021 0.023 0.002 0.031 -0.241 0.083 -0.202 -0.019 -0.244 -0.093 -0.194 -0.018 -0.144 0.058 -0.133 -0.018 -0.122 -0.094 -0.102 -0.034 -0.083 0.025 -0.105 -0.004 -0.193 -0.052 -0.167 -0.159 -0.09 -0.066 -0.069 -0.025 -0.2 -0.026 -0.458 -0.037 -0.048 0.008 -0.19 0.031 -0.238 0.039 -0.204 0.039 -0.214 0.041 -0.199 -0.166 -0.226 -0.189 -0.234 -0.21 -0.176 -0.165 -0.087 -0.095 -0.154 -0.126 -0.111 -0.061 -0.043 -0.031 -0.11 -0.334 -0.06 -0.307 0 -0.231 0 -0.321 0 -0.321 0 -0.321 0 -0.321 0 -0.321 0 -0.321 0 -0.321 0 -0.321 0 -0.156 0.231 0 0.261 0 0.273 0 0.297 0 0.297 0 0.297 0 0.207 0 0.054 -0.003 0.066 -0.01 0.005 -0.032 -0.086 -0.158 0.004 -0.056 0.023 -0.107 0.035 -0.092 0.047 -0.122 0.005 -0.071 -0.038 -0.233 0.003 -0.13 0.011 -0.135 0.01 -0.128 -0.013 -0.089 0.016 -0.049 0.028 -0.07 0.015 -0.079 0.017 -0.034 -0.005 -0.031 -0.016 -0.058 -0.016 -0.131 -0.022 -0.182 -0.022 -0.131 0.036 0.007 0.076 0.012 0.037 0.064 0.021 0.07 0.051 0.004 0.133 0.042 0.046 0.058 0.031 0.125 -0.018 0.064 -0.043 0.052 0.043 0.046 0.089 0.031 0.052 -0.009 0.15 -0.086 0.06 -0.015 0.078 -0.017 0.071 -0.022 0.199 -0.039 0.109 -0.017 0.061 -0.031 0.043 0 0.031 0.025 -0.028 0.089 -0.009 0.079 0.038 0.149 0.029 0.07 0.064 0.05 0.047 0.026 0.052 0.054 0.107 -0.009 0.236 0.076 0.072 0.035 0.099 0.035 0.07 0.013 0.243 0.027 0.09 0.018 0.167 0.024 0.133 0.004 0.094 -0.011 0.066 -0.022 0.04 -0.024 0.019 -0.021 0.027 -0.074 0.05 -0.161 0.019 -0.048 0.049 -0.022 0.064 -0.015 0.037 0.026 0.042 0.178 0.186 0.161 0.063 0.135 0.046 0.116 0.04 0.032 0.071 0.04 0.112 0.014 0.101 0.004 0.211 0.083 0.168 0.066 0.12 0.047 0.055 0.036 0.039 0.059 0.023 0.046 0.037 0.119 0.04 0.094 0.065 0.018 0.058 0.007 0.057 0.064 0.043 0.056 0.086 0.138 0.063 0.095 0.021 0.092 0.072 0.062 0.097 0.026 0.09 0.003 0.052 -0.028 0.128 -0.048 0.1 -0.055 0.073 -0.019 0.043 0.012 0.033 0.038 0.017 0.074 0.004 0.041 0.071 0.039 0.053 -0.016 0.02 -0.045 0.001 -0.023 0 -0.202 0 -0.175 0 -0.165 0 -0.201 0 -0.175 0 -0.144 0 -0.151 -0.046 0.009 -0.058 0.034 -0.132 0.004 -0.052 0.026 -0.016 0.039 0.01 0.051 0.003 0.069 -0.019 0.032 -0.058 0.013 -0.084 -0.026 -0.153 -0.035 -0.127 -0.021 -0.091 -0.091 -0.123 -0.137 -0.081 -0.069 -0.195 -0.143 -0.033 -0.029 -0.059 -0.067 -0.051 -0.114 -0.025 -0.075 -0.024 -0.056 -0.026 -0.084 0.047 -0.129 0.066 -0.245 0.048 -0.176 0.026 -0.131 0.095 -0.133 0.007 -0.119 -0.038 -0.153 0.01 -0.084 0.006 -0.214 0.005 -0.18 0.001 -0.087 -0.026 -0.152 -0.064 -0.169 -0.14 -0.235 0 -0.05 0.084 -0.055 0.132 -0.097 0.065 -0.058 0.078 -0.082 0.035 -0.042 0.076 -0.105 0.048 -0.085 0.017 -0.11 -0.036 -0.105 0.074 -0.021 0.243 -0.037 0.268 -0.041 0.282 -0.043 0.285 -0.043 0.276 -0.042 0.25 -0.038 -0.004 0.042 -0.024 0.05 -0.041 0.019 -0.03 0.023 -0.018 0.027 -0.013 0.067 0.017 0.049 0.03 0.009 0.048 -0.003 0.025 0.01 0.001 0.023 -0.009 0.019 -0.026 0.023 0.021 0.001 0.065 -0.036 0.034 -0.037 0.017 -0.004 0.01 0.011 0.03 0.02 0.088 0.032 0.007 0.012 0.165 0.167 0.051 0.041 0.023 0.005 0.039 -0.015 0.029 -0.022 0.02 -0.029 0.017 -0.005 0.015 0.019 0.013 0.003 0.011 -0.012 0.009 -0.078 -0.012 -0.042 0.165 -0.003 0.099 0.047 0.086 0.059 0.021 0.092 0.057 0.058 0.061 0.046 0.026 0.006 0.045 -0.011 0.073 -0.001 0.068 0.02 0.033 0.02 0.003 0.077 0.021 0.035 0.093 0.013 0.094 0.006 0.091 0.052 0.098 0.009 0.114 0.021 0.054 0.056 0.121 0.058 0.148 0.052 0.107 0.059 0.057 0.027 0.003 0.027 0.028 0.05 0.029 0.036 0.002 0.053 0.014 0.049 0.042 0.012 0.035 0.003 0.032 -0.036 0.044 0.001 0.048 0.023 0.017 0.057 0.037 0.077 0.06 0.052 0.041 0.05 -0.014 0.092 -0.026 0.084 0.082 0.083 0.107 0.079 0.029 0.035 0.009 0.117 0.016 0.04 0.072 0.097 0.035 0.065 -0.002 0.037 -0.194 0.193 -0.062 0.019 -0.058 0.011 -0.052 0.04 -0.031 0.041 0.011 0.022 0.021 0.066 0.045 0.104 0.041 0.073 -0.034 0.091 -0.077 0.155 -0.036 0.014 -0.006 0.117 0.024 0.043 0.038 0.033 0.016 0.08 0.001 0.109 -0.004 0.088 -0.049 0.224 0.088 0.196 0.03 0.021 0.121 0.001 0.021 0.017 -0.029 0.056 -0.053 0.057 -0.033 0.029 -0.154 0.067 -0.222 0.074 -0.046 0.071 -0.03 0.103 0.025 0.06 0.029 0.035 -0.01 0.09 -0.019 0.095 0.007 0.075 -0.01 0.066 -0.029 0.032 -0.039 0.1 -0.048 0.1 -0.038 0.046 -0.056 0.048 -0.088 0.04 0.002 0.02 0.1 0.046 0.026 0.032 0.009 0.022 -0.021 0.021 -0.02 0.03 0.046 0.031 0.056 0.026 0.053 0.067 0.047 0.093 0.014 0.033 0.011 0.013 0.017 0.002 0.033 -0.014 0.061 -0.051 0.044 -0.018 0.054 0.072 -0.215 0.072 -0.113 0.038 -0.321 0.107 -0.28 0.093 -0.073 0.018 -0.145 0.046 -0.072 0.028 -0.253 0.082 -0.106 0.041 -0.085 0.04 -0.209 0.061 -0.198 0.057 -0.216 0.059 -0.242 0.066 -0.136 0.047 -0.092 0.041 -0.214 0.083 -0.01 0.02 0.003 0.056 0.027 0.116 0.054 0.106 0.045 0.061 0.029 0.156 z M 27.354 17.602 l -0.071 0.076 0.004 -0.005 0.05 -0.055 0.017 -0.015 z" vector-effect="non-scaling-stroke" fill="#000" fill-opacity="1" stroke="#FFF" stroke-width="0px" stroke-linejoin="round" stroke-linecap="round"/></svg>
