<svg xmlns="http://www.w3.org/2000/svg" xmlns:xlink="http://www.w3.org/1999/xlink" height="400" width="400" viewBox="25.2240234375 15.64306640625 7.78271484375 6.75898437500001"><path d="M 31.288 22.402 l -0.091 -0.057 -0.124 -0.037 -0.157 -0.017 -0.204 0.007 -0.251 0.031 -0.27 -0.038 -0.288 -0.107 -0.239 -0.038 -0.286 0.046 -0.013 0.001 -0.05 -0.036 -0.078 -0.078 -0.13 -0.014 -0.035 -0.018 -0.029 -0.029 -0.019 -0.037 -0.008 -0.041 0.021 -0.129 -0.012 -0.014 -0.035 -0.015 -0.071 -0.015 -0.172 -0.058 -0.216 -0.056 -0.35 -0.062 -0.136 -0.016 -0.032 -0.019 -0.039 -0.047 -0.067 -0.148 -0.063 -0.098 -0.151 -0.15 -0.024 -0.047 0.008 -0.119 0.011 -0.096 0.016 -0.082 -0.007 -0.077 -0.002 -0.095 0.005 -0.064 -0.02 -0.028 -0.055 -0.019 -0.156 -0.009 -0.188 0.004 -0.006 -0.097 -0.018 -0.15 -0.035 -0.086 -0.043 -0.045 -0.086 -0.047 -0.175 -0.064 -0.238 -0.097 -0.204 -0.144 -0.234 -0.179 -0.073 -0.031 -0.086 -0.168 -0.131 -0.288 0.008 -0.096 -0.02 -0.047 -0.127 -0.142 -0.028 -0.074 -0.022 -0.074 -0.203 -0.207 -0.069 -0.091 -0.053 -0.116 -0.052 -0.093 -0.044 -0.038 -0.058 -0.063 -0.04 -0.072 -0.018 -0.054 0.015 -0.072 0.02 -0.05 0.193 0.052 0.105 0.004 0.083 -0.025 0.102 0.034 0.122 0.094 0.133 0.018 0.144 -0.058 0.194 0.018 0.244 0.093 0.202 0.019 0.241 -0.083 0.031 0.005 0.026 -0.007 0.039 -0.044 0.048 -0.068 0.031 -0.043 0.033 -0.048 0.055 -0.076 0.071 -0.076 0.054 -0.022 0.046 -0.012 0.009 -0.009 -0.012 0 -0.01 -0.005 0.015 -0.02 0.047 -0.025 0.047 -0.034 0.016 -0.019 0.011 -0.004 0.035 -0.07 0.042 -0.088 0.015 -0.04 0.015 -0.024 0.022 -0.023 0.045 -0.033 0.063 -0.018 0.027 -0.011 0.03 -0.028 0.043 -0.039 0.029 -0.028 0.016 -0.011 0.04 0.011 0.048 0.014 0.029 -0.018 0.02 -0.03 0.006 -0.024 -0.014 -0.014 -0.005 -0.032 0.017 -0.05 0.015 -0.035 0.034 -0.022 0.091 -0.021 0.1 -0.029 0.041 0.007 0.037 0.041 0.036 0.028 0.007 0.001 -0.003 -0.031 0.015 -0.041 0.034 -0.035 0.046 -0.019 0.031 -0.012 0.028 -0.012 0.042 -0.016 0.035 0.01 0.01 0.037 -0.002 0.028 0.027 0.024 0.037 0.01 0.028 -0.018 0.039 -0.02 0.025 -0.046 0.013 -0.049 0.035 0.007 0.03 0.006 0.012 -0.03 0.024 -0.033 0.02 -0.015 -0.021 -0.013 -0.024 -0.021 -0.044 -0.007 -0.045 0.002 -0.094 -0.039 0.072 -0.108 0.024 -0.118 0 -0.164 0.019 -0.106 0.037 -0.048 0.06 -0.038 0.078 -0.049 0.237 -0.125 0.199 -0.08 0.242 -0.052 0.265 -0.001 0.256 -0.001 0.145 0 0.002 0.158 0.011 0.177 0.028 0.017 0.192 0.004 0.309 0.012 0.297 0.012 0.19 0.129 0.064 0.027 0.198 0.034 0.252 0.215 0.303 0.02 0.209 0.067 0.184 0.074 0.106 0.088 0.068 0.02 0.093 0.007 0.045 0.008 -0.01 0.064 -0.062 0.108 0.008 0.154 0.085 0.214 0.011 0.186 -0.026 0.328 0.001 0.317 0.009 0.113 0.014 0.075 0.018 0.041 -0.003 0.047 -0.051 0.133 -0.041 0.14 -0.001 0.056 -0.016 0.039 -0.03 0.035 -0.133 0.065 -0.023 0.04 0 0.072 0.017 0.061 0.05 0.022 0.06 0.034 0.024 0.046 0 0.048 -0.019 0.089 -0.053 0.147 0.053 0.169 0.06 0.11 0.082 0.127 0.034 0.078 -0.002 0.056 -0.012 0.055 -0.123 0.232 -0.089 0.144 -0.108 0.155 -0.143 0.097 -0.037 0.047 -0.015 0.053 0.005 0.116 -0.007 0.121 -0.123 0.186 0.076 0.161 -0.017 0.015 -0.041 0.023 -0.176 0.181 -0.178 0.183 -0.13 0.133 -0.148 0.152 -0.166 0.17 -0.142 0.145 z M 28.76 16.532 l 0 0 0 0 z" vector-effect="non-scaling-stroke" fill="#000" fill-opacity="1" stroke="#FFF" stroke-width="0px" stroke-linejoin="round" stroke-linecap="round"/></svg>
