<svg xmlns="http://www.w3.org/2000/svg" xmlns:xlink="http://www.w3.org/1999/xlink" height="400" width="400" viewBox="19.51904296875 -60.405810546875 1.09228515625 0.394140625000006"><path d="M 19.99 -60.351 l 0.031 0 0.014 -0.008 0.054 0.006 0.08 0.039 0.016 0.021 0.055 0.011 0.019 0.022 -0.064 0.068 -0.04 0.001 -0.03 -0.009 -0.052 0.007 -0.031 0.013 -0.01 0.028 0.002 0.059 -0.234 0.012 -0.054 -0.017 -0.074 -0.134 0.015 -0.035 0.05 -0.015 0.042 -0.003 0.006 0.072 0.062 -0.007 0.02 -0.048 0.004 -0.033 -0.017 -0.017 -0.042 -0.013 -0.025 -0.022 0.035 -0.036 0.065 -0.016 0.056 0.048 z M 19.662 -60.187 l 0.005 0.022 -0.038 -0.006 -0.029 0.008 -0.02 0.028 -0.043 -0.01 -0.017 -0.04 0.032 -0.059 0.077 -0.002 z M 20.611 -60.041 l -0.008 0.024 -0.082 0.005 -0.034 -0.021 -0.076 0.003 -0.013 -0.011 0.032 -0.021 0.061 -0.013 0.079 0.005 z" vector-effect="non-scaling-stroke" fill="#000" fill-opacity="1" stroke="#FFF" stroke-width="0px" stroke-linejoin="round" stroke-linecap="round"/></svg>
